<?xml version="1.0" encoding="utf-8"?>
<!-- Generator: Adobe Illustrator 24.0.1, SVG Export Plug-In . SVG Version: 6.00 Build 0)  -->
<svg version="1.1" id="Layer_2" xmlns="http://www.w3.org/2000/svg" xmlns:xlink="http://www.w3.org/1999/xlink" x="0px" y="0px"
	 viewBox="0 0 24 24" enable-background="new 0 0 24 24" xml:space="preserve">
<path fill="#231F20" d="M19.058,7.006L7.217,18.923c-0.128,0.129-0.302,0.202-0.483,0.202c-0.164,0.048-0.36-0.074-0.489-0.207
	l-5.311-5.444c0,0-0.001-0.002-0.001-0.003L2,13.281c0.372-0.065,0.659,0.029,0.929,0.278l3.811,3.9l10.28-10.332
	c0.284-0.285,0.586-0.38,0.98-0.309L19.058,7.006z"/>
<path fill="#231F20" d="M21.909,7.119c-0.395-0.071-0.696,0.023-0.981,0.309l-10.28,10.331L9.96,17.054l-0.97,0.97l1.165,1.194
	c0.129,0.133,0.325,0.255,0.489,0.207c0.181,0,0.355-0.073,0.483-0.202L22.968,7.306L21.909,7.119z"/>
</svg>
