<?xml version="1.0" encoding="utf-8"?>
<!-- Generator: Adobe Illustrator 16.0.0, SVG Export Plug-In . SVG Version: 6.00 Build 0)  -->
<!DOCTYPE svg PUBLIC "-//W3C//DTD SVG 1.1//EN" "http://www.w3.org/Graphics/SVG/1.1/DTD/svg11.dtd">
<svg version="1.1" id="Layer" xmlns="http://www.w3.org/2000/svg" xmlns:xlink="http://www.w3.org/1999/xlink" x="0px" y="0px"
	 width="16px" height="16px" viewBox="0 0 16 16" enable-background="new 0 0 16 16" xml:space="preserve">
<path fill="#231F20" d="M15.707,4.183l-3.889-3.89C11.631,0.105,11.376,0,11.111,0H2.555C1.146,0,0,1.146,0,2.555v10.891
	C0,14.854,1.146,16,2.555,16h10.89C14.854,16,16,14.854,16,13.445V4.89C16,4.624,15.895,4.37,15.707,4.183z M12,15H4v-5h8V15z
	 M15,13.445C15,14.304,14.304,15,13.445,15H13V9.5C13,9.224,12.776,9,12.5,9h-9C3.224,9,3,9.224,3,9.5V15H2.555
	C1.696,15,1,14.304,1,13.445V2.555C1,1.696,1.696,1,2.555,1H3v4.5C3,5.776,3.224,6,3.5,6h5.6L8.633,5.333
	C8.493,5.133,8.32,5.053,8.1,5.025L7.6,5H4V1h7.111L15,4.89V13.445z"/>
</svg>
