<?xml version="1.0" encoding="iso-8859-1"?>
<!-- Generator: Adobe Illustrator 16.0.0, SVG Export Plug-In . SVG Version: 6.00 Build 0)  -->
<!DOCTYPE svg PUBLIC "-//W3C//DTD SVG 1.1//EN" "http://www.w3.org/Graphics/SVG/1.1/DTD/svg11.dtd">
<svg version="1.1" id="Layer" xmlns="http://www.w3.org/2000/svg" xmlns:xlink="http://www.w3.org/1999/xlink" x="0px" y="0px"
	 width="24px" height="24px" viewBox="0 0 24 24" style="enable-background:new 0 0 24 24;" xml:space="preserve">
<path style="fill:#231F20;" d="M22.596,6.753l-5.345-5.349C16.993,1.146,16.642,1,16.277,1H4.513C2.577,1,1,2.574,1,4.516v14.969
	C1,21.426,2.577,23,4.513,23h14.974C21.423,23,23,21.426,23,19.484V7.724C23,7.358,22.854,7.011,22.596,6.753z M17.625,21.625H6.375
	V15h11.25V21.625z M21.625,19.484c0,1.181-0.957,2.141-2.138,2.141H19v-7.312c0-0.382-0.309-0.688-0.688-0.688H5.688
	C5.309,13.625,5,13.931,5,14.312v7.312H4.513c-1.181,0-2.138-0.96-2.138-2.141V4.516c0-1.181,0.957-2.141,2.138-2.141L5.012,2.4
	L5,8.688c0,0.382,0.309,0.688,0.688,0.688h7.701l-0.643-0.919c-0.193-0.276-0.431-0.386-0.732-0.419L11.326,8H6.375l0.012-5.6
	l9.891-0.025l5.348,5.349V19.484z"/>
</svg>
