<?xml version="1.0" encoding="iso-8859-1"?>
<!-- Generator: Adobe Illustrator 16.0.0, SVG Export Plug-In . SVG Version: 6.00 Build 0)  -->
<!DOCTYPE svg PUBLIC "-//W3C//DTD SVG 1.1//EN" "http://www.w3.org/Graphics/SVG/1.1/DTD/svg11.dtd">
<svg version="1.1" id="Layer" xmlns="http://www.w3.org/2000/svg" xmlns:xlink="http://www.w3.org/1999/xlink" x="0px" y="0px"
	 width="16px" height="16px" viewBox="0 0 16 16" style="enable-background:new 0 0 16 16;" xml:space="preserve">
<path style="fill:#231F20;" d="M15.707,4.183l-3.889-3.89C11.631,0.105,11.376,0,11.111,0H2.555C1.146,0,0,1.146,0,2.555v10.891
	C0,14.854,1.146,16,2.555,16h10.89C14.854,16,16,14.854,16,13.445V4.89C16,4.624,15.895,4.37,15.707,4.183z M11.5,15h-7V9.5h7V15z
	 M15,13.445C15,14.304,14.304,15,13.445,15H12.5V9c0-0.276-0.224-0.5-0.5-0.5H4C3.724,8.5,3.5,8.724,3.5,9v6H2.555
	C1.696,15,1,14.304,1,13.445V2.555C1,1.696,1.696,1,2.555,1H3.5v4c0,0.276,0.224,0.5,0.5,0.5h5.6L9.133,4.833
	C8.993,4.633,8.82,4.553,8.6,4.525L8.1,4.5H4.5V1h6.611L15,4.89V13.445z"/>
</svg>
