<?xml version="1.0" encoding="iso-8859-1"?>
<!-- Generator: Adobe Illustrator 16.0.0, SVG Export Plug-In . SVG Version: 6.00 Build 0)  -->
<!DOCTYPE svg PUBLIC "-//W3C//DTD SVG 1.1//EN" "http://www.w3.org/Graphics/SVG/1.1/DTD/svg11.dtd">
<svg version="1.1" id="Layer" xmlns="http://www.w3.org/2000/svg" xmlns:xlink="http://www.w3.org/1999/xlink" x="0px" y="0px"
	 width="24px" height="24px" viewBox="0 0 24 24" style="enable-background:new 0 0 24 24;" xml:space="preserve">
<path style="fill:#231F20;" d="M22.597,6.753l-5.349-5.35C16.979,1.135,16.628,1,16.276,1c-0.353,0-0.704,0.135-0.973,0.403
	L2.572,14.137c-0.238,0.206-0.399,0.492-0.453,0.81L1.02,21.39c-0.063,0.371,0.028,0.751,0.253,1.055l0.002,0.002
	C1.537,22.799,1.947,23,2.378,23c0.076,0,0.154-0.007,0.231-0.021l6.321-1.078c0.324-0.025,0.632-0.164,0.867-0.398L22.597,8.698
	C23.134,8.161,23.134,7.291,22.597,6.753z M8.824,20.53l-0.003-0.005l-6.443,1.099v-0.003H2.376l1.098-6.444l0.003,0.002
	L16.276,2.375l5.349,5.351L8.824,20.53z"/>
</svg>
