<?xml version="1.0" encoding="iso-8859-1"?>
<!-- Generator: Adobe Illustrator 16.0.0, SVG Export Plug-In . SVG Version: 6.00 Build 0)  -->
<!DOCTYPE svg PUBLIC "-//W3C//DTD SVG 1.1//EN" "http://www.w3.org/Graphics/SVG/1.1/DTD/svg11.dtd">
<svg version="1.1" id="Layer" xmlns="http://www.w3.org/2000/svg" xmlns:xlink="http://www.w3.org/1999/xlink" x="0px" y="0px"
	 width="16px" height="16px" viewBox="0 0 16 16" style="enable-background:new 0 0 16 16;" xml:space="preserve">
<path style="fill:#231F20;" d="M15.712,4.184l-3.89-3.891C11.626,0.098,11.371,0,11.115,0c-0.256,0-0.512,0.098-0.708,0.293
	L1.148,9.554c-0.173,0.15-0.291,0.358-0.33,0.589l-0.799,4.687c-0.046,0.27,0.021,0.546,0.184,0.767l0.001,0.002
	C0.395,15.854,0.694,16,1.007,16c0.056,0,0.112-0.005,0.168-0.015l4.597-0.784c0.235-0.019,0.459-0.119,0.63-0.29l9.31-9.312
	C16.103,5.208,16.103,4.575,15.712,4.184z M5.695,14.204L5.693,14.2l-4.686,0.799v-0.002H1.005l0.799-4.687l0.002,0.001L11.115,1
	l3.89,3.892L5.695,14.204z"/>
</svg>
