<?xml version="1.0" encoding="iso-8859-1"?>
<!-- Generator: Adobe Illustrator 16.0.0, SVG Export Plug-In . SVG Version: 6.00 Build 0)  -->
<!DOCTYPE svg PUBLIC "-//W3C//DTD SVG 1.1//EN" "http://www.w3.org/Graphics/SVG/1.1/DTD/svg11.dtd">
<svg version="1.1" id="Layer" xmlns="http://www.w3.org/2000/svg" xmlns:xlink="http://www.w3.org/1999/xlink" x="0px" y="0px"
	 width="16px" height="16px" viewBox="0 0 16 16" style="enable-background:new 0 0 16 16;" xml:space="preserve">
<path style="fill:#231F20;" d="M7,6v4.542c0,0.294-0.107,0.498-0.347,0.667L6,11.664V7.123c0-0.294,0.107-0.499,0.347-0.668L7,6z
	 M9.347,6.455C9.107,6.624,9,6.829,9,7.123v4.541l0.653-0.455C9.893,11.04,10,10.836,10,10.542V6L9.347,6.455z M15,3h-1l0.016,11
	c0,1.103-1.03,2-2.154,2H4.169c-1.124,0-2.154-0.897-2.154-2L2,3H1l0.45-0.642c0.168-0.24,0.307-0.348,0.6-0.348L4,2
	c0.348-0.572,0.806-1.228,0.806-1.228C5.161,0.268,5.674,0,6.291,0H8h1.709c0.616,0,1.129,0.268,1.485,0.772
	C11.194,0.772,11.7,1.5,12,2h1.943c0.293,0,0.432,0.107,0.6,0.348L15,3z M5.168,2H8h2.832l-0.455-0.652
	C10.208,1.107,10.003,1,9.709,1H8H6.291C5.997,1,5.792,1.107,5.624,1.348L5.168,2z M13,3h-2.168H8H5.168H3l0.016,11
	c0,0.552,0.581,1,1.154,1h7.692c0.573,0,1.154-0.448,1.154-1L13,3z"/>
</svg>
