<?xml version="1.0" encoding="iso-8859-1"?>
<!-- Generator: Adobe Illustrator 16.0.0, SVG Export Plug-In . SVG Version: 6.00 Build 0)  -->
<!DOCTYPE svg PUBLIC "-//W3C//DTD SVG 1.1//EN" "http://www.w3.org/Graphics/SVG/1.1/DTD/svg11.dtd">
<svg version="1.1" id="Layer" xmlns="http://www.w3.org/2000/svg" xmlns:xlink="http://www.w3.org/1999/xlink" x="0px" y="0px"
	 width="24px" height="24px" viewBox="0 0 24 24" style="enable-background:new 0 0 24 24;" xml:space="preserve">
<path style="fill:#231F20;" d="M18.266,17.589c1.827-1.755,2.971-4.221,2.971-6.947C21.236,5.324,16.912,1,11.596,1
	s-9.642,4.324-9.642,9.642c0,5.318,4.325,9.642,9.642,9.642c2.091,0,4.024-0.678,5.605-1.812l2.852,4.071
	C20.28,22.855,20.557,23,20.948,23h1.098L18.266,17.589z M3.331,10.642c0-4.565,3.7-8.265,8.265-8.265
	c4.563,0,8.264,3.699,8.264,8.265c0,4.566-3.7,8.265-8.264,8.265C7.031,18.906,3.331,15.208,3.331,10.642z"/>
</svg>
