<?xml version="1.0" encoding="iso-8859-1"?>
<!-- Generator: Adobe Illustrator 16.0.0, SVG Export Plug-In . SVG Version: 6.00 Build 0)  -->
<!DOCTYPE svg PUBLIC "-//W3C//DTD SVG 1.1//EN" "http://www.w3.org/Graphics/SVG/1.1/DTD/svg11.dtd">
<svg version="1.1" id="Layer" xmlns="http://www.w3.org/2000/svg" xmlns:xlink="http://www.w3.org/1999/xlink" x="0px" y="0px"
	 width="16px" height="16px" viewBox="0 0 16 16" style="enable-background:new 0 0 16 16;" xml:space="preserve">
<path style="fill:#231F20;" d="M15.294,15.979l-2.755-3.935C13.866,10.77,14.696,8.98,14.696,7c0-3.86-3.14-7-7-7
	c-3.859,0-7,3.14-7,7c0,3.861,3.141,7.001,7,7.001c1.519,0,2.922-0.492,4.07-1.315l2.07,2.956c0.165,0.227,0.365,0.331,0.65,0.331
	h0.797L15.304,16C15.299,15.993,15.299,15.985,15.294,15.979z M1.696,7c0-3.314,2.687-6,6-6s6,2.686,6,6
	c0,3.315-2.687,6.001-6,6.001S1.696,10.315,1.696,7z"/>
</svg>
