<?xml version="1.0" encoding="iso-8859-1"?>
<!-- Generator: Adobe Illustrator 16.0.0, SVG Export Plug-In . SVG Version: 6.00 Build 0)  -->
<!DOCTYPE svg PUBLIC "-//W3C//DTD SVG 1.1//EN" "http://www.w3.org/Graphics/SVG/1.1/DTD/svg11.dtd">
<svg version="1.1" id="Layer_copy" xmlns="http://www.w3.org/2000/svg" xmlns:xlink="http://www.w3.org/1999/xlink" x="0px" y="0px"
	 width="24px" height="24px" viewBox="0 0 24 24" style="enable-background:new 0 0 24 24;" xml:space="preserve">
<path style="fill:#231F20;" d="M12.007,23C5.938,23,1,18.065,1,12S5.938,1,12.007,1c3.059,0,5.902,1.231,8.004,3.468l0.551,0.584
	V2.78c0.001-0.37,0.133-0.627,0.426-0.832l0.996-0.669v5.575c0,0.393-0.318,0.712-0.711,0.712h-5.566l0.696-0.995
	c0.206-0.294,0.463-0.425,0.836-0.427h2.263l-0.371-0.53c-1.822-2.03-4.418-3.193-7.123-3.193c-5.285,0-9.585,4.297-9.585,9.579
	s4.3,9.579,9.585,9.579c4.63,0,8.593-3.308,9.422-7.864c0.091-0.256,0.285-0.476,0.597-0.645L23,12.546
	C22.715,18.358,17.892,23,12.007,23z"/>
</svg>
