<?xml version="1.0" encoding="iso-8859-1"?>
<!-- Generator: Adobe Illustrator 16.0.0, SVG Export Plug-In . SVG Version: 6.00 Build 0)  -->
<!DOCTYPE svg PUBLIC "-//W3C//DTD SVG 1.1//EN" "http://www.w3.org/Graphics/SVG/1.1/DTD/svg11.dtd">
<svg version="1.1" id="Layer" xmlns="http://www.w3.org/2000/svg" xmlns:xlink="http://www.w3.org/1999/xlink" x="0px" y="0px"
	 width="16px" height="16px" viewBox="0 0 16 16" style="enable-background:new 0 0 16 16;" xml:space="preserve">
<path style="fill:#231F20;" d="M0.004,9.503c0-0.025,0.011-0.047,0.015-0.071c0.005-0.038,0.008-0.076,0.022-0.112
	S0.08,9.252,0.103,9.221C0.116,9.201,0.123,9.178,0.14,9.16c0.002-0.002,0.004-0.002,0.006-0.004
	c0.043-0.045,0.095-0.081,0.153-0.107c0.004-0.001,0.006-0.005,0.01-0.007c0.06-0.025,0.125-0.039,0.195-0.039
	c0,0,4.153-0.006,4.185,0L4.235,9.669C4.08,9.89,3.886,9.987,3.627,10.003h-1.86l2.209,2.375c0.601,0.602,1.329,1.062,2.118,1.341
	c2.674,0.949,5.623-0.525,6.901-2.968c0,0,0.2-0.172,0.488-0.222l0.762-0.132c-1.24,3.419-5.053,5.479-8.484,4.265
	c-0.929-0.329-1.787-0.871-2.48-1.567l-2.276-2.437v1.937c0,0.293-0.107,0.498-0.347,0.666l-0.653,0.442
	C-0.004,13.667,0.004,9.503,0.004,9.503z M15.996,2.311l-0.653,0.442c-0.24,0.167-0.348,0.373-0.348,0.666v1.937L12.72,2.919
	c-0.693-0.697-1.551-1.239-2.48-1.567C6.809,0.137,2.995,2.197,1.755,5.616l0.762-0.132c0.289-0.05,0.488-0.222,0.488-0.222
	C4.283,2.82,7.232,1.345,9.906,2.294c0.789,0.279,1.517,0.739,2.117,1.342l2.209,2.375h-1.86c-0.258,0.015-0.453,0.113-0.608,0.334
	L11.312,7.01c0.031,0.007,4.185,0,4.185,0c0.069,0.001,0.134-0.014,0.195-0.038c0.003-0.002,0.006-0.007,0.01-0.007
	c0.058-0.026,0.11-0.062,0.153-0.108c0.002-0.002,0.004-0.001,0.006-0.003c0.017-0.018,0.023-0.042,0.037-0.062
	c0.023-0.03,0.047-0.062,0.062-0.099c0.015-0.036,0.018-0.073,0.022-0.111c0.004-0.025,0.015-0.046,0.015-0.072
	C15.996,6.51,16.004,2.346,15.996,2.311z"/>
</svg>
