<?xml version="1.0" encoding="iso-8859-1"?>
<!-- Generator: Adobe Illustrator 16.0.0, SVG Export Plug-In . SVG Version: 6.00 Build 0)  -->
<!DOCTYPE svg PUBLIC "-//W3C//DTD SVG 1.1//EN" "http://www.w3.org/Graphics/SVG/1.1/DTD/svg11.dtd">
<svg version="1.1" id="Layer_copy" xmlns="http://www.w3.org/2000/svg" xmlns:xlink="http://www.w3.org/1999/xlink" x="0px" y="0px"
	 width="24px" height="24px" viewBox="0 0 24 24" style="enable-background:new 0 0 24 24;" xml:space="preserve">
<path style="fill:#231F20;" d="M12,23c-3.986,0-7.671-2.181-9.619-5.689l-0.13-0.25C1.499,15.624,1.079,14.106,1,12.54l0.974,0.525
	c0.312,0.167,0.505,0.387,0.609,0.689c0.248,1.386,0.825,2.713,1.701,3.899c1.807,2.457,4.691,3.924,7.716,3.924
	c2.707,0,5.305-1.163,7.128-3.193l0.477-0.529h-2.371c-0.372-0.002-0.63-0.133-0.835-0.427l-0.696-0.995h5.57
	c0.393,0,0.712,0.319,0.712,0.711v5.576l-1.001-0.673c-0.289-0.201-0.42-0.458-0.421-0.831v-2.269l-0.551,0.584
	C17.906,21.768,15.061,23,12,23z M22.026,10.935c-0.312-0.167-0.505-0.387-0.609-0.689c-0.248-1.386-0.825-2.713-1.701-3.899
	C17.909,3.889,15.025,2.422,12,2.422c-2.707,0-5.305,1.163-7.128,3.193L4.395,6.145h2.371c0.372,0.002,0.63,0.133,0.835,0.427
	l0.696,0.995h-5.57c-0.393,0-0.712-0.319-0.712-0.711V1.279l1.001,0.673c0.289,0.201,0.42,0.458,0.421,0.831v2.269L3.99,4.468
	C6.094,2.232,8.939,1,12,1c3.986,0,7.671,2.181,9.619,5.689l0.13,0.25C22.501,8.376,22.921,9.894,23,11.46L22.026,10.935z"/>
</svg>
