<?xml version="1.0" encoding="utf-8"?>
<!-- Generator: Adobe Illustrator 27.4.1, SVG Export Plug-In . SVG Version: 6.00 Build 0)  -->
<svg version="1.1" id="Layer" xmlns="http://www.w3.org/2000/svg" xmlns:xlink="http://www.w3.org/1999/xlink" x="0px" y="0px"
	 viewBox="0 0 24 24" style="enable-background:new 0 0 24 24;" xml:space="preserve">
<style type="text/css">
	.st0{fill:#231F20;}
</style>
<path class="st0" d="M19.2,11l-0.5-0.7c-0.1-0.2-0.3-0.3-0.5-0.3h-5.7V1h-0.8c-0.3,0-0.5,0.1-0.6,0.3L4.8,13l0.5,0.7
	C5.4,13.9,5.6,14,5.8,14h5.7l0,9h0.8c0.3,0,0.5-0.1,0.6-0.3L19.2,11L19.2,11z M12.5,21.1V14L12,13.4c-0.2-0.2-0.4-0.3-0.7-0.3H6.1
	l5.4-10.2l0,7.1l0.5,0.7c0.1,0.2,0.3,0.3,0.5,0.3c0,0,0.1,0,0.1,0h5.3L12.5,21.1z"/>
</svg>
