<?xml version="1.0" encoding="iso-8859-1"?>
<!-- Generator: Adobe Illustrator 16.0.0, SVG Export Plug-In . SVG Version: 6.00 Build 0)  -->
<!DOCTYPE svg PUBLIC "-//W3C//DTD SVG 1.1//EN" "http://www.w3.org/Graphics/SVG/1.1/DTD/svg11.dtd">
<svg version="1.1" id="Layer" xmlns="http://www.w3.org/2000/svg" xmlns:xlink="http://www.w3.org/1999/xlink" x="0px" y="0px"
	 width="24px" height="24px" viewBox="0 0 24 24" style="enable-background:new 0 0 24 24;" xml:space="preserve">
<path style="fill:#231F20;" d="M22.895,2.879c-0.213-0.516-0.714-0.852-1.27-0.852H2.375c-0.556,0-1.057,0.336-1.27,0.852
	S1.01,3.986,1.403,4.381l7.848,8.59v4.797c0,0.047,0.002,0.092,0.007,0.139c0.108,1.076,0.622,1.941,1.525,2.574l1.804,1.27
	c0.236,0.166,0.512,0.25,0.79,0.25c0.217,0,0.435-0.051,0.635-0.156c0.455-0.238,0.74-0.707,0.74-1.223v-7.65l7.847-8.59
	C22.99,3.986,23.108,3.395,22.895,2.879z M13.375,12.4v8.221l-1.804-1.268c-0.589-0.412-0.879-0.916-0.946-1.586V12.4l-8.25-8.994
	h19.25L13.375,12.4z"/>
</svg>
