<?xml version="1.0" encoding="iso-8859-1"?>
<!-- Generator: Adobe Illustrator 16.0.0, SVG Export Plug-In . SVG Version: 6.00 Build 0)  -->
<!DOCTYPE svg PUBLIC "-//W3C//DTD SVG 1.1//EN" "http://www.w3.org/Graphics/SVG/1.1/DTD/svg11.dtd">
<svg version="1.1" id="Layer" xmlns="http://www.w3.org/2000/svg" xmlns:xlink="http://www.w3.org/1999/xlink" x="0px" y="0px"
	 width="16px" height="16px" viewBox="0 0 16 16" style="enable-background:new 0 0 16 16;" xml:space="preserve">
<path style="fill:#231F20;" d="M15.924,1.618C15.769,1.244,15.404,1,15,1H1C0.596,1,0.231,1.244,0.076,1.618
	c-0.155,0.375-0.069,0.806,0.217,1.093L6,8.434v3.489c0,0.033,0.001,0.066,0.005,0.1c0.079,0.783,0.452,1.413,1.109,1.873
	l1.312,0.923C8.598,14.939,8.799,15,9,15c0.158,0,0.316-0.037,0.461-0.113C9.793,14.714,10,14.372,10,13.998V8.434l5.707-5.723
	C15.993,2.424,16.079,1.993,15.924,1.618z M9,8.019v5.979l-1.312-0.922C7.26,12.775,7.049,12.409,7,11.923V8.019L1,2.002h14L9,8.019
	z"/>
</svg>
