<?xml version="1.0" encoding="iso-8859-1"?>
<!-- Generator: Adobe Illustrator 16.0.0, SVG Export Plug-In . SVG Version: 6.00 Build 0)  -->
<!DOCTYPE svg PUBLIC "-//W3C//DTD SVG 1.1//EN" "http://www.w3.org/Graphics/SVG/1.1/DTD/svg11.dtd">
<svg version="1.1" id="Layer_copy" xmlns="http://www.w3.org/2000/svg" xmlns:xlink="http://www.w3.org/1999/xlink" x="0px" y="0px"
	 width="24px" height="24px" viewBox="0 0 24 24" style="enable-background:new 0 0 24 24;" xml:space="preserve">
<path style="fill:#231F20;" d="M11.993,23C18.062,23,23,18.065,23,12S18.062,1,11.993,1C8.935,1,6.091,2.231,3.989,4.468
	L3.438,5.052V2.78C3.437,2.41,3.305,2.153,3.012,1.948L2.016,1.279v5.575c0,0.393,0.318,0.712,0.711,0.712h5.566L7.598,6.571
	C7.392,6.277,7.134,6.146,6.762,6.145H4.499l0.371-0.53c1.822-2.03,4.418-3.193,7.123-3.193c5.285,0,9.585,4.297,9.585,9.579
	s-4.3,9.579-9.585,9.579c-4.63,0-8.593-3.308-9.422-7.864c-0.091-0.256-0.285-0.476-0.597-0.645L1,12.546
	C1.285,18.358,6.108,23,11.993,23z"/>
</svg>
