<?xml version="1.0" encoding="iso-8859-1"?>
<!-- Generator: Adobe Illustrator 16.0.0, SVG Export Plug-In . SVG Version: 6.00 Build 0)  -->
<!DOCTYPE svg PUBLIC "-//W3C//DTD SVG 1.1//EN" "http://www.w3.org/Graphics/SVG/1.1/DTD/svg11.dtd">
<svg version="1.1" id="Layer" xmlns="http://www.w3.org/2000/svg" xmlns:xlink="http://www.w3.org/1999/xlink" x="0px" y="0px"
	 width="16px" height="16px" viewBox="0 0 16 16" style="enable-background:new 0 0 16 16;" xml:space="preserve">
<path style="fill:#231F20;" d="M0.002,2.585l0.654,0.44c0.238,0.164,0.348,0.372,0.348,0.666l0.005,1.925l2.606-2.725
	C4.375,2.13,5.31,1.536,6.324,1.174c3.765-1.341,7.915,0.635,9.256,4.399c1.339,3.767-0.634,7.922-4.397,9.262
	c-0.795,0.28-1.606,0.418-2.405,0.419c-2.178,0.004-4.253-0.988-5.631-2.673c0,0-0.376-0.483-0.54-0.757
	c-0.036-0.058-0.121-0.199-0.125-0.215c-0.259-0.464-0.472-0.957-0.618-1.48l0.749,0.187c0.283,0.072,0.47,0.258,0.47,0.258
	c0.057,0.132,0.186,0.394,0.186,0.394c1.438,2.666,4.641,3.971,7.58,2.926c3.245-1.155,4.944-4.738,3.789-7.982
	c-1.154-3.247-4.731-4.947-7.978-3.793c-0.873,0.31-1.681,0.822-2.345,1.49l-2.55,2.665l0.008,0.007l1.859-0.003
	C3.89,6.288,4.085,6.388,4.24,6.607l0.455,0.664C4.664,7.278,0.513,7.28,0.513,7.28C0.443,7.281,0.378,7.268,0.317,7.244
	c-0.003-0.002-0.006-0.008-0.01-0.008C0.25,7.21,0.198,7.174,0.155,7.13C0.152,7.128,0.15,7.129,0.148,7.126
	C0.132,7.107,0.125,7.084,0.111,7.064c-0.023-0.03-0.048-0.063-0.062-0.1C0.034,6.93,0.032,6.893,0.027,6.854
	C0.023,6.829,0.012,6.809,0.011,6.781C0.011,6.781-0.007,2.618,0.002,2.585z"/>
</svg>
