<?xml version="1.0" encoding="iso-8859-1"?>
<!-- Generator: Adobe Illustrator 16.0.0, SVG Export Plug-In . SVG Version: 6.00 Build 0)  -->
<!DOCTYPE svg PUBLIC "-//W3C//DTD SVG 1.1//EN" "http://www.w3.org/Graphics/SVG/1.1/DTD/svg11.dtd">
<svg version="1.1" id="Layer_2" xmlns="http://www.w3.org/2000/svg" xmlns:xlink="http://www.w3.org/1999/xlink" x="0px" y="0px"
	 width="24px" height="24px" viewBox="0 0 24 24" style="enable-background:new 0 0 24 24;" xml:space="preserve">
<path style="fill:#231F20;" d="M17.5,14.666c-1.237,0-2.333,0.563-3.092,1.438l-4.092-2.54c0.198-0.486,0.308-1.011,0.308-1.565
	c0-0.556-0.111-1.088-0.31-1.571l4.08-2.551c0.755,0.882,1.86,1.457,3.105,1.457c2.275,0,4.125-1.87,4.125-4.168
	C21.625,2.87,19.775,1,17.5,1c-2.275,0-4.125,1.87-4.125,4.166c0,0.544,0.109,1.06,0.3,1.543L9.584,9.266
	C8.829,8.393,7.734,7.834,6.5,7.834c-2.275,0-4.125,1.867-4.125,4.165s1.85,4.166,4.125,4.166c1.236,0,2.333-0.561,3.091-1.436
	l4.092,2.54c-0.197,0.486-0.308,1.008-0.308,1.563C13.375,21.13,15.225,23,17.5,23c2.275,0,4.125-1.87,4.125-4.167
	S19.775,14.666,17.5,14.666z M17.5,2.375c1.518,0,2.75,1.249,2.75,2.791c0,1.543-1.232,2.792-2.75,2.792
	c-0.755,0-1.439-0.313-1.936-0.812c-0.158-0.155-0.29-0.339-0.404-0.531c-0.01-0.013-0.016-0.032-0.026-0.05
	c-0.106-0.191-0.194-0.39-0.257-0.605c-0.075-0.254-0.127-0.516-0.127-0.793C14.75,3.624,15.982,2.375,17.5,2.375z M9.117,12.817
	c-0.07,0.229-0.165,0.436-0.278,0.637c-0.001,0.002-0.004,0.003-0.005,0.004c-0.118,0.197-0.258,0.381-0.42,0.541h0
	c-0.496,0.489-1.169,0.792-1.914,0.792c-1.518,0-2.75-1.249-2.75-2.792S4.982,9.208,6.5,9.208c0.743,0,1.417,0.302,1.911,0.789h0
	c0.326,0.322,0.564,0.722,0.703,1.181c0.082,0.262,0.137,0.529,0.137,0.821C9.25,12.284,9.195,12.557,9.117,12.817z M17.5,21.625
	c-1.518,0-2.75-1.25-2.75-2.792c0-0.284,0.055-0.558,0.133-0.816c0.07-0.222,0.161-0.435,0.277-0.631
	c0.001-0.008,0.002-0.011,0.006-0.013c0.117-0.194,0.257-0.375,0.419-0.537c0.495-0.491,1.167-0.794,1.915-0.794
	c1.518,0,2.75,1.248,2.75,2.791C20.25,20.375,19.018,21.625,17.5,21.625z"/>
</svg>
