<?xml version="1.0" encoding="utf-8"?>
<!-- Generator: Adobe Illustrator 16.0.0, SVG Export Plug-In . SVG Version: 6.00 Build 0)  -->
<!DOCTYPE svg PUBLIC "-//W3C//DTD SVG 1.1//EN" "http://www.w3.org/Graphics/SVG/1.1/DTD/svg11.dtd">
<svg version="1.1" id="Layer" xmlns="http://www.w3.org/2000/svg" xmlns:xlink="http://www.w3.org/1999/xlink" x="0px" y="0px"
	 width="16px" height="16px" viewBox="0 0 16 16" enable-background="new 0 0 16 16" xml:space="preserve">
<path fill="#231F20" d="M13,4.971c-1.485,0-2.712,1.098-2.95,2.529H1.687l2.02-1.414c0.239-0.169,0.347-0.357,0.347-0.649V4.623
	L0.986,6.77v0.002L0.33,7.23C0.26,7.281,0.218,7.339,0.174,7.396C0.089,7.505,0.03,7.625,0.012,7.771L0,8.001l0.012,0.23
	c0.017,0.133,0.065,0.244,0.136,0.347l0.001-0.001c0.053,0.067,0.101,0.136,0.185,0.195l3.72,2.604v-0.814
	c0-0.293-0.107-0.48-0.347-0.649L1.687,8.5h8.363c0.238,1.432,1.465,2.529,2.95,2.529c1.654,0,3-1.359,3-3.029
	S14.654,4.971,13,4.971z M13,10.029c-1.105,0-2-0.908-2-2.029s0.895-2.029,2-2.029S15,6.879,15,8S14.105,10.029,13,10.029z"/>
</svg>
