<?xml version="1.0" encoding="iso-8859-1"?>
<!-- Generator: Adobe Illustrator 16.0.0, SVG Export Plug-In . SVG Version: 6.00 Build 0)  -->
<!DOCTYPE svg PUBLIC "-//W3C//DTD SVG 1.1//EN" "http://www.w3.org/Graphics/SVG/1.1/DTD/svg11.dtd">
<svg version="1.1" id="Layer" xmlns="http://www.w3.org/2000/svg" xmlns:xlink="http://www.w3.org/1999/xlink" x="0px" y="0px"
	 width="24px" height="24px" viewBox="0 0 24 24" style="enable-background:new 0 0 24 24;" xml:space="preserve">
<path style="fill:#231F20;" d="M18.875,7.834c-2.042,0-3.729,1.508-4.058,3.479H3.319l2.775-1.941
	c0.33-0.233,0.479-0.492,0.479-0.896V7.357l-4.218,2.949v0.002l-0.902,0.635c-0.097,0.068-0.153,0.149-0.215,0.225
	c-0.117,0.149-0.196,0.316-0.221,0.516L1,12.001l0.018,0.318c0.022,0.18,0.089,0.332,0.186,0.476l0.001-0.001
	c0.073,0.091,0.139,0.188,0.255,0.266l5.114,3.583v-1.119c0-0.404-0.148-0.662-0.479-0.896l-2.775-1.94h11.498
	c0.329,1.971,2.016,3.479,4.058,3.479C21.15,16.166,23,14.297,23,12S21.15,7.834,18.875,7.834z M18.875,14.791
	c-1.518,0-2.75-1.248-2.75-2.791s1.232-2.791,2.75-2.791s2.75,1.248,2.75,2.791S20.393,14.791,18.875,14.791z"/>
</svg>
