<?xml version="1.0" encoding="utf-8"?>
<!-- Generator: Adobe Illustrator 16.0.0, SVG Export Plug-In . SVG Version: 6.00 Build 0)  -->
<!DOCTYPE svg PUBLIC "-//W3C//DTD SVG 1.1//EN" "http://www.w3.org/Graphics/SVG/1.1/DTD/svg11.dtd">
<svg version="1.1" id="Layer" xmlns="http://www.w3.org/2000/svg" xmlns:xlink="http://www.w3.org/1999/xlink" x="0px" y="0px"
	 width="16px" height="16px" viewBox="0 0 16 16" enable-background="new 0 0 16 16" xml:space="preserve">
<path fill="#231F20" d="M3,11.029c1.485,0,2.712-1.098,2.95-2.529h8.363l-2.02,1.414c-0.239,0.169-0.347,0.357-0.347,0.649v0.813
	l3.066-2.146V9.229L15.67,8.77c0.07-0.051,0.112-0.108,0.156-0.166c0.085-0.108,0.144-0.229,0.162-0.375L16,7.999l-0.012-0.23
	c-0.017-0.133-0.065-0.244-0.136-0.347l-0.001,0.001c-0.053-0.067-0.101-0.136-0.185-0.195l-3.72-2.604v0.814
	c0,0.293,0.107,0.48,0.347,0.649L14.313,7.5H5.95C5.712,6.068,4.485,4.971,3,4.971C1.346,4.971,0,6.33,0,8S1.346,11.029,3,11.029z
	 M3,5.971c1.105,0,2,0.908,2,2.029s-0.895,2.029-2,2.029S1,9.121,1,8S1.895,5.971,3,5.971z"/>
</svg>
