<?xml version="1.0" encoding="iso-8859-1"?>
<!-- Generator: Adobe Illustrator 16.0.0, SVG Export Plug-In . SVG Version: 6.00 Build 0)  -->
<!DOCTYPE svg PUBLIC "-//W3C//DTD SVG 1.1//EN" "http://www.w3.org/Graphics/SVG/1.1/DTD/svg11.dtd">
<svg version="1.1" id="Layer" xmlns="http://www.w3.org/2000/svg" xmlns:xlink="http://www.w3.org/1999/xlink" x="0px" y="0px"
	 width="24px" height="24px" viewBox="0 0 24 24" style="enable-background:new 0 0 24 24;" xml:space="preserve">
<path style="fill:#231F20;" d="M5.125,16.165c2.042,0,3.729-1.509,4.057-3.478h11.5l-2.777,1.944
	c-0.329,0.232-0.477,0.491-0.477,0.893v1.119l4.216-2.952v-0.002l0.902-0.631c0.097-0.07,0.155-0.149,0.215-0.229
	c0.117-0.149,0.198-0.314,0.223-0.516L23,11.999l-0.016-0.317c-0.023-0.183-0.09-0.336-0.187-0.477l-0.001,0.001
	c-0.072-0.093-0.138-0.187-0.254-0.269l-5.114-3.581v1.12c0,0.402,0.147,0.66,0.477,0.893l2.776,1.943H9.182
	C8.854,9.344,7.167,7.835,5.125,7.835C2.851,7.835,1,9.704,1,12S2.851,16.165,5.125,16.165z M5.125,9.21
	c1.52,0,2.75,1.249,2.75,2.79s-1.23,2.79-2.75,2.79s-2.75-1.249-2.75-2.79S3.605,9.21,5.125,9.21z"/>
</svg>
