<?xml version="1.0" encoding="utf-8"?>
<!-- Generator: Adobe Illustrator 16.0.0, SVG Export Plug-In . SVG Version: 6.00 Build 0)  -->
<!DOCTYPE svg PUBLIC "-//W3C//DTD SVG 1.1//EN" "http://www.w3.org/Graphics/SVG/1.1/DTD/svg11.dtd">
<svg version="1.1" id="Layer" xmlns="http://www.w3.org/2000/svg" xmlns:xlink="http://www.w3.org/1999/xlink" x="0px" y="0px"
	 width="16px" height="16px" viewBox="0 0 16 16" enable-background="new 0 0 16 16" xml:space="preserve">
<path fill="#231F20" d="M13,9.094c-1.485,0-2.712,1.098-2.95,2.529H1.687l2.02-1.414C3.945,10.04,4.053,9.852,4.053,9.56V8.746
	l-3.066,2.146v0.002L0.33,11.354c-0.07,0.051-0.112,0.108-0.156,0.166c-0.085,0.108-0.144,0.229-0.162,0.375L0,12.124l0.012,0.23
	c0.017,0.133,0.065,0.244,0.136,0.347L0.148,12.7c0.053,0.067,0.101,0.136,0.185,0.195l3.72,2.604v-0.814
	c0-0.293-0.107-0.48-0.347-0.649l-2.019-1.413h8.363c0.238,1.432,1.465,2.529,2.95,2.529c1.654,0,3-1.359,3-3.029
	S14.654,9.094,13,9.094z M13,14.152c-1.105,0-2-0.908-2-2.029s0.895-2.029,2-2.029s2,0.908,2,2.029S14.105,14.152,13,14.152z
	 M15.988,3.646c-0.017-0.133-0.065-0.244-0.136-0.347L15.852,3.3c-0.053-0.067-0.101-0.136-0.185-0.195L11.947,0.5v0.814
	c0,0.293,0.107,0.48,0.347,0.649l2.019,1.413H5.95C5.712,1.945,4.485,0.848,3,0.848c-1.654,0-3,1.359-3,3.029s1.346,3.029,3,3.029
	c1.485,0,2.712-1.098,2.95-2.529h8.363l-2.02,1.414c-0.239,0.169-0.347,0.357-0.347,0.649v0.813l3.066-2.146V5.105l0.656-0.459
	c0.07-0.051,0.112-0.108,0.156-0.166c0.085-0.108,0.144-0.229,0.162-0.375L16,3.876L15.988,3.646z M3,5.906
	c-1.105,0-2-0.908-2-2.029s0.895-2.029,2-2.029s2,0.908,2,2.029S4.105,5.906,3,5.906z"/>
</svg>
