<?xml version="1.0" encoding="iso-8859-1"?>
<!-- Generator: Adobe Illustrator 16.0.0, SVG Export Plug-In . SVG Version: 6.00 Build 0)  -->
<!DOCTYPE svg PUBLIC "-//W3C//DTD SVG 1.1//EN" "http://www.w3.org/Graphics/SVG/1.1/DTD/svg11.dtd">
<svg version="1.1" id="Layer" xmlns="http://www.w3.org/2000/svg" xmlns:xlink="http://www.w3.org/1999/xlink" x="0px" y="0px"
	 width="24px" height="24px" viewBox="0 0 24 24" style="enable-background:new 0 0 24 24;" xml:space="preserve">
<path style="fill:#231F20;" d="M18.875,13.504c-2.042,0-3.729,1.51-4.057,3.478h-11.5l2.777-1.944
	c0.329-0.232,0.477-0.491,0.477-0.893v-1.119l-4.216,2.952v0.003l-0.902,0.631c-0.097,0.069-0.155,0.148-0.215,0.229
	c-0.117,0.148-0.198,0.313-0.223,0.516L1,17.671l0.016,0.316c0.023,0.183,0.09,0.336,0.187,0.477l0.001-0.001
	c0.072,0.093,0.138,0.187,0.254,0.269l5.114,3.581v-1.12c0-0.402-0.147-0.66-0.477-0.893L3.32,18.356h11.499
	c0.328,1.969,2.015,3.478,4.057,3.478c2.274,0,4.125-1.869,4.125-4.165S21.149,13.504,18.875,13.504z M18.875,20.459
	c-1.52,0-2.75-1.248-2.75-2.79c0-1.541,1.23-2.79,2.75-2.79s2.75,1.249,2.75,2.79C21.625,19.211,20.395,20.459,18.875,20.459z
	 M22.984,6.013c-0.023-0.183-0.09-0.336-0.187-0.477l-0.001,0.001c-0.072-0.093-0.138-0.187-0.254-0.269l-5.114-3.581v1.12
	c0,0.402,0.147,0.66,0.477,0.893l2.776,1.943H9.182C8.854,3.675,7.167,2.166,5.125,2.166C2.851,2.166,1,4.035,1,6.331
	s1.851,4.165,4.125,4.165c2.042,0,3.729-1.51,4.057-3.478h11.5l-2.777,1.944c-0.329,0.232-0.477,0.491-0.477,0.893v1.119
	l4.216-2.952V8.02l0.902-0.631c0.097-0.069,0.155-0.148,0.215-0.229c0.117-0.148,0.198-0.313,0.223-0.516L23,6.329L22.984,6.013z
	 M5.125,9.121c-1.52,0-2.75-1.249-2.75-2.79c0-1.542,1.23-2.79,2.75-2.79s2.75,1.248,2.75,2.79C7.875,7.872,6.645,9.121,5.125,9.121
	z"/>
</svg>
