<?xml version="1.0" encoding="iso-8859-1"?>
<!-- Generator: Adobe Illustrator 16.0.0, SVG Export Plug-In . SVG Version: 6.00 Build 0)  -->
<!DOCTYPE svg PUBLIC "-//W3C//DTD SVG 1.1//EN" "http://www.w3.org/Graphics/SVG/1.1/DTD/svg11.dtd">
<svg version="1.1" id="Layer_3" xmlns="http://www.w3.org/2000/svg" xmlns:xlink="http://www.w3.org/1999/xlink" x="0px" y="0px"
	 width="16px" height="16px" viewBox="0 0 16 16" style="enable-background:new 0 0 16 16;" xml:space="preserve">
<path style="fill:#231F20;" d="M15,0H1C0.448,0,0,0.447,0,1v14c0,0.553,0.448,1,1,1h14c0.552,0,1-0.447,1-1V1
	C16,0.447,15.552,0,15,0z M15,15H1V1h14V15z M5.628,12.281L1.955,8.527c0,0,0,0-0.001-0.002l0.781-0.137
	C3.007,8.34,3.217,8.41,3.414,8.59l2.224,2.271l6.917-6.9c0.208-0.207,0.428-0.277,0.717-0.225l0.774,0.135L5.628,12.281z"/>
</svg>
