<?xml version="1.0" encoding="iso-8859-1"?>
<!-- Generator: Adobe Illustrator 16.0.0, SVG Export Plug-In . SVG Version: 6.00 Build 0)  -->
<!DOCTYPE svg PUBLIC "-//W3C//DTD SVG 1.1//EN" "http://www.w3.org/Graphics/SVG/1.1/DTD/svg11.dtd">
<svg version="1.1" id="Layer_3_copy" xmlns="http://www.w3.org/2000/svg" xmlns:xlink="http://www.w3.org/1999/xlink" x="0px"
	 y="0px" width="24px" height="24px" viewBox="0 0 24 24" style="enable-background:new 0 0 24 24;" xml:space="preserve">
<path style="fill:#231F20;" d="M21.625,1H2.375C1.615,1,1,1.617,1,2.375v19.25C1,22.383,1.615,23,2.375,23h19.25
	C22.385,23,23,22.383,23,21.625V2.375C23,1.617,22.385,1,21.625,1z M8.738,17.887l-5.05-5.16c0,0,0,0-0.001-0.002l1.074-0.189
	c0.375-0.066,0.664,0.027,0.934,0.277l3.059,3.121l9.51-9.484c0.287-0.289,0.589-0.383,0.986-0.312l1.064,0.188L8.738,17.887z"/>
</svg>
