<?xml version="1.0" encoding="utf-8"?>
<!-- Generator: Adobe Illustrator 16.0.0, SVG Export Plug-In . SVG Version: 6.00 Build 0)  -->
<!DOCTYPE svg PUBLIC "-//W3C//DTD SVG 1.1//EN" "http://www.w3.org/Graphics/SVG/1.1/DTD/svg11.dtd">
<svg version="1.1" id="Layer_3" xmlns="http://www.w3.org/2000/svg" xmlns:xlink="http://www.w3.org/1999/xlink" x="0px" y="0px"
	 width="16px" height="16px" viewBox="0 0 16 16" enable-background="new 0 0 16 16" xml:space="preserve">
<path fill="#231F20" d="M15,0H1C0.448,0,0,0.447,0,1v14c0,0.553,0.448,1,1,1h14c0.552,0,1-0.447,1-1V1C16,0.447,15.552,0,15,0z
	 M13.168,13.376c-0.288,0.051-0.509-0.019-0.716-0.226L8.025,8.725l-4.461,4.46c-0.207,0.207-0.428,0.276-0.716,0.226l-0.785-0.139
	l5.255-5.255L2.062,2.763l0.785-0.139C3.136,2.573,3.357,2.643,3.564,2.85l4.46,4.46l4.427-4.426
	c0.207-0.207,0.428-0.276,0.716-0.226l0.785,0.139l-5.221,5.22l5.221,5.221L13.168,13.376z"/>
</svg>
