<?xml version="1.0" encoding="iso-8859-1"?>
<!-- Generator: Adobe Illustrator 16.0.0, SVG Export Plug-In . SVG Version: 6.00 Build 0)  -->
<!DOCTYPE svg PUBLIC "-//W3C//DTD SVG 1.1//EN" "http://www.w3.org/Graphics/SVG/1.1/DTD/svg11.dtd">
<svg version="1.1" id="Layer_3" xmlns="http://www.w3.org/2000/svg" xmlns:xlink="http://www.w3.org/1999/xlink" x="0px" y="0px"
	 width="24px" height="24px" viewBox="0 0 24 24" style="enable-background:new 0 0 24 24;" xml:space="preserve">
<path style="fill:#231F20;" d="M21.625,1H2.375C1.615,1,1,1.617,1,2.375v19.25C1,22.383,1.615,23,2.375,23h19.25
	C22.385,23,23,22.383,23,21.625V2.375C23,1.617,22.385,1,21.625,1z M19.108,19.392c-0.396,0.068-0.703-0.024-0.986-0.308
	l-6.088-6.09L5.899,19.13c-0.283,0.283-0.589,0.382-0.986,0.308l-1.078-0.191l7.227-7.224L3.836,4.8l1.078-0.191
	C5.311,4.54,5.617,4.633,5.9,4.916l6.133,6.136l6.088-6.084c0.283-0.289,0.589-0.382,0.986-0.313l1.078,0.191l-7.178,7.177
	l7.178,7.178L19.108,19.392z"/>
</svg>
