<?xml version="1.0" encoding="utf-8"?>
<!-- Generator: Adobe Illustrator 16.0.0, SVG Export Plug-In . SVG Version: 6.00 Build 0)  -->
<!DOCTYPE svg PUBLIC "-//W3C//DTD SVG 1.1//EN" "http://www.w3.org/Graphics/SVG/1.1/DTD/svg11.dtd">
<svg version="1.1" id="Layer" xmlns="http://www.w3.org/2000/svg" xmlns:xlink="http://www.w3.org/1999/xlink" x="0px" y="0px"
	 width="16px" height="16px" viewBox="0 0 16 16" enable-background="new 0 0 16 16" xml:space="preserve">
<path fill="#231F20" d="M8,0.25C3.589,0.25,0,3.726,0,8s3.589,7.75,8,7.75s8-3.476,8-7.75S12.411,0.25,8,0.25z M7.5,4.656
	c0-0.574,0.448-1.039,1-1.039v5.248c0,0.576-0.448,1.041-1,1.041V4.656z M8,12.383c-0.415,0-0.75-0.336-0.75-0.75
	s0.335-0.75,0.75-0.75c0.414,0,0.75,0.336,0.75,0.75S8.414,12.383,8,12.383z"/>
</svg>
