<?xml version="1.0" encoding="iso-8859-1"?>
<!-- Generator: Adobe Illustrator 16.0.0, SVG Export Plug-In . SVG Version: 6.00 Build 0)  -->
<!DOCTYPE svg PUBLIC "-//W3C//DTD SVG 1.1//EN" "http://www.w3.org/Graphics/SVG/1.1/DTD/svg11.dtd">
<svg version="1.1" id="Layer" xmlns="http://www.w3.org/2000/svg" xmlns:xlink="http://www.w3.org/1999/xlink" x="0px" y="0px"
	 width="16px" height="16px" viewBox="0 0 16 16" style="enable-background:new 0 0 16 16;" xml:space="preserve">
<path style="fill:#231F20;" d="M8,0.25C3.589,0.25,0,3.728,0,8s3.589,7.75,8,7.75s8-3.478,8-7.75S12.411,0.25,8,0.25z M8,14.75
	c-3.86,0-7-3.027-7-6.75s3.14-6.75,7-6.75S15,4.277,15,8S11.86,14.75,8,14.75z M8,12.383c-0.415,0-0.75-0.336-0.75-0.75
	s0.335-0.75,0.75-0.75c0.414,0,0.75,0.336,0.75,0.75S8.414,12.383,8,12.383 M8.5,8.865c0,0.576-0.448,1.041-1,1.041v-5.25
	c0-0.574,0.448-1.039,1-1.039V8.865"/>
</svg>
