<?xml version="1.0" encoding="utf-8"?>
<!-- Generator: Adobe Illustrator 16.0.0, SVG Export Plug-In . SVG Version: 6.00 Build 0)  -->
<!DOCTYPE svg PUBLIC "-//W3C//DTD SVG 1.1//EN" "http://www.w3.org/Graphics/SVG/1.1/DTD/svg11.dtd">
<svg version="1.1" id="Layer" xmlns="http://www.w3.org/2000/svg" xmlns:xlink="http://www.w3.org/1999/xlink" x="0px" y="0px"
	 width="24px" height="24px" viewBox="0 0 24 24" enable-background="new 0 0 24 24" xml:space="preserve">
<path fill="#231F20" d="M12,22.656c6.066,0,11-4.776,11-10.656S18.066,1.344,12,1.344S1,6.12,1,12S5.934,22.656,12,22.656z
	 M12.688,16.598c0,0.791-0.615,1.426-1.375,1.426v-7.211c0-0.793,0.615-1.434,1.375-1.434V16.598z M12,5.977
	c0.57,0,1.031,0.459,1.031,1.031c0,0.566-0.461,1.031-1.031,1.031c-0.569,0-1.031-0.465-1.031-1.031
	C10.969,6.436,11.431,5.977,12,5.977z"/>
</svg>
