<?xml version="1.0" encoding="iso-8859-1"?>
<!-- Generator: Adobe Illustrator 16.0.0, SVG Export Plug-In . SVG Version: 6.00 Build 0)  -->
<!DOCTYPE svg PUBLIC "-//W3C//DTD SVG 1.1//EN" "http://www.w3.org/Graphics/SVG/1.1/DTD/svg11.dtd">
<svg version="1.1" id="Layer" xmlns="http://www.w3.org/2000/svg" xmlns:xlink="http://www.w3.org/1999/xlink" x="0px" y="0px"
	 width="24px" height="24px" viewBox="0 0 24 24" style="enable-background:new 0 0 24 24;" xml:space="preserve">
<path style="fill:#231F20;" d="M12,1.344C5.934,1.344,1,6.12,1,12s4.934,10.656,11,10.656S23,17.88,23,12S18.066,1.344,12,1.344z
	 M11.312,7.402c0-0.791,0.615-1.426,1.375-1.426v7.211c0,0.793-0.615,1.434-1.375,1.434V7.402z M12,18.023
	c-0.57,0-1.031-0.459-1.031-1.031c0-0.566,0.461-1.031,1.031-1.031c0.569,0,1.031,0.465,1.031,1.031
	C13.031,17.564,12.569,18.023,12,18.023z"/>
</svg>
