<?xml version="1.0" encoding="iso-8859-1"?>
<!-- Generator: Adobe Illustrator 16.0.0, SVG Export Plug-In . SVG Version: 6.00 Build 0)  -->
<!DOCTYPE svg PUBLIC "-//W3C//DTD SVG 1.1//EN" "http://www.w3.org/Graphics/SVG/1.1/DTD/svg11.dtd">
<svg version="1.1" id="Layer" xmlns="http://www.w3.org/2000/svg" xmlns:xlink="http://www.w3.org/1999/xlink" x="0px" y="0px"
	 width="24px" height="24px" viewBox="0 0 24 24" style="enable-background:new 0 0 24 24;" xml:space="preserve">
<path style="fill:#231F20;" d="M22.719,18.094L13.801,3.854c-0.603-0.95-1.898-1.257-2.892-0.68c-0.289,0.167-0.534,0.4-0.708,0.68
	L1.283,18.094c-0.582,0.964-0.236,2.196,0.77,2.752c0.313,0.172,0.668,0.267,1.029,0.271h17.837
	c1.162-0.014,2.094-0.924,2.081-2.035C22.997,18.735,22.9,18.395,22.719,18.094z M11.313,8.055c0-0.789,0.616-1.429,1.375-1.429
	v7.216c0,0.793-0.616,1.432-1.375,1.432V8.055z M12,18.679c-0.57,0-1.031-0.462-1.031-1.031S11.43,16.616,12,16.616
	c0.569,0,1.031,0.462,1.031,1.031S12.57,18.679,12,18.679z"/>
</svg>
