<?xml version="1.0" encoding="utf-8"?>
<!-- Generator: Adobe Illustrator 16.0.0, SVG Export Plug-In . SVG Version: 6.00 Build 0)  -->
<!DOCTYPE svg PUBLIC "-//W3C//DTD SVG 1.1//EN" "http://www.w3.org/Graphics/SVG/1.1/DTD/svg11.dtd">
<svg version="1.1" id="Layer" xmlns="http://www.w3.org/2000/svg" xmlns:xlink="http://www.w3.org/1999/xlink" x="0px" y="0px"
	 width="16px" height="16px" viewBox="0 0 16 16" enable-background="new 0 0 16 16" xml:space="preserve">
<path fill="#231F20" d="M15.795,12.432L9.31,2.076C8.872,1.385,7.929,1.162,7.207,1.582c-0.21,0.121-0.388,0.291-0.515,0.494
	L0.206,12.432c-0.423,0.701-0.172,1.598,0.56,2.002c0.228,0.125,0.486,0.193,0.749,0.197h12.973c0.845-0.01,1.523-0.672,1.513-1.48
	C15.998,12.898,15.928,12.65,15.795,12.432z M7.5,5.131c0-0.574,0.448-1.039,1-1.039V9.34c0,0.576-0.448,1.041-1,1.041V5.131z
	 M8,12.857c-0.415,0-0.75-0.336-0.75-0.75s0.335-0.75,0.75-0.75c0.414,0,0.75,0.336,0.75,0.75S8.415,12.857,8,12.857z"/>
</svg>
