<?xml version="1.0" encoding="iso-8859-1"?>
<!-- Generator: Adobe Illustrator 16.0.0, SVG Export Plug-In . SVG Version: 6.00 Build 0)  -->
<!DOCTYPE svg PUBLIC "-//W3C//DTD SVG 1.1//EN" "http://www.w3.org/Graphics/SVG/1.1/DTD/svg11.dtd">
<svg version="1.1" id="Layer" xmlns="http://www.w3.org/2000/svg" xmlns:xlink="http://www.w3.org/1999/xlink" x="0px" y="0px"
	 width="16px" height="16px" viewBox="0 0 16 16" style="enable-background:new 0 0 16 16;" xml:space="preserve">
<path style="fill:#231F20;" d="M8,12.857c-0.415,0-0.75-0.336-0.75-0.75s0.335-0.75,0.75-0.75c0.414,0,0.75,0.336,0.75,0.75
	S8.415,12.857,8,12.857 M8.5,9.34c0,0.576-0.448,1.041-1,1.041v-5.25c0-0.574,0.448-1.039,1-1.039V9.34 M15.795,12.432L9.31,2.076
	C8.872,1.385,7.929,1.162,7.207,1.582c-0.21,0.121-0.388,0.291-0.515,0.494L0.206,12.432c-0.423,0.701-0.172,1.598,0.56,2.002
	c0.228,0.125,0.486,0.193,0.749,0.197h12.973c0.845-0.01,1.523-0.672,1.513-1.48C15.998,12.898,15.928,12.65,15.795,12.432z
	 M14.873,13.467c-0.101,0.104-0.24,0.16-0.393,0.164H1.515c-0.086-0.002-0.183-0.027-0.268-0.074
	c-0.116-0.064-0.2-0.166-0.232-0.287c-0.021-0.076-0.029-0.193,0.048-0.32L7.54,2.607c0.039-0.062,0.098-0.119,0.167-0.158
	c0.09-0.053,0.19-0.08,0.292-0.08c0.193,0,0.373,0.094,0.467,0.242l6.482,10.352C14.979,13.014,15,13.086,15,13.158
	C15.002,13.305,14.932,13.406,14.873,13.467z"/>
</svg>
