<?xml version="1.0" encoding="utf-8"?>
<!-- Generator: Adobe Illustrator 16.0.0, SVG Export Plug-In . SVG Version: 6.00 Build 0)  -->
<!DOCTYPE svg PUBLIC "-//W3C//DTD SVG 1.1//EN" "http://www.w3.org/Graphics/SVG/1.1/DTD/svg11.dtd">
<svg version="1.1" id="Layer_2" xmlns="http://www.w3.org/2000/svg" xmlns:xlink="http://www.w3.org/1999/xlink" x="0px" y="0px"
	 width="16px" height="16px" viewBox="0 0 16 16" enable-background="new 0 0 16 16" xml:space="preserve">
<path fill="#231F20" d="M8,0.25C3.589,0.25,0,3.726,0,8s3.589,7.75,8,7.75s8-3.476,8-7.75S12.411,0.25,8,0.25z M8,12.383
	c-0.415,0-0.75-0.336-0.75-0.75s0.335-0.75,0.75-0.75c0.414,0,0.75,0.336,0.75,0.75S8.414,12.383,8,12.383z M9.871,7.598
	C9.753,7.705,9.426,7.896,8.897,8.165c-0.228,0.189-0.366,0.346-0.4,0.555C8.498,8.762,8.5,9.167,8.503,9.507
	c0.001,0.281,0.001,0.522,0,0.548c0,0.005-0.003,0.009-0.004,0.014L7.833,9.603C7.633,9.462,7.528,9.29,7.5,9.071
	c-0.001-0.443,0.001-0.47,0.011-0.521c0.104-0.632,0.563-1.043,0.885-1.253c0.193-0.126,0.726-0.382,0.809-0.446
	C9.409,6.664,9.506,6.438,9.5,6.153C9.478,5.262,8.932,4.75,8,4.75c-0.234,0-0.677,0.031-1.018,0.243C6.658,5.194,6.5,5.523,6.501,6
	L6.5,6.97c0,0.01-0.005,0.018-0.005,0.026L5.833,6.533c-0.2-0.14-0.305-0.312-0.332-0.53V6c0-1.045,0.518-1.586,0.954-1.856
	C6.979,3.818,7.584,3.75,8,3.75c1.46,0,2.465,0.956,2.5,2.38C10.512,6.7,10.295,7.208,9.871,7.598z"/>
</svg>
