<?xml version="1.0" encoding="iso-8859-1"?>
<!-- Generator: Adobe Illustrator 16.0.0, SVG Export Plug-In . SVG Version: 6.00 Build 0)  -->
<!DOCTYPE svg PUBLIC "-//W3C//DTD SVG 1.1//EN" "http://www.w3.org/Graphics/SVG/1.1/DTD/svg11.dtd">
<svg version="1.1" id="Layer_2" xmlns="http://www.w3.org/2000/svg" xmlns:xlink="http://www.w3.org/1999/xlink" x="0px" y="0px"
	 width="24px" height="24px" viewBox="0 0 24 24" style="enable-background:new 0 0 24 24;" xml:space="preserve">
<path style="fill:#231F20;" d="M12,1.344C5.935,1.344,1,6.123,1,12s4.935,10.656,11,10.656S23,17.877,23,12S18.065,1.344,12,1.344z
	 M12,18.026c-0.571,0-1.031-0.462-1.031-1.031s0.46-1.031,1.031-1.031c0.569,0,1.031,0.462,1.031,1.031S12.569,18.026,12,18.026z
	 M14.572,11.447c-0.161,0.147-0.612,0.41-1.339,0.779c-0.313,0.261-0.503,0.476-0.551,0.763c0.001,0.058,0.005,0.615,0.009,1.083
	c0.002,0.387,0.002,0.718,0,0.753c0,0.007-0.005,0.012-0.005,0.019l-0.915-0.641c-0.275-0.193-0.42-0.43-0.458-0.73
	c-0.002-0.609,0.002-0.646,0.015-0.715c0.144-0.869,0.774-1.435,1.216-1.724c0.266-0.173,0.998-0.524,1.113-0.613
	c0.28-0.258,0.414-0.568,0.405-0.96c-0.03-1.227-0.781-1.93-2.062-1.93c-0.322,0-0.931,0.043-1.4,0.334
	C10.155,8.143,9.938,8.595,9.939,9.25l-0.001,1.333c0,0.014-0.007,0.024-0.007,0.036l-0.91-0.636
	c-0.275-0.192-0.419-0.43-0.457-0.729V9.25C8.563,7.813,9.276,7.069,9.875,6.697C10.596,6.25,11.429,6.156,12,6.156
	c2.008,0,3.389,1.314,3.437,3.272C15.454,10.213,15.155,10.911,14.572,11.447z"/>
</svg>
