<?xml version="1.0" encoding="utf-8"?>
<!-- Generator: Adobe Illustrator 25.0.1, SVG Export Plug-In . SVG Version: 6.00 Build 0)  -->
<svg version="1.1" id="Layer" xmlns="http://www.w3.org/2000/svg" xmlns:xlink="http://www.w3.org/1999/xlink" x="0px" y="0px"
	 viewBox="0 0 16 16" enable-background="new 0 0 16 16" xml:space="preserve">
<path fill="#231F20" d="M8,0.25C3.589,0.25,0,3.726,0,8s3.589,7.75,8,7.75c4.411,0,8-3.476,8-7.75S12.411,0.25,8,0.25z M8.521,8.521
	v3.522c-0.001,0.305-0.112,0.519-0.362,0.695l-0.681,0.477V8.521H3.957c-0.305,0-0.519-0.112-0.695-0.363l-0.477-0.68h4.693V3.957
	C7.479,3.651,7.59,3.438,7.841,3.261l0.681-0.476v4.693h3.522c0.305,0.001,0.519,0.112,0.695,0.363l0.476,0.68H8.521z"/>
</svg>
