<?xml version="1.0" encoding="iso-8859-1"?>
<!-- Generator: Adobe Illustrator 16.0.0, SVG Export Plug-In . SVG Version: 6.00 Build 0)  -->
<!DOCTYPE svg PUBLIC "-//W3C//DTD SVG 1.1//EN" "http://www.w3.org/Graphics/SVG/1.1/DTD/svg11.dtd">
<svg version="1.1" id="Layer_3" xmlns="http://www.w3.org/2000/svg" xmlns:xlink="http://www.w3.org/1999/xlink" x="0px" y="0px"
	 width="24px" height="24px" viewBox="0 0 24 24" style="enable-background:new 0 0 24 24;" xml:space="preserve">
<path style="fill:#231F20;" d="M19.566,9.801c-0.381,0-0.688,0.309-0.688,0.689c0,0.037,0,8.379,0,8.379H5.141V5.131h13.738v1.627
	l-7.429,7.412l-3.055-3.119c-0.271-0.246-0.56-0.346-0.934-0.279l-1.073,0.191c0.001,0.002,0.001,0.002,0.001,0.002l5.047,5.158
	L23,4.568l-1.063-0.186c-0.396-0.072-0.701,0.023-0.984,0.309l-0.698,0.697V5.131c0-0.76-0.617-1.373-1.375-1.373H5.141
	c-0.759,0-1.374,0.613-1.374,1.373v13.738c0,0.76,0.615,1.373,1.374,1.373h13.738c0.758,0,1.375-0.613,1.375-1.373
	c0,0,0-8.332,0-8.379C20.254,10.109,19.945,9.801,19.566,9.801z"/>
</svg>
