<?xml version="1.0" encoding="iso-8859-1"?>
<!-- Generator: Adobe Illustrator 16.0.0, SVG Export Plug-In . SVG Version: 6.00 Build 0)  -->
<!DOCTYPE svg PUBLIC "-//W3C//DTD SVG 1.1//EN" "http://www.w3.org/Graphics/SVG/1.1/DTD/svg11.dtd">
<svg version="1.1" id="Layer_3" xmlns="http://www.w3.org/2000/svg" xmlns:xlink="http://www.w3.org/1999/xlink" x="0px" y="0px"
	 width="16px" height="16px" viewBox="0 0 16 16" style="enable-background:new 0 0 16 16;" xml:space="preserve">
<path style="fill:#231F20;" d="M13.5,6.4c-0.276,0-0.5,0.224-0.5,0.5c0,0.028,0,6.1,0,6.1H3V3h10v1.185L7.592,9.58L5.368,7.309
	c-0.197-0.18-0.407-0.25-0.679-0.201L3.908,7.244c0,0.002,0.001,0.002,0.001,0.002L7.583,11L16,2.59l-0.774-0.135
	c-0.289-0.053-0.509,0.018-0.717,0.225L14,3.188V3c0-0.553-0.448-1-1-1H3C2.448,2,2,2.447,2,3v10c0,0.553,0.448,1,1,1h10
	c0.552,0,1-0.447,1-1c0,0,0-6.064,0-6.1C14,6.624,13.776,6.4,13.5,6.4z"/>
</svg>
