<?xml version="1.0" encoding="iso-8859-1"?>
<!-- Generator: Adobe Illustrator 16.0.0, SVG Export Plug-In . SVG Version: 6.00 Build 0)  -->
<!DOCTYPE svg PUBLIC "-//W3C//DTD SVG 1.1//EN" "http://www.w3.org/Graphics/SVG/1.1/DTD/svg11.dtd">
<svg version="1.1" id="Layer_3" xmlns="http://www.w3.org/2000/svg" xmlns:xlink="http://www.w3.org/1999/xlink" x="0px" y="0px"
	 width="24px" height="24px" viewBox="0 0 24 24" style="enable-background:new 0 0 24 24;" xml:space="preserve">
<path style="fill:#231F20;" d="M18.868,3.758H5.132c-0.759,0-1.374,0.614-1.374,1.374v13.736c0,0.76,0.615,1.374,1.374,1.374h13.736
	c0.759,0,1.374-0.614,1.374-1.374V5.132C20.242,4.372,19.627,3.758,18.868,3.758z M18.868,18.868H5.132V5.132h13.736V18.868z
	 M8.106,15.895c-0.004-0.029,0-7.088,0-7.088c0-0.387,0.313-0.699,0.7-0.699c0,0,7.059-0.004,7.089,0l-0.643,0.934
	c-0.196,0.281-0.438,0.428-0.746,0.465l-5,0.002v5c-0.038,0.307-0.186,0.549-0.467,0.746L8.106,15.895z"/>
</svg>
