<?xml version="1.0" encoding="iso-8859-1"?>
<!-- Generator: Adobe Illustrator 16.0.0, SVG Export Plug-In . SVG Version: 6.00 Build 0)  -->
<!DOCTYPE svg PUBLIC "-//W3C//DTD SVG 1.1//EN" "http://www.w3.org/Graphics/SVG/1.1/DTD/svg11.dtd">
<svg version="1.1" id="Layer_3" xmlns="http://www.w3.org/2000/svg" xmlns:xlink="http://www.w3.org/1999/xlink" x="0px" y="0px"
	 width="16px" height="16px" viewBox="0 0 16 16" style="enable-background:new 0 0 16 16;" xml:space="preserve">
<path style="fill:#231F20;" d="M14,8c0,3.309-2.691,6-6,6s-6-2.691-6-6s2.691-6,6-6c1.957,0,3.687,0.949,4.781,2.403l1.728-1.724
	c0.208-0.207,0.428-0.277,0.717-0.225L16,2.59L7.583,11L3.909,7.246c0,0,0,0-0.001-0.002l0.781-0.137
	c0.272-0.049,0.482,0.021,0.679,0.201L7.592,9.58l4.474-4.463C11.16,3.842,9.684,3,8,3C5.238,3,3,5.238,3,8s2.238,5,5,5s5-2.238,5-5
	c0-0.309-0.08-0.9-0.08-0.9c0-0.276,0.224-0.5,0.5-0.5s0.5,0.224,0.5,0.5C13.92,7.1,14,7.693,14,8z"/>
</svg>
