<?xml version="1.0" encoding="iso-8859-1"?>
<!-- Generator: Adobe Illustrator 16.0.0, SVG Export Plug-In . SVG Version: 6.00 Build 0)  -->
<!DOCTYPE svg PUBLIC "-//W3C//DTD SVG 1.1//EN" "http://www.w3.org/Graphics/SVG/1.1/DTD/svg11.dtd">
<svg version="1.1" id="Layer_3" xmlns="http://www.w3.org/2000/svg" xmlns:xlink="http://www.w3.org/1999/xlink" x="0px" y="0px"
	 width="24px" height="24px" viewBox="0 0 24 24" style="enable-background:new 0 0 24 24;" xml:space="preserve">
<path style="fill:#231F20;" d="M20.252,12c0,4.545-3.697,8.242-8.242,8.242c-4.544,0-8.242-3.697-8.242-8.242
	s3.697-8.242,8.242-8.242c2.688,0,5.064,1.304,6.568,3.302l2.374-2.368c0.285-0.284,0.588-0.381,0.985-0.308L23,4.568L11.437,16.121
	l-5.046-5.157c0,0-0.001,0-0.001-0.002l1.073-0.188c0.374-0.067,0.662,0.029,0.933,0.275l3.054,3.121l6.145-6.131
	c-1.243-1.752-3.271-2.908-5.584-2.908c-3.794,0-6.868,3.074-6.868,6.868s3.074,6.868,6.868,6.868c3.794,0,6.869-3.074,6.869-6.868
	c0-0.424-0.11-1.237-0.11-1.237c0-0.38,0.307-0.686,0.687-0.686c0.38,0,0.687,0.306,0.687,0.686
	C20.143,10.763,20.252,11.578,20.252,12z"/>
</svg>
