<?xml version="1.0" encoding="utf-8"?>
<!-- Generator: Adobe Illustrator 16.0.0, SVG Export Plug-In . SVG Version: 6.00 Build 0)  -->
<!DOCTYPE svg PUBLIC "-//W3C//DTD SVG 1.1//EN" "http://www.w3.org/Graphics/SVG/1.1/DTD/svg11.dtd">
<svg version="1.1" id="Layer_2" xmlns="http://www.w3.org/2000/svg" xmlns:xlink="http://www.w3.org/1999/xlink" x="0px" y="0px"
	 width="16px" height="16px" viewBox="0 0 16 16" enable-background="new 0 0 16 16" xml:space="preserve">
<path fill="#231F20" d="M16,8.125c0,4.272-3.589,7.75-8,7.75s-8-3.478-8-7.75c0-2.142,0.904-4.082,2.359-5.486L2.56,3.407
	c0.065,0.248,0.015,0.451-0.122,0.648C1.542,5.188,1,6.593,1,8.125c0,3.723,3.14,6.75,7,6.75s7-3.027,7-6.75
	c0-1.535-0.545-2.943-1.444-4.077c-0.128-0.193-0.176-0.392-0.111-0.634l0.206-0.766C15.1,4.052,16,5.988,16,8.125z M7.833,0.592
	C7.593,0.76,7.501,0.955,7.5,1.248v10.877l0.666-0.467c0.24-0.168,0.332-0.363,0.334-0.656V0.125L7.833,0.592z"/>
</svg>
