<?xml version="1.0" encoding="iso-8859-1"?>
<!-- Generator: Adobe Illustrator 16.0.0, SVG Export Plug-In . SVG Version: 6.00 Build 0)  -->
<!DOCTYPE svg PUBLIC "-//W3C//DTD SVG 1.1//EN" "http://www.w3.org/Graphics/SVG/1.1/DTD/svg11.dtd">
<svg version="1.1" id="Layer" xmlns="http://www.w3.org/2000/svg" xmlns:xlink="http://www.w3.org/1999/xlink" x="0px" y="0px"
	 width="16px" height="16px" viewBox="0 0 16 16" style="enable-background:new 0 0 16 16;" xml:space="preserve">
<path style="fill:#231F20;" d="M14.054,12.313c-0.157,0-0.312-0.076-0.41-0.213c-0.159-0.225-0.105-0.537,0.121-0.696
	c1.312-0.924,1.629-2.746,0.706-4.06c-0.544-0.775-1.433-1.237-2.378-1.237c-0.001,0-0.001,0-0.002,0h-0.858
	c-0.229,0-0.428-0.154-0.484-0.376C10.42,4.445,9.61,3.366,8.47,2.691C7.333,2.019,6.002,1.829,4.722,2.158
	c-2.645,0.68-4.244,3.391-3.565,6.041c0.193,0.756,0.569,1.467,1.088,2.056c0.183,0.206,0.163,0.522-0.044,0.706
	c-0.206,0.183-0.523,0.162-0.706-0.044C0.871,10.21,0.419,9.354,0.188,8.446c-0.815-3.184,1.106-6.439,4.285-7.257
	c1.539-0.395,3.138-0.168,4.506,0.642c1.258,0.744,2.181,1.897,2.629,3.275h0.482c0.001,0,0.002,0,0.002,0
	c1.271,0,2.466,0.622,3.197,1.664c1.239,1.765,0.814,4.21-0.948,5.452C14.254,12.284,14.154,12.313,14.054,12.313z M11.967,9
	c-0.291,0-0.48,0.108-0.648,0.348l-3.317,4.68H8H7.999l-3.317-4.68C4.514,9.108,4.324,9,4.033,9H3.219l4.011,5.67
	c0.051,0.07,0.109,0.112,0.166,0.157c0.109,0.085,0.229,0.143,0.375,0.16L8,15l0.229-0.013c0.146-0.018,0.266-0.075,0.375-0.16
	c0.057-0.045,0.115-0.087,0.166-0.157L12.781,9H11.967z"/>
</svg>
