<?xml version="1.0" encoding="iso-8859-1"?>
<!-- Generator: Adobe Illustrator 16.0.0, SVG Export Plug-In . SVG Version: 6.00 Build 0)  -->
<!DOCTYPE svg PUBLIC "-//W3C//DTD SVG 1.1//EN" "http://www.w3.org/Graphics/SVG/1.1/DTD/svg11.dtd">
<svg version="1.1" id="Layer" xmlns="http://www.w3.org/2000/svg" xmlns:xlink="http://www.w3.org/1999/xlink" x="0px" y="0px"
	 width="24px" height="24px" viewBox="0 0 24 24" style="enable-background:new 0 0 24 24;" xml:space="preserve">
<path style="fill:#231F20;" d="M20.325,17.931c-0.216,0-0.429-0.105-0.562-0.294c-0.221-0.308-0.146-0.737,0.165-0.955
	c1.805-1.27,2.241-3.777,0.97-5.583c-0.747-1.068-1.97-1.7-3.269-1.7c-0.001,0-0.001,0-0.002,0h-1.18
	c-0.313,0-0.589-0.213-0.666-0.517c-0.452-1.772-1.566-3.256-3.135-4.183c-1.561-0.925-3.393-1.185-5.154-0.732
	C3.856,4.904,1.656,8.629,2.59,12.275c0.266,1.037,0.783,2.018,1.495,2.823c0.253,0.288,0.225,0.722-0.062,0.976
	c-0.283,0.247-0.717,0.221-0.97-0.062c-0.858-0.977-1.478-2.148-1.796-3.396C0.137,8.237,2.779,3.757,7.148,2.635
	c2.116-0.541,4.316-0.232,6.197,0.882c1.73,1.025,2.999,2.612,3.617,4.506h0.664c0.001,0,0.002,0,0.002,0
	c1.749,0,3.392,0.856,4.395,2.285c1.705,2.427,1.119,5.792-1.303,7.497C20.601,17.89,20.462,17.931,20.325,17.931z M16.556,16.125
	h-1.119c-0.404,0-0.573,0.078-0.807,0.405l-1.943,2.774v-5.242c0-0.382-0.309-0.688-0.688-0.688c-0.378,0-0.688,0.306-0.688,0.688
	v5.243L9.368,16.53c-0.234-0.327-0.405-0.405-0.806-0.405H7.445l2.862,4.145h0.004l0.629,0.902c0.071,0.094,0.149,0.153,0.23,0.215
	c0.15,0.114,0.313,0.196,0.516,0.221l0.315,0.018l0.318-0.018c0.183-0.022,0.335-0.089,0.476-0.183l-0.001-0.001
	c0.091-0.076,0.186-0.142,0.269-0.255L16.556,16.125z"/>
</svg>
