<?xml version="1.0" encoding="utf-8"?>
<!-- Generator: Adobe Illustrator 16.0.0, SVG Export Plug-In . SVG Version: 6.00 Build 0)  -->
<!DOCTYPE svg PUBLIC "-//W3C//DTD SVG 1.1//EN" "http://www.w3.org/Graphics/SVG/1.1/DTD/svg11.dtd">
<svg version="1.1" id="Layer" xmlns="http://www.w3.org/2000/svg" xmlns:xlink="http://www.w3.org/1999/xlink" x="0px" y="0px"
	 width="16px" height="16px" viewBox="0 0 16 16" enable-background="new 0 0 16 16" xml:space="preserve">
<path fill="#231F20" d="M14.054,12.313c-0.157,0-0.312-0.076-0.41-0.213c-0.159-0.225-0.105-0.537,0.121-0.696
	c1.312-0.924,1.629-2.746,0.706-4.06c-0.544-0.775-1.433-1.237-2.378-1.237c-0.001,0-0.001,0-0.002,0h-0.858
	c-0.229,0-0.428-0.154-0.484-0.376C10.42,4.445,9.61,3.366,8.47,2.691C7.333,2.019,6.002,1.829,4.722,2.158
	c-2.645,0.68-4.244,3.391-3.565,6.041c0.193,0.756,0.569,1.467,1.088,2.056c0.183,0.206,0.163,0.522-0.044,0.706
	c-0.206,0.183-0.523,0.162-0.706-0.044C0.871,10.21,0.419,9.354,0.188,8.446c-0.815-3.184,1.106-6.439,4.285-7.257
	c1.539-0.395,3.138-0.168,4.506,0.642c1.258,0.744,2.181,1.897,2.629,3.275h0.482c0.001,0,0.002,0,0.002,0
	c1.271,0,2.466,0.622,3.197,1.664c1.239,1.765,0.814,4.21-0.948,5.452C14.254,12.284,14.154,12.313,14.054,12.313z M11.314,11H10.5
	c-0.293,0-0.418,0.055-0.587,0.294L8.5,13.312V9.5C8.5,9.224,8.276,9,8,9C7.724,9,7.5,9.224,7.5,9.5v3.813l-1.414-2.02
	C5.917,11.055,5.792,11,5.5,11H4.687l2.083,3.014h0.001L7.23,14.67c0.051,0.07,0.108,0.112,0.166,0.156
	c0.109,0.085,0.229,0.144,0.375,0.162L8.001,15l0.23-0.012c0.133-0.017,0.245-0.065,0.347-0.136l-0.001-0.001
	c0.067-0.053,0.136-0.101,0.195-0.185L11.314,11z"/>
</svg>
