<?xml version="1.0" encoding="iso-8859-1"?>
<!-- Generator: Adobe Illustrator 16.0.0, SVG Export Plug-In . SVG Version: 6.00 Build 0)  -->
<!DOCTYPE svg PUBLIC "-//W3C//DTD SVG 1.1//EN" "http://www.w3.org/Graphics/SVG/1.1/DTD/svg11.dtd">
<svg version="1.1" id="Layer" xmlns="http://www.w3.org/2000/svg" xmlns:xlink="http://www.w3.org/1999/xlink" x="0px" y="0px"
	 width="16px" height="16px" viewBox="0 0 16 16" style="enable-background:new 0 0 16 16;" xml:space="preserve">
<path style="fill:#231F20;" d="M14.054,12.313c-0.157,0-0.312-0.074-0.41-0.212c-0.159-0.226-0.105-0.538,0.121-0.697
	c1.312-0.924,1.629-2.745,0.706-4.06c-0.544-0.774-1.433-1.237-2.378-1.237c-0.001,0-0.001,0-0.002,0h-0.858
	c-0.229,0-0.428-0.154-0.484-0.376C10.42,4.445,9.61,3.366,8.47,2.691C7.333,2.019,6.002,1.829,4.722,2.158
	c-2.645,0.68-4.244,3.391-3.565,6.041c0.193,0.757,0.569,1.468,1.088,2.056c0.183,0.207,0.163,0.523-0.044,0.706
	c-0.206,0.184-0.523,0.162-0.706-0.044C0.871,10.21,0.419,9.355,0.188,8.446c-0.815-3.184,1.106-6.439,4.285-7.257
	c1.539-0.395,3.138-0.168,4.506,0.642c1.258,0.744,2.181,1.897,2.629,3.276h0.482c0.001,0,0.002,0,0.002,0
	c1.271,0,2.466,0.621,3.197,1.663c1.239,1.765,0.814,4.211-0.948,5.452C14.254,12.284,14.154,12.313,14.054,12.313z M4.033,15
	c0.291,0,0.48-0.107,0.648-0.347l3.317-4.681L8,9.974l0.001-0.001l3.317,4.681C11.486,14.893,11.676,15,11.967,15h0.814L8.771,9.33
	C8.72,9.26,8.661,9.218,8.604,9.174C8.495,9.089,8.376,9.03,8.229,9.012L8,9L7.771,9.012C7.624,9.03,7.505,9.089,7.396,9.174
	C7.339,9.218,7.28,9.26,7.229,9.33L3.219,15H4.033z"/>
</svg>
