<?xml version="1.0" encoding="iso-8859-1"?>
<!-- Generator: Adobe Illustrator 16.0.0, SVG Export Plug-In . SVG Version: 6.00 Build 0)  -->
<!DOCTYPE svg PUBLIC "-//W3C//DTD SVG 1.1//EN" "http://www.w3.org/Graphics/SVG/1.1/DTD/svg11.dtd">
<svg version="1.1" id="Layer" xmlns="http://www.w3.org/2000/svg" xmlns:xlink="http://www.w3.org/1999/xlink" x="0px" y="0px"
	 width="24px" height="24px" viewBox="0 0 24 24" style="enable-background:new 0 0 24 24;" xml:space="preserve">
<path style="fill:#231F20;" d="M20.325,17.931c-0.216,0-0.429-0.104-0.563-0.292c-0.219-0.31-0.144-0.739,0.167-0.958
	c1.805-1.27,2.24-3.775,0.971-5.582c-0.748-1.065-1.97-1.701-3.27-1.701c-0.001,0-0.002,0-0.003,0h-1.18
	c-0.314,0-0.588-0.212-0.666-0.517c-0.452-1.769-1.565-3.253-3.134-4.181c-1.562-0.925-3.393-1.186-5.154-0.732
	C3.855,4.902,1.656,8.63,2.59,12.273c0.265,1.04,0.782,2.018,1.496,2.827c0.252,0.283,0.224,0.719-0.061,0.971
	c-0.283,0.251-0.719,0.223-0.97-0.061c-0.857-0.972-1.479-2.148-1.796-3.397C0.136,8.236,2.779,3.759,7.15,2.636
	c2.115-0.543,4.315-0.231,6.196,0.882c1.73,1.023,2.999,2.609,3.615,4.504h0.664c0.001,0,0.003,0,0.003,0
	c1.748,0,3.391,0.855,4.396,2.288c1.704,2.426,1.119,5.789-1.304,7.497C20.599,17.891,20.461,17.931,20.325,17.931z M7.444,18.875
	h1.12c0.403,0,0.575-0.075,0.807-0.404l1.943-2.775v5.242c0,0.38,0.307,0.688,0.688,0.688c0.379,0,0.688-0.308,0.688-0.688v-5.243
	l1.944,2.776c0.233,0.329,0.403,0.404,0.806,0.404h1.118l-2.863-4.144h-0.002l-0.632-0.902c-0.07-0.097-0.149-0.154-0.228-0.215
	c-0.15-0.117-0.314-0.197-0.516-0.224L12,13.375l-0.316,0.016c-0.183,0.023-0.336,0.091-0.477,0.188l0.001,0.001
	c-0.093,0.072-0.187,0.139-0.269,0.254L7.444,18.875z"/>
</svg>
