<?xml version="1.0" encoding="iso-8859-1"?>
<!-- Generator: Adobe Illustrator 16.0.0, SVG Export Plug-In . SVG Version: 6.00 Build 0)  -->
<!DOCTYPE svg PUBLIC "-//W3C//DTD SVG 1.1//EN" "http://www.w3.org/Graphics/SVG/1.1/DTD/svg11.dtd">
<svg version="1.1" id="Layer_2" xmlns="http://www.w3.org/2000/svg" xmlns:xlink="http://www.w3.org/1999/xlink" x="0px" y="0px"
	 width="24px" height="24px" viewBox="0 0 24 24" style="enable-background:new 0 0 24 24;" xml:space="preserve">
<path style="fill:#231F20;" d="M21.845,20.302h0.039l-0.397-0.378L2.044,1.594L1.85,2.631C1.792,2.947,1.881,3.18,2.07,3.403
	l0.463,0.485l1.829,1.724c-2.623,1.818-3.961,5.021-3.104,8.169c0.257,0.953,0.717,1.845,1.331,2.641c0,0-0.01,0.001-0.009,0.003
	c1.317,1.771,4.428,3.265,7.098,3.265h7.884c0.441,0,0.937-0.094,1.452-0.262l2.958,2.791l0.195-1.037
	c0.06-0.316-0.032-0.549-0.218-0.772L21.845,20.302z M17.873,18.353c-0.106,0.008-0.203,0.042-0.311,0.042h-7.88
	c-2.165,0.002-4.435-1.001-5.73-2.431c-0.64-0.73-1.113-1.588-1.36-2.504C1.86,10.768,3.074,8.055,5.38,6.574L17.873,18.353z
	 M7.575,4.874c0-0.276,0.18-0.513,0.437-0.614l0.303-0.09c1.848-0.257,3.414,0.116,5.043,1.03c1.733,0.966,3.003,2.459,3.619,4.252
	h0.665c0,0,0.005,0,0.005,0c1.747,0,3.391,0.803,4.399,2.155c1.388,1.866,1.166,4.211-0.055,5.859l-0.154,0.126
	c-0.124,0.109-0.286,0.179-0.469,0.179c-0.374,0-0.675-0.283-0.675-0.64c0-0.192,0.096-0.354,0.238-0.474
	c0.919-1.266,0.976-2.977-0.013-4.304c-0.747-1.006-1.971-1.606-3.271-1.606c-0.003,0-0.004,0-0.005,0h-1.181
	c-0.314,0-0.587-0.199-0.667-0.49c-0.453-1.664-1.568-3.07-3.137-3.94c-1.29-0.724-2.762-0.969-4.226-0.811
	C8.38,5.521,8.333,5.54,8.28,5.54c-0.026,0-0.047-0.014-0.07-0.015C8.188,5.527,8.168,5.526,8.147,5.528L8.125,5.507
	C7.812,5.44,7.575,5.188,7.575,4.874z"/>
</svg>
