<?xml version="1.0" encoding="iso-8859-1"?>
<!-- Generator: Adobe Illustrator 16.0.0, SVG Export Plug-In . SVG Version: 6.00 Build 0)  -->
<!DOCTYPE svg PUBLIC "-//W3C//DTD SVG 1.1//EN" "http://www.w3.org/Graphics/SVG/1.1/DTD/svg11.dtd">
<svg version="1.1" id="Layer" xmlns="http://www.w3.org/2000/svg" xmlns:xlink="http://www.w3.org/1999/xlink" x="0px" y="0px"
	 width="16px" height="16px" viewBox="0 0 16 16" style="enable-background:new 0 0 16 16;" xml:space="preserve">
<path style="fill:#231F20;" d="M16,5v8.5c0,1.379-1.122,2.5-2.5,2.5h-11C1.122,16,0,14.879,0,13.5V5
	c0-0.038,0.014-0.072,0.022-0.108l0.631,0.442C0.893,5.502,1,5.707,1,6v7.5C1,14.327,1.673,15,2.5,15h11c0.827,0,1.5-0.673,1.5-1.5
	V6c0-0.293,0.107-0.498,0.347-0.666l0.631-0.442C15.986,4.928,16,4.962,16,5z M11.967,1c-0.291,0-0.48,0.107-0.648,0.347
	L8.001,6.027L8,6.026L7.999,6.027L4.682,1.347C4.514,1.107,4.324,1,4.033,1H3.219l4.011,5.67C7.28,6.74,7.339,6.782,7.396,6.826
	C7.505,6.911,7.624,6.97,7.771,6.988L8,7l0.229-0.012C8.376,6.97,8.495,6.911,8.604,6.826C8.661,6.782,8.72,6.74,8.771,6.67
	L12.781,1H11.967z"/>
</svg>
