<?xml version="1.0" encoding="utf-8"?>
<!-- Generator: Adobe Illustrator 16.0.0, SVG Export Plug-In . SVG Version: 6.00 Build 0)  -->
<!DOCTYPE svg PUBLIC "-//W3C//DTD SVG 1.1//EN" "http://www.w3.org/Graphics/SVG/1.1/DTD/svg11.dtd">
<svg version="1.1" id="Layer" xmlns="http://www.w3.org/2000/svg" xmlns:xlink="http://www.w3.org/1999/xlink" x="0px" y="0px"
	 width="16px" height="16px" viewBox="0 0 16 16" enable-background="new 0 0 16 16" xml:space="preserve">
<path fill="#231F20" d="M16,5v8.5c0,1.379-1.122,2.5-2.5,2.5h-11C1.122,16,0,14.879,0,13.5V5c0-0.038,0.014-0.072,0.022-0.108
	l0.631,0.442C0.893,5.502,1,5.707,1,6v7.5C1,14.327,1.673,15,2.5,15h11c0.827,0,1.5-0.673,1.5-1.5V6
	c0-0.293,0.107-0.498,0.347-0.666l0.631-0.442C15.986,4.928,16,4.962,16,5z M11.314,2H10.5c-0.293,0-0.418,0.055-0.587,0.294
	L8.5,4.312V0.5C8.5,0.224,8.276,0,8,0C7.724,0,7.5,0.224,7.5,0.5v3.813l-1.414-2.02C5.917,2.055,5.792,2,5.5,2H4.687L6.77,5.014
	h0.001L7.23,5.67c0.051,0.07,0.108,0.112,0.166,0.156C7.505,5.911,7.625,5.97,7.771,5.988L8.001,6l0.23-0.012
	c0.133-0.017,0.245-0.065,0.347-0.136L8.577,5.852c0.067-0.053,0.136-0.101,0.195-0.185L11.314,2z"/>
</svg>
