<?xml version="1.0" encoding="iso-8859-1"?>
<!-- Generator: Adobe Illustrator 16.0.0, SVG Export Plug-In . SVG Version: 6.00 Build 0)  -->
<!DOCTYPE svg PUBLIC "-//W3C//DTD SVG 1.1//EN" "http://www.w3.org/Graphics/SVG/1.1/DTD/svg11.dtd">
<svg version="1.1" id="Layer_2" xmlns="http://www.w3.org/2000/svg" xmlns:xlink="http://www.w3.org/1999/xlink" x="0px" y="0px"
	 width="16px" height="16px" viewBox="0 0 16 16" style="enable-background:new 0 0 16 16;" xml:space="preserve">
<path style="fill:#231F20;" d="M15.161,14.104h0.028l-0.289-0.272L0.76,0.5L0.619,1.256C0.576,1.484,0.641,1.652,0.777,1.817
	l0.337,0.351l1.331,1.255c-1.908,1.32-2.88,3.649-2.258,5.942c0.187,0.689,0.521,1.341,0.967,1.92c0,0-0.007,0.001-0.006,0.003
	c0.957,1.284,3.221,2.374,5.162,2.374h5.734c0.321,0,0.682-0.07,1.057-0.191l2.152,2.029l0.142-0.756
	c0.043-0.229-0.023-0.396-0.159-0.562L15.161,14.104z M12.27,12.688c-0.077,0.007-0.147,0.03-0.226,0.03H6.314
	c-1.576,0.002-3.225-0.727-4.169-1.769c-0.464-0.531-0.809-1.154-0.988-1.818c-0.532-1.96,0.351-3.935,2.027-5.011L12.27,12.688z
	 M4.782,2.884c0-0.2,0.13-0.372,0.316-0.444l0.221-0.066C6.663,2.187,7.802,2.46,8.988,3.122c1.259,0.702,2.184,1.791,2.632,3.092
	h0.483c0,0,0.002,0,0.002,0c1.272,0,2.468,0.586,3.201,1.569c1.009,1.356,0.847,3.062-0.041,4.26l-0.113,0.091
	c-0.088,0.08-0.207,0.132-0.34,0.132c-0.271,0-0.491-0.207-0.491-0.464c0-0.14,0.07-0.26,0.173-0.345
	c0.668-0.92,0.709-2.168-0.009-3.132c-0.544-0.73-1.435-1.167-2.38-1.167c-0.001,0-0.001,0-0.002,0h-0.858
	c-0.229,0-0.429-0.146-0.485-0.355c-0.33-1.213-1.14-2.232-2.282-2.868C7.541,3.41,6.47,3.229,5.404,3.347
	C5.368,3.355,5.333,3.368,5.293,3.368c-0.018,0-0.032-0.008-0.05-0.009C5.229,3.361,5.214,3.36,5.199,3.362L5.183,3.347
	C4.955,3.298,4.782,3.115,4.782,2.884z"/>
</svg>
