<?xml version="1.0" encoding="iso-8859-1"?>
<!-- Generator: Adobe Illustrator 16.0.0, SVG Export Plug-In . SVG Version: 6.00 Build 0)  -->
<!DOCTYPE svg PUBLIC "-//W3C//DTD SVG 1.1//EN" "http://www.w3.org/Graphics/SVG/1.1/DTD/svg11.dtd">
<svg version="1.1" id="Layer" xmlns="http://www.w3.org/2000/svg" xmlns:xlink="http://www.w3.org/1999/xlink" x="0px" y="0px"
	 width="24px" height="24px" viewBox="0 0 24 24" style="enable-background:new 0 0 24 24;" xml:space="preserve">
<path style="fill:#231F20;" d="M22.267,19.333c0,2.022-1.645,3.667-3.667,3.667H5.4c-2.021,0-3.667-1.645-3.667-3.667
	c0,0-0.013-11.105,0-11.158l0.958,0.648C3.042,9.069,3.2,9.37,3.2,9.8v9.533c0,1.214,0.987,2.2,2.2,2.2h13.2
	c1.213,0,2.2-0.986,2.2-2.2V9.8c0-0.43,0.158-0.73,0.509-0.977l0.958-0.648C22.279,8.228,22.267,19.333,22.267,19.333z M7.14,6.866
	h1.194c0.431,0,0.613-0.08,0.861-0.431l2.073-2.961v5.592C11.268,9.472,11.595,9.8,12,9.8c0.405,0,0.733-0.328,0.733-0.733V3.474
	l2.074,2.962c0.249,0.351,0.43,0.431,0.859,0.431h1.192l-3.055-4.42h-0.002l-0.674-0.962c-0.075-0.104-0.159-0.165-0.243-0.229
	c-0.16-0.125-0.335-0.211-0.55-0.237L12,1l-0.337,0.018c-0.196,0.024-0.359,0.096-0.509,0.198l0.001,0.002
	c-0.099,0.077-0.199,0.147-0.286,0.271L7.14,6.866z"/>
</svg>
