<?xml version="1.0" encoding="utf-8"?>
<!-- Generator: Adobe Illustrator 16.0.0, SVG Export Plug-In . SVG Version: 6.00 Build 0)  -->
<!DOCTYPE svg PUBLIC "-//W3C//DTD SVG 1.1//EN" "http://www.w3.org/Graphics/SVG/1.1/DTD/svg11.dtd">
<svg version="1.1" id="Layer" xmlns="http://www.w3.org/2000/svg" xmlns:xlink="http://www.w3.org/1999/xlink" x="0px" y="0px"
	 width="16px" height="16px" viewBox="0 0 16 16" enable-background="new 0 0 16 16" xml:space="preserve">
<path fill="#231F20" d="M16,5v8.5c0,1.379-1.122,2.5-2.5,2.5h-11C1.122,16,0,14.879,0,13.5V5c0-0.038,0.014-0.072,0.022-0.108
	l0.631,0.442C0.893,5.502,1,5.707,1,6v7.5C1,14.327,1.673,15,2.5,15h11c0.827,0,1.5-0.673,1.5-1.5V6
	c0-0.293,0.107-0.498,0.347-0.666l0.631-0.442C15.986,4.928,16,4.962,16,5z M4.687,4h0.814c0.293,0,0.418-0.055,0.587-0.294
	l1.413-2.019V5.5c0,0.276,0.224,0.5,0.5,0.5c0.276,0,0.5-0.224,0.5-0.5V1.687l1.414,2.02C10.084,3.945,10.208,4,10.501,4h0.813
	L9.231,0.986H9.23L8.771,0.33C8.72,0.26,8.662,0.218,8.605,0.174C8.496,0.089,8.376,0.03,8.23,0.012L8,0L7.77,0.012
	C7.637,0.028,7.525,0.077,7.423,0.147l0.001,0.001C7.357,0.201,7.289,0.249,7.229,0.333L4.687,4z"/>
</svg>
