<?xml version="1.0" encoding="iso-8859-1"?>
<!-- Generator: Adobe Illustrator 16.0.0, SVG Export Plug-In . SVG Version: 6.00 Build 0)  -->
<!DOCTYPE svg PUBLIC "-//W3C//DTD SVG 1.1//EN" "http://www.w3.org/Graphics/SVG/1.1/DTD/svg11.dtd">
<svg version="1.1" id="Layer" xmlns="http://www.w3.org/2000/svg" xmlns:xlink="http://www.w3.org/1999/xlink" x="0px" y="0px"
	 width="16px" height="16px" viewBox="0 0 16 16" style="enable-background:new 0 0 16 16;" xml:space="preserve">
<path style="fill:#231F20;" d="M16,5v8.5c0,1.379-1.122,2.5-2.5,2.5h-11C1.122,16,0,14.879,0,13.5V5
	c0-0.038,0.014-0.072,0.022-0.108l0.631,0.442C0.893,5.502,1,5.707,1,6v7.5C1,14.327,1.673,15,2.5,15h11c0.827,0,1.5-0.673,1.5-1.5
	V6c0-0.293,0.107-0.498,0.347-0.666l0.631-0.442C15.986,4.928,16,4.962,16,5z M4.033,7c0.291,0,0.48-0.107,0.648-0.347l3.317-4.681
	L8,1.974l0.001-0.001l3.317,4.681C11.486,6.893,11.676,7,11.967,7h0.814L8.771,1.33C8.72,1.26,8.661,1.218,8.604,1.174
	C8.495,1.089,8.376,1.03,8.229,1.012L8,1L7.771,1.012C7.624,1.03,7.505,1.089,7.396,1.174C7.339,1.218,7.28,1.26,7.229,1.33L3.219,7
	H4.033z"/>
</svg>
