<?xml version="1.0" encoding="UTF-8" standalone="no"?>
<svg
   xmlns:dc="http://purl.org/dc/elements/1.1/"
   xmlns:cc="http://creativecommons.org/ns#"
   xmlns:rdf="http://www.w3.org/1999/02/22-rdf-syntax-ns#"
   xmlns:svg="http://www.w3.org/2000/svg"
   xmlns="http://www.w3.org/2000/svg"
   version="1.1"
   id="Layer"
   x="0px"
   y="0px"
   width="24px"
   height="24px"
   viewBox="0 0 24 24"
   style="enable-background:new 0 0 24 24;"
   xml:space="preserve"><metadata
   id="metadata17"><rdf:RDF><cc:Work
       rdf:about=""><dc:format>image/svg+xml</dc:format><dc:type
         rdf:resource="http://purl.org/dc/dcmitype/StillImage" /><dc:title></dc:title></cc:Work></rdf:RDF></metadata><defs
   id="defs15" />
<path
   style="fill:#231f20"
   d="M 12,1 C 8.967,1 6.5,3.467 6.5,6.499 6.5,9.532 8.967,12 12,12 15.033,12 17.5,9.532 17.5,6.499 17.5,3.467 15.033,1 12,1 Z m 0,9.625 c -2.278,0 -4.125,-1.847 -4.125,-4.126 0,-2.277 1.847,-4.124 4.125,-4.124 2.277,0 4.125,1.847 4.125,4.124 0,2.279 -1.848,4.126 -4.125,4.126 z M 16.381862,16.095465 7.875,16.125 c -1.8959887,0.0066 -3.438,1.611 -3.438,3.594 V 21.55 C 4.412,21.898 4.281,22.162 3.98,22.371 L 3.062,23 v -3.281 c 0,-2.74 2.159,-4.969 4.812,-4.969 l 8.507862,-5.97e-4 z"
   id="path10" />
<path
   style="fill:#231f20;stroke-width:0.431091"
   d="m 19.015941,18.890466 3e-6,3.44937 c 0,0.17416 -0.06381,0.295729 -0.205199,0.395743 l -0.847868,0.269862 -3e-6,-4.114975 h -3.783242 c -0.174161,0 -0.295729,-0.06381 -0.395743,-0.20563 l -0.310797,-0.843469 4.510034,0 -0.02026,-3.653907 c -9.66e-4,-0.174158 0.05792,-0.295729 0.341066,-0.355671 l 0.712001,-0.310365 0.02026,4.319943 H 22.2915 c 0.174161,4.3e-4 0.336233,0.175457 0.436676,0.317278 l 0.269433,0.731821 z"
   id="path63" /></svg>
