<?xml version="1.0" encoding="iso-8859-1"?>
<!-- Generator: Adobe Illustrator 16.0.0, SVG Export Plug-In . SVG Version: 6.00 Build 0)  -->
<!DOCTYPE svg PUBLIC "-//W3C//DTD SVG 1.1//EN" "http://www.w3.org/Graphics/SVG/1.1/DTD/svg11.dtd">
<svg version="1.1" id="Layer" xmlns="http://www.w3.org/2000/svg" xmlns:xlink="http://www.w3.org/1999/xlink" x="0px" y="0px"
	 width="16px" height="16px" viewBox="0 0 16 16" style="enable-background:new 0 0 16 16;" xml:space="preserve">
<path style="fill:#231F20;" d="M8,0C5.794,0,4,1.794,4,3.999C4,6.205,5.794,8,8,8s4-1.795,4-4.001C12,1.794,10.206,0,8,0z M8,7
	C6.343,7,5,5.657,5,3.999C5,2.343,6.343,1,8,1c1.656,0,3,1.343,3,2.999C11,5.657,9.656,7,8,7z M13.5,14.877l0-1.264
	C13.5,12.172,12.378,11,11,11H5c-1.378,0-2.5,1.172-2.5,2.613v1.332c-0.018,0.253-0.114,0.445-0.332,0.598L1.5,16v-2.387
	C1.5,11.621,3.07,10,5,10h6c1.93,0,3.5,1.621,3.5,3.613V16l-0.652-0.457C13.608,15.375,13.5,15.17,13.5,14.877z"/>
</svg>
