<?xml version="1.0" encoding="iso-8859-1"?>
<!-- Generator: Adobe Illustrator 16.0.0, SVG Export Plug-In . SVG Version: 6.00 Build 0)  -->
<!DOCTYPE svg PUBLIC "-//W3C//DTD SVG 1.1//EN" "http://www.w3.org/Graphics/SVG/1.1/DTD/svg11.dtd">
<svg version="1.1" id="Layer" xmlns="http://www.w3.org/2000/svg" xmlns:xlink="http://www.w3.org/1999/xlink" x="0px" y="0px"
	 width="24px" height="24px" viewBox="0 0 24 24" style="enable-background:new 0 0 24 24;" xml:space="preserve">
<path style="fill:#231F20;" d="M12,1C8.967,1,6.5,3.467,6.5,6.499C6.5,9.532,8.967,12,12,12s5.5-2.468,5.5-5.501
	C17.5,3.467,15.033,1,12,1z M12,10.625c-2.278,0-4.125-1.847-4.125-4.126c0-2.277,1.847-4.124,4.125-4.124
	c2.277,0,4.125,1.847,4.125,4.124C16.125,8.778,14.277,10.625,12,10.625z M19.563,21.456l0-1.737c0-1.982-1.542-3.594-3.438-3.594
	h-8.25c-1.896,0-3.438,1.611-3.438,3.594v1.831c-0.025,0.348-0.156,0.612-0.457,0.821L3.062,23v-3.281
	c0-2.74,2.159-4.969,4.812-4.969h8.25c2.653,0,4.812,2.229,4.812,4.969V23l-0.897-0.629C19.711,22.141,19.563,21.858,19.563,21.456z
	"/>
</svg>
