<?xml version="1.0" encoding="iso-8859-1"?>
<!-- Generator: Adobe Illustrator 16.0.0, SVG Export Plug-In . SVG Version: 6.00 Build 0)  -->
<!DOCTYPE svg PUBLIC "-//W3C//DTD SVG 1.1//EN" "http://www.w3.org/Graphics/SVG/1.1/DTD/svg11.dtd">
<svg version="1.1" id="Layer" xmlns="http://www.w3.org/2000/svg" xmlns:xlink="http://www.w3.org/1999/xlink" x="0px" y="0px"
	 width="16px" height="16px" viewBox="0 0 16 16" style="enable-background:new 0 0 16 16;" xml:space="preserve">
<path style="fill:#231F20;" d="M13,13.613V16l-0.652-0.457C12.108,15.375,12,15.17,12,14.877l0-1.264C12,12.172,10.878,11,9.5,11h-6
	C2.122,11,1,12.172,1,13.613v1.332c-0.018,0.253-0.114,0.445-0.332,0.598L0,16v-2.387C0,11.621,1.57,10,3.5,10h6
	C11.43,10,13,11.621,13,13.613z M2.5,3.999C2.5,1.794,4.294,0,6.5,0s4,1.794,4,3.999C10.5,6.205,8.706,8,6.5,8S2.5,6.205,2.5,3.999z
	 M3.5,3.999C3.5,5.657,4.843,7,6.5,7c1.656,0,3-1.343,3-3.001C9.5,2.343,8.156,1,6.5,1C4.843,1,3.5,2.343,3.5,3.999z M14.257,10.512
	c-0.29-0.162-0.51-0.279-0.658-0.309l0.069,0.807c0.019,0.221,0.109,0.381,0.255,0.509C14.529,11.996,15,12.747,15,13.613v1.379
	c0.028,0.227,0.118,0.408,0.322,0.551L16,16v-2.387C16,12.136,15.277,11.083,14.257,10.512z M10.773,0.236
	c-0.045-0.019-0.09-0.04-0.136-0.057l0.084,0.757c0.026,0.235,0.125,0.405,0.293,0.532c0.855,0.55,1.485,1.438,1.485,2.53
	c0,1.112-0.615,2.063-1.516,2.575c-0.139,0.117-0.235,0.263-0.267,0.471l-0.116,0.77c0.01-0.003,0.02-0.004,0.03-0.006l0,0.001
	c0.002-0.001,0.003-0.002,0.005-0.002c0.042-0.011,0.081-0.024,0.117-0.045C12.342,7.236,13.5,5.764,13.5,3.999
	C13.5,2.242,12.422,0.922,10.773,0.236z"/>
</svg>
