<?xml version="1.0" encoding="iso-8859-1"?>
<!-- Generator: Adobe Illustrator 16.0.0, SVG Export Plug-In . SVG Version: 6.00 Build 0)  -->
<!DOCTYPE svg PUBLIC "-//W3C//DTD SVG 1.1//EN" "http://www.w3.org/Graphics/SVG/1.1/DTD/svg11.dtd">
<svg version="1.1" id="Layer" xmlns="http://www.w3.org/2000/svg" xmlns:xlink="http://www.w3.org/1999/xlink" x="0px" y="0px"
	 width="24px" height="24px" viewBox="0 0 24 24" style="enable-background:new 0 0 24 24;" xml:space="preserve">
<path style="fill:#231F20;" d="M18.875,19.719V23l-0.897-0.629c-0.33-0.23-0.478-0.513-0.478-0.915l0-1.737
	c0-1.982-1.542-3.594-3.438-3.594h-8.25c-1.896,0-3.438,1.611-3.438,3.594v1.831c-0.025,0.348-0.156,0.612-0.457,0.821L1,23v-3.281
	c0-2.74,2.159-4.969,4.812-4.969h8.25C16.716,14.75,18.875,16.979,18.875,19.719z M4.438,6.499C4.438,3.467,6.905,1,9.938,1
	s5.5,2.467,5.5,5.499c0,3.033-2.467,5.501-5.5,5.501S4.438,9.532,4.438,6.499z M5.812,6.499c0,2.279,1.847,4.126,4.125,4.126
	c2.277,0,4.125-1.847,4.125-4.126c0-2.277-1.848-4.124-4.125-4.124C7.66,2.375,5.812,4.222,5.812,6.499z M20.604,15.453
	c-0.398-0.223-0.701-0.384-0.905-0.424l0.096,1.109c0.026,0.303,0.15,0.523,0.351,0.699c0.832,0.656,1.479,1.689,1.479,2.881v1.896
	c0.039,0.312,0.163,0.562,0.442,0.757L23,23v-3.281C23,17.687,22.006,16.239,20.604,15.453z M15.813,1.325
	C15.751,1.3,15.69,1.27,15.627,1.247l0.115,1.041c0.036,0.323,0.172,0.557,0.403,0.731c1.176,0.756,2.042,1.977,2.042,3.479
	c0,1.529-0.846,2.837-2.084,3.54c-0.191,0.162-0.323,0.361-0.367,0.647l-0.16,1.059c0.013-0.004,0.027-0.006,0.041-0.009
	l0.001,0.002c0.002-0.002,0.005-0.003,0.007-0.003c0.058-0.015,0.111-0.033,0.161-0.062c2.184-0.724,3.776-2.749,3.776-5.175
	C19.562,4.083,18.08,2.268,15.813,1.325z"/>
</svg>
