<?xml version="1.0" encoding="iso-8859-1"?>
<!-- Generator: Adobe Illustrator 16.0.0, SVG Export Plug-In . SVG Version: 6.00 Build 0)  -->
<!DOCTYPE svg PUBLIC "-//W3C//DTD SVG 1.1//EN" "http://www.w3.org/Graphics/SVG/1.1/DTD/svg11.dtd">
<svg version="1.1" id="Layer" xmlns="http://www.w3.org/2000/svg" xmlns:xlink="http://www.w3.org/1999/xlink" x="0px" y="0px"
	 width="24px" height="24px" viewBox="0 0 24 24" style="enable-background:new 0 0 24 24;" xml:space="preserve">
<path style="fill:#231F20;" d="M20.938,19.717V23l-0.898-0.627c-0.328-0.232-0.476-0.514-0.476-0.918l0-1.738
	c0-1.98-1.543-3.592-3.438-3.592h-2.75v5.33c-0.002,0.404-0.129,0.67-0.46,0.902L12,23l-0.915-0.643
	c-0.331-0.232-0.458-0.498-0.46-0.902v-5.33h-2.75c-1.894,0-3.438,1.611-3.438,3.592v1.83c-0.024,0.353-0.158,0.615-0.455,0.826
	L3.062,23v-3.283c0-2.736,2.159-4.967,4.812-4.967h8.25C18.778,14.75,20.938,16.98,20.938,19.717z M6.5,6.499
	C6.5,3.468,8.968,1,12,1s5.5,2.468,5.5,5.499C17.5,9.531,15.032,12,12,12S6.5,9.531,6.5,6.499z M7.875,6.499
	c0,2.279,1.847,4.126,4.125,4.126c2.277,0,4.125-1.847,4.125-4.126c0-2.277-1.848-4.124-4.125-4.124
	C9.722,2.375,7.875,4.222,7.875,6.499z"/>
</svg>
