<?xml version="1.0" encoding="iso-8859-1"?>
<!-- Generator: Adobe Illustrator 16.0.0, SVG Export Plug-In . SVG Version: 6.00 Build 0)  -->
<!DOCTYPE svg PUBLIC "-//W3C//DTD SVG 1.1//EN" "http://www.w3.org/Graphics/SVG/1.1/DTD/svg11.dtd">
<svg version="1.1" id="Layer" xmlns="http://www.w3.org/2000/svg" xmlns:xlink="http://www.w3.org/1999/xlink" x="0px" y="0px"
	 width="16px" height="16px" viewBox="0 0 16 16" style="enable-background:new 0 0 16 16;" xml:space="preserve">
<path style="fill:#231F20;" d="M14.5,13.613V16l-0.652-0.457c-0.24-0.168-0.347-0.373-0.347-0.666l0-1.264
	C13.5,12.172,12.378,11,11,11H9v3.877c-0.002,0.293-0.094,0.488-0.334,0.656L8,16l-0.666-0.467C7.094,15.365,7.002,15.17,7,14.877
	V11H5c-1.378,0-2.5,1.172-2.5,2.613v1.332c-0.018,0.253-0.114,0.445-0.332,0.598L1.5,16v-2.387C1.5,11.621,3.07,10,5,10h6
	C12.93,10,14.5,11.621,14.5,13.613z M4,3.999C4,1.794,5.794,0,8,0s4,1.794,4,3.999C12,6.205,10.206,8,8,8S4,6.205,4,3.999z M5,3.999
	C5,5.657,6.343,7,8,7c1.656,0,3-1.343,3-3.001C11,2.343,9.656,1,8,1C6.343,1,5,2.343,5,3.999z"/>
</svg>
