<?xml version="1.0" encoding="iso-8859-1"?>
<!-- Generator: Adobe Illustrator 16.0.0, SVG Export Plug-In . SVG Version: 6.00 Build 0)  -->
<!DOCTYPE svg PUBLIC "-//W3C//DTD SVG 1.1//EN" "http://www.w3.org/Graphics/SVG/1.1/DTD/svg11.dtd">
<svg version="1.1" id="Layer" xmlns="http://www.w3.org/2000/svg" xmlns:xlink="http://www.w3.org/1999/xlink" x="0px" y="0px"
	 width="24px" height="24px" viewBox="0 0 24 24" style="enable-background:new 0 0 24 24;" xml:space="preserve">
<path style="fill:#231F20;" d="M6.5,6.499C6.5,9.532,8.967,12,12,12s5.5-2.468,5.5-5.501c0-0.478-0.07-0.937-0.189-1.374h1.885
	l-0.642-0.916c-0.231-0.33-0.5-0.456-0.902-0.459h-0.839V2.375c0-0.76-0.616-1.375-1.375-1.375H8.562
	C7.803,1,7.188,1.615,7.188,2.375V3.75H6.348C5.945,3.753,5.677,3.879,5.446,4.209L4.804,5.125h1.885
	C6.57,5.562,6.5,6.021,6.5,6.499z M8.562,2.375h6.875V3.75H8.562V2.375z M8.127,5.125h7.746c0.157,0.43,0.252,0.889,0.252,1.374
	c0,2.279-1.848,4.126-4.125,4.126c-2.278,0-4.125-1.847-4.125-4.126C7.875,6.014,7.97,5.555,8.127,5.125z M20.938,19.719V23
	l-0.897-0.629c-0.33-0.23-0.478-0.513-0.478-0.915l0-1.737c0-1.982-1.542-3.594-3.438-3.594h-2.75v5.331
	c-0.003,0.402-0.129,0.671-0.459,0.902L12,23l-0.916-0.642c-0.33-0.231-0.456-0.5-0.459-0.902v-5.331h-2.75
	c-1.896,0-3.438,1.611-3.438,3.594v1.831c-0.025,0.348-0.156,0.612-0.457,0.821L3.062,23v-3.281c0-2.74,2.159-4.969,4.812-4.969
	h8.25C18.778,14.75,20.938,16.979,20.938,19.719z"/>
</svg>
