<?xml version="1.0" encoding="iso-8859-1"?>
<!-- Generator: Adobe Illustrator 16.0.0, SVG Export Plug-In . SVG Version: 6.00 Build 0)  -->
<!DOCTYPE svg PUBLIC "-//W3C//DTD SVG 1.1//EN" "http://www.w3.org/Graphics/SVG/1.1/DTD/svg11.dtd">
<svg version="1.1" id="Layer" xmlns="http://www.w3.org/2000/svg" xmlns:xlink="http://www.w3.org/1999/xlink" x="0px" y="0px"
	 width="16px" height="16px" viewBox="0 0 16 16" style="enable-background:new 0 0 16 16;" xml:space="preserve">
<path style="fill:#231F20;" d="M4,3.999C4,6.205,5.794,8,8,8s4-1.795,4-4.001C12,3.652,11.949,3.318,11.862,3h1.371l-0.467-0.666
	C12.599,2.094,12.403,2.002,12.11,2H11.5V1c0-0.553-0.448-1-1-1h-5c-0.552,0-1,0.447-1,1v1H3.89
	C3.597,2.002,3.401,2.094,3.233,2.334L2.767,3h1.371C4.051,3.318,4,3.652,4,3.999z M5.5,1h5v1h-5V1z M5.183,3h5.634
	C10.931,3.312,11,3.646,11,3.999C11,5.657,9.656,7,8,7C6.343,7,5,5.657,5,3.999C5,3.646,5.069,3.312,5.183,3z M14.5,13.613V16
	l-0.652-0.457c-0.24-0.168-0.347-0.373-0.347-0.666l0-1.264C13.5,12.172,12.378,11,11,11H9v3.877
	c-0.002,0.293-0.094,0.488-0.334,0.656L8,16l-0.666-0.467C7.094,15.365,7.002,15.17,7,14.877V11H5c-1.378,0-2.5,1.172-2.5,2.613
	v1.332c-0.018,0.253-0.114,0.445-0.332,0.598L1.5,16v-2.387C1.5,11.621,3.07,10,5,10h6C12.93,10,14.5,11.621,14.5,13.613z"/>
</svg>
