<?xml version="1.0" encoding="iso-8859-1"?>
<!-- Generator: Adobe Illustrator 16.0.0, SVG Export Plug-In . SVG Version: 6.00 Build 0)  -->
<!DOCTYPE svg PUBLIC "-//W3C//DTD SVG 1.1//EN" "http://www.w3.org/Graphics/SVG/1.1/DTD/svg11.dtd">
<svg version="1.1" id="Layer" xmlns="http://www.w3.org/2000/svg" xmlns:xlink="http://www.w3.org/1999/xlink" x="0px" y="0px"
	 width="16px" height="16px" viewBox="0 0 16 16" style="enable-background:new 0 0 16 16;" xml:space="preserve">
<path style="fill:#231F20;" d="M14.545,2.25H1.455C0.652,2.25,0,2.897,0,3.688v8.625c0,0.79,0.652,1.438,1.455,1.438h13.09
	c0.803,0,1.455-0.647,1.455-1.438V3.688C16,2.897,15.348,2.25,14.545,2.25z M15,12.312c0,0.237-0.208,0.438-0.455,0.438H1.455
	C1.208,12.75,1,12.55,1,12.312V3.688C1,3.45,1.208,3.25,1.455,3.25h13.09C14.792,3.25,15,3.45,15,3.688V12.312z M5.05,4.25
	C4.085,4.25,3.3,5.035,3.3,6s0.785,1.75,1.75,1.75S6.8,6.965,6.8,6S6.015,4.25,5.05,4.25z M5.05,6.75C4.636,6.75,4.3,6.414,4.3,6
	s0.336-0.75,0.75-0.75S5.8,5.586,5.8,6S5.464,6.75,5.05,6.75z M8,10.65v1.1l-0.652-0.457c-0.201-0.141-0.291-0.32-0.32-0.543H7
	c0-0.553-0.448-1-1-1H4c-0.552,0-1,0.447-1,1H2.985c-0.029,0.224-0.117,0.403-0.317,0.543L2,11.75l0.01-1.1
	C2.063,9.595,2.931,8.75,4,8.75h2c1.069,0,1.937,0.845,1.99,1.9H8z M9,11h3.877c0.293,0.002,0.488,0.094,0.656,0.334L14,12h-3.877
	c-0.293-0.001-0.488-0.093-0.656-0.333L9,11z M9,6.25h3.877c0.293,0.002,0.488,0.094,0.656,0.334L14,7.25h-3.877
	C9.83,7.249,9.635,7.157,9.467,6.917L9,6.25z M9,4.25h3.877c0.293,0.002,0.488,0.094,0.656,0.334L14,5.25h-3.877
	C9.83,5.249,9.635,5.157,9.467,4.917L9,4.25z"/>
</svg>
