<?xml version="1.0" encoding="iso-8859-1"?>
<!-- Generator: Adobe Illustrator 16.0.0, SVG Export Plug-In . SVG Version: 6.00 Build 0)  -->
<!DOCTYPE svg PUBLIC "-//W3C//DTD SVG 1.1//EN" "http://www.w3.org/Graphics/SVG/1.1/DTD/svg11.dtd">
<svg version="1.1" id="Layer" xmlns="http://www.w3.org/2000/svg" xmlns:xlink="http://www.w3.org/1999/xlink" x="0px" y="0px"
	 width="24px" height="24px" viewBox="0 0 24 24" style="enable-background:new 0 0 24 24;" xml:space="preserve">
<path style="fill:#231F20;" d="M21,4.094H3c-1.102,0-2,0.888-2,1.977V17.93c0,1.089,0.898,1.977,2,1.977h18c1.102,0,2-0.888,2-1.977
	V6.07C23,4.981,22.102,4.094,21,4.094z M21.625,17.93c0,0.325-0.288,0.602-0.625,0.602H3c-0.337,0-0.625-0.276-0.625-0.602V6.07
	c0-0.325,0.288-0.602,0.625-0.602h18c0.337,0,0.625,0.276,0.625,0.602V17.93z M7.942,6.844c-1.325,0-2.406,1.078-2.406,2.406
	s1.081,2.406,2.406,2.406c1.328,0,2.406-1.078,2.406-2.406S9.271,6.844,7.942,6.844z M7.942,10.281
	c-0.569,0-1.031-0.465-1.031-1.031s0.462-1.031,1.031-1.031S8.974,8.684,8.974,9.25S8.512,10.281,7.942,10.281z M12,15.646v1.51
	l-0.898-0.627c-0.274-0.193-0.399-0.443-0.438-0.748h-0.039c0-0.758-0.615-1.375-1.375-1.375H6.5c-0.76,0-1.375,0.617-1.375,1.375
	H5.104c-0.041,0.306-0.161,0.556-0.435,0.748l-0.92,0.627l0.013-1.51c0.074-1.454,1.267-2.615,2.737-2.615h2.75
	c1.47,0,2.663,1.161,2.737,2.615H12z M13.375,16.125h5.33c0.404,0.002,0.673,0.129,0.902,0.457L20.25,17.5h-5.33
	c-0.404-0.001-0.673-0.128-0.902-0.456L13.375,16.125z M13.375,9.594h5.33c0.404,0.002,0.673,0.129,0.902,0.457l0.643,0.918h-5.33
	c-0.404-0.001-0.673-0.128-0.902-0.456L13.375,9.594z M13.375,6.844h5.33c0.404,0.002,0.673,0.129,0.902,0.457l0.643,0.918h-5.33
	c-0.404-0.001-0.673-0.128-0.902-0.456L13.375,6.844z"/>
</svg>
