<?xml version="1.0" encoding="utf-8"?>
<!-- Generator: Adobe Illustrator 25.2.0, SVG Export Plug-In . SVG Version: 6.00 Build 0)  -->
<svg version="1.1" id="Layer" xmlns="http://www.w3.org/2000/svg" xmlns:xlink="http://www.w3.org/1999/xlink" x="0px" y="0px"
	 viewBox="0 0 24 24" enable-background="new 0 0 24 24" xml:space="preserve">
<g>
	<g>
		<path fill="#231F20" d="M11.8,9.1c-1.875,0-3.4,1.525-3.4,3.399c0,1.875,1.525,3.401,3.4,3.401s3.4-1.526,3.4-3.401
			C15.2,10.625,13.675,9.1,11.8,9.1z M11.8,14.5c-1.104,0-2-0.895-2-2c0-1.104,0.896-2,2-2c1.104,0,2,0.895,2,2
			C13.8,13.605,12.904,14.5,11.8,14.5z"/>
		<g>
			<g>
				<path fill="#231F20" d="M11.7,17.975h-0.087c-1.896,0-3.438,1.611-3.438,3.594V21.55c-0.025,0.348-0.156,0.612-0.457,0.821
					L6.8,23v-1.431c0-2.74,2.159-4.969,4.812-4.969H11.9"/>
			</g>
		</g>
	</g>
	<g>
		<g>
			<path fill="#231F20" d="M11.5,16.6h0.288c2.653,0,4.812,2.229,4.812,4.969V23l-0.918-0.629c-0.3-0.209-0.432-0.474-0.457-0.821
				v0.019c0-1.982-1.542-3.594-3.438-3.594H11.7"/>
		</g>
	</g>
</g>
<g>
	<path fill="#231F20" d="M6.55,0.9c-1.875,0-3.4,1.525-3.4,3.399c0,1.875,1.525,3.401,3.4,3.401s3.4-1.526,3.4-3.401
		C9.95,2.425,8.425,0.9,6.55,0.9z M6.55,6.3c-1.104,0-2-0.895-2-2c0-1.104,0.896-2,2-2c1.104,0,2,0.895,2,2
		C8.55,5.405,7.654,6.3,6.55,6.3z"/>
	<path fill="#231F20" d="M10.795,9.99C9.916,9.018,8.674,8.4,7.287,8.4H6.8H6.6H5.812C3.159,8.4,1,10.628,1,13.369v9.66L1.918,22.4
		c0.3-0.209,0.432-0.474,0.457-0.821v-8.21c0-1.982,1.542-3.594,3.438-3.594H6.6h0.688c0.922,0,1.755,0.386,2.373,1.005L10.795,9.99
		z"/>
</g>
<g>
	<path fill="#231F20" d="M14.05,4.271c0,1.875,1.525,3.401,3.4,3.401s3.4-1.526,3.4-3.401c0-1.874-1.525-3.399-3.4-3.399
		S14.05,2.396,14.05,4.271z M15.45,4.271c0-1.104,0.896-2,2-2c1.104,0,2,0.895,2,2c0,1.105-0.896,2-2,2
		C16.346,6.271,15.45,5.376,15.45,4.271z"/>
	<path fill="#231F20" d="M13.205,9.961c0.879-0.973,2.121-1.59,3.508-1.59H17.2h0.2h0.787c2.653,0,4.812,2.229,4.812,4.969V23
		l-0.918-0.629c-0.3-0.209-0.432-0.474-0.457-0.821v-8.21c0-1.982-1.542-3.594-3.438-3.594H17.4h-0.688
		c-0.922,0-1.755,0.386-2.373,1.005L13.205,9.961z"/>
</g>
</svg>
