<?xml version="1.0" encoding="iso-8859-1"?>
<!-- Generator: Adobe Illustrator 16.0.0, SVG Export Plug-In . SVG Version: 6.00 Build 0)  -->
<!DOCTYPE svg PUBLIC "-//W3C//DTD SVG 1.1//EN" "http://www.w3.org/Graphics/SVG/1.1/DTD/svg11.dtd">
<svg version="1.1" id="Layer_3" xmlns="http://www.w3.org/2000/svg" xmlns:xlink="http://www.w3.org/1999/xlink" x="0px" y="0px"
	 width="24px" height="24px" viewBox="0 0 24 24" style="enable-background:new 0 0 24 24;" xml:space="preserve">
<path style="fill:#231F20;" d="M23,12c0-5.875-4.935-10.656-11-10.656S1,6.125,1,12s4.935,10.656,11,10.656S23,17.875,23,12z
	 M2.375,12c0-5.119,4.318-9.281,9.625-9.281S21.625,6.881,21.625,12S17.307,21.281,12,21.281S2.375,17.119,2.375,12z M8.333,13.062
	c-0.115-0.081-0.182-0.176-0.254-0.269l-0.001,0.002c-0.097-0.142-0.164-0.294-0.188-0.477l-0.016-0.317l0.016-0.315
	c0.026-0.201,0.106-0.366,0.224-0.516c0.061-0.079,0.118-0.158,0.215-0.229l8.183-5.773v1.119c0,0.4-0.147,0.66-0.477,0.893
	L9.213,12l6.822,4.819c0.329,0.232,0.477,0.49,0.477,0.893v1.12L8.333,13.062z M5.125,15.893V9.648
	c0.001-0.402,0.129-0.671,0.459-0.902L6.5,8.105v6.243c-0.001,0.402-0.128,0.671-0.458,0.902L5.125,15.893z"/>
</svg>
