<?xml version="1.0" encoding="iso-8859-1"?>
<!-- Generator: Adobe Illustrator 16.0.0, SVG Export Plug-In . SVG Version: 6.00 Build 0)  -->
<!DOCTYPE svg PUBLIC "-//W3C//DTD SVG 1.1//EN" "http://www.w3.org/Graphics/SVG/1.1/DTD/svg11.dtd">
<svg version="1.1" id="Layer_3" xmlns="http://www.w3.org/2000/svg" xmlns:xlink="http://www.w3.org/1999/xlink" x="0px" y="0px"
	 width="24px" height="24px" viewBox="0 0 24 24" style="enable-background:new 0 0 24 24;" xml:space="preserve">
<path style="fill:#231F20;" d="M12,1.344C5.934,1.344,1,6.128,1,12s4.934,10.656,11,10.656S23,17.872,23,12S18.066,1.344,12,1.344z
	 M12,21.281c-5.307,0-9.625-4.164-9.625-9.281S6.693,2.719,12,2.719c5.308,0,9.625,4.164,9.625,9.281S17.307,21.281,12,21.281z
	 M7.453,13.06c-0.116-0.077-0.182-0.175-0.255-0.266l-0.001,0.001c-0.097-0.144-0.163-0.296-0.186-0.476l-0.018-0.318l0.018-0.317
	c0.024-0.199,0.104-0.366,0.221-0.516c0.062-0.075,0.118-0.156,0.215-0.225l0.902-0.635v-0.002l7.281-5.139v1.118
	c0,0.403-0.148,0.662-0.476,0.896L8.33,12l6.825,4.817c0.327,0.233,0.476,0.491,0.476,0.896v1.119L7.453,13.06z"/>
</svg>
