<?xml version="1.0" encoding="utf-8"?>
<!-- Generator: Adobe Illustrator 16.0.0, SVG Export Plug-In . SVG Version: 6.00 Build 0)  -->
<!DOCTYPE svg PUBLIC "-//W3C//DTD SVG 1.1//EN" "http://www.w3.org/Graphics/SVG/1.1/DTD/svg11.dtd">
<svg version="1.1" id="Layer_3" xmlns="http://www.w3.org/2000/svg" xmlns:xlink="http://www.w3.org/1999/xlink" x="0px" y="0px"
	 width="16px" height="16px" viewBox="0 0 16 16" enable-background="new 0 0 16 16" xml:space="preserve">
<path fill="#231F20" d="M8,15.75c4.411,0,8-3.478,8-7.75s-3.589-7.75-8-7.75S0,3.728,0,8S3.589,15.75,8,15.75z M8,1.25
	c3.86,0,7,3.027,7,6.75s-3.14,6.75-7,6.75S1,11.723,1,8S4.14,1.25,8,1.25z M11.308,7.228c0.084,0.06,0.132,0.128,0.185,0.195
	l0.001-0.001c0.07,0.103,0.119,0.214,0.136,0.347l0.012,0.23l-0.012,0.229c-0.019,0.146-0.077,0.267-0.162,0.375
	c-0.044,0.058-0.086,0.115-0.156,0.166l-0.656,0.459V9.23l-5.295,3.738v-0.813c0-0.292,0.107-0.48,0.347-0.649L10.668,8L5.706,4.495
	C5.467,4.326,5.359,4.139,5.359,3.846V3.031L11.308,7.228z"/>
</svg>
