<?xml version="1.0" encoding="iso-8859-1"?>
<!-- Generator: Adobe Illustrator 16.0.0, SVG Export Plug-In . SVG Version: 6.00 Build 0)  -->
<!DOCTYPE svg PUBLIC "-//W3C//DTD SVG 1.1//EN" "http://www.w3.org/Graphics/SVG/1.1/DTD/svg11.dtd">
<svg version="1.1" id="Layer_3" xmlns="http://www.w3.org/2000/svg" xmlns:xlink="http://www.w3.org/1999/xlink" x="0px" y="0px"
	 width="16px" height="16px" viewBox="0 0 16 16" style="enable-background:new 0 0 16 16;" xml:space="preserve">
<g>
	<path style="fill:#231F20;" d="M8,15.75c4.411,0,8-3.478,8-7.75s-3.589-7.75-8-7.75S0,3.728,0,8S3.589,15.75,8,15.75z M8,1.25
		c3.86,0,7,3.027,7,6.75s-3.14,6.75-7,6.75S1,11.723,1,8S4.14,1.25,8,1.25z"/>
	<path style="fill:#231F20;" d="M5.359,3.031v0.814c0,0.293,0.107,0.48,0.347,0.649L10.668,8l-4.962,3.506
		c-0.239,0.169-0.347,0.357-0.347,0.649v0.813l5.295-3.738V9.229l0.656-0.459c0.07-0.051,0.112-0.108,0.156-0.166
		c0.085-0.108,0.144-0.229,0.162-0.375l0.012-0.229l-0.012-0.23c-0.017-0.133-0.065-0.244-0.136-0.347l-0.001,0.001
		c-0.053-0.067-0.101-0.136-0.185-0.195L5.359,3.031z"/>
</g>
</svg>
