<?xml version="1.0" encoding="iso-8859-1"?>
<!-- Generator: Adobe Illustrator 16.0.0, SVG Export Plug-In . SVG Version: 6.00 Build 0)  -->
<!DOCTYPE svg PUBLIC "-//W3C//DTD SVG 1.1//EN" "http://www.w3.org/Graphics/SVG/1.1/DTD/svg11.dtd">
<svg version="1.1" id="Layer_3" xmlns="http://www.w3.org/2000/svg" xmlns:xlink="http://www.w3.org/1999/xlink" x="0px" y="0px"
	 width="16px" height="16px" viewBox="0 0 16 16" style="enable-background:new 0 0 16 16;" xml:space="preserve">
<path style="fill:#231F20;" d="M8,15.75c4.411,0,8-3.478,8-7.75s-3.589-7.75-8-7.75S0,3.728,0,8S3.589,15.75,8,15.75z M8,1.25
	c3.86,0,7,3.027,7,6.75s-3.14,6.75-7,6.75S1,11.723,1,8S4.14,1.25,8,1.25z M10.667,7.228c0.084,0.06,0.132,0.128,0.185,0.195
	l0.001-0.001c0.07,0.103,0.119,0.214,0.136,0.347L11,7.999l-0.012,0.229c-0.019,0.146-0.077,0.267-0.162,0.375
	C10.782,8.661,10.74,8.719,10.67,8.77l-0.656,0.459V9.23l-5.295,3.738v-0.813c0-0.292,0.107-0.48,0.347-0.649L10.027,8L5.065,4.495
	C4.826,4.326,4.719,4.139,4.719,3.846V3.031L10.667,7.228z M13,5.169V9.71c-0.001,0.293-0.094,0.488-0.333,0.656L12,10.832v-4.54
	c0.001-0.293,0.093-0.488,0.333-0.656L13,5.169z"/>
</svg>
