<?xml version="1.0" encoding="iso-8859-1"?>
<!-- Generator: Adobe Illustrator 16.0.0, SVG Export Plug-In . SVG Version: 6.00 Build 0)  -->
<!DOCTYPE svg PUBLIC "-//W3C//DTD SVG 1.1//EN" "http://www.w3.org/Graphics/SVG/1.1/DTD/svg11.dtd">
<svg version="1.1" id="Layer_3" xmlns="http://www.w3.org/2000/svg" xmlns:xlink="http://www.w3.org/1999/xlink" x="0px" y="0px"
	 width="24px" height="24px" viewBox="0 0 24 24" style="enable-background:new 0 0 24 24;" xml:space="preserve">
<path style="fill:#231F20;" d="M1,12c0,5.875,4.935,10.656,11,10.656S23,17.875,23,12S18.065,1.344,12,1.344S1,6.125,1,12z
	 M21.625,12c0,5.119-4.318,9.281-9.625,9.281S2.375,17.119,2.375,12S6.693,2.719,12,2.719S21.625,6.881,21.625,12z M15.667,10.938
	c0.115,0.081,0.182,0.176,0.254,0.269l0.001-0.002c0.097,0.142,0.164,0.294,0.188,0.477l0.016,0.317l-0.016,0.315
	c-0.026,0.201-0.106,0.366-0.224,0.516c-0.061,0.079-0.118,0.158-0.215,0.229l-8.183,5.773v-1.119c0-0.4,0.147-0.66,0.477-0.893
	L14.787,12L7.965,7.181C7.636,6.948,7.488,6.69,7.488,6.288v-1.12L15.667,10.938z M18.875,8.107v6.244
	c-0.001,0.402-0.129,0.671-0.459,0.902L17.5,15.895V9.651c0.001-0.402,0.128-0.671,0.458-0.902L18.875,8.107z"/>
</svg>
