<?xml version="1.0" encoding="iso-8859-1"?>
<!-- Generator: Adobe Illustrator 16.0.0, SVG Export Plug-In . SVG Version: 6.00 Build 0)  -->
<!DOCTYPE svg PUBLIC "-//W3C//DTD SVG 1.1//EN" "http://www.w3.org/Graphics/SVG/1.1/DTD/svg11.dtd">
<svg version="1.1" id="Layer_3" xmlns="http://www.w3.org/2000/svg" xmlns:xlink="http://www.w3.org/1999/xlink" x="0px" y="0px"
	 width="16px" height="16px" viewBox="0 0 16 16" style="enable-background:new 0 0 16 16;" xml:space="preserve">
<path style="fill:#231F20;" d="M8,0.25C3.589,0.25,0,3.728,0,8s3.589,7.75,8,7.75s8-3.478,8-7.75S12.411,0.25,8,0.25z M8,14.75
	c-3.859,0-7-3.027-7-6.75s3.141-6.75,7-6.75c3.86,0,7,3.027,7,6.75S11.859,14.75,8,14.75z M7.228,4.692
	c0.06-0.084,0.128-0.132,0.195-0.185L7.422,4.507c0.103-0.07,0.214-0.119,0.347-0.136l0.23-0.012l0.229,0.012
	C8.375,4.39,8.495,4.448,8.604,4.533C8.661,4.577,8.719,4.619,8.77,4.689l0.459,0.656H9.23l3.738,5.295h-0.813
	c-0.292,0-0.48-0.107-0.649-0.347L8,5.332l-3.505,4.962c-0.169,0.239-0.356,0.347-0.649,0.347H3.031L7.228,4.692z"/>
</svg>
