<?xml version="1.0" encoding="iso-8859-1"?>
<!-- Generator: Adobe Illustrator 16.0.0, SVG Export Plug-In . SVG Version: 6.00 Build 0)  -->
<!DOCTYPE svg PUBLIC "-//W3C//DTD SVG 1.1//EN" "http://www.w3.org/Graphics/SVG/1.1/DTD/svg11.dtd">
<svg version="1.1" id="Layer_3" xmlns="http://www.w3.org/2000/svg" xmlns:xlink="http://www.w3.org/1999/xlink" x="0px" y="0px"
	 width="24px" height="24px" viewBox="0 0 24 24" style="enable-background:new 0 0 24 24;" xml:space="preserve">
<path style="fill:#231F20;" d="M12,22.656c6.066,0,11-4.784,11-10.656S18.066,1.344,12,1.344S1,6.128,1,12S5.934,22.656,12,22.656z
	 M12,2.719c5.307,0,9.625,4.164,9.625,9.281S17.307,21.281,12,21.281c-5.308,0-9.625-4.164-9.625-9.281S6.693,2.719,12,2.719z
	 M10.94,8.141c0.077-0.116,0.175-0.182,0.266-0.255l-0.001-0.001c0.144-0.097,0.296-0.163,0.476-0.186l0.318-0.018l0.317,0.018
	c0.199,0.024,0.366,0.104,0.516,0.221c0.075,0.062,0.156,0.118,0.225,0.215l0.635,0.902h0.002l5.139,7.281h-1.118
	c-0.403,0-0.662-0.148-0.896-0.476L12,9.018l-4.817,6.825c-0.233,0.327-0.491,0.476-0.896,0.476H5.168L10.94,8.141z"/>
</svg>
