<?xml version="1.0" encoding="iso-8859-1"?>
<!-- Generator: Adobe Illustrator 16.0.0, SVG Export Plug-In . SVG Version: 6.00 Build 0)  -->
<!DOCTYPE svg PUBLIC "-//W3C//DTD SVG 1.1//EN" "http://www.w3.org/Graphics/SVG/1.1/DTD/svg11.dtd">
<svg version="1.1" id="Layer_3" xmlns="http://www.w3.org/2000/svg" xmlns:xlink="http://www.w3.org/1999/xlink" x="0px" y="0px"
	 width="24px" height="24px" viewBox="0 0 24 24" style="enable-background:new 0 0 24 24;" xml:space="preserve">
<path style="fill:#231F20;" d="M12,22.656c6.065,0,11-4.781,11-10.656S18.065,1.344,12,1.344S1,6.125,1,12S5.935,22.656,12,22.656z
	 M12,2.719c5.307,0,9.625,4.162,9.625,9.281S17.307,21.281,12,21.281S2.375,17.119,2.375,12S6.693,2.719,12,2.719z M10.938,8.333
	c0.082-0.115,0.176-0.182,0.269-0.254l-0.001-0.001c0.141-0.097,0.294-0.164,0.477-0.188l0.317-0.016l0.316,0.016
	c0.201,0.026,0.366,0.106,0.516,0.224c0.079,0.061,0.158,0.118,0.228,0.215l5.774,8.183h-1.119c-0.401,0-0.661-0.147-0.893-0.477
	L12,9.213l-4.819,6.822c-0.232,0.329-0.49,0.477-0.893,0.477h-1.12L10.938,8.333z M8.107,5.125h6.244
	c0.403,0.001,0.671,0.129,0.902,0.459L15.894,6.5H9.651C9.249,6.499,8.98,6.372,8.749,6.042L8.107,5.125z"/>
</svg>
