<?xml version="1.0" encoding="iso-8859-1"?>
<!-- Generator: Adobe Illustrator 16.0.0, SVG Export Plug-In . SVG Version: 6.00 Build 0)  -->
<!DOCTYPE svg PUBLIC "-//W3C//DTD SVG 1.1//EN" "http://www.w3.org/Graphics/SVG/1.1/DTD/svg11.dtd">
<svg version="1.1" id="Layer_3" xmlns="http://www.w3.org/2000/svg" xmlns:xlink="http://www.w3.org/1999/xlink" x="0px" y="0px"
	 width="16px" height="16px" viewBox="0 0 16 16" style="enable-background:new 0 0 16 16;" xml:space="preserve">
<path style="fill:#231F20;" d="M8,15.75c4.411,0,8-3.478,8-7.75s-3.589-7.75-8-7.75S0,3.728,0,8S3.589,15.75,8,15.75z M8,1.25
	c3.859,0,7,3.027,7,6.75s-3.141,6.75-7,6.75S1,11.723,1,8S4.141,1.25,8,1.25z M7.228,5.333c0.06-0.084,0.128-0.132,0.195-0.185
	L7.422,5.147c0.103-0.07,0.214-0.119,0.347-0.136L7.999,5l0.229,0.012C8.375,5.03,8.495,5.089,8.604,5.174
	C8.661,5.218,8.719,5.26,8.77,5.33l0.459,0.656H9.23l3.738,5.295h-0.813c-0.292,0-0.48-0.107-0.649-0.347L8,5.973l-3.505,4.962
	c-0.169,0.239-0.356,0.347-0.649,0.347H3.031L7.228,5.333z M5.169,3H9.71c0.293,0.001,0.488,0.094,0.656,0.334L10.832,4h-4.54
	C5.999,3.999,5.804,3.907,5.636,3.667L5.169,3z"/>
</svg>
