<?xml version="1.0" encoding="iso-8859-1"?>
<!-- Generator: Adobe Illustrator 16.0.0, SVG Export Plug-In . SVG Version: 6.00 Build 0)  -->
<!DOCTYPE svg PUBLIC "-//W3C//DTD SVG 1.1//EN" "http://www.w3.org/Graphics/SVG/1.1/DTD/svg11.dtd">
<svg version="1.1" id="Layer_3" xmlns="http://www.w3.org/2000/svg" xmlns:xlink="http://www.w3.org/1999/xlink" x="0px" y="0px"
	 width="24px" height="24px" viewBox="0 0 24 24" style="enable-background:new 0 0 24 24;" xml:space="preserve">
<path style="fill:#231F20;" d="M12,22.656c6.066,0,11-4.784,11-10.656S18.066,1.344,12,1.344S1,6.128,1,12S5.934,22.656,12,22.656z
	 M12,2.719c5.307,0,9.625,4.164,9.625,9.281S17.307,21.281,12,21.281c-5.308,0-9.625-4.164-9.625-9.281S6.693,2.719,12,2.719z
	 M13.06,15.859c-0.077,0.116-0.175,0.182-0.266,0.255l0.001,0.001c-0.144,0.097-0.296,0.163-0.476,0.186l-0.318,0.018l-0.317-0.018
	c-0.199-0.024-0.366-0.104-0.516-0.221c-0.075-0.062-0.156-0.118-0.225-0.215l-0.635-0.902h-0.002L5.168,7.682h1.118
	c0.403,0,0.662,0.148,0.896,0.476L12,14.982l4.817-6.825c0.233-0.327,0.491-0.476,0.896-0.476h1.119L13.06,15.859z"/>
</svg>
