<?xml version="1.0" encoding="iso-8859-1"?>
<!-- Generator: Adobe Illustrator 16.0.0, SVG Export Plug-In . SVG Version: 6.00 Build 0)  -->
<!DOCTYPE svg PUBLIC "-//W3C//DTD SVG 1.1//EN" "http://www.w3.org/Graphics/SVG/1.1/DTD/svg11.dtd">
<svg version="1.1" id="Layer_3" xmlns="http://www.w3.org/2000/svg" xmlns:xlink="http://www.w3.org/1999/xlink" x="0px" y="0px"
	 width="16px" height="16px" viewBox="0 0 16 16" style="enable-background:new 0 0 16 16;" xml:space="preserve">
<path style="fill:#231F20;" d="M8,0.25C3.589,0.25,0,3.728,0,8s3.589,7.75,8,7.75s8-3.478,8-7.75S12.411,0.25,8,0.25z M8,14.75
	c-3.859,0-7-3.027-7-6.75s3.141-6.75,7-6.75S15,4.277,15,8S11.859,14.75,8,14.75z M8.772,10.667
	c-0.06,0.084-0.128,0.132-0.195,0.185l0.001,0.001c-0.103,0.07-0.214,0.119-0.347,0.136L8.001,11l-0.229-0.012
	c-0.146-0.019-0.267-0.077-0.375-0.162C7.339,10.782,7.281,10.74,7.23,10.67l-0.459-0.656H6.77L3.031,4.719h0.813
	c0.292,0,0.48,0.107,0.649,0.347L8,10.027l3.505-4.962c0.169-0.239,0.356-0.347,0.649-0.347h0.814L8.772,10.667z M10.831,13H6.29
	c-0.293-0.001-0.488-0.094-0.656-0.334L5.168,12h4.54c0.293,0.001,0.488,0.093,0.656,0.333L10.831,13z"/>
</svg>
