<?xml version="1.0" encoding="iso-8859-1"?>
<!-- Generator: Adobe Illustrator 16.0.0, SVG Export Plug-In . SVG Version: 6.00 Build 0)  -->
<!DOCTYPE svg PUBLIC "-//W3C//DTD SVG 1.1//EN" "http://www.w3.org/Graphics/SVG/1.1/DTD/svg11.dtd">
<svg version="1.1" id="Layer_3" xmlns="http://www.w3.org/2000/svg" xmlns:xlink="http://www.w3.org/1999/xlink" x="0px" y="0px"
	 width="24px" height="24px" viewBox="0 0 24 24" style="enable-background:new 0 0 24 24;" xml:space="preserve">
<path style="fill:#231F20;" d="M12,1.344C5.935,1.344,1,6.125,1,12s4.935,10.656,11,10.656S23,17.875,23,12S18.065,1.344,12,1.344z
	 M12,21.281c-5.307,0-9.625-4.162-9.625-9.281S6.693,2.719,12,2.719S21.625,6.881,21.625,12S17.307,21.281,12,21.281z
	 M13.062,15.667c-0.082,0.115-0.176,0.182-0.269,0.254l0.001,0.001c-0.141,0.097-0.294,0.164-0.477,0.188l-0.317,0.016l-0.316-0.016
	c-0.201-0.026-0.366-0.106-0.516-0.224c-0.079-0.061-0.158-0.118-0.228-0.215L5.168,7.488h1.119c0.401,0,0.661,0.147,0.893,0.477
	L12,14.787l4.819-6.822c0.232-0.329,0.49-0.477,0.893-0.477h1.12L13.062,15.667z M15.893,18.875H9.649
	c-0.403-0.001-0.671-0.129-0.902-0.459L8.106,17.5h6.243c0.403,0.001,0.671,0.128,0.902,0.458L15.893,18.875z"/>
</svg>
