<?xml version="1.0" encoding="iso-8859-1"?>
<!-- Generator: Adobe Illustrator 16.0.0, SVG Export Plug-In . SVG Version: 6.00 Build 0)  -->
<!DOCTYPE svg PUBLIC "-//W3C//DTD SVG 1.1//EN" "http://www.w3.org/Graphics/SVG/1.1/DTD/svg11.dtd">
<svg version="1.1" id="Layer_2" xmlns="http://www.w3.org/2000/svg" xmlns:xlink="http://www.w3.org/1999/xlink" x="0px" y="0px"
	 width="24px" height="24px" viewBox="0 0 24 24" style="enable-background:new 0 0 24 24;" xml:space="preserve">
<path style="fill:#231F20;" d="M23,13.375l-0.018,0.309c-0.024,0.205-0.104,0.373-0.221,0.516c-0.062,0.082-0.118,0.162-0.215,0.23
	L12,21.883v-1.119c0-0.402,0.148-0.662,0.476-0.895l7.239-5.119H2.545c-0.404-0.001-0.673-0.128-0.902-0.456L1,13.375H23z
	 M23,10.625l-0.643-0.919c-0.229-0.328-0.498-0.455-0.902-0.456H4.285l7.239-5.119C11.852,3.898,12,3.639,12,3.236V2.117L1.453,9.57
	C1.356,9.639,1.3,9.719,1.238,9.801c-0.117,0.143-0.196,0.311-0.221,0.516L1,10.625H23z"/>
</svg>
