<?xml version="1.0" encoding="utf-8"?>
<!-- Generator: Adobe Illustrator 16.0.0, SVG Export Plug-In . SVG Version: 6.00 Build 0)  -->
<!DOCTYPE svg PUBLIC "-//W3C//DTD SVG 1.1//EN" "http://www.w3.org/Graphics/SVG/1.1/DTD/svg11.dtd">
<svg version="1.1" id="Layer_2" xmlns="http://www.w3.org/2000/svg" xmlns:xlink="http://www.w3.org/1999/xlink" x="0px" y="0px"
	 width="16px" height="16px" viewBox="0 0 16 16" enable-background="new 0 0 16 16" xml:space="preserve">
<path fill="#231F20" d="M16,9l-0.012,0.227c-0.019,0.146-0.077,0.268-0.162,0.375C15.782,9.66,15.74,9.717,15.67,9.768L8,15.188
	v-0.814c0-0.291,0.107-0.48,0.347-0.648L13.611,10H1.123C0.83,9.999,0.635,9.907,0.467,9.667L0,9H16z M16,7l-0.467-0.667
	C15.365,6.093,15.17,6.001,14.877,6H2.389l5.265-3.725C7.893,2.107,8,1.918,8,1.627V0.812l-7.67,5.42
	C0.26,6.283,0.218,6.34,0.174,6.398C0.089,6.506,0.03,6.627,0.012,6.773L0,7H16z"/>
</svg>
