<?xml version="1.0" encoding="iso-8859-1"?>
<!-- Generator: Adobe Illustrator 16.0.0, SVG Export Plug-In . SVG Version: 6.00 Build 0)  -->
<!DOCTYPE svg PUBLIC "-//W3C//DTD SVG 1.1//EN" "http://www.w3.org/Graphics/SVG/1.1/DTD/svg11.dtd">
<svg version="1.1" id="Layer_4" xmlns="http://www.w3.org/2000/svg" xmlns:xlink="http://www.w3.org/1999/xlink" x="0px" y="0px"
	 width="16px" height="16px" viewBox="0 0 16 16" style="enable-background:new 0 0 16 16;" xml:space="preserve">
<path style="fill:#231F20;" d="M4.771,8.772c-0.084-0.06-0.132-0.128-0.185-0.195L4.585,8.578c-0.07-0.103-0.119-0.214-0.136-0.347
	l-0.012-0.23l0.012-0.229c0.019-0.146,0.077-0.267,0.162-0.375C4.655,7.339,4.697,7.281,4.768,7.23l0.656-0.459V6.77L15,0v0.813
	c0,0.292-0.107,0.48-0.347,0.649L5.41,8l9.243,6.536C14.893,14.705,15,14.893,15,15.186V16L4.771,8.772z M2,7C1.447,7,1,7.447,1,8
	s0.447,1,1,1s1-0.447,1-1S2.553,7,2,7z"/>
</svg>
