<?xml version="1.0" encoding="iso-8859-1"?>
<!-- Generator: Adobe Illustrator 16.0.0, SVG Export Plug-In . SVG Version: 6.00 Build 0)  -->
<!DOCTYPE svg PUBLIC "-//W3C//DTD SVG 1.1//EN" "http://www.w3.org/Graphics/SVG/1.1/DTD/svg11.dtd">
<svg version="1.1" id="Layer_4" xmlns="http://www.w3.org/2000/svg" xmlns:xlink="http://www.w3.org/1999/xlink" x="0px" y="0px"
	 width="24px" height="24px" viewBox="0 0 24 24" style="enable-background:new 0 0 24 24;" xml:space="preserve">
<path style="fill:#231F20;" d="M7.561,13.06c-0.116-0.077-0.182-0.175-0.255-0.266l-0.001,0.001
	c-0.097-0.144-0.163-0.296-0.186-0.476l-0.018-0.318l0.018-0.317c0.024-0.199,0.104-0.366,0.221-0.516
	c0.062-0.075,0.118-0.156,0.215-0.225l0.902-0.635v-0.002L21.625,1v1.118c0,0.403-0.148,0.662-0.476,0.896L8.438,12l12.712,8.985
	c0.327,0.233,0.476,0.491,0.476,0.896V23L7.561,13.06z M3,15.893V9.648c0.001-0.402,0.129-0.671,0.459-0.902l0.916-0.641v6.243
	c-0.001,0.402-0.128,0.671-0.458,0.902L3,15.893z"/>
</svg>
