<?xml version="1.0" encoding="iso-8859-1"?>
<!-- Generator: Adobe Illustrator 16.0.0, SVG Export Plug-In . SVG Version: 6.00 Build 0)  -->
<!DOCTYPE svg PUBLIC "-//W3C//DTD SVG 1.1//EN" "http://www.w3.org/Graphics/SVG/1.1/DTD/svg11.dtd">
<svg version="1.1" id="Layer_3" xmlns="http://www.w3.org/2000/svg" xmlns:xlink="http://www.w3.org/1999/xlink" x="0px" y="0px"
	 width="24px" height="24px" viewBox="0 0 24 24" style="enable-background:new 0 0 24 24;" xml:space="preserve">
<path style="fill:#231F20;" d="M19.262,23v-1.119c0-0.404-0.148-0.662-0.476-0.896L6.074,12l12.712-8.986
	c0.327-0.233,0.476-0.492,0.476-0.896V1L6.094,10.307v0.002l-0.902,0.635c-0.097,0.068-0.153,0.149-0.215,0.225
	c-0.117,0.149-0.196,0.316-0.221,0.516l-0.018,0.317l0.018,0.318c0.022,0.18,0.089,0.332,0.186,0.476l0.001-0.001
	c0.073,0.091,0.139,0.188,0.255,0.266L19.262,23z"/>
</svg>
