<?xml version="1.0" encoding="iso-8859-1"?>
<!-- Generator: Adobe Illustrator 16.0.0, SVG Export Plug-In . SVG Version: 6.00 Build 0)  -->
<!DOCTYPE svg PUBLIC "-//W3C//DTD SVG 1.1//EN" "http://www.w3.org/Graphics/SVG/1.1/DTD/svg11.dtd">
<svg version="1.1" id="Layer_3" xmlns="http://www.w3.org/2000/svg" xmlns:xlink="http://www.w3.org/1999/xlink" x="0px" y="0px"
	 width="16px" height="16px" viewBox="0 0 16 16" style="enable-background:new 0 0 16 16;" xml:space="preserve">
<path style="fill:#231F20;" d="M13.281,16v-0.814c0-0.293-0.107-0.48-0.347-0.649L3.691,8l9.243-6.537
	c0.239-0.169,0.347-0.357,0.347-0.649V0L3.705,6.77v0.002L3.049,7.23c-0.07,0.051-0.112,0.108-0.156,0.166
	C2.808,7.505,2.749,7.625,2.73,7.771L2.719,8.001l0.012,0.23c0.017,0.133,0.065,0.244,0.136,0.347l0.001-0.001
	C2.92,8.645,2.968,8.713,3.052,8.772L13.281,16z"/>
</svg>
