<?xml version="1.0" encoding="iso-8859-1"?>
<!-- Generator: Adobe Illustrator 16.0.0, SVG Export Plug-In . SVG Version: 6.00 Build 0)  -->
<!DOCTYPE svg PUBLIC "-//W3C//DTD SVG 1.1//EN" "http://www.w3.org/Graphics/SVG/1.1/DTD/svg11.dtd">
<svg version="1.1" id="Layer_2" xmlns="http://www.w3.org/2000/svg" xmlns:xlink="http://www.w3.org/1999/xlink" x="0px" y="0px"
	 width="16px" height="16px" viewBox="0 0 16 16" style="enable-background:new 0 0 16 16;" xml:space="preserve">
<path style="fill:#231F20;" d="M1,0v0.814c0,0.293,0.107,0.48,0.347,0.649L10.59,8l-9.243,6.537C1.107,14.706,1,14.895,1,15.187V16
	l9.576-6.77V9.229l0.656-0.459c0.07-0.051,0.112-0.108,0.156-0.166c0.085-0.108,0.144-0.229,0.162-0.375l0.012-0.229l-0.012-0.23
	c-0.017-0.133-0.065-0.244-0.136-0.347l-0.001,0.001c-0.053-0.067-0.101-0.136-0.185-0.195L1,0z"/>
<circle style="fill:#231F20;" cx="14" cy="8" r="1"/>
</svg>
