<?xml version="1.0" encoding="utf-8"?>
<!-- Generator: Adobe Illustrator 16.0.0, SVG Export Plug-In . SVG Version: 6.00 Build 0)  -->
<!DOCTYPE svg PUBLIC "-//W3C//DTD SVG 1.1//EN" "http://www.w3.org/Graphics/SVG/1.1/DTD/svg11.dtd">
<svg version="1.1" id="Layer_4" xmlns="http://www.w3.org/2000/svg" xmlns:xlink="http://www.w3.org/1999/xlink" x="0px" y="0px"
	 width="24px" height="24px" viewBox="0 0 24 24" enable-background="new 0 0 24 24" xml:space="preserve">
<path fill="#231F20" d="M16.752,10.94c0.116,0.077,0.182,0.175,0.255,0.266l0.001-0.001c0.097,0.144,0.163,0.296,0.186,0.476
	l0.018,0.318l-0.018,0.317c-0.024,0.199-0.104,0.366-0.221,0.516c-0.062,0.075-0.118,0.156-0.215,0.225l-0.902,0.635v0.002L2.688,23
	v-1.118c0-0.403,0.148-0.662,0.476-0.896L15.875,12L3.163,3.015C2.836,2.781,2.688,2.523,2.688,2.119V1L16.752,10.94z M21.312,8.107
	v6.244c-0.001,0.402-0.129,0.671-0.459,0.902l-0.916,0.641V9.651c0.001-0.402,0.128-0.671,0.458-0.902L21.312,8.107z"/>
</svg>
