<?xml version="1.0" encoding="utf-8"?>
<!-- Generator: Adobe Illustrator 16.0.0, SVG Export Plug-In . SVG Version: 6.00 Build 0)  -->
<!DOCTYPE svg PUBLIC "-//W3C//DTD SVG 1.1//EN" "http://www.w3.org/Graphics/SVG/1.1/DTD/svg11.dtd">
<svg version="1.1" id="Layer_2" xmlns="http://www.w3.org/2000/svg" xmlns:xlink="http://www.w3.org/1999/xlink" x="0px" y="0px"
	 width="16px" height="16px" viewBox="0 0 16 16" enable-background="new 0 0 16 16" xml:space="preserve">
<path fill="#231F20" d="M11.229,7.228c0.084,0.06,0.132,0.128,0.185,0.195l0.001-0.001c0.07,0.103,0.119,0.214,0.136,0.347
	l0.012,0.23l-0.012,0.229c-0.019,0.146-0.077,0.267-0.162,0.375c-0.044,0.058-0.086,0.115-0.156,0.166l-0.656,0.459V9.23L1,16
	v-0.813c0-0.292,0.107-0.48,0.347-0.649L10.59,8L1.347,1.464C1.107,1.295,1,1.107,1,0.814V0L11.229,7.228z M14,9
	c0.553,0,1-0.447,1-1s-0.447-1-1-1s-1,0.447-1,1S13.447,9,14,9z"/>
</svg>
