<?xml version="1.0" encoding="iso-8859-1"?>
<!-- Generator: Adobe Illustrator 16.0.0, SVG Export Plug-In . SVG Version: 6.00 Build 0)  -->
<!DOCTYPE svg PUBLIC "-//W3C//DTD SVG 1.1//EN" "http://www.w3.org/Graphics/SVG/1.1/DTD/svg11.dtd">
<svg version="1.1" id="Layer_3" xmlns="http://www.w3.org/2000/svg" xmlns:xlink="http://www.w3.org/1999/xlink" x="0px" y="0px"
	 width="16px" height="16px" viewBox="0 0 16 16" style="enable-background:new 0 0 16 16;" xml:space="preserve">
<path style="fill:#231F20;" d="M7.228,4.771c0.06-0.084,0.128-0.132,0.195-0.185L7.422,4.585c0.103-0.07,0.214-0.119,0.347-0.136
	l0.23-0.012l0.229,0.012c0.146,0.019,0.267,0.077,0.375,0.162C8.661,4.655,8.719,4.697,8.77,4.768l0.459,0.656H9.23L16,15h-0.813
	c-0.292,0-0.48-0.107-0.649-0.347L8,5.41l-6.536,9.243C1.295,14.893,1.107,15,0.814,15H0L7.228,4.771z M9,2c0-0.553-0.447-1-1-1
	S7,1.447,7,2s0.447,1,1,1S9,2.553,9,2z"/>
</svg>
