<?xml version="1.0" encoding="iso-8859-1"?>
<!-- Generator: Adobe Illustrator 16.0.0, SVG Export Plug-In . SVG Version: 6.00 Build 0)  -->
<!DOCTYPE svg PUBLIC "-//W3C//DTD SVG 1.1//EN" "http://www.w3.org/Graphics/SVG/1.1/DTD/svg11.dtd">
<svg version="1.1" id="Layer_3" xmlns="http://www.w3.org/2000/svg" xmlns:xlink="http://www.w3.org/1999/xlink" x="0px" y="0px"
	 width="16px" height="16px" viewBox="0 0 16 16" style="enable-background:new 0 0 16 16;" xml:space="preserve">
<path style="fill:#231F20;" d="M0,13.281h0.814c0.293,0,0.48-0.107,0.649-0.347L8,3.691l6.537,9.243
	c0.169,0.239,0.357,0.347,0.649,0.347H16L9.23,3.705H9.229L8.77,3.049c-0.051-0.07-0.108-0.112-0.166-0.156
	C8.495,2.808,8.375,2.749,8.229,2.73L7.999,2.719L7.769,2.73C7.636,2.747,7.524,2.796,7.422,2.866l0.001,0.001
	C7.355,2.92,7.287,2.968,7.228,3.052L0,13.281z"/>
</svg>
