<?xml version="1.0" encoding="iso-8859-1"?>
<!-- Generator: Adobe Illustrator 16.0.0, SVG Export Plug-In . SVG Version: 6.00 Build 0)  -->
<!DOCTYPE svg PUBLIC "-//W3C//DTD SVG 1.1//EN" "http://www.w3.org/Graphics/SVG/1.1/DTD/svg11.dtd">
<svg version="1.1" id="Layer_3" xmlns="http://www.w3.org/2000/svg" xmlns:xlink="http://www.w3.org/1999/xlink" x="0px" y="0px"
	 width="24px" height="24px" viewBox="0 0 24 24" style="enable-background:new 0 0 24 24;" xml:space="preserve">
<path style="fill:#231F20;" d="M1,19.262h1.119c0.404,0,0.662-0.148,0.896-0.476L12,6.074l8.986,12.712
	c0.233,0.327,0.492,0.476,0.896,0.476H23L13.693,6.094h-0.002l-0.635-0.902c-0.068-0.097-0.149-0.153-0.225-0.215
	c-0.149-0.117-0.316-0.196-0.516-0.221l-0.317-0.018l-0.318,0.018c-0.18,0.022-0.332,0.089-0.476,0.186l0.001,0.001
	c-0.091,0.073-0.188,0.139-0.266,0.255L1,19.262z"/>
</svg>
