<?xml version="1.0" encoding="iso-8859-1"?>
<!-- Generator: Adobe Illustrator 16.0.0, SVG Export Plug-In . SVG Version: 6.00 Build 0)  -->
<!DOCTYPE svg PUBLIC "-//W3C//DTD SVG 1.1//EN" "http://www.w3.org/Graphics/SVG/1.1/DTD/svg11.dtd">
<svg version="1.1" id="Layer_3" xmlns="http://www.w3.org/2000/svg" xmlns:xlink="http://www.w3.org/1999/xlink" x="0px" y="0px"
	 width="16px" height="16px" viewBox="0 0 16 16" style="enable-background:new 0 0 16 16;" xml:space="preserve">
<path style="fill:#231F20;" d="M16,2.719h-0.814c-0.293,0-0.48,0.107-0.649,0.347L8,12.309L1.463,3.065
	C1.294,2.826,1.105,2.719,0.813,2.719H0l6.77,9.576h0.002l0.459,0.656c0.051,0.07,0.108,0.112,0.166,0.156
	c0.108,0.085,0.229,0.144,0.375,0.162l0.229,0.012l0.23-0.012c0.133-0.017,0.244-0.065,0.347-0.136l-0.001-0.001
	c0.067-0.053,0.136-0.101,0.195-0.185L16,2.719z"/>
</svg>
