<?xml version="1.0" encoding="iso-8859-1"?>
<!-- Generator: Adobe Illustrator 16.0.0, SVG Export Plug-In . SVG Version: 6.00 Build 0)  -->
<!DOCTYPE svg PUBLIC "-//W3C//DTD SVG 1.1//EN" "http://www.w3.org/Graphics/SVG/1.1/DTD/svg11.dtd">
<svg version="1.1" id="Layer_3" xmlns="http://www.w3.org/2000/svg" xmlns:xlink="http://www.w3.org/1999/xlink" x="0px" y="0px"
	 width="24px" height="24px" viewBox="0 0 24 24" style="enable-background:new 0 0 24 24;" xml:space="preserve">
<path style="fill:#231F20;" d="M22.999,4.736H21.88c-0.404,0-0.662,0.148-0.896,0.476l-8.985,12.712L3.013,5.212
	C2.779,4.885,2.521,4.736,2.117,4.736H0.999l9.307,13.168h0.002l0.635,0.902c0.068,0.097,0.149,0.153,0.225,0.215
	c0.149,0.117,0.316,0.196,0.516,0.221L12,19.26l0.318-0.018c0.18-0.022,0.332-0.089,0.476-0.186l-0.001-0.001
	c0.091-0.073,0.188-0.139,0.266-0.255L22.999,4.736z"/>
</svg>
