<?xml version="1.0" encoding="utf-8"?>
<!-- Generator: Adobe Illustrator 16.0.0, SVG Export Plug-In . SVG Version: 6.00 Build 0)  -->
<!DOCTYPE svg PUBLIC "-//W3C//DTD SVG 1.1//EN" "http://www.w3.org/Graphics/SVG/1.1/DTD/svg11.dtd">
<svg version="1.1" id="Layer_3" xmlns="http://www.w3.org/2000/svg" xmlns:xlink="http://www.w3.org/1999/xlink" x="0px" y="0px"
	 width="24px" height="24px" viewBox="0 0 24 24" enable-background="new 0 0 24 24" xml:space="preserve">
<path fill="#231F20" d="M23,4.738h-1.119c-0.404,0-0.662,0.148-0.896,0.476L12,17.926L3.014,5.214
	C2.78,4.887,2.521,4.738,2.118,4.738H1l9.307,13.168h0.002l0.635,0.902c0.068,0.097,0.149,0.153,0.225,0.215
	c0.149,0.117,0.316,0.196,0.516,0.221l0.317,0.018l0.318-0.018c0.18-0.022,0.332-0.089,0.476-0.186l-0.001-0.001
	c0.091-0.073,0.188-0.139,0.266-0.255L23,4.738z"/>
</svg>
