<?xml version="1.0" encoding="iso-8859-1"?>
<!-- Generator: Adobe Illustrator 16.0.0, SVG Export Plug-In . SVG Version: 6.00 Build 0)  -->
<!DOCTYPE svg PUBLIC "-//W3C//DTD SVG 1.1//EN" "http://www.w3.org/Graphics/SVG/1.1/DTD/svg11.dtd">
<svg version="1.1" id="Layer_2" xmlns="http://www.w3.org/2000/svg" xmlns:xlink="http://www.w3.org/1999/xlink" x="0px" y="0px"
	 width="16px" height="16px" viewBox="0 0 16 16" style="enable-background:new 0 0 16 16;" xml:space="preserve">
<path style="fill:#231F20;" d="M8.772,11.229c-0.06,0.084-0.128,0.132-0.195,0.185l0.001,0.001c-0.103,0.07-0.214,0.119-0.347,0.136
	l-0.23,0.012l-0.229-0.012c-0.146-0.019-0.267-0.077-0.375-0.162c-0.058-0.044-0.115-0.086-0.166-0.156l-0.459-0.656H6.77L0,1h0.813
	c0.292,0,0.48,0.107,0.649,0.347L8,10.59l6.536-9.243C14.705,1.107,14.893,1,15.186,1H16L8.772,11.229z M7,14c0,0.553,0.447,1,1,1
	s1-0.447,1-1s-0.447-1-1-1S7,13.447,7,14z"/>
</svg>
