<?xml version="1.0" encoding="utf-8"?>
<!-- Generator: Adobe Illustrator 16.0.0, SVG Export Plug-In . SVG Version: 6.00 Build 0)  -->
<!DOCTYPE svg PUBLIC "-//W3C//DTD SVG 1.1//EN" "http://www.w3.org/Graphics/SVG/1.1/DTD/svg11.dtd">
<svg version="1.1" id="Layer_4" xmlns="http://www.w3.org/2000/svg" xmlns:xlink="http://www.w3.org/1999/xlink" x="0px" y="0px"
	 width="24px" height="24px" viewBox="0 0 24 24" enable-background="new 0 0 24 24" xml:space="preserve">
<path fill="#231F20" d="M13.06,16.752c-0.077,0.116-0.175,0.182-0.266,0.255l0.001,0.001c-0.144,0.097-0.296,0.163-0.476,0.186
	l-0.318,0.018l-0.317-0.018c-0.199-0.024-0.366-0.104-0.516-0.221c-0.075-0.062-0.156-0.118-0.225-0.215l-0.635-0.902h-0.002
	L1,2.688h1.118c0.403,0,0.662,0.148,0.896,0.476L12,15.875l8.985-12.712c0.233-0.327,0.491-0.476,0.896-0.476H23L13.06,16.752z
	 M15.893,21.312H9.648c-0.402-0.001-0.671-0.129-0.902-0.459l-0.641-0.916h6.243c0.402,0.001,0.671,0.128,0.902,0.458L15.893,21.312
	z"/>
</svg>
