<?xml version="1.0" encoding="iso-8859-1"?>
<!-- Generator: Adobe Illustrator 16.0.0, SVG Export Plug-In . SVG Version: 6.00 Build 0)  -->
<!DOCTYPE svg PUBLIC "-//W3C//DTD SVG 1.1//EN" "http://www.w3.org/Graphics/SVG/1.1/DTD/svg11.dtd">
<svg version="1.1" id="Layer_4" xmlns="http://www.w3.org/2000/svg" xmlns:xlink="http://www.w3.org/1999/xlink" x="0px" y="0px"
	 width="24px" height="24px" viewBox="0 0 24 24" style="enable-background:new 0 0 24 24;" xml:space="preserve">
<path style="fill:#231F20;" d="M13.372,16.752c-0.077,0.116-0.175,0.182-0.266,0.255l0.001,0.001
	c-0.144,0.097-0.296,0.163-0.476,0.186l-0.318,0.018l-0.317-0.018c-0.199-0.024-0.366-0.104-0.516-0.221
	c-0.075-0.062-0.156-0.118-0.225-0.215l-0.635-0.902h-0.002L1.312,2.688h1.118c0.403,0,0.662,0.148,0.896,0.476l8.986,12.712
	l8.985-12.712c0.233-0.327,0.491-0.476,0.896-0.476h1.119L13.372,16.752z M16.205,21.312H9.961
	c-0.402-0.001-0.671-0.129-0.902-0.459l-0.641-0.916h6.243c0.402,0.001,0.671,0.128,0.902,0.458L16.205,21.312z"/>
</svg>
