<?xml version="1.0" encoding="iso-8859-1"?>
<!-- Generator: Adobe Illustrator 16.0.0, SVG Export Plug-In . SVG Version: 6.00 Build 0)  -->
<!DOCTYPE svg PUBLIC "-//W3C//DTD SVG 1.1//EN" "http://www.w3.org/Graphics/SVG/1.1/DTD/svg11.dtd">
<svg version="1.1" id="Layer" xmlns="http://www.w3.org/2000/svg" xmlns:xlink="http://www.w3.org/1999/xlink" x="0px" y="0px"
	 width="16px" height="16px" viewBox="0 0 16 16" style="enable-background:new 0 0 16 16;" xml:space="preserve">
<path style="fill:#231F20;" d="M14.189,8L9.231,0.986H9.229L8.77,0.33C8.719,0.26,8.662,0.218,8.604,0.174
	C8.496,0.089,8.375,0.03,8.229,0.012L8,0l-0.23,0.012C7.636,0.028,7.525,0.077,7.422,0.147l0.001,0.001
	C7.356,0.201,7.288,0.249,7.228,0.333L1.811,8l4.958,7.014h0.002L7.23,15.67c0.051,0.07,0.108,0.112,0.166,0.156
	c0.108,0.085,0.229,0.144,0.375,0.162L8,16l0.23-0.012c0.133-0.017,0.244-0.065,0.347-0.136l-0.001-0.001
	c0.067-0.053,0.136-0.101,0.195-0.185L14.189,8z M8,15.027L3.274,8.347C3.105,8.107,2.917,8,2.625,8h0.001
	c0.293,0,0.48-0.107,0.649-0.347L8,0.973l4.726,6.681C12.895,7.893,13.083,8,13.375,8h-0.001c-0.293,0-0.48,0.107-0.649,0.347
	L8,15.027z"/>
</svg>
