<?xml version="1.0" encoding="iso-8859-1"?>
<!-- Generator: Adobe Illustrator 16.0.0, SVG Export Plug-In . SVG Version: 6.00 Build 0)  -->
<!DOCTYPE svg PUBLIC "-//W3C//DTD SVG 1.1//EN" "http://www.w3.org/Graphics/SVG/1.1/DTD/svg11.dtd">
<svg version="1.1" id="Layer" xmlns="http://www.w3.org/2000/svg" xmlns:xlink="http://www.w3.org/1999/xlink" x="0px" y="0px"
	 width="24px" height="24px" viewBox="0 0 24 24" style="enable-background:new 0 0 24 24;" xml:space="preserve">
<path style="fill:#231F20;" d="M20.509,12l-6.815-9.645h-0.005L13.06,1.453c-0.071-0.094-0.149-0.153-0.23-0.215
	c-0.149-0.114-0.313-0.196-0.516-0.221L12,1l-0.318,0.018C11.499,1.04,11.346,1.106,11.206,1.2l0.001,0.007
	c-0.091,0.07-0.186,0.136-0.269,0.249L3.491,12l6.815,9.645h0.005l0.629,0.902c0.071,0.094,0.149,0.153,0.23,0.215
	c0.149,0.114,0.313,0.196,0.516,0.221L12,23l0.318-0.018c0.183-0.022,0.335-0.089,0.476-0.183l-0.001-0.007
	c0.091-0.07,0.186-0.136,0.269-0.249L20.509,12z M12,21.664l-6.498-9.188C5.268,12.148,5.009,12,4.609,12H4.61
	c0.404,0,0.662-0.148,0.893-0.476L12,2.336l6.498,9.188C18.732,11.852,18.991,12,19.391,12H19.39c-0.404,0-0.662,0.148-0.893,0.476
	L12,21.664z"/>
</svg>
