<?xml version="1.0" encoding="iso-8859-1"?>
<!-- Generator: Adobe Illustrator 16.0.0, SVG Export Plug-In . SVG Version: 6.00 Build 0)  -->
<!DOCTYPE svg PUBLIC "-//W3C//DTD SVG 1.1//EN" "http://www.w3.org/Graphics/SVG/1.1/DTD/svg11.dtd">
<svg version="1.1" id="Layer" xmlns="http://www.w3.org/2000/svg" xmlns:xlink="http://www.w3.org/1999/xlink" x="0px" y="0px"
	 width="16px" height="16px" viewBox="0 0 16 16" style="enable-background:new 0 0 16 16;" xml:space="preserve">
<path style="fill:#231F20;" d="M2.625,8c0.293,0,0.48-0.107,0.649-0.347L8,0.973l4.726,6.681C12.895,7.893,13.083,8,13.375,8h0.813
	L9.231,0.986H9.229L8.77,0.33C8.719,0.26,8.662,0.218,8.604,0.174C8.496,0.089,8.375,0.03,8.229,0.012L8,0l-0.23,0.012
	C7.636,0.028,7.525,0.077,7.422,0.147l0.001,0.001C7.356,0.201,7.288,0.249,7.228,0.333L1.811,8H2.625z"/>
</svg>
