<?xml version="1.0" encoding="iso-8859-1"?>
<!-- Generator: Adobe Illustrator 16.0.0, SVG Export Plug-In . SVG Version: 6.00 Build 0)  -->
<!DOCTYPE svg PUBLIC "-//W3C//DTD SVG 1.1//EN" "http://www.w3.org/Graphics/SVG/1.1/DTD/svg11.dtd">
<svg version="1.1" id="Layer" xmlns="http://www.w3.org/2000/svg" xmlns:xlink="http://www.w3.org/1999/xlink" x="0px" y="0px"
	 width="24px" height="24px" viewBox="0 0 24 24" style="enable-background:new 0 0 24 24;" xml:space="preserve">
<path style="fill:#231F20;" d="M4.61,12c0.403,0,0.661-0.148,0.893-0.476L12,2.336l6.498,9.188C18.73,11.852,18.989,12,19.391,12
	h1.118l-6.817-9.645H13.69l-0.632-0.902c-0.07-0.097-0.149-0.153-0.228-0.215c-0.149-0.117-0.315-0.196-0.516-0.221L12,1
	l-0.317,0.018C11.5,1.04,11.346,1.106,11.206,1.203l0.001,0.001c-0.092,0.073-0.186,0.139-0.269,0.255L3.491,12H4.61z"/>
</svg>
