<?xml version="1.0" encoding="iso-8859-1"?>
<!-- Generator: Adobe Illustrator 16.0.0, SVG Export Plug-In . SVG Version: 6.00 Build 0)  -->
<!DOCTYPE svg PUBLIC "-//W3C//DTD SVG 1.1//EN" "http://www.w3.org/Graphics/SVG/1.1/DTD/svg11.dtd">
<svg version="1.1" id="Layer" xmlns="http://www.w3.org/2000/svg" xmlns:xlink="http://www.w3.org/1999/xlink" x="0px" y="0px"
	 width="24px" height="24px" viewBox="0 0 24 24" style="enable-background:new 0 0 24 24;" xml:space="preserve">
<path style="fill:#231F20;" d="M19.389,12c-0.403,0-0.661,0.148-0.893,0.476l-6.498,9.188L5.5,12.476C5.269,12.148,5.01,12,4.608,12
	H3.49l6.817,9.645h0.002l0.632,0.902c0.07,0.097,0.149,0.153,0.228,0.215c0.149,0.117,0.315,0.196,0.516,0.221L12,23l0.317-0.018
	c0.183-0.022,0.336-0.089,0.477-0.186l-0.001-0.001c0.092-0.073,0.186-0.139,0.269-0.255L20.508,12H19.389z"/>
</svg>
