<?xml version="1.0" encoding="iso-8859-1"?>
<!-- Generator: Adobe Illustrator 16.0.0, SVG Export Plug-In . SVG Version: 6.00 Build 0)  -->
<!DOCTYPE svg PUBLIC "-//W3C//DTD SVG 1.1//EN" "http://www.w3.org/Graphics/SVG/1.1/DTD/svg11.dtd">
<svg version="1.1" id="Layer" xmlns="http://www.w3.org/2000/svg" xmlns:xlink="http://www.w3.org/1999/xlink" x="0px" y="0px"
	 width="16px" height="16px" viewBox="0 0 16 16" style="enable-background:new 0 0 16 16;" xml:space="preserve">
<path style="fill:#231F20;" d="M13.375,8c-0.293,0-0.48,0.107-0.649,0.347L8,15.027L3.274,8.347C3.105,8.107,2.917,8,2.625,8H1.811
	l4.958,7.014h0.002L7.23,15.67c0.051,0.07,0.108,0.112,0.166,0.156c0.108,0.085,0.229,0.144,0.375,0.162L8,16l0.23-0.012
	c0.133-0.017,0.244-0.065,0.347-0.136l-0.001-0.001c0.067-0.053,0.136-0.101,0.195-0.185L14.189,8H13.375z"/>
</svg>
