<?xml version="1.0" encoding="utf-8"?>
<!-- Generator: Adobe Illustrator 16.0.0, SVG Export Plug-In . SVG Version: 6.00 Build 0)  -->
<!DOCTYPE svg PUBLIC "-//W3C//DTD SVG 1.1//EN" "http://www.w3.org/Graphics/SVG/1.1/DTD/svg11.dtd">
<svg version="1.1" id="Layer" xmlns="http://www.w3.org/2000/svg" xmlns:xlink="http://www.w3.org/1999/xlink" x="0px" y="0px"
	 width="24px" height="24px" viewBox="0 0 24 24" enable-background="new 0 0 24 24" xml:space="preserve">
<path fill="#231F20" d="M4.609,12.118c0.403,0,0.661-0.148,0.893-0.476l5.796-8.196V23l0.918-0.688
	c0.331-0.247,0.481-0.461,0.482-0.893V3.442l5.799,8.2c0.232,0.327,0.491,0.476,0.893,0.476h1.118l-6.817-9.645h-0.002l-0.632-0.902
	c-0.07-0.097-0.149-0.153-0.228-0.215c-0.149-0.117-0.315-0.196-0.516-0.221l-0.316-0.018l-0.317,0.018
	c-0.183,0.022-0.336,0.089-0.477,0.186l0.001,0.001c-0.092,0.073-0.186,0.139-0.269,0.255L3.49,12.118H4.609z"/>
</svg>
