<?xml version="1.0" encoding="utf-8"?>
<!-- Generator: Adobe Illustrator 27.4.1, SVG Export Plug-In . SVG Version: 6.00 Build 0)  -->
<svg version="1.1" id="Layer" xmlns="http://www.w3.org/2000/svg" xmlns:xlink="http://www.w3.org/1999/xlink" x="0px" y="0px"
	 viewBox="0 0 24 24" style="enable-background:new 0 0 24 24;" xml:space="preserve">
<style type="text/css">
	.st0{fill:#231F20;}
</style>
<path class="st0" d="M11.9,4.7c0,0.4,0.1,0.7,0.5,0.9l8.2,5.8H1.1l0.7,0.9c0.2,0.3,0.5,0.5,0.9,0.5h18l-8.2,5.8
	c-0.3,0.2-0.5,0.5-0.5,0.9v1.1l9.6-6.8v0l0.9-0.6c0.1-0.1,0.2-0.1,0.2-0.2c0.1-0.1,0.2-0.3,0.2-0.5l0-0.3l0-0.3
	c0-0.2-0.1-0.3-0.2-0.5l0,0c-0.1-0.1-0.1-0.2-0.3-0.3L11.9,3.5V4.7z"/>
</svg>
