<?xml version="1.0" encoding="utf-8"?>
<!-- Generator: Adobe Illustrator 27.4.1, SVG Export Plug-In . SVG Version: 6.00 Build 0)  -->
<svg version="1.1" id="Layer" xmlns="http://www.w3.org/2000/svg" xmlns:xlink="http://www.w3.org/1999/xlink" x="0px" y="0px"
	 viewBox="0 0 24 24" style="enable-background:new 0 0 24 24;" xml:space="preserve">
<style type="text/css">
	.st0{fill:#231F20;}
</style>
<path class="st0" d="M12.1,19.4c0-0.4-0.1-0.7-0.5-0.9l-8.2-5.8h19.6l-0.7-0.9c-0.2-0.3-0.5-0.5-0.9-0.5h-18l8.2-5.8
	c0.3-0.2,0.5-0.5,0.5-0.9V3.5l-9.6,6.8v0L1.5,11c-0.1,0.1-0.2,0.1-0.2,0.2c-0.1,0.1-0.2,0.3-0.2,0.5l0,0.3l0,0.3
	c0,0.2,0.1,0.3,0.2,0.5l0,0c0.1,0.1,0.1,0.2,0.3,0.3l10.5,7.4V19.4z"/>
</svg>
