<?xml version="1.0" encoding="iso-8859-1"?>
<!-- Generator: Adobe Illustrator 16.0.0, SVG Export Plug-In . SVG Version: 6.00 Build 0)  -->
<!DOCTYPE svg PUBLIC "-//W3C//DTD SVG 1.1//EN" "http://www.w3.org/Graphics/SVG/1.1/DTD/svg11.dtd">
<svg version="1.1" id="Layer" xmlns="http://www.w3.org/2000/svg" xmlns:xlink="http://www.w3.org/1999/xlink" x="0px" y="0px"
	 width="24px" height="24px" viewBox="0 0 24 24" style="enable-background:new 0 0 24 24;" xml:space="preserve">
<path style="fill:#231F20;" d="M6.001,23C4.896,23,4,22.104,4,21V3c0-1.104,0.896-2,2.001-2H8c1.104,0,2,0.896,2,2v18
	c0,1.104-0.896,2-2,2H6.001z M17.999,23C19.104,23,20,22.104,20,21V3c0-1.104-0.896-2-2.001-2h-1.998C14.896,1,14,1.896,14,3v18
	c0,1.104,0.896,2,2.001,2H17.999z"/>
</svg>
