<?xml version="1.0" encoding="utf-8"?>
<!-- Generator: Adobe Illustrator 16.0.0, SVG Export Plug-In . SVG Version: 6.00 Build 0)  -->
<!DOCTYPE svg PUBLIC "-//W3C//DTD SVG 1.1//EN" "http://www.w3.org/Graphics/SVG/1.1/DTD/svg11.dtd">
<svg version="1.1" id="Layer" xmlns="http://www.w3.org/2000/svg" xmlns:xlink="http://www.w3.org/1999/xlink" x="0px" y="0px"
	 width="16px" height="16px" viewBox="0 0 16 16" enable-background="new 0 0 16 16" xml:space="preserve">
<path fill="#231F20" d="M8,4.82c-1.757,0-3.182,1.421-3.182,3.181S6.243,11.183,8,11.183c1.758,0,3.183-1.422,3.183-3.182
	S9.758,4.82,8,4.82z M8,10.183c-1.203,0-2.182-0.979-2.182-2.182C5.818,6.799,6.797,5.82,8,5.82s2.183,0.979,2.183,2.181
	C10.183,9.204,9.203,10.183,8,10.183z M8.5,0v3.237c0,0.293-0.107,0.498-0.347,0.666L7.5,4.36V1.123
	C7.501,0.83,7.607,0.625,7.848,0.457L8.5,0z M13.942,2.766l-2.289,2.289c-0.208,0.207-0.429,0.276-0.717,0.226l-0.784-0.139
	l2.289-2.289c0.207-0.207,0.428-0.276,0.716-0.226L13.942,2.766z M15.906,8.502h-3.237c-0.293,0-0.498-0.106-0.666-0.347
	l-0.456-0.652h3.237c0.293,0,0.497,0.106,0.666,0.347L15.906,8.502z M13.15,14.035l-2.289-2.289
	c-0.207-0.207-0.276-0.428-0.226-0.716l0.139-0.785l2.289,2.289c0.207,0.208,0.276,0.428,0.226,0.717L13.15,14.035z M8.5,11.549
	v3.237c0,0.293-0.107,0.498-0.347,0.666L7.5,15.909v-3.237c0.001-0.293,0.107-0.498,0.348-0.666L8.5,11.549z M5.696,10.952
	l-2.289,2.289c-0.207,0.207-0.428,0.276-0.716,0.226l-0.785-0.139l2.289-2.289c0.208-0.207,0.428-0.276,0.717-0.226L5.696,10.952z
	 M4.453,8.503H1.216C0.923,8.502,0.718,8.396,0.55,8.155L0.094,7.503h3.237c0.293,0,0.497,0.106,0.666,0.347L4.453,8.503z
	 M2.613,1.904l2.289,2.289C5.109,4.4,5.179,4.621,5.128,4.909L4.989,5.694L2.7,3.405C2.493,3.197,2.424,2.978,2.475,2.688
	L2.613,1.904z"/>
</svg>
