<?xml version="1.0" encoding="iso-8859-1"?>
<!-- Generator: Adobe Illustrator 16.0.0, SVG Export Plug-In . SVG Version: 6.00 Build 0)  -->
<!DOCTYPE svg PUBLIC "-//W3C//DTD SVG 1.1//EN" "http://www.w3.org/Graphics/SVG/1.1/DTD/svg11.dtd">
<svg version="1.1" id="Layer" xmlns="http://www.w3.org/2000/svg" xmlns:xlink="http://www.w3.org/1999/xlink" x="0px" y="0px"
	 width="24px" height="24px" viewBox="0 0 24 24" style="enable-background:new 0 0 24 24;" xml:space="preserve">
<path style="fill:#231F20;" d="M12,7.664c-2.429,0-4.401,1.969-4.401,4.4S9.571,16.466,12,16.466c2.43,0,4.402-1.97,4.402-4.401
	S14.43,7.664,12,7.664z M12,15.079c-1.664,0-3.017-1.354-3.017-3.015S10.336,9.051,12,9.051s3.018,1.353,3.018,3.014
	S13.664,15.079,12,15.079z M12.69,1v4.476c0,0.405-0.146,0.688-0.478,0.922L11.31,7.032V2.551c0.001-0.405,0.146-0.688,0.479-0.921
	L12.69,1z M20.217,4.824l-3.167,3.163c-0.285,0.29-0.592,0.385-0.99,0.316l-1.084-0.192l3.166-3.164
	c0.285-0.29,0.591-0.384,0.99-0.315L20.217,4.824z M22.933,12.755h-4.477c-0.406,0-0.688-0.146-0.922-0.477l-0.628-0.902h4.474
	c0.406,0,0.688,0.147,0.922,0.477L22.933,12.755z M19.122,20.405l-3.167-3.163c-0.284-0.284-0.38-0.595-0.312-0.988l0.192-1.089
	l3.167,3.169c0.284,0.285,0.38,0.589,0.312,0.991L19.122,20.405z M12.69,16.968v4.481c0,0.405-0.146,0.688-0.478,0.921L11.31,23
	v-4.476c0.001-0.405,0.146-0.688,0.479-0.922L12.69,16.968z M8.813,16.146L5.65,19.31c-0.288,0.29-0.591,0.382-0.989,0.313
	l-1.085-0.192l3.163-3.169c0.288-0.284,0.591-0.377,0.99-0.308L8.813,16.146z M7.094,12.757H2.62
	c-0.406-0.002-0.688-0.148-0.922-0.479l-0.631-0.902h4.477c0.406,0,0.688,0.147,0.922,0.477L7.094,12.757z M4.553,3.636l3.163,3.163
	c0.288,0.284,0.383,0.589,0.312,0.99L7.835,8.878L4.672,5.709C4.385,5.422,4.289,5.12,4.36,4.719L4.553,3.636z"/>
</svg>
