<?xml version="1.0" encoding="iso-8859-1"?>
<!-- Generator: Adobe Illustrator 16.0.0, SVG Export Plug-In . SVG Version: 6.00 Build 0)  -->
<!DOCTYPE svg PUBLIC "-//W3C//DTD SVG 1.1//EN" "http://www.w3.org/Graphics/SVG/1.1/DTD/svg11.dtd">
<svg version="1.1" id="Layer" xmlns="http://www.w3.org/2000/svg" xmlns:xlink="http://www.w3.org/1999/xlink" x="0px" y="0px"
	 width="24px" height="24px" viewBox="0 0 24 24" style="enable-background:new 0 0 24 24;" xml:space="preserve">
<path style="fill:#231F20;" d="M12.032,23c-0.34,0-0.682-0.016-1.026-0.047c-6.051-0.56-10.518-5.938-9.959-11.988
	c0.487-5.284,4.676-9.474,9.959-9.96C11.049,1.001,11.091,1,11.133,1c0.493,0,0.952,0.265,1.197,0.699
	c0.266,0.473,0.23,1.057-0.092,1.492c-2.007,2.718-1.431,6.562,1.285,8.571c1.062,0.784,2.322,1.199,3.642,1.199
	c1.321,0,2.581-0.415,3.643-1.199c0.241-0.179,0.528-0.271,0.817-0.271c0.232,0,0.465,0.06,0.675,0.178
	c0.473,0.266,0.745,0.784,0.694,1.324C22.467,18.698,17.754,23,12.032,23z M12.706,12.867C9.375,10.404,8.67,5.709,11.132,2.375
	c-4.625,0.426-8.289,4.092-8.716,8.716c-0.49,5.306,3.412,10.003,8.716,10.493c5.306,0.489,10.002-3.411,10.493-8.717
	C18.975,14.826,15.356,14.826,12.706,12.867z"/>
</svg>
