<?xml version="1.0" encoding="iso-8859-1"?>
<!-- Generator: Adobe Illustrator 16.0.0, SVG Export Plug-In . SVG Version: 6.00 Build 0)  -->
<!DOCTYPE svg PUBLIC "-//W3C//DTD SVG 1.1//EN" "http://www.w3.org/Graphics/SVG/1.1/DTD/svg11.dtd">
<svg version="1.1" id="Layer_3" xmlns="http://www.w3.org/2000/svg" xmlns:xlink="http://www.w3.org/1999/xlink" x="0px" y="0px"
	 width="16px" height="16px" viewBox="0 0 16 16" style="enable-background:new 0 0 16 16;" xml:space="preserve">
<path style="fill:#231F20;" d="M8,0C3.589,0,0,3.59,0,8.001S3.589,16,8,16s8-3.588,8-7.999S12.412,0,8,0z M14.975,7.493h-3.207
	c-0.144-2.299-0.952-4.499-2.336-6.328C12.447,1.791,14.748,4.354,14.975,7.493z M5.233,7.493C5.399,5.088,6.364,2.802,8,1.015
	c1.636,1.787,2.601,4.073,2.766,6.479H5.233z M10.767,8.508c-0.165,2.405-1.13,4.691-2.766,6.478
	c-1.636-1.786-2.601-4.072-2.767-6.478H10.767z M6.57,1.165C5.192,2.984,4.385,5.176,4.235,7.493H1.026
	C1.252,4.354,3.554,1.791,6.57,1.165z M1.026,8.508h3.206c0.145,2.3,0.953,4.5,2.337,6.327C3.554,14.209,1.252,11.647,1.026,8.508z
	 M9.432,14.835c1.378-1.819,2.184-4.011,2.334-6.327h3.209C14.748,11.647,12.448,14.209,9.432,14.835z"/>
</svg>
