<?xml version="1.0" encoding="iso-8859-1"?>
<!-- Generator: Adobe Illustrator 16.0.0, SVG Export Plug-In . SVG Version: 6.00 Build 0)  -->
<!DOCTYPE svg PUBLIC "-//W3C//DTD SVG 1.1//EN" "http://www.w3.org/Graphics/SVG/1.1/DTD/svg11.dtd">
<svg version="1.1" id="Layer_3" xmlns="http://www.w3.org/2000/svg" xmlns:xlink="http://www.w3.org/1999/xlink" x="0px" y="0px"
	 width="24px" height="24px" viewBox="0 0 24 24" style="enable-background:new 0 0 24 24;" xml:space="preserve">
<path style="fill:#231F20;" d="M12,1C5.934,1,1,5.938,1,12.001S5.934,23,12,23s11-4.936,11-10.999S18.067,1,12,1z M21.591,11.306
	H17.18c-0.196-3.166-1.309-6.187-3.212-8.701C18.114,3.465,21.279,6.988,21.591,11.306z M8.196,11.306
	C8.424,7.998,9.752,4.851,12,2.396c2.248,2.455,3.577,5.603,3.803,8.91H8.196z M15.804,12.695c-0.227,3.308-1.555,6.455-3.803,8.909
	c-2.249-2.454-3.577-5.602-3.804-8.909H15.804z M10.034,2.604C8.14,5.104,7.029,8.115,6.823,11.306H2.41
	C2.721,6.988,5.887,3.465,10.034,2.604z M2.41,12.695h4.41c0.197,3.167,1.31,6.188,3.213,8.7C5.887,20.535,2.721,17.013,2.41,12.695
	z M13.968,21.396c1.896-2.499,3.004-5.511,3.21-8.7h4.413C21.279,17.013,18.115,20.535,13.968,21.396z"/>
</svg>
