<?xml version="1.0" encoding="iso-8859-1"?>
<!-- Generator: Adobe Illustrator 16.0.0, SVG Export Plug-In . SVG Version: 6.00 Build 0)  -->
<!DOCTYPE svg PUBLIC "-//W3C//DTD SVG 1.1//EN" "http://www.w3.org/Graphics/SVG/1.1/DTD/svg11.dtd">
<svg version="1.1" id="Layer" xmlns="http://www.w3.org/2000/svg" xmlns:xlink="http://www.w3.org/1999/xlink" x="0px" y="0px"
	 width="24px" height="24px" viewBox="0 0 24 24" style="enable-background:new 0 0 24 24;" xml:space="preserve">
<path style="fill:#231F20;" d="M12,1C5.923,1,1,5.924,1,12s4.923,11,11,11s11-4.924,11-11S18.077,1,12,1z M12,21.625
	c-5.307,0-9.625-4.318-9.625-9.625S6.693,2.375,12,2.375S21.625,6.693,21.625,12S17.307,21.625,12,21.625z M12.409,11.446
	c0.304,0.229,0.369,0.658,0.146,0.962c-0.229,0.305-0.659,0.369-0.963,0.146c-0.304-0.229-0.369-0.658-0.143-0.962
	C11.674,11.288,12.104,11.224,12.409,11.446z M10.574,8.759c-1.37,0.969-2.011,2.175-2.011,3.802l0.001,5.932l4.866-3.253
	c1.373-0.977,2.009-2.185,2.008-3.803l0.001-5.929L10.574,8.759z M14.063,11.437c0.001,1.206-0.441,1.98-1.428,2.677l-2.696,1.804
	l0-3.356c0-1.209,0.443-1.98,1.429-2.674l2.696-1.804L14.063,11.437z"/>
</svg>
