<?xml version="1.0" encoding="utf-8"?>
<!-- Generator: Adobe Illustrator 16.0.0, SVG Export Plug-In . SVG Version: 6.00 Build 0)  -->
<!DOCTYPE svg PUBLIC "-//W3C//DTD SVG 1.1//EN" "http://www.w3.org/Graphics/SVG/1.1/DTD/svg11.dtd">
<svg version="1.1" id="Layer" xmlns="http://www.w3.org/2000/svg" xmlns:xlink="http://www.w3.org/1999/xlink" x="0px" y="0px"
	 width="16px" height="16px" viewBox="0 0 16 16" enable-background="new 0 0 16 16" xml:space="preserve">
<path fill="#231F20" d="M8,0C3.582,0,0,3.582,0,8s3.582,8,8,8s8-3.582,8-8S12.418,0,8,0z M8,15c-3.86,0-7-3.141-7-7s3.14-7,7-7
	s7,3.141,7,7S11.86,15,8,15z M8.297,7.599C8.52,7.764,8.566,8.075,8.402,8.297C8.238,8.52,7.925,8.566,7.703,8.402
	C7.481,8.237,7.434,7.926,7.599,7.704C7.762,7.481,8.075,7.435,8.297,7.599z M6.964,5.644C5.966,6.349,5.501,7.227,5.501,8.408
	l0.001,4.314l3.539-2.368c0.998-0.707,1.461-1.587,1.46-2.766l0.001-4.312L6.964,5.644z M9.5,7.589
	c0.001,0.878-0.321,1.441-1.039,1.95l-1.96,1.312l0-2.442c0-0.881,0.323-1.441,1.04-1.947l1.96-1.312L9.5,7.589z"/>
</svg>
