<?xml version="1.0" encoding="iso-8859-1"?>
<!-- Generator: Adobe Illustrator 16.0.0, SVG Export Plug-In . SVG Version: 6.00 Build 0)  -->
<!DOCTYPE svg PUBLIC "-//W3C//DTD SVG 1.1//EN" "http://www.w3.org/Graphics/SVG/1.1/DTD/svg11.dtd">
<svg version="1.1" id="Layer" xmlns="http://www.w3.org/2000/svg" xmlns:xlink="http://www.w3.org/1999/xlink" x="0px" y="0px"
	 width="16px" height="16px" viewBox="0 0 16 16" style="enable-background:new 0 0 16 16;" xml:space="preserve">
<path style="fill:#231F20;" d="M8,0C4.291,0,1.273,3.018,1.273,6.727c0,4.932,5.92,8.938,6.172,9.105C7.613,15.944,7.807,16,8,16
	s0.387-0.056,0.555-0.168c0.252-0.168,6.172-4.174,6.172-9.105C14.727,3.018,11.709,0,8,0z M8,15c0,0-5.727-3.82-5.727-8.273
	C2.273,3.563,4.838,1,8,1c3.164,0,5.727,2.563,5.727,5.727C13.727,11.18,8,15,8,15z M8,4C6.897,4,6,4.896,6,5.999
	C6,7.103,6.897,8,8,8c1.103,0,2-0.897,2-2.001C10,4.896,9.103,4,8,4z M8,7C7.447,7,7,6.553,7,5.999C7,5.446,7.447,5,8,5
	s1,0.446,1,0.999C9,6.553,8.552,7,8,7z"/>
</svg>
