<?xml version="1.0" encoding="iso-8859-1"?>
<!-- Generator: Adobe Illustrator 16.0.0, SVG Export Plug-In . SVG Version: 6.00 Build 0)  -->
<!DOCTYPE svg PUBLIC "-//W3C//DTD SVG 1.1//EN" "http://www.w3.org/Graphics/SVG/1.1/DTD/svg11.dtd">
<svg version="1.1" id="Layer" xmlns="http://www.w3.org/2000/svg" xmlns:xlink="http://www.w3.org/1999/xlink" x="0px" y="0px"
	 width="16px" height="16px" viewBox="0 0 16 16" style="enable-background:new 0 0 16 16;" xml:space="preserve">
<path style="fill:#231F20;" d="M15.502,0.771C15.347,0.682,15.173,0.637,15,0.637c-0.171,0-0.343,0.044-0.497,0.132L10.515,3.05
	L5.901,0.742C5.76,0.672,5.606,0.637,5.454,0.637c-0.171,0-0.343,0.044-0.497,0.132L0.503,3.315C0.192,3.493,0,3.825,0,4.184v10.18
	c0,0.356,0.19,0.687,0.498,0.865c0.155,0.09,0.329,0.135,0.502,0.135c0.171,0,0.343-0.044,0.497-0.132l3.988-2.28l0.001-0.001
	l4.613,2.308c0.141,0.07,0.294,0.105,0.447,0.105c0.171,0,0.343-0.044,0.497-0.132l4.454-2.547C15.808,12.507,16,12.175,16,11.816
	V1.637C16,1.28,15.81,0.95,15.502,0.771z M6,1.887l4,2.047v10.18l-4-2.047V1.887z M1,14.363V4.184l4-2.261v10.18L1,14.363z
	 M15,11.816l-4,2.261V3.897l4-2.261V11.816z"/>
</svg>
