<?xml version="1.0" encoding="iso-8859-1"?>
<!-- Generator: Adobe Illustrator 16.0.0, SVG Export Plug-In . SVG Version: 6.00 Build 0)  -->
<!DOCTYPE svg PUBLIC "-//W3C//DTD SVG 1.1//EN" "http://www.w3.org/Graphics/SVG/1.1/DTD/svg11.dtd">
<svg version="1.1" id="Layer" xmlns="http://www.w3.org/2000/svg" xmlns:xlink="http://www.w3.org/1999/xlink" x="0px" y="0px"
	 width="24px" height="24px" viewBox="0 0 24 24" style="enable-background:new 0 0 24 24;" xml:space="preserve">
<path style="fill:#231F20;" d="M22.314,2.059c-0.214-0.119-0.452-0.182-0.689-0.182c-0.236,0-0.472,0.062-0.684,0.179l-5.483,3.137
	L9.113,2.023c-0.194-0.1-0.403-0.146-0.614-0.146c-0.236,0-0.472,0.062-0.684,0.179L1.691,5.558C1.266,5.806,1,6.261,1,6.754v13.994
	c0,0.491,0.26,0.944,0.686,1.193c0.214,0.119,0.452,0.182,0.689,0.182c0.236,0,0.472-0.062,0.684-0.179l5.482-3.136l0.001-0.001
	l6.345,3.169c0.194,0.1,0.403,0.146,0.614,0.146c0.236,0,0.472-0.062,0.684-0.179l6.124-3.502C22.734,18.194,23,17.739,23,17.246
	V3.252C23,2.761,22.74,2.308,22.314,2.059z M9.25,3.596l5.5,2.814v13.994l-5.5-2.814V3.596z M2.375,20.748V6.754l5.5-3.11v14
	L2.375,20.748z M21.625,17.246l-5.5,3.11v-14l5.5-3.104V17.246z"/>
</svg>
