<?xml version="1.0" encoding="iso-8859-1"?>
<!-- Generator: Adobe Illustrator 16.0.0, SVG Export Plug-In . SVG Version: 6.00 Build 0)  -->
<!DOCTYPE svg PUBLIC "-//W3C//DTD SVG 1.1//EN" "http://www.w3.org/Graphics/SVG/1.1/DTD/svg11.dtd">
<svg version="1.1" id="Layer" xmlns="http://www.w3.org/2000/svg" xmlns:xlink="http://www.w3.org/1999/xlink" x="0px" y="0px"
	 width="24px" height="24px" viewBox="0 0 24 24" style="enable-background:new 0 0 24 24;" xml:space="preserve">
<path style="fill:#231F20;" d="M8.583,11.275V5.722c0-1.819,1.527-3.299,3.408-3.299c1.879,0,3.407,1.479,3.428,3.388
	c0.022,0.042,0.149,0.265,0.42,0.455l0.983,0.686V5.722C16.821,3.12,14.654,1,11.99,1C9.326,1,7.158,3.12,7.158,5.722v5.554H6.347
	c-1.244,0-2.256,1.018-2.256,2.257L4.091,23h13.542c1.256,0,2.277-1.012,2.277-2.256v-9.469H8.583z M18.497,20.744
	c0,0.467-0.387,0.84-0.864,0.84H5.504L5.503,13.54c0-0.469,0.377-0.85,0.844-0.85h12.15V20.744z"/>
</svg>
