<?xml version="1.0" encoding="iso-8859-1"?>
<!-- Generator: Adobe Illustrator 16.0.0, SVG Export Plug-In . SVG Version: 6.00 Build 0)  -->
<!DOCTYPE svg PUBLIC "-//W3C//DTD SVG 1.1//EN" "http://www.w3.org/Graphics/SVG/1.1/DTD/svg11.dtd">
<svg version="1.1" id="Layer" xmlns="http://www.w3.org/2000/svg" xmlns:xlink="http://www.w3.org/1999/xlink" x="0px" y="0px"
	 width="16px" height="16px" viewBox="0 0 16 16" style="enable-background:new 0 0 16 16;" xml:space="preserve">
<path style="fill:#231F20;" d="M4.5,8V4.391C4.5,2.521,6.07,1,8,1s3.5,1.521,3.5,3.391c0,0,0.107,0.207,0.347,0.375l0.649,0.454
	c0-0.007,0.004-0.013,0.004-0.02v-0.81C12.5,1.97,10.481,0,8,0S3.5,1.97,3.5,4.391V8h0c-1.105,0-2,0.895-2,2v6h11
	c1.104,0,2-0.895,2-2V8H4.5z M13.5,14c0,0.552-0.449,1-1,1h-10v-5c0-0.552,0.449-1,1-1h10V14z"/>
</svg>
