<?xml version="1.0" encoding="iso-8859-1"?>
<!-- Generator: Adobe Illustrator 16.0.0, SVG Export Plug-In . SVG Version: 6.00 Build 0)  -->
<!DOCTYPE svg PUBLIC "-//W3C//DTD SVG 1.1//EN" "http://www.w3.org/Graphics/SVG/1.1/DTD/svg11.dtd">
<svg version="1.1" id="Layer" xmlns="http://www.w3.org/2000/svg" xmlns:xlink="http://www.w3.org/1999/xlink" x="0px" y="0px"
	 width="24px" height="24px" viewBox="0 0 24 24" style="enable-background:new 0 0 24 24;" xml:space="preserve">
<path style="fill:#231F20;" d="M16.821,11.275V5.722C16.821,3.12,14.653,1,11.99,1C9.326,1,7.158,3.12,7.158,5.722v5.554H6.347
	c-1.244,0-2.256,1.018-2.256,2.257V23h13.545c1.253,0,2.273-1.012,2.273-2.256v-9.469H16.821z M8.582,5.722
	c0-1.819,1.528-3.299,3.408-3.299c1.879,0,3.407,1.479,3.38,3.285l0.027,0.471v5.097H8.582V5.722z M18.497,20.744
	c0,0.467-0.387,0.84-0.861,0.84H5.504l-0.001-8.052c0-0.461,0.377-0.842,0.844-0.842h12.15V20.744z"/>
</svg>
