<?xml version="1.0" encoding="iso-8859-1"?>
<!-- Generator: Adobe Illustrator 16.0.0, SVG Export Plug-In . SVG Version: 6.00 Build 0)  -->
<!DOCTYPE svg PUBLIC "-//W3C//DTD SVG 1.1//EN" "http://www.w3.org/Graphics/SVG/1.1/DTD/svg11.dtd">
<svg version="1.1" id="Layer_4_copy_2" xmlns="http://www.w3.org/2000/svg" xmlns:xlink="http://www.w3.org/1999/xlink" x="0px"
	 y="0px" width="16px" height="16px" viewBox="0 0 16 16" style="enable-background:new 0 0 16 16;" xml:space="preserve">
<path style="fill:#231F20;" d="M14.661,1.343c-1.755-1.755-4.57-1.795-6.276-0.089L6.794,2.845C6.042,3.598,5.65,4.569,5.575,5.569
	C4.573,5.643,3.598,6.035,2.842,6.791L1.251,8.382c-1.702,1.702-1.663,4.517,0.088,6.275c1.755,1.755,4.57,1.795,6.276,0.089
	l1.591-1.591c0.752-0.753,1.144-1.725,1.219-2.725c1.002-0.073,1.978-0.466,2.733-1.222l1.591-1.591
	C16.451,5.916,16.412,3.102,14.661,1.343z M8.499,12.448l-1.591,1.591c-1.316,1.316-3.497,1.276-4.861-0.089
	c-1.364-1.37-1.401-3.548-0.088-4.861l1.591-1.591c0.57-0.569,1.303-0.87,2.06-0.934c0.139,0.93,0.553,1.832,1.273,2.556
	c0.72,0.721,1.621,1.136,2.548,1.275C9.365,11.15,9.066,11.881,8.499,12.448z M6.615,6.611C7.27,6.748,7.897,7.074,8.411,7.587
	c0.514,0.516,0.838,1.146,0.974,1.802C8.73,9.252,8.103,8.926,7.589,8.413C7.076,7.897,6.751,7.267,6.615,6.611z M14.042,6.911
	l-1.591,1.591c-0.57,0.569-1.303,0.87-2.06,0.934c-0.139-0.93-0.553-1.832-1.273-2.556c-0.72-0.721-1.621-1.136-2.548-1.275
	C6.635,4.85,6.934,4.119,7.501,3.552l1.591-1.591c1.316-1.316,3.497-1.276,4.861,0.089C15.317,3.42,15.354,5.598,14.042,6.911z"/>
</svg>
