<?xml version="1.0" encoding="iso-8859-1"?>
<!-- Generator: Adobe Illustrator 16.0.0, SVG Export Plug-In . SVG Version: 6.00 Build 0)  -->
<!DOCTYPE svg PUBLIC "-//W3C//DTD SVG 1.1//EN" "http://www.w3.org/Graphics/SVG/1.1/DTD/svg11.dtd">
<svg version="1.1" id="Layer_4" xmlns="http://www.w3.org/2000/svg" xmlns:xlink="http://www.w3.org/1999/xlink" x="0px" y="0px"
	 width="24px" height="24px" viewBox="0 0 24 24" style="enable-background:new 0 0 24 24;" xml:space="preserve">
<path style="fill:#231F20;" d="M5.773,23c-1.277,0-2.477-0.496-3.376-1.397C1.496,20.703,1,19.504,1,18.226
	c0-1.277,0.496-2.477,1.397-3.378l2.162-2.162c0.901-0.901,2.1-1.396,3.377-1.396c0.939,0,1.848,0.271,2.626,0.783l0.216,0.144
	l1.438-1.437l-0.143-0.218c-1.241-1.883-0.983-4.408,0.613-6.003l2.161-2.162C15.749,1.495,16.948,1,18.226,1
	c1.277,0,2.477,0.495,3.377,1.396c1.863,1.862,1.863,4.894,0,6.755l-2.162,2.162c-0.9,0.901-2.1,1.396-3.377,1.396l0,0
	c-0.939,0-1.848-0.271-2.626-0.781l-0.216-0.145l-1.437,1.438l0.142,0.217c1.24,1.885,0.982,4.409-0.613,6.002l-2.161,2.162
	C8.251,22.504,7.052,23,5.773,23z M7.918,12.696c-0.896,0-1.737,0.349-2.37,0.981l-2.16,2.161c-0.638,0.637-0.989,1.484-0.989,2.386
	c0,0.902,0.352,1.75,0.989,2.388C4.026,21.249,4.874,21.6,5.774,21.6c0.901,0,1.749-0.351,2.386-0.987l2.162-2.162
	c1-0.998,1.264-2.533,0.656-3.82l-0.193-0.411L8.5,16.504c-0.134,0.135-0.313,0.208-0.503,0.208c-0.189,0-0.368-0.073-0.501-0.208
	c-0.278-0.277-0.278-0.728,0-1.005l2.284-2.284l-0.409-0.192C8.92,12.81,8.417,12.696,7.918,12.696z M16.002,7.287
	c0.189,0,0.368,0.075,0.502,0.209c0.135,0.134,0.208,0.313,0.208,0.503c0,0.189-0.074,0.367-0.208,0.501l-2.285,2.286l0.409,0.191
	c0.451,0.213,0.953,0.326,1.451,0.326c0.896,0,1.738-0.35,2.37-0.982l2.163-2.161c0.637-0.637,0.988-1.483,0.988-2.386
	c0-0.9-0.351-1.749-0.988-2.388c-0.638-0.637-1.485-0.987-2.387-0.987c-0.901,0-1.749,0.351-2.387,0.987l-2.16,2.162
	c-1,0.999-1.264,2.534-0.656,3.82l0.193,0.409L15.5,7.496C15.634,7.362,15.812,7.287,16.002,7.287z"/>
</svg>
