<?xml version="1.0" encoding="iso-8859-1"?>
<!-- Generator: Adobe Illustrator 16.0.0, SVG Export Plug-In . SVG Version: 6.00 Build 0)  -->
<!DOCTYPE svg PUBLIC "-//W3C//DTD SVG 1.1//EN" "http://www.w3.org/Graphics/SVG/1.1/DTD/svg11.dtd">
<svg version="1.1" id="Layer_4" xmlns="http://www.w3.org/2000/svg" xmlns:xlink="http://www.w3.org/1999/xlink" x="0px" y="0px"
	 width="24px" height="24px" viewBox="0 0 24 24" style="enable-background:new 0 0 24 24;" xml:space="preserve">
<path style="fill:#231F20;" d="M5.774,22.999c-1.277,0-2.477-0.496-3.376-1.396C1.496,20.703,1,19.504,1,18.226
	s0.496-2.478,1.397-3.378l2.161-2.162c0.9-0.9,2.1-1.396,3.377-1.396s2.477,0.496,3.377,1.396c1.862,1.863,1.862,4.894,0,6.755
	l-2.161,2.162C8.252,22.503,7.052,22.999,5.774,22.999z M7.936,12.689c-0.901,0-1.749,0.352-2.387,0.988l-2.16,2.16
	c-0.638,0.638-0.989,1.485-0.989,2.387c0,0.902,0.352,1.75,0.989,2.387C4.026,21.249,4.874,21.6,5.774,21.6
	c0.902,0,1.75-0.351,2.386-0.988l2.162-2.162c0.638-0.637,0.989-1.485,0.989-2.386c0-0.902-0.352-1.749-0.989-2.386
	S8.837,12.689,7.936,12.689z M16.063,12.71c-1.277,0-2.477-0.496-3.377-1.396c-0.901-0.9-1.398-2.1-1.398-3.378
	c0-1.276,0.497-2.476,1.398-3.377l2.161-2.162C15.749,1.496,16.948,1,18.226,1c1.277,0,2.477,0.496,3.377,1.396
	c1.862,1.862,1.862,4.894,0,6.755l-2.162,2.162C18.541,12.214,17.341,12.71,16.063,12.71z M18.226,2.399
	c-0.901,0-1.749,0.351-2.387,0.988l-2.16,2.162c-0.639,0.637-0.989,1.485-0.989,2.386s0.351,1.749,0.989,2.386
	c0.637,0.639,1.485,0.989,2.386,0.989c0.901,0,1.749-0.351,2.386-0.989l2.162-2.16c0.638-0.638,0.988-1.484,0.988-2.387
	c0-0.9-0.351-1.749-0.988-2.387S19.127,2.399,18.226,2.399z M7.483,5.899l0.854-0.854c0.253-0.254,0.338-0.53,0.276-0.893
	L8.169,1.75L7.314,2.604C7.062,2.855,6.977,3.132,7.039,3.495L7.483,5.899z M5.037,8.328l0.854-0.854l-2.4-0.443
	C3.415,7.017,3.342,7.01,3.271,7.01c-0.261,0-0.477,0.094-0.677,0.294L1.74,8.159l2.4,0.443c0.074,0.013,0.147,0.02,0.217,0.02
	C4.621,8.622,4.837,8.528,5.037,8.328z M21.397,16.686l0.854-0.854l-2.4-0.443c-0.076-0.014-0.148-0.021-0.219-0.021
	c-0.261,0-0.476,0.094-0.677,0.296l-0.854,0.854L20.5,16.96c0.074,0.013,0.146,0.02,0.215,0.02
	C20.98,16.979,21.197,16.886,21.397,16.686z M15.841,22.26l0.854-0.854c0.253-0.254,0.338-0.53,0.275-0.893l-0.444-2.404
	l-0.854,0.854c-0.252,0.252-0.337,0.528-0.276,0.892L15.841,22.26z"/>
</svg>
