<?xml version="1.0" encoding="iso-8859-1"?>
<!-- Generator: Adobe Illustrator 16.0.0, SVG Export Plug-In . SVG Version: 6.00 Build 0)  -->
<!DOCTYPE svg PUBLIC "-//W3C//DTD SVG 1.1//EN" "http://www.w3.org/Graphics/SVG/1.1/DTD/svg11.dtd">
<svg version="1.1" id="Layer_copy" xmlns="http://www.w3.org/2000/svg" xmlns:xlink="http://www.w3.org/1999/xlink" x="0px" y="0px"
	 width="16px" height="16px" viewBox="0 0 16 16" style="enable-background:new 0 0 16 16;" xml:space="preserve">
<path style="fill:#231F20;" d="M10.403,10.445c-0.019,0.241-0.058,0.48-0.114,0.715c-0.005,0.022-0.143,0.487-0.229,0.689
	c-0.036,0.083-0.269,0.533-0.36,0.67c-0.15,0.224-0.318,0.438-0.515,0.635l-1.591,1.591c-0.853,0.853-1.983,1.27-3.12,1.254
	c-1.136-0.017-2.279-0.465-3.156-1.343c-0.985-0.989-1.408-2.311-1.304-3.582c0.081-0.989,0.472-1.948,1.216-2.693L2.822,6.79
	C2.979,6.632,3.149,6.5,3.321,6.373c0.167-0.117,0.523-0.308,0.523-0.308C3.87,6.05,3.92,6.02,4,6.022C4,6.17,4,6.831,4,6.831
	C3.993,7.039,3.877,7.183,3.749,7.311c-0.074,0.062-0.15,0.116-0.22,0.187L1.938,9.088C1.61,9.416,1.366,9.799,1.207,10.209
	c-0.479,1.23-0.203,2.713,0.819,3.74c0.683,0.683,1.569,1.034,2.449,1.05c0.881,0.017,1.755-0.303,2.413-0.961l1.591-1.591
	c0.151-0.15,0.28-0.314,0.393-0.485c0.068-0.101,0.246-0.443,0.275-0.512c0.065-0.148,0.17-0.501,0.175-0.523
	c0.044-0.176,0.073-0.353,0.088-0.533c0-0.001,0-0.002,0-0.003c0.028-0.334,0.022-0.671-0.046-1.003
	C9.361,9.37,9.354,9.353,9.35,9.335C9.31,9.156,9.254,8.981,9.186,8.809C9.163,8.751,8.975,8.367,8.894,8.236
	c-0.032-0.052-0.349-0.495-0.503-0.65C8.336,7.53,8.275,7.485,8.217,7.437C8.086,7.307,8.008,7.162,8,6.951v-0.79
	c0.021-0.003,0.123,0.006,0.168,0.021C8.234,6.22,8.3,6.257,8.364,6.299C8.376,6.311,8.591,6.46,8.683,6.528
	c0.141,0.11,0.284,0.22,0.414,0.351c0.006,0.007,0.011,0.014,0.018,0.021c0.189,0.193,0.354,0.4,0.503,0.615
	c0.077,0.112,0.14,0.23,0.205,0.348C9.882,7.967,9.941,8.07,9.991,8.178c0.076,0.165,0.141,0.332,0.196,0.503
	c0.017,0.052,0.155,0.566,0.185,0.774h0C10.42,9.785,10.429,10.115,10.403,10.445z M5.627,6.543L5.627,6.543
	c0.03,0.208,0.168,0.723,0.186,0.774c0.055,0.171,0.12,0.338,0.196,0.503c0.05,0.107,0.109,0.211,0.168,0.315
	c0.065,0.117,0.129,0.235,0.205,0.348c0.149,0.215,0.313,0.422,0.503,0.615c0.007,0.007,0.012,0.014,0.018,0.021
	C7.034,9.25,7.176,9.359,7.317,9.47c0.092,0.068,0.308,0.218,0.319,0.229c0.064,0.042,0.13,0.079,0.195,0.116
	C7.877,9.831,7.979,9.84,8,9.837v-0.79C7.992,8.836,7.915,8.691,7.783,8.562C7.725,8.513,7.665,8.468,7.61,8.412
	c-0.155-0.155-0.472-0.599-0.504-0.65C7.025,7.631,6.837,7.247,6.814,7.189C6.747,7.017,6.69,6.842,6.65,6.663
	C6.646,6.646,6.639,6.628,6.635,6.61C6.567,6.278,6.561,5.941,6.589,5.607c0-0.001,0-0.002,0-0.003
	c0.016-0.181,0.045-0.357,0.089-0.533c0.005-0.022,0.109-0.375,0.175-0.523C6.882,4.479,7.06,4.137,7.128,4.036
	c0.113-0.17,0.242-0.334,0.393-0.484l1.591-1.591C9.77,1.303,10.644,0.983,11.525,1c0.88,0.016,1.767,0.367,2.449,1.05
	c1.022,1.027,1.299,2.509,0.819,3.739c-0.159,0.41-0.403,0.793-0.731,1.121l-1.591,1.591c-0.07,0.07-0.146,0.125-0.22,0.187
	C12.123,8.815,12.008,8.959,12,9.167v0.809c0,0,0.11-0.019,0.156-0.043c0,0,0.356-0.19,0.523-0.308
	c0.172-0.127,0.342-0.259,0.499-0.417l1.591-1.591c0.744-0.745,1.136-1.704,1.216-2.693c0.104-1.271-0.319-2.592-1.304-3.581
	C13.803,0.465,12.661,0.017,11.525,0c-1.137-0.016-2.267,0.401-3.12,1.254L6.814,2.845C6.618,3.041,6.45,3.256,6.299,3.479
	C6.208,3.616,5.976,4.065,5.94,4.148C5.853,4.351,5.716,4.815,5.71,4.838C5.655,5.072,5.616,5.312,5.597,5.553
	C5.571,5.883,5.58,6.213,5.627,6.543z"/>
</svg>
