<?xml version="1.0" encoding="iso-8859-1"?>
<!-- Generator: Adobe Illustrator 16.0.0, SVG Export Plug-In . SVG Version: 6.00 Build 0)  -->
<!DOCTYPE svg PUBLIC "-//W3C//DTD SVG 1.1//EN" "http://www.w3.org/Graphics/SVG/1.1/DTD/svg11.dtd">
<svg version="1.1" id="Layer" xmlns="http://www.w3.org/2000/svg" xmlns:xlink="http://www.w3.org/1999/xlink" x="0px" y="0px"
	 width="24px" height="24px" viewBox="0 0 24 24" style="enable-background:new 0 0 24 24;" xml:space="preserve">
<path style="fill:#231F20;" d="M18.265,17.588c1.828-1.757,2.973-4.217,2.973-6.945C21.237,5.323,16.912,1,11.594,1
	c-5.316,0-9.64,4.323-9.64,9.643c0,5.315,4.324,9.645,9.64,9.645c2.092,0,4.025-0.681,5.606-1.816l2.853,4.074
	C20.281,22.854,20.555,23,20.949,23h1.097L18.265,17.588z M3.331,10.643c0-4.568,3.699-8.266,8.263-8.266s8.266,3.697,8.266,8.266
	c0,4.563-3.702,8.268-8.266,8.268S3.331,15.206,3.331,10.643z M12.283,11.33v1.896c0,0.403-0.146,0.686-0.476,0.918l-0.901,0.629
	V11.33H9.011c-0.405-0.001-0.686-0.147-0.919-0.476L7.464,9.953h3.442v-1.9c0.001-0.399,0.149-0.687,0.48-0.913l0.897-0.634v3.447
	h1.898c0.405,0.001,0.686,0.149,0.916,0.479l0.63,0.898H12.283z"/>
</svg>
