<?xml version="1.0" encoding="iso-8859-1"?>
<!-- Generator: Adobe Illustrator 16.0.0, SVG Export Plug-In . SVG Version: 6.00 Build 0)  -->
<!DOCTYPE svg PUBLIC "-//W3C//DTD SVG 1.1//EN" "http://www.w3.org/Graphics/SVG/1.1/DTD/svg11.dtd">
<svg version="1.1" id="Layer" xmlns="http://www.w3.org/2000/svg" xmlns:xlink="http://www.w3.org/1999/xlink" x="0px" y="0px"
	 width="24px" height="24px" viewBox="0 0 24 24" style="enable-background:new 0 0 24 24;" xml:space="preserve">
<path style="fill:#231F20;" d="M18.266,17.59c1.83-1.758,2.972-4.219,2.972-6.947C21.238,5.324,16.912,1,11.595,1
	c-5.316,0-9.641,4.324-9.641,9.643c0,5.316,4.325,9.644,9.641,9.644c2.092,0,4.025-0.678,5.606-1.813l2.853,4.072
	C20.281,22.857,20.557,23,20.949,23h1.097L18.266,17.59z M3.331,10.643c0-4.566,3.702-8.266,8.264-8.266
	c4.564,0,8.265,3.699,8.265,8.266c0,4.564-3.701,8.267-8.265,8.267C7.033,18.909,3.331,15.207,3.331,10.643z M15.728,11.33H9.011
	c-0.405-0.001-0.687-0.147-0.918-0.477l-0.629-0.9h6.717c0.405,0.001,0.687,0.148,0.919,0.479L15.728,11.33z"/>
</svg>
