<?xml version="1.0" encoding="iso-8859-1"?>
<!-- Generator: Adobe Illustrator 16.0.0, SVG Export Plug-In . SVG Version: 6.00 Build 0)  -->
<!DOCTYPE svg PUBLIC "-//W3C//DTD SVG 1.1//EN" "http://www.w3.org/Graphics/SVG/1.1/DTD/svg11.dtd">
<svg version="1.1" id="Layer" xmlns="http://www.w3.org/2000/svg" xmlns:xlink="http://www.w3.org/1999/xlink" x="0px" y="0px"
	 width="16px" height="16px" viewBox="0 0 16 16" style="enable-background:new 0 0 16 16;" xml:space="preserve">
<path style="fill:#231F20;" d="M15.294,15.979l-2.755-3.935C13.866,10.77,14.696,8.98,14.696,7c0-3.86-3.14-7-7-7
	c-3.859,0-7,3.14-7,7c0,3.861,3.141,7.001,7,7.001c1.519,0,2.922-0.492,4.07-1.315l2.07,2.956c0.165,0.227,0.365,0.331,0.65,0.331
	h0.797L15.304,16C15.299,15.993,15.299,15.985,15.294,15.979z M7.696,13.001c-3.313,0-6-2.686-6-6.001c0-3.314,2.687-6,6-6
	s6,2.686,6,6C13.696,10.315,11.01,13.001,7.696,13.001z M10.554,8.91c0,0.739-0.275,1.299-0.823,1.678
	c-0.295,0.203-0.66,0.35-1.087,0.444c-0.193,0.242-0.422,0.365-0.746,0.367l-0.956-0.002l0.175-0.25
	c-0.573-0.014-1.058-0.063-1.401-0.167c-0.4-0.115-0.674-0.208-0.818-0.267c0.22-0.625,0.813-0.968,1.466-0.85
	c0.389,0.073,0.615,0.078,1.012,0.078c0.587,0,1.025-0.078,1.307-0.232c0.283-0.154,0.425-0.401,0.425-0.738
	c0-0.35-0.14-0.629-0.417-0.834c-0.276-0.204-0.733-0.437-1.37-0.693c-0.31-0.123-0.604-0.248-0.888-0.378
	C6.148,6.938,5.905,6.788,5.698,6.613C5.493,6.437,5.329,6.228,5.206,5.981C5.081,5.732,5.02,5.431,5.02,5.071
	c0-0.709,0.263-1.273,0.786-1.688C6.14,3.118,6.558,2.947,7.045,2.853l0.024-0.034c0.202-0.29,0.448-0.417,0.8-0.419l0.956,0.002
	L8.552,2.792c0.025,0.004,0.05,0.002,0.075,0.005C8.852,2.821,9.065,2.853,9.259,2.89c0.196,0.036,0.369,0.073,0.516,0.116
	c0.151,0.04,0.265,0.076,0.35,0.106C9.881,3.737,9.316,4.079,8.647,3.999c-0.269-0.034-0.422-0.04-0.694-0.04
	c-0.4,0-0.754,0.081-1.054,0.241C6.602,4.36,6.453,4.608,6.453,4.947c0,0.174,0.033,0.328,0.102,0.465
	c0.066,0.133,0.169,0.253,0.307,0.36c0.141,0.108,0.313,0.209,0.518,0.3c0.206,0.093,0.452,0.19,0.741,0.294
	C8.499,6.511,8.839,6.652,9.136,6.79c0.3,0.139,0.551,0.301,0.764,0.484c0.211,0.186,0.373,0.409,0.485,0.672
	C10.497,8.208,10.554,8.527,10.554,8.91z"/>
</svg>
