<?xml version="1.0" encoding="iso-8859-1"?>
<!-- Generator: Adobe Illustrator 16.0.0, SVG Export Plug-In . SVG Version: 6.00 Build 0)  -->
<!DOCTYPE svg PUBLIC "-//W3C//DTD SVG 1.1//EN" "http://www.w3.org/Graphics/SVG/1.1/DTD/svg11.dtd">
<svg version="1.1" id="Layer" xmlns="http://www.w3.org/2000/svg" xmlns:xlink="http://www.w3.org/1999/xlink" x="0px" y="0px"
	 width="24px" height="24px" viewBox="0 0 24 24" style="enable-background:new 0 0 24 24;" xml:space="preserve">
<path style="fill:#231F20;" d="M18.267,17.591c1.828-1.758,2.971-4.22,2.971-6.948C21.238,5.325,16.913,1,11.596,1
	c-5.316,0-9.643,4.325-9.643,9.643s4.326,9.643,9.643,9.643c2.093,0,4.024-0.675,5.606-1.811l2.852,4.07
	C20.281,22.86,20.558,23,20.949,23h1.098L18.267,17.591z M11.596,18.908c-4.564,0-8.265-3.7-8.265-8.266s3.701-8.265,8.265-8.265
	c4.563,0,8.265,3.699,8.265,8.265S16.159,18.908,11.596,18.908z M15.532,13.271c0,1.022-0.379,1.789-1.133,2.315
	c-0.407,0.279-0.911,0.479-1.5,0.609c-0.264,0.336-0.581,0.501-1.026,0.509l-1.319-0.008l0.243-0.345
	c-0.789-0.014-1.456-0.087-1.929-0.226c-0.554-0.163-0.931-0.291-1.128-0.367c0.302-0.861,1.12-1.334,2.017-1.174
	c0.536,0.103,0.848,0.107,1.395,0.107c0.808,0,1.412-0.107,1.799-0.321c0.39-0.207,0.587-0.549,0.587-1.016
	c0-0.479-0.193-0.864-0.577-1.146c-0.379-0.28-1.01-0.602-1.886-0.958c-0.428-0.165-0.834-0.337-1.224-0.52
	c-0.388-0.177-0.723-0.385-1.009-0.624C8.561,9.866,8.335,9.581,8.165,9.24C7.992,8.896,7.907,8.483,7.907,7.988
	c0-0.98,0.363-1.757,1.084-2.325c0.461-0.365,1.035-0.602,1.708-0.731l0.033-0.052c0.279-0.396,0.617-0.57,1.101-0.572l1.319,0.002
	l-0.376,0.538c0.034,0.004,0.067,0.002,0.102,0.005c0.31,0.036,0.604,0.079,0.871,0.128c0.27,0.048,0.508,0.103,0.71,0.158
	c0.208,0.058,0.365,0.105,0.482,0.147c-0.335,0.86-1.114,1.332-2.034,1.223c-0.372-0.046-0.581-0.058-0.957-0.058
	c-0.551,0-1.037,0.116-1.452,0.336c-0.41,0.219-0.615,0.562-0.615,1.029c0,0.239,0.045,0.452,0.14,0.637
	c0.093,0.186,0.234,0.353,0.421,0.495c0.194,0.15,0.432,0.292,0.712,0.418c0.286,0.128,0.623,0.262,1.021,0.4
	c0.523,0.203,0.99,0.398,1.399,0.589c0.415,0.186,0.76,0.413,1.053,0.667c0.291,0.251,0.514,0.562,0.668,0.926
	C15.455,12.305,15.532,12.747,15.532,13.271z"/>
</svg>
