<?xml version="1.0" encoding="iso-8859-1"?>
<!-- Generator: Adobe Illustrator 16.0.0, SVG Export Plug-In . SVG Version: 6.00 Build 0)  -->
<!DOCTYPE svg PUBLIC "-//W3C//DTD SVG 1.1//EN" "http://www.w3.org/Graphics/SVG/1.1/DTD/svg11.dtd">
<svg version="1.1" id="Layer_3" xmlns="http://www.w3.org/2000/svg" xmlns:xlink="http://www.w3.org/1999/xlink" x="0px" y="0px"
	 width="24px" height="24px" viewBox="0 0 24 24" style="enable-background:new 0 0 24 24;" xml:space="preserve">
<path style="fill:#231F20;" d="M23,9.335c0-0.403-0.148-0.662-0.477-0.896L12,1L1.477,8.396C1.148,8.63,1,8.889,1,9.292v1.118
	l0.688-0.48v10.836C1.688,21.995,2.716,23,3.978,23h3.897c0.76,0,1.375-0.624,1.375-1.396v-5.479h5.5v5.479
	c0,0.772,0.615,1.396,1.375,1.396h3.897c1.261,0,2.29-1.005,2.29-2.234V9.965L23,10.453V9.335z M20.938,20.766
	c0,0.466-0.41,0.859-0.915,0.859h-3.897V15.43c0-0.387-0.309-0.68-0.688-0.68H8.562c-0.379,0-0.688,0.293-0.688,0.68v6.195H3.978
	c-0.505,0-0.916-0.372-0.916-0.838V8.957l8.479-5.958C11.695,2.892,11.848,2.84,12,2.84s0.305,0.052,0.459,0.159l8.479,5.995V20.766
	z"/>
</svg>
