<?xml version="1.0" encoding="iso-8859-1"?>
<!-- Generator: Adobe Illustrator 16.0.0, SVG Export Plug-In . SVG Version: 6.00 Build 0)  -->
<!DOCTYPE svg PUBLIC "-//W3C//DTD SVG 1.1//EN" "http://www.w3.org/Graphics/SVG/1.1/DTD/svg11.dtd">
<svg version="1.1" id="Layer_3" xmlns="http://www.w3.org/2000/svg" xmlns:xlink="http://www.w3.org/1999/xlink" x="0px" y="0px"
	 width="16px" height="16px" viewBox="0 0 16 16" style="enable-background:new 0 0 16 16;" xml:space="preserve">
<path style="fill:#231F20;" d="M16,6.062c0-0.292-0.107-0.48-0.348-0.649L8,0L0.348,5.381C0.107,5.55,0,5.738,0,6.03v0.813
	l0.5-0.352v7.883C0.5,15.271,1.248,16,2.167,16H5c0.552,0,1-0.454,1-1.016V11h4v3.984C10,15.546,10.448,16,11,16h2.834
	c0.918,0,1.666-0.729,1.666-1.625V6.521L16,6.875V6.062z M14.5,14.375c0,0.337-0.299,0.625-0.666,0.625H11v-4.508
	C11,10.211,10.776,10,10.5,10h-5C5.224,10,5,10.211,5,10.492V15H2.167C1.799,15,1.5,14.728,1.5,14.391V5.789l6.167-4.335
	C7.777,1.376,7.889,1.336,8,1.336s0.223,0.04,0.333,0.118l6.167,4.36V14.375z"/>
</svg>
