<?xml version="1.0" encoding="iso-8859-1"?>
<!-- Generator: Adobe Illustrator 16.0.0, SVG Export Plug-In . SVG Version: 6.00 Build 0)  -->
<!DOCTYPE svg PUBLIC "-//W3C//DTD SVG 1.1//EN" "http://www.w3.org/Graphics/SVG/1.1/DTD/svg11.dtd">
<svg version="1.1" id="Layer_3" xmlns="http://www.w3.org/2000/svg" xmlns:xlink="http://www.w3.org/1999/xlink" x="0px" y="0px"
	 width="24px" height="24px" viewBox="0 0 24 24" style="enable-background:new 0 0 24 24;" xml:space="preserve">
<path style="fill:#231F20;" d="M10.625,14.75L9.99,15.669c-0.228,0.328-0.495,0.455-0.894,0.456H7.188V14.75H10.625z M10.625,12
	L9.99,12.919c-0.228,0.328-0.495,0.455-0.894,0.456H7.188V12H10.625z M10.625,9.25L9.99,10.169
	c-0.228,0.328-0.495,0.455-0.894,0.456H7.188V9.25H10.625z M16.812,14.75l-0.635,0.919c-0.228,0.328-0.495,0.455-0.894,0.456h-1.908
	V14.75H16.812z M16.812,12l-0.635,0.919c-0.228,0.328-0.495,0.455-0.894,0.456h-1.908V12H16.812z M16.812,9.25l-0.635,0.919
	c-0.228,0.328-0.495,0.455-0.894,0.456h-1.908V9.25H16.812z M10.625,6.5L9.99,7.419C9.762,7.747,9.495,7.874,9.096,7.875H7.188V6.5
	H10.625z M16.812,6.5l-0.635,0.919c-0.228,0.328-0.495,0.455-0.894,0.456h-1.908V6.5H16.812z M18.7,3.577l-6.188-2.477
	C12.346,1.035,12.173,1,12,1s-0.346,0.035-0.513,0.101L5.3,3.577C4.78,3.788,4.438,4.29,4.438,4.852v16.773
	C4.438,22.383,5.052,23,5.812,23h4.125c0.76,0,1.375-0.617,1.375-1.375V20.25h1.375v1.375c0,0.758,0.615,1.375,1.375,1.375h4.125
	c0.76,0,1.375-0.617,1.375-1.375V4.852C19.562,4.29,19.22,3.788,18.7,3.577z M18.188,21.625h-4.125v-2.062
	c0-0.382-0.309-0.688-0.688-0.688h-2.75c-0.379,0-0.688,0.306-0.688,0.688v2.062H5.812V4.852L12,2.375l6.188,2.477V21.625z"/>
</svg>
