<?xml version="1.0" encoding="utf-8"?>
<!-- Generator: Adobe Illustrator 16.0.0, SVG Export Plug-In . SVG Version: 6.00 Build 0)  -->
<!DOCTYPE svg PUBLIC "-//W3C//DTD SVG 1.1//EN" "http://www.w3.org/Graphics/SVG/1.1/DTD/svg11.dtd">
<svg version="1.1" id="Layer_3" xmlns="http://www.w3.org/2000/svg" xmlns:xlink="http://www.w3.org/1999/xlink" x="0px" y="0px"
	 width="16px" height="16px" viewBox="0 0 16 16" enable-background="new 0 0 16 16" xml:space="preserve">
<path fill="#231F20" d="M7,10l-0.462,0.667c-0.167,0.24-0.36,0.332-0.651,0.333H4.5v-1H7z M7,8L6.538,8.667
	C6.371,8.907,6.177,8.999,5.887,9H4.5V8H7z M7,6L6.538,6.667C6.371,6.907,6.177,6.999,5.887,7H4.5V6H7z M11.5,10l-0.462,0.667
	c-0.167,0.24-0.36,0.332-0.651,0.333H9v-1H11.5z M11.5,8l-0.462,0.667c-0.167,0.24-0.36,0.332-0.651,0.333H9V8H11.5z M11.5,6
	l-0.462,0.667c-0.167,0.24-0.36,0.332-0.651,0.333H9V6H11.5z M7,4L6.538,4.667C6.371,4.907,6.177,4.999,5.887,5H4.5V4H7z M11.5,4
	l-0.462,0.667c-0.167,0.24-0.36,0.332-0.651,0.333H9V4H11.5z M12.872,1.874l-4.5-1.803C8.252,0.023,8.126,0,8,0
	S7.748,0.023,7.628,0.071l-4.5,1.803C2.749,2.026,2.5,2.394,2.5,2.803V15c0,0.553,0.448,1,1,1h3c0.552,0,1-0.447,1-1v-1h1v1
	c0,0.553,0.448,1,1,1h3c0.552,0,1-0.447,1-1V2.803C13.5,2.394,13.251,2.026,12.872,1.874z M12.5,15h-3v-1.5
	C9.5,13.224,9.276,13,9,13H7c-0.276,0-0.5,0.224-0.5,0.5V15h-3V2.803L8,1l4.5,1.803V15z"/>
</svg>
