<?xml version="1.0" encoding="iso-8859-1"?>
<!-- Generator: Adobe Illustrator 16.0.0, SVG Export Plug-In . SVG Version: 6.00 Build 0)  -->
<!DOCTYPE svg PUBLIC "-//W3C//DTD SVG 1.1//EN" "http://www.w3.org/Graphics/SVG/1.1/DTD/svg11.dtd">
<svg version="1.1" id="Layer_4" xmlns="http://www.w3.org/2000/svg" xmlns:xlink="http://www.w3.org/1999/xlink" x="0px" y="0px"
	 width="16px" height="16px" viewBox="0 0 16 16" style="enable-background:new 0 0 16 16;" xml:space="preserve">
<path style="fill-rule:evenodd;clip-rule:evenodd;fill:#231F20;" d="M1,16c-0.552,0-1-0.447-1-1V7c0-0.334,0.167-0.646,0.445-0.832
	l3-2C3.613,4.057,3.806,4,4,4c0.162,0,0.324,0.039,0.472,0.118C4.797,4.292,5,4.631,5,5v0.132l1.445-0.964C6.613,4.057,6.806,4,7,4
	c0.162,0,0.324,0.039,0.472,0.118C7.797,4.292,8,4.631,8,5v0.132l1.445-0.964C9.613,4.057,9.806,4,10,4
	c0.162,0,0.324,0.039,0.472,0.118C10.797,4.292,11,4.631,11,5v1h1V3c-0.316,0-0.614-0.149-0.802-0.403
	c-0.188-0.253-0.247-0.581-0.156-0.884C11.279,0.923,11.934,0,13,0h2c0.552,0,1,0.447,1,1v14c0,0.553-0.448,1-1,1H1z M15,2V1
	c0,0-1,0-2,0c-0.7,0-1,1-1,1h1v5h-3V5L7,7V5L4,7V5L1,7v8h14V7V2z"/>
</svg>
