<?xml version="1.0" encoding="iso-8859-1"?>
<!-- Generator: Adobe Illustrator 16.0.0, SVG Export Plug-In . SVG Version: 6.00 Build 0)  -->
<!DOCTYPE svg PUBLIC "-//W3C//DTD SVG 1.1//EN" "http://www.w3.org/Graphics/SVG/1.1/DTD/svg11.dtd">
<svg version="1.1" id="Layer_4" xmlns="http://www.w3.org/2000/svg" xmlns:xlink="http://www.w3.org/1999/xlink" x="0px" y="0px"
	 width="24px" height="24px" viewBox="0 0 24 24" style="enable-background:new 0 0 24 24;" xml:space="preserve">
<path style="fill:#231F20;" d="M22.842,2.249C22.601,1.791,22.123,1.5,21.602,1.5h-5.276c-0.524,0-1.002,0.291-1.241,0.749
	c-0.241,0.464-0.206,1.025,0.095,1.453l1.073,1.532v3.373h-2.675V6.509c0-0.567-0.343-1.078-0.864-1.292
	c-0.173-0.076-0.354-0.107-0.534-0.107c-0.363,0-0.721,0.138-0.988,0.408l-0.696,0.696C10.4,5.771,10.092,5.392,9.665,5.217
	C9.489,5.141,9.308,5.109,9.128,5.109c-0.363,0-0.721,0.138-0.988,0.408L7.446,6.214C7.351,5.771,7.044,5.392,6.613,5.217
	C6.44,5.141,6.259,5.109,6.079,5.109c-0.366,0-0.721,0.138-0.988,0.408l-3.68,3.685C1.147,9.462,1,9.818,1,10.187L0.998,21.102
	c0,0.77,0.626,1.398,1.399,1.398h17.916c0.77,0,1.396-0.629,1.396-1.398L21.71,5.184l1.037-1.481
	C23.046,3.274,23.083,2.713,22.842,2.249z M20.314,4.741l-0.002,16.36H2.397l0.002-10.915l3.68-3.678v3.047l3.049-3.047v3.047
	l3.051-3.047V10h5.472V4.791l-1.326-1.893h5.276L20.314,4.741z"/>
</svg>
