<?xml version="1.0" encoding="iso-8859-1"?>
<!-- Generator: Adobe Illustrator 16.0.0, SVG Export Plug-In . SVG Version: 6.00 Build 0)  -->
<!DOCTYPE svg PUBLIC "-//W3C//DTD SVG 1.1//EN" "http://www.w3.org/Graphics/SVG/1.1/DTD/svg11.dtd">
<svg version="1.1" id="Layer_3" xmlns="http://www.w3.org/2000/svg" xmlns:xlink="http://www.w3.org/1999/xlink" x="0px" y="0px"
	 width="16px" height="16px" viewBox="0 0 16 16" style="enable-background:new 0 0 16 16;" xml:space="preserve">
<path style="fill:#231F20;" d="M0,16l0.467-0.667C0.635,15.093,0.83,15.001,1.123,15h13.754c0.293,0.001,0.488,0.093,0.656,0.333
	L16,16H0z M1,14l0.467-0.667C1.635,13.093,1.83,13.001,2.123,13h11.754c0.293,0.001,0.488,0.093,0.656,0.333L15,14H1z M3,7.5v4.078
	c-0.001,0.293-0.094,0.488-0.333,0.656L2,12.7V8.623C2.001,8.33,2.093,8.135,2.333,7.967L3,7.5z M6,7.5v4.078
	c-0.001,0.293-0.094,0.488-0.333,0.656L5,12.7V8.623C5.001,8.33,5.093,8.135,5.333,7.967L6,7.5z M10.667,7.967
	C10.907,8.135,10.999,8.33,11,8.623V12.7l-0.667-0.466c-0.24-0.168-0.333-0.363-0.333-0.656V7.5L10.667,7.967z M13.667,7.967
	C13.907,8.135,13.999,8.33,14,8.623V12.7l-0.667-0.466c-0.24-0.168-0.333-0.363-0.333-0.656V7.5L13.667,7.967z M15.986,6
	c-0.017-0.253-0.114-0.433-0.334-0.588L8,0L0.348,5.381C0.117,5.543,0.015,5.728,0.007,6H0v0.03v0.813V7h16V6.875V6.062V6H15.986z
	 M1.2,6l6.467-4.546C7.777,1.376,7.889,1.336,8,1.336s0.223,0.04,0.333,0.118L14.763,6H1.2z M7,4c0,0.553,0.447,1,1,1s1-0.447,1-1
	S8.553,3,8,3S7,3.447,7,4z"/>
</svg>
