<?xml version="1.0" encoding="iso-8859-1"?>
<!-- Generator: Adobe Illustrator 16.0.0, SVG Export Plug-In . SVG Version: 6.00 Build 0)  -->
<!DOCTYPE svg PUBLIC "-//W3C//DTD SVG 1.1//EN" "http://www.w3.org/Graphics/SVG/1.1/DTD/svg11.dtd">
<svg version="1.1" id="Layer_3" xmlns="http://www.w3.org/2000/svg" xmlns:xlink="http://www.w3.org/1999/xlink" x="0px" y="0px"
	 width="24px" height="24px" viewBox="0 0 24 24" style="enable-background:new 0 0 24 24;" xml:space="preserve">
<path style="fill:#231F20;" d="M1.292,22.449l0.61-0.869c0.28-0.401,0.577-0.551,1.092-0.551h18.011
	c0.516,0,0.812,0.149,1.092,0.551l0.611,0.869H1.292z M19.972,18.395c-0.29-0.204-0.421-0.46-0.422-0.823v-4.489l0.998,0.686
	c0.292,0.204,0.422,0.459,0.423,0.818v4.488L19.972,18.395z M14.801,18.395c-0.29-0.204-0.423-0.46-0.424-0.823v-4.489l0.997,0.686
	c0.292,0.204,0.423,0.459,0.427,0.818v4.488L14.801,18.395z M8.23,14.586c0.001-0.359,0.132-0.615,0.426-0.819l0.995-0.685v4.49
	c-0.001,0.361-0.132,0.615-0.425,0.823L8.23,19.074V14.586z M3.06,14.586c0.001-0.359,0.132-0.615,0.423-0.819l0.998-0.685v4.49
	c-0.001,0.356-0.138,0.619-0.429,0.823L3.06,19.074V14.586z M1,11.134V9.803l0.009-0.146c0.01-0.284,0.101-0.454,0.345-0.619
	L12,1.551l10.644,7.527c0.229,0.165,0.322,0.325,0.338,0.589L23,9.925v1.209H1z M2.866,9.71h18.21l-9.079-6.425L2.866,9.71z
	 M12,7.019c-0.394,0-0.71-0.322-0.71-0.716c0-0.39,0.317-0.708,0.71-0.708s0.71,0.318,0.71,0.708C12.71,6.696,12.394,7.019,12,7.019
	z"/>
</svg>
