<?xml version="1.0" encoding="iso-8859-1"?>
<!-- Generator: Adobe Illustrator 16.0.0, SVG Export Plug-In . SVG Version: 6.00 Build 0)  -->
<!DOCTYPE svg PUBLIC "-//W3C//DTD SVG 1.1//EN" "http://www.w3.org/Graphics/SVG/1.1/DTD/svg11.dtd">
<svg version="1.1" id="Layer_copy" xmlns="http://www.w3.org/2000/svg" xmlns:xlink="http://www.w3.org/1999/xlink" x="0px" y="0px"
	 width="16px" height="16px" viewBox="0 0 16 16" style="enable-background:new 0 0 16 16;" xml:space="preserve">
<path style="fill:#231F20;" d="M16,7.798L13.932,2.63c-0.094-0.235-0.275-0.409-0.492-0.516l0.378-0.542
	c0.214-0.305,0.24-0.703,0.067-1.034C13.714,0.207,13.372,0,12.999,0h-10C2.626,0,2.284,0.207,2.112,0.538
	C1.94,0.869,1.966,1.268,2.18,1.572l0.383,0.547C2.352,2.227,2.176,2.398,2.084,2.63L0,7.823l0.792-0.181
	C0.879,7.622,0.935,7.578,1,7.542C1,10.37,1,15,1,15c0,0.553,0.448,1,1,1h7c0.552,0,1-0.447,1-1v-3.999h2V15c0,0.553,0.448,1,1,1h1
	c0.552,0,1-0.447,1-1V7.516c0.065,0.036,0.121,0.079,0.208,0.1L16,7.798z M12.999,1l-0.467,0.666
	C12.364,1.907,12.169,1.999,11.876,2H4.122C3.829,1.999,3.634,1.907,3.466,1.666L2.999,1H12.999z M1.816,5.998l1.21-2.997h9.956
	l1.195,2.957c-0.5-0.106-0.9-0.441-1.428-0.632c-0.194-0.069-0.813,0.14-1.003,0.356c-0.114,0.131-0.362,0.35-0.747,0.35
	s-0.633-0.219-0.747-0.35C10.063,5.466,9.789,5.341,9.5,5.341S8.937,5.466,8.747,5.683C8.633,5.813,8.384,6.032,8,6.032
	s-0.633-0.219-0.747-0.35C7.063,5.466,6.789,5.341,6.5,5.341S5.937,5.466,5.747,5.683C5.633,5.813,5.384,6.032,5,6.032
	s-0.633-0.219-0.747-0.35C4.063,5.466,3.789,5.341,3.5,5.341S2.938,5.604,2.747,5.683C2.492,5.788,2.203,5.961,1.816,5.998z M14,15
	h-1v-3.999c0-0.554-0.448-1-1-1h-2c-0.552,0-1,0.446-1,1V15H2V6.909C2.375,6.94,3.358,6.503,3.5,6.341
	C3.867,6.761,4.4,7.032,5,7.032s1.133-0.271,1.5-0.691C6.867,6.761,7.4,7.032,8,7.032s1.133-0.271,1.5-0.691
	c0.367,0.42,0.9,0.691,1.5,0.691s1.133-0.271,1.5-0.691c0.142,0.162,1.094,0.6,1.5,0.537V15z M7,10.001H4c-0.552,0-1,0.446-1,1V13
	c0,0.554,0.448,1,1,1h3c0.552,0,1-0.446,1-1v-1.999C8,10.447,7.552,10.001,7,10.001z M7,13H4v-1.999h3V13z"/>
</svg>
