<?xml version="1.0" encoding="utf-8"?>
<!-- Generator: Adobe Illustrator 16.0.0, SVG Export Plug-In . SVG Version: 6.00 Build 0)  -->
<!DOCTYPE svg PUBLIC "-//W3C//DTD SVG 1.1//EN" "http://www.w3.org/Graphics/SVG/1.1/DTD/svg11.dtd">
<svg version="1.1" id="Layer" xmlns="http://www.w3.org/2000/svg" xmlns:xlink="http://www.w3.org/1999/xlink" x="0px" y="0px"
	 width="16px" height="16px" viewBox="0 0 16 16" enable-background="new 0 0 16 16" xml:space="preserve">
<path fill-rule="evenodd" clip-rule="evenodd" d="M15,7.169c0.883-0.721,1.214-2.466,0.846-3.632L14.954,0.7
	C14.823,0.283,14.437,0,14,0H2C1.563,0,1.177,0.283,1.046,0.7L0.154,3.537C-0.213,4.703,0.117,6.448,1,7.169C1.003,7.171,1,15,1,15
	c0,0.267,0.106,0.521,0.294,0.709C1.482,15.896,1.736,16,2,16c0,0,2.369,0,5,0h2c2.631,0,5,0,5,0c0.265,0,0.518-0.104,0.706-0.291
	C14.894,15.521,15,15.266,15,15C15,15,14.998,7.171,15,7.169z M9,15c-0.667,0-1.327,0-2,0c0-1.661,0-3.322,0-5c0.658,0,1.323,0,2,0
	C9,11.672,9,13.329,9,15z M14,15h-4v-5c0-0.553-0.448-1-1-1H7c-0.552,0-1,0.447-1,1v5H2c0,0-0.002-5.357,0-7.653
	c0.413,0.066,1.106,0.052,1.471-0.003C3.87,7.281,4.227,7.089,4.557,6.842c0.391,0.282,0.817,0.464,1.29,0.526
	c0.722,0.096,1.397-0.036,2.009-0.44c0.089-0.061,0.146-0.077,0.246-0.009c0.942,0.642,2.23,0.642,3.182,0.004
	c0.091-0.062,0.147-0.068,0.246-0.003c0.589,0.401,1.239,0.565,1.949,0.475C13.525,7.389,13.874,7.352,14,7.329V15z M13.825,6.345
	c-0.088,0.016-0.299,0.038-0.475,0.058c-0.084,0.011-0.167,0.017-0.249,0.017c-0.358,0-0.689-0.106-1.019-0.331
	c-0.213-0.143-0.44-0.214-0.676-0.214c-0.237,0-0.467,0.073-0.681,0.218C10.424,6.294,10.066,6.4,9.69,6.4S8.959,6.294,8.667,6.095
	c-0.213-0.146-0.442-0.22-0.682-0.22c-0.358,0-0.608,0.169-0.682,0.219c-0.31,0.205-0.642,0.304-1.017,0.304
	c-0.102,0-0.205-0.007-0.309-0.021C5.684,6.338,5.41,6.225,5.142,6.031c-0.175-0.126-0.38-0.189-0.585-0.189
	c-0.211,0-0.422,0.066-0.6,0.2C3.714,6.224,3.505,6.326,3.323,6.354C3.165,6.379,2.93,6.391,2.695,6.391
	c-0.194,0-0.389-0.008-0.537-0.031C2.106,6.351,2.053,6.347,2,6.347c-0.13,0-0.335,0.049-0.335,0.049
	c-0.001,0-0.004-0.002-0.005-0.002C1.196,6.016,0.823,4.741,1.108,3.838C1.328,3.141,2,1,2,1h6h0h6c0,0,0.672,2.141,0.893,2.838
	c0.284,0.901-0.087,2.172-0.549,2.553c-0.11-0.04-0.226-0.062-0.344-0.062C13.941,6.329,13.883,6.334,13.825,6.345z"/>
</svg>
