<?xml version="1.0" encoding="iso-8859-1"?>
<!-- Generator: Adobe Illustrator 16.0.0, SVG Export Plug-In . SVG Version: 6.00 Build 0)  -->
<!DOCTYPE svg PUBLIC "-//W3C//DTD SVG 1.1//EN" "http://www.w3.org/Graphics/SVG/1.1/DTD/svg11.dtd">
<svg version="1.1" id="Layer" xmlns="http://www.w3.org/2000/svg" xmlns:xlink="http://www.w3.org/1999/xlink" x="0px" y="0px"
	 width="24px" height="24px" viewBox="0 0 24 24" style="enable-background:new 0 0 24 24;" xml:space="preserve">
<path style="fill-rule:evenodd;clip-rule:evenodd;" d="M21.625,10.858c1.214-0.99,1.668-3.392,1.162-4.997l-1.226-3.897
	C21.381,1.389,20.851,1,20.25,1H3.75C3.149,1,2.619,1.389,2.438,1.964L1.213,5.861C0.707,7.467,1.16,9.868,2.375,10.858
	c0.003,0.002,0,10.767,0,10.767c0,0.366,0.146,0.715,0.405,0.973C3.038,22.854,3.386,23,3.75,23c0,0,3.256,0,6.875,0h2.75
	c3.618,0,6.874,0,6.874,0c0.365,0,0.712-0.146,0.97-0.402c0.259-0.259,0.406-0.607,0.406-0.973
	C21.625,21.625,21.623,10.86,21.625,10.858z M13.375,21.625c-0.916,0-1.825,0-2.75,0c0-2.282,0-4.57,0-6.875c0.904,0,1.817,0,2.75,0
	C13.375,17.049,13.375,19.327,13.375,21.625z M20.25,21.625h-5.5V14.75c0-0.758-0.615-1.375-1.375-1.375h-2.75
	c-0.761,0-1.375,0.617-1.375,1.375v6.875h-5.5c0,0-0.003-7.367,0-10.524c0.568,0.09,1.522,0.075,2.021-0.003
	c0.548-0.086,1.04-0.349,1.493-0.689c0.537,0.388,1.125,0.64,1.772,0.726c0.995,0.131,1.922-0.054,2.762-0.61
	c0.125-0.078,0.202-0.106,0.34-0.009c1.293,0.882,3.065,0.882,4.374,0.004c0.126-0.085,0.203-0.092,0.339-0.003
	c0.809,0.554,1.702,0.776,2.679,0.65c0.065-0.006,0.547-0.061,0.72-0.089V21.625z M20.01,9.724c-0.123,0.021-0.413,0.05-0.653,0.081
	c-0.116,0.011-0.231,0.022-0.343,0.022c-0.493,0-0.946-0.147-1.399-0.454c-0.295-0.201-0.607-0.296-0.931-0.296
	c-0.324,0-0.643,0.103-0.936,0.3c-0.416,0.278-0.905,0.426-1.425,0.426c-0.517,0-1.004-0.147-1.408-0.423
	c-0.292-0.199-0.605-0.302-0.937-0.302c-0.493,0-0.837,0.233-0.937,0.301C10.615,9.66,10.16,9.794,9.645,9.794
	c-0.14,0-0.28-0.007-0.426-0.026C8.816,9.717,8.44,9.557,8.069,9.293C7.83,9.12,7.549,9.033,7.265,9.033
	c-0.29,0-0.581,0.09-0.822,0.276c-0.337,0.246-0.622,0.39-0.875,0.43C5.352,9.77,5.028,9.787,4.706,9.787
	c-0.268,0-0.535-0.014-0.739-0.043C3.896,9.729,3.823,9.726,3.75,9.726c-0.18,0-0.461,0.066-0.461,0.066
	c-0.001,0-0.005-0.002-0.009-0.002C2.645,9.271,2.131,7.517,2.523,6.279C2.826,5.318,3.75,2.375,3.75,2.375H12l0,0h8.25
	c0,0,0.924,2.943,1.227,3.904c0.393,1.235-0.119,2.986-0.754,3.508c-0.151-0.058-0.312-0.085-0.473-0.085
	C20.171,9.702,20.089,9.707,20.01,9.724z"/>
</svg>
