<?xml version="1.0" encoding="iso-8859-1"?>
<!-- Generator: Adobe Illustrator 16.0.0, SVG Export Plug-In . SVG Version: 6.00 Build 0)  -->
<!DOCTYPE svg PUBLIC "-//W3C//DTD SVG 1.1//EN" "http://www.w3.org/Graphics/SVG/1.1/DTD/svg11.dtd">
<svg version="1.1" id="Layer_3" xmlns="http://www.w3.org/2000/svg" xmlns:xlink="http://www.w3.org/1999/xlink" x="0px" y="0px"
	 width="24px" height="24px" viewBox="0 0 24 24" style="enable-background:new 0 0 24 24;" xml:space="preserve">
<path style="fill:#231F20;" d="M18.188,1H5.812c-0.76,0-1.375,0.617-1.375,1.375v19.25C4.438,22.383,5.052,23,5.812,23h4.094
	c0.76,0,1.406-0.617,1.406-1.375v-2.75h1.375v2.75c0,0.758,0.584,1.375,1.344,1.375h4.156c0.76,0,1.375-0.617,1.375-1.375V2.375
	C19.562,1.617,18.948,1,18.188,1z M18.188,21.625h-4.125v-3.438c0-0.382-0.309-0.688-0.688-0.688h-2.75
	c-0.379,0-0.688,0.306-0.688,0.688v3.438H5.812V2.375H12h6.188V21.625z M16.812,6.5h-1.375v1.375h-1.375V6.5h-1.375V5.125h1.375
	V3.75h1.375v1.375h1.375V6.5z M10.625,14.75L9.99,15.669c-0.228,0.328-0.495,0.455-0.894,0.456H7.188V14.75H10.625z M10.625,12
	L9.99,12.919c-0.228,0.328-0.495,0.455-0.894,0.456H7.188V12H10.625z M10.625,9.25L9.99,10.169
	c-0.228,0.328-0.495,0.455-0.894,0.456H7.188V9.25H10.625z M10.625,6.5L9.99,7.419C9.762,7.747,9.495,7.874,9.096,7.875H7.188V6.5
	H10.625z M10.625,3.75L9.99,4.669C9.762,4.997,9.495,5.124,9.096,5.125H7.188V3.75H10.625z M16.812,14.75l-0.635,0.919
	c-0.228,0.328-0.495,0.455-0.894,0.456h-1.908V14.75H16.812z M16.812,12l-0.635,0.919c-0.228,0.328-0.495,0.455-0.894,0.456h-1.908
	V12H16.812z M16.812,9.25l-0.635,0.919c-0.228,0.328-0.495,0.455-0.894,0.456h-1.908V9.25H16.812z"/>
</svg>
