<?xml version="1.0" encoding="iso-8859-1"?>
<!-- Generator: Adobe Illustrator 16.0.0, SVG Export Plug-In . SVG Version: 6.00 Build 0)  -->
<!DOCTYPE svg PUBLIC "-//W3C//DTD SVG 1.1//EN" "http://www.w3.org/Graphics/SVG/1.1/DTD/svg11.dtd">
<svg version="1.1" id="Layer_3" xmlns="http://www.w3.org/2000/svg" xmlns:xlink="http://www.w3.org/1999/xlink" x="0px" y="0px"
	 width="16px" height="16px" viewBox="0 0 16 16" style="enable-background:new 0 0 16 16;" xml:space="preserve">
<path style="fill:#231F20;" d="M12.5,0h-9c-0.552,0-1,0.447-1,1v14c0,0.553,0.448,1,1,1h2.978C7.03,16,7.5,15.553,7.5,15v-2h1v2
	c0,0.553,0.426,1,0.978,1H12.5c0.552,0,1-0.447,1-1V1C13.5,0.447,13.052,0,12.5,0z M12.5,15h-3v-2.5C9.5,12.224,9.276,12,9,12H7
	c-0.276,0-0.5,0.224-0.5,0.5V15h-3V1H8h4.5V15z M9.5,4h-1v1h-1V4h-1V3h1V2h1v1h1V4z M7,10l-0.462,0.667
	c-0.167,0.24-0.36,0.332-0.651,0.333H4.5v-1H7z M7,8L6.538,8.667C6.371,8.907,6.177,8.999,5.887,9H4.5V8H7z M7,6L6.538,6.667
	C6.371,6.907,6.177,6.999,5.887,7H4.5V6H7z M11.5,10l-0.462,0.667c-0.167,0.24-0.36,0.332-0.651,0.333H9v-1H11.5z M11.5,8
	l-0.462,0.667c-0.167,0.24-0.36,0.332-0.651,0.333H9V8H11.5z M11.5,6l-0.462,0.667c-0.167,0.24-0.36,0.332-0.651,0.333H9V6H11.5z"/>
</svg>
