<?xml version="1.0" encoding="utf-8"?>
<!-- Generator: Adobe Illustrator 25.2.3, SVG Export Plug-In . SVG Version: 6.00 Build 0)  -->
<svg version="1.1" id="Layer_3" xmlns="http://www.w3.org/2000/svg" xmlns:xlink="http://www.w3.org/1999/xlink" x="0px" y="0px"
	 viewBox="0 0 24 24" enable-background="new 0 0 24 24" xml:space="preserve">
<g>
	<path fill="#231F20" d="M16.177,12.232l0.635-0.919h-3.437v1.375h1.908C15.682,12.687,15.95,12.56,16.177,12.232z"/>
	<path fill="#231F20" d="M16.177,15.669l0.635-0.919h-3.437v1.375h1.908C15.682,16.124,15.95,15.997,16.177,15.669z"/>
	<path fill="#231F20" d="M16.177,8.794l0.635-0.919h-3.437V9.25h1.908C15.682,9.249,15.95,9.122,16.177,8.794z"/>
	<path fill="#231F20" d="M7.188,16.125h1.908c0.399-0.001,0.666-0.128,0.894-0.456l0.635-0.919H7.188V16.125z"/>
	<path fill="#231F20" d="M7.188,9.25h1.908C9.495,9.249,9.763,9.122,9.99,8.794l0.635-0.919H7.188V9.25z"/>
	<path fill="#231F20" d="M7.188,12.688h1.908c0.399-0.001,0.666-0.128,0.894-0.456l0.635-0.919H7.188V12.688z"/>
	<path fill="#231F20" d="M21.013,7.968c0-0.404-0.149-0.665-0.481-0.898L12,1.014L3.464,7.069C3.132,7.303,2.984,7.564,2.984,7.968
		v1.125l1.454-1.031v13.563C4.438,22.383,5.052,23,5.812,23h4.094c0.76,0,1.406-0.617,1.406-1.375v-1.289h1.375v1.289
		c0,0.758,0.584,1.375,1.344,1.375h4.156c0.76,0,1.375-0.617,1.375-1.375V8.064l1.45,1.029V7.968z M18.188,21.625h-4.125v-1.977
		c0-0.382-0.309-0.688-0.688-0.688h-2.75c-0.379,0-0.688,0.306-0.688,0.688v1.977H5.812V7.086l5.727-4.062
		C11.693,2.917,11.846,2.861,12,2.861c0.154,0,0.308,0.055,0.461,0.163l5.727,4.064V21.625z"/>
</g>
</svg>
