<?xml version="1.0" encoding="utf-8"?>
<!-- Generator: Adobe Illustrator 27.4.1, SVG Export Plug-In . SVG Version: 6.00 Build 0)  -->
<svg version="1.1" id="Layer" xmlns="http://www.w3.org/2000/svg" xmlns:xlink="http://www.w3.org/1999/xlink" x="0px" y="0px"
	 viewBox="0 0 24 24" style="enable-background:new 0 0 24 24;" xml:space="preserve">
<style type="text/css">
	.st0{fill:#231F20;}
</style>
<path class="st0" d="M22.5,22L22,22.7c-0.2,0.2-0.4,0.3-0.7,0.3H2.7c-0.3,0-0.5-0.1-0.7-0.3L1.6,22H22.5z"/>
<rect x="8" y="2" class="st0" width="1" height="1"/>
<path class="st0" d="M8,2l0.5-0.7C8.6,1.1,8.8,1,9.1,1h5.8c0.3,0,0.5,0.1,0.7,0.3L16,2H8z"/>
<path class="st0" d="M9,3.3v9l0.7-0.5c0.2-0.2,0.3-0.4,0.3-0.7V3.3H9z"/>
<path class="st0" d="M14,3.1v8.2c0,0.3,0.1,0.5,0.3,0.7l0.7,0.5V3.1H14z"/>
<path class="st0" d="M16,3l-0.5,0.7C15.4,3.9,15.2,4,14.9,4H9.1C8.8,4,8.6,3.9,8.5,3.7L8,3H16z"/>
<rect x="15" y="2" class="st0" width="1" height="1"/>
<path class="st0" d="M16.5,19c-0.3,0-0.5-0.1-0.6-0.3L12.6,14h0.8c0.3,0,0.5,0.1,0.6,0.3l3.2,4.7H16.5z"/>
<path class="st0" d="M17.9,21c-0.3,0-0.5-0.1-0.6-0.3L16.8,20h0.8c0.3,0,0.5,0.1,0.6,0.3l0.4,0.7H17.9z"/>
<g>
	<path class="st0" d="M10,10.1L1.6,22h0.8c0.2,0,0.4,0,0.4,0s0.1-0.2,0.2-0.3l7-10V10.1z"/>
	<path class="st0" d="M14,10.2v1.7l7.1,9.8c0.1,0.1,0.3,0.4,0.3,0.4s0.1-0.1,0.3-0.1h0.8L14,10.2z"/>
</g>
</svg>
