<?xml version="1.0" encoding="utf-8"?>
<!-- Generator: Adobe Illustrator 25.2.0, SVG Export Plug-In . SVG Version: 6.00 Build 0)  -->
<svg version="1.1" id="Layer" xmlns="http://www.w3.org/2000/svg" xmlns:xlink="http://www.w3.org/1999/xlink" x="0px" y="0px"
	 viewBox="0 0 24 24" enable-background="new 0 0 24 24" xml:space="preserve">
<g>
	<path fill="#231F20" d="M22.805,7.271l-0.494-0.496l0.003-0.003l-0.67-0.67c-0.04-0.04-0.08-0.068-0.12-0.1
		c0.001-0.001,0.002-0.003,0.002-0.004l-0.003,0.003C21.275,5.8,21.02,5.726,20.677,5.786L19.57,5.982l0,0
		c-0.436,0.139-0.93,0.05-1.277-0.294l0.002-0.002c-0.004-0.004-0.01-0.005-0.014-0.009c-0.348-0.348-0.437-0.844-0.298-1.283l0,0
		l0.196-1.108c0.061-0.343-0.014-0.598-0.215-0.845l0.003-0.003c-0.001,0.001-0.003,0.002-0.004,0.002
		c-0.033-0.04-0.06-0.08-0.1-0.12l-0.67-0.67l-0.003,0.003l-0.496-0.494c-0.538-0.538-1.409-0.536-1.944,0L9.206,6.7L8.99,6.916
		L8.482,7.425L7.405,8.501L6.897,9.009L6.68,9.226l-5.541,5.541c-0.536,0.536-0.538,1.407,0,1.944l0.494,0.496L1.63,17.211
		l0.67,0.67c0.04,0.04,0.08,0.068,0.12,0.1c-0.001,0.001-0.002,0.003-0.002,0.004l0.003-0.003c0.247,0.201,0.502,0.275,0.845,0.215
		l1.108-0.196l0,0c0.436-0.139,0.93-0.05,1.277,0.294L5.65,18.297c0.004,0.004,0.01,0.005,0.014,0.009
		c0.348,0.348,0.437,0.844,0.298,1.283l0,0l-0.196,1.108c-0.061,0.343,0.014,0.598,0.215,0.845l-0.003,0.003
		c0.001-0.001,0.003-0.002,0.004-0.002c0.033,0.04,0.06,0.08,0.1,0.12l0.67,0.67l0.003-0.003l0.496,0.494
		c0.538,0.538,1.409,0.536,1.945,0l5.541-5.541l0.216-0.216l0.508-0.508l1.076-1.076l0.508-0.508l0.216-0.216l5.541-5.541
		C23.341,8.68,23.343,7.809,22.805,7.271z M16.291,13.785l-2.526,2.526l-5.541,5.541l-0.496-0.494l0.002-0.002L7.173,20.8
		l0.196-1.108c0.007-0.039,0.004-0.073,0.008-0.11c0.114-0.797-0.126-1.636-0.739-2.25c-0.004-0.004-0.009-0.007-0.013-0.011l0,0
		c-0.613-0.61-1.449-0.849-2.244-0.735c-0.037,0.004-0.071,0.001-0.11,0.008L3.163,16.79l-0.556-0.556l-0.002,0.002L2.111,15.74
		l5.541-5.541l2.526-2.526l5.541-5.541l0.496,0.494l-0.002,0.002l0.556,0.556L16.575,4.29c-0.007,0.039-0.004,0.073-0.008,0.11
		c-0.114,0.797,0.126,1.636,0.739,2.25c0.004,0.004,0.009,0.007,0.013,0.011l0,0c0.613,0.61,1.449,0.849,2.244,0.735
		c0.037-0.004,0.071-0.001,0.11-0.008l1.108-0.196l0.556,0.556l0.002-0.002l0.494,0.496L16.291,13.785z"/>
	
		<rect x="11.28" y="7.29" transform="matrix(0.7071 -0.7071 0.7071 0.7071 -2.1356 10.7986)" fill="#231F20" width="1.375" height="1.375"/>
	
		<rect x="13.309" y="9.319" transform="matrix(0.7071 -0.7071 0.7071 0.7071 -2.9762 12.828)" fill="#231F20" width="1.375" height="1.375"/>
	
		<rect x="15.338" y="11.348" transform="matrix(0.7071 -0.7071 0.7071 0.7071 -3.8168 14.8573)" fill="#231F20" width="1.375" height="1.375"/>
	<path fill="#231F20" d="M11.472,14.96l-0.633-0.838l0.306-0.962c0.027-0.086,0.004-0.179-0.059-0.243
		c-0.064-0.064-0.157-0.086-0.243-0.059l-0.962,0.306l-0.838-0.633c-0.074-0.056-0.174-0.064-0.256-0.021
		c-0.082,0.043-0.133,0.129-0.129,0.222l0.037,1.018L7.88,14.317c-0.075,0.052-0.114,0.142-0.101,0.232
		c0.008,0.052,0.032,0.1,0.068,0.136c0.026,0.026,0.058,0.046,0.094,0.058l0.991,0.329l0.328,0.991
		c0.012,0.036,0.032,0.068,0.058,0.094c0.036,0.036,0.083,0.06,0.136,0.068c0.09,0.013,0.18-0.026,0.232-0.101l0.567-0.815
		l1.018,0.037c0.093,0.003,0.179-0.047,0.222-0.129C11.536,15.134,11.528,15.034,11.472,14.96z"/>
</g>
</svg>
