<?xml version="1.0" encoding="utf-8"?>
<!-- Generator: Adobe Illustrator 25.2.0, SVG Export Plug-In . SVG Version: 6.00 Build 0)  -->
<svg version="1.1" id="Layer" xmlns="http://www.w3.org/2000/svg" xmlns:xlink="http://www.w3.org/1999/xlink" x="0px" y="0px"
	 viewBox="0 0 24 24" enable-background="new 0 0 24 24" xml:space="preserve">
<g>
	<path fill="#231F20" d="M11.977,1.219c-3.257,0-5.897,2.64-5.897,5.897H6.077l0.003,2.16v12.369c0,0.758,0.615,1.375,1.375,1.375
		h9.043c0.76,0,1.375-0.617,1.375-1.375v-6.384V13.16v-0.751v-0.96c0-0.76-0.617-1.375-1.375-1.375h-4.369l-0.096,0v-0.001h-0.546
		l-0.518-0.001v0.001h-0.647l-0.003-2.956h0.005c0-0.005-0.001-0.009-0.001-0.013c0-0.927,0.751-1.678,1.678-1.678
		c0.48,0,0.913,0.202,1.219,0.525c0.043,0.045,0.09,0.091,0.135,0.136c0.479,0.555,1.017,0.896,1.706,1.023l0.009,0.007
		c0-0.002,0-0.004,0.001-0.006c0.221,0.04,0.449,0.072,0.705,0.072l2.098,0.003L17.867,7.17l0.006,0
		C17.873,3.706,15.233,1.219,11.977,1.219z M15.432,5.87c-0.418,0-0.667-0.175-0.908-0.517l-0.128-0.149
		C13.834,4.495,12.975,4.032,12,4.032c-1.696,0-3.071,1.375-3.071,3.071c0,0.005,0.001,0.009,0.001,0.013h0.013l0.003,2.015v0.941
		c0.025,0.796,0.629,1.396,1.375,1.375h1.711v-0.001l4.465,0.002v1.711h0v8.485H7.454L7.452,7.116c0-2.499,2.026-4.525,4.525-4.525
		c2.064,0,3.786,1.391,4.33,3.28L15.432,5.87z"/>
	<path fill="#231F20" d="M8.506,16.085l2.433,2.505c0.129,0.133,0.325,0.255,0.489,0.207c0.181,0,0.355-0.073,0.483-0.202
		l3.661-3.74l-1.059-0.186c-0.395-0.071-0.696,0.023-0.981,0.309l-2.1,2.155l-0.932-0.961c-0.269-0.249-0.557-0.344-0.929-0.278
		l-1.067,0.189C8.506,16.083,8.506,16.085,8.506,16.085z"/>
</g>
</svg>
