<?xml version="1.0" encoding="utf-8"?>
<!-- Generator: Adobe Illustrator 25.2.0, SVG Export Plug-In . SVG Version: 6.00 Build 0)  -->
<svg version="1.1" id="Layer" xmlns="http://www.w3.org/2000/svg" xmlns:xlink="http://www.w3.org/1999/xlink" x="0px" y="0px"
	 viewBox="0 0 24 24" enable-background="new 0 0 24 24" xml:space="preserve">
<path fill="#231F20" d="M12,23c-3.986,0-7.671-2.181-9.619-5.689l-0.13-0.25C1.499,15.624,1.079,14.106,1,12.54l0.974,0.525
	c0.312,0.167,0.505,0.387,0.609,0.689c0.248,1.386,0.825,2.713,1.701,3.899c1.807,2.457,4.691,3.924,7.716,3.924
	c2.707,0,5.305-1.163,7.128-3.193l0.477-0.529h-2.371c-0.372-0.002-0.63-0.133-0.836-0.427l-0.696-0.995h5.57
	c0.393,0,0.712,0.319,0.712,0.711v5.576l-1.001-0.673c-0.289-0.201-0.42-0.458-0.421-0.831v-2.269l-0.551,0.584
	C17.906,21.768,15.061,23,12,23z M22.026,10.935c-0.312-0.167-0.505-0.387-0.609-0.689c-0.248-1.386-0.825-2.713-1.701-3.899
	C17.909,3.889,15.025,2.422,12,2.422c-2.707,0-5.305,1.163-7.128,3.193L4.395,6.144h2.371c0.372,0.002,0.63,0.133,0.835,0.427
	l0.696,0.995h-5.57c-0.393,0-0.712-0.319-0.712-0.711V1.279l1.001,0.673c0.289,0.201,0.42,0.458,0.421,0.831v2.269L3.99,4.468
	C6.094,2.232,8.939,1,12,1c3.986,0,7.671,2.181,9.619,5.689l0.13,0.25c0.753,1.437,1.173,2.954,1.251,4.52L22.026,10.935z"/>
<path fill="#231F20" d="M15.241,14.302c0,0.852-0.317,1.486-0.944,1.926c-0.339,0.234-0.758,0.396-1.246,0.504
	c-0.223,0.279-0.483,0.422-0.856,0.424L11.1,17.155l0.202-0.291c-0.656-0.012-1.212-0.07-1.604-0.184
	c-0.46-0.139-0.773-0.238-0.939-0.311c0.253-0.715,0.932-1.105,1.681-0.973c0.445,0.084,0.704,0.088,1.16,0.088
	c0.67,0,1.174-0.088,1.496-0.262c0.324-0.176,0.486-0.465,0.486-0.852c0-0.396-0.161-0.717-0.477-0.951
	c-0.318-0.236-0.84-0.5-1.57-0.797c-0.354-0.143-0.694-0.281-1.018-0.432c-0.323-0.146-0.602-0.32-0.839-0.518
	c-0.235-0.203-0.425-0.443-0.565-0.724c-0.142-0.284-0.214-0.627-0.214-1.045c0-0.807,0.3-1.453,0.901-1.934
	c0.383-0.303,0.861-0.498,1.419-0.607l0.029-0.041c0.233-0.328,0.514-0.475,0.916-0.477l1.096,0.002l-0.313,0.449
	c0.03,0.002,0.056,0.002,0.086,0.004c0.258,0.025,0.503,0.062,0.726,0.105c0.222,0.043,0.422,0.086,0.591,0.133
	c0.173,0.045,0.303,0.086,0.399,0.123c-0.278,0.715-0.925,1.111-1.693,1.016c-0.306-0.041-0.484-0.047-0.796-0.047
	c-0.457,0-0.863,0.092-1.206,0.279c-0.342,0.186-0.513,0.469-0.513,0.855c0,0.197,0.04,0.373,0.116,0.533
	c0.076,0.152,0.194,0.287,0.353,0.412c0.161,0.125,0.358,0.238,0.593,0.344c0.236,0.105,0.517,0.217,0.849,0.332
	c0.437,0.168,0.825,0.334,1.163,0.488c0.344,0.156,0.632,0.346,0.876,0.557c0.24,0.213,0.428,0.471,0.557,0.771
	C15.177,13.5,15.241,13.866,15.241,14.302z"/>
</svg>
