<?xml version="1.0" encoding="utf-8"?>
<!-- Generator: Adobe Illustrator 25.2.0, SVG Export Plug-In . SVG Version: 6.00 Build 0)  -->
<svg version="1.1" id="Layer" xmlns="http://www.w3.org/2000/svg" xmlns:xlink="http://www.w3.org/1999/xlink" x="0px" y="0px"
	 viewBox="0 0 24 24" enable-background="new 0 0 24 24" xml:space="preserve">
<path fill="#231F20" d="M22.76,7.06l-2.147-3.086h0.002l-0.333-0.475l-0.045-0.065h0l-0.255-0.364
	c-0.228-0.326-0.493-0.451-0.89-0.452h-2.58h-0.64h-0.444c-0.391,0-0.64,0.143-0.865,0.462l-2.548,3.64l-2.548-3.64
	C9.24,2.76,8.99,2.617,8.601,2.617H8.308h-0.79H4.909c-0.397,0.001-0.662,0.126-0.89,0.452L3.764,3.433h0L3.718,3.498L3.385,3.974
	h0.002L1.24,7.06C0.807,7.682,0.959,8.54,1.583,8.974l2.257,1.571c0.624,0.434,1.481,0.279,1.914-0.343l0.337-0.484v2.687v1.235
	v6.369c0,0.758,0.615,1.375,1.375,1.375h9.043c0.76,0,1.375-0.617,1.375-1.375v-6.384v-2.221v-1.72l0.36,0.517
	c0.433,0.622,1.29,0.778,1.914,0.343l2.257-1.571C23.041,8.54,23.193,7.682,22.76,7.06z M19.374,9.416L17.908,7.31l-0.023,0.018V7.3
	l-0.917,0.642c-0.33,0.231-0.456,0.499-0.458,0.902v2.559h0v8.605H7.467v-7.605h0V8.859C7.465,8.456,7.339,8.188,7.009,7.957
	L6.162,7.364L6.092,7.31L4.626,9.416L2.369,7.845l2.694-3.871h3.405L10.376,6.7h0.002l0.612,0.874
	c0.068,0.094,0.144,0.15,0.221,0.208c0.145,0.113,0.304,0.191,0.499,0.216l0.306,0.016l0.306-0.016
	c0.178-0.022,0.326-0.087,0.462-0.181l-0.001-0.001c0.09-0.07,0.181-0.134,0.26-0.246l2.518-3.596h3.377l2.694,3.871L19.374,9.416z"
	/>
</svg>
