<?xml version="1.0" encoding="utf-8"?>
<!-- Generator: Adobe Illustrator 25.2.0, SVG Export Plug-In . SVG Version: 6.00 Build 0)  -->
<svg version="1.1" id="Layer" xmlns="http://www.w3.org/2000/svg" xmlns:xlink="http://www.w3.org/1999/xlink" x="0px" y="0px"
	 viewBox="0 0 24 24" enable-background="new 0 0 24 24" xml:space="preserve">
<path fill="#231F20" d="M10.324,1.806L9.405,1.171v1.958c0,0.002-0.001,0.005-0.001,0.007v2.817H8.027V3.136
	c0-0.001-0.001-0.002-0.001-0.004V2.554C8.026,2.155,7.899,1.888,7.571,1.66L6.652,1.025v2.108c0,0.001-0.001,0.002-0.001,0.003
	v2.817H5.275V3.136c0-0.002-0.001-0.004-0.001-0.007V2.7C5.272,2.301,5.145,2.034,4.817,1.806L3.898,1.171v1.965v1.472v2.034
	c0,1.662,1.184,3.052,2.753,3.372v10.236c0,0.001,0.001,0.002,0.001,0.004v1.204c0.001,0.399,0.128,0.666,0.456,0.894l0.919,0.635
	v-2.734c0-0.001,0.001-0.002,0.001-0.003V10.013c1.568-0.32,2.752-1.709,2.753-3.371c0,0,0-0.001,0-0.001c0,0,0,0,0,0V4.608V3.136
	V2.7C10.779,2.301,10.652,2.034,10.324,1.806z M7.339,8.706c-0.897,0-1.662-0.575-1.946-1.377h3.892
	C9.001,8.13,8.236,8.706,7.339,8.706z"/>
<path fill="#231F20" d="M19.963,3.705V2.84c-0.001-0.399-0.128-0.666-0.456-0.894l-0.919-0.635v0.003
	c-0.001-0.002-0.002-0.003-0.003-0.005c-1.696,1.018-2.75,2.858-2.75,4.859v5.181c0,1.662,1.184,3.052,2.753,3.372v6.107
	c0,0.002,0.001,0.004,0.001,0.007v0.623c0.001,0.399,0.128,0.666,0.456,0.894l0.919,0.635v-2.159c0-0.121,0-0.583,0-1.278
	c0-3.638,0-13.747,0-15.835C19.965,3.711,19.964,3.708,19.963,3.705z M18.588,13.295c-0.801-0.284-1.376-1.049-1.376-1.947v-5.18
	c0-1.223,0.508-2.354,1.376-3.153v1.733V13.295z"/>
</svg>
