<?xml version="1.0" encoding="utf-8"?>
<!-- Generator: Adobe Illustrator 25.2.0, SVG Export Plug-In . SVG Version: 6.00 Build 0)  -->
<svg version="1.1" id="Layer" xmlns="http://www.w3.org/2000/svg" xmlns:xlink="http://www.w3.org/1999/xlink" x="0px" y="0px"
	 viewBox="0 0 24 24" enable-background="new 0 0 24 24" xml:space="preserve">
<g>
	<path fill="#231F20" d="M14.045,10.124l0.264-0.769c0.096-0.277,0.055-0.489-0.116-0.727L12.502,6.3l-0.265,0.77
		c-0.096,0.277-0.055,0.489,0.116,0.727L14.045,10.124z"/>
	<path fill="#231F20" d="M21.226,14.64L13.789,4.406c-1.368-1.882-4.003-2.299-5.885-0.932S5.604,7.477,6.972,9.36l2.17,2.986
		c-1.583-0.894-3.602-0.859-5.173,0.272c-2.155,1.552-2.644,4.557-1.093,6.712c1.552,2.155,4.557,2.644,6.712,1.093
		c1.582-1.139,2.257-3.061,1.894-4.856l2.926,4.027c1.368,1.882,4.003,2.299,5.885,0.932S22.594,16.523,21.226,14.64z M3.992,18.527
		c-0.971-1.348-0.823-3.161,0.263-4.335l3.932,5.461C6.729,20.31,4.962,19.875,3.992,18.527z M9.302,18.849L5.37,13.389
		c1.458-0.657,3.224-0.222,4.195,1.126C10.536,15.862,10.388,17.675,9.302,18.849z M8.712,4.587
		c1.268-0.921,3.043-0.641,3.965,0.628l3.314,4.561l-4.592,3.337L8.084,8.551C7.163,7.283,7.444,5.508,8.712,4.587z M19.486,19.413
		c-1.268,0.922-3.043,0.641-3.965-0.628l-3.314-4.561l4.592-3.337l3.314,4.561C21.035,16.717,20.754,18.492,19.486,19.413z"/>
	<path fill="#231F20" d="M11.858,5.981c0.096-0.277,0.055-0.489-0.116-0.727l-0.516-0.709l-0.265,0.77
		c-0.096,0.277-0.055,0.489,0.116,0.727l0.516,0.709L11.858,5.981z"/>
</g>
</svg>
