<?xml version="1.0" encoding="utf-8"?>
<!-- Generator: Adobe Illustrator 25.2.0, SVG Export Plug-In . SVG Version: 6.00 Build 0)  -->
<svg version="1.1" id="Layer" xmlns="http://www.w3.org/2000/svg" xmlns:xlink="http://www.w3.org/1999/xlink" x="0px" y="0px"
	 viewBox="0 0 24 24" enable-background="new 0 0 24 24" xml:space="preserve">
<g>
	<path fill="#231F20" d="M11.386,3.444L10.69,2.726C9.924,1.934,8.661,1.906,7.879,2.664L7.133,3.386
		C6.36,2.698,5.181,2.697,4.435,3.42L3.667,4.164c-0.746,0.723-0.784,1.901-0.12,2.696L2.801,7.582
		c-0.782,0.757-0.795,2.02-0.028,2.812l0.696,0.718c0.766,0.791,2.029,0.819,2.811,0.062l5.078-4.918
		C12.139,5.498,12.152,4.235,11.386,3.444z M4.623,5.151l0.768-0.744C5.589,4.216,5.9,4.207,6.135,4.353l-1.59,1.539
		C4.407,5.653,4.426,5.343,4.623,5.151z M5.323,10.186c-0.234,0.226-0.632,0.212-0.867-0.03L3.76,9.437
		C3.525,9.195,3.524,8.796,3.757,8.569l5.078-4.918c0.234-0.226,0.632-0.212,0.867,0.03L10.398,4.4
		c0.235,0.242,0.236,0.641,0.003,0.868L5.323,10.186z"/>
	<path fill="#231F20" d="M12.614,20.556l0.696,0.718c0.766,0.791,2.029,0.819,2.811,0.062l0.746-0.722
		c0.773,0.688,1.952,0.689,2.698-0.034l0.768-0.744c0.746-0.723,0.784-1.901,0.12-2.696l0.746-0.722
		c0.782-0.757,0.795-2.02,0.028-2.812l-0.696-0.718c-0.766-0.791-2.029-0.819-2.811-0.062l-5.078,4.918
		C11.861,18.502,11.848,19.765,12.614,20.556z M19.377,18.849l-0.768,0.744c-0.198,0.192-0.509,0.201-0.743,0.055l1.59-1.539
		C19.593,18.347,19.574,18.657,19.377,18.849z M18.677,13.814c0.234-0.226,0.632-0.212,0.867,0.03l0.696,0.718
		c0.235,0.242,0.236,0.641,0.003,0.867l-5.078,4.918c-0.234,0.226-0.632,0.212-0.867-0.03L13.602,19.6
		c-0.235-0.242-0.236-0.641-0.003-0.868L18.677,13.814z"/>
	<g>
		
			<rect x="12.115" y="5.621" transform="matrix(0.7183 -0.6957 0.6957 0.7183 -4.1001 12.0264)" fill="#231F20" width="1.375" height="10.912"/>
		
			<rect x="10.364" y="7.317" transform="matrix(0.7183 -0.6957 0.6957 0.7183 -5.773 11.2859)" fill="#231F20" width="1.375" height="10.912"/>
	</g>
</g>
</svg>
