<?xml version="1.0" encoding="iso-8859-1"?>
<!-- Generator: Adobe Illustrator 16.0.0, SVG Export Plug-In . SVG Version: 6.00 Build 0)  -->
<!DOCTYPE svg PUBLIC "-//W3C//DTD SVG 1.1//EN" "http://www.w3.org/Graphics/SVG/1.1/DTD/svg11.dtd">
<svg version="1.1" id="Layer_3" xmlns="http://www.w3.org/2000/svg" xmlns:xlink="http://www.w3.org/1999/xlink" x="0px" y="0px"
	 width="16px" height="16px" viewBox="0 0 16 16" style="enable-background:new 0 0 16 16;" xml:space="preserve">
<path d="M7,4H3C2.448,4,2,4.447,2,5v5c0,0.553,0.448,1,1,1h4c0.552,0,1-0.447,1-1V5C8,4.447,7.552,4,7,4z M7,10H3V5h4V10z M16,1.984
	v10.328C16,14.229,14.384,16,12.469,16H3.476C1.559,16,0,14.322,0,12.406V0.488C0,0.221,0.232,0,0.5,0H13c0.27,0,0.5,0.232,0.5,0.5
	v10.4l-0.667-0.467c-0.201-0.141-0.281-0.313-0.308-0.533L12.5,9.4V1H1v11.41C1,13.782,2.097,15,3.476,15h8.995
	C13.846,15,15,13.692,15,12.317V3.475l0.025-0.5c0.027-0.22,0.107-0.393,0.308-0.533l0.666-0.466C15.999,1.979,16,1.981,16,1.984z
	 M11.6,3H3.123C2.83,2.998,2.635,2.906,2.467,2.666L2,2h8.477c0.293,0.001,0.488,0.093,0.656,0.333L11.6,3z M12,13H3.123
	c-0.293-0.002-0.488-0.094-0.656-0.334L2,12h8.877c0.293,0.001,0.488,0.093,0.656,0.333L12,13z M12,5H9.623
	C9.33,4.998,9.135,4.906,8.967,4.666L8.5,4h2.377c0.293,0.001,0.488,0.093,0.656,0.333L12,5z M12,7H9.623
	C9.33,6.998,9.135,6.906,8.967,6.666L8.5,6h2.377c0.293,0.001,0.488,0.093,0.656,0.333L12,7z M12,9H9.623
	C9.33,8.998,9.135,8.906,8.967,8.666L8.5,8h2.377c0.293,0.001,0.488,0.093,0.656,0.333L12,9z M12,11H9.623
	c-0.293-0.002-0.488-0.094-0.656-0.334L8.5,10h2.377c0.293,0.001,0.488,0.093,0.656,0.333L12,11z"/>
</svg>
