<?xml version="1.0" encoding="iso-8859-1"?>
<!-- Generator: Adobe Illustrator 16.0.0, SVG Export Plug-In . SVG Version: 6.00 Build 0)  -->
<!DOCTYPE svg PUBLIC "-//W3C//DTD SVG 1.1//EN" "http://www.w3.org/Graphics/SVG/1.1/DTD/svg11.dtd">
<svg version="1.1" id="Layer_3" xmlns="http://www.w3.org/2000/svg" xmlns:xlink="http://www.w3.org/1999/xlink" x="0px" y="0px"
	 width="24px" height="24px" viewBox="0 0 24 24" style="enable-background:new 0 0 24 24;" xml:space="preserve">
<path d="M10.625,6.5h-5.5c-0.76,0-1.375,0.617-1.375,1.375v6.875c0,0.758,0.615,1.375,1.375,1.375h5.5
	c0.76,0,1.375-0.617,1.375-1.375V7.875C12,7.117,11.385,6.5,10.625,6.5z M10.625,14.75h-5.5V7.875h5.5V14.75z M23,3.729V17.93
	c0,2.637-2.222,5.07-4.855,5.07H5.779C3.145,23,1,20.695,1,18.059V1.67C1,1.303,1.32,1,1.688,1h17.188
	c0.373,0,0.688,0.32,0.688,0.688V15.99l-0.916-0.643c-0.277-0.193-0.386-0.431-0.425-0.732l-0.034-0.688V2.375H2.375v15.688
	c0,1.888,1.507,3.562,3.404,3.562h12.367c1.891,0,3.479-1.8,3.479-3.69V5.775l0.034-0.688c0.039-0.302,0.148-0.539,0.425-0.732
	l0.915-0.642C22.999,3.723,23,3.726,23,3.729z M16.951,5.125H5.295C4.891,5.123,4.622,4.996,4.393,4.668L3.75,3.75h11.656
	c0.404,0.001,0.673,0.128,0.902,0.456L16.951,5.125z M17.5,18.875H5.295c-0.404-0.002-0.673-0.129-0.902-0.457L3.75,17.5h12.205
	c0.404,0.001,0.673,0.128,0.902,0.456L17.5,18.875z M17.5,7.875h-3.268c-0.404-0.002-0.673-0.129-0.902-0.457L12.688,6.5h3.268
	c0.404,0.001,0.673,0.128,0.902,0.456L17.5,7.875z M17.5,10.625h-3.268c-0.404-0.002-0.673-0.129-0.902-0.457L12.688,9.25h3.268
	c0.404,0.001,0.673,0.128,0.902,0.456L17.5,10.625z M17.5,13.375h-3.268c-0.404-0.002-0.673-0.129-0.902-0.457L12.688,12h3.268
	c0.404,0.001,0.673,0.128,0.902,0.456L17.5,13.375z M17.5,16.125h-3.268c-0.404-0.002-0.673-0.129-0.902-0.457l-0.643-0.918h3.268
	c0.404,0.001,0.673,0.128,0.902,0.456L17.5,16.125z"/>
</svg>
