<?xml version="1.0" encoding="iso-8859-1"?>
<!-- Generator: Adobe Illustrator 16.0.0, SVG Export Plug-In . SVG Version: 6.00 Build 0)  -->
<!DOCTYPE svg PUBLIC "-//W3C//DTD SVG 1.1//EN" "http://www.w3.org/Graphics/SVG/1.1/DTD/svg11.dtd">
<svg version="1.1" id="Layer" xmlns="http://www.w3.org/2000/svg" xmlns:xlink="http://www.w3.org/1999/xlink" x="0px" y="0px"
	 width="24px" height="24px" viewBox="0 0 24 24" style="enable-background:new 0 0 24 24;" xml:space="preserve">
<path style="fill:#231F20;" d="M18.875,1H5.125C4.365,1,3.75,1.617,3.75,2.375v19.25C3.75,22.383,4.365,23,5.125,23h13.75
	c0.76,0,1.375-0.617,1.375-1.375V2.375C20.25,1.617,19.635,1,18.875,1z M18.875,21.625H5.125V2.375h13.75V21.625z M6.5,3.75h9.455
	c0.404,0.002,0.673,0.129,0.902,0.457L17.5,5.125H8.045C7.641,5.124,7.372,4.997,7.143,4.669L6.5,3.75z M7.875,6.5v5.33
	c-0.002,0.404-0.129,0.67-0.46,0.902L6.5,13.375v-5.33c0.001-0.404,0.128-0.67,0.459-0.902L7.875,6.5z M9.182,6.5h6.773
	c0.404,0.002,0.673,0.129,0.902,0.457L17.5,7.875h-6.776c-0.401-0.001-0.67-0.128-0.902-0.456L9.182,6.5z M9.25,12h6.776
	c0.401,0.002,0.67,0.129,0.902,0.457l0.64,0.918h-6.773c-0.404-0.001-0.673-0.128-0.902-0.456L9.25,12z M9.25,9.25h6.776
	c0.401,0.002,0.67,0.129,0.902,0.457l0.64,0.918h-6.773c-0.404-0.001-0.673-0.128-0.902-0.456L9.25,9.25z M13.834,19.607
	c-0.331-0.232-0.458-0.498-0.459-0.902V17.5l0.915,0.643c0.331,0.232,0.458,0.498,0.46,0.902v1.205L13.834,19.607z M16.584,19.607
	c-0.331-0.232-0.458-0.498-0.459-0.902V17.5l0.915,0.643c0.331,0.232,0.458,0.498,0.46,0.902v1.205L16.584,19.607z M6.959,19.607
	c-0.331-0.232-0.458-0.498-0.459-0.902V17.5l0.915,0.643c0.331,0.232,0.458,0.498,0.46,0.902v1.205L6.959,19.607z M9.709,19.607
	c-0.331-0.232-0.458-0.498-0.459-0.902V17.5l0.915,0.643c0.331,0.232,0.458,0.498,0.46,0.902v1.205L9.709,19.607z M6.5,14.75h9.455
	c0.404,0.002,0.673,0.129,0.902,0.457l0.643,0.918H8.045c-0.404-0.001-0.673-0.128-0.902-0.456L6.5,14.75z"/>
</svg>
