<?xml version="1.0" encoding="iso-8859-1"?>
<!-- Generator: Adobe Illustrator 16.0.0, SVG Export Plug-In . SVG Version: 6.00 Build 0)  -->
<!DOCTYPE svg PUBLIC "-//W3C//DTD SVG 1.1//EN" "http://www.w3.org/Graphics/SVG/1.1/DTD/svg11.dtd">
<svg version="1.1" id="Layer" xmlns="http://www.w3.org/2000/svg" xmlns:xlink="http://www.w3.org/1999/xlink" x="0px" y="0px"
	 width="16px" height="16px" viewBox="0 0 16 16" style="enable-background:new 0 0 16 16;" xml:space="preserve">
<path style="fill:#231F20;" d="M13,0H3C2.448,0,2,0.447,2,1v14c0,0.553,0.448,1,1,1h10c0.552,0,1-0.447,1-1V1
	C14,0.447,13.552,0,13,0z M13,15H3V1h10V15z M4,2h6.877c0.293,0.002,0.488,0.094,0.656,0.334L12,3H5.123
	C4.83,2.999,4.635,2.907,4.467,2.667L4,2z M5,4v3.877C4.998,8.17,4.906,8.365,4.666,8.533L4,9V5.123
	C4.001,4.83,4.093,4.635,4.333,4.467L5,4z M5.949,4h4.928c0.293,0.002,0.488,0.094,0.656,0.334L12,5H7.072
	C6.779,4.999,6.584,4.907,6.416,4.667L5.949,4z M6,8h4.928c0.293,0.002,0.488,0.094,0.656,0.334L12.051,9H7.123
	C6.83,8.999,6.635,8.907,6.467,8.667L6,8z M6,6h4.928c0.293,0.002,0.488,0.094,0.656,0.334L12.051,7H7.123
	C6.83,6.999,6.635,6.907,6.467,6.667L6,6z M9.333,13.533C9.093,13.365,9.001,13.17,9,12.877V12l0.666,0.467
	c0.24,0.168,0.332,0.363,0.334,0.656V14L9.333,13.533z M11.333,13.533c-0.24-0.168-0.332-0.363-0.333-0.656V12l0.666,0.467
	c0.24,0.168,0.332,0.363,0.334,0.656V14L11.333,13.533z M4.333,13.533C4.093,13.365,4.001,13.17,4,12.877V12l0.666,0.467
	C4.906,12.635,4.998,12.83,5,13.123V14L4.333,13.533z M6.333,13.533C6.093,13.365,6.001,13.17,6,12.877V12l0.666,0.467
	C6.906,12.635,6.998,12.83,7,13.123V14L6.333,13.533z M4.467,10.333C4.635,10.093,4.83,10.001,5.123,10H12l-0.467,0.666
	c-0.168,0.24-0.363,0.332-0.656,0.334H4L4.467,10.333z"/>
</svg>
