<?xml version="1.0" encoding="iso-8859-1"?>
<!-- Generator: Adobe Illustrator 16.0.0, SVG Export Plug-In . SVG Version: 6.00 Build 0)  -->
<!DOCTYPE svg PUBLIC "-//W3C//DTD SVG 1.1//EN" "http://www.w3.org/Graphics/SVG/1.1/DTD/svg11.dtd">
<svg version="1.1" id="Layer" xmlns="http://www.w3.org/2000/svg" xmlns:xlink="http://www.w3.org/1999/xlink" x="0px" y="0px"
	 width="16px" height="16px" viewBox="0 0 16 16" style="enable-background:new 0 0 16 16;" xml:space="preserve">
<path style="fill:#231F20;" d="M13.444,2H12.5V0.5C12.5,0.224,12.276,0,12,0s-0.5,0.224-0.5,0.5V2h-7V0.5C4.5,0.224,4.276,0,4,0
	S3.5,0.224,3.5,0.5V2H2.556C1.696,2,1,2.695,1,3.553v10.891C1,15.305,1.696,16,2.556,16h10.889C14.304,16,15,15.305,15,14.443V3.553
	C15,2.695,14.304,2,13.444,2z M14,14.443C14,14.75,13.75,15,13.444,15H2.556C2.25,15,2,14.75,2,14.443V7h12V14.443z M14,6H2V3.553
	C2,3.248,2.25,3,2.556,3H3.5v0.5C3.5,3.776,3.724,4,4,4s0.5-0.224,0.5-0.5V3h7v0.5C11.5,3.776,11.724,4,12,4s0.5-0.224,0.5-0.5V3
	h0.944C13.75,3,14,3.248,14,3.553V6z"/>
</svg>
