<?xml version="1.0" encoding="iso-8859-1"?>
<!-- Generator: Adobe Illustrator 16.0.0, SVG Export Plug-In . SVG Version: 6.00 Build 0)  -->
<!DOCTYPE svg PUBLIC "-//W3C//DTD SVG 1.1//EN" "http://www.w3.org/Graphics/SVG/1.1/DTD/svg11.dtd">
<svg version="1.1" id="Layer_3" xmlns="http://www.w3.org/2000/svg" xmlns:xlink="http://www.w3.org/1999/xlink" x="0px" y="0px"
	 width="16px" height="16px" viewBox="0 0 16 16" style="enable-background:new 0 0 16 16;" xml:space="preserve">
<path style="fill:#231F20;" d="M6.914,1.184h7.964c0.293,0.001,0.488,0.094,0.656,0.334L16,2.184H8.037
	c-0.293,0-0.488-0.092-0.656-0.332L6.914,1.184z M4.773,0.017C4.485-0.035,4.264,0.034,4.057,0.241L2.254,2.053L1.46,1.192
	C1.263,1.012,1.053,0.942,0.781,0.99L0,1.128C0,1.129,0.001,1.13,0.001,1.13l1.892,1.983C1.987,3.21,2.13,3.299,2.25,3.264
	c0.133,0,0.26-0.053,0.354-0.146l2.944-2.965L4.773,0.017z M7.381,8.216c0.168,0.24,0.363,0.332,0.656,0.332H16l-0.466-0.666
	c-0.168-0.24-0.363-0.333-0.656-0.334H6.914L7.381,8.216z M4.773,6.381C4.485,6.329,4.264,6.398,4.057,6.605L2.254,8.417L1.46,7.557
	c-0.197-0.181-0.407-0.25-0.679-0.202L0,7.492c0,0.001,0.001,0.002,0.001,0.002l1.892,1.983C1.987,9.574,2.13,9.663,2.25,9.628
	c0.133,0,0.26-0.053,0.354-0.146l2.944-2.965L4.773,6.381z M7.381,14.58c0.168,0.24,0.363,0.332,0.656,0.332H16l-0.466-0.666
	c-0.168-0.24-0.363-0.333-0.656-0.334H6.914L7.381,14.58z M4.773,12.745c-0.289-0.052-0.509,0.018-0.717,0.225l-1.803,1.812
	l-0.794-0.86c-0.197-0.181-0.407-0.25-0.679-0.202L0,13.856c0,0.001,0.001,0.002,0.001,0.002l1.892,1.983
	c0.094,0.097,0.238,0.186,0.357,0.15c0.133,0,0.26-0.053,0.354-0.146l2.944-2.965L4.773,12.745z"/>
</svg>
