<?xml version="1.0" encoding="utf-8"?>
<!-- Generator: Adobe Illustrator 16.0.0, SVG Export Plug-In . SVG Version: 6.00 Build 0)  -->
<!DOCTYPE svg PUBLIC "-//W3C//DTD SVG 1.1//EN" "http://www.w3.org/Graphics/SVG/1.1/DTD/svg11.dtd">
<svg version="1.1" id="Layer" xmlns="http://www.w3.org/2000/svg" xmlns:xlink="http://www.w3.org/1999/xlink" x="0px" y="0px"
	 width="24px" height="24px" viewBox="0 0 24 24" enable-background="new 0 0 24 24" xml:space="preserve">
<path fill="#231F20" d="M19.486,3.75h-1.299V1.688C18.188,1.306,17.879,1,17.5,1s-0.688,0.306-0.688,0.688V3.75H7.188V1.688
	C7.188,1.306,6.879,1,6.5,1S5.812,1.306,5.812,1.688V3.75H4.514c-1.182,0-2.139,0.953-2.139,2.133v14.975
	C2.375,22.047,3.332,23,4.514,23h14.973c1.182,0,2.139-0.953,2.139-2.143V5.883C21.625,4.703,20.668,3.75,19.486,3.75z
	 M20.25,20.857c0,0.424-0.343,0.768-0.764,0.768H4.514c-0.42,0-0.764-0.344-0.764-0.768V10.625h16.5V20.857z M20.25,9.25H3.75V5.883
	c0-0.416,0.343-0.758,0.764-0.758h1.299v0.688C5.812,6.194,6.121,6.5,6.5,6.5s0.688-0.306,0.688-0.688V5.125h9.625v0.688
	c0,0.382,0.309,0.688,0.688,0.688s0.688-0.306,0.688-0.688V5.125h1.299c0.42,0,0.764,0.342,0.764,0.758V9.25z"/>
<path fill="#231F20" d="M14.756,17.46c-0.935,0-1.695,0.761-1.695,1.695s0.76,1.695,1.695,1.695s1.695-0.761,1.695-1.695
	S15.691,17.46,14.756,17.46z M14.756,19.569c-0.229,0-0.414-0.186-0.414-0.414s0.186-0.414,0.414-0.414s0.414,0.186,0.414,0.414
	S14.984,19.569,14.756,19.569z M15.528,13.532l-0.461,0.511l-6.807,6.808l-0.195-1.103c-0.059-0.332,0.031-0.577,0.219-0.817
	l0.462-0.511l6.806-6.808l0.194,1.103C15.806,13.047,15.716,13.292,15.528,13.532z M9.356,11.612c-0.935,0-1.695,0.761-1.695,1.695
	s0.76,1.695,1.695,1.695s1.695-0.761,1.695-1.695S10.292,11.612,9.356,11.612z M9.356,13.722c-0.229,0-0.414-0.186-0.414-0.414
	s0.186-0.414,0.414-0.414s0.414,0.186,0.414,0.414S9.585,13.722,9.356,13.722z"/>
</svg>
