<?xml version="1.0" encoding="iso-8859-1"?>
<!-- Generator: Adobe Illustrator 16.0.0, SVG Export Plug-In . SVG Version: 6.00 Build 0)  -->
<!DOCTYPE svg PUBLIC "-//W3C//DTD SVG 1.1//EN" "http://www.w3.org/Graphics/SVG/1.1/DTD/svg11.dtd">
<svg version="1.1" id="Layer_3" xmlns="http://www.w3.org/2000/svg" xmlns:xlink="http://www.w3.org/1999/xlink" x="0px" y="0px"
	 width="24px" height="24px" viewBox="0 0 24 24" style="enable-background:new 0 0 24 24;" xml:space="preserve">
<path style="fill:#231F20;" d="M10.507,2.629h10.95c0.404,0.001,0.672,0.129,0.902,0.457L23,4.004H12.052
	c-0.404,0-0.673-0.127-0.902-0.459L10.507,2.629z M7.563,1.022c-0.397-0.069-0.7,0.023-0.986,0.307L4.099,3.82L3.008,2.638
	c-0.271-0.245-0.56-0.344-0.934-0.278L1,2.55c0,0.001,0.001,0.002,0.001,0.002l2.601,2.728C3.731,5.411,3.93,5.535,4.094,5.488
	c0.183,0,0.356-0.074,0.485-0.203l4.049-4.074L7.563,1.022z M11.149,12.298c0.229,0.328,0.498,0.455,0.902,0.455H23l-0.641-0.918
	c-0.23-0.328-0.499-0.456-0.902-0.457h-10.95L11.149,12.298z M7.563,9.771c-0.397-0.069-0.7,0.023-0.986,0.312l-2.478,2.491
	l-1.091-1.183c-0.271-0.251-0.56-0.344-0.934-0.278L1,11.299c0,0.007,0.001,0.008,0.001,0.008l2.601,2.728
	c0.129,0.132,0.329,0.25,0.492,0.203c0.183,0,0.356-0.07,0.485-0.199L8.628,9.96L7.563,9.771z M11.149,21.047
	c0.229,0.331,0.498,0.455,0.902,0.455H23l-0.641-0.912c-0.23-0.334-0.499-0.462-0.902-0.463h-10.95L11.149,21.047z M7.563,18.526
	c-0.397-0.075-0.7,0.023-0.986,0.307l-2.478,2.491l-1.091-1.183c-0.271-0.251-0.56-0.344-0.934-0.278L1,20.054
	c0,0.001,0.001,0.002,0.001,0.002l2.601,2.728c0.129,0.132,0.329,0.256,0.492,0.206c0.183,0,0.356-0.073,0.485-0.202l4.049-4.078
	L7.563,18.526z"/>
</svg>
