<?xml version="1.0" encoding="utf-8"?>
<!-- Generator: Adobe Illustrator 24.1.0, SVG Export Plug-In . SVG Version: 6.00 Build 0)  -->
<svg version="1.1" id="Layer_3" xmlns="http://www.w3.org/2000/svg" xmlns:xlink="http://www.w3.org/1999/xlink" x="0px" y="0px"
	 viewBox="0 0 24 24" enable-background="new 0 0 24 24" xml:space="preserve">
<path fill="#231F20" d="M6.01,2.629h15.446c0.404,0.001,0.672,0.129,0.902,0.457L23,4.004H7.555c-0.404,0-0.673-0.127-0.902-0.459
	L6.01,2.629z M1,2.629h1.441C2.845,2.63,3.114,2.758,3.344,3.086l0.641,0.918h-1.44c-0.404,0-0.673-0.127-0.902-0.459L1,2.629z"/>
<g>
	<g>
		<path fill="#231F20" d="M6.01,11.378h15.446c0.404,0.001,0.672,0.129,0.902,0.457L23,12.753H7.555
			c-0.404,0-0.673-0.127-0.902-0.459L6.01,11.378z"/>
	</g>
	<g>
		<path fill="#231F20" d="M1,11.378h1.441c0.404,0.001,0.672,0.129,0.902,0.457l0.641,0.918h-1.44c-0.404,0-0.673-0.127-0.902-0.459
			L1,11.378z"/>
	</g>
</g>
<g>
	<g>
		<path fill="#231F20" d="M6.01,20.127h15.446c0.404,0.001,0.672,0.129,0.902,0.457L23,21.502H7.555
			c-0.404,0-0.673-0.127-0.902-0.459L6.01,20.127z"/>
	</g>
	<g>
		<path fill="#231F20" d="M1,20.127h1.441c0.404,0.001,0.672,0.129,0.902,0.457l0.641,0.918h-1.44c-0.404,0-0.673-0.127-0.902-0.459
			L1,20.127z"/>
	</g>
</g>
</svg>
