<?xml version="1.0" encoding="utf-8"?>
<!-- Generator: Adobe Illustrator 24.1.0, SVG Export Plug-In . SVG Version: 6.00 Build 0)  -->
<svg version="1.1" id="Layer_3" xmlns="http://www.w3.org/2000/svg" xmlns:xlink="http://www.w3.org/1999/xlink" x="0px" y="0px"
	 viewBox="0 0 24 24" enable-background="new 0 0 24 24" xml:space="preserve">
<path fill="#231F20" d="M9.608,13h-7.25c-0.76,0-1.375,0.617-1.375,1.375v7.25C0.983,22.383,1.598,23,2.358,23h7.25
	c0.76,0,1.375-0.617,1.375-1.375v-7.25C10.983,13.617,10.369,13,9.608,13z M9.608,21.625h-7.25v-7.25h7.25V21.625z"/>
<path fill="#231F20" d="M21.625,13h-7.25C13.614,13,13,13.617,13,14.375v7.25C13,22.383,13.614,23,14.375,23h7.25
	C22.385,23,23,22.383,23,21.625v-7.25C23,13.617,22.385,13,21.625,13z M21.625,21.625h-7.25v-7.25h7.25V21.625z"/>
<path fill="#231F20" d="M9.659,1.219h-7.25c-0.76,0-1.375,0.617-1.375,1.375v7.25c0,0.758,0.615,1.375,1.375,1.375h7.25
	c0.76,0,1.375-0.617,1.375-1.375v-7.25C11.034,1.836,10.42,1.219,9.659,1.219z M9.659,9.844h-7.25v-7.25h7.25V9.844z"/>
<path fill="#231F20" d="M21.675,1.219h-7.25c-0.76,0-1.375,0.617-1.375,1.375v7.25c0,0.758,0.615,1.375,1.375,1.375h7.25
	c0.76,0,1.375-0.617,1.375-1.375v-7.25C23.05,1.836,22.436,1.219,21.675,1.219z M21.675,9.844h-7.25v-7.25h7.25V9.844z"/>
</svg>
