<?xml version="1.0" encoding="utf-8"?>
<!-- Generator: Adobe Illustrator 24.1.0, SVG Export Plug-In . SVG Version: 6.00 Build 0)  -->
<svg version="1.1" id="Layer_3" xmlns="http://www.w3.org/2000/svg" xmlns:xlink="http://www.w3.org/1999/xlink" x="0px" y="0px"
	 viewBox="0 0 24 24" enable-background="new 0 0 24 24" xml:space="preserve">
<path fill="#231F20" d="M9.625,1h-7.25C1.614,1,1,1.618,1,2.375v2.25C1,5.383,1.614,6,2.375,6h7.25C10.385,6,11,5.383,11,4.625
	v-2.25C11,1.618,10.385,1,9.625,1z M9.625,4.625h-7.25v-2.25h7.25V4.625z"/>
<path fill="#231F20" d="M9.625,9.479h-7.25C1.614,9.479,1,10.096,1,10.854v2.25c0,0.758,0.615,1.375,1.375,1.375h7.25
	c0.76,0,1.375-0.617,1.375-1.375v-2.25C11,10.096,10.385,9.479,9.625,9.479z M9.625,13.104h-7.25v-2.25h7.25V13.104z"/>
<path fill="#231F20" d="M9.625,17.958h-7.25C1.614,17.958,1,18.575,1,19.333v2.25c0,0.758,0.615,1.375,1.375,1.375h7.25
	c0.76,0,1.375-0.617,1.375-1.375v-2.25C11,18.575,10.385,17.958,9.625,17.958z M9.625,21.583h-7.25v-2.25h7.25V21.583z"/>
<path fill="#231F20" d="M21.624,0.979h-7.25c-0.76,0-1.375,0.617-1.375,1.375v2.25c0,0.758,0.615,1.375,1.375,1.375h7.25
	c0.76,0,1.375-0.617,1.375-1.375v-2.25C22.999,1.596,22.384,0.979,21.624,0.979z M21.624,4.604h-7.25v-2.25h7.25V4.604z"/>
<path fill="#231F20" d="M21.624,9.458h-7.25c-0.76,0-1.375,0.617-1.375,1.375v2.25c0,0.758,0.615,1.375,1.375,1.375h7.25
	c0.76,0,1.375-0.617,1.375-1.375v-2.25C22.999,10.075,22.384,9.458,21.624,9.458z M21.624,13.083h-7.25v-2.25h7.25V13.083z"/>
<path fill="#231F20" d="M21.624,17.937h-7.25c-0.76,0-1.375,0.617-1.375,1.375v2.25c0,0.758,0.615,1.375,1.375,1.375h7.25
	c0.76,0,1.375-0.617,1.375-1.375v-2.25C22.999,18.554,22.384,17.937,21.624,17.937z M21.624,21.562h-7.25v-2.25h7.25V21.562z"/>
</svg>
