<?xml version="1.0" encoding="utf-8"?>
<!-- Generator: Adobe Illustrator 16.0.0, SVG Export Plug-In . SVG Version: 6.00 Build 0)  -->
<!DOCTYPE svg PUBLIC "-//W3C//DTD SVG 1.1//EN" "http://www.w3.org/Graphics/SVG/1.1/DTD/svg11.dtd">
<svg version="1.1" id="Layer" xmlns="http://www.w3.org/2000/svg" xmlns:xlink="http://www.w3.org/1999/xlink" x="0px" y="0px"
	 width="16px" height="16px" viewBox="0 0 16 16" enable-background="new 0 0 16 16" xml:space="preserve">
<path fill="#231F20" d="M15.498,4L11.5,0.002V0h-0.001H8.5H8.499H1.5c-0.552,0-1,0.447-1,1v14c0,0.553,0.448,1,1,1h10h3
	c0.552,0,1-0.447,1-1V4H15.498z M11.5,1.416L14.084,4H12.5h-0.002L11.5,3.002V1.416z M10.5,1v1.002L9.498,1H10.5z M8.5,1.416
	L11.084,4H8.5V1.416z M1.5,15V1h6v3c0,0.553,0.448,1,1,1h3v10H1.5z M14.5,15h-2V5h2V15z"/>
</svg>
