<?xml version="1.0" encoding="iso-8859-1"?>
<!-- Generator: Adobe Illustrator 16.0.0, SVG Export Plug-In . SVG Version: 6.00 Build 0)  -->
<!DOCTYPE svg PUBLIC "-//W3C//DTD SVG 1.1//EN" "http://www.w3.org/Graphics/SVG/1.1/DTD/svg11.dtd">
<svg version="1.1" id="Layer" xmlns="http://www.w3.org/2000/svg" xmlns:xlink="http://www.w3.org/1999/xlink" x="0px" y="0px"
	 width="24px" height="24px" viewBox="0 0 24 24" style="enable-background:new 0 0 24 24;" xml:space="preserve">
<path style="fill:#231F20;" d="M15.212,11.501c-0.11-0.406-0.298-0.762-0.559-1.052c-0.26-0.297-0.604-0.526-1.033-0.686
	c-0.43-0.164-0.955-0.238-1.579-0.238c-0.546,0-1.052,0.04-1.521,0.118c-0.465,0.084-0.799,0.171-1,0.258
	c0.17,0.673,0.763,1.082,1.448,1.002c0.364-0.04,0.569-0.047,0.936-0.047c0.399,0,0.729,0.062,0.98,0.177
	c0.252,0.114,0.447,0.274,0.591,0.468c0.147,0.195,0.245,0.415,0.301,0.668c0.059,0.246,0.083,0.501,0.083,0.759v0.431
	c-0.043-0.007-0.12-0.025-0.234-0.049c-0.11-0.021-0.241-0.045-0.39-0.07c-0.152-0.033-0.31-0.054-0.474-0.073
	c-0.169-0.011-0.332-0.023-0.484-0.023c-0.491,0-0.961,0.055-1.404,0.15c-0.445,0.103-0.836,0.257-1.17,0.469
	c-0.333,0.213-0.599,0.49-0.788,0.835c-0.2,0.345-0.295,0.755-0.295,1.231c0,0.507,0.083,0.936,0.248,1.287
	c0.168,0.359,0.403,0.645,0.704,0.86c0.301,0.217,0.656,0.378,1.066,0.475c0.414,0.102,0.864,0.149,1.353,0.149
	c0.345,0,0.694-0.01,1.042-0.042c0.352-0.025,0.678-0.053,0.979-0.089c0.299-0.03,0.569-0.068,0.811-0.109
	c0.238-0.039,0.424-0.067,0.559-0.089v-5.429C15.381,12.351,15.322,11.909,15.212,11.501z M13.859,17.182
	c-0.191,0.044-0.424,0.079-0.708,0.097c-0.283,0.012-0.61,0.023-0.977,0.023c-0.613,0-1.096-0.107-1.451-0.324
	c-0.358-0.216-0.536-0.609-0.536-1.16c0-0.302,0.073-0.548,0.22-0.728c0.142-0.187,0.324-0.333,0.54-0.433
	c0.217-0.107,0.455-0.18,0.717-0.211c0.262-0.035,0.509-0.048,0.744-0.048c0.355,0,0.662,0.015,0.911,0.055
	c0.248,0.039,0.43,0.086,0.54,0.144V17.182z M20.248,6.5L14.75,1.002V1h-0.001H5.125C4.365,1,3.75,1.617,3.75,2.375v19.25
	C3.75,22.383,4.365,23,5.125,23h13.75c0.76,0,1.375-0.617,1.375-1.375V7.875V6.5H20.248z M14.75,2.949L18.304,6.5H14.75V2.949z
	 M18.875,21.625H5.125V2.375h8.25V6.5c0,0.758,0.615,1.375,1.375,1.375h4.125V21.625z"/>
</svg>
