<?xml version="1.0" encoding="iso-8859-1"?>
<!-- Generator: Adobe Illustrator 16.0.0, SVG Export Plug-In . SVG Version: 6.00 Build 0)  -->
<!DOCTYPE svg PUBLIC "-//W3C//DTD SVG 1.1//EN" "http://www.w3.org/Graphics/SVG/1.1/DTD/svg11.dtd">
<svg version="1.1" id="Layer" xmlns="http://www.w3.org/2000/svg" xmlns:xlink="http://www.w3.org/1999/xlink" x="0px" y="0px"
	 width="16px" height="16px" viewBox="0 0 16 16" style="enable-background:new 0 0 16 16;" xml:space="preserve">
<path style="fill:#231F20;" d="M10.336,7.636C10.255,7.341,10.12,7.085,9.93,6.871c-0.189-0.215-0.44-0.38-0.751-0.498
	C8.865,6.256,8.484,6.199,8.03,6.199c-0.396,0-0.765,0.028-1.105,0.089C6.585,6.349,6.342,6.412,6.197,6.476
	C6.32,6.961,6.752,7.259,7.249,7.202C7.513,7.174,7.663,7.167,7.93,7.167c0.291,0,0.53,0.044,0.713,0.13
	c0.182,0.085,0.324,0.198,0.43,0.339C9.18,7.778,9.251,7.939,9.292,8.122c0.041,0.182,0.06,0.366,0.06,0.554v0.313
	c-0.032-0.007-0.088-0.02-0.17-0.037C9.102,8.938,9.006,8.919,8.898,8.899C8.787,8.878,8.673,8.863,8.553,8.85
	C8.431,8.839,8.312,8.832,8.2,8.832c-0.356,0-0.697,0.037-1.02,0.109c-0.325,0.073-0.607,0.187-0.851,0.34
	C6.086,9.436,5.894,9.637,5.755,9.888c-0.144,0.251-0.213,0.55-0.213,0.897c0,0.366,0.06,0.678,0.181,0.936
	c0.122,0.26,0.292,0.469,0.511,0.626c0.219,0.158,0.477,0.272,0.776,0.346c0.3,0.072,0.627,0.108,0.984,0.108
	c0.251,0,0.503-0.01,0.757-0.03c0.255-0.02,0.493-0.041,0.712-0.065c0.217-0.024,0.414-0.051,0.588-0.08
	c0.173-0.027,0.31-0.05,0.407-0.065V8.613C10.458,8.257,10.417,7.933,10.336,7.636z M9.353,11.77
	c-0.138,0.032-0.31,0.056-0.515,0.067c-0.207,0.012-0.443,0.018-0.71,0.018c-0.446,0-0.797-0.078-1.055-0.236
	c-0.261-0.157-0.389-0.439-0.389-0.844c0-0.22,0.053-0.396,0.159-0.528c0.104-0.134,0.236-0.239,0.393-0.315
	c0.159-0.078,0.332-0.127,0.521-0.152c0.191-0.023,0.372-0.036,0.542-0.036c0.259,0,0.48,0.015,0.662,0.043
	C9.14,9.812,9.272,9.848,9.353,9.888V11.77z M13.998,4L10,0.002V0H9.999H3C2.448,0,2,0.447,2,1v14c0,0.553,0.448,1,1,1h10
	c0.552,0,1-0.447,1-1V5V4H13.998z M10,1.416L12.584,4H10V1.416z M13,15H3V1h6v3c0,0.553,0.448,1,1,1h3V15z"/>
</svg>
