<?xml version="1.0" encoding="iso-8859-1"?>
<!-- Generator: Adobe Illustrator 16.0.0, SVG Export Plug-In . SVG Version: 6.00 Build 0)  -->
<!DOCTYPE svg PUBLIC "-//W3C//DTD SVG 1.1//EN" "http://www.w3.org/Graphics/SVG/1.1/DTD/svg11.dtd">
<svg version="1.1" id="Layer" xmlns="http://www.w3.org/2000/svg" xmlns:xlink="http://www.w3.org/1999/xlink" x="0px" y="0px"
	 width="16px" height="16px" viewBox="0 0 16 16" style="enable-background:new 0 0 16 16;" xml:space="preserve">
<path style="fill:#231F20;" d="M10.707,8.036c0-0.013,0.007-0.023,0.007-0.036V6.594c0-0.553-0.448-1-1-1H6.286
	c-0.552,0-1,0.447-1,1V8c0,0.013,0.007,0.023,0.007,0.036C4.57,8.105,4,8.709,4,9.45v1.714c0,0.788,0.641,1.43,1.428,1.43h0.429
	c0.051,0,0.094-0.021,0.143-0.028V13c0,0.553,0.448,1,1,1h2c0.552,0,1-0.447,1-1v-0.435c0.049,0.007,0.092,0.028,0.143,0.028h0.429
	c0.788,0,1.428-0.642,1.428-1.43V9.45C12,8.709,11.43,8.105,10.707,8.036z M6.286,6.594h3.429V8H6.286V6.594z M9,13H7v-1.688h2V13z
	 M11,11.164c0,0.237-0.192,0.43-0.428,0.43h-0.429v-0.858c0-0.236-0.192-0.428-0.428-0.428H6.286c-0.236,0-0.428,0.191-0.428,0.428
	v0.858H5.428C5.192,11.594,5,11.401,5,11.164V9.45c0-0.236,0.192-0.428,0.428-0.428h5.144C10.808,9.022,11,9.214,11,9.45V11.164z
	 M13.998,4L10,0.002V0H9.999H3C2.448,0,2,0.447,2,1v14c0,0.553,0.448,1,1,1h10c0.552,0,1-0.447,1-1V5V4H13.998z M10,1.416L12.584,4
	H10V1.416z M13,15H3V1h6v3c0,0.553,0.448,1,1,1h3V15z"/>
</svg>
