<?xml version="1.0" encoding="iso-8859-1"?>
<!-- Generator: Adobe Illustrator 16.0.0, SVG Export Plug-In . SVG Version: 6.00 Build 0)  -->
<!DOCTYPE svg PUBLIC "-//W3C//DTD SVG 1.1//EN" "http://www.w3.org/Graphics/SVG/1.1/DTD/svg11.dtd">
<svg version="1.1" id="Layer" xmlns="http://www.w3.org/2000/svg" xmlns:xlink="http://www.w3.org/1999/xlink" x="0px" y="0px"
	 width="16px" height="16px" viewBox="0 0 16 16" style="enable-background:new 0 0 16 16;" xml:space="preserve">
<path style="fill:#231F20;" d="M15,2H5H4v0.002L0.002,6H0v0.002V13c0,0.553,0.447,1,1,1h8.119c0,0.325,0.149,0.635,0.422,0.823
	C9.711,14.94,9.91,15,10.109,15c0.167,0,0.334-0.042,0.485-0.126l1.14-0.633l1.139,0.633C13.025,14.958,13.192,15,13.359,15
	c0.199,0,0.397-0.06,0.568-0.177C14.2,14.635,14.35,14.325,14.35,14H15c0.553,0,1-0.448,1-1V3C16,2.447,15.553,2,15,2z M4,3.416V6
	H1.416L4,3.416z M13.162,10.654c-0.168,0.13-0.247,0.342-0.211,0.547c0.021,0.137,0.273,1.868,0.409,2.799l-1.35-0.75
	c-0.085-0.047-0.18-0.071-0.275-0.071s-0.189,0.024-0.275,0.071L10.109,14c0.135-0.927,0.386-2.648,0.409-2.795
	c0.038-0.206-0.042-0.419-0.21-0.55c-0.534-0.413-0.839-1.012-0.839-1.643c0-1.177,1.017-2.135,2.266-2.135
	C12.983,6.878,14,7.836,14,9.013C14,9.644,13.694,10.242,13.162,10.654z M15,9.013V13h-0.775c0.013,0.093,0.026,0.18,0.039,0.269
	c-0.104-0.715-0.229-1.568-0.291-1.99C14.629,10.685,15,9.872,15,9.013c0-1.729-1.465-3.135-3.266-3.135S8.468,7.284,8.468,9.013
	c0,0.859,0.372,1.672,1.028,2.267c-0.041,0.276-0.177,1.206-0.273,1.869c0.007-0.05,0.014-0.096,0.021-0.148H1V7h3
	c0.553,0,1-0.447,1-1V3h10V9.013z"/>
</svg>
