<?xml version="1.0" encoding="iso-8859-1"?>
<!-- Generator: Adobe Illustrator 16.0.0, SVG Export Plug-In . SVG Version: 6.00 Build 0)  -->
<!DOCTYPE svg PUBLIC "-//W3C//DTD SVG 1.1//EN" "http://www.w3.org/Graphics/SVG/1.1/DTD/svg11.dtd">
<svg version="1.1" id="Layer" xmlns="http://www.w3.org/2000/svg" xmlns:xlink="http://www.w3.org/1999/xlink" x="0px" y="0px"
	 width="24px" height="24px" viewBox="0 0 24 24" style="enable-background:new 0 0 24 24;" xml:space="preserve">
<path style="fill:#231F20;" d="M21.625,3.062H7.875H6.5v0.002L1.002,8.562H1v0.002v9.623c0,0.758,0.614,1.375,1.375,1.375h11.163
	c0,0.448,0.205,0.875,0.58,1.134c0.235,0.158,0.507,0.241,0.782,0.241c0.229,0,0.46-0.06,0.667-0.173l1.568-0.873l1.567,0.873
	c0.208,0.113,0.439,0.173,0.667,0.173c0.275,0,0.547-0.083,0.782-0.241c0.375-0.259,0.581-0.686,0.581-1.134h0.894
	c0.761,0,1.375-0.618,1.375-1.375V4.438C23,3.68,22.386,3.062,21.625,3.062z M6.5,5.012v3.551H2.946L6.5,5.012z M19.098,14.963
	c-0.232,0.177-0.341,0.471-0.29,0.752c0.027,0.189,0.376,2.565,0.561,3.848l-1.857-1.031c-0.118-0.064-0.248-0.101-0.377-0.101
	s-0.26,0.036-0.377,0.101L14.9,19.562c0.185-1.272,0.53-3.645,0.562-3.844c0.052-0.282-0.056-0.577-0.29-0.755
	c-0.733-0.565-1.153-1.393-1.153-2.258c0-1.616,1.397-2.938,3.116-2.938c1.718,0,3.115,1.321,3.115,2.938
	C20.25,13.571,19.83,14.398,19.098,14.963z M21.625,12.706v5.481H20.56c0.016,0.128-0.263-1.786-0.345-2.366
	C21.113,15.005,21.625,13.888,21.625,12.706c0-2.379-2.016-4.312-4.49-4.312s-4.491,1.934-4.491,4.312
	c0,1.182,0.512,2.299,1.415,3.116c-0.058,0.382-0.359,2.436-0.349,2.365H2.375v-8.25H6.5c0.761,0,1.375-0.617,1.375-1.375V4.438
	h13.75V12.706z"/>
</svg>
