<?xml version="1.0" encoding="utf-8"?>
<!-- Generator: Adobe Illustrator 27.4.1, SVG Export Plug-In . SVG Version: 6.00 Build 0)  -->
<svg version="1.1" id="Layer" xmlns="http://www.w3.org/2000/svg" xmlns:xlink="http://www.w3.org/1999/xlink" x="0px" y="0px"
	 viewBox="0 0 24 24" enable-background="new 0 0 24 24" xml:space="preserve">
<path fill="#231F20" d="M20.248,6.5L14.75,1.002V1h-0.002H5.125C4.365,1,3.75,1.617,3.75,2.375v19.25C3.75,22.383,4.365,23,5.125,23
	h13.75c0.76,0,1.375-0.617,1.375-1.375V7.875V6.5H20.248z M14.75,2.949L18.304,6.5H14.75V2.949z M18.875,21.625H5.125V2.375h8.25
	V6.5c0,0.758,0.615,1.375,1.375,1.375h4.125V21.625z"/>
<g>
	<path fill="#231F20" d="M12.007,8.386v5.907l-4.934-3.236c-0.611,0.93-0.973,2.04-0.973,3.236c0,3.262,2.645,5.907,5.907,5.907
		s5.907-2.645,5.907-5.907S15.269,8.386,12.007,8.386z"/>
	<path fill="#231F20" d="M11.016,7.5c-1.687,0-3.168,0.869-4.03,2.182l4.03,2.643V7.5z"/>
</g>
</svg>
