<?xml version="1.0" encoding="iso-8859-1"?>
<!-- Generator: Adobe Illustrator 16.0.0, SVG Export Plug-In . SVG Version: 6.00 Build 0)  -->
<!DOCTYPE svg PUBLIC "-//W3C//DTD SVG 1.1//EN" "http://www.w3.org/Graphics/SVG/1.1/DTD/svg11.dtd">
<svg version="1.1" id="Layer_4" xmlns="http://www.w3.org/2000/svg" xmlns:xlink="http://www.w3.org/1999/xlink" x="0px" y="0px"
	 width="16px" height="16px" viewBox="0 0 16 16" style="enable-background:new 0 0 16 16;" xml:space="preserve">
<path style="fill-rule:evenodd;clip-rule:evenodd;fill:#231F20;" d="M3,0H1C0.448,0,0,0.447,0,1v14c0,0.553,0.448,1,1,1h2
	c0.552,0,1-0.447,1-1V1C4,0.447,3.552,0,3,0z M3,15H1V1h2V15z M2.5,2.2c0,0.276-0.224,0.5-0.5,0.5S1.5,2.477,1.5,2.2
	S1.724,1.7,2,1.7S2.5,1.924,2.5,2.2z M8,0H6C5.448,0,5,0.447,5,1v14c0,0.553,0.448,1,1,1h2c0.552,0,1-0.447,1-1V1
	C9,0.447,8.552,0,8,0z M8,15H6V1h2V15z M7.5,2.2c0,0.276-0.224,0.5-0.5,0.5S6.5,2.477,6.5,2.2S6.724,1.7,7,1.7S7.5,1.924,7.5,2.2z
	 M11.937,0.021L9.993,0.431c-0.536,0.112-0.88,0.64-0.767,1.177l2.866,13.604c0.113,0.537,0.639,0.881,1.176,0.768l1.944-0.409
	c0.536-0.112,0.88-0.64,0.767-1.177L13.113,0.789C13,0.252,12.474-0.092,11.937,0.021z M15.007,14.598l-1.944,0.409L10.197,1.402
	l1.944-0.409L15.007,14.598z M11.901,2.262c0.057,0.269-0.115,0.531-0.383,0.589c-0.269,0.057-0.532-0.115-0.588-0.384
	s0.114-0.532,0.383-0.589S11.844,1.993,11.901,2.262z"/>
</svg>
