<?xml version="1.0" encoding="iso-8859-1"?>
<!-- Generator: Adobe Illustrator 16.0.0, SVG Export Plug-In . SVG Version: 6.00 Build 0)  -->
<!DOCTYPE svg PUBLIC "-//W3C//DTD SVG 1.1//EN" "http://www.w3.org/Graphics/SVG/1.1/DTD/svg11.dtd">
<svg version="1.1" id="Layer_4" xmlns="http://www.w3.org/2000/svg" xmlns:xlink="http://www.w3.org/1999/xlink" x="0px" y="0px"
	 width="24px" height="24px" viewBox="0 0 24 24" style="enable-background:new 0 0 24 24;" xml:space="preserve">
<path style="fill-rule:evenodd;clip-rule:evenodd;fill:#231F20;" d="M5.125,1h-2.75C1.615,1,1,1.617,1,2.375v19.25
	C1,22.383,1.615,23,2.375,23h2.75c0.76,0,1.375-0.617,1.375-1.375V2.375C6.5,1.617,5.885,1,5.125,1z M5.125,21.625h-2.75V2.375h2.75
	V21.625z M4.438,4.026c0,0.376-0.309,0.688-0.688,0.688c-0.379,0-0.688-0.312-0.688-0.688c0-0.382,0.308-0.688,0.688-0.688
	C4.129,3.339,4.438,3.645,4.438,4.026z M12,1H9.25C8.49,1,7.875,1.617,7.875,2.375v19.25C7.875,22.383,8.49,23,9.25,23H12
	c0.76,0,1.375-0.617,1.375-1.375V2.375C13.375,1.617,12.76,1,12,1z M12,21.625H9.25V2.375H12V21.625z M11.312,4.026
	c0,0.376-0.309,0.688-0.688,0.688S9.938,4.402,9.938,4.026c0-0.382,0.309-0.688,0.688-0.688S11.312,3.645,11.312,4.026z
	 M17.413,1.027L14.74,1.595c-0.738,0.153-1.211,0.874-1.054,1.616l3.941,18.707c0.154,0.736,0.879,1.209,1.616,1.055l2.673-0.567
	c0.738-0.153,1.211-0.874,1.054-1.616L19.032,2.082C18.875,1.346,18.152,0.873,17.413,1.027z M21.635,21.07l-2.673,0.562
	L15.021,2.93l2.673-0.562L21.635,21.07z M17.363,4.111c0.081,0.368-0.156,0.73-0.527,0.806c-0.369,0.08-0.731-0.156-0.808-0.524
	s0.158-0.731,0.527-0.812C16.923,3.507,17.286,3.743,17.363,4.111z"/>
</svg>
