<?xml version="1.0" encoding="iso-8859-1"?>
<!-- Generator: Adobe Illustrator 16.0.0, SVG Export Plug-In . SVG Version: 6.00 Build 0)  -->
<!DOCTYPE svg PUBLIC "-//W3C//DTD SVG 1.1//EN" "http://www.w3.org/Graphics/SVG/1.1/DTD/svg11.dtd">
<svg version="1.1" id="Layer" xmlns="http://www.w3.org/2000/svg" xmlns:xlink="http://www.w3.org/1999/xlink" x="0px" y="0px"
	 width="16px" height="16px" viewBox="0 0 16 16" style="enable-background:new 0 0 16 16;" xml:space="preserve">
<path style="fill:#231F20;" d="M13,0H3C2.448,0,2,0.447,2,1v14c0,0.553,0.448,1,1,1h10c0.552,0,1-0.447,1-1V1
	C14,0.447,13.552,0,13,0z M13,15H3V7h10V15z M13,6H3V1h10V6z M5.5,3h3.877c0.293,0.002,0.488,0.094,0.656,0.334L10.5,4H6.623
	C6.33,3.999,6.135,3.907,5.967,3.667L5.5,3z M5.5,8h3.877c0.293,0.002,0.488,0.094,0.656,0.334L10.5,9H6.623
	C6.33,8.999,6.135,8.907,5.967,8.667L5.5,8z"/>
</svg>
