<?xml version="1.0" encoding="iso-8859-1"?>
<!-- Generator: Adobe Illustrator 16.0.0, SVG Export Plug-In . SVG Version: 6.00 Build 0)  -->
<!DOCTYPE svg PUBLIC "-//W3C//DTD SVG 1.1//EN" "http://www.w3.org/Graphics/SVG/1.1/DTD/svg11.dtd">
<svg version="1.1" id="Layer" xmlns="http://www.w3.org/2000/svg" xmlns:xlink="http://www.w3.org/1999/xlink" x="0px" y="0px"
	 width="24px" height="24px" viewBox="0 0 24 24" style="enable-background:new 0 0 24 24;" xml:space="preserve">
<path style="fill:#231F20;" d="M19,1H5C4.24,1,3.625,1.617,3.625,2.125v19.25C3.625,22.383,4.24,23,5,23h14
	c0.76,0,1.375-0.617,1.375-1.625V2.125C20.375,1.617,19.76,1,19,1z M19,21.625H5v-11.25h14V21.625z M19,9H5V2.375h14V9z
	 M8.562,5.125h5.33c0.404,0.002,0.673,0.129,0.902,0.457L15.438,6.5h-5.33C9.703,6.499,9.435,6.372,9.205,6.044L8.562,5.125z
	 M8.562,12h5.33c0.404,0.002,0.673,0.129,0.902,0.457l0.643,0.918h-5.33c-0.404-0.001-0.673-0.128-0.902-0.456L8.562,12z"/>
</svg>
