<?xml version="1.0" encoding="iso-8859-1"?>
<!-- Generator: Adobe Illustrator 16.0.0, SVG Export Plug-In . SVG Version: 6.00 Build 0)  -->
<!DOCTYPE svg PUBLIC "-//W3C//DTD SVG 1.1//EN" "http://www.w3.org/Graphics/SVG/1.1/DTD/svg11.dtd">
<svg version="1.1" id="Layer" xmlns="http://www.w3.org/2000/svg" xmlns:xlink="http://www.w3.org/1999/xlink" x="0px" y="0px"
	 width="24px" height="24px" viewBox="0 0 24 24" style="enable-background:new 0 0 24 24;" xml:space="preserve">
<path d="M22.856,18.258l-1.375-2.75c-0.232-0.458-0.702-0.754-1.218-0.758H17.5c-0.375,0-1.569-0.004-2.495-1.87
	c-0.093-0.188-0.141-0.385-0.151-0.603c0.088-0.127,0.312-0.365,0.509-0.579c0.237-0.256,0.518-0.558,0.844-0.938
	c0.488-0.57,1.087-1.373,1.359-2.448c0.558-2.192,0.017-4.169-1.569-5.715C14.943,1.565,13.535,1,11.99,1
	c-0.055,0-0.109,0.003-0.162,0.008c-1.449,0.036-2.803,0.6-3.826,1.602C6.416,4.155,5.875,6.132,6.433,8.324
	c0.272,1.075,0.871,1.872,1.363,2.449c0.323,0.374,0.604,0.676,0.84,0.932c0.198,0.214,0.421,0.452,0.509,0.579
	c-0.007,0.224-0.058,0.42-0.15,0.602C8.076,14.745,6.905,14.75,6.5,14.75c-0.002,0-2.764,0.007-2.764,0.007
	c-0.515,0.01-0.985,0.299-1.214,0.763l-1.375,2.737c-0.214,0.427-0.192,0.937,0.058,1.343c0.25,0.4,0.695,0.65,1.17,0.65h19.25
	c0.476,0,0.92-0.25,1.17-0.65C23.044,19.193,23.067,18.685,22.856,18.258z M2.375,18.875l1.375-2.743c0,0,1.5-0.012,2.771-0.004
	c1.75,0.017,2.946-1.101,3.706-2.628c0.202-0.407,0.298-0.85,0.297-1.306c-0.005-0.669-0.597-1.046-1.685-2.317
	C8.358,9.314,7.949,8.712,7.765,7.984C7.336,6.3,7.713,4.809,8.961,3.595C9.82,2.756,10.916,2.376,12,2.382V2.375
	c1.084-0.006,2.18,0.368,3.039,1.207c1.248,1.22,1.625,2.705,1.196,4.396c-0.184,0.722-0.593,1.33-1.075,1.893
	c-1.088,1.271-1.68,1.643-1.685,2.317c-0.001,0.456,0.095,0.893,0.297,1.3c0.76,1.527,1.957,2.654,3.706,2.638
	c1.274-0.008,2.771,0,2.771,0l1.375,2.75H2.375z M1,23l0.643-0.919c0.229-0.328,0.498-0.455,0.902-0.456h18.91
	c0.404,0.001,0.673,0.128,0.902,0.456L23,23H1z"/>
</svg>
