<?xml version="1.0" encoding="iso-8859-1"?>
<!-- Generator: Adobe Illustrator 16.0.0, SVG Export Plug-In . SVG Version: 6.00 Build 0)  -->
<!DOCTYPE svg PUBLIC "-//W3C//DTD SVG 1.1//EN" "http://www.w3.org/Graphics/SVG/1.1/DTD/svg11.dtd">
<svg version="1.1" id="Layer" xmlns="http://www.w3.org/2000/svg" xmlns:xlink="http://www.w3.org/1999/xlink" x="0px" y="0px"
	 width="16px" height="16px" viewBox="0 0 16 16" style="enable-background:new 0 0 16 16;" xml:space="preserve">
<path d="M15.895,12.553l-1-2c-0.168-0.335-0.509-0.549-0.884-0.553H12c-0.272,0-1.141-0.004-1.815-1.36
	c-0.067-0.136-0.103-0.279-0.11-0.438c0.065-0.092,0.227-0.266,0.372-0.421c0.172-0.186,0.377-0.405,0.613-0.681
	c0.356-0.418,0.792-0.998,0.99-1.78c0.405-1.595,0.011-3.032-1.141-4.156C10.14,0.413,9.116,0,7.993,0
	c-0.04,0-0.08,0.003-0.118,0.008C6.821,0.032,5.836,0.443,5.092,1.17C3.939,2.294,3.545,3.731,3.95,5.326
	c0.199,0.782,0.634,1.362,0.991,1.781c0.235,0.274,0.439,0.494,0.612,0.68C5.698,7.942,5.86,8.116,5.925,8.208
	C5.918,8.367,5.882,8.511,5.815,8.646C5.145,9.995,4.293,10,4,10c-0.002,0-2.011,0.007-2.011,0.007
	c-0.375,0.004-0.715,0.217-0.883,0.552l-1,1.993c-0.155,0.31-0.139,0.679,0.043,0.974S0.653,14,1,14h14
	c0.347,0,0.668-0.18,0.851-0.475S16.049,12.862,15.895,12.553z M1,13l1-1.993c0,0,1.09-0.012,2.016-0.004
	c1.272,0.011,2.144-0.802,2.695-1.913c0.146-0.296,0.216-0.615,0.215-0.948C6.924,7.654,6.493,7.383,5.701,6.457
	c-0.35-0.41-0.647-0.849-0.782-1.377C4.607,3.853,4.882,2.771,5.79,1.886C6.415,1.275,7.211,1.001,8,1.007V1
	c0.789-0.006,1.585,0.269,2.21,0.879c0.908,0.886,1.183,1.967,0.871,3.194c-0.134,0.528-0.432,0.967-0.782,1.377
	C9.507,7.376,9.076,7.647,9.074,8.135C9.073,8.468,9.143,8.787,9.289,9.083c0.552,1.111,1.423,1.928,2.695,1.917
	C12.91,10.992,14,11,14,11l1,2H1z M0,16l0.467-0.667C0.635,15.093,0.83,15.001,1.123,15h13.754c0.293,0.001,0.488,0.093,0.656,0.333
	L16,16H0z"/>
</svg>
