<?xml version="1.0" encoding="iso-8859-1"?>
<!-- Generator: Adobe Illustrator 16.0.0, SVG Export Plug-In . SVG Version: 6.00 Build 0)  -->
<!DOCTYPE svg PUBLIC "-//W3C//DTD SVG 1.1//EN" "http://www.w3.org/Graphics/SVG/1.1/DTD/svg11.dtd">
<svg version="1.1" id="Layer_2" xmlns="http://www.w3.org/2000/svg" xmlns:xlink="http://www.w3.org/1999/xlink" x="0px" y="0px"
	 width="24px" height="24px" viewBox="0 0 24 24" style="enable-background:new 0 0 24 24;" xml:space="preserve">
<path style="fill-rule:evenodd;clip-rule:evenodd;" d="M11.929,20.872c-1.959,2.685-4.705,2.47-6.297,1.317
	c-2.122-1.531-3.125-3.353-0.617-6.988c1.48-2.15,0,0,8.856-12.655c1.175-1.68,3.212-1.999,4.829-0.917
	c1.565,1.046,2.012,3.108,0.888,4.716c-6.895,9.85-4.616,6.64-6.895,9.85c-0.725,1.026-2.057,1.071-3.144,0.303
	c-0.964-0.678-1.522-2.012-0.843-2.986c1.094-1.558,2.788-3.918,2.788-3.918c0.201-0.229,0.43-0.359,0.765-0.359h1.024l0.062,0.051
	c0,0-3.072,4.368-3.253,4.646c-0.348,0.527-0.337,1.083,0.227,1.469c0.569,0.391,1.112,0.197,1.477-0.311
	c0.861-1.215,5.181-7.394,6.485-9.274c0.784-1.121,0.627-2.372-0.347-3.092c-1.039-0.759-2.163-0.484-2.98,0.674
	C11.997,7.576,8.93,12.04,6.143,15.979c-1.721,2.438-1.334,3.879,0.059,5.053c1.408,1.194,3.478,0.694,4.609-0.904
	c1.741-2.451,5.479-7.804,7.003-9.99c0.202-0.223,0.428-0.352,0.761-0.352h1.117l0.032-0.047
	C19.634,9.913,14.333,17.581,11.929,20.872z"/>
</svg>
