<?xml version="1.0" encoding="iso-8859-1"?>
<!-- Generator: Adobe Illustrator 16.0.0, SVG Export Plug-In . SVG Version: 6.00 Build 0)  -->
<!DOCTYPE svg PUBLIC "-//W3C//DTD SVG 1.1//EN" "http://www.w3.org/Graphics/SVG/1.1/DTD/svg11.dtd">
<svg version="1.1" id="Layer_2" xmlns="http://www.w3.org/2000/svg" xmlns:xlink="http://www.w3.org/1999/xlink" x="0px" y="0px"
	 width="16px" height="16px" viewBox="0 0 16 16" style="enable-background:new 0 0 16 16;" xml:space="preserve">
<path style="fill-rule:evenodd;clip-rule:evenodd;" d="M8.022,14.481c-1.033,1.446-3.096,1.853-4.138,1.248
	c-1.297-0.752-2.127-1.756-1.911-3.287c0.075-0.537,0.699-1.651,1.01-2.093c6.454-9.223,0,0,6.454-9.223
	c0.857-1.225,2.341-1.457,3.521-0.668c1.14,0.762,1.466,2.265,0.646,3.436c-5.024,7.18-3.363,4.839-5.024,7.18
	c-0.529,0.747-1.5,0.78-2.292,0.221C5.586,10.799,5.18,9.826,5.675,9.119c0.797-1.138,2.03-2.857,2.03-2.857
	c0.148-0.164,0.313-0.26,0.558-0.26H9.01l0.045,0.033c0,0-2.238,3.186-2.37,3.387C6.43,9.809,6.438,10.213,6.85,10.494
	c0.415,0.285,0.81,0.145,1.075-0.229c0.628-0.883,3.776-5.389,4.729-6.757c0.571-0.818,0.456-1.73-0.254-2.253
	c-0.757-0.555-1.577-0.355-2.173,0.489c-2.154,3.048-4.391,6.3-6.421,9.173c-1.254,1.774-1.055,2.934,0.043,3.683
	c1.097,0.75,2.534,0.504,3.359-0.659c1.269-1.787,3.993-5.688,5.104-7.28c0.147-0.164,0.312-0.258,0.555-0.258h0.814l0.023-0.035
	C13.639,6.495,9.748,12.064,8.022,14.481z"/>
</svg>
