<?xml version="1.0" encoding="iso-8859-1"?>
<!-- Generator: Adobe Illustrator 16.0.0, SVG Export Plug-In . SVG Version: 6.00 Build 0)  -->
<!DOCTYPE svg PUBLIC "-//W3C//DTD SVG 1.1//EN" "http://www.w3.org/Graphics/SVG/1.1/DTD/svg11.dtd">
<svg version="1.1" id="Layer" xmlns="http://www.w3.org/2000/svg" xmlns:xlink="http://www.w3.org/1999/xlink" x="0px" y="0px"
	 width="16px" height="16px" viewBox="0 0 16 16" style="enable-background:new 0 0 16 16;" xml:space="preserve">
<path style="fill:#231F20;" d="M0,12.702l0.467-0.667c0.168-0.24,0.363-0.332,0.656-0.333h13.754
	c0.293,0.001,0.488,0.093,0.656,0.333L16,12.702H0z M15.991,8.955c0.049,0.369-0.111,0.736-0.417,0.951l-0.667,0.465
	c-0.501,0.352-1.054,0.424-1.644,0.213L2.673,6.729c0.006,0.046,0,0.974,0,0.974L2.034,7.235C1.794,7.067,1.702,6.872,1.7,6.579
	V6.269C1.404,6.04,1.193,5.735,1.087,5.342L0.878,4.557c-0.097-0.361,0.015-0.744,0.29-0.996s0.667-0.329,1.018-0.202l13.156,4.788
	C15.693,8.273,15.942,8.586,15.991,8.955z M15,9.086L1.844,4.298l0.21,0.787c0.075,0.283,0.228,0.436,0.503,0.536l11.045,4.02
	c0.275,0.101,0.491,0.082,0.73-0.087L15,9.086z"/>
</svg>
