<?xml version="1.0" encoding="iso-8859-1"?>
<!-- Generator: Adobe Illustrator 16.0.0, SVG Export Plug-In . SVG Version: 6.00 Build 0)  -->
<!DOCTYPE svg PUBLIC "-//W3C//DTD SVG 1.1//EN" "http://www.w3.org/Graphics/SVG/1.1/DTD/svg11.dtd">
<svg version="1.1" id="Layer" xmlns="http://www.w3.org/2000/svg" xmlns:xlink="http://www.w3.org/1999/xlink" x="0px" y="0px"
	 width="24px" height="24px" viewBox="0 0 24 24" style="enable-background:new 0 0 24 24;" xml:space="preserve">
<path style="fill:#231F20;" d="M1,18.466l0.643-0.918c0.229-0.328,0.498-0.455,0.902-0.457h18.91
	c0.404,0.002,0.673,0.129,0.902,0.457L23,18.466H1z M22.988,13.313c0.066,0.51-0.152,1.012-0.575,1.309l-0.916,0.641
	c-0.688,0.48-1.449,0.582-2.259,0.289L4.675,10.255c0.009,0.062,0,1.336,0,1.336l-0.879-0.643c-0.328-0.232-0.455-0.498-0.457-0.902
	V9.618C2.931,9.308,2.641,8.886,2.495,8.347L2.207,7.269C2.075,6.772,2.227,6.243,2.608,5.897c0.378-0.346,0.916-0.453,1.398-0.279
	l18.09,6.582C22.579,12.38,22.921,12.81,22.988,13.313z M21.625,13.497L3.536,6.909l0.289,1.08c0.104,0.395,0.312,0.6,0.69,0.742
	l15.188,5.525c0.378,0.135,0.676,0.111,1.006-0.123L21.625,13.497z"/>
</svg>
