<?xml version="1.0" encoding="iso-8859-1"?>
<!-- Generator: Adobe Illustrator 16.0.0, SVG Export Plug-In . SVG Version: 6.00 Build 0)  -->
<!DOCTYPE svg PUBLIC "-//W3C//DTD SVG 1.1//EN" "http://www.w3.org/Graphics/SVG/1.1/DTD/svg11.dtd">
<svg version="1.1" id="Layer" xmlns="http://www.w3.org/2000/svg" xmlns:xlink="http://www.w3.org/1999/xlink" x="0px" y="0px"
	 width="16px" height="16px" viewBox="0 0 16 16" style="enable-background:new 0 0 16 16;" xml:space="preserve">
<path style="fill:#231F20;" d="M14.2,14.697L9.396,9.871C9.202,9.676,9.203,9.358,9.398,9.164s0.512-0.195,0.707,0.002l5.564,5.592
	c0.005,0.006,0.007,0.013,0.012,0.019L14.9,14.913C14.619,14.963,14.402,14.895,14.2,14.697z M15.669,0.538
	c-0.001-0.001-0.001-0.002-0.002-0.003s-0.002-0.001-0.003-0.002L15.669,0.538z M5.188,11.801c-0.012,0.013-0.028,0.017-0.042,0.027
	c0.291,0.429,0.463,0.946,0.463,1.504C5.609,14.806,4.424,16,2.962,16c-1.462,0-2.647-1.194-2.647-2.668
	c0-1.472,1.185-2.666,2.647-2.666c0.554,0,1.067,0.173,1.492,0.466c0.009-0.012,0.013-0.025,0.023-0.036L7.551,8L4.478,4.904
	C4.467,4.894,4.463,4.88,4.454,4.868C4.029,5.161,3.516,5.334,2.962,5.334c-1.462,0-2.647-1.194-2.647-2.668
	C0.315,1.194,1.5,0,2.962,0c1.461,0,2.646,1.194,2.646,2.666c0,0.559-0.172,1.076-0.463,1.505c0.013,0.012,0.029,0.016,0.042,0.028
	L8.256,7.29l5.938-5.982c0.199-0.185,0.411-0.253,0.685-0.205l0.785,0.138l0.021-0.021c-0.006,0.007-0.008,0.016-0.015,0.022
	L5.188,11.801z M4.609,2.666C4.609,1.747,3.87,1,2.962,1C2.054,1,1.315,1.747,1.315,2.666c0,0.92,0.739,1.668,1.647,1.668
	C3.87,4.334,4.609,3.586,4.609,2.666z M4.609,13.332c0-0.919-0.739-1.666-1.646-1.666c-0.908,0-1.647,0.747-1.647,1.666
	c0,0.92,0.739,1.668,1.647,1.668C3.87,15,4.609,14.252,4.609,13.332z"/>
</svg>
