<?xml version="1.0" encoding="iso-8859-1"?>
<!-- Generator: Adobe Illustrator 16.0.0, SVG Export Plug-In . SVG Version: 6.00 Build 0)  -->
<!DOCTYPE svg PUBLIC "-//W3C//DTD SVG 1.1//EN" "http://www.w3.org/Graphics/SVG/1.1/DTD/svg11.dtd">
<svg version="1.1" id="Layer" xmlns="http://www.w3.org/2000/svg" xmlns:xlink="http://www.w3.org/1999/xlink" x="0px" y="0px"
	 width="24px" height="24px" viewBox="0 0 24 24" style="enable-background:new 0 0 24 24;" xml:space="preserve">
<path style="fill:#231F20;" d="M20.526,21.211l-6.605-6.637c-0.268-0.271-0.267-0.706,0.002-0.977
	c0.269-0.265,0.702-0.266,0.974,0.008l7.65,7.684c0.005,0.012,0.01,0.019,0.015,0.03l-1.074,0.184
	C21.1,21.576,20.805,21.479,20.526,21.211z M22.546,1.737c-0.001-0.001-0.001-0.002-0.005-0.003
	c-0.001-0.001-0.002-0.001-0.003-0.002L22.546,1.737z M8.133,17.225c-0.018,0.019-0.04,0.022-0.056,0.039
	c0.399,0.587,0.636,1.304,0.636,2.066c0,2.03-1.63,3.67-3.64,3.67c-2.01,0-3.641-1.64-3.641-3.67c0-2.022,1.63-3.662,3.641-3.662
	c0.762,0,1.468,0.237,2.051,0.636c0.012-0.012,0.019-0.031,0.032-0.048L11.384,12L7.156,7.744c-0.013-0.017-0.02-0.036-0.032-0.048
	c-0.583,0.398-1.29,0.636-2.051,0.636c-2.01,0-3.641-1.64-3.641-3.664C1.432,2.64,3.062,1,5.073,1c2.009,0,3.64,1.64,3.64,3.668
	c0,0.764-0.236,1.48-0.636,2.067c0.016,0.018,0.038,0.021,0.056,0.04l4.22,4.251L20.518,2.8c0.272-0.255,0.566-0.347,0.942-0.281
	l1.078,0.185l0.03-0.026c-0.009,0.007-0.011,0.021-0.021,0.034L8.133,17.225z M7.337,4.668c0-1.265-1.017-2.293-2.265-2.293
	c-1.248,0-2.266,1.028-2.266,2.293c0,1.266,1.018,2.289,2.266,2.289C6.32,6.957,7.337,5.934,7.337,4.668z M7.337,19.33
	c0-1.265-1.017-2.287-2.265-2.287c-1.248,0-2.266,1.022-2.266,2.287c0,1.266,1.018,2.295,2.266,2.295
	C6.32,21.625,7.337,20.596,7.337,19.33z"/>
</svg>
