<svg id="Layer" xmlns="http://www.w3.org/2000/svg" viewBox="0 0 18.31 22.05"><defs><style>.cls-1{fill:none;}.cls-2{fill:#231f20;}</style></defs><path class="cls-1" d="M4.14,8.35v7.54L11.35,21V13.45Zm1.6,4.48a1.81,1.81,0,0,1-1-1.46c0-.55.45-.78,1-.53a1.8,1.8,0,0,1,1,1.46C6.74,12.84,6.29,13.08,5.74,12.83Zm2,2.91a1.79,1.79,0,0,1-1-1.46c0-.55.44-.78,1-.53a1.79,1.79,0,0,1,1,1.46C8.72,15.75,8.28,16,7.73,15.74Zm2,3a1.81,1.81,0,0,1-1-1.46c0-.55.45-.78,1-.53a1.8,1.8,0,0,1,1,1.46C10.74,18.7,10.29,18.94,9.74,18.69Z" transform="translate(-2.84 -0.97)"/><path class="cls-1" d="M12,12.17a.75.75,0,0,0,.43-.15l6.48-4.58L12.43,2.87a.66.66,0,0,0-.86,0L5.07,7.43,11.57,12A.75.75,0,0,0,12,12.17ZM10.59,7c0-.54.62-1,1.38-1s1.37.45,1.37,1S12.73,8,12,8,10.59,7.56,10.59,7Z" transform="translate(-2.84 -0.97)"/><path class="cls-1" d="M12.65,13.45V21l7.2-5.08V8.36ZM14.94,18c-.54.26-1,0-1-.53a1.76,1.76,0,0,1,1-1.45c.55-.25,1,0,1,.53A1.76,1.76,0,0,1,14.94,18ZM18,13c-.54.26-1,0-1-.53A1.78,1.78,0,0,1,18,11c.55-.26,1,0,1,.52A1.8,1.8,0,0,1,18,13Z" transform="translate(-2.84 -0.97)"/><path class="cls-2" d="M12,1,4.14,6.5h0L4,6.64H4l-1.11.78h0v9.12h0L12,23l9.15-6.47V7.45h0Zm-.43,1.9a.66.66,0,0,1,.86,0l6.48,4.57L12.43,12a.69.69,0,0,1-.86,0L5.07,7.43Zm-7.43,13V8.35l7.21,5.1V21ZM12.65,21V13.45l7.2-5.09V15.9Z" transform="translate(-2.84 -0.97)"/><path class="cls-2" d="M5.74,10.84c-.54-.25-1,0-1,.53a1.81,1.81,0,0,0,1,1.46c.55.25,1,0,1-.53A1.8,1.8,0,0,0,5.74,10.84Z" transform="translate(-2.84 -0.97)"/><path class="cls-2" d="M7.73,13.75c-.55-.25-1,0-1,.53a1.79,1.79,0,0,0,1,1.46c.55.25,1,0,1-.53A1.79,1.79,0,0,0,7.73,13.75Z" transform="translate(-2.84 -0.97)"/><path class="cls-2" d="M9.74,16.7c-.54-.25-1,0-1,.53a1.81,1.81,0,0,0,1,1.46c.55.25,1,0,1-.53A1.8,1.8,0,0,0,9.74,16.7Z" transform="translate(-2.84 -0.97)"/><path class="cls-2" d="M18,11a1.78,1.78,0,0,0-1,1.45c0,.55.45.79,1,.53a1.8,1.8,0,0,0,1-1.46C19,11,18.58,10.75,18,11Z" transform="translate(-2.84 -0.97)"/><path class="cls-2" d="M14.94,16a1.76,1.76,0,0,0-1,1.45c0,.55.45.79,1,.53a1.76,1.76,0,0,0,1-1.45C15.93,16,15.49,15.74,14.94,16Z" transform="translate(-2.84 -0.97)"/><path class="cls-2" d="M13.34,7c0-.54-.61-1-1.37-1s-1.38.45-1.38,1S11.21,8,12,8,13.34,7.56,13.34,7Z" transform="translate(-2.84 -0.97)"/></svg>