<?xml version="1.0" encoding="iso-8859-1"?>
<!-- Generator: Adobe Illustrator 16.0.0, SVG Export Plug-In . SVG Version: 6.00 Build 0)  -->
<!DOCTYPE svg PUBLIC "-//W3C//DTD SVG 1.1//EN" "http://www.w3.org/Graphics/SVG/1.1/DTD/svg11.dtd">
<svg version="1.1" id="Layer_4" xmlns="http://www.w3.org/2000/svg" xmlns:xlink="http://www.w3.org/1999/xlink" x="0px" y="0px"
	 width="24px" height="24px" viewBox="0 0 24 24" style="enable-background:new 0 0 24 24;" xml:space="preserve">
<path style="fill-rule:evenodd;clip-rule:evenodd;fill:#231F20;" d="M19.853,3.283c0-0.026,0.006-0.053,0-0.083
	c-0.012-0.047-0.021-0.096-0.047-0.134c-0.181-0.26-0.471-0.331-0.781-0.198C15.999,4.16,12.974,5.45,9.95,6.754
	C9.43,6.975,8.905,7.15,8.333,7.169c-0.875,0.029-1.714-0.113-2.5-0.5C5.756,6.628,5.683,6.581,5.597,6.525
	c0.045-0.023,0.074-0.036,0.1-0.048c2.875-1.228,5.747-2.454,8.621-3.68c0.042-0.018,0.104-0.02,0.146-0.004
	c0.365,0.148,0.728,0.307,1.091,0.459c0.036,0.014,0.076,0.028,0.13,0.05c0-0.051,0-0.091,0-0.129c0-0.461,0.001-0.927,0-1.39
	c0-0.07-0.001-0.141-0.013-0.207c-0.071-0.438-0.485-0.705-0.927-0.515c-3.13,1.345-6.267,2.682-9.397,4.02
	C5.184,5.15,5.02,5.228,4.869,5.315c-0.48,0.289-0.728,0.705-0.726,1.277c0.005,4.726,0.004,9.449,0.002,14.175
	c0,0.473,0.174,0.86,0.537,1.164c0.105,0.09,0.215,0.173,0.331,0.249c0.64,0.412,1.356,0.622,2.104,0.733
	c0.234,0.037,0.47,0.06,0.707,0.086c0.213,0,0.426,0,0.641,0c0.044-0.006,0.089-0.019,0.135-0.021
	c0.507-0.044,0.996-0.153,1.464-0.354c2.76-1.182,5.522-2.366,8.283-3.545c0.395-0.167,0.789-0.334,1.183-0.507
	c0.206-0.09,0.329-0.229,0.327-0.485C19.852,13.157,19.853,8.22,19.853,3.283z M9.521,21.362c-0.311,0.132-1.208,0.266-1.617,0.263
	c-0.471-0.004-1.426-0.166-1.832-0.427c-0.083-0.05-0.517-0.275-0.572-0.321c-0.002-7.783,0,0,0-12.845
	c0.806,0.344,1.695,0.499,2.622,0.515c0.941,0.016,1.827-0.301,2.371-0.528c2.354-1.019,4.709-2.02,7.063-3.026l0.923-0.398
	c0,0-0.002,8.948,0.001,12.931L9.521,21.362z"/>
</svg>
