<?xml version="1.0" encoding="iso-8859-1"?>
<!-- Generator: Adobe Illustrator 16.0.0, SVG Export Plug-In . SVG Version: 6.00 Build 0)  -->
<!DOCTYPE svg PUBLIC "-//W3C//DTD SVG 1.1//EN" "http://www.w3.org/Graphics/SVG/1.1/DTD/svg11.dtd">
<svg version="1.1" id="Layer_4" xmlns="http://www.w3.org/2000/svg" xmlns:xlink="http://www.w3.org/1999/xlink" x="0px" y="0px"
	 width="24px" height="24px" viewBox="0 0 24 24" style="enable-background:new 0 0 24 24;" xml:space="preserve">
<path style="fill-rule:evenodd;clip-rule:evenodd;fill:#231F20;" d="M22.95,20.528l-2.556-9.278c-0.2-0.732-0.959-1.162-1.69-0.963
	l-2.652,0.73c-0.731,0.204-1.162,0.959-0.959,1.693l2.556,9.278c0.2,0.732,0.958,1.162,1.689,0.962l2.652-0.73
	C22.721,22.016,23.152,21.262,22.95,20.528z M18.973,21.625l-2.555-9.28l2.652-0.73l2.555,9.28L18.973,21.625z M6.5,5.125H2.375
	C1.615,5.125,1,5.742,1,6.5v9.624v1.375v4.125c0,0.757,0.615,1.375,1.375,1.375H6.5c0.76,0,1.375-0.618,1.375-1.375V6.5
	C7.875,5.742,7.26,5.125,6.5,5.125z M6.5,21.624H2.375v-4.125H6.5V21.624z M6.5,16.124H2.375V6.5H6.5V16.124z M13.485,1h-2.75
	C9.978,1,9.36,1.618,9.36,2.375v19.249c0,0.757,0.618,1.375,1.375,1.375h2.75c0.76,0,1.375-0.618,1.375-1.375V2.375
	C14.86,1.618,14.246,1,13.485,1z M13.485,21.624h-2.75v-2.75h2.75V21.624z M13.485,17.499h-2.75V2.375h2.75V17.499z"/>
</svg>
