<?xml version="1.0" encoding="iso-8859-1"?>
<!-- Generator: Adobe Illustrator 16.0.0, SVG Export Plug-In . SVG Version: 6.00 Build 0)  -->
<!DOCTYPE svg PUBLIC "-//W3C//DTD SVG 1.1//EN" "http://www.w3.org/Graphics/SVG/1.1/DTD/svg11.dtd">
<svg version="1.1" id="Layer_4" xmlns="http://www.w3.org/2000/svg" xmlns:xlink="http://www.w3.org/1999/xlink" x="0px" y="0px"
	 width="16px" height="16px" viewBox="0 0 16 16" style="enable-background:new 0 0 16 16;" xml:space="preserve">
<path style="fill-rule:evenodd;clip-rule:evenodd;fill:#231F20;" d="M15.964,14.202l-1.858-6.747
	c-0.146-0.533-0.697-0.846-1.229-0.699l-1.928,0.531c-0.532,0.146-0.846,0.695-0.699,1.23l1.858,6.747
	c0.146,0.533,0.697,0.846,1.229,0.699l1.928-0.531C15.797,15.286,16.111,14.736,15.964,14.202z M13.071,15l-1.858-6.749l1.928-0.531
	L15,14.469L13.071,15z M4,3H1C0.448,3,0,3.446,0,4v6.999v1v3c0,0.553,0.448,1,1,1h3c0.552,0,1-0.447,1-1V4C5,3.446,4.552,3,4,3z
	 M4,14.999H1v-3h3V14.999z M4,10.999H1V4h3V10.999z M9.081,0h-2c-0.552,0-1,0.447-1,1v13.999c0,0.553,0.448,1,1,1h2
	c0.552,0,1-0.447,1-1V1C10.081,0.447,9.633,0,9.081,0z M9.081,14.999h-2v-2h2V14.999z M9.081,11.999h-2V1h2V11.999z"/>
</svg>
