<?xml version="1.0" encoding="iso-8859-1"?>
<!-- Generator: Adobe Illustrator 16.0.0, SVG Export Plug-In . SVG Version: 6.00 Build 0)  -->
<!DOCTYPE svg PUBLIC "-//W3C//DTD SVG 1.1//EN" "http://www.w3.org/Graphics/SVG/1.1/DTD/svg11.dtd">
<svg version="1.1" id="Layer" xmlns="http://www.w3.org/2000/svg" xmlns:xlink="http://www.w3.org/1999/xlink" x="0px" y="0px"
	 width="16px" height="16px" viewBox="0 0 16 16" style="enable-background:new 0 0 16 16;" xml:space="preserve">
<path style="fill:#231F20;" d="M15.988,5.932c-0.017-0.133-0.065-0.244-0.136-0.345h-0.001c-0.053-0.068-0.101-0.137-0.185-0.196
	L8.033,0L0.33,5.439C0.26,5.49,0.218,5.548,0.174,5.605C0.089,5.714,0.03,5.834,0.012,5.98L0,6.212l0.012,0.228
	c0.017,0.133,0.065,0.244,0.136,0.347l0.001-0.001C0.201,6.851,0.249,6.921,0.333,6.98L2,8.157v3.159v0.187h0.042
	c0.042,0.183,0.126,0.335,0.306,0.462L8,16l3-2.089v0.967c0.001,0.292,0.093,0.487,0.333,0.655L12,16v-2.784l1.652-1.151
	C13.893,11.896,14,11.707,14,11.416v-0.013V8.108l1.67-1.177c0.07-0.051,0.112-0.108,0.156-0.166
	c0.085-0.108,0.144-0.229,0.162-0.375L16,6.162L15.988,5.932z M8.333,14.547C8.223,14.625,8.111,14.663,8,14.663
	s-0.223-0.038-0.333-0.116L3,11.217V8.864l4.967,3.507L11,10.229v2.462L8.333,14.547z M13,11.299l-1,0.695V9.522l1-0.707V11.299z
	 M11.656,8.545c-0.002-0.001-0.002-0.003-0.004-0.004L8,6.006v0.813C8,7.112,8.107,7.3,8.346,7.468l2.44,1.693l-2.817,1.991
	L0.973,6.209l7.059-4.99l6.996,4.944L11.656,8.545z"/>
</svg>
