<?xml version="1.0" encoding="iso-8859-1"?>
<!-- Generator: Adobe Illustrator 16.0.0, SVG Export Plug-In . SVG Version: 6.00 Build 0)  -->
<!DOCTYPE svg PUBLIC "-//W3C//DTD SVG 1.1//EN" "http://www.w3.org/Graphics/SVG/1.1/DTD/svg11.dtd">
<svg version="1.1" id="Layer" xmlns="http://www.w3.org/2000/svg" xmlns:xlink="http://www.w3.org/1999/xlink" x="0px" y="0px"
	 width="24px" height="24px" viewBox="0 0 24 24" style="enable-background:new 0 0 24 24;" xml:space="preserve">
<path style="fill:#231F20;" d="M22.982,9.158c-0.022-0.186-0.089-0.338-0.186-0.474h-0.001c-0.073-0.098-0.139-0.189-0.255-0.272
	L12.045,1L1.453,8.479C1.356,8.547,1.3,8.628,1.238,8.709C1.121,8.858,1.042,9.02,1.018,9.225L1,9.544l0.018,0.31
	c0.022,0.186,0.089,0.338,0.186,0.476l0.001-0.001c0.073,0.089,0.139,0.188,0.255,0.271l2.291,1.616v4.343v0.257h0.057
	c0.06,0.253,0.176,0.464,0.42,0.638L12,23l4.125-2.874v1.33c0.001,0.403,0.128,0.669,0.459,0.901L17.5,23v-3.827l2.273-1.585
	c0.328-0.233,0.477-0.492,0.477-0.889v-0.019v-4.531l2.297-1.616c0.097-0.074,0.153-0.149,0.215-0.23
	c0.117-0.149,0.196-0.316,0.221-0.516L23,9.471L22.982,9.158z M12.459,21.002c-0.154,0.107-0.307,0.157-0.459,0.157
	s-0.305-0.05-0.459-0.157l-6.416-4.578v-3.237l6.83,4.825l4.17-2.945v3.382L12.459,21.002z M18.875,16.535L17.5,17.494v-3.403
	l1.375-0.971V16.535z M17.027,12.75c-0.002-0.001-0.002-0.003-0.004-0.004L12,9.256v1.118c0,0.404,0.148,0.662,0.475,0.895
	l3.357,2.326l-3.875,2.741L2.336,9.535l9.708-6.859l9.621,6.796L17.027,12.75z"/>
</svg>
