<?xml version="1.0" encoding="utf-8"?>
<!-- Generator: Adobe Illustrator 25.2.3, SVG Export Plug-In . SVG Version: 6.00 Build 0)  -->
<svg version="1.1" id="Layer" xmlns="http://www.w3.org/2000/svg" xmlns:xlink="http://www.w3.org/1999/xlink" x="0px" y="0px"
	 viewBox="0 0 24 24" enable-background="new 0 0 24 24" xml:space="preserve">
<path fill="#231F20" d="M21.618,3.655h-4.439h-3.123H2.336c-0.967,0-1.375,0.516-1.375,1.375v12.869
	c0,0.455,0.355,0.881,0.813,0.881h7.437v1.363H6.137c-0.29,0.043-0.521,0.183-0.71,0.449l-0.635,0.908h5.066
	c0.014,0.001,0.026,0.008,0.04,0.008c0.38,0,0.688-0.308,0.688-0.688v-2.686h-0.009c0.002-0.015,0.009-0.028,0.009-0.043
	c0-0.38-0.308-0.688-0.688-0.688c-0.002,0-0.003,0.001-0.005,0.001c-0.001,0-0.001-0.001-0.001-0.001H2.541
	c-0.109-0.032-0.191-0.113-0.205-0.229V5.213C2.358,5.126,2.414,5.066,2.496,5.03h4.438c0.006,0,1.558-0.003,1.563-0.006
	c0.005,0,3.062,0.002,5.547,0.004c0.004,0,0.007,0.002,0.011,0.002c0.003,0,0.195-0.001,0.435-0.002
	c1.11,0.001,2.032,0.001,2.444,0.002c0.051,0,0.085,0,0.086,0h4.438c0.082,0.035,0.138,0.096,0.159,0.183v11.963
	c-0.014,0.116-0.095,0.197-0.205,0.229h-7.351c0,0,0,0.001-0.001,0.001c-0.002,0-0.003-0.001-0.005-0.001
	c-0.38,0-0.688,0.308-0.688,0.688c0,0.015,0.007,0.028,0.009,0.043h-0.009v2.686c0,0.38,0.308,0.688,0.688,0.688
	c0.014,0,0.026-0.007,0.04-0.008h5.066l-0.635-0.908c-0.189-0.267-0.42-0.406-0.71-0.449h-3.074V18.78h7.437
	c0.458,0,0.813-0.426,0.813-0.881V5.03C22.993,4.171,22.584,3.655,21.618,3.655z"/>
<path fill="#231F20" d="M8.011,6.142c-1.325,0-2.406,1.078-2.406,2.406s1.081,2.406,2.406,2.406c1.328,0,2.406-1.078,2.406-2.406
	S9.339,6.142,8.011,6.142z M8.011,9.579c-0.569,0-1.031-0.465-1.031-1.031s0.462-1.031,1.031-1.031c0.569,0,1.031,0.465,1.031,1.031
	S8.58,9.579,8.011,9.579z"/>
<path fill="#231F20" d="M12.136,14.944v1.51l-0.898-0.627c-0.274-0.193-0.399-0.443-0.438-0.748h-0.039
	c0-0.758-0.615-1.375-1.375-1.375h-2.75c-0.76,0-1.375,0.617-1.375,1.375H5.24C5.2,15.385,5.08,15.635,4.806,15.827l-0.92,0.627
	l0.013-1.51c0.074-1.454,1.267-2.615,2.737-2.615h2.75c1.47,0,2.663,1.161,2.737,2.615H12.136z"/>
<g>
	<circle fill="#231F20" cx="18.072" cy="7.173" r="1.031"/>
	<path fill="#231F20" d="M19.881,10.063c-0.227-0.789-0.947-1.371-1.809-1.371c-0.86,0-1.581,0.581-1.809,1.371H19.881z"/>
</g>
<g>
	<circle fill="#231F20" cx="18.072" cy="13.462" r="1.031"/>
	<path fill="#231F20" d="M19.881,16.352c-0.227-0.789-0.947-1.371-1.809-1.371c-0.86,0-1.581,0.581-1.809,1.371H19.881z"/>
</g>
</svg>
