<?xml version="1.0" encoding="iso-8859-1"?>
<!-- Generator: Adobe Illustrator 16.0.0, SVG Export Plug-In . SVG Version: 6.00 Build 0)  -->
<!DOCTYPE svg PUBLIC "-//W3C//DTD SVG 1.1//EN" "http://www.w3.org/Graphics/SVG/1.1/DTD/svg11.dtd">
<svg version="1.1" id="Layer" xmlns="http://www.w3.org/2000/svg" xmlns:xlink="http://www.w3.org/1999/xlink" x="0px" y="0px"
	 width="16px" height="16px" viewBox="0 0 16 16" style="enable-background:new 0 0 16 16;" xml:space="preserve">
<path style="fill:#231F20;" d="M13.445,0H2.555C1.146,0,0,1.146,0,2.555V15c0,0.404,0.244,0.77,0.617,0.924
	C0.741,15.976,0.871,16,1,16c0.26,0,0.516-0.102,0.707-0.293l2.818-2.817h8.919c1.409,0,2.555-1.147,2.555-2.558V2.555
	C16,1.146,14.854,0,13.445,0z M15,10.332c0,0.86-0.696,1.558-1.555,1.558H4.111L1,15V2.555C1,1.696,1.696,1,2.555,1h10.89
	C14.304,1,15,1.696,15,2.555V10.332z"/>
</svg>
