<?xml version="1.0" encoding="iso-8859-1"?>
<!-- Generator: Adobe Illustrator 16.0.0, SVG Export Plug-In . SVG Version: 6.00 Build 0)  -->
<!DOCTYPE svg PUBLIC "-//W3C//DTD SVG 1.1//EN" "http://www.w3.org/Graphics/SVG/1.1/DTD/svg11.dtd">
<svg version="1.1" id="Layer" xmlns="http://www.w3.org/2000/svg" xmlns:xlink="http://www.w3.org/1999/xlink" x="0px" y="0px"
	 width="24px" height="24px" viewBox="0 0 24 24" style="enable-background:new 0 0 24 24;" xml:space="preserve">
<path style="fill:#231F20;" d="M19.487,1H4.513C2.576,1,1,2.576,1,4.513v17.112c0,0.556,0.335,1.059,0.849,1.271
	C2.019,22.967,2.198,23,2.375,23c0.357,0,0.709-0.14,0.972-0.402l3.875-3.874h12.264c1.937,0,3.513-1.578,3.513-3.517V4.513
	C23,2.576,21.424,1,19.487,1z M21.625,15.207c0,1.183-0.958,2.142-2.138,2.142H6.653l-4.278,4.276V4.513
	c0-1.181,0.958-2.138,2.138-2.138h14.974c1.181,0,2.138,0.957,2.138,2.138V15.207z"/>
</svg>
