<?xml version="1.0" encoding="utf-8"?>
<!-- Generator: Adobe Illustrator 16.0.0, SVG Export Plug-In . SVG Version: 6.00 Build 0)  -->
<!DOCTYPE svg PUBLIC "-//W3C//DTD SVG 1.1//EN" "http://www.w3.org/Graphics/SVG/1.1/DTD/svg11.dtd">
<svg version="1.1" id="Layer" xmlns="http://www.w3.org/2000/svg" xmlns:xlink="http://www.w3.org/1999/xlink" x="0px" y="0px"
	 width="16px" height="16px" viewBox="0 0 16 16" enable-background="new 0 0 16 16" xml:space="preserve">
<path fill="#231F20" d="M11.414,0H2.555C1.146,0,0,1.146,0,2.555V13c0,0.404,0.244,0.77,0.617,0.924C0.741,13.976,0.871,14,1,14
	c0.26,0,0.516-0.102,0.707-0.293l2.818-2.817h6.888C12.822,10.89,14,9.811,14,8.4V2.623C14,1.215,12.822,0,11.414,0z M13,8.4
	c0,0.86-0.728,1.489-1.586,1.489H4.111L1,13V2.555C1,1.696,1.696,1,2.555,1h8.858C12.272,1,13,1.765,13,2.623V8.4z M16,4.555V15
	c0,0.404-0.244,0.77-0.617,0.924C15.259,15.976,15.129,16,15,16c-0.26,0-0.516-0.102-0.707-0.293l-2.818-2.817H4.586
	c-0.582,0-1.118-0.191-1.554-0.507l0.717-0.717c0.245,0.141,0.532,0.224,0.837,0.224h7.302L15,15V4.555c0-0.662-0.416-1.224-1-1.448
	V2.623c0-0.196-0.028-0.388-0.071-0.574C15.106,2.276,16,3.312,16,4.555z"/>
</svg>
