<?xml version="1.0" encoding="iso-8859-1"?>
<!-- Generator: Adobe Illustrator 16.0.0, SVG Export Plug-In . SVG Version: 6.00 Build 0)  -->
<!DOCTYPE svg PUBLIC "-//W3C//DTD SVG 1.1//EN" "http://www.w3.org/Graphics/SVG/1.1/DTD/svg11.dtd">
<svg version="1.1" id="Layer" xmlns="http://www.w3.org/2000/svg" xmlns:xlink="http://www.w3.org/1999/xlink" x="0px" y="0px"
	 width="24px" height="24px" viewBox="0 0 24 24" style="enable-background:new 0 0 24 24;" xml:space="preserve">
<path style="fill:#231F20;" d="M16.694,1H4.513C2.577,1,1,2.574,1,4.516v14.359c0,0.557,0.334,1.057,0.849,1.27
	c0.171,0.069,0.351,0.105,0.526,0.105c0.356,0,0.709-0.137,0.971-0.404l3.876-3.872h9.472c1.936,0,3.556-1.483,3.556-3.421V4.607
	C20.25,2.672,18.63,1,16.694,1z M18.875,12.553c0,1.183-1,2.046-2.181,2.046H6.652l-4.277,4.276V4.516
	c0-1.181,0.957-2.141,2.138-2.141h12.181c1.181,0,2.181,1.052,2.181,2.232V12.553z M23,7.266v14.359c0,0.557-0.334,1.057-0.849,1.27
	C21.98,22.964,21.801,23,21.625,23c-0.356,0-0.709-0.137-0.971-0.404l-3.876-3.872H7.306c-0.799,0-1.537-0.262-2.137-0.7l0.986-0.98
	c0.336,0.193,0.731,0.306,1.151,0.306h10.042l4.277,4.276V7.266c0-0.914-0.571-1.687-1.375-1.993V4.607
	c0-0.272-0.04-0.534-0.098-0.791C21.772,4.132,23,5.555,23,7.266z"/>
</svg>
