<?xml version="1.0" encoding="iso-8859-1"?>
<!-- Generator: Adobe Illustrator 16.0.0, SVG Export Plug-In . SVG Version: 6.00 Build 0)  -->
<!DOCTYPE svg PUBLIC "-//W3C//DTD SVG 1.1//EN" "http://www.w3.org/Graphics/SVG/1.1/DTD/svg11.dtd">
<svg version="1.1" id="Layer" xmlns="http://www.w3.org/2000/svg" xmlns:xlink="http://www.w3.org/1999/xlink" x="0px" y="0px"
	 width="16px" height="16px" viewBox="0 0 16 16" style="enable-background:new 0 0 16 16;" xml:space="preserve">
<path style="fill:#231F20;" d="M16,3.169C15.823,2.5,15.144,2,14.401,2H1.6C0.856,2,0.177,2.5,0,3.169v8.288
	C0,12.305,0.719,13,1.599,13H14.4c0.879,0,1.6-0.695,1.6-1.543V3.169z M1,3.553V3.55C1,3.252,1.275,3,1.6,3h12.801
	C14.726,3,15,3.252,15,3.55v0.003v0.283l-6.667,4.71C8.223,8.624,8.111,8.664,8,8.664s-0.223-0.04-0.333-0.118L1,3.836V3.553z
	 M15,11.457C15,11.751,14.725,12,14.4,12H1.599C1.274,12,1,11.751,1,11.457V5.054L8,10l7-4.946V11.457z"/>
</svg>
