<?xml version="1.0" encoding="iso-8859-1"?>
<!-- Generator: Adobe Illustrator 16.0.0, SVG Export Plug-In . SVG Version: 6.00 Build 0)  -->
<!DOCTYPE svg PUBLIC "-//W3C//DTD SVG 1.1//EN" "http://www.w3.org/Graphics/SVG/1.1/DTD/svg11.dtd">
<svg version="1.1" id="Layer" xmlns="http://www.w3.org/2000/svg" xmlns:xlink="http://www.w3.org/1999/xlink" x="0px" y="0px"
	 width="24px" height="24px" viewBox="0 0 24 24" style="enable-background:new 0 0 24 24;" xml:space="preserve">
<path style="fill:#231F20;" d="M23,6.046c-0.244-0.921-1.178-1.608-2.199-1.608H3.2c-1.022,0-1.956,0.688-2.2,1.608v11.394
	c0,1.169,0.988,2.123,2.199,2.123H20.8c1.209,0,2.2-0.954,2.2-2.123V6.046z M2.375,6.571V6.567c0-0.408,0.377-0.755,0.825-0.755
	h17.601c0.447,0,0.824,0.347,0.824,0.755v0.004V6.96l-9.167,6.479c-0.151,0.107-0.306,0.164-0.458,0.164s-0.307-0.057-0.458-0.164
	L2.375,6.96V6.571z M21.625,17.439c0,0.406-0.378,0.748-0.825,0.748H3.199c-0.448,0-0.824-0.342-0.824-0.748V8.635L12,15.438
	l9.625-6.803V17.439z"/>
</svg>
