<?xml version="1.0" encoding="iso-8859-1"?>
<!-- Generator: Adobe Illustrator 16.0.0, SVG Export Plug-In . SVG Version: 6.00 Build 0)  -->
<!DOCTYPE svg PUBLIC "-//W3C//DTD SVG 1.1//EN" "http://www.w3.org/Graphics/SVG/1.1/DTD/svg11.dtd">
<svg version="1.1" id="Layer" xmlns="http://www.w3.org/2000/svg" xmlns:xlink="http://www.w3.org/1999/xlink" x="0px" y="0px"
	 width="24px" height="24px" viewBox="0 0 24 24" style="enable-background:new 0 0 24 24;" xml:space="preserve">
<path style="fill:#231F20;" d="M12,1C5.933,1.001,1,5.938,1,12.002c0,2.938,1.146,5.697,3.223,7.776C6.299,21.857,9.06,23,11.999,23
	c0,0,0.001,0,0.002,0c2.404,0,4.779-0.802,6.688-2.263c0.045-0.037,0.076-0.083,0.109-0.127l-0.984-0.43
	c-0.263-0.119-0.505-0.117-0.743-0.038c-1.518,0.944-3.277,1.482-5.071,1.482c0,0-0.001,0-0.001,0c-2.569,0-4.986-1.003-6.806-2.817
	c-1.817-1.82-2.818-4.233-2.818-6.806c0-5.308,4.317-9.626,9.625-9.627c5.307,0,9.625,4.318,9.625,9.625v1.032
	c0,1.327-1.078,2.404-2.407,2.404c-0.941,0-1.747-0.543-2.144-1.331c0.273-0.647,0.425-1.357,0.425-2.105
	c0-0.947-0.265-1.827-0.688-2.605V7.876c0-0.382-0.309-0.688-0.688-0.688c-0.34,0-0.609,0.252-0.665,0.574
	C14.512,6.988,13.318,6.501,12,6.501c-3.031,0-5.499,2.468-5.499,5.499S8.969,17.499,12,17.499c1.743,0,3.284-0.834,4.29-2.104
	c0.695,0.857,1.744,1.416,2.929,1.416c2.085,0,3.782-1.695,3.782-3.779V12C23,5.937,18.066,1,12,1z M12,16.124
	c-2.278,0-4.124-1.846-4.124-4.124S9.722,7.876,12,7.876c1.438,0,2.697,0.733,3.437,1.848v3.309c0,0.341,0.058,0.664,0.143,0.98
	C14.875,15.266,13.545,16.124,12,16.124z"/>
</svg>
