<?xml version="1.0" encoding="utf-8"?>
<!-- Generator: Adobe Illustrator 16.0.0, SVG Export Plug-In . SVG Version: 6.00 Build 0)  -->
<!DOCTYPE svg PUBLIC "-//W3C//DTD SVG 1.1//EN" "http://www.w3.org/Graphics/SVG/1.1/DTD/svg11.dtd">
<svg version="1.1" id="Layer" xmlns="http://www.w3.org/2000/svg" xmlns:xlink="http://www.w3.org/1999/xlink" x="0px" y="0px"
	 width="16px" height="16px" viewBox="0 0 16 16" enable-background="new 0 0 16 16" xml:space="preserve">
<path fill="#231F20" d="M8,0C3.588,0.001,0,3.591,0,8.002c0,2.136,0.833,4.145,2.344,5.655C3.854,15.168,5.863,16,7.999,16
	C7.999,16,8,16,8,16c1.748,0,3.475-0.585,4.863-1.647c0.034-0.025,0.055-0.06,0.08-0.092l-0.714-0.312
	c-0.193-0.084-0.368-0.082-0.541-0.026C10.583,14.608,9.305,15,8,15c0,0-0.001,0-0.002,0c-1.869,0-3.626-0.728-4.948-2.05
	C1.729,11.628,1,9.871,1,8.002C1,4.142,4.14,1.001,8,1c3.86,0,7,3.141,7,7v0.751c0,0.964-0.785,1.748-1.75,1.748
	c-0.683,0-1.27-0.396-1.558-0.968C11.888,9.06,11.999,8.543,11.999,8c0-0.689-0.191-1.329-0.5-1.896V5.001
	c0-0.276-0.224-0.5-0.5-0.5c-0.247,0-0.442,0.182-0.483,0.416C9.827,4.354,8.958,4.001,8,4.001C5.795,4.001,4.001,5.795,4.001,8
	S5.795,11.999,8,11.999c1.269,0,2.388-0.605,3.121-1.529c0.505,0.623,1.267,1.029,2.129,1.029c1.517,0,2.75-1.232,2.75-2.748V8
	C16,3.589,12.411,0,8,0z M8,10.999c-1.657,0-2.999-1.342-2.999-2.999S6.343,5.001,8,5.001c1.045,0,1.962,0.534,2.499,1.344v2.406
	c0,0.247,0.043,0.482,0.105,0.711C10.09,10.375,9.124,10.999,8,10.999z"/>
</svg>
