<?xml version="1.0" encoding="iso-8859-1"?>
<!-- Generator: Adobe Illustrator 16.0.0, SVG Export Plug-In . SVG Version: 6.00 Build 0)  -->
<!DOCTYPE svg PUBLIC "-//W3C//DTD SVG 1.1//EN" "http://www.w3.org/Graphics/SVG/1.1/DTD/svg11.dtd">
<svg version="1.1" id="Layer" xmlns="http://www.w3.org/2000/svg" xmlns:xlink="http://www.w3.org/1999/xlink" x="0px" y="0px"
	 width="24px" height="24px" viewBox="0 0 24 24" style="enable-background:new 0 0 24 24;" xml:space="preserve">
<path style="fill:#231F20;" d="M21.931,21.008l-0.461-0.511L2.044,1.072L1.85,2.175C1.791,2.507,1.881,2.752,2.069,2.992
	l0.462,0.511l2.667,2.668c-2.572,2.231-3.966,5.034-4.061,5.229c-0.184,0.379-0.184,0.822,0,1.201
	C1.296,12.927,5.094,20.594,12,20.594c2.24,0,4.14-0.813,5.706-1.916l4.25,4.25l0.195-1.103
	C22.208,21.493,22.118,21.248,21.931,21.008z M9.635,10.608l3.756,3.756C12.985,14.609,12.51,14.75,12,14.75
	c-1.52,0-2.75-1.238-2.75-2.75C9.25,11.491,9.391,11.016,9.635,10.608z M12,19.219C5.876,19.219,2.375,12,2.375,12
	s1.34-2.746,3.803-4.849l2.483,2.482C8.181,10.307,7.875,11.111,7.875,12c0,2.274,1.85,4.125,4.125,4.125
	c0.888,0,1.692-0.306,2.365-0.787l2.354,2.354C15.391,18.582,13.813,19.219,12,19.219z M22.862,11.399
	C22.704,11.073,18.906,3.406,12,3.406c-1.25,0-2.387,0.267-3.429,0.682C8.53,4.104,8.487,4.119,8.447,4.137
	C8.229,4.252,8.076,4.474,8.076,4.737c0,0.288,0.179,0.534,0.432,0.636c0.079,0.031,0.165,0.052,0.256,0.052
	c0.123,0,0.232-0.041,0.332-0.097c0.113-0.021,0.189-0.041,0.189-0.041c0.839-0.309,1.74-0.506,2.716-0.506
	c6.124,0,9.625,7.219,9.625,7.219s-0.799,1.632-2.287,3.342c0,0-0.42,0.547-0.034,0.978c0.52,0.579,1.011,0,1.011,0
	c1.6-1.82,2.473-3.567,2.547-3.719C23.046,12.222,23.046,11.778,22.862,11.399z"/>
</svg>
