<?xml version="1.0" encoding="iso-8859-1"?>
<!-- Generator: Adobe Illustrator 16.0.0, SVG Export Plug-In . SVG Version: 6.00 Build 0)  -->
<!DOCTYPE svg PUBLIC "-//W3C//DTD SVG 1.1//EN" "http://www.w3.org/Graphics/SVG/1.1/DTD/svg11.dtd">
<svg version="1.1" id="Layer" xmlns="http://www.w3.org/2000/svg" xmlns:xlink="http://www.w3.org/1999/xlink" x="0px" y="0px"
	 width="16px" height="16px" viewBox="0 0 16 16" style="enable-background:new 0 0 16 16;" xml:space="preserve">
<path style="fill:#231F20;" d="M15.222,14.551l-0.335-0.371L0.76,0.053L0.618,0.854c-0.043,0.241,0.022,0.42,0.159,0.595L1.113,1.82
	l1.94,1.94C1.183,5.384,0.169,7.422,0.1,7.563c-0.133,0.275-0.133,0.598,0,0.873C0.215,8.674,2.978,14.25,8,14.25
	c1.629,0,3.011-0.592,4.149-1.394l3.091,3.091l0.142-0.802C15.424,14.904,15.358,14.726,15.222,14.551z M6.28,6.988L9.012,9.72
	C8.716,9.897,8.371,10,8,10c-1.105,0-2-0.9-2-2C6,7.63,6.103,7.284,6.28,6.988z M8,13.25C3.546,13.25,1,8,1,8
	s0.975-1.997,2.766-3.526l1.806,1.806C5.223,6.769,5,7.354,5,8c0,1.654,1.346,3,3,3c0.646,0,1.231-0.223,1.72-0.572l1.712,1.712
	C10.466,12.787,9.318,13.25,8,13.25z M15.9,7.563C15.785,7.326,13.022,1.75,8,1.75c-0.909,0-1.736,0.194-2.494,0.496
	c-0.03,0.012-0.061,0.022-0.09,0.035c-0.159,0.084-0.27,0.245-0.27,0.437c0,0.21,0.13,0.389,0.314,0.463
	c0.058,0.022,0.12,0.037,0.186,0.037c0.089,0,0.169-0.029,0.241-0.07c0.082-0.016,0.137-0.029,0.137-0.029
	C6.635,2.894,7.29,2.75,8,2.75c4.454,0,7,5.25,7,5.25s-0.582,1.187-1.663,2.431c0,0-0.306,0.397-0.024,0.711
	c0.378,0.421,0.735,0,0.735,0c1.164-1.324,1.799-2.595,1.853-2.705C16.033,8.161,16.033,7.839,15.9,7.563z"/>
</svg>
