<?xml version="1.0" encoding="iso-8859-1"?>
<!-- Generator: Adobe Illustrator 16.0.0, SVG Export Plug-In . SVG Version: 6.00 Build 0)  -->
<!DOCTYPE svg PUBLIC "-//W3C//DTD SVG 1.1//EN" "http://www.w3.org/Graphics/SVG/1.1/DTD/svg11.dtd">
<svg version="1.1" id="Layer" xmlns="http://www.w3.org/2000/svg" xmlns:xlink="http://www.w3.org/1999/xlink" x="0px" y="0px"
	 width="24px" height="24px" viewBox="0 0 24 24" style="enable-background:new 0 0 24 24;" xml:space="preserve">
<path style="fill:#231F20;" d="M22.862,11.399C22.704,11.074,18.906,3.406,12,3.406S1.296,11.074,1.138,11.399
	c-0.184,0.381-0.184,0.82,0,1.201C1.296,12.926,5.094,20.594,12,20.594s10.704-7.668,10.862-7.993
	C23.046,12.22,23.046,11.78,22.862,11.399z M12,19.219C5.876,19.219,2.375,12,2.375,12S5.876,4.781,12,4.781S21.625,12,21.625,12
	S18.124,19.219,12,19.219z M12,7.875c-2.275,0-4.125,1.85-4.125,4.125s1.85,4.125,4.125,4.125s4.125-1.85,4.125-4.125
	S14.275,7.875,12,7.875z M12,14.75c-1.518,0-2.75-1.24-2.75-2.75S10.482,9.25,12,9.25c1.518,0,2.75,1.24,2.75,2.75
	S13.518,14.75,12,14.75z"/>
</svg>
