<?xml version="1.0" encoding="iso-8859-1"?>
<!-- Generator: Adobe Illustrator 16.0.0, SVG Export Plug-In . SVG Version: 6.00 Build 0)  -->
<!DOCTYPE svg PUBLIC "-//W3C//DTD SVG 1.1//EN" "http://www.w3.org/Graphics/SVG/1.1/DTD/svg11.dtd">
<svg version="1.1" id="Layer" xmlns="http://www.w3.org/2000/svg" xmlns:xlink="http://www.w3.org/1999/xlink" x="0px" y="0px"
	 width="16px" height="16px" viewBox="0 0 16 16" style="enable-background:new 0 0 16 16;" xml:space="preserve">
<path style="fill:#231F20;" d="M15.9,7.563C15.785,7.326,13.022,1.75,8,1.75S0.215,7.326,0.1,7.563
	c-0.133,0.275-0.133,0.598,0,0.873C0.215,8.674,2.978,14.25,8,14.25s7.785-5.576,7.9-5.813C16.033,8.161,16.033,7.839,15.9,7.563z
	 M8,13.25C3.546,13.25,1,8,1,8s2.546-5.25,7-5.25S15,8,15,8S12.454,13.25,8,13.25z M8,5C6.346,5,5,6.346,5,8s1.346,3,3,3
	s3-1.346,3-3S9.654,5,8,5z M8,10c-1.105,0-2-0.9-2-2s0.895-2,2-2c1.104,0,2,0.9,2,2S9.104,10,8,10z"/>
</svg>
