<?xml version="1.0" encoding="iso-8859-1"?>
<!-- Generator: Adobe Illustrator 16.0.0, SVG Export Plug-In . SVG Version: 6.00 Build 0)  -->
<!DOCTYPE svg PUBLIC "-//W3C//DTD SVG 1.1//EN" "http://www.w3.org/Graphics/SVG/1.1/DTD/svg11.dtd">
<svg version="1.1" id="Layer" xmlns="http://www.w3.org/2000/svg" xmlns:xlink="http://www.w3.org/1999/xlink" x="0px" y="0px"
	 width="24px" height="24px" viewBox="0 0 24 24" style="enable-background:new 0 0 24 24;" xml:space="preserve">
<path style="fill:#231F20;" d="M21.305,4.079c0,0-0.001-0.001-0.001-0.003c-2.258-2.268-5.923-2.27-8.187,0
	c-0.001,0-0.001,0-0.001,0l-1.117,1.119l-1.115-1.119c-2.261-2.268-5.928-2.268-8.189,0c-2.259,2.271-2.259,5.946,0,8.219
	l1.116,1.118l8.189,8.212l8.188-8.212l1.117-1.118C23.565,10.022,23.565,6.349,21.305,4.079z M20.33,11.32l-8.331,8.357L3.667,11.32
	C1.947,9.593,1.947,6.776,3.669,5.044C4.501,4.21,5.61,3.749,6.79,3.749c1.179,0,2.287,0.461,3.12,1.296l1.114,1.122
	c0.258,0.258,0.609,0.403,0.975,0.403h0c0.365,0,0.714-0.142,0.975-0.401l1.116-1.124c0.834-0.835,1.944-1.296,3.121-1.296
	c1.159,0,2.25,0.446,3.077,1.254c0.015,0.017,0.03,0.034,0.047,0.049C22.053,6.778,22.052,9.593,20.33,11.32z"/>
</svg>
