<?xml version="1.0" encoding="iso-8859-1"?>
<!-- Generator: Adobe Illustrator 16.0.0, SVG Export Plug-In . SVG Version: 6.00 Build 0)  -->
<!DOCTYPE svg PUBLIC "-//W3C//DTD SVG 1.1//EN" "http://www.w3.org/Graphics/SVG/1.1/DTD/svg11.dtd">
<svg version="1.1" id="Layer" xmlns="http://www.w3.org/2000/svg" xmlns:xlink="http://www.w3.org/1999/xlink" x="0px" y="0px"
	 width="16px" height="16px" viewBox="0 0 16 16" style="enable-background:new 0 0 16 16;" xml:space="preserve">
<path style="fill:#231F20;" d="M14.767,2.24c0,0-0.001-0.001-0.001-0.003c-1.643-1.649-4.309-1.65-5.954,0c-0.001,0-0.001,0-0.001,0
	L7.999,3.053L7.188,2.237c-1.645-1.649-4.311-1.649-5.956,0c-1.643,1.651-1.643,4.324,0,5.976l0.812,0.814L7.999,15l5.955-5.973
	l0.812-0.814C16.411,6.562,16.411,3.891,14.767,2.24z M14.058,7.507l-6.059,6.077L1.94,7.507c-1.251-1.258-1.251-3.306,0-4.564
	C2.547,2.335,3.353,2,4.21,2c0.857,0,1.663,0.335,2.27,0.943l0.81,0.814c0.188,0.188,0.442,0.295,0.708,0.295h0
	c0.266,0,0.521-0.105,0.708-0.294L9.52,2.943C10.126,2.335,10.933,2,11.79,2c0.842,0,1.635,0.323,2.237,0.912
	c0.011,0.012,0.022,0.023,0.034,0.035C15.311,4.203,15.31,6.249,14.058,7.507z"/>
</svg>
