<?xml version="1.0" encoding="iso-8859-1"?>
<!-- Generator: Adobe Illustrator 16.0.0, SVG Export Plug-In . SVG Version: 6.00 Build 0)  -->
<!DOCTYPE svg PUBLIC "-//W3C//DTD SVG 1.1//EN" "http://www.w3.org/Graphics/SVG/1.1/DTD/svg11.dtd">
<svg version="1.1" xmlns="http://www.w3.org/2000/svg" xmlns:xlink="http://www.w3.org/1999/xlink" x="0px" y="0px" width="24px"
	 height="24px" viewBox="0 0 24 24" style="enable-background:new 0 0 24 24;" xml:space="preserve">
<g id="Cuters">
	<path d="M23,12.666h-4.325l-2.934,8.492c-0.096,0.279-0.356,0.467-0.648,0.467c-0.292,0-0.555-0.188-0.651-0.466L8.899,5.125
		l-2.442,7.074C6.36,12.479,6.1,12.666,5.805,12.666H2.516c-0.379-0.015-0.658-0.152-0.882-0.473L1,11.289h4.317L8.25,2.79
		c0.192-0.551,1.107-0.552,1.3-0.001l5.542,16.041l2.442-7.08c0.096-0.279,0.359-0.461,0.652-0.461h3.268
		c0.404,0,0.686,0.148,0.916,0.477C22.37,11.766,23.003,12.666,23,12.666z"/>
</g>
<g id="Layer_1_copy">
</g>
</svg>
