<?xml version="1.0" encoding="iso-8859-1"?>
<!-- Generator: Adobe Illustrator 16.0.0, SVG Export Plug-In . SVG Version: 6.00 Build 0)  -->
<!DOCTYPE svg PUBLIC "-//W3C//DTD SVG 1.1//EN" "http://www.w3.org/Graphics/SVG/1.1/DTD/svg11.dtd">
<svg version="1.1" xmlns="http://www.w3.org/2000/svg" xmlns:xlink="http://www.w3.org/1999/xlink" x="0px" y="0px" width="16px"
	 height="16px" viewBox="0 0 16 16" style="enable-background:new 0 0 16 16;" xml:space="preserve">
<g id="Cuters">
	<path d="M16,8.484h-3.145l-2.134,6.178C10.652,14.865,10.462,15,10.249,15c-0.213,0-0.403-0.135-0.473-0.337L5.746,3L3.968,8.146
		c-0.07,0.203-0.26,0.338-0.473,0.338H1.103C0.826,8.476,0.624,8.373,0.461,8.141L0,7.482h3.139l2.134-6.179
		c0.14-0.404,0.806-0.405,0.945-0.001l4.031,11.664l1.777-5.146c0.07-0.203,0.26-0.338,0.473-0.338h2.377
		c0.293,0,0.499,0.107,0.667,0.348C15.543,7.83,16.003,8.484,16,8.484z"/>
</g>
<g id="Layer_1_copy">
</g>
</svg>
