<?xml version="1.0" encoding="iso-8859-1"?>
<!-- Generator: Adobe Illustrator 16.0.0, SVG Export Plug-In . SVG Version: 6.00 Build 0)  -->
<!DOCTYPE svg PUBLIC "-//W3C//DTD SVG 1.1//EN" "http://www.w3.org/Graphics/SVG/1.1/DTD/svg11.dtd">
<svg version="1.1" id="Layer" xmlns="http://www.w3.org/2000/svg" xmlns:xlink="http://www.w3.org/1999/xlink" x="0px" y="0px"
	 width="24px" height="24px" viewBox="0 0 24 24" style="enable-background:new 0 0 24 24;" xml:space="preserve">
<path d="M12.397,12.256c-0.496,0.082-1.157,0.123-1.958,0.123c-0.189,0-0.402-0.012-0.617-0.018
	c-0.329-0.064-0.575-0.217-0.752-0.533L8.54,10.875c0.236,0.012,1.278,0.109,1.91,0.109c0.711,0,1.293-0.039,1.729-0.105
	c0.129-0.021,0.228-0.059,0.303-0.111L9.25,9.598C8.979,9.514,8.673,9.471,8.349,9.471c-1.149,0-2.223,0.525-2.341,0.58
	l-3.009,1.814c-0.33,0.178-0.637,0.199-0.99,0.043l-1.008-0.451c0,0-0.01-0.018,0.019-0.035l4.29-2.596
	c0.146-0.072,1.478-0.758,3.05-0.758c0.46,0,0.894,0.062,1.291,0.186l3.957,1.191c0.272,0.084,0.466,0.322,0.496,0.613
	C14.174,10.82,13.781,12.039,12.397,12.256z M22.912,8.461c-0.288-0.521-0.956-1.129-1.898-1.129c-0.337,0-0.691,0.076-1.052,0.238
	c-0.712,0.317-2.598,1.213-3.807,1.793c-0.275,0.182-0.688,0.512-0.738,0.857l-0.151,1.068c0.063-0.016,0.127-0.018,0.192-0.047
	c0,0,3.964-1.904,5.071-2.396c0.047-0.021,0.098-0.041,0.159-0.041c0.065,0,0.131,0.029,0.206,0.146l-6.833,5.008
	c-0.384,0.281-0.865,0.441-1.352,0.441c-0.116,0-0.232-0.012-0.345-0.023l-6.65-1.053c-0.166,0-0.327,0.053-0.456,0.156
	l-1.273,1.135C3.676,14.879,3.558,15.18,3.6,15.586c0,0,0.129,1.115,0.168,1.08l2.194-1.898l6.18,0.988
	c0.192,0.027,0.385,0.045,0.578,0.045c0.774,0,1.546-0.254,2.172-0.709l7.83-5.732C23,9.146,23.081,8.771,22.912,8.461z"/>
</svg>
