<?xml version="1.0" encoding="utf-8"?>
<!-- Generator: Adobe Illustrator 27.4.1, SVG Export Plug-In . SVG Version: 6.00 Build 0)  -->
<svg version="1.1" id="Layer" xmlns="http://www.w3.org/2000/svg" xmlns:xlink="http://www.w3.org/1999/xlink" x="0px" y="0px"
	 viewBox="0 0 24 24" enable-background="new 0 0 24 24" xml:space="preserve">
<path d="M7.131,12.934l-3.514-0.005c-0.374-0.019-0.648-0.159-0.869-0.475l-0.629-0.908c0,0,0.001-0.02,0.034-0.02l5.014-0.001"/>
<path d="M14.312,9.499"/>
<path d="M8.033,10.934c0.012-0.163,0.101-1.658,0.902-3.011c0.235-0.396,0.509-0.737,0.817-1.016l3.041-2.798
	c0.211-0.191,0.515-0.237,0.78-0.114c0.692,0.327,1.54,1.286,1.022,2.587c-0.182,0.468-0.484,1.059-0.892,1.748
	c-0.096,0.163-0.215,0.34-0.329,0.522c-0.223,0.25-0.479,0.384-0.842,0.375l-1.091-0.028c0.13-0.197,0.745-1.044,1.067-1.588
	c0.362-0.612,0.625-1.133,0.79-1.542c0.047-0.122,0.066-0.226,0.059-0.318l-2.653,2.185c-0.211,0.191-0.403,0.432-0.568,0.711
	c-0.585,0.989-0.68,2.18-0.693,2.31"/>
<path d="M5.273,12.934l2.965-0.005c0.166-0.027,0.319-0.105,0.431-0.229l0.146-0.179c0.265-0.313,0.567-0.931,0.628-1.563
	c0,0-0.951-0.043-1.409-0.023c-0.077,0.367-0.167,0.585-0.276,0.591l-2.353,0.001"/>
<path d="M20.744,8.964l-1.423,0.002l-0.509-0.002l-3.264,0.002c-0.417-0.001-0.696,0.13-0.935,0.469l-0.666,0.944l5.864-0.003
	l-1.952,6.541c-0.164,0.449-0.358,0.986-0.773,1.244c-0.273,0.17-0.808,0.424-1.165,0.427l-5.243,0.008
	c-0.474-0.04-0.942-0.235-1.31-0.554c-0.088-0.076-0.168-0.161-0.245-0.244l-0.867-0.981c-0.125-0.109-0.281-0.175-0.447-0.181
	l-4.206,0.007c-0.405-0.003-0.691,0.147-0.926,0.481c0,0-0.634,0.926-0.582,0.925l5.402,0.021l0.555,0.624
	c0.127,0.147,0.261,0.287,0.407,0.413c0.584,0.508,1.333,0.823,2.104,0.891l5.583-0.071c0.208-0.004,1.006-0.154,1.691-0.603
	c0.65-0.426,1.08-1.196,1.348-1.924l2.343-7.58C21.642,9.486,21.453,8.964,20.744,8.964z"/>
</svg>
