<?xml version="1.0" encoding="utf-8"?>
<!-- Generator: Adobe Illustrator 27.4.1, SVG Export Plug-In . SVG Version: 6.00 Build 0)  -->
<svg version="1.1" id="Layer" xmlns="http://www.w3.org/2000/svg" xmlns:xlink="http://www.w3.org/1999/xlink" x="0px" y="0px"
	 viewBox="0 0 24 24" enable-background="new 0 0 24 24" xml:space="preserve">
<path d="M7.167,12.398l-5.014-0.001c-0.034,0-0.034-0.02-0.034-0.02l0.629-0.908c0.221-0.316,0.495-0.457,0.869-0.475l3.514-0.005"
	/>
<path d="M14.312,14.424"/>
<path d="M9.443,12.966c0.013,0.13,0.108,1.321,0.693,2.31c0.165,0.279,0.358,0.52,0.568,0.711l2.653,2.185
	c0.007-0.092-0.011-0.195-0.059-0.318c-0.165-0.409-0.428-0.929-0.79-1.542c-0.322-0.544-0.937-1.391-1.067-1.588l1.091-0.028
	c0.363-0.009,0.619,0.125,0.842,0.375c0.114,0.181,0.233,0.359,0.329,0.522c0.408,0.689,0.71,1.279,0.892,1.748
	c0.518,1.301-0.331,2.26-1.022,2.587c-0.266,0.123-0.569,0.077-0.78-0.114l-3.041-2.798C9.444,16.737,9.169,16.396,8.935,16
	c-0.801-1.353-0.889-2.848-0.902-3.011"/>
<path d="M5.404,12.397l2.353,0.001c0.109,0.006,0.199,0.224,0.276,0.591c0.459,0.02,1.409-0.023,1.409-0.023
	c-0.062-0.632-0.364-1.25-0.628-1.563l-0.146-0.179c-0.112-0.124-0.265-0.203-0.431-0.229l-2.965-0.005"/>
<path d="M20.744,14.959l-1.423-0.002l-0.509,0.002l-3.264-0.002c-0.417,0.001-0.696-0.13-0.935-0.469l-0.666-0.944l5.864,0.003
	l-1.952-6.541c-0.164-0.449-0.358-0.986-0.773-1.244c-0.273-0.17-0.808-0.424-1.165-0.427l-5.243-0.008
	c-0.474,0.04-0.942,0.235-1.31,0.554C9.281,5.958,9.201,6.044,9.124,6.126L8.257,7.108C8.132,7.217,7.975,7.283,7.81,7.289
	L3.604,7.282C3.199,7.285,2.913,7.135,2.678,6.802c0,0-0.634-0.926-0.582-0.925l5.402-0.021l0.555-0.624
	c0.127-0.147,0.261-0.287,0.407-0.413c0.584-0.508,1.333-0.823,2.104-0.891l5.583,0.071c0.208,0.004,1.006,0.154,1.691,0.603
	c0.65,0.426,1.08,1.196,1.348,1.924l2.343,7.58C21.642,14.438,21.453,14.959,20.744,14.959z"/>
</svg>
