<?xml version="1.0" encoding="iso-8859-1"?>
<!-- Generator: Adobe Illustrator 16.0.0, SVG Export Plug-In . SVG Version: 6.00 Build 0)  -->
<!DOCTYPE svg PUBLIC "-//W3C//DTD SVG 1.1//EN" "http://www.w3.org/Graphics/SVG/1.1/DTD/svg11.dtd">
<svg version="1.1" id="Layer" xmlns="http://www.w3.org/2000/svg" xmlns:xlink="http://www.w3.org/1999/xlink" x="0px" y="0px"
	 width="16px" height="16px" viewBox="0 0 16 16" style="enable-background:new 0 0 16 16;" xml:space="preserve">
<path style="fill:#231F20;" d="M16,12.781L16,12.781L16,12.781L9.23,3.205H9.229L8.77,2.549c-0.051-0.07-0.108-0.111-0.166-0.156
	C8.495,2.309,8.375,2.25,8.229,2.23L7.999,2.219L7.769,2.23C7.636,2.248,7.524,2.297,7.422,2.367h0.001
	C7.355,2.42,7.287,2.469,7.228,2.553L0,12.781h0h0h0h0l0.466,0.666c0.168,0.24,0.363,0.332,0.656,0.334h13.754
	c0.293-0.002,0.488-0.094,0.656-0.334L16,12.781L16,12.781L16,12.781z M0.819,12.781c0.29-0.002,0.477-0.107,0.645-0.346L8,3.191
	l6.537,9.244c0.168,0.238,0.356,0.344,0.645,0.346H0.819z"/>
</svg>
