<?xml version="1.0" encoding="iso-8859-1"?>
<!-- Generator: Adobe Illustrator 16.0.0, SVG Export Plug-In . SVG Version: 6.00 Build 0)  -->
<!DOCTYPE svg PUBLIC "-//W3C//DTD SVG 1.1//EN" "http://www.w3.org/Graphics/SVG/1.1/DTD/svg11.dtd">
<svg version="1.1" id="Layer_2" xmlns="http://www.w3.org/2000/svg" xmlns:xlink="http://www.w3.org/1999/xlink" x="0px" y="0px"
	 width="24px" height="24px" viewBox="0 0 24 24" style="enable-background:new 0 0 24 24;" xml:space="preserve">
<path style="fill:#231F20;" d="M13.375,1l0.309,0.018c0.205,0.024,0.373,0.104,0.516,0.221c0.082,0.062,0.162,0.118,0.23,0.215
	L21.883,12h-1.119c-0.402,0-0.662-0.148-0.895-0.476L14.75,4.285v17.17c-0.001,0.404-0.128,0.673-0.456,0.902L13.375,23V1z
	 M10.625,1L9.706,1.643C9.378,1.872,9.251,2.141,9.25,2.545v17.17l-5.119-7.239C3.898,12.148,3.639,12,3.236,12H2.117L9.57,22.547
	c0.068,0.097,0.148,0.153,0.23,0.215c0.143,0.117,0.311,0.196,0.516,0.221L10.625,23V1z"/>
</svg>
