<?xml version="1.0" encoding="utf-8"?>
<!-- Generator: Adobe Illustrator 16.0.0, SVG Export Plug-In . SVG Version: 6.00 Build 0)  -->
<!DOCTYPE svg PUBLIC "-//W3C//DTD SVG 1.1//EN" "http://www.w3.org/Graphics/SVG/1.1/DTD/svg11.dtd">
<svg version="1.1" id="Layer_2" xmlns="http://www.w3.org/2000/svg" xmlns:xlink="http://www.w3.org/1999/xlink" x="0px" y="0px"
	 width="16px" height="16px" viewBox="0 0 16 16" enable-background="new 0 0 16 16" xml:space="preserve">
<path fill="#231F20" d="M9,0l0.227,0.012C9.373,0.03,9.494,0.089,9.602,0.174C9.66,0.218,9.717,0.26,9.768,0.33L15.188,8h-0.814
	c-0.291,0-0.48-0.107-0.648-0.347L10,2.389v12.488c-0.001,0.293-0.093,0.488-0.333,0.656L9,16V0z M7,0L6.333,0.467
	C6.093,0.635,6.001,0.83,6,1.123v12.488L2.275,8.347C2.107,8.107,1.918,8,1.627,8H0.812l5.42,7.67
	c0.051,0.07,0.107,0.112,0.166,0.156c0.107,0.085,0.229,0.144,0.375,0.162L7,16V0z"/>
</svg>
