<?xml version="1.0" encoding="iso-8859-1"?>
<!-- Generator: Adobe Illustrator 16.0.0, SVG Export Plug-In . SVG Version: 6.00 Build 0)  -->
<!DOCTYPE svg PUBLIC "-//W3C//DTD SVG 1.1//EN" "http://www.w3.org/Graphics/SVG/1.1/DTD/svg11.dtd">
<svg version="1.1" id="Layer_2" xmlns="http://www.w3.org/2000/svg" xmlns:xlink="http://www.w3.org/1999/xlink" x="0px" y="0px"
	 width="16px" height="16px" viewBox="0 0 16 16" style="enable-background:new 0 0 16 16;" xml:space="preserve">
<path style="fill:#231F20;" d="M8.5,0l0.227,0.012C8.873,0.03,8.994,0.089,9.102,0.174C9.16,0.218,9.217,0.26,9.268,0.33L14.688,8
	h-0.814c-0.291,0-0.48-0.107-0.648-0.347L9.5,2.389v12.488c-0.001,0.293-0.093,0.488-0.333,0.656L8.5,16V0z M7.5,0L6.833,0.467
	C6.593,0.635,6.501,0.83,6.5,1.123v12.488L2.775,8.347C2.607,8.107,2.418,8,2.127,8H1.312l5.42,7.67
	c0.051,0.07,0.107,0.112,0.166,0.156c0.107,0.085,0.229,0.144,0.375,0.162L7.5,16V0z"/>
</svg>
