<?xml version="1.0" encoding="iso-8859-1"?>
<!-- Generator: Adobe Illustrator 16.0.0, SVG Export Plug-In . SVG Version: 6.00 Build 0)  -->
<!DOCTYPE svg PUBLIC "-//W3C//DTD SVG 1.1//EN" "http://www.w3.org/Graphics/SVG/1.1/DTD/svg11.dtd">
<svg version="1.1" id="icone" xmlns="http://www.w3.org/2000/svg" xmlns:xlink="http://www.w3.org/1999/xlink" x="0px" y="0px"
	 width="24px" height="24px" viewBox="0 0 24 24" style="enable-background:new 0 0 24 24;" xml:space="preserve">
<path style="fill:#231F20;" d="M17.652,18.302l-2.937-4.193h1.138c0.41,0,0.671,0.148,0.907,0.482l1.744,2.494l1.748-2.494
	c0.236-0.334,0.497-0.482,0.907-0.482h1.138l-2.938,4.193l2.938,4.198h-1.139c-0.409-0.002-0.671-0.148-0.906-0.487l-1.748-2.49
	l-1.744,2.49c-0.235,0.339-0.497,0.485-0.906,0.487h-1.139L17.652,18.302z M12.925,7.814L12.274,6.88
	c-0.235-0.334-0.509-0.461-0.919-0.463H8.014V3.073c0-0.41-0.129-0.687-0.465-0.92L6.616,1.5v4.917H1.703l0.651,0.932
	c0.235,0.337,0.509,0.466,0.919,0.466h3.343v3.34c0.002,0.41,0.132,0.682,0.466,0.914l0.932,0.654V7.814H12.925z M21.159,2.917
	c-0.41-0.002-0.671,0.146-0.908,0.486l-5.536,7.904h1.139c0.408,0,0.671-0.149,0.906-0.483l5.537-7.909L21.159,2.917z
	 M12.274,18.071c-0.235-0.335-0.509-0.467-0.919-0.469H1.703l0.651,0.937C2.589,18.871,2.863,19,3.273,19h9.652L12.274,18.071z"/>
</svg>
