<?xml version="1.0" encoding="iso-8859-1"?>
<!-- Generator: Adobe Illustrator 16.0.0, SVG Export Plug-In . SVG Version: 6.00 Build 0)  -->
<!DOCTYPE svg PUBLIC "-//W3C//DTD SVG 1.1//EN" "http://www.w3.org/Graphics/SVG/1.1/DTD/svg11.dtd">
<svg version="1.1" id="icone" xmlns="http://www.w3.org/2000/svg" xmlns:xlink="http://www.w3.org/1999/xlink" x="0px" y="0px"
	 width="16px" height="16px" viewBox="0 0 16 16" style="enable-background:new 0 0 16 16;" xml:space="preserve">
<path style="fill:#231F20;" d="M12.041,12.506l-2.101-3h0.813c0.293,0,0.48,0.107,0.649,0.348l1.247,1.781l1.248-1.781
	c0.169-0.24,0.356-0.348,0.649-0.348h0.813l-2.101,3l2.101,3h-0.814c-0.292-0.002-0.48-0.107-0.648-0.348l-1.248-1.781l-1.247,1.781
	c-0.168,0.24-0.356,0.346-0.648,0.348H9.94L12.041,12.506z M8.662,5.008L8.195,4.342C8.027,4.102,7.832,4.01,7.539,4.008H5.151
	V1.617c0-0.293-0.094-0.488-0.333-0.656L4.151,0.494v3.514H0.639l0.467,0.668c0.168,0.238,0.363,0.332,0.656,0.332h2.39v2.387
	c0.002,0.293,0.094,0.488,0.334,0.656l0.666,0.467v-3.51H8.662z M14.548,1.508c-0.293-0.002-0.48,0.105-0.65,0.346L9.94,7.506h0.814
	c0.291,0,0.48-0.107,0.648-0.348l3.958-5.652L14.548,1.508z M8.195,12.34c-0.168-0.24-0.363-0.332-0.656-0.334h-6.9l0.467,0.668
	c0.168,0.238,0.363,0.332,0.656,0.332h6.9L8.195,12.34z"/>
</svg>
