<?xml version="1.0" encoding="iso-8859-1"?>
<!-- Generator: Adobe Illustrator 16.0.0, SVG Export Plug-In . SVG Version: 6.00 Build 0)  -->
<!DOCTYPE svg PUBLIC "-//W3C//DTD SVG 1.1//EN" "http://www.w3.org/Graphics/SVG/1.1/DTD/svg11.dtd">
<svg version="1.1" id="Layer" xmlns="http://www.w3.org/2000/svg" xmlns:xlink="http://www.w3.org/1999/xlink" x="0px" y="0px"
	 width="24px" height="24px" viewBox="0 0 24 24" style="enable-background:new 0 0 24 24;" xml:space="preserve">
<path style="fill:#231F20;" d="M21.612,6.567c-1.417-2.555-3.739-4.409-6.542-5.226c-0.127-0.039-0.256-0.058-0.385-0.058
	c-0.261,0-0.52,0.078-0.745,0.225c-0.337,0.217-0.559,0.567-0.617,0.967l-0.264,1.894c-0.094,0.655,0.297,1.293,0.93,1.503
	c1.447,0.477,2.675,1.46,3.459,2.76c0.255,0.427,0.708,0.667,1.179,0.667c0.163,0,0.33-0.027,0.488-0.089l1.783-0.684
	c0.373-0.139,0.665-0.438,0.802-0.816C21.839,7.336,21.806,6.915,21.612,6.567z M18.628,7.921c-0.955-1.588-2.449-2.778-4.208-3.359
	l0.266-1.899c2.436,0.716,4.493,2.357,5.724,4.575L18.628,7.921z M22.967,11.075c-0.032-0.401-0.235-0.767-0.556-1.005
	c-0.238-0.174-0.525-0.266-0.816-0.266c-0.1,0-0.203,0.008-0.303,0.03l-1.859,0.425c-0.646,0.147-1.098,0.735-1.071,1.402
	c0.126,2.933-1.73,5.562-4.515,6.412c-0.604,0.181-1.226,0.278-1.847,0.278c-0.173,0-0.347-0.012-0.519-0.021
	c-0.686-0.06-1.353-0.229-1.985-0.503c-0.174-0.073-0.361-0.111-0.544-0.111c-0.449,0-0.886,0.22-1.147,0.62l-1.05,1.596
	c-0.221,0.337-0.285,0.749-0.178,1.135c0.108,0.386,0.379,0.706,0.739,0.876c1.2,0.565,2.469,0.908,3.778,1.017
	c0.303,0.024,0.606,0.04,0.908,0.04c1.079,0,2.148-0.158,3.188-0.476C20.1,21.028,23.37,16.214,22.967,11.075z M14.792,21.2
	c-1.168,0.358-2.374,0.488-3.585,0.385c-1.141-0.093-2.262-0.396-3.303-0.889l1.048-1.602c0.768,0.335,1.584,0.536,2.413,0.611
	c0.971,0.076,1.942-0.029,2.881-0.313c3.42-1.037,5.64-4.304,5.49-7.785l1.858-0.424C21.946,15.633,19.156,19.878,14.792,21.2z
	 M11.968,2.374c-0.001-0.402-0.175-0.776-0.479-1.037C11.238,1.115,10.919,1,10.593,1c-0.066,0-0.132,0.004-0.201,0.017
	c-0.531,0.074-1.059,0.196-1.573,0.35C3.012,3.13-0.283,9.312,1.472,15.142c0.436,1.452,1.152,2.771,2.13,3.93
	c0.258,0.304,0.635,0.485,1.035,0.489c0.004,0,0.011,0,0.015,0c0.395,0,0.767-0.169,1.029-0.466l1.265-1.428
	c0.442-0.505,0.463-1.247,0.049-1.775c-0.494-0.625-0.86-1.329-1.088-2.09c-1.019-3.385,0.889-6.961,4.253-7.984
	c0.227-0.067,0.457-0.127,0.693-0.171c0.653-0.118,1.124-0.693,1.123-1.359L11.968,2.374z M9.759,4.5
	c-4.085,1.241-6.406,5.59-5.169,9.697c0.278,0.933,0.729,1.796,1.328,2.552l-1.266,1.434c-0.847-1.006-1.483-2.172-1.864-3.437
	C1.252,9.641,4.136,4.229,9.218,2.69c0.45-0.141,0.91-0.243,1.375-0.312l0.008,1.912C10.314,4.349,10.034,4.416,9.759,4.5z"/>
</svg>
