<?xml version="1.0" encoding="iso-8859-1"?>
<!-- Generator: Adobe Illustrator 16.0.0, SVG Export Plug-In . SVG Version: 6.00 Build 0)  -->
<!DOCTYPE svg PUBLIC "-//W3C//DTD SVG 1.1//EN" "http://www.w3.org/Graphics/SVG/1.1/DTD/svg11.dtd">
<svg version="1.1" id="Layer" xmlns="http://www.w3.org/2000/svg" xmlns:xlink="http://www.w3.org/1999/xlink" x="0px" y="0px"
	 width="16px" height="16px" viewBox="0 0 16 16" style="enable-background:new 0 0 16 16;" xml:space="preserve">
<path style="fill:#231F20;" d="M14.99,4.05c-1.03-1.857-2.72-3.208-4.757-3.802c-0.092-0.027-0.186-0.04-0.279-0.04
	c-0.191,0-0.379,0.055-0.542,0.16C9.167,0.526,9.004,0.783,8.964,1.071L8.771,2.449C8.703,2.929,8.988,3.391,9.448,3.542
	c1.051,0.348,1.945,1.062,2.516,2.01c0.185,0.31,0.514,0.485,0.856,0.485c0.119,0,0.239-0.021,0.355-0.065l1.296-0.496
	c0.271-0.104,0.484-0.32,0.583-0.594C15.155,4.607,15.131,4.304,14.99,4.05z M12.82,5.034c-0.694-1.154-1.781-2.022-3.06-2.445
	L9.954,1.21c1.771,0.518,3.268,1.714,4.163,3.328L12.82,5.034z M15.976,7.327c-0.023-0.29-0.17-0.556-0.404-0.729
	c-0.174-0.127-0.382-0.195-0.593-0.195c-0.074,0-0.147,0.008-0.221,0.024l-1.352,0.308c-0.471,0.106-0.799,0.536-0.778,1.021
	c0.091,2.13-1.259,4.045-3.285,4.66C8.903,12.55,8.452,12.618,8,12.618c-0.126,0-0.253-0.006-0.378-0.016
	c-0.498-0.042-0.983-0.164-1.443-0.362c-0.127-0.056-0.262-0.082-0.395-0.082c-0.328,0-0.646,0.161-0.835,0.45l-0.764,1.162
	c-0.16,0.243-0.206,0.544-0.128,0.824c0.079,0.28,0.274,0.513,0.537,0.636c0.872,0.413,1.795,0.662,2.747,0.741
	C7.562,15.99,7.783,16,8.003,16c0.783,0,1.562-0.116,2.317-0.347C13.891,14.567,16.27,11.065,15.976,7.327z M10.03,14.692
	c-0.849,0.259-1.726,0.354-2.607,0.279c-0.831-0.069-1.646-0.291-2.403-0.648l0.764-1.162c0.557,0.241,1.151,0.39,1.754,0.441
	c0.707,0.059,1.412-0.018,2.096-0.226c2.488-0.756,4.102-3.132,3.993-5.664l1.352-0.307C15.233,10.643,13.205,13.728,10.03,14.692z
	 M7.977,0.999C7.976,0.708,7.849,0.434,7.629,0.243C7.446,0.085,7.215,0,6.977,0C6.928,0,6.88,0.004,6.832,0.011
	C6.444,0.067,6.06,0.154,5.687,0.267c-4.223,1.283-6.62,5.778-5.343,10.02c0.317,1.054,0.838,2.015,1.55,2.857
	c0.188,0.222,0.462,0.351,0.751,0.354c0.003,0,0.008,0,0.011,0c0.286,0,0.559-0.122,0.748-0.337l0.92-1.041
	c0.321-0.364,0.336-0.907,0.036-1.289C4.001,10.376,3.735,9.865,3.568,9.31c-0.74-2.459,0.647-5.062,3.093-5.805
	c0.165-0.05,0.333-0.092,0.505-0.124c0.474-0.089,0.816-0.506,0.815-0.99L7.977,0.999z M6.371,2.545
	C3.399,3.446,1.711,6.611,2.611,9.6c0.202,0.675,0.53,1.304,0.965,1.854l-0.92,1.041c-0.616-0.73-1.079-1.58-1.355-2.499
	C0.183,6.285,2.28,2.351,5.977,1.228c0.327-0.1,0.661-0.174,1-0.224l0.005,1.391C6.774,2.435,6.57,2.484,6.371,2.545z"/>
</svg>
