<?xml version="1.0" encoding="iso-8859-1"?>
<!-- Generator: Adobe Illustrator 16.0.0, SVG Export Plug-In . SVG Version: 6.00 Build 0)  -->
<!DOCTYPE svg PUBLIC "-//W3C//DTD SVG 1.1//EN" "http://www.w3.org/Graphics/SVG/1.1/DTD/svg11.dtd">
<svg version="1.1" id="icone" xmlns="http://www.w3.org/2000/svg" xmlns:xlink="http://www.w3.org/1999/xlink" x="0px" y="0px"
	 width="24px" height="24px" viewBox="0 0 24 24" style="enable-background:new 0 0 24 24;" xml:space="preserve">
<path style="fill:#231F20;" d="M21.94,1.253c-0.391,0.091-0.633,0.3-0.78,0.672l-4.205,12.31l-4.77,2.457l-5.147-6.494
	C6.908,10.03,6.707,9.938,6.5,9.938c-0.03,0-0.057,0.001-0.086,0.004c-0.238,0.034-0.443,0.186-0.541,0.404
	c0,0-4.855,12.568-4.873,12.654h0.893c0.354-0.085,0.571-0.281,0.722-0.587l0.514-1.328l0.002-0.011l0,0l3.539-9.134l4.793,6.052
	c0.133,0.17,0.334,0.26,0.539,0.26c0.106,0,0.214-0.023,0.313-0.079l5.5-2.836c0.148-0.072,0.264-0.199,0.323-0.353L23,1
	L21.94,1.253z"/>
</svg>
