<?xml version="1.0" encoding="iso-8859-1"?>
<!-- Generator: Adobe Illustrator 16.0.0, SVG Export Plug-In . SVG Version: 6.00 Build 0)  -->
<!DOCTYPE svg PUBLIC "-//W3C//DTD SVG 1.1//EN" "http://www.w3.org/Graphics/SVG/1.1/DTD/svg11.dtd">
<svg version="1.1" id="icone" xmlns="http://www.w3.org/2000/svg" xmlns:xlink="http://www.w3.org/1999/xlink" x="0px" y="0px"
	 width="16px" height="16px" viewBox="0 0 16 16" style="enable-background:new 0 0 16 16;" xml:space="preserve">
<path style="fill:#231F20;" d="M15.23,0.183c-0.285,0.067-0.46,0.218-0.569,0.49l-3.056,8.952l-3.469,1.789L4.392,6.689
	C4.296,6.569,4.151,6.5,4,6.5c-0.021,0-0.042,0.001-0.063,0.004C3.764,6.526,3.614,6.637,3.543,6.797c0,0-3.531,9.141-3.543,9.203
	h0.649c0.257-0.062,0.416-0.205,0.525-0.429l0.373-0.965l0.002-0.005l0,0l2.572-6.644l3.486,4.399
	C7.706,12.48,7.852,12.547,8,12.547c0.077,0,0.156-0.018,0.229-0.056l4-2.062c0.107-0.055,0.19-0.146,0.235-0.259L16,0L15.23,0.183z
	"/>
</svg>
