<?xml version="1.0" encoding="iso-8859-1"?>
<!-- Generator: Adobe Illustrator 16.0.0, SVG Export Plug-In . SVG Version: 6.00 Build 0)  -->
<!DOCTYPE svg PUBLIC "-//W3C//DTD SVG 1.1//EN" "http://www.w3.org/Graphics/SVG/1.1/DTD/svg11.dtd">
<svg version="1.1" id="Layer_3" xmlns="http://www.w3.org/2000/svg" xmlns:xlink="http://www.w3.org/1999/xlink" x="0px" y="0px"
	 width="16px" height="16px" viewBox="0 0 16 16" style="enable-background:new 0 0 16 16;" xml:space="preserve">
<path style="fill:#231F20;" d="M3.5,10h-3C0.224,10,0,10.224,0,10.5v5C0,15.776,0.224,16,0.5,16h3C3.776,16,4,15.776,4,15.5v-5
	C4,10.224,3.776,10,3.5,10z M3,15H1v-4h2V15z M9.5,5h-3C6.224,5,6,5.224,6,5.5v10C6,15.776,6.224,16,6.5,16h3
	c0.276,0,0.5-0.224,0.5-0.5v-10C10,5.224,9.776,5,9.5,5z M9,15H7V6h2V15z M15.5,0h-3C12.224,0,12,0.224,12,0.5v15
	c0,0.276,0.224,0.5,0.5,0.5h3c0.276,0,0.5-0.224,0.5-0.5v-15C16,0.224,15.776,0,15.5,0z M15,15h-2V1h2V15z"/>
</svg>
