<?xml version="1.0" encoding="iso-8859-1"?>
<!-- Generator: Adobe Illustrator 16.0.0, SVG Export Plug-In . SVG Version: 6.00 Build 0)  -->
<!DOCTYPE svg PUBLIC "-//W3C//DTD SVG 1.1//EN" "http://www.w3.org/Graphics/SVG/1.1/DTD/svg11.dtd">
<svg version="1.1" id="Layer_3" xmlns="http://www.w3.org/2000/svg" xmlns:xlink="http://www.w3.org/1999/xlink" x="0px" y="0px"
	 width="24px" height="24px" viewBox="0 0 24 24" style="enable-background:new 0 0 24 24;" xml:space="preserve">
<path style="fill:#231F20;" d="M5.812,14.75H1.688C1.309,14.75,1,15.056,1,15.438v6.875C1,22.694,1.309,23,1.688,23h4.125
	C6.191,23,6.5,22.694,6.5,22.312v-6.875C6.5,15.056,6.191,14.75,5.812,14.75z M5.125,21.625h-2.75v-5.5h2.75V21.625z M14.062,7.875
	H9.938c-0.379,0-0.688,0.306-0.688,0.688v13.75C9.25,22.694,9.559,23,9.938,23h4.125c0.379,0,0.688-0.306,0.688-0.688V8.562
	C14.75,8.181,14.441,7.875,14.062,7.875z M13.375,21.625h-2.75V9.25h2.75V21.625z M22.312,1h-4.125C17.809,1,17.5,1.306,17.5,1.688
	v20.625c0,0.382,0.309,0.688,0.688,0.688h4.125C22.691,23,23,22.694,23,22.312V1.688C23,1.306,22.691,1,22.312,1z M21.625,21.625
	h-2.75V2.375h2.75V21.625z"/>
</svg>
