<?xml version="1.0" encoding="utf-8"?>
<!-- Generator: Adobe Illustrator 16.0.0, SVG Export Plug-In . SVG Version: 6.00 Build 0)  -->
<!DOCTYPE svg PUBLIC "-//W3C//DTD SVG 1.1//EN" "http://www.w3.org/Graphics/SVG/1.1/DTD/svg11.dtd">
<svg version="1.1" id="Layer_2" xmlns="http://www.w3.org/2000/svg" xmlns:xlink="http://www.w3.org/1999/xlink" x="0px" y="0px"
	 width="16px" height="16px" viewBox="0 0 16 16" enable-background="new 0 0 16 16" xml:space="preserve">
<path fill="#231F20" d="M7.5,3v4.5C7.5,7.776,7.276,8,7,8S6.5,7.776,6.5,7.5c0-0.013,0.006-0.022,0.007-0.034L6.5,7.468V4.123
	C6.502,3.83,6.594,3.635,6.834,3.467L7.5,3z M14.834,3.467c-0.24,0.168-0.332,0.363-0.334,0.656v3.345l0.007-0.002
	C14.506,7.478,14.5,7.487,14.5,7.5C14.5,7.776,14.724,8,15,8s0.5-0.224,0.5-0.5V3L14.834,3.467z M10.834,1.467
	c-0.24,0.168-0.332,0.363-0.334,0.656v5.345l0.007-0.002C10.506,7.478,10.5,7.487,10.5,7.5C10.5,7.776,10.724,8,11,8
	s0.5-0.224,0.5-0.5V1L10.834,1.467z M4.834,5.467C4.594,5.635,4.502,5.83,4.5,6.123v1.345l0.007-0.002
	C4.506,7.478,4.5,7.487,4.5,7.5C4.5,7.776,4.724,8,5,8s0.5-0.224,0.5-0.5V5L4.834,5.467z M3.166,13.533
	c0.24-0.168,0.332-0.363,0.334-0.656V8.532L3.493,8.534C3.494,8.522,3.5,8.513,3.5,8.5C3.5,8.224,3.276,8,3,8S2.5,8.224,2.5,8.5V14
	L3.166,13.533z M0.834,0.467C0.594,0.635,0.502,0.83,0.5,1.123v6.345l0.007-0.002C0.506,7.478,0.5,7.487,0.5,7.5
	C0.5,7.776,0.724,8,1,8s0.5-0.224,0.5-0.5V0L0.834,0.467z M13.166,10.533c0.24-0.168,0.332-0.363,0.334-0.656V8.532l-0.007,0.002
	C13.494,8.522,13.5,8.513,13.5,8.5C13.5,8.224,13.276,8,13,8s-0.5,0.224-0.5,0.5V11L13.166,10.533z M9.166,15.533
	c0.24-0.168,0.332-0.363,0.334-0.656V8.532L9.493,8.534C9.494,8.522,9.5,8.513,9.5,8.5C9.5,8.224,9.276,8,9,8S8.5,8.224,8.5,8.5V16
	L9.166,15.533z"/>
</svg>
