<?xml version="1.0" encoding="iso-8859-1"?>
<!-- Generator: Adobe Illustrator 16.0.0, SVG Export Plug-In . SVG Version: 6.00 Build 0)  -->
<!DOCTYPE svg PUBLIC "-//W3C//DTD SVG 1.1//EN" "http://www.w3.org/Graphics/SVG/1.1/DTD/svg11.dtd">
<svg version="1.1" id="icone" xmlns="http://www.w3.org/2000/svg" xmlns:xlink="http://www.w3.org/1999/xlink" x="0px" y="0px"
	 width="24px" height="24px" viewBox="0 0 24 24" style="enable-background:new 0 0 24 24;" xml:space="preserve">
<path style="fill:#231F20;" d="M20.41,8.452L23,1l-1.06,0.253c-0.391,0.091-0.633,0.3-0.78,0.672l-1.853,5.418l-1.322-1.331
	c-0.269-0.266-0.702-0.266-0.971,0l-3.704,3.707L8.286,5.947c-0.155-0.115-0.355-0.16-0.547-0.119L1.975,6.994
	c-0.237,0.11-0.418,0.283-0.532,0.561L1,8.562l6.707-1.329l5.257,3.944c0.271,0.2,0.656,0.175,0.896-0.064l3.64-3.643l1.314,1.314
	l-1.859,5.449l-4.77,2.457l-5.147-6.494C6.908,10.03,6.707,9.938,6.5,9.938c-0.03,0-0.057,0.001-0.086,0.004
	c-0.238,0.034-0.443,0.186-0.541,0.404c0,0-4.855,12.568-4.873,12.654h0.893c0.354-0.085,0.571-0.281,0.722-0.587l0.514-1.328
	l0.002-0.011l3.539-9.134l4.793,6.052c0.133,0.17,0.334,0.26,0.539,0.26c0.106,0,0.214-0.023,0.313-0.079l5.5-2.836
	c0.148-0.072,0.264-0.199,0.323-0.353l1.773-5.098l2.865,2.862l0.183-1.095c0.055-0.334-0.011-0.602-0.199-0.84L20.41,8.452z"/>
</svg>
