<?xml version="1.0" encoding="utf-8"?>
<!-- Generator: Adobe Illustrator 16.0.0, SVG Export Plug-In . SVG Version: 6.00 Build 0)  -->
<!DOCTYPE svg PUBLIC "-//W3C//DTD SVG 1.1//EN" "http://www.w3.org/Graphics/SVG/1.1/DTD/svg11.dtd">
<svg version="1.1" id="icone" xmlns="http://www.w3.org/2000/svg" xmlns:xlink="http://www.w3.org/1999/xlink" x="0px" y="0px"
	 width="16px" height="16px" viewBox="0 0 16 16" enable-background="new 0 0 16 16" xml:space="preserve">
<path fill="#231F20" d="M14.116,5.419L16,0l-0.77,0.183c-0.285,0.067-0.46,0.218-0.569,0.49l-1.346,3.941l-0.962-0.968
	c-0.195-0.195-0.512-0.195-0.707,0L8.953,6.34L5.3,3.6C5.186,3.514,5.041,3.48,4.902,3.51l-4.193,0.85
	C0.536,4.44,0.404,4.566,0.323,4.768L0,5.5l4.879-0.966L8.7,7.4c0.198,0.147,0.477,0.128,0.653-0.047L12,4.707l0.957,0.957
	l-1.352,3.961l-3.469,1.789L4.392,6.689C4.296,6.569,4.151,6.5,4,6.5c-0.021,0-0.042,0.001-0.063,0.004
	C3.764,6.526,3.614,6.637,3.543,6.797c0,0-3.531,9.141-3.543,9.203h0.649c0.257-0.062,0.416-0.205,0.525-0.429l0.373-0.965
	l0.002-0.005l2.572-6.644l3.486,4.399C7.706,12.48,7.852,12.547,8,12.547c0.077,0,0.156-0.018,0.229-0.056l4-2.062
	c0.107-0.055,0.19-0.146,0.235-0.259l1.29-3.709l2.083,2.083l0.133-0.796c0.041-0.24-0.008-0.438-0.146-0.611L14.116,5.419z"/>
</svg>
