<?xml version="1.0" encoding="iso-8859-1"?>
<!-- Generator: Adobe Illustrator 16.0.0, SVG Export Plug-In . SVG Version: 6.00 Build 0)  -->
<!DOCTYPE svg PUBLIC "-//W3C//DTD SVG 1.1//EN" "http://www.w3.org/Graphics/SVG/1.1/DTD/svg11.dtd">
<svg version="1.1" id="Layer" xmlns="http://www.w3.org/2000/svg" xmlns:xlink="http://www.w3.org/1999/xlink" x="0px" y="0px"
	 width="24px" height="24px" viewBox="0 0 24 24" style="enable-background:new 0 0 24 24;" xml:space="preserve">
<path d="M12,1C5.925,1,1,5.926,1,12s4.925,11,11,11s11-4.926,11-11S18.075,1,12,1z M12,21.625c-5.307,0-9.625-4.318-9.625-9.625
	S6.693,2.375,12,2.375S21.625,6.693,21.625,12S17.307,21.625,12,21.625z M11.212,17.805v-2.352c0-0.197-0.161-0.358-0.358-0.358
	H8.345v-1.411h2.509c0.197,0,0.358-0.161,0.358-0.358v-0.343c0-0.197-0.161-0.358-0.358-0.358H8.345v-1.413h1.387
	c0.134,0,0.256-0.076,0.318-0.195c0.062-0.118,0.051-0.263-0.027-0.372l-3.18-4.448H9.03l2.656,4.414
	c0.066,0.107,0.183,0.173,0.308,0.173c0.001,0,0.003,0,0.004,0c0.128-0.001,0.243-0.07,0.308-0.179
	c0.724-1.261,2.23-3.705,2.628-4.348l0.036-0.061h2.188l-3.18,4.448c-0.078,0.109-0.089,0.254-0.027,0.372
	c0.061,0.119,0.184,0.195,0.318,0.195h1.387v1.413h-2.509c-0.197,0-0.358,0.161-0.358,0.358v0.343c0,0.197,0.161,0.358,0.358,0.358
	h2.509v1.411h-2.509c-0.197,0-0.358,0.161-0.358,0.358v2.352H11.212z"/>
</svg>
