<?xml version="1.0" encoding="iso-8859-1"?>
<!-- Generator: Adobe Illustrator 16.0.0, SVG Export Plug-In . SVG Version: 6.00 Build 0)  -->
<!DOCTYPE svg PUBLIC "-//W3C//DTD SVG 1.1//EN" "http://www.w3.org/Graphics/SVG/1.1/DTD/svg11.dtd">
<svg version="1.1" id="Layer" xmlns="http://www.w3.org/2000/svg" xmlns:xlink="http://www.w3.org/1999/xlink" x="0px" y="0px"
	 width="16px" height="16px" viewBox="0 0 16 16" style="enable-background:new 0 0 16 16;" xml:space="preserve">
<path d="M8,0C3.582,0,0,3.582,0,8s3.582,8,8,8s8-3.582,8-8S12.418,0,8,0z M8,15c-3.86,0-7-3.141-7-7s3.14-7,7-7s7,3.141,7,7
	S11.86,15,8,15z M7.427,12.222v-1.71c0-0.144-0.117-0.261-0.261-0.261H5.342V9.225h1.824c0.144,0,0.261-0.117,0.261-0.261V8.715
	c0-0.144-0.117-0.261-0.261-0.261H5.342V7.426h1.009c0.098,0,0.187-0.055,0.231-0.142c0.045-0.086,0.037-0.191-0.02-0.271
	L4.25,3.778h1.59l1.932,3.21c0.048,0.078,0.133,0.126,0.224,0.126c0.001,0,0.002,0,0.003,0c0.093-0.001,0.177-0.051,0.224-0.13
	c0.526-0.917,1.622-2.694,1.911-3.162l0.026-0.044h1.591L9.438,7.014c-0.057,0.079-0.064,0.185-0.02,0.271
	c0.044,0.087,0.134,0.142,0.231,0.142h1.009v1.028H8.834c-0.144,0-0.261,0.117-0.261,0.261v0.249c0,0.144,0.117,0.261,0.261,0.261
	h1.824v1.026H8.834c-0.144,0-0.261,0.117-0.261,0.261v1.71H7.427z"/>
</svg>
