<?xml version="1.0" encoding="iso-8859-1"?>
<!-- Generator: Adobe Illustrator 16.0.0, SVG Export Plug-In . SVG Version: 6.00 Build 0)  -->
<!DOCTYPE svg PUBLIC "-//W3C//DTD SVG 1.1//EN" "http://www.w3.org/Graphics/SVG/1.1/DTD/svg11.dtd">
<svg version="1.1" id="Layer" xmlns="http://www.w3.org/2000/svg" xmlns:xlink="http://www.w3.org/1999/xlink" x="0px" y="0px"
	 width="16px" height="16px" viewBox="0 0 16 16" style="enable-background:new 0 0 16 16;" xml:space="preserve">
<path d="M8,0C3.582,0,0,3.582,0,8s3.582,8,8,8s8-3.582,8-8S12.418,0,8,0z M8,15c-3.86,0-7-3.141-7-7s3.14-7,7-7s7,3.141,7,7
	S11.86,15,8,15z M3.644,8.381h0.213c0,0-0.06-0.252-0.06-0.381s0.017-0.256,0.035-0.379L3.134,7.617l0.497-0.998h0.435
	C4.677,4.99,6.283,3.9,8.083,3.9c1.064,0,2.088,0.387,2.881,1.092l0.062,0.055l-0.6,0.982l-0.089-0.094
	c-0.57-0.594-1.412-0.947-2.254-0.947c-1.178,0-2.258,0.635-2.798,1.631h4.468L9.107,7.627H4.963C4.943,7.754,4.927,7.869,4.927,8
	c0,0.129,0.016,0.254,0.035,0.381h3.835L8.229,9.33L5.307,9.328c0.54,0.998,1.598,1.684,2.776,1.684
	c0.894,0,1.728-0.371,2.346-1.043l0.174-0.191v1.461C9.829,11.83,8.973,12.1,8.083,12.1c-1.8,0-3.365-1.141-3.976-2.771h-1
	L3.644,8.381z"/>
</svg>
