<?xml version="1.0" encoding="iso-8859-1"?>
<!-- Generator: Adobe Illustrator 16.0.0, SVG Export Plug-In . SVG Version: 6.00 Build 0)  -->
<!DOCTYPE svg PUBLIC "-//W3C//DTD SVG 1.1//EN" "http://www.w3.org/Graphics/SVG/1.1/DTD/svg11.dtd">
<svg version="1.1" id="Layer" xmlns="http://www.w3.org/2000/svg" xmlns:xlink="http://www.w3.org/1999/xlink" x="0px" y="0px"
	 width="24px" height="24px" viewBox="0 0 24 24" style="enable-background:new 0 0 24 24;" xml:space="preserve">
<path d="M12,1C5.925,1,1,5.926,1,12s4.925,11,11,11s11-4.926,11-11S18.075,1,12,1z M12,21.625c-5.307,0-9.625-4.318-9.625-9.625
	S6.693,2.375,12,2.375S21.625,6.693,21.625,12S17.307,21.625,12,21.625z M6.011,12.523h0.293c0,0-0.083-0.346-0.083-0.523
	s0.024-0.352,0.048-0.521L5.31,11.474l0.684-1.372h0.598c0.84-2.24,3.048-3.738,5.523-3.738c1.463,0,2.872,0.531,3.962,1.501
	l0.085,0.075L15.336,9.29l-0.122-0.129c-0.784-0.816-1.941-1.302-3.1-1.302c-1.62,0-3.104,0.872-3.847,2.242h6.144l-0.889,1.386
	H7.825C7.797,11.662,7.775,11.82,7.775,12c0,0.178,0.022,0.35,0.048,0.523h5.273l-0.781,1.306l-4.018-0.003
	c0.743,1.372,2.197,2.314,3.817,2.314c1.229,0,2.376-0.51,3.226-1.434l0.239-0.264v2.01c-1.064,0.813-2.241,1.184-3.465,1.184
	c-2.475,0-4.626-1.568-5.467-3.811H5.272L6.011,12.523z"/>
</svg>
