<?xml version="1.0" encoding="iso-8859-1"?>
<!-- Generator: Adobe Illustrator 16.0.0, SVG Export Plug-In . SVG Version: 6.00 Build 0)  -->
<!DOCTYPE svg PUBLIC "-//W3C//DTD SVG 1.1//EN" "http://www.w3.org/Graphics/SVG/1.1/DTD/svg11.dtd">
<svg version="1.1" id="Layer" xmlns="http://www.w3.org/2000/svg" xmlns:xlink="http://www.w3.org/1999/xlink" x="0px" y="0px"
	 width="16px" height="16px" viewBox="0 0 16 16" style="enable-background:new 0 0 16 16;" xml:space="preserve">
<path d="M6.693,9.391c0-0.234,0-0.428-0.016-0.625C6.666,8.627,6.549,8.52,6.409,8.52H5.253V7.453h0.875
	c0.075,0,0.147-0.031,0.198-0.086c0.05-0.057,0.076-0.131,0.069-0.205c-0.02-0.238-0.02-0.479-0.019-0.758l0-0.141
	c0-1.541,1.128-2.617,2.744-2.617c0.866,0,1.365,0.207,1.586,0.332L10.747,4l-0.32,0.963l-0.055-0.027
	c-0.119-0.059-0.564-0.252-1.303-0.252c-1.006,0-1.631,0.605-1.631,1.578c0,0.43,0.009,0.682,0.052,0.963
	c0.02,0.131,0.133,0.229,0.266,0.229H8L8.533,7.48c0.234,0.028,0.418,0.113,0.568,0.328L9.599,8.52H8.065
	c-0.074,0-0.145,0.031-0.195,0.086C7.818,8.658,7.792,8.73,7.797,8.805c0.02,0.316,0.016,0.586-0.062,1.107
	c-0.05,0.342-0.183,0.664-0.396,0.955c-0.06,0.082-0.069,0.189-0.023,0.279s0.139,0.148,0.24,0.148l1.742-0.004l0.351,0.018
	c0.234,0.028,0.418,0.113,0.568,0.328l0.488,0.697v0.02H5.649v-1.035l0.098-0.094C6.474,10.523,6.693,10.311,6.693,9.391z M16,8
	c0,4.418-3.582,8-8,8s-8-3.582-8-8s3.582-8,8-8S16,3.582,16,8z M15,8c0-3.859-3.14-7-7-7S1,4.141,1,8s3.14,7,7,7S15,11.859,15,8z"/>
</svg>
