<?xml version="1.0" encoding="iso-8859-1"?>
<!-- Generator: Adobe Illustrator 16.0.0, SVG Export Plug-In . SVG Version: 6.00 Build 0)  -->
<!DOCTYPE svg PUBLIC "-//W3C//DTD SVG 1.1//EN" "http://www.w3.org/Graphics/SVG/1.1/DTD/svg11.dtd">
<svg version="1.1" id="Layer" xmlns="http://www.w3.org/2000/svg" xmlns:xlink="http://www.w3.org/1999/xlink" x="0px" y="0px"
	 width="24px" height="24px" viewBox="0 0 24 24" style="enable-background:new 0 0 24 24;" xml:space="preserve">
<path d="M10.203,13.912c0-0.322,0-0.588-0.022-0.859c-0.016-0.19-0.176-0.338-0.369-0.338H8.223v-1.467h1.203
	c0.104,0,0.202-0.043,0.272-0.118c0.069-0.078,0.104-0.18,0.096-0.282c-0.027-0.327-0.027-0.658-0.026-1.042l0.001-0.193
	c0-2.118,1.551-3.599,3.772-3.599c1.191,0,1.877,0.285,2.181,0.457L15.777,6.5l-0.44,1.324l-0.076-0.038
	c-0.164-0.08-0.776-0.347-1.792-0.347c-1.384,0-2.243,0.833-2.243,2.17c0,0.592,0.013,0.938,0.072,1.324
	c0.027,0.18,0.183,0.314,0.365,0.314H12l0.733,0.037c0.322,0.04,0.575,0.156,0.781,0.451l0.684,0.979h-2.109
	c-0.102,0-0.199,0.043-0.269,0.117c-0.071,0.073-0.106,0.172-0.1,0.274c0.027,0.435,0.021,0.806-0.085,1.522
	c-0.069,0.471-0.252,0.913-0.545,1.313c-0.082,0.113-0.094,0.261-0.032,0.384c0.063,0.124,0.191,0.204,0.33,0.204l2.396-0.005
	l0.483,0.024c0.322,0.039,0.575,0.155,0.781,0.451l0.671,0.958v0.027H8.768v-1.424l0.135-0.129
	C9.902,15.47,10.203,15.177,10.203,13.912z M23,12c0,6.075-4.924,11-11,11S1,18.075,1,12C1,5.926,5.924,1,12,1S23,5.926,23,12z
	 M21.625,12c0-5.307-4.317-9.625-9.625-9.625S2.375,6.693,2.375,12S6.692,21.625,12,21.625S21.625,17.307,21.625,12z"/>
</svg>
