<?xml version="1.0" encoding="utf-8"?>
<!-- Generator: Adobe Illustrator 24.0.0, SVG Export Plug-In . SVG Version: 6.00 Build 0)  -->
<svg version="1.1" xmlns="http://www.w3.org/2000/svg" xmlns:xlink="http://www.w3.org/1999/xlink" x="0px" y="0px"
	 viewBox="0 0 24 24" enable-background="new 0 0 24 24" xml:space="preserve">
<g id="Layer">
	<path d="M12,1C5.924,1,1,5.926,1,12c0,6.075,4.924,11,11,11c6.076,0,11-4.925,11-11C23,5.926,18.076,1,12,1z M12,21.625
		c-5.308,0-9.625-4.318-9.625-9.625S6.692,2.375,12,2.375c5.308,0,9.625,4.318,9.625,9.625S17.308,21.625,12,21.625z"/>
	<path display="none" fill="#231F20" d="M13.825,17.465c-0.239-0.167-0.356-0.391-0.356-0.683l0-0.879
		c0-0.854-0.659-1.548-1.468-1.548H7.829c-0.81,0-1.468,0.694-1.468,1.548v0.926c-0.02,0.286-0.133,0.488-0.347,0.637l-0.888,0.609
		v-2.172c0-1.534,1.213-2.782,2.704-2.782H12c1.491,0,2.704,1.248,2.704,2.782v2.179L13.825,17.465z"/>
	<path display="none" fill="#231F20" d="M9.915,12.27c-1.683,0-3.051-1.369-3.051-3.052c0-1.682,1.369-3.05,3.051-3.05
		c1.683,0,3.051,1.368,3.051,3.05C12.966,10.9,11.597,12.27,9.915,12.27z M9.915,7.402c-1.001,0-1.816,0.814-1.816,1.815
		c0,1.002,0.814,1.817,1.816,1.817c1.001,0,1.816-0.815,1.816-1.817C11.731,8.217,10.916,7.402,9.915,7.402z"/>
	<path display="none" fill="#231F20" d="M15.898,17.468c-0.199-0.139-0.309-0.325-0.341-0.572l-0.002-0.992
		c0-0.461-0.241-0.927-0.645-1.245c-0.171-0.149-0.261-0.329-0.279-0.542L14.551,13.2l0.35,0.066
		c0.144,0.027,0.307,0.114,0.539,0.243c0.858,0.481,1.35,1.354,1.35,2.394v2.167L15.898,17.468z"/>
	<path display="none" fill="#231F20" d="M12.499,11.831l0.081-0.535c0.03-0.199,0.122-0.361,0.278-0.493
		c0.615-0.355,0.958-0.938,0.958-1.585c0-0.603-0.331-1.161-0.909-1.531c-0.196-0.149-0.3-0.336-0.326-0.568l-0.106-0.96
		l0.415,0.153l0.099,0.041c1.311,0.545,2.062,1.589,2.062,2.865c0,1.304-0.842,2.458-2.094,2.873l-0.097,0.036l-0.404,0.116
		L12.499,11.831z"/>
	<path display="none" fill="#231F20" d="M17.982,17.468c-0.2-0.139-0.31-0.326-0.341-0.573l-0.002-0.991
		c0-0.461-0.241-0.926-0.646-1.245c-0.17-0.148-0.261-0.328-0.279-0.542L16.636,13.2l0.35,0.066
		c0.145,0.027,0.315,0.118,0.539,0.244c0.858,0.48,1.35,1.353,1.35,2.393v2.167L17.982,17.468z"/>
	<path display="none" fill="#231F20" d="M14.584,11.831l0.081-0.535c0.03-0.199,0.121-0.36,0.278-0.493
		c0.616-0.355,0.959-0.938,0.959-1.585c0-0.603-0.331-1.161-0.909-1.531c-0.196-0.149-0.3-0.336-0.326-0.568l-0.106-0.96
		l0.415,0.153l0.099,0.041c1.311,0.545,2.062,1.589,2.062,2.865c0,1.304-0.842,2.458-2.095,2.873l-0.019,0.007l-0.024,0.025
		l-0.091,0.012l-0.411,0.127L14.584,11.831z"/>
</g>
<g id="Layer_2">
	<path d="M16.289,11.657c-0.171-0.075-0.351-0.13-0.543-0.2c0.041-0.032,0.061-0.053,0.086-0.066
		c1.263-0.67,1.231-2.452,0.593-3.275c-0.492-0.636-1.196-0.875-1.943-1.026c-0.287-0.058-0.579-0.091-0.875-0.137
		c-0.001-0.731-0.002-1.445-0.003-2.172c-0.457,0-0.892,0.001-1.34,0.001C12.263,5.506,12.261,6.2,12.26,6.906
		c-0.361,0.005-0.698,0.01-1.045,0.014C11.214,6.2,11.214,5.496,11.213,4.78c-0.455,0.001-0.891,0.002-1.34,0.003
		C9.871,5.525,9.869,6.241,9.867,6.971c-0.462,0-0.896,0-1.33-0.001c-0.438,0-0.877-0.001-1.348-0.001
		C7.189,7.455,7.188,7.92,7.188,8.393C7.556,8.398,7.914,8.392,8.27,8.412c0.397,0.022,0.652,0.295,0.652,0.659
		c-0.003,1.923-0.005,3.847-0.006,5.77c0,0.386-0.173,0.564-0.557,0.565c-0.295,0.001-0.59-0.001-0.905-0.002
		c-0.089,0.532-0.177,1.055-0.268,1.6C7.653,17.003,8.096,17,8.539,17.001c0.441,0.001,0.883,0.007,1.329,0.011
		c0.001,0.749,0.001,1.472,0.002,2.209c0.458,0,0.891,0,1.34-0.001c0.001-0.732,0.002-1.455,0.003-2.184
		c0.358,0.004,0.695,0.007,1.047,0.011c0.001,0.73,0.001,1.443,0.002,2.174c0.458,0,0.895,0,1.341,0c0-0.377,0-0.739,0.001-1.1
		c0.001-0.361,0.002-0.723,0.003-1.087c0.434-0.054,0.851-0.094,1.264-0.161c0.683-0.11,1.332-0.321,1.865-0.785
		c0.65-0.566,0.849-1.325,0.886-2.149C17.671,12.83,17.233,12.072,16.289,11.657z M14.958,14.021
		c-0.033,0.516-0.375,0.924-0.916,1.113c-0.895,0.313-1.821,0.293-2.748,0.272c-0.013,0-0.026-0.008-0.052-0.017
		c0.001-0.963,0.001-1.916,0.002-2.891c1.001-0.009,1.998-0.098,2.941,0.314C14.723,13.047,14.991,13.49,14.958,14.021z
		 M14.343,9.841c-0.005,0.485-0.293,0.868-0.798,1.063c-0.742,0.286-1.516,0.247-2.301,0.238c0-0.885,0-1.756,0.001-2.64
		c0.801-0.01,1.59-0.077,2.342,0.234C14.094,8.945,14.349,9.324,14.343,9.841z"/>
</g>
</svg>
