<?xml version="1.0" encoding="iso-8859-1"?>
<!-- Generator: Adobe Illustrator 16.0.0, SVG Export Plug-In . SVG Version: 6.00 Build 0)  -->
<!DOCTYPE svg PUBLIC "-//W3C//DTD SVG 1.1//EN" "http://www.w3.org/Graphics/SVG/1.1/DTD/svg11.dtd">
<svg version="1.1" id="Layer" xmlns="http://www.w3.org/2000/svg" xmlns:xlink="http://www.w3.org/1999/xlink" x="0px" y="0px"
	 width="16px" height="16px" viewBox="0 0 16 16" style="enable-background:new 0 0 16 16;" xml:space="preserve">
<path d="M10.829,10.01c0,0.74-0.276,1.299-0.824,1.679c-0.294,0.203-0.66,0.349-1.087,0.443c-0.193,0.243-0.422,0.366-0.746,0.368
	l-0.956-0.002l0.175-0.251c-0.573-0.014-1.058-0.063-1.401-0.166c-0.4-0.116-0.674-0.207-0.818-0.267
	c0.22-0.625,0.813-0.968,1.465-0.851c0.389,0.073,0.616,0.078,1.012,0.078c0.587,0,1.025-0.078,1.307-0.23
	c0.284-0.155,0.425-0.402,0.425-0.74c0-0.349-0.14-0.628-0.417-0.833C8.687,9.034,8.229,8.802,7.593,8.544
	c-0.31-0.123-0.604-0.247-0.888-0.378C6.423,8.038,6.18,7.888,5.973,7.713C5.768,7.537,5.604,7.326,5.481,7.082
	C5.356,6.833,5.294,6.531,5.294,6.171c0-0.708,0.262-1.272,0.786-1.687C6.414,4.219,6.832,4.048,7.32,3.953l0.024-0.035
	c0.203-0.289,0.448-0.416,0.8-0.418L9.1,3.502L8.826,3.893c0.025,0.004,0.05,0.002,0.075,0.005C9.126,3.921,9.34,3.953,9.533,3.99
	c0.196,0.036,0.369,0.073,0.516,0.115c0.151,0.041,0.265,0.077,0.35,0.107C10.155,4.838,9.591,5.18,8.922,5.1
	C8.653,5.065,8.5,5.059,8.228,5.059c-0.4,0-0.754,0.082-1.054,0.242c-0.298,0.16-0.447,0.408-0.447,0.747
	c0,0.174,0.034,0.328,0.102,0.464c0.066,0.134,0.169,0.254,0.307,0.361c0.141,0.107,0.313,0.209,0.518,0.3
	c0.206,0.091,0.452,0.19,0.741,0.293C8.774,7.611,9.113,7.753,9.41,7.889c0.3,0.14,0.551,0.303,0.764,0.486
	c0.211,0.186,0.374,0.409,0.485,0.672C10.772,9.308,10.829,9.628,10.829,10.01z M8,0C3.582,0,0,3.582,0,8s3.582,8,8,8s8-3.582,8-8
	S12.418,0,8,0z M8,15c-3.86,0-7-3.141-7-7s3.14-7,7-7s7,3.141,7,7S11.86,15,8,15z"/>
</svg>
