<?xml version="1.0" encoding="iso-8859-1"?>
<!-- Generator: Adobe Illustrator 16.0.0, SVG Export Plug-In . SVG Version: 6.00 Build 0)  -->
<!DOCTYPE svg PUBLIC "-//W3C//DTD SVG 1.1//EN" "http://www.w3.org/Graphics/SVG/1.1/DTD/svg11.dtd">
<svg version="1.1" id="Layer" xmlns="http://www.w3.org/2000/svg" xmlns:xlink="http://www.w3.org/1999/xlink" x="0px" y="0px"
	 width="24px" height="24px" viewBox="0 0 24 24" style="enable-background:new 0 0 24 24;" xml:space="preserve">
<path d="M15.889,14.764c0,1.018-0.379,1.785-1.132,2.308c-0.405,0.279-0.908,0.479-1.495,0.61c-0.266,0.334-0.58,0.503-1.026,0.506
	l-1.314-0.003l0.24-0.345c-0.788-0.019-1.454-0.088-1.927-0.229c-0.551-0.16-0.927-0.284-1.125-0.366
	c0.302-0.859,1.118-1.331,2.015-1.17c0.535,0.101,0.847,0.107,1.391,0.107c0.807,0,1.41-0.107,1.797-0.316
	c0.39-0.214,0.584-0.554,0.584-1.019c0-0.479-0.193-0.863-0.573-1.145c-0.38-0.281-1.009-0.601-1.885-0.955
	c-0.425-0.169-0.831-0.34-1.22-0.52c-0.388-0.176-0.723-0.383-1.007-0.623c-0.281-0.242-0.507-0.532-0.676-0.867
	C8.364,10.396,8.28,9.98,8.28,9.485c0-0.974,0.361-1.75,1.081-2.319c0.458-0.365,1.033-0.601,1.704-0.73l0.033-0.049
	c0.279-0.396,0.616-0.571,1.1-0.574l1.314,0.003l-0.376,0.537c0.035,0.005,0.069,0.003,0.104,0.007
	c0.31,0.032,0.603,0.076,0.869,0.127c0.27,0.05,0.507,0.101,0.709,0.158c0.208,0.057,0.364,0.106,0.48,0.148
	c-0.334,0.859-1.11,1.329-2.03,1.219c-0.369-0.047-0.58-0.057-0.954-0.057c-0.55,0-1.037,0.113-1.449,0.334
	c-0.41,0.22-0.614,0.561-0.614,1.026c0,0.239,0.046,0.451,0.14,0.638c0.091,0.185,0.232,0.35,0.421,0.497
	c0.193,0.147,0.431,0.288,0.712,0.412c0.283,0.125,0.621,0.263,1.019,0.403c0.521,0.2,0.988,0.395,1.396,0.581
	c0.413,0.192,0.758,0.417,1.05,0.669c0.29,0.255,0.513,0.562,0.667,0.924C15.812,13.798,15.889,14.238,15.889,14.764z M12,1
	C5.925,1,1,5.926,1,12s4.925,11,11,11s11-4.926,11-11S18.075,1,12,1z M12,21.625c-5.307,0-9.625-4.318-9.625-9.625
	S6.693,2.375,12,2.375S21.625,6.693,21.625,12S17.307,21.625,12,21.625z"/>
</svg>
