<?xml version="1.0" encoding="iso-8859-1"?>
<!-- Generator: Adobe Illustrator 16.0.0, SVG Export Plug-In . SVG Version: 6.00 Build 0)  -->
<!DOCTYPE svg PUBLIC "-//W3C//DTD SVG 1.1//EN" "http://www.w3.org/Graphics/SVG/1.1/DTD/svg11.dtd">
<svg version="1.1" id="Layer" xmlns="http://www.w3.org/2000/svg" xmlns:xlink="http://www.w3.org/1999/xlink" x="0px" y="0px"
	 width="24px" height="24px" viewBox="0 0 24 24" style="enable-background:new 0 0 24 24;" xml:space="preserve">
<path d="M14.265,14.792c0.156,0.356,0.238,0.797,0.241,1.322c0.008,1.018-0.366,1.788-1.116,2.316
	c-0.403,0.281-0.904,0.484-1.49,0.619c-0.264,0.337-0.577,0.507-1.022,0.514l-1.314,0.006l0.238-0.347
	c-0.789-0.014-1.455-0.076-1.928-0.215c-0.552-0.156-0.929-0.278-1.128-0.358c0.296-0.862,1.11-1.339,2.007-1.183
	c0.535,0.097,0.847,0.101,1.392,0.097c0.807-0.006,1.409-0.117,1.795-0.329c0.388-0.217,0.58-0.558,0.577-1.022
	c-0.003-0.479-0.198-0.861-0.581-1.141c-0.382-0.278-1.013-0.594-1.891-0.941c-0.427-0.167-0.833-0.335-1.225-0.512
	c-0.389-0.174-0.725-0.378-1.011-0.616c-0.284-0.239-0.511-0.528-0.683-0.862c-0.174-0.341-0.262-0.756-0.265-1.251
	C6.853,9.915,7.209,9.136,7.925,8.562c0.457-0.369,1.03-0.608,1.699-0.742l0.033-0.049c0.275-0.4,0.612-0.576,1.096-0.583
	l1.315-0.006l-0.372,0.539c0.035,0.006,0.068,0.003,0.104,0.007c0.309,0.029,0.603,0.072,0.869,0.121
	c0.27,0.048,0.508,0.098,0.71,0.154c0.208,0.054,0.364,0.104,0.481,0.144c-0.329,0.862-1.101,1.338-2.021,1.234
	c-0.37-0.046-0.581-0.053-0.956-0.051c-0.55,0.004-1.036,0.12-1.446,0.344c-0.408,0.223-0.61,0.564-0.607,1.031
	c0.002,0.238,0.049,0.451,0.145,0.636c0.093,0.185,0.235,0.348,0.425,0.494c0.195,0.146,0.433,0.285,0.714,0.407
	c0.285,0.123,0.624,0.258,1.022,0.396c0.522,0.198,0.991,0.389,1.4,0.572c0.414,0.189,0.761,0.411,1.055,0.662
	C13.882,14.126,14.107,14.432,14.265,14.792z M18.671,18.654c-1.708,2.598-4.638,4.321-7.979,4.346
	C5.377,23.036,1.037,18.755,1,13.442c-0.023-3.381,1.704-6.363,4.331-8.099C7.039,2.747,9.968,1.024,13.309,1
	c5.314-0.036,9.654,4.245,9.691,9.558C23.023,13.938,21.296,16.919,18.671,18.654z M18.902,13.312
	c-0.032-4.538-3.759-8.202-8.307-8.172c-4.548,0.032-8.224,3.748-8.192,8.286c0.031,4.537,3.758,8.203,8.306,8.172
	C15.257,21.565,18.933,17.849,18.902,13.312z M20.25,13.308c0.005,0.771-0.09,1.519-0.257,2.238c1.047-1.39,1.671-3.115,1.659-4.984
	c-0.032-4.538-3.759-8.202-8.307-8.172C11.55,2.402,9.897,2.995,8.548,3.979c0.648-0.143,1.32-0.223,2.01-0.229
	C15.873,3.714,20.213,7.994,20.25,13.308z"/>
</svg>
