<?xml version="1.0" encoding="utf-8"?>
<!-- Generator: Adobe Illustrator 16.0.0, SVG Export Plug-In . SVG Version: 6.00 Build 0)  -->
<!DOCTYPE svg PUBLIC "-//W3C//DTD SVG 1.1//EN" "http://www.w3.org/Graphics/SVG/1.1/DTD/svg11.dtd">
<svg version="1.1" id="Layer" xmlns="http://www.w3.org/2000/svg" xmlns:xlink="http://www.w3.org/1999/xlink" x="0px" y="0px"
	 width="24px" height="24px" viewBox="0 0 24 24" enable-background="new 0 0 24 24" xml:space="preserve">
<path d="M14.266,14.779c0.156,0.355,0.238,0.796,0.241,1.321c0.008,1.017-0.366,1.786-1.116,2.314
	c-0.403,0.281-0.904,0.483-1.489,0.618c-0.264,0.337-0.577,0.507-1.022,0.514l-1.314,0.006l0.238-0.347
	c-0.789-0.014-1.455-0.076-1.928-0.215c-0.552-0.156-0.928-0.277-1.127-0.357c0.296-0.862,1.109-1.338,2.007-1.182
	c0.535,0.096,0.847,0.1,1.392,0.096c0.807-0.006,1.409-0.116,1.795-0.328c0.387-0.217,0.579-0.558,0.576-1.021
	c-0.003-0.479-0.198-0.861-0.581-1.141c-0.382-0.277-1.013-0.593-1.891-0.939c-0.427-0.167-0.833-0.334-1.225-0.511
	c-0.389-0.174-0.725-0.378-1.011-0.616c-0.283-0.239-0.511-0.527-0.683-0.861c-0.174-0.341-0.262-0.755-0.265-1.25
	C6.855,9.907,7.211,9.128,7.926,8.556c0.457-0.369,1.03-0.608,1.699-0.742l0.033-0.049c0.275-0.399,0.612-0.575,1.096-0.582
	l1.314-0.006l-0.372,0.539c0.035,0.006,0.068,0.003,0.104,0.007c0.308,0.028,0.602,0.071,0.869,0.12
	c0.27,0.048,0.508,0.098,0.71,0.154c0.208,0.054,0.364,0.104,0.481,0.144c-0.329,0.861-1.101,1.337-2.021,1.233
	c-0.37-0.046-0.581-0.053-0.956-0.051c-0.55,0.004-1.037,0.12-1.446,0.344c-0.408,0.223-0.61,0.563-0.607,1.03
	c0.002,0.238,0.049,0.451,0.145,0.636C9.068,11.517,9.21,11.68,9.4,11.826c0.195,0.146,0.433,0.285,0.714,0.407
	c0.285,0.123,0.624,0.258,1.022,0.395c0.522,0.198,0.99,0.389,1.4,0.572c0.414,0.189,0.761,0.411,1.055,0.661
	C13.883,14.114,14.108,14.419,14.266,14.779z M10.61,3.78C5.303,3.78,1,8.082,1,13.391C1,18.698,5.303,23,10.61,23
	s9.61-4.302,9.61-9.609C20.22,8.082,15.917,3.78,10.61,3.78z M10.61,21.605c-4.536,0-8.215-3.679-8.215-8.215
	c0-4.537,3.679-8.215,8.215-8.215s8.215,3.678,8.215,8.215C18.825,17.927,15.146,21.605,10.61,21.605z M13.39,1
	c-1.309,0-2.548,0.275-3.684,0.75C9.42,1.839,9.21,2.094,9.21,2.408c0,0.388,0.313,0.698,0.7,0.698c0.099,0,0.192-0.021,0.277-0.058
	l0.001,0.002c0.983-0.42,2.064-0.655,3.202-0.655c4.536,0,8.215,3.678,8.215,8.215c0,1.179-0.254,2.297-0.704,3.309
	c0,0-0.051,0.187-0.051,0.287c0,0.385,0.311,0.694,0.695,0.694c0.312,0,0.567-0.21,0.654-0.494c0.505-1.165,0.8-2.443,0.8-3.796
	C23,5.303,18.697,1,13.39,1z"/>
</svg>
