<?xml version="1.0" encoding="utf-8"?>
<!-- Generator: Adobe Illustrator 16.0.0, SVG Export Plug-In . SVG Version: 6.00 Build 0)  -->
<!DOCTYPE svg PUBLIC "-//W3C//DTD SVG 1.1//EN" "http://www.w3.org/Graphics/SVG/1.1/DTD/svg11.dtd">
<svg version="1.1" id="Layer" xmlns="http://www.w3.org/2000/svg" xmlns:xlink="http://www.w3.org/1999/xlink" x="0px" y="0px"
	 width="16px" height="16px" viewBox="0 0 16 16" enable-background="new 0 0 16 16" xml:space="preserve">
<path d="M9.647,10.03c0.114,0.26,0.173,0.58,0.175,0.962c0.005,0.74-0.266,1.301-0.812,1.685c-0.293,0.205-0.658,0.353-1.083,0.45
	c-0.192,0.245-0.419,0.369-0.744,0.374l-0.956,0.004L6.4,13.253c-0.573-0.01-1.058-0.056-1.402-0.156
	c-0.401-0.113-0.675-0.202-0.82-0.261c0.215-0.627,0.807-0.974,1.46-0.86c0.389,0.07,0.616,0.073,1.012,0.07
	c0.587-0.004,1.025-0.085,1.305-0.239c0.282-0.157,0.422-0.405,0.419-0.743c-0.002-0.349-0.144-0.627-0.422-0.83
	c-0.278-0.202-0.737-0.432-1.375-0.685C6.267,9.428,5.971,9.306,5.687,9.177C5.404,9.051,5.159,8.902,4.951,8.729
	C4.745,8.555,4.58,8.345,4.455,8.102c-0.126-0.248-0.19-0.55-0.193-0.91C4.257,6.483,4.516,5.917,5.036,5.5
	c0.332-0.269,0.749-0.442,1.236-0.54l0.024-0.035c0.2-0.291,0.445-0.419,0.797-0.424l0.956-0.005L7.778,4.889
	c0.025,0.004,0.05,0.002,0.075,0.005c0.225,0.021,0.438,0.053,0.632,0.088c0.196,0.035,0.37,0.071,0.517,0.112
	c0.151,0.039,0.265,0.075,0.35,0.104c-0.239,0.627-0.801,0.973-1.47,0.897C7.613,6.062,7.46,6.058,7.188,6.059
	c-0.4,0.003-0.753,0.088-1.052,0.25C5.839,6.471,5.692,6.72,5.694,7.059C5.696,7.232,5.73,7.387,5.799,7.521
	C5.867,7.655,5.97,7.774,6.108,7.881c0.142,0.106,0.315,0.207,0.52,0.296c0.207,0.09,0.454,0.188,0.743,0.288
	c0.38,0.144,0.721,0.282,1.019,0.416C8.69,9.019,8.943,9.18,9.157,9.362C9.369,9.546,9.533,9.769,9.647,10.03z M12.852,12.84
	C11.61,14.729,9.479,15.982,7.048,16C3.183,16.026,0.027,12.913,0,9.049c-0.017-2.459,1.239-4.628,3.149-5.89
	C4.392,1.271,6.522,0.018,8.952,0C12.817-0.026,15.973,3.087,16,6.951C16.017,9.41,14.761,11.577,12.852,12.84z M13.02,8.954
	c-0.023-3.301-2.734-5.966-6.042-5.943C3.67,3.034,0.997,5.736,1.02,9.037c0.022,3.3,2.733,5.966,6.041,5.943
	C10.369,14.957,13.042,12.254,13.02,8.954z M14,8.951c0.004,0.561-0.065,1.104-0.187,1.628c0.762-1.011,1.215-2.266,1.206-3.625
	c-0.023-3.301-2.734-5.966-6.042-5.943C7.673,1.02,6.471,1.451,5.49,2.166C5.961,2.062,6.45,2.004,6.952,2
	C10.817,1.974,13.973,5.087,14,8.951z"/>
</svg>
