<?xml version="1.0" encoding="iso-8859-1"?>
<!-- Generator: Adobe Illustrator 16.0.0, SVG Export Plug-In . SVG Version: 6.00 Build 0)  -->
<!DOCTYPE svg PUBLIC "-//W3C//DTD SVG 1.1//EN" "http://www.w3.org/Graphics/SVG/1.1/DTD/svg11.dtd">
<svg version="1.1" id="Layer" xmlns="http://www.w3.org/2000/svg" xmlns:xlink="http://www.w3.org/1999/xlink" x="0px" y="0px"
	 width="16px" height="16px" viewBox="0 0 16 16" style="enable-background:new 0 0 16 16;" xml:space="preserve">
<path style="fill:#231F20;" d="M15,4H1C0.448,4,0,4.447,0,5v6c0,0.553,0.448,1,1,1h14c0.552,0,1-0.447,1-1V5C16,4.447,15.552,4,15,4
	z M15,11H1V5h14V11z M9.54,9.095c0,0.402-0.15,0.707-0.448,0.913c-0.161,0.111-0.359,0.19-0.592,0.242
	c-0.105,0.132-0.23,0.199-0.407,0.2l-0.521-0.001l0.095-0.137c-0.312-0.008-0.576-0.034-0.763-0.09
	c-0.218-0.064-0.367-0.113-0.445-0.146c0.12-0.34,0.442-0.527,0.798-0.464c0.212,0.04,0.335,0.043,0.551,0.043
	c0.319,0,0.558-0.043,0.711-0.126c0.154-0.084,0.231-0.219,0.231-0.402c0-0.19-0.076-0.342-0.227-0.453
	c-0.15-0.112-0.399-0.238-0.746-0.379C7.61,8.229,7.449,8.161,7.295,8.091C7.141,8.021,7.009,7.938,6.896,7.844
	C6.785,7.748,6.695,7.633,6.628,7.5C6.561,7.364,6.527,7.2,6.527,7.004c0-0.386,0.143-0.693,0.428-0.918
	c0.181-0.145,0.409-0.237,0.674-0.29l0.013-0.019C7.753,5.62,7.887,5.551,8.078,5.55l0.521,0.001L8.45,5.764
	c0.014,0.002,0.027,0.001,0.041,0.002c0.123,0.014,0.239,0.03,0.344,0.051c0.106,0.02,0.201,0.04,0.281,0.063
	c0.082,0.021,0.144,0.041,0.19,0.058C9.174,6.278,8.866,6.464,8.502,6.421c-0.146-0.019-0.23-0.022-0.378-0.022
	c-0.218,0-0.411,0.045-0.574,0.132C7.388,6.617,7.307,6.753,7.307,6.937c0,0.095,0.019,0.179,0.055,0.253
	c0.036,0.073,0.092,0.138,0.167,0.196C7.606,7.445,7.7,7.5,7.812,7.55C7.923,7.6,8.058,7.653,8.215,7.709
	c0.207,0.079,0.391,0.156,0.553,0.23c0.163,0.076,0.3,0.165,0.416,0.265c0.115,0.101,0.203,0.223,0.264,0.365
	C9.509,8.712,9.54,8.887,9.54,9.095z"/>
</svg>
