<?xml version="1.0" encoding="iso-8859-1"?>
<!-- Generator: Adobe Illustrator 16.0.0, SVG Export Plug-In . SVG Version: 6.00 Build 0)  -->
<!DOCTYPE svg PUBLIC "-//W3C//DTD SVG 1.1//EN" "http://www.w3.org/Graphics/SVG/1.1/DTD/svg11.dtd">
<svg version="1.1" id="Layer" xmlns="http://www.w3.org/2000/svg" xmlns:xlink="http://www.w3.org/1999/xlink" x="0px" y="0px"
	 width="24px" height="24px" viewBox="0 0 24 24" style="enable-background:new 0 0 24 24;" xml:space="preserve">
<path style="fill:#231F20;" d="M21.625,6.5H2.375C1.615,6.5,1,7.117,1,7.875v8.25C1,16.883,1.615,17.5,2.375,17.5h19.25
	c0.76,0,1.375-0.617,1.375-1.375v-8.25C23,7.117,22.385,6.5,21.625,6.5z M21.625,16.125H2.375v-8.25h19.25V16.125z M14.117,13.505
	c0,0.555-0.206,0.971-0.615,1.253c-0.222,0.158-0.494,0.267-0.814,0.336c-0.146,0.179-0.315,0.275-0.559,0.276l-0.717-0.001
	l0.133-0.189c-0.429-0.008-0.792-0.046-1.05-0.125c-0.3-0.088-0.505-0.154-0.612-0.198c0.164-0.469,0.609-0.727,1.097-0.64
	c0.291,0.058,0.461,0.061,0.759,0.061c0.437,0,0.766-0.061,0.978-0.173c0.21-0.113,0.316-0.301,0.316-0.555
	c0-0.261-0.105-0.471-0.312-0.623c-0.206-0.153-0.549-0.326-1.024-0.52c-0.233-0.09-0.452-0.188-0.665-0.281
	c-0.212-0.099-0.395-0.211-0.548-0.341c-0.155-0.131-0.277-0.293-0.37-0.473c-0.091-0.188-0.14-0.411-0.14-0.684
	c0-0.526,0.198-0.951,0.589-1.258c0.249-0.203,0.564-0.331,0.929-0.401l0.016-0.024c0.151-0.216,0.338-0.314,0.6-0.315l0.717,0.001
	L12.62,8.926c0.017,0.002,0.036,0.001,0.056,0.002c0.167,0.02,0.327,0.042,0.473,0.068c0.145,0.031,0.277,0.058,0.386,0.087
	c0.111,0.033,0.197,0.059,0.26,0.081c-0.182,0.47-0.604,0.726-1.105,0.665c-0.199-0.024-0.315-0.028-0.519-0.028
	c-0.3,0-0.566,0.057-0.791,0.179c-0.221,0.122-0.334,0.305-0.334,0.559c0,0.13,0.027,0.243,0.076,0.347
	c0.051,0.103,0.127,0.19,0.231,0.272c0.106,0.077,0.235,0.155,0.388,0.223c0.153,0.067,0.337,0.145,0.556,0.218
	c0.283,0.108,0.538,0.215,0.758,0.318c0.225,0.105,0.415,0.229,0.574,0.364c0.156,0.142,0.279,0.305,0.361,0.5
	C14.075,12.981,14.117,13.221,14.117,13.505z"/>
</svg>
