<?xml version="1.0" encoding="iso-8859-1"?>
<!-- Generator: Adobe Illustrator 16.0.0, SVG Export Plug-In . SVG Version: 6.00 Build 0)  -->
<!DOCTYPE svg PUBLIC "-//W3C//DTD SVG 1.1//EN" "http://www.w3.org/Graphics/SVG/1.1/DTD/svg11.dtd">
<svg version="1.1" id="Layer" xmlns="http://www.w3.org/2000/svg" xmlns:xlink="http://www.w3.org/1999/xlink" x="0px" y="0px"
	 width="24px" height="24px" viewBox="0 0 24 24" style="enable-background:new 0 0 24 24;" xml:space="preserve">
<path style="fill:#231F20;" d="M12.303,14.679c0,0.466-0.174,0.824-0.522,1.063c-0.189,0.13-0.423,0.227-0.694,0.282
	c-0.122,0.16-0.269,0.234-0.475,0.235l-0.61-0.001l0.111-0.157c-0.366-0.013-0.672-0.041-0.893-0.106
	c-0.253-0.077-0.43-0.131-0.52-0.17c0.14-0.396,0.517-0.618,0.934-0.541c0.248,0.046,0.391,0.048,0.645,0.048
	c0.372,0,0.651-0.048,0.831-0.147c0.181-0.096,0.271-0.257,0.271-0.473c0-0.22-0.088-0.396-0.264-0.526
	c-0.178-0.129-0.469-0.278-0.875-0.444c-0.196-0.081-0.383-0.155-0.564-0.239c-0.181-0.082-0.334-0.177-0.468-0.292
	c-0.13-0.111-0.235-0.244-0.312-0.398c-0.079-0.162-0.119-0.354-0.119-0.58c0-0.451,0.168-0.812,0.502-1.074
	c0.21-0.17,0.477-0.278,0.788-0.34l0.017-0.023c0.129-0.186,0.284-0.263,0.508-0.263h0.61l-0.174,0.246
	c0.015,0.002,0.029,0.001,0.046,0.002c0.143,0.017,0.279,0.038,0.404,0.061c0.123,0.022,0.232,0.046,0.327,0.071
	c0.097,0.03,0.17,0.054,0.224,0.072c-0.157,0.396-0.515,0.612-0.942,0.564c-0.171-0.021-0.269-0.025-0.441-0.025
	c-0.255,0-0.481,0.05-0.669,0.153c-0.191,0.104-0.286,0.26-0.286,0.476c0,0.109,0.021,0.21,0.064,0.297
	c0.043,0.085,0.108,0.158,0.195,0.231c0.092,0.068,0.201,0.132,0.331,0.187c0.13,0.06,0.288,0.122,0.472,0.188
	c0.24,0.091,0.459,0.187,0.646,0.272c0.192,0.088,0.352,0.192,0.489,0.308c0.133,0.121,0.237,0.26,0.307,0.428
	C12.268,14.23,12.303,14.431,12.303,14.679z M21.625,5.812h-16.5c-0.76,0-1.375,0.617-1.375,1.375h17.875v8.25
	c0.76,0,1.375-0.617,1.375-1.375V7.188C23,6.43,22.385,5.812,21.625,5.812z M18.875,8.562h-16.5C1.615,8.562,1,9.18,1,9.938v6.875
	c0,0.758,0.615,1.375,1.375,1.375h16.5c0.76,0,1.375-0.617,1.375-1.375V9.938C20.25,9.18,19.635,8.562,18.875,8.562z M18.875,16.812
	h-16.5V9.938h16.5V16.812z"/>
</svg>
