<?xml version="1.0" encoding="utf-8"?>
<!-- Generator: Adobe Illustrator 27.4.1, SVG Export Plug-In . SVG Version: 6.00 Build 0)  -->
<svg version="1.1" id="Layer" xmlns="http://www.w3.org/2000/svg" xmlns:xlink="http://www.w3.org/1999/xlink" x="0px" y="0px"
	 viewBox="0 0 24 24" enable-background="new 0 0 24 24" xml:space="preserve">
<g>
	<path fill="#231F20" d="M22.912,13.814c-0.288-0.521-0.956-1.129-1.898-1.129c-0.337,0-0.691,0.076-1.052,0.238
		c-0.712,0.317-2.598,1.213-3.807,1.793c-0.275,0.182-0.688,0.512-0.738,0.857l-0.151,1.068c0.063-0.016,0.127-0.018,0.192-0.047
		c0,0,3.964-1.904,5.071-2.396c0.047-0.021,0.098-0.041,0.159-0.041c0.065,0,0.131,0.029,0.206,0.146l-6.833,5.008
		c-0.384,0.281-0.865,0.441-1.352,0.441c-0.116,0-0.232-0.012-0.345-0.023l-6.65-1.053c-0.166,0-0.327,0.053-0.456,0.156
		l-1.273,1.135c-0.309,0.265-0.427,0.566-0.385,0.972c0,0,0.129,1.115,0.168,1.08l2.194-1.898l6.18,0.988
		c0.192,0.027,0.385,0.045,0.578,0.045c0.774,0,1.546-0.254,2.172-0.709l7.83-5.732C23,14.499,23.081,14.124,22.912,13.814z"/>
	<path fill="#231F20" d="M8.349,14.824c0.324,0,0.63,0.043,0.901,0.127l3.232,1.17c-0.075,0.052-0.174,0.09-0.303,0.111
		c-0.436,0.066-1.018,0.105-1.729,0.105c-0.632,0-1.674-0.097-1.91-0.109l0.53,0.953c0.177,0.316,0.423,0.469,0.752,0.533
		c0.215,0.006,0.428,0.018,0.617,0.018c0.801,0,1.462-0.041,1.958-0.123c1.384-0.217,1.777-1.436,1.707-2.198
		c-0.03-0.291-0.224-0.529-0.496-0.613l-3.957-1.191c-0.397-0.124-0.831-0.186-1.291-0.186c-1.572,0-2.904,0.686-3.05,0.758
		l-4.29,2.596c-0.029,0.017-0.019,0.035-0.019,0.035l1.008,0.451c0.353,0.156,0.66,0.135,0.99-0.043l3.009-1.814
		C6.126,15.349,7.2,14.824,8.349,14.824z"/>
</g>
<path fill="#231F20" d="M12.264,9.647c0,0.408-0.152,0.716-0.454,0.924c-0.163,0.113-0.364,0.193-0.599,0.245
	c-0.106,0.135-0.232,0.202-0.411,0.203l-0.527-0.001l0.097-0.138c-0.317-0.008-0.583-0.035-0.773-0.092
	c-0.221-0.064-0.372-0.114-0.451-0.146c0.121-0.345,0.448-0.533,0.807-0.469c0.215,0.041,0.34,0.043,0.558,0.043
	c0.324,0,0.565-0.043,0.72-0.127c0.156-0.086,0.235-0.222,0.235-0.409c0-0.192-0.077-0.345-0.23-0.459
	c-0.152-0.112-0.404-0.24-0.755-0.382c-0.171-0.069-0.333-0.136-0.49-0.208c-0.156-0.07-0.29-0.155-0.404-0.25
	C9.474,8.284,9.384,8.168,9.316,8.033C9.247,7.896,9.213,7.73,9.213,7.531c0-0.39,0.145-0.702,0.434-0.929
	c0.184-0.146,0.414-0.24,0.682-0.293l0.013-0.021c0.112-0.158,0.247-0.229,0.441-0.229h0.527L11.16,6.275
	c0.014,0.002,0.027,0.001,0.041,0.002c0.125,0.013,0.242,0.031,0.348,0.051c0.108,0.02,0.203,0.041,0.284,0.064
	c0.084,0.022,0.146,0.043,0.193,0.058c-0.134,0.345-0.445,0.533-0.814,0.49c-0.148-0.019-0.232-0.023-0.382-0.023
	c-0.22,0-0.415,0.045-0.58,0.134c-0.164,0.088-0.246,0.225-0.246,0.412c0,0.095,0.019,0.18,0.055,0.256
	c0.037,0.073,0.094,0.139,0.17,0.199c0.078,0.06,0.173,0.115,0.286,0.166c0.113,0.05,0.249,0.103,0.408,0.16
	c0.209,0.08,0.397,0.159,0.56,0.233c0.166,0.077,0.304,0.166,0.421,0.268c0.116,0.102,0.206,0.225,0.267,0.369
	C12.232,9.261,12.264,9.436,12.264,9.647z M20.327,1.979H6.053c-0.657,0-1.19,0.532-1.19,1.19h15.464v7.137
	c0.657,0,1.19-0.532,1.19-1.19V3.169C21.517,2.511,20.984,1.979,20.327,1.979z M17.948,4.358H3.674c-0.657,0-1.19,0.532-1.19,1.19
	v5.948c0,0.657,0.533,1.19,1.19,1.19h14.274c0.657,0,1.19-0.532,1.19-1.19V5.548C19.138,4.891,18.605,4.358,17.948,4.358z
	 M17.948,11.496H3.674V5.548h14.274V11.496z"/>
</svg>
