<?xml version="1.0" encoding="iso-8859-1"?>
<!-- Generator: Adobe Illustrator 16.0.0, SVG Export Plug-In . SVG Version: 6.00 Build 0)  -->
<!DOCTYPE svg PUBLIC "-//W3C//DTD SVG 1.1//EN" "http://www.w3.org/Graphics/SVG/1.1/DTD/svg11.dtd">
<svg version="1.1" id="icone" xmlns="http://www.w3.org/2000/svg" xmlns:xlink="http://www.w3.org/1999/xlink" x="0px" y="0px"
	 width="24px" height="24px" viewBox="0 0 24 24" style="enable-background:new 0 0 24 24;" xml:space="preserve">
<path style="fill:#231F20;" d="M5.383,1C2.966,1,1,2.966,1,5.383s1.966,4.383,4.383,4.383S9.766,7.8,9.766,5.383S7.8,1,5.383,1z
	 M5.383,8.391c-1.66,0-3.008-1.346-3.008-3.008s1.348-3.008,3.008-3.008s3.008,1.346,3.008,3.008S7.043,8.391,5.383,8.391z
	 M18.617,14.234c-2.417,0-4.383,1.966-4.383,4.383S16.2,23,18.617,23S23,21.034,23,18.617S21.034,14.234,18.617,14.234z
	 M18.617,21.625c-1.661,0-3.008-1.346-3.008-3.008s1.347-3.008,3.008-3.008s3.008,1.346,3.008,3.008S20.278,21.625,18.617,21.625z
	 M21.888,2.949L21.426,3.46L2.002,22.885l-0.195-1.103c-0.059-0.332,0.031-0.577,0.219-0.817l0.462-0.511L21.912,1.029l0.195,1.103
	C22.166,2.464,22.075,2.709,21.888,2.949z"/>
</svg>
