<?xml version="1.0" encoding="iso-8859-1"?>
<!-- Generator: Adobe Illustrator 16.0.0, SVG Export Plug-In . SVG Version: 6.00 Build 0)  -->
<!DOCTYPE svg PUBLIC "-//W3C//DTD SVG 1.1//EN" "http://www.w3.org/Graphics/SVG/1.1/DTD/svg11.dtd">
<svg version="1.1" id="icone" xmlns="http://www.w3.org/2000/svg" xmlns:xlink="http://www.w3.org/1999/xlink" x="0px" y="0px"
	 width="16px" height="16px" viewBox="0 0 16 16" style="enable-background:new 0 0 16 16;" xml:space="preserve">
<path style="fill:#231F20;" d="M3.188,0C1.43,0,0,1.43,0,3.188s1.43,3.188,3.188,3.188s3.188-1.43,3.188-3.188S4.945,0,3.188,0z
	 M3.188,5.375C1.98,5.375,1,4.396,1,3.188S1.98,1,3.188,1s2.188,0.979,2.188,2.188S4.395,5.375,3.188,5.375z M12.812,9.625
	c-1.758,0-3.188,1.43-3.188,3.188S11.055,16,12.812,16S16,14.57,16,12.812S14.57,9.625,12.812,9.625z M12.812,15
	c-1.208,0-2.188-0.979-2.188-2.188s0.979-2.188,2.188-2.188S15,11.604,15,12.812S14.021,15,12.812,15z M15.191,1.418l-0.335,0.371
	L0.729,15.916l-0.142-0.802c-0.043-0.241,0.022-0.42,0.159-0.595l0.336-0.371L15.209,0.021l0.142,0.802
	C15.393,1.064,15.327,1.243,15.191,1.418z"/>
</svg>
