<?xml version="1.0" encoding="utf-8"?>
<!-- Generator: Adobe Illustrator 25.0.0, SVG Export Plug-In . SVG Version: 6.00 Build 0)  -->
<svg version="1.1" id="icone" xmlns="http://www.w3.org/2000/svg" xmlns:xlink="http://www.w3.org/1999/xlink" x="0px" y="0px"
	 viewBox="0 0 24 24" enable-background="new 0 0 24 24" xml:space="preserve">
<g>
	<path fill="#231F20" d="M9.609,2.413H2.404c-0.758,0-1.375,0.615-1.375,1.375v16.5c0,0.76,0.617,1.375,1.375,1.375h7.205
		c0.758,0,1.375-0.615,1.375-1.375v-16.5C10.984,3.027,10.366,2.413,9.609,2.413z M9.609,20.288H2.404v-16.5h7.205V20.288z"/>
	<polygon fill="#231F20" points="4.887,9.449 6.018,8.319 7.149,9.449 8.121,8.477 6.99,7.346 8.121,6.216 7.149,5.243 6.018,6.374 
		4.887,5.243 3.915,6.216 5.046,7.346 3.915,8.477 	"/>
	<path fill="#231F20" d="M21.556,2.337h-7.205c-0.758,0-1.375,0.615-1.375,1.375v16.5c0,0.76,0.617,1.375,1.375,1.375h7.205
		c0.758,0,1.375-0.615,1.375-1.375v-16.5C22.931,2.952,22.314,2.337,21.556,2.337z M21.556,20.212h-7.205v-16.5h7.205V20.212z"/>
	<polygon fill="#231F20" points="16.392,8.402 17.364,9.374 20.598,6.14 19.626,5.168 17.37,7.424 16.306,6.359 15.333,7.332 
		16.398,8.396 	"/>
</g>
</svg>
