<?xml version="1.0" encoding="utf-8"?>
<!-- Generator: Adobe Illustrator 25.2.3, SVG Export Plug-In . SVG Version: 6.00 Build 0)  -->
<svg version="1.1" id="Layer" xmlns="http://www.w3.org/2000/svg" xmlns:xlink="http://www.w3.org/1999/xlink" x="0px" y="0px"
	 viewBox="0 0 24 24" enable-background="new 0 0 24 24" xml:space="preserve">
<g>
	<path fill="#231F20" d="M19.819,5.037c0-0.562-0.354-1.063-0.892-1.274l-1.899-0.735l-3.953-1.535v0.005l-0.546-0.211
		c-0.172-0.065-0.351-0.101-0.53-0.101c-0.179,0-0.358,0.035-0.53,0.101l-0.546,0.211V1.492L6.972,3.027L5.073,3.762
		C4.536,3.973,4.182,4.475,4.182,5.037l-0.001,9.117v0.23l0.014,0.01c0.099,1.87,1.337,3.94,3.142,5.109v0.004l4.681,3.307
		l4.613-3.259v-0.023c0.031-0.02,0.056-0.047,0.087-0.068c0.285-0.188,0.552-0.401,0.806-0.63c0.08-0.072,0.151-0.152,0.228-0.229
		c0.201-0.198,0.39-0.404,0.566-0.623c0.055-0.069,0.108-0.138,0.16-0.209c0.205-0.274,0.389-0.556,0.551-0.849
		c0.009-0.017,0.02-0.033,0.029-0.05c0.478-0.883,0.761-1.829,0.761-2.72c0-0.038-0.008-0.074-0.009-0.112l0.009-0.006V5.037z
		 M18.398,14.718c-0.213,1.328-1.172,2.811-2.505,3.657v0.011l-3.414,2.412c-0.153,0.108-0.307,0.164-0.462,0.164
		c-0.154,0-0.309-0.056-0.462-0.164l-0.557-0.393c0.008-0.001,0.016-0.001,0.023-0.001L8.078,18.34
		c-1.311-0.848-2.259-2.301-2.471-3.616H5.603v-0.021c0-0.003,0-0.006-0.001-0.009v-0.971c0-0.002,0-0.005,0.001-0.007V10.26v-0.001
		V5.038L8.954,3.74c0,0,0,0,0.001,0l0.068-0.026L9.18,3.652L12,2.56l2.82,1.092l0.158,0.061l0.068,0.026c0,0,0,0,0.001,0
		l3.351,1.297V14.718z"/>
	<path fill="#231F20" d="M10.748,12.904l-1.422-1.576c-0.27-0.249-0.557-0.343-0.929-0.278L7.33,11.239
		c0,0.001,0.001,0.003,0.001,0.003l2.923,3.12c0.129,0.133,0.325,0.255,0.489,0.207c0.181,0,0.355-0.073,0.483-0.202l5.444-5.51
		L15.611,8.67c-0.395-0.071-0.696,0.024-0.98,0.309L10.748,12.904z"/>
</g>
</svg>
