<?xml version="1.0" encoding="iso-8859-1"?>
<!-- Generator: Adobe Illustrator 16.0.0, SVG Export Plug-In . SVG Version: 6.00 Build 0)  -->
<!DOCTYPE svg PUBLIC "-//W3C//DTD SVG 1.1//EN" "http://www.w3.org/Graphics/SVG/1.1/DTD/svg11.dtd">
<svg version="1.1" id="icone" xmlns="http://www.w3.org/2000/svg" xmlns:xlink="http://www.w3.org/1999/xlink" x="0px" y="0px"
	 width="16px" height="16px" viewBox="0 0 16 16" style="enable-background:new 0 0 16 16;" xml:space="preserve">
<path style="fill:#231F20;" d="M13.999,5.167V9.71c0,0.293-0.107,0.498-0.347,0.666l-0.653,0.457V6.29
	c0-0.293,0.107-0.498,0.348-0.667L13.999,5.167z M4,0C1.791,0,0,1.79,0,4v12h12c2.208,0,4-1.79,4-4V0H4z M15,12c0,1.654-1.346,3-3,3
	H1V4C1,2.346,2.346,1,4,1H15V12z M10.902,7.341l-0.466-0.079c-0.048-0.158-0.112-0.313-0.192-0.46l0.274-0.386
	c0.109-0.152,0.091-0.358-0.041-0.49l-0.403-0.402c-0.072-0.073-0.167-0.112-0.27-0.112c-0.079,0-0.156,0.023-0.221,0.069
	L9.198,5.756c-0.152-0.08-0.31-0.146-0.475-0.195L8.645,5.1c-0.029-0.187-0.187-0.32-0.374-0.32H7.7
	c-0.187,0-0.345,0.134-0.376,0.318l-0.081,0.47c-0.158,0.05-0.312,0.114-0.458,0.195L6.404,5.49C6.339,5.444,6.262,5.42,6.183,5.42
	c-0.102,0-0.199,0.04-0.271,0.111L5.51,5.935C5.378,6.066,5.36,6.272,5.469,6.426l0.277,0.39C5.668,6.964,5.605,7.117,5.559,7.277
	L5.098,7.354C4.913,7.384,4.778,7.543,4.778,7.729V8.3c0,0.188,0.134,0.346,0.319,0.378l0.47,0.079
	c0.049,0.158,0.113,0.313,0.194,0.46L5.49,9.597C5.38,9.749,5.398,9.956,5.531,10.088l0.403,0.403
	c0.072,0.073,0.167,0.111,0.27,0.111c0.079,0,0.156-0.023,0.222-0.071l0.39-0.276c0.141,0.074,0.292,0.137,0.444,0.184l0.078,0.465
	c0.031,0.185,0.19,0.317,0.377,0.317h0.57c0.187,0,0.345-0.133,0.377-0.317l0.079-0.467c0.159-0.048,0.313-0.112,0.46-0.191
	l0.385,0.274c0.065,0.047,0.142,0.071,0.221,0.071c0.102,0,0.197-0.039,0.27-0.112l0.403-0.403c0.132-0.132,0.149-0.337,0.04-0.49
	l-0.274-0.386c0.079-0.148,0.142-0.301,0.191-0.461l0.465-0.077c0.185-0.032,0.318-0.19,0.318-0.377V7.712
	C11.22,7.53,11.086,7.372,10.902,7.341z M8,9.792C7.011,9.792,6.208,8.99,6.208,8S7.011,6.208,8,6.208S9.792,7.01,9.792,8
	S8.988,9.792,8,9.792z"/>
</svg>
