<?xml version="1.0" encoding="iso-8859-1"?>
<!-- Generator: Adobe Illustrator 16.0.0, SVG Export Plug-In . SVG Version: 6.00 Build 0)  -->
<!DOCTYPE svg PUBLIC "-//W3C//DTD SVG 1.1//EN" "http://www.w3.org/Graphics/SVG/1.1/DTD/svg11.dtd">
<svg version="1.1" id="icone" xmlns="http://www.w3.org/2000/svg" xmlns:xlink="http://www.w3.org/1999/xlink" x="0px" y="0px"
	 width="24px" height="24px" viewBox="0 0 24 24" style="enable-background:new 0 0 24 24;" xml:space="preserve">
<path style="fill:#231F20;" d="M20.25,8.106v6.242c0,0.404-0.148,0.686-0.476,0.918l-0.899,0.627V9.651
	c0-0.404,0.148-0.686,0.477-0.919L20.25,8.106z M6.501,1C3.462,1,1,3.464,1,6.5V23h16.5c3.038,0,5.5-2.464,5.5-5.5V1H6.501z
	 M21.625,17.5c0,2.275-1.85,4.125-4.125,4.125H2.375V6.5c0-2.275,1.85-4.125,4.126-4.125h15.124V17.5z M15.992,11.095l-0.642-0.108
	c-0.066-0.217-0.153-0.431-0.265-0.636l0.377-0.526c0.15-0.211,0.126-0.493-0.055-0.678l-0.553-0.549
	c-0.101-0.103-0.232-0.159-0.373-0.159c-0.108,0-0.214,0.035-0.303,0.099l-0.533,0.375c-0.208-0.109-0.424-0.199-0.65-0.266
	L12.889,8.01c-0.041-0.257-0.257-0.438-0.514-0.438h-0.785c-0.257,0-0.474,0.181-0.517,0.436l-0.113,0.646
	c-0.217,0.073-0.43,0.161-0.631,0.271L9.807,8.547C9.715,8.483,9.612,8.453,9.504,8.453c-0.143,0-0.275,0.052-0.374,0.152
	L8.576,9.161C8.395,9.34,8.37,9.622,8.52,9.834l0.383,0.536c-0.107,0.207-0.193,0.419-0.257,0.638l-0.634,0.106
	c-0.255,0.041-0.439,0.259-0.439,0.516v0.781c0,0.258,0.184,0.475,0.436,0.519l0.649,0.108c0.067,0.223,0.154,0.431,0.267,0.636
	L8.55,14.194c-0.15,0.211-0.126,0.494,0.056,0.679l0.555,0.55c0.099,0.103,0.229,0.158,0.37,0.158c0.108,0,0.214-0.035,0.304-0.101
	l0.537-0.382c0.194,0.104,0.403,0.189,0.611,0.254l0.107,0.641c0.043,0.255,0.263,0.435,0.521,0.435h0.781
	c0.257,0,0.477-0.18,0.521-0.435l0.108-0.643c0.217-0.065,0.43-0.153,0.633-0.262l0.528,0.374c0.088,0.064,0.194,0.101,0.303,0.101
	c0.14,0,0.27-0.057,0.373-0.153l0.552-0.556c0.182-0.185,0.208-0.466,0.058-0.678L15.09,13.65c0.108-0.207,0.195-0.412,0.261-0.637
	l0.641-0.106c0.252-0.044,0.436-0.261,0.436-0.518v-0.783C16.428,11.354,16.244,11.138,15.992,11.095z M12,14.466
	c-1.361,0-2.463-1.106-2.463-2.466S10.639,9.534,12,9.534s2.463,1.106,2.463,2.466S13.361,14.466,12,14.466z"/>
</svg>
