<?xml version="1.0" encoding="iso-8859-1"?>
<!-- Generator: Adobe Illustrator 16.0.0, SVG Export Plug-In . SVG Version: 6.00 Build 0)  -->
<!DOCTYPE svg PUBLIC "-//W3C//DTD SVG 1.1//EN" "http://www.w3.org/Graphics/SVG/1.1/DTD/svg11.dtd">
<svg version="1.1" id="Layer" xmlns="http://www.w3.org/2000/svg" xmlns:xlink="http://www.w3.org/1999/xlink" x="0px" y="0px"
	 width="16px" height="16px" viewBox="0 0 16 16" style="enable-background:new 0 0 16 16;" xml:space="preserve">
<path style="fill:#231F20;" d="M9.55,0.5C8.033,0.5,6.8,1.733,6.8,3.25S8.033,6,9.55,6s2.75-1.233,2.75-2.75S11.066,0.5,9.55,0.5z
	 M9.55,5C8.585,5,7.8,4.215,7.8,3.25S8.585,1.5,9.55,1.5s1.75,0.785,1.75,1.75S10.515,5,9.55,5z M15.994,7.713
	c0.027,0.091-0.033,0.269-0.162,0.472c-0.202,0.321-0.506,0.612-0.663,0.636c-0.143,0.054-0.251,0.054-0.355,0.054
	c-0.144,0-0.288-0.025-0.441-0.076c-0.146,1.536-0.875,2.891-2.133,3.87l0.34,1.82c0.033,0.305-0.036,0.56-0.207,0.751
	c-0.171,0.191-0.396,0.261-0.536,0.261h-1.824c-0.44,0-0.83-0.321-0.888-0.731l-0.112-0.593c-0.041-0.001-0.082-0.002-0.123-0.002
	c-0.385,0-0.78,0.031-1.087,0.031c-0.317,0-0.697-0.027-1.161-0.081L6.381,14.79C6.268,15.188,5.88,15.5,5.498,15.5H3.674
	c-0.215,0-0.438-0.101-0.613-0.275c-0.172-0.172-0.236-0.408-0.176-0.646l0.306-1.527c-0.681-0.365-1.218-0.909-1.546-1.6
	l-0.611-0.034C0.347,11.417,0,11.133,0,10.573V8.494c0-0.628,0.425-1.066,1.033-1.066h0.301c0.265-0.666,0.548-1.169,0.949-1.629
	C2.244,5.306,2.06,5.006,1.827,4.626L1.746,4.493C1.705,4.41,1.663,4.339,1.618,4.264c-0.076-0.127-0.156-0.26-0.217-0.415
	C1.339,3.725,1.342,3.54,1.405,3.416c0.083-0.162,0.23-0.26,0.396-0.26c0.283-0.032,0.56-0.049,0.818-0.049
	c1.285,0,2.089,0.375,2.537,0.689c0.319-0.094,0.62-0.16,0.92-0.229L5.915,4.266C5.883,4.403,5.82,4.503,5.74,4.587
	C5.572,4.632,5.406,4.678,5.252,4.734c-0.04,0.019-0.106,0.038-0.179,0.038c-0.11,0-0.211-0.041-0.284-0.116
	C4.287,4.24,3.558,4.021,2.677,4.016h0c-0.022,0-0.042,0.012-0.053,0.032c-0.011,0.019-0.01,0.043,0.002,0.062
	c0.281,0.43,0.548,0.935,0.592,1.707c0,0.105,0,0.271-0.161,0.352C2.604,6.679,2.292,7.294,2.159,7.911
	C2.098,8.101,1.922,8.298,1.706,8.298L0.94,8.46l0.022,1.881l0.982,0.064c0.178,0,0.373,0.115,0.445,0.261
	c0.332,0.756,0.882,1.294,1.51,1.477c0.12,0.027,0.225,0.108,0.285,0.217c0.056,0.1,0.069,0.219,0.036,0.319L3.84,14.46h1.5
	l0.377-1.081C5.779,13.134,6.021,13,6.218,13c0.422,0.091,0.987,0.143,1.538,0.143c0.551,0,1.116-0.052,1.51-0.14
	c0.326,0.001,0.531,0.164,0.531,0.404l0.273,1.069l1.527-0.017l-0.311-1.94c-0.062-0.188,0.058-0.389,0.209-0.466
	c1.193-0.829,1.901-2.081,1.901-3.353c0-0.689-0.215-1.348-0.582-1.95l0.053,0.062l-0.08-0.101
	c-0.098-0.157-0.187-0.318-0.309-0.466c-0.053-0.131-0.081-0.267-0.04-0.431l0.181-0.731c0.788,0.732,1.332,1.606,1.558,2.562
	c0.289,0.202,0.489,0.278,0.656,0.278c0.379-0.08,0.546-0.307,0.618-0.404c0.121-0.174,0.279-0.271,0.448-0.273L15.994,7.713z"/>
</svg>
