<?xml version="1.0" encoding="iso-8859-1"?>
<!-- Generator: Adobe Illustrator 16.0.0, SVG Export Plug-In . SVG Version: 6.00 Build 0)  -->
<!DOCTYPE svg PUBLIC "-//W3C//DTD SVG 1.1//EN" "http://www.w3.org/Graphics/SVG/1.1/DTD/svg11.dtd">
<svg version="1.1" id="Layer" xmlns="http://www.w3.org/2000/svg" xmlns:xlink="http://www.w3.org/1999/xlink" x="0px" y="0px"
	 width="16px" height="16px" viewBox="0 0 16 16" style="enable-background:new 0 0 16 16;" xml:space="preserve">
<path style="fill:#231F20;" d="M15.325,3.225l-0.192-1.05c-0.143-0.775-0.9-1.295-1.69-1.15L2.639,2.996H1.455
	C0.652,2.996,0,3.645,0,4.432V6.43v0.312V7.51v1.229v4.825C0,14.354,0.652,15,1.455,15h13.09C15.348,15,16,14.354,16,13.564V8.739
	V7.51V6.741V6.43V4.432C16,3.927,15.729,3.48,15.325,3.225z M13.622,2.006c0.243-0.043,0.484,0.114,0.526,0.349l0.105,0.642H8.197
	L13.622,2.006z M1.455,3.995h13.09c0.247,0,0.455,0.2,0.455,0.437v0.643c-0.144-0.046-0.295-0.08-0.455-0.08H1.455
	c-0.16,0-0.311,0.034-0.455,0.08V4.432C1,4.195,1.208,3.995,1.455,3.995z M15,7.51v1.229v4.825c0,0.237-0.208,0.438-0.455,0.438
	H1.455c-0.247,0-0.455-0.2-0.455-0.438V8.739V7.51V6.741V6.43c0-0.236,0.208-0.437,0.455-0.437h13.09c0.247,0,0.455,0.2,0.455,0.437
	v0.312V7.51z"/>
</svg>
