<?xml version="1.0" encoding="iso-8859-1"?>
<!-- Generator: Adobe Illustrator 16.0.0, SVG Export Plug-In . SVG Version: 6.00 Build 0)  -->
<!DOCTYPE svg PUBLIC "-//W3C//DTD SVG 1.1//EN" "http://www.w3.org/Graphics/SVG/1.1/DTD/svg11.dtd">
<svg version="1.1" id="Layer" xmlns="http://www.w3.org/2000/svg" xmlns:xlink="http://www.w3.org/1999/xlink" x="0px" y="0px"
	 width="16px" height="16px" viewBox="0 0 16 16" style="enable-background:new 0 0 16 16;" xml:space="preserve">
<path style="fill:#231F20;" d="M0,4.266V3.688C0,2.897,0.652,2.25,1.455,2.25h13.09C15.348,2.25,16,2.897,16,3.688v0.578h-1V3.688
	c0-0.237-0.208-0.438-0.455-0.438H1.455C1.208,3.25,1,3.45,1,3.688v0.578H0z M15,6.25v6.062c0,0.237-0.208,0.438-0.455,0.438H1.455
	C1.208,12.75,1,12.55,1,12.312V6.25H0v6.062c0,0.79,0.652,1.438,1.455,1.438h13.09c0.803,0,1.455-0.647,1.455-1.438V6.25H15z"/>
</svg>
