<?xml version="1.0" encoding="iso-8859-1"?>
<!-- Generator: Adobe Illustrator 16.0.0, SVG Export Plug-In . SVG Version: 6.00 Build 0)  -->
<!DOCTYPE svg PUBLIC "-//W3C//DTD SVG 1.1//EN" "http://www.w3.org/Graphics/SVG/1.1/DTD/svg11.dtd">
<svg version="1.1" id="Layer" xmlns="http://www.w3.org/2000/svg" xmlns:xlink="http://www.w3.org/1999/xlink" x="0px" y="0px"
	 width="24px" height="24px" viewBox="0 0 24 24" style="enable-background:new 0 0 24 24;" xml:space="preserve">
<path style="fill:#231F20;" d="M1,6.865V6.07c0-1.086,0.897-1.977,2.001-1.977h17.998C22.103,4.094,23,4.984,23,6.07v0.795h-1.375
	V6.07c0-0.326-0.287-0.602-0.626-0.602H3.001c-0.339,0-0.626,0.275-0.626,0.602v0.795H1z M21.625,9.594v8.336
	c0,0.326-0.287,0.602-0.626,0.602H3.001c-0.339,0-0.626-0.275-0.626-0.602V9.594H1v8.336c0,1.086,0.897,1.977,2.001,1.977h17.998
	c1.104,0,2.001-0.891,2.001-1.977V9.594H21.625z"/>
</svg>
