<?xml version="1.0" encoding="iso-8859-1"?>
<!-- Generator: Adobe Illustrator 16.0.0, SVG Export Plug-In . SVG Version: 6.00 Build 0)  -->
<!DOCTYPE svg PUBLIC "-//W3C//DTD SVG 1.1//EN" "http://www.w3.org/Graphics/SVG/1.1/DTD/svg11.dtd">
<svg version="1.1" id="Layer" xmlns="http://www.w3.org/2000/svg" xmlns:xlink="http://www.w3.org/1999/xlink" x="0px" y="0px"
	 width="16px" height="16px" viewBox="0 0 16 16" style="enable-background:new 0 0 16 16;" xml:space="preserve">
<path d="M14.235,8.227c-0.406-0.997-0.961-1.948-1.647-2.821C12.07,4.738,11.55,4.208,11.128,3.82l1.266-2.346
	c0.167-0.31,0.159-0.685-0.021-0.987C12.192,0.186,11.866,0,11.514,0H4.571C4.225,0,3.903,0.18,3.721,0.475
	C3.539,0.769,3.522,1.137,3.677,1.447l1.189,2.38C4.447,4.212,3.929,4.741,3.412,5.403C2.721,6.29,2.167,7.24,1.764,8.229
	C1.257,9.48,1,10.788,1,12.113C1,14.257,2.662,16,4.704,16h6.592C13.338,16,15,14.257,15,12.113C15,10.787,14.743,9.48,14.235,8.227
	z M11.296,15H4.704C3.214,15,2,13.704,2,12.113c0-1.195,0.232-2.377,0.691-3.51c0.366-0.899,0.875-1.771,1.51-2.585
	c0.759-0.973,1.514-1.628,1.909-1.941L4.571,1h6.943L9.865,4.056c0.392,0.308,1.162,0.97,1.934,1.963
	c0.639,0.814,1.144,1.686,1.51,2.585C13.768,9.736,14,10.918,14,12.113C14,13.704,12.785,15,11.296,15z M10.4,11.425
	c0,0.617-0.229,1.083-0.686,1.398c-0.246,0.17-0.55,0.291-0.906,0.37c-0.161,0.202-0.352,0.305-0.622,0.307l-0.797-0.002
	l0.146-0.209c-0.478-0.012-0.881-0.053-1.167-0.138c-0.334-0.098-0.562-0.173-0.682-0.223c0.183-0.521,0.677-0.807,1.221-0.709
	c0.325,0.061,0.513,0.065,0.843,0.065c0.489,0,0.854-0.065,1.089-0.192c0.236-0.129,0.354-0.335,0.354-0.617
	c0-0.29-0.117-0.522-0.348-0.693c-0.23-0.171-0.611-0.364-1.142-0.579C7.446,10.101,7.2,9.997,6.964,9.889
	c-0.235-0.106-0.438-0.232-0.61-0.378c-0.17-0.146-0.308-0.322-0.41-0.526C5.84,8.777,5.789,8.526,5.789,8.226
	c0-0.59,0.218-1.061,0.655-1.405C6.721,6.599,7.07,6.457,7.476,6.377l0.02-0.029C7.665,6.107,7.87,6.002,8.163,6l0.797,0.002
	L8.731,6.327C8.752,6.33,8.773,6.329,8.794,6.331c0.188,0.02,0.366,0.046,0.527,0.077c0.163,0.03,0.308,0.062,0.43,0.097
	c0.126,0.033,0.221,0.063,0.291,0.089c-0.202,0.521-0.673,0.806-1.23,0.739C8.587,7.305,8.459,7.299,8.233,7.299
	c-0.333,0-0.628,0.068-0.878,0.202c-0.248,0.133-0.372,0.34-0.372,0.622c0,0.145,0.028,0.273,0.084,0.387
	c0.056,0.111,0.141,0.211,0.256,0.301C7.44,8.9,7.584,8.984,7.754,9.061c0.171,0.076,0.376,0.158,0.617,0.244
	c0.316,0.121,0.599,0.239,0.847,0.353c0.25,0.116,0.459,0.252,0.636,0.405c0.176,0.154,0.311,0.341,0.404,0.56
	C10.353,10.84,10.4,11.106,10.4,11.425z"/>
</svg>
