<?xml version="1.0" encoding="iso-8859-1"?>
<!-- Generator: Adobe Illustrator 16.0.0, SVG Export Plug-In . SVG Version: 6.00 Build 0)  -->
<!DOCTYPE svg PUBLIC "-//W3C//DTD SVG 1.1//EN" "http://www.w3.org/Graphics/SVG/1.1/DTD/svg11.dtd">
<svg version="1.1" id="Layer" xmlns="http://www.w3.org/2000/svg" xmlns:xlink="http://www.w3.org/1999/xlink" x="0px" y="0px"
	 width="24px" height="24px" viewBox="0 0 24 24" style="enable-background:new 0 0 24 24;" xml:space="preserve">
<path d="M20.573,12.309c-0.559-1.366-1.321-2.675-2.265-3.876C17.597,7.514,16.88,6.784,16.3,6.25l1.74-3.225
	c0.232-0.421,0.221-0.937-0.027-1.356C17.766,1.256,17.316,1,16.833,1H7.285C6.81,1,6.368,1.25,6.115,1.65
	c-0.25,0.405-0.272,0.914-0.059,1.342l1.635,3.271C7.114,6.794,6.402,7.517,5.692,8.431c-0.952,1.221-1.714,2.522-2.266,3.886
	c-0.698,1.721-1.051,3.515-1.051,5.338C2.375,20.601,4.661,23,7.468,23h9.064c2.807,0,5.093-2.399,5.093-5.346
	C21.625,15.83,21.271,14.037,20.573,12.309z M16.532,21.625H7.468c-2.049,0-3.718-1.782-3.718-3.971c0-1.641,0.32-3.268,0.949-4.822
	c0.504-1.239,1.203-2.438,2.078-3.558C7.82,7.938,8.856,7.037,9.4,6.606L7.285,2.375h9.547l-2.268,4.204
	c0.538,0.419,1.595,1.333,2.657,2.695c0.879,1.119,1.575,2.318,2.079,3.558c0.629,1.555,0.949,3.182,0.949,4.822
	C20.25,19.843,18.578,21.625,16.532,21.625z M15.299,16.708c0,0.852-0.314,1.487-0.944,1.926c-0.336,0.234-0.755,0.396-1.246,0.505
	c-0.22,0.278-0.483,0.422-0.854,0.424l-1.096-0.002l0.199-0.291c-0.656-0.012-1.209-0.07-1.604-0.185
	c-0.46-0.139-0.773-0.237-0.937-0.311c0.25-0.714,0.929-1.105,1.678-0.973c0.448,0.084,0.707,0.089,1.16,0.089
	c0.673,0,1.174-0.089,1.496-0.263c0.327-0.176,0.489-0.464,0.489-0.852c0-0.396-0.161-0.716-0.479-0.951
	c-0.315-0.235-0.84-0.499-1.57-0.796c-0.354-0.144-0.691-0.282-1.018-0.432c-0.323-0.147-0.602-0.32-0.839-0.519
	c-0.235-0.205-0.422-0.445-0.562-0.726c-0.142-0.283-0.214-0.628-0.214-1.046c0-0.807,0.3-1.453,0.901-1.933
	c0.38-0.304,0.861-0.498,1.419-0.607l0.029-0.041c0.23-0.328,0.511-0.475,0.916-0.477l1.096,0.002L13.007,9.7
	c0.027,0.003,0.056,0.002,0.086,0.004c0.258,0.025,0.5,0.063,0.723,0.106c0.225,0.042,0.422,0.085,0.591,0.132
	c0.173,0.045,0.303,0.087,0.399,0.124c-0.278,0.715-0.925,1.11-1.69,1.015c-0.309-0.034-0.483-0.046-0.795-0.046
	c-0.459,0-0.866,0.098-1.209,0.278c-0.339,0.186-0.51,0.469-0.51,0.856c0,0.197,0.037,0.373,0.116,0.533
	c0.076,0.152,0.194,0.287,0.35,0.412c0.161,0.125,0.361,0.238,0.596,0.344c0.233,0.105,0.517,0.217,0.849,0.338
	c0.434,0.162,0.822,0.327,1.163,0.481c0.344,0.163,0.632,0.346,0.874,0.558c0.243,0.213,0.428,0.47,0.557,0.771
	C15.235,15.906,15.299,16.272,15.299,16.708z"/>
</svg>
