<?xml version="1.0" encoding="iso-8859-1"?>
<!-- Generator: Adobe Illustrator 16.0.0, SVG Export Plug-In . SVG Version: 6.00 Build 0)  -->
<!DOCTYPE svg PUBLIC "-//W3C//DTD SVG 1.1//EN" "http://www.w3.org/Graphics/SVG/1.1/DTD/svg11.dtd">
<svg version="1.1" id="Layer" xmlns="http://www.w3.org/2000/svg" xmlns:xlink="http://www.w3.org/1999/xlink" x="0px" y="0px"
	 width="24px" height="24px" viewBox="0 0 24 24" style="enable-background:new 0 0 24 24;" xml:space="preserve">
<path d="M12.397,17.215c-0.496,0.074-1.157,0.115-1.958,0.115c-0.189,0-0.402-0.004-0.617-0.018
	c-0.329-0.057-0.575-0.217-0.752-0.525L8.54,15.828c0.236,0.018,1.278,0.107,1.91,0.107c0.711,0,1.293-0.031,1.729-0.105
	c0.129-0.021,0.228-0.053,0.303-0.109L9.25,14.557c-0.271-0.086-0.577-0.129-0.901-0.129c-1.149,0-2.223,0.52-2.341,0.58
	l-3.009,1.811c-0.33,0.184-0.637,0.203-0.99,0.041l-1.008-0.451c0,0-0.01-0.012,0.019-0.029l4.29-2.596
	c0.146-0.072,1.478-0.756,3.05-0.756c0.46,0,0.894,0.062,1.291,0.178l3.957,1.197c0.272,0.086,0.466,0.324,0.496,0.607
	C14.174,15.777,13.781,16.99,12.397,17.215z M22.912,13.418c-0.288-0.521-0.956-1.133-1.898-1.133c-0.337,0-0.691,0.08-1.052,0.238
	c-0.712,0.318-2.598,1.217-3.807,1.797c-0.275,0.176-0.688,0.512-0.738,0.857l-0.151,1.068c0.063-0.014,0.127-0.016,0.192-0.051
	c0,0,3.964-1.9,5.071-2.391c0.047-0.021,0.098-0.043,0.159-0.043c0.065,0,0.131,0.025,0.206,0.148l-6.833,5.006
	c-0.384,0.283-0.865,0.438-1.352,0.438c-0.116,0-0.232-0.006-0.345-0.025l-6.65-1.053c-0.166,0-0.327,0.059-0.456,0.162
	l-1.273,1.131c-0.307,0.27-0.425,0.568-0.383,0.973c0,0,0.129,1.117,0.168,1.084l2.194-1.906l6.18,0.994
	c0.192,0.027,0.385,0.043,0.578,0.043c0.774,0,1.546-0.25,2.172-0.705l7.83-5.734C23,14.104,23.081,13.725,22.912,13.418z
	 M15.242,9.834c0,0.852-0.317,1.486-0.944,1.926c-0.339,0.234-0.758,0.396-1.246,0.504c-0.223,0.279-0.483,0.422-0.856,0.424
	L11.1,12.686l0.202-0.291c-0.656-0.012-1.212-0.07-1.604-0.184c-0.46-0.139-0.773-0.238-0.939-0.311
	c0.253-0.715,0.932-1.105,1.681-0.973c0.445,0.084,0.704,0.088,1.16,0.088c0.67,0,1.174-0.088,1.496-0.262
	c0.324-0.176,0.486-0.465,0.486-0.852c0-0.396-0.161-0.717-0.477-0.951c-0.318-0.236-0.84-0.5-1.57-0.797
	c-0.354-0.143-0.694-0.281-1.018-0.432c-0.323-0.146-0.602-0.32-0.839-0.518C9.443,7,9.253,6.76,9.113,6.479
	C8.971,6.195,8.899,5.852,8.899,5.434c0-0.807,0.3-1.453,0.901-1.934c0.383-0.303,0.861-0.498,1.419-0.607l0.029-0.041
	c0.233-0.328,0.514-0.475,0.916-0.477l1.096,0.002l-0.313,0.449c0.03,0.002,0.056,0.002,0.086,0.004
	c0.258,0.025,0.503,0.062,0.726,0.105c0.222,0.043,0.422,0.086,0.591,0.133c0.173,0.045,0.303,0.086,0.399,0.123
	c-0.278,0.715-0.925,1.111-1.693,1.016C12.75,4.166,12.572,4.16,12.26,4.16c-0.457,0-0.863,0.092-1.206,0.279
	c-0.342,0.186-0.513,0.469-0.513,0.855c0,0.197,0.04,0.373,0.116,0.533c0.076,0.152,0.194,0.287,0.353,0.412
	c0.161,0.125,0.358,0.238,0.593,0.344c0.236,0.105,0.517,0.217,0.849,0.332c0.437,0.168,0.825,0.334,1.163,0.488
	c0.344,0.156,0.632,0.346,0.876,0.557c0.24,0.213,0.428,0.471,0.557,0.771C15.177,9.031,15.242,9.398,15.242,9.834z"/>
</svg>
