<?xml version="1.0" encoding="iso-8859-1"?>
<!-- Generator: Adobe Illustrator 16.0.0, SVG Export Plug-In . SVG Version: 6.00 Build 0)  -->
<!DOCTYPE svg PUBLIC "-//W3C//DTD SVG 1.1//EN" "http://www.w3.org/Graphics/SVG/1.1/DTD/svg11.dtd">
<svg version="1.1" id="Layer" xmlns="http://www.w3.org/2000/svg" xmlns:xlink="http://www.w3.org/1999/xlink" x="0px" y="0px"
	 width="16px" height="16px" viewBox="0 0 16 16" style="enable-background:new 0 0 16 16;" xml:space="preserve">
<path d="M8.289,11.79c-0.361,0.058-0.841,0.087-1.425,0.087c-0.136,0-0.291-0.005-0.447-0.012c-0.241-0.046-0.419-0.158-0.547-0.386
	l-0.388-0.695c0.172,0.012,0.93,0.079,1.389,0.079c0.518,0,0.941-0.026,1.257-0.076c0.094-0.016,0.166-0.041,0.221-0.081L6,9.858
	C5.802,9.797,5.582,9.766,5.345,9.766c-0.835,0-1.616,0.379-1.702,0.422l-2.189,1.317c-0.24,0.131-0.464,0.146-0.72,0.03
	l-0.732-0.328c0,0-0.007-0.012,0.013-0.023l3.121-1.887C3.24,9.242,4.208,8.745,5.353,8.745c0.334,0,0.65,0.045,0.939,0.132
	l2.876,0.869c0.199,0.062,0.34,0.235,0.361,0.443C9.582,10.746,9.295,11.631,8.289,11.79z M15.936,9.031
	c-0.208-0.381-0.695-0.823-1.38-0.823c-0.246,0-0.503,0.058-0.765,0.174c-0.519,0.23-1.89,0.884-2.77,1.306
	c-0.199,0.129-0.501,0.371-0.536,0.623l-0.11,0.775c0.046-0.009,0.092-0.011,0.139-0.034c0,0,2.883-1.384,3.688-1.74
	c0.035-0.016,0.072-0.03,0.115-0.03c0.048,0,0.096,0.019,0.15,0.106l-4.97,3.642c-0.278,0.206-0.627,0.319-0.983,0.319
	c-0.084,0-0.168-0.006-0.251-0.019l-4.836-0.766c-0.12,0-0.237,0.041-0.331,0.115l-0.927,0.825
	c-0.223,0.193-0.308,0.411-0.278,0.706c0,0,0.094,0.812,0.122,0.788l1.596-1.384l4.496,0.72c0.139,0.021,0.28,0.032,0.42,0.032
	c0.563,0,1.125-0.183,1.58-0.515l5.694-4.169C16,9.529,16.059,9.255,15.936,9.031z M10.357,6.425c0,0.617-0.229,1.083-0.686,1.398
	c-0.246,0.17-0.55,0.291-0.906,0.37C8.604,8.396,8.414,8.498,8.143,8.5L7.346,8.498l0.146-0.209
	C7.015,8.277,6.611,8.236,6.325,8.151C5.991,8.054,5.763,7.979,5.643,7.929C5.826,7.408,6.32,7.122,6.864,7.22
	C7.188,7.28,7.377,7.285,7.707,7.285c0.489,0,0.854-0.065,1.089-0.192C9.032,6.964,9.15,6.758,9.15,6.476
	c0-0.29-0.117-0.522-0.348-0.693c-0.23-0.171-0.611-0.364-1.142-0.579c-0.258-0.103-0.503-0.206-0.74-0.314
	c-0.235-0.106-0.438-0.232-0.61-0.378c-0.17-0.146-0.308-0.322-0.41-0.526C5.797,3.777,5.746,3.526,5.746,3.226
	c0-0.59,0.218-1.061,0.655-1.405c0.278-0.222,0.626-0.363,1.033-0.443l0.02-0.029C7.622,1.107,7.827,1.002,8.12,1l0.797,0.002
	L8.688,1.327C8.709,1.33,8.73,1.329,8.751,1.331c0.188,0.02,0.366,0.046,0.527,0.077c0.163,0.03,0.308,0.062,0.43,0.097
	c0.126,0.033,0.221,0.063,0.291,0.089c-0.202,0.521-0.673,0.806-1.23,0.739C8.544,2.305,8.417,2.299,8.19,2.299
	c-0.333,0-0.628,0.068-0.878,0.202C7.064,2.634,6.94,2.841,6.94,3.123c0,0.145,0.028,0.273,0.084,0.387
	C7.08,3.621,7.165,3.721,7.28,3.811c0.117,0.09,0.261,0.174,0.432,0.25c0.171,0.076,0.376,0.158,0.617,0.244
	c0.316,0.121,0.599,0.239,0.847,0.353c0.25,0.116,0.459,0.252,0.636,0.405c0.176,0.154,0.311,0.341,0.404,0.56
	C10.31,5.84,10.357,6.106,10.357,6.425z"/>
</svg>
