<?xml version="1.0" encoding="utf-8"?>
<!-- Generator: Adobe Illustrator 24.0.0, SVG Export Plug-In . SVG Version: 6.00 Build 0)  -->
<svg version="1.1" id="Layer" xmlns="http://www.w3.org/2000/svg" xmlns:xlink="http://www.w3.org/1999/xlink" x="0px" y="0px"
	 viewBox="0 0 24 24" enable-background="new 0 0 24 24" xml:space="preserve">
<path d="M12,1C5.924,1,1,5.926,1,12c0,6.075,4.924,11,11,11c6.076,0,11-4.925,11-11C23,5.926,18.076,1,12,1z M12,21.625
	c-5.308,0-9.625-4.318-9.625-9.625S6.692,2.375,12,2.375c5.308,0,9.625,4.318,9.625,9.625S17.308,21.625,12,21.625z"/>
<path fill="#231F20" d="M13.825,17.465c-0.239-0.167-0.356-0.391-0.356-0.683l0-0.879c0-0.854-0.659-1.548-1.468-1.548H7.829
	c-0.81,0-1.468,0.694-1.468,1.548v0.926c-0.02,0.286-0.133,0.488-0.347,0.637l-0.888,0.609v-2.172c0-1.534,1.213-2.782,2.704-2.782
	H12c1.491,0,2.704,1.248,2.704,2.782v2.179L13.825,17.465z"/>
<path fill="#231F20" d="M9.915,12.27c-1.683,0-3.051-1.369-3.051-3.052c0-1.682,1.369-3.05,3.051-3.05
	c1.683,0,3.051,1.368,3.051,3.05C12.966,10.9,11.597,12.27,9.915,12.27z M9.915,7.402c-1.001,0-1.816,0.814-1.816,1.815
	c0,1.002,0.814,1.817,1.816,1.817c1.001,0,1.816-0.815,1.816-1.817C11.731,8.217,10.916,7.402,9.915,7.402z"/>
<path fill="#231F20" d="M15.898,17.468c-0.199-0.139-0.309-0.325-0.341-0.572l-0.002-0.992c0-0.461-0.241-0.927-0.645-1.245
	c-0.171-0.149-0.261-0.329-0.279-0.542L14.551,13.2l0.35,0.066c0.144,0.027,0.307,0.114,0.539,0.243
	c0.858,0.481,1.35,1.354,1.35,2.394v2.167L15.898,17.468z"/>
<path fill="#231F20" d="M12.499,11.831l0.081-0.535c0.03-0.199,0.122-0.361,0.278-0.493c0.615-0.355,0.958-0.938,0.958-1.585
	c0-0.603-0.331-1.161-0.909-1.531c-0.196-0.149-0.3-0.336-0.326-0.568l-0.106-0.96l0.415,0.153l0.099,0.041
	c1.311,0.545,2.062,1.589,2.062,2.865c0,1.304-0.842,2.458-2.094,2.873l-0.097,0.036l-0.404,0.116L12.499,11.831z"/>
<path fill="#231F20" d="M17.982,17.468c-0.2-0.139-0.31-0.326-0.341-0.573l-0.002-0.991c0-0.461-0.241-0.926-0.646-1.245
	c-0.17-0.148-0.261-0.328-0.279-0.542L16.636,13.2l0.35,0.066c0.145,0.027,0.315,0.118,0.539,0.244
	c0.858,0.48,1.35,1.353,1.35,2.393v2.167L17.982,17.468z"/>
<path fill="#231F20" d="M14.584,11.831l0.081-0.535c0.03-0.199,0.121-0.36,0.278-0.493c0.616-0.355,0.959-0.938,0.959-1.585
	c0-0.603-0.331-1.161-0.909-1.531c-0.196-0.149-0.3-0.336-0.326-0.568l-0.106-0.96l0.415,0.153l0.099,0.041
	c1.311,0.545,2.062,1.589,2.062,2.865c0,1.304-0.842,2.458-2.095,2.873l-0.019,0.007l-0.024,0.025l-0.091,0.012l-0.411,0.127
	L14.584,11.831z"/>
</svg>
