<?xml version="1.0" encoding="utf-8"?>
<!-- Generator: Adobe Illustrator 24.0.0, SVG Export Plug-In . SVG Version: 6.00 Build 0)  -->
<svg version="1.1" id="Layer" xmlns="http://www.w3.org/2000/svg" xmlns:xlink="http://www.w3.org/1999/xlink" x="0px" y="0px"
	 viewBox="0 0 24 24" enable-background="new 0 0 24 24" xml:space="preserve">
<g>
	<path fill="#231F20" d="M12,1C5.924,1,1,5.926,1,12c0,6.075,4.924,11,11,11s11-4.925,11-11C23,5.926,18.076,1,12,1z M12,21.625
		c-5.308,0-9.625-4.318-9.625-9.625S6.692,2.375,12,2.375S21.625,6.693,21.625,12S17.308,21.625,12,21.625z"/>
	<path fill="#231F20" d="M12,13.121H7.829c-1.491,0-2.704,1.248-2.704,2.782v2.172l0.888-0.609c0.214-0.148,0.327-0.351,0.347-0.637
		v-0.926c0-0.854,0.659-1.548,1.468-1.548H12c0.81,0,1.468,0.694,1.468,1.548l0,0.879c0,0.292,0.117,0.516,0.356,0.683l0.879,0.617
		v-2.179C14.704,14.369,13.491,13.121,12,13.121z"/>
	<path fill="#231F20" d="M9.915,12.27c1.683,0,3.051-1.369,3.051-3.052c0-1.682-1.369-3.05-3.051-3.05
		c-1.683,0-3.051,1.368-3.051,3.05C6.863,10.9,8.232,12.27,9.915,12.27z M9.915,7.402c1.001,0,1.816,0.814,1.816,1.815
		c0,1.002-0.815,1.817-1.816,1.817S8.099,10.22,8.099,9.218C8.099,8.217,8.913,7.402,9.915,7.402z"/>
	<path fill="#231F20" d="M15.44,13.51c-0.232-0.129-0.395-0.216-0.538-0.243l-0.35-0.066l0.079,0.916
		c0.019,0.213,0.108,0.393,0.279,0.542c0.404,0.318,0.645,0.784,0.645,1.245l0.002,0.992c0.032,0.247,0.142,0.434,0.341,0.572
		l0.892,0.603v-2.167C16.79,14.863,16.298,13.991,15.44,13.51z"/>
	<path fill="#231F20" d="M12.908,7.687c0.578,0.37,0.909,0.929,0.909,1.531c0,0.647-0.343,1.229-0.958,1.585
		c-0.157,0.132-0.248,0.294-0.278,0.493l-0.081,0.535l-0.043,0.412l0.404-0.116l0.097-0.036c1.253-0.415,2.094-1.569,2.094-2.873
		c0-1.276-0.752-2.32-2.062-2.865l-0.099-0.041l-0.415-0.153l0.106,0.96C12.607,7.351,12.711,7.537,12.908,7.687z"/>
	<path fill="#231F20" d="M17.525,13.511c-0.225-0.126-0.395-0.217-0.539-0.244l-0.35-0.066l0.079,0.916
		c0.019,0.214,0.109,0.394,0.279,0.542c0.404,0.319,0.646,0.784,0.646,1.245l0.002,0.991c0.031,0.247,0.141,0.435,0.341,0.573
		l0.893,0.603v-2.167C18.875,14.863,18.383,13.991,17.525,13.511z"/>
	<path fill="#231F20" d="M14.992,7.687c0.578,0.37,0.909,0.929,0.909,1.531c0,0.647-0.343,1.229-0.959,1.585
		c-0.157,0.133-0.248,0.294-0.278,0.493l-0.081,0.535l-0.087,0.431l0.411-0.127l0.091-0.012l0.024-0.025l0.019-0.007
		c1.253-0.415,2.095-1.569,2.095-2.873c0-1.276-0.752-2.32-2.062-2.865l-0.099-0.041L14.56,6.158l0.106,0.96
		C14.692,7.351,14.796,7.537,14.992,7.687z"/>
</g>
</svg>
