<?xml version="1.0" encoding="utf-8"?>
<!-- Generator: Adobe Illustrator 23.1.1, SVG Export Plug-In . SVG Version: 6.00 Build 0)  -->
<svg version="1.1" id="Layer_1" xmlns="http://www.w3.org/2000/svg" xmlns:xlink="http://www.w3.org/1999/xlink" x="0px" y="0px"
	 viewBox="0 0 24 24" style="enable-background:new 0 0 24 24;" xml:space="preserve">
<style type="text/css">
	.st0{clip-path:url(#SVGID_2_);}
</style>
<g>
	<defs>
		<rect id="SVGID_1_" width="24" height="24"/>
	</defs>
	<clipPath id="SVGID_2_">
		<use xlink:href="#SVGID_1_"  style="overflow:visible;"/>
	</clipPath>
	<path class="st0" d="M12,18.94l0.51,0.4c0.18,0.14,0.35,0.17,0.58,0.1l0.67-0.21l-0.51-0.4c-0.18-0.14-0.35-0.17-0.58-0.1L12,18.94
		z"/>
	<path class="st0" d="M6.88,17.65v-1.21c0-0.4-0.13-0.67-0.46-0.9L5.5,14.9v1.2c0,0.4,0.13,0.67,0.46,0.9L6.88,17.65z"/>
	<path class="st0" d="M14.03,18.36l0.67-0.21l-0.51-0.4c-0.18-0.14-0.35-0.17-0.58-0.1l-0.67,0.21l0.51,0.4
		C13.64,18.41,13.81,18.43,14.03,18.36"/>
	<path class="st0" d="M15.27,17.16l-0.67,0.21l0.51,0.4c0.18,0.14,0.35,0.17,0.58,0.1l0.67-0.21l-0.51-0.39
		C15.66,17.12,15.49,17.09,15.27,17.16"/>
	<path class="st0" d="M15.39,8.4c-0.27,0.3-0.35,0.59-0.26,0.98l0.26,1.09l0.8-0.9c0.27-0.3,0.35-0.59,0.26-0.98L16.19,7.5
		L15.39,8.4z"/>
	<path class="st0" d="M13.82,20.86l-0.67,0.21l0.51,0.4c0.18,0.14,0.35,0.17,0.58,0.1l0.67-0.21l-0.51-0.4
		C14.22,20.82,14.05,20.79,13.82,20.86"/>
	<path class="st0" d="M13.3,19.98c-0.19-0.14-0.36-0.17-0.58-0.1l-0.67,0.21l0.51,0.4c0.18,0.14,0.35,0.17,0.58,0.1l0.67-0.21
		L13.3,19.98z"/>
	<path class="st0" d="M17.92,14.27c-0.17-0.16-0.4-0.21-0.62-0.13l-3.28,1.19l-1.53-1.24l1.93-3.31c0.09-0.15,0.1-0.32,0.05-0.48
		l-0.53-1.65l5.04-6.03H23l-0.57-0.81c-0.16-0.22-0.36-0.34-0.59-0.39H18.7c-0.18,0-0.35,0.08-0.46,0.22l-5.43,6.49
		c-0.13,0.16-0.17,0.37-0.11,0.57l0.55,1.71l-2.06,3.53c-0.15,0.26-0.09,0.58,0.14,0.77l2.19,1.78c0.16,0.13,0.38,0.17,0.58,0.1
		l3.25-1.17l5.45,5.21l0.17-0.95c0.05-0.27-0.01-0.48-0.14-0.68L17.92,14.27z"/>
	<path class="st0" d="M14.25,1.46c-0.27-0.13-0.59-0.03-0.75,0.22c-0.03,0.05-3.31,4.91-11.9,4.91C1.27,6.58,1,6.85,1,7.18
		c0,0.33,0.27,0.6,0.6,0.6c5.4,0,8.84-1.77,10.8-3.3c-0.55,1.16-1.31,2.45-2.24,3.24c-1.89,1.6-4.45,2.29-8.56,2.29
		c-0.33,0-0.6,0.27-0.6,0.6c0,0.33,0.27,0.6,0.6,0.6c2.52,0,4.5-0.26,6.14-0.81v9.01h-3.3l-1.95-5.94c-0.12-0.16-0.27-0.29-0.5-0.36
		l-0.96-0.28c0.01,0.02,0,0.05,0.01,0.07l2.4,7.29C3.51,20.43,3.74,20.6,4,20.6h4.34c0.33,0,0.6-0.27,0.6-0.6V9.91
		c0.73-0.35,1.4-0.77,2-1.28c2.31-1.97,3.59-6.28,3.64-6.47C14.66,1.88,14.52,1.58,14.25,1.46"/>
</g>
</svg>
