<?xml version="1.0" encoding="utf-8"?>
<!-- Generator: Adobe Illustrator 24.0.0, SVG Export Plug-In . SVG Version: 6.00 Build 0)  -->
<svg version="1.1" id="Layer" xmlns="http://www.w3.org/2000/svg" xmlns:xlink="http://www.w3.org/1999/xlink" x="0px" y="0px"
	 viewBox="0 0 24 24" enable-background="new 0 0 24 24" xml:space="preserve">
<g>
	<path fill="#231F20" d="M9.748,12.716c0.403-0.001,0.671-0.128,0.902-0.458l0.642-0.917H7.998l0.642,0.917
		c0.231,0.33,0.5,0.457,0.902,0.458H9.748z"/>
	<path fill="#231F20" d="M16.221,10.704h-0.206c-0.403,0.001-0.671,0.128-0.902,0.458l-0.642,0.917h3.294l-0.642-0.917
		C16.893,10.832,16.624,10.705,16.221,10.704z"/>
	<path fill="#231F20" d="M23.03,8.407V3.595c0-0.556-0.334-1.056-0.846-1.269l-2.916-1.25c-0.344-0.143-0.729-0.141-1.07,0.005
		l-2.667,1.125c-0.507,0.216-0.834,0.714-0.834,1.264v1.37h-2.005V0.934l-0.884,0.619c-0.318,0.223-0.44,0.481-0.441,0.87v3.15
		c-0.222-0.146-0.47-0.247-0.74-0.247H7.018L6.477,5.494C5.97,5.651,5.643,6.012,5.643,6.41v0.293H5.539H5.387V2.741
		c0-0.391-0.327-0.744-0.834-0.898L4.012,1.679h-1.63L1.841,1.885C1.334,2.078,1.007,2.521,1.007,3.011v6.693l0.168,0.541
		c0.157,0.507,0.518,0.834,0.917,0.834h3.551v0.575H4.878c-0.55,0-1.047,0.327-1.264,0.834l-0.232,0.541h1.496h0.609h0.157V13.1
		c0,0.55,0.327,1.047,0.834,1.264l0.146,0.063v0.271l-0.001,0v0.125v0.609v0.827v0.078v3.436c0,0.214,0.045,0.413,0.135,0.597
		l0.48,1.119c0.216,0.507,0.714,0.834,1.264,0.834h2.865v0.673l0.883-0.619c0.025-0.017,0.041-0.036,0.063-0.054h1.82l-0.001-0.006
		h5.352c0.552,0,1.048-0.331,1.264-0.837h0l0,0c0.001-0.003,0.004-0.005,0.005-0.008l2.196-5.271H22.93
		c0.114-0.325,0.116-0.678-0.02-0.995l-1.305-3.044l-0.526-1.232l1.548-1.548C22.885,9.121,23.03,8.772,23.03,8.407z M8.501,20.947
		L8.01,19.801l0-0.03l-0.013-0.609v-0.521h0.001v-4.217c0-0.547-0.325-1.041-0.827-1.259l0,0c-0.003-0.001-0.004-0.003-0.007-0.004
		l-0.146-0.063V9.703H5.643H5.387H2.534H2.382V3.553V3.053h1.63v0.12v4.905h1.085h0.29h0.256h1.375V6.852V6.7h3.608l0.74,0.74v11.13
		l-0.196-0.28c-0.231-0.33-0.499-0.456-0.902-0.459H9.062l0.642,0.917c0.231,0.33,0.499,0.457,0.902,0.458h0.76v1.74H8.501z
		 M21.655,8.407l-1.157,1.157l-1.233-2.89c-0.159-0.37-0.381-0.567-0.775-0.65l-1.095-0.23l1.099,2.575h-0.008l1.787,4.169
		l0.11,0.257c0.001,0.002,0.001,0.002,0.002,0.003l1.263,2.946l-2.166,5.196H13.44v0.006h-0.749v-1.327h2.299l-0.636-0.908
		c-0.229-0.327-0.495-0.452-0.894-0.454h-0.767v-1.545c0.354-0.019,0.604-0.145,0.818-0.45l0.642-0.917V13.97h-1.461V6.202h1.847
		c0.399-0.001,0.665-0.126,0.894-0.454l0.633-0.904l0.007-0.005V3.47l2.667-1.125l2.916,1.25V8.407z"/>
</g>
</svg>
