<?xml version="1.0" encoding="utf-8"?>
<!-- Generator: Adobe Illustrator 24.0.0, SVG Export Plug-In . SVG Version: 6.00 Build 0)  -->
<svg version="1.1" id="Layer" xmlns="http://www.w3.org/2000/svg" xmlns:xlink="http://www.w3.org/1999/xlink" x="0px" y="0px"
	 viewBox="0 0 24 24" enable-background="new 0 0 24 24" xml:space="preserve">
<path fill="#231F20" d="M23,14.349c0-1.928-1.424-3.537-3.323-3.93l0.001-5.253l0.935-1.336c0.269-0.386,0.303-0.892,0.085-1.31
	c-0.218-0.413-0.649-0.676-1.118-0.676h-4.758c-0.473,0-0.904,0.262-1.119,0.676c-0.217,0.418-0.186,0.925,0.085,1.31l0.968,1.382
	v3.042h-2.412V6.361c0-0.512-0.31-0.972-0.779-1.165c-0.156-0.069-0.319-0.097-0.482-0.097c-0.327,0-0.65,0.124-0.891,0.368
	L9.564,6.095c-0.086-0.4-0.363-0.742-0.749-0.899C8.657,5.127,8.494,5.099,8.331,5.099c-0.328,0-0.65,0.124-0.891,0.368L6.815,6.095
	C6.729,5.696,6.453,5.353,6.063,5.195C5.907,5.127,5.745,5.099,5.582,5.099c-0.33,0-0.65,0.124-0.891,0.368L1.372,8.789
	C1.135,9.024,1.002,9.345,1.002,9.677L1,19.52c0,0.694,0.565,1.261,1.262,1.261h13.387c-0.139,0.956-0.255,1.749-0.255,1.749
	c-0.022,0.153,0.05,0.303,0.184,0.388c0.07,0.046,0.152,0.069,0.234,0.069c0.073,0,0.147-0.019,0.212-0.055l2.753-1.529l2.753,1.529
	c0.139,0.078,0.314,0.073,0.447-0.013c0.134-0.085,0.206-0.236,0.184-0.388c0,0-0.733-5.047-0.739-5.066
	C22.377,16.725,23,15.611,23,14.349z M15.833,19.52H2.262l0.002-9.843l3.318-3.317v2.748l2.75-2.748v2.748l2.752-2.748v3.148h4.934
	V4.812l-1.195-1.707h4.758l-1.161,1.662l-0.001,5.591c0.121-0.01,0.237-0.035,0.36-0.035c-2.331,0-4.222,1.803-4.222,4.026
	c0,1.263,0.623,2.377,1.578,3.116C16.132,17.474,15.991,18.437,15.833,19.52z M20.438,17.634c0.03,0.193,0.356,2.433,0.563,3.86
	l-1.737-0.965c-0.151-0.084-0.318-0.126-0.486-0.126c-0.167,0-0.334,0.042-0.486,0.126l-1.737,0.965
	c0.206-1.419,0.53-3.639,0.564-3.853c0.066-0.362-0.075-0.737-0.372-0.968c-0.757-0.586-1.191-1.433-1.191-2.325
	c0-1.668,1.445-3.025,3.222-3.025c1.776,0,3.222,1.357,3.222,3.025c0,0.893-0.433,1.74-1.188,2.324
	C20.516,16.901,20.375,17.272,20.438,17.634z"/>
</svg>
