<?xml version="1.0" encoding="utf-8"?>
<!-- Generator: Adobe Illustrator 24.0.0, SVG Export Plug-In . SVG Version: 6.00 Build 0)  -->
<svg version="1.1" id="Layer" xmlns="http://www.w3.org/2000/svg" xmlns:xlink="http://www.w3.org/1999/xlink" x="0px" y="0px"
	 viewBox="0 0 24 24" enable-background="new 0 0 24 24" xml:space="preserve">
<g display="none">
	<path display="inline" fill="#231F20" d="M23,14.349c0-2.223-1.89-4.026-4.222-4.026c0.269,0,0.529,0.03,0.784,0.075V4.852
		c0-0.562-0.342-1.064-0.862-1.275l-6.187-2.477C12.346,1.035,12.173,1,12,1s-0.346,0.035-0.513,0.101L5.3,3.577
		C4.78,3.788,4.438,4.29,4.438,4.852v16.773C4.438,22.383,5.052,23,5.812,23h4.125c0.76,0,1.375-0.617,1.375-1.375V20.25h1.375
		v1.375c0,0.758,0.615,1.375,1.375,1.375h4.125c0.691,0,1.256-0.511,1.355-1.173l1.989,1.105c0.139,0.078,0.314,0.073,0.447-0.013
		c0.134-0.085,0.206-0.236,0.184-0.388c0,0-0.733-5.047-0.739-5.066C22.377,16.725,23,15.611,23,14.349z M15.526,21.625h-1.464
		v-2.062c0-0.382-0.309-0.688-0.688-0.688h-2.75c-0.379,0-0.688,0.306-0.688,0.688v2.062H5.812V4.852L12,2.375l6.188,2.477v5.514
		c-1.161,0.157-2.167,0.766-2.825,1.634h-1.988v1.375h1.32c0,0,0-0.001,0-0.001c-0.082,0.314-0.139,0.637-0.139,0.975
		c0,0.136,0.01,0.269,0.025,0.401h-1.206v1.375H15c0,0,0,0,0,0c0.275,0.519,0.664,0.976,1.135,1.34
		C16.128,17.485,15.467,22.028,15.526,21.625z M20.438,17.634c0.03,0.193,0.356,2.433,0.563,3.86l-1.737-0.965
		c-0.151-0.084-0.318-0.126-0.486-0.126c-0.167,0-0.334,0.042-0.486,0.126l-1.737,0.965c0.206-1.419,0.53-3.639,0.564-3.853
		c0.066-0.362-0.075-0.737-0.372-0.968c-0.757-0.586-1.191-1.433-1.191-2.325c0-1.668,1.445-3.025,3.222-3.025
		c1.776,0,3.222,1.357,3.222,3.025c0,0.893-0.433,1.74-1.188,2.324C20.516,16.901,20.375,17.272,20.438,17.634z"/>
	<path display="inline" fill="#231F20" d="M13.375,7.875h1.908c0.399-0.001,0.666-0.128,0.894-0.456L16.812,6.5h-3.438V7.875z"/>
	<path display="inline" fill="#231F20" d="M13.375,10.625h1.908c0.399-0.001,0.666-0.128,0.894-0.456l0.635-0.919h-3.438V10.625z"/>
	<path display="inline" fill="#231F20" d="M7.188,10.625h1.908c0.399-0.001,0.666-0.128,0.894-0.456l0.635-0.919H7.188V10.625z"/>
	<path display="inline" fill="#231F20" d="M7.188,7.875h1.908C9.495,7.874,9.762,7.747,9.99,7.419L10.625,6.5H7.188V7.875z"/>
	<path display="inline" fill="#231F20" d="M7.188,16.125h1.908c0.399-0.001,0.666-0.128,0.894-0.456l0.635-0.919H7.188V16.125z"/>
	<path display="inline" fill="#231F20" d="M7.188,13.375h1.908c0.399-0.001,0.666-0.128,0.894-0.456L10.625,12H7.188V13.375z"/>
</g>
<g>
	<path fill="#231F20" d="M23,14.349c0-2.223-1.866-3.724-3.438-3.951V4.852c0-0.562-0.342-1.064-0.862-1.275l-6.187-2.477
		C12.346,1.035,12.173,1,12,1s-0.346,0.035-0.513,0.101L5.3,3.577C4.78,3.788,4.438,4.29,4.438,4.852v16.773
		C4.438,22.383,5.052,23,5.812,23h4.125c0.76,0,1.375-0.617,1.375-1.375V20.25h1.375v1.375c0,0.758,0.615,1.375,1.375,1.375h4.125
		c0.691,0,1.256-0.511,1.355-1.173l1.989,1.105c0.139,0.078,0.314,0.073,0.447-0.013c0.134-0.085,0.206-0.236,0.184-0.388
		c0,0-0.733-5.047-0.739-5.066C22.377,16.725,23,15.611,23,14.349z M15.526,21.625h-1.464v-2.062c0-0.382-0.309-0.688-0.688-0.688
		h-2.75c-0.379,0-0.688,0.306-0.688,0.688v2.062H5.812V4.852L12,2.375l6.188,2.477v5.514c-1.161,0.157-2.167,0.766-2.825,1.634
		h-1.988v1.375h1.32c0,0,0-0.001,0-0.001c-0.082,0.314-0.139,0.637-0.139,0.975c0,0.136,0.01,0.269,0.025,0.401h-1.206v1.375H15
		c0,0,0,0,0,0c0.275,0.519,0.664,0.976,1.135,1.34C16.128,17.485,15.467,22.028,15.526,21.625z M20.438,17.634
		c0.03,0.193,0.356,2.433,0.563,3.86l-1.737-0.965c-0.151-0.084-0.318-0.126-0.486-0.126c-0.167,0-0.334,0.042-0.486,0.126
		l-1.737,0.965c0.206-1.419,0.53-3.639,0.564-3.853c0.066-0.362-0.075-0.737-0.372-0.968c-0.757-0.586-1.191-1.433-1.191-2.325
		c0-1.668,1.445-3.025,3.222-3.025c1.776,0,3.222,1.357,3.222,3.025c0,0.893-0.433,1.74-1.188,2.324
		C20.516,16.901,20.375,17.272,20.438,17.634z"/>
	<path fill="#231F20" d="M13.375,7.875h1.908c0.399-0.001,0.666-0.128,0.894-0.456L16.812,6.5h-3.438V7.875z"/>
	<path fill="#231F20" d="M13.375,10.625h1.908c0.399-0.001,0.666-0.128,0.894-0.456l0.635-0.919h-3.438V10.625z"/>
	<path fill="#231F20" d="M7.188,10.625h1.908c0.399-0.001,0.666-0.128,0.894-0.456l0.635-0.919H7.188V10.625z"/>
	<path fill="#231F20" d="M7.188,7.875h1.908C9.495,7.874,9.762,7.747,9.99,7.419L10.625,6.5H7.188V7.875z"/>
	<path fill="#231F20" d="M7.188,16.125h1.908c0.399-0.001,0.666-0.128,0.894-0.456l0.635-0.919H7.188V16.125z"/>
	<path fill="#231F20" d="M7.188,13.375h1.908c0.399-0.001,0.666-0.128,0.894-0.456L10.625,12H7.188V13.375z"/>
</g>
</svg>
