<?xml version="1.0" encoding="utf-8"?>
<!-- Generator: Adobe Illustrator 24.0.0, SVG Export Plug-In . SVG Version: 6.00 Build 0)  -->
<svg version="1.1" id="Layer" xmlns="http://www.w3.org/2000/svg" xmlns:xlink="http://www.w3.org/1999/xlink" x="0px" y="0px"
	 viewBox="0 0 24 24" enable-background="new 0 0 24 24" xml:space="preserve">
<g display="none">
	<g display="inline">
		<defs>
			<rect id="SVGID_1_" width="24" height="24"/>
		</defs>
		<clipPath id="SVGID_2_">
			<use xlink:href="#SVGID_1_"  overflow="visible"/>
		</clipPath>
		<g clip-path="url(#SVGID_2_)">
			<defs>
				<rect id="SVGID_3_" width="24" height="24"/>
			</defs>
			<clipPath id="SVGID_4_">
				<use xlink:href="#SVGID_3_"  overflow="visible"/>
			</clipPath>
			<path clip-path="url(#SVGID_4_)" fill="#231F20" d="M10.625,14.75L9.99,15.669c-0.228,0.328-0.495,0.455-0.894,0.456H7.188V14.75
				H10.625z M10.625,12L9.99,12.919c-0.228,0.328-0.495,0.455-0.894,0.456H7.188V12H10.625z M10.625,9.25L9.99,10.169
				c-0.228,0.328-0.495,0.455-0.894,0.456H7.188V9.25H10.625z M16.812,14.75l-0.635,0.919c-0.228,0.328-0.495,0.455-0.894,0.456
				h-1.908V14.75H16.812z M16.812,12l-0.635,0.919c-0.228,0.328-0.495,0.455-0.894,0.456h-1.908V12H16.812z M16.812,9.25
				l-0.635,0.919c-0.228,0.328-0.495,0.455-0.894,0.456h-1.908V9.25H16.812z M10.625,6.5L9.99,7.419
				C9.762,7.747,9.495,7.874,9.095,7.875H7.188V6.5H10.625z M16.812,6.5l-0.635,0.919c-0.228,0.328-0.495,0.455-0.894,0.456h-1.908
				V6.5H16.812z M18.7,3.577l-6.188-2.476C12.346,1.035,12.174,1,12,1c-0.174,0-0.347,0.035-0.513,0.101L5.3,3.577
				C4.78,3.788,4.438,4.29,4.438,4.852v16.773C4.438,22.383,5.052,23,5.812,23h4.125c0.76,0,1.375-0.617,1.375-1.375V20.25h1.375
				v1.375c0,0.758,0.615,1.375,1.375,1.375h4.125c0.76,0,1.375-0.617,1.375-1.375V4.852C19.562,4.29,19.22,3.788,18.7,3.577
				 M18.188,21.625h-4.125v-2.063c0-0.381-0.309-0.687-0.687-0.687h-2.75c-0.379,0-0.688,0.306-0.688,0.687v2.063H5.812V4.852
				L12,2.375l6.187,2.477V21.625z"/>
		</g>
	</g>
</g>
<g>
	<path fill="#231F20" d="M4.48,17.416v-4.49L3.483,13.61c-0.291,0.204-0.422,0.46-0.423,0.819v4.488l0.992-0.679
		C4.342,18.035,4.479,17.772,4.48,17.416z"/>
	<path fill="#231F20" d="M9.651,17.416v-4.49L8.657,13.61c-0.294,0.204-0.425,0.46-0.426,0.819v4.488l0.996-0.679
		C9.519,18.031,9.65,17.777,9.651,17.416z"/>
	<path fill="#231F20" d="M11.29,6.146c0,0.394,0.317,0.716,0.71,0.716s0.71-0.322,0.71-0.716c0-0.39-0.317-0.708-0.71-0.708
		S11.29,5.757,11.29,6.146z"/>
	<path fill="#231F20" d="M23,9.769l-0.019-0.258c-0.016-0.264-0.109-0.424-0.338-0.589L12,1.395L1.354,8.882
		C1.11,9.047,1.019,9.217,1.009,9.501L1,9.646v1.331h15.482c-0.824,0.512-1.434,1.293-1.726,2.21l-0.38-0.261v4.489
		c0.001,0.363,0.134,0.619,0.424,0.823l0.999,0.68v-1.742c0.107,0.101,0.218,0.198,0.335,0.288
		c-0.004,0.013-0.285,1.936-0.499,3.408H2.995c-0.516,0-0.812,0.149-1.092,0.551l-0.61,0.869h14.137
		c-0.022,0.149-0.035,0.237-0.035,0.237c-0.022,0.153,0.05,0.303,0.184,0.388c0.07,0.046,0.152,0.069,0.234,0.069
		c0.073,0,0.147-0.019,0.212-0.055l1.151-0.639h3.204l1.151,0.639c0.139,0.078,0.314,0.073,0.447-0.013
		c0.134-0.085,0.206-0.236,0.184-0.388c0,0-0.013-0.089-0.034-0.237h0.58l-0.611-0.869c-0.037-0.054-0.077-0.092-0.116-0.137
		c-0.217-1.496-0.554-3.81-0.558-3.823C22.377,16.725,23,15.611,23,14.349c0-1.414-0.768-2.653-1.925-3.372H23V9.769z M22,14.349
		c0,0.893-0.433,1.74-1.188,2.324c-0.295,0.229-0.436,0.6-0.374,0.961c0.03,0.193,0.356,2.433,0.563,3.86l-1.737-0.965
		c-0.151-0.084-0.318-0.126-0.486-0.126c-0.167,0-0.334,0.042-0.486,0.126l-1.737,0.965c0.206-1.419,0.53-3.639,0.564-3.853
		c0.066-0.362-0.075-0.737-0.372-0.968c-0.757-0.586-1.191-1.433-1.191-2.325c0-1.668,1.445-3.025,3.222-3.025
		C20.555,11.323,22,12.681,22,14.349z M2.866,9.554l9.131-6.425l9.079,6.425H2.866z"/>
</g>
</svg>
