<?xml version="1.0" encoding="utf-8"?>
<!-- Generator: Adobe Illustrator 24.0.0, SVG Export Plug-In . SVG Version: 6.00 Build 0)  -->
<svg version="1.1" id="Layer" xmlns="http://www.w3.org/2000/svg" xmlns:xlink="http://www.w3.org/1999/xlink" x="0px" y="0px"
	 viewBox="0 0 24 24" enable-background="new 0 0 24 24" xml:space="preserve">
<g>
	<path fill="#231F20" d="M4.724,16.125h1.908c0.399-0.001,0.666-0.128,0.894-0.456l0.635-0.919H4.724V16.125z"/>
	<path fill="#231F20" d="M4.724,12v1.375h1.908c0.399-0.001,0.666-0.128,0.894-0.456L8.162,12H4.724z"/>
	<path fill="#231F20" d="M4.724,9.25v1.375h1.908c0.399-0.001,0.666-0.128,0.894-0.456L8.162,9.25H4.724z"/>
	<path fill="#231F20" d="M4.724,6.5v1.375h1.908c0.399-0.001,0.666-0.128,0.894-0.456L8.162,6.5H4.724z"/>
	<path fill="#231F20" d="M15.724,18.67v0.64v0.376v1.94h-4.125v-2.062c0-0.382-0.309-0.688-0.688-0.688h-2.75
		c-0.379,0-0.688,0.306-0.688,0.688v2.062H3.349V4.852l6.188-2.477l1.674,0.657l0,0l0.218,0.088
		c0.372,0.143,0.665,0.124,0.997-0.098l0.921-0.614l-2.769-1.1v0.005l-0.528-0.211C9.883,1.035,9.71,1,9.537,1
		C9.363,1,9.191,1.035,9.024,1.101L2.837,3.577C2.317,3.788,1.974,4.29,1.974,4.852v16.773C1.974,22.383,2.589,23,3.349,23h4.125
		c0.76,0,1.375-0.617,1.375-1.375V20.25h1.375v1.375c0,0.758,0.615,1.375,1.375,1.375h4.125c0.76,0,1.375-0.617,1.375-1.375v-0.857
		v-1.703v-1.94l-0.917,0.642C15.852,17.998,15.726,18.267,15.724,18.67z"/>
	<path fill="#231F20" d="M18.845,4.606c-0.068-0.097-0.148-0.153-0.23-0.215c-0.143-0.117-0.311-0.196-0.516-0.221L17.79,4.152v11
		l0.919-0.643c0.328-0.229,0.455-0.498,0.456-0.902v-6.17l0.74,1.055c0.232,0.327,0.492,0.476,0.895,0.476h1.119L18.845,4.606z"/>
	<path fill="#231F20" d="M14.765,14.914c0.143,0.117,0.31,0.196,0.516,0.221l0.309,0.018v-11L14.67,4.795
		c-0.328,0.229-0.455,0.498-0.456,0.902v6.17l-0.74-1.055c-0.232-0.327-0.492-0.476-0.895-0.476h-1.119l3.074,4.362
		C14.603,14.796,14.683,14.853,14.765,14.914z"/>
	<rect x="10.912" y="6.5" fill="#231F20" width="1.367" height="1.375"/>
	<path fill="#231F20" d="M10.912,16.125h1.337c0.253-0.001,0.863,0,1.058,0l-0.981-1.375h-1.414V16.125z"/>
</g>
</svg>
