<?xml version="1.0" encoding="utf-8"?>
<!-- Generator: Adobe Illustrator 24.0.0, SVG Export Plug-In . SVG Version: 6.00 Build 0)  -->
<svg version="1.1" id="Layer" xmlns="http://www.w3.org/2000/svg" xmlns:xlink="http://www.w3.org/1999/xlink" x="0px" y="0px"
	 viewBox="0 0 24 24" enable-background="new 0 0 24 24" xml:space="preserve">
<path fill="#231F20" d="M8.162,14.75l-0.635,0.919c-0.228,0.328-0.495,0.455-0.894,0.456H4.724V14.75H8.162z"/>
<path fill="#231F20" d="M8.162,12l-0.635,0.919c-0.228,0.328-0.495,0.455-0.894,0.456H4.724V12H8.162z"/>
<path fill="#231F20" d="M8.162,9.25l-0.635,0.919c-0.228,0.328-0.495,0.455-0.894,0.456H4.724V9.25H8.162z"/>
<path fill="#231F20" d="M14.349,14.75l-0.635,0.919c-0.228,0.328-0.495,0.455-0.894,0.456h-1.908V14.75H14.349z"/>
<path fill="#231F20" d="M14.349,12l-0.635,0.919c-0.228,0.328-0.495,0.455-0.894,0.456h-1.908V12H14.349z"/>
<path fill="#231F20" d="M8.162,6.5L7.527,7.419C7.298,7.747,7.031,7.874,6.632,7.875H4.724V6.5H8.162z"/>
<path fill="#231F20" d="M18.131,1.949c-2.085,0-3.781,1.696-3.781,3.781c0,2.086,1.696,3.781,3.781,3.781s3.781-1.695,3.781-3.781
	C21.912,3.646,20.216,1.949,18.131,1.949z M18.131,8.137c-1.327,0-2.406-1.08-2.406-2.406c0-1.327,1.08-2.406,2.406-2.406
	c1.327,0,2.406,1.079,2.406,2.406C20.537,7.057,19.457,8.137,18.131,8.137z"/>
<path fill="#231F20" d="M16.182,11.081c-0.33,0.231-0.456,0.5-0.458,0.902v1.015v5.69v2.935h-4.125v-2.062
	c0-0.382-0.309-0.688-0.688-0.688h-2.75c-0.379,0-0.688,0.306-0.688,0.688v2.062H3.349V4.852l6.188-2.477l2.728,1.092l0,0
	l0.218,0.088c0.372,0.143,0.665,0.124,0.997-0.098l0.921-0.614l-3.823-1.535v0.005l-0.528-0.211C9.883,1.035,9.71,1,9.537,1
	C9.363,1,9.191,1.035,9.024,1.101L2.837,3.577C2.317,3.788,1.974,4.29,1.974,4.852v16.773C1.974,22.383,2.589,23,3.349,23h4.125
	c0.76,0,1.375-0.617,1.375-1.375V20.25h1.375v1.375c0,0.758,0.615,1.375,1.375,1.375h4.125c0.76,0,1.375-0.617,1.375-1.375v-4.48
	v-4.146v-2.56L16.182,11.081z"/>
<path fill="#231F20" d="M12.68,6.5h-1.768v1.375h1.908c0.082,0,0.155-0.01,0.226-0.021C12.868,7.428,12.746,6.973,12.68,6.5z"/>
<path fill="#231F20" d="M13.99,9.25h-3.079v1.375h1.908c0.399-0.001,0.666-0.128,0.894-0.456l0.48-0.695
	C14.124,9.402,14.057,9.326,13.99,9.25z"/>
</svg>
