<?xml version="1.0" encoding="utf-8"?>
<!-- Generator: Adobe Illustrator 24.3.0, SVG Export Plug-In . SVG Version: 6.00 Build 0)  -->
<svg version="1.1" id="Layer" xmlns="http://www.w3.org/2000/svg" xmlns:xlink="http://www.w3.org/1999/xlink" x="0px" y="0px"
	 viewBox="0 0 24 24" enable-background="new 0 0 24 24" xml:space="preserve">
<path fill="#231F20" d="M17.752,18.605c0.201-0.198,0.39-0.404,0.566-0.623c0.055-0.069,0.108-0.138,0.16-0.209
	c0.205-0.274,0.389-0.556,0.551-0.849c0.009-0.017,0.02-0.033,0.029-0.05c0.478-0.883,0.761-1.829,0.761-2.72
	c0-0.038-0.008-0.074-0.009-0.112l0.009-0.006V5.037c0-0.562-0.354-1.063-0.892-1.274l-1.899-0.735l0,0l-3.953-1.535v0.005
	l-0.546-0.211c-0.172-0.065-0.351-0.101-0.53-0.101c-0.179,0-0.358,0.035-0.53,0.101l-0.546,0.211V1.492L6.972,3.027l0,0
	L5.073,3.762C4.536,3.973,4.182,4.475,4.182,5.037l-0.001,9.117c0,0,0,0,0,0s0,0,0,0v0.23l0.014,0.01
	c0.099,1.87,1.337,3.94,3.142,5.109v0.004l4.681,3.307l4.613-3.259v-0.023c0.031-0.02,0.056-0.047,0.087-0.068
	c0.285-0.188,0.552-0.401,0.806-0.63C17.604,18.762,17.675,18.682,17.752,18.605z M12.017,20.962c-0.154,0-0.309-0.056-0.462-0.164
	l-0.557-0.393c0.008-0.001,0.016-0.001,0.023-0.001L8.078,18.34c-1.311-0.848-2.259-2.301-2.471-3.616H5.603v-0.021
	c0-0.003,0-0.006-0.001-0.009l0-0.971c0-0.002,0-0.005,0.001-0.007v-3.457c0,0,0,0,0,0.001l0-5.222L8.954,3.74c0,0,0,0,0.001,0
	l0.068-0.026L9.18,3.652l2.82-1.092l2.82,1.092l0.158,0.061l0.068,0.026c0,0,0,0,0.001,0l3.351,1.297v9.682
	c-0.213,1.328-1.172,2.811-2.505,3.657v0.011l-3.414,2.412C12.326,20.906,12.172,20.962,12.017,20.962z"/>
<g>
	<rect x="6.954" y="5.954" fill="#231F20" width="1.151" height="1.515"/>
	<path fill="#231F20" d="M12,19.697v-1.38l-1.891-1.325c-1.061-0.687-1.829-1.863-2.001-2.928H8.106v-0.017
		c0-0.002,0-0.005-0.001-0.007l0-0.786c0-0.002,0-0.004,0.001-0.006v-2.799c0,0,0,0,0,0l0-1.164H6.955l0,4.318c0,0,0,0,0,0
		c0,0,0,0,0,0v0.187l0.012,0.008c0.08,1.514,1.082,3.19,2.544,4.136v0.003L12,19.697z"/>
</g>
</svg>
