<?xml version="1.0" encoding="utf-8"?>
<!-- Generator: Adobe Illustrator 27.4.1, SVG Export Plug-In . SVG Version: 6.00 Build 0)  -->
<svg version="1.1" id="Layer" xmlns="http://www.w3.org/2000/svg" xmlns:xlink="http://www.w3.org/1999/xlink" x="0px" y="0px"
	 viewBox="0 0 24 24" enable-background="new 0 0 24 24" xml:space="preserve">
<path fill="#231F20" d="M20.511,4.055l-0.266-1.442c-0.195-1.063-1.237-1.781-2.323-1.578L5.267,3.606H4.563
	c-1.102,0-2,0.889-2,1.975v2.742v0.429v1.062V11.5v2.2c0,1.089,0.898,1.975,2,1.975l2.261,0.021l0.002,4.554H6.561
	c-0.285-0.798-1.041-1.375-1.937-1.375c-1.138,0-2.062,0.925-2.062,2.062C2.562,22.075,3.487,23,4.624,23
	c0.896,0,1.651-0.577,1.937-1.375h0.952c0.183,0,0.356-0.072,0.485-0.201s0.202-0.304,0.202-0.486l-0.002-5.229l3.152,0.029v3.263
	c-0.798,0.285-1.375,1.041-1.375,1.936c0,1.138,0.925,2.062,2.062,2.062s2.062-0.925,2.062-2.062c0-0.896-0.577-1.651-1.375-1.936
	V15.75l3.076,0.029v5.159c0,0.183,0.072,0.357,0.201,0.486s0.304,0.201,0.486,0.201h0.95C17.724,22.423,18.48,23,19.376,23
	c1.138,0,2.062-0.925,2.062-2.062s-0.925-2.062-2.062-2.062c-0.896,0-1.651,0.577-1.937,1.375h-0.263v-4.458l2.262,0.021
	c1.102,0,2-0.886,2-1.975v-2.2V9.951V8.89V8.461V5.719C21.438,5.021,21.065,4.41,20.511,4.055z M4.624,21.625
	c-0.38,0-0.688-0.308-0.688-0.688c0-0.38,0.308-0.688,0.688-0.688s0.688,0.308,0.688,0.688C5.312,21.317,5.004,21.625,4.624,21.625z
	 M12.038,21.625c-0.38,0-0.688-0.308-0.688-0.688s0.308-0.688,0.688-0.688s0.688,0.308,0.688,0.688S12.418,21.625,12.038,21.625z
	 M19.376,20.25c0.38,0,0.688,0.308,0.688,0.688c0,0.38-0.308,0.688-0.688,0.688c-0.38,0-0.688-0.308-0.688-0.688
	C18.688,20.558,18.996,20.25,19.376,20.25z M18.169,2.379c0.334-0.055,0.666,0.161,0.723,0.483l0.143,0.882l-6.727-0.1L18.169,2.379
	z M20.063,8.89v1.062v1.687v2.2c0,0.325-0.288,0.602-0.625,0.602L4.563,14.302c-0.337,0-0.625-0.276-0.625-0.602v-2.2V9.813V8.752
	V8.323c0-0.324,0.288-0.595,0.625-0.595l14.875,0.138c0.337,0,0.625,0.271,0.625,0.595V8.89z M20.063,6.602
	c-0.197-0.063-0.406-0.109-0.625-0.109L4.563,6.355c-0.219,0-0.428,0.046-0.625,0.109V5.581c0-0.33,0.288-0.601,0.625-0.601
	l14.875,0.138c0.337,0,0.625,0.271,0.625,0.601V6.602z"/>
</svg>
