<?xml version="1.0" encoding="utf-8"?>
<!-- Generator: Adobe Illustrator 25.2.0, SVG Export Plug-In . SVG Version: 6.00 Build 0)  -->
<svg version="1.1" id="Layer" xmlns="http://www.w3.org/2000/svg" xmlns:xlink="http://www.w3.org/1999/xlink" x="0px" y="0px"
	 viewBox="0 0 24 24" enable-background="new 0 0 24 24" xml:space="preserve">
<path d="M12.397,17.215c-0.496,0.074-1.157,0.115-1.958,0.115c-0.189,0-0.402-0.004-0.617-0.018
	c-0.329-0.057-0.575-0.217-0.752-0.525L8.54,15.828c0.236,0.018,1.278,0.107,1.91,0.107c0.711,0,1.293-0.031,1.729-0.105
	c0.129-0.021,0.228-0.053,0.303-0.109L9.25,14.557c-0.271-0.086-0.577-0.129-0.901-0.129c-1.149,0-2.223,0.52-2.341,0.58
	l-3.009,1.811c-0.33,0.184-0.637,0.203-0.99,0.041l-1.008-0.451c0,0-0.01-0.012,0.019-0.029l4.29-2.596
	c0.146-0.072,1.478-0.756,3.05-0.756c0.46,0,0.894,0.062,1.291,0.178l3.957,1.197c0.272,0.086,0.466,0.324,0.496,0.607
	C14.174,15.777,13.781,16.99,12.397,17.215z M22.912,13.418c-0.288-0.521-0.956-1.133-1.898-1.133c-0.337,0-0.691,0.08-1.052,0.238
	c-0.712,0.318-2.598,1.217-3.807,1.797c-0.275,0.176-0.689,0.512-0.738,0.857l-0.151,1.068c0.063-0.014,0.127-0.016,0.192-0.051
	c0,0,3.964-1.9,5.071-2.391c0.047-0.021,0.098-0.043,0.159-0.043c0.065,0,0.131,0.025,0.206,0.148l-6.834,5.006
	c-0.384,0.283-0.865,0.437-1.352,0.437c-0.116,0-0.232-0.006-0.345-0.025l-6.65-1.053c-0.166,0-0.327,0.059-0.456,0.162
	l-1.273,1.131c-0.307,0.27-0.425,0.568-0.383,0.973c0,0,0.129,1.117,0.168,1.084l2.194-1.906l6.18,0.994
	c0.192,0.027,0.385,0.043,0.578,0.043c0.774,0,1.546-0.25,2.172-0.705l7.83-5.734C23,14.104,23.081,13.725,22.912,13.418z
	 M-8155,2.344H8228 M-8155,12.719H8228 M17.167,3.06c0,0-0.001-0.001-0.001-0.002c-1.235-1.24-3.239-1.241-4.477,0
	c-0.001,0-0.001,0-0.001,0L12.077,3.67l-0.61-0.612c-1.236-1.24-3.242-1.24-4.479,0c-1.235,1.242-1.235,3.252,0,4.495l0.61,0.612
	l4.478,4.491l4.478-4.491l0.611-0.612C18.403,6.31,18.403,4.301,17.167,3.06z M16.298,6.694l-4.22,4.172l-4.304-4.19
	C6.989,5.888,6.989,4.604,7.774,3.814c0.38-0.38,0.885-0.59,1.423-0.59c0.537,0,0.987,0.159,1.367,0.539l1.059,1.028
	c0.118,0.118,0.278,0.184,0.445,0.184h0c0.167,0,0.326-0.065,0.444-0.183l0.941-0.959c0.38-0.381,0.886-0.591,1.423-0.591
	c0.528,0,1.026,0.203,1.403,0.572c0.007,0.008,0.014,0.016,0.021,0.022C17.083,4.624,17.083,5.907,16.298,6.694z"/>
</svg>
