<?xml version="1.0" encoding="utf-8"?>
<!-- Generator: Adobe Illustrator 25.2.0, SVG Export Plug-In . SVG Version: 6.00 Build 0)  -->
<svg version="1.1" id="Layer" xmlns="http://www.w3.org/2000/svg" xmlns:xlink="http://www.w3.org/1999/xlink" x="0px" y="0px"
	 viewBox="0 0 24 24" enable-background="new 0 0 24 24" xml:space="preserve">
<g>
	<path d="M21.739,16.352l0.017-5.186c-0.002-0.161-0.013-0.321-0.037-0.479c-0.099-0.634-0.406-1.234-0.859-1.687l-5.697-5.675
		c-0.21-0.201-0.527-0.219-0.76-0.041c-0.39,0.302-0.802,0.927-0.681,1.699c0.043,0.276,0.151,0.556,0.33,0.831
		c0.351,0.542,1.326,1.972,1.956,2.887c0.184,0.202,0.507,0.498,0.797,0.495l0.894-0.013c-0.021-0.05-0.031-0.102-0.063-0.151
		c0,0-2.067-3.001-2.612-3.844c-0.024-0.036-0.046-0.075-0.054-0.125c-0.008-0.054,0.007-0.111,0.094-0.187l4.976,4.953
		c0.279,0.278,0.472,0.651,0.535,1.05c0.015,0.095,0.02,0.192,0.025,0.285l-0.009,5.58c0.021,0.136,0.085,0.261,0.186,0.353
		l1.092,0.897c0.255,0.218,0.517,0.275,0.844,0.189c0,0,0.896-0.249,0.863-0.276L21.739,16.352z"/>
	<path d="M17.871,16.919c-0.06-0.09-0.628-0.901-0.775-1.842c-0.042-0.266-0.046-0.521-0.012-0.754l0.543-2.796
		c0.053,0.055,0.096,0.131,0.13,0.234c0.11,0.348,0.217,0.82,0.308,1.402c0.081,0.517,0.135,1.383,0.155,1.578l0.712-0.557
		c0.236-0.186,0.33-0.406,0.34-0.684c-0.023-0.176-0.04-0.352-0.065-0.507c-0.103-0.656-0.221-1.192-0.352-1.587
		c-0.355-1.105-1.403-1.27-2.018-1.115c-0.234,0.062-0.405,0.251-0.439,0.484l-0.468,3.392c-0.05,0.341-0.045,0.703,0.014,1.08
		c0.202,1.287,0.934,2.289,1.012,2.4l2.675,3.179c0.018,0.021,0.031,0.011,0.031,0.011l0.24-0.883
		c0.083-0.309,0.026-0.558-0.162-0.805L17.871,16.919z"/>
	<path d="M9.031,5.06c-0.008,0.05-0.03,0.089-0.054,0.125C8.432,6.028,6.365,9.029,6.365,9.029C6.333,9.078,6.323,9.13,6.302,9.18
		l0.894,0.013c0.289,0.004,0.613-0.292,0.797-0.495c0.63-0.915,1.605-2.344,1.956-2.887c0.179-0.275,0.287-0.555,0.33-0.831
		c0.121-0.772-0.291-1.397-0.681-1.699c-0.233-0.178-0.55-0.16-0.76,0.041L3.141,8.999c-0.453,0.454-0.76,1.053-0.859,1.687
		c-0.025,0.158-0.035,0.318-0.037,0.479l0.017,5.186l-1.836,1.553c-0.034,0.027,0.863,0.276,0.863,0.276
		c0.327,0.086,0.589,0.028,0.844-0.189l1.092-0.897c0.101-0.092,0.165-0.217,0.186-0.353l-0.009-5.58
		c0.005-0.093,0.01-0.19,0.025-0.285c0.062-0.399,0.255-0.772,0.535-1.05l4.976-4.953C9.024,4.949,9.039,5.006,9.031,5.06z"/>
	<path d="M7.599,10.774c-0.034-0.233-0.204-0.423-0.439-0.484c-0.615-0.156-1.663,0.009-2.018,1.115
		c-0.131,0.395-0.249,0.932-0.352,1.587c-0.024,0.155-0.042,0.331-0.065,0.507c0.011,0.278,0.104,0.498,0.34,0.684l0.712,0.557
		c0.021-0.195,0.074-1.061,0.155-1.578c0.091-0.582,0.198-1.054,0.308-1.402c0.034-0.103,0.077-0.179,0.13-0.234l0.543,2.796
		c0.034,0.233,0.03,0.488-0.012,0.754c-0.147,0.941-0.715,1.752-0.775,1.842L4.257,19.15c-0.188,0.247-0.245,0.496-0.162,0.805
		l0.24,0.883c0,0,0.013,0.01,0.031-0.011l2.675-3.179c0.078-0.111,0.81-1.113,1.012-2.4c0.059-0.377,0.063-0.74,0.014-1.08
		L7.599,10.774z"/>
</g>
<g>
	<path d="M14.506,10.254C14.506,10.254,14.505,10.254,14.506,10.254c-0.602-0.605-1.578-0.605-2.181-0.001c0,0,0,0,0,0l-0.298,0.298
		l-0.297-0.298c-0.602-0.604-1.579-0.604-2.181,0c-0.602,0.605-0.602,1.584,0,2.189l0.297,0.298l2.181,2.187l2.181-2.187
		l0.298-0.298C15.108,11.837,15.108,10.859,14.506,10.254z"/>
</g>
</svg>
