<?xml version="1.0" encoding="utf-8"?>
<!-- Generator: Adobe Illustrator 25.2.3, SVG Export Plug-In . SVG Version: 6.00 Build 0)  -->
<svg version="1.1" id="Layer" xmlns="http://www.w3.org/2000/svg" xmlns:xlink="http://www.w3.org/1999/xlink" x="0px" y="0px"
	 viewBox="0 0 24 24" enable-background="new 0 0 24 24" xml:space="preserve">
<g>
	<path fill="#231F20" d="M22.912,13.128c-0.288-0.521-0.956-1.129-1.898-1.129c-0.337,0-0.691,0.076-1.052,0.238
		c-0.712,0.317-2.598,1.213-3.807,1.793c-0.275,0.182-0.688,0.512-0.738,0.857l-0.151,1.068c0.063-0.016,0.127-0.018,0.192-0.047
		c0,0,3.964-1.904,5.071-2.396c0.047-0.021,0.098-0.041,0.159-0.041c0.065,0,0.131,0.029,0.206,0.146l-6.833,5.008
		c-0.384,0.281-0.865,0.441-1.352,0.441c-0.116,0-0.232-0.012-0.345-0.023l-6.65-1.053c-0.166,0-0.327,0.053-0.456,0.156
		l-1.273,1.135c-0.309,0.265-0.427,0.566-0.385,0.972c0,0,0.129,1.115,0.168,1.08l2.194-1.898l6.18,0.988
		c0.192,0.027,0.385,0.045,0.578,0.045c0.774,0,1.546-0.254,2.172-0.709l7.83-5.732C23,13.813,23.081,13.438,22.912,13.128z"/>
	<path fill="#231F20" d="M8.349,14.138c0.324,0,0.63,0.043,0.901,0.127l3.232,1.17c-0.075,0.052-0.174,0.09-0.303,0.111
		c-0.436,0.066-1.018,0.105-1.729,0.105c-0.632,0-1.674-0.097-1.91-0.109l0.53,0.953c0.177,0.316,0.423,0.469,0.752,0.533
		c0.215,0.006,0.428,0.018,0.617,0.018c0.801,0,1.462-0.041,1.958-0.123c1.384-0.217,1.777-1.436,1.707-2.198
		c-0.03-0.291-0.224-0.529-0.496-0.613l-3.957-1.191c-0.397-0.124-0.831-0.186-1.291-0.186c-1.572,0-2.904,0.686-3.05,0.758
		l-4.29,2.596c-0.029,0.017-0.019,0.035-0.019,0.035l1.008,0.451c0.353,0.156,0.66,0.135,0.99-0.043l3.009-1.814
		C6.126,14.663,7.2,14.138,8.349,14.138z"/>
	<path fill="#231F20" d="M17.944,10.01h2.406c0.421-0.001,0.701-0.133,0.942-0.478l0.67-0.958h-5.631l0.67,0.958
		C17.243,9.876,17.524,10.008,17.944,10.01z"/>
	<path fill="#231F20" d="M6.023,11.085c2.036,0,3.701-1.519,3.967-3.482h11.973l-0.67-0.958C21.051,6.3,20.771,6.168,20.35,6.167
		H9.936C9.527,4.379,7.934,3.042,6.023,3.042c-2.221,0-4.021,1.8-4.021,4.021S3.802,11.085,6.023,11.085z M6.023,4.478
		c1.428,0,2.585,1.158,2.585,2.585c0,1.428-1.158,2.585-2.585,2.585S3.437,8.492,3.437,7.064C3.437,5.636,4.595,4.478,6.023,4.478z"
		/>
</g>
</svg>
