<?xml version="1.0" encoding="utf-8"?>
<!-- Generator: Adobe Illustrator 25.2.3, SVG Export Plug-In . SVG Version: 6.00 Build 0)  -->
<svg version="1.1" id="Layer" xmlns="http://www.w3.org/2000/svg" xmlns:xlink="http://www.w3.org/1999/xlink" x="0px" y="0px"
	 viewBox="0 0 24 24" enable-background="new 0 0 24 24" xml:space="preserve">
<g>
	<path fill="#231F20" d="M21.233,20.509L21.233,20.509l-0.003,0h-0.892h-1.609l0.67,0.958c0.241,0.344,0.52,0.476,0.939,0.478v0
		h0.003h0.892h1.609l-0.67-0.958C21.932,20.643,21.652,20.511,21.233,20.509z"/>
	<path fill="#231F20" d="M4.507,12.309c-0.408,0-0.738,0.33-0.738,0.738v5.234c0,0.408,0.33,0.738,0.738,0.738
		c0.408,0,0.738-0.33,0.738-0.738v-5.234C5.245,12.639,4.914,12.309,4.507,12.309z"/>
	<path fill="#231F20" d="M22.555,5.502l-0.996-0.697h-1.973H8.491V3.548L7.794,2.552c-0.251-0.359-0.542-0.496-0.98-0.497H2.668
		C2.23,2.057,1.939,2.194,1.688,2.552L0.991,3.548v16.961v1.436h1.493h4.514h1.493h6.005l-0.67-0.958
		c-0.241-0.345-0.522-0.477-0.942-0.478H8.491V10.305h11.095h1.973l0.996-0.697c0.359-0.251,0.496-0.542,0.497-0.98V6.481
		C23.051,6.044,22.914,5.753,22.555,5.502z M6.998,20.509H2.484V3.548h4.514v1.257H5.671L4.675,5.502
		C4.317,5.753,4.18,6.044,4.178,6.481v2.147c0.001,0.437,0.138,0.729,0.497,0.98l0.996,0.697h1.327V20.509z M7.109,6.298
		L5.671,7.735V6.298H7.109z M7.644,8.812H6.706L9.22,6.298h2.462L9.168,8.812H7.644z M11.28,8.812l2.514-2.514h2.417l-2.514,2.514
		H11.28z M18.271,8.812h-2.463l2.514-2.514h1.264h1.199L18.271,8.812z M21.559,8.812h-1.177l1.177-1.177V8.812z"/>
</g>
</svg>
