<?xml version="1.0" encoding="utf-8"?>
<!-- Generator: Adobe Illustrator 25.3.1, SVG Export Plug-In . SVG Version: 6.00 Build 0)  -->
<svg version="1.1" id="Layer_3" xmlns="http://www.w3.org/2000/svg" xmlns:xlink="http://www.w3.org/1999/xlink" x="0px" y="0px"
	 viewBox="0 0 24 24" enable-background="new 0 0 24 24" xml:space="preserve">
<g>
	<rect x="11.528" y="3.539" fill="#231F20" width="1.481" height="1.375"/>
	<path fill="#231F20" d="M17.436,4.914h0.031c0.399-0.001,0.666-0.128,0.894-0.456l0.635-0.919h-1.56h-0.877h-0.031
		c-0.399,0.001-0.666,0.128-0.894,0.456l-0.635,0.919h1.56H17.436z"/>
	<path fill="#231F20" d="M20.61,0.991H3.359c-0.76,0-1.375,0.617-1.375,1.375L1.982,21.618c0.001,0.758,0.615,1.375,1.375,1.375
		h13.472h0.654h3.124c0.76,0,1.375-0.617,1.375-1.375l0.002-19.252C21.984,1.608,21.37,0.991,20.61,0.991z M20.608,21.618h-3.125
		h-0.654H3.357L3.359,7.417H20.61L20.608,21.618z M20.61,6.042H3.359l0-3.677h10.143h7.108L20.61,6.042z"/>
	<path fill="#231F20" d="M12,19.998c3.045,0,5.513-2.468,5.513-5.513c0-3.045-2.468-5.513-5.513-5.513
		c-3.045,0-5.513,2.468-5.513,5.513C6.487,17.53,8.955,19.998,12,19.998z M12,10.366c2.151,0,3.897,1.655,4.083,3.758
		c-1.242,0.54-2.609,0.42-3.705-0.214c-1.268-0.767-2.821-1.007-4.306-0.6C8.58,11.612,10.136,10.366,12,10.366z M11.557,15.041
		c1.283,0.789,2.866,1.035,4.375,0.61c-0.505,1.703-2.064,2.954-3.932,2.954c-2.156,0-3.905-1.662-4.084-3.771
		C9.137,14.313,10.475,14.429,11.557,15.041z"/>
</g>
</svg>
