<?xml version="1.0" encoding="iso-8859-1"?>
<!-- Generator: Adobe Illustrator 16.0.0, SVG Export Plug-In . SVG Version: 6.00 Build 0)  -->
<!DOCTYPE svg PUBLIC "-//W3C//DTD SVG 1.1//EN" "http://www.w3.org/Graphics/SVG/1.1/DTD/svg11.dtd">
<svg version="1.1" id="Layer" xmlns="http://www.w3.org/2000/svg" xmlns:xlink="http://www.w3.org/1999/xlink" x="0px" y="0px"
	 width="24px" height="24px" viewBox="0 0 24 24" style="enable-background:new 0 0 24 24;" xml:space="preserve">
<path style="fill:#231F20;" d="M20.25,7.875h-1.375V1.688c0-0.38-0.308-0.688-0.688-0.688H5.812c-0.38,0-0.688,0.308-0.688,0.688
	v6.188H3.75C2.233,7.875,1,9.109,1,10.625v5.5c0,1.516,1.233,2.75,2.75,2.75h1.375v2.75C5.125,22.385,5.741,23,6.5,23h11
	c0.759,0,1.375-0.615,1.375-1.375v-2.75h1.375c1.517,0,2.75-1.234,2.75-2.75v-5.5C23,9.109,21.767,7.875,20.25,7.875z M6.5,2.375h11
	v5.5h-11V2.375z M17.5,21.625h-11V14.75h11V21.625z M21.625,16.125c0,0.759-0.617,1.375-1.375,1.375h-1.375v-2.75
	c0-0.76-0.616-1.375-1.375-1.375h-11c-0.759,0-1.375,0.615-1.375,1.375v2.75H3.75c-0.758,0-1.375-0.616-1.375-1.375v-5.5
	c0-0.759,0.617-1.375,1.375-1.375h16.5c0.758,0,1.375,0.616,1.375,1.375V16.125z"/>
</svg>
