<?xml version="1.0" encoding="iso-8859-1"?>
<!-- Generator: Adobe Illustrator 16.0.0, SVG Export Plug-In . SVG Version: 6.00 Build 0)  -->
<!DOCTYPE svg PUBLIC "-//W3C//DTD SVG 1.1//EN" "http://www.w3.org/Graphics/SVG/1.1/DTD/svg11.dtd">
<svg version="1.1" id="Layer" xmlns="http://www.w3.org/2000/svg" xmlns:xlink="http://www.w3.org/1999/xlink" x="0px" y="0px"
	 width="16px" height="16px" viewBox="0 0 16 16" style="enable-background:new 0 0 16 16;" xml:space="preserve">
<path style="fill:#231F20;" d="M14,5h-1V0.5C13,0.224,12.776,0,12.5,0h-9C3.224,0,3,0.224,3,0.5V5H2C0.897,5,0,5.897,0,7v4
	c0,1.103,0.897,2,2,2h1v2c0,0.553,0.448,1,1,1h8c0.552,0,1-0.447,1-1v-2h1c1.103,0,2-0.897,2-2V7C16,5.897,15.103,5,14,5z M4,1h8v4
	H4V1z M12,15H4v-5h8V15z M15,11c0,0.552-0.449,1-1,1h-1v-2c0-0.553-0.448-1-1-1H4c-0.552,0-1,0.447-1,1v2H2c-0.551,0-1-0.448-1-1V7
	c0-0.552,0.449-1,1-1h12c0.551,0,1,0.448,1,1V11z"/>
</svg>
