<?xml version="1.0" encoding="iso-8859-1"?>
<!-- Generator: Adobe Illustrator 16.0.0, SVG Export Plug-In . SVG Version: 6.00 Build 0)  -->
<!DOCTYPE svg PUBLIC "-//W3C//DTD SVG 1.1//EN" "http://www.w3.org/Graphics/SVG/1.1/DTD/svg11.dtd">
<svg version="1.1" id="Layer_3" xmlns="http://www.w3.org/2000/svg" xmlns:xlink="http://www.w3.org/1999/xlink" x="0px" y="0px"
	 width="16px" height="16px" viewBox="0 0 16 16" style="enable-background:new 0 0 16 16;" xml:space="preserve">
<path style="fill:#231F20;" d="M13.601,3H7.844L6.739,1.457C6.555,1.172,6.239,1,5.899,1h-3.5C1.076,1,0,2.097,0,3.444v9.112
	C0,13.904,1.076,15,2.399,15h11.201C14.924,15,16,13.904,16,12.557v-7.11C16,4.098,14.924,3,13.601,3z M15,12.557
	C15,13.354,14.374,14,13.601,14H2.399C1.626,14,1,13.354,1,12.557V3.444C1,2.646,1.626,2,2.399,2h3.5l1.4,2h6.301
	C14.374,4,15,4.646,15,5.446V12.557z"/>
</svg>
