<?xml version="1.0" encoding="iso-8859-1"?>
<!-- Generator: Adobe Illustrator 16.0.0, SVG Export Plug-In . SVG Version: 6.00 Build 0)  -->
<!DOCTYPE svg PUBLIC "-//W3C//DTD SVG 1.1//EN" "http://www.w3.org/Graphics/SVG/1.1/DTD/svg11.dtd">
<svg version="1.1" id="Layer_3" xmlns="http://www.w3.org/2000/svg" xmlns:xlink="http://www.w3.org/1999/xlink" x="0px" y="0px"
	 width="24px" height="24px" viewBox="0 0 24 24" style="enable-background:new 0 0 24 24;" xml:space="preserve">
<path style="fill:#231F20;" d="M19.701,5.125h-7.915l-1.519-2.121c-0.253-0.393-0.688-0.629-1.155-0.629H4.299
	C2.479,2.375,1,3.883,1,5.736v12.529c0,1.853,1.479,3.359,3.299,3.359h15.401c1.82,0,3.299-1.507,3.299-3.359V8.488
	C23,6.635,21.521,5.125,19.701,5.125z M21.625,18.266c0,1.096-0.861,1.984-1.924,1.984H4.299c-1.063,0-1.924-0.889-1.924-1.984
	V5.736c0-1.098,0.861-1.986,1.924-1.986h4.812l1.925,2.75h8.664c1.063,0,1.924,0.889,1.924,1.988V18.266z"/>
</svg>
