<?xml version="1.0" encoding="iso-8859-1"?>
<!-- Generator: Adobe Illustrator 16.0.0, SVG Export Plug-In . SVG Version: 6.00 Build 0)  -->
<!DOCTYPE svg PUBLIC "-//W3C//DTD SVG 1.1//EN" "http://www.w3.org/Graphics/SVG/1.1/DTD/svg11.dtd">
<svg version="1.1" id="Layer_4" xmlns="http://www.w3.org/2000/svg" xmlns:xlink="http://www.w3.org/1999/xlink" x="0px" y="0px"
	 width="16px" height="16px" viewBox="0 0 16 16" style="enable-background:new 0 0 16 16;" xml:space="preserve">
<path style="fill:#231F20;" d="M15.549,7.886l-2.177-0.018c-0.105-0.625-0.256-1.229-0.476-1.778l1.336-1.912
	c0.087-0.107,0.379-0.588,0.054-0.951c-0.301-0.341-0.795,0.235-0.795,0.235L12.406,5.1c-0.288-0.496-0.618-0.947-0.995-1.324
	c-0.21-1.043-1.66-3.441-3.481-3.441c-1.822,0-3.265,2.291-3.256,3.408C4.675,3.964,3.966,4.57,3.674,5.066L2.812,3.483
	c0,0-0.37-0.57-0.741-0.284c-0.37,0.29-0.142,0.806-0.055,0.908l1.171,1.949c-0.22,0.549-0.385,1.138-0.49,1.763L0.466,7.817
	C0.21,7.817,0,8.068,0,8.373C0,8.685,0.21,8.93,0.466,8.93l2.122,0.002C2.585,9.057,2.571,9.179,2.571,9.304
	c0,1.046,0.18,2.034,0.492,2.925l-1.238,1.72c-0.088,0.105-0.197,0.488,0,0.718c0.247,0.284,0.74-0.144,0.74-0.144l0.945-1.251
	c1.402,1.82,2.53,2.395,4.365,2.395s3.064-0.253,4.696-2.361l1.086,1.251c0,0,0.494,0.428,0.741,0.144
	c0.248-0.286,0.018-0.81-0.07-0.912l-1.31-1.525c0.315-0.891,0.495-1.879,0.495-2.926c0-0.124,0.027-0.247,0.021-0.373l2.129-0.016
	c0.256,0,0.337-0.238,0.337-0.55C16,8.089,15.805,7.886,15.549,7.886z M12.513,9.336c0,0.899-0.147,1.771-0.438,2.593
	c-0.061,0.173-0.222,0.671-0.295,0.764c-1.383,1.787-2.251,1.974-3.905,1.974c-1.375,0-2.26-0.3-3.573-2.005
	c-0.073-0.095-0.236-0.592-0.296-0.764C3.718,11.073,3.571,10.2,3.571,9.304l0.017-0.345c0.005-0.177,0.066-0.795,0.096-0.974
	c0.092-0.549,0.237-1.072,0.432-1.557c0.064-0.16,0.332-0.705,0.42-0.855C4.622,5.427,4.823,5.2,4.985,5.019
	c0.387-0.437,0.692-0.781,0.688-1.283c-0.002-0.318,0.33-1.116,0.938-1.729C6.86,1.756,7.364,1.334,7.93,1.334
	c1.137,0,2.342,1.852,2.501,2.64c0.039,0.192,0.134,0.369,0.273,0.509c0.298,0.298,0.58,0.674,0.837,1.119
	c0.089,0.152,0.363,0.7,0.427,0.86c0.176,0.439,0.317,0.969,0.418,1.572c0.033,0.193,0.142,0.811,0.149,0.976
	C12.52,9.16,12.513,9.248,12.513,9.336z"/>
</svg>
