<?xml version="1.0" encoding="iso-8859-1"?>
<!-- Generator: Adobe Illustrator 16.0.0, SVG Export Plug-In . SVG Version: 6.00 Build 0)  -->
<!DOCTYPE svg PUBLIC "-//W3C//DTD SVG 1.1//EN" "http://www.w3.org/Graphics/SVG/1.1/DTD/svg11.dtd">
<svg version="1.1" id="Layer_4" xmlns="http://www.w3.org/2000/svg" xmlns:xlink="http://www.w3.org/1999/xlink" x="0px" y="0px"
	 width="24px" height="24px" viewBox="0 0 24 24" style="enable-background:new 0 0 24 24;" xml:space="preserve">
<path style="fill:#231F20;" d="M22.38,11.843l-2.993-0.024c-0.145-0.859-0.353-1.69-0.655-2.445l1.837-2.629
	c0.12-0.147,0.522-0.809,0.074-1.308C20.229,4.968,19.55,5.76,19.55,5.76l-1.492,2.252c-0.396-0.682-0.85-1.303-1.368-1.82
	c-0.29-1.435-2.283-4.732-4.787-4.732c-2.505,0-4.489,3.15-4.478,4.687C7.428,6.45,6.454,7.284,6.052,7.967L4.867,5.79
	c0,0-0.508-0.784-1.019-0.392C3.34,5.798,3.654,6.507,3.773,6.647l1.61,2.681c-0.303,0.754-0.529,1.564-0.673,2.424l-3.068-0.003
	C1.29,11.749,1,12.094,1,12.513c0,0.429,0.29,0.766,0.641,0.766l2.918,0.003c-0.005,0.172-0.023,0.34-0.023,0.512
	c0,1.438,0.247,2.797,0.676,4.021L3.51,20.179c-0.121,0.146-0.271,0.672,0,0.987c0.339,0.391,1.017-0.197,1.017-0.197l1.3-1.721
	c1.927,2.503,3.479,3.293,6.002,3.293c2.523,0,4.213-0.348,6.457-3.247l1.493,1.72c0,0,0.679,0.589,1.019,0.197
	c0.34-0.393,0.024-1.112-0.097-1.254L18.9,17.859c0.433-1.225,0.68-2.583,0.68-4.022c0-0.171,0.037-0.34,0.029-0.513l2.928-0.021
	c0.353,0,0.463-0.328,0.463-0.756C23,12.122,22.732,11.843,22.38,11.843z M18.205,13.837c0,1.236-0.202,2.436-0.602,3.565
	c-0.084,0.237-0.306,0.922-0.406,1.05c-1.901,2.457-3.096,2.714-5.369,2.714c-1.891,0-3.108-0.412-4.913-2.757
	c-0.1-0.13-0.324-0.813-0.407-1.05c-0.397-1.134-0.599-2.334-0.599-3.566l0.023-0.475c0.006-0.243,0.09-1.093,0.132-1.339
	c0.126-0.754,0.327-1.474,0.594-2.14c0.088-0.221,0.457-0.97,0.578-1.177C7.355,8.462,7.632,8.15,7.854,7.9
	c0.532-0.6,0.952-1.074,0.947-1.765C8.797,5.698,9.255,4.602,10.09,3.76c0.343-0.346,1.035-0.926,1.813-0.926
	c1.563,0,3.221,2.546,3.439,3.63c0.054,0.265,0.184,0.508,0.375,0.699c0.41,0.41,0.797,0.927,1.151,1.539
	c0.122,0.21,0.499,0.963,0.587,1.183c0.243,0.604,0.436,1.332,0.575,2.162c0.045,0.266,0.195,1.114,0.205,1.342
	C18.214,13.596,18.205,13.716,18.205,13.837z"/>
</svg>
