<?xml version="1.0" encoding="iso-8859-1"?>
<!-- Generator: Adobe Illustrator 16.0.0, SVG Export Plug-In . SVG Version: 6.00 Build 0)  -->
<!DOCTYPE svg PUBLIC "-//W3C//DTD SVG 1.1//EN" "http://www.w3.org/Graphics/SVG/1.1/DTD/svg11.dtd">
<svg version="1.1" id="Layer" xmlns="http://www.w3.org/2000/svg" xmlns:xlink="http://www.w3.org/1999/xlink" x="0px" y="0px"
	 width="16px" height="16px" viewBox="0 0 16 16" style="enable-background:new 0 0 16 16;" xml:space="preserve">
<path style="fill:#231F20;" d="M8.504,13.521c0,0.277-0.228,0.501-0.504,0.507v0.004c-0.276-0.007-0.504-0.23-0.504-0.508
	c0-0.281,0.223-0.51,0.504-0.51v-0.003C8.282,13.012,8.504,13.24,8.504,13.521z M8,9.406c-0.978,0.001-1.955,0.297-2.789,0.886
	l0.679,0.436c0.166,0.093,0.318,0.098,0.475,0.069C6.882,10.553,7.44,10.426,8,10.425v-0.003c0.56,0.001,1.118,0.128,1.636,0.372
	c0.156,0.028,0.309,0.023,0.475-0.069l0.679-0.436C9.955,9.7,8.978,9.404,8,9.403V9.406z M8,5.794v0.003
	C6.088,5.804,4.179,6.456,2.619,7.756c-0.01,0.009-0.015,0.021-0.024,0.03l0.761,0.327c0.224,0.08,0.408,0.048,0.597-0.048
	C5.182,7.255,6.585,6.822,8,6.816V6.813c1.415,0.006,2.818,0.438,4.048,1.249c0.189,0.096,0.373,0.128,0.597,0.048l0.761-0.327
	c-0.009-0.01-0.014-0.021-0.024-0.03C11.821,6.452,9.912,5.801,8,5.794z M15.978,5.195C13.704,3.19,10.852,2.188,8,2.188v0.003
	c-2.852,0-5.704,1.002-7.978,3.007C0.013,5.207,0.009,5.218,0,5.228l0.003-0.003L0.8,5.534c0.165,0.054,0.305,0.035,0.441-0.01
	C3.226,3.988,5.61,3.209,8,3.209V3.206c2.39,0,4.774,0.779,6.758,2.315c0.136,0.045,0.277,0.063,0.441,0.01l0.797-0.31L16,5.225
	C15.991,5.215,15.987,5.204,15.978,5.195z"/>
</svg>
