<?xml version="1.0" encoding="iso-8859-1"?>
<!-- Generator: Adobe Illustrator 16.0.0, SVG Export Plug-In . SVG Version: 6.00 Build 0)  -->
<!DOCTYPE svg PUBLIC "-//W3C//DTD SVG 1.1//EN" "http://www.w3.org/Graphics/SVG/1.1/DTD/svg11.dtd">
<svg version="1.1" id="Layer" xmlns="http://www.w3.org/2000/svg" xmlns:xlink="http://www.w3.org/1999/xlink" x="0px" y="0px"
	 width="24px" height="24px" viewBox="0 0 24 24" style="enable-background:new 0 0 24 24;" xml:space="preserve">
<path style="fill:#231F20;" d="M12.695,19.613c0,0.377-0.316,0.688-0.695,0.694v0.004c-0.379-0.007-0.695-0.312-0.695-0.695
	c0-0.387,0.308-0.703,0.695-0.703V18.91C12.387,18.91,12.695,19.227,12.695,19.613z M2.044,1.018L1.85,2.124
	C1.792,2.453,1.881,2.702,2.07,2.941l0.459,0.506l2.242,2.244c-1.329,0.635-2.589,1.462-3.74,2.476C1.019,8.182,1.012,8.192,1,8.208
	l0.003-0.003l1.096,0.427c0.229,0.071,0.422,0.047,0.608-0.016C3.686,7.86,4.737,7.24,5.833,6.75l2.763,2.766
	c-1.427,0.438-2.786,1.162-3.995,2.17c-0.013,0.009-0.021,0.026-0.033,0.042l1.048,0.45c0.306,0.109,0.56,0.065,0.819-0.065
	c1.041-0.686,2.172-1.149,3.341-1.416l3.362,3.359c-0.376-0.065-0.755-0.107-1.138-0.107v0.003c-1.344,0.001-2.687,0.408-3.835,1.22
	l0.934,0.6c0.227,0.128,0.438,0.133,0.653,0.093c0.711-0.332,1.477-0.506,2.248-0.507v-0.009c0.771,0.001,1.537,0.181,2.248,0.513
	c0.202,0.038,0.402,0.023,0.611-0.083l7.097,7.1l0.194-1.106c0.058-0.329-0.032-0.578-0.221-0.817L2.044,1.018z M23,8.205
	l-0.003-0.003l-1.096,0.421c-0.229,0.077-0.422,0.053-0.608-0.01C18.564,6.497,15.286,5.431,12,5.431v0.003
	c-0.808,0-1.613,0.092-2.414,0.225C9.548,5.67,9.508,5.688,9.465,5.689v0.004C9.086,5.681,8.773,5.375,8.773,4.992
	c0-0.387,0.305-0.697,0.691-0.697V4.258c0.84-0.132,1.686-0.223,2.535-0.223V4.026c3.921,0,7.842,1.383,10.969,4.138
	C22.981,8.173,22.988,8.189,23,8.205z M19.433,11.725l-1.048,0.444c-0.306,0.115-0.56,0.071-0.819-0.065
	c-0.95-0.626-2.01-1.142-3.073-1.425l0,0c-0.379-0.013-0.695-0.318-0.695-0.701c0-0.387,0.308-0.697,0.695-0.697V9.277
	c0.12,0,0.228,0.034,0.325,0.091c1.64,0.411,3.21,1.167,4.583,2.314C19.413,11.691,19.42,11.709,19.433,11.725z"/>
</svg>
