<?xml version="1.0" encoding="iso-8859-1"?>
<!-- Generator: Adobe Illustrator 16.0.0, SVG Export Plug-In . SVG Version: 6.00 Build 0)  -->
<!DOCTYPE svg PUBLIC "-//W3C//DTD SVG 1.1//EN" "http://www.w3.org/Graphics/SVG/1.1/DTD/svg11.dtd">
<svg version="1.1" id="Layer" xmlns="http://www.w3.org/2000/svg" xmlns:xlink="http://www.w3.org/1999/xlink" x="0px" y="0px"
	 width="24px" height="24px" viewBox="0 0 24 24" style="enable-background:new 0 0 24 24;" xml:space="preserve">
<path style="fill:#231F20;" d="M12.695,19.549c0,0.383-0.316,0.688-0.695,0.7v0.004c-0.379-0.007-0.695-0.318-0.695-0.695
	c0-0.387,0.308-0.703,0.695-0.703v-0.003C12.387,18.852,12.695,19.162,12.695,19.549z M12,13.893
	c-1.344,0.001-2.687,0.408-3.835,1.22l0.934,0.594c0.227,0.128,0.438,0.139,0.653,0.099c0.711-0.338,1.477-0.512,2.248-0.513v-0.003
	c0.771,0.001,1.537,0.175,2.248,0.513c0.215,0.04,0.426,0.029,0.653-0.099l0.934-0.6c-1.148-0.806-2.491-1.213-3.835-1.214V13.893z
	 M12,8.927V8.93c-2.629,0.007-5.254,0.905-7.4,2.691c-0.013,0.015-0.021,0.032-0.033,0.042l1.048,0.45
	c0.306,0.109,0.56,0.065,0.819-0.065c1.69-1.115,3.62-1.706,5.565-1.718v-0.003c1.945,0.006,3.875,0.603,5.565,1.718
	c0.259,0.131,0.514,0.175,0.819,0.065l1.048-0.45c-0.012-0.016-0.02-0.027-0.033-0.042C17.254,9.831,14.629,8.934,12,8.927z
	 M22.969,8.1C19.842,5.345,15.921,3.968,12,3.968v0.003c-3.921,0-7.842,1.377-10.969,4.138C1.019,8.117,1.012,8.134,1,8.144
	l0.003-0.003l1.096,0.427c0.229,0.077,0.422,0.047,0.608-0.01C5.436,6.441,8.714,5.369,12,5.369V5.366
	c3.286,0,6.564,1.072,9.292,3.183c0.186,0.062,0.379,0.087,0.608,0.016l1.096-0.427L23,8.141C22.988,8.131,22.981,8.114,22.969,8.1z
	"/>
</svg>
