<?xml version="1.0" encoding="iso-8859-1"?>
<!-- Generator: Adobe Illustrator 16.0.0, SVG Export Plug-In . SVG Version: 6.00 Build 0)  -->
<!DOCTYPE svg PUBLIC "-//W3C//DTD SVG 1.1//EN" "http://www.w3.org/Graphics/SVG/1.1/DTD/svg11.dtd">
<svg version="1.1" id="Layer" xmlns="http://www.w3.org/2000/svg" xmlns:xlink="http://www.w3.org/1999/xlink" x="0px" y="0px"
	 width="16px" height="16px" viewBox="0 0 16 16" style="enable-background:new 0 0 16 16;" xml:space="preserve">
<path style="fill:#231F20;" d="M8,1c3.329,0,5.029,0.781,5.034,1.746c0,0.001,0,0.009,0,0.009C13.024,3.721,11.326,4.501,8,4.501
	c-3.325,0-4.99-0.78-5-1.746c0,0,0-0.008,0-0.009C3.005,1.781,4.672,1,8,1z M8,0C6.832,0,2,0.133,2,2.749
	c0,0.002,0.001,0.004,0.001,0.007v10.495C2.001,15.056,4.522,16,8,16s5.999-0.944,5.999-2.749V2.756C13.999,2.753,14,2.751,14,2.749
	C14,0.133,9.168,0,8,0z M3,4.306c1.708,1.12,4.13,1.195,5,1.195s3.293-0.075,5-1.195V8c0,0.713-1.318,1.748-5,1.748S3,8.713,3,8
	V4.306z M8,15c-3.682,0-5-1.036-5-1.749V9.463c1.284,0.847,2.634,1.285,5,1.285s3.717-0.438,5-1.285v3.788C13,13.964,11.682,15,8,15
	z"/>
</svg>
