<?xml version="1.0" encoding="iso-8859-1"?>
<!-- Generator: Adobe Illustrator 16.0.0, SVG Export Plug-In . SVG Version: 6.00 Build 0)  -->
<!DOCTYPE svg PUBLIC "-//W3C//DTD SVG 1.1//EN" "http://www.w3.org/Graphics/SVG/1.1/DTD/svg11.dtd">
<svg version="1.1" id="Layer" xmlns="http://www.w3.org/2000/svg" xmlns:xlink="http://www.w3.org/1999/xlink" x="0px" y="0px"
	 width="24px" height="24px" viewBox="0 0 24 24" style="enable-background:new 0 0 24 24;" xml:space="preserve">
<path style="fill:#231F20;" d="M12,2.375c4.578,0,6.915,1.074,6.921,2.4c0,0.002,0,0.013,0,0.013c-0.013,1.328-2.348,2.4-6.921,2.4
	c-4.572,0-6.861-1.072-6.875-2.4c0,0,0-0.011,0-0.013C5.132,3.449,7.424,2.375,12,2.375z M12,1c-1.606,0-8.25,0.183-8.25,3.78
	c0,0.002,0.001,0.005,0.001,0.009V19.22C3.751,21.701,7.218,23,12,23s8.249-1.299,8.249-3.78V4.789c0-0.004,0.001-0.007,0.001-0.009
	C20.25,1.183,13.606,1,12,1z M5.125,6.92C7.472,8.461,10.803,8.563,12,8.563s4.528-0.103,6.875-1.644V12
	c0,0.98-1.812,2.403-6.875,2.403S5.125,12.98,5.125,12V6.92z M12,21.625c-5.063,0-6.875-1.425-6.875-2.405v-5.208
	C6.89,15.176,8.747,15.778,12,15.778s5.11-0.603,6.875-1.767v5.208C18.875,20.2,17.063,21.625,12,21.625z"/>
</svg>
