<?xml version="1.0" encoding="iso-8859-1"?>
<!-- Generator: Adobe Illustrator 16.0.0, SVG Export Plug-In . SVG Version: 6.00 Build 0)  -->
<!DOCTYPE svg PUBLIC "-//W3C//DTD SVG 1.1//EN" "http://www.w3.org/Graphics/SVG/1.1/DTD/svg11.dtd">
<svg version="1.1" id="Layer" xmlns="http://www.w3.org/2000/svg" xmlns:xlink="http://www.w3.org/1999/xlink" x="0px" y="0px"
	 width="24px" height="24px" viewBox="0 0 24 24" style="enable-background:new 0 0 24 24;" xml:space="preserve">
<path style="fill:#231F20;" d="M5.812,7.188c-0.357,0-0.715-0.151-0.976-0.4C4.588,6.522,4.438,6.164,4.438,5.805
	c0-0.361,0.151-0.72,0.399-0.983c0.522-0.512,1.443-0.512,1.952,0c0.248,0.264,0.399,0.622,0.399,0.983
	c0,0.359-0.151,0.718-0.399,0.982C6.527,7.036,6.17,7.188,5.812,7.188z M23,1v5.5c0,2.274-1.851,4.125-4.125,4.125H1v-5.5
	C1,2.851,2.851,1,5.126,1H23z M21.625,2.375H5.126c-1.518,0-2.751,1.234-2.751,2.75V9.25h16.5c1.517,0,2.75-1.234,2.75-2.75V2.375z
	 M6.789,19.162c0.248-0.265,0.399-0.623,0.399-0.982c0-0.361-0.151-0.72-0.399-0.983c-0.509-0.512-1.43-0.512-1.952,0
	c-0.248,0.264-0.399,0.622-0.399,0.983c0,0.359,0.151,0.718,0.399,0.982c0.261,0.249,0.619,0.4,0.976,0.4
	C6.17,19.562,6.527,19.411,6.789,19.162z M23,13.375v5.5C23,21.149,21.149,23,18.875,23H1v-5.5c0-2.274,1.851-4.125,4.126-4.125H23z
	 M21.625,14.75H5.126c-1.518,0-2.751,1.234-2.751,2.75v4.125h16.5c1.517,0,2.75-1.234,2.75-2.75V14.75z"/>
</svg>
