<?xml version="1.0" encoding="iso-8859-1"?>
<!-- Generator: Adobe Illustrator 16.0.0, SVG Export Plug-In . SVG Version: 6.00 Build 0)  -->
<!DOCTYPE svg PUBLIC "-//W3C//DTD SVG 1.1//EN" "http://www.w3.org/Graphics/SVG/1.1/DTD/svg11.dtd">
<svg version="1.1" id="Layer" xmlns="http://www.w3.org/2000/svg" xmlns:xlink="http://www.w3.org/1999/xlink" x="0px" y="0px"
	 width="16px" height="16px" viewBox="0 0 16 16" style="enable-background:new 0 0 16 16;" xml:space="preserve">
<path style="fill:#231F20;" d="M3.5,4.5c-0.26,0-0.52-0.11-0.71-0.291C2.61,4.017,2.5,3.756,2.5,3.494
	c0-0.263,0.11-0.523,0.29-0.715c0.38-0.372,1.05-0.372,1.42,0C4.39,2.971,4.5,3.231,4.5,3.494c0,0.262-0.11,0.522-0.29,0.715
	C4.02,4.39,3.76,4.5,3.5,4.5z M16,0v4c0,1.654-1.346,3-3,3H0V3c0-1.654,1.346-3,3.001-3H16z M15,1H3.001C1.897,1,1,1.897,1,3v3h12
	c1.103,0,2-0.897,2-2V1z M4.21,13.209c0.18-0.192,0.29-0.453,0.29-0.715c0-0.263-0.11-0.523-0.29-0.715
	c-0.37-0.372-1.04-0.372-1.42,0c-0.18,0.191-0.29,0.452-0.29,0.715c0,0.262,0.11,0.522,0.29,0.715C2.98,13.39,3.24,13.5,3.5,13.5
	C3.76,13.5,4.02,13.39,4.21,13.209z M16,9v4c0,1.654-1.346,3-3,3H0v-4c0-1.654,1.346-3,3.001-3H16z M15,10H3.001
	C1.897,10,1,10.897,1,12v3h12c1.103,0,2-0.897,2-2V10z"/>
</svg>
