<?xml version="1.0" encoding="iso-8859-1"?>
<!-- Generator: Adobe Illustrator 16.0.0, SVG Export Plug-In . SVG Version: 6.00 Build 0)  -->
<!DOCTYPE svg PUBLIC "-//W3C//DTD SVG 1.1//EN" "http://www.w3.org/Graphics/SVG/1.1/DTD/svg11.dtd">
<svg version="1.1" id="Layer" xmlns="http://www.w3.org/2000/svg" xmlns:xlink="http://www.w3.org/1999/xlink" x="0px" y="0px"
	 width="16px" height="16px" viewBox="0 0 16 16" style="enable-background:new 0 0 16 16;" xml:space="preserve">
<path style="fill:#231F20;" d="M11.477,0H9.793H6.207H4.523C3.683,0,3,0.716,3,1.603v12.795C3,15.284,3.683,16,4.523,16h6.953
	C12.317,16,13,15.284,13,14.397V1.603C13,0.716,12.317,0,11.477,0z M12,14.397C12,14.729,11.765,15,11.477,15H4.523
	C4.235,15,4,14.729,4,14.397V1.603C4,1.271,4.235,1,4.523,1H6v0.423C6,1.466,6.093,1.5,6.207,1.5h3.587C9.907,1.5,10,1.466,10,1.423
	V1h1.477C11.765,1,12,1.271,12,1.603V14.397z"/>
</svg>
