<?xml version="1.0" encoding="iso-8859-1"?>
<!-- Generator: Adobe Illustrator 16.0.0, SVG Export Plug-In . SVG Version: 6.00 Build 0)  -->
<!DOCTYPE svg PUBLIC "-//W3C//DTD SVG 1.1//EN" "http://www.w3.org/Graphics/SVG/1.1/DTD/svg11.dtd">
<svg version="1.1" id="Layer" xmlns="http://www.w3.org/2000/svg" xmlns:xlink="http://www.w3.org/1999/xlink" x="0px" y="0px"
	 width="24px" height="24px" viewBox="0 0 24 24" style="enable-background:new 0 0 24 24;" xml:space="preserve">
<path style="fill:#231F20;" d="M16.563,1h-2.209H9.646H7.437c-1.104,0-2,0.939-2,2.103v17.795c0,1.163,0.896,2.103,2,2.103h9.126
	c1.104,0,2-0.939,2-2.103V3.103C18.562,1.939,17.667,1,16.563,1z M17.25,20.897c0,0.435-0.308,0.79-0.687,0.79H7.437
	c-0.379,0-0.687-0.355-0.687-0.79V3.103c0-0.435,0.308-0.79,0.687-0.79h1.938v0.555c0,0.057,0.122,0.102,0.271,0.102h4.707
	c0.15,0,0.271-0.045,0.271-0.102V2.312h1.938c0.379,0,0.687,0.355,0.687,0.79V20.897z"/>
</svg>
