<?xml version="1.0" encoding="utf-8"?>
<!-- Generator: Adobe Illustrator 16.0.0, SVG Export Plug-In . SVG Version: 6.00 Build 0)  -->
<!DOCTYPE svg PUBLIC "-//W3C//DTD SVG 1.1//EN" "http://www.w3.org/Graphics/SVG/1.1/DTD/svg11.dtd">
<svg version="1.1" id="Layer_2" xmlns="http://www.w3.org/2000/svg" xmlns:xlink="http://www.w3.org/1999/xlink" x="0px" y="0px"
	 width="16px" height="16px" viewBox="0 0 16 16" enable-background="new 0 0 16 16" xml:space="preserve">
<path fill="#231F20" d="M0.897,0C0.402,0,0,0.402,0,0.896V16h6.051C6.546,16,7,15.6,7,15.104V0H0.897z M6,14.6
	C6,14.952,5.951,15,5.6,15H1V1.4C1,1.05,1.05,1,1.4,1H6V14.6z M5.55,2.984L5.083,3.651C4.915,3.892,4.72,3.983,4.427,3.984H2.573
	C2.28,3.983,2.085,3.892,1.917,3.651L1.45,2.984H5.55z M5.55,4.984L5.083,5.651C4.915,5.892,4.72,5.983,4.427,5.984H2.573
	C2.28,5.983,2.085,5.892,1.917,5.651L1.45,4.984H5.55z M5.55,6.984L5.083,7.651C4.915,7.892,4.72,7.983,4.427,7.984H2.573
	C2.28,7.983,2.085,7.892,1.917,7.651L1.45,6.984H5.55z M16,4v8.359C16,12.69,15.742,13,15.409,13H9v0.991h2.236
	c0.211,0.031,0.379,0.133,0.516,0.327l0.462,0.66H8.529c-0.01,0.001-0.019,0.006-0.029,0.006c-0.276,0-0.5-0.224-0.5-0.5v-1.953
	h0.006C8.005,12.521,8,12.511,8,12.5C8,12.224,8.224,12,8.5,12c0.001,0,0.002,0.001,0.004,0.001C8.505,12.001,8.505,12,8.505,12
	h6.346c0.08-0.023,0.139-0.082,0.149-0.167v-7.7C14.984,4.069,14.944,4.025,14.884,4H8.531C8.527,4,8.523,3.998,8.52,3.996
	C8.513,3.996,8.507,4,8.5,4C8.224,4,8,3.776,8,3.5S8.224,3,8.5,3H15C15.703,3,16,3.375,16,4z"/>
</svg>
