<?xml version="1.0" encoding="utf-8"?>
<!-- Generator: Adobe Illustrator 16.0.0, SVG Export Plug-In . SVG Version: 6.00 Build 0)  -->
<!DOCTYPE svg PUBLIC "-//W3C//DTD SVG 1.1//EN" "http://www.w3.org/Graphics/SVG/1.1/DTD/svg11.dtd">
<svg version="1.1" id="Layer" xmlns="http://www.w3.org/2000/svg" xmlns:xlink="http://www.w3.org/1999/xlink" x="0px" y="0px"
	 width="16px" height="16px" viewBox="0 0 16 16" enable-background="new 0 0 16 16" xml:space="preserve">
<path fill="#030104" d="M11.236,14.506H7.5v0.987h4.714l-0.462-0.66C11.615,14.639,11.447,14.537,11.236,14.506z"/>
<path fill="#231F20" d="M0.897,0C0.402,0,0,0.402,0,0.896V16h6.051C6.546,16,7,15.6,7,15.104V0H0.897z M6,14.6
	C6,14.952,5.951,15,5.6,15H1V1.4C1,1.05,1.05,1,1.4,1H6V14.6z"/>
<g>
	<path fill="#231F20" d="M15,3H7.5l0.467,0.667C8.107,3.868,8.28,3.974,8.5,4h6.384c0.06,0.025,0.1,0.069,0.116,0.133v7.7
		c-0.01,0.085-0.069,0.144-0.149,0.167H9c-0.22,0.027-0.393,0.133-0.533,0.333L8,13v1h2.421c0.32-0.023,0.573-0.28,0.579-0.604V13
		h4.409C15.742,13,16,12.69,16,12.359V4C16,3.375,15.703,3,15,3z"/>
</g>
<path fill="#231F20" d="M1.45,2.984l0.467,0.667c0.168,0.24,0.363,0.332,0.656,0.333h1.854C4.72,3.983,4.915,3.892,5.083,3.651
	L5.55,2.984H1.45z"/>
<path fill="#231F20" d="M1.45,4.984l0.467,0.667c0.168,0.24,0.363,0.332,0.656,0.333h1.854C4.72,5.983,4.915,5.892,5.083,5.651
	L5.55,4.984H1.45z"/>
<path fill="#231F20" d="M1.45,6.984l0.467,0.667c0.168,0.24,0.363,0.332,0.656,0.333h1.854C4.72,7.983,4.915,7.892,5.083,7.651
	L5.55,6.984H1.45z"/>
</svg>
