<?xml version="1.0" encoding="iso-8859-1"?>
<!-- Generator: Adobe Illustrator 16.0.0, SVG Export Plug-In . SVG Version: 6.00 Build 0)  -->
<!DOCTYPE svg PUBLIC "-//W3C//DTD SVG 1.1//EN" "http://www.w3.org/Graphics/SVG/1.1/DTD/svg11.dtd">
<svg version="1.1" id="Layer_2" xmlns="http://www.w3.org/2000/svg" xmlns:xlink="http://www.w3.org/1999/xlink" x="0px" y="0px"
	 width="24px" height="24px" viewBox="0 0 24 24" style="enable-background:new 0 0 24 24;" xml:space="preserve">
<path style="fill:#231F20;" d="M2.233,1C1.553,1,1,1.553,1,2.232V23h8.32c0.681,0,1.305-0.551,1.305-1.232V1H2.233z M9.25,21.074
	c0,0.485-0.068,0.551-0.55,0.551H2.375V2.926c0-0.482,0.068-0.551,0.55-0.551H9.25V21.074z M8.631,5.104L7.989,6.021
	c-0.231,0.33-0.5,0.457-0.902,0.458H4.538C4.135,6.478,3.867,6.351,3.636,6.021L2.994,5.104H8.631z M8.631,7.854L7.989,8.771
	c-0.231,0.33-0.5,0.457-0.902,0.458H4.538C4.135,9.228,3.867,9.101,3.636,8.771L2.994,7.854H8.631z M8.631,10.604l-0.642,0.917
	c-0.231,0.33-0.5,0.457-0.902,0.458H4.538c-0.403-0.001-0.671-0.128-0.902-0.458l-0.642-0.917H8.631z M23,6.5v11.494
	c0,0.455-0.355,0.881-0.813,0.881h-8.812v1.363h3.074c0.29,0.043,0.521,0.183,0.71,0.449l0.635,0.908h-5.066
	c-0.014,0.001-0.026,0.008-0.04,0.008c-0.38,0-0.688-0.308-0.688-0.688V18.23h0.009C12.007,18.216,12,18.202,12,18.188
	c0-0.38,0.308-0.688,0.688-0.688c0.002,0,0.003,0.001,0.005,0.001c0.001,0,0.001-0.001,0.001-0.001h8.726
	c0.109-0.032,0.191-0.113,0.205-0.229V6.683c-0.021-0.087-0.077-0.147-0.159-0.183H12.73c-0.006,0-0.011-0.003-0.016-0.006
	c-0.009,0-0.018,0.006-0.027,0.006C12.308,6.5,12,6.192,12,5.812s0.308-0.688,0.688-0.688h8.938C22.592,5.125,23,5.641,23,6.5z"/>
</svg>
