<?xml version="1.0" encoding="utf-8"?>
<!-- Generator: Adobe Illustrator 16.0.0, SVG Export Plug-In . SVG Version: 6.00 Build 0)  -->
<!DOCTYPE svg PUBLIC "-//W3C//DTD SVG 1.1//EN" "http://www.w3.org/Graphics/SVG/1.1/DTD/svg11.dtd">
<svg version="1.1" id="Layer_2" xmlns="http://www.w3.org/2000/svg" xmlns:xlink="http://www.w3.org/1999/xlink" x="0px" y="0px"
	 width="16px" height="16px" viewBox="0 0 16 16" enable-background="new 0 0 16 16" xml:space="preserve">
<path fill="#231F20" d="M0.897,0C0.402,0,0,0.402,0,0.896V16h6.051C6.546,16,7,15.6,7,15.104V0H0.897z M6,14.6
	C6,14.952,5.951,15,5.6,15H1V1.4C1,1.05,1.05,1,1.4,1H6V14.6z"/>
<path fill="#231F20" d="M1.45,2.984l0.467,0.667c0.168,0.24,0.363,0.332,0.656,0.333h1.854C4.72,3.983,4.915,3.892,5.083,3.651
	L5.55,2.984H1.45z"/>
<path fill="#231F20" d="M1.45,4.984l0.467,0.667c0.168,0.24,0.363,0.332,0.656,0.333h1.854C4.72,5.983,4.915,5.892,5.083,5.651
	L5.55,4.984H1.45z"/>
<path fill="#231F20" d="M1.45,6.984l0.467,0.667c0.168,0.24,0.363,0.332,0.656,0.333h1.854C4.72,7.983,4.915,7.892,5.083,7.651
	L5.55,6.984H1.45z"/>
<path fill="#231F20" d="M15,3H8.5C8.224,3,8,3.224,8,3.5S8.224,4,8.5,4c0.007,0,0.013-0.004,0.02-0.004C8.523,3.998,8.527,4,8.531,4
	h6.353c0.06,0.025,0.1,0.069,0.116,0.133v7.7c-0.01,0.085-0.069,0.144-0.149,0.167H8.505c0,0,0,0.001-0.001,0.001
	C8.502,12.001,8.501,12,8.5,12C8.224,12,8,12.224,8,12.5c0,0.011,0.005,0.021,0.006,0.031H8v1.953c0,0.276,0.224,0.5,0.5,0.5
	c0.01,0,0.019-0.005,0.029-0.006h3.685l-0.462-0.66c-0.137-0.194-0.305-0.296-0.516-0.327H9V13h6.409C15.742,13,16,12.69,16,12.359
	V4C16,3.375,15.703,3,15,3z"/>
</svg>
