<?xml version="1.0" encoding="iso-8859-1"?>
<!-- Generator: Adobe Illustrator 16.0.0, SVG Export Plug-In . SVG Version: 6.00 Build 0)  -->
<!DOCTYPE svg PUBLIC "-//W3C//DTD SVG 1.1//EN" "http://www.w3.org/Graphics/SVG/1.1/DTD/svg11.dtd">
<svg version="1.1" id="Layer_2" xmlns="http://www.w3.org/2000/svg" xmlns:xlink="http://www.w3.org/1999/xlink" x="0px" y="0px"
	 width="24px" height="24px" viewBox="0 0 24 24" style="enable-background:new 0 0 24 24;" xml:space="preserve">
<path style="fill:#231F20;" d="M23,5.125v12.869c0,0.455-0.355,0.881-0.813,0.881H14.75v1.363h3.074
	c0.29,0.043,0.521,0.183,0.71,0.449l0.635,0.908h-5.066c-0.014,0.001-0.026,0.008-0.04,0.008c-0.38,0-0.688-0.308-0.688-0.688V18.23
	h0.009c-0.001-0.015-0.009-0.028-0.009-0.043c0-0.38,0.308-0.688,0.688-0.688c0.002,0,0.003,0.001,0.005,0.001
	c0.001,0,0.001-0.001,0.001-0.001h7.351c0.109-0.032,0.191-0.113,0.205-0.229V5.308c-0.021-0.087-0.077-0.147-0.159-0.183h-4.438
	c-0.006,0-1.558-0.003-1.563-0.006c-0.009,0-1.393,0.006-1.402,0.006c-0.38,0-0.688-0.308-0.688-0.688s0.308-0.688,0.688-0.688
	h7.562C22.592,3.75,23,4.266,23,5.125z M9.905,1H8.966H4.034H3.095C1.938,1,1,1.984,1,3.203v17.594C1,22.016,1.938,23,3.095,23
	h6.811C11.062,23,12,22.016,12,20.797V3.203C12,1.984,11.062,1,9.905,1z M10.625,20.797c0,0.456-0.323,0.828-0.72,0.828H3.095
	c-0.397,0-0.72-0.372-0.72-0.828V3.203c0-0.456,0.323-0.828,0.72-0.828h2.03v0.581c0,0.06,0.127,0.106,0.284,0.106h2.182
	c0.157,0,0.284-0.047,0.284-0.106V2.375h2.03c0.397,0,0.72,0.372,0.72,0.828V20.797z"/>
</svg>
