<?xml version="1.0" encoding="utf-8"?>
<!-- Generator: Adobe Illustrator 16.0.0, SVG Export Plug-In . SVG Version: 6.00 Build 0)  -->
<!DOCTYPE svg PUBLIC "-//W3C//DTD SVG 1.1//EN" "http://www.w3.org/Graphics/SVG/1.1/DTD/svg11.dtd">
<svg version="1.1" id="Layer" xmlns="http://www.w3.org/2000/svg" xmlns:xlink="http://www.w3.org/1999/xlink" x="0px" y="0px"
	 width="16px" height="16px" viewBox="0 0 16 16" enable-background="new 0 0 16 16" xml:space="preserve">
<path fill="#231F20" d="M15,10.092V9.399c0-0.133-0.053-0.26-0.146-0.354S14.633,8.899,14.5,8.899L11.001,8.9V7.1H14.5
	c0.133,0,0.26-0.053,0.354-0.146S15,6.732,15,6.6V5.908c0.581-0.207,1-0.757,1-1.408C16,3.673,15.327,3,14.5,3S13,3.673,13,4.5
	c0,0.651,0.419,1.201,1,1.408V6.1h-2.999V5H8.5V2.908c0.581-0.207,1-0.757,1-1.408C9.5,0.673,8.827,0,8,0S6.5,0.673,6.5,1.5
	c0,0.651,0.419,1.201,1,1.408V5h-1C5.848,5,5.298,5.418,5.092,6H2V3.908C2.581,3.701,3,3.151,3,2.5C3,1.673,2.327,1,1.5,1
	S0,1.673,0,2.5c0,0.651,0.419,1.201,1,1.408V6.5C1,6.776,1.224,7,1.5,7H5v2H1.5C1.224,9,1,9.224,1,9.5v2.592
	c-0.581,0.207-1,0.757-1,1.408C0,14.327,0.673,15,1.5,15S3,14.327,3,13.5c0-0.651-0.419-1.201-1-1.408V10h3v1.001h2.5v2.091
	c-0.581,0.207-1,0.757-1,1.408C6.5,15.327,7.173,16,8,16s1.5-0.673,1.5-1.5c0-0.651-0.419-1.201-1-1.408v-2.091h1.001
	c0.688,0,1.263-0.468,1.439-1.101L14,9.899v0.192c-0.581,0.207-1,0.757-1,1.408c0,0.827,0.673,1.5,1.5,1.5s1.5-0.673,1.5-1.5
	C16,10.849,15.581,10.299,15,10.092z M14.5,4C14.776,4,15,4.224,15,4.5S14.776,5,14.5,5S14,4.776,14,4.5S14.224,4,14.5,4z M8,1
	c0.276,0,0.5,0.224,0.5,0.5S8.276,2,8,2S7.5,1.776,7.5,1.5S7.724,1,8,1z M1.5,3C1.224,3,1,2.776,1,2.5S1.224,2,1.5,2S2,2.224,2,2.5
	S1.776,3,1.5,3z M1.5,14C1.224,14,1,13.776,1,13.5S1.224,13,1.5,13S2,13.224,2,13.5S1.776,14,1.5,14z M8,15
	c-0.276,0-0.5-0.224-0.5-0.5S7.724,14,8,14s0.5,0.224,0.5,0.5S8.276,15,8,15z M10.001,9.5c0,0.276-0.224,0.501-0.5,0.501H8.005
	C8.003,10.001,8.002,10,8,10s-0.003,0.001-0.005,0.001H6V6.5C6,6.225,6.225,6,6.5,6h3.5V9.5z M14.5,12c-0.276,0-0.5-0.224-0.5-0.5
	s0.224-0.5,0.5-0.5s0.5,0.224,0.5,0.5S14.776,12,14.5,12z"/>
</svg>
