<?xml version="1.0" encoding="utf-8"?>
<!-- Generator: Adobe Illustrator 16.0.0, SVG Export Plug-In . SVG Version: 6.00 Build 0)  -->
<!DOCTYPE svg PUBLIC "-//W3C//DTD SVG 1.1//EN" "http://www.w3.org/Graphics/SVG/1.1/DTD/svg11.dtd">
<svg version="1.1" id="Layer_2" xmlns="http://www.w3.org/2000/svg" xmlns:xlink="http://www.w3.org/1999/xlink" x="0px" y="0px"
	 width="16px" height="16px" viewBox="0 0 16 16" enable-background="new 0 0 16 16" xml:space="preserve">
<path fill="#231F20" d="M16,3v9.359C16,12.69,15.742,13,15.409,13H10v0.991h2.236c0.211,0.031,0.379,0.133,0.516,0.327l0.462,0.66
	H9.529c-0.01,0.001-0.019,0.006-0.029,0.006c-0.276,0-0.5-0.224-0.5-0.5v-1.953h0.006C9.005,12.521,9,12.511,9,12.5
	C9,12.224,9.224,12,9.5,12c0.001,0,0.002,0.001,0.004,0.001C9.505,12.001,9.505,12,9.505,12h5.346
	c0.08-0.023,0.139-0.082,0.149-0.167v-8.7C14.984,3.069,14.944,3.025,14.884,3h-3.228c-0.004,0-1.133-0.002-1.137-0.004
	C10.513,2.996,9.507,3,9.5,3C9.224,3,9,2.776,9,2.5S9.224,2,9.5,2H15C15.703,2,16,2.375,16,3z M6.477,0H5.793H2.207H1.523
	C0.683,0,0,0.716,0,1.603v12.795C0,15.284,0.683,16,1.523,16h4.953C7.317,16,8,15.284,8,14.397V1.603C8,0.716,7.317,0,6.477,0z
	 M7,14.397C7,14.729,6.765,15,6.477,15H1.523C1.235,15,1,14.729,1,14.397V1.603C1,1.271,1.235,1,1.523,1H3v0.423
	C3,1.466,3.093,1.5,3.207,1.5h1.587C4.907,1.5,5,1.466,5,1.423V1h1.477C6.765,1,7,1.271,7,1.603V14.397z"/>
</svg>
