<?xml version="1.0" encoding="iso-8859-1"?>
<!-- Generator: Adobe Illustrator 16.0.0, SVG Export Plug-In . SVG Version: 6.00 Build 0)  -->
<!DOCTYPE svg PUBLIC "-//W3C//DTD SVG 1.1//EN" "http://www.w3.org/Graphics/SVG/1.1/DTD/svg11.dtd">
<svg version="1.1" id="Layer" xmlns="http://www.w3.org/2000/svg" xmlns:xlink="http://www.w3.org/1999/xlink" x="0px" y="0px"
	 width="24px" height="24px" viewBox="0 0 24 24" style="enable-background:new 0 0 24 24;" xml:space="preserve">
<path style="fill:#231F20;" d="M21.625,14.876v-0.952c0-0.183-0.072-0.356-0.201-0.485s-0.304-0.202-0.486-0.202l-4.811,0.002
	v-2.477h4.811c0.183,0,0.357-0.072,0.486-0.201s0.201-0.304,0.201-0.486v-0.95C22.423,8.839,23,8.083,23,7.188
	c0-1.138-0.925-2.062-2.062-2.062s-2.062,0.925-2.062,2.062c0,0.896,0.577,1.651,1.375,1.937v0.263h-4.124V7.875h-3.439V4.999
	c0.798-0.285,1.375-1.041,1.375-1.937C14.062,1.925,13.137,1,12,1S9.938,1.925,9.938,3.062c0,0.896,0.577,1.651,1.375,1.937v2.876
	H9.938c-0.897,0-1.653,0.574-1.937,1.375H3.75V6.374c0.798-0.285,1.375-1.041,1.375-1.937c0-1.138-0.925-2.062-2.062-2.062
	S1,3.3,1,4.438c0,0.896,0.577,1.651,1.375,1.937v3.563c0,0.38,0.308,0.688,0.688,0.688h4.812v2.75H3.062
	c-0.38,0-0.688,0.308-0.688,0.688v3.563C1.577,17.911,1,18.667,1,19.562c0,1.138,0.925,2.062,2.062,2.062s2.062-0.925,2.062-2.062
	c0-0.896-0.577-1.651-1.375-1.937V14.75h4.125v1.376h3.438v2.875c-0.798,0.285-1.375,1.041-1.375,1.937
	C9.938,22.075,10.863,23,12,23s2.062-0.925,2.062-2.062c0-0.896-0.577-1.651-1.375-1.937v-2.875h1.376
	c0.947,0,1.737-0.643,1.979-1.513l4.207-0.002v0.265c-0.798,0.285-1.375,1.041-1.375,1.937c0,1.138,0.925,2.062,2.062,2.062
	S23,17.95,23,16.812C23,15.917,22.423,15.161,21.625,14.876z M20.938,6.5c0.38,0,0.688,0.308,0.688,0.688s-0.308,0.688-0.688,0.688
	S20.25,7.567,20.25,7.188S20.558,6.5,20.938,6.5z M12,2.375c0.38,0,0.688,0.308,0.688,0.688S12.38,3.75,12,3.75
	s-0.688-0.308-0.688-0.688S11.62,2.375,12,2.375z M3.062,5.125c-0.38,0-0.688-0.308-0.688-0.688S2.683,3.75,3.062,3.75
	S3.75,4.058,3.75,4.438S3.442,5.125,3.062,5.125z M3.062,20.25c-0.38,0-0.688-0.308-0.688-0.688s0.308-0.688,0.688-0.688
	s0.688,0.308,0.688,0.688S3.442,20.25,3.062,20.25z M12,21.625c-0.38,0-0.688-0.308-0.688-0.688S11.62,20.25,12,20.25
	s0.688,0.308,0.688,0.688S12.38,21.625,12,21.625z M14.751,14.062c0,0.38-0.308,0.688-0.688,0.688h-2.057
	c-0.003,0-0.004-0.001-0.007-0.001s-0.004,0.001-0.007,0.001H9.25V9.938c0-0.379,0.309-0.688,0.688-0.688h4.813V14.062z
	 M20.938,17.5c-0.38,0-0.688-0.308-0.688-0.688s0.308-0.688,0.688-0.688s0.688,0.308,0.688,0.688S21.317,17.5,20.938,17.5z"/>
</svg>
