<?xml version="1.0" encoding="utf-8"?>
<!-- Generator: Adobe Illustrator 16.0.0, SVG Export Plug-In . SVG Version: 6.00 Build 0)  -->
<!DOCTYPE svg PUBLIC "-//W3C//DTD SVG 1.1//EN" "http://www.w3.org/Graphics/SVG/1.1/DTD/svg11.dtd">
<svg version="1.1" id="Layer" xmlns="http://www.w3.org/2000/svg" xmlns:xlink="http://www.w3.org/1999/xlink" x="0px" y="0px"
	 width="24px" height="24px" viewBox="0 0 24 24" enable-background="new 0 0 24 24" xml:space="preserve">
<rect x="11.312" y="4.906" fill="#231F20" width="1.375" height="5"/>
<path fill="#231F20" d="M12.023,23.021c-3.985,0-7.227-2.993-7.227-6.674V7.653c0-3.681,3.242-6.674,7.227-6.674
	s7.227,2.993,7.227,6.674v8.693C19.25,20.027,16.008,23.021,12.023,23.021z M12.023,2.276c-3.27,0-5.93,2.412-5.93,5.377v8.693
	c0,2.965,2.66,5.377,5.93,5.377s5.93-2.412,5.93-5.377V7.653C17.953,4.688,15.293,2.276,12.023,2.276z"/>
</svg>
