<?xml version="1.0" encoding="iso-8859-1"?>
<!-- Generator: Adobe Illustrator 16.0.0, SVG Export Plug-In . SVG Version: 6.00 Build 0)  -->
<!DOCTYPE svg PUBLIC "-//W3C//DTD SVG 1.1//EN" "http://www.w3.org/Graphics/SVG/1.1/DTD/svg11.dtd">
<svg version="1.1" id="Layer" xmlns="http://www.w3.org/2000/svg" xmlns:xlink="http://www.w3.org/1999/xlink" x="0px" y="0px"
	 width="24px" height="24px" viewBox="0 0 24 24" style="enable-background:new 0 0 24 24;" xml:space="preserve">
<path style="fill:#231F20;" d="M1,19.562h20.456c0.402,0.003,0.671,0.129,0.902,0.459L23,20.938H2.544
	c-0.402-0.001-0.671-0.128-0.902-0.458L1,19.562z M1.642,12.229c0.231,0.33,0.5,0.457,0.902,0.458H23l-0.642-0.916
	c-0.231-0.33-0.5-0.456-0.902-0.459H1L1.642,12.229z M1.642,3.979c0.231,0.33,0.5,0.457,0.902,0.458H23l-0.642-0.916
	c-0.231-0.33-0.5-0.456-0.902-0.459H1L1.642,3.979z"/>
</svg>
