<?xml version="1.0" encoding="iso-8859-1"?>
<!-- Generator: Adobe Illustrator 16.0.0, SVG Export Plug-In . SVG Version: 6.00 Build 0)  -->
<!DOCTYPE svg PUBLIC "-//W3C//DTD SVG 1.1//EN" "http://www.w3.org/Graphics/SVG/1.1/DTD/svg11.dtd">
<svg version="1.1" id="Layer" xmlns="http://www.w3.org/2000/svg" xmlns:xlink="http://www.w3.org/1999/xlink" x="0px" y="0px"
	 width="16px" height="16px" viewBox="0 0 16 16" style="enable-background:new 0 0 16 16;" xml:space="preserve">
<path style="fill:#231F20;" d="M0,13.5h14.877c0.293,0.002,0.488,0.094,0.656,0.334L16,14.5H1.123
	c-0.293-0.001-0.488-0.093-0.656-0.333L0,13.5z M0.467,8.167C0.635,8.407,0.83,8.499,1.123,8.5H16l-0.467-0.666
	c-0.168-0.24-0.363-0.332-0.656-0.334H0L0.467,8.167z M0.467,2.167C0.635,2.407,0.83,2.499,1.123,2.5H16l-0.467-0.666
	c-0.168-0.24-0.363-0.332-0.656-0.334H0L0.467,2.167z"/>
</svg>
