<?xml version="1.0" encoding="iso-8859-1"?>
<!-- Generator: Adobe Illustrator 16.0.0, SVG Export Plug-In . SVG Version: 6.00 Build 0)  -->
<!DOCTYPE svg PUBLIC "-//W3C//DTD SVG 1.1//EN" "http://www.w3.org/Graphics/SVG/1.1/DTD/svg11.dtd">
<svg version="1.1" id="Layer" xmlns="http://www.w3.org/2000/svg" xmlns:xlink="http://www.w3.org/1999/xlink" x="0px" y="0px"
	 width="16px" height="16px" viewBox="0 0 16 16" style="enable-background:new 0 0 16 16;" xml:space="preserve">
<path style="fill:#231F20;" d="M8,6.5C7.173,6.5,6.5,7.173,6.5,8S7.173,9.5,8,9.5S9.5,8.827,9.5,8S8.827,6.5,8,6.5z M8,8.5
	C7.725,8.5,7.5,8.277,7.5,8S7.725,7.5,8,7.5S8.5,7.723,8.5,8S8.275,8.5,8,8.5z M8,0C7.173,0,6.5,0.673,6.5,1.5S7.173,3,8,3
	s1.5-0.673,1.5-1.5S8.827,0,8,0z M8,2C7.725,2,7.5,1.777,7.5,1.5S7.725,1,8,1s0.5,0.223,0.5,0.5S8.275,2,8,2z M8,13
	c-0.827,0-1.5,0.673-1.5,1.5S7.173,16,8,16s1.5-0.673,1.5-1.5S8.827,13,8,13z M8,15c-0.275,0-0.5-0.223-0.5-0.5S7.725,14,8,14
	s0.5,0.223,0.5,0.5S8.275,15,8,15z"/>
</svg>
