<?xml version="1.0" encoding="iso-8859-1"?>
<!-- Generator: Adobe Illustrator 16.0.0, SVG Export Plug-In . SVG Version: 6.00 Build 0)  -->
<!DOCTYPE svg PUBLIC "-//W3C//DTD SVG 1.1//EN" "http://www.w3.org/Graphics/SVG/1.1/DTD/svg11.dtd">
<svg version="1.1" id="Layer" xmlns="http://www.w3.org/2000/svg" xmlns:xlink="http://www.w3.org/1999/xlink" x="0px" y="0px"
	 width="24px" height="24px" viewBox="0 0 24 24" style="enable-background:new 0 0 24 24;" xml:space="preserve">
<path style="fill:#231F20;" d="M12,9.938c-1.137,0-2.062,0.925-2.062,2.062s0.925,2.062,2.062,2.062s2.062-0.925,2.062-2.062
	S13.137,9.938,12,9.938z M12,12.688c-0.379,0-0.688-0.307-0.688-0.688s0.309-0.688,0.688-0.688s0.688,0.307,0.688,0.688
	S12.379,12.688,12,12.688z M12,1c-1.137,0-2.062,0.925-2.062,2.062S10.863,5.125,12,5.125s2.062-0.925,2.062-2.062S13.137,1,12,1z
	 M12,3.75c-0.379,0-0.688-0.307-0.688-0.688S11.621,2.375,12,2.375s0.688,0.307,0.688,0.688S12.379,3.75,12,3.75z M12,18.875
	c-1.137,0-2.062,0.925-2.062,2.062S10.863,23,12,23s2.062-0.925,2.062-2.062S13.137,18.875,12,18.875z M12,21.625
	c-0.379,0-0.688-0.307-0.688-0.688S11.621,20.25,12,20.25s0.688,0.307,0.688,0.688S12.379,21.625,12,21.625z"/>
</svg>
