<?xml version="1.0" encoding="utf-8"?>
<!-- Generator: Adobe Illustrator 24.0.0, SVG Export Plug-In . SVG Version: 6.00 Build 0)  -->
<!DOCTYPE svg PUBLIC "-//W3C//DTD SVG 1.1//EN" "http://www.w3.org/Graphics/SVG/1.1/DTD/svg11.dtd">
<svg version="1.1" id="Layer" xmlns="http://www.w3.org/2000/svg" xmlns:xlink="http://www.w3.org/1999/xlink" x="0px" y="0px"
	 viewBox="0 0 24 24" enable-background="new 0 0 24 24" xml:space="preserve">
<g>
	<path fill="#231F20" d="M3.063,9.938C1.925,9.938,1,10.862,1,12s0.925,2.062,2.062,2.062c1.137,0,2.062-0.925,2.062-2.062
		S4.2,9.938,3.063,9.938z"/>
	<path fill="#231F20" d="M3.063,1C1.925,1,1,1.925,1,3.062s0.925,2.062,2.062,2.062c1.137,0,2.062-0.925,2.062-2.062S4.2,1,3.063,1z
		"/>
	<path fill="#231F20" d="M3.063,18.875C1.925,18.875,1,19.8,1,20.938S1.925,23,3.063,23c1.137,0,2.062-0.925,2.062-2.062
		S4.2,18.875,3.063,18.875z"/>
	<circle fill="#231F20" cx="20.937" cy="11.75" r="2.062"/>
	<circle fill="#231F20" cx="20.937" cy="2.812" r="2.062"/>
	<path fill="#231F20" d="M20.937,18.625c-1.137,0-2.062,0.925-2.062,2.062c0,1.138,0.925,2.062,2.062,2.062S23,21.825,23,20.687
		C23,19.55,22.075,18.625,20.937,18.625z"/>
	<circle fill="#231F20" cx="12" cy="11.75" r="2.062"/>
	<circle fill="#231F20" cx="12" cy="2.812" r="2.062"/>
	<path fill="#231F20" d="M12,18.625c-1.137,0-2.062,0.925-2.062,2.062c0,1.138,0.925,2.062,2.062,2.062s2.062-0.925,2.062-2.062
		C14.062,19.55,13.137,18.625,12,18.625z"/>
</g>
</svg>
