<?xml version="1.0" encoding="utf-8"?>
<!-- Generator: Adobe Illustrator 25.2.1, SVG Export Plug-In . SVG Version: 6.00 Build 0)  -->
<svg version="1.1" id="Layer" xmlns="http://www.w3.org/2000/svg" xmlns:xlink="http://www.w3.org/1999/xlink" x="0px" y="0px"
	 viewBox="0 0 24 24" enable-background="new 0 0 24 24" xml:space="preserve">
<path fill="#231F20" d="M14.062,12c0-1.137-0.925-2.062-2.062-2.062S9.938,10.863,9.938,12s0.925,2.062,2.062,2.062
	S14.062,13.137,14.062,12z M11.312,12c0-0.379,0.307-0.688,0.688-0.688s0.688,0.309,0.688,0.688S12.381,12.688,12,12.688
	S11.312,12.379,11.312,12z M23,12c0-1.137-0.925-2.062-2.062-2.062S18.875,10.863,18.875,12s0.925,2.062,2.062,2.062
	S23,13.137,23,12z M20.25,12c0-0.379,0.307-0.688,0.688-0.688s0.688,0.309,0.688,0.688s-0.307,0.688-0.688,0.688
	S20.25,12.379,20.25,12z M5.125,12c0-1.137-0.925-2.062-2.062-2.062C1.925,9.938,1,10.863,1,12s0.925,2.062,2.062,2.062
	C4.2,14.062,5.125,13.137,5.125,12z M2.375,12c0-0.379,0.307-0.688,0.688-0.688c0.381,0,0.688,0.309,0.688,0.688
	s-0.307,0.688-0.688,0.688C2.682,12.688,2.375,12.379,2.375,12z"/>
</svg>
