<?xml version="1.0" encoding="iso-8859-1"?>
<!-- Generator: Adobe Illustrator 16.0.0, SVG Export Plug-In . SVG Version: 6.00 Build 0)  -->
<!DOCTYPE svg PUBLIC "-//W3C//DTD SVG 1.1//EN" "http://www.w3.org/Graphics/SVG/1.1/DTD/svg11.dtd">
<svg version="1.1" id="Layer_2" xmlns="http://www.w3.org/2000/svg" xmlns:xlink="http://www.w3.org/1999/xlink" x="0px" y="0px"
	 width="24px" height="24px" viewBox="0 0 24 24" style="enable-background:new 0 0 24 24;" xml:space="preserve">
<path style="fill:#231F20;" d="M16.71,8.706c-0.397-0.068-0.699,0.023-0.985,0.307l-3.76,3.76L8.43,9.241l-0.193,1.076
	c-0.071,0.395,0.025,0.695,0.31,0.984l2.053,2.051l0.312,0.314c0.554,0.455,1.328,0.332,1.598,0.268c0-0.002,0-0.002,0-0.002
	c0.001,0,0.002,0,0.005-0.002c0.147-0.041,0.29-0.107,0.428-0.223l4.843-4.809L16.71,8.706z M1,12.546l0.974,0.524
	c0.312,0.169,0.506,0.389,0.597,0.645c0.829,4.557,4.792,7.864,9.422,7.864c5.285,0,9.585-4.297,9.585-9.579s-4.3-9.579-9.585-9.579
	c-2.705,0-5.301,1.163-7.123,3.193l-0.371,0.53h2.263c0.373,0.002,0.63,0.133,0.836,0.427l0.696,0.995H2.727
	c-0.393,0-0.711-0.319-0.711-0.712V1.279l0.996,0.669C3.305,2.153,3.437,2.41,3.438,2.78v2.271l0.551-0.584
	C6.091,2.231,8.935,1,11.993,1C18.062,1,23,5.935,23,12s-4.938,11-11.007,11C6.108,23,1.285,18.358,1,12.546z"/>
</svg>
