<?xml version="1.0" encoding="utf-8"?>
<!-- Generator: Adobe Illustrator 16.0.0, SVG Export Plug-In . SVG Version: 6.00 Build 0)  -->
<!DOCTYPE svg PUBLIC "-//W3C//DTD SVG 1.1//EN" "http://www.w3.org/Graphics/SVG/1.1/DTD/svg11.dtd">
<svg version="1.1" id="Layer_2" xmlns="http://www.w3.org/2000/svg" xmlns:xlink="http://www.w3.org/1999/xlink" x="0px" y="0px"
	 width="24px" height="24px" viewBox="0 0 24 24" enable-background="new 0 0 24 24" xml:space="preserve">
<path fill="#231F20" d="M1,12.546l0.974,0.524c0.312,0.169,0.506,0.389,0.597,0.645c0.829,4.557,4.792,7.864,9.422,7.864
	c5.285,0,9.585-4.297,9.585-9.579s-4.3-9.579-9.585-9.579c-2.705,0-5.301,1.163-7.123,3.193l-0.371,0.53h2.263
	c0.373,0.002,0.63,0.133,0.836,0.427l0.696,0.995H2.727c-0.393,0-0.711-0.319-0.711-0.712V1.279l0.996,0.669
	C3.305,2.153,3.437,2.41,3.438,2.78v2.271l0.551-0.584C6.091,2.231,8.935,1,11.993,1C18.062,1,23,5.935,23,12s-4.938,11-11.007,11
	C6.108,23,1.285,18.358,1,12.546z M12.899,11.863c-0.175-0.062-0.307-0.155-0.396-0.281s-0.111-0.282-0.11-0.468l0-6.146
	l-0.915,0.645c-0.33,0.232-0.456,0.503-0.455,0.906L11,12.642l4.11,1.47c0.379,0.137,0.676,0.108,1.006-0.123l0.915-0.645
	L12.899,11.863z"/>
</svg>
