<?xml version="1.0" encoding="iso-8859-1"?>
<!-- Generator: Adobe Illustrator 16.0.0, SVG Export Plug-In . SVG Version: 6.00 Build 0)  -->
<!DOCTYPE svg PUBLIC "-//W3C//DTD SVG 1.1//EN" "http://www.w3.org/Graphics/SVG/1.1/DTD/svg11.dtd">
<svg version="1.1" id="Layer" xmlns="http://www.w3.org/2000/svg" xmlns:xlink="http://www.w3.org/1999/xlink" x="0px" y="0px"
	 width="24px" height="24px" viewBox="0 0 24 24" style="enable-background:new 0 0 24 24;" xml:space="preserve">
<path style="fill-rule:evenodd;clip-rule:evenodd;" d="M22.835,10.813c-0.733-4.253-3.926-7.716-8.085-8.778
	C8.658,0.478,2.518,4.299,1.229,10.454c-0.093,0.439-0.127,0.891-0.19,1.335c-0.01,0.07-0.025,0.14-0.039,0.21
	c0,0.442,0,0.888,0,1.332c0.031,0.26,0.055,0.522,0.095,0.782c0.539,3.516,2.32,6.207,5.362,8.06
	c0.387,0.235,0.604,0.175,0.824-0.216c0.698-1.233,1.396-2.464,2.092-3.697c0.391-0.691,0.78-1.383,1.169-2.074
	c0.202-0.355,0.15-0.556-0.192-0.77c-0.036-0.021-0.073-0.044-0.107-0.068c-1.327-0.874-1.817-2.553-1.164-3.989
	c0.647-1.432,2.251-2.199,3.766-1.762c1.304,0.377,2.088,1.269,2.32,2.601c0.221,1.265-0.392,2.524-1.501,3.208
	c-0.341,0.21-0.416,0.416-0.242,0.724c1.11,1.969,2.222,3.936,3.337,5.901c0.167,0.296,0.414,0.361,0.706,0.186
	c2.919-1.74,4.71-4.278,5.359-7.613c0.08-0.405,0.117-0.819,0.175-1.229c0-0.46,0-0.917,0-1.375
	C22.945,11.604,22.902,11.206,22.835,10.813z M21.625,13.285l-0.042,0.321c-0.031,0.244-0.061,0.489-0.107,0.732
	c-0.519,2.664-1.821,4.705-3.972,6.216c-0.835-1.476-1.669-2.951-2.503-4.429c1.206-1.04,1.792-2.604,1.521-4.165
	c-0.324-1.855-1.493-3.165-3.293-3.686C12.822,8.158,12.403,8.1,11.982,8.1c-1.785,0-3.416,1.057-4.155,2.692
	c-0.848,1.867-0.349,4.02,1.171,5.334l-2.503,4.428c-2.28-1.611-3.603-3.792-4.041-6.648c-0.025-0.165-0.043-0.33-0.061-0.494
	l-0.018-0.158v-1.12c0.011-0.061,0.02-0.11,0.027-0.159l0.059-0.46c0.031-0.26,0.061-0.52,0.115-0.775
	C3.506,6.289,7.469,3.062,12,3.062c0.807,0,1.618,0.103,2.41,0.305c3.652,0.934,6.426,3.946,7.07,7.68
	c0.041,0.24,0.072,0.486,0.104,0.73l0.042,0.312V13.285z"/>
</svg>
