<?xml version="1.0" encoding="utf-8"?>
<!-- Generator: Adobe Illustrator 16.0.0, SVG Export Plug-In . SVG Version: 6.00 Build 0)  -->
<!DOCTYPE svg PUBLIC "-//W3C//DTD SVG 1.1//EN" "http://www.w3.org/Graphics/SVG/1.1/DTD/svg11.dtd">
<svg version="1.1" id="Layer" xmlns="http://www.w3.org/2000/svg" xmlns:xlink="http://www.w3.org/1999/xlink" x="0px" y="0px"
	 width="16px" height="16px" viewBox="0 0 16 16" enable-background="new 0 0 16 16" xml:space="preserve">
<path fill-rule="evenodd" clip-rule="evenodd" d="M15.88,7.137C15.347,4.044,13.024,1.525,10,0.753
	C5.569-0.38,1.104,2.399,0.167,6.876C0.1,7.195,0.074,7.523,0.028,7.847C0.021,7.897,0.01,7.948,0,7.999c0,0.322,0,0.646,0,0.969
	c0.022,0.189,0.04,0.38,0.069,0.569c0.392,2.557,1.688,4.514,3.899,5.861c0.281,0.171,0.439,0.127,0.6-0.157
	c0.508-0.896,1.015-1.792,1.521-2.688c0.284-0.503,0.567-1.006,0.851-1.509c0.146-0.259,0.109-0.404-0.14-0.56
	c-0.026-0.016-0.053-0.032-0.078-0.05C5.758,9.799,5.401,8.578,5.876,7.533c0.471-1.041,1.638-1.6,2.739-1.281
	c0.948,0.274,1.519,0.923,1.688,1.892c0.16,0.92-0.285,1.836-1.092,2.333c-0.248,0.152-0.303,0.303-0.176,0.526
	c0.808,1.432,1.616,2.862,2.427,4.292c0.122,0.215,0.301,0.263,0.514,0.135c2.123-1.266,3.426-3.111,3.897-5.537
	C15.931,9.598,15.958,9.297,16,8.999c0-0.334,0-0.667,0-1C15.96,7.712,15.929,7.423,15.88,7.137z M15,8.935l-0.03,0.233
	c-0.022,0.178-0.044,0.356-0.078,0.533c-0.377,1.938-1.324,3.422-2.889,4.521c-0.607-1.073-1.214-2.146-1.821-3.221
	c0.877-0.757,1.303-1.894,1.106-3.029c-0.236-1.35-1.086-2.302-2.395-2.681c-0.295-0.085-0.6-0.128-0.906-0.128
	c-1.298,0-2.484,0.769-3.022,1.958c-0.617,1.358-0.254,2.924,0.852,3.88l-1.82,3.22c-1.659-1.172-2.621-2.758-2.939-4.835
	c-0.019-0.12-0.031-0.24-0.044-0.359L1,8.911V8.097c0.008-0.044,0.015-0.08,0.02-0.116l0.042-0.334
	c0.023-0.189,0.044-0.378,0.083-0.564C1.822,3.847,4.705,1.5,8,1.5c0.587,0,1.177,0.074,1.753,0.222
	c2.656,0.679,4.674,2.87,5.142,5.585c0.03,0.175,0.052,0.354,0.075,0.531L15,8.064V8.935z"/>
</svg>
