<?xml version="1.0" encoding="iso-8859-1"?>
<!-- Generator: Adobe Illustrator 16.0.0, SVG Export Plug-In . SVG Version: 6.00 Build 0)  -->
<!DOCTYPE svg PUBLIC "-//W3C//DTD SVG 1.1//EN" "http://www.w3.org/Graphics/SVG/1.1/DTD/svg11.dtd">
<svg version="1.1" id="Layer" xmlns="http://www.w3.org/2000/svg" xmlns:xlink="http://www.w3.org/1999/xlink" x="0px" y="0px"
	 width="24px" height="24px" viewBox="0 0 24 24" style="enable-background:new 0 0 24 24;" xml:space="preserve">
<path d="M20.746,7.51c0.289,6.354-4.447,13.429-12.828,13.429c-2.548,0-4.92-0.75-6.918-2.024c2.395,0.28,4.782-0.385,6.682-1.869
	c-1.976-0.039-3.642-1.348-4.213-3.135c0.703,0.132,1.4,0.09,2.034-0.082c-2.171-0.432-3.666-2.388-3.62-4.476
	c0.61,0.33,1.308,0.539,2.042,0.562C1.916,8.566,1.346,5.918,2.527,3.882c2.23,2.73,5.553,4.53,9.303,4.722
	c-0.657-2.829,1.489-5.542,4.401-5.542c1.298,0,2.471,0.543,3.296,1.423c1.024-0.198,1.991-0.579,2.868-1.095
	c-0.341,1.053-1.059,1.946-1.986,2.504c0.913-0.119,1.783-0.358,2.59-0.721C22.397,6.075,21.633,6.87,20.746,7.51z"/>
</svg>
