<?xml version="1.0" encoding="utf-8"?>
<!-- Generator: Adobe Illustrator 16.0.0, SVG Export Plug-In . SVG Version: 6.00 Build 0)  -->
<!DOCTYPE svg PUBLIC "-//W3C//DTD SVG 1.1//EN" "http://www.w3.org/Graphics/SVG/1.1/DTD/svg11.dtd">
<svg version="1.1" id="Layer" xmlns="http://www.w3.org/2000/svg" xmlns:xlink="http://www.w3.org/1999/xlink" x="0px" y="0px"
	 width="16px" height="16px" viewBox="0 0 16 16" enable-background="new 0 0 16 16" xml:space="preserve">
<path d="M14.361,4.734c0.209,4.62-3.234,9.767-9.33,9.767c-1.854,0-3.578-0.545-5.031-1.474c1.742,0.204,3.479-0.279,4.859-1.359
	c-1.437-0.027-2.649-0.979-3.065-2.279c0.513,0.097,1.02,0.066,1.48-0.059C1.696,9.016,0.608,7.593,0.642,6.073
	c0.443,0.242,0.95,0.393,1.485,0.409C0.667,5.504,0.252,3.576,1.111,2.097C2.732,4.083,5.15,5.391,7.877,5.529
	c-0.479-2.056,1.082-4.03,3.2-4.03c0.943,0,1.797,0.396,2.396,1.036c0.746-0.146,1.449-0.421,2.086-0.796
	c-0.247,0.766-0.769,1.413-1.444,1.818C14.78,3.474,15.413,3.299,16,3.036C15.561,3.692,15.005,4.271,14.361,4.734z"/>
</svg>
