<?xml version="1.0" encoding="iso-8859-1"?>
<!-- Generator: Adobe Illustrator 16.0.0, SVG Export Plug-In . SVG Version: 6.00 Build 0)  -->
<!DOCTYPE svg PUBLIC "-//W3C//DTD SVG 1.1//EN" "http://www.w3.org/Graphics/SVG/1.1/DTD/svg11.dtd">
<svg version="1.1" id="Layer" xmlns="http://www.w3.org/2000/svg" xmlns:xlink="http://www.w3.org/1999/xlink" x="0px" y="0px"
	 width="24px" height="24px" viewBox="0 0 24 24" style="enable-background:new 0 0 24 24;" xml:space="preserve">
<path d="M13.476,10.501c0.055,0.319,0.101,0.642,0.101,1.063c0,3.666-2.456,6.269-6.159,6.269C3.869,17.833,1,14.964,1,11.416
	c0-3.547,2.869-6.415,6.417-6.415c1.731,0,3.181,0.632,4.298,1.679L9.975,8.355c-0.478-0.46-1.311-0.988-2.558-0.988
	c-2.191,0-3.979,1.812-3.979,4.049c0,2.24,1.788,4.051,3.979,4.051c2.538,0,3.492-1.823,3.639-2.766H7.417v-2.2H13.476z
	 M20.249,10.501v-2.75h-1.832v2.75h-2.75v1.832h2.75v2.75h1.832v-2.75H23v-1.832H20.249z"/>
</svg>
