<?xml version="1.0" encoding="utf-8"?>
<!-- Generator: Adobe Illustrator 16.0.0, SVG Export Plug-In . SVG Version: 6.00 Build 0)  -->
<!DOCTYPE svg PUBLIC "-//W3C//DTD SVG 1.1//EN" "http://www.w3.org/Graphics/SVG/1.1/DTD/svg11.dtd">
<svg version="1.1" id="Layer" xmlns="http://www.w3.org/2000/svg" xmlns:xlink="http://www.w3.org/1999/xlink" x="0px" y="0px"
	 width="16px" height="16px" viewBox="0 0 16 16" enable-background="new 0 0 16 16" xml:space="preserve">
<path d="M9.073,7.334c0.041,0.232,0.074,0.467,0.074,0.773c0,2.666-1.787,4.559-4.48,4.559C2.086,12.666,0,10.58,0,8
	s2.086-4.666,4.667-4.666c1.26,0,2.313,0.459,3.126,1.221L6.527,5.773C6.18,5.439,5.573,5.055,4.667,5.055
	C3.073,5.055,1.773,6.373,1.773,8c0,1.629,1.3,2.945,2.893,2.945c1.846,0,2.54-1.326,2.646-2.012H4.667v-1.6H9.073z M14,7.334v-2
	h-1.333v2h-2v1.332h2v2H14v-2h2V7.334H14z"/>
</svg>
