<?xml version="1.0" encoding="utf-8"?>
<!-- Generator: Adobe Illustrator 16.0.0, SVG Export Plug-In . SVG Version: 6.00 Build 0)  -->
<!DOCTYPE svg PUBLIC "-//W3C//DTD SVG 1.1//EN" "http://www.w3.org/Graphics/SVG/1.1/DTD/svg11.dtd">
<svg version="1.1" id="Layer" xmlns="http://www.w3.org/2000/svg" xmlns:xlink="http://www.w3.org/1999/xlink" x="0px" y="0px"
	 width="16px" height="16px" viewBox="0 0 16 16" enable-background="new 0 0 16 16" xml:space="preserve">
<path d="M8,1.442c2.137,0,2.389,0.007,3.233,0.046c2.168,0.098,3.181,1.129,3.28,3.28c0.038,0.843,0.046,1.097,0.046,3.232
	s-0.008,2.389-0.046,3.231c-0.1,2.15-1.109,3.182-3.28,3.28c-0.844,0.039-1.096,0.046-3.233,0.046s-2.389-0.007-3.232-0.046
	c-2.173-0.099-3.181-1.132-3.279-3.28C1.449,10.389,1.441,10.137,1.441,8c0-2.136,0.008-2.389,0.047-3.232
	c0.099-2.15,1.109-3.182,3.279-3.279C5.611,1.449,5.863,1.442,8,1.442z M8,0C5.827,0,5.556,0.008,4.702,0.049
	C1.796,0.18,0.182,1.793,0.049,4.701C0.01,5.555,0,5.827,0,8s0.01,2.445,0.048,3.299c0.134,2.906,1.745,4.521,4.653,4.652
	C5.556,15.992,5.827,16,8,16s2.445-0.008,3.299-0.049c2.902-0.131,4.521-1.744,4.652-4.652C15.991,10.445,16,10.173,16,8
	s-0.009-2.445-0.048-3.299c-0.13-2.901-1.745-4.52-4.652-4.652C10.445,0.008,10.173,0,8,0z M8,3.893
	C5.731,3.893,3.892,5.731,3.892,8S5.731,12.108,8,12.108c2.269,0,4.108-1.839,4.108-4.108C12.108,5.731,10.269,3.893,8,3.893z
	 M8,10.666c-1.473,0-2.667-1.192-2.667-2.666c0-1.473,1.194-2.666,2.667-2.666S10.667,6.527,10.667,8
	C10.667,9.474,9.473,10.666,8,10.666z M12.271,2.77c-0.531,0-0.961,0.43-0.961,0.961c0,0.529,0.43,0.96,0.961,0.96
	c0.53,0,0.96-0.431,0.96-0.96C13.23,3.199,12.801,2.77,12.271,2.77z"/>
</svg>
