<?xml version="1.0" encoding="iso-8859-1"?>
<!-- Generator: Adobe Illustrator 16.0.0, SVG Export Plug-In . SVG Version: 6.00 Build 0)  -->
<!DOCTYPE svg PUBLIC "-//W3C//DTD SVG 1.1//EN" "http://www.w3.org/Graphics/SVG/1.1/DTD/svg11.dtd">
<svg version="1.1" id="Layer" xmlns="http://www.w3.org/2000/svg" xmlns:xlink="http://www.w3.org/1999/xlink" x="0px" y="0px"
	 width="24px" height="24px" viewBox="0 0 24 24" style="enable-background:new 0 0 24 24;" xml:space="preserve">
<path d="M12,2.983c2.938,0,3.285,0.009,4.445,0.063c2.981,0.134,4.374,1.552,4.51,4.51c0.052,1.159,0.063,1.508,0.063,4.444
	s-0.011,3.285-0.063,4.443c-0.137,2.957-1.525,4.375-4.51,4.511c-1.16,0.054-1.507,0.062-4.445,0.062s-3.285-0.009-4.444-0.062
	c-2.989-0.136-4.374-1.557-4.509-4.511C2.993,15.284,2.982,14.938,2.982,12c0-2.937,0.011-3.284,0.064-4.444
	c0.136-2.957,1.525-4.375,4.509-4.509C8.716,2.992,9.062,2.983,12,2.983z M12,1C9.012,1,8.639,1.011,7.465,1.067
	C3.47,1.247,1.25,3.465,1.067,7.464C1.014,8.638,1,9.013,1,12s0.014,3.362,0.066,4.536c0.184,3.996,2.399,6.217,6.398,6.396
	C8.639,22.989,9.012,23,12,23s3.362-0.011,4.536-0.067c3.99-0.18,6.217-2.397,6.396-6.396C22.987,15.362,23,14.987,23,12
	s-0.013-3.362-0.066-4.536c-0.179-3.989-2.399-6.214-6.396-6.396C15.362,1.011,14.988,1,12,1z M12,6.353
	c-3.12,0-5.648,2.528-5.648,5.647S8.88,17.649,12,17.649c3.119,0,5.648-2.528,5.648-5.649C17.648,8.881,15.119,6.353,12,6.353z
	 M12,15.666c-2.025,0-3.667-1.64-3.667-3.666c0-2.025,1.642-3.666,3.667-3.666S15.667,9.975,15.667,12
	C15.667,14.026,14.025,15.666,12,15.666z M17.872,4.809c-0.73,0-1.321,0.59-1.321,1.32c0,0.729,0.591,1.32,1.321,1.32
	c0.729,0,1.32-0.592,1.32-1.32C19.192,5.398,18.601,4.809,17.872,4.809z"/>
</svg>
