<?xml version="1.0" encoding="utf-8"?>
<!-- Generator: Adobe Illustrator 25.2.1, SVG Export Plug-In . SVG Version: 6.00 Build 0)  -->
<svg version="1.1" id="Layer" xmlns="http://www.w3.org/2000/svg" xmlns:xlink="http://www.w3.org/1999/xlink" x="0px" y="0px"
	 viewBox="0 0 24 24" style="enable-background:new 0 0 24 24;" xml:space="preserve">
<g>
	<path d="M18.4,4.7c-0.8-0.9-2-1.6-3.3-1.9c-0.2,0-0.3-0.1-0.5-0.1c-1,0-1.8,0.8-1.8,1.8c0,0.8,0.6,1.5,1.3,1.7c0.5,0.2,1,0.5,1.4,1
		c0.5,0.7,0.6,1.6,0.7,2.9v4.7c0,0,0,0,0,0.1c0.1,1.2-0.1,2.3-0.7,3.1c-0.7,1-1.7,1.2-2.7,1.2c-1,0-2-0.3-2.7-1.2
		c-0.6-0.8-0.7-1.7-0.7-3.1c0-0.1,0-0.3,0-0.4h0c0-1.1-0.9-1.9-1.9-1.9s-1.9,0.9-1.9,1.9h0c0,0.2,0,0.4,0,0.6
		c-0.1,2,0.5,4.1,1.7,5.5c1.3,1.5,3.5,2.3,5.6,2.3c2.1,0,4.1-0.6,5.6-2.4c1.2-1.4,1.7-3.3,1.7-5.3c0-0.1,0-0.2,0-0.3h0v-4.8h0
		C20.2,8.2,19.6,6.1,18.4,4.7z"/>
	<path d="M7.7,9.1L7.7,9.1l0-0.7c0-1.3,0.1-2.1,0.7-2.9c0.4-0.5,0.8-0.8,1.4-1c0.8-0.2,1.3-0.9,1.3-1.7c0-1-0.8-1.8-1.8-1.8
		C9.1,1,9,1,8.8,1.1C7.5,1.4,6.4,2,5.6,2.9c-1.2,1.4-1.7,3-1.7,5.2l0,0.3l0,0.7h0c0,1.1,0.9,1.9,1.9,1.9S7.7,10.2,7.7,9.1z"/>
</g>
</svg>
