<?xml version="1.0" encoding="utf-8"?>
<!-- Generator: Adobe Illustrator 24.3.0, SVG Export Plug-In . SVG Version: 6.00 Build 0)  -->
<svg version="1.1" id="Layer_1" xmlns="http://www.w3.org/2000/svg" xmlns:xlink="http://www.w3.org/1999/xlink" x="0px" y="0px"
	 viewBox="0 0 32 32" style="enable-background:new 0 0 32 32;" xml:space="preserve">
<style type="text/css">
	.st0{fill-rule:evenodd;clip-rule:evenodd;}
</style>
<g>
	<path class="st0" d="M26.3,5.7c-2.7-2.7-6.4-4.2-10.2-4.2c-8,0-14.4,6.5-14.5,14.5c0,2.5,0.7,5,1.9,7.2l-2.1,7.5l7.7-2
		c2.1,1.2,4.5,1.8,6.9,1.8h0c8,0,14.4-6.5,14.5-14.5C30.5,12,29,8.4,26.3,5.7z M16.1,27.9L16.1,27.9c-2.2,0-4.3-0.6-6.1-1.7L9.5,26
		L5,27.1l1.2-4.4l-0.3-0.5C4.7,20.3,4,18.1,4,15.9c0-6.6,5.4-12,12-12c3.2,0,6.2,1.3,8.5,3.5s3.5,5.3,3.5,8.5
		C28.1,22.5,22.7,27.9,16.1,27.9z M22.6,18.9c-0.4-0.2-2.1-1.1-2.5-1.2c-0.3-0.1-0.6-0.2-0.8,0.2c-0.2,0.4-0.9,1.2-1.1,1.4
		c-0.2,0.2-0.4,0.3-0.8,0.1c-0.4-0.2-1.5-0.6-2.9-1.8c-1.1-1-1.8-2.1-2-2.5c-0.2-0.4,0-0.5,0.2-0.7c0.4-0.5,0.8-1,0.9-1.2
		c0.1-0.2,0.1-0.5,0-0.6c-0.1-0.2-0.8-2-1.1-2.7c-0.3-0.7-0.6-0.6-0.8-0.6c-0.2,0-0.5,0-0.7,0c-0.2,0-0.6,0.1-1,0.5
		c-0.3,0.4-1.3,1.2-1.3,3s1.3,3.5,1.5,3.7c0.2,0.2,2.5,3.9,6.2,5.5c0.9,0.4,1.5,0.6,2.1,0.8c0.9,0.3,1.7,0.2,2.3,0.1
		c0.7-0.1,2.1-0.9,2.4-1.7c0.3-0.8,0.3-1.6,0.2-1.7C23.3,19.2,23,19.1,22.6,18.9z"/>
</g>
</svg>
