<?xml version="1.0" encoding="utf-8"?>
<!-- Generator: Adobe Illustrator 27.4.1, SVG Export Plug-In . SVG Version: 6.00 Build 0)  -->
<svg version="1.1" id="Layer_1" xmlns="http://www.w3.org/2000/svg" xmlns:xlink="http://www.w3.org/1999/xlink" x="0px" y="0px"
	 viewBox="0 0 16 16" style="enable-background:new 0 0 16 16;" xml:space="preserve">
<style type="text/css">
	.st0{display:none;}
	.st1{display:inline;}
	.st2{fill:url(#SVGID_1_);}
	.st3{fill:url(#SVGID_00000016070032664812872180000003163251711822449549_);}
	.st4{fill:url(#SVGID_00000180331517050322034040000007915131967686472581_);}
</style>
<g id="PRI" class="st0">
	<g class="st1">
		
			<linearGradient id="SVGID_1_" gradientUnits="userSpaceOnUse" x1="9.067" y1="5.8905" x2="10.49" y2="5.8905" gradientTransform="matrix(1 0 0 -1 0 18)">
			<stop  offset="0" style="stop-color:#1BA18E"/>
			<stop  offset="1.360000e-02" style="stop-color:#1BA18E"/>
			<stop  offset="1" style="stop-color:#179D94"/>
		</linearGradient>
		<path class="st2" d="M9.1,13v-1.9h0.6c0.2,0,0.4,0,0.4,0c0.1,0,0.2,0.1,0.3,0.2c0.1,0.1,0.1,0.2,0.1,0.4c0,0.1,0,0.2-0.1,0.3
			c0,0.1-0.1,0.1-0.2,0.2c-0.1,0-0.1,0.1-0.2,0.1c-0.1,0-0.2,0-0.4,0H9.4V13C9.4,13,9.1,13,9.1,13z M9.4,11.5V12h0.2
			c0.1,0,0.2,0,0.3,0c0.1,0,0.1-0.1,0.1-0.1c0,0,0-0.1,0-0.1c0-0.1,0-0.1-0.1-0.2c0,0-0.1-0.1-0.2-0.1c0,0-0.1,0-0.3,0L9.4,11.5
			L9.4,11.5z"/>
		
			<linearGradient id="SVGID_00000104667637966088607960000012968646003159646880_" gradientUnits="userSpaceOnUse" x1="10.8" y1="5.89" x2="12.471" y2="5.89" gradientTransform="matrix(1 0 0 -1 0 18)">
			<stop  offset="0" style="stop-color:#1BA18E"/>
			<stop  offset="1.360000e-02" style="stop-color:#1BA18E"/>
			<stop  offset="1" style="stop-color:#179D94"/>
		</linearGradient>
		<path style="fill:url(#SVGID_00000104667637966088607960000012968646003159646880_);" d="M10.8,13v-1.9h0.8c0.2,0,0.3,0,0.4,0.1
			s0.2,0.1,0.2,0.2c0.1,0.1,0.1,0.2,0.1,0.3c0,0.1,0,0.3-0.1,0.3s-0.2,0.1-0.4,0.2c0.1,0,0.1,0.1,0.2,0.2s0.1,0.2,0.2,0.3l0.2,0.4
			H12l-0.3-0.4c-0.1-0.1-0.2-0.2-0.2-0.3c0,0-0.1-0.1-0.1-0.1s-0.1,0-0.2,0h-0.1V13L10.8,13L10.8,13z M11.2,12h0.3
			c0.2,0,0.3,0,0.3,0c0,0,0.1,0,0.1-0.1s0-0.1,0-0.1c0-0.1,0-0.1-0.1-0.2c0,0-0.1-0.1-0.1-0.1c0,0-0.1,0-0.3,0h-0.3L11.2,12L11.2,12
			z"/>
		
			<linearGradient id="SVGID_00000033364134093269826350000018252796720671926969_" gradientUnits="userSpaceOnUse" x1="12.661" y1="5.8905" x2="13.036" y2="5.8905" gradientTransform="matrix(1 0 0 -1 0 18)">
			<stop  offset="0" style="stop-color:#1BA18E"/>
			<stop  offset="1.360000e-02" style="stop-color:#1BA18E"/>
			<stop  offset="1" style="stop-color:#179D94"/>
		</linearGradient>
		<path style="fill:url(#SVGID_00000033364134093269826350000018252796720671926969_);" d="M12.7,13v-1.9H13V13H12.7z"/>
	</g>
</g>
<g>
	<path d="M6.7,11.7c-0.2-0.1-0.4-0.1-0.6-0.1H4.7v2H6c0.4,0,0.8-0.1,1-0.3c0.2-0.2,0.3-0.4,0.3-0.7c0-0.2,0-0.4-0.1-0.5
		C7,11.9,6.9,11.7,6.7,11.7z"/>
	<path d="M6.5,10.4c0.2-0.1,0.3-0.2,0.4-0.3S7,9.8,7,9.6c0-0.3-0.1-0.5-0.3-0.6C6.5,8.7,6.3,8.7,5.9,8.7H4.7v1.8h1.2
		C6.1,10.5,6.3,10.5,6.5,10.4z"/>
	<path d="M4,0C1.8,0,0,1.8,0,4v12h5.4H12h4v-4V5.4V0H4z M8.5,13.7c-0.2,0.3-0.5,0.5-0.8,0.7c-0.4,0.2-0.8,0.3-1.4,0.3H3.2V7.4h2.9
		c0.5,0,1,0.1,1.3,0.2s0.6,0.4,0.8,0.7s0.3,0.6,0.3,1c0,0.3-0.1,0.5-0.2,0.7c-0.1,0.2-0.3,0.4-0.5,0.5c-0.2,0.1-0.4,0.2-0.7,0.3V11
		C7.5,11,7.7,11,8,11.2c0.2,0.1,0.4,0.3,0.6,0.6s0.2,0.6,0.2,0.9C8.8,13.1,8.7,13.4,8.5,13.7z M13.9,14.7l-1.4-2.6h-1.2v2.6H9.8V7.4
		h2.8c0.6,0,1,0.1,1.4,0.3c0.4,0.2,0.7,0.5,0.9,0.8c0.2,0.4,0.3,0.8,0.3,1.3s-0.1,0.9-0.3,1.2c-0.2,0.3-0.5,0.6-0.9,0.8
		c0,0-0.1,0-0.1,0l1.6,2.8H13.9z"/>
	<path d="M13.2,10.8c0.2-0.1,0.3-0.2,0.4-0.4c0.1-0.2,0.1-0.4,0.1-0.6c0-0.2,0-0.5-0.1-0.6c-0.1-0.2-0.2-0.3-0.4-0.4
		c-0.2-0.1-0.4-0.1-0.8-0.1h-1.1v2.2h1.1C12.7,10.9,13,10.9,13.2,10.8z"/>
</g>
</svg>
