<?xml version="1.0" encoding="utf-8"?>
<!-- Generator: Adobe Illustrator 16.0.0, SVG Export Plug-In . SVG Version: 6.00 Build 0)  -->
<!DOCTYPE svg PUBLIC "-//W3C//DTD SVG 1.1//EN" "http://www.w3.org/Graphics/SVG/1.1/DTD/svg11.dtd">
<svg version="1.1" id="Layer" xmlns="http://www.w3.org/2000/svg" xmlns:xlink="http://www.w3.org/1999/xlink" x="0px" y="0px"
	 width="24px" height="24px" viewBox="0 0 24 24" enable-background="new 0 0 24 24" xml:space="preserve">
<path fill="#231F20" d="M12,1C5.935,1,1,5.935,1,12s4.935,11,11,11s11-4.935,11-11S18.065,1,12,1z M12,21.625
	c-5.316,0-9.625-4.311-9.625-9.625S6.684,2.375,12,2.375S21.625,6.686,21.625,12S17.316,21.625,12,21.625z M12.899,11.863
	c-0.175-0.062-0.307-0.155-0.396-0.281s-0.111-0.282-0.11-0.468l0-6.146l-0.915,0.645c-0.33,0.232-0.456,0.503-0.455,0.906
	L11,12.642l4.11,1.47c0.379,0.137,0.676,0.108,1.006-0.123l0.915-0.645L12.899,11.863z"/>
</svg>
