<?xml version="1.0" encoding="iso-8859-1"?>
<!-- Generator: Adobe Illustrator 16.0.0, SVG Export Plug-In . SVG Version: 6.00 Build 0)  -->
<!DOCTYPE svg PUBLIC "-//W3C//DTD SVG 1.1//EN" "http://www.w3.org/Graphics/SVG/1.1/DTD/svg11.dtd">
<svg version="1.1" id="Layer" xmlns="http://www.w3.org/2000/svg" xmlns:xlink="http://www.w3.org/1999/xlink" x="0px" y="0px"
	 width="16px" height="16px" viewBox="0 0 16 16" style="enable-background:new 0 0 16 16;" xml:space="preserve">
<path style="fill:#231F20;" d="M8,0C3.589,0,0,3.589,0,8s3.589,8,8,8s8-3.589,8-8S12.411,0,8,0z M8,15c-3.866,0-7-3.135-7-7
	s3.134-7,7-7s7,3.135,7,7S11.866,15,8,15z M12.259,4.781L8.738,8.277C8.636,8.363,8.534,8.412,8.426,8.441
	C8.424,8.443,8.423,8.443,8.422,8.443c0,0,0,0,0,0.002C8.225,8.492,7.663,8.58,7.26,8.248L7.033,8.021L5.54,6.527
	C5.333,6.32,5.263,6.102,5.315,5.812l0.141-0.783l2.57,2.57l2.734-2.734c0.208-0.207,0.427-0.275,0.716-0.225L12.259,4.781z"/>
</svg>
