<?xml version="1.0" encoding="iso-8859-1"?>
<!-- Generator: Adobe Illustrator 16.0.0, SVG Export Plug-In . SVG Version: 6.00 Build 0)  -->
<!DOCTYPE svg PUBLIC "-//W3C//DTD SVG 1.1//EN" "http://www.w3.org/Graphics/SVG/1.1/DTD/svg11.dtd">
<svg version="1.1" id="Layer" xmlns="http://www.w3.org/2000/svg" xmlns:xlink="http://www.w3.org/1999/xlink" x="0px" y="0px"
	 width="24px" height="24px" viewBox="0 0 24 24" style="enable-background:new 0 0 24 24;" xml:space="preserve">
<path style="fill:#231F20;" d="M12,1C5.935,1,1,5.935,1,12s4.935,11,11,11s11-4.935,11-11S18.065,1,12,1z M12,21.625
	c-5.316,0-9.625-4.311-9.625-9.625S6.684,2.375,12,2.375S21.625,6.686,21.625,12S17.316,21.625,12,21.625z M17.856,7.574
	l-4.842,4.807c-0.14,0.119-0.281,0.186-0.429,0.227c-0.002,0.002-0.004,0.002-0.005,0.002c0,0,0,0,0,0.003
	c-0.271,0.064-1.044,0.186-1.598-0.271l-0.313-0.312L8.617,9.975C8.332,9.69,8.237,9.39,8.308,8.992l0.193-1.077l3.534,3.534
	l3.76-3.76c0.286-0.284,0.587-0.379,0.984-0.309L17.856,7.574z"/>
</svg>
