<?xml version="1.0" encoding="utf-8"?>
<!-- Generator: Adobe Illustrator 16.0.0, SVG Export Plug-In . SVG Version: 6.00 Build 0)  -->
<!DOCTYPE svg PUBLIC "-//W3C//DTD SVG 1.1//EN" "http://www.w3.org/Graphics/SVG/1.1/DTD/svg11.dtd">
<svg version="1.1" id="Layer" xmlns="http://www.w3.org/2000/svg" xmlns:xlink="http://www.w3.org/1999/xlink" x="0px" y="0px"
	 width="24px" height="24px" viewBox="0 0 24 24" enable-background="new 0 0 24 24" xml:space="preserve">
<path fill="#231F20" d="M11.964,3.141c-5.595,0-10.131,4.444-10.131,9.93S6.369,23,11.964,23c5.596,0,10.131-4.444,10.131-9.93
	S17.56,3.141,11.964,3.141z M11.964,21.625c-4.827,0-8.752-3.838-8.752-8.555s3.925-8.555,8.752-8.555
	c4.825,0,8.752,3.838,8.752,8.555S16.79,21.625,11.964,21.625z M17.016,1.217l1.103-0.194c0.397-0.071,0.676,0.029,0.962,0.313
	l3.583,3.532c0.284,0.285,0.385,0.564,0.315,0.961l-0.194,1.103L17.016,1.217z M1.216,6.933L1.022,5.83
	c-0.07-0.396,0.031-0.675,0.315-0.961L4.92,1.338c0.286-0.285,0.565-0.386,0.962-0.314l1.103,0.194L1.216,6.933z M12.868,12.97
	c-0.175-0.062-0.307-0.155-0.396-0.281s-0.111-0.282-0.11-0.468l0-6.146L11.446,6.72C11.117,6.952,10.999,7.223,11,7.626v6.122
	l4.079,1.47c0.379,0.137,0.676,0.108,1.006-0.123L17,14.45L12.868,12.97z"/>
</svg>
