<?xml version="1.0" encoding="iso-8859-1"?>
<!-- Generator: Adobe Illustrator 16.0.0, SVG Export Plug-In . SVG Version: 6.00 Build 0)  -->
<!DOCTYPE svg PUBLIC "-//W3C//DTD SVG 1.1//EN" "http://www.w3.org/Graphics/SVG/1.1/DTD/svg11.dtd">
<svg version="1.1" id="Layer" xmlns="http://www.w3.org/2000/svg" xmlns:xlink="http://www.w3.org/1999/xlink" x="0px" y="0px"
	 width="16px" height="16px" viewBox="0 0 16 16" style="enable-background:new 0 0 16 16;" xml:space="preserve">
<path style="fill:#231F20;" d="M8.574,1.587L7.5,1.581C3.678,1.835,0.655,4.955,0.655,8.778C0.655,12.768,3.944,16,8,16
	c4.057,0,7.345-3.232,7.345-7.222c0-3.823-3.022-6.943-6.845-7.197L8.574,1.587z M10.834,1l-0.456-0.651
	C10.209,0.106,10.004,0,9.71,0H5.166l0.457,0.652C5.791,0.893,5.996,1,6.29,1H10.834z M8,15c-3.499,0-6.345-2.791-6.345-6.222
	S4.501,2.557,8,2.557s6.345,2.791,6.345,6.222S11.499,15,8,15z M12.232,5.786L8.711,9.282C8.609,9.368,8.507,9.417,8.399,9.446
	C8.397,9.448,8.396,9.448,8.396,9.448c0,0,0,0,0,0.002c-0.197,0.047-0.76,0.135-1.162-0.197L7.006,9.026L5.513,7.532
	C5.306,7.325,5.236,7.106,5.288,6.817l0.141-0.783l2.57,2.57l2.734-2.734c0.208-0.207,0.427-0.275,0.716-0.225L12.232,5.786z"/>
</svg>
