<?xml version="1.0" encoding="iso-8859-1"?>
<!-- Generator: Adobe Illustrator 16.0.0, SVG Export Plug-In . SVG Version: 6.00 Build 0)  -->
<!DOCTYPE svg PUBLIC "-//W3C//DTD SVG 1.1//EN" "http://www.w3.org/Graphics/SVG/1.1/DTD/svg11.dtd">
<svg version="1.1" id="Layer" xmlns="http://www.w3.org/2000/svg" xmlns:xlink="http://www.w3.org/1999/xlink" x="0px" y="0px"
	 width="16px" height="16px" viewBox="0 0 16 16" style="enable-background:new 0 0 16 16;" xml:space="preserve">
<path style="fill:#231F20;" d="M7.974,1.557c-4.069,0-7.368,3.232-7.368,7.222S3.905,16,7.974,16c4.07,0,7.368-3.232,7.368-7.222
	S12.044,1.557,7.974,1.557z M7.974,15c-3.511,0-6.365-2.791-6.365-6.222s2.854-6.222,6.365-6.222c3.509,0,6.365,2.791,6.365,6.222
	S11.483,15,7.974,15z M12.22,5.786L8.688,9.282C8.585,9.368,8.483,9.417,8.375,9.446C8.373,9.448,8.372,9.448,8.371,9.448
	c0,0,0,0,0,0.002C8.172,9.497,7.609,9.585,7.204,9.253L6.977,9.026L5.478,7.532C5.271,7.325,5.202,7.106,5.253,6.817l0.141-0.783
	l2.579,2.57l2.744-2.734c0.208-0.207,0.428-0.275,0.718-0.225L12.22,5.786z M11.648,0.157l0.802-0.142
	c0.289-0.052,0.492,0.021,0.7,0.229l2.606,2.568c0.207,0.208,0.28,0.411,0.229,0.699l-0.142,0.802L11.648,0.157z M0.157,4.314
	L0.016,3.513c-0.051-0.288,0.022-0.491,0.229-0.699l2.606-2.568c0.208-0.207,0.411-0.28,0.7-0.229l0.802,0.142L0.157,4.314z"/>
</svg>
