<?xml version="1.0" encoding="iso-8859-1"?>
<!-- Generator: Adobe Illustrator 16.0.0, SVG Export Plug-In . SVG Version: 6.00 Build 0)  -->
<!DOCTYPE svg PUBLIC "-//W3C//DTD SVG 1.1//EN" "http://www.w3.org/Graphics/SVG/1.1/DTD/svg11.dtd">
<svg version="1.1" id="Layer" xmlns="http://www.w3.org/2000/svg" xmlns:xlink="http://www.w3.org/1999/xlink" x="0px" y="0px"
	 width="24px" height="24px" viewBox="0 0 24 24" style="enable-background:new 0 0 24 24;" xml:space="preserve">
<path style="fill:#231F20;" d="M12.79,3.182l-1.477-0.008c-5.255,0.35-9.412,4.64-9.412,9.896C1.901,18.556,6.423,23,12,23
	c5.578,0,10.099-4.444,10.099-9.93c0-5.257-4.156-9.547-9.412-9.896L12.79,3.182z M15.896,2.375L15.27,1.479
	C15.038,1.146,14.755,1,14.351,1H8.104l0.627,0.896c0.232,0.331,0.514,0.479,0.917,0.479H15.896z M12,21.625
	c-4.811,0-8.724-3.838-8.724-8.555S7.189,4.516,12,4.516s8.724,3.838,8.724,8.555S16.811,21.625,12,21.625z M17.819,8.956
	l-4.842,4.807c-0.14,0.118-0.281,0.186-0.428,0.226c-0.003,0.003-0.004,0.003-0.005,0.003c0,0,0,0,0,0.003
	c-0.271,0.064-1.045,0.186-1.598-0.271l-0.313-0.312L8.58,11.356c-0.285-0.284-0.38-0.585-0.309-0.982l0.193-1.077l3.534,3.534
	l3.76-3.76c0.286-0.284,0.587-0.379,0.984-0.309L17.819,8.956z"/>
</svg>
