<?xml version="1.0" encoding="utf-8"?>
<!-- Generator: Adobe Illustrator 16.0.0, SVG Export Plug-In . SVG Version: 6.00 Build 0)  -->
<!DOCTYPE svg PUBLIC "-//W3C//DTD SVG 1.1//EN" "http://www.w3.org/Graphics/SVG/1.1/DTD/svg11.dtd">
<svg version="1.1" id="Layer" xmlns="http://www.w3.org/2000/svg" xmlns:xlink="http://www.w3.org/1999/xlink" x="0px" y="0px"
	 width="24px" height="24px" viewBox="0 0 24 24" enable-background="new 0 0 24 24" xml:space="preserve">
<path fill="#231F20" d="M12.79,3.182l-1.477-0.008c-5.255,0.35-9.412,4.64-9.412,9.896C1.901,18.556,6.423,23,12,23
	c5.578,0,10.099-4.444,10.099-9.93c0-5.257-4.156-9.547-9.412-9.896L12.79,3.182z M15.896,2.375L15.27,1.479
	C15.038,1.146,14.755,1,14.351,1H8.104l0.627,0.896c0.232,0.331,0.514,0.479,0.917,0.479H15.896z M12,21.625
	c-4.811,0-8.724-3.838-8.724-8.555S7.189,4.516,12,4.516s8.724,3.838,8.724,8.555S16.811,21.625,12,21.625z M12.868,12.97
	c-0.175-0.062-0.307-0.155-0.396-0.281s-0.111-0.282-0.11-0.468l0-6.146L11.446,6.72C11.117,6.952,10.999,7.223,11,7.626v6.122
	l4.079,1.47c0.379,0.137,0.676,0.108,1.006-0.123L17,14.45L12.868,12.97z"/>
</svg>
