<?xml version="1.0" encoding="iso-8859-1"?>
<!-- Generator: Adobe Illustrator 16.0.0, SVG Export Plug-In . SVG Version: 6.00 Build 0)  -->
<!DOCTYPE svg PUBLIC "-//W3C//DTD SVG 1.1//EN" "http://www.w3.org/Graphics/SVG/1.1/DTD/svg11.dtd">
<svg version="1.1" id="Layer" xmlns="http://www.w3.org/2000/svg" xmlns:xlink="http://www.w3.org/1999/xlink" x="0px" y="0px"
	 width="24px" height="24px" viewBox="0 0 24 24" style="enable-background:new 0 0 24 24;" xml:space="preserve">
<path style="fill:#231F20;" d="M11.964,3.141c-5.595,0-10.131,4.444-10.131,9.93S6.369,23,11.964,23
	c5.596,0,10.131-4.444,10.131-9.93S17.56,3.141,11.964,3.141z M11.964,21.625c-4.827,0-8.752-3.838-8.752-8.555
	s3.925-8.555,8.752-8.555c4.825,0,8.752,3.838,8.752,8.555S16.79,21.625,11.964,21.625z M17.802,8.956l-4.856,4.808
	c-0.14,0.118-0.281,0.185-0.43,0.226c-0.003,0.002-0.004,0.002-0.006,0.002c0,0,0,0,0,0.003c-0.273,0.064-1.047,0.186-1.604-0.271
	l-0.313-0.312l-2.061-2.054c-0.284-0.285-0.38-0.586-0.309-0.983l0.193-1.076l3.545,3.533l3.772-3.759
	c0.286-0.285,0.588-0.379,0.987-0.31L17.802,8.956z M17.016,1.217l1.103-0.194c0.397-0.071,0.676,0.029,0.962,0.313l3.583,3.532
	c0.284,0.285,0.385,0.564,0.315,0.961l-0.194,1.103L17.016,1.217z M1.216,6.933L1.022,5.83c-0.07-0.396,0.031-0.675,0.315-0.961
	L4.92,1.338c0.286-0.285,0.565-0.386,0.962-0.314l1.103,0.194L1.216,6.933z"/>
</svg>
