<?xml version="1.0" encoding="iso-8859-1"?>
<!-- Generator: Adobe Illustrator 16.0.0, SVG Export Plug-In . SVG Version: 6.00 Build 0)  -->
<!DOCTYPE svg PUBLIC "-//W3C//DTD SVG 1.1//EN" "http://www.w3.org/Graphics/SVG/1.1/DTD/svg11.dtd">
<svg version="1.1" id="Layer_2" xmlns="http://www.w3.org/2000/svg" xmlns:xlink="http://www.w3.org/1999/xlink" x="0px" y="0px"
	 width="24px" height="24px" viewBox="0 0 24 24" style="enable-background:new 0 0 24 24;" xml:space="preserve">
<path style="fill:#231F20;" d="M16.71,8.706c-0.397-0.068-0.699,0.023-0.985,0.307l-3.76,3.76L8.43,9.241l-0.193,1.076
	c-0.071,0.395,0.025,0.695,0.31,0.984l2.053,2.051l0.312,0.314c0.554,0.455,1.328,0.332,1.598,0.268c0-0.002,0-0.002,0-0.002
	c0.001,0,0.002,0,0.005-0.002c0.147-0.041,0.29-0.107,0.428-0.223l4.843-4.809L16.71,8.706z M12.007,23C5.938,23,1,18.065,1,12
	S5.938,1,12.007,1c3.059,0,5.902,1.231,8.004,3.468l0.551,0.584V2.78c0.001-0.37,0.133-0.627,0.426-0.832l0.996-0.669v5.575
	c0,0.393-0.318,0.712-0.711,0.712h-5.566l0.696-0.995c0.206-0.294,0.463-0.425,0.836-0.427h2.263l-0.371-0.53
	c-1.822-2.03-4.418-3.193-7.123-3.193c-5.285,0-9.585,4.297-9.585,9.579s4.3,9.579,9.585,9.579c4.63,0,8.593-3.308,9.422-7.864
	c0.091-0.256,0.285-0.476,0.597-0.645L23,12.546C22.715,18.358,17.892,23,12.007,23z"/>
</svg>
