<?xml version="1.0" encoding="utf-8"?>
<!-- Generator: Adobe Illustrator 16.0.0, SVG Export Plug-In . SVG Version: 6.00 Build 0)  -->
<!DOCTYPE svg PUBLIC "-//W3C//DTD SVG 1.1//EN" "http://www.w3.org/Graphics/SVG/1.1/DTD/svg11.dtd">
<svg version="1.1" id="Layer_2" xmlns="http://www.w3.org/2000/svg" xmlns:xlink="http://www.w3.org/1999/xlink" x="0px" y="0px"
	 width="24px" height="24px" viewBox="0 0 24 24" enable-background="new 0 0 24 24" xml:space="preserve">
<path fill="#231F20" d="M12.007,23C5.938,23,1,18.065,1,12S5.938,1,12.007,1c3.059,0,5.902,1.231,8.004,3.468l0.551,0.584V2.78
	c0.001-0.37,0.133-0.627,0.426-0.832l0.996-0.669v5.575c0,0.393-0.318,0.712-0.711,0.712h-5.566l0.696-0.995
	c0.206-0.294,0.463-0.425,0.836-0.427h2.263l-0.371-0.53c-1.822-2.03-4.418-3.193-7.123-3.193c-5.285,0-9.585,4.297-9.585,9.579
	s4.3,9.579,9.585,9.579c4.63,0,8.593-3.308,9.422-7.864c0.091-0.256,0.285-0.476,0.597-0.645L23,12.546
	C22.715,18.358,17.892,23,12.007,23z M12.899,11.863c-0.175-0.062-0.307-0.155-0.396-0.281s-0.111-0.282-0.11-0.468l0-6.146
	l-0.915,0.645c-0.33,0.232-0.456,0.503-0.455,0.906L11,12.642l4.11,1.47c0.379,0.137,0.676,0.108,1.006-0.123l0.915-0.645
	L12.899,11.863z"/>
</svg>
