<?xml version="1.0" encoding="iso-8859-1"?>
<!-- Generator: Adobe Illustrator 16.0.0, SVG Export Plug-In . SVG Version: 6.00 Build 0)  -->
<!DOCTYPE svg PUBLIC "-//W3C//DTD SVG 1.1//EN" "http://www.w3.org/Graphics/SVG/1.1/DTD/svg11.dtd">
<svg version="1.1" id="Layer" xmlns="http://www.w3.org/2000/svg" xmlns:xlink="http://www.w3.org/1999/xlink" x="0px" y="0px"
	 width="16px" height="16px" viewBox="0 0 16 16" style="enable-background:new 0 0 16 16;" xml:space="preserve">
<path style="fill:#231F20;" d="M15.996,6.758c0,0.026-0.011,0.047-0.015,0.072c-0.005,0.038-0.007,0.075-0.022,0.111
	C15.944,6.978,15.92,7.01,15.897,7.04c-0.014,0.02-0.02,0.044-0.037,0.062c-0.002,0.002-0.004,0.001-0.006,0.003
	c-0.043,0.046-0.095,0.082-0.153,0.108c-0.004,0-0.006,0.005-0.01,0.007c-0.061,0.024-0.125,0.039-0.195,0.038
	c0,0-4.154,0.007-4.185,0l0.453-0.665c0.155-0.221,0.35-0.319,0.608-0.334h1.86l0.008-0.007l-2.558-2.659
	c-0.667-0.667-1.475-1.178-2.35-1.486C6.083,0.96,2.506,2.669,1.358,5.918c-1.148,3.249,0.561,6.827,3.811,7.976
	c2.944,1.039,6.147-0.272,7.58-2.942c0,0,0.128-0.263,0.184-0.394c0,0,0.186-0.187,0.47-0.259l0.75-0.189
	c-0.146,0.524-0.358,1.018-0.616,1.482c-0.005,0.016-0.089,0.156-0.125,0.214c-0.164,0.274-0.539,0.761-0.539,0.761
	c-1.375,1.688-3.45,2.685-5.629,2.685c-0.799,0-1.612-0.134-2.408-0.414c-3.77-1.332-5.752-5.482-4.421-9.253
	C1.747,1.816,5.896-0.17,9.666,1.163c1.015,0.359,1.954,0.951,2.714,1.712l2.616,2.719V3.667c0-0.293,0.108-0.499,0.348-0.666
	l0.653-0.442C16.004,2.594,15.996,6.758,15.996,6.758z M10.697,5.173c-0.289-0.051-0.508,0.018-0.716,0.225L7.247,8.132l-2.57-2.57
	L4.536,6.344C4.484,6.633,4.554,6.853,4.76,7.06l1.494,1.494L6.481,8.78c0.402,0.332,0.964,0.243,1.162,0.196
	c0-0.001,0-0.001,0-0.001c0.001,0,0.002-0.001,0.004-0.002c0.107-0.03,0.21-0.079,0.312-0.165l3.521-3.495L10.697,5.173z"/>
</svg>
