<?xml version="1.0" encoding="iso-8859-1"?>
<!-- Generator: Adobe Illustrator 16.0.0, SVG Export Plug-In . SVG Version: 6.00 Build 0)  -->
<!DOCTYPE svg PUBLIC "-//W3C//DTD SVG 1.1//EN" "http://www.w3.org/Graphics/SVG/1.1/DTD/svg11.dtd">
<svg version="1.1" id="Layer" xmlns="http://www.w3.org/2000/svg" xmlns:xlink="http://www.w3.org/1999/xlink" x="0px" y="0px"
	 width="16px" height="16px" viewBox="0 0 16 16" style="enable-background:new 0 0 16 16;" xml:space="preserve">
<path style="fill:#231F20;" d="M10.417,0L9.95,0.666C9.782,0.907,9.587,0.999,9.294,1H6.602C6.309,0.999,6.114,0.907,5.946,0.666
	L5.479,0H10.417z M12.508,0.798l-0.141,0.801c-0.052,0.29,0.021,0.493,0.228,0.7l1.904,1.904c0.208,0.206,0.411,0.279,0.7,0.228
	L16,4.29L12.508,0.798z M0,4.29L0.8,4.431c0.29,0.052,0.492-0.021,0.7-0.228l1.904-1.904c0.207-0.207,0.279-0.41,0.228-0.7
	L3.491,0.798L0,4.29z M7.5,5.146v4.541l0.666-0.467C8.406,9.053,8.498,8.857,8.5,8.564V4.023L7.833,4.49
	C7.593,4.658,7.501,4.854,7.5,5.146z M15.345,8.778C15.345,12.768,12.057,16,8,16c-4.056,0-7.345-3.232-7.345-7.222
	c0-1.782,0.663-3.407,1.752-4.665l0.7-0.714C4.291,2.361,5.817,1.692,7.5,1.581h1c1.683,0.111,3.209,0.78,4.393,1.818l0.7,0.714
	C14.682,5.371,15.345,6.996,15.345,8.778z M14.345,8.778c0-3.431-2.846-6.222-6.345-6.222S1.655,5.348,1.655,8.778S4.501,15,8,15
	S14.345,12.209,14.345,8.778z"/>
<g id="Layer_2">
</g>
</svg>
