<?xml version="1.0" encoding="iso-8859-1"?>
<!-- Generator: Adobe Illustrator 16.0.0, SVG Export Plug-In . SVG Version: 6.00 Build 0)  -->
<!DOCTYPE svg PUBLIC "-//W3C//DTD SVG 1.1//EN" "http://www.w3.org/Graphics/SVG/1.1/DTD/svg11.dtd">
<svg version="1.1" id="Layer" xmlns="http://www.w3.org/2000/svg" xmlns:xlink="http://www.w3.org/1999/xlink" x="0px" y="0px"
	 width="16px" height="16px" viewBox="0 0 16 16" style="enable-background:new 0 0 16 16;" xml:space="preserve">
<path style="fill:#231F20;" d="M3.415,8.363C1.529,8.363,0,9.893,0,11.777s1.529,3.415,3.415,3.415c1.887,0,3.415-1.53,3.415-3.415
	S5.301,8.363,3.415,8.363z M3.415,14.192C2.083,14.192,1,13.109,1,11.777c0-1.331,1.083-2.414,2.415-2.414s2.415,1.083,2.415,2.414
	C5.829,13.109,4.746,14.192,3.415,14.192z M12.585,8.363c-1.885,0-3.415,1.529-3.415,3.414s1.529,3.415,3.415,3.415
	c1.886,0,3.415-1.53,3.415-3.415S14.471,8.363,12.585,8.363z M12.585,14.192c-1.332,0-2.415-1.083-2.415-2.415
	c0-1.331,1.083-2.414,2.415-2.414S15,10.446,15,11.777C15,13.109,13.917,14.192,12.585,14.192z M10,1C9.173,1,8.5,1.673,8.5,2.5
	S9.173,4,10,4s1.5-0.673,1.5-1.5S10.827,1,10,1z M10,3C9.724,3,9.5,2.776,9.5,2.5S9.724,2,10,2s0.5,0.224,0.5,0.5S10.276,3,10,3z
	 M11.233,5.733L11.7,6.4H9.3C9.13,6.4,8.973,6.314,8.88,6.173L7.93,4.71L6.149,6.628l2.146,1.568C8.423,8.29,8.5,8.439,8.5,8.598
	V12.1l-0.025,0.5c-0.027,0.22-0.107,0.393-0.308,0.533L7.5,13.6l0.001-4.745L5.105,7.104C4.99,7.02,4.916,6.891,4.902,6.748
	S4.937,6.465,5.034,6.36l2.6-2.8c0.104-0.113,0.258-0.167,0.409-0.158c0.153,0.013,0.292,0.097,0.376,0.226L9.571,5.4H10.2
	l0.5,0.025C10.92,5.453,11.093,5.533,11.233,5.733z"/>
</svg>
