<?xml version="1.0" encoding="iso-8859-1"?>
<!-- Generator: Adobe Illustrator 16.0.0, SVG Export Plug-In . SVG Version: 6.00 Build 0)  -->
<!DOCTYPE svg PUBLIC "-//W3C//DTD SVG 1.1//EN" "http://www.w3.org/Graphics/SVG/1.1/DTD/svg11.dtd">
<svg version="1.1" id="Layer" xmlns="http://www.w3.org/2000/svg" xmlns:xlink="http://www.w3.org/1999/xlink" x="0px" y="0px"
	 width="24px" height="24px" viewBox="0 0 24 24" style="enable-background:new 0 0 24 24;" xml:space="preserve">
<path style="fill:#231F20;" d="M5.695,12.464C3.103,12.464,1,14.566,1,17.158c0,2.591,2.103,4.695,4.695,4.695
	c2.594,0,4.695-2.104,4.695-4.695C10.39,14.566,8.289,12.464,5.695,12.464z M5.695,20.479c-1.831,0-3.32-1.489-3.32-3.32
	s1.489-3.319,3.32-3.319c1.831,0,3.32,1.488,3.32,3.319S7.526,20.479,5.695,20.479z M18.305,12.464
	c-2.592,0-4.695,2.103-4.695,4.694c0,2.591,2.103,4.695,4.695,4.695c2.593,0,4.695-2.104,4.695-4.695
	C23,14.566,20.898,12.464,18.305,12.464z M18.305,20.479c-1.831,0-3.32-1.489-3.32-3.32s1.489-3.319,3.32-3.319
	c1.831,0,3.32,1.488,3.32,3.319S20.136,20.479,18.305,20.479z M14.75,2.339c-1.137,0-2.062,0.925-2.062,2.062
	s0.925,2.062,2.062,2.062s2.062-0.925,2.062-2.062S15.887,2.339,14.75,2.339z M14.75,5.089c-0.38,0-0.688-0.308-0.688-0.688
	s0.308-0.688,0.688-0.688s0.688,0.308,0.688,0.688S15.13,5.089,14.75,5.089z M16.446,8.848l0.642,0.917h-3.301
	c-0.233,0-0.45-0.118-0.577-0.313L11.904,7.44l-2.449,2.637l2.951,2.156c0.177,0.129,0.282,0.335,0.282,0.553v4.814l-0.035,0.688
	c-0.037,0.303-0.147,0.54-0.423,0.733l-0.917,0.642l0.001-6.524L8.02,10.731c-0.159-0.115-0.26-0.293-0.279-0.489
	c-0.019-0.195,0.047-0.389,0.181-0.533l3.575-3.85c0.144-0.155,0.354-0.229,0.562-0.217c0.211,0.017,0.402,0.133,0.518,0.31
	l1.584,2.438h0.865l0.688,0.035C16.015,8.462,16.252,8.572,16.446,8.848z"/>
</svg>
