<?xml version="1.0" encoding="iso-8859-1"?>
<!-- Generator: Adobe Illustrator 16.0.0, SVG Export Plug-In . SVG Version: 6.00 Build 0)  -->
<!DOCTYPE svg PUBLIC "-//W3C//DTD SVG 1.1//EN" "http://www.w3.org/Graphics/SVG/1.1/DTD/svg11.dtd">
<svg version="1.1" id="Layer_4" xmlns="http://www.w3.org/2000/svg" xmlns:xlink="http://www.w3.org/1999/xlink" x="0px" y="0px"
	 width="24px" height="24px" viewBox="0 0 24 24" style="enable-background:new 0 0 24 24;" xml:space="preserve">
<path style="fill:#231F20;" d="M21.625,9.938c-0.411-0.822-0.615-1.375-1.375-1.375h-0.01c0-0.277-0.074-0.555-0.238-0.79
	L18.721,5.94c-0.707-1.008-1.663-1.5-2.931-1.503H8.207C6.942,4.44,5.985,4.933,5.278,5.941l-1.28,1.831
	C3.834,8.008,3.76,8.285,3.76,8.562H3.75c-0.76,0-0.964,0.411-1.375,1.375L1,12.688v5.5c0,0.758,0.615,1.375,1.375,1.375H3.75
	c0.76,0,1.375-0.617,1.375-1.375v-1.375h13.75v1.375c0,0.758,0.615,1.375,1.375,1.375h1.375c0.76,0,1.375-0.617,1.375-1.375v-5.5
	L21.625,9.938z M6.405,6.731C6.867,6.07,7.404,5.814,8.21,5.812h7.58c0.806,0.002,1.343,0.258,1.805,0.919l1.28,1.831H5.125
	L6.405,6.731z M21.625,18.188H20.25v-2.75H3.75v2.75H2.375v-5.5l1.375-2.75h16.5l1.375,2.75V18.188z M14.75,12h3.955
	c0.404,0.002,0.673,0.129,0.902,0.457l0.643,0.918h-3.955c-0.404-0.001-0.673-0.128-0.902-0.456L14.75,12z M4.393,12.456
	C4.622,12.128,4.891,12.001,5.295,12H9.25l-0.643,0.918c-0.229,0.328-0.498,0.455-0.902,0.457H3.75L4.393,12.456z"/>
</svg>
