<?xml version="1.0" encoding="utf-8"?>
<!-- Generator: Adobe Illustrator 16.0.0, SVG Export Plug-In . SVG Version: 6.00 Build 0)  -->
<!DOCTYPE svg PUBLIC "-//W3C//DTD SVG 1.1//EN" "http://www.w3.org/Graphics/SVG/1.1/DTD/svg11.dtd">
<svg version="1.1" id="Layer_4" xmlns="http://www.w3.org/2000/svg" xmlns:xlink="http://www.w3.org/1999/xlink" x="0px" y="0px"
	 width="16px" height="16px" viewBox="0 0 16 16" enable-background="new 0 0 16 16" xml:space="preserve">
<path fill="#231F20" d="M15,6.5c-0.3-0.6-0.448-1-1-1h-0.007c0-0.201-0.054-0.402-0.173-0.573l-0.933-1.334
	c-0.513-0.732-1.209-1.09-2.131-1.093H5.241C4.322,2.503,3.626,2.86,3.112,3.594L2.18,4.927C2.061,5.098,2.007,5.299,2.007,5.5H2
	c-0.552,0-0.7,0.3-1,1l-1,2v4c0,0.553,0.448,1,1,1h1c0.552,0,1-0.447,1-1v-1h10v1c0,0.553,0.448,1,1,1h1c0.552,0,1-0.447,1-1v-4
	L15,6.5z M3.932,4.167C4.268,3.688,4.658,3.502,5.244,3.5h5.512c0.586,0.002,0.977,0.188,1.312,0.667L13,5.5H3L3.932,4.167z
	 M15,12.5h-1v-2H2v2H1v-4l1-2h12l1,2V12.5z M10,8h2.877c0.293,0.002,0.488,0.094,0.656,0.334L14,9h-2.877
	c-0.293-0.001-0.488-0.093-0.656-0.333L10,8z M2.467,8.333C2.635,8.093,2.83,8.001,3.123,8H6L5.533,8.666
	C5.365,8.906,5.17,8.998,4.877,9H2L2.467,8.333z"/>
</svg>
