<?xml version="1.0" encoding="iso-8859-1"?>
<!-- Generator: Adobe Illustrator 16.0.0, SVG Export Plug-In . SVG Version: 6.00 Build 0)  -->
<!DOCTYPE svg PUBLIC "-//W3C//DTD SVG 1.1//EN" "http://www.w3.org/Graphics/SVG/1.1/DTD/svg11.dtd">
<svg version="1.1" id="Layer_5" xmlns="http://www.w3.org/2000/svg" xmlns:xlink="http://www.w3.org/1999/xlink" x="0px" y="0px"
	 width="24px" height="24px" viewBox="0 0 24 24" style="enable-background:new 0 0 24 24;" xml:space="preserve">
<path style="fill:#231F20;" d="M21.625,9.112h-0.01c0-0.045,0.013-1.195,0.01-1.24c-0.021-0.225-0.095-0.453-0.233-0.648
	L20.11,5.392c-0.707-1.008-1.663-1.5-2.931-1.504h-1.698l-0.229-0.326c-0.483-0.697-1.166-1.047-2.029-1.049h-2.418
	c-0.86,0.002-1.542,0.352-2.026,1.049L8.55,3.888H6.846C5.584,3.892,4.627,4.384,3.92,5.392L2.637,7.224
	c-0.135,0.195-0.209,0.424-0.23,0.648C2.4,7.917,2.385,9.067,2.385,9.112h-0.01C1.615,9.112,1,9.729,1,10.487v6.875
	c0,0.758,0.615,1.375,1.375,1.375v1.375c0,0.758,0.615,1.375,1.375,1.375h1.375c0.76,0,1.375-0.617,1.375-1.375v-1.375h11v1.375
	c0,0.758,0.615,1.375,1.375,1.375h1.375c0.76,0,1.375-0.617,1.375-1.375v-1.375c0.76,0,1.375-0.617,1.375-1.375v-6.875
	C23,9.729,22.385,9.112,21.625,9.112z M5.047,6.183c0.462-0.662,0.999-0.918,1.805-0.92h2.412l0.642-0.918
	c0.232-0.328,0.501-0.455,0.902-0.457h2.415c0.401,0.002,0.67,0.129,0.902,0.457l0.639,0.918h2.415
	c0.806,0.002,1.343,0.258,1.805,0.92l1.28,1.83l-0.014,1.1H3.75l0.014-1.1L5.047,6.183z M21.625,17.362H20.25v2.75h-1.375v-2.75
	H5.125v2.75H3.75v-2.75H2.375v-6.875h19.25V17.362z M19.607,14.843c-0.229,0.328-0.498,0.455-0.902,0.457H14.75l0.643-0.918
	c0.229-0.328,0.498-0.455,0.902-0.457h3.955L19.607,14.843z M3.75,13.925h3.955c0.404,0.002,0.673,0.129,0.902,0.457L9.25,15.3
	H5.295c-0.404-0.002-0.673-0.129-0.902-0.457L3.75,13.925z"/>
</svg>
