<?xml version="1.0" encoding="utf-8"?>
<!-- Generator: Adobe Illustrator 16.0.0, SVG Export Plug-In . SVG Version: 6.00 Build 0)  -->
<!DOCTYPE svg PUBLIC "-//W3C//DTD SVG 1.1//EN" "http://www.w3.org/Graphics/SVG/1.1/DTD/svg11.dtd">
<svg version="1.1" id="Layer_5" xmlns="http://www.w3.org/2000/svg" xmlns:xlink="http://www.w3.org/1999/xlink" x="0px" y="0px"
	 width="16px" height="16px" viewBox="0 0 16 16" enable-background="new 0 0 16 16" xml:space="preserve">
<path fill="#231F20" d="M15,5.5h-0.007c0-0.201-0.054-0.402-0.173-0.573l-0.933-1.334c-0.513-0.732-1.209-1.09-2.131-1.093h-1.235
	l-0.167-0.239C10.002,1.758,9.507,1.502,8.878,1.5H7.119C6.493,1.502,5.998,1.758,5.646,2.261L5.479,2.5H4.241
	C3.322,2.503,2.626,2.86,2.112,3.594L1.18,4.927C1.061,5.098,1.007,5.299,1.007,5.5H1c-0.552,0-1,0.447-1,1v5c0,0.553,0.448,1,1,1v1
	c0,0.553,0.448,1,1,1h1c0.552,0,1-0.447,1-1v-1h8v1c0,0.553,0.448,1,1,1h1c0.552,0,1-0.447,1-1v-1c0.552,0,1-0.447,1-1v-5
	C16,5.947,15.552,5.5,15,5.5z M2.932,4.167C3.268,3.688,3.658,3.502,4.244,3.5H6l0.466-0.666C6.634,2.594,6.829,2.501,7.122,2.5
	h1.756c0.293,0.001,0.488,0.094,0.656,0.334L10,3.5h1.756c0.586,0.002,0.977,0.188,1.312,0.667L14,5.5H2L2.932,4.167z M15,11.5h-1v2
	h-1v-2H3v2H2v-2H1v-5h14V11.5z M13.533,9.667C13.365,9.907,13.17,9.999,12.877,10H10l0.467-0.666C10.635,9.094,10.83,9.002,11.123,9
	H14L13.533,9.667z M2,9h2.877C5.17,9.002,5.365,9.094,5.533,9.334L6,10H3.123C2.83,9.999,2.635,9.907,2.467,9.667L2,9z"/>
</svg>
