<?xml version="1.0" encoding="iso-8859-1"?>
<!-- Generator: Adobe Illustrator 16.0.0, SVG Export Plug-In . SVG Version: 6.00 Build 0)  -->
<!DOCTYPE svg PUBLIC "-//W3C//DTD SVG 1.1//EN" "http://www.w3.org/Graphics/SVG/1.1/DTD/svg11.dtd">
<svg version="1.1" id="Layer_6" xmlns="http://www.w3.org/2000/svg" xmlns:xlink="http://www.w3.org/1999/xlink" x="0px" y="0px"
	 width="24px" height="24px" viewBox="0 0 24 24" style="enable-background:new 0 0 24 24;" xml:space="preserve">
<path style="fill:#231F20;" d="M12,11.312c-1.137,0-2.062,0.925-2.062,2.062s0.925,2.062,2.062,2.062s2.062-0.925,2.062-2.062
	S13.137,11.312,12,11.312z M12,14.062c-0.38,0-0.688-0.308-0.688-0.688S11.62,12.688,12,12.688s0.688,0.308,0.688,0.688
	S12.38,14.062,12,14.062z M17.5,2.375h-2.034l-0.231-0.33C14.752,1.354,14.071,1.003,13.206,1H10.79
	C9.929,1.003,9.248,1.354,8.765,2.045l-0.231,0.33H6.5c-0.759,0-1.375,0.615-1.375,1.375v12.375c0,0.365,0.145,0.715,0.403,0.973
	l1.375,1.375c0.258,0.258,0.607,0.402,0.972,0.402h2.408L7.356,23h1.12c0.404,0,0.661-0.146,0.892-0.47l2.593-3.655h0.078
	l2.593,3.655c0.232,0.323,0.491,0.47,0.893,0.47h1.119l-2.926-4.125h2.408c0.365,0,0.714-0.145,0.972-0.402l1.375-1.375
	c0.258-0.258,0.403-0.607,0.403-0.973V3.75C18.875,2.99,18.259,2.375,17.5,2.375z M17.5,16.125L16.125,17.5h-8.25L6.5,16.125V9.25
	h11V16.125z M17.5,7.875h-11V3.75h2.75l0.642-0.917c0.231-0.33,0.5-0.457,0.902-0.458h2.412c0.402,0.001,0.671,0.128,0.902,0.458
	L14.75,3.75h2.75V7.875z"/>
</svg>
