<?xml version="1.0" encoding="iso-8859-1"?>
<!-- Generator: Adobe Illustrator 16.0.0, SVG Export Plug-In . SVG Version: 6.00 Build 0)  -->
<!DOCTYPE svg PUBLIC "-//W3C//DTD SVG 1.1//EN" "http://www.w3.org/Graphics/SVG/1.1/DTD/svg11.dtd">
<svg version="1.1" id="Layer_6" xmlns="http://www.w3.org/2000/svg" xmlns:xlink="http://www.w3.org/1999/xlink" x="0px" y="0px"
	 width="16px" height="16px" viewBox="0 0 16 16" style="enable-background:new 0 0 16 16;" xml:space="preserve">
<path style="fill:#231F20;" d="M8,7.5C7.173,7.5,6.5,8.173,6.5,9s0.673,1.5,1.5,1.5S9.5,9.827,9.5,9S8.827,7.5,8,7.5z M8,9.5
	C7.724,9.5,7.5,9.276,7.5,9S7.724,8.5,8,8.5S8.5,8.724,8.5,9S8.276,9.5,8,9.5z M12,1h-1.479l-0.168-0.24
	C10.001,0.258,9.506,0.002,8.877,0H7.12C6.494,0.002,5.999,0.258,5.647,0.76L5.479,1H4C3.448,1,3,1.447,3,2v9
	c0,0.266,0.105,0.52,0.293,0.707l1,1C4.48,12.895,4.735,13,5,13h1.751l-2.128,3h0.814c0.294,0,0.48-0.106,0.648-0.342L7.972,13
	h0.057l1.886,2.658C10.083,15.894,10.271,16,10.563,16h0.813l-2.128-3H11c0.265,0,0.52-0.105,0.707-0.293l1-1
	C12.895,11.52,13,11.266,13,11V2C13,1.447,12.552,1,12,1z M12,11l-1,1H5l-1-1V6h8V11z M12,5H4V2h2l0.467-0.667
	C6.635,1.093,6.83,1.001,7.123,1h1.754C9.17,1.001,9.365,1.093,9.533,1.333L10,2h2V5z"/>
</svg>
