<?xml version="1.0" encoding="iso-8859-1"?>
<!-- Generator: Adobe Illustrator 16.0.0, SVG Export Plug-In . SVG Version: 6.00 Build 0)  -->
<!DOCTYPE svg PUBLIC "-//W3C//DTD SVG 1.1//EN" "http://www.w3.org/Graphics/SVG/1.1/DTD/svg11.dtd">
<svg version="1.1" id="Layer_6" xmlns="http://www.w3.org/2000/svg" xmlns:xlink="http://www.w3.org/1999/xlink" x="0px" y="0px"
	 width="16px" height="16px" viewBox="0 0 16 16" style="enable-background:new 0 0 16 16;" xml:space="preserve">
<path style="fill:#231F20;" d="M12.033,11.667c-0.168,0.24-0.363,0.332-0.656,0.333H10.5l0.467-0.666
	c0.168-0.24,0.363-0.332,0.656-0.334H12.5L12.033,11.667z M3.5,11h0.877c0.293,0.002,0.488,0.094,0.656,0.334L5.5,12H4.623
	c-0.293-0.001-0.488-0.093-0.656-0.333L3.5,11z M15.5,7.858l-1.01-6C14.419,1.366,13.998,1,13.5,1h-2.33l-0.168-0.24
	C10.651,0.258,10.156,0.002,9.527,0H6.47C5.844,0.002,5.349,0.258,4.998,0.76L4.83,1H2.5C2.002,1,1.581,1.366,1.51,1.858l-1.01,6V13
	c0,0.553,0.448,1,1,1v1c0,0.553,0.448,1,1,1h1c0.552,0,1-0.447,1-1v-1h7v1c0,0.553,0.448,1,1,1h1c0.552,0,1-0.447,1-1v-1
	c0.552,0,1-0.447,1-1V7.858z M2.5,2h2.85l0.467-0.667C5.985,1.093,6.18,1.001,6.473,1h3.054c0.293,0.001,0.488,0.093,0.656,0.333
	L10.65,2h2.85l1,6h-13L2.5,2z M14.5,12v1h-1v2h-1v-2h-9v2h-1v-2h-1v-1V9h13V12z"/>
</svg>
