<?xml version="1.0" encoding="iso-8859-1"?>
<!-- Generator: Adobe Illustrator 16.0.0, SVG Export Plug-In . SVG Version: 6.00 Build 0)  -->
<!DOCTYPE svg PUBLIC "-//W3C//DTD SVG 1.1//EN" "http://www.w3.org/Graphics/SVG/1.1/DTD/svg11.dtd">
<svg version="1.1" id="Layer_6" xmlns="http://www.w3.org/2000/svg" xmlns:xlink="http://www.w3.org/1999/xlink" x="0px" y="0px"
	 width="24px" height="24px" viewBox="0 0 24 24" style="enable-background:new 0 0 24 24;" xml:space="preserve">
<path style="fill:#231F20;" d="M17.546,17.042c-0.231,0.33-0.5,0.457-0.902,0.458h-1.206l0.642-0.916
	c0.231-0.33,0.5-0.456,0.902-0.459h1.206L17.546,17.042z M5.812,16.125h1.206c0.402,0.003,0.671,0.129,0.902,0.459L8.562,17.5H7.356
	c-0.402-0.001-0.671-0.128-0.902-0.458L5.812,16.125z M22.312,11.806l-1.389-8.25c-0.097-0.677-0.677-1.181-1.361-1.181h-3.203
	l-0.231-0.33C15.646,1.354,14.965,1.003,14.1,1H9.896C9.035,1.003,8.354,1.354,7.872,2.045l-0.231,0.33H4.438
	c-0.684,0-1.264,0.504-1.361,1.181l-1.389,8.25v7.069c0,0.76,0.616,1.375,1.375,1.375v1.375c0,0.76,0.616,1.375,1.375,1.375h1.375
	c0.759,0,1.375-0.615,1.375-1.375V20.25h9.625v1.375c0,0.76,0.616,1.375,1.375,1.375h1.375c0.759,0,1.375-0.615,1.375-1.375V20.25
	c0.759,0,1.375-0.615,1.375-1.375V11.806z M4.438,3.75h3.919l0.642-0.917c0.231-0.33,0.5-0.457,0.902-0.458H14.1
	c0.403,0.001,0.671,0.128,0.902,0.458l0.642,0.917h3.919L20.938,12H3.062L4.438,3.75z M20.938,17.5v1.375h-1.375v2.75h-1.375v-2.75
	H5.812v2.75H4.438v-2.75H3.062V17.5v-4.125h17.875V17.5z"/>
</svg>
