<?xml version="1.0" encoding="iso-8859-1"?>
<!-- Generator: Adobe Illustrator 16.0.0, SVG Export Plug-In . SVG Version: 6.00 Build 0)  -->
<!DOCTYPE svg PUBLIC "-//W3C//DTD SVG 1.1//EN" "http://www.w3.org/Graphics/SVG/1.1/DTD/svg11.dtd">
<svg version="1.1" id="Layer" xmlns="http://www.w3.org/2000/svg" xmlns:xlink="http://www.w3.org/1999/xlink" x="0px" y="0px"
	 width="24px" height="24px" viewBox="0 0 24 24" style="enable-background:new 0 0 24 24;" xml:space="preserve">
<path style="fill:#231F20;" d="M22.001,12.459l-7.938-5.616l0-3.225c-0.016-0.535-0.32-1.268-0.671-1.69l-0.234-0.336
	C12.906,1.23,12.444,1.01,12.005,1c-0.011,0-0.022,0-0.034,0c-0.446,0-0.865,0.216-1.123,0.581l-0.243,0.351
	c-0.401,0.48-0.654,1.234-0.669,1.726v3.18l-7.933,5.581C1.338,12.885,1,13.526,1,14.326v0.979c0,0.48,0.251,0.927,0.663,1.176
	c0.219,0.132,0.465,0.199,0.712,0.199c0.219,0,0.438-0.053,0.638-0.158l6.925-3.623v6.413l-1.067,1.524
	c-0.294,0.421-0.33,0.969-0.093,1.424C9.014,22.715,9.484,23,9.997,23h4.006c0.513,0,0.983-0.285,1.22-0.74
	c0.236-0.455,0.201-1.003-0.093-1.424l-1.067-1.524v-6.403l6.921,3.65c0.201,0.106,0.421,0.158,0.641,0.158
	c0.247,0,0.492-0.066,0.71-0.197C22.748,16.27,23,15.824,23,15.342v-0.979C23,13.564,22.662,12.923,22.001,12.459z M21.625,15.342
	l-8.938-4.714v8.684c0,0.282,0.086,0.558,0.249,0.788l1.067,1.525H9.997l1.067-1.525c0.162-0.23,0.249-0.506,0.249-0.788v-8.686
	l-8.938,4.679v-0.979c0-0.351,0.129-0.579,0.418-0.782l8.519-5.992V3.657c0.005-0.151,0.152-0.604,0.35-0.845l0.31-0.438
	l0.055,0.001l0.234,0.337c0.273,0.335,0.421,0.789,0.426,0.947v3.894l8.519,6.028c0.29,0.202,0.418,0.431,0.418,0.781V15.342z"/>
</svg>
