<?xml version="1.0" encoding="iso-8859-1"?>
<!-- Generator: Adobe Illustrator 16.0.0, SVG Export Plug-In . SVG Version: 6.00 Build 0)  -->
<!DOCTYPE svg PUBLIC "-//W3C//DTD SVG 1.1//EN" "http://www.w3.org/Graphics/SVG/1.1/DTD/svg11.dtd">
<svg version="1.1" id="Layer" xmlns="http://www.w3.org/2000/svg" xmlns:xlink="http://www.w3.org/1999/xlink" x="0px" y="0px"
	 width="16px" height="16px" viewBox="0 0 16 16" style="enable-background:new 0 0 16 16;" xml:space="preserve">
<path style="fill:#231F20;" d="M15.273,8.334L9.5,4.249l0-2.345c-0.012-0.39-0.232-0.922-0.488-1.229l-0.17-0.244
	C8.659,0.168,8.323,0.007,8.004,0C7.996,0,7.988,0,7.979,0C7.655,0,7.351,0.157,7.163,0.423L6.986,0.678
	C6.695,1.027,6.511,1.575,6.5,1.933v2.312L0.73,8.304C0.246,8.644,0,9.11,0,9.691v0.712c0,0.35,0.183,0.674,0.482,0.855
	C0.641,11.354,0.82,11.403,1,11.403c0.159,0,0.318-0.038,0.464-0.115L6.5,8.653v4.664l-0.776,1.108
	c-0.214,0.307-0.24,0.705-0.068,1.036C5.829,15.793,6.17,16,6.543,16h2.913c0.373,0,0.715-0.207,0.887-0.538
	c0.172-0.331,0.146-0.729-0.068-1.036L9.5,13.317V8.66l5.034,2.655c0.146,0.077,0.306,0.115,0.466,0.115
	c0.179,0,0.358-0.049,0.517-0.144c0.3-0.182,0.483-0.506,0.483-0.856V9.719C16,9.138,15.754,8.671,15.273,8.334z M15,10.431
	L8.5,7.002v6.315c0,0.205,0.063,0.405,0.181,0.573L9.457,15H6.543l0.776-1.109C7.437,13.723,7.5,13.522,7.5,13.317V7.001L1,10.403
	V9.691c0-0.255,0.094-0.421,0.304-0.568L7.5,4.765V1.933c0.003-0.11,0.11-0.439,0.254-0.614L7.979,1l0.04,0.001l0.17,0.245
	C8.389,1.489,8.497,1.819,8.5,1.935v2.832l6.196,4.384C14.906,9.298,15,9.464,15,9.719V10.431z"/>
</svg>
