<?xml version="1.0" encoding="iso-8859-1"?>
<!-- Generator: Adobe Illustrator 16.0.0, SVG Export Plug-In . SVG Version: 6.00 Build 0)  -->
<!DOCTYPE svg PUBLIC "-//W3C//DTD SVG 1.1//EN" "http://www.w3.org/Graphics/SVG/1.1/DTD/svg11.dtd">
<svg version="1.1" id="Layer" xmlns="http://www.w3.org/2000/svg" xmlns:xlink="http://www.w3.org/1999/xlink" x="0px" y="0px"
	 width="24px" height="24px" viewBox="0 0 24 24" style="enable-background:new 0 0 24 24;" xml:space="preserve">
<path style="fill:#231F20;" d="M20.25,4.438c-1.309,0-2.403,0.921-2.679,2.148H6.5c-3.034,0-5.493,2.455-5.5,5.486v0.014
	c0,3.037,2.461,5.5,5.5,5.5h2.75c3.037,0,5.5-2.461,5.5-5.5V7.961h2.874c0.337,1.139,1.38,1.977,2.626,1.977
	c1.517,0,2.75-1.234,2.75-2.75S21.767,4.438,20.25,4.438z M13.375,12.086c0,2.274-1.851,4.125-4.125,4.125H6.5
	c-2.274,0-4.125-1.851-4.125-4.125C2.38,9.808,4.23,7.961,6.5,7.961h4.094h2.781V12.086z M20.25,8.562
	c-0.759,0-1.375-0.615-1.375-1.375s0.616-1.375,1.375-1.375s1.375,0.615,1.375,1.375S21.009,8.562,20.25,8.562z M15.956,5.125H9.25
	l0.642-0.916c0.231-0.33,0.5-0.456,0.902-0.459H17.5l-0.642,0.917C16.627,4.997,16.358,5.124,15.956,5.125z M1.642,4.666L1,3.75
	h6.706c0.402,0.001,0.671,0.128,0.902,0.458L9.25,5.125H2.544C2.142,5.122,1.873,4.996,1.642,4.666z M16.858,19.334L17.5,20.25
	H2.544c-0.402-0.001-0.671-0.128-0.902-0.458L1,18.875h14.956C16.358,18.878,16.627,19.004,16.858,19.334z"/>
</svg>
