<?xml version="1.0" encoding="iso-8859-1"?>
<!-- Generator: Adobe Illustrator 16.0.0, SVG Export Plug-In . SVG Version: 6.00 Build 0)  -->
<!DOCTYPE svg PUBLIC "-//W3C//DTD SVG 1.1//EN" "http://www.w3.org/Graphics/SVG/1.1/DTD/svg11.dtd">
<svg version="1.1" id="Layer" xmlns="http://www.w3.org/2000/svg" xmlns:xlink="http://www.w3.org/1999/xlink" x="0px" y="0px"
	 width="16px" height="16px" viewBox="0 0 16 16" style="enable-background:new 0 0 16 16;" xml:space="preserve">
<path style="fill:#231F20;" d="M14,2.5c-0.952,0-1.748,0.67-1.948,1.562H4c-2.207,0-3.995,1.785-4,3.99v0.01c0,2.209,1.79,4,4,4h2
	c2.209,0,4-1.79,4-4v-3h2.09C12.335,5.891,13.094,6.5,14,6.5c1.103,0,2-0.897,2-2S15.103,2.5,14,2.5z M9,8.062c0,1.654-1.346,3-3,3
	H4c-1.654,0-3-1.346-3-3c0.004-1.657,1.35-3,3-3h2.978H9V8.062z M14,5.5c-0.552,0-1-0.447-1-1s0.448-1,1-1s1,0.447,1,1
	S14.552,5.5,14,5.5z M10.877,3H6l0.467-0.666C6.635,2.094,6.83,2.002,7.123,2H12l-0.467,0.667C11.365,2.907,11.17,2.999,10.877,3z
	 M0.467,2.666L0,2h4.877C5.17,2.001,5.365,2.093,5.533,2.333L6,3H1.123C0.83,2.998,0.635,2.906,0.467,2.666z M11.533,13.334L12,14
	H1.123c-0.293-0.001-0.488-0.093-0.656-0.333L0,13h10.877C11.17,13.002,11.365,13.094,11.533,13.334z"/>
</svg>
