<?xml version="1.0" encoding="iso-8859-1"?>
<!-- Generator: Adobe Illustrator 16.0.0, SVG Export Plug-In . SVG Version: 6.00 Build 0)  -->
<!DOCTYPE svg PUBLIC "-//W3C//DTD SVG 1.1//EN" "http://www.w3.org/Graphics/SVG/1.1/DTD/svg11.dtd">
<svg version="1.1" id="Layer" xmlns="http://www.w3.org/2000/svg" xmlns:xlink="http://www.w3.org/1999/xlink" x="0px" y="0px"
	 width="16px" height="16px" viewBox="0 0 16 16" style="enable-background:new 0 0 16 16;" xml:space="preserve">
<path style="fill:#231F20;" d="M11.7,5.999H4.3l0.467-0.667C4.935,5.093,5.13,5,5.423,4.998h5.154
	c0.293,0.003,0.488,0.096,0.656,0.335L11.7,5.999z M15.942,6.885c-0.382,1.078-1.684,5.318-1.979,6.384
	c-0.08,0.288-0.285,0.524-0.558,0.646c-0.129,0.058-0.268,0.086-0.406,0.086c-0.153,0-0.307-0.035-0.447-0.105
	c-0.487-0.243-0.747-0.295-0.879-0.295c-0.137,0-0.243,0.062-0.594,0.305c-0.326,0.226-0.732,0.508-1.327,0.731
	C9.076,14.892,8.571,15,8.064,15c-0.503,0-1.014-0.107-1.706-0.359c-0.523-0.189-0.917-0.452-1.234-0.662
	c-0.396-0.265-0.567-0.364-0.786-0.364c-0.219,0-0.519,0.093-0.892,0.281C3.307,13.966,3.153,14.001,3,14.001
	c-0.146,0-0.291-0.031-0.426-0.096c-0.277-0.13-0.479-0.381-0.548-0.68C1.75,12.03,0.519,8.231,0.054,6.875
	C-0.043,6.591-0.008,6.278,0.15,6.023C0.308,5.77,0.572,5.6,0.869,5.559c0.336-0.043,0.545-0.075,0.719-0.101
	C1.829,5.422,2.005,5.395,2.333,5.36C2.775,4.501,3.754,2.999,5.2,2.999h0.69C5.843,2.664,5.8,2.323,5.8,2c0-0.553,0.448-1,1-1h2.4
	c0.552,0,1,0.447,1,1c0,0.305-0.045,0.656-0.092,1.002l0.681-0.003c1.351,0,2.396,1.353,2.901,2.367l0.139,0.015
	c0.514,0.049,0.742,0.072,1.355,0.188c0.287,0.054,0.537,0.23,0.682,0.482C16.012,6.306,16.04,6.61,15.942,6.885z M15,6.551
	C14.2,6.4,14.1,6.42,13,6.3c-0.239-0.759-1.2-2.312-2.2-2.3C10.249,4.005,10.4,4,9,4c0-0.579,0.2-1.456,0.2-2C8.196,2,7.832,2,6.8,2
	C6.8,2.594,7,3.401,7,4C6.01,4,6.1,4,5.2,4C4.2,4,3.3,5.518,3,6.3C1.9,6.4,2,6.42,1,6.551c0.4,1.168,1.7,5.149,2,6.45
	C5,12,5.321,13.2,6.7,13.701c1.1,0.399,1.645,0.396,2.7,0c1.539-0.582,1.6-1.701,3.6-0.7C13.3,11.919,14.601,7.68,15,6.551z"/>
</svg>
