<?xml version="1.0" encoding="iso-8859-1"?>
<!-- Generator: Adobe Illustrator 16.0.0, SVG Export Plug-In . SVG Version: 6.00 Build 0)  -->
<!DOCTYPE svg PUBLIC "-//W3C//DTD SVG 1.1//EN" "http://www.w3.org/Graphics/SVG/1.1/DTD/svg11.dtd">
<svg version="1.1" id="Layer" xmlns="http://www.w3.org/2000/svg" xmlns:xlink="http://www.w3.org/1999/xlink" x="0px" y="0px"
	 width="24px" height="24px" viewBox="0 0 24 24" style="enable-background:new 0 0 24 24;" xml:space="preserve">
<path style="fill:#231F20;" d="M17.088,9.249H6.912l0.642-0.918c0.231-0.328,0.5-0.456,0.902-0.459h7.087
	c0.403,0.004,0.671,0.132,0.902,0.461L17.088,9.249z M22.921,10.467c-0.525,1.482-2.315,7.312-2.721,8.777
	c-0.11,0.396-0.391,0.721-0.767,0.889c-0.178,0.079-0.369,0.118-0.559,0.118c-0.211,0-0.422-0.048-0.615-0.145
	c-0.669-0.335-1.026-0.405-1.209-0.405c-0.188,0-0.334,0.084-0.816,0.419c-0.448,0.31-1.007,0.698-1.825,1.005
	c-0.93,0.351-1.624,0.5-2.321,0.5c-0.692,0-1.394-0.147-2.345-0.494c-0.719-0.261-1.261-0.622-1.697-0.91
	c-0.545-0.364-0.779-0.501-1.081-0.501c-0.301,0-0.713,0.127-1.226,0.387c-0.193,0.097-0.404,0.145-0.615,0.145
	c-0.2,0-0.4-0.043-0.586-0.131c-0.381-0.179-0.66-0.524-0.754-0.935c-0.378-1.644-2.072-6.867-2.711-8.732
	c-0.133-0.391-0.084-0.82,0.132-1.171c0.218-0.35,0.581-0.583,0.989-0.64c0.463-0.059,0.75-0.103,0.988-0.138
	c0.331-0.05,0.574-0.088,1.024-0.135C4.815,7.188,6.162,5.124,8.15,5.124h0.949C9.034,4.663,8.975,4.194,8.975,3.75
	c0-0.76,0.616-1.375,1.375-1.375h3.301c0.759,0,1.375,0.615,1.375,1.375c0,0.419-0.062,0.902-0.127,1.378l0.937-0.004
	c1.857,0,3.294,1.859,3.989,3.255l0.191,0.02c0.707,0.067,1.021,0.1,1.863,0.258c0.395,0.074,0.738,0.317,0.938,0.663
	C23.017,9.67,23.055,10.089,22.921,10.467z M21.625,10.007c-1.1-0.206-1.237-0.18-2.75-0.345c-0.328-1.043-1.65-3.179-3.025-3.162
	c-0.758,0.007-0.55,0-2.475,0c0-0.796,0.275-2.002,0.275-2.75c-1.381,0-1.881,0-3.301,0c0,0.816,0.275,1.927,0.275,2.75
	c-1.362,0-1.237,0-2.475,0c-1.375,0-2.613,2.087-3.025,3.162c-1.513,0.139-1.375,0.165-2.75,0.345
	c0.55,1.606,2.338,7.081,2.75,8.869c2.75-1.376,3.191,0.274,5.088,0.963c1.512,0.55,2.262,0.545,3.712,0
	c2.116-0.8,2.2-2.339,4.95-0.963C19.287,17.389,21.076,11.56,21.625,10.007z"/>
</svg>
