<?xml version="1.0" encoding="iso-8859-1"?>
<!-- Generator: Adobe Illustrator 16.0.0, SVG Export Plug-In . SVG Version: 6.00 Build 0)  -->
<!DOCTYPE svg PUBLIC "-//W3C//DTD SVG 1.1//EN" "http://www.w3.org/Graphics/SVG/1.1/DTD/svg11.dtd">
<svg version="1.1" id="Layer_2" xmlns="http://www.w3.org/2000/svg" xmlns:xlink="http://www.w3.org/1999/xlink" x="0px" y="0px"
	 width="24px" height="24px" viewBox="0 0 24 24" style="enable-background:new 0 0 24 24;" xml:space="preserve">
<path style="fill:#231F20;" d="M4.438,16.812c-1.137,0-2.062,0.925-2.062,2.062s0.925,2.062,2.062,2.062S6.5,20.013,6.5,18.875
	S5.575,16.812,4.438,16.812z M4.438,19.562c-0.38,0-0.688-0.308-0.688-0.688s0.308-0.688,0.688-0.688s0.688,0.308,0.688,0.688
	S4.817,19.562,4.438,19.562z M19.562,16.812c-1.137,0-2.062,0.925-2.062,2.062s0.925,2.062,2.062,2.062s2.062-0.925,2.062-2.062
	S20.7,16.812,19.562,16.812z M19.562,19.562c-0.38,0-0.688-0.308-0.688-0.688s0.308-0.688,0.688-0.688s0.688,0.308,0.688,0.688
	S19.942,19.562,19.562,19.562z M14.062,16.812c-1.137,0-2.062,0.925-2.062,2.062s0.925,2.062,2.062,2.062s2.062-0.925,2.062-2.062
	S15.2,16.812,14.062,16.812z M14.062,19.562c-0.38,0-0.688-0.308-0.688-0.688s0.308-0.688,0.688-0.688s0.688,0.308,0.688,0.688
	S14.442,19.562,14.062,19.562z M10.969,3.062c-1.708,0-3.094,1.385-3.094,3.094v1.031h-5.5C1.616,7.188,1,7.803,1,8.562v5.5
	c0,0.76,0.616,1.375,1.375,1.375h5.5h11.963c1.707,0,3.162-1.385,3.162-3.094V3.062H10.969z M7.875,14.062h-5.5v-5.5h5.5V14.062z
	 M21.625,12.344c0,0.932-0.818,1.719-1.787,1.719H9.25v-5.5V6.156c0-0.948,0.771-1.719,1.719-1.719h10.656V12.344z"/>
</svg>
