<?xml version="1.0" encoding="utf-8"?>
<!-- Generator: Adobe Illustrator 24.0.0, SVG Export Plug-In . SVG Version: 6.00 Build 0)  -->
<svg version="1.1" id="Layer_2" xmlns="http://www.w3.org/2000/svg" xmlns:xlink="http://www.w3.org/1999/xlink" x="0px" y="0px"
	 viewBox="0 0 24 24" enable-background="new 0 0 24 24" xml:space="preserve">
<path fill="#231F20" d="M19.583,12.951c-0.042-0.014-0.379-0.123-0.902-0.193c2.237-2.179,1.498-4.726,1.324-5.223
	c-0.06-0.189-0.215-0.343-0.421-0.412c-0.096-0.032-1.77-0.573-3.678,0.035c0.108-0.405,0.171-0.849,0.171-1.337
	c0-3.123-2.583-4.495-3.101-4.739c-0.189-0.095-0.417-0.103-0.616-0.018C12.23,1.117,9.217,2.437,9.217,5.82
	c0,0.489,0.063,0.935,0.171,1.34c-1.911-0.612-3.59-0.07-3.686-0.038C5.497,7.191,5.342,7.345,5.281,7.534
	c-0.175,0.497-0.913,3.044,1.324,5.223c-0.524,0.07-0.861,0.179-0.902,0.193c-0.206,0.069-0.361,0.223-0.422,0.412
	c-0.178,0.508-0.945,3.151,1.467,5.359c1.396,1.278,2.945,1.583,4.105,1.583c0.43,0,0.805-0.042,1.101-0.092v0.968
	c0,0.001,0,0.001,0,0.002V23l0.899-0.626c0.329-0.233,0.477-0.516,0.478-0.917v-1.244c0.296,0.05,0.671,0.092,1.101,0.092
	c1.16,0,2.71-0.305,4.105-1.583c2.412-2.208,1.645-4.851,1.467-5.359C19.944,13.174,19.789,13.02,19.583,12.951z M18.789,8.218
	c0.172,0.718,0.336,2.366-1.219,3.79c-0.502,0.46-1.029,0.755-1.538,0.939c-0.099,0.029-0.199,0.061-0.3,0.097
	c-0.975,0.278-1.849,0.175-2.3,0.084c-0.051-0.209-0.104-0.515-0.106-0.882c0-0.005,0-0.011,0-0.016
	c-0.001-0.735,0.207-1.708,1.057-2.622c0.101-0.092,0.202-0.19,0.302-0.296C16.255,7.898,18.063,8.07,18.789,8.218z M12.643,2.351
	c0.676,0.396,2.065,1.455,2.065,3.469c0,1.197-0.49,2.055-1.023,2.636c-0.111,0.102-0.214,0.204-0.312,0.307
	c-0.273,0.243-0.535,0.417-0.725,0.527c-0.214-0.126-0.523-0.333-0.837-0.633c-0.032-0.032-0.064-0.064-0.098-0.096
	c-0.571-0.581-1.128-1.473-1.128-2.741C10.585,3.779,12.012,2.719,12.643,2.351z M11.954,18.261c-0.015,0.284-0.059,0.523-0.1,0.695
	c-0.731,0.149-2.56,0.325-4.138-1.12c-1.554-1.423-1.391-3.07-1.219-3.789c0.46-0.091,1.357-0.193,2.35,0.102
	c0.065,0.022,0.131,0.044,0.195,0.063c0.526,0.183,1.072,0.481,1.589,0.954c0.986,0.903,1.281,1.896,1.323,2.676V18.261z
	 M11.954,12.432c-0.015,0.284-0.059,0.523-0.1,0.695c-0.453,0.092-1.327,0.195-2.302-0.084c-0.099-0.035-0.197-0.067-0.295-0.095
	c-0.51-0.185-1.038-0.48-1.541-0.94c-1.554-1.423-1.391-3.07-1.219-3.789c0.73-0.145,2.565-0.318,4.135,1.119
	c0.01,0.009,0.019,0.018,0.029,0.027c0.06,0.062,0.12,0.121,0.18,0.177c0.819,0.846,1.075,1.749,1.114,2.472V12.432z M17.57,17.836
	c-1.578,1.445-3.407,1.268-4.137,1.12c-0.159-0.666-0.351-2.349,1.222-3.789c0.503-0.461,1.032-0.756,1.542-0.941
	c0.097-0.029,0.195-0.06,0.294-0.095c0.973-0.278,1.845-0.177,2.298-0.085C18.961,14.764,19.125,16.412,17.57,17.836z"/>
</svg>
