<?xml version="1.0" encoding="utf-8"?>
<!-- Generator: Adobe Illustrator 24.0.0, SVG Export Plug-In . SVG Version: 6.00 Build 0)  -->
<svg version="1.1" id="Layer_2" xmlns="http://www.w3.org/2000/svg" xmlns:xlink="http://www.w3.org/1999/xlink" x="0px" y="0px"
	 viewBox="0 0 24 24" enable-background="new 0 0 24 24" xml:space="preserve">
<g>
	<path fill="#231F20" d="M21.524,6.994h-0.502c-0.413-0.686-1.108-1.566-1.108-1.566c-0.489-0.694-1.194-1.06-2.042-1.06
		c-0.641,0-3.988,0-4.628,0L12.61,3.463c-0.23-0.329-0.497-0.454-0.898-0.456H8.885C8.484,3.009,8.217,3.134,7.987,3.463
		L7.353,4.369c-0.411,0.003-0.612,0.007-0.972,0C6.166,4.364,5.717,4.384,5.228,4.636C4.884,4.814,4.584,5.08,4.339,5.428
		c0,0-0.629,0.778-1.108,1.566L2.465,7.01c-0.403,0-0.595,0.148-0.825,0.477L1.022,8.368l1.397,7.233
		c0,1.513,1.415,2.749,2.961,2.749h13.282c1.545,0,2.962-1.236,2.962-2.749l1.354-7.233L22.35,7.475
		C22.12,7.143,21.927,6.994,21.524,6.994z M5.463,6.219c0.233-0.328,0.514-0.477,0.918-0.477c0.003,0,1.155,0,1.779,0l0.634-0.906
		c0.23-0.329,0.497-0.454,0.898-0.456h1.178c0.401,0.001,0.668,0.127,0.898,0.456l0.634,0.906c0.323,0,0.571,0,0.572,0
		c0.001,0,0.984,0,0.984,0c0.001,0,3.913,0,3.914,0c0.093-0.004,0.296-0.001,0.517,0.112c0.153,0.078,0.283,0.198,0.401,0.365
		l0.625,0.775h-8.768H4.838L5.463,6.219z M20.25,15.602c0,0.757-0.799,1.375-1.588,1.375H5.38c-0.788,0-1.587-0.618-1.587-1.375
		L2.398,8.368h19.204L20.25,15.602z"/>
</g>
<path fill="#231F20" d="M7.469,17.141c-1.327,0-2.406,1.08-2.406,2.406c0,1.326,1.08,2.406,2.406,2.406s2.406-1.08,2.406-2.406
	C9.875,18.221,8.796,17.141,7.469,17.141z M7.469,20.578c-0.57,0-1.031-0.462-1.031-1.031c0-0.569,0.461-1.031,1.031-1.031
	c0.57,0,1.031,0.462,1.031,1.031C8.5,20.116,8.039,20.578,7.469,20.578z"/>
<path fill="#231F20" d="M16.436,17.141c-1.327,0-2.406,1.08-2.406,2.406c0,1.326,1.08,2.406,2.406,2.406s2.406-1.08,2.406-2.406
	C18.843,18.221,17.763,17.141,16.436,17.141z M16.436,20.578c-0.57,0-1.031-0.462-1.031-1.031c0-0.569,0.461-1.031,1.031-1.031
	c0.57,0,1.031,0.462,1.031,1.031C17.468,20.116,17.006,20.578,16.436,20.578z"/>
</svg>
