<?xml version="1.0" encoding="utf-8"?>
<!-- Generator: Adobe Illustrator 24.0.0, SVG Export Plug-In . SVG Version: 6.00 Build 0)  -->
<svg version="1.1" id="Layer_2" xmlns="http://www.w3.org/2000/svg" xmlns:xlink="http://www.w3.org/1999/xlink" x="0px" y="0px"
	 viewBox="0 0 24 24" enable-background="new 0 0 24 24" xml:space="preserve">
<g>
	<path fill="#231F20" d="M17.748,9.019h-0.502c-0.413-0.686-1.108-1.566-1.108-1.566c-0.489-0.694-1.194-1.06-2.042-1.06
		c-0.641,0-1.988,0-2.628,0l-0.634-0.905c-0.23-0.329-0.497-0.454-0.898-0.456H8.109C7.708,5.033,7.441,5.159,7.211,5.487
		L6.577,6.393c-0.411,0.003,0.164,0.007-0.196,0C6.166,6.388,5.717,6.408,5.228,6.661C4.884,6.839,4.584,7.104,4.339,7.452
		c0,0-0.629,0.778-1.108,1.566L2.465,9.034c-0.403,0-0.595,0.148-0.825,0.477l-0.619,0.882l1.397,6.233
		c0.3,1.539,1.415,2.749,2.961,2.749h9.506c1.545,0,2.619-1.21,2.962-2.749l1.354-6.233l-0.628-0.894
		C18.344,9.167,18.151,9.019,17.748,9.019z M5.463,8.243c0.233-0.328,0.514-0.477,0.918-0.477c0.003,0,0.379,0,1.003,0L8.018,6.86
		c0.23-0.329,0.497-0.454,0.898-0.456h0.178C9.495,6.406,9.762,6.531,9.992,6.86l0.634,0.906c0.323,0,0.571,0,0.572,0
		c0.001,0,0.984,0,0.984,0c0.001,0,1.913,0,1.914,0c0.093-0.004,0.296-0.001,0.517,0.112c0.153,0.078,0.283,0.198,0.401,0.365
		l0.625,0.775H9.871H4.838L5.463,8.243z M16.474,16.626c-0.251,0.71-0.799,1.375-1.588,1.375H5.38c-0.788,0-1.356-0.697-1.587-1.375
		l-1.396-6.233h15.428L16.474,16.626z"/>
</g>
<path fill="#231F20" d="M6.019,18.001c-1.327,0-2.406,1.08-2.406,2.406c0,1.326,1.08,2.406,2.406,2.406s2.406-1.08,2.406-2.406
	C8.425,19.081,7.345,18.001,6.019,18.001z M6.019,21.438c-0.57,0-1.031-0.462-1.031-1.031c0-0.569,0.461-1.031,1.031-1.031
	c0.57,0,1.031,0.462,1.031,1.031C7.05,20.977,6.588,21.438,6.019,21.438z"/>
<path fill="#231F20" d="M14.03,18.001c-1.327,0-2.406,1.08-2.406,2.406c0,1.326,1.08,2.406,2.406,2.406s2.406-1.08,2.406-2.406
	C16.437,19.081,15.357,18.001,14.03,18.001z M14.03,21.438c-0.57,0-1.031-0.462-1.031-1.031c0-0.569,0.461-1.031,1.031-1.031
	s1.031,0.462,1.031,1.031C15.062,20.977,14.6,21.438,14.03,21.438z"/>
<g>
	<path fill="#231F20" d="M22.342,20.558v-3.003h0.634v-1.37h-0.634v-0.013v-6.037V9.016V8.591h0.634V7.22h-0.634V4.629h0.634V3.259
		h-2.002V2.321c0-0.559-0.813-1.34-1.37-1.34H17.01c-0.686,0-1.371,0.652-1.371,1.34v0.938h-4.261H9.312v1.371h0.696v2.198h1.371
		V4.634h9.593V7.22H15.39v1.371h5.582v0.425h0v7.168h-3.995v1.37h0.767h3.229v2.999h-5.667v1.375h2.469h3.198h2.036v-1.37H22.342z
		 M19.603,3.259H17.01V2.356h2.593V3.259z"/>
	<polygon fill="#231F20" points="12.609,20.553 11.378,20.553 11.378,18.702 10.008,18.702 10.008,20.558 9.343,20.558 
		9.343,21.928 11.378,21.928 12.609,21.928 	"/>
</g>
</svg>
