<?xml version="1.0" encoding="utf-8"?>
<!-- Generator: Adobe Illustrator 24.0.0, SVG Export Plug-In . SVG Version: 6.00 Build 0)  -->
<svg version="1.1" id="Layer_2" xmlns="http://www.w3.org/2000/svg" xmlns:xlink="http://www.w3.org/1999/xlink" x="0px" y="0px"
	 viewBox="0 0 24 24" enable-background="new 0 0 24 24" xml:space="preserve">
<path fill="#231F20" d="M12,22.35c4.8,0,8.703-4.023,8.703-8.967c0-6.578-7.66-11.918-7.986-12.143
	C12.502,1.091,12.251,1.015,12,1.015s-0.502,0.077-0.718,0.225c-0.326,0.225-7.986,5.565-7.986,12.143
	C3.297,18.327,7.2,22.35,12,22.35z M12,2.348c0,0,7.41,5.091,7.41,11.035c0,4.215-3.318,7.633-7.41,7.633
	c-4.093,0-7.41-3.418-7.41-7.633C4.59,7.44,12,2.348,12,2.348z M13.772,18.354c-0.09-0.357,0.119-0.721,0.466-0.813
	c1.044-0.279,1.806-1.288,1.855-1.557c0.007-0.317,0.124-0.663,0.468-0.755c0.348-0.093,0.706,0.179,0.796,0.536
	c0.251,0.996-1.264,2.658-2.794,3.067C14.215,18.925,13.862,18.711,13.772,18.354z M18.092,13.395c0,0.403-0.317,0.73-0.709,0.73
	s-0.709-0.327-0.709-0.73c0-0.403,0.317-0.73,0.709-0.73S18.092,12.992,18.092,13.395z"/>
</svg>
