<?xml version="1.0" encoding="utf-8"?>
<!-- Generator: Adobe Illustrator 24.0.0, SVG Export Plug-In . SVG Version: 6.00 Build 0)  -->
<svg version="1.1" id="Layer_2" xmlns="http://www.w3.org/2000/svg" xmlns:xlink="http://www.w3.org/1999/xlink" x="0px" y="0px"
	 viewBox="0 0 24 24" enable-background="new 0 0 24 24" xml:space="preserve">
<path fill="#231F20" d="M21.616,14.715H20.97c0-4.016-2.888-7.365-6.695-8.092V6.475c0-0.759-0.614-1.374-1.374-1.374h-1.842
	c-0.76,0-1.374,0.615-1.374,1.374v0.148C5.878,7.35,2.99,10.699,2.99,14.715H2.384c-0.759,0-1.374,0.614-1.374,1.374l0,1.532
	c0,0.76,0.615,1.374,1.374,1.374h19.232c0.759,0,1.374-0.614,1.374-1.374v-1.532C22.99,15.329,22.375,14.715,21.616,14.715z
	 M9.685,8.028v1.335v0.371v0.173c0.001,0.405,0.127,0.675,0.457,0.907l0.915,0.645V9.734h0.002V6.475h1.842v3.259h0.002v1.755
	l0.915-0.645c0.33-0.232,0.456-0.502,0.457-0.907V9.734V9.393V8.028c3.047,0.702,5.321,3.426,5.321,6.687H4.364
	C4.364,11.454,6.638,8.73,9.685,8.028z M21.616,17.621H2.384v-1.532h19.232V17.621z"/>
</svg>
