<?xml version="1.0" encoding="utf-8"?>
<!-- Generator: Adobe Illustrator 24.0.0, SVG Export Plug-In . SVG Version: 6.00 Build 0)  -->
<svg version="1.1" id="Layer_2" xmlns="http://www.w3.org/2000/svg" xmlns:xlink="http://www.w3.org/1999/xlink" x="0px" y="0px"
	 viewBox="0 0 24 24" enable-background="new 0 0 24 24" xml:space="preserve">
<path fill="#231F20" d="M12,1C5.935,1,1,5.935,1,12s4.935,11,11,11s11-4.935,11-11S18.065,1,12,1z M20.572,16.361
	c-0.008-0.001-0.016-0.002-0.024-0.002l-4.021,0.026c-0.085,0.001-0.163,0.009-0.234,0.024l-0.839-1.128l0.994-4.012l1.827-0.638
	c0.042,0.04,0.084,0.079,0.137,0.116l3.165,2.201C21.458,14.168,21.105,15.317,20.572,16.361z M19.058,9.716l1.122-2.771
	c0.825,1.332,1.331,2.877,1.419,4.537L19.058,9.716z M19.34,5.782l-1.386,3.425c-0.039,0.096-0.059,0.185-0.069,0.273l-1.764,0.616
	c-0.023-0.022-0.041-0.044-0.068-0.065l-3.142-2.509c-0.054-0.043-0.107-0.074-0.16-0.104L12.75,5.498
	c0.024-0.017,0.048-0.028,0.072-0.047l2.91-2.324C17.137,3.718,18.368,4.636,19.34,5.782z M15.272,10.961l-0.941,3.798H9.868
	L8.93,10.973l3.051-2.437l0.6,0.275L15.272,10.961z M14.349,2.676l-2.33,1.861L9.68,2.669c0.745-0.185,1.519-0.294,2.32-0.294
	C12.812,2.375,13.596,2.487,14.349,2.676z M8.294,3.117l2.922,2.334c0.107,0.085,0.212,0.137,0.319,0.171l0.002,1.758
	c-0.077,0.035-0.154,0.079-0.232,0.141L8.163,10.03c-0.015,0.012-0.025,0.026-0.039,0.038l-0.093,0.074L6.045,9.448
	c-0.013-0.06-0.029-0.119-0.054-0.183L4.606,5.842C5.591,4.66,6.853,3.719,8.294,3.117z M3.402,16.303l-0.003,0
	c-0.513-1.023-0.857-2.146-0.976-3.337l3.109-2.161c0.08-0.056,0.144-0.116,0.199-0.179l2.037,0.711l0.945,3.818l-0.972,1.307
	c-0.081-0.023-0.168-0.039-0.267-0.043l-4.019-0.12C3.437,16.299,3.421,16.303,3.402,16.303z M3.773,7.023l1.113,2.751L2.4,11.503
	C2.484,9.868,2.973,8.343,3.773,7.023z M4.134,17.535l3.362,0.1l0.619,3.167C6.509,20.091,5.135,18.955,4.134,17.535z M9.445,21.271
	L8.7,17.459c-0.013-0.066-0.033-0.122-0.053-0.178l1.011-1.36c0.101,0.032,0.21,0.053,0.338,0.054h4.216
	c0.083,0,0.158-0.008,0.229-0.021l0.909,1.223c-0.029,0.066-0.053,0.138-0.071,0.219l-0.86,3.911
	c-0.774,0.201-1.581,0.319-2.418,0.319C11.114,21.625,10.26,21.495,9.445,21.271z M15.76,20.862l0.717-3.262l3.356-0.021
	C18.808,19.015,17.405,20.163,15.76,20.862z"/>
</svg>
