<?xml version="1.0" encoding="utf-8"?>
<!-- Generator: Adobe Illustrator 24.0.0, SVG Export Plug-In . SVG Version: 6.00 Build 0)  -->
<svg version="1.1" id="Layer_2" xmlns="http://www.w3.org/2000/svg" xmlns:xlink="http://www.w3.org/1999/xlink" x="0px" y="0px"
	 viewBox="0 0 24 24" enable-background="new 0 0 24 24" xml:space="preserve">
<path fill="#231F20" d="M22.832,12.909c-0.131-0.159-0.326-0.251-0.532-0.251h-4.047l-1.528,0.001h-4.047
	c-0.206,0-0.401,0.092-0.532,0.251c-0.13,0.159-0.183,0.369-0.143,0.57l1.499,7.523c0.249,1.184,1.342,2,2.563,1.993h0.66
	l1.528-0.001h0.66c1.221,0.007,2.314-0.81,2.563-1.993l1.499-7.523C23.015,13.278,22.963,13.068,22.832,12.909z M20.129,20.726
	c-0.112,0.53-0.566,0.924-1.202,0.895h-0.674l-1.528,0.001h-0.674c-0.636,0.029-1.09-0.364-1.202-0.895l-1.334-6.693h3.21
	l1.528-0.001h3.21L20.129,20.726z"/>
<path fill="#231F20" d="M6.703,0.965v15.112c0,0.435-0.209,0.456-0.54,0.704l-0.835,0.257l0-14.412c0-0.433,0.146-0.737,0.479-0.987
	L6.703,0.965z"/>
<rect x="5.117" y="17.497" transform="matrix(-1.836970e-16 1 -1 -1.836970e-16 28.1136 16.5053)" fill="#231F20" width="1.375" height="9.624"/>
<rect x="0.992" y="17.552" transform="matrix(-1 -1.224647e-16 1.224647e-16 -1 3.3596 40.5471)" fill="#231F20" width="1.375" height="5.444"/>
<path fill="#231F20" d="M9.242,15.765H2.366c-0.759,0-1.374,0.614-1.374,1.374v1.375c0,0.76,0.615,1.374,1.374,1.374h6.876
	c0.759,0,1.374-0.614,1.374-1.374v-1.375C10.616,16.379,10.001,15.765,9.242,15.765z M9.242,18.514H2.366v-1.375h6.876V18.514z"/>
<rect x="9.242" y="17.827" transform="matrix(-1 -1.224647e-16 1.224647e-16 -1 19.8581 40.822)" fill="#231F20" width="1.375" height="5.169"/>
<rect x="6.492" y="19.171" transform="matrix(-1 -1.224647e-16 1.224647e-16 -1 14.3586 42.1664)" fill="#231F20" width="1.375" height="3.825"/>
<rect x="3.742" y="19.171" transform="matrix(-1 -1.224647e-16 1.224647e-16 -1 8.8591 42.1664)" fill="#231F20" width="1.375" height="3.825"/>
<path fill="#231F20" d="M19.769,11.344c0.018-0.11,0.034-0.221,0.034-0.336c0-1.138-0.925-2.062-2.062-2.062
	c-1.137,0-2.062,0.925-2.062,2.062c0,0.013,0.003,0.026,0.004,0.039c-0.127-0.024-0.257-0.039-0.391-0.039
	c-1.137,0-2.062,0.925-2.062,2.062c0,0.059,0.012,0.114,0.017,0.171l0.821,0.339c0.318-0.813,1.106-1.384,2.021-1.384
	c0.108,0,0.212,0.013,0.316,0.028c-0.051-0.143-0.085-0.296-0.085-0.456c0-0.764,0.621-1.372,1.372-1.372
	c0.76,0,1.372,0.608,1.372,1.372c0,0.25-0.072,0.482-0.189,0.684c0.792,0.134,1.431,0.695,1.684,1.442l1.039-0.339
	c0.005-0.057,0.017-0.112,0.017-0.171C21.614,12.321,20.803,11.454,19.769,11.344z"/>
<path fill="#231F20" d="M14.062,6.546C12.925,6.546,12,7.471,12,8.609s0.925,2.062,2.062,2.062c1.137,0,2.062-0.925,2.062-2.062
	S15.199,6.546,14.062,6.546z M14.062,9.296c-0.376,0-0.688-0.309-0.688-0.688c0-0.383,0.311-0.687,0.688-0.687
	c0.381,0,0.688,0.305,0.688,0.687C14.75,8.987,14.443,9.296,14.062,9.296z"/>
<path fill="#231F20" d="M19.889,4.011c-1.137,0-2.062,0.925-2.062,2.062s0.925,2.062,2.062,2.062c1.137,0,2.062-0.925,2.062-2.062
	S21.026,4.011,19.889,4.011z M19.889,6.761c-0.376,0-0.688-0.309-0.688-0.688c0-0.383,0.311-0.688,0.688-0.688
	c0.381,0,0.688,0.305,0.688,0.688C20.577,6.452,20.27,6.761,19.889,6.761z"/>
<path fill="#231F20" d="M15.841,0.981c-1.137,0-2.062,0.925-2.062,2.062s0.925,2.062,2.062,2.062c1.137,0,2.062-0.925,2.062-2.062
	S16.978,0.981,15.841,0.981z M15.841,3.731c-0.376,0-0.688-0.309-0.688-0.688c0-0.383,0.311-0.688,0.688-0.688
	c0.381,0,0.688,0.305,0.688,0.688C16.528,3.423,16.222,3.731,15.841,3.731z"/>
<path fill="#231F20" d="M18.865,13.894v1.217h-2.751v-1.217H14.74v1.217c0,0.76,0.615,1.374,1.374,1.374h2.751
	c0.759,0,1.374-0.614,1.374-1.374v-1.217H18.865z"/>
</svg>
