<?xml version="1.0" encoding="utf-8"?>
<!-- Generator: Adobe Illustrator 24.0.0, SVG Export Plug-In . SVG Version: 6.00 Build 0)  -->
<svg version="1.1" id="Layer_2" xmlns="http://www.w3.org/2000/svg" xmlns:xlink="http://www.w3.org/1999/xlink" x="0px" y="0px"
	 viewBox="0 0 24 24" enable-background="new 0 0 24 24" xml:space="preserve">
<path fill="#231F20" d="M12,22.656c6.066,0,11-4.784,11-10.656S18.066,1.344,12,1.344C5.934,1.344,1,6.128,1,12
	S5.934,22.656,12,22.656z M12,2.719c5.307,0,9.625,4.164,9.625,9.281S17.307,21.281,12,21.281c-5.308,0-9.625-4.164-9.625-9.281
	S6.693,2.719,12,2.719z M15.992,11.094l-0.641-0.109c-0.066-0.218-0.154-0.431-0.264-0.632l0.377-0.531
	c0.15-0.209,0.125-0.492-0.056-0.674l-0.554-0.553c-0.1-0.101-0.231-0.154-0.372-0.154c-0.109,0-0.214,0.032-0.304,0.095
	l-0.531,0.379c-0.209-0.11-0.426-0.201-0.653-0.269l-0.107-0.634c-0.04-0.257-0.257-0.44-0.514-0.44h-0.785
	c-0.257,0-0.474,0.184-0.517,0.437L10.96,8.655c-0.218,0.068-0.43,0.156-0.63,0.269L9.806,8.549
	c-0.09-0.063-0.195-0.097-0.303-0.097c-0.141,0-0.273,0.055-0.373,0.153L8.577,9.16C8.396,9.341,8.371,9.624,8.521,9.835
	l0.381,0.536c-0.107,0.204-0.193,0.415-0.257,0.635L8.01,11.112c-0.254,0.04-0.439,0.259-0.439,0.516v0.784
	c0,0.258,0.184,0.476,0.437,0.52l0.647,0.108c0.067,0.218,0.156,0.432,0.267,0.633l-0.373,0.522
	c-0.15,0.209-0.125,0.494,0.056,0.675l0.554,0.555c0.099,0.102,0.23,0.153,0.371,0.153c0.108,0,0.214-0.032,0.304-0.098l0.537-0.38
	c0.195,0.102,0.401,0.188,0.611,0.252l0.107,0.64c0.043,0.253,0.261,0.436,0.519,0.436h0.784c0.257,0,0.475-0.184,0.518-0.436
	l0.108-0.643c0.218-0.065,0.431-0.154,0.633-0.263l0.529,0.377c0.089,0.064,0.195,0.099,0.304,0.099
	c0.141,0,0.271-0.054,0.371-0.155l0.554-0.554c0.182-0.182,0.206-0.464,0.056-0.675l-0.377-0.53
	c0.109-0.204,0.195-0.413,0.262-0.634l0.641-0.106c0.253-0.045,0.437-0.262,0.437-0.519v-0.787
	C16.429,11.354,16.245,11.137,15.992,11.094z M12,14.464c-1.36,0-2.464-1.103-2.464-2.464c0-1.362,1.104-2.464,2.464-2.464
	c1.36,0,2.464,1.102,2.464,2.464C14.464,13.361,13.36,14.464,12,14.464z"/>
</svg>
