<?xml version="1.0" encoding="utf-8"?>
<!-- Generator: Adobe Illustrator 24.0.0, SVG Export Plug-In . SVG Version: 6.00 Build 0)  -->
<svg version="1.1" id="Layer_2" xmlns="http://www.w3.org/2000/svg" xmlns:xlink="http://www.w3.org/1999/xlink" x="0px" y="0px"
	 viewBox="0 0 24 24" enable-background="new 0 0 24 24" xml:space="preserve">
<path fill="#231F20" d="M10.432,11.313c0-0.248-0.035-0.448-0.108-0.617c-0.069-0.168-0.174-0.307-0.307-0.428
	c-0.137-0.115-0.297-0.22-0.489-0.308C9.342,9.875,9.123,9.779,8.882,9.688C8.699,9.623,8.541,9.561,8.411,9.501
	C8.28,9.446,8.171,9.383,8.08,9.314C7.992,9.241,7.927,9.168,7.884,9.083C7.842,8.996,7.82,8.896,7.82,8.786
	c0-0.216,0.095-0.372,0.286-0.476c0.188-0.104,0.414-0.153,0.669-0.153c0.173,0,0.271,0.004,0.441,0.025
	c0.428,0.048,0.786-0.169,0.942-0.564C10.106,7.6,10.033,7.576,9.936,7.546C9.842,7.521,9.732,7.497,9.609,7.475
	C9.484,7.452,9.348,7.431,9.205,7.414c-0.018-0.001-0.032,0-0.046-0.002l0.174-0.246h-0.61c-0.224,0-0.379,0.077-0.508,0.263
	L8.197,7.452c-0.311,0.062-0.578,0.17-0.788,0.34C7.075,8.054,6.907,8.415,6.907,8.866c0,0.226,0.041,0.418,0.119,0.58
	c0.077,0.154,0.183,0.287,0.312,0.398c0.134,0.115,0.288,0.21,0.468,0.292c0.181,0.084,0.368,0.158,0.564,0.239
	c0.406,0.166,0.697,0.315,0.875,0.444c0.175,0.131,0.264,0.307,0.264,0.526c0,0.216-0.089,0.377-0.271,0.473
	c-0.18,0.1-0.459,0.147-0.831,0.147c-0.253,0-0.396-0.002-0.645-0.048c-0.417-0.077-0.794,0.146-0.934,0.541
	c0.09,0.039,0.267,0.093,0.52,0.17c0.221,0.065,0.527,0.094,0.893,0.106l-0.111,0.157l0.61,0.001
	c0.206-0.001,0.353-0.075,0.475-0.235c0.064-0.013,0.119-0.036,0.179-0.054l1.009-1.012C10.42,11.504,10.432,11.413,10.432,11.313z"
	/>
<g>
	<path fill="#231F20" d="M21.764,2.992l-0.461,0.511L1.878,22.928l-0.195-1.103c-0.059-0.332,0.031-0.577,0.219-0.817l0.462-0.511
		L21.788,1.072l0.195,1.103C22.041,2.507,21.951,2.752,21.764,2.992z"/>
</g>
<path fill="#231F20" d="M21.496,5.053h-0.054l-1.375,1.375h1.429v8.269v5.481h-1.065c0.016,0.128-0.263-1.786-0.345-2.366
	c0.899-0.816,1.411-1.934,1.411-3.115c0-2.379-2.016-4.312-4.49-4.312c-0.354,0-0.694,0.049-1.022,0.127l-3.376,3.376
	c-0.056,0.262-0.093,0.531-0.093,0.809c0,1.182,0.512,2.299,1.415,3.116c-0.058,0.382-0.359,2.436-0.349,2.365H6.317l-1.375,1.375
	h8.466c0,0.448,0.205,0.875,0.58,1.134c0.235,0.158,0.507,0.241,0.782,0.241c0.229,0,0.46-0.06,0.667-0.173l1.568-0.873l1.567,0.873
	c0.207,0.113,0.439,0.173,0.667,0.173c0.275,0,0.547-0.083,0.782-0.241c0.376-0.259,0.581-0.686,0.581-1.134h0.894
	c0.761,0,1.375-0.618,1.375-1.375V6.428C22.871,5.67,22.257,5.053,21.496,5.053z M18.969,16.953
	c-0.232,0.177-0.341,0.471-0.29,0.752c0.027,0.189,0.376,2.565,0.561,3.848l-1.857-1.031c-0.118-0.064-0.248-0.101-0.377-0.101
	c-0.13,0-0.26,0.036-0.378,0.101l-1.857,1.031c0.185-1.272,0.53-3.645,0.562-3.844c0.052-0.282-0.056-0.577-0.29-0.755
	c-0.733-0.565-1.153-1.393-1.153-2.258c0-1.616,1.398-2.938,3.116-2.938c1.718,0,3.115,1.321,3.115,2.938
	C20.121,15.562,19.701,16.389,18.969,16.953z"/>
<path fill="#231F20" d="M2.504,14.822h3.479l1.375-1.375H2.504V6.572h11.729l1.375-1.375H2.504c-0.76,0-1.375,0.617-1.375,1.375
	v6.875C1.129,14.205,1.744,14.822,2.504,14.822z"/>
<path fill="#231F20" d="M18.364,2.447H5.254c-0.76,0-1.375,0.617-1.375,1.375h13.11L18.364,2.447z"/>
</svg>
