<?xml version="1.0" encoding="utf-8"?>
<!-- Generator: Adobe Illustrator 24.0.0, SVG Export Plug-In . SVG Version: 6.00 Build 0)  -->
<svg version="1.1" id="Layer_2" xmlns="http://www.w3.org/2000/svg" xmlns:xlink="http://www.w3.org/1999/xlink" x="0px" y="0px"
	 viewBox="0 0 24 24" enable-background="new 0 0 24 24" xml:space="preserve">
<path fill="#231F20" d="M11.191,0.91v5.902c0,0.435-0.209,0.456-0.54,0.704L9.816,7.774l0-5.202c0-0.433,0.146-0.737,0.479-0.987
	L11.191,0.91z"/>
<rect x="11.667" y="4.496" transform="matrix(-1.836970e-16 1 -1 -1.836970e-16 26.7015 1.9926)" fill="#231F20" width="1.375" height="19.701"/>
<rect x="1.567" y="9.589" transform="matrix(-1 -1.224647e-16 1.224647e-16 -1 4.5082 24.6223)" fill="#231F20" width="1.375" height="5.444"/>
<path fill="#231F20" d="M20.831,6.607l-17.878,0c-0.759,0-1.374,0.614-1.374,1.374l-0.012,2.57c0,0.76,0.615,1.374,1.374,1.374
	l17.878,0c0.759,0,1.374-0.614,1.374-1.374l0.012-2.57C22.205,7.221,21.59,6.607,20.831,6.607z M20.819,10.552l-17.878,0l0.012-2.57
	l17.866,0V10.552z"/>
<rect x="9.816" y="10.552" transform="matrix(-1 -1.224647e-16 1.224647e-16 -1 21.0068 25.5847)" fill="#231F20" width="1.375" height="4.482"/>
<rect x="7.066" y="11.209" transform="matrix(-1 -1.224647e-16 1.224647e-16 -1 15.5072 26.2416)" fill="#231F20" width="1.375" height="3.825"/>
<rect x="4.316" y="11.209" transform="matrix(-1 -1.224647e-16 1.224647e-16 -1 10.0077 26.2416)" fill="#231F20" width="1.375" height="3.825"/>
<path fill="#231F20" d="M12.393,18.583c-0.496,0.082-1.157,0.123-1.958,0.123c-0.189,0-0.402-0.012-0.617-0.018
	c-0.329-0.064-0.575-0.217-0.752-0.533l-0.531-0.953c0.236,0.012,1.278,0.109,1.91,0.109c0.711,0,1.293-0.039,1.729-0.105
	c0.129-0.021,0.228-0.059,0.303-0.111l-3.232-1.17c-0.271-0.084-0.577-0.127-0.901-0.127c-1.149,0-2.223,0.525-2.341,0.58
	l-3.009,1.814c-0.33,0.178-0.637,0.199-0.99,0.043l-1.008-0.451c0,0-0.01-0.018,0.019-0.035l4.29-2.596
	c0.146-0.072,1.478-0.758,3.05-0.758c0.46,0,0.894,0.062,1.291,0.186l3.957,1.191c0.272,0.084,0.466,0.322,0.496,0.613
	C14.169,17.148,13.777,18.367,12.393,18.583z M22.908,14.789c-0.288-0.521-0.956-1.129-1.898-1.129
	c-0.337,0-0.691,0.076-1.052,0.238c-0.712,0.317-2.598,1.213-3.807,1.793c-0.275,0.182-0.689,0.512-0.738,0.857l-0.151,1.068
	c0.064-0.016,0.128-0.018,0.192-0.047c0,0,3.964-1.904,5.071-2.396c0.047-0.021,0.098-0.041,0.159-0.041
	c0.065,0,0.131,0.029,0.206,0.146l-6.833,5.008c-0.384,0.281-0.865,0.441-1.352,0.441c-0.116,0-0.232-0.012-0.345-0.023l-6.65-1.053
	c-0.166,0-0.327,0.053-0.456,0.156l-1.273,1.135c-0.307,0.264-0.425,0.564-0.383,0.971c0,0,0.129,1.115,0.168,1.08l2.194-1.898
	l6.18,0.988c0.192,0.027,0.385,0.045,0.578,0.045c0.774,0,1.546-0.254,2.172-0.709l7.83-5.732
	C22.996,15.474,23.076,15.099,22.908,14.789z"/>
<rect x="12.566" y="10.552" transform="matrix(-1 -1.224647e-16 1.224647e-16 -1 26.5063 25.5847)" fill="#231F20" width="1.375" height="4.482"/>
<rect x="15.315" y="10.552" transform="matrix(-1 -1.224647e-16 1.224647e-16 -1 32.0058 25.5847)" fill="#231F20" width="1.375" height="4.482"/>
<rect x="18.065" y="10.552" transform="matrix(-1 -1.224647e-16 1.224647e-16 -1 37.5053 25.5847)" fill="#231F20" width="1.375" height="4.482"/>
<rect x="20.815" y="9.864" transform="matrix(-1 -1.224647e-16 1.224647e-16 -1 43.0048 24.8972)" fill="#231F20" width="1.375" height="5.169"/>
<path fill="#231F20" d="M12.482,0.91v5.902c0,0.435,0.209,0.456,0.54,0.704l0.835,0.257l0-5.202c0-0.433-0.146-0.737-0.479-0.987
	L12.482,0.91z"/>
</svg>
