<?xml version="1.0" encoding="utf-8"?>
<!-- Generator: Adobe Illustrator 25.2.3, SVG Export Plug-In . SVG Version: 6.00 Build 0)  -->
<svg version="1.1" id="Layer" xmlns="http://www.w3.org/2000/svg" xmlns:xlink="http://www.w3.org/1999/xlink" x="0px" y="0px"
	 viewBox="0 0 24 24" enable-background="new 0 0 24 24" xml:space="preserve">
<g>
	<g>
		<path d="M15.381,7.511c-4.136-1.982-2.643-5.513-2.578-5.66c0.111-0.317,0.226-0.521,0.372-0.864
			c-0.051-0.025-0.794-0.062-1.022-0.039C10.145,1.149,8.631,1.876,7.651,3.11C5.976,5.219,6.362,8.201,6.526,9.474
			C6.545,9.616,6.56,9.737,6.569,9.828c0.095,0.948,0.335,1.809,0.546,2.568c0.136,0.489,0.254,0.911,0.301,1.248
			c0.05,0.36-0.007,0.45-0.01,0.454c-0.008,0.012-0.083,0.062-0.295,0.083c-0.242,0.024-0.428-0.037-0.604-0.198
			c-0.687-0.631-0.919-2.517-0.904-3.558c0.003-0.184,0.03-0.541,0.041-0.631C5.396,9.753,5.08,9.756,4.897,9.774
			c-1.661,0.166-2.631,3.007-2.388,5.437c0.114,1.142,0.456,2.238,1.015,3.257c0.541,0.985,1.258,1.851,2.132,2.574
			c1.82,1.506,4.092,2.208,6.397,1.978c2.314-0.231,4.402-1.357,5.881-3.169c1.474-1.807,2.159-4.072,1.929-6.376
			C19.569,10.534,17.021,8.297,15.381,7.511z M11.91,21.579c-3.943,0.394-7.606-2.603-8.001-6.546
			c-0.096-0.959,0.032-1.988,0.351-2.824c0.075-0.195,0.154-0.364,0.235-0.508c0.114,1.037,0.42,2.436,1.23,3.181
			c0.437,0.402,0.982,0.583,1.577,0.523c0.556-0.056,0.962-0.266,1.208-0.626c0.46-0.673,0.208-1.579-0.112-2.726
			c-0.194-0.697-0.414-1.487-0.497-2.311C7.891,9.633,7.874,9.505,7.855,9.356C7.701,8.17,7.382,5.702,8.696,4.048
			c0.59-0.743,1.467-1.247,2.614-1.504c-0.088,0.449-0.145,1.013-0.088,1.632c0.127,1.365,0.843,3.262,3.538,4.553
			c1.304,0.625,3.46,2.493,3.695,4.849C18.857,17.589,15.92,21.178,11.91,21.579z"/>
	</g>
</g>
</svg>
