<?xml version="1.0" encoding="iso-8859-1"?>
<!-- Generator: Adobe Illustrator 16.0.0, SVG Export Plug-In . SVG Version: 6.00 Build 0)  -->
<!DOCTYPE svg PUBLIC "-//W3C//DTD SVG 1.1//EN" "http://www.w3.org/Graphics/SVG/1.1/DTD/svg11.dtd">
<svg version="1.1" id="Layer" xmlns="http://www.w3.org/2000/svg" xmlns:xlink="http://www.w3.org/1999/xlink" x="0px" y="0px"
	 width="24px" height="24px" viewBox="0 0 24 24" style="enable-background:new 0 0 24 24;" xml:space="preserve">
<path style="fill:#231F20;" d="M12,3.406c-1.327,0-2.406,1.08-2.406,2.406S10.673,8.219,12,8.219s2.406-1.08,2.406-2.406
	S13.327,3.406,12,3.406z M12,6.844c-0.57,0-1.031-0.462-1.031-1.031S11.43,4.781,12,4.781s1.031,0.462,1.031,1.031
	S12.57,6.844,12,6.844z M12.068,15.85c-1.327,0-2.406,1.08-2.406,2.406c0,1.327,1.08,2.406,2.406,2.406s2.406-1.079,2.406-2.406
	C14.475,16.93,13.395,15.85,12.068,15.85z M12.068,19.287c-0.57,0-1.031-0.462-1.031-1.031s0.461-1.031,1.031-1.031
	c0.57,0,1.031,0.462,1.031,1.031S12.639,19.287,12.068,19.287z M12.068,9.629c-1.327,0-2.406,1.079-2.406,2.406
	c0,1.326,1.08,2.406,2.406,2.406s2.406-1.08,2.406-2.406C14.475,10.708,13.395,9.629,12.068,9.629z M12.068,13.066
	c-0.57,0-1.031-0.462-1.031-1.031s0.461-1.031,1.031-1.031c0.57,0,1.031,0.462,1.031,1.031S12.639,13.066,12.068,13.066z M8.562,23
	c-0.759,0-1.375-0.615-1.375-1.375v-4.257c-0.477-0.159-0.873-0.467-1.185-0.92l-0.634-0.917c-0.291-0.42-0.324-0.967-0.086-1.42
	s0.707-0.736,1.218-0.736h0.688v-2.194c-0.477-0.159-0.873-0.467-1.185-0.92L5.369,9.344c-0.291-0.42-0.324-0.967-0.086-1.42
	S5.989,7.188,6.5,7.188h0.688V4.993c-0.477-0.159-0.873-0.467-1.185-0.92L5.369,3.156c-0.291-0.42-0.324-0.967-0.086-1.42
	S5.989,1,6.5,1h11c0.511,0,0.98,0.283,1.218,0.736s0.204,1-0.086,1.42l-0.634,0.917c-0.312,0.453-0.709,0.761-1.185,0.92v2.194H17.5
	c0.511,0,0.98,0.283,1.218,0.736s0.204,1-0.086,1.42l-0.634,0.917c-0.312,0.453-0.709,0.761-1.185,0.92v2.194H17.5
	c0.511,0,0.98,0.283,1.218,0.736s0.204,1-0.086,1.42l-0.634,0.917c-0.312,0.453-0.709,0.761-1.185,0.92v4.257
	c0,0.76-0.616,1.375-1.375,1.375H8.562z M15.975,9.938c0.398-0.001,0.663-0.128,0.892-0.458L17.5,8.562h-2.062V3.75h0.537
	c0.398-0.001,0.663-0.128,0.892-0.458L17.5,2.375h-2.062H8.562H6.5l0.634,0.917c0.229,0.33,0.494,0.457,0.892,0.458h0.537v4.812H6.5
	l0.634,0.917c0.229,0.33,0.494,0.457,0.892,0.458h0.537v4.812H6.5l0.634,0.917c0.229,0.33,0.494,0.457,0.892,0.458h0.537v5.5h6.875
	v-5.5h0.537c0.398-0.001,0.663-0.128,0.892-0.458L17.5,14.75h-2.062V9.938H15.975z"/>
</svg>
