<?xml version="1.0" encoding="utf-8"?>
<!-- Generator: Adobe Illustrator 16.0.0, SVG Export Plug-In . SVG Version: 6.00 Build 0)  -->
<!DOCTYPE svg PUBLIC "-//W3C//DTD SVG 1.1//EN" "http://www.w3.org/Graphics/SVG/1.1/DTD/svg11.dtd">
<svg version="1.1" id="Layer" xmlns="http://www.w3.org/2000/svg" xmlns:xlink="http://www.w3.org/1999/xlink" x="0px" y="0px"
	 width="16px" height="16px" viewBox="0 0 16 16" enable-background="new 0 0 16 16" xml:space="preserve">
<path fill="#231F20" d="M8,1.75c-0.965,0-1.75,0.785-1.75,1.75S7.035,5.25,8,5.25S9.75,4.465,9.75,3.5S8.965,1.75,8,1.75z M8,4.25
	c-0.415,0-0.75-0.336-0.75-0.75S7.585,2.75,8,2.75S8.75,3.086,8.75,3.5S8.415,4.25,8,4.25z M8.05,10.8
	c-0.965,0-1.75,0.785-1.75,1.75s0.785,1.75,1.75,1.75s1.75-0.785,1.75-1.75S9.015,10.8,8.05,10.8z M8.05,13.3
	c-0.415,0-0.75-0.336-0.75-0.75s0.335-0.75,0.75-0.75s0.75,0.336,0.75,0.75S8.464,13.3,8.05,13.3z M8.05,6.275
	c-0.965,0-1.75,0.785-1.75,1.75s0.785,1.75,1.75,1.75S9.8,8.99,9.8,8.025S9.015,6.275,8.05,6.275z M8.05,8.775
	c-0.415,0-0.75-0.336-0.75-0.75s0.335-0.75,0.75-0.75S8.8,7.611,8.8,8.025S8.464,8.775,8.05,8.775z M5.5,16c-0.552,0-1-0.447-1-1
	v-3.096c-0.347-0.116-0.635-0.34-0.862-0.669l-0.461-0.667c-0.211-0.306-0.235-0.703-0.063-1.033C3.287,9.206,3.628,9,4,9h0.5V7.404
	c-0.347-0.116-0.635-0.34-0.862-0.669L3.177,6.068C2.966,5.763,2.942,5.365,3.114,5.035C3.287,4.706,3.628,4.5,4,4.5h0.5V2.904
	c-0.347-0.116-0.635-0.34-0.862-0.669L3.177,1.568C2.966,1.263,2.942,0.865,3.114,0.535C3.287,0.206,3.628,0,4,0h8
	c0.372,0,0.713,0.206,0.886,0.535c0.172,0.33,0.148,0.728-0.063,1.033l-0.461,0.667c-0.227,0.329-0.516,0.553-0.862,0.669V4.5H12
	c0.372,0,0.713,0.206,0.886,0.535c0.172,0.33,0.148,0.728-0.063,1.033l-0.461,0.667c-0.227,0.329-0.516,0.553-0.862,0.669V9H12
	c0.372,0,0.713,0.206,0.886,0.535c0.172,0.33,0.148,0.728-0.063,1.033l-0.461,0.667c-0.227,0.329-0.516,0.553-0.862,0.669V15
	c0,0.553-0.448,1-1,1H5.5z M10.891,6.5c0.29-0.001,0.482-0.093,0.648-0.333L12,5.5h-1.5V2h0.391c0.29-0.001,0.482-0.093,0.648-0.333
	L12,1h-1.5h-5H4l0.461,0.667C4.627,1.907,4.82,1.999,5.109,2H5.5v3.5H4l0.461,0.667C4.627,6.407,4.82,6.499,5.109,6.5H5.5V10H4
	l0.461,0.667C4.627,10.907,4.82,10.999,5.109,11H5.5v4h5v-4h0.391c0.29-0.001,0.482-0.093,0.648-0.333L12,10h-1.5V6.5H10.891z"/>
</svg>
