<?xml version="1.0" encoding="iso-8859-1"?>
<!-- Generator: Adobe Illustrator 16.0.0, SVG Export Plug-In . SVG Version: 6.00 Build 0)  -->
<!DOCTYPE svg PUBLIC "-//W3C//DTD SVG 1.1//EN" "http://www.w3.org/Graphics/SVG/1.1/DTD/svg11.dtd">
<svg version="1.1" id="Layer_4" xmlns="http://www.w3.org/2000/svg" xmlns:xlink="http://www.w3.org/1999/xlink" x="0px" y="0px"
	 width="24px" height="24px" viewBox="0 0 24 24" style="enable-background:new 0 0 24 24;" xml:space="preserve">
<path style="fill:#231F20;" d="M19.608,22.083c-0.193-0.275-0.431-0.386-0.731-0.423c-0.025-0.094-0.043-0.175-0.079-0.294
	l-4.812-19.25C13.862,1.467,13.295,1,12.636,1h-1.375c-0.659,0-1.226,0.467-1.35,1.116l-4.684,19.25
	c-0.036,0.116-0.055,0.195-0.081,0.29C4.832,21.688,4.59,21.8,4.392,22.083L3.75,23h2.827h10.871h2.802L19.608,22.083z
	 M15.729,14.75H8.25l1.339-5.5h4.766L15.729,14.75z M11.261,2.375h1.375l1.375,5.5H9.923L11.261,2.375z M6.577,21.625l1.338-5.5
	h8.158l1.375,5.5H6.577z"/>
</svg>
