<?xml version="1.0" encoding="iso-8859-1"?>
<!-- Generator: Adobe Illustrator 16.0.0, SVG Export Plug-In . SVG Version: 6.00 Build 0)  -->
<!DOCTYPE svg PUBLIC "-//W3C//DTD SVG 1.1//EN" "http://www.w3.org/Graphics/SVG/1.1/DTD/svg11.dtd">
<svg version="1.1" id="Layer_4" xmlns="http://www.w3.org/2000/svg" xmlns:xlink="http://www.w3.org/1999/xlink" x="0px" y="0px"
	 width="16px" height="16px" viewBox="0 0 16 16" style="enable-background:new 0 0 16 16;" xml:space="preserve">
<path style="fill:#231F20;" d="M13.533,15.333c-0.14-0.2-0.313-0.28-0.532-0.308c-0.018-0.068-0.032-0.127-0.057-0.214l-3.5-14
	C9.354,0.34,8.942,0,8.462,0h-1C6.983,0,6.571,0.34,6.48,0.812l-3.406,14c-0.026,0.085-0.04,0.143-0.059,0.211
	c-0.228,0.023-0.404,0.104-0.548,0.311L2,16h2.056h7.906H14L13.533,15.333z M10.712,10h-5.44l0.974-4h3.466L10.712,10z M7.462,1h1
	l1,4H6.489L7.462,1z M4.056,15l0.973-4h5.933l1,4H4.056z"/>
</svg>
