<?xml version="1.0" encoding="iso-8859-1"?>
<!-- Generator: Adobe Illustrator 16.0.0, SVG Export Plug-In . SVG Version: 6.00 Build 0)  -->
<!DOCTYPE svg PUBLIC "-//W3C//DTD SVG 1.1//EN" "http://www.w3.org/Graphics/SVG/1.1/DTD/svg11.dtd">
<svg version="1.1" id="Layer" xmlns="http://www.w3.org/2000/svg" xmlns:xlink="http://www.w3.org/1999/xlink" x="0px" y="0px"
	 width="16px" height="16px" viewBox="0 0 16 16" style="enable-background:new 0 0 16 16;" xml:space="preserve">
<path style="fill:#231F20;" d="M9.766,15H2.789V1h6.977V15z M15.746,10.18c0-2.002,0-2.435,0-3.774v-0.33V3.75L12.91,1.021
	l-0.141,0.802c-0.035,0.198,0.017,0.351,0.106,0.497l0.877,0.88l0.997,0.925V7c0,0,0,0.598,0,2.6
	c-0.002,0.833,0.061,1.711-0.134,1.938c-0.152,0.178-0.653,0.362-0.863,0.362c-0.574-0.013-0.771-0.272-0.936-0.535
	c-0.165-0.274-0.232-0.754-0.229-1.337c-0.001-0.634,0.068-1.381,0.068-2.128c0.012-1.168-0.401-1.534-1.026-1.832
	C11.432,5.97,10.935,6.049,10.762,6V0.975C10.762,0.567,10.17,0,9.766,0H2.789C2.29,0,1.792,0.475,1.792,0.975V15l-0.499,0.025
	c-0.219,0.027-0.391,0.107-0.531,0.308L0.25,16h12.132l-0.465-0.667c-0.14-0.2-0.312-0.28-0.532-0.308L11.261,15h-0.499V7
	c0.299,0,0.532-0.074,0.705,0.068c0.305,0.257,0.286,0.26,0.292,0.932c0,0.702-0.068,1.443-0.069,2.128
	c0.003,0.627,0.19,1.382,0.468,1.872c0.271,0.491,0.897,0.8,1.595,0.8c0.399,0,1.059-0.162,1.452-0.513
	C15.819,11.735,15.75,11.575,15.746,10.18z M4.25,3.667C4.418,3.907,4.613,3.999,4.905,4h3.88L8.319,3.334
	C8.152,3.094,7.957,3.002,7.665,3h-3.88L4.25,3.667z"/>
</svg>
