<?xml version="1.0" encoding="iso-8859-1"?>
<!-- Generator: Adobe Illustrator 16.0.0, SVG Export Plug-In . SVG Version: 6.00 Build 0)  -->
<!DOCTYPE svg PUBLIC "-//W3C//DTD SVG 1.1//EN" "http://www.w3.org/Graphics/SVG/1.1/DTD/svg11.dtd">
<svg version="1.1" id="Layer" xmlns="http://www.w3.org/2000/svg" xmlns:xlink="http://www.w3.org/1999/xlink" x="0px" y="0px"
	 width="24px" height="24px" viewBox="0 0 24 24" style="enable-background:new 0 0 24 24;" xml:space="preserve">
<path style="fill:#231F20;" d="M14.428,21.625H4.834V2.375h9.593V21.625z M22.651,14.997c0-2.753,0-3.348,0-5.189V9.354V6.156
	l-3.9-3.752l-0.194,1.103c-0.047,0.272,0.023,0.482,0.146,0.684L19.91,5.4l1.371,1.271v3.953c0,0,0.013,0.822,0,3.574
	c-0.01,2.217-0.203,3.145-1.371,3.164c-0.789,0.014-1.06-0.375-1.287-0.736c-0.226-0.377-0.319-1.036-0.314-1.838
	c-0.001-0.871,0.094-1.898,0.094-2.926c0.016-1.606-0.505-2.225-1.411-2.52c-0.189-0.062-0.742-0.096-1.194-0.094V2.34
	c0-0.56-0.813-1.34-1.37-1.34H4.834C4.149,1,3.464,1.652,3.464,2.34v19.285L2.778,21.66c-0.301,0.037-0.538,0.147-0.73,0.423
	L1.344,23h16.682l-0.64-0.917c-0.192-0.275-0.43-0.386-0.731-0.423l-0.171-0.035h-0.686v-11c0.411,0,0.746,0.002,0.969,0.094
	c0.343,0.141,0.394,0.357,0.402,1.281c0,0.966-0.094,1.984-0.095,2.926c0.004,0.862,0.113,1.94,0.536,2.59
	c0.438,0.672,1.342,1.122,2.3,1.084C20.844,18.562,22.651,18.219,22.651,14.997z M6.844,6.042c0.23,0.33,0.499,0.457,0.9,0.458
	h5.335l-0.64-0.916c-0.23-0.33-0.498-0.456-0.899-0.459H6.205L6.844,6.042z"/>
</svg>
