<?xml version="1.0" encoding="iso-8859-1"?>
<!-- Generator: Adobe Illustrator 16.0.0, SVG Export Plug-In . SVG Version: 6.00 Build 0)  -->
<!DOCTYPE svg PUBLIC "-//W3C//DTD SVG 1.1//EN" "http://www.w3.org/Graphics/SVG/1.1/DTD/svg11.dtd">
<svg version="1.1" id="Layer" xmlns="http://www.w3.org/2000/svg" xmlns:xlink="http://www.w3.org/1999/xlink" x="0px" y="0px"
	 width="24px" height="24px" viewBox="0 0 24 24" style="enable-background:new 0 0 24 24;" xml:space="preserve">
<path style="fill:#231F20;" d="M23,12c0,6.074-4.925,11-11,11S1,18.074,1,12S5.925,1,12,1S23,5.926,23,12z M21.625,12
	c0-5.307-4.318-9.625-9.625-9.625S2.375,6.693,2.375,12S6.693,21.625,12,21.625S21.625,17.307,21.625,12z M18.875,12
	c0,3.797-3.078,6.875-6.875,6.875S5.125,15.797,5.125,12S8.203,5.125,12,5.125S18.875,8.203,18.875,12z M17.5,12
	c0-3.033-2.467-5.5-5.5-5.5S6.5,8.967,6.5,12s2.467,5.5,5.5,5.5S17.5,15.033,17.5,12z M12,7.875c-0.38,0-0.688,0.308-0.688,0.688
	S11.62,9.25,12,9.25s0.688-0.308,0.688-0.688S12.38,7.875,12,7.875z M8.076,10.726c-0.118,0.361,0.081,0.748,0.44,0.866
	c0.363,0.117,0.75-0.08,0.868-0.441c0.117-0.361-0.081-0.75-0.442-0.866C8.581,10.166,8.193,10.364,8.076,10.726z M9.575,15.338
	c0.306,0.223,0.735,0.154,0.958-0.151c0.224-0.308,0.156-0.737-0.15-0.962c-0.309-0.223-0.739-0.154-0.961,0.152
	C9.199,14.685,9.268,15.115,9.575,15.338z M14.425,15.338c0.307-0.223,0.374-0.652,0.152-0.959
	c-0.223-0.309-0.654-0.375-0.961-0.154c-0.308,0.226-0.375,0.654-0.153,0.962C13.687,15.494,14.118,15.561,14.425,15.338z
	 M15.924,10.726c-0.118-0.361-0.505-0.558-0.865-0.441c-0.362,0.118-0.56,0.506-0.444,0.867c0.12,0.362,0.506,0.559,0.868,0.443
	C15.843,11.477,16.041,11.087,15.924,10.726z M12,10.625c-0.759,0-1.375,0.615-1.375,1.375s0.616,1.375,1.375,1.375
	S13.375,12.76,13.375,12S12.759,10.625,12,10.625z"/>
</svg>
