<?xml version="1.0" encoding="iso-8859-1"?>
<!-- Generator: Adobe Illustrator 16.0.0, SVG Export Plug-In . SVG Version: 6.00 Build 0)  -->
<!DOCTYPE svg PUBLIC "-//W3C//DTD SVG 1.1//EN" "http://www.w3.org/Graphics/SVG/1.1/DTD/svg11.dtd">
<svg version="1.1" id="Layer" xmlns="http://www.w3.org/2000/svg" xmlns:xlink="http://www.w3.org/1999/xlink" x="0px" y="0px"
	 width="16px" height="16px" viewBox="0 0 16 16" style="enable-background:new 0 0 16 16;" xml:space="preserve">
<path style="fill:#231F20;" d="M16,8c0,4.418-3.582,8-8,8s-8-3.582-8-8s3.582-8,8-8S16,3.582,16,8z M15,8c0-3.859-3.14-7-7-7
	S1,4.141,1,8s3.14,7,7,7S15,11.859,15,8z M13,8c0,2.762-2.239,5-5,5s-5-2.238-5-5s2.239-5,5-5S13,5.238,13,8z M12,8
	c0-2.206-1.794-4-4-4S4,5.794,4,8s1.794,4,4,4S12,10.206,12,8z M8,5C7.724,5,7.5,5.224,7.5,5.5S7.724,6,8,6s0.5-0.224,0.5-0.5
	S8.276,5,8,5z M5.146,7.073c-0.086,0.263,0.059,0.544,0.32,0.63C5.73,7.788,6.012,7.645,6.098,7.382
	c0.085-0.263-0.059-0.545-0.321-0.63C5.514,6.666,5.231,6.811,5.146,7.073z M6.236,10.428c0.223,0.162,0.535,0.112,0.697-0.11
	c0.163-0.224,0.113-0.536-0.109-0.699C6.6,9.456,6.287,9.506,6.125,9.729C5.963,9.952,6.013,10.266,6.236,10.428z M9.764,10.428
	c0.223-0.162,0.271-0.475,0.11-0.697C9.712,9.506,9.398,9.457,9.175,9.618c-0.224,0.164-0.272,0.476-0.111,0.699
	C9.227,10.541,9.54,10.59,9.764,10.428z M10.854,7.073c-0.086-0.263-0.367-0.405-0.629-0.321C9.961,6.838,9.817,7.12,9.901,7.383
	c0.087,0.264,0.368,0.406,0.631,0.322C10.795,7.619,10.938,7.336,10.854,7.073z M8,7C7.448,7,7,7.447,7,8s0.448,1,1,1s1-0.447,1-1
	S8.552,7,8,7z"/>
</svg>
