<?xml version="1.0" encoding="iso-8859-1"?>
<!-- Generator: Adobe Illustrator 16.0.0, SVG Export Plug-In . SVG Version: 6.00 Build 0)  -->
<!DOCTYPE svg PUBLIC "-//W3C//DTD SVG 1.1//EN" "http://www.w3.org/Graphics/SVG/1.1/DTD/svg11.dtd">
<svg version="1.1" id="Layer_2" xmlns="http://www.w3.org/2000/svg" xmlns:xlink="http://www.w3.org/1999/xlink" x="0px" y="0px"
	 width="16px" height="16px" viewBox="0 0 16 16" style="enable-background:new 0 0 16 16;" xml:space="preserve">
<path style="fill:#231F20;" d="M8,0C3.582,0,0,3.582,0,8c0,1.125,0.234,2.194,0.654,3.166c0.133,0.31,0.291,0.605,0.461,0.894
	C2.507,14.415,5.065,16,8,16c2.927,0,5.479-1.576,6.874-3.922c0.17-0.286,0.328-0.582,0.462-0.89C15.761,10.211,16,9.134,16,8
	C16,3.582,12.418,0,8,0z M8,15c-2.59,0-4.847-1.411-6.057-3.502l5.724-4.044C7.777,7.376,7.889,7.336,8,7.336
	s0.223,0.04,0.333,0.118l5.711,4.063C12.83,13.599,10.582,15,8,15z M14.5,10.588L8,6l-6.508,4.565C1.178,9.77,1,8.906,1,8
	c0-3.866,3.134-7,7-7s7,3.134,7,7C15,8.915,14.819,9.787,14.5,10.588z"/>
</svg>
