<?xml version="1.0" encoding="iso-8859-1"?>
<!-- Generator: Adobe Illustrator 16.0.0, SVG Export Plug-In . SVG Version: 6.00 Build 0)  -->
<!DOCTYPE svg PUBLIC "-//W3C//DTD SVG 1.1//EN" "http://www.w3.org/Graphics/SVG/1.1/DTD/svg11.dtd">
<svg version="1.1" id="Layer_2" xmlns="http://www.w3.org/2000/svg" xmlns:xlink="http://www.w3.org/1999/xlink" x="0px" y="0px"
	 width="24px" height="24px" viewBox="0 0 24 24" style="enable-background:new 0 0 24 24;" xml:space="preserve">
<path style="fill:#231F20;" d="M12,1C5.923,1,1,5.924,1,12c0,1.547,0.322,3.015,0.9,4.355c0.183,0.421,0.399,0.828,0.634,1.228
	C4.448,20.823,7.964,23,12,23c4.025,0,7.532-2.168,9.452-5.393c0.235-0.392,0.451-0.799,0.635-1.224C22.67,15.043,23,13.562,23,12
	C23,5.924,18.077,1,12,1z M12,21.625c-3.563,0-6.663-1.938-8.327-4.814l7.868-5.562c0.154-0.107,0.307-0.159,0.459-0.159
	s0.305,0.052,0.459,0.159l7.853,5.587C18.641,19.696,15.548,21.625,12,21.625z M20.938,15.561L12,9.25l-8.948,6.276
	C2.621,14.432,2.375,13.246,2.375,12c0-5.313,4.309-9.625,9.625-9.625S21.625,6.687,21.625,12
	C21.625,13.261,21.377,14.455,20.938,15.561z"/>
</svg>
