<?xml version="1.0" encoding="iso-8859-1"?>
<!-- Generator: Adobe Illustrator 16.0.0, SVG Export Plug-In . SVG Version: 6.00 Build 0)  -->
<!DOCTYPE svg PUBLIC "-//W3C//DTD SVG 1.1//EN" "http://www.w3.org/Graphics/SVG/1.1/DTD/svg11.dtd">
<svg version="1.1" id="Layer_2" xmlns="http://www.w3.org/2000/svg" xmlns:xlink="http://www.w3.org/1999/xlink" x="0px" y="0px"
	 width="24px" height="24px" viewBox="0 0 24 24" style="enable-background:new 0 0 24 24;" xml:space="preserve">
<path style="fill:#231F20;" d="M1,13.554C1,7.682,5.934,2.897,12,2.897s11,4.784,11,10.656c0,2.95-1.244,5.617-3.244,7.549
	l-0.277-1.062c-0.088-0.342-0.021-0.615,0.168-0.889c1.233-1.56,1.978-3.492,1.978-5.599c0-5.117-4.318-9.281-9.625-9.281
	s-9.625,4.164-9.625,9.281c0,2.115,0.75,4.051,1.986,5.606c0.175,0.27,0.241,0.538,0.152,0.874l-0.282,1.053
	C2.237,19.156,1,16.493,1,13.554z M11.993,16.125c0.405,0,0.662-0.148,0.896-0.476l4.474-6.399h-1.118
	c-0.401,0-0.659,0.148-0.893,0.476l-4.478,6.399H11.993z"/>
</svg>
