<?xml version="1.0" encoding="iso-8859-1"?>
<!-- Generator: Adobe Illustrator 16.0.0, SVG Export Plug-In . SVG Version: 6.00 Build 0)  -->
<!DOCTYPE svg PUBLIC "-//W3C//DTD SVG 1.1//EN" "http://www.w3.org/Graphics/SVG/1.1/DTD/svg11.dtd">
<svg version="1.1" id="Layer_2" xmlns="http://www.w3.org/2000/svg" xmlns:xlink="http://www.w3.org/1999/xlink" x="0px" y="0px"
	 width="16px" height="16px" viewBox="0 0 16 16" style="enable-background:new 0 0 16 16;" xml:space="preserve">
<path style="fill:#231F20;" d="M0,9.132c0-4.272,3.589-7.75,8-7.75s8,3.478,8,7.75c0,2.142-0.904,4.082-2.359,5.486L13.44,13.85
	c-0.065-0.248-0.015-0.451,0.122-0.648C14.458,12.069,15,10.664,15,9.132c0-3.723-3.14-6.75-7-6.75s-7,3.027-7,6.75
	c0,1.535,0.545,2.943,1.444,4.077c0.128,0.193,0.176,0.392,0.111,0.634L2.35,14.608C0.9,13.205,0,11.269,0,9.132z M7.996,11
	c0.293,0,0.48-0.107,0.649-0.347L11.9,6h-0.813c-0.292,0-0.48,0.107-0.65,0.347L7.182,11H7.996z"/>
</svg>
