<?xml version="1.0" encoding="UTF-8" standalone="no"?>
<svg
   xmlns:dc="http://purl.org/dc/elements/1.1/"
   xmlns:cc="http://creativecommons.org/ns#"
   xmlns:rdf="http://www.w3.org/1999/02/22-rdf-syntax-ns#"
   xmlns:svg="http://www.w3.org/2000/svg"
   xmlns="http://www.w3.org/2000/svg"
   version="1.1"
   width="24"
   height="24"
   viewBox="0 0 24 24"
   id="svg14">
  <metadata
     id="metadata20">
    <rdf:RDF>
      <cc:Work
         rdf:about="">
        <dc:format>image/svg+xml</dc:format>
        <dc:type
           rdf:resource="http://purl.org/dc/dcmitype/StillImage" />
        <dc:title>sign_prohibid</dc:title>
      </cc:Work>
    </rdf:RDF>
  </metadata>
  <defs
     id="defs18" />
  <title
     id="title10">sign_prohibid</title>
  <path
     id="path22"
     style="fill:#000000"
     d="M 12.029297 0.029296875 A 12 12 0 0 0 0.029296875 12.029297 A 12 12 0 0 0 12.029297 24.029297 A 12 12 0 0 0 24.029297 12.029297 A 12 12 0 0 0 12.029297 0.029296875 z M 12.029297 3.5136719 C 16.717909 3.5136719 20.515625 7.3121602 20.515625 12 C 20.515625 14.331575 19.576925 16.439981 18.054688 17.970703 L 17.257812 18.677734 C 15.815815 19.80803 14.003654 20.486328 12.029297 20.486328 C 7.3406852 20.486328 3.5410156 16.687841 3.5410156 12 C 3.5410156 10.025646 4.2212653 8.2154347 5.3515625 6.7734375 L 6.0546875 5.9726562 C 7.5877255 4.4558196 9.6992644 3.5136719 12.029297 3.5136719 z M 12.029297 4.5742188 C 9.9963056 4.5742187 8.1510628 5.3979807 6.8085938 6.7265625 L 17.300781 17.222656 C 18.631677 15.879415 19.455078 14.035307 19.455078 12 C 19.455078 7.9054701 16.123828 4.5742188 12.029297 4.5742188 z M 6.1113281 7.5292969 C 5.167742 8.7784098 4.6035156 10.322685 4.6035156 12 C 4.6035156 16.094531 7.9347663 19.425781 12.029297 19.425781 C 13.708927 19.425781 15.251608 18.859601 16.496094 17.916016 L 6.1113281 7.5292969 z " />
</svg>
