<?xml version="1.0" encoding="iso-8859-1"?>
<!-- Generator: Adobe Illustrator 16.0.0, SVG Export Plug-In . SVG Version: 6.00 Build 0)  -->
<!DOCTYPE svg PUBLIC "-//W3C//DTD SVG 1.1//EN" "http://www.w3.org/Graphics/SVG/1.1/DTD/svg11.dtd">
<svg version="1.1" id="Layer" xmlns="http://www.w3.org/2000/svg" xmlns:xlink="http://www.w3.org/1999/xlink" x="0px" y="0px"
	 width="16px" height="16px" viewBox="0 0 16 16" style="enable-background:new 0 0 16 16;" xml:space="preserve">
<path style="fill:#231F20;" d="M13.68,13.631C15.114,12.186,16,10.196,16,8c0-4.418-3.582-8-8-8C5.803,0,3.814,0.887,2.369,2.319
	L1.707,3.071C0.641,4.431,0,6.139,0,8c0,4.418,3.582,8,8,8c1.861,0,3.569-0.641,4.928-1.707L13.68,13.631z M8,1c3.86,0,7,3.141,7,7
	c0,1.917-0.776,3.656-2.029,4.922L3.079,3.029C4.344,1.776,6.083,1,8,1z M8,15c-3.86,0-7-3.141-7-7c0-1.582,0.534-3.039,1.423-4.213
	l9.79,9.79C11.039,14.466,9.583,15,8,15z"/>
</svg>
