<?xml version="1.0" encoding="iso-8859-1"?>
<!-- Generator: Adobe Illustrator 16.0.0, SVG Export Plug-In . SVG Version: 6.00 Build 0)  -->
<!DOCTYPE svg PUBLIC "-//W3C//DTD SVG 1.1//EN" "http://www.w3.org/Graphics/SVG/1.1/DTD/svg11.dtd">
<svg version="1.1" id="Layer" xmlns="http://www.w3.org/2000/svg" xmlns:xlink="http://www.w3.org/1999/xlink" x="0px" y="0px"
	 width="24px" height="24px" viewBox="0 0 24 24" style="enable-background:new 0 0 24 24;" xml:space="preserve">
<path style="fill:#231F20;" d="M19.81,19.74C21.783,17.756,23,15.022,23,12c0-6.076-4.923-11-11-11C8.98,1,6.244,2.221,4.257,4.187
	L3.346,5.226C1.881,7.095,1,9.441,1,12c0,6.076,4.923,11,11,11c2.559,0,4.908-0.881,6.777-2.346L19.81,19.74z M12,2.375
	c5.307,0,9.625,4.318,9.625,9.625c0,2.638-1.066,5.027-2.791,6.768L5.233,5.166C6.973,3.444,9.365,2.375,12,2.375z M12,21.625
	c-5.307,0-9.625-4.318-9.625-9.625c0-2.174,0.733-4.176,1.956-5.795l13.46,13.464C16.178,20.892,14.177,21.625,12,21.625z"/>
</svg>
