<?xml version="1.0" encoding="iso-8859-1"?>
<!-- Generator: Adobe Illustrator 16.0.0, SVG Export Plug-In . SVG Version: 6.00 Build 0)  -->
<!DOCTYPE svg PUBLIC "-//W3C//DTD SVG 1.1//EN" "http://www.w3.org/Graphics/SVG/1.1/DTD/svg11.dtd">
<svg version="1.1" id="Layer" xmlns="http://www.w3.org/2000/svg" xmlns:xlink="http://www.w3.org/1999/xlink" x="0px" y="0px"
	 width="24px" height="24px" viewBox="0 0 24 24" style="enable-background:new 0 0 24 24;" xml:space="preserve">
<path style="fill:#231F20;" d="M8.869,17.854l-0.424-0.177c-1.939-1.171-3.257-3.268-3.257-5.696c0-0.061,0.01-0.114,0.014-0.17
	l-1.874,2.676c-0.223,0.316-0.469,0.459-0.854,0.459H1.399l3.431-4.9C4.909,9.937,5,9.869,5.088,9.8h0
	c0.135-0.092,0.28-0.159,0.457-0.181l0.305-0.017l0.3,0.017c0.194,0.029,0.354,0.104,0.494,0.214c0.077,0.059,0.152,0.111,0.22,0.21
	l0.604,0.862h0.002l2.831,4.041H9.227c-0.385,0-0.631-0.143-0.854-0.459l-1.855-2.646c-0.001,0.044-0.01,0.091-0.01,0.14
	c0,2.519,1.742,4.622,4.082,5.217L9.68,17.783C9.398,17.944,9.148,17.944,8.869,17.854z M18.096,11.038l-0.959-0.492
	c0.659,2.32-0.293,4.883-2.479,6.143c-0.04,0.021-0.083,0.039-0.126,0.059l1.369-2.93c0.158-0.353,0.157-0.633-0.034-0.969
	l-0.536-0.932l-2.084,4.471v0.002L12.8,17.351c-0.047,0.1-0.056,0.196-0.068,0.29c-0.026,0.181-0.014,0.355,0.059,0.536l0.141,0.27
	l0.164,0.255c0.106,0.142,0.238,0.233,0.384,0.305v-0.001c0.106,0.041,0.205,0.089,0.341,0.104l5.96,0.52l-0.537-0.93
	c-0.192-0.338-0.439-0.479-0.825-0.515l-3.252-0.279c0.048-0.03,0.1-0.049,0.15-0.079c2.103-1.212,3.26-3.399,3.307-5.663
	l-0.063-0.462C18.5,11.416,18.375,11.2,18.096,11.038z M8.048,7.121l0.049,1.077c1.684-1.726,4.379-2.186,6.561-0.921
	c0.042,0.022,0.076,0.047,0.115,0.076l-3.222,0.277c-0.384,0.036-0.63,0.18-0.82,0.517l-0.537,0.929l4.912-0.43h0.004l1.05-0.093
	c0.112-0.013,0.199-0.051,0.288-0.086c0.167-0.07,0.314-0.165,0.433-0.322l0.163-0.253l0.137-0.271
	c0.071-0.161,0.088-0.321,0.077-0.485l-0.001,0.002c-0.018-0.117-0.025-0.226-0.084-0.351l-2.527-5.421l-0.537,0.931
	c-0.195,0.337-0.196,0.621-0.034,0.968l1.381,2.96c-0.047-0.029-0.089-0.066-0.137-0.091c-2.106-1.218-4.579-1.126-6.566-0.032
	L8.391,6.385C8.174,6.582,8.049,6.8,8.048,7.121z"/>
</svg>
