<?xml version="1.0" encoding="iso-8859-1"?>
<!-- Generator: Adobe Illustrator 16.0.0, SVG Export Plug-In . SVG Version: 6.00 Build 0)  -->
<!DOCTYPE svg PUBLIC "-//W3C//DTD SVG 1.1//EN" "http://www.w3.org/Graphics/SVG/1.1/DTD/svg11.dtd">
<svg version="1.1" id="Layer" xmlns="http://www.w3.org/2000/svg" xmlns:xlink="http://www.w3.org/1999/xlink" x="0px" y="0px"
	 width="16px" height="16px" viewBox="0 0 16 16" style="enable-background:new 0 0 16 16;" xml:space="preserve">
<path style="fill:#231F20;" d="M5.644,12.483L5.32,12.352C3.849,11.461,2.85,9.87,2.85,8.026c0-0.042,0.008-0.083,0.009-0.126
	L1.438,9.932c-0.169,0.238-0.356,0.346-0.649,0.346h-0.814l2.604-3.719c0.06-0.084,0.128-0.133,0.195-0.186H2.772
	c0.103-0.07,0.214-0.119,0.347-0.137l0.23-0.012l0.229,0.012c0.146,0.02,0.267,0.078,0.375,0.162
	C4.012,6.443,4.069,6.484,4.12,6.555l0.459,0.656h0.002l2.146,3.066H5.914c-0.292,0-0.48-0.107-0.649-0.346l-1.407-2.01
	C3.856,7.957,3.85,7.99,3.85,8.026c0,1.913,1.322,3.511,3.097,3.962L6.257,12.43C6.045,12.552,5.854,12.552,5.644,12.483z
	 M12.645,7.312l-0.728-0.376c0.498,1.762-0.225,3.706-1.882,4.663c-0.031,0.018-0.063,0.028-0.095,0.045l1.037-2.224
	c0.122-0.266,0.121-0.482-0.025-0.735L10.546,7.98l-1.582,3.393v0.002l-0.338,0.726C8.59,12.18,8.583,12.25,8.573,12.322
	c-0.02,0.137-0.01,0.27,0.047,0.405l0.105,0.205l0.125,0.193c0.08,0.107,0.179,0.179,0.291,0.232v-0.001
	c0.08,0.032,0.154,0.067,0.258,0.077l4.523,0.396l-0.407-0.705c-0.146-0.254-0.333-0.362-0.625-0.39l-2.469-0.215
	c0.037-0.021,0.076-0.034,0.113-0.056c1.597-0.922,2.475-2.582,2.511-4.302l-0.048-0.347C12.952,7.6,12.856,7.436,12.645,7.312z
	 M5.019,4.34l0.039,0.817c1.276-1.312,3.322-1.658,4.979-0.701c0.031,0.018,0.057,0.04,0.087,0.06L7.679,4.729
	C7.388,4.756,7.2,4.865,7.055,5.119L6.647,5.822l3.729-0.326h0.002l0.797-0.07c0.087-0.009,0.151-0.038,0.219-0.065
	c0.128-0.052,0.238-0.126,0.328-0.243l0.124-0.193l0.104-0.205c0.054-0.123,0.066-0.244,0.057-0.369l-0.001,0.001
	c-0.013-0.085-0.019-0.167-0.062-0.263l-1.92-4.114L9.618,0.679C9.471,0.933,9.47,1.148,9.593,1.414l1.048,2.246
	c-0.036-0.021-0.067-0.049-0.104-0.07C8.939,2.668,7.062,2.738,5.555,3.566L5.279,3.781C5.114,3.929,5.02,4.095,5.019,4.34z"/>
</svg>
