<?xml version="1.0" encoding="iso-8859-1"?>
<!-- Generator: Adobe Illustrator 16.0.0, SVG Export Plug-In . SVG Version: 6.00 Build 0)  -->
<!DOCTYPE svg PUBLIC "-//W3C//DTD SVG 1.1//EN" "http://www.w3.org/Graphics/SVG/1.1/DTD/svg11.dtd">
<svg version="1.1" id="Layer" xmlns="http://www.w3.org/2000/svg" xmlns:xlink="http://www.w3.org/1999/xlink" x="0px" y="0px"
	 width="16px" height="16px" viewBox="0 0 16 16" style="enable-background:new 0 0 16 16;" xml:space="preserve">
<path style="fill:#231F20;" d="M15.795,12.432L9.31,2.076C8.872,1.385,7.929,1.162,7.207,1.582c-0.21,0.121-0.388,0.291-0.515,0.494
	L0.206,12.432c-0.423,0.701-0.172,1.598,0.56,2.002c0.228,0.125,0.486,0.193,0.749,0.197h12.973c0.845-0.01,1.523-0.672,1.513-1.48
	C15.998,12.898,15.928,12.65,15.795,12.432z M14.873,13.467c-0.101,0.104-0.24,0.16-0.393,0.164H1.515
	c-0.086-0.002-0.183-0.027-0.268-0.074c-0.116-0.064-0.2-0.166-0.232-0.287c-0.021-0.076-0.029-0.193,0.048-0.32L7.54,2.607
	c0.039-0.062,0.098-0.119,0.167-0.158c0.09-0.053,0.19-0.08,0.292-0.08c0.193,0,0.373,0.094,0.467,0.242l6.482,10.352
	C14.979,13.014,15,13.086,15,13.158C15.002,13.305,14.932,13.406,14.873,13.467z M10.753,7.923c-0.185-0.321-0.423-0.604-0.707-0.84
	C9.865,6.932,9.639,6.852,9.407,6.852c-0.059,0-0.118,0.005-0.177,0.016C8.94,6.92,8.688,7.098,8.54,7.354L8.093,8.131
	c-0.049,0.085-0.08,0.177-0.102,0.269C7.969,8.305,7.938,8.211,7.887,8.123l-0.444-0.77C7.295,7.097,7.04,6.919,6.748,6.868
	c-0.057-0.01-0.114-0.015-0.171-0.015c-0.235,0-0.465,0.083-0.647,0.237c-0.264,0.225-0.49,0.493-0.673,0.804
	C5.068,8.214,4.941,8.56,4.877,8.921c-0.051,0.291,0.029,0.59,0.219,0.816s0.471,0.357,0.766,0.357h0.887
	c0.118,0,0.234-0.028,0.344-0.073C7,10.096,6.914,10.182,6.851,10.29l-0.454,0.775c-0.152,0.259-0.179,0.572-0.075,0.854
	c0.105,0.281,0.331,0.501,0.615,0.598c0.33,0.113,0.684,0.17,1.05,0.17c0.363,0,0.713-0.057,1.04-0.17
	c0.281-0.096,0.505-0.313,0.61-0.591c0.105-0.278,0.082-0.589-0.065-0.848L9.131,10.3c-0.075-0.132-0.199-0.235-0.34-0.317
	c0.134,0.065,0.278,0.112,0.435,0.112h0.913c0.297,0,0.579-0.132,0.769-0.36s0.269-0.53,0.214-0.822
	C11.058,8.567,10.933,8.234,10.753,7.923z M6.749,9.095H5.862C5.905,8.849,5.99,8.619,6.119,8.4
	c0.126-0.213,0.277-0.394,0.458-0.547l0.444,0.77C6.893,8.757,6.802,8.915,6.749,9.095z M7.607,9.132
	c0.111-0.105,0.241-0.159,0.387-0.159c0.155,0,0.283,0.054,0.388,0.159c0.105,0.106,0.157,0.236,0.157,0.391
	c0,0.149-0.055,0.278-0.162,0.388c-0.109,0.108-0.236,0.162-0.383,0.162c-0.16,0-0.293-0.052-0.397-0.156
	C7.492,9.811,7.439,9.678,7.439,9.522C7.439,9.368,7.495,9.238,7.607,9.132z M7.987,11.687c-0.258,0-0.499-0.038-0.728-0.116
	l0.454-0.775c0.082,0.018,0.166,0.026,0.252,0.026c0.104,0,0.204-0.01,0.295-0.028l0.441,0.778
	C8.478,11.648,8.241,11.687,7.987,11.687z M9.226,9.095C9.173,8.922,9.084,8.766,8.96,8.629l0.447-0.777
	c0.194,0.161,0.352,0.35,0.479,0.57c0.125,0.216,0.208,0.438,0.252,0.673H9.226z"/>
</svg>
