<?xml version="1.0" encoding="iso-8859-1"?>
<!-- Generator: Adobe Illustrator 16.0.0, SVG Export Plug-In . SVG Version: 6.00 Build 0)  -->
<!DOCTYPE svg PUBLIC "-//W3C//DTD SVG 1.1//EN" "http://www.w3.org/Graphics/SVG/1.1/DTD/svg11.dtd">
<svg version="1.1" id="Layer" xmlns="http://www.w3.org/2000/svg" xmlns:xlink="http://www.w3.org/1999/xlink" x="0px" y="0px"
	 width="24px" height="24px" viewBox="0 0 24 24" style="enable-background:new 0 0 24 24;" xml:space="preserve">
<path style="fill:#231F20;" d="M22.719,18.096l-8.917-14.24c-0.603-0.949-1.899-1.26-2.895-0.682
	c-0.286,0.168-0.532,0.402-0.705,0.682l-8.92,14.24c-0.582,0.959-0.236,2.195,0.77,2.752c0.313,0.172,0.667,0.264,1.03,0.268h17.836
	c1.161-0.01,2.094-0.924,2.082-2.031C22.998,18.732,22.901,18.396,22.719,18.096z M21.451,19.518
	c-0.139,0.139-0.331,0.219-0.542,0.223H3.083c-0.118-0.002-0.25-0.033-0.368-0.098c-0.16-0.094-0.276-0.23-0.32-0.398
	c-0.029-0.105-0.041-0.264,0.065-0.438l8.906-14.221C11.42,4.5,11.503,4.42,11.595,4.369c0.125-0.076,0.264-0.109,0.404-0.109
	c0.267,0,0.513,0.129,0.643,0.33l8.911,14.236c0.042,0.068,0.072,0.164,0.073,0.266C21.627,19.291,21.531,19.434,21.451,19.518z
	 M13.332,14.88h3.263l-0.301-1.628c-0.09-0.474-0.262-0.93-0.509-1.358c-0.252-0.444-0.581-0.833-0.97-1.156l-1.257-1.041
	l-1.568,2.728L10.41,9.683l-1.257,1.068c-0.364,0.307-0.675,0.675-0.925,1.103c-0.258,0.442-0.436,0.917-0.523,1.413L7.422,14.88
	h3.17l-1.646,2.788l1.592,0.542c0.453,0.154,0.938,0.234,1.443,0.234c0.5,0,0.982-0.08,1.43-0.234l1.567-0.537L13.332,14.88z
	 M11.46,13.554c0.152-0.141,0.329-0.218,0.53-0.218c0.213,0,0.388,0.077,0.535,0.218c0.143,0.147,0.216,0.33,0.216,0.537
	c0,0.208-0.075,0.384-0.224,0.534c-0.15,0.149-0.324,0.227-0.527,0.227c-0.219,0-0.401-0.075-0.547-0.215
	c-0.143-0.146-0.215-0.332-0.215-0.546C11.229,13.884,11.305,13.701,11.46,13.554z M10.28,13.505H9.059
	c0.061-0.34,0.178-0.651,0.354-0.952c0.173-0.295,0.383-0.546,0.631-0.752l0.611,1.057C10.477,13.038,10.354,13.261,10.28,13.505z
	 M11.981,17.069c-0.354,0-0.683-0.056-1-0.163l0.624-1.062c0.114,0.023,0.23,0.038,0.349,0.038c0.143,0,0.28-0.016,0.404-0.04
	l0.608,1.071C12.657,17.014,12.332,17.069,11.981,17.069z M13.935,11.793c0.267,0.226,0.484,0.484,0.658,0.787
	c0.172,0.298,0.288,0.603,0.349,0.925h-1.255c-0.073-0.237-0.194-0.452-0.365-0.642L13.935,11.793z"/>
</svg>
