<?xml version="1.0" encoding="utf-8"?>
<!-- Generator: Adobe Illustrator 16.0.0, SVG Export Plug-In . SVG Version: 6.00 Build 0)  -->
<!DOCTYPE svg PUBLIC "-//W3C//DTD SVG 1.1//EN" "http://www.w3.org/Graphics/SVG/1.1/DTD/svg11.dtd">
<svg version="1.1" id="Layer_3" xmlns="http://www.w3.org/2000/svg" xmlns:xlink="http://www.w3.org/1999/xlink" x="0px" y="0px"
	 width="16px" height="16px" viewBox="0 0 16 16" enable-background="new 0 0 16 16" xml:space="preserve">
<path fill="#231F20" d="M6.906,4c1.103,0,2-0.897,2-2s-0.897-2-2-2s-2,0.897-2,2S5.803,4,6.906,4z M6.906,1c0.552,0,1,0.447,1,1
	s-0.448,1-1,1s-1-0.447-1-1S6.354,1,6.906,1z M11.506,10.247C11.416,10.094,11.252,10,11.075,10H7.389V8h3L9.922,7.333
	c-0.141-0.2-0.313-0.28-0.533-0.308L8.889,7h-1.5V6C7.362,5.78,7.224,5.607,7.022,5.467L6.375,5v2.025
	c-2.367,0.132-4.25,2.075-4.25,4.475c0,2.485,2.015,4.5,4.5,4.5c2.468,0,4.467-1.988,4.495-4.45l1.451,2.412
	c0.142,0.151,0.3,0.244,0.534,0.245l0.771,0.003L11.506,10.247z M6.625,15c-1.93,0-3.5-1.57-3.5-3.5c0-1.844,1.438-3.344,3.25-3.475
	V10.5c0,0.276,0.237,0.5,0.514,0.5h3.186c0.023,0.165,0.05,0.329,0.05,0.5C10.125,13.43,8.555,15,6.625,15z"/>
</svg>
