<?xml version="1.0" encoding="iso-8859-1"?>
<!-- Generator: Adobe Illustrator 16.0.0, SVG Export Plug-In . SVG Version: 6.00 Build 0)  -->
<!DOCTYPE svg PUBLIC "-//W3C//DTD SVG 1.1//EN" "http://www.w3.org/Graphics/SVG/1.1/DTD/svg11.dtd">
<svg version="1.1" id="Layer_3" xmlns="http://www.w3.org/2000/svg" xmlns:xlink="http://www.w3.org/1999/xlink" x="0px" y="0px"
	 width="24px" height="24px" viewBox="0 0 24 24" style="enable-background:new 0 0 24 24;" xml:space="preserve">
<path style="fill:#231F20;" d="M10.496,6.5c1.517,0,2.75-1.234,2.75-2.75S12.013,1,10.496,1s-2.75,1.234-2.75,2.75
	S8.979,6.5,10.496,6.5z M10.496,2.375c0.759,0,1.375,0.615,1.375,1.375s-0.616,1.375-1.375,1.375S9.121,4.51,9.121,3.75
	S9.737,2.375,10.496,2.375z M16.82,15.09c-0.123-0.211-0.349-0.34-0.592-0.34h-5.069V12h4.125l-0.642-0.917
	c-0.193-0.275-0.431-0.386-0.733-0.423l-0.688-0.035h-2.062V9.25c-0.036-0.302-0.227-0.54-0.503-0.733l-0.89-0.642v2.785
	c-3.254,0.181-5.844,2.854-5.844,6.152c0,3.417,2.77,6.188,6.188,6.188c3.393,0,6.143-2.734,6.18-6.119l1.995,3.316
	c0.195,0.209,0.412,0.336,0.734,0.338l1.06,0.004L16.82,15.09z M10.109,21.625c-2.653,0-4.812-2.159-4.812-4.812
	c0-2.535,1.978-4.598,4.469-4.777v3.402c0,0.38,0.326,0.688,0.706,0.688h4.38c0.032,0.227,0.069,0.452,0.069,0.688
	C14.921,19.466,12.763,21.625,10.109,21.625z"/>
</svg>
