<?xml version="1.0" encoding="iso-8859-1"?>
<!-- Generator: Adobe Illustrator 16.0.0, SVG Export Plug-In . SVG Version: 6.00 Build 0)  -->
<!DOCTYPE svg PUBLIC "-//W3C//DTD SVG 1.1//EN" "http://www.w3.org/Graphics/SVG/1.1/DTD/svg11.dtd">
<svg version="1.1" id="Layer_copy" xmlns="http://www.w3.org/2000/svg" xmlns:xlink="http://www.w3.org/1999/xlink" x="0px" y="0px"
	 width="16px" height="16px" viewBox="0 0 16 16" style="enable-background:new 0 0 16 16;" xml:space="preserve">
<path style="fill:#231F20;" d="M13.796,2.28L13.17,1.759c-0.224-0.188-0.437-0.224-0.72-0.149L12,1.731V1
	c0-0.315-0.148-0.611-0.4-0.801C11.424,0.068,11.213,0,11,0c-0.094,0-0.189,0.014-0.282,0.04L3.16,2.176
	C2.853,2.267,2.407,2.498,2.3,2.8s0.08,0.713,0.261,0.977l0.614,0.719C3.4,4.8,3.676,4.931,4,4.931c0.045,0,0.09-0.012,0.135-0.019
	C4.55,6.677,6.112,8,8,8c2.206,0,4-1.795,4-4.001c0-0.413-0.075-0.806-0.196-1.178L13.796,2.28z M8,7
	C6.574,7,5.387,6.004,5.082,4.67L10.4,3.203l0.45-0.122C10.945,3.37,11,3.678,11,3.999C11,5.657,9.656,7,8,7z M11,2L4,3.931L3.4,3.1
	L11,1V2z M13,13.613V16l-0.652-0.457C12.108,15.375,12,15.17,12,14.877l0-1.264c0-1.298-0.912-2.369-2.1-2.571L9.5,11h-2
	C6.122,11,5,12.172,5,13.613v1.332c-0.018,0.253-0.114,0.445-0.332,0.598L4,16v-2.387C4,11.621,5.57,10,7.5,10h2
	C11.43,10,13,11.621,13,13.613z M11,13h-0.877c-0.293-0.002-0.488-0.094-0.656-0.334L9,12h0.877
	c0.293,0.001,0.488,0.093,0.656,0.333L11,13z"/>
</svg>
