<?xml version="1.0" encoding="iso-8859-1"?>
<!-- Generator: Adobe Illustrator 16.0.0, SVG Export Plug-In . SVG Version: 6.00 Build 0)  -->
<!DOCTYPE svg PUBLIC "-//W3C//DTD SVG 1.1//EN" "http://www.w3.org/Graphics/SVG/1.1/DTD/svg11.dtd">
<svg version="1.1" id="Layer_copy" xmlns="http://www.w3.org/2000/svg" xmlns:xlink="http://www.w3.org/1999/xlink" x="0px" y="0px"
	 width="24px" height="24px" viewBox="0 0 24 24" style="enable-background:new 0 0 24 24;" xml:space="preserve">
<path style="fill:#231F20;" d="M19.958,4.136l-0.861-0.718c-0.308-0.258-0.6-0.307-0.99-0.205l-0.619,0.168V2.375
	c0-0.434-0.204-0.841-0.55-1.102C16.696,1.094,16.406,1,16.113,1c-0.129,0-0.26,0.019-0.387,0.055L5.333,3.992
	C4.911,4.116,4.298,4.435,4.15,4.85C4.002,5.265,4.26,5.83,4.509,6.192l0.845,0.988C5.663,7.6,6.042,7.779,6.488,7.779
	c0.062,0,0.125-0.016,0.186-0.025C7.244,10.181,9.392,12,11.988,12c3.033,0,5.5-2.468,5.5-5.501c0-0.568-0.103-1.108-0.27-1.62
	L19.958,4.136z M11.988,10.625c-1.96,0-3.593-1.369-4.013-3.204l7.313-2.017l0.618-0.168c0.13,0.397,0.206,0.82,0.206,1.263
	C16.113,8.778,14.265,10.625,11.988,10.625z M16.113,3.75L6.488,6.404L5.663,5.262l10.45-2.887V3.75z M18.863,19.719V23
	l-0.897-0.629c-0.33-0.23-0.477-0.513-0.477-0.915l-0.001-1.737c0-1.785-1.254-3.258-2.888-3.536l-0.55-0.058H11.3
	c-1.895,0-3.438,1.611-3.438,3.594v1.831c-0.025,0.348-0.156,0.612-0.457,0.821L6.488,23v-3.281c0-2.74,2.159-4.969,4.812-4.969
	h2.75C16.704,14.75,18.863,16.979,18.863,19.719z M16.113,18.875h-1.206c-0.403-0.003-0.671-0.129-0.902-0.459L13.363,17.5h1.206
	c0.403,0.001,0.671,0.128,0.902,0.458L16.113,18.875z"/>
</svg>
