<?xml version="1.0" encoding="iso-8859-1"?>
<!-- Generator: Adobe Illustrator 16.0.0, SVG Export Plug-In . SVG Version: 6.00 Build 0)  -->
<!DOCTYPE svg PUBLIC "-//W3C//DTD SVG 1.1//EN" "http://www.w3.org/Graphics/SVG/1.1/DTD/svg11.dtd">
<svg version="1.1" id="Layer_3" xmlns="http://www.w3.org/2000/svg" xmlns:xlink="http://www.w3.org/1999/xlink" x="0px" y="0px"
	 width="24px" height="24px" viewBox="0 0 24 24" style="enable-background:new 0 0 24 24;" xml:space="preserve">
<path style="fill:#231F20;" d="M18.777,5.742L18.019,4.92c-0.274-0.296-0.558-0.385-0.956-0.331L16.908,4.61
	C16.134,2.51,14.13,1,11.764,1C8.862,1,6.503,3.266,6.303,6.116C6.063,6.203,5.87,6.336,5.734,6.6L5.223,7.595l1.136-0.156
	C6.808,10.023,9.053,12,11.764,12c3.032,0,5.5-2.468,5.5-5.501c0-0.186-0.038-0.361-0.055-0.542L18.777,5.742z M11.764,2.375
	c1.67,0,3.102,0.998,3.75,2.427L7.702,5.869C8.008,3.893,9.701,2.375,11.764,2.375z M11.764,10.625c-2.02,0-3.694-1.453-4.05-3.37
	l8.139-1.112c0.011,0.118,0.036,0.234,0.036,0.356C15.889,8.778,14.041,10.625,11.764,10.625z M13.375,14.75h-2.75
	c-2.653,0-4.812,2.229-4.812,4.969V23l0.918-0.629c0.3-0.209,0.432-0.474,0.457-0.821v-1.831c0-1.982,1.542-3.594,3.438-3.594h2.75
	l0.55,0.058c1.366,0.232,2.455,1.306,2.78,2.692h-1.786c-0.402,0.001-0.671,0.128-0.902,0.458l-0.642,0.917h3.438l0,1.206
	c0,0.402,0.148,0.685,0.478,0.915L18.188,23v-3.281C18.188,16.979,16.028,14.75,13.375,14.75z"/>
</svg>
