<?xml version="1.0" encoding="iso-8859-1"?>
<!-- Generator: Adobe Illustrator 16.0.0, SVG Export Plug-In . SVG Version: 6.00 Build 0)  -->
<!DOCTYPE svg PUBLIC "-//W3C//DTD SVG 1.1//EN" "http://www.w3.org/Graphics/SVG/1.1/DTD/svg11.dtd">
<svg version="1.1" id="Layer_3" xmlns="http://www.w3.org/2000/svg" xmlns:xlink="http://www.w3.org/1999/xlink" x="0px" y="0px"
	 width="16px" height="16px" viewBox="0 0 16 16" style="enable-background:new 0 0 16 16;" xml:space="preserve">
<path style="fill:#231F20;" d="M12.929,3.449l-0.552-0.599c-0.199-0.215-0.405-0.279-0.695-0.24l-0.112,0.016
	C11.007,1.098,9.549,0,7.828,0c-2.11,0-3.826,1.647-3.972,3.721c-0.174,0.063-0.314,0.16-0.413,0.352L3.071,4.796l0.826-0.113
	C4.224,6.562,5.856,8,7.828,8c2.205,0,4-1.795,4-4.001c0-0.135-0.027-0.263-0.04-0.394L12.929,3.449z M7.828,1
	c1.215,0,2.256,0.726,2.728,1.765L4.874,3.541C5.097,2.104,6.328,1,7.828,1z M7.828,7C6.359,7,5.142,5.943,4.883,4.549l5.919-0.809
	c0.008,0.086,0.026,0.17,0.026,0.259C10.828,5.657,9.484,7,7.828,7z M9,10H7c-1.93,0-3.5,1.621-3.5,3.613V16l0.668-0.457
	c0.218-0.152,0.314-0.345,0.332-0.598v-1.332C4.5,12.172,5.622,11,7,11h2l0.4,0.042c0.994,0.169,1.786,0.949,2.021,1.958h-1.298
	c-0.293,0.001-0.488,0.093-0.656,0.333L9,14h2.5l0,0.877c0,0.293,0.107,0.498,0.347,0.666L12.5,16v-2.387C12.5,11.621,10.93,10,9,10
	z"/>
</svg>
