<?xml version="1.0" encoding="utf-8"?>
<!-- Generator: Adobe Illustrator 16.0.0, SVG Export Plug-In . SVG Version: 6.00 Build 0)  -->
<!DOCTYPE svg PUBLIC "-//W3C//DTD SVG 1.1//EN" "http://www.w3.org/Graphics/SVG/1.1/DTD/svg11.dtd">
<svg version="1.1" id="Layer_2" xmlns="http://www.w3.org/2000/svg" xmlns:xlink="http://www.w3.org/1999/xlink" x="0px" y="0px"
	 width="16px" height="16px" viewBox="0 0 16 16" enable-background="new 0 0 16 16" xml:space="preserve">
<path fill="#231F20" d="M13,16l-0.017-0.012V16l-2.356-1.65c-0.239-0.169-0.347-0.355-0.347-0.649v-0.813L12,14.091v-0.478
	c0-1.298-0.912-2.369-2.1-2.571L9.5,11h-2C6.122,11,5,12.172,5,13.613v1.332c-0.018,0.253-0.114,0.445-0.332,0.598L4,16v-2.387
	C4,11.621,5.57,10,7.5,10h2c1.93,0,3.5,1.621,3.5,3.613V16z M12.695,6l-0.665,0.469C11.792,6.638,11.576,6.658,11.3,6.56
	l-0.193-0.068C10.374,7.404,9.262,8,8,8C5.791,8,4,6.209,4,4c0-2.17,1.731-3.928,3.887-3.988L7.898,0v0.01C7.933,0.01,7.965,0,8,0
	c2.209,0,4,1.791,4,4c0,0.581-0.13,1.13-0.353,1.628L12.695,6z M7.897,1.011L7.896,3.16C8.53,3.335,9,3.911,9,4.601
	C9,4.63,8.993,4.657,8.991,4.687l1.705,0.604C10.885,4.898,11,4.464,11,4c0-1.654-1.346-3-3-3C7.965,1,7.933,1.009,7.897,1.011z
	 M7,4.601c0,0.276,0.224,0.5,0.5,0.5S8,4.877,8,4.601s-0.224-0.5-0.5-0.5S7,4.324,7,4.601z M10.102,6.136l-1.496-0.53
	C8.332,5.907,7.939,6.101,7.5,6.101c-0.827,0-1.5-0.673-1.5-1.5c0-0.614,0.372-1.142,0.901-1.374l0.002-2.013
	C5.792,1.653,5,2.733,5,4c0,1.654,1.346,3,3,3C8.819,7,9.561,6.669,10.102,6.136z"/>
</svg>
