<?xml version="1.0" encoding="iso-8859-1"?>
<!-- Generator: Adobe Illustrator 16.0.0, SVG Export Plug-In . SVG Version: 6.00 Build 0)  -->
<!DOCTYPE svg PUBLIC "-//W3C//DTD SVG 1.1//EN" "http://www.w3.org/Graphics/SVG/1.1/DTD/svg11.dtd">
<svg version="1.1" id="Layer_2" xmlns="http://www.w3.org/2000/svg" xmlns:xlink="http://www.w3.org/1999/xlink" x="0px" y="0px"
	 width="24px" height="24px" viewBox="0 0 24 24" style="enable-background:new 0 0 24 24;" xml:space="preserve">
<path style="fill:#231F20;" d="M18.688,23l-0.023-0.016V23l-3.24-2.27c-0.329-0.232-0.477-0.488-0.477-0.893v-1.119l2.365,1.656
	v-0.656c0-1.785-1.254-3.258-2.888-3.536l-0.55-0.058h-2.75c-1.896,0-3.438,1.611-3.438,3.594v1.831
	c-0.025,0.348-0.156,0.612-0.457,0.821L6.312,23v-3.281c0-2.74,2.159-4.969,4.812-4.969h2.75c2.653,0,4.812,2.229,4.812,4.969V23z
	 M18.269,9.25l-0.914,0.645c-0.329,0.232-0.625,0.261-1.005,0.125l-0.266-0.094C15.076,11.181,13.547,12,11.812,12
	c-3.037,0-5.5-2.463-5.5-5.5c0-2.983,2.381-5.4,5.345-5.484L11.673,1v0.014c0.048,0,0.092-0.014,0.14-0.014
	c3.037,0,5.5,2.463,5.5,5.5c0,0.799-0.179,1.554-0.485,2.238L18.269,9.25z M11.671,2.39l-0.002,2.956
	c0.872,0.24,1.518,1.032,1.518,1.98c0,0.04-0.009,0.077-0.012,0.118l2.345,0.831c0.26-0.54,0.417-1.138,0.417-1.775
	c0-2.274-1.851-4.125-4.125-4.125C11.764,2.375,11.72,2.387,11.671,2.39z M10.438,7.326c0,0.38,0.308,0.688,0.688,0.688
	s0.688-0.308,0.688-0.688c0-0.381-0.308-0.688-0.688-0.688S10.438,6.945,10.438,7.326z M14.703,9.437l-2.057-0.729
	c-0.377,0.415-0.916,0.682-1.521,0.682c-1.137,0-2.062-0.926-2.062-2.062c0-0.845,0.511-1.57,1.239-1.89l0.003-2.768
	C8.776,3.273,7.688,4.759,7.688,6.5c0,2.274,1.851,4.125,4.125,4.125C12.938,10.625,13.958,10.17,14.703,9.437z"/>
</svg>
