<?xml version="1.0" encoding="iso-8859-1"?>
<!-- Generator: Adobe Illustrator 16.0.0, SVG Export Plug-In . SVG Version: 6.00 Build 0)  -->
<!DOCTYPE svg PUBLIC "-//W3C//DTD SVG 1.1//EN" "http://www.w3.org/Graphics/SVG/1.1/DTD/svg11.dtd">
<svg version="1.1" id="Layer_2" xmlns="http://www.w3.org/2000/svg" xmlns:xlink="http://www.w3.org/1999/xlink" x="0px" y="0px"
	 width="16px" height="16px" viewBox="0 0 16 16" style="enable-background:new 0 0 16 16;" xml:space="preserve">
<path style="fill:#231F20;" d="M15.294,7.771c-0.732-1.042-1.927-1.663-3.198-1.663h-0.003H11.61
	c-0.448-1.379-1.371-2.532-2.629-3.276c-1.37-0.81-2.969-1.036-4.508-0.642c-3.18,0.817-5.102,4.073-4.286,7.257
	c0.186,0.73,0.519,1.422,0.966,2.034c0,0-0.007,0.001-0.006,0.003C2.103,12.845,4.366,14,6.304,14h5.729
	c0.824,0,1.905-0.436,2.824-1.209c0.001-0.001-0.006-0.008-0.006-0.008C16.171,11.465,16.401,9.349,15.294,7.771z M6.308,13
	c-1.573,0.002-3.222-0.77-4.166-1.874c-0.463-0.562-0.807-1.223-0.986-1.927c-0.679-2.65,0.921-5.361,3.565-6.041
	c1.281-0.329,2.613-0.14,3.75,0.533c1.141,0.675,1.951,1.754,2.28,3.04c0.057,0.222,0.256,0.376,0.484,0.376h0.858
	c0.001,0,0.001,0,0.002,0c0.945,0,1.835,0.463,2.379,1.237c0.804,1.145,0.666,2.673-0.25,3.659C13.648,12.542,12.907,13,12.033,13
	H6.308z"/>
</svg>
