<?xml version="1.0" encoding="iso-8859-1"?>
<!-- Generator: Adobe Illustrator 16.0.0, SVG Export Plug-In . SVG Version: 6.00 Build 0)  -->
<!DOCTYPE svg PUBLIC "-//W3C//DTD SVG 1.1//EN" "http://www.w3.org/Graphics/SVG/1.1/DTD/svg11.dtd">
<svg version="1.1" id="Layer_2" xmlns="http://www.w3.org/2000/svg" xmlns:xlink="http://www.w3.org/1999/xlink" x="0px" y="0px"
	 width="24px" height="24px" viewBox="0 0 24 24" style="enable-background:new 0 0 24 24;" xml:space="preserve">
<path style="fill:#231F20;" d="M22.029,11.685c-1.006-1.433-2.65-2.287-4.397-2.287h-0.004h-0.664
	c-0.616-1.896-1.885-3.481-3.615-4.505c-1.883-1.113-4.082-1.425-6.199-0.882c-4.372,1.123-7.015,5.601-5.893,9.978
	c0.255,1.005,0.713,1.955,1.328,2.798c0,0-0.01,0.001-0.009,0.004c1.315,1.871,4.427,3.46,7.091,3.46h7.878
	c1.132,0,2.619-0.599,3.883-1.662c0.001-0.002-0.009-0.011-0.009-0.011C23.235,16.765,23.551,13.854,22.029,11.685z M9.673,18.875
	c-2.163,0.003-4.43-1.058-5.728-2.577c-0.637-0.773-1.11-1.681-1.356-2.649c-0.934-3.644,1.266-7.371,4.902-8.306
	c1.762-0.453,3.593-0.192,5.156,0.732c1.568,0.928,2.682,2.412,3.135,4.181c0.078,0.305,0.352,0.517,0.666,0.517h1.18
	c0.001,0,0.002,0,0.003,0c1.3,0,2.523,0.637,3.271,1.701c1.106,1.574,0.915,3.676-0.344,5.032c-0.793,0.739-1.812,1.369-3.014,1.369
	H9.673z"/>
</svg>
