<?xml version="1.0" encoding="iso-8859-1"?>
<!-- Generator: Adobe Illustrator 16.0.0, SVG Export Plug-In . SVG Version: 6.00 Build 0)  -->
<!DOCTYPE svg PUBLIC "-//W3C//DTD SVG 1.1//EN" "http://www.w3.org/Graphics/SVG/1.1/DTD/svg11.dtd">
<svg version="1.1" id="Layer" xmlns="http://www.w3.org/2000/svg" xmlns:xlink="http://www.w3.org/1999/xlink" x="0px" y="0px"
	 width="24px" height="24px" viewBox="0 0 24 24" style="enable-background:new 0 0 24 24;" xml:space="preserve">
<path style="fill:#231F20;" d="M20.325,17.931c-0.216,0-0.429-0.102-0.563-0.291c-0.219-0.311-0.144-0.74,0.167-0.959
	c1.805-1.27,2.24-3.774,0.971-5.582c-0.748-1.064-1.97-1.701-3.27-1.701c-0.001,0-0.002,0-0.003,0h-1.18
	c-0.314,0-0.588-0.212-0.666-0.517c-0.452-1.769-1.565-3.253-3.134-4.181c-1.562-0.925-3.393-1.186-5.154-0.732
	C3.855,4.902,1.656,8.63,2.59,12.273c0.265,1.041,0.782,2.019,1.496,2.827c0.252,0.284,0.224,0.72-0.061,0.971
	c-0.283,0.253-0.719,0.223-0.97-0.061c-0.857-0.972-1.479-2.147-1.796-3.397C0.136,8.236,2.779,3.759,7.15,2.636
	c2.115-0.543,4.315-0.231,6.196,0.882c1.73,1.023,2.999,2.609,3.615,4.505h0.664c0.001,0,0.003,0,0.003,0
	c1.748,0,3.391,0.854,4.396,2.287c1.704,2.426,1.119,5.79-1.304,7.497C20.599,17.891,20.461,17.931,20.325,17.931z M7.188,12v1.363
	c0,0.387,0.308,0.699,0.688,0.699s0.688-0.312,0.688-0.699v-2.738l-0.917,0.642C7.369,11.46,7.224,11.698,7.188,12z M11.312,14.062
	v1.363c0,0.387,0.308,0.699,0.688,0.699s0.688-0.312,0.688-0.699v-2.738l-0.917,0.642C11.495,13.522,11.35,13.761,11.312,14.062z
	 M15.438,12v1.363c0,0.387,0.308,0.699,0.688,0.699s0.688-0.312,0.688-0.699v-2.738l-0.917,0.642
	C15.62,11.46,15.475,11.698,15.438,12z M7.188,17.5v1.363c0,0.387,0.308,0.699,0.688,0.699s0.688-0.312,0.688-0.699v-2.738
	l-0.917,0.642C7.369,16.96,7.224,17.198,7.188,17.5z M11.312,19.562v1.363c0,0.387,0.308,0.699,0.688,0.699s0.688-0.312,0.688-0.699
	v-2.738l-0.917,0.642C11.495,19.022,11.35,19.261,11.312,19.562z M15.438,17.5v1.363c0,0.387,0.308,0.699,0.688,0.699
	s0.688-0.312,0.688-0.699v-2.738l-0.917,0.642C15.62,16.96,15.475,17.198,15.438,17.5z"/>
</svg>
