<?xml version="1.0" encoding="iso-8859-1"?>
<!-- Generator: Adobe Illustrator 16.0.0, SVG Export Plug-In . SVG Version: 6.00 Build 0)  -->
<!DOCTYPE svg PUBLIC "-//W3C//DTD SVG 1.1//EN" "http://www.w3.org/Graphics/SVG/1.1/DTD/svg11.dtd">
<svg version="1.1" id="Layer" xmlns="http://www.w3.org/2000/svg" xmlns:xlink="http://www.w3.org/1999/xlink" x="0px" y="0px"
	 width="16px" height="16px" viewBox="0 0 16 16" style="enable-background:new 0 0 16 16;" xml:space="preserve">
<path style="fill:#231F20;" d="M14.054,12.313c-0.157,0-0.312-0.074-0.41-0.212c-0.159-0.226-0.105-0.538,0.121-0.697
	c1.312-0.924,1.629-2.745,0.706-4.06c-0.544-0.774-1.433-1.237-2.378-1.237c-0.001,0-0.001,0-0.002,0h-0.858
	c-0.229,0-0.428-0.154-0.484-0.376C10.42,4.445,9.61,3.366,8.47,2.691C7.333,2.019,6.002,1.829,4.722,2.158
	c-2.645,0.68-4.244,3.391-3.565,6.041c0.193,0.757,0.569,1.468,1.088,2.056c0.183,0.207,0.163,0.523-0.044,0.706
	c-0.206,0.184-0.523,0.162-0.706-0.044C0.871,10.21,0.419,9.355,0.188,8.446c-0.815-3.184,1.106-6.439,4.285-7.257
	c1.539-0.395,3.138-0.168,4.506,0.642c1.258,0.744,2.181,1.897,2.629,3.276h0.482c0.001,0,0.002,0,0.002,0
	c1.271,0,2.466,0.621,3.197,1.663c1.239,1.765,0.814,4.211-0.948,5.452C14.254,12.284,14.154,12.313,14.054,12.313z M4.5,8v0.991
	C4.5,9.272,4.724,9.5,5,9.5s0.5-0.228,0.5-0.509V7L4.833,7.467C4.632,7.607,4.527,7.78,4.5,8z M7.5,9.5v0.991
	C7.5,10.772,7.724,11,8,11s0.5-0.228,0.5-0.509V8.5L7.833,8.967C7.632,9.107,7.527,9.28,7.5,9.5z M10.5,8v0.991
	C10.5,9.272,10.724,9.5,11,9.5s0.5-0.228,0.5-0.509V7l-0.667,0.467C10.632,7.607,10.527,7.78,10.5,8z M4.5,12v0.991
	C4.5,13.272,4.724,13.5,5,13.5s0.5-0.228,0.5-0.509V11l-0.667,0.467C4.632,11.607,4.527,11.78,4.5,12z M7.5,13.5v0.991
	C7.5,14.772,7.724,15,8,15s0.5-0.228,0.5-0.509V12.5l-0.667,0.467C7.632,13.107,7.527,13.28,7.5,13.5z M10.5,12v0.991
	c0,0.281,0.224,0.509,0.5,0.509s0.5-0.228,0.5-0.509V11l-0.667,0.467C10.632,11.607,10.527,11.78,10.5,12z"/>
</svg>
