<?xml version="1.0" encoding="iso-8859-1"?>
<!-- Generator: Adobe Illustrator 16.0.0, SVG Export Plug-In . SVG Version: 6.00 Build 0)  -->
<!DOCTYPE svg PUBLIC "-//W3C//DTD SVG 1.1//EN" "http://www.w3.org/Graphics/SVG/1.1/DTD/svg11.dtd">
<svg version="1.1" id="Layer" xmlns="http://www.w3.org/2000/svg" xmlns:xlink="http://www.w3.org/1999/xlink" x="0px" y="0px"
	 width="24px" height="24px" viewBox="0 0 24 24" style="enable-background:new 0 0 24 24;" xml:space="preserve">
<path style="fill:#231F20;" d="M20.325,17.931c-0.216,0-0.429-0.102-0.563-0.291c-0.219-0.311-0.144-0.74,0.167-0.959
	c1.805-1.27,2.24-3.774,0.971-5.582c-0.748-1.064-1.97-1.701-3.27-1.701c-0.001,0-0.002,0-0.003,0h-1.18
	c-0.314,0-0.588-0.212-0.666-0.517c-0.452-1.769-1.565-3.253-3.134-4.181c-1.562-0.925-3.393-1.186-5.154-0.732
	C3.855,4.902,1.656,8.63,2.59,12.273c0.265,1.041,0.782,2.019,1.496,2.827c0.252,0.284,0.224,0.72-0.061,0.971
	c-0.283,0.253-0.719,0.223-0.97-0.061c-0.857-0.972-1.479-2.147-1.796-3.397C0.136,8.236,2.779,3.759,7.15,2.636
	c2.115-0.543,4.315-0.231,6.196,0.882c1.73,1.023,2.999,2.609,3.615,4.505h0.664c0.001,0,0.003,0,0.003,0
	c1.748,0,3.391,0.854,4.396,2.287c1.704,2.426,1.119,5.79-1.304,7.497C20.599,17.891,20.461,17.931,20.325,17.931z M15.356,16.487
	c-0.12-0.223-0.353-0.362-0.606-0.362h-4.216l2.831-3.948c0.037-0.055,0.054-0.116,0.073-0.177l-1.054,0.008
	c-0.357,0.003-0.61,0.142-0.824,0.399l-2.881,4.024c-0.14,0.21-0.154,0.481-0.034,0.706C8.763,17.36,8.996,17.5,9.25,17.5h4.216
	l-2.835,4.118c0,0.002,0,0.006-0.001,0.007h1.093c0.339,0.004,0.582-0.126,0.793-0.355l2.807-4.075
	C15.462,16.983,15.476,16.712,15.356,16.487z"/>
</svg>
