<?xml version="1.0" encoding="iso-8859-1"?>
<!-- Generator: Adobe Illustrator 16.0.0, SVG Export Plug-In . SVG Version: 6.00 Build 0)  -->
<!DOCTYPE svg PUBLIC "-//W3C//DTD SVG 1.1//EN" "http://www.w3.org/Graphics/SVG/1.1/DTD/svg11.dtd">
<svg version="1.1" id="Layer" xmlns="http://www.w3.org/2000/svg" xmlns:xlink="http://www.w3.org/1999/xlink" x="0px" y="0px"
	 width="16px" height="16px" viewBox="0 0 16 16" style="enable-background:new 0 0 16 16;" xml:space="preserve">
<path style="fill:#231F20;" d="M14.054,12.313c-0.157,0-0.312-0.074-0.41-0.212c-0.159-0.226-0.105-0.538,0.121-0.697
	c1.312-0.924,1.629-2.745,0.706-4.06c-0.544-0.774-1.433-1.237-2.378-1.237c-0.001,0-0.001,0-0.002,0h-0.858
	c-0.229,0-0.428-0.154-0.484-0.376C10.42,4.445,9.61,3.366,8.47,2.691C7.333,2.019,6.002,1.829,4.722,2.158
	c-2.645,0.68-4.244,3.391-3.565,6.041c0.193,0.757,0.569,1.468,1.088,2.056c0.183,0.207,0.163,0.523-0.044,0.706
	c-0.206,0.184-0.523,0.162-0.706-0.044C0.871,10.21,0.419,9.355,0.188,8.446c-0.815-3.184,1.106-6.439,4.285-7.257
	c1.539-0.395,3.138-0.168,4.506,0.642c1.258,0.744,2.181,1.897,2.629,3.276h0.482c0.001,0,0.002,0,0.002,0
	c1.271,0,2.466,0.621,3.197,1.663c1.239,1.765,0.814,4.211-0.948,5.452C14.254,12.284,14.154,12.313,14.054,12.313z M10.441,11.264
	C10.354,11.102,10.185,11,10,11H6.934l2.059-2.871C9.02,8.089,9.032,8.044,9.045,8L8.279,8.006c-0.26,0.002-0.444,0.103-0.6,0.29
	l-2.095,2.927c-0.102,0.153-0.112,0.351-0.025,0.514C5.646,11.898,5.815,12,6,12h3.066l-2.062,2.995c0,0.001,0,0.004-0.001,0.005
	h0.795c0.247,0.003,0.423-0.092,0.577-0.259l2.042-2.964C10.518,11.624,10.528,11.427,10.441,11.264z"/>
</svg>
