<?xml version="1.0" encoding="iso-8859-1"?>
<!-- Generator: Adobe Illustrator 16.0.0, SVG Export Plug-In . SVG Version: 6.00 Build 0)  -->
<!DOCTYPE svg PUBLIC "-//W3C//DTD SVG 1.1//EN" "http://www.w3.org/Graphics/SVG/1.1/DTD/svg11.dtd">
<svg version="1.1" id="Layer" xmlns="http://www.w3.org/2000/svg" xmlns:xlink="http://www.w3.org/1999/xlink" x="0px" y="0px"
	 width="24px" height="24px" viewBox="0 0 24 24" style="enable-background:new 0 0 24 24;" xml:space="preserve">
<path style="fill:#231F20;" d="M9.029,4.933C8.761,4.664,8.763,4.228,9.032,3.961c0.535-0.533,1.241-0.799,1.946-0.799
	c0.702,0,1.404,0.263,1.939,0.79c0.521,0.511,0.81,1.194,0.813,1.923c0.003,0.73-0.282,1.418-0.801,1.937
	c-0.522,0.518-1.214,0.801-1.952,0.801c-0.002,0-0.004,0-0.006,0L1,8.624l0.642-0.918C1.835,7.431,2.073,7.32,2.375,7.284
	c0,0,8.599,0,8.6,0c0.375,0,0.723-0.189,0.984-0.448c0.256-0.256,0.397-0.596,0.396-0.955c-0.001-0.358-0.144-0.694-0.402-0.946
	c-0.27-0.268-0.623-0.4-0.977-0.4s-0.707,0.134-0.975,0.401c-0.134,0.133-0.31,0.2-0.485,0.2C9.34,5.136,9.164,5.068,9.029,4.933z
	 M22.043,7.163c-0.637-0.628-1.473-0.942-2.309-0.942c-0.833,0-1.668,0.312-2.304,0.938c-0.271,0.268-0.273,0.702-0.006,0.972
	c0.134,0.138,0.312,0.206,0.489,0.206c0.174,0,0.349-0.066,0.483-0.197c0.369-0.364,0.854-0.547,1.339-0.547
	c0.485,0,0.971,0.183,1.34,0.547c0.355,0.353,0.551,0.82,0.549,1.317c0,0.494-0.197,0.958-0.552,1.308
	c-0.357,0.353-0.832,0.546-1.335,0.548L3.062,11.331l-0.688,0.035c-0.302,0.036-0.54,0.146-0.733,0.422L1,12.706l18.74-0.019
	c0.867-0.002,1.684-0.337,2.298-0.942c0.619-0.61,0.96-1.421,0.962-2.286C23.002,8.593,22.662,7.778,22.043,7.163z M16.021,16.188
	c-0.512-0.509-1.223-0.781-1.95-0.781c-0.002,0-11.702,0-11.702,0c-0.299,0.036-0.536,0.146-0.728,0.421L1,16.745
	c0,0,13.069,0,13.07,0c0.368,0,0.726,0.164,0.981,0.418c0.259,0.256,0.399,0.598,0.397,0.957c-0.001,0.357-0.144,0.693-0.404,0.948
	c-0.27,0.265-0.621,0.397-0.973,0.397c-0.354,0-0.707-0.135-0.975-0.401c-0.134-0.133-0.311-0.2-0.485-0.2
	c-0.177,0-0.354,0.067-0.488,0.202c-0.268,0.269-0.267,0.704,0.002,0.973c0.536,0.533,1.242,0.8,1.947,0.8
	c0.701,0,1.402-0.264,1.936-0.79c0.522-0.511,0.812-1.194,0.815-1.922C16.828,17.396,16.542,16.708,16.021,16.188z"/>
</svg>
