<?xml version="1.0" encoding="utf-8"?>
<!-- Generator: Adobe Illustrator 16.0.0, SVG Export Plug-In . SVG Version: 6.00 Build 0)  -->
<!DOCTYPE svg PUBLIC "-//W3C//DTD SVG 1.1//EN" "http://www.w3.org/Graphics/SVG/1.1/DTD/svg11.dtd">
<svg version="1.1" id="Layer" xmlns="http://www.w3.org/2000/svg" xmlns:xlink="http://www.w3.org/1999/xlink" x="0px" y="0px"
	 width="16px" height="16px" viewBox="0 0 16 16" enable-background="new 0 0 16 16" xml:space="preserve">
<path fill="#231F20" d="M5.839,2.86C5.645,2.665,5.646,2.348,5.841,2.153C6.23,1.766,6.744,1.572,7.256,1.572
	c0.511,0,1.021,0.191,1.411,0.575c0.378,0.371,0.589,0.868,0.591,1.398C9.26,4.077,9.053,4.577,8.675,4.954
	C8.296,5.33,7.792,5.536,7.256,5.536c-0.002,0-0.003,0-0.005,0L0,5.545l0.467-0.668C0.607,4.677,0.78,4.597,1,4.57
	c0,0,6.254,0,6.254,0c0.272,0,0.526-0.138,0.716-0.326C8.157,4.059,8.259,3.812,8.258,3.55C8.257,3.289,8.153,3.045,7.966,2.861
	C7.77,2.667,7.513,2.57,7.256,2.57c-0.257,0-0.514,0.098-0.709,0.292C6.449,2.959,6.321,3.008,6.194,3.008
	C6.065,3.008,5.937,2.959,5.839,2.86z M15.304,4.482c-0.463-0.457-1.071-0.686-1.679-0.686c-0.606,0-1.213,0.228-1.676,0.683
	c-0.197,0.194-0.199,0.511-0.005,0.707c0.098,0.1,0.227,0.149,0.356,0.149c0.127,0,0.253-0.048,0.351-0.144
	c0.269-0.265,0.622-0.397,0.974-0.397c0.353,0,0.706,0.133,0.975,0.397c0.258,0.257,0.4,0.597,0.399,0.958
	c0,0.359-0.143,0.697-0.401,0.951c-0.26,0.257-0.604,0.397-0.971,0.398L1.5,7.514L1,7.539C0.78,7.565,0.607,7.646,0.467,7.846
	L0,8.514L13.629,8.5c0.631-0.001,1.225-0.245,1.671-0.686c0.45-0.443,0.699-1.033,0.7-1.662C16.001,5.522,15.754,4.93,15.304,4.482z
	 M10.925,11.046c-0.372-0.37-0.889-0.568-1.418-0.568c-0.001,0-8.51,0-8.51,0c-0.218,0.026-0.39,0.106-0.53,0.306L0,11.451
	c0,0,9.505,0,9.506,0c0.268,0,0.528,0.119,0.713,0.304c0.188,0.187,0.291,0.435,0.289,0.696c-0.001,0.26-0.105,0.504-0.294,0.689
	c-0.196,0.192-0.452,0.289-0.708,0.289c-0.257,0-0.514-0.098-0.709-0.292c-0.098-0.097-0.226-0.146-0.353-0.146
	c-0.128,0-0.257,0.049-0.354,0.147c-0.195,0.195-0.194,0.512,0.001,0.707c0.39,0.388,0.903,0.582,1.416,0.582
	c0.51,0,1.02-0.192,1.408-0.575c0.38-0.371,0.591-0.868,0.593-1.397C11.511,11.924,11.304,11.424,10.925,11.046z"/>
</svg>
