<?xml version="1.0" encoding="iso-8859-1"?>
<!-- Generator: Adobe Illustrator 16.0.0, SVG Export Plug-In . SVG Version: 6.00 Build 0)  -->
<!DOCTYPE svg PUBLIC "-//W3C//DTD SVG 1.1//EN" "http://www.w3.org/Graphics/SVG/1.1/DTD/svg11.dtd">
<svg version="1.1" id="Layer" xmlns="http://www.w3.org/2000/svg" xmlns:xlink="http://www.w3.org/1999/xlink" x="0px" y="0px"
	 width="24px" height="24px" viewBox="0 0 24 24" style="enable-background:new 0 0 24 24;" xml:space="preserve">
<path style="fill:#231F20;" d="M22.771,20.461l-3.711-5.166c0.211-0.062,0.396-0.168,0.548-0.385l0.642-0.916h-2.11l-3.823-5.408
	C14.587,8.16,14.75,7.66,14.75,7.119c0-1.297-0.854-2.381-2.062-2.668c0.016-0.084,0-2.969,0-2.969l-0.917,0.641
	c-0.331,0.23-0.457,0.5-0.458,0.902v1.441C10.129,4.773,9.25,5.842,9.25,7.119c0,0.537,0.162,1.039,0.431,1.463l-3.824,5.412H3.75
	l0.642,0.916c0.151,0.217,0.335,0.32,0.546,0.385l-3.709,5.166c-0.235,0.328-0.29,0.617-0.159,1l0.364,1.057l5.174-7.152
	l4.704,0.004v1.512l0.916-0.643c0.32-0.225,0.443-0.486,0.453-0.869l4.724-0.004l5.161,7.152l0.364-1.057
	C23.062,21.078,23.006,20.789,22.771,20.461z M12,5.744c0.759,0,1.375,0.615,1.375,1.375S12.759,8.494,12,8.494
	s-1.375-0.615-1.375-1.375S11.241,5.744,12,5.744z M12.688,13.994v-1.375l-0.917,0.641c-0.276,0.193-0.386,0.432-0.423,0.734H7.6
	l-0.062-0.002l3.159-4.467c0.39,0.211,0.829,0.344,1.303,0.344s0.914-0.133,1.303-0.344l3.16,4.469H12.688z"/>
</svg>
