<?xml version="1.0" encoding="iso-8859-1"?>
<!-- Generator: Adobe Illustrator 16.0.0, SVG Export Plug-In . SVG Version: 6.00 Build 0)  -->
<!DOCTYPE svg PUBLIC "-//W3C//DTD SVG 1.1//EN" "http://www.w3.org/Graphics/SVG/1.1/DTD/svg11.dtd">
<svg version="1.1" id="Layer" xmlns="http://www.w3.org/2000/svg" xmlns:xlink="http://www.w3.org/1999/xlink" x="0px" y="0px"
	 width="16px" height="16px" viewBox="0 0 16 16" style="enable-background:new 0 0 16 16;" xml:space="preserve">
<path style="fill:#231F20;" d="M15.834,14.504l-2.667-3.707h0.003l-0.035-0.05c0.154-0.046,0.288-0.123,0.398-0.28L14,9.8h-1.535
	l-2.78-3.933C9.882,5.558,10,5.193,10,4.8c0-0.942-0.621-1.73-1.5-1.94c0.012-0.061,0-2.159,0-2.159L7.833,1.167
	C7.593,1.335,7.501,1.53,7.5,1.823v1.048C6.64,3.095,6,3.871,6,4.8c0,0.392,0.118,0.756,0.313,1.064L3.533,9.8H2l0.467,0.667
	c0.11,0.157,0.244,0.233,0.397,0.28l-0.035,0.05h0.014l-2.677,3.707c-0.171,0.238-0.211,0.449-0.115,0.727L0.315,16l3.763-5.203
	h1.937V10.8H7.5v1.1l0.666-0.467c0.233-0.163,0.322-0.354,0.329-0.633h0.692v-0.003h2.743L15.685,16l0.265-0.77
	C16.045,14.953,16.005,14.742,15.834,14.504z M8,3.8c0.552,0,1,0.447,1,1s-0.448,1-1,1s-1-0.447-1-1S7.448,3.8,8,3.8z M8.5,9.8v-1
	L7.833,9.267C7.632,9.407,7.552,9.58,7.525,9.8H4.8L4.755,9.799L7.052,6.55C7.336,6.704,7.655,6.8,8,6.8s0.665-0.096,0.948-0.25
	l2.298,3.25H8.5z"/>
</svg>
