<?xml version="1.0" encoding="iso-8859-1"?>
<!-- Generator: Adobe Illustrator 16.0.0, SVG Export Plug-In . SVG Version: 6.00 Build 0)  -->
<!DOCTYPE svg PUBLIC "-//W3C//DTD SVG 1.1//EN" "http://www.w3.org/Graphics/SVG/1.1/DTD/svg11.dtd">
<svg version="1.1" id="Layer" xmlns="http://www.w3.org/2000/svg" xmlns:xlink="http://www.w3.org/1999/xlink" x="0px" y="0px"
	 width="24px" height="24px" viewBox="0 0 24 24" style="enable-background:new 0 0 24 24;" xml:space="preserve">
<path style="fill:#231F20;" d="M21.439,11.935c-0.225-0.351-0.597-0.582-1.012-0.628c-0.049-0.006-0.099-0.008-0.149-0.008
	c-0.362,0-0.713,0.144-0.972,0.403l-3.311,3.312L9.182,8.212C9.188,8.188,9.202,8.17,9.207,8.147
	c0.377-1.513,0.206-3.062-0.514-4.604C8.277,2.648,7.737,1.93,7.359,1.484C7.109,1.19,6.75,1.015,6.366,1C6.348,1,6.329,1,6.31,1
	C5.946,1,5.597,1.143,5.338,1.401L1.402,5.336C1.131,5.605,0.985,5.98,1.001,6.363c0.016,0.385,0.192,0.745,0.486,0.995
	c0.447,0.376,1.168,0.915,2.062,1.334C4.558,9.16,5.577,9.397,6.58,9.397c0.525,0,1.053-0.064,1.569-0.193
	C8.167,9.2,8.186,9.186,8.203,9.18l6.818,6.809l-3.311,3.312c-0.295,0.295-0.44,0.709-0.395,1.124
	c0.046,0.415,0.278,0.786,0.631,1.01C13.073,22.148,14.908,23,17.247,23c1.367,0,2.763-0.289,4.149-0.862
	c0.34-0.141,0.608-0.409,0.748-0.75C23.958,16.971,22.481,13.568,21.439,11.935z M4.129,7.445c-0.752-0.352-1.36-0.805-1.754-1.138
	L6.31,2.375c0.334,0.393,0.788,1,1.137,1.748c0.387,0.831,0.635,1.814,0.54,2.898C7.964,7.28,7.94,7.541,7.872,7.814L7.818,7.869
	C7.54,7.939,7.273,7.965,7.007,7.988C5.93,8.076,4.954,7.829,4.129,7.445z M20.873,20.866c-1.217,0.501-2.438,0.758-3.625,0.758l0,0
	c-2.001,0-3.582-0.729-4.564-1.353l3.313-3.312l0.973-0.973l3.31-3.312C21.261,14.213,22.42,17.1,20.873,20.866z"/>
</svg>
