<?xml version="1.0" encoding="iso-8859-1"?>
<!-- Generator: Adobe Illustrator 16.0.0, SVG Export Plug-In . SVG Version: 6.00 Build 0)  -->
<!DOCTYPE svg PUBLIC "-//W3C//DTD SVG 1.1//EN" "http://www.w3.org/Graphics/SVG/1.1/DTD/svg11.dtd">
<svg version="1.1" id="Layer" xmlns="http://www.w3.org/2000/svg" xmlns:xlink="http://www.w3.org/1999/xlink" x="0px" y="0px"
	 width="16px" height="16px" viewBox="0 0 16 16" style="enable-background:new 0 0 16 16;" xml:space="preserve">
<path style="fill:#231F20;" d="M14.865,7.952c-0.164-0.255-0.434-0.423-0.736-0.456c-0.036-0.005-0.072-0.006-0.108-0.006
	c-0.264,0-0.519,0.104-0.707,0.293l-2.408,2.408L5.95,5.245c0.005-0.018,0.015-0.03,0.019-0.047C6.243,4.098,6.118,2.972,5.595,1.85
	C5.292,1.199,4.9,0.676,4.625,0.353C4.443,0.139,4.182,0.011,3.903,0C3.889,0,3.875,0,3.862,0C3.597,0,3.343,0.104,3.155,0.292
	L0.292,3.153C0.096,3.35-0.011,3.622,0.001,3.9c0.012,0.28,0.14,0.542,0.354,0.724c0.325,0.273,0.85,0.666,1.5,0.971
	c0.733,0.34,1.475,0.513,2.204,0.513c0.382,0,0.766-0.047,1.142-0.141c0.013-0.003,0.026-0.014,0.039-0.018l4.958,4.951L7.789,13.31
	c-0.214,0.215-0.32,0.516-0.287,0.817c0.034,0.302,0.202,0.572,0.459,0.734C8.78,15.381,10.115,16,11.816,16
	c0.994,0,2.01-0.21,3.018-0.627c0.247-0.103,0.442-0.298,0.544-0.546C16.697,11.615,15.623,9.141,14.865,7.952z M2.276,4.688
	C1.729,4.432,1.287,4.103,1,3.86L3.862,1c0.243,0.285,0.573,0.728,0.827,1.271C4.97,2.876,5.151,3.591,5.082,4.379
	C5.065,4.567,5.047,4.757,4.998,4.956l-0.039,0.04c-0.202,0.051-0.396,0.069-0.59,0.086C3.585,5.146,2.875,4.967,2.276,4.688z
	 M14.453,14.448c-0.885,0.364-1.772,0.551-2.637,0.551l0,0c-1.455,0-2.605-0.53-3.319-0.983l2.409-2.409l0.708-0.707l2.407-2.409
	C14.735,9.609,15.578,11.709,14.453,14.448z"/>
</svg>
