<?xml version="1.0" encoding="iso-8859-1"?>
<!-- Generator: Adobe Illustrator 16.0.0, SVG Export Plug-In . SVG Version: 6.00 Build 0)  -->
<!DOCTYPE svg PUBLIC "-//W3C//DTD SVG 1.1//EN" "http://www.w3.org/Graphics/SVG/1.1/DTD/svg11.dtd">
<svg version="1.1" id="Layer" xmlns="http://www.w3.org/2000/svg" xmlns:xlink="http://www.w3.org/1999/xlink" x="0px" y="0px"
	 width="16px" height="16px" viewBox="0 0 16 16" style="enable-background:new 0 0 16 16;" xml:space="preserve">
<path style="fill:#231F20;" d="M14.709,3.6l-0.816-0.573c-0.169-0.119-0.369-0.182-0.573-0.182c-0.058,0-0.115,0.006-0.173,0.015
	c-0.261,0.047-0.492,0.194-0.644,0.41l-0.01,0.015L8.017,0.179C7.847,0.061,7.647,0,7.448,0C7.29,0,7.131,0.038,6.985,0.114
	C6.656,0.287,6.45,0.626,6.45,0.998l0.001,0.811c0,0.608,0.257,1.101,0.784,1.475l1.09,0.734C7.537,5.142,5.069,8.672,1.046,14.432
	c-0.213,0.306-0.238,0.702-0.066,1.032C1.151,15.793,1.492,16,1.863,16c0.001,0,0.812-0.001,0.812-0.001
	c0.609,0,1.101-0.257,1.465-0.769l6.629-9.484c-0.294,0.449-0.18,1.054,0.262,1.363l0.817,0.572
	c0.169,0.119,0.369,0.182,0.572,0.182c0.058,0,0.115-0.005,0.173-0.015c0.261-0.047,0.492-0.194,0.645-0.411l1.716-2.45
	C15.269,4.536,15.16,3.914,14.709,3.6z M12.45,6.842l-0.818-0.574l0.573-0.818l-1.639-1.148L3.329,14.655
	c-0.169,0.237-0.356,0.344-0.649,0.344L1.866,15c0,0,7.852-11.239,7.882-11.272L7.812,2.421c-0.239-0.17-0.346-0.356-0.346-0.649
	L7.465,0.958l5.306,3.683l0.582-0.83l0.818,0.574L12.45,6.842z"/>
</svg>
