<?xml version="1.0" encoding="iso-8859-1"?>
<!-- Generator: Adobe Illustrator 16.0.0, SVG Export Plug-In . SVG Version: 6.00 Build 0)  -->
<!DOCTYPE svg PUBLIC "-//W3C//DTD SVG 1.1//EN" "http://www.w3.org/Graphics/SVG/1.1/DTD/svg11.dtd">
<svg version="1.1" id="Layer" xmlns="http://www.w3.org/2000/svg" xmlns:xlink="http://www.w3.org/1999/xlink" x="0px" y="0px"
	 width="24px" height="24px" viewBox="0 0 24 24" style="enable-background:new 0 0 24 24;" xml:space="preserve">
<path style="fill:#231F20;" d="M21.225,5.949l-1.123-0.788c-0.232-0.164-0.508-0.25-0.789-0.25c-0.079,0-0.158,0.009-0.237,0.021
	c-0.359,0.064-0.677,0.268-0.885,0.564l-0.013,0.02l-6.155-4.27C11.789,1.083,11.515,1,11.241,1c-0.217,0-0.436,0.053-0.636,0.157
	C10.152,1.395,9.869,1.86,9.869,2.372l0.001,1.114c0,0.837,0.353,1.514,1.078,2.028l1.499,1.01
	C11.364,8.069,7.97,12.924,2.438,20.844c-0.292,0.42-0.328,0.965-0.091,1.419C2.583,22.715,3.052,23,3.562,23
	c0.001,0,1.116,0,1.116,0c0.838,0,1.514-0.354,2.014-1.059L15.807,8.9c-0.404,0.618-0.247,1.449,0.36,1.875l1.124,0.787
	c0.232,0.164,0.508,0.25,0.787,0.25c0.079,0,0.158-0.007,0.237-0.021c0.359-0.064,0.677-0.268,0.886-0.565l2.359-3.369
	C21.994,7.237,21.845,6.382,21.225,5.949z M18.119,10.407l-1.125-0.789l0.789-1.126l-2.253-1.578L5.578,21.151
	c-0.232,0.326-0.49,0.473-0.893,0.473l-1.119,0.001c0,0,10.796-15.454,10.838-15.5l-2.663-1.796
	c-0.329-0.234-0.475-0.49-0.475-0.894l-0.001-1.118l7.295,5.063l0.8-1.142l1.125,0.79L18.119,10.407z"/>
</svg>
