<?xml version="1.0" encoding="iso-8859-1"?>
<!-- Generator: Adobe Illustrator 16.0.0, SVG Export Plug-In . SVG Version: 6.00 Build 0)  -->
<!DOCTYPE svg PUBLIC "-//W3C//DTD SVG 1.1//EN" "http://www.w3.org/Graphics/SVG/1.1/DTD/svg11.dtd">
<svg version="1.1" id="Layer" xmlns="http://www.w3.org/2000/svg" xmlns:xlink="http://www.w3.org/1999/xlink" x="0px" y="0px"
	 width="24px" height="24px" viewBox="0 0 24 24" style="enable-background:new 0 0 24 24;" xml:space="preserve">
<path style="fill-rule:evenodd;clip-rule:evenodd;fill:#231F20;" d="M20.015,5.064c-0.203-0.451-0.632-0.759-1.125-0.805
	c-0.043-0.005-0.086-0.006-0.129-0.006c-0.446,0-0.868,0.216-1.127,0.586l-1.805,2.663c-0.243,0.344-0.359,0.372-0.666,0.372h-1.275
	l-0.437-1.203c-0.104-0.279-0.116-0.4,0.12-0.741l1.84-2.714c0.28-0.4,0.261-0.927,0.056-1.371
	c-0.204-0.444-0.694-0.754-1.181-0.802C14.11,1.021,13.933,1,13.75,1C9.959,1,6.875,4.084,6.875,7.875
	c0,1.364,0.408,2.683,1.164,3.809l-6.415,9.152c-0.294,0.42-0.33,0.969-0.094,1.424C1.767,22.714,2.237,23,2.75,23h2.749
	c1.424,0,2.479-0.559,3.321-1.758l4.558-6.503c0.125,0.007,0.249,0.011,0.372,0.011c3.791,0,6.875-3.084,6.875-6.875
	C20.625,6.912,20.419,5.967,20.015,5.064z M13.75,13.375c-0.351,0-0.69-0.04-1.022-0.104l-5.033,7.182
	c-0.569,0.811-1.206,1.172-2.196,1.172H2.75l7.002-9.991C8.828,10.649,8.25,9.333,8.25,7.875c0-3.039,2.462-5.5,5.5-5.5
	c0.183,0,0.356,0.036,0.535,0.054l-1.84,2.714c-0.458,0.663-0.563,1.246-0.284,2.005l0.764,2.103h2.238
	c0.809,0.003,1.321-0.294,1.788-0.951l1.81-2.67c0.309,0.688,0.489,1.443,0.489,2.246C19.25,10.914,16.787,13.375,13.75,13.375z"/>
</svg>
