<?xml version="1.0" encoding="iso-8859-1"?>
<!-- Generator: Adobe Illustrator 16.0.0, SVG Export Plug-In . SVG Version: 6.00 Build 0)  -->
<!DOCTYPE svg PUBLIC "-//W3C//DTD SVG 1.1//EN" "http://www.w3.org/Graphics/SVG/1.1/DTD/svg11.dtd">
<svg version="1.1" id="Layer" xmlns="http://www.w3.org/2000/svg" xmlns:xlink="http://www.w3.org/1999/xlink" x="0px" y="0px"
	 width="16px" height="16px" viewBox="0 0 16 16" style="enable-background:new 0 0 16 16;" xml:space="preserve">
<path style="fill-rule:evenodd;clip-rule:evenodd;fill:#231F20;" d="M13.556,2.956c-0.147-0.328-0.46-0.552-0.818-0.585
	c-0.032-0.004-0.063-0.005-0.094-0.005c-0.324,0-0.631,0.157-0.819,0.427l-1.312,1.937C10.335,4.979,10.251,5,10.028,5H9.101
	L8.783,4.125C8.708,3.922,8.698,3.834,8.87,3.586l1.338-1.974c0.204-0.291,0.19-0.674,0.041-0.997
	C10.101,0.292,9.744,0.066,9.39,0.032C9.262,0.015,9.133,0,9,0C6.243,0,4,2.243,4,5c0,0.992,0.296,1.951,0.846,2.77l-4.665,6.656
	c-0.214,0.306-0.24,0.705-0.068,1.036C0.285,15.792,0.627,16,1,16h1.999c1.036,0,1.803-0.406,2.416-1.278l3.315-4.729
	C8.821,9.997,8.911,10,9,10c2.757,0,5-2.243,5-5C14,4.3,13.851,3.612,13.556,2.956z M9,9C8.745,9,8.498,8.971,8.256,8.925
	l-3.661,5.223C4.182,14.737,3.719,15,2.999,15H1l5.093-7.267C5.42,7.018,5,6.061,5,5c0-2.21,1.791-4,4-4
	c0.133,0,0.259,0.026,0.389,0.039L8.05,3.013C7.717,3.495,7.641,3.919,7.844,4.471L8.4,6h1.628c0.588,0.002,0.961-0.214,1.3-0.691
	l1.316-1.942C12.869,3.866,13,4.416,13,5C13,7.21,11.208,9,9,9z"/>
</svg>
