<?xml version="1.0" encoding="iso-8859-1"?>
<!-- Generator: Adobe Illustrator 16.0.0, SVG Export Plug-In . SVG Version: 6.00 Build 0)  -->
<!DOCTYPE svg PUBLIC "-//W3C//DTD SVG 1.1//EN" "http://www.w3.org/Graphics/SVG/1.1/DTD/svg11.dtd">
<svg version="1.1" id="Layer" xmlns="http://www.w3.org/2000/svg" xmlns:xlink="http://www.w3.org/1999/xlink" x="0px" y="0px"
	 width="16px" height="16px" viewBox="0 0 16 16" style="enable-background:new 0 0 16 16;" xml:space="preserve">
<path style="fill:#231F20;" d="M15,0.001h-2c-0.552,0-1,0.447-1,1v5.968C12,11.612,9.936,12,8,12c-1.978,0-4-0.598-4-5.031V1
	c0-0.553-0.447-1-1-1H1C0.448,0,0,0.447,0,1v7c0,8,5.403,8,8,8c2.598,0,8,0.001,8-7.999v-7C16,0.448,15.553,0.001,15,0.001z M3,1v2
	H1V1H3z M15,8.001c0,7-4.381,6.999-7,6.999c-2.618,0-7,0-7-7V4h2v2.969C3,12.5,6.053,13,8,13c1.948,0,5-0.38,5-6.031V4l2,0.001
	V8.001z M15,3.001L13,3V1.001h2V3.001z"/>
</svg>
