<?xml version="1.0" encoding="iso-8859-1"?>
<!-- Generator: Adobe Illustrator 16.0.0, SVG Export Plug-In . SVG Version: 6.00 Build 0)  -->
<!DOCTYPE svg PUBLIC "-//W3C//DTD SVG 1.1//EN" "http://www.w3.org/Graphics/SVG/1.1/DTD/svg11.dtd">
<svg version="1.1" id="Layer" xmlns="http://www.w3.org/2000/svg" xmlns:xlink="http://www.w3.org/1999/xlink" x="0px" y="0px"
	 width="24px" height="24px" viewBox="0 0 24 24" style="enable-background:new 0 0 24 24;" xml:space="preserve">
<path style="fill:#231F20;" d="M20.25,1H17.5c-0.759,0-1.375,0.615-1.375,1.375v8.206c0,5.544-1.464,6.919-4.125,6.919
	c-2.719,0-4.082-1.332-4.125-6.918V2.375C7.875,1.615,7.26,1,6.5,1H3.75C2.991,1,2.375,1.615,2.375,2.375V12
	c0,9.625,6.055,11,9.625,11c3.572,0,9.625-1.418,9.625-11V2.375C21.625,1.615,21.01,1,20.25,1z M6.5,2.375v2.75H3.75v-2.75H6.5z
	 M20.25,12c0,8.293-4.648,9.625-8.25,9.625c-3.6,0-8.25-1.375-8.25-9.625V6.5H6.5v4.082c0,6.961,2.822,8.293,5.5,8.293
	c2.679,0,5.5-1.289,5.5-8.294V6.499L20.25,6.5V12z M20.25,5.125L17.5,5.124V2.375h2.75V5.125z"/>
</svg>
