<?xml version="1.0" encoding="utf-8"?>
<!-- Generator: Adobe Illustrator 16.0.0, SVG Export Plug-In . SVG Version: 6.00 Build 0)  -->
<!DOCTYPE svg PUBLIC "-//W3C//DTD SVG 1.1//EN" "http://www.w3.org/Graphics/SVG/1.1/DTD/svg11.dtd">
<svg version="1.1" id="Layer" xmlns="http://www.w3.org/2000/svg" xmlns:xlink="http://www.w3.org/1999/xlink" x="0px" y="0px"
	 width="16px" height="16px" viewBox="0 0 16 16" enable-background="new 0 0 16 16" xml:space="preserve">
<path fill="#231F20" d="M14,0h-2c-0.552,0-1,0.447-1,1v5.968C11,11,9.936,12,8,12c-1.978,0-2.969-0.969-3-5.031V1
	c0-0.553-0.447-1-1-1H2C1.448,0,1,0.447,1,1v7c0,7,4.403,8,7,8c2.598,0,7-1.031,7-8V1C15,0.447,14.553,0,14,0z M4,1v2H2V1H4z M14,8
	c0,6.031-3.381,7-6,7c-2.618,0-6-1-6-7V4h2v2.969C4,12.031,6.053,13,8,13c1.948,0,4-0.938,4-6.032V3.999L14,4V8z M14,3l-2-0.001V1h2
	V3z"/>
</svg>
