<?xml version="1.0" encoding="iso-8859-1"?>
<!-- Generator: Adobe Illustrator 16.0.0, SVG Export Plug-In . SVG Version: 6.00 Build 0)  -->
<!DOCTYPE svg PUBLIC "-//W3C//DTD SVG 1.1//EN" "http://www.w3.org/Graphics/SVG/1.1/DTD/svg11.dtd">
<svg version="1.1" id="Layer_4" xmlns="http://www.w3.org/2000/svg" xmlns:xlink="http://www.w3.org/1999/xlink" x="0px" y="0px"
	 width="24px" height="24px" viewBox="0 0 24 24" style="enable-background:new 0 0 24 24;" xml:space="preserve">
<path style="fill:#231F20;" d="M12.083,1c-0.004,0-0.162,0-0.167,0C8.052,1.04,4.908,4.216,4.908,8.079
	c0,1.841,0.707,3.585,2.021,4.952c0.373,0.506,1.666,3.262,1.776,4.583c0.055,0.658-0.089,1.154,0.551,1.231
	c0,0.011-0.006,0.019-0.006,0.029v2.75c0,0.76,0.616,1.375,1.375,1.375h2.768c0.759,0,1.375-0.615,1.375-1.375v-2.75h0.025
	c0.715,0,0.58-0.548,0.64-1.261c0.116-1.389,1.312-4.136,1.668-4.622c1.284-1.326,1.991-3.072,1.991-4.913
	C19.092,4.212,15.948,1.036,12.083,1z M13.393,21.625h-2.768v-2.75h2.768V21.625z M16.113,12.036
	c-0.054,0.058-0.104,0.115-0.149,0.179c-0.473,0.645-1.764,3.635-1.901,5.285h-1.4h-1.375h-1.212
	c-0.138-1.65-1.566-4.644-2.04-5.285c-0.046-0.063-0.095-0.121-0.148-0.178c-1.034-1.069-1.604-2.477-1.604-3.958
	c0-3.126,2.528-5.672,5.647-5.704c0.023,0.001,0.116,0.001,0.14,0c3.119,0.029,5.647,2.578,5.647,5.704
	C17.717,9.562,17.147,10.968,16.113,12.036z"/>
</svg>
