<?xml version="1.0" encoding="iso-8859-1"?>
<!-- Generator: Adobe Illustrator 16.0.0, SVG Export Plug-In . SVG Version: 6.00 Build 0)  -->
<!DOCTYPE svg PUBLIC "-//W3C//DTD SVG 1.1//EN" "http://www.w3.org/Graphics/SVG/1.1/DTD/svg11.dtd">
<svg version="1.1" id="Layer_4" xmlns="http://www.w3.org/2000/svg" xmlns:xlink="http://www.w3.org/1999/xlink" x="0px" y="0px"
	 width="16px" height="16px" viewBox="0 0 16 16" style="enable-background:new 0 0 16 16;" xml:space="preserve">
<path style="fill:#231F20;" d="M8.06,0C8.057,0,7.942,0,7.939,0C5.128,0.029,2.842,2.339,2.842,5.148
	c0,1.339,0.514,2.607,1.47,3.602c0.271,0.368,1.211,2.372,1.292,3.333c0.04,0.479-0.065,0.84,0.401,0.896
	C6.004,12.986,6,12.992,6,13v2c0,0.553,0.448,1,1,1h2.013c0.552,0,1-0.447,1-1v-2h0.019c0.52,0,0.422-0.398,0.465-0.917
	c0.084-1.01,0.954-3.008,1.213-3.361c0.934-0.965,1.448-2.234,1.448-3.573C13.158,2.336,10.871,0.026,8.06,0z M9.013,15H7v-2h2.013
	V15z M10.991,8.026c-0.039,0.042-0.076,0.084-0.108,0.13C10.539,8.625,9.6,10.8,9.5,12H8.481h-1H6.6
	c-0.1-1.2-1.139-3.377-1.483-3.844C5.083,8.11,5.048,8.068,5.009,8.027C4.257,7.249,3.842,6.226,3.842,5.148
	c0-2.273,1.838-4.125,4.107-4.148c0.017,0.001,0.084,0.001,0.102,0c2.269,0.021,4.107,1.875,4.107,4.148
	C12.158,6.227,11.743,7.249,10.991,8.026z"/>
</svg>
