<?xml version="1.0" encoding="iso-8859-1"?>
<!-- Generator: Adobe Illustrator 16.0.0, SVG Export Plug-In . SVG Version: 6.00 Build 0)  -->
<!DOCTYPE svg PUBLIC "-//W3C//DTD SVG 1.1//EN" "http://www.w3.org/Graphics/SVG/1.1/DTD/svg11.dtd">
<svg version="1.1" id="Layer" xmlns="http://www.w3.org/2000/svg" xmlns:xlink="http://www.w3.org/1999/xlink" x="0px" y="0px"
	 width="16px" height="16px" viewBox="0 0 16 16" style="enable-background:new 0 0 16 16;" xml:space="preserve">
<path style="fill:#231F20;" d="M16,9l-0.467,0.667C15.365,9.907,15.17,9.999,14.877,10h-0.854c-0.293-0.001-0.488-0.093-0.656-0.333
	L12.9,9H16z M16,8H8c0,2.206-1.794,4-4,4s-4-1.794-4-4s1.794-4,4-4c1.858,0,3.411,1.279,3.858,3h7.019
	c0.293,0.001,0.488,0.093,0.656,0.333L16,8z M7,8c0-1.657-1.343-3-3-3S1,6.343,1,8s1.343,3,3,3S7,9.657,7,8z"/>
</svg>
