<?xml version="1.0" encoding="utf-8"?>
<!-- Generator: Adobe Illustrator 16.0.0, SVG Export Plug-In . SVG Version: 6.00 Build 0)  -->
<!DOCTYPE svg PUBLIC "-//W3C//DTD SVG 1.1//EN" "http://www.w3.org/Graphics/SVG/1.1/DTD/svg11.dtd">
<svg version="1.1" id="Layer_2" xmlns="http://www.w3.org/2000/svg" xmlns:xlink="http://www.w3.org/1999/xlink" x="0px" y="0px"
	 width="16px" height="16px" viewBox="0 0 16 16" enable-background="new 0 0 16 16" xml:space="preserve">
<path fill="#231F20" d="M3.787,12.582v0.814c0,0.293-0.107,0.48-0.347,0.648l-1.373,0.963c-0.241,0.168-0.453,0.203-0.729,0.104
	l-0.766-0.279L3.787,12.582z M14.082,9.018c-1.888,1.322-4.434,0.971-5.929-0.713L0,14.014v-0.814c0-0.293,0.106-0.48,0.347-0.648
	l7.231-5.062C6.487,5.504,7.023,2.975,8.92,1.646c2.033-1.424,4.845-0.928,6.268,1.104C16.611,4.783,16.115,7.594,14.082,9.018z
	 M14.368,3.324c-1.106-1.58-3.293-1.967-4.874-0.859C7.912,3.572,7.528,5.758,8.635,7.34c1.106,1.58,3.293,1.967,4.874,0.859
	C15.091,7.092,15.476,4.904,14.368,3.324z"/>
</svg>
