<?xml version="1.0" encoding="iso-8859-1"?>
<!-- Generator: Adobe Illustrator 16.0.0, SVG Export Plug-In . SVG Version: 6.00 Build 0)  -->
<!DOCTYPE svg PUBLIC "-//W3C//DTD SVG 1.1//EN" "http://www.w3.org/Graphics/SVG/1.1/DTD/svg11.dtd">
<svg version="1.1" id="Layer_2" xmlns="http://www.w3.org/2000/svg" xmlns:xlink="http://www.w3.org/1999/xlink" x="0px" y="0px"
	 width="24px" height="24px" viewBox="0 0 24 24" style="enable-background:new 0 0 24 24;" xml:space="preserve">
<path style="fill:#231F20;" d="M6.208,18.3v1.12c0,0.403-0.148,0.661-0.477,0.892l-1.888,1.324c-0.332,0.23-0.623,0.279-1.002,0.143
	l-1.053-0.385L6.208,18.3z M20.363,13.399c-2.596,1.817-6.096,1.334-8.152-0.98L1,20.269v-1.12c0-0.402,0.146-0.66,0.477-0.892
	l9.943-6.961c-1.5-2.729-0.763-6.206,1.845-8.032c2.796-1.957,6.662-1.275,8.618,1.518C23.84,7.577,23.158,11.441,20.363,13.399z
	 M20.756,5.57c-1.521-2.172-4.528-2.704-6.702-1.182c-2.175,1.523-2.703,4.528-1.182,6.703c1.521,2.173,4.528,2.705,6.702,1.182
	C21.75,10.751,22.279,7.743,20.756,5.57z"/>
</svg>
