<?xml version="1.0" encoding="iso-8859-1"?>
<!-- Generator: Adobe Illustrator 16.0.0, SVG Export Plug-In . SVG Version: 6.00 Build 0)  -->
<!DOCTYPE svg PUBLIC "-//W3C//DTD SVG 1.1//EN" "http://www.w3.org/Graphics/SVG/1.1/DTD/svg11.dtd">
<svg version="1.1" id="Layer" xmlns="http://www.w3.org/2000/svg" xmlns:xlink="http://www.w3.org/1999/xlink" x="0px" y="0px"
	 width="24px" height="24px" viewBox="0 0 24 24" style="enable-background:new 0 0 24 24;" xml:space="preserve">
<path style="fill:#231F20;" d="M12,5.125c-2.465,0-4.47,2.005-4.47,4.47c0,1.324,0.643,2.581,1.72,3.438V17.5
	c0,0.76,0.616,1.375,1.375,1.375h2.75c0.759,0,1.375-0.615,1.375-1.375v-4.468c1.078-0.856,1.72-2.113,1.72-3.438
	C16.47,7.13,14.465,5.125,12,5.125z M13.375,12.3v5.2h-2.75v-5.2c-0.961-0.522-1.72-1.532-1.72-2.705C8.905,7.886,10.292,6.5,12,6.5
	s3.095,1.386,3.095,3.095C15.095,10.768,14.336,11.777,13.375,12.3z M12,1C5.925,1,1,5.926,1,12s4.925,11,11,11s11-4.926,11-11
	S18.075,1,12,1z M12,21.625c-5.316,0-9.625-4.309-9.625-9.625S6.684,2.375,12,2.375S21.625,6.684,21.625,12S17.316,21.625,12,21.625
	z"/>
</svg>
