<?xml version="1.0" encoding="utf-8"?>
<!-- Generator: Adobe Illustrator 16.0.0, SVG Export Plug-In . SVG Version: 6.00 Build 0)  -->
<!DOCTYPE svg PUBLIC "-//W3C//DTD SVG 1.1//EN" "http://www.w3.org/Graphics/SVG/1.1/DTD/svg11.dtd">
<svg version="1.1" id="Layer" xmlns="http://www.w3.org/2000/svg" xmlns:xlink="http://www.w3.org/1999/xlink" x="0px" y="0px"
	 width="16px" height="16px" viewBox="0 0 16 16" enable-background="new 0 0 16 16" xml:space="preserve">
<path fill="#231F20" d="M8,3C6.208,3,4.749,4.458,4.749,6.251c0,0.963,0.467,1.877,1.251,2.5V12c0,0.553,0.448,1,1,1h2
	c0.552,0,1-0.447,1-1V8.751c0.784-0.623,1.251-1.537,1.251-2.5C11.251,4.458,9.792,3,8,3z M9,8.218V12H7V8.218
	c-0.699-0.38-1.251-1.114-1.251-1.967C5.749,5.008,6.758,4,8,4s2.251,1.008,2.251,2.251C10.251,7.104,9.699,7.838,9,8.218z M8,0
	C3.582,0,0,3.582,0,8s3.582,8,8,8s8-3.582,8-8S12.418,0,8,0z M8,15c-3.866,0-7-3.134-7-7s3.134-7,7-7s7,3.134,7,7S11.866,15,8,15z"
	/>
</svg>
