<?xml version="1.0" encoding="iso-8859-1"?>
<!-- Generator: Adobe Illustrator 16.0.0, SVG Export Plug-In . SVG Version: 6.00 Build 0)  -->
<!DOCTYPE svg PUBLIC "-//W3C//DTD SVG 1.1//EN" "http://www.w3.org/Graphics/SVG/1.1/DTD/svg11.dtd">
<svg version="1.1" id="Layer" xmlns="http://www.w3.org/2000/svg" xmlns:xlink="http://www.w3.org/1999/xlink" x="0px" y="0px"
	 width="16px" height="16px" viewBox="0 0 16 16" style="enable-background:new 0 0 16 16;" xml:space="preserve">
<path style="fill:#231F20;" d="M12.5,5H10C9.448,5,9,5.447,9,6v0.078C8.705,5.906,8.366,5.8,8,5.8S7.295,5.906,7,6.078V6
	c0-0.553-0.448-1-1-1H3.5C1.57,5,0,6.57,0,8.5V10c0,0.553,0.448,1,1,1h2.5C5.327,11,6.845,9.588,7,7.8l0,0c0-0.553,0.448-1,1-1
	s1,0.447,1,1l0,0c0.155,1.788,1.673,3.2,3.5,3.2H15c0.552,0,1-0.447,1-1V8.5C16,6.57,14.43,5,12.5,5z M3.5,10H1V8.5
	C1,7.119,2.118,6,3.5,6H6v1.5C6,8.881,4.881,10,3.5,10z M15,10h-2.5C11.119,10,10,8.881,10,7.5V6h2.5C13.882,6,15,7.119,15,8.5V10z"
	/>
</svg>
