<?xml version="1.0" encoding="iso-8859-1"?>
<!-- Generator: Adobe Illustrator 16.0.0, SVG Export Plug-In . SVG Version: 6.00 Build 0)  -->
<!DOCTYPE svg PUBLIC "-//W3C//DTD SVG 1.1//EN" "http://www.w3.org/Graphics/SVG/1.1/DTD/svg11.dtd">
<svg version="1.1" id="Layer" xmlns="http://www.w3.org/2000/svg" xmlns:xlink="http://www.w3.org/1999/xlink" x="0px" y="0px"
	 width="24px" height="24px" viewBox="0 0 24 24" style="enable-background:new 0 0 24 24;" xml:space="preserve">
<path style="fill:#231F20;" d="M18.188,7.875H14.75c-0.759,0-1.375,0.615-1.375,1.375v0.107C12.969,9.121,12.503,8.975,12,8.975
	s-0.969,0.146-1.375,0.383V9.25c0-0.76-0.616-1.375-1.375-1.375H5.812C3.159,7.875,1,10.034,1,12.688v2.062
	c0,0.76,0.616,1.375,1.375,1.375h3.438c2.512,0,4.6-1.941,4.812-4.4l0,0c0-0.76,0.616-1.375,1.375-1.375s1.375,0.615,1.375,1.375
	l0,0c0.213,2.459,2.3,4.4,4.812,4.4h3.438c0.759,0,1.375-0.615,1.375-1.375v-2.062C23,10.034,20.841,7.875,18.188,7.875z
	 M5.812,14.75H2.375v-2.062c0-1.898,1.538-3.438,3.438-3.438H9.25v2.062C9.25,13.211,7.711,14.75,5.812,14.75z M21.625,14.75h-3.438
	c-1.898,0-3.438-1.539-3.438-3.438V9.25h3.438c1.9,0,3.438,1.539,3.438,3.438V14.75z"/>
</svg>
