<?xml version="1.0" encoding="iso-8859-1"?>
<!-- Generator: Adobe Illustrator 16.0.0, SVG Export Plug-In . SVG Version: 6.00 Build 0)  -->
<!DOCTYPE svg PUBLIC "-//W3C//DTD SVG 1.1//EN" "http://www.w3.org/Graphics/SVG/1.1/DTD/svg11.dtd">
<svg version="1.1" id="Layer" xmlns="http://www.w3.org/2000/svg" xmlns:xlink="http://www.w3.org/1999/xlink" x="0px" y="0px"
	 width="16px" height="16px" viewBox="0 0 16 16" style="enable-background:new 0 0 16 16;" xml:space="preserve">
<g>
	<path style="fill:#231F20;" d="M8.01,0C7.756,0,7.5,0.011,7.242,0.034c-3.826,0.349-6.87,3.236-7.237,6.865
		c-0.028,0.281,0.063,0.562,0.253,0.771C0.448,7.88,0.717,8,1,8h6.5l0,5.397C7.5,14.832,8.621,16,10,16
		c1.314,0,2.382-1.065,2.48-2.407l-0.742,0.223c-0.186,0.057-0.307,0.164-0.404,0.298C11.087,14.637,10.584,15,10,15
		c-0.827,0-1.5-0.719-1.5-1.603L8.5,8H15c0.283,0,0.552-0.12,0.742-0.329c0.19-0.21,0.282-0.49,0.253-0.771
		C15.597,2.966,12.165,0,8.01,0z M1,7c0.32-3.163,2.977-5.664,6.333-5.97C11.198,0.682,14.631,3.354,15,7H1z"/>
</g>
</svg>
