<?xml version="1.0" encoding="iso-8859-1"?>
<!-- Generator: Adobe Illustrator 16.0.0, SVG Export Plug-In . SVG Version: 6.00 Build 0)  -->
<!DOCTYPE svg PUBLIC "-//W3C//DTD SVG 1.1//EN" "http://www.w3.org/Graphics/SVG/1.1/DTD/svg11.dtd">
<svg version="1.1" id="Layer" xmlns="http://www.w3.org/2000/svg" xmlns:xlink="http://www.w3.org/1999/xlink" x="0px" y="0px"
	 width="24px" height="24px" viewBox="0 0 24 24" style="enable-background:new 0 0 24 24;" xml:space="preserve">
<g>
	<path style="fill:#231F20;" d="M12.014,1c-0.349,0-0.701,0.015-1.057,0.047c-5.261,0.479-9.446,4.45-9.951,9.439
		c-0.039,0.387,0.087,0.772,0.349,1.062C1.616,11.835,1.986,12,2.375,12h8.938l0,7.421c0,1.973,1.542,3.579,3.438,3.579
		c1.807,0,3.275-1.465,3.411-3.311l-1.021,0.307c-0.255,0.078-0.422,0.226-0.556,0.409c-0.339,0.72-1.03,1.22-1.834,1.22
		c-1.137,0-2.063-0.988-2.063-2.204l0-7.421h8.938c0.389,0,0.759-0.165,1.02-0.452c0.261-0.289,0.388-0.675,0.349-1.062
		C22.446,5.078,17.726,1,12.014,1z M2.375,10.625c0.44-4.35,4.093-7.788,8.707-8.208c5.315-0.479,10.036,3.194,10.543,8.208H2.375z"
		/>
</g>
</svg>
