<svg id="Layer" xmlns="http://www.w3.org/2000/svg" viewBox="0 0 23.15 17.68"><path d="M13.63,12.52a3.1,3.1,0,0,0-.57-.36l-.76-.32a4.69,4.69,0,0,1-.56-.22,1.81,1.81,0,0,1-.39-.22.83.83,0,0,1-.23-.27.78.78,0,0,1-.07-.35.61.61,0,0,1,.33-.56,1.64,1.64,0,0,1,.79-.17,4.52,4.52,0,0,1,.52,0,1,1,0,0,0,1.1-.66l-.26-.08-.38-.09-.47-.07h-.06l.2-.29h-.71a.69.69,0,0,0-.6.32l0,0a2,2,0,0,0-.93.41A1.51,1.51,0,0,0,10,10.87a1.57,1.57,0,0,0,.14.69,1.71,1.71,0,0,0,.37.47,2.7,2.7,0,0,0,.55.34c.21.09.43.19.67.28a5.79,5.79,0,0,1,1,.52.72.72,0,0,1,.31.62.58.58,0,0,1-.31.56,2.27,2.27,0,0,1-1,.17,3.21,3.21,0,0,1-.76-.06,1,1,0,0,0-1.1.64c.11,0,.31.11.62.2a3.66,3.66,0,0,0,1,.12l-.13.19h.72a.68.68,0,0,0,.56-.27A2.13,2.13,0,0,0,13.5,15a1.42,1.42,0,0,0,.62-1.25A2,2,0,0,0,14,13,1.59,1.59,0,0,0,13.63,12.52Z" transform="translate(-0.42 -3.16)"/><path d="M21.74,16.35l0-5.18c0-.17,0-.33,0-.48A3.09,3.09,0,0,0,20.86,9l-5.7-5.68a.58.58,0,0,0-.76,0A1.83,1.83,0,0,0,13.72,5a2,2,0,0,0,.33.83c.35.54,1.33,2,2,2.89.18.2.5.5.79.49h.9A.94.94,0,0,0,17.64,9S15.57,6,15,5.18a.33.33,0,0,1,0-.12s0-.11.09-.19l5,5a1.86,1.86,0,0,1,.53,1.05,2.66,2.66,0,0,1,0,.28v5.58a.53.53,0,0,0,.19.35l1.09.9a.83.83,0,0,0,.84.19,6.67,6.67,0,0,0,.86-.28Z" transform="translate(-0.42 -3.16)"/><path d="M17.87,16.92a4.78,4.78,0,0,1-.77-1.84,2.45,2.45,0,0,1,0-.76l.55-2.79a.7.7,0,0,1,.13.23,11.38,11.38,0,0,1,.31,1.4c.08.52.13,1.39.15,1.58l.71-.56a.82.82,0,0,0,.34-.68L19.21,13a10.53,10.53,0,0,0-.35-1.59,1.66,1.66,0,0,0-2-1.11.6.6,0,0,0-.44.48l-.47,3.4a3.58,3.58,0,0,0,0,1.08,6,6,0,0,0,1,2.4l2.67,3.18s0,0,0,0L19.9,20a.83.83,0,0,0-.16-.8Z" transform="translate(-0.42 -3.16)"/><path d="M9,5.06a.33.33,0,0,1,0,.12C8.43,6,6.36,9,6.36,9a.94.94,0,0,0-.06.15h.9c.29,0,.61-.29.79-.49.63-.92,1.61-2.35,2-2.89A2,2,0,0,0,10.28,5a1.83,1.83,0,0,0-.68-1.7.58.58,0,0,0-.76,0L3.14,9a3.09,3.09,0,0,0-.86,1.69c0,.15,0,.31,0,.48l0,5.18L.43,17.9a6.67,6.67,0,0,0,.86.28A.83.83,0,0,0,2.13,18l1.09-.9a.53.53,0,0,0,.19-.35V11.16a2.66,2.66,0,0,1,0-.28A1.86,1.86,0,0,1,4,9.83l5-5C9,5,9,5,9,5.06Z" transform="translate(-0.42 -3.16)"/><path d="M7.6,10.77a.6.6,0,0,0-.44-.48,1.66,1.66,0,0,0-2,1.11A10.53,10.53,0,0,0,4.79,13q0,.24-.06.51a.82.82,0,0,0,.34.68l.71.56c0-.19.07-1.06.15-1.58a11.38,11.38,0,0,1,.31-1.4.7.7,0,0,1,.13-.23l.55,2.79a2.45,2.45,0,0,1,0,.76,4.78,4.78,0,0,1-.77,1.84L4.26,19.15a.83.83,0,0,0-.16.8l.24.89s0,0,0,0L7,17.65a6,6,0,0,0,1-2.4,3.58,3.58,0,0,0,0-1.08Z" transform="translate(-0.42 -3.16)"/></svg>