<?xml version="1.0" encoding="iso-8859-1"?>
<!-- Generator: Adobe Illustrator 16.0.0, SVG Export Plug-In . SVG Version: 6.00 Build 0)  -->
<!DOCTYPE svg PUBLIC "-//W3C//DTD SVG 1.1//EN" "http://www.w3.org/Graphics/SVG/1.1/DTD/svg11.dtd">
<svg version="1.1" id="Layer" xmlns="http://www.w3.org/2000/svg" xmlns:xlink="http://www.w3.org/1999/xlink" x="0px" y="0px"
	 width="24px" height="24px" viewBox="0 0 24 24" style="enable-background:new 0 0 24 24;" xml:space="preserve">
<path style="fill:#231F20;" d="M22.597,1.402C22.334,1.141,21.983,1,21.625,1c-0.152,0-0.306,0.025-0.455,0.078L1.92,7.817
	c-0.532,0.186-0.896,0.678-0.919,1.24c-0.023,0.564,0.3,1.084,0.815,1.313l8.179,3.635l3.637,8.178
	C13.853,22.682,14.347,23,14.888,23c0.018,0,0.038,0,0.057-0.001c0.563-0.023,1.055-0.387,1.241-0.92l6.737-19.25
	C23.097,2.331,22.97,1.776,22.597,1.402z M2.375,9.114l17.754-6.216l-9.579,9.58c-0.062,0.062-0.105,0.133-0.138,0.208L2.375,9.114z
	 M14.888,21.625l-3.574-8.036c0.075-0.034,0.146-0.077,0.208-0.139l9.579-9.579L14.888,21.625z"/>
</svg>
