<?xml version="1.0" encoding="iso-8859-1"?>
<!-- Generator: Adobe Illustrator 16.0.0, SVG Export Plug-In . SVG Version: 6.00 Build 0)  -->
<!DOCTYPE svg PUBLIC "-//W3C//DTD SVG 1.1//EN" "http://www.w3.org/Graphics/SVG/1.1/DTD/svg11.dtd">
<svg version="1.1" id="Layer" xmlns="http://www.w3.org/2000/svg" xmlns:xlink="http://www.w3.org/1999/xlink" x="0px" y="0px"
	 width="16px" height="16px" viewBox="0 0 16 16" style="enable-background:new 0 0 16 16;" xml:space="preserve">
<path style="fill:#231F20;" d="M15.707,0.293C15.516,0.103,15.261,0,15,0c-0.111,0-0.223,0.019-0.331,0.057l-14,4.901
	C0.283,5.093,0.018,5.451,0.001,5.86c-0.017,0.41,0.218,0.788,0.593,0.955l5.948,2.644l2.645,5.947C9.348,15.769,9.707,16,10.101,16
	c0.013,0,0.027,0,0.041-0.001c0.41-0.017,0.768-0.281,0.903-0.669l4.899-14C16.071,0.968,15.979,0.564,15.707,0.293z M1,5.901
	l12.912-4.521L6.946,8.348C6.901,8.393,6.869,8.444,6.845,8.499L1,5.901z M10.101,15L7.501,9.155C7.556,9.131,7.608,9.1,7.653,9.055
	l6.966-6.967L10.101,15z"/>
</svg>
