<?xml version="1.0" encoding="iso-8859-1"?>
<!-- Generator: Adobe Illustrator 16.0.0, SVG Export Plug-In . SVG Version: 6.00 Build 0)  -->
<!DOCTYPE svg PUBLIC "-//W3C//DTD SVG 1.1//EN" "http://www.w3.org/Graphics/SVG/1.1/DTD/svg11.dtd">
<svg version="1.1" id="Layer" xmlns="http://www.w3.org/2000/svg" xmlns:xlink="http://www.w3.org/1999/xlink" x="0px" y="0px"
	 width="24px" height="24px" viewBox="0 0 24 24" style="enable-background:new 0 0 24 24;" xml:space="preserve">
<path style="fill:#231F20;" d="M23,1.036l-0.34,1.157c-0.116,0.386-0.312,0.608-0.695,0.736l-1.06,0.358l0.34-1.157
	c0.115-0.386,0.312-0.608,0.694-0.736L23,1.036z M22.606,4.981c-0.129-0.383-0.351-0.579-0.737-0.694l-1.157-0.34l0.358,1.06
	c0.128,0.383,0.351,0.579,0.736,0.695l1.157,0.34L22.606,4.981z M18.353,2.061c0.128,0.382,0.351,0.579,0.737,0.693l1.157,0.34
	l-0.357-1.06c-0.129-0.382-0.351-0.579-0.736-0.694L17.996,1L18.353,2.061z M19.843,6.905c0.399-0.538,0.354-1.302-0.134-1.79
	l-0.972-0.972C18.479,3.886,18.13,3.74,17.765,3.74c-0.001,0-0.003,0-0.004,0c-0.308,0.002-0.604,0.105-0.844,0.293
	c-1.662-1.075-3.611-1.658-5.604-1.658C5.626,2.375,1,7.001,1,12.688S5.626,23,11.312,23s10.312-4.626,10.312-10.312
	C21.625,10.618,20.999,8.606,19.843,6.905z M11.312,21.625c-4.936,0-8.938-4.002-8.938-8.938S6.376,3.75,11.312,3.75
	c2.186,0,4.186,0.787,5.739,2.09l0.713-0.725l0.972,0.973L18.03,6.805c1.378,1.572,2.22,3.627,2.22,5.883
	C20.25,17.623,16.249,21.625,11.312,21.625z"/>
</svg>
