<?xml version="1.0" encoding="iso-8859-1"?>
<!-- Generator: Adobe Illustrator 16.0.0, SVG Export Plug-In . SVG Version: 6.00 Build 0)  -->
<!DOCTYPE svg PUBLIC "-//W3C//DTD SVG 1.1//EN" "http://www.w3.org/Graphics/SVG/1.1/DTD/svg11.dtd">
<svg version="1.1" id="Layer" xmlns="http://www.w3.org/2000/svg" xmlns:xlink="http://www.w3.org/1999/xlink" x="0px" y="0px"
	 width="16px" height="16px" viewBox="0 0 16 16" style="enable-background:new 0 0 16 16;" xml:space="preserve">
<path style="fill:#231F20;" d="M16,0.026l-0.247,0.842c-0.084,0.28-0.228,0.442-0.505,0.535l-0.771,0.261l0.247-0.842
	c0.083-0.28,0.227-0.442,0.504-0.535L16,0.026z M15.713,2.896c-0.094-0.278-0.255-0.421-0.536-0.505l-0.841-0.247l0.26,0.771
	c0.093,0.278,0.255,0.421,0.536,0.506l0.841,0.247L15.713,2.896z M12.62,0.771c0.093,0.277,0.255,0.421,0.536,0.504l0.841,0.247
	l-0.26-0.771c-0.094-0.277-0.255-0.421-0.536-0.505L12.36,0L12.62,0.771z M13.704,4.295c0.291-0.392,0.258-0.947-0.097-1.302
	L12.9,2.286c-0.188-0.188-0.442-0.293-0.707-0.293c-0.001,0-0.002,0-0.003,0c-0.224,0.001-0.439,0.076-0.614,0.213
	C10.367,1.424,8.949,1,7.5,1C3.364,1,0,4.364,0,8.5S3.364,16,7.5,16S15,12.636,15,8.5C15,6.995,14.545,5.532,13.704,4.295z M7.5,15
	C3.91,15,1,12.09,1,8.5S3.91,2,7.5,2c1.589,0,3.044,0.572,4.174,1.52l0.519-0.526L12.9,3.7l-0.515,0.521
	C13.388,5.365,14,6.859,14,8.5C14,12.09,11.09,15,7.5,15z"/>
</svg>
