<?xml version="1.0" encoding="iso-8859-1"?>
<!-- Generator: Adobe Illustrator 16.0.0, SVG Export Plug-In . SVG Version: 6.00 Build 0)  -->
<!DOCTYPE svg PUBLIC "-//W3C//DTD SVG 1.1//EN" "http://www.w3.org/Graphics/SVG/1.1/DTD/svg11.dtd">
<svg version="1.1" id="Layer" xmlns="http://www.w3.org/2000/svg" xmlns:xlink="http://www.w3.org/1999/xlink" x="0px" y="0px"
	 width="16px" height="16px" viewBox="0 0 16 16" style="enable-background:new 0 0 16 16;" xml:space="preserve">
<path style="fill:#231F20;" d="M7.223,8.33L2.499,15H2.138c-0.293,0.001-0.488,0.093-0.656,0.333L1.016,16H15l-0.466-0.667
	c-0.167-0.24-0.363-0.332-0.656-0.333h-0.392L8.762,8.33C8.492,8,8.492,8,8.777,7.67L13.501,1h0.361
	c0.293-0.001,0.488-0.093,0.656-0.333L14.984,0H1l0.466,0.667C1.634,0.907,1.829,0.999,2.122,1h0.392l4.724,6.67
	C7.392,8,7.392,8,7.223,8.33z M3.713,1h8.59L8.009,7.027L8.008,7.026L8.007,7.027L3.713,1z M12.287,15h-8.59l4.294-6.027
	l0.001,0.001l0.001-0.001L12.287,15z M10.439,14H5.544l0.75-1H9.69L10.439,14z M8.991,4H6.993l-0.65-1h3.297L8.991,4z"/>
</svg>
