<?xml version="1.0" encoding="iso-8859-1"?>
<!-- Generator: Adobe Illustrator 16.0.0, SVG Export Plug-In . SVG Version: 6.00 Build 0)  -->
<!DOCTYPE svg PUBLIC "-//W3C//DTD SVG 1.1//EN" "http://www.w3.org/Graphics/SVG/1.1/DTD/svg11.dtd">
<svg version="1.1" id="Layer" xmlns="http://www.w3.org/2000/svg" xmlns:xlink="http://www.w3.org/1999/xlink" x="0px" y="0px"
	 width="24px" height="24px" viewBox="0 0 24 24" style="enable-background:new 0 0 24 24;" xml:space="preserve">
<path style="fill:#231F20;" d="M10.931,12.454l-6.496,9.171H3.939c-0.403,0.001-0.671,0.128-0.902,0.458L2.396,23h19.229
	l-0.641-0.917c-0.23-0.33-0.499-0.457-0.902-0.458h-0.539l-6.495-9.171C12.676,12,12.676,12,13.069,11.546l6.496-9.171h0.496
	c0.403-0.001,0.671-0.128,0.902-0.458L21.604,1H2.375l0.641,0.917c0.23,0.33,0.499,0.457,0.902,0.458h0.539l6.495,9.171
	C11.164,12,11.164,12,10.931,12.454z M6.105,2.375h11.812l-5.905,8.287l-0.001-0.001l-0.001,0.001L6.105,2.375z M17.895,21.625
	H6.083l5.905-8.287l0.001,0.001l0.001-0.001L17.895,21.625z M15.354,20.25H8.624l1.031-1.375h4.67L15.354,20.25z M13.363,6.5h-2.747
	L9.722,5.125h4.534L13.363,6.5z"/>
</svg>
