<?xml version="1.0" encoding="iso-8859-1"?>
<!-- Generator: Adobe Illustrator 16.0.0, SVG Export Plug-In . SVG Version: 6.00 Build 0)  -->
<!DOCTYPE svg PUBLIC "-//W3C//DTD SVG 1.1//EN" "http://www.w3.org/Graphics/SVG/1.1/DTD/svg11.dtd">
<svg version="1.1" xmlns="http://www.w3.org/2000/svg" xmlns:xlink="http://www.w3.org/1999/xlink" x="0px" y="0px" width="16px"
	 height="16px" viewBox="0 0 16 16" style="enable-background:new 0 0 16 16;" xml:space="preserve">
<g id="Layer_2">
	<path style="fill:#231F20;" d="M14.344,3.141l-0.007,0.006c-0.09-0.133-0.234-0.225-0.406-0.225c-0.276,0-0.5,0.224-0.5,0.5
		c0,0.113,0.044,0.212,0.107,0.295L13.534,3.72l0.205,0.284C14.532,5.139,15,6.515,15,8c0,3.859-3.14,7-7,7s-7-3.141-7-7s3.14-7,7-7
		c1.137,0,2.207,0.277,3.156,0.761l-1.371,1.96C9.629,3.939,9.606,4.152,9.675,4.396C9.165,4.152,8.604,4,8,4C5.791,4,4,5.791,4,8
		s1.791,4,4,4s4-1.791,4-4c0-0.592-0.145-1.144-0.376-1.647c-0.008-0.022-0.017-0.042-0.028-0.063
		c-0.01-0.021-0.017-0.042-0.027-0.062l-0.012,0.005c-0.09-0.127-0.232-0.216-0.4-0.216c-0.276,0-0.5,0.224-0.5,0.5
		c0,0.035,0.013,0.065,0.02,0.098L10.67,6.616l0.014,0.04c0.008,0.027,0.016,0.055,0.029,0.08l0.165,0.465
		C10.95,7.457,11,7.722,11,8c0,1.654-1.346,3-3,3S5,9.654,5,8s1.346-3,3-3c0.459,0,0.889,0.113,1.278,0.3l-1.7,2.404
		C7.419,7.931,7.474,8.241,7.7,8.4C7.927,8.56,8.238,8.504,8.397,8.277l2.165-3.062l0.191,0.001
		c0.293-0.001,0.498-0.108,0.667-0.349l2.604-3.721L13.23,1.146c-0.294,0.001-0.5,0.106-0.668,0.348l0-0.001
		c0.009-0.014,0.02-0.044,0.02-0.044s0,0-0.001-0.001c0.142-0.224,0.175-0.441,0.081-0.7L12.388,0L11.73,0.94
		C10.615,0.348,9.351,0,8,0C3.582,0,0,3.582,0,8s3.582,8,8,8s8-3.582,8-8C16,6.17,15.378,4.488,14.344,3.141z"/>
</g>
<g id="Layer_2_copy" style="display:none;">
	<path style="display:inline;fill:#231F20;" d="M8,4C5.791,4,4,5.791,4,8s1.791,4,4,4s4-1.791,4-4S10.209,4,8,4z M8,11
		c-1.654,0-3-1.346-3-3s1.346-3,3-3s3,1.346,3,3S9.654,11,8,11z"/>
	<path style="display:inline;fill:#231F20;" d="M8,0C3.582,0,0,3.582,0,8s3.582,8,8,8s8-3.582,8-8S12.418,0,8,0z M8,15
		c-3.86,0-7-3.141-7-7s3.14-7,7-7s7,3.141,7,7S11.86,15,8,15z"/>
	<circle style="display:inline;fill:#231F20;" cx="8" cy="8" r="0.5"/>
</g>
</svg>
