<?xml version="1.0" encoding="iso-8859-1"?>
<!-- Generator: Adobe Illustrator 16.0.0, SVG Export Plug-In . SVG Version: 6.00 Build 0)  -->
<!DOCTYPE svg PUBLIC "-//W3C//DTD SVG 1.1//EN" "http://www.w3.org/Graphics/SVG/1.1/DTD/svg11.dtd">
<svg version="1.1" id="Layer" xmlns="http://www.w3.org/2000/svg" xmlns:xlink="http://www.w3.org/1999/xlink" x="0px" y="0px"
	 width="16px" height="16px" viewBox="0 0 16 16" style="enable-background:new 0 0 16 16;" xml:space="preserve">
<path style="fill:#231F20;" d="M14.615,10.35c-0.772-0.103-1.531-0.291-2.261-0.562c-0.587-0.222-1.25-0.079-1.697,0.36
	l-1.021,1.021c-2.014-1.145-3.681-2.808-4.827-4.818l1.022-1.02c0.441-0.446,0.583-1.106,0.362-1.693
	C5.921,2.907,5.732,2.151,5.63,1.381C5.517,0.584,4.829-0.008,4.021,0H1.608C1.56,0,1.512,0.003,1.465,0.008
	C0.579,0.086-0.073,0.866,0.007,1.75c0.264,2.483,1.11,4.867,2.47,6.959c1.235,1.942,2.883,3.585,4.827,4.818
	c2.09,1.354,4.466,2.196,6.942,2.464C14.295,15.998,14.346,16,14.397,16c0.889-0.004,1.605-0.729,1.603-1.614v-2.407
	C16.019,11.163,15.423,10.462,14.615,10.35z M15,14.386c0.001,0.337-0.27,0.61-0.604,0.614l-0.023-0.001
	c-2.329-0.252-4.579-1.05-6.526-2.311c-1.817-1.154-3.38-2.714-4.526-4.517C2.047,6.213,1.247,3.958,1.001,1.645
	C0.988,1.499,1.037,1.343,1.141,1.219s0.25-0.2,0.412-0.215L4.021,1c0.318,0,0.577,0.225,0.62,0.522
	c0.11,0.833,0.318,1.666,0.616,2.465C5.34,4.21,5.287,4.46,5.121,4.628L4.103,5.643C3.784,5.961,3.717,6.454,3.94,6.846
	c1.232,2.164,3.031,3.96,5.201,5.192c0.155,0.088,0.325,0.131,0.494,0.131c0.259,0,0.515-0.101,0.708-0.293l1.021-1.021
	c0.11-0.107,0.263-0.171,0.425-0.171c0.073,0,0.144,0.014,0.212,0.039c0.801,0.298,1.635,0.506,2.482,0.618
	c0.299,0.042,0.524,0.306,0.517,0.614L15,14.386z"/>
</svg>
