<?xml version="1.0" encoding="iso-8859-1"?>
<!-- Generator: Adobe Illustrator 16.0.0, SVG Export Plug-In . SVG Version: 6.00 Build 0)  -->
<!DOCTYPE svg PUBLIC "-//W3C//DTD SVG 1.1//EN" "http://www.w3.org/Graphics/SVG/1.1/DTD/svg11.dtd">
<svg version="1.1" id="Layer" xmlns="http://www.w3.org/2000/svg" xmlns:xlink="http://www.w3.org/1999/xlink" x="0px" y="0px"
	 width="24px" height="24px" viewBox="0 0 24 24" style="enable-background:new 0 0 24 24;" xml:space="preserve">
<path style="fill:#231F20;" d="M21.096,15.23c-1.062-0.141-2.105-0.399-3.108-0.773c-0.808-0.305-1.719-0.108-2.334,0.496
	l-1.404,1.404c-2.77-1.574-5.062-3.86-6.637-6.625L9.018,8.33C9.625,7.717,9.82,6.809,9.516,6.002
	C9.141,4.997,8.882,3.958,8.742,2.898C8.585,1.803,7.639,0.989,6.528,1H3.211C3.145,1,3.079,1.004,3.014,1.011
	C1.796,1.118,0.899,2.191,1.009,3.406c0.363,3.415,1.527,6.692,3.396,9.568c1.699,2.671,3.964,4.93,6.637,6.625
	c2.874,1.861,6.14,3.021,9.545,3.389C20.656,22.997,20.726,23,20.796,23c1.222-0.006,2.207-1.002,2.204-2.22v-3.31
	C23.026,16.35,22.207,15.385,21.096,15.23z M21.625,20.78c0.001,0.463-0.372,0.839-0.831,0.845l-0.032-0.001
	c-3.203-0.347-6.296-1.444-8.973-3.178c-2.499-1.587-4.648-3.731-6.224-6.21C3.814,9.543,2.715,6.442,2.377,3.262
	c-0.018-0.2,0.049-0.415,0.191-0.586C2.71,2.505,2.912,2.4,3.135,2.381l3.394-0.006c0.437,0,0.793,0.309,0.853,0.719
	c0.152,1.146,0.437,2.29,0.847,3.389c0.115,0.307,0.042,0.65-0.187,0.881L6.642,8.759C6.203,9.196,6.11,9.874,6.418,10.413
	c1.695,2.976,4.168,5.444,7.151,7.14c0.213,0.12,0.447,0.18,0.679,0.18c0.356,0,0.708-0.139,0.973-0.403l1.404-1.404
	c0.151-0.147,0.361-0.235,0.584-0.235c0.1,0,0.198,0.02,0.292,0.054c1.102,0.41,2.248,0.696,3.413,0.851
	c0.412,0.058,0.72,0.42,0.711,0.845L21.625,20.78z"/>
</svg>
