<?xml version="1.0" encoding="iso-8859-1"?>
<!-- Generator: Adobe Illustrator 16.0.0, SVG Export Plug-In . SVG Version: 6.00 Build 0)  -->
<!DOCTYPE svg PUBLIC "-//W3C//DTD SVG 1.1//EN" "http://www.w3.org/Graphics/SVG/1.1/DTD/svg11.dtd">
<svg version="1.1" id="Layer" xmlns="http://www.w3.org/2000/svg" xmlns:xlink="http://www.w3.org/1999/xlink" x="0px" y="0px"
	 width="16px" height="16px" viewBox="0 0 16 16" style="enable-background:new 0 0 16 16;" xml:space="preserve">
<path style="fill:#231F20;" d="M13.888,5.128c-0.075-0.146-0.183-0.268-0.311-0.357c-0.164-0.116-0.361-0.182-0.569-0.182h-0.809
	c-0.178,0-0.346,0.031-0.497,0.08L7.806,1.921C7.798,1.763,7.771,1.593,7.71,1.423L7.434,0.658c-0.071-0.196-0.2-0.361-0.363-0.478
	c-0.129-0.09-0.279-0.15-0.44-0.172C6.263-0.04,5.899,0.121,5.687,0.427L2.84,4.522C2.627,4.828,2.601,5.228,2.772,5.558
	c0.075,0.146,0.183,0.268,0.312,0.357c0.164,0.116,0.362,0.182,0.569,0.182h0.808c0.179,0,0.346-0.031,0.498-0.08L5.687,6.53
	L0.18,14.428c-0.212,0.305-0.238,0.704-0.067,1.035c0.075,0.145,0.183,0.266,0.311,0.357c0.164,0.115,0.361,0.181,0.569,0.18H1.8
	c0.606,0.001,1.095-0.257,1.459-0.771l4.867-6.978l0.728,0.514C8.862,8.923,8.889,9.093,8.95,9.264l0.276,0.765
	c0.071,0.196,0.2,0.361,0.364,0.478c0.128,0.09,0.278,0.15,0.44,0.172c0.366,0.049,0.73-0.113,0.943-0.418l2.847-4.097
	C14.033,5.856,14.059,5.458,13.888,5.128z M10.16,9.686L9.883,8.92c-0.1-0.275,0.032-0.628,0.032-0.628L7.882,6.858l-5.437,7.796
	c-0.168,0.238-0.354,0.347-0.645,0.347H0.993l6.076-8.717L5.036,4.851c0,0-0.283,0.246-0.575,0.246H3.653L6.5,1.001l0.277,0.765
	c0.099,0.275-0.033,0.628-0.033,0.628l4.88,3.441c0,0,0.284-0.246,0.575-0.246h0.808L10.16,9.686z M7.9,16l0.467-0.667
	C8.535,15.093,8.73,15.001,9.023,15h5.854c0.293,0.001,0.488,0.093,0.656,0.333L16,16H7.9z"/>
</svg>
