<?xml version="1.0" encoding="iso-8859-1"?>
<!-- Generator: Adobe Illustrator 16.0.0, SVG Export Plug-In . SVG Version: 6.00 Build 0)  -->
<!DOCTYPE svg PUBLIC "-//W3C//DTD SVG 1.1//EN" "http://www.w3.org/Graphics/SVG/1.1/DTD/svg11.dtd">
<svg version="1.1" id="Layer" xmlns="http://www.w3.org/2000/svg" xmlns:xlink="http://www.w3.org/1999/xlink" x="0px" y="0px"
	 width="24px" height="24px" viewBox="0 0 24 24" style="enable-background:new 0 0 24 24;" xml:space="preserve">
<path style="fill:#231F20;" d="M20.096,8.051c-0.103-0.201-0.251-0.368-0.428-0.491c-0.225-0.16-0.497-0.25-0.783-0.25h-1.112
	c-0.245,0-0.476,0.043-0.683,0.11l-5.357-3.779c-0.01-0.217-0.047-0.451-0.132-0.685l-0.38-1.051
	c-0.098-0.271-0.275-0.497-0.5-0.657c-0.177-0.123-0.384-0.207-0.605-0.236C9.612,0.944,9.112,1.166,8.819,1.587L4.905,7.219
	c-0.293,0.42-0.329,0.969-0.093,1.423c0.103,0.2,0.251,0.368,0.428,0.491c0.226,0.16,0.498,0.25,0.783,0.25h1.111
	c0.246,0,0.475-0.043,0.684-0.11l1.001,0.707L1.247,20.838c-0.292,0.419-0.328,0.969-0.092,1.424
	c0.103,0.198,0.251,0.365,0.428,0.491C1.808,22.911,2.08,23.002,2.365,23h1.11c0.833,0.002,1.505-0.353,2.006-1.061l6.692-9.595
	l1.001,0.707c0.01,0.217,0.047,0.451,0.132,0.686l0.38,1.052c0.097,0.27,0.274,0.497,0.5,0.656c0.176,0.124,0.383,0.207,0.606,0.236
	c0.503,0.067,1.003-0.155,1.296-0.574l3.915-5.633C20.295,9.053,20.331,8.505,20.096,8.051z M14.97,14.317l-0.381-1.053
	c-0.137-0.379,0.044-0.863,0.044-0.863l-2.795-1.971L4.363,21.149c-0.231,0.328-0.487,0.478-0.887,0.478H2.365L10.72,9.641
	L7.924,7.67c0,0-0.389,0.338-0.79,0.338H6.023l3.915-5.632l0.381,1.052c0.136,0.379-0.046,0.863-0.046,0.863l6.71,4.732
	c0,0,0.39-0.339,0.791-0.339h1.111L14.97,14.317z M11.863,23l0.642-0.917c0.231-0.33,0.5-0.456,0.902-0.458h8.049
	c0.403,0.002,0.671,0.128,0.902,0.458L23,23H11.863z"/>
</svg>
