<?xml version="1.0" encoding="iso-8859-1"?>
<!-- Generator: Adobe Illustrator 16.0.0, SVG Export Plug-In . SVG Version: 6.00 Build 0)  -->
<!DOCTYPE svg PUBLIC "-//W3C//DTD SVG 1.1//EN" "http://www.w3.org/Graphics/SVG/1.1/DTD/svg11.dtd">
<svg version="1.1" id="Layer_2" xmlns="http://www.w3.org/2000/svg" xmlns:xlink="http://www.w3.org/1999/xlink" x="0px" y="0px"
	 width="16px" height="16px" viewBox="0 0 16 16" style="enable-background:new 0 0 16 16;" xml:space="preserve">
<path style="fill:#231F20;" d="M4.999,9.603c0,1.373-1.122,2.49-2.5,2.49l0,0C1.121,12.093,0,10.976,0,9.603V8l0.653,0.44
	c0.239,0.168,0.346,0.372,0.346,0.663v0.499c0,0.824,0.673,1.494,1.5,1.494l0,0c0.826,0,1.5-0.67,1.5-1.494V9.104
	c0-0.291,0.106-0.495,0.346-0.663L4.999,8C5.007,8.035,4.999,9.603,4.999,9.603z M15.996,9.603c0,1.373-1.125,2.49-2.503,2.49l0,0
	c-1.377,0-2.496-1.117-2.496-2.49c0,0-0.008-1.567,0-1.603l0.649,0.44c0.24,0.168,0.35,0.372,0.35,0.663v0.499
	c0,0.824,0.669,1.494,1.496,1.494l0,0c0.827,0,1.503-0.67,1.503-1.494V9.104c0-0.291,0.104-0.495,0.343-0.663L15.996,8
	C16.004,8.035,15.996,9.603,15.996,9.603z M13.993,4.514C13.993,3.14,12.861,2,11.484,2H8.496V1L7.829,1.465
	C7.62,1.61,7.538,1.767,7.516,2H4.487C3.108,2,1.999,3.14,1.999,4.514c0,0-0.008,1.458,0,1.494l0.642-0.44
	C2.88,5.399,2.987,5.195,2.987,4.903v-0.39C2.987,3.689,3.66,3,4.487,3h3.008v11L5.12,14.004c-0.292,0-0.487,0.091-0.656,0.331
	L3.998,15h7.996l-0.474-0.72C11.353,14.04,11.157,14,10.865,14h-2.37V3h2.988c0.827,0,1.5,0.689,1.5,1.514l0.021,0.39
	c0,0.292,0.107,0.496,0.347,0.664l0.642,0.44C14.001,5.972,13.993,4.514,13.993,4.514z"/>
</svg>
