<?xml version="1.0" encoding="iso-8859-1"?>
<!-- Generator: Adobe Illustrator 16.0.0, SVG Export Plug-In . SVG Version: 6.00 Build 0)  -->
<!DOCTYPE svg PUBLIC "-//W3C//DTD SVG 1.1//EN" "http://www.w3.org/Graphics/SVG/1.1/DTD/svg11.dtd">
<svg version="1.1" id="Layer_2" xmlns="http://www.w3.org/2000/svg" xmlns:xlink="http://www.w3.org/1999/xlink" x="0px" y="0px"
	 width="24px" height="24px" viewBox="0 0 24 24" style="enable-background:new 0 0 24 24;" xml:space="preserve">
<path style="fill:#231F20;" d="M7.873,14.203c0,1.889-1.543,3.425-3.437,3.425l0,0C2.542,17.628,1,16.092,1,14.203V12l0.897,0.605
	c0.329,0.231,0.476,0.512,0.476,0.912v0.686c0,1.134,0.925,2.055,2.062,2.055l0,0c1.136,0,2.062-0.921,2.062-2.055v-0.686
	c0-0.4,0.146-0.681,0.476-0.912L7.873,12C7.884,12.049,7.873,14.203,7.873,14.203z M22.995,14.203c0,1.889-1.546,3.425-3.441,3.425
	l0,0c-1.894,0-3.432-1.536-3.432-3.425c0,0-0.011-2.154,0-2.203l0.893,0.605c0.33,0.231,0.481,0.512,0.481,0.912v0.686
	c0,1.134,0.92,2.055,2.057,2.055l0,0c1.137,0,2.067-0.921,2.067-2.055v-0.686c0-0.4,0.143-0.681,0.471-0.912L22.995,12
	C23.006,12.049,22.995,14.203,22.995,14.203z M20.241,7.206c0-1.889-1.557-3.456-3.45-3.456h-4.109V2.375l-0.917,0.639
	c-0.288,0.2-0.401,0.415-0.431,0.736H7.17c-1.896,0-3.421,1.567-3.421,3.456c0,0-0.011,2.005,0,2.055l0.882-0.605
	C4.96,8.424,5.107,8.144,5.107,7.742V7.206c0-1.133,0.925-2.081,2.062-2.081h4.137V20.25L8.04,20.256
	c-0.401,0-0.67,0.124-0.902,0.455l-0.641,0.914h10.995l-0.651-0.989c-0.231-0.331-0.5-0.386-0.901-0.386h-3.258V5.125h4.109
	c1.137,0,2.062,0.948,2.062,2.081l0.029,0.536c0,0.401,0.147,0.682,0.477,0.913l0.882,0.605C20.251,9.211,20.241,7.206,20.241,7.206
	z"/>
</svg>
