<?xml version="1.0" encoding="iso-8859-1"?>
<!-- Generator: Adobe Illustrator 16.0.0, SVG Export Plug-In . SVG Version: 6.00 Build 0)  -->
<!DOCTYPE svg PUBLIC "-//W3C//DTD SVG 1.1//EN" "http://www.w3.org/Graphics/SVG/1.1/DTD/svg11.dtd">
<svg version="1.1" id="Layer_3" xmlns="http://www.w3.org/2000/svg" xmlns:xlink="http://www.w3.org/1999/xlink" x="0px" y="0px"
	 width="16px" height="16px" viewBox="0 0 16 16" style="enable-background:new 0 0 16 16;" xml:space="preserve">
<path style="fill:#231F20;" d="M13,5.269C13,2.636,10.761,0.5,8,0.5S3,2.636,3,5.269c0,1.496,0.738,2.815,1.87,3.69
	c-0.009,0.025-0.877,6-0.877,6c-0.026,0.181,0.059,0.358,0.218,0.46C4.293,15.473,4.39,15.5,4.487,15.5
	c0.087,0,0.174-0.022,0.251-0.065L8,13.624l3.261,1.811c0.164,0.093,0.371,0.087,0.529-0.016c0.159-0.102,0.244-0.279,0.218-0.46
	c0,0-0.868-5.978-0.875-6.001C12.263,8.083,13,6.764,13,5.269z M8.485,12.75C8.334,12.666,8.167,12.624,8,12.624
	s-0.334,0.042-0.485,0.126l-2.384,1.323c0.238-1.636,0.681-4.676,0.722-4.935C5.919,8.775,5.78,8.399,5.481,8.168
	C4.54,7.439,4,6.383,4,5.269C4,3.19,5.794,1.5,8,1.5c2.206,0,4,1.69,4,3.769c0,1.114-0.54,2.171-1.48,2.898
	c-0.296,0.229-0.437,0.603-0.373,0.965c0.038,0.242,0.482,3.298,0.721,4.941L8.485,12.75z"/>
</svg>
