<?xml version="1.0" encoding="iso-8859-1"?>
<!-- Generator: Adobe Illustrator 16.0.0, SVG Export Plug-In . SVG Version: 6.00 Build 0)  -->
<!DOCTYPE svg PUBLIC "-//W3C//DTD SVG 1.1//EN" "http://www.w3.org/Graphics/SVG/1.1/DTD/svg11.dtd">
<svg version="1.1" id="Layer_3" xmlns="http://www.w3.org/2000/svg" xmlns:xlink="http://www.w3.org/1999/xlink" x="0px" y="0px"
	 width="24px" height="24px" viewBox="0 0 24 24" style="enable-background:new 0 0 24 24;" xml:space="preserve">
<path style="fill:#231F20;" d="M19.333,7.994C19.333,4.133,16.05,1,12,1S4.666,4.133,4.666,7.994c0,2.194,1.083,4.129,2.742,5.412
	c-0.013,0.037-1.287,8.8-1.287,8.8c-0.038,0.266,0.086,0.526,0.319,0.675C6.563,22.96,6.706,23,6.848,23
	c0.127,0,0.255-0.033,0.369-0.096L12,20.248l4.782,2.656c0.241,0.136,0.544,0.127,0.776-0.023c0.233-0.148,0.357-0.409,0.319-0.675
	c0,0-1.273-8.767-1.284-8.801C18.252,12.122,19.333,10.187,19.333,7.994z M12.712,18.967c-0.221-0.123-0.467-0.185-0.712-0.185
	c-0.245,0-0.49,0.062-0.712,0.185l-3.496,1.94c0.35-2.399,0.999-6.857,1.059-7.237c0.098-0.533-0.107-1.084-0.545-1.424
	c-1.381-1.068-2.173-2.618-2.173-4.252c0-3.048,2.632-5.527,5.867-5.527c3.235,0,5.867,2.479,5.867,5.527
	c0,1.634-0.792,3.184-2.17,4.251c-0.435,0.336-0.641,0.884-0.546,1.415c0.055,0.355,0.708,4.837,1.058,7.247L12.712,18.967z"/>
</svg>
