<?xml version="1.0" encoding="utf-8"?>
<!-- Generator: Adobe Illustrator 16.0.0, SVG Export Plug-In . SVG Version: 6.00 Build 0)  -->
<!DOCTYPE svg PUBLIC "-//W3C//DTD SVG 1.1//EN" "http://www.w3.org/Graphics/SVG/1.1/DTD/svg11.dtd">
<svg version="1.1" id="Layer" xmlns="http://www.w3.org/2000/svg" xmlns:xlink="http://www.w3.org/1999/xlink" x="0px" y="0px"
	 width="16px" height="16px" viewBox="0 0 16 16" enable-background="new 0 0 16 16" xml:space="preserve">
<path fill="#231F20" d="M8.5,7.5v4.541c-0.002,0.293-0.094,0.488-0.334,0.656L7.5,13.164V8.623C7.501,8.33,7.593,8.135,7.833,7.967
	L8.5,7.5z M14,0H2C1.448,0,1,0.447,1,1v1.286c0,0.446,0.296,0.839,0.725,0.962l4.09,1.168C3.583,5.291,2,7.459,2,10
	c0,3.312,2.685,6,6,6s6-2.688,6-6c0-2.541-1.583-4.709-3.815-5.584l4.09-1.168C14.704,3.125,15,2.732,15,2.286V1
	C15,0.447,14.552,0,14,0z M13,10c0,2.758-2.243,5-5,5s-5-2.242-5-5s2.243-5,5-5S13,7.242,13,10z M14,2.286L8,4L2,2.286V1h12V2.286z"
	/>
</svg>
