<?xml version="1.0" encoding="iso-8859-1"?>
<!-- Generator: Adobe Illustrator 16.0.0, SVG Export Plug-In . SVG Version: 6.00 Build 0)  -->
<!DOCTYPE svg PUBLIC "-//W3C//DTD SVG 1.1//EN" "http://www.w3.org/Graphics/SVG/1.1/DTD/svg11.dtd">
<svg version="1.1" id="Layer" xmlns="http://www.w3.org/2000/svg" xmlns:xlink="http://www.w3.org/1999/xlink" x="0px" y="0px"
	 width="24px" height="24px" viewBox="0 0 24 24" style="enable-background:new 0 0 24 24;" xml:space="preserve">
<path style="fill:#231F20;" d="M12.688,11.312v6.244c-0.003,0.402-0.129,0.671-0.459,0.902l-0.916,0.642v-6.244
	c0.001-0.402,0.127-0.671,0.458-0.902L12.688,11.312z M20.25,1H3.75C2.991,1,2.375,1.615,2.375,2.375v1.769
	c0,0.613,0.407,1.153,0.997,1.322l5.624,1.606C5.926,8.275,3.75,11.256,3.75,14.75C3.75,19.305,7.442,23,12,23s8.25-3.695,8.25-8.25
	c0-3.494-2.176-6.475-5.246-7.678l5.624-1.606c0.59-0.169,0.997-0.709,0.997-1.322V2.375C21.625,1.615,21.009,1,20.25,1z
	 M18.875,14.75c0,3.792-3.083,6.875-6.875,6.875s-6.875-3.083-6.875-6.875S8.208,7.875,12,7.875S18.875,10.958,18.875,14.75z
	 M20.25,4.144L12,6.5L3.75,4.144V2.375h16.5V4.144z"/>
</svg>
