<?xml version="1.0" encoding="iso-8859-1"?>
<!-- Generator: Adobe Illustrator 16.0.0, SVG Export Plug-In . SVG Version: 6.00 Build 0)  -->
<!DOCTYPE svg PUBLIC "-//W3C//DTD SVG 1.1//EN" "http://www.w3.org/Graphics/SVG/1.1/DTD/svg11.dtd">
<svg version="1.1" id="Layer" xmlns="http://www.w3.org/2000/svg" xmlns:xlink="http://www.w3.org/1999/xlink" x="0px" y="0px"
	 width="16px" height="16px" viewBox="0 0 16 16" style="enable-background:new 0 0 16 16;" xml:space="preserve">
<path style="fill:#231F20;" d="M11.207,14.038c-0.418-0.4-0.86-0.674-1.529-0.944c-0.58-0.236-0.884-0.419-1.039-0.822
	c-0.006-0.016-0.007-0.04-0.014-0.057H9.03c0.372,0,0.712-0.205,0.885-0.533c0.171-0.325,0.15-0.719-0.052-1.023
	c2.133-1.035,3.338-3.255,3.108-5.852C12.78,2.63,11.398,0.831,9.454,0.225C8.978,0.075,8.484,0,7.986,0
	C6.439,0,4.965,0.746,4.038,1.996c-1.047,1.419-1.321,3.361-0.733,5.2c0.493,1.536,1.522,2.795,2.818,3.482
	c-0.189,0.299-0.207,0.678-0.042,0.995c0.171,0.332,0.514,0.541,0.888,0.541h0.637c0.03,0.146,0.056,0.297,0.103,0.419
	c0.312,0.809,0.959,1.129,1.595,1.387c0.458,0.187,0.84,0.385,1.213,0.741c0.369,0.354,0.468,0.547,0.772,1.238l0.446-0.682
	c0.101-0.156,0.186-0.345,0.1-0.463C11.676,14.579,11.486,14.306,11.207,14.038z M6.968,11.214l0.493-1.029l-0.377-0.171
	C5.785,9.538,4.734,8.382,4.257,6.89c-0.49-1.532-0.271-3.138,0.585-4.298c0.738-0.996,1.914-1.59,3.145-1.59
	c0.395,0,0.788,0.06,1.168,0.179c1.558,0.485,2.665,1.944,2.821,3.714c0.214,2.427-0.984,4.4-3.125,5.119l-0.423,0.171l0.603,1.029
	H6.968z M10.64,5.713c-0.276,0-0.5-0.225-0.5-0.501c0-0.834-0.584-1.594-0.77-1.682C9.142,3.466,8.913,3.313,8.913,3.038
	c0-0.277,0.267-0.494,0.543-0.494c0.771,0,1.684,1.446,1.684,2.668C11.141,5.488,10.917,5.713,10.64,5.713z"/>
</svg>
