<?xml version="1.0" encoding="iso-8859-1"?>
<!-- Generator: Adobe Illustrator 16.0.0, SVG Export Plug-In . SVG Version: 6.00 Build 0)  -->
<!DOCTYPE svg PUBLIC "-//W3C//DTD SVG 1.1//EN" "http://www.w3.org/Graphics/SVG/1.1/DTD/svg11.dtd">
<svg version="1.1" id="Layer" xmlns="http://www.w3.org/2000/svg" xmlns:xlink="http://www.w3.org/1999/xlink" x="0px" y="0px"
	 width="24px" height="24px" viewBox="0 0 24 24" style="enable-background:new 0 0 24 24;" xml:space="preserve">
<path style="fill:#231F20;" d="M16.41,20.303c-0.575-0.551-1.184-0.927-2.103-1.299c-0.797-0.325-1.216-0.576-1.428-1.131
	c-0.008-0.021-0.01-0.055-0.019-0.078h0.556c0.511,0,0.979-0.281,1.217-0.732c0.235-0.447,0.207-0.988-0.07-1.407
	c2.933-1.424,4.59-4.476,4.272-8.046c-0.263-2.993-2.163-5.467-4.837-6.301C13.345,1.104,12.666,1,11.981,1
	c-2.127,0-4.154,1.025-5.43,2.744c-1.439,1.951-1.816,4.622-1.008,7.15c0.677,2.112,2.093,3.844,3.874,4.789
	c-0.26,0.41-0.284,0.932-0.059,1.368c0.235,0.456,0.707,0.743,1.222,0.743h0.875c0.042,0.2,0.077,0.408,0.142,0.576
	c0.428,1.112,1.319,1.553,2.193,1.907c0.63,0.257,1.154,0.529,1.668,1.019c0.507,0.486,0.643,0.752,1.062,1.703l0.612-0.938
	c0.14-0.215,0.256-0.474,0.138-0.637C17.055,21.046,16.794,20.67,16.41,20.303z M10.581,16.419l0.678-1.415l-0.518-0.235
	c-1.786-0.653-3.231-2.243-3.888-4.295C6.18,8.366,6.48,6.159,7.658,4.563c1.015-1.369,2.631-2.186,4.323-2.186
	c0.543,0,1.084,0.082,1.606,0.245c2.143,0.668,3.664,2.674,3.879,5.107c0.294,3.336-1.353,6.05-4.297,7.038l-0.582,0.235
	l0.829,1.415H10.581z M15.631,8.855c-0.38,0-0.688-0.309-0.688-0.689c0-1.146-0.804-2.191-1.059-2.312
	c-0.314-0.089-0.629-0.299-0.629-0.677c0-0.382,0.367-0.68,0.747-0.68c1.061,0,2.315,1.988,2.315,3.668
	C16.318,8.547,16.011,8.855,15.631,8.855z"/>
</svg>
