<?xml version="1.0" encoding="iso-8859-1"?>
<!-- Generator: Adobe Illustrator 16.0.0, SVG Export Plug-In . SVG Version: 6.00 Build 0)  -->
<!DOCTYPE svg PUBLIC "-//W3C//DTD SVG 1.1//EN" "http://www.w3.org/Graphics/SVG/1.1/DTD/svg11.dtd">
<svg version="1.1" id="Layer_copy" xmlns="http://www.w3.org/2000/svg" xmlns:xlink="http://www.w3.org/1999/xlink" x="0px" y="0px"
	 width="24px" height="24px" viewBox="0 0 24 24" style="enable-background:new 0 0 24 24;" xml:space="preserve">
<path style="fill:#231F20;" d="M12,1C5.935,1,1,5.935,1,12s4.935,11,11,11s11-4.935,11-11S18.065,1,12,1z M12,2.375
	c2.41,0,4.608,0.893,6.296,2.356L15.84,7.188C14.782,6.34,13.458,5.812,12,5.812S9.218,6.34,8.16,7.188L5.704,4.731
	C7.392,3.267,9.59,2.375,12,2.375z M12,16.812c-2.653,0-4.812-2.158-4.812-4.812S9.347,7.188,12,7.188S16.812,9.346,16.812,12
	S14.653,16.812,12,16.812z M2.375,12c0-2.41,0.892-4.608,2.356-6.296L7.188,8.16C6.34,9.218,5.812,10.542,5.812,12
	s0.528,2.782,1.375,3.84l-2.456,2.456C3.267,16.608,2.375,14.41,2.375,12z M12,21.625c-2.41,0-4.608-0.892-6.296-2.356l2.456-2.456
	c1.058,0.848,2.382,1.375,3.84,1.375s2.782-0.527,3.84-1.375l2.456,2.456C16.608,20.732,14.41,21.625,12,21.625z M19.269,18.296
	l-2.456-2.456c0.847-1.058,1.375-2.382,1.375-3.84s-0.528-2.782-1.375-3.84l2.456-2.456C20.733,7.393,21.625,9.59,21.625,12
	S20.733,16.607,19.269,18.296z"/>
</svg>
