<?xml version="1.0" encoding="utf-8"?>
<!-- Generator: Adobe Illustrator 16.0.0, SVG Export Plug-In . SVG Version: 6.00 Build 0)  -->
<!DOCTYPE svg PUBLIC "-//W3C//DTD SVG 1.1//EN" "http://www.w3.org/Graphics/SVG/1.1/DTD/svg11.dtd">
<svg version="1.1" id="Layer_copy" xmlns="http://www.w3.org/2000/svg" xmlns:xlink="http://www.w3.org/1999/xlink" x="0px" y="0px"
	 width="16px" height="16px" viewBox="0 0 16 16" enable-background="new 0 0 16 16" xml:space="preserve">
<path fill="#231F20" d="M8,0C3.589,0,0,3.589,0,8s3.589,8,8,8s8-3.589,8-8S12.411,0,8,0z M8,1c1.753,0,3.351,0.649,4.579,1.714
	L10.793,4.5c-0.77-0.616-1.732-1-2.793-1s-2.023,0.384-2.793,1L3.421,2.714C4.649,1.648,6.247,1,8,1z M8,11.5
	c-1.93,0-3.5-1.569-3.5-3.5S6.07,4.5,8,4.5s3.5,1.569,3.5,3.5S9.93,11.5,8,11.5z M1,8c0-1.753,0.649-3.352,1.714-4.579L4.5,5.207
	c-0.616,0.77-1,1.732-1,2.793s0.384,2.023,1,2.793l-1.786,1.786C1.649,11.352,1,9.753,1,8z M8,15c-1.753,0-3.351-0.648-4.579-1.714
	L5.207,11.5c0.77,0.616,1.732,1,2.793,1s2.023-0.384,2.793-1l1.786,1.786C11.351,14.351,9.753,15,8,15z M13.286,12.579L11.5,10.793
	c0.616-0.77,1-1.732,1-2.793s-0.384-2.023-1-2.793l1.786-1.786C14.351,4.649,15,6.247,15,8S14.351,11.351,13.286,12.579z"/>
</svg>
