<?xml version="1.0" encoding="utf-8"?>
<!-- Generator: Adobe Illustrator 16.0.0, SVG Export Plug-In . SVG Version: 6.00 Build 0)  -->
<!DOCTYPE svg PUBLIC "-//W3C//DTD SVG 1.1//EN" "http://www.w3.org/Graphics/SVG/1.1/DTD/svg11.dtd">
<svg version="1.1" id="Layer" xmlns="http://www.w3.org/2000/svg" xmlns:xlink="http://www.w3.org/1999/xlink" x="0px" y="0px"
	 width="16px" height="16px" viewBox="0 0 16 16" enable-background="new 0 0 16 16" xml:space="preserve">
<path fill="#231F20" d="M8,0C3.589,0,0,3.589,0,8s3.589,8,8,8s8-3.589,8-8S12.411,0,8,0z M6,8c0-1.103,0.897-2,2-2s2,0.897,2,2
	s-0.897,2-2,2S6,9.103,6,8z M12.579,2.714L9.734,5.559C9.244,5.21,8.648,5,8,5S6.756,5.21,6.266,5.559L3.421,2.714
	C4.649,1.648,6.247,1,8,1S11.351,1.649,12.579,2.714z M1,8c0-1.753,0.649-3.352,1.714-4.579l2.845,2.845C5.21,6.756,5,7.352,5,8
	s0.21,1.244,0.559,1.734l-2.845,2.845C1.649,11.352,1,9.753,1,8z M3.421,13.286l2.845-2.845C6.756,10.79,7.352,11,8,11
	s1.244-0.21,1.734-0.559l2.845,2.845C11.351,14.351,9.753,15,8,15S4.649,14.352,3.421,13.286z M13.286,12.579l-2.845-2.845
	C10.79,9.244,11,8.648,11,8s-0.21-1.244-0.559-1.734l2.845-2.845C14.351,4.649,15,6.247,15,8S14.351,11.351,13.286,12.579z"/>
</svg>
