<?xml version="1.0" encoding="iso-8859-1"?>
<!-- Generator: Adobe Illustrator 16.0.0, SVG Export Plug-In . SVG Version: 6.00 Build 0)  -->
<!DOCTYPE svg PUBLIC "-//W3C//DTD SVG 1.1//EN" "http://www.w3.org/Graphics/SVG/1.1/DTD/svg11.dtd">
<svg version="1.1" id="Layer_3" xmlns="http://www.w3.org/2000/svg" xmlns:xlink="http://www.w3.org/1999/xlink" x="0px" y="0px"
	 width="16px" height="16px" viewBox="0 0 16 16" style="enable-background:new 0 0 16 16;" xml:space="preserve">
<path style="fill:#231F20;" d="M15.5,7.5h-1.165c-0.292,0.001-0.497,0.107-0.665,0.348l-0.452,0.646
	C13.229,8.494,13.238,8.5,13.25,8.5h1.73c-0.263,3.198-3.031,5.75-6.479,5.978V5.199c0-0.019-0.009-0.035-0.011-0.053
	C9.496,4.938,10.25,4.103,10.25,3.1C10.25,1.939,9.242,1,8,1C6.758,1,5.75,1.939,5.75,3.1c0,1.003,0.755,1.838,1.762,2.047
	C7.509,5.164,7.5,5.181,7.5,5.199v9.278C4.052,14.25,1.284,11.698,1.021,8.5h0.676c0.292-0.001,0.497-0.107,0.665-0.348L2.81,7.512
	C2.789,7.51,2.771,7.5,2.75,7.5H0.5C0.224,7.5,0,7.724,0,8c0,4.136,3.589,7.5,8,7.5c4.411,0,8-3.364,8-7.5
	C16,7.724,15.776,7.5,15.5,7.5z M6.75,3.1C6.75,2.493,7.311,2,8,2C8.69,2,9.25,2.493,9.25,3.1S8.69,4.199,8,4.199
	C7.311,4.199,6.75,3.706,6.75,3.1z"/>
</svg>
