<?xml version="1.0" encoding="iso-8859-1"?>
<!-- Generator: Adobe Illustrator 16.0.0, SVG Export Plug-In . SVG Version: 6.00 Build 0)  -->
<!DOCTYPE svg PUBLIC "-//W3C//DTD SVG 1.1//EN" "http://www.w3.org/Graphics/SVG/1.1/DTD/svg11.dtd">
<svg version="1.1" id="Layer_3" xmlns="http://www.w3.org/2000/svg" xmlns:xlink="http://www.w3.org/1999/xlink" x="0px" y="0px"
	 width="24px" height="24px" viewBox="0 0 24 24" style="enable-background:new 0 0 24 24;" xml:space="preserve">
<path style="fill:#231F20;" d="M22.312,10.969H20.71c-0.401,0.001-0.683,0.147-0.915,0.479l-0.622,0.887
	c0.016,0.002,0.028,0.01,0.044,0.01h2.378c-0.362,4.397-4.167,7.906-8.909,8.219V7.805c0-0.025-0.012-0.048-0.015-0.072
	c1.384-0.287,2.421-1.436,2.421-2.814c0-1.595-1.386-2.887-3.094-2.887c-1.708,0-3.095,1.292-3.095,2.887
	c0,1.379,1.038,2.527,2.422,2.814c-0.003,0.024-0.015,0.047-0.015,0.072v12.758c-4.742-0.312-8.548-3.821-8.91-8.219h0.929
	c0.401-0.001,0.683-0.147,0.915-0.479l0.616-0.881c-0.028-0.002-0.053-0.016-0.082-0.016H1.688C1.308,10.969,1,11.276,1,11.656
	c0,5.687,4.935,10.312,11,10.312c6.065,0,11-4.626,11-10.312C23,11.276,22.692,10.969,22.312,10.969z M10.281,4.918
	c0-0.834,0.771-1.512,1.72-1.512c0.948,0,1.719,0.678,1.719,1.512S12.949,6.43,12,6.43C11.052,6.43,10.281,5.752,10.281,4.918z"/>
</svg>
