<?xml version="1.0" encoding="iso-8859-1"?>
<!-- Generator: Adobe Illustrator 16.0.0, SVG Export Plug-In . SVG Version: 6.00 Build 0)  -->
<!DOCTYPE svg PUBLIC "-//W3C//DTD SVG 1.1//EN" "http://www.w3.org/Graphics/SVG/1.1/DTD/svg11.dtd">
<svg version="1.1" id="Layer" xmlns="http://www.w3.org/2000/svg" xmlns:xlink="http://www.w3.org/1999/xlink" x="0px" y="0px"
	 width="16px" height="16px" viewBox="0 0 16 16" style="enable-background:new 0 0 16 16;" xml:space="preserve">
<path style="fill:#231F20;" d="M14.4,4h-2.9V3.07C11.5,1.911,10.562,1,9.409,1H6.591C5.438,1,4.5,1.911,4.5,3.07V4H1.6
	C0.716,4,0,4.703,0,5.573v7.857C0,14.297,0.716,15,1.6,15H14.4c0.884,0,1.6-0.703,1.6-1.569V5.573C16,4.703,15.284,4,14.4,4z
	 M5.5,3.07C5.5,2.463,5.99,2,6.591,2h2.817C10.01,2,10.5,2.463,10.5,3.07V4h-5V3.07z M15,13.431C15,13.744,14.731,14,14.4,14H1.6
	C1.269,14,1,13.744,1,13.431V5.573C1,5.257,1.269,5,1.6,5H14.4C14.731,5,15,5.257,15,5.573V13.431z"/>
</svg>
