<?xml version="1.0" encoding="iso-8859-1"?>
<!-- Generator: Adobe Illustrator 16.0.0, SVG Export Plug-In . SVG Version: 6.00 Build 0)  -->
<!DOCTYPE svg PUBLIC "-//W3C//DTD SVG 1.1//EN" "http://www.w3.org/Graphics/SVG/1.1/DTD/svg11.dtd">
<svg version="1.1" id="Layer" xmlns="http://www.w3.org/2000/svg" xmlns:xlink="http://www.w3.org/1999/xlink" x="0px" y="0px"
	 width="24px" height="24px" viewBox="0 0 24 24" style="enable-background:new 0 0 24 24;" xml:space="preserve">
<path style="fill:#231F20;" d="M20.801,6.5h-3.988V5.222c0-1.594-1.29-2.847-2.875-2.847h-3.874c-1.586,0-2.875,1.253-2.875,2.847
	V6.5H3.199C1.984,6.5,1,7.467,1,8.663v10.804c0,1.191,0.984,2.158,2.199,2.158h17.602c1.215,0,2.199-0.967,2.199-2.158V8.663
	C23,7.467,22.016,6.5,20.801,6.5z M8.562,5.222c0-0.835,0.673-1.472,1.5-1.472h3.874c0.827,0,1.5,0.637,1.5,1.472V6.5H8.562V5.222z
	 M21.625,19.467c0,0.432-0.37,0.783-0.824,0.783H3.199c-0.454,0-0.824-0.352-0.824-0.783V8.663c0-0.435,0.37-0.788,0.824-0.788
	h17.602c0.454,0,0.824,0.354,0.824,0.788V19.467z"/>
</svg>
