<?xml version="1.0" encoding="utf-8"?>
<!-- Generator: Adobe Illustrator 16.0.0, SVG Export Plug-In . SVG Version: 6.00 Build 0)  -->
<!DOCTYPE svg PUBLIC "-//W3C//DTD SVG 1.1//EN" "http://www.w3.org/Graphics/SVG/1.1/DTD/svg11.dtd">
<svg version="1.1" id="Layer_3" xmlns="http://www.w3.org/2000/svg" xmlns:xlink="http://www.w3.org/1999/xlink" x="0px" y="0px"
	 width="16px" height="16px" viewBox="0 0 16 16" enable-background="new 0 0 16 16" xml:space="preserve">
<path fill="#231F20" d="M15.223,14.498l-0.336-0.371L0.76,0L0.618,0.802c-0.043,0.241,0.022,0.42,0.159,0.595l0.336,0.371
	L2.87,3.524c-0.488,0.858-0.769,1.85-0.769,2.906l0,0.8c0,1.008-0.229,2.136-0.586,2.948c-0.312,0.112-0.649,0.3-0.867,0.611
	l-0.467,0.667c-0.214,0.306-0.24,0.704-0.067,1.035C0.285,12.823,0.627,13,1,13h11.376l2.864,2.895l0.142-0.802
	C15.425,14.852,15.358,14.673,15.223,14.498z M1,12l0.467-0.637c0.168-0.24,0.74-0.333,0.74-0.333C2.746,10.072,3.1,8.578,3.1,7.23
	l0-0.799c0-0.777,0.2-1.501,0.527-2.149L11.376,12H1z M15.75,11.5c0,0.276-0.224,0.5-0.5,0.5c-0.153,0-0.285-0.072-0.377-0.181
	l-0.34-0.456c-0.168-0.24-0.74-0.333-0.74-0.333c-0.54-0.958-0.894-2.452-0.894-3.8l0-0.799c0-2.707-2.194-4.901-4.899-4.901
	c-0.874,0-1.683,0.242-2.389,0.65c-0.085,0.069-0.19,0.117-0.31,0.117c-0.276,0-0.5-0.224-0.5-0.5c0-0.155,0.086-0.343,0.167-0.422
	C5.707,0.649,6.891,0.5,8,0.5c3.253,0,5.899,2.678,5.899,5.932l0,0.798c0,1.008,0.229,2.137,0.586,2.949
	c0.312,0.112,0.649,0.3,0.867,0.611C15.353,10.79,15.75,11.36,15.75,11.5z M10,15l-0.467-0.667C9.365,14.093,9.17,14.001,8.877,14
	H7.123c-0.293,0.001-0.488,0.093-0.656,0.333L6,15H10z"/>
</svg>
