<?xml version="1.0" encoding="utf-8"?>
<!-- Generator: Adobe Illustrator 16.0.0, SVG Export Plug-In . SVG Version: 6.00 Build 0)  -->
<!DOCTYPE svg PUBLIC "-//W3C//DTD SVG 1.1//EN" "http://www.w3.org/Graphics/SVG/1.1/DTD/svg11.dtd">
<svg version="1.1" id="Layer" xmlns="http://www.w3.org/2000/svg" xmlns:xlink="http://www.w3.org/1999/xlink" x="0px" y="0px"
	 width="16px" height="16px" viewBox="0 0 16 16" enable-background="new 0 0 16 16" xml:space="preserve">
<path fill="#231F20" d="M6,15l0.467-0.667C6.635,14.093,6.83,14.001,7.123,14h1.754c0.293,0.001,0.488,0.093,0.656,0.333L10,15H6z
	 M15.887,12.462C15.715,12.793,15.373,13,15,13H1c-0.373,0-0.715-0.207-0.887-0.538c-0.172-0.331-0.146-0.729,0.067-1.035
	l0.467-0.667c0.218-0.312,0.554-0.499,0.867-0.611C1.871,9.336,2.1,8.208,2.1,7.2l0-0.8c0-3.253,2.646-5.9,5.899-5.9
	s5.899,2.647,5.899,5.901l0,0.798c0,1.008,0.229,2.137,0.586,2.949c0.312,0.112,0.649,0.3,0.867,0.611l0.467,0.667
	C16.033,11.732,16.059,12.131,15.887,12.462z M15,12l-0.467-0.667c-0.168-0.24-0.74-0.333-0.74-0.333
	c-0.54-0.958-0.894-2.452-0.894-3.8l0-0.799C12.899,3.694,10.706,1.5,8,1.5S3.101,3.694,3.101,6.401l0,0.799
	c0,1.348-0.354,2.842-0.894,3.8c0,0-0.572,0.093-0.74,0.333L1,12H15z"/>
</svg>
