<?xml version="1.0" encoding="utf-8"?>
<!-- Generator: Adobe Illustrator 16.0.0, SVG Export Plug-In . SVG Version: 6.00 Build 0)  -->
<!DOCTYPE svg PUBLIC "-//W3C//DTD SVG 1.1//EN" "http://www.w3.org/Graphics/SVG/1.1/DTD/svg11.dtd">
<svg version="1.1" id="Layer" xmlns="http://www.w3.org/2000/svg" xmlns:xlink="http://www.w3.org/1999/xlink" x="0px" y="0px"
	 width="16px" height="16px" viewBox="0 0 16 16" enable-background="new 0 0 16 16" xml:space="preserve">
<path fill="#231F20" d="M6,15l0.467-0.667C6.635,14.093,6.83,14.001,7.123,14h1.754c0.293,0.001,0.488,0.093,0.656,0.333L10,15H6z"
	/>
<path fill="#231F20" d="M15.819,11.427l-0.467-0.667c-0.218-0.312-0.554-0.499-0.867-0.611C14.129,9.336,13.9,8.207,13.9,7.199
	l0-0.798C13.899,3.147,11.253,0.5,8,0.5S2.101,3.147,2.101,6.4l0,0.8c0,1.008-0.229,2.136-0.586,2.948
	c-0.312,0.112-0.649,0.3-0.867,0.611l-0.467,0.667c-0.214,0.306-0.24,0.704-0.067,1.035C0.285,12.793,0.627,13,1,13h14
	c0.373,0,0.715-0.207,0.887-0.538C16.059,12.131,16.033,11.732,15.819,11.427z M1,12l0.467-0.667C1.635,11.093,2.207,11,2.207,11
	C2.746,10.042,3.1,8.548,3.1,7.2l0-0.799C3.101,3.694,5.294,1.5,8,1.5s4.899,2.194,4.899,4.901l0,0.799
	c0,1.348,0.354,2.842,0.894,3.8c0,0,0.572,0.093,0.74,0.333L15,12H1z"/>
</svg>
