<?xml version="1.0" encoding="iso-8859-1"?>
<!-- Generator: Adobe Illustrator 16.0.0, SVG Export Plug-In . SVG Version: 6.00 Build 0)  -->
<!DOCTYPE svg PUBLIC "-//W3C//DTD SVG 1.1//EN" "http://www.w3.org/Graphics/SVG/1.1/DTD/svg11.dtd">
<svg version="1.1" id="Layer" xmlns="http://www.w3.org/2000/svg" xmlns:xlink="http://www.w3.org/1999/xlink" x="0px" y="0px"
	 width="24px" height="24px" viewBox="0 0 24 24" style="enable-background:new 0 0 24 24;" xml:space="preserve">
<path style="fill:#231F20;" d="M9.25,21.669l0.643-0.919c0.229-0.328,0.498-0.455,0.902-0.456h2.41
	c0.404,0.001,0.673,0.128,0.902,0.456l0.643,0.919H9.25z M22.844,18.182c-0.236,0.454-0.706,0.737-1.219,0.737H2.375
	c-0.513,0-0.983-0.283-1.219-0.737c-0.237-0.46-0.202-1.005,0.093-1.428l0.641-0.913c0.3-0.429,0.762-0.687,1.192-0.843
	c0.491-1.117,0.806-2.67,0.806-4.053l0.001-1.099c0-4.478,3.639-8.115,8.111-8.115s8.111,3.638,8.111,8.116l0.001,1.097
	c0,1.383,0.315,2.937,0.806,4.054c0.43,0.156,0.892,0.414,1.192,0.843l0.641,0.913C23.046,17.177,23.081,17.722,22.844,18.182z
	 M21.625,17.544l-0.642-0.919c-0.231-0.328-1.018-0.456-1.018-0.456c-0.742-1.315-1.229-3.372-1.229-5.224l0-1.098
	c0-3.727-3.017-6.741-6.736-6.741S5.264,6.121,5.264,9.848l0,1.098c0,1.852-0.487,3.908-1.229,5.224c0,0-0.787,0.128-1.018,0.456
	l-0.642,0.919H21.625z"/>
</svg>
