<?xml version="1.0" encoding="iso-8859-1"?>
<!-- Generator: Adobe Illustrator 16.0.0, SVG Export Plug-In . SVG Version: 6.00 Build 0)  -->
<!DOCTYPE svg PUBLIC "-//W3C//DTD SVG 1.1//EN" "http://www.w3.org/Graphics/SVG/1.1/DTD/svg11.dtd">
<svg version="1.1" id="Layer" xmlns="http://www.w3.org/2000/svg" xmlns:xlink="http://www.w3.org/1999/xlink" x="0px" y="0px"
	 width="16px" height="16px" viewBox="0 0 16 16" style="enable-background:new 0 0 16 16;" xml:space="preserve">
<path style="fill:#231F20;" d="M9.5,2h2.877c0.293,0.001,0.498,0.107,0.666,0.347L13.5,3h-2.877
	c-0.293-0.001-0.498-0.106-0.666-0.347L9.5,2z M9.957,5.653C10.125,5.894,10.33,5.999,10.623,6H13.5l-0.457-0.653
	C12.875,5.107,12.67,5.001,12.377,5H9.5L9.957,5.653z M9.957,8.653C10.125,8.894,10.33,8.999,10.623,9H13.5l-0.457-0.653
	C12.875,8.107,12.67,8.001,12.377,8H9.5L9.957,8.653z M9.5,12.5C9.5,14.432,7.933,16,6,16s-3.5-1.568-3.5-3.5
	c0-0.976,0.401-1.856,1.046-2.491V2.6c0-1.429,1.167-2.6,2.46-2.6c1.293,0,2.448,1.171,2.448,2.6v7.409
	C9.099,10.644,9.5,11.524,9.5,12.5z M8.5,12.5c0-0.672-0.266-1.304-0.748-1.778c-0.191-0.188-0.298-0.445-0.298-0.713V2.6
	c0-0.853-0.677-1.6-1.448-1.6c-0.764,0-1.46,0.763-1.46,1.6v7.409c0,0.268-0.107,0.524-0.298,0.713
	C3.766,11.196,3.5,11.828,3.5,12.5C3.5,13.879,4.622,15,6,15S8.5,13.879,8.5,12.5z"/>
</svg>
