<?xml version="1.0" encoding="iso-8859-1"?>
<!-- Generator: Adobe Illustrator 16.0.0, SVG Export Plug-In . SVG Version: 6.00 Build 0)  -->
<!DOCTYPE svg PUBLIC "-//W3C//DTD SVG 1.1//EN" "http://www.w3.org/Graphics/SVG/1.1/DTD/svg11.dtd">
<svg version="1.1" id="Layer" xmlns="http://www.w3.org/2000/svg" xmlns:xlink="http://www.w3.org/1999/xlink" x="0px" y="0px"
	 width="24px" height="24px" viewBox="0 0 24 24" style="enable-background:new 0 0 24 24;" xml:space="preserve">
<path style="fill:#231F20;" d="M14.062,3.75h3.956c0.402,0.001,0.685,0.147,0.916,0.477l0.628,0.898h-3.956
	c-0.402-0.001-0.685-0.146-0.916-0.477L14.062,3.75z M14.691,8.773c0.231,0.33,0.513,0.476,0.916,0.477h3.956l-0.628-0.898
	c-0.231-0.329-0.513-0.476-0.916-0.477h-3.956L14.691,8.773z M14.691,12.898c0.231,0.33,0.513,0.476,0.916,0.477h3.956l-0.628-0.898
	c-0.231-0.329-0.513-0.476-0.916-0.477h-3.956L14.691,12.898z M14.062,18.188c0,2.656-2.154,4.812-4.812,4.812
	s-4.812-2.156-4.812-4.812c0-1.342,0.552-2.553,1.438-3.426V4.574C5.875,2.61,7.479,1,9.258,1s3.367,1.61,3.367,3.574v10.188
	C13.511,15.635,14.062,16.846,14.062,18.188z M12.688,18.188c0-0.924-0.365-1.793-1.028-2.445c-0.263-0.259-0.41-0.612-0.41-0.98
	V4.574c0-1.172-0.931-2.199-1.992-2.199c-1.05,0-2.007,1.049-2.007,2.199v10.188c0,0.368-0.147,0.722-0.41,0.98
	c-0.663,0.652-1.028,1.521-1.028,2.445c0,1.896,1.542,3.438,3.438,3.438S12.688,20.084,12.688,18.188z"/>
</svg>
