<?xml version="1.0" encoding="iso-8859-1"?>
<!-- Generator: Adobe Illustrator 16.0.0, SVG Export Plug-In . SVG Version: 6.00 Build 0)  -->
<!DOCTYPE svg PUBLIC "-//W3C//DTD SVG 1.1//EN" "http://www.w3.org/Graphics/SVG/1.1/DTD/svg11.dtd">
<svg version="1.1" id="Layer" xmlns="http://www.w3.org/2000/svg" xmlns:xlink="http://www.w3.org/1999/xlink" x="0px" y="0px"
	 width="24px" height="24px" viewBox="0 0 24 24" style="enable-background:new 0 0 24 24;" xml:space="preserve">
<path style="fill:#231F20;" d="M20.25,9.737c-1.517,0-2.75,1.237-2.75,2.758c0,1.28,0.877,2.347,2.057,2.657
	c-0.032,4.438-2.257,6.469-4.331,6.469c-1.312,0-2.56-0.754-3.511-2.122c-0.805-1.157-1.761-3.312-1.775-6.977L17.372,2.09
	c0.15-0.209,0.17-0.487,0.052-0.715C17.306,1.143,17.07,1,16.812,1h-1.377l-0.688,0.035c-0.302,0.035-0.54,0.145-0.733,0.423
	l-0.642,0.921h0.002h2.102l-6.227,8.74l-6.227-8.74h2.102c0.016,0,0.029-0.008,0.045-0.011l-0.636-0.91
	C4.341,1.184,4.104,1.072,3.802,1.035L3.114,1H1.688C1.43,1,1.194,1.143,1.077,1.375C0.958,1.603,0.979,1.881,1.128,2.09
	l7.439,10.443c0.013,3.185,0.708,5.868,2.019,7.753C11.785,22.012,13.477,23,15.226,23c2.734,0,5.668-2.459,5.705-7.845
	C22.117,14.852,23,13.777,23,12.495C23,10.975,21.767,9.737,20.25,9.737z M20.25,13.875c-0.759,0-1.375-0.617-1.375-1.38
	s0.616-1.379,1.375-1.379s1.375,0.616,1.375,1.379S21.009,13.875,20.25,13.875z"/>
</svg>
