<?xml version="1.0" encoding="iso-8859-1"?>
<!-- Generator: Adobe Illustrator 16.0.0, SVG Export Plug-In . SVG Version: 6.00 Build 0)  -->
<!DOCTYPE svg PUBLIC "-//W3C//DTD SVG 1.1//EN" "http://www.w3.org/Graphics/SVG/1.1/DTD/svg11.dtd">
<svg version="1.1" id="Layer" xmlns="http://www.w3.org/2000/svg" xmlns:xlink="http://www.w3.org/1999/xlink" x="0px" y="0px"
	 width="16px" height="16px" viewBox="0 0 16 16" style="enable-background:new 0 0 16 16;" xml:space="preserve">
<path style="fill:#231F20;" d="M14,6.354c-1.103,0-2,0.899-2,2.006c0,0.931,0.638,1.706,1.496,1.933
	c-0.023,3.228-1.641,4.704-3.149,4.704c-0.955,0-1.861-0.548-2.554-1.543c-0.585-0.842-1.28-2.409-1.291-5.074l5.405-7.587
	c0.109-0.152,0.124-0.354,0.038-0.521C11.859,0.104,11.688,0,11.5,0h-1.001l-0.5,0.025c-0.22,0.025-0.393,0.105-0.533,0.308
	l-0.467,0.67H9h1.528L6,7.359L1.472,1.003H3c0.012,0,0.021-0.006,0.033-0.008L2.571,0.333C2.43,0.134,2.257,0.053,2.038,0.025
	L1.538,0H0.5C0.312,0,0.141,0.104,0.056,0.272C-0.03,0.438-0.016,0.641,0.093,0.793l5.411,7.595c0.01,2.316,0.515,4.268,1.468,5.639
	C7.844,15.281,9.074,16,10.346,16c1.988,0,4.123-1.788,4.149-5.705C15.358,10.074,16,9.293,16,8.36C16,7.254,15.103,6.354,14,6.354z
	 M14,9.363c-0.552,0-1-0.448-1-1.003s0.448-1.003,1-1.003s1,0.448,1,1.003S14.552,9.363,14,9.363z"/>
</svg>
