<?xml version="1.0" encoding="iso-8859-1"?>
<!-- Generator: Adobe Illustrator 16.0.0, SVG Export Plug-In . SVG Version: 6.00 Build 0)  -->
<!DOCTYPE svg PUBLIC "-//W3C//DTD SVG 1.1//EN" "http://www.w3.org/Graphics/SVG/1.1/DTD/svg11.dtd">
<svg version="1.1" id="Layer_4" xmlns="http://www.w3.org/2000/svg" xmlns:xlink="http://www.w3.org/1999/xlink" x="0px" y="0px"
	 width="24px" height="24px" viewBox="0 0 24 24" style="enable-background:new 0 0 24 24;" xml:space="preserve">
<path style="fill:#231F20;" d="M14.033,11.334c0,0.004,0,0.007,0,0.011c-0.168,0.007-0.334,0.069-0.463,0.198
	c-0.271,0.271-0.271,0.71,0,0.981c0.129,0.128,0.296,0.192,0.465,0.197c0,0.002,0,0.003,0,0.004c0.008,0,0.016,0,0.023,0.002
	c0.001,0,0.003,0,0.004,0c0.367,0.008,0.729,0.024,1.086,0.046l-2.392,2.391c-0.064-1.025-0.071-2.084-0.068-3.163
	c0.009-4.038,0.014-8.192-3.386-10.992L9.092,2.095C9.026,2.416,9.088,2.682,9.259,2.923C9.581,3.297,9.837,3.7,10.065,4.116
	l-5.956,5.956C3.679,9.834,3.261,9.565,2.875,9.227C2.65,9.085,2.406,9.028,2.107,9.087L1.002,9.304
	c2.637,3.221,6.482,3.404,10.298,3.407c0.003,3.817,0.187,7.659,3.408,10.297l0.216-1.104c0.058-0.301,0.001-0.545-0.141-0.77
	c-0.344-0.392-0.615-0.815-0.856-1.254l5.949-5.948c0.423,0.23,0.831,0.491,1.211,0.818c0.24,0.172,0.506,0.234,0.828,0.169
	l1.086-0.212C20.669,11.875,17.396,11.407,14.033,11.334z M10.654,5.489c0.166,0.507,0.303,1.026,0.394,1.57l-4.005,4.003
	c-0.542-0.091-1.06-0.23-1.565-0.396L10.654,5.489z M8.818,11.251l2.416-2.415c0.05,0.808,0.066,1.639,0.067,2.483
	C10.457,11.319,9.626,11.303,8.818,11.251z M13.337,18.51c-0.166-0.506-0.302-1.026-0.393-1.568l3.98-3.98
	c0.545,0.089,1.071,0.217,1.58,0.382L13.337,18.51z"/>
</svg>
