<?xml version="1.0" encoding="utf-8"?>
<!-- Generator: Adobe Illustrator 16.0.0, SVG Export Plug-In . SVG Version: 6.00 Build 0)  -->
<!DOCTYPE svg PUBLIC "-//W3C//DTD SVG 1.1//EN" "http://www.w3.org/Graphics/SVG/1.1/DTD/svg11.dtd">
<svg version="1.1" id="Layer_4" xmlns="http://www.w3.org/2000/svg" xmlns:xlink="http://www.w3.org/1999/xlink" x="0px" y="0px"
	 width="16px" height="16px" viewBox="0 0 16 16" enable-background="new 0 0 16 16" xml:space="preserve">
<path fill="#231F20" d="M9.466,7.522c0,0.003,0,0.005,0,0.008C9.345,7.535,9.225,7.58,9.132,7.673c-0.195,0.195-0.195,0.512,0,0.707
	c0.093,0.093,0.213,0.139,0.335,0.143c0,0.001,0,0.002,0,0.003c0.006,0,0.011,0,0.017,0.001c0.001,0,0.002,0,0.003,0
	c0.264,0.006,0.525,0.018,0.783,0.033l-1.723,1.723C8.5,9.543,8.495,8.78,8.497,8.003c0.007-2.909,0.01-5.902-2.439-7.92
	L5.905,0.865C5.858,1.097,5.903,1.288,6.026,1.462c0.232,0.27,0.417,0.561,0.581,0.86L2.315,6.613
	c-0.31-0.172-0.611-0.365-0.889-0.609C1.264,5.902,1.088,5.861,0.873,5.903L0.077,6.06c1.9,2.32,4.67,2.453,7.42,2.455
	c0.002,2.75,0.135,5.519,2.455,7.419l0.156-0.795c0.042-0.217,0.001-0.393-0.101-0.555c-0.248-0.282-0.443-0.588-0.617-0.903
	l4.286-4.286c0.305,0.166,0.599,0.354,0.873,0.59c0.173,0.124,0.365,0.169,0.597,0.122l0.783-0.153
	C14.247,7.912,11.888,7.575,9.466,7.522z M7.031,3.312C7.15,3.677,7.25,4.051,7.315,4.442L4.43,7.327
	C4.039,7.262,3.666,7.161,3.302,7.041L7.031,3.312z M5.708,7.463l1.741-1.74c0.036,0.582,0.047,1.181,0.048,1.789
	C6.889,7.512,6.291,7.5,5.708,7.463z M8.964,12.692c-0.119-0.364-0.218-0.739-0.283-1.13l2.868-2.868
	c0.393,0.064,0.772,0.156,1.139,0.275L8.964,12.692z"/>
</svg>
