<?xml version="1.0" encoding="iso-8859-1"?>
<!-- Generator: Adobe Illustrator 16.0.0, SVG Export Plug-In . SVG Version: 6.00 Build 0)  -->
<!DOCTYPE svg PUBLIC "-//W3C//DTD SVG 1.1//EN" "http://www.w3.org/Graphics/SVG/1.1/DTD/svg11.dtd">
<svg version="1.1" id="Layer_2" xmlns="http://www.w3.org/2000/svg" xmlns:xlink="http://www.w3.org/1999/xlink" x="0px" y="0px"
	 width="16px" height="16px" viewBox="0 0 16 16" style="enable-background:new 0 0 16 16;" xml:space="preserve">
<path d="M15.21,6.361l-1.159-0.197c-0.118-0.392-0.278-0.775-0.475-1.142l0.682-0.956c0.271-0.381,0.227-0.892-0.102-1.221l-1-1
	c-0.18-0.182-0.418-0.278-0.672-0.278c-0.196,0-0.387,0.061-0.549,0.175l-0.959,0.683c-0.377-0.199-0.77-0.362-1.18-0.484
	L9.604,0.794C9.532,0.333,9.139,0,8.675,0H7.258C6.793,0,6.4,0.333,6.322,0.79L6.122,1.96C5.729,2.082,5.346,2.241,4.983,2.442
	L4.037,1.768C3.875,1.651,3.685,1.591,3.488,1.591c-0.254,0-0.492,0.099-0.672,0.277l-1,1.001C1.488,3.197,1.444,3.71,1.715,4.09
	l0.688,0.969C2.21,5.426,2.054,5.809,1.939,6.205L0.793,6.398C0.332,6.471,0,6.863,0,7.328v1.416c0,0.467,0.332,0.858,0.79,0.937
	l1.169,0.2c0.123,0.394,0.281,0.777,0.482,1.141l-0.675,0.943c-0.271,0.381-0.227,0.893,0.102,1.221l1,1.002
	c0.18,0.18,0.417,0.278,0.671,0.278c0.196,0,0.387-0.061,0.549-0.177l0.969-0.688c0.353,0.186,0.726,0.338,1.105,0.453l0.193,1.156
	C6.434,15.669,6.827,16,7.292,16h1.416c0.465,0,0.858-0.331,0.937-0.789l0.195-1.16c0.395-0.118,0.777-0.277,1.143-0.475
	l0.957,0.683c0.162,0.115,0.353,0.176,0.549,0.176c0.254,0,0.491-0.098,0.672-0.278l1-1c0.328-0.33,0.372-0.84,0.102-1.221
	l-0.682-0.959c0.196-0.367,0.353-0.746,0.474-1.143l1.156-0.193C15.668,9.562,16,9.168,16,8.705V7.287
	C16,6.834,15.668,6.439,15.21,6.361z M15,8.705l-1.111,0.143c-0.374,0.062-0.681,0.331-0.792,0.694
	c-0.104,0.34-0.234,0.655-0.399,0.963c-0.179,0.335-0.153,0.742,0.067,1.051l0.682,0.959l-0.994,0.935l-0.89-0.688
	c-0.173-0.123-0.376-0.186-0.581-0.186c-0.163,0-0.326,0.04-0.475,0.12c-0.306,0.165-0.626,0.299-0.955,0.396
	c-0.365,0.109-0.636,0.416-0.699,0.792L8.666,15H7.292l-0.143-1.109c-0.062-0.375-0.332-0.683-0.696-0.793
	C6.131,13,5.818,12.872,5.523,12.717c-0.146-0.077-0.306-0.115-0.466-0.115c-0.204,0-0.406,0.062-0.579,0.185L3.51,13.474
	l-0.934-0.994l0.678-0.876c0.225-0.313,0.249-0.729,0.062-1.066C3.157,10.25,3.021,9.929,2.914,9.582
	C2.801,9.224,2.498,8.959,2.128,8.896l-1.169-0.2L1,7.328l1.106-0.137C2.484,7.127,2.793,6.853,2.9,6.483
	c0.095-0.327,0.225-0.649,0.388-0.959c0.176-0.334,0.149-0.737-0.07-1.045L2.53,3.511l0.994-0.936l0.878,0.682
	C4.575,3.38,4.779,3.442,4.983,3.442c0.167,0,0.333-0.041,0.485-0.125c0.29-0.161,0.61-0.297,0.951-0.402
	C6.777,2.803,7.043,2.5,7.107,2.129l0.201-1.17L8.675,1l0.136,1.106C8.874,2.482,9.146,2.79,9.512,2.898
	c0.337,0.101,0.672,0.238,0.998,0.41c0.147,0.078,0.307,0.116,0.467,0.116c0.204,0,0.407-0.062,0.58-0.186l0.959-0.683l0.934,0.996
	l-0.688,0.89c-0.221,0.31-0.247,0.718-0.067,1.053c0.167,0.31,0.3,0.633,0.398,0.958c0.11,0.363,0.416,0.633,0.79,0.696l1.159,0.197
	L15,8.705z M8,6C6.894,6,6,6.895,6,8c0,1.106,0.894,2,2,2c1.105,0,2-0.894,2-2C10,6.895,9.104,6,8,6z M8,9C7.448,9,7,8.552,7,8
	s0.448-1,1-1c0.552,0,1,0.448,1,1S8.551,9,8,9z"/>
</svg>
