<?xml version="1.0" encoding="iso-8859-1"?>
<!-- Generator: Adobe Illustrator 16.0.0, SVG Export Plug-In . SVG Version: 6.00 Build 0)  -->
<!DOCTYPE svg PUBLIC "-//W3C//DTD SVG 1.1//EN" "http://www.w3.org/Graphics/SVG/1.1/DTD/svg11.dtd">
<svg version="1.1" id="Layer_2" xmlns="http://www.w3.org/2000/svg" xmlns:xlink="http://www.w3.org/1999/xlink" x="0px" y="0px"
	 width="16px" height="16px" viewBox="0 0 16 16" style="enable-background:new 0 0 16 16;" xml:space="preserve">
<path d="M8,6C6.894,6,6,6.895,6,8c0,1.106,0.894,2,2,2c1.105,0,2-0.894,2-2C10,6.895,9.104,6,8,6z M8,9C7.448,9,7,8.552,7,8
	s0.448-1,1-1c0.552,0,1,0.448,1,1S8.551,9,8,9z M15.682,2.562l-0.466-0.079c-0.048-0.158-0.112-0.313-0.192-0.46l0.274-0.386
	c0.109-0.152,0.091-0.358-0.041-0.49l-0.403-0.402c-0.072-0.073-0.168-0.112-0.271-0.112c-0.079,0-0.156,0.023-0.221,0.069
	l-0.386,0.275c-0.152-0.08-0.31-0.146-0.475-0.195L13.425,0.32C13.396,0.134,13.238,0,13.051,0H12.48
	c-0.187,0-0.345,0.134-0.376,0.318l-0.081,0.47c-0.158,0.05-0.312,0.114-0.458,0.195l-0.381-0.272
	c-0.065-0.046-0.142-0.07-0.221-0.07c-0.103,0-0.199,0.04-0.271,0.111L10.29,1.155c-0.132,0.132-0.15,0.338-0.041,0.491l0.277,0.39
	c-0.078,0.148-0.141,0.302-0.187,0.462L9.877,2.575C9.692,2.604,9.558,2.764,9.558,2.95v0.57c0,0.188,0.134,0.346,0.318,0.378
	l0.471,0.079c0.049,0.158,0.113,0.313,0.194,0.46l-0.271,0.38c-0.109,0.152-0.091,0.359,0.041,0.491l0.403,0.403
	c0.072,0.073,0.167,0.111,0.27,0.111c0.079,0,0.156-0.023,0.221-0.071l0.39-0.276c0.142,0.074,0.292,0.137,0.444,0.184l0.078,0.465
	c0.031,0.185,0.19,0.317,0.377,0.317h0.57c0.187,0,0.345-0.133,0.377-0.317l0.079-0.467c0.159-0.048,0.313-0.112,0.46-0.191
	l0.385,0.274c0.065,0.047,0.142,0.071,0.221,0.071c0.102,0,0.197-0.039,0.27-0.112l0.403-0.403c0.132-0.132,0.15-0.337,0.041-0.49
	L15.026,4.42c0.079-0.148,0.142-0.301,0.19-0.461l0.466-0.077C15.866,3.85,16,3.691,16,3.505V2.933
	C16,2.751,15.866,2.593,15.682,2.562z M12.779,5.013c-0.989,0-1.792-0.802-1.792-1.792s0.803-1.792,1.792-1.792
	s1.792,0.802,1.792,1.792S13.769,5.013,12.779,5.013z M16,7.357v1.348c0,0.463-0.332,0.857-0.79,0.936l-1.156,0.193
	c-0.121,0.396-0.277,0.775-0.474,1.143l0.682,0.959c0.271,0.381,0.227,0.891-0.102,1.221l-1,1c-0.181,0.181-0.418,0.278-0.672,0.278
	c-0.196,0-0.387-0.061-0.549-0.176l-0.957-0.683c-0.365,0.197-0.748,0.356-1.143,0.475l-0.195,1.16C9.566,15.669,9.173,16,8.708,16
	H7.292c-0.465,0-0.858-0.331-0.937-0.789l-0.193-1.156c-0.379-0.115-0.752-0.268-1.105-0.453l-0.969,0.688
	c-0.163,0.116-0.353,0.177-0.549,0.177c-0.254,0-0.491-0.099-0.671-0.278l-1-1.002c-0.329-0.328-0.373-0.84-0.102-1.221l0.675-0.943
	c-0.201-0.363-0.359-0.747-0.482-1.141l-1.169-0.2C0.332,9.603,0,9.211,0,8.744V7.328c0-0.465,0.332-0.857,0.793-0.93l1.146-0.193
	C2.054,5.809,2.21,5.426,2.403,5.059L1.715,4.09C1.444,3.71,1.488,3.197,1.816,2.869l1-1.001c0.18-0.179,0.417-0.277,0.672-0.277
	c0.196,0,0.386,0.061,0.549,0.177l0.946,0.675c0.363-0.201,0.746-0.36,1.139-0.482l0.201-1.17C6.4,0.333,6.793,0,7.258,0h1.417
	c0.218,0,0.414,0.081,0.573,0.208C9.43,0.283,9.558,0.461,9.558,0.67c0,0.276-0.224,0.5-0.5,0.5c-0.158,0-0.419-0.171-0.419-0.171
	l-1.331-0.04l-0.201,1.17C7.043,2.5,6.777,2.803,6.418,2.915C6.078,3.021,5.758,3.156,5.468,3.317
	C5.316,3.401,5.149,3.442,4.983,3.442c-0.204,0-0.408-0.062-0.581-0.186L3.524,2.575L2.53,3.511l0.688,0.969
	c0.219,0.308,0.246,0.711,0.07,1.045C3.125,5.834,2.995,6.156,2.9,6.483C2.793,6.853,2.484,7.127,2.106,7.191L1,7.328L0.959,8.695
	l1.169,0.2c0.37,0.063,0.673,0.328,0.786,0.687c0.108,0.347,0.244,0.668,0.403,0.955c0.187,0.338,0.163,0.753-0.062,1.066
	l-0.678,0.876l0.934,0.994l0.969-0.688c0.172-0.122,0.375-0.185,0.579-0.185c0.16,0,0.319,0.038,0.466,0.115
	c0.294,0.155,0.607,0.283,0.93,0.381c0.364,0.11,0.633,0.418,0.696,0.793L7.292,15h1.374l0.188-1.115
	c0.063-0.376,0.334-0.683,0.699-0.792c0.328-0.098,0.649-0.231,0.955-0.396c0.149-0.08,0.312-0.12,0.475-0.12
	c0.204,0,0.408,0.062,0.581,0.186l0.89,0.688l0.994-0.935l-0.682-0.959c-0.22-0.309-0.246-0.716-0.067-1.051
	c0.165-0.308,0.295-0.623,0.399-0.963c0.111-0.363,0.417-0.632,0.792-0.694L15,8.705c0,0,0-1.148,0-1.205C15,7.224,15.224,7,15.5,7
	c0.226,0,0.409,0.152,0.471,0.357H16z"/>
</svg>
