<?xml version="1.0" encoding="iso-8859-1"?>
<!-- Generator: Adobe Illustrator 16.0.0, SVG Export Plug-In . SVG Version: 6.00 Build 0)  -->
<!DOCTYPE svg PUBLIC "-//W3C//DTD SVG 1.1//EN" "http://www.w3.org/Graphics/SVG/1.1/DTD/svg11.dtd">
<svg version="1.1" id="Layer_2" xmlns="http://www.w3.org/2000/svg" xmlns:xlink="http://www.w3.org/1999/xlink" x="0px" y="0px"
	 width="24px" height="24px" viewBox="0 0 24 24" style="enable-background:new 0 0 24 24;" xml:space="preserve">
<path d="M12,9.25c-1.52,0-2.75,1.23-2.75,2.75c0,1.521,1.229,2.75,2.75,2.75c1.519,0,2.75-1.229,2.75-2.75
	C14.75,10.48,13.519,9.25,12,9.25z M12,13.375c-0.758,0-1.375-0.616-1.375-1.375s0.616-1.375,1.375-1.375s1.375,0.616,1.375,1.375
	S12.758,13.375,12,13.375z M22.563,4.522l-0.641-0.109c-0.066-0.218-0.154-0.431-0.264-0.632l0.377-0.531
	c0.15-0.209,0.125-0.492-0.056-0.674l-0.554-0.553c-0.1-0.101-0.231-0.154-0.372-0.154c-0.109,0-0.214,0.032-0.304,0.095
	l-0.531,0.379c-0.209-0.11-0.426-0.201-0.653-0.269L19.459,1.44C19.419,1.184,19.202,1,18.945,1H18.16
	c-0.257,0-0.474,0.184-0.517,0.438l-0.111,0.646c-0.218,0.068-0.43,0.156-0.63,0.269l-0.524-0.375
	c-0.09-0.063-0.195-0.097-0.303-0.097c-0.141,0-0.273,0.055-0.373,0.153l-0.553,0.555c-0.181,0.181-0.206,0.464-0.056,0.675
	L15.473,3.8c-0.107,0.204-0.193,0.415-0.257,0.635l-0.634,0.106c-0.254,0.04-0.439,0.259-0.439,0.516v0.784
	c0,0.258,0.185,0.476,0.438,0.52l0.647,0.108c0.067,0.218,0.156,0.432,0.267,0.633l-0.374,0.522
	c-0.15,0.209-0.125,0.494,0.056,0.675l0.554,0.555c0.099,0.102,0.23,0.153,0.371,0.153c0.108,0,0.214-0.032,0.304-0.098l0.537-0.38
	c0.195,0.102,0.401,0.188,0.611,0.252l0.107,0.64c0.043,0.253,0.261,0.437,0.519,0.437h0.784c0.257,0,0.475-0.184,0.518-0.437
	l0.108-0.643c0.218-0.065,0.431-0.154,0.633-0.263l0.529,0.377c0.089,0.064,0.195,0.099,0.304,0.099
	c0.141,0,0.271-0.054,0.372-0.155l0.554-0.554c0.182-0.182,0.206-0.464,0.056-0.675l-0.376-0.53
	c0.109-0.204,0.195-0.413,0.262-0.634l0.641-0.105C22.816,6.293,23,6.076,23,5.819V5.032C23,4.782,22.816,4.565,22.563,4.522z
	 M18.571,7.893c-1.36,0-2.464-1.103-2.464-2.464c0-1.362,1.104-2.464,2.464-2.464c1.36,0,2.464,1.102,2.464,2.464
	C21.036,6.79,19.932,7.893,18.571,7.893z M23,11.116v1.854c0,0.636-0.457,1.179-1.086,1.286l-1.59,0.266
	c-0.167,0.545-0.381,1.066-0.651,1.571l0.937,1.318c0.372,0.524,0.312,1.225-0.14,1.679l-1.375,1.375
	c-0.249,0.248-0.575,0.383-0.924,0.383c-0.27,0-0.532-0.083-0.754-0.242l-1.316-0.938c-0.502,0.271-1.028,0.49-1.571,0.653
	l-0.269,1.595C14.154,22.545,13.613,23,12.974,23h-1.947c-0.639,0-1.18-0.455-1.288-1.085l-0.265-1.59
	c-0.521-0.158-1.035-0.368-1.52-0.623l-1.333,0.945c-0.224,0.16-0.485,0.243-0.755,0.243c-0.349,0-0.675-0.136-0.922-0.383
	L3.569,19.13c-0.453-0.451-0.513-1.154-0.141-1.679l0.929-1.297c-0.277-0.499-0.494-1.027-0.664-1.568l-1.607-0.275
	C1.457,14.203,1,13.665,1,13.023v-1.947c0-0.639,0.457-1.179,1.09-1.278l1.577-0.266c0.158-0.546,0.372-1.071,0.638-1.577
	L3.358,6.623c-0.373-0.521-0.312-1.227,0.14-1.678l1.375-1.377C5.12,3.323,5.447,3.188,5.796,3.188c0.27,0,0.531,0.083,0.754,0.243
	l1.301,0.928c0.499-0.276,1.026-0.495,1.565-0.663l0.276-1.609C9.801,1.458,10.34,1,10.979,1h1.948c0.3,0,0.569,0.111,0.788,0.286
	c0.25,0.104,0.427,0.348,0.427,0.635c0,0.38-0.308,0.688-0.688,0.688c-0.217,0-0.577-0.234-0.577-0.234h-1.829l-0.276,1.554
	c-0.088,0.51-0.454,0.926-0.947,1.08C9.357,5.153,8.917,5.34,8.518,5.562C8.31,5.677,8.081,5.733,7.852,5.733
	c-0.281,0-0.561-0.086-0.798-0.255L5.845,4.541L4.479,5.827l0.947,1.332c0.301,0.423,0.337,0.978,0.096,1.437
	C5.297,9.021,5.118,9.465,4.987,9.915c-0.146,0.507-0.571,0.885-1.092,0.974l-1.578,0.188l0,1.88l1.607,0.275
	c0.509,0.087,0.926,0.451,1.081,0.944c0.148,0.477,0.335,0.918,0.554,1.312c0.257,0.465,0.224,1.035-0.085,1.467l-0.933,1.204
	l1.284,1.367l1.333-0.945c0.237-0.168,0.516-0.254,0.795-0.254c0.22,0,0.439,0.053,0.641,0.158C9,18.699,9.43,18.875,9.873,19.01
	c0.5,0.151,0.871,0.574,0.957,1.09l0.197,1.525h1.89l0.258-1.533c0.087-0.518,0.459-0.938,0.961-1.089
	c0.451-0.135,0.893-0.318,1.313-0.546c0.205-0.109,0.429-0.165,0.653-0.165c0.281,0,0.561,0.086,0.798,0.255l1.224,0.945
	l1.366-1.284l-0.937-1.319c-0.302-0.424-0.338-0.984-0.092-1.444c0.227-0.423,0.406-0.856,0.549-1.324
	c0.152-0.499,0.574-0.868,1.088-0.954l1.528-0.196c0,0,0-1.579,0-1.657c0-0.38,0.308-0.688,0.688-0.688
	c0.31,0,0.562,0.209,0.648,0.491H23z"/>
</svg>
