<?xml version="1.0" encoding="iso-8859-1"?>
<!-- Generator: Adobe Illustrator 16.0.0, SVG Export Plug-In . SVG Version: 6.00 Build 0)  -->
<!DOCTYPE svg PUBLIC "-//W3C//DTD SVG 1.1//EN" "http://www.w3.org/Graphics/SVG/1.1/DTD/svg11.dtd">
<svg version="1.1" id="Layer" xmlns="http://www.w3.org/2000/svg" xmlns:xlink="http://www.w3.org/1999/xlink" x="0px" y="0px"
	 width="16px" height="16px" viewBox="0 0 16 16" style="enable-background:new 0 0 16 16;" xml:space="preserve">
<g id="Layer_4">
	<path style="fill:#231F20;" d="M15.923,7.115l-2.5-6C13.268,0.743,12.904,0.5,12.5,0.5H9c-0.265,0-0.52,0.105-0.707,0.293L8,1.086
		L7.707,0.793C7.52,0.605,7.265,0.5,7,0.5H3.5c-0.404,0-0.768,0.243-0.923,0.615l-2.5,6c-0.104,0.25-0.103,0.53,0.004,0.778l3,7
		C3.238,15.262,3.6,15.5,4,15.5h8c0.4,0,0.762-0.238,0.919-0.606l3-7C16.025,7.646,16.027,7.365,15.923,7.115z M12,14.5H4l-3-7
		l2.5-6H7l1,1l1-1h3.5l2.5,6L12,14.5z"/>
	<g>
		<path style="fill:#231F20;" d="M4,5h0.877C5.17,5.002,5.365,5.094,5.533,5.334L6,6H5.123C4.83,5.999,4.635,5.907,4.467,5.667L4,5z
			"/>
		<path style="fill:#231F20;" d="M11.533,5.667C11.365,5.907,11.17,5.999,10.877,6H10l0.467-0.666
			C10.635,5.094,10.83,5.002,11.123,5H12L11.533,5.667z"/>
	</g>
	<path style="fill:#231F20;" d="M9.562,8L9.095,8.667C8.927,8.907,8.731,8.999,8.438,9H7.562C7.269,8.999,7.073,8.907,6.905,8.667
		L6.438,8H9.562z"/>
	<path style="fill:#231F20;" d="M5.9,11l0.467-0.667C6.535,10.093,6.73,10.001,7.023,10h1.954c0.293,0.001,0.488,0.093,0.656,0.333
		L10.1,11H5.9z"/>
</g>
</svg>
