<?xml version="1.0" encoding="iso-8859-1"?>
<!-- Generator: Adobe Illustrator 16.0.0, SVG Export Plug-In . SVG Version: 6.00 Build 0)  -->
<!DOCTYPE svg PUBLIC "-//W3C//DTD SVG 1.1//EN" "http://www.w3.org/Graphics/SVG/1.1/DTD/svg11.dtd">
<svg version="1.1" id="Layer" xmlns="http://www.w3.org/2000/svg" xmlns:xlink="http://www.w3.org/1999/xlink" x="0px" y="0px"
	 width="24px" height="24px" viewBox="0 0 24 24" style="enable-background:new 0 0 24 24;" xml:space="preserve">
<path style="fill:#231F20;" d="M22.894,10.783l-3.438-8.25c-0.213-0.512-0.713-0.846-1.269-0.846h-4.812
	c-0.365,0-0.714,0.145-0.972,0.402L12,2.493L11.597,2.09c-0.258-0.258-0.607-0.402-0.972-0.402H5.812
	c-0.556,0-1.056,0.334-1.269,0.846l-3.438,8.25c-0.143,0.344-0.141,0.729,0.005,1.07l4.125,9.625
	c0.216,0.507,0.714,0.834,1.264,0.834h11c0.55,0,1.047-0.327,1.264-0.834l4.125-9.625C23.035,11.513,23.037,11.127,22.894,10.783z
	 M17.5,20.938h-11l-4.125-9.625l3.438-8.25h4.812L12,4.438l1.375-1.375h4.812l3.438,8.25L17.5,20.938z M6.5,7.875h1.206
	c0.403,0.003,0.671,0.129,0.902,0.459L9.25,9.25H8.044C7.641,9.249,7.373,9.122,7.142,8.792L6.5,7.875z M16.858,8.792
	c-0.231,0.33-0.5,0.457-0.902,0.458H14.75l0.642-0.916c0.231-0.33,0.5-0.456,0.902-0.459H17.5L16.858,8.792z M14.147,12
	l-0.642,0.917c-0.231,0.33-0.5,0.457-0.902,0.458h-1.206c-0.403-0.001-0.671-0.128-0.902-0.458L9.853,12H14.147z M9.112,16.125
	l0.642-0.917c0.231-0.33,0.5-0.457,0.903-0.458h2.687c0.403,0.001,0.671,0.128,0.903,0.458l0.642,0.917H9.112z"/>
</svg>
