<?xml version="1.0" encoding="utf-8"?>
<!-- Generator: Adobe Illustrator 23.1.1, SVG Export Plug-In . SVG Version: 6.00 Build 0)  -->
<svg version="1.1" id="Layer_1" xmlns="http://www.w3.org/2000/svg" xmlns:xlink="http://www.w3.org/1999/xlink" x="0px" y="0px"
	 viewBox="0 0 24 24" style="enable-background:new 0 0 24 24;" xml:space="preserve">
<style type="text/css">
	.st0{clip-path:url(#SVGID_2_);fill:#231F20;}
</style>
<g>
	<defs>
		<rect id="SVGID_1_" width="24" height="24"/>
	</defs>
	<clipPath id="SVGID_2_">
		<use xlink:href="#SVGID_1_"  style="overflow:visible;"/>
	</clipPath>
	<path class="st0" d="M12.98,18.63v-1.21l0.92,0.64c0.33,0.23,0.46,0.5,0.46,0.9v1.21l-0.92-0.64
		C13.11,19.3,12.99,19.03,12.98,18.63 M22.98,1.82c-0.06,0.21-1.51,5.14-4.15,7.39c-0.7,0.6-1.48,1.08-2.33,1.49v11.66
		c0,0.33-0.26,0.59-0.59,0.59h-4.99c-0.26,0-0.48-0.16-0.56-0.41l-1.44-4.39l-1.28,4.28c-0.08,0.26-0.31,0.42-0.57,0.42
		c-0.06,0-0.11-0.01-0.17-0.02c-0.31-0.09-0.49-0.42-0.4-0.74l1.76-5.88c0-0.01,0.01-0.01,0.01-0.02l-0.67-2.04
		c-0.1-0.31,0.07-0.65,0.38-0.75c0.31-0.1,0.64,0.07,0.75,0.38l2.63,7.98h3.97V11.17c-1.9,0.66-4.2,0.97-7.16,0.97h-3.4
		C3.36,12.14,1,11.61,1,9.64c0-0.63,0.23-1.18,0.66-1.61c1.02-1.01,2.86-1.02,3.09-1.02l3.4,0c9.93,0,13.72-5.63,13.76-5.69
		c0.16-0.25,0.48-0.34,0.74-0.22C22.92,1.24,23.06,1.54,22.98,1.82 M20.83,4.17C18.66,5.96,14.65,8.2,8.15,8.2l-3.4,0h0c0,0,0,0,0,0
		C4.3,8.21,3.07,8.31,2.49,8.88C2.28,9.09,2.18,9.33,2.18,9.64c0,1.27,2.54,1.31,2.57,1.31h3.4c4.76,0,7.72-0.79,9.91-2.65
		C19.24,7.3,20.18,5.61,20.83,4.17"/>
</g>
</svg>
