<?xml version="1.0" encoding="utf-8"?>
<!-- Generator: Adobe Illustrator 24.0.0, SVG Export Plug-In . SVG Version: 6.00 Build 0)  -->
<svg version="1.1" id="Layer" xmlns="http://www.w3.org/2000/svg" xmlns:xlink="http://www.w3.org/1999/xlink" x="0px" y="0px"
	 viewBox="0 0 24 24" enable-background="new 0 0 24 24" xml:space="preserve">
<g>
	<path fill="#231F20" d="M10.267,17.832H9.062l0.642,0.917c0.231,0.33,0.5,0.457,0.902,0.458h1.206l-0.642-0.916
		C10.939,17.961,10.67,17.835,10.267,17.832z"/>
	<path fill="#231F20" d="M9.748,12.716c0.403-0.001,0.671-0.128,0.902-0.458l0.642-0.917H7.998l0.642,0.917
		c0.231,0.33,0.5,0.457,0.902,0.458H9.748z"/>
	<path fill="#231F20" d="M12.84,18.291l-0.642,0.916h1.206c0.403-0.001,0.671-0.128,0.902-0.458l0.642-0.917h-1.206
		C13.339,17.835,13.071,17.961,12.84,18.291z"/>
	<path fill="#231F20" d="M13.35,12.258c0.231,0.33,0.5,0.457,0.902,0.458h0.206c0.403-0.001,0.671-0.128,0.902-0.458l0.642-0.917
		h-3.294L13.35,12.258z"/>
	<path fill="#231F20" d="M22.159,1.885l-0.541-0.207h-1.63l-0.541,0.165c-0.507,0.154-0.834,0.507-0.834,0.898v3.962h-0.152h-0.104
		V6.41c0-0.399-0.327-0.76-0.834-0.917l-0.541-0.168h-3.608c-0.365,0-0.714,0.145-0.972,0.402L12,6.13l-0.402-0.403
		c-0.258-0.258-0.607-0.402-0.972-0.402H7.018L6.477,5.494C5.97,5.651,5.643,6.012,5.643,6.41v0.293H5.539H5.387V2.741
		c0-0.391-0.327-0.744-0.834-0.898L4.012,1.678h-1.63L1.841,1.885C1.334,2.078,1.007,2.521,1.007,3.011v6.693l0.168,0.541
		c0.157,0.507,0.518,0.834,0.917,0.834h3.551v0.575H4.878c-0.55,0-1.047,0.327-1.264,0.834l-0.232,0.541h1.496h0.609h0.157V13.1
		c0,0.55,0.327,1.047,0.834,1.264l0.146,0.063v0.271l-0.001,0v0.125v0.609v0.827v0.078v3.436c0,0.214,0.045,0.413,0.135,0.597
		l0.48,1.119c0.216,0.507,0.714,0.834,1.264,0.834H12h3.499c0.55,0,1.047-0.327,1.264-0.834l0.48-1.119
		c0.09-0.184,0.135-0.384,0.135-0.597v-3.436v-0.078v-0.827v-0.609v-0.125l-0.001,0v-0.271l0.146-0.063
		c0.507-0.216,0.834-0.714,0.834-1.264v-0.071h0.157h0.609h1.496l-0.232-0.541c-0.216-0.507-0.714-0.834-1.264-0.834h-0.766v-0.575
		h3.551c0.399,0,0.76-0.327,0.917-0.834l0.168-0.541V3.011C22.993,2.521,22.666,2.078,22.159,1.885z M21.618,3.553v6.151h-0.152
		h-1.887h-1.222h-1.375v3.395l-0.146,0.063c-0.003,0.001-0.004,0.003-0.007,0.004l0,0c-0.502,0.218-0.827,0.712-0.827,1.259v4.217
		h0.001v0.521l-0.013,0.609l0,0.03l-0.491,1.146H12H8.501L8.01,19.801l0-0.03l-0.013-0.609v-0.521h0.001v-4.217
		c0-0.547-0.325-1.041-0.827-1.259l0,0c-0.003-0.001-0.004-0.003-0.007-0.004l-0.146-0.063V9.703H5.643H5.201H2.534H2.382V3.553
		V3.053h1.63v0.12v4.905h1.085h0.104h0.186h0.256h1.375V6.852V6.7h3.608L12,8.075L13.374,6.7h3.608v0.152v1.226h1.375h0.256h0.29
		h0.677h0.408V3.173v-0.12h1.63V3.553z"/>
</g>
</svg>
