<?xml version="1.0" encoding="utf-8"?>
<!-- Generator: Adobe Illustrator 24.0.0, SVG Export Plug-In . SVG Version: 6.00 Build 0)  -->
<svg version="1.1" id="Layer" xmlns="http://www.w3.org/2000/svg" xmlns:xlink="http://www.w3.org/1999/xlink" x="0px" y="0px"
	 viewBox="0 0 24 24" enable-background="new 0 0 24 24" xml:space="preserve">
<g>
	<path fill="#231F20" d="M9.384,11.808c-0.231-0.33-0.5-0.457-0.902-0.458H8.275c-0.403,0.001-0.671,0.128-0.902,0.458l-0.642,0.917
		h3.294L9.384,11.808z"/>
	<path fill="#231F20" d="M16.192,11.35h-0.206c-0.403,0.001-0.671,0.128-0.902,0.458l-0.642,0.917h3.294l-0.642-0.917
		C16.863,11.478,16.594,11.351,16.192,11.35z"/>
	<path fill="#231F20" d="M13.431,18.903h-0.767v-1.545c0.354-0.019,0.604-0.145,0.818-0.45l0.642-0.917v-1.375H9.829v1.375
		l0.642,0.917c0.213,0.305,0.464,0.431,0.818,0.45v1.545H10.51c-0.399,0.001-0.665,0.126-0.894,0.454l-0.636,0.908h5.98
		l-0.636-0.908C14.096,19.03,13.829,18.905,13.431,18.903z"/>
	<path fill="#231F20" d="M23,9.053V4.241c0-0.556-0.334-1.056-0.846-1.269l-2.916-1.25c-0.344-0.143-0.729-0.141-1.07,0.005
		l-2.667,1.125c-0.507,0.216-0.834,0.714-0.834,1.264v1.37H9.333v-1.37c0-0.55-0.327-1.047-0.834-1.264L5.832,1.727
		c-0.341-0.147-0.727-0.148-1.07-0.005l-2.916,1.25C1.334,3.185,1,3.685,1,4.241v4.812c0,0.365,0.145,0.714,0.402,0.972l1.537,1.537
		l-1.837,4.287c-0.137,0.319-0.135,0.675-0.019,1.001H1.073l0.021,0.05c0.003,0.006,0.001,0.013,0.004,0.019l2.169,5.205h0.005
		c0.214,0.51,0.713,0.843,1.267,0.843h9.564l-0.001-0.006h5.352c0.552,0,1.048-0.331,1.264-0.837h0l0,0
		c0.001-0.003,0.004-0.005,0.005-0.008l2.196-5.271H22.9c0.114-0.325,0.116-0.678-0.02-0.995l-1.305-3.044l-0.526-1.232l1.548-1.548
		C22.855,9.768,23,9.418,23,9.053z M21.625,9.053l-1.157,1.157l-1.233-2.89c-0.159-0.37-0.381-0.567-0.775-0.65l-1.095-0.23
		l1.099,2.575h-0.008l1.787,4.169l0.11,0.257c0.001,0.002,0.001,0.002,0.002,0.003l1.263,2.946l-2.166,5.197H13.41v0.006H4.538
		l-1.976-4.742H2.557l-0.192-0.46l1.25-2.917c0.007-0.014,0.012-0.016,0.019-0.032l1.138-2.667l0.754-1.759H5.524L6.623,6.44
		L5.527,6.67C5.133,6.753,4.912,6.95,4.752,7.32l-1.229,2.881L2.375,9.053V4.241l2.916-1.25l2.667,1.125v1.37H7.943l0.636,0.909
		c0.229,0.327,0.495,0.452,0.894,0.454h5.035c0.399-0.001,0.665-0.126,0.894-0.454l0.633-0.904l0.007-0.005v-1.37l2.667-1.125
		l2.916,1.25V9.053z"/>
</g>
</svg>
