<?xml version="1.0" encoding="utf-8"?>
<!-- Generator: Adobe Illustrator 23.1.1, SVG Export Plug-In . SVG Version: 6.00 Build 0)  -->
<svg version="1.1" id="Layer_1" xmlns="http://www.w3.org/2000/svg" xmlns:xlink="http://www.w3.org/1999/xlink" x="0px" y="0px"
	 viewBox="0 0 24 24" style="enable-background:new 0 0 24 24;" xml:space="preserve">
<style type="text/css">
	.st0{clip-path:url(#SVGID_2_);fill:#231F20;}
</style>
<g>
	<defs>
		<rect id="SVGID_1_" width="24" height="24"/>
	</defs>
	<clipPath id="SVGID_2_">
		<use xlink:href="#SVGID_1_"  style="overflow:visible;"/>
	</clipPath>
	<path class="st0" d="M7.88,8.59l0.84-0.86l0.2,1.1C9,9.22,8.91,9.5,8.62,9.79l-0.84,0.86l-0.2-1.1C7.5,9.16,7.6,8.88,7.88,8.59
		 M1.51,19.54c0.18,0.14,0.35,0.17,0.58,0.1l0.67-0.21l-0.51-0.4c-0.18-0.14-0.35-0.17-0.58-0.1L1,19.14L1.51,19.54z M2.46,18.46
		c0.18,0.14,0.36,0.17,0.58,0.1l0.67-0.21l-0.51-0.4c-0.18-0.14-0.36-0.17-0.58-0.1l-0.67,0.21L2.46,18.46z M4.11,17.96
		c0.18,0.14,0.35,0.17,0.58,0.1l0.67-0.21l-0.51-0.4c-0.18-0.14-0.35-0.17-0.58-0.1L3.6,17.57L4.11,17.96z M2.67,21.67
		c0.18,0.14,0.36,0.17,0.58,0.1l0.67-0.21L3.4,21.16c-0.18-0.14-0.35-0.17-0.58-0.1l-0.67,0.21L2.67,21.67z M1.57,20.69
		c0.18,0.14,0.36,0.17,0.58,0.1l0.67-0.21l-0.51-0.4c-0.18-0.14-0.36-0.17-0.58-0.1l-0.67,0.21L1.57,20.69z M8.21,22.57l4.23-4.44
		c0.2-0.21,0.22-0.54,0.04-0.77l-2.17-2.88c-0.16-0.21-0.44-0.29-0.68-0.2l-3.28,1.19l-1.7-1.21l1.92-3.28
		c0.09-0.15,0.11-0.32,0.05-0.49L6.1,8.87l6.35-6.07h2.24l7.26,9.23c0.2,0.26,0.58,0.3,0.84,0.1c0.26-0.2,0.31-0.58,0.1-0.84
		l-7.44-9.46c-0.11-0.15-0.29-0.23-0.47-0.23h-2.78c-0.15,0-0.3,0.06-0.41,0.17L5,8.26c-0.17,0.16-0.23,0.4-0.16,0.62l0.55,1.71
		l-2.06,3.52c-0.16,0.27-0.08,0.61,0.17,0.79l2.4,1.71c0.16,0.11,0.37,0.14,0.55,0.08l3.16-1.14l1.59,2.12l-3.88,4.07
		c-0.23,0.24-0.22,0.62,0.02,0.85c0.12,0.11,0.26,0.17,0.41,0.17C7.93,22.75,8.09,22.69,8.21,22.57"/>
</g>
</svg>
