<?xml version="1.0" encoding="iso-8859-1"?>
<!-- Generator: Adobe Illustrator 16.0.0, SVG Export Plug-In . SVG Version: 6.00 Build 0)  -->
<!DOCTYPE svg PUBLIC "-//W3C//DTD SVG 1.1//EN" "http://www.w3.org/Graphics/SVG/1.1/DTD/svg11.dtd">
<svg version="1.1" id="Layer_4" xmlns="http://www.w3.org/2000/svg" xmlns:xlink="http://www.w3.org/1999/xlink" x="0px" y="0px"
	 width="24px" height="24px" viewBox="0 0 24 24" style="enable-background:new 0 0 24 24;" xml:space="preserve">
<path style="fill:#231F20;" d="M23,1.724c0-0.206-0.092-0.4-0.251-0.532c-0.159-0.13-0.367-0.187-0.57-0.143L9.116,3.633
	C8.795,3.695,8.562,3.979,8.562,4.307v14.458l-1.289-0.744c-1.061-0.613-2.136-0.655-3.294-0.125l-2.186,1.02
	c-0.463,0.216-0.769,0.673-0.792,1.186c-0.023,0.512,0.242,0.995,0.686,1.25l1.94,1.122c1.066,0.614,2.142,0.654,3.29,0.121
	l2.186-1.019c0.419-0.195,0.697-0.59,0.766-1.04c0.042-0.088,0.068-0.184,0.068-0.288v-9.876L21.625,8.06v6.598l-1.25-0.72
	c-1.061-0.614-2.137-0.657-3.292-0.127l-2.186,1.02c-0.465,0.216-0.771,0.673-0.792,1.186c-0.022,0.512,0.242,0.995,0.686,1.252
	l1.94,1.122c1.066,0.612,2.142,0.652,3.289,0.119l2.186-1.019c0.464-0.217,0.771-0.674,0.793-1.186
	c0.002-0.046-0.01-0.089-0.013-0.135C22.989,16.146,23,16.126,23,16.101V1.724z M6.336,21.348c-0.729,0.34-1.326,0.336-2.021-0.065
	l-1.94-1.121l2.186-1.02c0.732-0.336,1.325-0.334,2.023,0.07l1.938,1.117L6.336,21.348z M9.938,8.97V4.872L21.625,2.56v4.1
	L9.938,8.97z M19.439,17.263c-0.73,0.34-1.325,0.336-2.022-0.065l-1.939-1.121l2.186-1.02c0.732-0.335,1.326-0.333,2.022,0.07
	l1.939,1.117L19.439,17.263z"/>
</svg>
