<?xml version="1.0" encoding="iso-8859-1"?>
<!-- Generator: Adobe Illustrator 16.0.0, SVG Export Plug-In . SVG Version: 6.00 Build 0)  -->
<!DOCTYPE svg PUBLIC "-//W3C//DTD SVG 1.1//EN" "http://www.w3.org/Graphics/SVG/1.1/DTD/svg11.dtd">
<svg version="1.1" id="Layer_4" xmlns="http://www.w3.org/2000/svg" xmlns:xlink="http://www.w3.org/1999/xlink" x="0px" y="0px"
	 width="16px" height="16px" viewBox="0 0 16 16" style="enable-background:new 0 0 16 16;" xml:space="preserve">
<path style="fill:#231F20;" d="M16,0.526c0-0.149-0.067-0.291-0.183-0.387c-0.116-0.095-0.267-0.136-0.415-0.104l-9.5,1.879
	C5.669,1.961,5.5,2.167,5.5,2.405V12.92l-0.938-0.541c-0.771-0.446-1.554-0.477-2.396-0.091l-1.59,0.741
	c-0.337,0.157-0.56,0.489-0.576,0.862c-0.017,0.372,0.176,0.724,0.499,0.909l1.411,0.816c0.775,0.446,1.558,0.476,2.393,0.088
	l1.59-0.741c0.305-0.142,0.507-0.429,0.557-0.756c0.03-0.064,0.05-0.134,0.05-0.21V6.815L15,5.135v4.798l-0.909-0.523
	c-0.771-0.446-1.554-0.478-2.395-0.092l-1.59,0.741c-0.338,0.157-0.561,0.489-0.576,0.862c-0.017,0.372,0.176,0.724,0.499,0.91
	l1.411,0.816c0.775,0.445,1.558,0.475,2.392,0.087l1.59-0.741c0.338-0.157,0.561-0.49,0.577-0.862
	c0.001-0.033-0.007-0.064-0.009-0.098c0.002-0.018,0.01-0.032,0.01-0.051V0.526z M3.881,14.799c-0.53,0.247-0.964,0.244-1.47-0.048
	L1,13.936l1.59-0.741c0.532-0.244,0.964-0.243,1.472,0.051l1.409,0.812L3.881,14.799z M6.5,5.797v-2.98L15,1.135v2.981L6.5,5.797z
	 M13.41,11.828c-0.531,0.247-0.964,0.244-1.471-0.048l-1.41-0.815l1.59-0.741c0.532-0.244,0.964-0.242,1.471,0.051L15,11.087
	L13.41,11.828z"/>
</svg>
