<?xml version="1.0" encoding="iso-8859-1"?>
<!-- Generator: Adobe Illustrator 16.0.0, SVG Export Plug-In . SVG Version: 6.00 Build 0)  -->
<!DOCTYPE svg PUBLIC "-//W3C//DTD SVG 1.1//EN" "http://www.w3.org/Graphics/SVG/1.1/DTD/svg11.dtd">
<svg version="1.1" id="Layer" xmlns="http://www.w3.org/2000/svg" xmlns:xlink="http://www.w3.org/1999/xlink" x="0px" y="0px"
	 width="24px" height="24px" viewBox="0 0 24 24" style="enable-background:new 0 0 24 24;" xml:space="preserve">
<path style="fill:#231F20;" d="M19.874,5.75h-2.763l-1.341-2.138C15.516,3.229,15.086,3,14.626,3H9.374
	C8.914,3,8.484,3.229,8.229,3.612L6.889,5.75H4.126C2.402,5.75,1,7.153,1,8.877v8.997C1,19.598,2.402,21,4.126,21h15.748
	C21.598,21,23,19.598,23,17.874V8.877C23,7.153,21.598,5.75,19.874,5.75z M21.625,17.874c0,0.971-0.785,1.751-1.751,1.751H4.126
	c-0.966,0-1.751-0.78-1.751-1.751V8.877c0-0.964,0.785-1.752,1.751-1.752h3.499l1.749-2.75h5.253l1.749,2.75h3.499
	c0.966,0,1.751,0.788,1.751,1.752V17.874z M12,8.507c-2.689,0-4.876,2.058-4.876,4.743c0,2.688,2.188,4.874,4.876,4.874
	s4.876-2.187,4.876-4.874C16.876,10.564,14.689,8.507,12,8.507z M12,16.749c-1.932,0-3.501-1.563-3.501-3.499S10.068,9.753,12,9.753
	s3.501,1.562,3.501,3.497S13.932,16.749,12,16.749z"/>
</svg>
