<?xml version="1.0" encoding="iso-8859-1"?>
<!-- Generator: Adobe Illustrator 16.0.0, SVG Export Plug-In . SVG Version: 6.00 Build 0)  -->
<!DOCTYPE svg PUBLIC "-//W3C//DTD SVG 1.1//EN" "http://www.w3.org/Graphics/SVG/1.1/DTD/svg11.dtd">
<svg version="1.1" id="Layer" xmlns="http://www.w3.org/2000/svg" xmlns:xlink="http://www.w3.org/1999/xlink" x="0px" y="0px"
	 width="16px" height="16px" viewBox="0 0 16 16" style="enable-background:new 0 0 16 16;" xml:space="preserve">
<path style="fill:#231F20;" d="M13.727,3.5h-2.009l-0.975-1.555C10.557,1.667,10.244,1.5,9.91,1.5H6.09
	c-0.334,0-0.646,0.167-0.832,0.445L4.283,3.5H2.273C1.02,3.5,0,4.521,0,5.774v6.452C0,13.48,1.02,14.5,2.273,14.5h11.453
	C14.98,14.5,16,13.48,16,12.227V5.774C16,4.521,14.98,3.5,13.727,3.5z M15,12.227c0,0.706-0.571,1.273-1.273,1.273H2.273
	C1.571,13.5,1,12.933,1,12.227V5.774C1,5.073,1.571,4.5,2.273,4.5h2.544l1.272-2h3.82l1.272,2h2.544C14.429,4.5,15,5.073,15,5.774
	V12.227z M8,5.414c-1.956,0-3.546,1.496-3.546,3.449c0,1.955,1.591,3.545,3.546,3.545s3.546-1.59,3.546-3.545
	C11.546,6.91,9.956,5.414,8,5.414z M8,11.408c-1.405,0-2.546-1.137-2.546-2.545C5.454,7.456,6.595,6.32,8,6.32
	s2.546,1.136,2.546,2.543C10.546,10.271,9.405,11.408,8,11.408z"/>
</svg>
