<?xml version="1.0" encoding="iso-8859-1"?>
<!-- Generator: Adobe Illustrator 16.0.0, SVG Export Plug-In . SVG Version: 6.00 Build 0)  -->
<!DOCTYPE svg PUBLIC "-//W3C//DTD SVG 1.1//EN" "http://www.w3.org/Graphics/SVG/1.1/DTD/svg11.dtd">
<svg version="1.1" id="Layer" xmlns="http://www.w3.org/2000/svg" xmlns:xlink="http://www.w3.org/1999/xlink" x="0px" y="0px"
	 width="24px" height="24px" viewBox="0 0 24 24" style="enable-background:new 0 0 24 24;" xml:space="preserve">
<path style="fill:#231F20;" d="M22.151,5.229c-0.171-0.071-0.35-0.104-0.527-0.104c-0.358,0-0.709,0.14-0.973,0.402L19.677,6.5
	h-4.914V5.125H4.441C2.543,5.125,1,6.665,1,8.562v10.312h10.323c1.897,0,3.441-1.54,3.441-3.438V13.39
	c0.228-0.001,4.915-0.014,4.915-0.014l0.972,0.972c0.263,0.263,0.614,0.402,0.973,0.402c0.177,0,0.356-0.033,0.527-0.104
	C22.666,14.434,23,13.931,23,13.375V6.5C23,5.944,22.666,5.441,22.151,5.229z M11.323,17.5H2.376V8.562
	c0-1.138,0.926-2.062,2.065-2.062h8.946v1.269c-0.003,0.036-0.003,4.317,0,4.354v3.315C13.387,16.575,12.461,17.5,11.323,17.5z
	 M21.634,13.375L20.247,12l-5.483,0.015v-4.14h5.483L21.634,6.5V13.375z"/>
</svg>
