<?xml version="1.0" encoding="iso-8859-1"?>
<!-- Generator: Adobe Illustrator 16.0.0, SVG Export Plug-In . SVG Version: 6.00 Build 0)  -->
<!DOCTYPE svg PUBLIC "-//W3C//DTD SVG 1.1//EN" "http://www.w3.org/Graphics/SVG/1.1/DTD/svg11.dtd">
<svg version="1.1" id="Layer" xmlns="http://www.w3.org/2000/svg" xmlns:xlink="http://www.w3.org/1999/xlink" x="0px" y="0px"
	 width="16px" height="16px" viewBox="0 0 16 16" style="enable-background:new 0 0 16 16;" xml:space="preserve">
<path style="fill:#231F20;" d="M15.382,3.076C15.258,3.024,15.128,3,14.999,3c-0.261,0-0.516,0.102-0.708,0.293L13.583,4H10.01V3
	H2.503C1.123,3,0,4.12,0,5.5V13h7.507c1.38,0,2.502-1.12,2.502-2.5V9.011c0.166-0.001,3.575-0.01,3.575-0.01l0.707,0.706
	C14.483,9.898,14.738,10,14.999,10c0.129,0,0.259-0.024,0.383-0.076C15.757,9.77,16,9.404,16,9V4C16,3.596,15.757,3.23,15.382,3.076
	z M7.507,12H1.001V5.5c0-0.827,0.674-1.5,1.502-1.5h6.506v0.923c-0.002,0.026-0.002,3.14,0,3.166V10.5
	C9.009,11.327,8.335,12,7.507,12z M15.007,9l-1.009-1L10.01,8.011V5h3.988l1.009-1V9z"/>
</svg>
