<?xml version="1.0" encoding="iso-8859-1"?>
<!-- Generator: Adobe Illustrator 16.0.0, SVG Export Plug-In . SVG Version: 6.00 Build 0)  -->
<!DOCTYPE svg PUBLIC "-//W3C//DTD SVG 1.1//EN" "http://www.w3.org/Graphics/SVG/1.1/DTD/svg11.dtd">
<svg version="1.1" id="Layer" xmlns="http://www.w3.org/2000/svg" xmlns:xlink="http://www.w3.org/1999/xlink" x="0px" y="0px"
	 width="16px" height="16px" viewBox="0 0 16 16" style="enable-background:new 0 0 16 16;" xml:space="preserve">
<path style="fill:#231F20;" d="M8,0C6.384,0,5,1.304,5,2.907V8c0,1.604,1.384,3,3,3s3-1.396,3-3V2.907C11,1.304,9.616,0,8,0z M10,8
	c0,1.055-0.935,2-2,2c-1.066,0-2-0.945-2-2V2.907C6,1.854,6.934,1,8,1c1.065,0,2,0.854,2,1.907V8z M12.347,7.057
	C12.107,7.225,12,7.43,12,7.723V8c0,2.18-1.794,4-4,4s-4-1.82-4-4V7.723C4,7.43,3.893,7.225,3.653,7.057l-0.63-0.441
	C3.014,6.652,3,6.687,3,6.727V8c0,2.565,1.986,4.703,4.51,4.951C7.508,12.968,7.5,12.982,7.5,13v2H6.623
	c-0.293,0-0.498,0.107-0.666,0.348L5.5,16h4.969l-0.457-0.652C9.844,15.107,9.639,15,9.346,15H8.5v-2
	c0-0.018-0.008-0.032-0.01-0.049C11.014,12.703,13,10.565,13,8V6.727c0-0.04-0.014-0.074-0.022-0.111L12.347,7.057z"/>
</svg>
