<?xml version="1.0" encoding="iso-8859-1"?>
<!-- Generator: Adobe Illustrator 16.0.0, SVG Export Plug-In . SVG Version: 6.00 Build 0)  -->
<!DOCTYPE svg PUBLIC "-//W3C//DTD SVG 1.1//EN" "http://www.w3.org/Graphics/SVG/1.1/DTD/svg11.dtd">
<svg version="1.1" id="Layer" xmlns="http://www.w3.org/2000/svg" xmlns:xlink="http://www.w3.org/1999/xlink" x="0px" y="0px"
	 width="24px" height="24px" viewBox="0 0 24 24" style="enable-background:new 0 0 24 24;" xml:space="preserve">
<path style="fill:#231F20;" d="M12,1C9.778,1,7.875,2.793,7.875,4.997V12c0,2.205,1.903,4.125,4.125,4.125s4.125-1.92,4.125-4.125
	V4.997C16.125,2.793,14.222,1,12,1z M14.75,12c0,1.45-1.285,2.75-2.75,2.75c-1.466,0-2.75-1.3-2.75-2.75V4.997
	c0-1.447,1.284-2.622,2.75-2.622c1.465,0,2.75,1.175,2.75,2.622V12z M17.978,10.703c-0.33,0.23-0.478,0.513-0.478,0.916V12
	c0,2.997-2.467,5.5-5.5,5.5S6.5,14.997,6.5,12v-0.381c0-0.403-0.147-0.686-0.478-0.916l-0.867-0.607
	c-0.012,0.051-0.031,0.099-0.031,0.153V12c0,3.527,2.73,6.467,6.201,6.808c-0.002,0.023-0.014,0.043-0.014,0.067v2.75h-1.206
	c-0.402,0-0.685,0.147-0.916,0.479L8.562,23h6.832l-0.628-0.896c-0.231-0.331-0.513-0.479-0.916-0.479h-1.163v-2.75
	c0-0.024-0.011-0.044-0.014-0.067c3.471-0.341,6.201-3.28,6.201-6.808v-1.751c0-0.055-0.019-0.103-0.031-0.153L17.978,10.703z"/>
</svg>
