<?xml version="1.0" encoding="iso-8859-1"?>
<!-- Generator: Adobe Illustrator 16.0.0, SVG Export Plug-In . SVG Version: 6.00 Build 0)  -->
<!DOCTYPE svg PUBLIC "-//W3C//DTD SVG 1.1//EN" "http://www.w3.org/Graphics/SVG/1.1/DTD/svg11.dtd">
<svg version="1.1" id="Layer" xmlns="http://www.w3.org/2000/svg" xmlns:xlink="http://www.w3.org/1999/xlink" x="0px" y="0px"
	 width="24px" height="24px" viewBox="0 0 24 24" style="enable-background:new 0 0 24 24;" xml:space="preserve">
<path style="fill:#231F20;" d="M17.543,14.256c-0.444-0.439-0.229-0.944-0.229-0.944C17.45,12.834,17.5,12.517,17.5,12v-0.381
	c0-0.403,0.148-0.686,0.478-0.916l0.867-0.607c0.012,0.051,0.031,0.099,0.031,0.153V12c0,0.91-0.09,1.528-0.419,2.326
	C18.456,14.326,18.063,14.771,17.543,14.256z M8.584,5.49C9.271,5.469,9.25,4.997,9.25,4.997c0-1.447,1.284-2.622,2.75-2.622
	c1.465,0,2.75,1.175,2.75,2.622v5.973c0,0-0.064,1.03,0.688,1.03c0.602,0,0.688-0.452,0.688-0.559V4.997C16.125,2.793,14.222,1,12,1
	c-1.941,0-3.638,1.368-4.036,3.184C7.964,4.184,7.649,5.52,8.584,5.49z M22.15,21.825l-0.194,1.103l-5.643-5.643
	c-1.015,0.831-2.263,1.387-3.639,1.522c0.002,0.023,0.013,0.043,0.013,0.067v2.75h1.163c0.403,0,0.685,0.147,0.916,0.479L15.395,23
	H8.562l0.628-0.896c0.231-0.331,0.513-0.479,0.916-0.479h1.206v-2.75c0-0.024,0.011-0.044,0.014-0.067
	C7.855,18.467,5.125,15.527,5.125,12v-1.751c0-0.055,0.019-0.103,0.031-0.153l0.867,0.607c0.33,0.23,0.478,0.513,0.478,0.916V12
	c0,2.997,2.467,5.5,5.5,5.5c1.267,0,2.422-0.448,3.348-1.181l-1.003-1.003c-0.675,0.492-1.477,0.809-2.345,0.809
	c-2.222,0-4.125-1.92-4.125-4.125V8.848L2.531,3.503L2.069,2.992C1.881,2.752,1.791,2.507,1.85,2.175l0.195-1.103l19.424,19.425h0
	l0.282,0.312l0.18,0.199C22.118,21.248,22.209,21.493,22.15,21.825z M13.373,14.345L9.25,10.223V12c0,1.45,1.284,2.75,2.75,2.75
	C12.495,14.75,12.964,14.599,13.373,14.345z"/>
</svg>
