<?xml version="1.0" encoding="iso-8859-1"?>
<!-- Generator: Adobe Illustrator 16.0.0, SVG Export Plug-In . SVG Version: 6.00 Build 0)  -->
<!DOCTYPE svg PUBLIC "-//W3C//DTD SVG 1.1//EN" "http://www.w3.org/Graphics/SVG/1.1/DTD/svg11.dtd">
<svg version="1.1" id="Layer" xmlns="http://www.w3.org/2000/svg" xmlns:xlink="http://www.w3.org/1999/xlink" x="0px" y="0px"
	 width="16px" height="16px" viewBox="0 0 16 16" style="enable-background:new 0 0 16 16;" xml:space="preserve">
<path style="fill:#231F20;" d="M12.031,9.641c-0.323-0.319-0.167-0.687-0.167-0.687C11.964,8.606,12,8.376,12,8V7.723
	c0-0.293,0.107-0.498,0.347-0.666l0.63-0.441C12.986,6.652,13,6.687,13,6.727V8c0,0.662-0.065,1.111-0.305,1.691
	C12.695,9.691,12.41,10.016,12.031,9.641z M5.516,3.266C6.016,3.25,6,2.907,6,2.907C6,1.854,6.934,1,8,1c1.065,0,2,0.854,2,1.907
	v4.344C10,7.251,9.953,8,10.5,8C10.938,8,11,7.671,11,7.594V2.907C11,1.304,9.616,0,8,0C6.588,0,5.354,0.995,5.064,2.315
	C5.064,2.315,4.836,3.287,5.516,3.266z M15.382,15.146l-0.142,0.802l-4.104-4.104c-0.738,0.604-1.646,1.009-2.646,1.107
	C8.492,12.968,8.5,12.982,8.5,13v2h0.846c0.293,0,0.498,0.107,0.666,0.348L10.469,16H5.5l0.457-0.652C6.125,15.107,6.33,15,6.623,15
	H7.5v-2c0-0.018,0.008-0.032,0.01-0.049C4.986,12.703,3,10.565,3,8V6.727c0-0.04,0.014-0.074,0.022-0.111l0.63,0.441
	C3.893,7.225,4,7.43,4,7.723V8c0,2.18,1.794,4,4,4c0.921,0,1.761-0.326,2.435-0.858l-0.729-0.729C9.214,10.77,8.631,11,8,11
	c-1.616,0-3-1.396-3-3V5.707L1.113,1.82L0.777,1.449C0.641,1.274,0.575,1.096,0.618,0.854L0.76,0.053L14.887,14.18h0l0.205,0.227
	l0.131,0.145C15.358,14.726,15.425,14.904,15.382,15.146z M8.998,9.705L6,6.707V8c0,1.055,0.934,2,2,2
	C8.36,10,8.701,9.89,8.998,9.705z"/>
</svg>
