<?xml version="1.0" encoding="iso-8859-1"?>
<!-- Generator: Adobe Illustrator 16.0.0, SVG Export Plug-In . SVG Version: 6.00 Build 0)  -->
<!DOCTYPE svg PUBLIC "-//W3C//DTD SVG 1.1//EN" "http://www.w3.org/Graphics/SVG/1.1/DTD/svg11.dtd">
<svg version="1.1" id="Layer" xmlns="http://www.w3.org/2000/svg" xmlns:xlink="http://www.w3.org/1999/xlink" x="0px" y="0px"
	 width="24px" height="24px" viewBox="0 0 24 24" style="enable-background:new 0 0 24 24;" xml:space="preserve">
<path style="fill:#231F20;" d="M7.874,5.812c-1.136,0-2.061,0.924-2.061,2.062s0.925,2.062,2.061,2.062
	c1.138,0,2.063-0.924,2.063-2.062S9.012,5.812,7.874,5.812z M7.874,8.562c-0.379,0-0.687-0.307-0.687-0.688
	c0-0.379,0.307-0.688,0.687-0.688c0.381,0,0.688,0.309,0.688,0.688C8.562,8.256,8.255,8.562,7.874,8.562z M6.502,1
	C3.463,1,1,3.461,1,6.5V23h16.5c3.014,0,5.456-2.427,5.493-5.433L23,17.572V1H6.502z M2.375,14.242l4.058,2.842l-3.58,2.529
	c-0.33,0.232-0.478,0.492-0.478,0.894V14.242z M21.625,17.5c0,2.274-1.85,4.125-4.125,4.125H2.375l12.724-8.988
	c0.151-0.107,0.304-0.163,0.458-0.163s0.306,0.056,0.458,0.163l5.611,3.964V17.5z M21.625,14.926l-6.069-4.289l-7.93,5.604
	l-5.251-3.676V6.5c0-2.274,1.851-4.125,4.126-4.125h15.124V14.926z"/>
</svg>
