<?xml version="1.0" encoding="utf-8"?>
<!-- Generator: Adobe Illustrator 16.0.0, SVG Export Plug-In . SVG Version: 6.00 Build 0)  -->
<!DOCTYPE svg PUBLIC "-//W3C//DTD SVG 1.1//EN" "http://www.w3.org/Graphics/SVG/1.1/DTD/svg11.dtd">
<svg version="1.1" id="Layer" xmlns="http://www.w3.org/2000/svg" xmlns:xlink="http://www.w3.org/1999/xlink" x="0px" y="0px"
	 width="16px" height="16px" viewBox="0 0 16 16" enable-background="new 0 0 16 16" xml:space="preserve">
<path fill="#231F20" d="M5,3.5C4.173,3.5,3.5,4.172,3.5,5S4.173,6.5,5,6.5c0.827,0,1.5-0.672,1.5-1.5S5.827,3.5,5,3.5z M5,5.5
	C4.724,5.5,4.5,5.277,4.5,5c0-0.275,0.224-0.5,0.5-0.5c0.277,0,0.5,0.225,0.5,0.5C5.5,5.277,5.276,5.5,5,5.5z M4.001,0
	C1.792,0,0,1.79,0,4v12h12c2.192,0,3.968-1.765,3.995-3.951L16,12.053V0H4.001z M1,9.631l2.951,2.066l-2.604,1.84
	C1.108,13.706,1,13.895,1,14.187V9.631z M15,12c0,1.654-1.346,3-3,3H1l9.253-6.537c0.11-0.078,0.221-0.118,0.333-0.118
	c0.111,0,0.222,0.04,0.333,0.118L15,11.346V12z M15,10.128l-4.414-3.119l-5.768,4.075L1,8.41V4c0-1.654,1.346-3,3.001-3H15V10.128z"
	/>
</svg>
