<?xml version="1.0" encoding="iso-8859-1"?>
<!-- Generator: Adobe Illustrator 16.0.0, SVG Export Plug-In . SVG Version: 6.00 Build 0)  -->
<!DOCTYPE svg PUBLIC "-//W3C//DTD SVG 1.1//EN" "http://www.w3.org/Graphics/SVG/1.1/DTD/svg11.dtd">
<svg version="1.1" id="Layer_2" xmlns="http://www.w3.org/2000/svg" xmlns:xlink="http://www.w3.org/1999/xlink" x="0px" y="0px"
	 width="24px" height="24px" viewBox="0 0 24 24" style="enable-background:new 0 0 24 24;" xml:space="preserve">
<path style="fill:#231F20;" d="M22.365,4.916l0.628,0.896H16.12c-0.379,0-0.688-0.308-0.688-0.688s0.309-0.688,0.688-0.688
	l5.329,0.001C21.853,4.438,22.135,4.587,22.365,4.916z M22.993,12.687l-0.628-0.897c-0.23-0.329-0.512-0.477-0.916-0.477h-8.078
	c-0.379,0-0.688,0.308-0.688,0.688s0.308,0.688,0.688,0.688L22.993,12.687c0.003,0.001,0.004,0,0.007,0H22.993z M21.449,18.188
	l-2.58-0.001c-0.38,0-0.688,0.308-0.688,0.688s0.308,0.688,0.688,0.688h4.124l-0.628-0.896
	C22.135,18.337,21.853,18.188,21.449,18.188z M11.309,7.188c-0.896,0-1.651-0.574-1.936-1.375h-6.83
	c-0.402,0-0.684-0.149-0.915-0.479L1,4.438h8.374c0.284-0.801,1.04-1.375,1.936-1.375c1.138,0,2.062,0.923,2.062,2.062
	S12.447,7.188,11.309,7.188z M11.309,4.438c-0.378,0-0.688,0.309-0.688,0.688s0.309,0.688,0.688,0.688
	c0.379,0,0.688-0.309,0.688-0.688S11.688,4.438,11.309,4.438z M8.56,14.062c-0.896,0-1.651-0.574-1.936-1.375H2.543
	c-0.402,0-0.684-0.149-0.915-0.479L1,11.312h5.624c0.284-0.801,1.04-1.375,1.936-1.375c1.139,0,2.062,0.923,2.062,2.062
	S9.698,14.062,8.56,14.062z M8.56,11.312c-0.378,0-0.687,0.309-0.687,0.688s0.308,0.688,0.687,0.688
	c0.379,0,0.688-0.309,0.688-0.688S8.939,11.312,8.56,11.312z M14.059,20.938c-0.896,0-1.652-0.574-1.936-1.375h-9.58
	c-0.402,0-0.684-0.149-0.915-0.479L1,18.188h11.123c0.284-0.801,1.04-1.375,1.936-1.375c1.138,0,2.062,0.923,2.062,2.062
	S15.196,20.938,14.059,20.938z M14.059,18.188c-0.379,0-0.688,0.309-0.688,0.688s0.309,0.688,0.688,0.688
	c0.379,0,0.687-0.309,0.687-0.688S14.438,18.188,14.059,18.188z"/>
</svg>
