<?xml version="1.0" encoding="utf-8"?>
<!-- Generator: Adobe Illustrator 16.0.0, SVG Export Plug-In . SVG Version: 6.00 Build 0)  -->
<!DOCTYPE svg PUBLIC "-//W3C//DTD SVG 1.1//EN" "http://www.w3.org/Graphics/SVG/1.1/DTD/svg11.dtd">
<svg version="1.1" id="Layer_2" xmlns="http://www.w3.org/2000/svg" xmlns:xlink="http://www.w3.org/1999/xlink" x="0px" y="0px"
	 width="16px" height="16px" viewBox="0 0 16 16" enable-background="new 0 0 16 16" xml:space="preserve">
<path fill="#231F20" d="M15.538,2.848L15.995,3.5h-4.999c-0.276,0-0.5-0.224-0.5-0.5s0.224-0.5,0.5-0.5l3.875,0.001
	C15.166,2.501,15.371,2.608,15.538,2.848z M15.995,8.499l-0.457-0.652C15.371,7.607,15.166,7.5,14.872,7.5H8.997
	c-0.276,0-0.5,0.224-0.5,0.5s0.224,0.5,0.5,0.5L15.995,8.499c0.002,0.001,0.003,0,0.005,0H15.995z M14.872,12.501L12.996,12.5
	c-0.276,0-0.5,0.224-0.5,0.5s0.224,0.5,0.5,0.5h2.999l-0.457-0.652C15.371,12.608,15.166,12.501,14.872,12.501z M7.498,4.5
	c-0.651,0-1.201-0.418-1.408-1H1.123c-0.292,0-0.498-0.108-0.666-0.348L0,2.5h6.09c0.207-0.582,0.756-1,1.408-1
	c0.828,0,1.5,0.671,1.5,1.5S8.325,4.5,7.498,4.5z M7.498,2.5c-0.275,0-0.5,0.225-0.5,0.5s0.225,0.5,0.5,0.5
	c0.276,0,0.5-0.225,0.5-0.5S7.773,2.5,7.498,2.5z M5.498,9.5c-0.651,0-1.201-0.418-1.408-1H1.123c-0.292,0-0.498-0.108-0.666-0.348
	L0,7.5h4.09c0.207-0.582,0.756-1,1.408-1c0.828,0,1.5,0.671,1.5,1.5S6.326,9.5,5.498,9.5z M5.498,7.5c-0.275,0-0.5,0.225-0.5,0.5
	s0.224,0.5,0.5,0.5c0.276,0,0.5-0.225,0.5-0.5S5.774,7.5,5.498,7.5z M9.497,14.5c-0.651,0-1.201-0.418-1.408-1H1.123
	c-0.292,0-0.498-0.108-0.666-0.348L0,12.5h8.089c0.207-0.582,0.756-1,1.408-1c0.828,0,1.5,0.671,1.5,1.5S10.325,14.5,9.497,14.5z
	 M9.497,12.5c-0.275,0-0.5,0.225-0.5,0.5s0.225,0.5,0.5,0.5c0.276,0,0.5-0.225,0.5-0.5S9.773,12.5,9.497,12.5z"/>
</svg>
