<?xml version="1.0" encoding="iso-8859-1"?>
<!-- Generator: Adobe Illustrator 16.0.0, SVG Export Plug-In . SVG Version: 6.00 Build 0)  -->
<!DOCTYPE svg PUBLIC "-//W3C//DTD SVG 1.1//EN" "http://www.w3.org/Graphics/SVG/1.1/DTD/svg11.dtd">
<svg version="1.1" id="Layer" xmlns="http://www.w3.org/2000/svg" xmlns:xlink="http://www.w3.org/1999/xlink" x="0px" y="0px"
	 width="24px" height="24px" viewBox="0 0 24 24" style="enable-background:new 0 0 24 24;" xml:space="preserve">
<path style="fill:#231F20;" d="M15.761,1.136C15.572,1.044,15.369,1,15.166,1c-0.306,0-0.611,0.102-0.859,0.301L7.809,6.5H2.791
	c-0.76,0-1.375,0.615-1.375,1.375v8.25c0,0.76,0.615,1.375,1.375,1.375h5.018l6.498,5.199C14.555,22.898,14.86,23,15.166,23
	c0.203,0,0.406-0.044,0.595-0.136c0.477-0.229,0.78-0.71,0.78-1.239V2.375C16.541,1.846,16.238,1.365,15.761,1.136z M15.166,21.625
	l-6.875-5.5h-5.5v-8.25h5.5l6.875-5.5V21.625z M18.896,6.854c0.329,1.787,0.49,3.471,0.49,5.146s-0.161,3.358-0.49,5.146
	c-0.014,0.074-0.043,0.14-0.077,0.203l0.009-0.058l-0.799-0.785c-0.242-0.234-0.312-0.487-0.298-0.792c0,0,0.279-2.317,0.279-3.714
	s-0.279-3.714-0.279-3.714c-0.014-0.305,0.056-0.558,0.298-0.792l0.799-0.785L18.82,6.651C18.854,6.715,18.883,6.78,18.896,6.854z
	 M22.584,12c0,2.842-0.414,5.686-1.221,8.457l-0.757-0.803c-0.216-0.229-0.274-0.469-0.262-0.747
	c0.563-2.277,0.865-4.594,0.865-6.907s-0.302-4.63-0.865-6.907c-0.012-0.278,0.046-0.519,0.262-0.747l0.757-0.803
	C22.17,6.314,22.584,9.158,22.584,12z"/>
</svg>
