<?xml version="1.0" encoding="iso-8859-1"?>
<!-- Generator: Adobe Illustrator 16.0.0, SVG Export Plug-In . SVG Version: 6.00 Build 0)  -->
<!DOCTYPE svg PUBLIC "-//W3C//DTD SVG 1.1//EN" "http://www.w3.org/Graphics/SVG/1.1/DTD/svg11.dtd">
<svg version="1.1" id="Layer" xmlns="http://www.w3.org/2000/svg" xmlns:xlink="http://www.w3.org/1999/xlink" x="0px" y="0px"
	 width="16px" height="16px" viewBox="0 0 16 16" style="enable-background:new 0 0 16 16;" xml:space="preserve">
<path style="fill:#231F20;" d="M10.735,0.099C10.598,0.032,10.45,0,10.303,0C10.08,0,9.858,0.074,9.678,0.219L4.952,4H1.303
	c-0.553,0-1,0.447-1,1v6c0,0.553,0.447,1,1,1h3.649l4.726,3.781C9.858,15.926,10.08,16,10.303,16c0.147,0,0.295-0.032,0.433-0.099
	c0.347-0.167,0.567-0.517,0.567-0.901V1C11.303,0.615,11.082,0.266,10.735,0.099z M10.303,15l-5-4h-4V5h4l5-4V15z M13.016,4.258
	c0.239,1.3,0.356,2.524,0.356,3.742s-0.117,2.442-0.356,3.742c-0.01,0.054-0.031,0.102-0.056,0.147l0.007-0.042l-0.581-0.57
	c-0.176-0.171-0.227-0.354-0.217-0.576c0,0,0.203-1.686,0.203-2.701s-0.203-2.701-0.203-2.701c-0.01-0.222,0.041-0.405,0.217-0.576
	l0.581-0.57L12.96,4.11C12.984,4.156,13.006,4.204,13.016,4.258z M15.697,8c0,2.066-0.301,4.135-0.888,6.15l-0.551-0.584
	c-0.157-0.166-0.199-0.341-0.19-0.543c0.409-1.656,0.629-3.341,0.629-5.023s-0.22-3.367-0.629-5.023
	c-0.009-0.202,0.033-0.377,0.19-0.543L14.81,1.85C15.396,3.865,15.697,5.934,15.697,8z"/>
</svg>
