<?xml version="1.0" encoding="iso-8859-1"?>
<!-- Generator: Adobe Illustrator 16.0.0, SVG Export Plug-In . SVG Version: 6.00 Build 0)  -->
<!DOCTYPE svg PUBLIC "-//W3C//DTD SVG 1.1//EN" "http://www.w3.org/Graphics/SVG/1.1/DTD/svg11.dtd">
<svg version="1.1" id="Layer" xmlns="http://www.w3.org/2000/svg" xmlns:xlink="http://www.w3.org/1999/xlink" x="0px" y="0px"
	 width="24px" height="24px" viewBox="0 0 24 24" style="enable-background:new 0 0 24 24;" xml:space="preserve">
<path style="fill:#231F20;" d="M9.279,5.655c0-0.205,0.12-0.429,0.23-0.516c4.521-3.635,4.798-3.839,4.798-3.839
	C14.556,1.102,14.86,1,15.166,1c0.203,0,0.406,0.044,0.596,0.136c0.477,0.229,0.779,0.71,0.779,1.239v8.938
	c0,0.38-0.307,0.688-0.688,0.688c-0.38,0-0.688-0.308-0.688-0.688s0-0.516,0-0.516V2.375l-4.69,3.732
	c-0.126,0.142-0.304,0.235-0.509,0.235C9.587,6.343,9.279,6.035,9.279,5.655z M22.347,21.008l-0.462-0.511L2.461,1.072L2.266,2.175
	C2.207,2.507,2.297,2.752,2.485,2.992L5.944,6.5H2.791c-0.759,0-1.375,0.615-1.375,1.375v8.25c0,0.76,0.616,1.375,1.375,1.375h5.018
	l6.499,5.199C14.556,22.898,14.86,23,15.166,23c0.203,0,0.406-0.044,0.596-0.136c0.477-0.229,0.779-0.71,0.779-1.239v-4.527
	l5.831,5.83l0.195-1.103C22.625,21.493,22.534,21.248,22.347,21.008z M15.166,21.625l-6.875-5.5h-5.5v-8.25h4.528l7.847,7.848
	V21.625z"/>
</svg>
