<?xml version="1.0" encoding="iso-8859-1"?>
<!-- Generator: Adobe Illustrator 16.0.0, SVG Export Plug-In . SVG Version: 6.00 Build 0)  -->
<!DOCTYPE svg PUBLIC "-//W3C//DTD SVG 1.1//EN" "http://www.w3.org/Graphics/SVG/1.1/DTD/svg11.dtd">
<svg version="1.1" id="Layer" xmlns="http://www.w3.org/2000/svg" xmlns:xlink="http://www.w3.org/1999/xlink" x="0px" y="0px"
	 width="16px" height="16px" viewBox="0 0 16 16" style="enable-background:new 0 0 16 16;" xml:space="preserve">
<path style="fill:#231F20;" d="M6.021,3.386c0-0.149,0.087-0.312,0.167-0.375c3.289-2.644,3.49-2.792,3.49-2.792
	C9.859,0.074,10.08,0,10.303,0c0.147,0,0.295,0.032,0.433,0.099C11.083,0.266,11.303,0.615,11.303,1v6.5c0,0.276-0.224,0.5-0.5,0.5
	s-0.5-0.224-0.5-0.5s0-0.375,0-0.375V1L6.892,3.715C6.8,3.817,6.67,3.886,6.521,3.886C6.245,3.886,6.021,3.662,6.021,3.386z
	 M15.525,14.551l-0.336-0.371L1.062,0.053L0.921,0.854C0.878,1.096,0.943,1.274,1.08,1.449L3.596,4H1.303c-0.552,0-1,0.447-1,1v6
	c0,0.553,0.448,1,1,1h3.649l4.726,3.781C9.859,15.926,10.08,16,10.303,16c0.147,0,0.295-0.032,0.433-0.099
	c0.347-0.167,0.567-0.517,0.567-0.901v-3.293l4.24,4.24l0.142-0.802C15.728,14.904,15.661,14.726,15.525,14.551z M10.303,15l-5-4h-4
	V5h3.293l5.707,5.707V15z"/>
</svg>
