<?xml version="1.0" encoding="iso-8859-1"?>
<!-- Generator: Adobe Illustrator 16.0.0, SVG Export Plug-In . SVG Version: 6.00 Build 0)  -->
<!DOCTYPE svg PUBLIC "-//W3C//DTD SVG 1.1//EN" "http://www.w3.org/Graphics/SVG/1.1/DTD/svg11.dtd">
<svg version="1.1" id="Layer" xmlns="http://www.w3.org/2000/svg" xmlns:xlink="http://www.w3.org/1999/xlink" x="0px" y="0px"
	 width="24px" height="24px" viewBox="0 0 24 24" style="enable-background:new 0 0 24 24;" xml:space="preserve">
<path style="fill:#231F20;" d="M12,1C5.935,1,1,5.935,1,12v8.594C1,21.923,2.077,23,3.406,23h4.469v-7.219
	c0-1.329-1.077-2.406-2.406-2.406H2.375V12c0-5.307,4.318-9.625,9.625-9.625S21.625,6.693,21.625,12v1.375h-3.094
	c-1.329,0-2.406,1.077-2.406,2.406V23h4.469C21.923,23,23,21.923,23,20.594V12C23,5.935,18.065,1,12,1z M5.469,14.75
	c0.569,0,1.031,0.463,1.031,1.031v5.844H3.406c-0.569,0-1.031-0.463-1.031-1.031V14.75H5.469z M21.625,20.594
	c0,0.568-0.462,1.031-1.031,1.031H17.5v-5.844c0-0.568,0.462-1.031,1.031-1.031h3.094V20.594z"/>
</svg>
