<?xml version="1.0" encoding="iso-8859-1"?>
<!-- Generator: Adobe Illustrator 16.0.0, SVG Export Plug-In . SVG Version: 6.00 Build 0)  -->
<!DOCTYPE svg PUBLIC "-//W3C//DTD SVG 1.1//EN" "http://www.w3.org/Graphics/SVG/1.1/DTD/svg11.dtd">
<svg version="1.1" id="Layer" xmlns="http://www.w3.org/2000/svg" xmlns:xlink="http://www.w3.org/1999/xlink" x="0px" y="0px"
	 width="16px" height="16px" viewBox="0 0 16 16" style="enable-background:new 0 0 16 16;" xml:space="preserve">
<path style="fill:#231F20;" d="M8,0C3.589,0,0,3.589,0,8v6.25C0,15.217,0.783,16,1.75,16H5v-5.25C5,9.783,4.217,9,3.25,9H1V8
	c0-3.859,3.14-7,7-7s7,3.141,7,7v1h-2.25C11.783,9,11,9.783,11,10.75V16h3.25c0.967,0,1.75-0.783,1.75-1.75V8C16,3.589,12.411,0,8,0
	z M3.25,10C3.664,10,4,10.337,4,10.75V15H1.75C1.336,15,1,14.663,1,14.25V10H3.25z M15,14.25c0,0.413-0.336,0.75-0.75,0.75H12v-4.25
	c0-0.413,0.336-0.75,0.75-0.75H15V14.25z"/>
</svg>
