<svg id="Layer" xmlns="http://www.w3.org/2000/svg" viewBox="0 0 13.4 22.12"><defs><style>.cls-1{fill:#231f20;}</style></defs><path class="cls-1" d="M18.7,8.15,12.12,1.34a1.17,1.17,0,0,0-1-.38h0a.89.89,0,0,0-.38.16l-5.39,4,2.54,7.45L5.9,19.09l5.54,3.81a.68.68,0,0,0,.72.1l.33-.12.32-.06a.73.73,0,0,0,.59-.43l5.18-8.9a.08.08,0,0,1,0,0,.66.66,0,0,0,.08-.29.06.06,0,0,0,0,0,.24.24,0,0,0,0-.08V8.16h0Zm-1.32.2a.56.56,0,0,1-.06.35L12,21.67,8.85,12.6l3-10.07L17.21,8A.57.57,0,0,1,17.38,8.35ZM6.58,5.93a.51.51,0,0,1,.21-.63L11,2.12s0,0,0,0L8.32,11Zm.57,12.69a.52.52,0,0,1,0-.35l1.23-4.09,2.41,7.07L7.38,18.89A.54.54,0,0,1,7.15,18.62ZM17.7,13l-3.85,6.83,3.85-9.3Z" transform="translate(-5.3 -0.94)"/></svg>