<svg id="Layer" xmlns="http://www.w3.org/2000/svg" viewBox="0 0 19.61 17.32"><defs><style>.cls-1{fill:none;}.cls-2{fill:#231f20;}</style></defs><polygon class="cls-1" points="6.92 5.9 9.81 14.89 12.7 5.9 6.92 5.9"/><path class="cls-1" d="M15.86,8.24h4.49L17.8,4.34H14.67l1.15,3.57A1,1,0,0,1,15.86,8.24Z" transform="translate(-2.2 -3.34)"/><path class="cls-1" d="M8.15,7.91,9.3,4.34H6.22L3.66,8.24H8.12A.76.76,0,0,1,8.15,7.91Z" transform="translate(-2.2 -3.34)"/><polygon class="cls-1" points="11.43 1 8.15 1 6.9 4.9 12.68 4.9 11.43 1"/><path class="cls-1" d="M15.84,9.56l-3,9.23L20.1,9.24H15.87A.73.73,0,0,1,15.84,9.56Z" transform="translate(-2.2 -3.34)"/><path class="cls-1" d="M8.13,9.24H3.88l7.29,9.66-3-9.34A.94.94,0,0,1,8.13,9.24Z" transform="translate(-2.2 -3.34)"/><path class="cls-2" d="M19,4.34h0l-.11-.17-.24-.37-.06,0-.05-.08a.73.73,0,0,0-.66-.33H6.13a.72.72,0,0,0-.66.33l0,.09s0,0-.07.07L2.2,8.65,11,20.33a.72.72,0,0,0,.66.33l.21,0h.41a.74.74,0,0,0,.66-.33L21.8,8.63Zm-1.2,0,2.55,3.9H15.86a1,1,0,0,0,0-.33L14.67,4.34ZM9.12,9.24h5.77l-2.89,9Zm0-1,1.25-3.9h3.27l1.25,3.9ZM6.22,4.34H9.3L8.15,7.91a.76.76,0,0,0,0,.33H3.66ZM3.88,9.24H8.13a.94.94,0,0,0,0,.32l3,9.34Zm9,9.55,3-9.23a.73.73,0,0,0,0-.32H20.1Z" transform="translate(-2.2 -3.34)"/></svg>