<svg id="Layer" xmlns="http://www.w3.org/2000/svg" viewBox="0 0 22 20.88"><defs><style>.cls-1{fill:none;}.cls-2{fill:#231f20;}</style></defs><path class="cls-1" d="M9,11.59a.69.69,0,1,0-.69-.69A.69.69,0,0,0,9,11.59Z" transform="translate(-0.97 -1)"/><path class="cls-1" d="M4.87,8.46v3.31L9.46,15l7.93-5.61,1.67,1.19V8.44a1,1,0,0,1,0-.16l-.18,0H5l-.18,0C4.86,8.34,4.87,8.4,4.87,8.46ZM9,8.84A2.06,2.06,0,1,1,7,10.9,2.06,2.06,0,0,1,9,8.84Z" transform="translate(-0.97 -1)"/><path class="cls-1" d="M8.26,15.82,4.87,13.45V17.5c0,.06,0,.11,0,.16l.18,0h.64Z" transform="translate(-0.97 -1)"/><path class="cls-1" d="M12.42,2.74a.69.69,0,0,1-.54.29.66.66,0,0,1-.54-.29L10.43,4h2.9Z" transform="translate(-0.97 -1)"/><path class="cls-1" d="M21.63,20.38V5.54a1.1,1.1,0,0,1,0-.18l-.18,0h-19l-.18,0a1.1,1.1,0,0,1,0,.18V20.38a1.1,1.1,0,0,1,0,.18l.18,0h19l.18,0A1.1,1.1,0,0,1,21.63,20.38ZM20.4,19H3.57l0,0V7H20.37l0,0Z" transform="translate(-0.97 -1)"/><path class="cls-1" d="M19.06,17.48V12.24l-1.22-.87a.73.73,0,0,0-.91,0L8.05,17.64H18.9l.18,0A1.1,1.1,0,0,1,19.06,17.48Z" transform="translate(-0.97 -1)"/><path class="cls-2" d="M14.55,4,13.11,2h0l-.46-.66a.85.85,0,0,0-.17-.16A.82.82,0,0,0,12.11,1h-.46a.78.78,0,0,0-.35.14h0a.8.8,0,0,0-.19.18L9.21,4H1V21.88H23V4Zm-3.21-1.3a.66.66,0,0,0,.54.29.69.69,0,0,0,.54-.29L13.33,4h-2.9ZM2.47,20.54l-.18,0a1.1,1.1,0,0,0,0-.18V5.54a1.1,1.1,0,0,0,0-.18l.18,0h19l.18,0a1.1,1.1,0,0,0,0,.18V20.38a1.1,1.1,0,0,0,0,.18l-.18,0Z" transform="translate(-0.97 -1)"/><path class="cls-2" d="M3.54,7V19l0,0H20.4v-12l0,0ZM18.9,8.3l.18,0a1,1,0,0,0,0,.16v2.12L17.39,9.37,9.46,15,4.87,11.77V8.46c0-.06,0-.12,0-.18L5,8.3Zm-14,9.36c0-.05,0-.1,0-.16V13.45l3.39,2.37L5.68,17.64H5Zm3.19,0,8.88-6.27a.73.73,0,0,1,.91,0l1.22.87v5.24a1.1,1.1,0,0,0,0,.18l-.18,0Z" transform="translate(-0.97 -1)"/><path class="cls-2" d="M9,13A2.06,2.06,0,1,0,7,10.9,2.06,2.06,0,0,0,9,13Zm0-2.75a.69.69,0,1,1-.69.69A.69.69,0,0,1,9,10.21Z" transform="translate(-0.97 -1)"/></svg>