<svg id="Layer" xmlns="http://www.w3.org/2000/svg" viewBox="0 0 22 20.86"><defs><style>.cls-1{opacity:0.5;}</style></defs><path d="M9.9,16.34a.71.71,0,0,1,.49-.61l4-1.2a4.84,4.84,0,0,1,1.29-.18,7.26,7.26,0,0,1,3.05.76L23,17.71s0,0,0,0l-1,.46a1,1,0,0,1-1,0l-3-1.82a5.8,5.8,0,0,0-2.34-.58,3.21,3.21,0,0,0-.9.13l-3.23,1.17a.7.7,0,0,0,.3.11,11.57,11.57,0,0,0,1.73.1c.63,0,1.67-.09,1.91-.11l-.53,1a1,1,0,0,1-.75.53l-.62,0a12.94,12.94,0,0,1-2-.12A2,2,0,0,1,9.9,16.34Zm-8.62-.7,7.83,5.74a3.8,3.8,0,0,0,2.75.66l6.18-1L20.23,23a9,9,0,0,0,.17-1.08,1,1,0,0,0-.38-1l-1.28-1.14a.75.75,0,0,0-.45-.16l-6.65,1a2.07,2.07,0,0,1-.35,0,2.23,2.23,0,0,1-1.35-.44l-6.83-5c.07-.13.14-.15.2-.15a.42.42,0,0,1,.16,0c1.11.49,5.07,2.39,5.07,2.39a.49.49,0,0,0,.19.05L8.58,16.5c-.05-.34-.46-.68-.74-.85-1.2-.58-3.09-1.48-3.8-1.8a2.61,2.61,0,0,0-1-.24,2.21,2.21,0,0,0-1.9,1.13A.7.7,0,0,0,1.28,15.64Z" transform="translate(-1 -2.09)"/><path d="M12.11,11.17a1.67,1.67,0,0,1-.71,1.46,2.64,2.64,0,0,1-1,.39.78.78,0,0,1-.65.32H9l.15-.22A5.39,5.39,0,0,1,7.9,13a6.74,6.74,0,0,1-.71-.24A1.11,1.11,0,0,1,8.46,12a3.74,3.74,0,0,0,.88.07,2.5,2.5,0,0,0,1.14-.2.68.68,0,0,0,.37-.65.86.86,0,0,0-.36-.72A6,6,0,0,0,9.3,9.89q-.41-.15-.78-.33a2.87,2.87,0,0,1-.64-.39,1.72,1.72,0,0,1-.59-1.34A1.77,1.77,0,0,1,8,6.36a2.54,2.54,0,0,1,1.08-.47l0,0a.79.79,0,0,1,.7-.36h.83l-.24.34h.07a4.54,4.54,0,0,1,.55.08,3.83,3.83,0,0,1,.45.1l.3.09a1.17,1.17,0,0,1-1.29.77,4,4,0,0,0-.6,0,1.92,1.92,0,0,0-.92.21.68.68,0,0,0-.39.65.87.87,0,0,0,.09.4,1,1,0,0,0,.27.32,2.32,2.32,0,0,0,.45.26A6.15,6.15,0,0,0,10,9c.33.13.63.25.89.37a2.69,2.69,0,0,1,.66.43,1.55,1.55,0,0,1,.43.58A2.11,2.11,0,0,1,12.11,11.17ZM9.65,2.09A7.33,7.33,0,1,0,17,9.42,7.33,7.33,0,0,0,9.65,2.09Zm0,13.38a6.05,6.05,0,1,1,6-6.05A6.06,6.06,0,0,1,9.65,15.47Z" transform="translate(-1 -2.09)"/></svg>