<?xml version="1.0" encoding="utf-8"?>
<!-- Generator: Adobe Illustrator 25.2.0, SVG Export Plug-In . SVG Version: 6.00 Build 0)  -->
<svg version="1.1" xmlns="http://www.w3.org/2000/svg" xmlns:xlink="http://www.w3.org/1999/xlink" x="0px" y="0px"
	 viewBox="0 0 24 24" enable-background="new 0 0 24 24" xml:space="preserve">
<g id="Layer">
	<path fill="#231F20" d="M21,4.094H3c-1.102,0-2,0.888-2,1.977V17.93c0,1.089,0.898,1.977,2,1.977h18c1.102,0,2-0.888,2-1.977V6.07
		C23,4.981,22.102,4.094,21,4.094z M21.625,17.93c0,0.325-0.288,0.602-0.625,0.602H3c-0.337,0-0.625-0.276-0.625-0.602V6.07
		c0-0.325,0.288-0.602,0.625-0.602h18c0.337,0,0.625,0.276,0.625,0.602V17.93z M16.304,11.028c-0.063-0.199-0.234-0.344-0.441-0.373
		l-2.34-0.327l-1.043-2.016C12.388,8.131,12.202,8.018,12,8.018c-0.202,0-0.388,0.113-0.481,0.292l-1.043,2.016l-2.34,0.327
		c-0.207,0.029-0.379,0.175-0.441,0.373c-0.063,0.199-0.005,0.417,0.148,0.559l1.678,1.559l-0.395,2.199
		c-0.036,0.202,0.045,0.407,0.209,0.529c0.095,0.071,0.209,0.108,0.324,0.108c0.083,0,0.166-0.019,0.243-0.058L12,14.871
		l2.098,1.053c0.077,0.039,0.16,0.058,0.243,0.058c0.115,0,0.228-0.037,0.324-0.108c0.165-0.123,0.245-0.327,0.209-0.529
		l-0.395-2.199l1.678-1.559C16.31,11.445,16.367,11.227,16.304,11.028z"/>
</g>
<g opacity="0.5">
</g>
<g>
</g>
</svg>
