<svg id="Layer" xmlns="http://www.w3.org/2000/svg" viewBox="0 0 22 15.81"><defs><style>.cls-1{fill:#231f20;}.cls-2{opacity:0.5;}</style></defs><path class="cls-1" d="M21,4.09H3a2,2,0,0,0-2,2V17.93a2,2,0,0,0,2,2H21a2,2,0,0,0,2-2V6.07A2,2,0,0,0,21,4.09Zm.62,13.84a.62.62,0,0,1-.62.6H3a.62.62,0,0,1-.62-.6V6.07A.62.62,0,0,1,3,5.47H21a.62.62,0,0,1,.62.6Z" transform="translate(-1 -4.09)"/><path class="cls-1" d="M17.69,10.48a.71.71,0,0,0-.58-.5L14,9.55,12.64,6.89a.72.72,0,0,0-1.28,0L10,9.55,6.89,10a.73.73,0,0,0-.39,1.24l2.22,2.06L8.2,16.19a.72.72,0,0,0,.28.7A.71.71,0,0,0,8.9,17,.8.8,0,0,0,9.23,17L12,15.56,14.77,17a.8.8,0,0,0,.33.08.71.71,0,0,0,.42-.14.72.72,0,0,0,.28-.7l-.52-2.91,2.22-2.06A.71.71,0,0,0,17.69,10.48Zm-4,2.29.41,2.29L12,14,9.85,15.06l.41-2.29L8.52,11.16l2.4-.34L12,8.74l1.08,2.08,2.4.34Z" transform="translate(-1 -4.09)"/></svg>