<?xml version="1.0" encoding="utf-8"?>
<!-- Generator: Adobe Illustrator 25.2.0, SVG Export Plug-In . SVG Version: 6.00 Build 0)  -->
<svg version="1.1" id="Layer" xmlns="http://www.w3.org/2000/svg" xmlns:xlink="http://www.w3.org/1999/xlink" x="0px" y="0px"
	 viewBox="0 0 24 24" enable-background="new 0 0 24 24" xml:space="preserve">
<path fill="#231F20" d="M21,4.094H3c-1.102,0-2,0.888-2,1.977V17.93c0,1.089,0.898,1.977,2,1.977h18c1.102,0,2-0.888,2-1.977V6.07
	C23,4.981,22.102,4.094,21,4.094z M21.625,17.93c0,0.325-0.288,0.602-0.625,0.602H3c-0.337,0-0.625-0.276-0.625-0.602V6.07
	c0-0.325,0.288-0.602,0.625-0.602h18c0.337,0,0.625,0.276,0.625,0.602V17.93z M13.375,16.125h5.33
	c0.404,0.002,0.673,0.129,0.902,0.457L20.25,17.5h-5.33c-0.404-0.001-0.673-0.128-0.902-0.456L13.375,16.125z M13.375,9.594h5.33
	c0.404,0.002,0.673,0.129,0.902,0.457l0.643,0.918h-5.33c-0.404-0.001-0.673-0.128-0.902-0.456L13.375,9.594z M13.375,6.844h5.33
	c0.404,0.002,0.673,0.129,0.902,0.457l0.643,0.918h-5.33c-0.404-0.001-0.673-0.128-0.902-0.456L13.375,6.844z M11.408,9.018
	c0,0-0.001,0-0.001-0.001c-0.824-0.828-2.163-0.829-2.99,0c0,0,0,0,0,0L8.01,9.425L7.603,9.017c-0.826-0.828-2.165-0.828-2.99,0
	c-0.825,0.829-0.825,2.171,0,3.001l0.407,0.408l2.99,2.999L11,12.426l0.408-0.408C12.234,11.188,12.234,9.846,11.408,9.018z"/>
</svg>
