<?xml version="1.0" encoding="utf-8"?>
<!-- Generator: Adobe Illustrator 16.0.0, SVG Export Plug-In . SVG Version: 6.00 Build 0)  -->
<!DOCTYPE svg PUBLIC "-//W3C//DTD SVG 1.1//EN" "http://www.w3.org/Graphics/SVG/1.1/DTD/svg11.dtd">
<svg version="1.1" id="Layer" xmlns="http://www.w3.org/2000/svg" xmlns:xlink="http://www.w3.org/1999/xlink" x="0px" y="0px"
	 width="16px" height="16px" viewBox="0 0 16 16" enable-background="new 0 0 16 16" xml:space="preserve">
<path fill="#231F20" d="M4,2.102v0.8c0,0.056-0.045,0.101-0.1,0.101H3.1C3.045,3.002,3,2.957,3,2.901v-0.8
	c0-0.055,0.045-0.1,0.1-0.1h0.8C3.955,2.002,4,2.047,4,2.102z M3.9,4.002H3.1c-0.055,0-0.1,0.044-0.1,0.1v0.8
	c0,0.056,0.045,0.1,0.1,0.1h0.8c0.055,0,0.1-0.044,0.1-0.1v-0.8C4,4.046,3.955,4.002,3.9,4.002z M3.9,6.001H3.1
	C3.045,6.001,3,6.046,3,6.102v0.8c0,0.055,0.045,0.1,0.1,0.1h0.8c0.055,0,0.1-0.045,0.1-0.1v-0.8C4,6.046,3.955,6.001,3.9,6.001z
	 M3.9,8.001H3.1c-0.055,0-0.1,0.045-0.1,0.1v0.801c0,0.055,0.045,0.1,0.1,0.1h0.8c0.055,0,0.1-0.045,0.1-0.1V8.101
	C4,8.046,3.955,8.001,3.9,8.001z M5.9,3.002H5.1c-0.055,0-0.1,0.045-0.1,0.1v0.8c0,0.056,0.045,0.101,0.1,0.101h0.8
	c0.055,0,0.1-0.045,0.1-0.101v-0.8C6,3.047,5.955,3.002,5.9,3.002z M5.9,5.001H5.1C5.045,5.001,5,5.046,5,5.102v0.8
	c0,0.055,0.045,0.1,0.1,0.1h0.8c0.055,0,0.1-0.045,0.1-0.1v-0.8C6,5.046,5.955,5.001,5.9,5.001z M5.9,7.001H5.1
	C5.045,7.001,5,7.046,5,7.102v0.8c0,0.055,0.045,0.1,0.1,0.1h0.8c0.055,0,0.1-0.045,0.1-0.1v-0.8C6,7.046,5.955,7.001,5.9,7.001z
	 M15,1.715v8.569c0,0.272-0.112,0.535-0.311,0.724c-0.174,0.166-1.168,0.99-3.691,0.99c-1.308,0-2.395-0.413-3.354-0.777
	c-0.876-0.335-1.703-0.651-2.643-0.649c-1.376,0.006-1.58,0.162-2.096,0.337C2.668,10.989,2.21,11.256,2,11.345v3.53
	c0,0.293-0.107,0.498-0.347,0.666L1,15.998V16c0,0,0-0.001,0-0.002v-5.714V9.397V1.715C1,1.441,1.112,1.18,1.311,0.99
	C1.484,0.825,2.479,0,5.001,0C6.31,0,7.397,0.415,8.356,0.78c0.875,0.334,1.703,0.649,2.642,0.649c1.723,0,2.342-0.468,2.348-0.471
	c0.185-0.145,0.417-0.223,0.649-0.223c0.146,0,0.292,0.031,0.424,0.097C14.763,1,15,1.333,15,1.715z M14,1.715
	c0,0-0.526,0.48-1.969,0.651v0.535c0,0.056-0.045,0.101-0.1,0.101h-0.8c-0.055,0-0.1-0.045-0.1-0.101V2.429
	c-0.012,0-0.021,0.001-0.033,0.001C9.102,2.43,7.731,1.419,6,1.102v0.8c0,0.056-0.045,0.101-0.1,0.101H5.1
	C5.045,2.002,5,1.957,5,1.901v-0.8c0-0.051,0.04-0.089,0.089-0.095C5.059,1.006,5.032,1,5.001,1C2.751,1,2,1.715,2,1.715v7.683
	v0.887c0,0,0.984-0.723,3-0.713V9.101c0-0.055,0.045-0.1,0.1-0.1h0.8c0.055,0,0.1,0.045,0.1,0.1v0.577
	c0.418,0.077,0.818,0.189,1.206,0.323H7.9c0.055,0,0.1,0.045,0.1,0.1v0.188c0.938,0.356,1.875,0.71,2.999,0.71
	c0.032,0,0.057-0.004,0.088-0.005C11.039,10.988,11,10.95,11,10.9v-0.8c0-0.055,0.045-0.1,0.1-0.1h0.8c0.055,0,0.1,0.045,0.1,0.1
	v0.8c0,0.016-0.01,0.028-0.017,0.042C13.463,10.776,14,10.284,14,10.284V9.9c0,0.056-0.045,0.101-0.1,0.101h-0.8
	c-0.055,0-0.1-0.045-0.1-0.101v-0.8c0-0.055,0.045-0.1,0.1-0.1h0.8c0.055,0,0.1,0.045,0.1,0.1V7.901c0,0.055-0.045,0.1-0.1,0.1h-0.8
	c-0.055,0-0.1-0.045-0.1-0.1v-0.8c0-0.056,0.045-0.101,0.1-0.101h0.8c0.055,0,0.1,0.045,0.1,0.101v-1.2c0,0.055-0.045,0.1-0.1,0.1
	h-0.8c-0.055,0-0.1-0.045-0.1-0.1v-0.8c0-0.056,0.045-0.101,0.1-0.101h0.8c0.055,0,0.1,0.045,0.1,0.101v-1.2
	c0,0.056-0.045,0.101-0.1,0.101h-0.8c-0.055,0-0.1-0.045-0.1-0.101v-0.8c0-0.055,0.045-0.1,0.1-0.1h0.8c0.055,0,0.1,0.045,0.1,0.1
	V1.715z M7.9,2.002H7.1c-0.055,0-0.1,0.045-0.1,0.1v0.8c0,0.056,0.045,0.101,0.1,0.101h0.8c0.055,0,0.1-0.045,0.1-0.101v-0.8
	C8,2.047,7.955,2.002,7.9,2.002z M7.9,4.002H7.1c-0.055,0-0.1,0.044-0.1,0.1v0.8c0,0.056,0.045,0.1,0.1,0.1h0.8
	c0.055,0,0.1-0.044,0.1-0.1v-0.8C8,4.046,7.955,4.002,7.9,4.002z M7.9,6.001H7.1C7.045,6.001,7,6.046,7,6.102v0.8
	c0,0.055,0.045,0.1,0.1,0.1h0.8c0.055,0,0.1-0.045,0.1-0.1v-0.8C8,6.046,7.955,6.001,7.9,6.001z M7.9,8.001H7.1
	c-0.055,0-0.1,0.045-0.1,0.1v0.801c0,0.055,0.045,0.1,0.1,0.1h0.8c0.055,0,0.1-0.045,0.1-0.1V8.101C8,8.046,7.955,8.001,7.9,8.001z
	 M9.9,3.002H9.1c-0.055,0-0.1,0.045-0.1,0.1v0.8c0,0.056,0.045,0.101,0.1,0.101h0.8c0.055,0,0.1-0.045,0.1-0.101v-0.8
	C10,3.047,9.955,3.002,9.9,3.002z M9.9,5.001H9.1C9.045,5.001,9,5.046,9,5.102v0.8c0,0.055,0.045,0.1,0.1,0.1h0.8
	c0.055,0,0.1-0.045,0.1-0.1v-0.8C10,5.046,9.955,5.001,9.9,5.001z M9.9,7.001H9.1C9.045,7.001,9,7.046,9,7.102v0.8
	c0,0.055,0.045,0.1,0.1,0.1h0.8c0.055,0,0.1-0.045,0.1-0.1v-0.8C10,7.046,9.955,7.001,9.9,7.001z M9.9,9.001H9.1
	c-0.055,0-0.1,0.045-0.1,0.1v0.8c0,0.056,0.045,0.101,0.1,0.101h0.8c0.055,0,0.1-0.045,0.1-0.101v-0.8
	C10,9.046,9.955,9.001,9.9,9.001z M11.9,4.002h-0.8c-0.055,0-0.1,0.044-0.1,0.1v0.8c0,0.056,0.045,0.1,0.1,0.1h0.8
	c0.055,0,0.1-0.044,0.1-0.1v-0.8C12,4.046,11.955,4.002,11.9,4.002z M11.9,6.001h-0.8c-0.055,0-0.1,0.045-0.1,0.101v0.8
	c0,0.055,0.045,0.1,0.1,0.1h0.8c0.055,0,0.1-0.045,0.1-0.1v-0.8C12,6.046,11.955,6.001,11.9,6.001z M11.9,8.001h-0.8
	c-0.055,0-0.1,0.045-0.1,0.1v0.801c0,0.055,0.045,0.1,0.1,0.1h0.8c0.055,0,0.1-0.045,0.1-0.1V8.101
	C12,8.046,11.955,8.001,11.9,8.001z"/>
</svg>
