<?xml version="1.0" encoding="iso-8859-1"?>
<!-- Generator: Adobe Illustrator 16.0.0, SVG Export Plug-In . SVG Version: 6.00 Build 0)  -->
<!DOCTYPE svg PUBLIC "-//W3C//DTD SVG 1.1//EN" "http://www.w3.org/Graphics/SVG/1.1/DTD/svg11.dtd">
<svg version="1.1" id="Layer" xmlns="http://www.w3.org/2000/svg" xmlns:xlink="http://www.w3.org/1999/xlink" x="0px" y="0px"
	 width="24px" height="24px" viewBox="0 0 24 24" style="enable-background:new 0 0 24 24;" xml:space="preserve">
<path style="fill:#231F20;" d="M6.5,3.89v1.1c0,0.077-0.062,0.139-0.138,0.139h-1.1c-0.076,0-0.138-0.062-0.138-0.139v-1.1
	c0-0.075,0.062-0.137,0.138-0.137h1.1C6.438,3.753,6.5,3.814,6.5,3.89z M6.362,6.503h-1.1c-0.076,0-0.138,0.061-0.138,0.137v1.1
	c0,0.077,0.062,0.137,0.138,0.137h1.1c0.076,0,0.138-0.06,0.138-0.137v-1.1C6.5,6.563,6.438,6.503,6.362,6.503z M6.362,9.251h-1.1
	c-0.076,0-0.138,0.062-0.138,0.139v1.1c0,0.075,0.062,0.137,0.138,0.137h1.1c0.076,0,0.138-0.062,0.138-0.137v-1.1
	C6.5,9.313,6.438,9.251,6.362,9.251z M6.362,12.001h-1.1c-0.076,0-0.138,0.062-0.138,0.138v1.101c0,0.075,0.062,0.137,0.138,0.137
	h1.1c0.076,0,0.138-0.062,0.138-0.137v-1.101C6.5,12.063,6.438,12.001,6.362,12.001z M9.112,5.128h-1.1
	c-0.076,0-0.138,0.062-0.138,0.137v1.1c0,0.077,0.062,0.139,0.138,0.139h1.1c0.076,0,0.138-0.062,0.138-0.139v-1.1
	C9.25,5.189,9.188,5.128,9.112,5.128z M9.112,7.876h-1.1c-0.076,0-0.138,0.062-0.138,0.139v1.1c0,0.075,0.062,0.137,0.138,0.137h1.1
	c0.076,0,0.138-0.062,0.138-0.137v-1.1C9.25,7.938,9.188,7.876,9.112,7.876z M9.112,10.626h-1.1c-0.076,0-0.138,0.062-0.138,0.139
	v1.1c0,0.075,0.062,0.137,0.138,0.137h1.1c0.076,0,0.138-0.062,0.138-0.137v-1.1C9.25,10.688,9.188,10.626,9.112,10.626z
	 M21.625,3.357v11.783c0,0.375-0.154,0.736-0.427,0.995c-0.239,0.229-1.607,1.361-5.075,1.361c-1.798,0-3.293-0.567-4.612-1.068
	c-1.205-0.461-2.342-0.896-3.634-0.894c-1.893,0.009-2.172,0.224-2.881,0.464c-0.327,0.111-0.956,0.478-1.246,0.6v4.854
	c0,0.402-0.147,0.685-0.478,0.916l-0.897,0.628V23c0,0,0-0.001,0-0.003v-7.856v-1.219V3.357c0-0.375,0.154-0.735,0.427-0.996
	C3.041,2.135,4.409,1,7.877,1c1.799,0,3.294,0.57,4.613,1.073c1.204,0.459,2.341,0.893,3.633,0.893c2.369,0,3.22-0.644,3.228-0.647
	c0.254-0.198,0.574-0.306,0.892-0.306c0.201,0,0.401,0.043,0.583,0.133C21.299,2.375,21.625,2.833,21.625,3.357z M20.25,3.357
	c0,0-0.724,0.661-2.707,0.896v0.735c0,0.077-0.062,0.139-0.138,0.139h-1.1c-0.076,0-0.138-0.062-0.138-0.139V4.34
	c-0.016,0-0.029,0.001-0.045,0.001c-2.608,0-4.492-1.39-6.873-1.826v1.1c0,0.077-0.062,0.139-0.138,0.139h-1.1
	c-0.076,0-0.138-0.062-0.138-0.139v-1.1c0-0.069,0.055-0.122,0.122-0.13c-0.042-0.002-0.079-0.01-0.12-0.01
	c-3.094,0-4.127,0.982-4.127,0.982v10.564v1.219c0,0,1.353-0.993,4.125-0.98v-0.646c0-0.075,0.062-0.138,0.138-0.138h1.1
	c0.076,0,0.138,0.062,0.138,0.138v0.793c0.575,0.106,1.125,0.261,1.658,0.444h0.954c0.076,0,0.138,0.062,0.138,0.138v0.259
	c1.289,0.49,2.578,0.977,4.123,0.977c0.044,0,0.079-0.006,0.122-0.007c-0.066-0.008-0.12-0.061-0.12-0.129v-1.1
	c0-0.075,0.062-0.138,0.138-0.138h1.1c0.076,0,0.138,0.062,0.138,0.138v1.1c0,0.021-0.014,0.039-0.023,0.058
	c2.036-0.229,2.773-0.905,2.773-0.905v-0.527c0,0.076-0.062,0.138-0.138,0.138h-1.1c-0.076,0-0.138-0.062-0.138-0.138v-1.1
	c0-0.075,0.062-0.138,0.138-0.138h1.1c0.076,0,0.138,0.062,0.138,0.138v-1.649c0,0.075-0.062,0.137-0.138,0.137h-1.1
	c-0.076,0-0.138-0.062-0.138-0.137v-1.1c0-0.076,0.062-0.139,0.138-0.139h1.1c0.076,0,0.138,0.062,0.138,0.139v-1.65
	c0,0.075-0.062,0.137-0.138,0.137h-1.1c-0.076,0-0.138-0.062-0.138-0.137v-1.1c0-0.076,0.062-0.139,0.138-0.139h1.1
	c0.076,0,0.138,0.062,0.138,0.139v-1.65c0,0.077-0.062,0.139-0.138,0.139h-1.1c-0.076,0-0.138-0.062-0.138-0.139v-1.1
	c0-0.075,0.062-0.137,0.138-0.137h1.1c0.076,0,0.138,0.062,0.138,0.137V3.357z M11.862,3.753h-1.1c-0.076,0-0.138,0.062-0.138,0.137
	v1.1c0,0.077,0.062,0.139,0.138,0.139h1.1C11.938,5.128,12,5.066,12,4.989v-1.1C12,3.814,11.938,3.753,11.862,3.753z M11.862,6.503
	h-1.1c-0.076,0-0.138,0.061-0.138,0.137v1.1c0,0.077,0.062,0.137,0.138,0.137h1.1c0.076,0,0.138-0.06,0.138-0.137v-1.1
	C12,6.563,11.938,6.503,11.862,6.503z M11.862,9.251h-1.1c-0.076,0-0.138,0.062-0.138,0.139v1.1c0,0.075,0.062,0.137,0.138,0.137
	h1.1c0.076,0,0.138-0.062,0.138-0.137v-1.1C12,9.313,11.938,9.251,11.862,9.251z M11.862,12.001h-1.1
	c-0.076,0-0.138,0.062-0.138,0.138v1.101c0,0.075,0.062,0.137,0.138,0.137h1.1c0.076,0,0.138-0.062,0.138-0.137v-1.101
	C12,12.063,11.938,12.001,11.862,12.001z M14.612,5.128h-1.1c-0.076,0-0.138,0.062-0.138,0.137v1.1c0,0.077,0.062,0.139,0.138,0.139
	h1.1c0.076,0,0.138-0.062,0.138-0.139v-1.1C14.75,5.189,14.688,5.128,14.612,5.128z M14.612,7.876h-1.1
	c-0.076,0-0.138,0.062-0.138,0.139v1.1c0,0.075,0.062,0.137,0.138,0.137h1.1c0.076,0,0.138-0.062,0.138-0.137v-1.1
	C14.75,7.938,14.688,7.876,14.612,7.876z M14.612,10.626h-1.1c-0.076,0-0.138,0.062-0.138,0.139v1.1
	c0,0.075,0.062,0.137,0.138,0.137h1.1c0.076,0,0.138-0.062,0.138-0.137v-1.1C14.75,10.688,14.688,10.626,14.612,10.626z
	 M14.612,13.376h-1.1c-0.076,0-0.138,0.062-0.138,0.138v1.1c0,0.076,0.062,0.138,0.138,0.138h1.1c0.076,0,0.138-0.062,0.138-0.138
	v-1.1C14.75,13.438,14.688,13.376,14.612,13.376z M17.362,6.503h-1.1c-0.076,0-0.138,0.061-0.138,0.137v1.1
	c0,0.077,0.062,0.137,0.138,0.137h1.1c0.076,0,0.138-0.06,0.138-0.137v-1.1C17.5,6.563,17.438,6.503,17.362,6.503z M17.362,9.251
	h-1.1c-0.076,0-0.138,0.062-0.138,0.139v1.1c0,0.075,0.062,0.137,0.138,0.137h1.1c0.076,0,0.138-0.062,0.138-0.137v-1.1
	C17.5,9.313,17.438,9.251,17.362,9.251z M17.362,12.001h-1.1c-0.076,0-0.138,0.062-0.138,0.138v1.101
	c0,0.075,0.062,0.137,0.138,0.137h1.1c0.076,0,0.138-0.062,0.138-0.137v-1.101C17.5,12.063,17.438,12.001,17.362,12.001z"/>
</svg>
