<?xml version="1.0" encoding="iso-8859-1"?>
<!-- Generator: Adobe Illustrator 16.0.0, SVG Export Plug-In . SVG Version: 6.00 Build 0)  -->
<!DOCTYPE svg PUBLIC "-//W3C//DTD SVG 1.1//EN" "http://www.w3.org/Graphics/SVG/1.1/DTD/svg11.dtd">
<svg version="1.1" id="Layer" xmlns="http://www.w3.org/2000/svg" xmlns:xlink="http://www.w3.org/1999/xlink" x="0px" y="0px"
	 width="16px" height="16px" viewBox="0 0 16 16" style="enable-background:new 0 0 16 16;" xml:space="preserve">
<g>
	<path style="fill:#231F20;" d="M3.9,2.002H3.1c-0.055,0-0.1,0.045-0.1,0.1v0.8c0,0.056,0.045,0.101,0.1,0.101h0.8
		c0.055,0,0.1-0.045,0.1-0.101v-0.8C4,2.047,3.955,2.002,3.9,2.002z"/>
	<path style="fill:#231F20;" d="M3.9,4.002H3.1c-0.055,0-0.1,0.044-0.1,0.1v0.8c0,0.056,0.045,0.1,0.1,0.1h0.8
		c0.055,0,0.1-0.044,0.1-0.1v-0.8C4,4.046,3.955,4.002,3.9,4.002z"/>
	<path style="fill:#231F20;" d="M3.9,6.001H3.1C3.045,6.001,3,6.046,3,6.102v0.8c0,0.055,0.045,0.1,0.1,0.1h0.8
		c0.055,0,0.1-0.045,0.1-0.1v-0.8C4,6.046,3.955,6.001,3.9,6.001z"/>
	<path style="fill:#231F20;" d="M3.9,8.001H3.1c-0.055,0-0.1,0.045-0.1,0.1v0.801c0,0.055,0.045,0.1,0.1,0.1h0.8
		c0.055,0,0.1-0.045,0.1-0.1V8.101C4,8.046,3.955,8.001,3.9,8.001z"/>
	<path style="fill:#231F20;" d="M5.9,3.002H5.1c-0.055,0-0.1,0.045-0.1,0.1v0.8c0,0.056,0.045,0.101,0.1,0.101h0.8
		c0.055,0,0.1-0.045,0.1-0.101v-0.8C6,3.047,5.955,3.002,5.9,3.002z"/>
	<path style="fill:#231F20;" d="M5.9,5.001H5.1C5.045,5.001,5,5.046,5,5.102v0.8c0,0.055,0.045,0.1,0.1,0.1h0.8
		c0.055,0,0.1-0.045,0.1-0.1v-0.8C6,5.046,5.955,5.001,5.9,5.001z"/>
	<path style="fill:#231F20;" d="M5.9,7.001H5.1C5.045,7.001,5,7.046,5,7.102v0.8c0,0.055,0.045,0.1,0.1,0.1h0.8
		c0.055,0,0.1-0.045,0.1-0.1v-0.8C6,7.046,5.955,7.001,5.9,7.001z"/>
	<path style="fill:#231F20;" d="M14.419,0.833c-0.133-0.065-0.278-0.097-0.424-0.097c-0.231,0-0.464,0.078-0.649,0.223
		C13.34,0.962,12.722,1.43,10.999,1.43c-0.939,0-1.767-0.315-2.642-0.649C7.397,0.415,6.31,0,5.001,0
		C2.479,0,1.484,0.825,1.311,0.99C1.112,1.18,1,1.441,1,1.715v7.683v0.887v5.714C1,15.999,1,16,1,16v-0.002l0.652-0.457
		C1.893,15.373,2,15.168,2,14.875v-3.53c0.21-0.089,0.668-0.355,0.906-0.437c0.516-0.175,0.719-0.331,2.096-0.337
		c0.94-0.002,1.767,0.314,2.643,0.649c0.959,0.364,2.046,0.777,3.354,0.777c2.522,0,3.517-0.824,3.691-0.99
		C14.888,10.819,15,10.557,15,10.284V1.715C15,1.333,14.763,1,14.419,0.833z M14,3.102c0-0.055-0.045-0.1-0.1-0.1h-0.8
		c-0.055,0-0.1,0.045-0.1,0.1v0.8c0,0.056,0.045,0.101,0.1,0.101h0.8c0.055,0,0.1-0.045,0.1-0.101v1.2
		c0-0.056-0.045-0.101-0.1-0.101h-0.8c-0.055,0-0.1,0.045-0.1,0.101v0.8c0,0.055,0.045,0.1,0.1,0.1h0.8c0.055,0,0.1-0.045,0.1-0.1
		v1.2c0-0.056-0.045-0.101-0.1-0.101h-0.8c-0.055,0-0.1,0.045-0.1,0.101v0.8c0,0.055,0.045,0.1,0.1,0.1h0.8
		c0.055,0,0.1-0.045,0.1-0.1v1.199c0-0.055-0.045-0.1-0.1-0.1h-0.8c-0.055,0-0.1,0.045-0.1,0.1v0.8c0,0.056,0.045,0.101,0.1,0.101
		h0.8c0.055,0,0.1-0.045,0.1-0.101v0.384c0,0-0.537,0.492-2.017,0.658C11.99,10.929,12,10.916,12,10.9v-0.8
		c0-0.055-0.045-0.1-0.1-0.1h-0.8c-0.055,0-0.1,0.045-0.1,0.1v0.8c0,0.05,0.039,0.088,0.087,0.094
		c-0.031,0.001-0.056,0.005-0.088,0.005c-1.124,0-2.061-0.354-2.999-0.71v-0.188c0-0.055-0.045-0.1-0.1-0.1H7.206
		C6.818,9.867,6.418,9.755,6,9.678V9.101c0-0.055-0.045-0.1-0.1-0.1H5.1c-0.055,0-0.1,0.045-0.1,0.1v0.471
		c-2.016-0.01-3,0.713-3,0.713V9.397V1.715C2,1.715,2.751,1,5.001,1c0.03,0,0.057,0.006,0.087,0.007C5.04,1.013,5,1.051,5,1.102v0.8
		c0,0.056,0.045,0.101,0.1,0.101h0.8c0.055,0,0.1-0.045,0.1-0.101v-0.8C7.731,1.419,9.102,2.43,10.999,2.43
		c0.012,0,0.021-0.001,0.033-0.001v0.473c0,0.056,0.045,0.101,0.1,0.101h0.8c0.055,0,0.1-0.045,0.1-0.101V2.366
		C13.474,2.195,14,1.715,14,1.715V3.102z"/>
	<path style="fill:#231F20;" d="M7.9,2.002H7.1c-0.055,0-0.1,0.045-0.1,0.1v0.8c0,0.056,0.045,0.101,0.1,0.101h0.8
		c0.055,0,0.1-0.045,0.1-0.101v-0.8C8,2.047,7.955,2.002,7.9,2.002z"/>
	<path style="fill:#231F20;" d="M7.9,4.002H7.1c-0.055,0-0.1,0.044-0.1,0.1v0.8c0,0.056,0.045,0.1,0.1,0.1h0.8
		c0.055,0,0.1-0.044,0.1-0.1v-0.8C8,4.046,7.955,4.002,7.9,4.002z"/>
	<path style="fill:#231F20;" d="M7.9,6.001H7.1C7.045,6.001,7,6.046,7,6.102v0.8c0,0.055,0.045,0.1,0.1,0.1h0.8
		c0.055,0,0.1-0.045,0.1-0.1v-0.8C8,6.046,7.955,6.001,7.9,6.001z"/>
	<path style="fill:#231F20;" d="M7.9,8.001H7.1c-0.055,0-0.1,0.045-0.1,0.1v0.801c0,0.055,0.045,0.1,0.1,0.1h0.8
		c0.055,0,0.1-0.045,0.1-0.1V8.101C8,8.046,7.955,8.001,7.9,8.001z"/>
	<path style="fill:#231F20;" d="M9.9,3.002H9.1c-0.055,0-0.1,0.045-0.1,0.1v0.8c0,0.056,0.045,0.101,0.1,0.101h0.8
		c0.055,0,0.1-0.045,0.1-0.101v-0.8C10,3.047,9.955,3.002,9.9,3.002z"/>
	<path style="fill:#231F20;" d="M9.9,5.001H9.1C9.045,5.001,9,5.046,9,5.102v0.8c0,0.055,0.045,0.1,0.1,0.1h0.8
		c0.055,0,0.1-0.045,0.1-0.1v-0.8C10,5.046,9.955,5.001,9.9,5.001z"/>
	<path style="fill:#231F20;" d="M9.9,7.001H9.1C9.045,7.001,9,7.046,9,7.102v0.8c0,0.055,0.045,0.1,0.1,0.1h0.8
		c0.055,0,0.1-0.045,0.1-0.1v-0.8C10,7.046,9.955,7.001,9.9,7.001z"/>
	<path style="fill:#231F20;" d="M9.9,9.001H9.1c-0.055,0-0.1,0.045-0.1,0.1v0.8c0,0.056,0.045,0.101,0.1,0.101h0.8
		c0.055,0,0.1-0.045,0.1-0.101v-0.8C10,9.046,9.955,9.001,9.9,9.001z"/>
	<path style="fill:#231F20;" d="M11.9,4.002h-0.8c-0.055,0-0.1,0.044-0.1,0.1v0.8c0,0.056,0.045,0.1,0.1,0.1h0.8
		c0.055,0,0.1-0.044,0.1-0.1v-0.8C12,4.046,11.955,4.002,11.9,4.002z"/>
	<path style="fill:#231F20;" d="M11.9,6.001h-0.8c-0.055,0-0.1,0.045-0.1,0.101v0.8c0,0.055,0.045,0.1,0.1,0.1h0.8
		c0.055,0,0.1-0.045,0.1-0.1v-0.8C12,6.046,11.955,6.001,11.9,6.001z"/>
	<path style="fill:#231F20;" d="M11.9,8.001h-0.8c-0.055,0-0.1,0.045-0.1,0.1v0.801c0,0.055,0.045,0.1,0.1,0.1h0.8
		c0.055,0,0.1-0.045,0.1-0.1V8.101C12,8.046,11.955,8.001,11.9,8.001z"/>
</g>
</svg>
