<?xml version="1.0" encoding="iso-8859-1"?>
<!-- Generator: Adobe Illustrator 16.0.0, SVG Export Plug-In . SVG Version: 6.00 Build 0)  -->
<!DOCTYPE svg PUBLIC "-//W3C//DTD SVG 1.1//EN" "http://www.w3.org/Graphics/SVG/1.1/DTD/svg11.dtd">
<svg version="1.1" id="Layer" xmlns="http://www.w3.org/2000/svg" xmlns:xlink="http://www.w3.org/1999/xlink" x="0px" y="0px"
	 width="24px" height="24px" viewBox="0 0 24 24" style="enable-background:new 0 0 24 24;" xml:space="preserve">
<path style="fill:#231F20;" d="M20.827,2.146c-0.183-0.09-0.383-0.133-0.583-0.133c-0.318,0-0.638,0.107-0.892,0.306
	c-0.008,0.004-0.859,0.647-3.228,0.647c-1.292,0-2.429-0.434-3.633-0.893C11.171,1.57,9.676,1,7.877,1
	C4.409,1,3.041,2.135,2.802,2.361C2.529,2.622,2.375,2.982,2.375,3.357v10.564v1.219v7.856c0,0.002,0,0.003,0,0.003v-0.003
	l0.897-0.628c0.33-0.231,0.478-0.514,0.478-0.916v-4.854c0.29-0.122,0.918-0.488,1.246-0.6c0.709-0.24,0.989-0.455,2.881-0.464
	c1.292-0.002,2.43,0.433,3.634,0.894c1.319,0.501,2.814,1.068,4.612,1.068c3.468,0,4.836-1.133,5.075-1.361
	c0.272-0.259,0.427-0.62,0.427-0.995V3.357C21.625,2.833,21.299,2.375,20.827,2.146z M20.25,15.141c0,0-1.033,0.983-4.127,0.983
	c-3.09,0-5.156-1.946-8.246-1.964c-2.773-0.013-4.127,0.98-4.127,0.98v-1.219V3.357c0,0,1.033-0.982,4.127-0.982
	c3.09,0,5.156,1.966,8.246,1.966c3.094,0,4.127-0.983,4.127-0.983V15.141z"/>
</svg>
