<?xml version="1.0" encoding="iso-8859-1"?>
<!-- Generator: Adobe Illustrator 16.0.0, SVG Export Plug-In . SVG Version: 6.00 Build 0)  -->
<!DOCTYPE svg PUBLIC "-//W3C//DTD SVG 1.1//EN" "http://www.w3.org/Graphics/SVG/1.1/DTD/svg11.dtd">
<svg version="1.1" id="Layer" xmlns="http://www.w3.org/2000/svg" xmlns:xlink="http://www.w3.org/1999/xlink" x="0px" y="0px"
	 width="16px" height="16px" viewBox="0 0 16 16" style="enable-background:new 0 0 16 16;" xml:space="preserve">
<path style="fill:#231F20;" d="M14.419,0.833c-0.133-0.065-0.278-0.097-0.424-0.097c-0.231,0-0.464,0.078-0.649,0.223
	C13.34,0.962,12.722,1.43,10.999,1.43c-0.939,0-1.767-0.315-2.642-0.649C7.397,0.415,6.31,0,5.001,0C2.479,0,1.484,0.825,1.311,0.99
	C1.112,1.18,1,1.441,1,1.715v7.683v0.887v5.714C1,15.999,1,16,1,16v-0.002l0.652-0.457C1.893,15.373,2,15.168,2,14.875v-3.53
	c0.21-0.089,0.668-0.355,0.906-0.437c0.516-0.175,0.719-0.331,2.096-0.337c0.94-0.002,1.767,0.314,2.643,0.649
	c0.959,0.364,2.046,0.777,3.354,0.777c2.522,0,3.517-0.824,3.691-0.99C14.888,10.819,15,10.557,15,10.284V1.715
	C15,1.333,14.763,1,14.419,0.833z M14,10.284c0,0-0.751,0.715-3.001,0.715c-2.248,0-3.75-1.415-5.997-1.428
	C2.984,9.562,2,10.284,2,10.284V9.397V1.715C2,1.715,2.751,1,5.001,1c2.248,0,3.75,1.43,5.997,1.43C13.249,2.43,14,1.715,14,1.715
	V10.284z"/>
</svg>
