<?xml version="1.0" encoding="iso-8859-1"?>
<!-- Generator: Adobe Illustrator 16.0.0, SVG Export Plug-In . SVG Version: 6.00 Build 0)  -->
<!DOCTYPE svg PUBLIC "-//W3C//DTD SVG 1.1//EN" "http://www.w3.org/Graphics/SVG/1.1/DTD/svg11.dtd">
<svg version="1.1" id="Layer_3" xmlns="http://www.w3.org/2000/svg" xmlns:xlink="http://www.w3.org/1999/xlink" x="0px" y="0px"
	 width="24px" height="24px" viewBox="0 0 24 24" style="enable-background:new 0 0 24 24;" xml:space="preserve">
<path style="fill:#231F20;" d="M16.125,13.375H9.441c-0.404,0-0.686-0.147-0.917-0.479l-0.649-0.896L14.581,12
	c0.402,0,0.685,0.146,0.917,0.479L16.125,13.375z M23,4.438v4.125c0,0.76-0.616,1.375-1.375,1.375H20.25V20.25
	c0,0.38-0.308,0.688-0.688,0.688H4.438c-0.38,0-0.688-0.308-0.688-0.688V9.938H2.375C1.616,9.938,1,9.322,1,8.562V4.438
	c0-0.76,0.616-1.375,1.375-1.375h19.25C22.384,3.062,23,3.678,23,4.438z M18.875,9.938H5.125v9.625h13.75V9.938z M21.625,4.438
	H2.375v4.125h19.25V4.438z"/>
</svg>
