<?xml version="1.0" encoding="iso-8859-1"?>
<!-- Generator: Adobe Illustrator 16.0.0, SVG Export Plug-In . SVG Version: 6.00 Build 0)  -->
<!DOCTYPE svg PUBLIC "-//W3C//DTD SVG 1.1//EN" "http://www.w3.org/Graphics/SVG/1.1/DTD/svg11.dtd">
<svg version="1.1" id="Layer_3" xmlns="http://www.w3.org/2000/svg" xmlns:xlink="http://www.w3.org/1999/xlink" x="0px" y="0px"
	 width="16px" height="16px" viewBox="0 0 16 16" style="enable-background:new 0 0 16 16;" xml:space="preserve">
<path style="fill:#231F20;" d="M11,9H6.139C5.845,9,5.64,8.893,5.472,8.652L5,8.001L9.877,8c0.293,0,0.499,0.106,0.667,0.348L11,9z
	 M16,2.5v3c0,0.553-0.448,1-1,1h-1V14c0,0.276-0.224,0.5-0.5,0.5h-11C2.224,14.5,2,14.276,2,14V6.5H1c-0.552,0-1-0.447-1-1v-3
	c0-0.553,0.448-1,1-1h14C15.552,1.5,16,1.947,16,2.5z M13,6.5H3v7h10V6.5z M15,2.5H1v3h14V2.5z"/>
</svg>
