<?xml version="1.0" encoding="iso-8859-1"?>
<!-- Generator: Adobe Illustrator 16.0.0, SVG Export Plug-In . SVG Version: 6.00 Build 0)  -->
<!DOCTYPE svg PUBLIC "-//W3C//DTD SVG 1.1//EN" "http://www.w3.org/Graphics/SVG/1.1/DTD/svg11.dtd">
<svg version="1.1" id="Layer_3" xmlns="http://www.w3.org/2000/svg" xmlns:xlink="http://www.w3.org/1999/xlink" x="0px" y="0px"
	 width="24px" height="24px" viewBox="0 0 24 24" style="enable-background:new 0 0 24 24;" xml:space="preserve">
<path style="fill:#231F20;" d="M21.625,5.125h-1.719h-1.52l0.41-0.587c0.165-0.236,0.249-0.512,0.249-0.788
	c0-0.218-0.051-0.437-0.156-0.635c-0.236-0.455-0.707-0.74-1.219-0.74h-2.75c-0.85,0.001-1.555,0.369-2.042,1.063l-0.628,0.898
	C12.084,4.572,12,4.847,12,5.125H12c0-0.278-0.083-0.553-0.249-0.788l-0.628-0.898C10.635,2.744,9.93,2.376,9.08,2.375H6.33
	c-0.513,0-0.983,0.285-1.219,0.74C5.006,3.313,4.955,3.532,4.955,3.75c0,0.276,0.083,0.552,0.249,0.788l0.41,0.587H2.418H2.375
	C1.616,5.125,1,5.74,1,6.5v4.125C1,11.385,1.616,12,2.375,12H3.75v8.938c0,0.38,0.308,0.688,0.688,0.688h15.125
	c0.38,0,0.688-0.308,0.688-0.688V12h1.375C22.384,12,23,11.385,23,10.625V6.5C23,5.74,22.384,5.125,21.625,5.125z M9.08,3.75
	c0.403,0.001,0.685,0.147,0.916,0.477l0.628,0.898h-0.123H8.094H7.875C7.472,5.124,7.189,4.979,6.957,4.648L6.33,3.75H9.08z
	 M11.313,20.25H5.125V12h6.188V20.25z M11.313,10.625H4.307c-0.003,0-0.005-0.001-0.007-0.001s-0.004,0.001-0.007,0.001H2.375V6.5
	h5.294h0.206h2.75h0.688V10.625z M14.004,4.227c0.231-0.329,0.513-0.476,0.916-0.477h2.75l-0.627,0.898
	c-0.232,0.33-0.515,0.476-0.917,0.477h-0.22h-2.407h-0.123L14.004,4.227z M18.875,20.25h-6.187V12h6.187V20.25z M21.625,10.625
	h-1.918c-0.003,0-0.005-0.001-0.007-0.001s-0.004,0.001-0.007,0.001h-7.005V6.5h0.688h2.75h0.206h5.294V10.625z"/>
</svg>
