<?xml version="1.0" encoding="iso-8859-1"?>
<!-- Generator: Adobe Illustrator 16.0.0, SVG Export Plug-In . SVG Version: 6.00 Build 0)  -->
<!DOCTYPE svg PUBLIC "-//W3C//DTD SVG 1.1//EN" "http://www.w3.org/Graphics/SVG/1.1/DTD/svg11.dtd">
<svg version="1.1" id="Layer_3" xmlns="http://www.w3.org/2000/svg" xmlns:xlink="http://www.w3.org/1999/xlink" x="0px" y="0px"
	 width="16px" height="16px" viewBox="0 0 16 16" style="enable-background:new 0 0 16 16;" xml:space="preserve">
<path style="fill:#231F20;" d="M15,3h-1.25h-1.105l0.298-0.427c0.12-0.172,0.181-0.372,0.181-0.573c0-0.158-0.037-0.317-0.113-0.462
	C12.838,1.207,12.497,1,12.124,1h-2C9.505,1.001,8.993,1.269,8.638,1.773L8.181,2.427C8.061,2.598,8,2.798,8,3H8
	c0-0.202-0.061-0.402-0.181-0.573L7.362,1.773C7.007,1.269,6.495,1.001,5.876,1h-2C3.503,1,3.162,1.207,2.99,1.538
	C2.914,1.683,2.876,1.842,2.876,2c0,0.201,0.061,0.401,0.181,0.573L3.355,3H1.031H1C0.448,3,0,3.447,0,4v3c0,0.553,0.448,1,1,1h1
	v6.5C2,14.776,2.224,15,2.5,15h11c0.276,0,0.5-0.224,0.5-0.5V8h1c0.552,0,1-0.447,1-1V4C16,3.447,15.552,3,15,3z M5.876,2
	c0.293,0.001,0.498,0.107,0.666,0.347L7,3H6.91H5.159H5C4.707,2.999,4.501,2.894,4.333,2.653L3.876,2H5.876z M7.5,14H3V8h4.5V14z
	 M7.5,7H2.405C2.403,7,2.401,6.999,2.4,6.999S2.397,7,2.395,7H1V4h3.85H5h2H7.5V7z M9.458,2.347C9.625,2.107,9.831,2.001,10.124,2h2
	l-0.456,0.653C11.499,2.894,11.293,2.999,11,3h-0.16H9.09H9L9.458,2.347z M13,14H8.5V8H13V14z M15,7h-1.395
	c-0.002,0-0.003-0.001-0.005-0.001S13.597,7,13.595,7H8.5V4H9h2h0.149H15V7z"/>
</svg>
