<?xml version="1.0" encoding="iso-8859-1"?>
<!-- Generator: Adobe Illustrator 16.0.0, SVG Export Plug-In . SVG Version: 6.00 Build 0)  -->
<!DOCTYPE svg PUBLIC "-//W3C//DTD SVG 1.1//EN" "http://www.w3.org/Graphics/SVG/1.1/DTD/svg11.dtd">
<svg version="1.1" id="Layer" xmlns="http://www.w3.org/2000/svg" xmlns:xlink="http://www.w3.org/1999/xlink" x="0px" y="0px"
	 width="24px" height="24px" viewBox="0 0 24 24" style="enable-background:new 0 0 24 24;" xml:space="preserve">
<path style="fill:#231F20;" d="M21.168,5.301l-8.25-4.086c-0.578-0.286-1.259-0.286-1.835,0L2.832,5.301
	C2.131,5.646,1.688,6.355,1.688,7.134v9.723c-0.005,0.779,0.434,1.492,1.133,1.841l8.251,4.088c0.582,0.287,1.266,0.287,1.846,0
	l8.25-4.088c0.702-0.344,1.144-1.053,1.144-1.827V7.134C22.312,6.355,21.87,5.646,21.168,5.301z M11.693,2.447
	C11.788,2.4,11.894,2.375,12,2.375c0.107,0,0.213,0.025,0.309,0.072l7.676,3.803L12,10.206L4.016,6.249L11.693,2.447z M3.431,17.465
	c-0.228-0.113-0.371-0.344-0.368-0.599V7.312l8.25,4.087l0,9.97L3.431,17.465z M20.563,17.462l-7.876,3.902l0-9.965l8.249-4.087
	v9.558C20.937,17.122,20.794,17.35,20.563,17.462z"/>
</svg>
