<?xml version="1.0" encoding="iso-8859-1"?>
<!-- Generator: Adobe Illustrator 16.0.0, SVG Export Plug-In . SVG Version: 6.00 Build 0)  -->
<!DOCTYPE svg PUBLIC "-//W3C//DTD SVG 1.1//EN" "http://www.w3.org/Graphics/SVG/1.1/DTD/svg11.dtd">
<svg version="1.1" id="Layer" xmlns="http://www.w3.org/2000/svg" xmlns:xlink="http://www.w3.org/1999/xlink" x="0px" y="0px"
	 width="16px" height="16px" viewBox="0 0 16 16" style="enable-background:new 0 0 16 16;" xml:space="preserve">
<path style="fill:#231F20;" d="M14.668,3.128l-6-2.972c-0.42-0.208-0.916-0.208-1.335,0L1.332,3.128
	C0.822,3.379,0.5,3.895,0.5,4.461v7.071c-0.004,0.566,0.316,1.085,0.824,1.339l6.001,2.973c0.423,0.209,0.92,0.209,1.343,0l6-2.973
	c0.51-0.25,0.832-0.766,0.832-1.329V4.461C15.5,3.895,15.178,3.379,14.668,3.128z M7.777,1.053C7.846,1.019,7.923,1,8,1
	c0.078,0,0.155,0.019,0.225,0.053l5.583,2.766L8,6.695L2.193,3.817L7.777,1.053z M1.768,11.975c-0.166-0.082-0.27-0.25-0.268-0.436
	V4.591l6,2.973l0,7.251L1.768,11.975z M14.228,11.973L8.5,14.811l0-7.247l6-2.973v6.951C14.5,11.726,14.396,11.891,14.228,11.973z"
	/>
</svg>
