<?xml version="1.0" encoding="utf-8"?>
<!-- Generator: Adobe Illustrator 16.0.0, SVG Export Plug-In . SVG Version: 6.00 Build 0)  -->
<!DOCTYPE svg PUBLIC "-//W3C//DTD SVG 1.1//EN" "http://www.w3.org/Graphics/SVG/1.1/DTD/svg11.dtd">
<svg version="1.1" id="Layer" xmlns="http://www.w3.org/2000/svg" xmlns:xlink="http://www.w3.org/1999/xlink" x="0px" y="0px"
	 width="16px" height="16px" viewBox="0 0 16 16" enable-background="new 0 0 16 16" xml:space="preserve">
<path fill="#231F20" d="M10.999,0.5H5.001C2.244,0.5,0,2.743,0,5.5v1v8c0,0.553,0.448,1,1,1h14c0.552,0,1-0.447,1-1v-8v-1
	C16,2.743,13.756,0.5,10.999,0.5z M5.001,1.5h5.998c2.21,0,4.001,1.79,4.001,4H9.374c-0.03-0.091-0.057-0.181-0.102-0.271
	L8.875,4.447C8.706,4.114,8.366,3.904,7.993,3.9c-0.003,0-0.006,0-0.009,0c-0.369,0-0.709,0.203-0.883,0.53L6.718,5.149
	C6.656,5.266,6.614,5.383,6.578,5.5H1C1,3.29,2.791,1.5,5.001,1.5z M8.382,6.418L8,7.137L7.602,6.355
	C7.47,6.094,7.463,5.878,7.601,5.619L7.983,4.9l0.397,0.781C8.513,5.944,8.52,6.159,8.382,6.418z M15,14.5H1v-8h5.594
	c0.033,0.104,0.065,0.206,0.117,0.31l0.398,0.781c0.169,0.332,0.509,0.543,0.882,0.546c0.003,0,0.005,0,0.008,0
	c0.37,0,0.709-0.204,0.883-0.531l0.381-0.718C9.333,6.76,9.383,6.63,9.419,6.5H15V14.5z"/>
</svg>
