<?xml version="1.0" encoding="iso-8859-1"?>
<!-- Generator: Adobe Illustrator 16.0.0, SVG Export Plug-In . SVG Version: 6.00 Build 0)  -->
<!DOCTYPE svg PUBLIC "-//W3C//DTD SVG 1.1//EN" "http://www.w3.org/Graphics/SVG/1.1/DTD/svg11.dtd">
<svg version="1.1" id="Layer" xmlns="http://www.w3.org/2000/svg" xmlns:xlink="http://www.w3.org/1999/xlink" x="0px" y="0px"
	 width="24px" height="24px" viewBox="0 0 24 24" style="enable-background:new 0 0 24 24;" xml:space="preserve">
<path style="fill:#231F20;" d="M16.124,1.688H7.876C4.085,1.688,1,4.771,1,8.562v1.375v11c0,0.76,0.616,1.375,1.375,1.375h19.25
	c0.759,0,1.375-0.615,1.375-1.375v-11V8.562C23,4.771,19.915,1.688,16.124,1.688z M7.876,3.062h8.247c3.039,0,5.501,2.461,5.501,5.5
	h-7.736c-0.042-0.125-0.078-0.248-0.14-0.373l-0.546-1.074c-0.232-0.458-0.7-0.747-1.213-0.752c-0.004,0-0.008,0-0.013,0
	c-0.507,0-0.975,0.279-1.214,0.729L10.237,8.08c-0.084,0.16-0.143,0.321-0.192,0.482h-7.67C2.375,5.523,4.838,3.062,7.876,3.062z
	 M12.525,9.824L12,10.812l-0.548-1.074c-0.181-0.359-0.19-0.656-0.001-1.012l0.526-0.988l0.546,1.074
	C12.705,9.174,12.714,9.469,12.525,9.824z M21.625,20.938H2.375v-11h7.691c0.046,0.143,0.089,0.283,0.161,0.426l0.548,1.074
	c0.233,0.456,0.7,0.746,1.213,0.75c0.004,0,0.007,0,0.011,0c0.508,0,0.976-0.28,1.214-0.73l0.524-0.986
	c0.094-0.176,0.163-0.354,0.212-0.533h7.674V20.938z"/>
</svg>
