<?xml version="1.0" encoding="UTF-8"?>
<svg id="Layer_4" xmlns="http://www.w3.org/2000/svg" version="1.1" viewBox="0 0 24 24">
  <!-- Generator: Adobe Illustrator 29.7.1, SVG Export Plug-In . SVG Version: 2.1.1 Build 8)  -->
  <polygon points="9.381 13.148 9.648 13.148 11.277 11.557 4.214 8.058 3.089 9.158 2.524 9.711 2.526 9.712 2.524 9.714 3.089 9.997 4.408 10.657 9.381 13.148" fill="none"/>
  <path d="M12.75,4.162v3.621c-.491.465-.982.465-1.473,0v-3.608l-5.741,2.843,6.49,3.216,6.49-3.216-5.766-2.857Z" fill="none"/>
  <path d="M8.506,14.263l-4.097-1.969v3.845c-.002.213.118.406.308.5l6.587,3.263v-6.277s-.221.23-.221.23c-.947.892-1.77.881-2.576.407Z" fill="none"/>
  <polygon points="20.963 9.158 19.839 8.059 12.776 11.558 14.352 13.097 14.619 13.097 19.643 10.581 20.963 9.92 21.476 9.663 21.474 9.661 21.476 9.66 20.963 9.158" fill="none"/>
  <path d="M12.918,13.805l-.168-.175v6.268s6.581-3.261,6.581-3.261c.193-.094.312-.284.312-.495v-3.924l-4.149,1.994c-.806.473-1.629.484-2.576-.407Z" fill="none"/>
  <path d="M22.812,8.949c-.052-.095-.101-.192-.194-.285l-2.195-2.143-.038-.037-.006.005c-.122-.113-.252-.219-.407-.295l-7.15-3.541c-.501-.248-1.091-.248-1.591,0l-7.151,3.541c-.177.087-.328.208-.463.342h-.002s-2.233,2.179-2.233,2.179c-.093.092-.142.19-.194.285-.101.183-.16.375-.153.598l.037.345.072.34c.062.214.178.378.331.521.079.074.156.151.273.211l1.341.645v4.549c-.005.675.376,1.293.982,1.595l7.151,3.543c.504.249,1.097.249,1.6,0l7.15-3.543c.608-.298.991-.912.991-1.583v-4.637l1.289-.62c.117-.059.194-.137.273-.211.153-.143.268-.307.331-.521l.072-.34.037-.345c.007-.223-.052-.415-.153-.598ZM3.089,9.997l-.565-.283v-.002s0-.001,0-.001l.565-.553,1.125-1.1,7.063,3.499-1.629,1.59h-.266l-4.973-2.49-1.319-.661ZM11.302,19.902l-6.587-3.263c-.19-.095-.31-.287-.308-.5v-3.845l4.097,1.969c.806.473,1.629.484,2.576-.407l.221-.23v6.277ZM5.536,7.018l5.741-2.843v3.608c.491.465.982.465,1.473,0v-3.621l5.766,2.857-6.49,3.216-6.49-3.216ZM19.643,16.142c0,.211-.119.401-.312.495l-6.581,3.261v-6.268s.168.175.168.175c.947.892,1.77.881,2.576.407l4.149-1.994v3.924ZM21.476,9.663l-.513.257-1.32.661-5.025,2.516h-.266l-1.577-1.539,7.063-3.499,1.124,1.1.513.502h-.002s.001.003.001.003Z" fill="#231f20"/>
</svg>