<?xml version="1.0" encoding="iso-8859-1"?>
<!-- Generator: Adobe Illustrator 16.0.0, SVG Export Plug-In . SVG Version: 6.00 Build 0)  -->
<!DOCTYPE svg PUBLIC "-//W3C//DTD SVG 1.1//EN" "http://www.w3.org/Graphics/SVG/1.1/DTD/svg11.dtd">
<svg version="1.1" id="Layer" xmlns="http://www.w3.org/2000/svg" xmlns:xlink="http://www.w3.org/1999/xlink" x="0px" y="0px"
	 width="16px" height="16px" viewBox="0 0 16 16" style="enable-background:new 0 0 16 16;" xml:space="preserve">
<g>
	<path style="fill:#231F20;" d="M15.954,6.203c-0.116-0.367-0.433-0.636-0.815-0.689l-4.324-0.604L8.888,1.184
		C8.717,0.852,8.374,0.643,8,0.643S7.283,0.852,7.112,1.184L5.186,4.909L0.862,5.514c-0.382,0.054-0.7,0.322-0.815,0.689
		c-0.116,0.368-0.01,0.771,0.273,1.033l3.1,2.882L2.69,14.181c-0.067,0.373,0.083,0.751,0.386,0.978
		c0.176,0.132,0.387,0.199,0.599,0.199c0.153,0,0.307-0.035,0.449-0.106L8,13.305l3.876,1.946c0.142,0.071,0.295,0.106,0.449,0.106
		c0.212,0,0.422-0.067,0.598-0.199c0.304-0.227,0.453-0.604,0.386-0.978l-0.729-4.062l3.1-2.882
		C15.963,6.974,16.07,6.571,15.954,6.203z M11.5,9.758l0.825,4.6L8,12.186l-4.326,2.172l0.826-4.6L1,6.504l4.836-0.676L8,1.643
		l2.164,4.186L15,6.504L11.5,9.758z"/>
</g>
</svg>
