<?xml version="1.0" encoding="utf-8"?>
<!-- Generator: Adobe Illustrator 24.0.3, SVG Export Plug-In . SVG Version: 6.00 Build 0)  -->
<svg version="1.1" id="Layer" xmlns="http://www.w3.org/2000/svg" xmlns:xlink="http://www.w3.org/1999/xlink" x="0px" y="0px"
	 viewBox="0 0 24 24" enable-background="new 0 0 24 24" xml:space="preserve">
<g>
	<path fill="#231F20" d="M22.937,9.529c-0.159-0.505-0.596-0.874-1.122-0.948L15.87,7.75l-2.649-5.123
		C12.986,2.171,12.514,1.884,12,1.884s-0.986,0.287-1.221,0.743L8.13,7.75L2.185,8.581C1.659,8.655,1.223,9.024,1.063,9.529
		c-0.16,0.506-0.013,1.06,0.375,1.421l4.263,3.962l-1.003,5.586c-0.092,0.514,0.113,1.033,0.53,1.345
		c0.242,0.181,0.532,0.273,0.823,0.273c0.211,0,0.421-0.048,0.617-0.146L12,19.294l5.33,2.676c0.195,0.099,0.406,0.146,0.617,0.146
		c0.292,0,0.58-0.093,0.822-0.273c0.418-0.312,0.623-0.831,0.531-1.345l-1.003-5.586l4.263-3.962
		C22.95,10.589,23.096,10.035,22.937,9.529z"/>
</g>
</svg>
