<?xml version="1.0" encoding="iso-8859-1"?>
<!-- Generator: Adobe Illustrator 16.0.0, SVG Export Plug-In . SVG Version: 6.00 Build 0)  -->
<!DOCTYPE svg PUBLIC "-//W3C//DTD SVG 1.1//EN" "http://www.w3.org/Graphics/SVG/1.1/DTD/svg11.dtd">
<svg version="1.1" id="Layer" xmlns="http://www.w3.org/2000/svg" xmlns:xlink="http://www.w3.org/1999/xlink" x="0px" y="0px"
	 width="24px" height="24px" viewBox="0 0 24 24" style="enable-background:new 0 0 24 24;" xml:space="preserve">
<path style="fill:#231F20;" d="M10.628,18.188c-1.137,0-2.062,0.925-2.062,2.062s0.925,2.062,2.062,2.062
	c1.137,0,2.062-0.925,2.062-2.062S11.766,18.188,10.628,18.188z M10.628,20.938c-0.376,0-0.688-0.309-0.688-0.688
	c0-0.383,0.311-0.688,0.688-0.688c0.381,0,0.688,0.305,0.688,0.688C11.316,20.629,11.009,20.938,10.628,20.938z M18.876,18.188
	c-1.137,0-2.062,0.925-2.062,2.062s0.925,2.062,2.062,2.062s2.062-0.925,2.062-2.062S20.013,18.188,18.876,18.188z M18.876,20.938
	c-0.378,0-0.688-0.309-0.688-0.688c0-0.383,0.31-0.688,0.688-0.688c0.38,0,0.688,0.305,0.688,0.688
	C19.564,20.629,19.257,20.938,18.876,20.938z M22.844,6.417c-0.131-0.159-0.326-0.251-0.532-0.251H6.939L6.117,2.234
	C6.051,1.916,5.77,1.688,5.444,1.688H2.55c-0.403,0-0.685,0.147-0.915,0.477L1.006,3.062H1c0.002,0,0.003,0.001,0.006,0.001h3.88
	L5.7,6.961c0.005,0.022,0.009,0.045,0.016,0.066l1.565,7.492c0.243,1.157,1.294,1.984,2.498,1.984c0.017,0,0.033,0,0.05,0h9.096
	c1.221,0.007,2.314-0.81,2.563-1.993l1.499-7.523C23.027,6.786,22.975,6.576,22.844,6.417z M20.141,14.234
	c-0.112,0.53-0.566,0.924-1.202,0.895H9.816c-0.559,0.001-1.078-0.364-1.189-0.894l-1.4-6.694h14.249L20.141,14.234z"/>
</svg>
