<?xml version="1.0" encoding="iso-8859-1"?>
<!-- Generator: Adobe Illustrator 16.0.0, SVG Export Plug-In . SVG Version: 6.00 Build 0)  -->
<!DOCTYPE svg PUBLIC "-//W3C//DTD SVG 1.1//EN" "http://www.w3.org/Graphics/SVG/1.1/DTD/svg11.dtd">
<svg version="1.1" id="Layer" xmlns="http://www.w3.org/2000/svg" xmlns:xlink="http://www.w3.org/1999/xlink" x="0px" y="0px"
	 width="16px" height="16px" viewBox="0 0 16 16" style="enable-background:new 0 0 16 16;" xml:space="preserve">
<path style="fill:#231F20;" d="M7.002,12.5c-0.827,0-1.5,0.673-1.5,1.5s0.673,1.5,1.5,1.5c0.827,0,1.5-0.673,1.5-1.5
	S7.83,12.5,7.002,12.5z M7.002,14.5c-0.274,0-0.5-0.225-0.5-0.5c0-0.278,0.226-0.5,0.5-0.5c0.277,0,0.5,0.222,0.5,0.5
	C7.502,14.275,7.279,14.5,7.002,14.5z M13.001,12.5c-0.827,0-1.5,0.673-1.5,1.5s0.673,1.5,1.5,1.5s1.5-0.673,1.5-1.5
	S13.828,12.5,13.001,12.5z M13.001,14.5c-0.275,0-0.5-0.225-0.5-0.5c0-0.278,0.225-0.5,0.5-0.5c0.277,0,0.5,0.222,0.5,0.5
	C13.501,14.275,13.278,14.5,13.001,14.5z M15.887,3.939C15.792,3.824,15.65,3.757,15.5,3.757H4.319L3.721,0.897
	C3.673,0.666,3.469,0.5,3.232,0.5H1.127c-0.293,0-0.498,0.107-0.666,0.347L0.004,1.499H0c0.001,0,0.002,0.001,0.004,0.001h2.822
	l0.592,2.835C3.422,4.352,3.425,4.368,3.43,4.384l1.139,5.448c0.177,0.842,0.941,1.443,1.816,1.443c0.012,0,0.024,0,0.037,0h6.615
	c0.888,0.005,1.683-0.589,1.864-1.449l1.09-5.472C16.02,4.208,15.981,4.056,15.887,3.939z M13.921,9.625
	c-0.082,0.386-0.412,0.672-0.875,0.65H6.412c-0.407,0.001-0.784-0.265-0.865-0.649L4.528,4.757h10.363L13.921,9.625z"/>
</svg>
