<?xml version="1.0" encoding="iso-8859-1"?>
<!-- Generator: Adobe Illustrator 16.0.0, SVG Export Plug-In . SVG Version: 6.00 Build 0)  -->
<!DOCTYPE svg PUBLIC "-//W3C//DTD SVG 1.1//EN" "http://www.w3.org/Graphics/SVG/1.1/DTD/svg11.dtd">
<svg version="1.1" id="Layer" xmlns="http://www.w3.org/2000/svg" xmlns:xlink="http://www.w3.org/1999/xlink" x="0px" y="0px"
	 width="24px" height="24px" viewBox="0 0 24 24" style="enable-background:new 0 0 24 24;" xml:space="preserve">
<path style="fill:#231F20;" d="M13.942,22.594c-0.543,0.541-1.417,0.541-1.96,0L1.405,12.019c-0.321-0.322-0.465-0.786-0.382-1.235
	L2.29,3.981C2.341,3.669,2.456,3.24,2.848,2.849c0.32-0.321,0.763-0.545,1.213-0.623l6.734-1.203
	c0.443-0.082,0.902,0.063,1.223,0.385l10.576,10.575c0.542,0.54,0.541,1.417,0,1.957L13.942,22.594z M11.037,2.387L4.292,3.594
	C4.11,3.622,3.934,3.723,3.827,3.83S3.681,4.05,3.651,4.232l-1.266,6.805l10.578,10.578l8.653-8.651L11.037,2.387z M4.805,4.806
	c-0.27,0.272-0.27,0.709,0,0.981c0.271,0.267,0.708,0.267,0.98,0c0.271-0.272,0.271-0.709,0-0.981
	C5.514,4.539,5.077,4.539,4.805,4.806z"/>
</svg>
