<?xml version="1.0" encoding="utf-8"?>
<!-- Generator: Adobe Illustrator 16.0.0, SVG Export Plug-In . SVG Version: 6.00 Build 0)  -->
<!DOCTYPE svg PUBLIC "-//W3C//DTD SVG 1.1//EN" "http://www.w3.org/Graphics/SVG/1.1/DTD/svg11.dtd">
<svg version="1.1" id="Layer" xmlns="http://www.w3.org/2000/svg" xmlns:xlink="http://www.w3.org/1999/xlink" x="0px" y="0px"
	 width="16px" height="16px" viewBox="0 0 16 16" enable-background="new 0 0 16 16" xml:space="preserve">
<path fill="#231F20" d="M9.346,15.597c-0.391,0.391-1.023,0.391-1.414,0l-7.64-7.64C0.06,7.725-0.043,7.392,0.017,7.067l0.915-4.916
	c0.037-0.223,0.12-0.532,0.403-0.816c0.231-0.231,0.551-0.395,0.876-0.45l4.863-0.869c0.321-0.058,0.651,0.046,0.883,0.277
	l7.639,7.64c0.391,0.391,0.391,1.023,0,1.414L9.346,15.597z M7.25,1L2.377,1.871C2.246,1.894,2.119,1.965,2.042,2.042
	s-0.105,0.16-0.127,0.292L1,7.25l7.639,7.64l6.25-6.25L7.25,1z M2.749,2.749c-0.195,0.195-0.195,0.512,0,0.707s0.512,0.195,0.707,0
	s0.195-0.512,0-0.707S2.944,2.554,2.749,2.749z"/>
</svg>
