<?xml version="1.0" encoding="utf-8"?>
<!-- Generator: Adobe Illustrator 16.0.0, SVG Export Plug-In . SVG Version: 6.00 Build 0)  -->
<!DOCTYPE svg PUBLIC "-//W3C//DTD SVG 1.1//EN" "http://www.w3.org/Graphics/SVG/1.1/DTD/svg11.dtd">
<svg version="1.1" id="Layer" xmlns="http://www.w3.org/2000/svg" xmlns:xlink="http://www.w3.org/1999/xlink" x="0px" y="0px"
	 width="16px" height="16px" viewBox="0 0 16 16" enable-background="new 0 0 16 16" xml:space="preserve">
<path fill="#231F20" d="M13.072,3.18l-4.13-2.878C8.671,0.11,8.328,0,8,0C7.599,0,7.319,0.161,7.132,0.294L2.934,3.176
	C2.663,3.362,2.5,3.671,2.5,4v11c0,0.553,0.448,1,1,1h9c0.552,0,1-0.447,1-1V4C13.5,3.673,13.34,3.366,13.072,3.18z M12.5,15h-9V4
	l4.198-2.882C7.809,1.04,7.889,1,8,1s0.254,0.04,0.364,0.118L12.5,4V15z M8.5,2.5C8.5,2.776,8.276,3,8,3S7.5,2.776,7.5,2.5
	S7.724,2,8,2S8.5,2.224,8.5,2.5z M10.647,10.525c0.114,0.26,0.173,0.58,0.175,0.962c0.005,0.74-0.266,1.301-0.812,1.685
	c-0.293,0.205-0.658,0.353-1.083,0.45c-0.192,0.245-0.419,0.369-0.744,0.374L7.228,14L7.4,13.748
	c-0.573-0.01-1.058-0.056-1.402-0.156c-0.401-0.113-0.675-0.202-0.82-0.261c0.215-0.627,0.807-0.974,1.46-0.86
	c0.389,0.07,0.616,0.073,1.012,0.07c0.587-0.004,1.025-0.085,1.305-0.239c0.282-0.157,0.422-0.405,0.419-0.743
	c-0.002-0.349-0.144-0.627-0.422-0.83c-0.278-0.202-0.737-0.432-1.375-0.685C7.267,9.923,6.971,9.801,6.687,9.672
	C6.404,9.546,6.159,9.397,5.951,9.224C5.745,9.05,5.58,8.84,5.455,8.597c-0.126-0.248-0.19-0.55-0.193-0.91
	C5.257,6.979,5.516,6.412,6.036,5.995c0.332-0.269,0.749-0.442,1.236-0.54L7.296,5.42c0.2-0.291,0.445-0.419,0.797-0.424
	l0.956-0.005L8.778,5.384c0.025,0.004,0.05,0.002,0.075,0.005C9.078,5.41,9.292,5.441,9.486,5.477
	c0.196,0.035,0.37,0.071,0.517,0.112c0.151,0.039,0.265,0.075,0.35,0.104c-0.239,0.627-0.801,0.973-1.47,0.897
	C8.613,6.558,8.46,6.553,8.188,6.554c-0.4,0.003-0.753,0.088-1.052,0.25c-0.297,0.162-0.444,0.411-0.441,0.75
	C6.696,7.728,6.73,7.882,6.799,8.017C6.867,8.15,6.97,8.27,7.108,8.376c0.142,0.106,0.315,0.207,0.52,0.296
	c0.207,0.09,0.454,0.188,0.743,0.288c0.38,0.144,0.721,0.282,1.019,0.416c0.301,0.138,0.553,0.299,0.767,0.481
	C10.369,10.041,10.533,10.264,10.647,10.525z"/>
</svg>
