<?xml version="1.0" encoding="iso-8859-1"?>
<!-- Generator: Adobe Illustrator 16.0.0, SVG Export Plug-In . SVG Version: 6.00 Build 0)  -->
<!DOCTYPE svg PUBLIC "-//W3C//DTD SVG 1.1//EN" "http://www.w3.org/Graphics/SVG/1.1/DTD/svg11.dtd">
<svg version="1.1" id="Layer" xmlns="http://www.w3.org/2000/svg" xmlns:xlink="http://www.w3.org/1999/xlink" x="0px" y="0px"
	 width="24px" height="24px" viewBox="0 0 24 24" style="enable-background:new 0 0 24 24;" xml:space="preserve">
<path style="fill:#231F20;" d="M18.974,5.372l-5.679-3.957C12.922,1.151,12.451,1,12,1c-0.552,0-0.937,0.222-1.193,0.404
	L5.034,5.367C4.661,5.623,4.438,6.048,4.438,6.5v15.125c0,0.76,0.616,1.375,1.375,1.375h12.375c0.759,0,1.375-0.615,1.375-1.375V6.5
	C19.562,6.05,19.342,5.629,18.974,5.372z M18.188,21.625H5.812V6.5l5.772-3.963C11.737,2.43,11.847,2.375,12,2.375
	s0.349,0.055,0.501,0.162L18.188,6.5V21.625z M12.688,4.438c0,0.38-0.308,0.688-0.688,0.688s-0.688-0.308-0.688-0.688
	S11.62,3.75,12,3.75S12.688,4.058,12.688,4.438z M15.64,15.473c0.156,0.357,0.238,0.797,0.241,1.322
	c0.007,1.018-0.366,1.789-1.116,2.316c-0.403,0.282-0.904,0.484-1.49,0.619c-0.264,0.337-0.577,0.508-1.022,0.514l-1.314,0.006
	l0.238-0.347c-0.789-0.013-1.455-0.076-1.929-0.215c-0.552-0.155-0.928-0.277-1.128-0.358c0.296-0.862,1.11-1.339,2.008-1.183
	c0.535,0.097,0.847,0.101,1.392,0.097c0.807-0.006,1.409-0.117,1.795-0.329c0.388-0.216,0.58-0.558,0.577-1.022
	c-0.003-0.479-0.198-0.861-0.581-1.141c-0.382-0.278-1.013-0.594-1.891-0.941c-0.427-0.167-0.833-0.334-1.225-0.512
	c-0.389-0.173-0.725-0.377-1.011-0.616C8.899,13.443,8.672,13.154,8.5,12.82c-0.174-0.341-0.262-0.756-0.265-1.251
	C8.228,10.596,8.584,9.816,9.3,9.243c0.457-0.369,1.03-0.608,1.699-0.742l0.033-0.049c0.275-0.399,0.612-0.576,1.096-0.583
	l1.315-0.006L13.07,8.402c0.035,0.006,0.068,0.003,0.104,0.007c0.309,0.03,0.603,0.073,0.869,0.121
	c0.27,0.048,0.508,0.098,0.71,0.154c0.208,0.054,0.365,0.104,0.481,0.144c-0.329,0.862-1.101,1.338-2.021,1.234
	c-0.37-0.046-0.581-0.053-0.956-0.051c-0.551,0.004-1.036,0.12-1.446,0.344c-0.408,0.223-0.61,0.564-0.607,1.031
	c0.002,0.238,0.049,0.451,0.145,0.636c0.093,0.185,0.235,0.349,0.425,0.494c0.195,0.146,0.433,0.285,0.714,0.407
	c0.285,0.123,0.624,0.258,1.022,0.396c0.522,0.197,0.991,0.388,1.4,0.571c0.414,0.189,0.761,0.411,1.055,0.662
	C15.258,14.807,15.482,15.112,15.64,15.473z"/>
</svg>
