<?xml version="1.0" encoding="utf-8"?>
<!-- Generator: Adobe Illustrator 16.0.0, SVG Export Plug-In . SVG Version: 6.00 Build 0)  -->
<!DOCTYPE svg PUBLIC "-//W3C//DTD SVG 1.1//EN" "http://www.w3.org/Graphics/SVG/1.1/DTD/svg11.dtd">
<svg version="1.1" id="Layer" xmlns="http://www.w3.org/2000/svg" xmlns:xlink="http://www.w3.org/1999/xlink" x="0px" y="0px"
	 width="16px" height="16px" viewBox="0 0 16 16" enable-background="new 0 0 16 16" xml:space="preserve">
<path fill="#231F20" d="M14.995,13.495l-1-7.599C13.941,5.387,13.512,5,13,5H3C2.488,5,2.059,5.387,2.005,5.896l-1,7.599
	C1.002,13.53,1,13.565,1,13.6C1,14.924,2.077,16,3.4,16l9.5-0.001c1.256,0,2.101-0.964,2.101-2.399
	C15,13.565,14.998,13.53,14.995,13.495z M12.899,15l-9.5,0.001c-0.773,0-1.4-0.626-1.4-1.401L3,6h10l1,7.6
	C14,14.375,13.673,15,12.899,15z M5.019,4.101C5.059,2.319,6.224,0,8.011,0C9.786,0,10.945,2.299,11,4.063l-0.708-0.295
	C10.097,3.688,9.982,3.555,9.9,3.387C9.656,2.482,8.999,1,8.011,1C7.055,1,6.405,2.436,6.142,3.296
	C6.073,3.524,5.945,3.689,5.711,3.793L5.019,4.101z"/>
</svg>
