<?xml version="1.0" encoding="iso-8859-1"?>
<!-- Generator: Adobe Illustrator 16.0.0, SVG Export Plug-In . SVG Version: 6.00 Build 0)  -->
<!DOCTYPE svg PUBLIC "-//W3C//DTD SVG 1.1//EN" "http://www.w3.org/Graphics/SVG/1.1/DTD/svg11.dtd">
<svg version="1.1" id="Layer" xmlns="http://www.w3.org/2000/svg" xmlns:xlink="http://www.w3.org/1999/xlink" x="0px" y="0px"
	 width="16px" height="16px" viewBox="0 0 16 16" style="enable-background:new 0 0 16 16;" xml:space="preserve">
<path style="fill:#231F20;" d="M14.995,13.495l-1-7.599C13.941,5.387,13.512,5,13,5H3C2.488,5,2.059,5.387,2.005,5.896l-1,7.599
	C1.002,13.53,1,13.565,1,13.6C1,14.924,2.077,16,3.4,16l9.5-0.001c1.256,0,2.101-0.964,2.101-2.399
	C15,13.565,14.998,13.53,14.995,13.495z M12.899,15l-9.5,0.001c-0.773,0-1.4-0.626-1.4-1.401L3,6h10l1,7.6
	C14,14.375,13.673,15,12.899,15z"/>
<path style="fill:#231F20;" d="M5.711,3.793c0.234-0.104,0.362-0.269,0.431-0.497C6.405,2.436,7.055,1,8.011,1
	C8.999,1,9.656,2.482,9.9,3.387c0.082,0.168,0.196,0.301,0.392,0.382L11,4.063C10.945,2.299,9.786,0,8.011,0
	C6.224,0,5.059,2.319,5.019,4.101L5.711,3.793z"/>
</svg>
