<?xml version="1.0" encoding="iso-8859-1"?>
<!-- Generator: Adobe Illustrator 16.0.0, SVG Export Plug-In . SVG Version: 6.00 Build 0)  -->
<!DOCTYPE svg PUBLIC "-//W3C//DTD SVG 1.1//EN" "http://www.w3.org/Graphics/SVG/1.1/DTD/svg11.dtd">
<svg version="1.1" id="Layer" xmlns="http://www.w3.org/2000/svg" xmlns:xlink="http://www.w3.org/1999/xlink" x="0px" y="0px"
	 width="24px" height="24px" viewBox="0 0 24 24" style="enable-background:new 0 0 24 24;" xml:space="preserve">
<path style="fill:#231F20;" d="M21.618,19.556L20.243,9.107c-0.073-0.701-0.664-1.232-1.368-1.232H5.125
	c-0.704,0-1.294,0.531-1.368,1.232L2.382,19.556c-0.004,0.049-0.007,0.097-0.007,0.144c0,1.821,1.48,3.301,3.3,3.301l13.062-0.001
	c1.728,0,2.888-1.325,2.888-3.3C21.625,19.652,21.622,19.604,21.618,19.556z M18.737,21.625L5.675,21.626
	c-1.063,0-1.925-0.86-1.925-1.927L5.125,9.25h13.75l1.375,10.449C20.25,20.766,19.8,21.625,18.737,21.625z M7.9,6.639
	C7.956,4.189,9.558,1,12.015,1c2.441,0,4.035,3.161,4.11,5.587l-0.973-0.405c-0.27-0.111-0.427-0.294-0.539-0.525
	c-0.336-1.243-1.24-3.281-2.599-3.281c-1.314,0-2.208,1.974-2.569,3.157C9.35,5.846,9.175,6.073,8.853,6.215L7.9,6.639z"/>
</svg>
