<?xml version="1.0" encoding="iso-8859-1"?>
<!-- Generator: Adobe Illustrator 16.0.0, SVG Export Plug-In . SVG Version: 6.00 Build 0)  -->
<!DOCTYPE svg PUBLIC "-//W3C//DTD SVG 1.1//EN" "http://www.w3.org/Graphics/SVG/1.1/DTD/svg11.dtd">
<svg version="1.1" id="Layer" xmlns="http://www.w3.org/2000/svg" xmlns:xlink="http://www.w3.org/1999/xlink" x="0px" y="0px"
	 width="16px" height="16px" viewBox="0 0 16 16" style="enable-background:new 0 0 16 16;" xml:space="preserve">
<path style="fill:#231F20;" d="M15,0H1C0.448,0,0,0.447,0,1v13c0,0.266,0.105,0.52,0.293,0.707l1,1C1.488,15.902,1.744,16,2,16
	s0.512-0.098,0.707-0.293L4,14.414l1.293,1.293C5.488,15.902,5.744,16,6,16s0.512-0.098,0.707-0.293L8,14.414l1.293,1.293
	C9.488,15.902,9.744,16,10,16s0.512-0.098,0.707-0.293L12,14.414l1.293,1.293C13.488,15.902,13.744,16,14,16
	s0.512-0.098,0.707-0.293l1-1C15.895,14.52,16,14.266,16,14V1C16,0.447,15.552,0,15,0z M15,14l-1,1l-2-2l-2,2l-2-2l-2,2l-2-2l-2,2
	l-1-1V1h14V14z M6.759,8.022C6.666,7.804,6.53,7.617,6.354,7.463C6.178,7.31,5.968,7.174,5.718,7.058
	c-0.248-0.113-0.53-0.231-0.847-0.353C4.631,6.619,4.426,6.537,4.254,6.461c-0.17-0.076-0.314-0.16-0.432-0.25
	c-0.115-0.09-0.2-0.189-0.256-0.301C3.511,5.797,3.483,5.668,3.483,5.523c0-0.282,0.124-0.489,0.372-0.622
	c0.25-0.134,0.544-0.202,0.878-0.202c0.227,0,0.354,0.006,0.578,0.034C5.869,4.8,6.339,4.516,6.542,3.994
	C6.471,3.969,6.376,3.938,6.25,3.905C6.128,3.87,5.984,3.839,5.821,3.809C5.66,3.777,5.482,3.751,5.294,3.731
	C5.273,3.729,5.252,3.73,5.231,3.728l0.228-0.325L4.663,3.4C4.37,3.402,4.165,3.508,3.996,3.748l-0.02,0.029
	C3.57,3.857,3.221,3.999,2.943,4.221C2.507,4.565,2.289,5.036,2.289,5.626c0,0.301,0.051,0.552,0.155,0.759
	c0.102,0.204,0.239,0.38,0.41,0.526c0.172,0.146,0.375,0.271,0.61,0.378C3.7,7.397,3.946,7.501,4.204,7.604
	c0.531,0.215,0.912,0.408,1.142,0.579c0.231,0.171,0.348,0.403,0.348,0.693c0,0.282-0.118,0.488-0.354,0.617
	C5.104,9.62,4.739,9.686,4.25,9.686c-0.33,0-0.519-0.005-0.843-0.065c-0.543-0.098-1.038,0.188-1.221,0.709
	c0.12,0.05,0.348,0.125,0.682,0.223c0.286,0.085,0.69,0.126,1.167,0.138l-0.146,0.209L4.686,10.9
	c0.271-0.002,0.461-0.104,0.622-0.307c0.355-0.079,0.66-0.2,0.906-0.37C6.67,9.908,6.9,9.442,6.9,8.825
	C6.9,8.507,6.853,8.24,6.759,8.022z M8.467,3.667C8.635,3.907,8.83,3.999,9.123,4H14l-0.467-0.666
	C13.365,3.094,13.17,3.002,12.877,3H8L8.467,3.667z M8.467,5.667C8.635,5.907,8.83,5.999,9.123,6H14l-0.467-0.666
	C13.365,5.094,13.17,5.002,12.877,5H8L8.467,5.667z M8.467,7.667C8.635,7.907,8.83,7.999,9.123,8H14l-0.467-0.666
	C13.365,7.094,13.17,7.002,12.877,7H8L8.467,7.667z M8.467,10.667C8.635,10.907,8.83,10.999,9.123,11H14l-0.467-0.666
	c-0.168-0.24-0.363-0.332-0.656-0.334H8L8.467,10.667z"/>
</svg>
