<?xml version="1.0" encoding="iso-8859-1"?>
<!-- Generator: Adobe Illustrator 16.0.0, SVG Export Plug-In . SVG Version: 6.00 Build 0)  -->
<!DOCTYPE svg PUBLIC "-//W3C//DTD SVG 1.1//EN" "http://www.w3.org/Graphics/SVG/1.1/DTD/svg11.dtd">
<svg version="1.1" id="Layer_2" xmlns="http://www.w3.org/2000/svg" xmlns:xlink="http://www.w3.org/1999/xlink" x="0px" y="0px"
	 width="16px" height="16px" viewBox="0 0 16 16" style="enable-background:new 0 0 16 16;" xml:space="preserve">
<path style="fill:#231F20;" d="M9,0v14.877c-0.002,0.293-0.094,0.488-0.334,0.656L8,16V1.123C8.001,0.83,8.093,0.635,8.333,0.467
	L9,0z M4.364,0.467C4.124,0.635,4.032,0.83,4.031,1.123V16l0.666-0.467c0.24-0.168,0.332-0.363,0.334-0.656V0L4.364,0.467z
	 M10.052,0.467C9.812,0.635,9.72,0.83,9.719,1.123V16l0.666-0.467c0.24-0.168,0.332-0.363,0.334-0.656V0L10.052,0.467z
	 M11.239,0.467c-0.24,0.168-0.332,0.363-0.333,0.656V16l0.666-0.467c0.24-0.168,0.332-0.363,0.334-0.656V0L11.239,0.467z
	 M12.427,0.467c-0.24,0.168-0.332,0.363-0.333,0.656V16l0.666-0.467c0.24-0.168,0.332-0.363,0.334-0.656V0L12.427,0.467z
	 M15.333,0.467C15.093,0.635,15.001,0.83,15,1.123V16l0.666-0.467c0.24-0.168,0.332-0.363,0.334-0.656V0L15.333,0.467z M1.958,0.467
	C1.718,0.635,1.626,0.83,1.625,1.123V16l0.666-0.467c0.24-0.168,0.332-0.363,0.334-0.656V0L1.958,0.467z M0.333,0.467
	C0.093,0.635,0.001,0.83,0,1.123V16l0.666-0.467C0.906,15.365,0.998,15.17,1,14.877V0L0.333,0.467z"/>
</svg>
