<?xml version="1.0" encoding="iso-8859-1"?>
<!-- Generator: Adobe Illustrator 16.0.0, SVG Export Plug-In . SVG Version: 6.00 Build 0)  -->
<!DOCTYPE svg PUBLIC "-//W3C//DTD SVG 1.1//EN" "http://www.w3.org/Graphics/SVG/1.1/DTD/svg11.dtd">
<svg version="1.1" id="Layer_2" xmlns="http://www.w3.org/2000/svg" xmlns:xlink="http://www.w3.org/1999/xlink" x="0px" y="0px"
	 width="24px" height="24px" viewBox="0 0 24 24" style="enable-background:new 0 0 24 24;" xml:space="preserve">
<path style="fill:#231F20;" d="M13.375,1v20.456c-0.003,0.402-0.129,0.671-0.459,0.902L12,23V2.544
	c0.001-0.402,0.127-0.671,0.458-0.902L13.375,1z M7.001,1.642c-0.331,0.231-0.457,0.5-0.458,0.902V23l0.916-0.642
	c0.33-0.231,0.456-0.5,0.459-0.902V1L7.001,1.642z M14.821,1.642c-0.331,0.231-0.457,0.5-0.458,0.902V23l0.916-0.642
	c0.33-0.231,0.456-0.5,0.459-0.902V1L14.821,1.642z M16.454,1.642c-0.331,0.231-0.457,0.5-0.458,0.902V23l0.916-0.642
	c0.33-0.231,0.456-0.5,0.459-0.902V1L16.454,1.642z M18.087,1.642c-0.331,0.231-0.457,0.5-0.458,0.902V23l0.916-0.642
	c0.33-0.231,0.456-0.5,0.459-0.902V1L18.087,1.642z M22.083,1.642c-0.331,0.231-0.457,0.5-0.458,0.902V23l0.916-0.642
	c0.33-0.231,0.456-0.5,0.459-0.902V1L22.083,1.642z M3.692,1.642c-0.331,0.231-0.457,0.5-0.458,0.902V23l0.916-0.642
	c0.33-0.231,0.456-0.5,0.459-0.902V1L3.692,1.642z M1.458,1.642C1.127,1.873,1.001,2.142,1,2.544V23l0.916-0.642
	c0.33-0.231,0.456-0.5,0.459-0.902V1L1.458,1.642z"/>
</svg>
