<?xml version="1.0" encoding="iso-8859-1"?>
<!-- Generator: Adobe Illustrator 16.0.0, SVG Export Plug-In . SVG Version: 6.00 Build 0)  -->
<!DOCTYPE svg PUBLIC "-//W3C//DTD SVG 1.1//EN" "http://www.w3.org/Graphics/SVG/1.1/DTD/svg11.dtd">
<svg version="1.1" id="Layer_2" xmlns="http://www.w3.org/2000/svg" xmlns:xlink="http://www.w3.org/1999/xlink" x="0px" y="0px"
	 width="24px" height="24px" viewBox="0 0 24 24" style="enable-background:new 0 0 24 24;" xml:space="preserve">
<path style="fill:#231F20;" d="M9.661,12.021c-0.227,0-0.411-0.187-0.411-0.411V9.64c0-0.224,0.185-0.411,0.411-0.411h0.553
	c0.227,0,0.411,0.188,0.411,0.411v1.971c0,0.225-0.185,0.411-0.411,0.411H9.661z M17.5,9.661c0-0.224-0.184-0.411-0.411-0.411
	h-3.303c-0.227,0-0.411,0.188-0.411,0.411v0.553c0,0.224,0.184,0.411,0.411,0.411h3.303c0.227,0,0.411-0.188,0.411-0.411V9.661z
	 M14.75,6.911c0-0.224-0.184-0.411-0.411-0.411H9.661C9.434,6.5,9.25,6.688,9.25,6.911v0.553c0,0.224,0.184,0.411,0.411,0.411h4.678
	c0.227,0,0.411-0.188,0.411-0.411V6.911z M3.75,11.036c0-0.224-0.184-0.411-0.411-0.411H2.786c-0.227,0-0.411,0.188-0.411,0.411
	v3.303c0,0.224,0.184,0.411,0.411,0.411h0.553c0.227,0,0.411-0.188,0.411-0.411V11.036z M13.375,15.161
	c0-0.224-0.184-0.411-0.411-0.411H9.661c-0.227,0-0.411,0.188-0.411,0.411v0.553c0,0.224,0.184,0.411,0.411,0.411h3.303
	c0.227,0,0.411-0.188,0.411-0.411V15.161z M14.753,1.411C14.753,1.188,14.569,1,14.342,1h-0.55c-0.227,0-0.414,0.188-0.414,0.411
	l-0.003,1.928c0,0.224,0.184,0.411,0.411,0.411h0.553c0.227,0,0.411-0.188,0.411-0.411L14.753,1.411z M17.911,17.5
	c-0.227,0-0.411,0.188-0.411,0.411v4.678c0,0.224,0.185,0.411,0.411,0.411h0.553c0.227,0,0.411-0.188,0.411-0.411v-4.678
	c0-0.224-0.185-0.411-0.411-0.411H17.911z M22.578,16.125c0.227,0,0.411-0.188,0.411-0.411v-0.553c0-0.224-0.185-0.411-0.411-0.411
	h-3.281c-0.227,0-0.411,0.188-0.411,0.411v0.553c0,0.224,0.185,0.411,0.411,0.411H22.578z M15.987,17.911
	c0-0.224-0.184-0.411-0.411-0.411h-1.79c-0.227,0-0.411,0.188-0.411,0.411v0.553c0,0.224,0.184,0.411,0.411,0.411h1.79
	c0.227,0,0.411-0.188,0.411-0.411V17.911z M21.625,9.661c0-0.224-0.184-0.411-0.411-0.411h-0.553c-0.227,0-0.411,0.188-0.411,0.411
	v3.303c0,0.224,0.184,0.411,0.411,0.411h0.553c0.227,0,0.411-0.188,0.411-0.411V9.661z M12,19.286c0-0.224-0.184-0.411-0.411-0.411
	h-0.553c-0.227,0-0.411,0.188-0.411,0.411v1.928c0,0.224,0.184,0.411,0.411,0.411h0.553c0.227,0,0.411-0.188,0.411-0.411V19.286z
	 M7.875,17.5v4.125C7.875,22.383,7.261,23,6.5,23H2.375C1.614,23,1,22.383,1,21.625V17.5c0-0.758,0.614-1.375,1.375-1.375H6.5
	C7.261,16.125,7.875,16.742,7.875,17.5z M7.016,16.984H1.859v5.156h5.156V16.984z M6.156,17.844H2.719v3.438h3.438V17.844z
	 M7.875,2.375V6.5c0,0.758-0.614,1.375-1.375,1.375H2.375C1.614,7.875,1,7.258,1,6.5V2.375C1,1.617,1.614,1,2.375,1H6.5
	C7.261,1,7.875,1.617,7.875,2.375z M7.016,1.859H1.859v5.156h5.156V1.859z M6.156,2.719H2.719v3.438h3.438V2.719z M23,2.375V6.5
	c0,0.758-0.614,1.375-1.375,1.375H17.5c-0.761,0-1.375-0.617-1.375-1.375V2.375C16.125,1.617,16.739,1,17.5,1h4.124
	C22.386,1,23,1.617,23,2.375z M22.141,1.859h-5.156v5.156h5.156V1.859z M21.281,2.719h-3.438v3.438h3.438V2.719z"/>
</svg>
