<?xml version="1.0" encoding="utf-8"?>
<!-- Generator: Adobe Illustrator 16.0.0, SVG Export Plug-In . SVG Version: 6.00 Build 0)  -->
<!DOCTYPE svg PUBLIC "-//W3C//DTD SVG 1.1//EN" "http://www.w3.org/Graphics/SVG/1.1/DTD/svg11.dtd">
<svg version="1.1" id="Layer_2" xmlns="http://www.w3.org/2000/svg" xmlns:xlink="http://www.w3.org/1999/xlink" x="0px" y="0px"
	 width="16px" height="16px" viewBox="0 0 16 16" enable-background="new 0 0 16 16" xml:space="preserve">
<path fill="#231F20" d="M6.3,8.016c-0.165,0-0.3-0.134-0.3-0.3V6.284c0-0.165,0.135-0.3,0.3-0.3h0.4c0.165,0,0.3,0.135,0.3,0.3
	v1.432c0,0.166-0.135,0.3-0.3,0.3H6.3z M12,6.3C12,6.135,11.866,6,11.7,6H9.3C9.134,6,9,6.135,9,6.3v0.4C9,6.865,9.134,7,9.3,7h2.4
	C11.866,7,12,6.865,12,6.7V6.3z M10,4.3C10,4.135,9.866,4,9.7,4H6.3C6.134,4,6,4.135,6,4.3v0.4C6,4.865,6.134,5,6.3,5h3.4
	C9.866,5,10,4.865,10,4.7V4.3z M2,7.3C2,7.135,1.866,7,1.7,7H1.3C1.134,7,1,7.135,1,7.3v2.4C1,9.865,1.134,10,1.3,10h0.4
	C1.866,10,2,9.865,2,9.7V7.3z M9,10.3C9,10.135,8.866,10,8.7,10H6.3C6.134,10,6,10.135,6,10.3v0.4C6,10.865,6.134,11,6.3,11h2.4
	C8.866,11,9,10.865,9,10.7V10.3z M10.003,0.3c0-0.165-0.134-0.3-0.3-0.3h-0.4c-0.166,0-0.3,0.135-0.3,0.3L9,1.7
	C9,1.865,9.134,2,9.3,2h0.4C9.866,2,10,1.865,10,1.7L10.003,0.3z M12.3,12c-0.165,0-0.3,0.135-0.3,0.3v3.4
	c0,0.165,0.135,0.3,0.3,0.3h0.4c0.165,0,0.3-0.135,0.3-0.3v-3.4c0-0.165-0.135-0.3-0.3-0.3H12.3z M15.692,11
	c0.165,0,0.3-0.135,0.3-0.3v-0.4c0-0.165-0.135-0.3-0.3-0.3h-2.385c-0.165,0-0.3,0.135-0.3,0.3v0.4c0,0.165,0.135,0.3,0.3,0.3
	H15.692z M10.9,12.3c0-0.165-0.134-0.3-0.3-0.3H9.3C9.134,12,9,12.135,9,12.3v0.4C9,12.865,9.134,13,9.3,13h1.3
	c0.166,0,0.3-0.135,0.3-0.3V12.3z M15,6.3C15,6.135,14.866,6,14.7,6h-0.4C14.134,6,14,6.135,14,6.3v2.4C14,8.865,14.134,9,14.3,9
	h0.4C14.866,9,15,8.865,15,8.7V6.3z M8,13.3C8,13.135,7.866,13,7.7,13H7.3C7.134,13,7,13.135,7,13.3v1.4C7,14.865,7.134,15,7.3,15
	h0.4C7.866,15,8,14.865,8,14.7V13.3z M5,12v3c0,0.553-0.447,1-1,1H1c-0.553,0-1-0.447-1-1v-3c0-0.553,0.447-1,1-1H4
	C4.553,11,5,11.447,5,12z M4.375,11.625h-3.75v3.75h3.75V11.625z M3.75,12.25h-2.5v2.5h2.5V12.25z M5,1v3c0,0.553-0.447,1-1,1H1
	C0.447,5,0,4.553,0,4V1c0-0.553,0.447-1,1-1H4C4.553,0,5,0.447,5,1z M4.375,0.625h-3.75v3.75h3.75V0.625z M3.75,1.25h-2.5v2.5h2.5
	V1.25z M16,1v3c0,0.553-0.447,1-1,1H12c-0.553,0-1-0.447-1-1V1c0-0.553,0.447-1,1-1H15C15.553,0,16,0.447,16,1z M15.375,0.625h-3.75
	v3.75h3.75V0.625z M14.75,1.25h-2.5v2.5h2.5V1.25z"/>
</svg>
