<?xml version="1.0" encoding="utf-8"?>
<!-- Generator: Adobe Illustrator 24.3.0, SVG Export Plug-In . SVG Version: 6.00 Build 0)  -->
<svg version="1.1" id="Layer_1" xmlns="http://www.w3.org/2000/svg" xmlns:xlink="http://www.w3.org/1999/xlink" x="0px" y="0px"
	 viewBox="0 0 32 32" style="enable-background:new 0 0 32 32;" xml:space="preserve">
<g>
	<path d="M11.2,9.6c-4.5,2.4-5.2,8-5.3,9c-0.3,3.8,1.1,6.8,2,8.2c0,0,0,0,0,0l1,1.6L9.5,27c0.1-0.3,0.2-0.5,0.1-0.8
		c0-0.2,0-0.4-0.1-0.5c0,0,0,0,0,0c0,0,0,0,0,0l0,0c-0.8-1.2-2-3.7-1.7-6.9c0.1-0.9,0.7-5.6,4.3-7.5c3.3-1.8,7.2-0.2,9.3,2.2
		c1.7,2,3.1,5.4,2.1,7.7c-0.4,0.9-0.9,1.5-1.5,1.7c-1,0.3-2.1-0.4-2.7-1.2c-0.7-1-0.6-2.1-0.6-2.6c0.1-0.5-0.3-1-0.9-1.1
		c-0.5-0.1-1,0.3-1.1,0.9c-0.1,0.7-0.1,2.4,0.9,3.9c1,1.4,3,2.6,4.9,1.9c1.1-0.4,2.1-1.4,2.7-2.8c1.3-3.2-0.3-7.3-2.5-9.8
		C20.2,9.2,15.4,7.3,11.2,9.6z"/>
	<path d="M20.6,20.2c0,0.5,0.5,0.9,1,0.9c0,0,0,0,0,0c0.5,0,1-0.5,0.9-1c0-0.1-0.2-3.6-2.4-6c-0.4-0.4-1-0.4-1.4-0.1
		c-0.4,0.4-0.4,1-0.1,1.4C20.5,17.3,20.6,20.2,20.6,20.2z"/>
	<path d="M10.2,20c-0.2-2.2,1-3.7,1.8-4.3c1.2-1.1,2.9-1.6,4.1-1.3c0.5,0.1,1-0.2,1.2-0.7c0.1-0.5-0.2-1-0.7-1.2
		c-1.8-0.4-4.1,0.2-5.8,1.7c-1.8,1.5-2.7,3.6-2.5,5.9c0.4,4.2,3.2,7.4,4.1,8.4l1.3,1.4l0.4-1.5c0.1-0.5,0-0.9-0.3-1.3
		C13.1,26.5,10.5,23.6,10.2,20z"/>
	<path d="M14.1,19.7c0,0.5,0.4,1,1,1c0.5,0,1-0.4,1-1c0-0.5-0.4-1-1-1C14.5,18.7,14.1,19.1,14.1,19.7z"/>
	<path d="M22.7,25.8L22.7,25.8C22.7,25.8,22.7,25.8,22.7,25.8c-4.1,0.8-6.2-3.7-6.3-3.9c-0.2-0.5-0.8-0.7-1.3-0.5
		c-0.5,0.2-0.7,0.8-0.5,1.3c0.9,2.1,3.9,5.9,8.4,5.1c0,0,0,0,0,0l0,0l1.9-0.3l-1-1.1C23.6,25.9,23.2,25.7,22.7,25.8z"/>
	<path d="M18.7,28.3c-0.1-0.5-0.3-0.8-0.7-1.1c0,0,0,0,0,0c0,0,0,0,0,0c0,0,0,0,0,0l0,0c-3.3-1.6-5.5-5.3-4.5-7.9
		c0.8-2.1,2.6-1.7,2.9-1.5c0.5,0.2,1.1-0.1,1.2-0.6c0.2-0.5-0.1-1.1-0.6-1.2c-1.1-0.4-4.2-0.7-5.4,2.7c-1.3,3.5,1.3,8.3,5.5,10.3
		c0.1,0,0.2,0.1,0.3,0.1l1.5,0.7L18.7,28.3z"/>
	<path d="M25.9,11.8c-1.1-1.6-4.7-6.2-10.6-5.9c-2.8,0.1-4.5,0.7-6,1.8C8.9,8.1,8.8,8.7,9.2,9.2c0.3,0.4,0.9,0.5,1.4,0.2
		C11.7,8.4,13,8,15.4,7.9c4.9-0.3,8,3.7,8.9,5c0,0,0,0,0,0l0,0l0.1,0.2c0,0,0,0.1,0.1,0.1c0,0,0,0,0,0l0.9,1.3l0.6-1.4
		C26.2,12.7,26.2,12.3,25.9,11.8z"/>
	<path d="M6.7,13.2c0.3-0.4,1.1-1.8,1.8-2.3C9,10.6,9.1,10,8.8,9.5C8.4,9.1,7.8,9,7.4,9.3c-1,0.7-2,2.2-2.3,2.7c0,0,0,0,0,0l0,0
		c-0.2,0.4-0.2,0.9,0,1.3l0.7,1.3L6.7,13.2z"/>
	<path d="M6.7,9.3L8,7.9c0,0,0,0,0,0c1.1-1,4-3.2,7.9-3c3.7,0.2,6.2,2.3,7.2,3.3l0,0l1.4,1.4l0.3-1.5c0.1-0.3,0-0.5,0-0.8
		c0-0.2-0.1-0.4-0.2-0.5c0,0,0,0,0,0c0,0,0,0,0,0l0,0c-1.4-1.4-4.3-3.6-8.5-3.8c-4.8-0.2-8.1,2.4-9.4,3.6c0,0,0,0,0,0l0,0
		C6.3,6.9,6.2,7.4,6.3,7.8L6.7,9.3z"/>
</g>
</svg>
