<?xml version="1.0" encoding="utf-8"?>
<!-- Generator: Adobe Illustrator 25.2.3, SVG Export Plug-In . SVG Version: 6.00 Build 0)  -->
<svg version="1.1" id="Layer_3" xmlns="http://www.w3.org/2000/svg" xmlns:xlink="http://www.w3.org/1999/xlink" x="0px" y="0px"
	 viewBox="0 0 24 24" style="enable-background:new 0 0 24 24;" xml:space="preserve">
<style type="text/css">
	.st0{fill:#231F20;}
</style>
<g>
	<path class="st0" d="M12,2.4c-5.3,0-9.6,4.3-9.6,9.6s4.3,9.6,9.6,9.6s9.6-4.3,9.6-9.6S17.3,2.4,12,2.4z M12,20.2
		c-4.5,0-8.2-3.7-8.2-8.2S7.5,3.8,12,3.8s8.2,3.7,8.2,8.2S16.5,20.2,12,20.2z"/>
	<path class="st0" d="M8.3,11.2c0.9,0,1.5-0.7,1.5-1.5c0-0.9-0.7-1.5-1.5-1.5c-0.9,0-1.5,0.7-1.5,1.5C6.8,10.5,7.5,11.2,8.3,11.2z"
		/>
	<path class="st0" d="M15.6,11.2c0.9,0,1.5-0.7,1.5-1.5c0-0.9-0.7-1.5-1.5-1.5c-0.9,0-1.5,0.7-1.5,1.5C14,10.5,14.7,11.2,15.6,11.2z
		"/>
	<path class="st0" d="M16.7,13.3c-0.2,0-0.4,0.2-0.5,0.4l0,0c-0.8,1.7-2.4,2.8-4.3,2.8c-1.8,0-3.4-1.1-4.2-2.7
		c-0.1-0.3-0.4-0.5-0.7-0.4c-0.4,0-0.6,0.4-0.6,0.7c0,0,0,0,0,0.1l0,0c0,0,0,0.1,0.1,0.1c0,0,0,0.1,0,0.1c0.8,2,2.9,3.5,5.4,3.5
		c2.4,0,4.5-1.4,5.4-3.4c0.1-0.1,0.2-0.3,0.2-0.5C17.4,13.6,17.1,13.3,16.7,13.3z"/>
</g>
</svg>
