<?xml version="1.0" encoding="utf-8"?>
<!-- Generator: Adobe Illustrator 16.0.0, SVG Export Plug-In . SVG Version: 6.00 Build 0)  -->
<!DOCTYPE svg PUBLIC "-//W3C//DTD SVG 1.1//EN" "http://www.w3.org/Graphics/SVG/1.1/DTD/svg11.dtd">
<svg version="1.1" id="Layer_3" xmlns="http://www.w3.org/2000/svg" xmlns:xlink="http://www.w3.org/1999/xlink" x="0px" y="0px"
	 width="59.587px" height="16px" viewBox="0 0 59.587 16" enable-background="new 0 0 59.587 16" xml:space="preserve">
<path d="M49.941,6.267c-0.602-0.706-1.469-1.058-2.6-1.058c-0.484,0-0.959,0.092-1.422,0.274c-0.463,0.182-0.873,0.457-1.227,0.823
	c-0.357,0.366-0.641,0.827-0.857,1.381c-0.215,0.556-0.322,1.203-0.322,1.946c0,0.635,0.082,1.219,0.25,1.751
	c0.166,0.533,0.424,0.994,0.768,1.381c0.344,0.389,0.783,0.693,1.316,0.912c0.533,0.223,1.164,0.332,1.896,0.332
	c0.584,0,1.104-0.053,1.561-0.162c0.457-0.107,0.779-0.209,0.961-0.305c-0.195-0.637-0.777-1.008-1.434-0.914
	c-0.359,0.049-0.564,0.057-0.926,0.057c-0.938,0-1.625-0.227-2.066-0.678c-0.441-0.455-0.695-1.115-0.76-1.986h5.752
	c0.01-0.088,0.016-0.181,0.016-0.283V9.487C50.847,8.046,50.544,6.972,49.941,6.267z M45.113,8.81
	c0.031-0.29,0.098-0.576,0.201-0.855c0.102-0.28,0.246-0.527,0.43-0.743c0.182-0.216,0.406-0.39,0.668-0.525
	c0.264-0.134,0.568-0.2,0.912-0.2c0.615,0,1.098,0.217,1.447,0.653c0.348,0.437,0.52,0.993,0.51,1.671H45.113z M41.253,6.267
	c-0.602-0.706-1.469-1.058-2.6-1.058c-0.484,0-0.959,0.092-1.422,0.274c-0.463,0.182-0.873,0.457-1.227,0.823
	c-0.357,0.366-0.641,0.827-0.857,1.381c-0.215,0.556-0.322,1.203-0.322,1.946c0,0.635,0.082,1.219,0.25,1.751
	c0.166,0.533,0.424,0.994,0.768,1.381c0.344,0.389,0.783,0.693,1.316,0.912c0.533,0.223,1.164,0.332,1.896,0.332
	c0.584,0,1.104-0.053,1.561-0.162c0.457-0.107,0.779-0.209,0.961-0.305c-0.195-0.637-0.777-1.008-1.434-0.914
	c-0.359,0.049-0.564,0.057-0.926,0.057c-0.938,0-1.625-0.227-2.066-0.678c-0.441-0.455-0.695-1.115-0.76-1.986h5.752
	c0.01-0.088,0.016-0.181,0.016-0.283V9.487C42.16,8.046,41.857,6.972,41.253,6.267z M36.425,8.81
	c0.031-0.29,0.098-0.576,0.201-0.855c0.102-0.28,0.246-0.527,0.43-0.743c0.182-0.216,0.406-0.39,0.668-0.525
	c0.264-0.134,0.568-0.2,0.912-0.2c0.615,0,1.098,0.217,1.447,0.653c0.348,0.437,0.52,0.993,0.51,1.671H36.425z M25.986,6.946v6.888
	c0.828,0,1.5-0.672,1.5-1.5V5.446C26.658,5.446,25.986,6.118,25.986,6.946 M25.765,2.94c0,0.535,0.434,0.969,0.971,0.969
	c0.535,0,0.969-0.434,0.969-0.969c0-0.537-0.434-0.971-0.969-0.971C26.199,1.97,25.765,2.403,25.765,2.94 M59.308,2.868
	c-0.686,0-1.242,0.558-1.242,1.241v1.518c-0.127-0.059-0.27-0.121-0.43-0.184c-0.404-0.154-0.879-0.234-1.414-0.234
	c-0.596,0-1.131,0.109-1.592,0.322c-0.467,0.215-0.867,0.516-1.188,0.898c-0.316,0.377-0.562,0.834-0.727,1.357
	c-0.162,0.512-0.244,1.307-0.244,1.918c0,0.654,0.098,1.252,0.291,1.77c0.199,0.531,0.479,0.988,0.832,1.357
	c0.355,0.373,0.789,0.662,1.285,0.859c0.492,0.195,1.045,0.295,1.639,0.295c0.695,0,1.281-0.047,1.746-0.141
	c0.455-0.09,0.836-0.189,1.135-0.291l0.188-0.064V2.868H59.308z M58.087,12.352c-0.037,0.008-0.074,0.016-0.111,0.023
	c-0.258,0.051-0.713,0.111-1.457,0.111c-0.404,0-0.77-0.062-1.084-0.189c-0.297-0.117-0.551-0.285-0.754-0.5
	c-0.215-0.223-0.385-0.506-0.512-0.844c-0.131-0.35-0.197-0.771-0.197-1.248c0-0.461,0.059-1.103,0.174-1.465
	c0.105-0.336,0.254-0.618,0.445-0.844c0.18-0.215,0.396-0.379,0.666-0.502c0.268-0.124,0.59-0.186,0.965-0.186
	c0.344,0,0.646,0.047,0.877,0.135c0.121,0.047,0.234,0.098,0.334,0.143l0.654,0.305V12.352z M32.484,6.739h-1.92V6.483
	c0-0.42,0.029-0.967,0.096-1.24c0.064-0.275,0.162-0.49,0.289-0.646c0.131-0.156,0.293-0.268,0.486-0.332
	c0.191-0.064,0.42-0.096,0.678-0.096h0.629c0.73,0,1.322-0.592,1.322-1.322h-2.082c-0.568,0-1.041,0.072-1.412,0.217
	c-0.371,0.146-0.67,0.363-0.896,0.654c-0.227,0.293-0.385,0.65-0.475,1.076c-0.094,0.424-0.135,0.912-0.135,1.473v7.564
	c0.275,0,0.529-0.078,0.75-0.207c0.447-0.26,0.75-0.738,0.75-1.293V7.997h3.178C33.742,7.302,33.179,6.739,32.484,6.739z M4,0
	C1.791,0,0,1.79,0,4v12h12c2.209,0,4-1.791,4-4V0H4z M6.596,12.147C6.182,12.739,5.678,13,4.957,13H3l6.404-9.148
	C9.818,3.262,10.322,3,11.043,3H13L6.596,12.147z"/>
</svg>
