<?xml version="1.0" encoding="utf-8"?>
<!-- Generator: Adobe Illustrator 16.0.0, SVG Export Plug-In . SVG Version: 6.00 Build 0)  -->
<!DOCTYPE svg PUBLIC "-//W3C//DTD SVG 1.1//EN" "http://www.w3.org/Graphics/SVG/1.1/DTD/svg11.dtd">
<svg version="1.1" id="Layer_3" xmlns="http://www.w3.org/2000/svg" xmlns:xlink="http://www.w3.org/1999/xlink" x="0px" y="0px"
	 width="59.587px" height="16px" viewBox="0 0 59.587 16" enable-background="new 0 0 59.587 16" xml:space="preserve">
<linearGradient id="SVGID_1_" gradientUnits="userSpaceOnUse" x1="25.9185" y1="22.9458" x2="33.1928" y2="-4.2025">
	<stop  offset="0" style="stop-color:#960049"/>
	<stop  offset="1" style="stop-color:#E00061"/>
</linearGradient>
<path fill="url(#SVGID_1_)" d="M4.001,0C1.791,0,0,1.79,0,4v12h12.001c2.209,0,4-1.791,4-4V0H4.001z M14.501,12
	c0,1.381-1.119,2.5-2.5,2.5h-10.5V4c0-1.381,1.118-2.5,2.5-2.5h10.5V12z M11.044,3c-0.722,0-1.226,0.262-1.64,0.853L3.001,13h1.957
	c0.72,0,1.225-0.263,1.639-0.853L13.001,3H11.044z M49.941,6.268c-0.602-0.706-1.469-1.058-2.599-1.058
	c-0.484,0-0.959,0.092-1.422,0.274c-0.463,0.182-0.873,0.457-1.227,0.823c-0.357,0.366-0.641,0.827-0.857,1.381
	c-0.215,0.556-0.322,1.203-0.322,1.946c0,0.635,0.082,1.219,0.25,1.752c0.166,0.533,0.424,0.994,0.768,1.381
	c0.344,0.389,0.783,0.693,1.316,0.912c0.533,0.223,1.164,0.332,1.896,0.332c0.584,0,1.104-0.053,1.561-0.162
	c0.457-0.107,0.779-0.209,0.961-0.305c-0.195-0.637-0.777-1.008-1.434-0.914c-0.359,0.049-0.564,0.057-0.926,0.057
	c-0.937,0-1.624-0.227-2.065-0.678c-0.441-0.455-0.695-1.116-0.76-1.987h5.751c0.01-0.088,0.016-0.181,0.016-0.283V9.488
	C50.847,8.047,50.544,6.973,49.941,6.268z M45.114,8.811c0.031-0.29,0.098-0.576,0.201-0.855c0.102-0.28,0.246-0.527,0.43-0.743
	c0.182-0.216,0.406-0.39,0.668-0.525c0.264-0.134,0.568-0.2,0.912-0.2c0.614,0,1.097,0.217,1.446,0.653
	c0.348,0.437,0.52,0.993,0.51,1.671H45.114z M41.253,6.268c-0.602-0.706-1.469-1.058-2.599-1.058c-0.484,0-0.959,0.092-1.422,0.274
	c-0.463,0.182-0.873,0.457-1.227,0.823c-0.357,0.366-0.641,0.827-0.857,1.381c-0.215,0.556-0.322,1.203-0.322,1.946
	c0,0.635,0.082,1.219,0.25,1.752c0.166,0.533,0.424,0.994,0.768,1.381c0.344,0.389,0.783,0.693,1.316,0.912
	c0.533,0.223,1.164,0.332,1.896,0.332c0.584,0,1.104-0.053,1.561-0.162c0.457-0.107,0.779-0.209,0.961-0.305
	c-0.195-0.637-0.777-1.008-1.434-0.914c-0.359,0.049-0.564,0.057-0.926,0.057c-0.937,0-1.624-0.227-2.065-0.678
	c-0.441-0.455-0.695-1.116-0.76-1.987h5.751c0.01-0.088,0.016-0.181,0.016-0.283V9.488C42.16,8.047,41.857,6.973,41.253,6.268z
	 M36.426,8.811c0.031-0.29,0.098-0.576,0.201-0.855c0.102-0.28,0.246-0.527,0.43-0.743c0.182-0.216,0.406-0.39,0.668-0.525
	c0.264-0.134,0.568-0.2,0.912-0.2c0.614,0,1.097,0.217,1.446,0.653c0.348,0.437,0.52,0.993,0.51,1.671H36.426z M25.987,6.948v6.888
	c0.827,0,1.5-0.672,1.5-1.5V5.448C26.658,5.448,25.987,6.12,25.987,6.948 M25.766,2.941c0,0.535,0.434,0.97,0.97,0.97
	c0.535,0,0.97-0.435,0.97-0.97c0-0.536-0.435-0.971-0.97-0.971C26.2,1.97,25.766,2.405,25.766,2.941 M59.309,2.869
	c-0.686,0-1.243,0.558-1.243,1.241v1.518c-0.126-0.059-0.269-0.121-0.43-0.184C57.233,5.29,56.757,5.21,56.223,5.21
	c-0.596,0-1.132,0.109-1.592,0.322c-0.468,0.215-0.867,0.516-1.188,0.898c-0.317,0.377-0.563,0.834-0.728,1.357
	c-0.162,0.512-0.243,1.307-0.243,1.918c0,0.654,0.098,1.252,0.291,1.771c0.198,0.531,0.478,0.988,0.831,1.357
	c0.355,0.373,0.789,0.662,1.286,0.859c0.492,0.195,1.044,0.295,1.639,0.295c0.694,0,1.281-0.047,1.746-0.141
	c0.455-0.09,0.836-0.189,1.134-0.291l0.188-0.064V2.869H59.309z M58.087,12.354c-0.036,0.008-0.073,0.016-0.111,0.023
	c-0.258,0.051-0.713,0.111-1.456,0.111c-0.404,0-0.77-0.062-1.085-0.189c-0.296-0.117-0.55-0.285-0.754-0.5
	c-0.214-0.223-0.385-0.506-0.512-0.845c-0.13-0.35-0.196-0.771-0.196-1.248c0-0.461,0.059-1.103,0.173-1.465
	c0.105-0.336,0.255-0.618,0.445-0.844c0.18-0.215,0.396-0.379,0.666-0.502c0.268-0.124,0.591-0.186,0.966-0.186
	c0.343,0,0.646,0.047,0.877,0.135c0.121,0.047,0.233,0.098,0.333,0.143l0.654,0.305V12.354z M32.485,6.74h-1.92V6.485
	c0-0.42,0.029-0.967,0.096-1.24c0.064-0.275,0.162-0.49,0.289-0.646c0.131-0.156,0.293-0.268,0.486-0.332
	c0.191-0.064,0.42-0.096,0.678-0.096h0.629c0.73,0,1.322-0.592,1.322-1.322h-2.082c-0.568,0-1.041,0.072-1.412,0.217
	c-0.371,0.146-0.67,0.363-0.896,0.654C29.448,4.012,29.29,4.37,29.2,4.795c-0.094,0.424-0.135,0.912-0.135,1.473v7.563
	c0.274,0,0.528-0.078,0.75-0.207c0.446-0.26,0.75-0.738,0.75-1.293V7.998h3.178C33.743,7.302,33.18,6.74,32.485,6.74z"/>
</svg>
