<?xml version="1.0" encoding="utf-8"?>
<!-- Generator: Adobe Illustrator 16.0.0, SVG Export Plug-In . SVG Version: 6.00 Build 0)  -->
<!DOCTYPE svg PUBLIC "-//W3C//DTD SVG 1.1//EN" "http://www.w3.org/Graphics/SVG/1.1/DTD/svg11.dtd">
<svg version="1.1" id="Layer_2" xmlns="http://www.w3.org/2000/svg" xmlns:xlink="http://www.w3.org/1999/xlink" x="0px" y="0px"
	 width="83.781px" height="16px" viewBox="0 0 83.781 16" enable-background="new 0 0 83.781 16" xml:space="preserve">
<path d="M44.676,5.443c-0.709,0-1.252,0.414-1.442,1.096c-0.064,0.232-0.104,0.359-0.172,0.592c-0.207,0.695-0.33,1.086-0.564,1.773
	c-0.227,0.668-0.356,1.041-0.604,1.701c-0.218,0.578-0.34,0.899-0.58,1.468c-0.242-0.568-0.367-0.89-0.582-1.468
	c-0.246-0.66-0.379-1.033-0.605-1.701c-0.231-0.688-0.356-1.078-0.563-1.773c-0.066-0.232-0.105-0.359-0.17-0.592
	c-0.193-0.682-0.736-1.096-1.443-1.096H37.49c0.48,1.793,0.801,2.789,1.477,4.518c0.601,1.527,0.947,2.38,1.638,3.871h1.42
	c0.688-1.49,1.039-2.344,1.637-3.871c0.678-1.729,0.996-2.725,1.476-4.518H44.676z M31.129,5.4
	c-0.569,0.098-1.028,0.189-1.373,0.275v8.156h1.504V6.74c0.054-0.01,0.142-0.025,0.265-0.047c0.125-0.021,0.266-0.041,0.42-0.057
	c0.156-0.018,0.322-0.031,0.494-0.041c0.172-0.012,0.338-0.016,0.5-0.016c0.399,0,0.731,0.051,1.002,0.152
	c0.27,0.104,0.485,0.268,0.647,0.492c0.158,0.227,0.273,0.523,0.347,0.889c0.069,0.367,0.104,0.809,0.104,1.324v4.395h1.502V9.115
	c0-0.57-0.057-1.092-0.162-1.566c-0.106-0.475-0.293-0.881-0.559-1.219c-0.264-0.342-0.615-0.604-1.057-0.791
	c-0.441-0.189-0.998-0.285-1.664-0.285C32.357,5.253,31.699,5.304,31.129,5.4 M73.205,5.423c-0.526,0.115-0.969,0.234-1.322,0.365
	v8.042h1.5V6.773c0.087-0.021,0.269-0.062,0.541-0.121c0.275-0.059,0.556-0.09,0.837-0.09c0.131,0,0.202,0,0.334,0.006
	c0.739,0.031,1.327-0.369,1.567-1.07c-0.063-0.021-0.164-0.047-0.299-0.074c-0.133-0.025-0.281-0.053-0.443-0.08
	c-0.162-0.027-0.325-0.047-0.491-0.066c-0.168-0.014-0.316-0.023-0.445-0.023C74.326,5.253,73.732,5.31,73.205,5.423 M52.188,6.287
	c-0.604-0.705-1.472-1.057-2.601-1.057c-0.483,0-0.959,0.092-1.422,0.273s-0.873,0.457-1.227,0.824
	c-0.357,0.365-0.642,0.826-0.857,1.381c-0.215,0.555-0.321,1.203-0.321,1.944c0,0.636,0.081,1.22,0.25,1.754
	c0.165,0.533,0.424,0.992,0.768,1.381c0.344,0.387,0.783,0.691,1.316,0.912c0.532,0.221,1.163,0.33,1.896,0.33
	c0.584,0,1.102-0.053,1.559-0.16c0.457-0.109,0.779-0.211,0.962-0.307c-0.193-0.638-0.775-1.008-1.435-0.914
	c-0.356,0.051-0.563,0.057-0.924,0.057c-0.938,0-1.625-0.227-2.066-0.678c-0.44-0.453-0.694-1.115-0.76-1.986h5.75
	c0.01-0.088,0.016-0.18,0.016-0.283V9.507C53.092,8.066,52.791,6.992,52.188,6.287z M47.359,8.83
	c0.031-0.289,0.098-0.576,0.201-0.855c0.102-0.279,0.246-0.527,0.43-0.742c0.182-0.217,0.406-0.391,0.668-0.525
	c0.264-0.135,0.568-0.201,0.912-0.201c0.615,0,1.096,0.217,1.447,0.654c0.348,0.436,0.52,0.992,0.51,1.67L47.359,8.83L47.359,8.83z
	 M55.248,5.882c-0.549,0.436-0.824,1.027-0.824,1.77c0,0.377,0.064,0.693,0.195,0.954c0.129,0.258,0.301,0.479,0.516,0.662
	c0.218,0.184,0.472,0.342,0.769,0.477s0.604,0.266,0.93,0.395c0.668,0.271,1.146,0.512,1.437,0.729
	c0.291,0.215,0.438,0.505,0.438,0.871c0,0.354-0.147,0.612-0.444,0.774c-0.296,0.16-0.755,0.242-1.369,0.242
	c-0.416,0-0.652-0.006-1.062-0.082c-0.682-0.123-1.305,0.236-1.535,0.891c0.15,0.062,0.438,0.158,0.857,0.281
	c0.418,0.123,1.002,0.187,1.744,0.187c1.065,0,1.885-0.197,2.463-0.599c0.574-0.396,0.863-0.983,0.863-1.76
	c0-0.398-0.06-0.734-0.179-1.009c-0.116-0.274-0.287-0.508-0.508-0.701c-0.223-0.194-0.485-0.364-0.801-0.51
	c-0.312-0.146-0.666-0.293-1.064-0.445c-0.303-0.106-0.561-0.211-0.774-0.307C56.684,8.605,56.5,8.5,56.354,8.386
	c-0.146-0.113-0.252-0.238-0.322-0.379c-0.07-0.141-0.104-0.303-0.104-0.484c0-0.357,0.155-0.617,0.469-0.783
	c0.312-0.168,0.684-0.252,1.104-0.252c0.285,0,0.445,0.006,0.728,0.041c0.701,0.084,1.293-0.273,1.547-0.93
	c-0.088-0.031-0.207-0.068-0.365-0.111c-0.154-0.043-0.336-0.084-0.541-0.121c-0.203-0.039-0.426-0.072-0.662-0.098
	C57.967,5.242,57.73,5.23,57.494,5.23C56.545,5.23,55.797,5.447,55.248,5.882 M61.758,4.347v6.064c0,0.562,0.043,1.048,0.136,1.472
	c0.09,0.426,0.248,0.783,0.477,1.074c0.226,0.291,0.523,0.51,0.896,0.654c0.373,0.146,0.844,0.219,1.414,0.219h2.079
	c0-0.73-0.592-1.322-1.321-1.322h-0.629c-0.259,0-0.486-0.031-0.679-0.098c-0.192-0.062-0.354-0.174-0.485-0.332
	c-0.127-0.154-0.226-0.371-0.289-0.645c-0.064-0.275-0.097-0.619-0.097-1.039V6.703h1.921c0.696,0,1.258-0.562,1.258-1.26h-3.179
	V2.847C62.43,2.847,61.758,3.519,61.758,4.347 M25.972,6.943v6.888c0.827,0,1.5-0.672,1.5-1.5V5.443
	C26.643,5.443,25.972,6.115,25.972,6.943 M25.751,2.937c0,0.535,0.435,0.969,0.971,0.969s0.971-0.434,0.971-0.969
	c0-0.537-0.435-0.971-0.971-0.971S25.751,2.4,25.751,2.937 M68.096,6.943v6.888c0.829,0,1.5-0.672,1.5-1.5V5.443
	C68.768,5.443,68.096,6.115,68.096,6.943 M67.877,2.937c0,0.535,0.435,0.969,0.97,0.969c0.536,0,0.971-0.434,0.971-0.969
	c0-0.537-0.435-0.971-0.971-0.971C68.311,1.966,67.877,2.4,67.877,2.937 M83.211,13.796c0.23-0.037,0.412-0.065,0.541-0.088v-5.25
	c0-0.475-0.055-0.906-0.162-1.301c-0.106-0.393-0.286-0.732-0.541-1.018c-0.252-0.285-0.586-0.506-1-0.662
	c-0.416-0.156-0.924-0.232-1.526-0.232c-0.527,0-1.019,0.039-1.472,0.119c-0.45,0.08-0.774,0.164-0.969,0.25
	c0.164,0.645,0.738,1.041,1.4,0.967c0.352-0.039,0.551-0.047,0.906-0.047c0.387,0,0.704,0.059,0.948,0.172
	C81.58,6.82,81.77,6.97,81.91,7.158c0.141,0.189,0.236,0.404,0.291,0.646c0.055,0.242,0.08,0.488,0.08,0.736v0.418
	c-0.043-0.01-0.117-0.024-0.227-0.049c-0.107-0.021-0.234-0.045-0.38-0.07c-0.146-0.028-0.299-0.049-0.459-0.065
	c-0.161-0.017-0.319-0.023-0.469-0.023c-0.475,0-0.928,0.049-1.356,0.145c-0.433,0.099-0.81,0.248-1.134,0.453
	c-0.321,0.205-0.577,0.473-0.764,0.807c-0.19,0.335-0.283,0.732-0.283,1.195c0,0.486,0.08,0.9,0.24,1.244
	c0.162,0.346,0.389,0.623,0.68,0.832c0.291,0.211,0.636,0.363,1.033,0.461c0.398,0.096,0.834,0.146,1.31,0.146
	c0.334,0,0.67-0.015,1.008-0.041c0.34-0.025,0.656-0.056,0.947-0.089C82.717,13.87,82.979,13.835,83.211,13.796z M78.939,10.63
	c0.139-0.178,0.313-0.317,0.522-0.42c0.211-0.104,0.441-0.168,0.693-0.201c0.255-0.03,0.495-0.049,0.722-0.049
	c0.345,0,0.64,0.021,0.881,0.058c0.24,0.037,0.416,0.084,0.523,0.137v2.503c-0.184,0.043-0.412,0.073-0.686,0.09
	c-0.275,0.017-0.591,0.022-0.945,0.022c-0.594,0-1.062-0.104-1.404-0.313c-0.348-0.209-0.518-0.584-0.518-1.123
	C78.729,11.042,78.799,10.809,78.939,10.63z M4-0.001c-2.209,0-4,1.79-4,4v12h12c2.209,0,4-1.791,4-4v-12H4z M6.596,12.146
	C6.182,12.738,5.679,13,4.957,13H3l6.405-9.148c0.414-0.591,0.917-0.853,1.638-0.853H13L6.596,12.146z"/>
<g id="Layer_4">
</g>
</svg>
