<?xml version="1.0" encoding="iso-8859-1"?>
<!-- Generator: Adobe Illustrator 16.0.0, SVG Export Plug-In . SVG Version: 6.00 Build 0)  -->
<!DOCTYPE svg PUBLIC "-//W3C//DTD SVG 1.1//EN" "http://www.w3.org/Graphics/SVG/1.1/DTD/svg11.dtd">
<svg version="1.1" id="Horizontal" xmlns="http://www.w3.org/2000/svg" xmlns:xlink="http://www.w3.org/1999/xlink" x="0px" y="0px"
	 width="83.781px" height="16px" viewBox="0 0 83.781 16" style="enable-background:new 0 0 83.781 16;" xml:space="preserve">
<path d="M1.501,4c0-1.381,1.118-2.5,2.5-2.5h10.5V12c0,1.381-1.118,2.5-2.5,2.5h-10.5V4z M4.001,0C1.791,0,0,1.79,0,4v12h12.001
	c2.209,0,4-1.79,4-4V0H4.001z M11.044,3c-0.722,0-1.226,0.262-1.64,0.853L3.001,13h1.957c0.721,0,1.226-0.263,1.64-0.854L13.001,3
	H11.044z M44.706,5.444c-0.709,0-1.253,0.414-1.443,1.096c-0.064,0.232-0.104,0.359-0.172,0.592
	c-0.207,0.695-0.33,1.086-0.563,1.773c-0.228,0.668-0.358,1.041-0.604,1.7c-0.217,0.578-0.341,0.9-0.58,1.47
	c-0.242-0.568-0.367-0.892-0.582-1.47c-0.246-0.659-0.379-1.032-0.604-1.7c-0.232-0.688-0.357-1.078-0.564-1.773
	c-0.067-0.232-0.105-0.359-0.17-0.592c-0.193-0.682-0.736-1.096-1.443-1.096H37.52c0.479,1.793,0.8,2.789,1.477,4.518
	c0.601,1.527,0.948,2.381,1.638,3.871h1.42c0.688-1.49,1.039-2.344,1.637-3.871c0.678-1.729,0.996-2.725,1.476-4.518H44.706z
	 M31.157,5.401c-0.569,0.098-1.028,0.189-1.372,0.275v8.156h1.503V6.741c0.055-0.01,0.143-0.025,0.266-0.047
	c0.125-0.021,0.266-0.041,0.42-0.057c0.155-0.018,0.321-0.031,0.494-0.041c0.172-0.012,0.338-0.016,0.5-0.016
	c0.398,0,0.731,0.051,1.002,0.152C34.238,6.836,34.454,7,34.616,7.224c0.159,0.227,0.274,0.523,0.347,0.889
	c0.069,0.367,0.104,0.809,0.104,1.324v4.395h1.503V9.116c0-0.57-0.057-1.092-0.162-1.566c-0.106-0.475-0.294-0.881-0.559-1.219
	c-0.265-0.342-0.615-0.604-1.059-0.791c-0.439-0.189-0.997-0.285-1.663-0.285C32.387,5.255,31.729,5.306,31.157,5.401 M73.235,5.425
	c-0.527,0.115-0.969,0.234-1.323,0.365v8.043h1.501V6.774c0.086-0.021,0.269-0.062,0.541-0.121c0.275-0.059,0.556-0.09,0.835-0.09
	c0.132,0,0.204,0,0.334,0.006c0.741,0.031,1.328-0.369,1.569-1.07c-0.064-0.021-0.164-0.047-0.299-0.074
	C76.26,5.4,76.111,5.372,75.95,5.345c-0.162-0.027-0.327-0.047-0.493-0.065c-0.167-0.014-0.314-0.023-0.443-0.023
	C74.355,5.255,73.763,5.312,73.235,5.425 M52.218,6.288c-0.604-0.705-1.471-1.057-2.601-1.057c-0.483,0-0.959,0.092-1.421,0.273
	c-0.463,0.182-0.873,0.457-1.228,0.824c-0.356,0.365-0.642,0.826-0.856,1.381c-0.215,0.555-0.323,1.203-0.323,1.945
	c0,0.635,0.083,1.219,0.251,1.754c0.166,0.533,0.423,0.992,0.768,1.381c0.345,0.387,0.783,0.691,1.315,0.912
	c0.533,0.221,1.165,0.33,1.896,0.33c0.584,0,1.103-0.053,1.56-0.16c0.457-0.109,0.779-0.211,0.961-0.307
	c-0.193-0.638-0.775-1.008-1.434-0.914c-0.358,0.051-0.564,0.057-0.925,0.057c-0.938,0-1.625-0.227-2.066-0.678
	c-0.44-0.453-0.695-1.115-0.76-1.986h5.751c0.01-0.088,0.016-0.18,0.016-0.283V9.509C53.122,8.067,52.82,6.993,52.218,6.288z
	 M47.389,8.831c0.03-0.289,0.099-0.576,0.201-0.855c0.102-0.279,0.245-0.527,0.43-0.742c0.182-0.217,0.406-0.391,0.668-0.525
	c0.265-0.135,0.568-0.201,0.912-0.201c0.615,0,1.097,0.217,1.446,0.654c0.349,0.436,0.521,0.992,0.511,1.67L47.389,8.831
	L47.389,8.831z M55.278,5.884c-0.55,0.436-0.824,1.027-0.824,1.771c0,0.377,0.063,0.693,0.194,0.953
	c0.129,0.258,0.302,0.479,0.517,0.662c0.217,0.184,0.472,0.342,0.769,0.477s0.604,0.266,0.929,0.395
	c0.668,0.271,1.147,0.512,1.438,0.729c0.291,0.215,0.437,0.506,0.437,0.871c0,0.354-0.146,0.612-0.444,0.774
	c-0.296,0.16-0.754,0.242-1.368,0.242c-0.416,0-0.652-0.006-1.062-0.082c-0.682-0.123-1.305,0.236-1.534,0.891
	c0.149,0.062,0.438,0.158,0.856,0.281s1.003,0.187,1.745,0.187c1.064,0,1.885-0.197,2.463-0.599c0.574-0.396,0.862-0.983,0.862-1.76
	c0-0.398-0.06-0.734-0.178-1.01s-0.287-0.508-0.508-0.701c-0.223-0.195-0.487-0.365-0.801-0.51
	c-0.312-0.145-0.666-0.293-1.065-0.445c-0.302-0.107-0.56-0.211-0.773-0.307s-0.396-0.201-0.543-0.314
	c-0.146-0.113-0.252-0.238-0.322-0.379c-0.07-0.141-0.105-0.303-0.105-0.484c0-0.357,0.156-0.617,0.47-0.783
	c0.312-0.168,0.683-0.252,1.103-0.252c0.286,0,0.446,0.006,0.729,0.041c0.699,0.084,1.293-0.273,1.547-0.93
	c-0.088-0.031-0.207-0.068-0.365-0.111c-0.155-0.043-0.336-0.084-0.541-0.121c-0.204-0.039-0.426-0.072-0.662-0.098
	c-0.236-0.027-0.473-0.039-0.709-0.039C56.575,5.231,55.827,5.448,55.278,5.884 M61.788,4.349v6.064
	c0,0.562,0.042,1.049,0.136,1.473c0.09,0.427,0.247,0.783,0.476,1.074c0.226,0.291,0.524,0.51,0.896,0.654
	c0.372,0.146,0.845,0.219,1.413,0.219h2.081c0-0.729-0.592-1.322-1.321-1.322h-0.63c-0.258,0-0.485-0.03-0.678-0.098
	c-0.192-0.062-0.354-0.174-0.485-0.332c-0.127-0.154-0.226-0.371-0.289-0.646c-0.065-0.274-0.097-0.619-0.097-1.039V6.704h1.92
	c0.696,0,1.259-0.562,1.259-1.26h-3.179V2.849C62.46,2.849,61.788,3.521,61.788,4.349 M26.001,6.944v6.889
	c0.828,0,1.5-0.672,1.5-1.5V5.444C26.673,5.444,26.001,6.116,26.001,6.944 M25.78,2.938c0,0.535,0.435,0.969,0.97,0.969
	c0.536,0,0.972-0.434,0.972-0.969c0-0.537-0.436-0.971-0.972-0.971C26.215,1.968,25.78,2.401,25.78,2.938 M68.126,6.944v6.889
	c0.829,0,1.5-0.672,1.5-1.5V5.444C68.799,5.444,68.126,6.116,68.126,6.944 M67.906,2.938c0,0.535,0.436,0.969,0.969,0.969
	c0.537,0,0.973-0.434,0.973-0.969c0-0.537-0.436-0.971-0.973-0.971C68.342,1.968,67.906,2.401,67.906,2.938 M83.24,13.798
	c0.231-0.037,0.412-0.065,0.541-0.088V8.46c0-0.475-0.054-0.906-0.161-1.301c-0.106-0.393-0.288-0.732-0.542-1.018
	c-0.252-0.285-0.586-0.506-1-0.662c-0.415-0.156-0.924-0.232-1.525-0.232c-0.527,0-1.02,0.039-1.473,0.119
	c-0.45,0.08-0.773,0.164-0.969,0.25c0.165,0.645,0.739,1.041,1.401,0.967c0.352-0.039,0.551-0.047,0.905-0.047
	c0.388,0,0.704,0.059,0.948,0.172c0.242,0.113,0.434,0.264,0.572,0.451c0.141,0.189,0.237,0.404,0.291,0.646
	c0.055,0.242,0.081,0.488,0.081,0.736V8.96c-0.043-0.01-0.118-0.024-0.228-0.049c-0.106-0.021-0.233-0.045-0.379-0.07
	c-0.146-0.028-0.299-0.049-0.46-0.065c-0.162-0.017-0.318-0.023-0.469-0.023c-0.474,0-0.927,0.049-1.356,0.145
	c-0.432,0.099-0.809,0.248-1.133,0.453c-0.322,0.205-0.578,0.474-0.765,0.808c-0.19,0.334-0.283,0.731-0.283,1.194
	c0,0.486,0.08,0.9,0.241,1.244c0.162,0.346,0.388,0.623,0.679,0.832c0.291,0.211,0.636,0.363,1.034,0.461
	c0.398,0.096,0.834,0.146,1.309,0.146c0.334,0,0.67-0.015,1.009-0.041c0.34-0.025,0.655-0.056,0.945-0.088
	C82.747,13.872,83.01,13.837,83.24,13.798z M78.97,10.632c0.138-0.178,0.312-0.317,0.522-0.42c0.21-0.104,0.441-0.168,0.693-0.201
	c0.254-0.03,0.494-0.049,0.72-0.049c0.344,0,0.64,0.021,0.881,0.058s0.417,0.084,0.524,0.137v2.504
	c-0.185,0.043-0.412,0.074-0.688,0.09c-0.274,0.016-0.589,0.023-0.943,0.023c-0.595,0-1.062-0.104-1.405-0.314
	c-0.347-0.209-0.517-0.584-0.517-1.123C78.76,11.044,78.828,10.811,78.97,10.632z"/>
</svg>
