<?xml version="1.0" encoding="iso-8859-1"?>
<!-- Generator: Adobe Illustrator 16.0.0, SVG Export Plug-In . SVG Version: 6.00 Build 0)  -->
<!DOCTYPE svg PUBLIC "-//W3C//DTD SVG 1.1//EN" "http://www.w3.org/Graphics/SVG/1.1/DTD/svg11.dtd">
<svg version="1.1" id="Horizontal" xmlns="http://www.w3.org/2000/svg" xmlns:xlink="http://www.w3.org/1999/xlink" x="0px" y="0px"
	 width="103.932px" height="16px" viewBox="0 0 103.932 16" style="enable-background:new 0 0 103.932 16;" xml:space="preserve">
<path d="M1.501,4c0-1.381,1.117-2.5,2.5-2.5h10.5V12c0,1.381-1.119,2.5-2.5,2.5h-10.5V4z M4.001,0C1.791,0,0,1.79,0,4v12h12.001
	c2.209,0,4-1.79,4-4V0H4.001z M11.044,3c-0.723,0-1.227,0.262-1.641,0.853L3.001,13h1.957c0.72,0,1.225-0.263,1.639-0.854L13.001,3
	H11.044z M98.123,5.561h4.921c0.478,0,0.82,0.751,0.509,1.112c-0.207,0.24-0.451,0.533-0.73,0.884
	c-0.394,0.491-0.813,1.039-1.262,1.644c-0.446,0.603-0.889,1.232-1.327,1.887c-0.438,0.658-0.824,1.279-1.154,1.865h4.854l0,0
	c0,0.484-0.395,0.879-0.88,0.879h-4.497c-0.432,0-0.771-0.57-0.564-0.951v0.002c0.256-0.471,0.562-0.982,0.919-1.533
	c0.408-0.632,0.832-1.252,1.273-1.862c0.441-0.611,0.871-1.186,1.29-1.721c0.42-0.537,0.77-0.977,1.051-1.324h-3.521
	C98.517,6.44,98.123,6.046,98.123,5.561 M95.569,2.323c-0.414,0-0.75,0.336-0.75,0.75s0.336,0.75,0.75,0.75
	c0.415,0,0.75-0.336,0.75-0.75S95.984,2.323,95.569,2.323 M95.049,6.601v7.23c0.574,0,1.04-0.465,1.04-1.039V5.561
	C95.515,5.561,95.049,6.025,95.049,6.601 M92.938,7.977c0.165,0.527,0.248,1.106,0.248,1.735c0,0.672-0.099,1.275-0.296,1.81
	c-0.198,0.532-0.475,0.985-0.832,1.358c-0.357,0.374-0.784,0.658-1.28,0.857c-0.496,0.196-1.048,0.295-1.655,0.295
	c-0.735,0-1.345-0.048-1.824-0.146c-0.479-0.096-0.874-0.197-1.185-0.304V2.464c0-0.574,0.467-1.04,1.04-1.04v4.641
	c0.183-0.139,0.473-0.285,0.872-0.44c0.4-0.154,0.872-0.232,1.416-0.232c0.598,0,1.128,0.107,1.592,0.32
	c0.465,0.214,0.856,0.512,1.177,0.897C92.53,6.992,92.772,7.447,92.938,7.977 M91.267,12.216c0.544-0.581,0.815-1.416,0.815-2.504
	c0-0.458-0.049-0.894-0.145-1.304c-0.097-0.41-0.251-0.769-0.464-1.072c-0.214-0.305-0.494-0.546-0.84-0.727
	c-0.347-0.183-0.776-0.273-1.288-0.273c-0.246,0-0.48,0.025-0.704,0.072c-0.225,0.048-0.433,0.109-0.624,0.184
	c-0.192,0.075-0.36,0.154-0.504,0.24s-0.265,0.166-0.36,0.24v5.792c0.16,0.054,0.397,0.104,0.712,0.151
	c0.314,0.049,0.729,0.071,1.24,0.071C90.002,13.088,90.723,12.798,91.267,12.216 M44.706,5.443c-0.709,0-1.253,0.413-1.444,1.095
	c-0.064,0.232-0.104,0.36-0.172,0.592c-0.207,0.696-0.33,1.086-0.563,1.774c-0.228,0.667-0.357,1.039-0.604,1.701
	c-0.216,0.576-0.34,0.898-0.58,1.468c-0.242-0.568-0.367-0.892-0.582-1.468c-0.246-0.662-0.379-1.034-0.604-1.701
	c-0.232-0.688-0.357-1.078-0.564-1.774c-0.067-0.231-0.105-0.359-0.17-0.592c-0.193-0.682-0.736-1.095-1.443-1.095H37.52
	c0.479,1.793,0.8,2.788,1.478,4.517c0.6,1.528,0.947,2.381,1.637,3.871h1.42c0.688-1.49,1.039-2.343,1.637-3.871
	c0.678-1.729,0.996-2.724,1.477-4.517H44.706z M31.156,5.399c-0.568,0.098-1.027,0.189-1.372,0.275v8.156h1.504V6.74
	c0.054-0.011,0.142-0.026,0.265-0.048c0.125-0.021,0.266-0.041,0.42-0.057c0.156-0.018,0.322-0.03,0.494-0.041
	c0.172-0.012,0.338-0.016,0.5-0.016c0.398,0,0.731,0.051,1.002,0.153c0.269,0.103,0.485,0.267,0.646,0.492
	c0.159,0.227,0.274,0.522,0.348,0.889c0.068,0.366,0.104,0.808,0.104,1.323v4.395h1.503V9.115c0-0.571-0.057-1.093-0.162-1.567
	c-0.106-0.474-0.294-0.881-0.559-1.219c-0.264-0.341-0.615-0.604-1.058-0.791c-0.44-0.188-0.997-0.285-1.663-0.285
	C32.387,5.253,31.729,5.304,31.156,5.399 M73.235,5.423c-0.526,0.115-0.969,0.235-1.321,0.365v8.043h1.5V6.772
	c0.086-0.021,0.268-0.062,0.541-0.121c0.274-0.059,0.555-0.09,0.836-0.09c0.131,0,0.202,0.001,0.334,0.007
	c0.739,0.03,1.327-0.37,1.567-1.071c-0.063-0.021-0.164-0.046-0.299-0.074c-0.133-0.025-0.281-0.053-0.443-0.08
	c-0.161-0.026-0.325-0.047-0.491-0.065c-0.168-0.015-0.316-0.024-0.445-0.024C74.356,5.253,73.763,5.311,73.235,5.423 M52.187,6.288
	c-0.604-0.706-1.47-1.058-2.601-1.058c-0.484,0-0.959,0.092-1.42,0.274c-0.464,0.182-0.873,0.457-1.229,0.823
	c-0.355,0.366-0.641,0.827-0.854,1.381c-0.216,0.556-0.324,1.203-0.324,1.946c0,0.635,0.084,1.219,0.252,1.753
	c0.166,0.532,0.422,0.993,0.766,1.381c0.347,0.388,0.783,0.692,1.316,0.912c0.533,0.222,1.166,0.331,1.896,0.331
	c0.583,0,1.103-0.053,1.56-0.161s0.778-0.21,0.961-0.306c-0.193-0.638-0.775-1.008-1.435-0.914c-0.357,0.05-0.562,0.057-0.924,0.057
	c-0.937,0-1.626-0.227-2.066-0.678c-0.441-0.454-0.695-1.115-0.761-1.986h5.751c0.011-0.088,0.017-0.181,0.017-0.283V9.509
	C53.091,8.067,52.79,6.993,52.187,6.288z M47.358,8.831c0.03-0.29,0.1-0.576,0.2-0.855c0.104-0.28,0.246-0.527,0.43-0.743
	c0.183-0.216,0.406-0.39,0.669-0.525c0.266-0.134,0.568-0.2,0.912-0.2c0.615,0,1.098,0.217,1.445,0.653
	c0.35,0.437,0.521,0.993,0.51,1.671L47.358,8.831L47.358,8.831z M55.247,5.884c-0.55,0.436-0.824,1.026-0.824,1.769
	c0,0.378,0.063,0.694,0.194,0.955c0.13,0.258,0.302,0.478,0.517,0.662c0.217,0.183,0.471,0.34,0.768,0.476s0.605,0.267,0.931,0.396
	c0.668,0.271,1.146,0.512,1.436,0.729c0.291,0.215,0.438,0.506,0.438,0.872c0,0.354-0.148,0.612-0.445,0.774
	c-0.295,0.16-0.754,0.242-1.369,0.242c-0.416,0-0.652-0.007-1.061-0.082c-0.685-0.123-1.306,0.236-1.535,0.891
	c0.149,0.062,0.438,0.158,0.856,0.281c0.418,0.123,1.002,0.187,1.744,0.187c1.066,0,1.885-0.198,2.463-0.599
	c0.574-0.396,0.863-0.983,0.863-1.76c0-0.398-0.059-0.734-0.178-1.01c-0.117-0.275-0.287-0.509-0.508-0.701
	C59.314,9.77,59.051,9.6,58.736,9.454c-0.311-0.144-0.666-0.293-1.063-0.444c-0.304-0.107-0.562-0.211-0.775-0.307
	s-0.396-0.201-0.543-0.314c-0.145-0.113-0.252-0.239-0.322-0.379c-0.069-0.141-0.104-0.303-0.104-0.485
	c0-0.356,0.156-0.616,0.469-0.783C56.709,6.575,57.08,6.49,57.5,6.49c0.284,0,0.444,0.006,0.727,0.041
	c0.701,0.085,1.293-0.272,1.547-0.929c-0.088-0.031-0.207-0.069-0.365-0.112c-0.153-0.043-0.336-0.083-0.541-0.121
	c-0.202-0.038-0.426-0.071-0.661-0.097c-0.236-0.027-0.474-0.04-0.709-0.04C56.544,5.23,55.796,5.448,55.247,5.884 M83.589,7.159
	c-0.107-0.393-0.287-0.733-0.541-1.018c-0.252-0.285-0.586-0.506-1-0.662c-0.416-0.156-0.924-0.233-1.527-0.233
	c-0.527,0-1.018,0.04-1.471,0.12c-0.451,0.08-0.775,0.164-0.969,0.25c0.164,0.645,0.737,1.041,1.399,0.967
	c0.353-0.04,0.551-0.047,0.906-0.047c0.387,0,0.705,0.059,0.949,0.171c0.241,0.114,0.432,0.265,0.571,0.452
	c0.142,0.188,0.236,0.404,0.291,0.646c0.056,0.242,0.08,0.487,0.08,0.735v0.42c-0.043-0.01-0.116-0.024-0.227-0.049
	c-0.107-0.021-0.234-0.045-0.379-0.071c-0.146-0.027-0.299-0.049-0.459-0.064c-0.162-0.017-0.32-0.024-0.469-0.024
	c-0.476,0-0.929,0.049-1.357,0.146c-0.432,0.099-0.809,0.248-1.133,0.453c-0.322,0.204-0.578,0.474-0.765,0.808
	c-0.19,0.334-0.282,0.731-0.282,1.194c0,0.485,0.08,0.899,0.239,1.244c0.162,0.346,0.39,0.622,0.681,0.832s0.635,0.363,1.032,0.46
	c0.398,0.097,0.834,0.146,1.31,0.146c0.334,0,0.67-0.015,1.008-0.041c0.34-0.026,0.656-0.056,0.947-0.088
	c0.289-0.032,0.551-0.067,0.783-0.105c0.229-0.037,0.411-0.065,0.541-0.089V8.46C83.751,7.985,83.696,7.553,83.589,7.159z
	 M82.28,12.659c-0.184,0.043-0.412,0.073-0.686,0.089c-0.275,0.018-0.59,0.023-0.945,0.023c-0.594,0-1.061-0.104-1.403-0.313
	c-0.349-0.209-0.519-0.585-0.519-1.123c0-0.291,0.07-0.524,0.211-0.703c0.139-0.178,0.314-0.317,0.523-0.42
	c0.211-0.104,0.44-0.169,0.692-0.201c0.254-0.03,0.494-0.049,0.722-0.049c0.344,0,0.639,0.021,0.881,0.058
	c0.24,0.037,0.416,0.084,0.522,0.137L82.28,12.659L82.28,12.659z M61.788,4.347v6.064c0,0.562,0.043,1.049,0.135,1.473
	c0.09,0.427,0.248,0.783,0.477,1.075c0.226,0.291,0.523,0.509,0.896,0.654c0.373,0.146,0.844,0.218,1.414,0.218h2.08
	c0-0.729-0.593-1.322-1.322-1.322h-0.629c-0.258,0-0.486-0.03-0.679-0.097c-0.192-0.062-0.354-0.175-0.485-0.332
	c-0.127-0.155-0.226-0.371-0.289-0.646c-0.064-0.274-0.096-0.619-0.096-1.039V6.702h1.92c0.696,0,1.258-0.562,1.258-1.259h-3.178
	V2.847C62.46,2.847,61.788,3.519,61.788,4.347 M26.001,6.943v6.888c0.828,0,1.5-0.672,1.5-1.5V5.443
	C26.672,5.443,26.001,6.115,26.001,6.943 M25.78,2.937c0,0.535,0.435,0.97,0.971,0.97c0.535,0,0.971-0.435,0.971-0.97
	c0-0.536-0.436-0.971-0.971-0.971C26.214,1.966,25.78,2.4,25.78,2.937 M68.126,6.943v6.888c0.83,0,1.5-0.672,1.5-1.5V5.443
	C68.798,5.443,68.126,6.115,68.126,6.943 M67.906,2.937c0,0.535,0.435,0.97,0.97,0.97c0.537,0,0.971-0.435,0.971-0.97
	c0-0.536-0.434-0.971-0.971-0.971C68.341,1.966,67.906,2.4,67.906,2.937"/>
</svg>
