<?xml version="1.0" encoding="utf-8"?>
<!-- Generator: Adobe Illustrator 16.0.0, SVG Export Plug-In . SVG Version: 6.00 Build 0)  -->
<!DOCTYPE svg PUBLIC "-//W3C//DTD SVG 1.1//EN" "http://www.w3.org/Graphics/SVG/1.1/DTD/svg11.dtd">
<svg version="1.1" id="Horizontal" xmlns="http://www.w3.org/2000/svg" xmlns:xlink="http://www.w3.org/1999/xlink" x="0px" y="0px"
	 width="103.932px" height="16px" viewBox="0 0 103.932 16" enable-background="new 0 0 103.932 16" xml:space="preserve">
<g id="H_BIZ_copy">
</g>
<path fill="#08010F" d="M98.123,5.561h4.921c0.478,0,0.821,0.751,0.509,1.112c-0.207,0.24-0.451,0.533-0.73,0.884
	c-0.394,0.491-0.814,1.039-1.262,1.644c-0.446,0.603-0.889,1.232-1.327,1.887c-0.438,0.658-0.824,1.279-1.155,1.865h4.854l0,0
	c0,0.485-0.395,0.879-0.88,0.879h-4.497c-0.432,0-0.771-0.57-0.564-0.951v0.002c0.255-0.471,0.562-0.982,0.919-1.534
	c0.408-0.631,0.832-1.252,1.273-1.862c0.441-0.611,0.871-1.185,1.29-1.721c0.42-0.537,0.77-0.977,1.051-1.324h-3.521
	C98.517,6.44,98.123,6.046,98.123,5.561 M95.569,2.323c-0.414,0-0.75,0.336-0.75,0.75s0.336,0.75,0.75,0.75
	c0.415,0,0.75-0.336,0.75-0.75S95.984,2.323,95.569,2.323 M95.049,6.601v7.23c0.574,0,1.04-0.465,1.04-1.039V5.561
	C95.515,5.561,95.049,6.025,95.049,6.601 M92.938,7.977c0.165,0.527,0.248,1.106,0.248,1.735c0,0.672-0.099,1.275-0.296,1.809
	c-0.198,0.533-0.475,0.986-0.832,1.359c-0.357,0.374-0.784,0.658-1.28,0.857c-0.496,0.196-1.048,0.295-1.656,0.295
	c-0.735,0-1.344-0.047-1.824-0.145c-0.479-0.096-0.874-0.197-1.184-0.304V2.464c0-0.574,0.466-1.04,1.04-1.04v4.641
	c0.182-0.139,0.472-0.285,0.872-0.44c0.4-0.154,0.872-0.232,1.416-0.232c0.597,0,1.128,0.107,1.592,0.32
	c0.464,0.214,0.856,0.512,1.176,0.897C92.53,6.992,92.772,7.447,92.938,7.977 M91.267,12.216c0.544-0.581,0.815-1.416,0.815-2.504
	c0-0.458-0.048-0.893-0.144-1.304c-0.097-0.41-0.251-0.769-0.464-1.072c-0.214-0.305-0.494-0.546-0.84-0.727
	c-0.347-0.183-0.776-0.273-1.288-0.273c-0.246,0-0.48,0.025-0.704,0.072c-0.225,0.048-0.433,0.109-0.624,0.184
	c-0.192,0.075-0.36,0.154-0.504,0.24s-0.265,0.166-0.36,0.24v5.792c0.16,0.054,0.397,0.104,0.712,0.151
	c0.314,0.05,0.729,0.072,1.24,0.072C90.002,13.088,90.723,12.798,91.267,12.216 M4.021,0c-2.209,0-4,1.79-4,4v12h12
	c2.209,0,4-1.791,4-4V0H4.021z M6.617,12.147c-0.414,0.592-0.918,0.854-1.639,0.854H3.021l6.404-9.148C9.84,3.262,10.344,3,11.064,3
	h1.957L6.617,12.147z M44.706,5.445c-0.709,0-1.252,0.414-1.443,1.096c-0.064,0.232-0.104,0.359-0.172,0.592
	c-0.207,0.695-0.33,1.086-0.564,1.773c-0.227,0.668-0.357,1.041-0.604,1.701c-0.217,0.578-0.34,0.901-0.58,1.469
	c-0.242-0.568-0.367-0.891-0.582-1.469c-0.246-0.66-0.379-1.033-0.605-1.701c-0.232-0.688-0.357-1.078-0.564-1.773
	c-0.068-0.232-0.105-0.359-0.17-0.592c-0.193-0.682-0.736-1.096-1.443-1.096h-0.459c0.479,1.793,0.799,2.789,1.477,4.518
	c0.6,1.527,0.947,2.381,1.637,3.872h1.42c0.688-1.49,1.039-2.345,1.637-3.872c0.678-1.729,0.996-2.725,1.475-4.518H44.706z
	 M31.157,5.402C30.589,5.5,30.13,5.591,29.786,5.677v8.157h1.502V6.742c0.055-0.01,0.143-0.025,0.266-0.047
	c0.125-0.021,0.266-0.041,0.42-0.057c0.156-0.018,0.322-0.031,0.494-0.041c0.172-0.012,0.338-0.016,0.5-0.016
	c0.398,0,0.732,0.051,1.002,0.152c0.268,0.104,0.484,0.268,0.646,0.492c0.16,0.227,0.275,0.523,0.348,0.889
	c0.068,0.367,0.104,0.809,0.104,1.324v4.395h1.504V9.117c0-0.57-0.057-1.092-0.162-1.566c-0.107-0.475-0.295-0.881-0.559-1.219
	c-0.264-0.342-0.615-0.604-1.059-0.791c-0.439-0.189-0.996-0.285-1.662-0.285C32.388,5.255,31.729,5.306,31.157,5.402 M73.235,5.425
	c-0.527,0.115-0.969,0.234-1.322,0.365v8.043h1.5V6.775c0.086-0.021,0.268-0.062,0.541-0.121c0.275-0.059,0.555-0.09,0.836-0.09
	c0.131,0,0.203,0,0.334,0.006c0.74,0.031,1.328-0.369,1.568-1.07c-0.064-0.021-0.164-0.047-0.299-0.074
	c-0.133-0.025-0.281-0.053-0.443-0.08s-0.326-0.047-0.492-0.066c-0.168-0.014-0.316-0.023-0.445-0.023
	C74.356,5.255,73.763,5.312,73.235,5.425 M52.218,6.289c-0.604-0.705-1.471-1.057-2.6-1.057c-0.484,0-0.959,0.092-1.422,0.273
	S47.323,5.962,46.97,6.33c-0.357,0.365-0.641,0.826-0.857,1.381c-0.215,0.555-0.322,1.203-0.322,1.945
	c0,0.635,0.082,1.219,0.25,1.753c0.166,0.534,0.424,0.993,0.768,1.382c0.344,0.387,0.783,0.691,1.316,0.912s1.164,0.33,1.896,0.33
	c0.584,0,1.102-0.053,1.559-0.16c0.457-0.109,0.779-0.211,0.961-0.307c-0.193-0.637-0.775-1.008-1.434-0.914
	c-0.357,0.051-0.564,0.057-0.924,0.057c-0.938,0-1.625-0.227-2.066-0.678c-0.441-0.453-0.695-1.116-0.76-1.987h5.75
	c0.01-0.088,0.016-0.18,0.016-0.283V9.509C53.122,8.068,52.821,6.994,52.218,6.289z M47.39,8.832
	c0.031-0.289,0.098-0.576,0.201-0.855c0.102-0.279,0.246-0.527,0.43-0.742c0.182-0.217,0.406-0.391,0.668-0.525
	c0.264-0.135,0.568-0.201,0.912-0.201c0.615,0,1.096,0.217,1.447,0.654c0.348,0.436,0.52,0.992,0.51,1.67H47.39z M55.278,5.884
	c-0.549,0.436-0.824,1.027-0.824,1.77c0,0.377,0.064,0.693,0.195,0.953c0.129,0.258,0.301,0.479,0.516,0.662
	c0.217,0.184,0.471,0.342,0.768,0.477s0.605,0.266,0.93,0.395c0.668,0.27,1.146,0.512,1.436,0.729
	c0.291,0.215,0.438,0.505,0.438,0.872c0,0.355-0.148,0.613-0.445,0.775c-0.295,0.16-0.754,0.242-1.369,0.242
	c-0.416,0-0.652-0.006-1.061-0.082c-0.682-0.123-1.305,0.236-1.535,0.891c0.15,0.062,0.438,0.158,0.857,0.281
	c0.418,0.123,1.002,0.186,1.744,0.186c1.066,0,1.885-0.197,2.463-0.598c0.574-0.396,0.863-0.984,0.863-1.76
	c0-0.399-0.059-0.735-0.178-1.01c-0.117-0.275-0.287-0.508-0.508-0.701c-0.223-0.195-0.486-0.365-0.801-0.51
	c-0.311-0.145-0.666-0.293-1.064-0.445c-0.303-0.107-0.561-0.211-0.775-0.307s-0.396-0.201-0.543-0.314
	c-0.145-0.113-0.252-0.238-0.322-0.379s-0.105-0.303-0.105-0.484c0-0.357,0.156-0.617,0.469-0.783
	c0.312-0.168,0.684-0.252,1.104-0.252c0.285,0,0.445,0.006,0.727,0.041c0.701,0.084,1.293-0.273,1.547-0.93
	c-0.088-0.031-0.207-0.068-0.365-0.111c-0.154-0.043-0.336-0.084-0.541-0.121c-0.203-0.039-0.426-0.072-0.662-0.098
	c-0.236-0.027-0.473-0.039-0.709-0.039C56.575,5.232,55.827,5.449,55.278,5.884 M61.788,4.349v6.064
	c0,0.561,0.043,1.048,0.135,1.473c0.09,0.426,0.248,0.783,0.477,1.074c0.225,0.291,0.523,0.51,0.895,0.654
	c0.373,0.146,0.844,0.219,1.414,0.219h2.08c0-0.73-0.592-1.322-1.322-1.322h-0.629c-0.258,0-0.486-0.031-0.678-0.098
	c-0.193-0.062-0.355-0.174-0.486-0.332c-0.127-0.154-0.225-0.371-0.289-0.646c-0.064-0.275-0.096-0.619-0.096-1.039V6.705h1.92
	c0.697,0,1.258-0.562,1.258-1.26h-3.178V2.849C62.46,2.849,61.788,3.521,61.788,4.349 M26.002,6.945v6.889
	c0.827,0,1.501-0.672,1.501-1.5V5.445C26.674,5.445,26.002,6.117,26.002,6.945 M25.781,2.939c0,0.535,0.434,0.969,0.969,0.969
	c0.536,0,0.972-0.434,0.972-0.969c0-0.537-0.436-0.971-0.972-0.971C26.215,1.968,25.781,2.402,25.781,2.939 M68.126,6.945v6.889
	c0.83,0,1.5-0.672,1.5-1.5V5.445C68.798,5.445,68.126,6.117,68.126,6.945 M67.907,2.939c0,0.535,0.434,0.969,0.969,0.969
	c0.537,0,0.971-0.434,0.971-0.969c0-0.537-0.434-0.971-0.971-0.971C68.341,1.968,67.907,2.402,67.907,2.939 M83.241,13.799
	c0.23-0.037,0.412-0.066,0.541-0.088V8.46c0-0.475-0.055-0.906-0.162-1.301c-0.107-0.393-0.287-0.732-0.541-1.018
	c-0.252-0.285-0.586-0.506-1-0.662c-0.416-0.156-0.924-0.232-1.527-0.232c-0.527,0-1.018,0.039-1.471,0.119
	c-0.451,0.08-0.775,0.164-0.969,0.25c0.164,0.645,0.738,1.041,1.4,0.967c0.352-0.039,0.551-0.047,0.906-0.047
	c0.387,0,0.705,0.059,0.949,0.172C81.61,6.822,81.8,6.972,81.94,7.16c0.141,0.189,0.236,0.404,0.291,0.646s0.08,0.488,0.08,0.736
	V8.96c-0.043-0.01-0.117-0.025-0.227-0.049c-0.107-0.02-0.234-0.045-0.379-0.07c-0.146-0.029-0.299-0.049-0.459-0.066
	c-0.162-0.016-0.32-0.023-0.469-0.023c-0.475,0-0.928,0.049-1.357,0.145c-0.432,0.098-0.809,0.248-1.133,0.453
	c-0.322,0.205-0.578,0.473-0.764,0.807c-0.191,0.334-0.283,0.732-0.283,1.195c0,0.487,0.08,0.901,0.24,1.245
	c0.162,0.346,0.389,0.623,0.68,0.832c0.291,0.211,0.635,0.363,1.033,0.461c0.398,0.096,0.834,0.145,1.309,0.145
	c0.334,0,0.67-0.014,1.008-0.041c0.34-0.025,0.656-0.055,0.947-0.088C82.747,13.873,83.009,13.838,83.241,13.799z M78.97,10.632
	c0.139-0.178,0.314-0.318,0.523-0.42c0.211-0.104,0.441-0.168,0.693-0.201c0.254-0.031,0.494-0.049,0.721-0.049
	c0.344,0,0.639,0.02,0.881,0.057c0.24,0.037,0.416,0.084,0.523,0.137v2.504c-0.184,0.043-0.412,0.074-0.686,0.09
	c-0.275,0.016-0.59,0.023-0.945,0.023c-0.594,0-1.061-0.104-1.404-0.314c-0.348-0.209-0.518-0.584-0.518-1.124
	C78.759,11.044,78.829,10.81,78.97,10.632z"/>
</svg>
