<?xml version="1.0" encoding="utf-8"?>
<!-- Generator: Adobe Illustrator 16.0.0, SVG Export Plug-In . SVG Version: 6.00 Build 0)  -->
<!DOCTYPE svg PUBLIC "-//W3C//DTD SVG 1.1//EN" "http://www.w3.org/Graphics/SVG/1.1/DTD/svg11.dtd">
<svg version="1.1" id="Layer_3" xmlns="http://www.w3.org/2000/svg" xmlns:xlink="http://www.w3.org/1999/xlink" x="0px" y="0px"
	 width="107.862px" height="16.839px" viewBox="0 0 107.862 16.839" enable-background="new 0 0 107.862 16.839"
	 xml:space="preserve">
<path d="M107.583,7.976c-0.188-0.534-0.449-0.99-0.785-1.369c-0.336-0.378-0.732-0.671-1.191-0.879s-0.965-0.312-1.52-0.312
	s-1.062,0.104-1.521,0.312c-0.457,0.208-0.855,0.501-1.191,0.879c-0.336,0.379-0.598,0.835-0.783,1.369
	c-0.188,0.533-0.281,1.125-0.281,1.775s0.094,1.242,0.281,1.775c0.186,0.534,0.447,0.987,0.783,1.361
	c0.336,0.373,0.734,0.662,1.191,0.871c0.459,0.207,0.967,0.312,1.521,0.312s1.061-0.105,1.52-0.312
	c0.459-0.209,0.855-0.498,1.191-0.871c0.336-0.374,0.598-0.827,0.785-1.361c0.186-0.533,0.279-1.125,0.279-1.775
	S107.768,8.509,107.583,7.976z M106.038,12.214c-0.48,0.608-1.131,0.912-1.951,0.912c-0.822,0-1.475-0.304-1.953-0.912
	c-0.48-0.607-0.719-1.428-0.719-2.463s0.238-1.858,0.719-2.473c0.479-0.613,1.131-0.92,1.953-0.92c0.82,0,1.471,0.307,1.951,0.92
	c0.48,0.614,0.721,1.438,0.721,2.473S106.518,11.607,106.038,12.214z M92.891,7.959c-0.199-0.534-0.475-0.987-0.832-1.36
	c-0.357-0.374-0.785-0.658-1.281-0.855s-1.047-0.297-1.656-0.297c-0.734,0-1.344,0.049-1.824,0.145
	c-0.479,0.096-0.873,0.197-1.184,0.305v10.943c0.574,0,1.041-0.467,1.041-1.039v-2.4c0.182,0.139,0.473,0.285,0.871,0.439
	c0.4,0.154,0.873,0.232,1.416,0.232c0.598,0,1.129-0.105,1.592-0.32c0.465-0.213,0.857-0.51,1.176-0.889
	c0.32-0.379,0.562-0.832,0.729-1.359c0.166-0.528,0.248-1.107,0.248-1.736C93.186,9.094,93.088,8.492,92.891,7.959z M91.938,11.072
	c-0.096,0.41-0.25,0.768-0.463,1.071c-0.215,0.304-0.494,0.544-0.84,0.72c-0.348,0.176-0.777,0.266-1.289,0.266
	c-0.246,0-0.48-0.025-0.703-0.074c-0.227-0.047-0.434-0.107-0.625-0.184c-0.191-0.073-0.359-0.153-0.504-0.239
	c-0.145-0.085-0.264-0.165-0.359-0.24V6.615c0.16-0.054,0.396-0.104,0.711-0.151c0.314-0.048,0.729-0.072,1.24-0.072
	c0.896,0,1.617,0.29,2.16,0.871c0.545,0.582,0.816,1.416,0.816,2.505C92.083,10.225,92.034,10.662,91.938,11.072z M99.647,5.676
	C99.473,6.16,99.051,6.43,98.54,6.387c-0.191-0.016-0.408-0.023-0.652-0.023c-0.447,0-0.809,0.033-1.08,0.096
	c-0.271,0.065-0.451,0.118-0.535,0.16v7.248h-1.041V5.981c0.268-0.117,0.635-0.238,1.105-0.361c0.469-0.122,1.039-0.184,1.711-0.184
	c0.342,0,0.664,0.027,0.969,0.08C99.319,5.571,99.53,5.623,99.647,5.676 M4.026,0.028c-2.209,0-4,1.79-4,4v12h12
	c2.209,0,4-1.791,4-4v-12H4.026z M6.622,12.175c-0.414,0.592-0.918,0.854-1.639,0.854H3.026L9.43,3.881
	c0.414-0.591,0.918-0.853,1.639-0.853h1.957L6.622,12.175z M44.71,5.443c-0.709,0-1.252,0.414-1.443,1.096
	c-0.064,0.232-0.104,0.359-0.172,0.592c-0.207,0.695-0.33,1.086-0.564,1.773c-0.227,0.668-0.357,1.041-0.604,1.701
	c-0.217,0.578-0.34,0.901-0.58,1.469c-0.242-0.568-0.367-0.891-0.582-1.469c-0.246-0.66-0.379-1.033-0.605-1.701
	c-0.232-0.688-0.357-1.078-0.564-1.773c-0.068-0.232-0.105-0.359-0.17-0.592c-0.193-0.682-0.736-1.096-1.443-1.096h-0.459
	C38.001,7.236,38.322,8.232,39,9.961c0.6,1.527,0.947,2.381,1.637,3.872h1.42c0.688-1.49,1.039-2.345,1.637-3.872
	c0.678-1.729,0.996-2.725,1.475-4.518H44.71z M31.162,5.4c-0.568,0.098-1.027,0.189-1.371,0.275v8.157h1.502V6.74
	c0.055-0.01,0.143-0.025,0.266-0.047c0.125-0.021,0.266-0.041,0.42-0.057c0.156-0.018,0.322-0.031,0.494-0.041
	c0.172-0.012,0.338-0.016,0.5-0.016c0.398,0,0.732,0.051,1.002,0.152C34.242,6.836,34.458,7,34.621,7.225
	c0.16,0.227,0.275,0.523,0.348,0.889c0.068,0.367,0.104,0.809,0.104,1.324v4.395h1.504V9.115c0-0.57-0.057-1.092-0.162-1.566
	c-0.107-0.475-0.295-0.881-0.559-1.219c-0.264-0.342-0.615-0.604-1.059-0.791C34.357,5.35,33.8,5.254,33.134,5.254
	C32.392,5.254,31.734,5.305,31.162,5.4 M73.24,5.424c-0.527,0.115-0.969,0.234-1.322,0.365v8.043h1.5V6.773
	c0.086-0.021,0.268-0.062,0.541-0.121c0.275-0.059,0.555-0.09,0.836-0.09c0.131,0,0.203,0,0.334,0.006
	c0.74,0.031,1.328-0.369,1.568-1.07c-0.064-0.021-0.164-0.047-0.299-0.074c-0.133-0.025-0.281-0.053-0.443-0.08
	s-0.326-0.047-0.492-0.066c-0.168-0.014-0.316-0.023-0.445-0.023C74.361,5.254,73.767,5.311,73.24,5.424 M52.222,6.287
	c-0.604-0.705-1.471-1.057-2.6-1.057c-0.484,0-0.959,0.092-1.422,0.273s-0.873,0.457-1.227,0.824
	c-0.357,0.365-0.641,0.826-0.857,1.381c-0.215,0.555-0.322,1.203-0.322,1.945c0,0.635,0.082,1.219,0.25,1.753
	c0.166,0.534,0.424,0.993,0.768,1.382c0.344,0.387,0.783,0.691,1.316,0.912s1.164,0.33,1.896,0.33c0.584,0,1.102-0.053,1.559-0.16
	c0.457-0.109,0.779-0.211,0.961-0.307c-0.193-0.637-0.775-1.008-1.434-0.914c-0.357,0.051-0.564,0.057-0.924,0.057
	c-0.938,0-1.625-0.227-2.066-0.678c-0.441-0.453-0.695-1.116-0.76-1.987h5.75c0.01-0.088,0.016-0.18,0.016-0.283V9.508
	C53.126,8.066,52.826,6.992,52.222,6.287z M47.394,8.83c0.031-0.289,0.098-0.576,0.201-0.855c0.102-0.279,0.246-0.527,0.43-0.742
	c0.182-0.217,0.406-0.391,0.668-0.525c0.264-0.135,0.568-0.201,0.912-0.201c0.615,0,1.096,0.217,1.447,0.654
	c0.348,0.436,0.52,0.992,0.51,1.67H47.394z M55.283,5.883c-0.549,0.436-0.824,1.027-0.824,1.77c0,0.377,0.064,0.693,0.195,0.953
	c0.129,0.258,0.301,0.479,0.516,0.662c0.217,0.184,0.471,0.342,0.768,0.477s0.605,0.266,0.93,0.395
	c0.668,0.27,1.146,0.512,1.436,0.729c0.291,0.215,0.438,0.505,0.438,0.872c0,0.355-0.148,0.613-0.445,0.775
	c-0.295,0.16-0.754,0.242-1.369,0.242c-0.416,0-0.652-0.006-1.061-0.082c-0.682-0.123-1.305,0.236-1.535,0.891
	c0.15,0.062,0.438,0.158,0.857,0.281c0.418,0.123,1.002,0.186,1.744,0.186c1.066,0,1.885-0.197,2.463-0.598
	c0.574-0.396,0.863-0.984,0.863-1.76c0-0.399-0.059-0.735-0.178-1.01c-0.117-0.275-0.287-0.508-0.508-0.701
	c-0.223-0.195-0.486-0.365-0.801-0.51c-0.311-0.145-0.666-0.293-1.064-0.445c-0.303-0.107-0.561-0.211-0.775-0.307
	S56.535,8.5,56.388,8.387c-0.145-0.113-0.252-0.238-0.322-0.379S55.96,7.705,55.96,7.523c0-0.357,0.156-0.617,0.469-0.783
	c0.312-0.168,0.684-0.252,1.104-0.252c0.285,0,0.445,0.006,0.727,0.041c0.701,0.084,1.293-0.273,1.547-0.93
	c-0.088-0.031-0.207-0.068-0.365-0.111c-0.154-0.043-0.336-0.084-0.541-0.121c-0.203-0.039-0.426-0.072-0.662-0.098
	c-0.236-0.027-0.473-0.039-0.709-0.039C56.58,5.23,55.832,5.447,55.283,5.883 M61.792,4.348v6.064c0,0.561,0.043,1.048,0.135,1.473
	c0.09,0.426,0.248,0.783,0.477,1.074c0.225,0.291,0.523,0.51,0.895,0.654c0.373,0.146,0.844,0.219,1.414,0.219h2.08
	c0-0.73-0.592-1.322-1.322-1.322h-0.629c-0.258,0-0.486-0.031-0.678-0.098c-0.193-0.062-0.355-0.174-0.486-0.332
	c-0.127-0.154-0.225-0.371-0.289-0.646c-0.064-0.275-0.096-0.619-0.096-1.039V6.703h1.92c0.697,0,1.258-0.562,1.258-1.26h-3.178
	V2.848C62.464,2.848,61.792,3.52,61.792,4.348 M26.006,6.943v6.889c0.827,0,1.501-0.672,1.501-1.5V5.443
	C26.678,5.443,26.006,6.115,26.006,6.943 M25.786,2.938c0,0.535,0.434,0.969,0.969,0.969c0.536,0,0.972-0.434,0.972-0.969
	c0-0.537-0.436-0.971-0.972-0.971C26.219,1.967,25.786,2.4,25.786,2.938 M68.13,6.943v6.889c0.83,0,1.5-0.672,1.5-1.5V5.443
	C68.802,5.443,68.13,6.115,68.13,6.943 M67.912,2.938c0,0.535,0.434,0.969,0.969,0.969c0.537,0,0.971-0.434,0.971-0.969
	c0-0.537-0.434-0.971-0.971-0.971C68.345,1.967,67.912,2.4,67.912,2.938 M83.246,13.797c0.23-0.037,0.412-0.066,0.541-0.088v-5.25
	c0-0.475-0.055-0.906-0.162-1.301c-0.107-0.393-0.287-0.732-0.541-1.018c-0.252-0.285-0.586-0.506-1-0.662
	c-0.416-0.156-0.924-0.232-1.527-0.232c-0.527,0-1.018,0.039-1.471,0.119c-0.451,0.08-0.775,0.164-0.969,0.25
	c0.164,0.645,0.738,1.041,1.4,0.967c0.352-0.039,0.551-0.047,0.906-0.047c0.387,0,0.705,0.059,0.949,0.172
	c0.242,0.113,0.432,0.264,0.572,0.451c0.141,0.189,0.236,0.404,0.291,0.646s0.08,0.488,0.08,0.736v0.418
	c-0.043-0.01-0.117-0.025-0.227-0.049c-0.107-0.02-0.234-0.045-0.379-0.07c-0.146-0.029-0.299-0.049-0.459-0.066
	c-0.162-0.016-0.32-0.023-0.469-0.023c-0.475,0-0.928,0.049-1.357,0.145c-0.432,0.098-0.809,0.248-1.133,0.453
	c-0.322,0.205-0.578,0.473-0.764,0.807c-0.191,0.334-0.283,0.732-0.283,1.195c0,0.487,0.08,0.901,0.24,1.245
	c0.162,0.346,0.389,0.623,0.68,0.832c0.291,0.211,0.635,0.363,1.033,0.461c0.398,0.096,0.834,0.145,1.309,0.145
	c0.334,0,0.67-0.014,1.008-0.041c0.34-0.025,0.656-0.055,0.947-0.088C82.751,13.872,83.013,13.836,83.246,13.797z M78.974,10.631
	c0.139-0.178,0.314-0.318,0.523-0.42c0.211-0.104,0.441-0.168,0.693-0.201c0.254-0.031,0.494-0.049,0.721-0.049
	c0.344,0,0.639,0.02,0.881,0.057c0.24,0.037,0.416,0.084,0.523,0.137v2.504c-0.184,0.043-0.412,0.074-0.686,0.09
	c-0.275,0.016-0.59,0.023-0.945,0.023c-0.594,0-1.061-0.104-1.404-0.314c-0.348-0.209-0.518-0.584-0.518-1.124
	C78.763,11.043,78.833,10.809,78.974,10.631z"/>
</svg>
