<?xml version="1.0" encoding="iso-8859-1"?>
<!-- Generator: Adobe Illustrator 16.0.0, SVG Export Plug-In . SVG Version: 6.00 Build 0)  -->
<!DOCTYPE svg PUBLIC "-//W3C//DTD SVG 1.1//EN" "http://www.w3.org/Graphics/SVG/1.1/DTD/svg11.dtd">
<svg version="1.1" id="Horizontal" xmlns="http://www.w3.org/2000/svg" xmlns:xlink="http://www.w3.org/1999/xlink" x="0px" y="0px"
	 width="107.861px" height="16.839px" viewBox="0 0 107.861 16.839" style="enable-background:new 0 0 107.861 16.839;"
	 xml:space="preserve">
<path d="M1.501,4c0-1.381,1.117-2.5,2.5-2.5h10.5V12c0,1.381-1.119,2.5-2.5,2.5h-10.5V4z M4.001,0C1.791,0,0,1.79,0,4v12h12.001
	c2.209,0,4-1.789,4-4V0H4.001z M11.044,3c-0.723,0-1.227,0.262-1.641,0.853L3.001,13h1.957c0.72,0,1.225-0.262,1.639-0.852L13.001,3
	H11.044z M44.694,5.445c-0.709,0-1.252,0.413-1.442,1.095c-0.064,0.232-0.104,0.36-0.172,0.592c-0.207,0.696-0.33,1.086-0.564,1.774
	c-0.227,0.667-0.357,1.041-0.604,1.701c-0.216,0.577-0.339,0.898-0.579,1.469c-0.242-0.568-0.366-0.892-0.582-1.469
	c-0.245-0.66-0.378-1.033-0.604-1.701c-0.232-0.688-0.356-1.078-0.563-1.774C39.51,6.9,39.473,6.772,39.407,6.54
	c-0.191-0.682-0.735-1.095-1.442-1.095h-0.458c0.479,1.793,0.799,2.788,1.477,4.518c0.6,1.527,0.947,2.381,1.638,3.871h1.42
	c0.688-1.49,1.039-2.344,1.637-3.871c0.678-1.729,0.996-2.724,1.475-4.518H44.694z M31.145,5.401
	c-0.569,0.098-1.028,0.189-1.371,0.275v8.156h1.502V6.742c0.055-0.011,0.143-0.026,0.267-0.048s0.266-0.041,0.42-0.057
	c0.155-0.018,0.321-0.03,0.494-0.041c0.171-0.012,0.338-0.016,0.5-0.016c0.397,0,0.731,0.051,1.002,0.153
	C34.225,6.836,34.442,7,34.604,7.226c0.16,0.227,0.275,0.522,0.347,0.889c0.069,0.366,0.104,0.808,0.104,1.324v4.395h1.504V9.117
	c0-0.571-0.057-1.093-0.162-1.567c-0.107-0.474-0.295-0.881-0.559-1.219C35.574,5.99,35.223,5.727,34.78,5.54
	c-0.439-0.188-0.996-0.285-1.662-0.285C32.375,5.254,31.717,5.305,31.145,5.401 M73.223,5.424C72.696,5.54,72.254,5.66,71.901,5.79
	v8.043h1.5v-7.06c0.086-0.021,0.269-0.062,0.541-0.121c0.275-0.059,0.556-0.09,0.836-0.09c0.131,0,0.203,0.001,0.334,0.007
	c0.74,0.03,1.328-0.37,1.568-1.071c-0.064-0.021-0.164-0.046-0.299-0.074C76.248,5.4,76.1,5.372,75.938,5.345
	c-0.162-0.026-0.326-0.047-0.492-0.064C75.278,5.264,75.129,5.254,75,5.254C74.344,5.254,73.75,5.312,73.223,5.424 M52.206,6.284
	c-0.604-0.706-1.472-1.058-2.601-1.058c-0.483,0-0.959,0.092-1.422,0.274s-0.873,0.457-1.227,0.823
	C46.6,6.69,46.317,7.151,46.1,7.705c-0.215,0.556-0.322,1.203-0.322,1.946c0,0.636,0.082,1.22,0.25,1.753
	c0.166,0.533,0.424,0.993,0.769,1.381c0.344,0.389,0.783,0.692,1.315,0.912c0.533,0.223,1.164,0.331,1.896,0.331
	c0.584,0,1.102-0.053,1.559-0.161c0.457-0.107,0.779-0.209,0.961-0.306c-0.192-0.638-0.774-1.009-1.434-0.914
	c-0.357,0.05-0.564,0.058-0.924,0.058c-0.938,0-1.625-0.228-2.066-0.679c-0.44-0.454-0.695-1.114-0.76-1.985h5.75
	c0.01-0.088,0.016-0.182,0.016-0.283V9.503C53.11,8.063,52.809,6.989,52.206,6.284z M47.377,8.827c0.03-0.29,0.098-0.576,0.2-0.855
	c0.103-0.28,0.246-0.527,0.431-0.743c0.182-0.216,0.406-0.39,0.668-0.525c0.264-0.134,0.567-0.2,0.912-0.2
	c0.614,0,1.096,0.217,1.446,0.653c0.349,0.437,0.521,0.993,0.511,1.671L47.377,8.827L47.377,8.827z M55.266,5.879
	c-0.549,0.436-0.824,1.026-0.824,1.769c0,0.378,0.064,0.694,0.195,0.954c0.129,0.258,0.301,0.478,0.516,0.662
	c0.218,0.183,0.472,0.341,0.769,0.476c0.297,0.137,0.604,0.268,0.93,0.396c0.668,0.27,1.146,0.512,1.437,0.729
	c0.29,0.215,0.438,0.506,0.438,0.871c0,0.355-0.148,0.613-0.445,0.775c-0.295,0.16-0.754,0.242-1.369,0.242
	c-0.415,0-0.651-0.008-1.061-0.082c-0.682-0.123-1.305,0.236-1.535,0.891c0.15,0.062,0.438,0.158,0.857,0.281
	c0.418,0.123,1.002,0.186,1.744,0.186c1.065,0,1.885-0.197,2.463-0.598c0.573-0.396,0.862-0.984,0.862-1.76
	c0-0.398-0.059-0.735-0.178-1.01c-0.117-0.275-0.287-0.51-0.508-0.701c-0.223-0.195-0.486-0.365-0.801-0.512
	c-0.312-0.144-0.666-0.293-1.064-0.443c-0.303-0.107-0.561-0.211-0.774-0.307c-0.215-0.096-0.396-0.201-0.543-0.314
	c-0.146-0.113-0.252-0.239-0.322-0.379c-0.07-0.141-0.105-0.303-0.105-0.485c0-0.356,0.156-0.616,0.47-0.783
	c0.312-0.167,0.684-0.252,1.104-0.252c0.285,0,0.445,0.006,0.728,0.041c0.7,0.085,1.293-0.272,1.547-0.929
	c-0.088-0.031-0.207-0.069-0.365-0.112c-0.154-0.043-0.336-0.083-0.541-0.121c-0.203-0.038-0.426-0.071-0.662-0.097
	c-0.236-0.027-0.473-0.04-0.709-0.04C56.563,5.226,55.815,5.444,55.266,5.879 M83.608,7.155c-0.106-0.394-0.287-0.733-0.541-1.019
	c-0.252-0.285-0.586-0.506-1-0.662c-0.416-0.156-0.924-0.233-1.526-0.233c-0.527,0-1.019,0.04-1.472,0.12
	c-0.451,0.08-0.774,0.164-0.969,0.25c0.164,0.645,0.738,1.041,1.4,0.967c0.352-0.04,0.551-0.047,0.905-0.047
	c0.388,0,0.705,0.059,0.949,0.171c0.242,0.114,0.433,0.265,0.572,0.452c0.141,0.188,0.236,0.404,0.291,0.646
	c0.055,0.242,0.08,0.487,0.08,0.735v0.418c-0.043-0.01-0.117-0.024-0.228-0.048c-0.106-0.021-0.233-0.045-0.379-0.071
	c-0.146-0.028-0.299-0.049-0.459-0.065c-0.162-0.016-0.319-0.024-0.469-0.024c-0.475,0-0.928,0.049-1.357,0.146
	c-0.432,0.098-0.809,0.248-1.133,0.453c-0.322,0.203-0.578,0.473-0.764,0.807c-0.191,0.334-0.283,0.732-0.283,1.193
	c0,0.486,0.08,0.9,0.24,1.246c0.162,0.346,0.389,0.621,0.68,0.832c0.291,0.209,0.635,0.363,1.033,0.459
	c0.397,0.098,0.834,0.146,1.309,0.146c0.334,0,0.67-0.014,1.009-0.041c0.34-0.025,0.655-0.055,0.946-0.088
	c0.289-0.031,0.552-0.066,0.783-0.105c0.23-0.037,0.412-0.065,0.541-0.088v-5.25C83.77,7.981,83.715,7.548,83.608,7.155z
	 M82.299,12.656c-0.185,0.043-0.412,0.073-0.687,0.088c-0.274,0.018-0.59,0.024-0.944,0.024c-0.595,0-1.062-0.104-1.404-0.313
	c-0.348-0.209-0.518-0.586-0.518-1.123c0-0.291,0.069-0.525,0.211-0.703c0.139-0.178,0.313-0.318,0.522-0.42
	c0.211-0.104,0.441-0.17,0.693-0.201c0.254-0.031,0.494-0.049,0.721-0.049c0.344,0,0.639,0.02,0.881,0.057
	c0.24,0.037,0.416,0.084,0.523,0.137L82.299,12.656L82.299,12.656z M61.776,4.348v6.063c0,0.562,0.043,1.049,0.135,1.473
	c0.091,0.427,0.248,0.783,0.478,1.076c0.225,0.291,0.522,0.508,0.895,0.654c0.373,0.145,0.845,0.217,1.414,0.217h2.08
	c0-0.729-0.592-1.322-1.321-1.322h-0.63c-0.258,0-0.485-0.03-0.678-0.096c-0.192-0.063-0.354-0.176-0.485-0.332
	c-0.128-0.156-0.226-0.371-0.289-0.646c-0.064-0.275-0.097-0.619-0.097-1.039V6.704h1.92c0.697,0,1.259-0.562,1.259-1.259h-3.179
	V2.848C62.448,2.848,61.776,3.52,61.776,4.348 M25.99,6.945v6.889c0.827,0,1.5-0.672,1.5-1.5V5.445
	C26.66,5.445,25.99,6.117,25.99,6.945 M25.769,2.938c0,0.535,0.434,0.97,0.97,0.97s0.971-0.435,0.971-0.97
	c0-0.536-0.436-0.971-0.971-0.971C26.204,1.967,25.769,2.402,25.769,2.938 M68.114,6.945v6.889c0.83,0,1.5-0.672,1.5-1.5V5.445
	C68.785,5.445,68.114,6.117,68.114,6.945 M67.895,2.938c0,0.535,0.435,0.97,0.969,0.97c0.537,0,0.972-0.435,0.972-0.97
	c0-0.536-0.435-0.971-0.972-0.971C68.329,1.967,67.895,2.402,67.895,2.938 M107.583,7.976c-0.188-0.534-0.449-0.99-0.785-1.369
	c-0.336-0.378-0.732-0.671-1.191-0.879s-0.965-0.312-1.52-0.312c-0.556,0-1.062,0.104-1.521,0.312
	c-0.457,0.208-0.854,0.501-1.19,0.879c-0.336,0.379-0.599,0.835-0.783,1.369c-0.188,0.533-0.281,1.125-0.281,1.775
	c0,0.649,0.094,1.242,0.281,1.774c0.186,0.534,0.447,0.987,0.783,1.36s0.733,0.662,1.19,0.871c0.459,0.207,0.967,0.312,1.521,0.312
	c0.554,0,1.061-0.105,1.52-0.312c0.459-0.209,0.855-0.498,1.191-0.871s0.598-0.826,0.785-1.36c0.186-0.532,0.278-1.125,0.278-1.774
	C107.862,9.101,107.768,8.509,107.583,7.976z M106.038,12.214c-0.48,0.607-1.132,0.912-1.951,0.912
	c-0.822,0-1.476-0.305-1.953-0.912c-0.48-0.607-0.719-1.428-0.719-2.463c0-1.036,0.237-1.858,0.719-2.474
	c0.479-0.613,1.131-0.92,1.953-0.92c0.819,0,1.471,0.307,1.951,0.92c0.479,0.614,0.721,1.438,0.721,2.474
	C106.759,10.787,106.518,11.607,106.038,12.214z M92.891,7.959c-0.199-0.534-0.475-0.987-0.832-1.36
	c-0.357-0.374-0.785-0.658-1.281-0.855c-0.496-0.197-1.047-0.297-1.655-0.297c-0.734,0-1.345,0.049-1.824,0.145
	c-0.479,0.096-0.873,0.197-1.185,0.305v10.942c0.574,0,1.041-0.467,1.041-1.039v-2.399c0.183,0.14,0.474,0.285,0.871,0.438
	c0.4,0.154,0.873,0.232,1.416,0.232c0.599,0,1.129-0.105,1.592-0.32c0.466-0.213,0.857-0.51,1.177-0.889s0.562-0.832,0.729-1.359
	c0.166-0.527,0.248-1.106,0.248-1.735C93.186,9.093,93.088,8.492,92.891,7.959z M91.938,11.072c-0.096,0.41-0.25,0.768-0.463,1.071
	c-0.215,0.304-0.494,0.544-0.84,0.72c-0.348,0.176-0.777,0.266-1.289,0.266c-0.246,0-0.48-0.024-0.703-0.073
	c-0.227-0.048-0.434-0.106-0.625-0.185c-0.191-0.072-0.359-0.152-0.504-0.238c-0.146-0.086-0.264-0.166-0.359-0.24V6.615
	c0.16-0.054,0.396-0.104,0.711-0.151c0.314-0.048,0.729-0.072,1.24-0.072c0.896,0,1.617,0.29,2.16,0.871
	c0.545,0.582,0.816,1.416,0.816,2.505C92.083,10.225,92.033,10.662,91.938,11.072z M99.647,5.676
	C99.473,6.16,99.051,6.43,98.54,6.387c-0.191-0.016-0.408-0.022-0.652-0.022c-0.447,0-0.809,0.033-1.08,0.096
	c-0.271,0.065-0.451,0.118-0.535,0.16v7.249h-1.041V5.981c0.269-0.117,0.635-0.238,1.105-0.361c0.469-0.122,1.039-0.184,1.711-0.184
	c0.342,0,0.664,0.027,0.969,0.08C99.319,5.571,99.53,5.623,99.647,5.676"/>
</svg>
