<?xml version="1.0" encoding="utf-8"?>
<!-- Generator: Adobe Illustrator 16.0.0, SVG Export Plug-In . SVG Version: 6.00 Build 0)  -->
<!DOCTYPE svg PUBLIC "-//W3C//DTD SVG 1.1//EN" "http://www.w3.org/Graphics/SVG/1.1/DTD/svg11.dtd">
<svg version="1.1" id="Horizontal" xmlns="http://www.w3.org/2000/svg" xmlns:xlink="http://www.w3.org/1999/xlink" x="0px" y="0px"
	 width="101.26px" height="16px" viewBox="0 0 101.26 16" enable-background="new 0 0 101.26 16" xml:space="preserve">
<path d="M4-0.032c-2.209,0-4,1.79-4,4v12h12c2.209,0,4-1.791,4-4v-12H4z M6.596,12.115c-0.414,0.592-0.918,0.854-1.639,0.854H3
	L9.405,3.82c0.414-0.591,0.918-0.853,1.639-0.853H13L6.596,12.115z M98.932,14.03c-0.729,0-1.363-0.109-1.889-0.326
	c-0.516-0.214-0.947-0.514-1.285-0.891c-0.336-0.378-0.588-0.834-0.75-1.354c-0.166-0.532-0.252-1.124-0.252-1.758
	c0-0.115,0.004-0.229,0.012-0.341l0.002-0.055h-0.014c0.025-0.514,0.105-0.989,0.238-1.412c0.162-0.519,0.416-0.975,0.75-1.354
	c0.338-0.378,0.77-0.677,1.287-0.891c0.521-0.217,1.156-0.326,1.887-0.326c0.592,0,1.119,0.055,1.572,0.163
	c0.32,0.074,0.574,0.146,0.756,0.215c-0.191,0.377-0.564,0.61-0.986,0.61c-0.057,0-0.115-0.005-0.176-0.014
	c-0.375-0.052-0.602-0.061-0.996-0.061c-1.037,0-1.816,0.262-2.32,0.776c-0.471,0.483-0.754,1.178-0.842,2.066l-0.018,0.845
	l0.014,0.198c0.072,0.96,0.361,1.705,0.857,2.216c0.504,0.515,1.285,0.775,2.322,0.775c0.396,0,0.621-0.008,0.996-0.061
	c0.061-0.008,0.119-0.011,0.176-0.011c0.422,0,0.795,0.232,0.986,0.609c-0.186,0.068-0.439,0.141-0.756,0.215
	C100.051,13.975,99.522,14.03,98.932,14.03z M89.401,13.835c-0.676-1.47-1.039-2.355-1.643-3.894c-0.66-1.692-0.99-2.69-1.455-4.407
	h0.186c0.635,0,1.119,0.366,1.289,0.979c0.051,0.176,0.086,0.295,0.129,0.437l0.045,0.156l0.006,0.025
	c0.223,0.748,0.35,1.146,0.594,1.861c0.232,0.688,0.369,1.071,0.631,1.781c0.238,0.637,0.367,0.965,0.613,1.539L90,12.8l0.207-0.487
	c0.256-0.608,0.387-0.951,0.607-1.538c0.264-0.711,0.402-1.108,0.631-1.782c0.236-0.694,0.363-1.093,0.592-1.858l0.033-0.112
	c0.053-0.179,0.092-0.306,0.146-0.51c0.174-0.612,0.654-0.978,1.291-0.978h0.186c-0.469,1.734-0.799,2.732-1.455,4.407
	c-0.584,1.489-0.959,2.408-1.643,3.894H89.401z M44.706,5.413c-0.709,0-1.252,0.414-1.443,1.096
	C43.198,6.741,43.159,6.868,43.09,7.1c-0.207,0.695-0.33,1.086-0.564,1.773c-0.227,0.668-0.357,1.041-0.604,1.701
	c-0.217,0.578-0.34,0.9-0.58,1.469c-0.242-0.568-0.367-0.891-0.582-1.469c-0.246-0.66-0.379-1.033-0.605-1.701
	C39.922,8.186,39.797,7.795,39.59,7.1c-0.068-0.232-0.105-0.359-0.17-0.592c-0.193-0.682-0.736-1.096-1.443-1.096h-0.459
	c0.479,1.793,0.799,2.789,1.477,4.518c0.6,1.527,0.947,2.381,1.637,3.871h1.42c0.688-1.49,1.039-2.344,1.637-3.871
	c0.678-1.729,0.996-2.725,1.475-4.518H44.706z M31.157,5.37c-0.568,0.098-1.027,0.189-1.371,0.275v8.156h1.502V6.709
	c0.055-0.01,0.143-0.025,0.266-0.047c0.125-0.021,0.266-0.041,0.42-0.057c0.156-0.018,0.322-0.031,0.494-0.041
	c0.172-0.012,0.338-0.016,0.5-0.016c0.398,0,0.732,0.051,1.002,0.152c0.268,0.104,0.484,0.268,0.646,0.492
	c0.16,0.227,0.275,0.523,0.348,0.889c0.068,0.367,0.104,0.809,0.104,1.324v4.395h1.504V9.084c0-0.57-0.057-1.092-0.162-1.566
	c-0.107-0.475-0.295-0.881-0.559-1.219c-0.264-0.342-0.615-0.604-1.059-0.791c-0.439-0.189-0.996-0.285-1.662-0.285
	C32.387,5.223,31.729,5.274,31.157,5.37 M73.235,5.393c-0.527,0.115-0.969,0.234-1.322,0.365v8.043h1.5V6.743
	c0.086-0.021,0.268-0.062,0.541-0.121c0.275-0.059,0.555-0.09,0.836-0.09c0.131,0,0.203,0,0.334,0.006
	c0.74,0.031,1.328-0.369,1.568-1.07c-0.064-0.021-0.164-0.047-0.299-0.074c-0.133-0.025-0.281-0.053-0.443-0.08
	s-0.326-0.047-0.492-0.066c-0.168-0.014-0.316-0.023-0.445-0.023C74.356,5.223,73.762,5.28,73.235,5.393 M52.217,6.256
	c-0.604-0.705-1.471-1.057-2.6-1.057c-0.484,0-0.959,0.092-1.422,0.273s-0.873,0.457-1.227,0.824
	c-0.357,0.365-0.641,0.826-0.857,1.381c-0.215,0.555-0.322,1.203-0.322,1.945c0,0.635,0.082,1.219,0.25,1.754
	c0.166,0.533,0.424,0.992,0.768,1.381c0.344,0.387,0.783,0.691,1.316,0.912S49.288,14,50.02,14c0.584,0,1.102-0.053,1.559-0.16
	c0.457-0.109,0.779-0.211,0.961-0.307c-0.193-0.637-0.775-1.008-1.434-0.914c-0.357,0.051-0.564,0.057-0.924,0.057
	c-0.938,0-1.625-0.227-2.066-0.678c-0.441-0.453-0.695-1.115-0.76-1.986h5.75c0.01-0.088,0.016-0.18,0.016-0.283V9.477
	C53.122,8.036,52.821,6.961,52.217,6.256z M47.389,8.799c0.031-0.289,0.098-0.576,0.201-0.855c0.102-0.279,0.246-0.527,0.43-0.742
	c0.182-0.217,0.406-0.391,0.668-0.525c0.264-0.135,0.568-0.201,0.912-0.201c0.615,0,1.096,0.217,1.447,0.654
	c0.348,0.436,0.52,0.992,0.51,1.67H47.389z M55.278,5.852c-0.549,0.436-0.824,1.027-0.824,1.77c0,0.377,0.064,0.693,0.195,0.953
	c0.129,0.258,0.301,0.479,0.516,0.662c0.217,0.184,0.471,0.342,0.768,0.477s0.605,0.266,0.93,0.395
	c0.668,0.27,1.146,0.512,1.436,0.729c0.291,0.215,0.438,0.506,0.438,0.871c0,0.355-0.148,0.613-0.445,0.775
	c-0.295,0.16-0.754,0.242-1.369,0.242c-0.416,0-0.652-0.006-1.061-0.082c-0.682-0.123-1.305,0.236-1.535,0.891
	c0.15,0.062,0.438,0.158,0.857,0.281C55.6,13.938,56.184,14,56.926,14c1.066,0,1.885-0.197,2.463-0.598
	c0.574-0.396,0.863-0.984,0.863-1.76c0-0.398-0.059-0.734-0.178-1.01c-0.117-0.275-0.287-0.508-0.508-0.701
	c-0.223-0.195-0.486-0.365-0.801-0.51c-0.311-0.145-0.666-0.293-1.064-0.445c-0.303-0.107-0.561-0.211-0.775-0.307
	s-0.396-0.201-0.543-0.314c-0.145-0.113-0.252-0.238-0.322-0.379s-0.105-0.303-0.105-0.484c0-0.357,0.156-0.617,0.469-0.783
	c0.312-0.168,0.684-0.252,1.104-0.252c0.285,0,0.445,0.006,0.727,0.041c0.701,0.084,1.293-0.273,1.547-0.93
	c-0.088-0.031-0.207-0.068-0.365-0.111c-0.154-0.043-0.336-0.084-0.541-0.121c-0.203-0.039-0.426-0.072-0.662-0.098
	C57.997,5.211,57.76,5.2,57.524,5.2C56.575,5.2,55.827,5.417,55.278,5.852 M61.788,4.317v6.064c0,0.561,0.043,1.049,0.135,1.473
	c0.09,0.426,0.248,0.783,0.477,1.074c0.225,0.291,0.523,0.51,0.895,0.654c0.373,0.146,0.844,0.219,1.414,0.219h2.08
	c0-0.73-0.592-1.322-1.322-1.322h-0.629c-0.258,0-0.486-0.031-0.678-0.098c-0.193-0.062-0.355-0.174-0.486-0.332
	c-0.127-0.154-0.225-0.371-0.289-0.645c-0.064-0.275-0.096-0.619-0.096-1.039V6.672h1.92c0.697,0,1.258-0.562,1.258-1.26h-3.178
	V2.817C62.459,2.817,61.788,3.489,61.788,4.317 M26.001,6.913v6.889c0.828,0,1.501-0.672,1.501-1.5V5.413
	C26.673,5.413,26.001,6.084,26.001,6.913 M25.78,2.907c0,0.535,0.434,0.969,0.97,0.969c0.536,0,0.971-0.434,0.971-0.969
	c0-0.537-0.436-0.971-0.971-0.971C26.214,1.936,25.78,2.37,25.78,2.907 M68.125,6.913v6.889c0.83,0,1.5-0.672,1.5-1.5V5.413
	C68.797,5.413,68.125,6.084,68.125,6.913 M67.907,2.907c0,0.535,0.434,0.969,0.969,0.969c0.537,0,0.971-0.434,0.971-0.969
	c0-0.537-0.434-0.971-0.971-0.971C68.34,1.936,67.907,2.37,67.907,2.907 M83.241,13.766c0.23-0.037,0.412-0.066,0.541-0.088v-5.25
	c0-0.475-0.055-0.906-0.162-1.301c-0.107-0.393-0.287-0.732-0.541-1.018c-0.252-0.285-0.586-0.506-1-0.662
	c-0.416-0.156-0.924-0.232-1.527-0.232c-0.527,0-1.018,0.039-1.471,0.119c-0.451,0.08-0.775,0.164-0.969,0.25
	c0.164,0.645,0.738,1.041,1.4,0.967c0.352-0.039,0.551-0.047,0.906-0.047c0.387,0,0.705,0.059,0.949,0.172
	C81.61,6.79,81.799,6.94,81.94,7.127c0.141,0.189,0.236,0.404,0.291,0.646s0.08,0.488,0.08,0.736v0.418
	c-0.043-0.01-0.117-0.025-0.227-0.049c-0.107-0.02-0.234-0.045-0.379-0.07c-0.146-0.029-0.299-0.049-0.459-0.066
	c-0.162-0.016-0.32-0.023-0.469-0.023c-0.475,0-0.928,0.049-1.357,0.145c-0.432,0.098-0.809,0.248-1.133,0.453
	c-0.322,0.205-0.578,0.473-0.764,0.807c-0.191,0.334-0.283,0.732-0.283,1.195c0,0.486,0.08,0.9,0.24,1.244
	c0.162,0.346,0.389,0.623,0.68,0.832c0.291,0.211,0.635,0.363,1.033,0.461C79.592,13.952,80.028,14,80.502,14
	c0.334,0,0.67-0.014,1.008-0.041c0.34-0.025,0.656-0.055,0.947-0.088C82.747,13.84,83.008,13.805,83.241,13.766z M78.969,10.6
	c0.139-0.178,0.314-0.318,0.523-0.42c0.211-0.104,0.441-0.168,0.693-0.201C80.44,9.948,80.68,9.93,80.907,9.93
	c0.344,0,0.639,0.02,0.881,0.057c0.24,0.037,0.416,0.084,0.523,0.137v2.504c-0.184,0.043-0.412,0.074-0.686,0.09
	c-0.275,0.016-0.59,0.023-0.945,0.023c-0.594,0-1.061-0.104-1.404-0.314c-0.348-0.209-0.518-0.584-0.518-1.123
	C78.758,11.012,78.829,10.778,78.969,10.6z"/>
</svg>
