<?xml version="1.0" encoding="utf-8"?>
<!-- Generator: Adobe Illustrator 16.0.0, SVG Export Plug-In . SVG Version: 6.00 Build 0)  -->
<!DOCTYPE svg PUBLIC "-//W3C//DTD SVG 1.1//EN" "http://www.w3.org/Graphics/SVG/1.1/DTD/svg11.dtd">
<svg version="1.1" id="Vertical" xmlns="http://www.w3.org/2000/svg" xmlns:xlink="http://www.w3.org/1999/xlink" x="0px" y="0px"
	 width="58px" height="37.25px" viewBox="0 0 58 37.25" enable-background="new 0 0 58 37.25" xml:space="preserve">
<g id="V">
	<path d="M25.001,0c-2.211,0-4,1.79-4,4v12h12c2.209,0,4-1.79,4-4V0H25.001z M27.596,12.147C27.182,12.738,26.679,13,25.957,13
		h-1.956l6.404-9.147C30.819,3.261,31.321,3,32.043,3H34L27.596,12.147z M18.926,28.662c-0.709,0-1.253,0.414-1.444,1.096
		c-0.064,0.232-0.103,0.359-0.172,0.592c-0.207,0.695-0.33,1.086-0.563,1.773c-0.228,0.668-0.358,1.041-0.604,1.701
		c-0.216,0.578-0.34,0.9-0.58,1.469c-0.242-0.568-0.367-0.891-0.583-1.469c-0.245-0.66-0.378-1.033-0.604-1.701
		c-0.234-0.688-0.358-1.078-0.565-1.773c-0.068-0.231-0.106-0.358-0.171-0.592c-0.192-0.682-0.736-1.096-1.443-1.096h-0.458
		c0.479,1.793,0.799,2.789,1.476,4.518c0.599,1.527,0.948,2.381,1.637,3.871h1.419c0.688-1.49,1.039-2.344,1.637-3.871
		c0.678-1.729,0.996-2.725,1.476-4.518H18.926z M5.377,28.619c-0.57,0.098-1.029,0.189-1.372,0.275v8.155h1.503v-7.092
		c0.053-0.01,0.141-0.024,0.265-0.047s0.265-0.041,0.42-0.058c0.156-0.018,0.322-0.03,0.494-0.041
		c0.171-0.012,0.338-0.016,0.5-0.016c0.399,0,0.732,0.051,1.002,0.152c0.268,0.104,0.485,0.268,0.647,0.492
		c0.159,0.227,0.275,0.522,0.346,0.889c0.07,0.367,0.105,0.809,0.105,1.324v4.395h1.503v-4.717c0-0.57-0.056-1.092-0.162-1.566
		c-0.108-0.475-0.294-0.881-0.558-1.219c-0.264-0.342-0.616-0.604-1.058-0.791c-0.441-0.189-0.997-0.285-1.663-0.285
		C6.606,28.473,5.949,28.523,5.377,28.619 M47.456,28.643c-0.527,0.115-0.97,0.234-1.324,0.365v8.043h1.502v-7.059
		c0.086-0.021,0.268-0.062,0.541-0.121c0.275-0.059,0.555-0.09,0.834-0.09c0.133,0,0.205,0,0.334,0.006
		c0.742,0.031,1.328-0.369,1.57-1.07c-0.064-0.021-0.164-0.047-0.3-0.074c-0.133-0.024-0.282-0.053-0.442-0.08
		c-0.162-0.026-0.328-0.047-0.493-0.065c-0.167-0.015-0.315-0.022-0.444-0.022C48.575,28.473,47.982,28.529,47.456,28.643
		 M26.437,29.506c-0.603-0.705-1.47-1.057-2.6-1.057c-0.484,0-0.959,0.092-1.421,0.273c-0.463,0.182-0.873,0.457-1.228,0.823
		c-0.356,0.365-0.641,0.826-0.856,1.381c-0.215,0.556-0.323,1.203-0.323,1.945c0,0.635,0.083,1.219,0.251,1.754
		c0.166,0.533,0.423,0.992,0.767,1.381c0.345,0.388,0.783,0.691,1.316,0.912c0.533,0.222,1.165,0.33,1.896,0.33
		c0.584,0,1.103-0.054,1.56-0.16c0.457-0.108,0.779-0.211,0.961-0.307c-0.194-0.638-0.776-1.009-1.434-0.914
		c-0.358,0.051-0.564,0.057-0.925,0.057c-0.937,0-1.625-0.227-2.066-0.678c-0.441-0.453-0.695-1.115-0.76-1.986h5.751
		c0.01-0.088,0.016-0.18,0.016-0.282v-0.252C27.342,31.285,27.04,30.211,26.437,29.506z M21.608,32.049
		c0.031-0.289,0.099-0.576,0.201-0.855c0.102-0.278,0.246-0.526,0.43-0.741c0.182-0.218,0.406-0.392,0.668-0.525
		c0.265-0.135,0.568-0.2,0.912-0.2c0.615,0,1.097,0.217,1.447,0.653c0.348,0.437,0.52,0.992,0.51,1.67L21.608,32.049L21.608,32.049z
		 M29.498,29.102c-0.55,0.437-0.824,1.027-0.824,1.771c0,0.377,0.063,0.692,0.194,0.953c0.129,0.258,0.302,0.479,0.517,0.661
		c0.216,0.185,0.471,0.343,0.768,0.478c0.297,0.136,0.605,0.267,0.93,0.396c0.668,0.27,1.146,0.512,1.437,0.729
		c0.291,0.215,0.437,0.506,0.437,0.871c0,0.355-0.146,0.613-0.443,0.775c-0.297,0.16-0.754,0.242-1.369,0.242
		c-0.416,0-0.652-0.006-1.062-0.082c-0.682-0.123-1.305,0.235-1.534,0.891c0.149,0.062,0.437,0.158,0.856,0.281
		s1.003,0.186,1.745,0.186c1.065,0,1.886-0.197,2.463-0.598c0.574-0.396,0.863-0.984,0.863-1.76c0-0.398-0.06-0.734-0.179-1.011
		c-0.117-0.276-0.287-0.508-0.508-0.7c-0.223-0.195-0.486-0.365-0.801-0.511c-0.312-0.146-0.666-0.293-1.064-0.444
		c-0.303-0.107-0.561-0.211-0.774-0.308c-0.214-0.096-0.396-0.2-0.543-0.313c-0.146-0.113-0.252-0.238-0.321-0.379
		c-0.07-0.142-0.105-0.304-0.105-0.484c0-0.357,0.156-0.617,0.469-0.783c0.312-0.168,0.684-0.252,1.104-0.252
		c0.285,0,0.445,0.006,0.728,0.041c0.7,0.084,1.293-0.273,1.547-0.93c-0.088-0.031-0.207-0.068-0.364-0.111
		c-0.156-0.043-0.336-0.084-0.541-0.121c-0.205-0.039-0.427-0.072-0.662-0.098c-0.236-0.027-0.474-0.039-0.709-0.039
		C30.795,28.449,30.047,28.666,29.498,29.102 M36.008,27.566v6.063c0,0.562,0.041,1.05,0.135,1.474
		c0.09,0.426,0.248,0.782,0.477,1.073c0.226,0.291,0.523,0.511,0.896,0.654c0.372,0.146,0.844,0.219,1.413,0.219h2.08
		c0-0.729-0.592-1.321-1.321-1.321h-0.629c-0.259,0-0.486-0.031-0.679-0.099c-0.192-0.062-0.354-0.174-0.485-0.332
		c-0.127-0.153-0.226-0.371-0.289-0.646c-0.065-0.274-0.097-0.618-0.097-1.038v-3.693h1.921c0.696,0,1.258-0.562,1.258-1.26h-3.179
		v-2.597C36.68,26.066,36.008,26.738,36.008,27.566 M0.221,30.162v6.889c0.828,0,1.5-0.672,1.5-1.5v-6.889
		C0.892,28.662,0.221,29.334,0.221,30.162 M0,26.156c0,0.535,0.434,0.969,0.97,0.969c0.536,0,0.97-0.434,0.97-0.969
		c0-0.537-0.434-0.971-0.97-0.971C0.434,25.186,0,25.619,0,26.156 M42.346,30.162v6.889c0.828,0,1.5-0.672,1.5-1.5v-6.889
		C43.018,28.662,42.346,29.334,42.346,30.162 M42.125,26.156c0,0.535,0.436,0.969,0.97,0.969c0.536,0,0.972-0.434,0.972-0.969
		c0-0.537-0.436-0.971-0.972-0.971C42.561,25.186,42.125,25.619,42.125,26.156 M57.459,37.016c0.231-0.037,0.412-0.065,0.541-0.088
		v-5.25c0-0.475-0.054-0.906-0.16-1.301c-0.107-0.393-0.288-0.732-0.543-1.018c-0.252-0.285-0.586-0.506-1-0.662
		s-0.924-0.232-1.525-0.232c-0.527,0-1.02,0.039-1.473,0.119c-0.449,0.08-0.773,0.164-0.969,0.25
		c0.166,0.645,0.739,1.041,1.401,0.967c0.353-0.039,0.552-0.047,0.906-0.047c0.387,0,0.704,0.059,0.948,0.172
		c0.242,0.113,0.433,0.264,0.572,0.451c0.141,0.189,0.236,0.404,0.291,0.646s0.08,0.487,0.08,0.735v0.418
		c-0.043-0.01-0.117-0.024-0.227-0.049c-0.107-0.021-0.234-0.045-0.379-0.069c-0.146-0.029-0.299-0.05-0.461-0.066
		c-0.161-0.016-0.318-0.023-0.469-0.023c-0.474,0-0.927,0.049-1.355,0.145c-0.432,0.099-0.809,0.248-1.133,0.453
		c-0.322,0.205-0.578,0.474-0.766,0.808c-0.189,0.334-0.283,0.731-0.283,1.194c0,0.486,0.08,0.9,0.242,1.244
		c0.161,0.347,0.387,0.623,0.678,0.832c0.291,0.211,0.637,0.363,1.035,0.461c0.397,0.097,0.834,0.146,1.309,0.146
		c0.334,0,0.67-0.015,1.008-0.041c0.34-0.024,0.656-0.056,0.945-0.088C56.967,37.09,57.229,37.055,57.459,37.016z M53.189,33.85
		c0.138-0.178,0.313-0.317,0.522-0.42c0.211-0.104,0.441-0.168,0.693-0.201c0.254-0.03,0.494-0.049,0.721-0.049
		c0.344,0,0.64,0.021,0.881,0.057c0.24,0.037,0.416,0.084,0.523,0.138v2.504c-0.184,0.043-0.412,0.074-0.688,0.09
		c-0.274,0.017-0.586,0.022-0.942,0.022c-0.594,0-1.062-0.104-1.405-0.314c-0.347-0.209-0.517-0.584-0.517-1.123
		C52.979,34.262,53.047,34.027,53.189,33.85z"/>
</g>
</svg>
