<?xml version="1.0" encoding="utf-8"?>
<!-- Generator: Adobe Illustrator 16.0.0, SVG Export Plug-In . SVG Version: 6.00 Build 0)  -->
<!DOCTYPE svg PUBLIC "-//W3C//DTD SVG 1.1//EN" "http://www.w3.org/Graphics/SVG/1.1/DTD/svg11.dtd">
<svg version="1.1" xmlns="http://www.w3.org/2000/svg" xmlns:xlink="http://www.w3.org/1999/xlink" x="0px" y="0px" width="16px"
	 height="16px" viewBox="0 0 16 16" enable-background="new 0 0 16 16" xml:space="preserve">
<g id="PRI" display="none">
	<g display="inline">
		<linearGradient id="SVGID_1_" gradientUnits="userSpaceOnUse" x1="9.0674" y1="12.1094" x2="10.4902" y2="12.1094">
			<stop  offset="0" style="stop-color:#1BA18E"/>
			<stop  offset="0.0136" style="stop-color:#1BA18E"/>
			<stop  offset="1" style="stop-color:#179D94"/>
		</linearGradient>
		<path fill="url(#SVGID_1_)" d="M9.067,13.038v-1.857H9.67c0.227,0,0.377,0.009,0.445,0.027c0.107,0.028,0.195,0.089,0.268,0.182
			c0.072,0.094,0.107,0.214,0.107,0.362c0,0.114-0.021,0.21-0.062,0.287c-0.041,0.078-0.094,0.14-0.156,0.184
			c-0.064,0.044-0.129,0.073-0.195,0.088c-0.09,0.018-0.219,0.026-0.389,0.026H9.442v0.701H9.067z M9.442,11.494v0.527h0.205
			c0.147,0,0.247-0.01,0.296-0.029c0.051-0.019,0.09-0.05,0.117-0.091c0.029-0.041,0.043-0.09,0.043-0.145
			c0-0.067-0.02-0.123-0.059-0.167c-0.041-0.044-0.09-0.071-0.152-0.083c-0.044-0.008-0.134-0.013-0.27-0.013H9.442z"/>
		<linearGradient id="SVGID_2_" gradientUnits="userSpaceOnUse" x1="10.7998" y1="12.1094" x2="12.4697" y2="12.1094">
			<stop  offset="0" style="stop-color:#1BA18E"/>
			<stop  offset="0.0136" style="stop-color:#1BA18E"/>
			<stop  offset="1" style="stop-color:#179D94"/>
		</linearGradient>
		<path fill="url(#SVGID_2_)" d="M10.8,13.038v-1.857h0.789c0.198,0,0.343,0.017,0.433,0.05s0.162,0.093,0.217,0.178
			c0.054,0.086,0.081,0.183,0.081,0.293c0,0.14-0.041,0.255-0.123,0.346s-0.205,0.147-0.368,0.171
			c0.081,0.048,0.148,0.1,0.201,0.156s0.124,0.157,0.214,0.302l0.227,0.362h-0.448l-0.271-0.404
			c-0.097-0.145-0.162-0.235-0.198-0.273c-0.035-0.037-0.072-0.063-0.112-0.077s-0.103-0.021-0.188-0.021h-0.076v0.775H10.8z
			 M11.175,11.966h0.277c0.18,0,0.292-0.008,0.337-0.022c0.045-0.016,0.08-0.042,0.105-0.079s0.038-0.083,0.038-0.139
			c0-0.062-0.017-0.113-0.05-0.151c-0.034-0.039-0.081-0.063-0.142-0.073c-0.03-0.004-0.122-0.007-0.273-0.007h-0.293V11.966z"/>
		<linearGradient id="SVGID_3_" gradientUnits="userSpaceOnUse" x1="12.6611" y1="12.1094" x2="13.0361" y2="12.1094">
			<stop  offset="0" style="stop-color:#1BA18E"/>
			<stop  offset="0.0136" style="stop-color:#1BA18E"/>
			<stop  offset="1" style="stop-color:#179D94"/>
		</linearGradient>
		<path fill="url(#SVGID_3_)" d="M12.661,13.038v-1.857h0.375v1.857H12.661z"/>
	</g>
</g>
<g id="Layer_3">
	<path d="M4,0C1.79,0,0,1.789,0,4.001V16h12c2.209,0,4-1.791,4-3.999V0H4z M6.594,12.146c-0.414,0.593-0.916,0.854-1.639,0.854
		H3.001l6.403-9.149C9.818,3.263,10.32,3,11.044,3h1.955L6.594,12.146z"/>
</g>
</svg>
