<?xml version="1.0" encoding="iso-8859-1"?>
<!-- Generator: Adobe Illustrator 16.0.0, SVG Export Plug-In . SVG Version: 6.00 Build 0)  -->
<!DOCTYPE svg PUBLIC "-//W3C//DTD SVG 1.1//EN" "http://www.w3.org/Graphics/SVG/1.1/DTD/svg11.dtd">
<svg version="1.1" id="icone" xmlns="http://www.w3.org/2000/svg" xmlns:xlink="http://www.w3.org/1999/xlink" x="0px" y="0px"
	 width="16px" height="16px" viewBox="0 0 16 16" style="enable-background:new 0 0 16 16;" xml:space="preserve">
<path style="fill:#231F20;" d="M4.001,0C1.791,0,0,1.79,0,4v12h12c2.208,0,4-1.79,4-4V0H4.001z M14.5,12c0,1.381-1.119,2.5-2.5,2.5
	h-10.5V4c0-1.381,1.118-2.5,2.5-2.5H14.5V12z M12.999,3l-6.403,9.147C6.183,12.737,5.719,13,5,13H3.001l6.403-9.147
	C9.817,3.263,10.277,3,11,3H12.999z"/>
</svg>
