<?xml version="1.0" standalone="no"?>
<!DOCTYPE svg PUBLIC "-//W3C//DTD SVG 1.1//EN" "http://www.w3.org/Graphics/SVG/1.1/DTD/svg11.dtd" >
<svg xmlns="http://www.w3.org/2000/svg">
<metadata>Generated by IcoMoon</metadata>
<defs>
<font id="icomoon" horiz-adv-x="1024">
<font-face units-per-em="1024" ascent="960" descent="-64" />
<missing-glyph horiz-adv-x="1024" />
<glyph unicode="&#x20;" horiz-adv-x="512" d="" />
<glyph unicode="&#xe900;" glyph-name="ok" d="M981.333 722.176l-588.075-590.891c-5.461-5.504-12.885-8.619-20.608-8.619-6.997-2.048-15.36 3.157-20.864 8.832l-309.077 317.483c0 0-0.043 0.085-0.043 0.128l45.525 8.064c15.872 2.773 28.117-1.237 39.637-11.861l245.035-251.605 521.472 523.264c12.117 12.16 24.96 16.213 41.813 13.184l45.184-7.979z" />
<glyph unicode="&#xe901;" glyph-name="cancel" d="M981.333 0.256l-46.336-8.192c-16.981-2.944-30.123 1.024-42.411 13.184l-379.605 379.563-381.568-381.568c-12.288-12.117-25.387-16.384-42.411-13.184l-46.336 8.235 428.544 428.373-428.544 428.373 46.336 8.192c17.024 3.157 30.123-1.024 42.411-13.227l381.525-381.483 379.563 379.563c12.288 12.16 25.387 16.128 42.411 13.227l46.421-8.235-426.581-426.411 426.581-426.411z" />
<glyph unicode="&#xe902;" glyph-name="check" d="M898.475 639.744l-505.216-508.459c-5.461-5.504-12.885-8.619-20.608-8.619-6.997-2.048-15.36 3.157-20.864 8.832l-226.603 232.277c0 0-0.043 0.085-0.043 0.128l45.525 8.107c15.872 2.773 28.117-1.237 39.637-11.861l162.603-166.4 438.613 440.832c12.117 12.16 25.003 16.213 41.813 13.184l45.141-8.021z" />
<glyph unicode="&#xe903;" glyph-name="double_check" d="M813.141 639.744l-505.216-508.459c-5.461-5.504-12.885-8.619-20.608-8.619-6.997-2.048-15.36 3.157-20.864 8.832l-226.603 232.277c0 0-0.043 0.085-0.043 0.128l45.525 8.107c15.872 2.773 28.117-1.237 39.637-11.861l162.603-166.4 438.613 440.832c12.117 12.16 25.003 16.213 41.813 13.184l45.141-8.021zM934.784 634.923c-16.853 3.029-29.696-0.981-41.856-13.184l-438.613-440.789-29.355 30.080-41.387-41.387 49.707-50.944c5.504-5.675 13.867-10.88 20.864-8.832 7.723 0 15.147 3.115 20.608 8.619l505.216 508.459-45.184 7.979z" />
<glyph unicode="&#xe904;" glyph-name="insert" d="M541.355 397.312v-374.101c0-17.237-6.315-29.269-20.309-39.168l-38.4-26.709v439.979h-374.059c-17.237 0-29.269 6.315-39.168 20.352l-26.752 38.357h439.979v374.059c0 17.237 6.315 29.269 20.309 39.211l38.4 26.709v-439.979h374.101c17.237-0.043 29.269-6.315 39.211-20.352l26.667-38.357h-439.979z" />
<glyph unicode="&#xe905;" glyph-name="save" d="M964.096 650.539l-228.053 228.224c-11.008 11.008-25.984 17.237-41.557 17.237h-501.931c-82.603 0-149.888-67.157-149.888-150.016v-638.677c0-82.816 67.285-149.973 149.888-149.973h638.891c82.603 0 149.888 67.157 149.888 150.016v501.76c0 15.616-6.229 30.421-17.237 41.429zM752 16h-480v282.667h480v-282.667zM922.667 107.35c0-50.389-40.832-91.349-91.221-91.349h-20.779v311.979c0 16.299-13.184 29.355-29.355 29.355h-538.624c-16.171 0-29.355-13.056-29.355-29.312v-311.979h-20.779c-50.389 0-91.221 40.96-91.221 91.349v638.592c0 50.389 40.832 91.349 91.221 91.349l21.291-1.067-0.512-268.288c0-16.299 13.184-29.355 29.355-29.355h328.576l-27.435 39.211c-8.235 11.776-18.389 16.469-31.232 17.877l-29.355 1.621h-211.243l0.512 238.933 422.016 1.067 228.181-228.224v-501.76z" />
<glyph unicode="&#xe906;" glyph-name="edit" d="M964.139 650.539l-228.224 228.267c-11.477 11.435-26.453 17.195-41.472 17.195-15.061 0-30.037-5.76-41.515-17.195l-543.189-543.317c-10.155-8.789-17.024-20.992-19.328-34.56l-46.891-274.901c-2.688-15.829 1.195-32.043 10.795-45.013l0.085-0.085c11.179-15.019 28.672-23.595 47.061-23.595 3.243 0 6.571 0.299 9.856 0.896l269.696 45.995c13.824 1.067 26.965 6.997 36.992 16.981l546.133 546.347c22.912 22.912 22.912 60.032 0 82.987zM376.491 62.72l-0.128 0.213-274.987-46.763 46.848 274.944 0.128-0.085 546.091 546.304 228.224-228.309-546.176-546.304z" />
<glyph unicode="&#xe907;" glyph-name="delete" d="M442.709 554.667v-266.453c0-17.109-6.315-29.184-20.395-39.125l-38.315-26.709v266.411c0 17.323 6.315 29.355 20.395 39.211l38.315 26.667zM601.643 528c-14.080-9.813-20.352-21.888-20.395-39.211v-266.411l38.357 26.709c14.080 9.941 20.395 22.016 20.395 39.125v266.453l-38.357-26.667zM922.667 725.334l-26.795 38.144c-9.813 14.165-18.048 20.48-35.243 20.48h-113.963c-17.621 29.269-47.275 66.816-47.275 66.816-20.864 29.653-50.944 45.227-87.083 45.227h-200.619c-36.139 0-66.219-15.573-87.083-45.227 0 0-26.837-33.195-47.275-66.816l-114.432-0.683c-17.195 0-25.387-6.315-35.2-20.352l-26.368-37.589h58.667l0.981-650.709c-0.043-64.555 60.331-117.291 126.293-117.291h451.285c65.92 0 126.379 52.736 126.379 117.291l-0.896 650.709h58.624zM372.523 817.024c9.941 13.995 21.931 20.352 39.168 20.352h200.619c17.237 0 29.227-6.315 39.168-20.352l26.667-33.067h-332.245l26.624 33.067zM738.56 15.958h-451.285c-33.621 0-67.712 26.368-67.712 58.667l-0.896 650.709h586.624l0.981-650.709c0-32.299-34.091-58.667-67.712-58.667z" />
<glyph unicode="&#xe908;" glyph-name="find" d="M779.349 188.203c77.952 74.88 126.763 180.096 126.763 296.405-0.043 226.901-184.533 411.392-411.349 411.392s-411.392-184.491-411.392-411.392c0-226.901 184.533-411.392 411.392-411.392 89.216 0 171.691 28.928 239.147 77.312l121.685-173.696c9.685-13.312 21.504-19.499 38.187-19.499h46.848l-161.28 230.869zM142.123 484.608c0 194.773 157.867 352.64 352.64 352.64 194.688 0 352.597-157.824 352.597-352.64s-157.867-352.64-352.597-352.64c-194.773 0.043-352.64 157.824-352.64 352.64z" />
<glyph unicode="&#xe909;" glyph-name="refresh" d="M512.299-42.666c-258.944 0-469.632 210.56-469.632 469.333s210.688 469.333 469.632 469.333c130.517 0 251.819-52.523 341.504-147.968l23.509-24.917v96.939c0.043 15.787 5.675 26.752 18.176 35.499l42.496 28.544v-237.867c0-16.768-13.568-30.379-30.336-30.379h-237.483l29.696 42.453c8.789 12.544 19.755 18.133 35.669 18.219h96.555l-15.829 22.613c-77.739 86.613-188.501 136.235-303.915 136.235-225.493 0-408.96-183.339-408.96-408.704s183.467-408.704 408.96-408.704c197.547 0 366.635 141.141 402.005 335.531 3.883 10.923 12.16 20.309 25.472 27.52l41.515 22.357c-12.16-247.979-217.941-446.037-469.035-446.037z" />
<glyph unicode="&#xe90a;" glyph-name="synchronize" d="M512-42.666c-170.069 0-327.296 93.056-410.411 242.731l-5.547 10.667c-32.085 61.312-50.005 126.080-53.376 192.896l41.557-22.4c13.312-7.125 21.547-16.512 25.984-29.397 10.581-59.136 35.2-115.755 72.576-166.357 77.099-104.832 200.149-167.424 329.216-167.424 115.499 0 226.347 49.621 304.128 136.235l20.352 22.571h-101.163c-15.872 0.085-26.88 5.675-35.627 18.219l-29.696 42.453h237.653c16.768 0 30.379-13.611 30.379-30.336v-237.909l-42.709 28.715c-12.331 8.576-17.92 19.541-17.963 35.456v96.811l-23.509-24.917c-89.856-95.445-211.243-148.011-341.845-148.011zM939.776 472.107c-13.312 7.125-21.547 16.512-25.984 29.397-10.581 59.136-35.2 115.755-72.576 166.357-77.099 104.875-200.149 167.467-329.216 167.467-115.499 0-226.347-49.621-304.128-136.235l-20.352-22.613h101.163c15.872-0.085 26.88-5.675 35.627-18.219l29.696-42.453h-237.653c-16.768 0-30.379 13.611-30.379 30.336v237.952l42.709-28.715c12.331-8.576 17.92-19.541 17.963-35.456v-96.811l23.595 24.917c89.771 95.403 211.157 147.968 341.76 147.968 170.069 0 327.296-93.056 410.411-242.731l5.547-10.667c32.085-61.312 50.005-126.080 53.376-192.896l-41.557 22.4z" />
<glyph unicode="&#xe90b;" glyph-name="filter" d="M976.853 815.83c-9.088 22.016-30.464 36.352-54.187 36.352h-821.333c-23.723 0-45.099-14.336-54.187-36.352s-4.053-47.232 12.715-64.085l334.848-366.507v-204.672c0-2.005 0.085-3.925 0.299-5.931 4.608-45.909 26.539-82.816 65.067-109.824l76.971-54.187c10.069-7.083 21.845-10.667 33.707-10.667 9.259 0 18.56 2.176 27.093 6.656 19.413 10.155 31.573 30.165 31.573 52.181v326.4l334.805 366.507c16.683 16.896 21.717 42.112 12.629 64.128zM570.667 409.6v-350.763l-76.971 54.101c-25.131 17.579-37.504 39.083-40.363 67.669v228.992l-352 383.744h821.333l-352-383.744z" />
<glyph unicode="&#xe90c;" glyph-name="undo" d="M511.701-42.666c258.944 0 469.632 210.56 469.632 469.333s-210.688 469.333-469.632 469.333c-130.475 0-251.819-52.523-341.504-147.968l-23.509-24.917v96.939c-0.043 15.787-5.675 26.752-18.176 35.499l-42.496 28.544v-237.867c0-16.768 13.568-30.379 30.336-30.379h237.483l-29.653 42.453c-8.789 12.544-19.797 18.133-35.669 18.176h-96.555l15.829 22.613c77.739 86.613 188.501 136.235 303.915 136.235 225.493 0 408.96-183.339 408.96-408.704s-183.467-408.704-408.96-408.704c-197.547 0-366.635 141.141-402.005 335.531-3.883 10.923-12.16 20.309-25.472 27.52l-41.557 22.4c12.16-247.979 217.941-446.037 469.035-446.037z" />
<glyph unicode="&#xe90d;" glyph-name="share" d="M746.667 312.918c-52.779 0-99.541-24.021-131.925-61.355l-174.592 108.373c8.448 20.736 13.141 43.136 13.141 66.773 0 23.723-4.736 46.421-13.227 67.029l174.080 108.843c32.213-37.632 79.36-62.165 132.48-62.165 97.067 0 176 79.787 176 177.835 0.043 97.963-78.891 177.749-175.957 177.749s-176-79.787-176-177.749c0-23.211 4.651-45.227 12.8-65.835l-174.549-109.099c-32.213 37.248-78.933 61.099-131.584 61.099-97.067 0-176-79.659-176-177.707s78.933-177.749 176-177.749c52.736 0 99.541 23.936 131.883 61.269l174.592-108.373c-8.405-20.736-13.141-43.008-13.141-66.688 0-98.048 78.933-177.835 176-177.835s176 79.787 176 177.792-78.933 177.792-176 177.792zM746.667 837.334c64.768 0 117.333-53.291 117.333-119.083 0-65.835-52.565-119.125-117.333-119.125-32.213 0-61.397 13.355-82.603 34.645-6.741 6.613-12.373 14.464-17.237 22.656-0.427 0.555-0.683 1.365-1.109 2.133-4.523 8.149-8.277 16.64-10.965 25.813-3.2 10.837-5.419 22.016-5.419 33.835 0 65.835 52.565 119.125 117.333 119.125zM388.992 391.808c-2.987-9.771-7.040-18.603-11.861-27.179-0.043-0.085-0.171-0.128-0.213-0.171-5.035-8.405-11.008-16.256-17.92-23.083v0c-21.163-20.864-49.877-33.792-81.664-33.792-64.768 0-117.333 53.291-117.333 119.125s52.565 119.083 117.333 119.083c31.701 0 60.459-12.885 81.536-33.664v0c13.909-13.739 24.064-30.805 29.995-50.389 3.499-11.179 5.845-22.571 5.845-35.029-0.043-12.16-2.389-23.808-5.717-34.901zM746.667 16c-64.768 0-117.333 53.333-117.333 119.125 0 12.117 2.347 23.808 5.675 34.816 2.987 9.472 6.869 18.56 11.819 26.923 0.043 0.341 0.085 0.469 0.256 0.555 4.992 8.277 10.965 16 17.877 22.912 21.12 20.949 49.792 33.877 81.707 33.877 64.768 0 117.333-53.248 117.333-119.083 0-65.792-52.565-119.125-117.333-119.125z" />
<glyph unicode="&#xe90e;" glyph-name="share_left" d="M805.333 604.416c-87.125 0-159.104-64.341-173.141-148.437h-490.581l118.4 82.816c14.080 9.941 20.437 20.992 20.437 38.229v47.744l-218.453-153.002c-4.139-2.901-6.528-6.357-9.173-9.6-4.992-6.357-8.363-13.483-9.429-22.016l-0.725-13.525 0.768-13.568c0.939-7.68 3.797-14.165 7.936-20.309l0.043 0.043c3.115-3.883 5.931-8.021 10.88-11.349l218.197-152.875v47.744c0 17.237-6.315 28.245-20.437 38.229l-118.4 82.773h490.581c14.037-84.096 86.016-148.437 173.141-148.437 97.024 0.043 175.957 79.787 175.957 177.792s-78.933 177.749-176 177.749zM805.333 307.584c-64.768 0-117.333 53.248-117.333 119.083s52.565 119.083 117.333 119.083 117.333-53.248 117.333-119.083-52.565-119.083-117.333-119.083z" />
<glyph unicode="&#xe90f;" glyph-name="share_right" d="M218.667 248.96c87.125 0 159.104 64.384 173.099 148.395h490.667l-118.485-82.944c-14.037-9.899-20.352-20.949-20.352-38.101v-47.744l218.368 152.96c4.139 2.987 6.613 6.357 9.173 9.771 4.992 6.357 8.448 13.397 9.515 22.016l0.683 13.397-0.683 13.525c-0.981 7.808-3.84 14.336-7.979 20.352l-0.043-0.043c-3.072 3.968-5.888 7.979-10.837 11.477l-218.197 152.789v-47.787c0-17.152 6.272-28.16 20.352-38.101l118.443-82.901h-490.624c-13.995 83.968-85.973 148.352-173.099 148.352-97.024 0-176-79.744-176-177.707s78.976-177.707 176-177.707zM218.667 545.707c64.853 0 117.333-53.291 117.333-119.040s-52.48-119.040-117.333-119.040-117.333 53.291-117.333 119.040 52.48 119.040 117.333 119.040z" />
<glyph unicode="&#xe910;" glyph-name="share_left-right" d="M805.333 362.496c-87.125 0-159.104-64.427-173.099-148.395h-490.667l118.485 82.944c14.037 9.899 20.352 20.949 20.352 38.101v47.744l-218.368-153.003c-4.139-2.944-6.613-6.315-9.173-9.771-4.992-6.315-8.448-13.355-9.515-22.016l-0.683-13.397 0.683-13.483c0.981-7.808 3.84-14.336 7.979-20.352l0.043 0.043c3.072-3.968 5.888-7.979 10.837-11.477l218.197-152.789v47.787c0 17.152-6.272 28.16-20.352 38.101l-118.4 82.944h490.624c13.995-84.011 85.973-148.395 173.099-148.395 97.024 0 176 79.744 176 177.707s-79.019 177.707-176.043 177.707zM805.333 65.75c-64.853 0-117.333 53.248-117.333 119.040 0 65.749 52.48 119.040 117.333 119.040s117.333-53.291 117.333-119.040c0-65.792-52.48-119.040-117.333-119.040zM980.651 682.112c-0.981 7.808-3.84 14.336-7.979 20.352l-0.043-0.043c-3.072 3.968-5.888 7.979-10.837 11.477l-218.197 152.789v-47.787c0-17.152 6.272-28.16 20.352-38.101l118.443-82.901h-490.624c-13.995 83.968-85.973 148.352-173.099 148.352-97.024 0-176-79.744-176-177.707s78.976-177.707 176-177.707c87.125 0 159.104 64.427 173.099 148.395h490.667l-118.485-82.944c-14.037-9.899-20.352-20.949-20.352-38.101v-47.744l218.368 152.96c4.139 2.944 6.613 6.315 9.173 9.771 4.992 6.315 8.448 13.355 9.515 22.016l0.683 13.44-0.683 13.483zM218.667 549.504c-64.853 0-117.333 53.291-117.333 119.040 0 65.792 52.48 119.040 117.333 119.040s117.333-53.248 117.333-119.040c0-65.749-52.48-119.040-117.333-119.040z" />
<glyph unicode="&#xe911;" glyph-name="success" d="M922.667 896h-821.333c-32.427 0-58.667-26.325-58.667-58.667v-821.333c0-32.341 26.24-58.667 58.667-58.667h821.333c32.427 0 58.667 26.325 58.667 58.667v821.333c0 32.341-26.24 58.667-58.667 58.667zM372.821 175.488l-215.467 220.16c0 0 0 0-0.043 0.085l45.824 8.064c16 2.816 28.331-1.152 39.851-11.819l130.517-133.163 405.76 404.651c12.245 12.331 25.131 16.341 42.069 13.312l45.397-8.021-493.909-493.269z" />
<glyph unicode="&#xe912;" glyph-name="error" d="M922.667 896h-821.333c-32.427 0-58.667-26.325-58.667-58.667v-821.333c0-32.341 26.24-58.667 58.667-58.667h821.333c32.427 0 58.667 26.325 58.667 58.667v821.333c0 32.341-26.24 58.667-58.667 58.667zM815.275 111.275c-16.896-2.901-29.995 1.024-42.069 13.141l-259.755 259.84-261.76-261.803c-12.075-12.075-25.131-16.299-42.069-13.141l-45.995 8.149 308.352 308.224-308.309 308.181 45.995 8.149c16.939 2.944 29.995-1.024 42.069-13.099l261.675-261.803 259.755 259.584c12.075 12.331 25.131 16.299 42.069 13.355l45.995-8.149-306.261-306.219 306.261-306.261-45.952-8.149z" />
<glyph unicode="&#xe913;" glyph-name="information" d="M512-27.989c258.816 0 469.333 203.776 469.333 454.656s-210.517 454.656-469.333 454.656-469.333-203.776-469.333-454.656 210.517-454.656 469.333-454.656zM541.355 230.486c0-33.749-26.24-60.843-58.667-60.843v307.669c0 33.835 26.24 61.184 58.667 61.184v-308.011zM512 683.648c24.32 0 43.989-19.584 43.989-43.989 0-24.149-19.669-43.989-43.989-43.989-24.277 0-43.989 19.84-43.989 43.989 0 24.405 19.712 43.989 43.989 43.989z" />
<glyph unicode="&#xe914;" glyph-name="warning" d="M969.344 166.656l-380.501 607.573c-25.728 40.533-80.981 53.632-123.392 29.013-12.331-7.125-22.784-17.067-30.208-29.013l-380.501-607.573c-24.832-41.131-10.069-93.696 32.853-117.419 13.355-7.339 28.501-11.392 43.904-11.563h761.045c49.579 0.597 89.344 39.424 88.789 86.827-0.128 14.805-4.267 29.312-11.989 42.155zM482.688 594.987c0 33.664 26.283 60.971 58.667 60.971v-307.883c0-33.835-26.283-61.099-58.667-61.099v308.011zM512 141.696c-24.32 0-43.989 19.712-43.989 43.989s19.669 44.032 43.989 44.032c24.277 0 43.989-19.712 43.989-43.989s-19.669-44.032-43.989-44.032z" />
<glyph unicode="&#xe915;" glyph-name="question" d="M512 881.323c-258.773 0-469.333-203.904-469.333-454.656s210.56-454.656 469.333-454.656 469.333 203.904 469.333 454.656-210.56 454.656-469.333 454.656zM512 169.558c-24.363 0-43.989 19.712-43.989 43.989s19.627 43.989 43.989 43.989c24.277 0 43.989-19.712 43.989-43.989s-19.712-43.989-43.989-43.989zM621.739 450.262c-6.869-6.272-26.112-17.493-57.131-33.237-13.355-11.136-21.461-20.309-23.509-32.555 0.043-2.475 0.213-26.24 0.384-46.208 0.085-16.512 0.085-30.635 0-32.128 0-0.299-0.213-0.512-0.213-0.811l-39.040 27.349c-11.733 8.235-17.92 18.347-19.541 31.147-0.085 25.984 0.085 27.563 0.64 30.507 6.144 37.077 33.024 61.227 51.883 73.557 11.349 7.381 42.581 22.357 47.488 26.155 11.947 11.008 17.664 24.235 17.28 40.96-1.28 52.352-33.323 82.347-87.979 82.347-13.739 0-39.723-1.835-59.733-14.251-18.987-11.861-28.245-31.147-28.203-59.093l-0.043-56.875c0-0.597-0.299-1.024-0.299-1.536l-38.827 27.136c-11.733 8.192-17.877 18.347-19.499 31.104v0.171c-0.043 61.312 30.379 93.056 55.936 108.928 30.763 19.072 66.304 23.083 90.667 23.083 85.675 0 144.597-56.064 146.645-139.605 0.725-33.493-12.032-63.275-36.907-86.144z" />
<glyph unicode="&#xe916;" glyph-name="add" d="M512 922.667c-282.304 0-512-222.464-512-496s229.696-496 512-496c282.304 0 512 222.464 512 496s-229.696 496-512 496zM545.344 393.323v-225.408c-0.064-19.52-7.168-33.216-23.168-44.48l-43.584-30.528v300.416h-225.344c-19.52 0-33.216 7.168-44.48 23.232l-30.528 43.52h300.352v225.344c0.064 19.584 7.168 33.216 23.232 44.544l43.584 30.464v-300.352h225.408c19.52-0.064 33.216-7.168 44.48-23.232l30.464-43.52h-300.416z" />
<glyph unicode="&#xe917;" glyph-name="remove" d="M512 925.867c-281.6 0-512-224-512-499.2s230.4-499.2 512-499.2 512 224 512 499.2-230.4 499.2-512 499.2zM486.4 394.667h-230.4c-19.2 0-32 6.4-44.8 25.6l-32 38.4h588.8c19.2 0 32-6.4 44.8-25.6l32-44.8h-358.4z" />
<glyph unicode="&#xe918;" glyph-name="checkbox" d="M805.035 778.326h-586.069c-32.384 0-58.624-26.197-58.624-58.624v-586.069c0-32.427 26.24-58.624 58.624-58.624h586.069c32.384 0 58.624 26.197 58.624 58.624v586.069c0 32.427-26.24 58.624-58.624 58.624zM805.035 133.632h-586.069v586.069h586.069v-586.069z" />
<glyph unicode="&#xe919;" glyph-name="checkbox_select" d="M834.816 520.491c-16.256 0-29.355-13.184-29.355-29.397 0-1.579 0-357.504 0-357.504h-586.112v586.155h586.155v-69.419l-316.971-316.245-130.347 133.077c-11.563 10.496-23.893 14.763-39.851 11.904l-45.781-8.149c0.043-0.085 0.043-0.085 0.043-0.085l215.339-220.075 493.397 493.013-45.355 7.936c-16.896 3.072-29.909-0.981-41.984-13.184l-29.781-29.739v10.965c0 32.427-26.325 58.581-58.667 58.581h-586.197c-32.384 0-58.624-26.155-58.624-58.581v-586.155c0-32.427 26.24-58.581 58.624-58.581h586.155c32.341 0 58.667 26.155 58.667 58.581 0 0 0 355.499 0 357.504 0 16.256-13.184 29.397-29.355 29.397z" />
<glyph unicode="&#xe91a;" glyph-name="checkbox_invert" d="M805.035 778.326h-586.069c-32.384 0-58.624-26.197-58.624-58.624v-586.069c0-32.427 26.24-58.624 58.624-58.624h586.069c32.384 0 58.624 26.197 58.624 58.624v586.069c0 32.427-26.24 58.624-58.624 58.624zM805.035 133.632h-586.069v586.069h586.069v-586.069zM345.856 260.48c-0.171 1.237 0 302.421 0 302.421 0 16.512 13.355 29.824 29.867 29.824 0 0 301.184 0.171 302.464 0l-27.435-39.851c-8.363-11.989-18.688-18.261-31.829-19.84l-213.333-0.085v-213.333c-1.621-13.099-7.936-23.424-19.925-31.829l-39.808-27.307z" />
<glyph unicode="&#xe91b;" glyph-name="option" d="M512 778.326c-193.92 0-351.659-157.739-351.659-351.659s157.739-351.659 351.659-351.659 351.659 157.739 351.659 351.659-157.739 351.659-351.659 351.659zM512 133.632c-161.877 0-293.035 131.157-293.035 293.035s131.157 293.035 293.035 293.035 293.035-131.157 293.035-293.035-131.157-293.035-293.035-293.035z" />
<glyph unicode="&#xe91c;" glyph-name="option_select" d="M864.085 426.667c0-193.92-157.739-351.659-351.659-351.659-193.877 0-351.659 157.739-351.659 351.659s157.739 351.659 351.659 351.659c114.688 0 216.064-55.637 280.235-140.885l101.291 101.035c12.16 12.117 25.088 16.256 42.027 13.141l45.355-7.851-493.355-492.928-215.296 220.032c0 0-0.043 0-0.043 0.085l45.781 8.021c15.957 2.859 28.245-1.237 39.808-11.733l130.304-133.163 262.187 261.589c-53.035 74.752-139.563 124.075-238.251 124.075-161.877 0-293.035-131.157-293.035-293.035s131.157-293.035 293.035-293.035c161.877 0 293.077 131.157 293.077 293.035 0 18.091-4.693 52.779-4.693 52.779 0 16.213 13.099 29.269 29.312 29.269s29.312-13.056 29.312-29.269c-0.043-0.043 4.608-34.816 4.608-52.821z" />
<glyph unicode="&#xe91d;" glyph-name="on_off" d="M512-36.437c-258.773 0-469.333 210.603-469.333 469.376 0 169.515 90.112 323.541 236.715 407.253v-46.208c0-13.995-3.627-24.96-11.435-34.517-102.144-74.667-164.651-197.632-164.651-326.571 0-225.365 183.339-408.704 408.704-408.704s408.704 183.339 408.704 408.704c0 129.28-59.776 248.277-164.011 326.571-6.997 8.192-11.136 19.712-11.136 34.517v45.696c146.005-83.755 235.776-237.653 235.776-406.784 0-258.773-210.56-469.333-469.333-469.333zM481.707 824.406c0 15.915 5.632 26.88 18.133 35.669l42.453 29.696v-398.080c-0.085-15.915-5.717-26.965-18.219-35.669l-42.368-29.696v398.080z" />
<glyph unicode="&#xe91e;" glyph-name="download" d="M867.2 173.611c-9.216 0-18.304 4.48-23.979 12.544-9.429 13.141-6.229 31.445 7.040 40.747 77.013 54.187 95.616 161.152 41.387 238.208-31.872 45.568-84.053 72.533-139.477 72.533-0.043 0-0.043 0-0.085 0h-50.347c-13.355 0-25.131 9.088-28.416 22.059-19.285 75.605-66.816 138.923-133.76 178.475-66.603 39.467-144.768 50.56-219.904 31.232-155.136-39.979-249.003-198.912-209.152-354.475 11.349-44.245 33.408-86.101 63.787-120.448 10.795-12.288 9.6-30.805-2.645-41.643-12.075-10.539-30.592-9.429-41.387 2.645-36.608 41.685-63.061 91.648-76.629 144.896-47.787 186.837 64.939 377.984 251.349 425.856 90.283 23.083 184.149 9.899 264.405-37.632 73.813-43.733 127.957-111.445 154.325-192.256h28.331c0.043 0 0.085 0 0.085 0 74.624 0 144.725-36.523 187.52-97.493 72.747-103.552 47.744-247.125-55.595-319.872-5.077-3.627-11.008-5.376-16.853-5.376zM706.389 250.667h-47.744c-17.237 0-24.448-3.328-34.432-17.28l-82.901-118.357v223.659c0 16.299-13.184 29.355-29.355 29.355-16.128 0-29.355-13.056-29.355-29.355v-223.701l-82.901 118.4c-9.984 13.952-17.28 17.28-34.389 17.28h-47.659l122.112-176.853h0.171l26.837-38.485c3.029-4.011 6.357-6.528 9.813-9.173 6.4-4.864 13.355-8.363 22.016-9.429l13.44-0.768 13.568 0.768c7.808 0.939 14.293 3.797 20.309 7.808l-0.043 0.043c3.883 3.243 7.936 6.059 11.477 10.88l149.035 215.211z" />
<glyph unicode="&#xe91f;" glyph-name="upload" d="M867.2 173.611c-9.216 0-18.304 4.437-24.021 12.459-9.344 13.227-6.144 31.531 7.125 40.875 77.013 54.187 95.573 161.067 41.429 238.165-31.915 45.44-84.053 72.576-139.52 72.576-0.043 0-0.085 0-0.128 0h-50.347c-13.397 0-25.088 9.045-28.416 22.059-19.285 75.477-66.773 138.795-133.717 178.389-66.645 39.467-144.768 50.603-219.904 31.232-155.221-39.851-249.045-198.912-209.195-354.347 11.307-44.373 33.365-86.101 63.829-120.619 10.752-12.075 9.557-30.677-2.603-41.429-12.075-10.709-30.677-9.515-41.387 2.603-36.565 41.472-63.104 91.648-76.629 144.939-47.915 186.752 64.853 377.771 251.349 425.685 90.24 23.168 184.107 9.856 264.363-37.632 73.813-43.648 127.957-111.317 154.24-192.171h28.331c0.043 0 0.128 0 0.128 0 74.581 0 144.683-36.48 187.563-97.621 72.704-103.509 47.744-246.997-55.637-319.872-5.163-3.584-11.051-5.291-16.853-5.291zM317.611 133.334h47.787c17.195 0 24.533 3.2 34.432 17.237l82.901 118.4v-223.659c0-16.213 13.099-29.355 29.355-29.355 16.171 0 29.355 13.141 29.355 29.355v223.701l82.944-118.443c9.941-14.037 17.195-17.237 34.389-17.237h47.701l-122.155 176.811h-0.085l-26.965 38.485c-2.987 4.139-6.357 6.571-9.728 9.173-6.4 4.992-13.397 8.405-22.016 9.557l-13.525 0.64-13.483-0.683c-7.808-0.981-14.336-3.883-20.352-8.021l0.043-0.043c-3.968-3.072-7.979-5.931-11.477-10.837l-149.12-215.083z" />
<glyph unicode="&#xe920;" glyph-name="cloud_off" d="M932.053 72.448h1.664l-16.939 16.128-829.568 782.080-8.277-44.245c-2.475-13.483 1.323-23.424 9.387-32.939l19.755-20.693 78.037-73.557c-111.915-77.568-169.003-214.229-132.437-348.544 10.965-40.661 30.592-78.72 56.789-112.683 0 0-0.427-0.043-0.384-0.128 56.192-75.563 188.928-139.307 302.848-139.307h336.384c18.816 0 39.979 4.011 61.952 11.179l126.208-119.083 8.32 44.245c2.56 13.483-1.365 23.424-9.301 32.939l-4.437 4.608zM762.581 155.606c-4.523-0.341-8.661-1.792-13.269-1.792h-336.213c-92.373-0.085-189.227 42.709-244.48 103.723-27.307 31.147-47.488 67.755-58.027 106.837-31.232 114.859 20.565 230.613 118.955 293.803l533.035-502.571zM323.2 730.71c0 11.776 7.68 21.888 18.645 26.197l12.928 3.84c78.848 10.965 145.664-4.949 215.168-43.947 73.941-41.216 128.128-104.917 154.411-181.419h28.373c0 0 0.213 0 0.213 0 74.539 0 144.683-34.261 187.691-91.947 59.221-79.616 49.749-179.669-2.347-249.984l-6.571-5.376c-5.291-4.651-12.203-7.637-20.011-7.637-15.957 0-28.8 12.075-28.8 27.307 0 8.192 4.096 15.104 10.155 20.224 39.211 54.016 41.643 127.019-0.555 183.637-31.872 42.923-84.096 68.523-139.563 68.523-0.128 0-0.171 0-0.213 0h-50.389c-13.397 0-25.045 8.491-28.459 20.907-19.328 70.997-66.901 130.987-133.845 168.107-55.040 30.891-117.845 41.344-180.309 34.603-2.176-0.64-4.181-1.451-6.443-1.451-1.109 0-2.005 0.597-2.987 0.64-0.939-0.085-1.792-0.043-2.688-0.128l-0.939 0.896c-13.355 2.859-23.467 13.611-23.467 27.008z" />
<glyph unicode="&#xe921;" glyph-name="in" d="M950.059 113.792c0-86.272-70.187-156.459-156.459-156.459h-563.2c-86.229 0-156.459 70.187-156.459 156.459 0 0-0.555 473.813 0 476.075l40.875-27.648c14.976-10.496 21.717-23.339 21.717-41.685v-406.741c0-51.797 42.112-93.867 93.867-93.867h563.2c51.755 0 93.867 42.069 93.867 93.867v406.741c0 18.347 6.741 31.147 21.717 41.685l40.875 27.648c0.512-2.261 0-476.075 0-476.075zM719.403 770.731h-50.944c-18.389 0-26.155-3.413-36.736-18.389l-88.448-126.336v238.635c0 17.28-13.995 31.275-31.275 31.275s-31.275-13.995-31.275-31.275v-238.635l-88.491 126.379c-10.624 14.976-18.347 18.389-36.651 18.389h-50.901l130.432-188.587 28.757-41.045c3.2-4.437 6.784-7.040 10.368-9.771 6.827-5.333 14.293-9.003 23.467-10.112l14.379-0.768 14.379 0.768c8.363 1.024 15.317 4.096 21.717 8.448l-0.043 0.085c4.224 3.285 8.491 6.272 12.203 11.563l159.061 229.376z" />
<glyph unicode="&#xe922;" glyph-name="out" d="M950.059 113.792c0-86.272-70.187-156.459-156.459-156.459h-563.2c-86.229 0-156.459 70.187-156.459 156.459 0 0-0.555 473.813 0 476.075l40.875-27.648c14.976-10.496 21.717-23.339 21.717-41.685v-406.741c0-51.797 42.112-93.867 93.867-93.867h563.2c51.755 0 93.867 42.069 93.867 93.867v406.741c0 18.347 6.741 31.147 21.717 41.685l40.875 27.648c0.512-2.261 0-476.075 0-476.075zM304.64 645.718h50.944c18.389 0 26.155 3.413 36.736 18.389l88.448 126.336v-238.592c0-17.323 13.952-31.317 31.232-31.317s31.275 13.995 31.275 31.275v238.635l88.491-126.379c10.624-14.976 18.347-18.389 36.651-18.389h50.859l-130.432 188.587-28.757 41.045c-3.2 4.437-6.784 7.040-10.368 9.771-6.827 5.333-14.293 9.003-23.467 10.112l-14.251 0.811-14.379-0.768c-8.363-1.024-15.317-4.096-21.717-8.448l0.043-0.085c-4.224-3.285-8.491-6.272-12.203-11.563l-159.104-229.419z" />
<glyph unicode="&#xe923;" glyph-name="user_insert" d="M512 896c-129.408 0-234.667-105.259-234.667-234.624 0-129.408 105.259-234.709 234.667-234.709s234.667 105.301 234.667 234.709c0 129.365-105.259 234.624-234.667 234.624zM512 485.334c-97.195 0-176 78.805-176 176.043 0 97.152 78.805 175.957 176 175.957 97.152 0 176-78.805 176-175.957 0-97.237-78.848-176.043-176-176.043zM698.959 251.927l-362.959-1.26c-80.896-0.282-146.688-68.736-146.688-153.344v-78.123c-1.067-14.848-6.656-26.112-19.499-35.029l-39.168-26.837v139.989c0 116.907 92.117 212.011 205.312 212.011l363.002 0.025zM811.347 132.674v-147.173c0-7.431-2.723-12.618-8.755-16.885l-36.176-11.514v175.572h-161.418c-7.431 0-12.618 2.723-16.885 8.774l-13.261 35.988h192.428l-0.864 155.9c-0.041 7.431 2.471 12.618 14.552 15.175l30.379 13.242 0.864-184.318h138.893c7.431-0.018 14.346-7.486 18.632-13.537l11.496-31.224z" />
<glyph unicode="&#xe924;" glyph-name="user" d="M512 896c-129.408 0-234.667-105.259-234.667-234.624 0-129.408 105.259-234.709 234.667-234.709s234.667 105.301 234.667 234.709c0 129.365-105.259 234.624-234.667 234.624zM512 485.334c-97.195 0-176 78.805-176 176.043 0 97.152 78.805 175.957 176 175.957 97.152 0 176-78.805 176-175.957 0-97.237-78.848-176.043-176-176.043zM834.688 23.211v74.112c0 84.565-65.792 153.344-146.688 153.344h-352c-80.896 0-146.688-68.736-146.688-153.344v-78.123c-1.067-14.848-6.656-26.112-19.499-35.029l-39.168-26.837v139.989c0 116.907 92.117 212.011 205.312 212.011h352c113.195 0 205.312-95.104 205.312-212.011v-139.989l-38.272 26.837c-13.995 9.813-20.309 21.888-20.309 39.040z" />
<glyph unicode="&#xe925;" glyph-name="users" d="M805.333 97.323v-139.989l-38.272 26.837c-14.080 9.813-20.395 21.888-20.395 39.040v74.112c0 84.565-65.792 153.344-146.688 153.344h-352c-80.896 0-146.688-68.736-146.688-153.344v-78.123c-1.067-14.848-6.656-26.112-19.499-35.029l-39.125-26.837v139.989c0 116.907 92.117 212.011 205.312 212.011h352c113.237 0 205.355-95.104 205.355-212.011zM189.355 661.376c0 129.365 105.259 234.624 234.667 234.624s234.667-105.259 234.667-234.624c0-129.408-105.259-234.709-234.667-234.709s-234.667 105.301-234.667 234.709zM247.979 661.376c0-97.237 78.805-176.043 176-176.043 97.152 0 176 78.805 176 176.043 0 97.152-78.848 175.957-176 175.957s-176-78.805-176-175.957zM879.104 279.339c-16.981 9.515-29.909 16.384-38.613 18.091l4.096-47.317c1.109-12.928 6.4-22.315 14.976-29.824 35.499-27.989 63.104-72.064 63.104-122.923v-80.896c1.664-13.312 6.955-23.979 18.859-32.299l39.808-26.837v139.989c0 86.699-42.411 148.48-102.229 182.016zM674.688 882.134c-2.645 1.067-5.248 2.347-7.936 3.328l4.907-44.416c1.536-13.781 7.339-23.765 17.195-31.189 50.176-32.256 87.125-84.352 87.125-148.437 0-65.237-36.096-121.045-88.917-151.040-8.149-6.912-13.781-15.403-15.659-27.605l-6.827-45.184c0.555 0.171 1.152 0.256 1.749 0.384l0.043-0.085c0.085 0.085 0.213 0.128 0.299 0.128 2.475 0.64 4.736 1.408 6.869 2.645 93.184 30.891 161.109 117.291 161.109 220.8 0 102.997-63.232 180.437-159.957 220.672z" />
<glyph unicode="&#xe926;" glyph-name="user_tie" d="M893.355 97.408v-140.075l-38.315 26.752c-13.995 9.899-20.309 21.931-20.309 39.168v74.155c0 84.48-65.835 153.259-146.688 153.259h-117.333v-227.413c-0.085-17.237-5.504-28.587-19.627-38.485l-39.083-27.435-39.040 27.435c-14.123 9.899-19.541 21.248-19.627 38.485v227.413h-117.333c-80.811 0-146.688-68.736-146.688-153.259v-78.080c-1.024-15.061-6.741-26.24-19.413-35.243l-39.253-26.752v140.075c0 116.736 92.117 211.925 205.312 211.925h352c113.237 0 205.397-95.147 205.397-211.925zM277.333 661.376c0 129.323 105.301 234.624 234.667 234.624s234.667-105.301 234.667-234.624c0-129.365-105.301-234.709-234.667-234.709s-234.667 105.344-234.667 234.709zM336 661.376c0-97.237 78.805-176.043 176-176.043 97.152 0 176 78.805 176 176.043 0 97.152-78.848 175.957-176 175.957-97.195 0-176-78.805-176-175.957z" />
<glyph unicode="&#xe927;" glyph-name="user_hat" d="M277.333 661.376c0-129.408 105.259-234.709 234.667-234.709s234.667 105.301 234.667 234.709c0 20.395-2.987 39.979-8.064 58.624h80.427l-27.392 39.083c-9.856 14.080-21.333 19.456-38.485 19.584h-35.797v58.667c0 32.427-26.283 58.667-58.667 58.667h-293.376c-32.384 0-58.624-26.24-58.624-58.667v-58.667h-35.84c-17.195-0.128-28.629-5.504-38.485-19.584l-27.392-39.083h80.427c-5.077-18.645-8.064-38.229-8.064-58.624zM365.312 837.334h293.333v-58.667h-293.333v58.667zM346.752 720h330.496c6.699-18.347 10.752-37.931 10.752-58.624 0-97.237-78.848-176.043-176-176.043-97.195 0-176 78.805-176 176.043 0 20.693 4.053 40.277 10.752 58.624zM893.355 97.323v-139.989l-38.272 26.837c-14.080 9.813-20.395 21.888-20.395 39.040v74.112c0 84.565-65.792 153.344-146.688 153.344h-117.333v-227.456c-0.128-17.152-5.504-28.629-19.584-38.485l-39.083-27.392-39.083 27.392c-14.080 9.856-19.456 21.333-19.584 38.485v227.456h-117.333c-80.896 0-146.688-68.736-146.688-153.344v-78.123c-1.067-14.848-6.656-26.112-19.499-35.029l-39.168-26.837v139.989c0 116.907 92.117 212.011 205.312 212.011h352c113.237 0 205.397-95.104 205.397-212.011z" />
<glyph unicode="&#xe928;" glyph-name="user_id" d="M896 763.99h-768c-47.019 0-85.333-37.888-85.333-84.352v-505.984c0-46.464 38.315-84.352 85.333-84.352h768c47.019 0 85.333 37.888 85.333 84.352v506.027c0 46.464-38.315 84.309-85.333 84.309zM922.667 173.654c0-13.867-12.288-25.685-26.667-25.685h-768c-14.379 0-26.667 11.776-26.667 25.685v506.027c0 13.867 12.288 25.685 26.667 25.685h768c14.379 0 26.667-11.776 26.667-25.685v-506.027zM338.859 646.656c-56.533 0-102.656-45.995-102.656-102.656s46.123-102.656 102.656-102.656c56.661 0 102.656 45.995 102.656 102.656s-45.952 102.656-102.656 102.656zM338.859 500.011c-24.277 0-43.989 19.84-43.989 43.989s19.712 43.989 43.989 43.989 44.032-19.84 44.032-43.989-19.712-43.989-44.032-43.989zM512 271.104v-64.427l-38.315 26.752c-11.691 8.235-17.024 18.901-18.688 31.915h-1.664c0 32.341-26.24 58.667-58.667 58.667h-117.333c-32.427 0-58.667-26.325-58.667-58.667h-0.896c-1.749-13.056-6.869-23.723-18.56-31.915l-39.253-26.752 0.555 64.427c3.157 62.037 54.059 111.573 116.779 111.573h117.333c62.72 0 113.621-49.536 116.779-111.573h0.597zM570.667 250.667h227.413c17.237-0.085 28.715-5.504 38.485-19.499l27.435-39.168h-227.413c-17.237 0.043-28.715 5.461-38.485 19.456l-27.435 39.211zM570.667 529.323h227.413c17.237-0.085 28.715-5.504 38.485-19.499l27.435-39.168h-227.413c-17.237 0.043-28.715 5.461-38.485 19.456l-27.435 39.211zM570.667 646.656h227.413c17.237-0.085 28.715-5.504 38.485-19.499l27.435-39.168h-227.413c-17.237 0.043-28.715 5.461-38.485 19.456l-27.435 39.211z" />
<glyph unicode="&#xe929;" glyph-name="arrow-first-circle" d="M981.333 426.667c0 250.667-210.56 454.656-469.333 454.656s-469.333-203.989-469.333-454.656 210.56-454.656 469.333-454.656 469.333 203.989 469.333 454.656zM101.333 426.667c0 218.411 184.235 395.989 410.667 395.989s410.667-177.579 410.667-395.989-184.235-395.989-410.667-395.989-410.667 177.579-410.667 395.989zM355.541 381.355c-4.907 3.456-7.765 7.509-10.837 11.477l-0.043-0.085c-4.139 6.059-6.997 12.544-8.021 20.352l-0.683 13.525 0.683 13.44c1.109 8.576 4.523 15.616 9.557 22.016 2.603 3.371 5.035 6.741 9.173 9.771l349.141 246.315v-47.744c0-17.067-6.272-28.16-20.352-38.101l-291.072-205.653 291.072-205.611c14.037-9.899 20.352-20.907 20.352-38.101v-47.787l-348.971 246.187zM218.667 260.566v266.453c0.043 17.152 5.504 28.629 19.584 38.485l39.083 27.349v-266.368c-0.043-17.152-5.461-28.629-19.541-38.485l-39.125-27.435z" />
<glyph unicode="&#xe92a;" glyph-name="arrow-previous-circle" d="M512 881.323c-258.816 0-469.333-204.117-469.333-454.656s210.517-454.656 469.333-454.656 469.333 204.117 469.333 454.656-210.517 454.656-469.333 454.656zM512 30.678c-226.432 0-410.667 177.664-410.667 395.989s184.235 395.989 410.667 395.989c226.475 0 410.667-177.664 410.667-395.989s-184.235-395.989-410.667-395.989zM317.995 381.44c-4.949 3.285-7.765 7.467-10.88 11.349l-0.043-0.043c-4.139 6.144-6.955 12.629-7.936 20.309l-0.768 13.568 0.768 13.525c1.024 8.491 4.437 15.616 9.429 22.016 2.645 3.2 5.035 6.656 9.173 9.6l38.485 27.093v0.085l310.656 219.264v-47.701c0-17.195-6.315-28.245-20.309-38.229l-291.157-205.611 291.2-205.525c13.952-9.941 20.309-20.949 20.309-38.229v-47.744l-348.928 246.272z" />
<glyph unicode="&#xe92b;" glyph-name="arrow-next-circle" d="M512-27.989c258.816 0 469.333 204.117 469.333 454.656s-210.517 454.656-469.333 454.656-469.333-204.117-469.333-454.656 210.517-454.656 469.333-454.656zM512 822.656c226.432 0 410.667-177.664 410.667-395.989s-184.235-395.989-410.667-395.989c-226.475 0-410.667 177.664-410.667 395.989s184.235 395.989 410.667 395.989zM706.005 471.894c4.949-3.285 7.765-7.467 10.88-11.349l0.043 0.043c4.139-6.144 6.955-12.629 7.936-20.309l0.768-13.568-0.768-13.525c-1.024-8.491-4.437-15.616-9.429-22.016-2.645-3.2-5.035-6.656-9.173-9.6l-38.485-27.093v-0.085l-310.656-219.264v47.701c0 17.195 6.315 28.245 20.309 38.229l291.157 205.611-291.2 205.525c-13.952 9.984-20.309 20.992-20.309 38.229v47.744l348.928-246.272z" />
<glyph unicode="&#xe92c;" glyph-name="arrow-last-circle" d="M42.667 426.667c0-250.667 210.56-454.656 469.333-454.656s469.333 203.989 469.333 454.656-210.56 454.656-469.333 454.656-469.333-203.989-469.333-454.656zM922.667 426.667c0-218.411-184.235-395.989-410.667-395.989s-410.667 177.579-410.667 395.989 184.235 395.989 410.667 395.989 410.667-177.579 410.667-395.989zM668.459 471.979c4.907-3.456 7.765-7.509 10.837-11.477l0.043 0.085c4.139-6.059 6.997-12.544 8.021-20.352l0.683-13.525-0.683-13.44c-1.109-8.576-4.523-15.616-9.557-22.016-2.603-3.371-5.035-6.741-9.173-9.771l-349.141-246.315v47.744c0 17.067 6.272 28.16 20.352 38.101l291.072 205.653-291.072 205.611c-14.037 9.941-20.352 20.949-20.352 38.101v47.787l348.971-246.187zM805.333 592.768v-266.411c-0.043-17.152-5.504-28.629-19.584-38.485l-39.083-27.392v266.411c0.043 17.152 5.461 28.629 19.541 38.485l39.125 27.392z" />
<glyph unicode="&#xe92d;" glyph-name="arrow-up-circle" d="M512-27.989c258.816 0 469.333 204.117 469.333 454.656s-210.517 454.656-469.333 454.656-469.333-204.117-469.333-454.656 210.517-454.656 469.333-454.656zM512 822.656c226.432 0 410.667-177.664 410.667-395.989s-184.235-395.989-410.667-395.989c-226.475 0-410.667 177.664-410.667 395.989s184.235 395.989 410.667 395.989zM466.773 591.318c3.285 4.949 7.467 7.765 11.349 10.88l-0.043 0.043c6.144 4.139 12.629 6.955 20.309 7.936l13.568 0.768 13.525-0.768c8.491-1.024 15.616-4.437 22.016-9.429 3.2-2.645 6.656-5.035 9.6-9.173l27.093-38.485h0.085l219.264-310.656h-47.701c-17.195 0-28.245 6.315-38.229 20.309l-205.611 291.157-205.525-291.2c-9.941-13.952-20.949-20.309-38.229-20.309h-47.744l246.272 348.928z" />
<glyph unicode="&#xe92e;" glyph-name="arrow-top-circle" d="M512-27.989c258.773 0 469.333 203.989 469.333 454.656s-210.56 454.656-469.333 454.656-469.333-203.989-469.333-454.656 210.56-454.656 469.333-454.656zM512 822.656c226.432 0 410.667-177.579 410.667-395.989s-184.235-395.989-410.667-395.989-410.667 177.579-410.667 395.989 184.235 395.989 410.667 395.989zM466.688 583.126c3.499 4.907 7.509 7.765 11.477 10.837l-0.043 0.043c6.016 4.139 12.544 6.997 20.352 8.021l13.525 0.683 13.483-0.683c8.576-1.109 15.616-4.523 22.016-9.557 3.371-2.603 6.741-5.035 9.728-9.173l246.357-349.141h-47.744c-17.109 0-28.203 6.272-38.101 20.352l-205.739 291.072-205.611-291.072c-9.899-14.037-20.907-20.352-38.101-20.352h-47.787l246.187 348.971zM345.899 720h266.411c17.195-0.043 28.629-5.504 38.485-19.584l27.349-39.083h-266.368c-17.152 0.043-28.629 5.461-38.485 19.541l-27.392 39.125z" />
<glyph unicode="&#xe92f;" glyph-name="arrow-down-circle" d="M512-27.989c258.816 0 469.333 204.117 469.333 454.656s-210.517 454.656-469.333 454.656-469.333-204.117-469.333-454.656 210.517-454.656 469.333-454.656zM512 822.656c226.432 0 410.667-177.664 410.667-395.989s-184.235-395.989-410.667-395.989c-226.475 0-410.667 177.664-410.667 395.989s184.235 395.989 410.667 395.989zM557.227 262.016c-3.285-4.949-7.467-7.765-11.349-10.88l0.043-0.043c-6.144-4.139-12.629-6.955-20.309-7.936l-13.568-0.768-13.525 0.768c-8.491 1.024-15.616 4.437-22.016 9.429-3.2 2.645-6.656 5.035-9.6 9.173l-27.093 38.485h-0.085l-219.221 310.656h47.701c17.195 0 28.245-6.315 38.229-20.309l205.568-291.157 205.525 291.2c9.941 13.952 20.949 20.309 38.229 20.309h47.744l-246.272-348.928z" />
<glyph unicode="&#xe930;" glyph-name="arrow-bottom-circle" d="M512 881.323c-258.773 0-469.333-203.989-469.333-454.656s210.56-454.656 469.333-454.656 469.333 203.989 469.333 454.656-210.56 454.656-469.333 454.656zM512 30.678c-226.432 0-410.667 177.579-410.667 395.989s184.235 395.989 410.667 395.989 410.667-177.579 410.667-395.989-184.235-395.989-410.667-395.989zM557.312 270.208c-3.499-4.907-7.509-7.765-11.477-10.837l0.043-0.043c-6.016-4.139-12.544-6.997-20.352-8.021l-13.525-0.683-13.483 0.683c-8.576 1.109-15.616 4.523-22.016 9.557-3.371 2.603-6.741 5.035-9.728 9.173l-246.272 349.141h47.744c17.109 0 28.203-6.272 38.101-20.352l205.653-291.072 205.611 291.072c9.899 14.037 20.907 20.352 38.101 20.352h47.787l-246.187-348.971zM678.101 133.334h-266.411c-17.195 0.043-28.629 5.504-38.485 19.584l-27.349 39.083h266.368c17.195-0.043 28.629-5.461 38.485-19.541l27.392-39.125z" />
<glyph unicode="&#xe931;" glyph-name="arrow-left-right" d="M981.333 368l-0.768-13.184c-1.024-8.747-4.437-15.915-9.429-22.016-2.645-3.499-5.035-6.912-9.173-9.813l-449.963-317.995v47.744c0 17.152 6.315 28.245 20.309 38.187l308.864 218.411h-732.587c-17.237 0.043-28.715 5.461-38.485 19.456l-27.435 39.211h938.667zM981.333 485.334l-27.435 39.211c-9.771 13.995-21.248 19.413-38.485 19.456h-732.587l308.864 218.411c13.995 9.941 20.309 20.992 20.309 38.187v47.744l-450.005-317.995c-4.139-2.944-6.528-6.357-9.173-9.856-4.992-6.101-8.363-13.269-9.429-22.016l-0.725-13.141h938.667z" />
<glyph unicode="&#xe932;" glyph-name="arrow-first" d="M309.248 381.44c-4.949 3.285-7.765 7.467-10.88 11.349l-0.043-0.043c-4.139 6.144-6.955 12.629-7.936 20.309l-0.768 13.568 0.768 13.525c1.024 8.491 4.437 15.616 9.429 22.016 2.645 3.2 5.035 6.656 9.173 9.6l38.485 27.093v0.085l561.835 397.056v-47.701c0-17.195-6.315-28.245-20.309-38.229l-542.336-383.403 542.379-383.36c13.952-9.941 20.309-20.949 20.309-38.229v-47.744l-600.107 424.107zM114.688 260.566v266.453c0.043 17.152 5.504 28.629 19.584 38.485l39.083 27.349v-266.368c-0.043-17.152-5.461-28.629-19.541-38.485l-39.125-27.435z" />
<glyph unicode="&#xe933;" glyph-name="arrow-previous" d="M821.845-42.666v47.744c0 17.237-6.315 28.245-20.309 38.229l-542.379 383.36 542.379 383.403c13.952 9.941 20.309 20.992 20.309 38.229v47.701l-600.32-424.277c-4.139-2.901-6.528-6.357-9.173-9.6-4.992-6.357-8.363-13.483-9.429-22.016l-0.768-13.525 0.768-13.568c0.939-7.68 3.797-14.165 7.936-20.309l0.043 0.043c3.115-3.883 5.931-8.021 10.88-11.349l600.064-424.064z" />
<glyph unicode="&#xe934;" glyph-name="arrow-next" d="M202.155 896v-47.744c0-17.237 6.315-28.245 20.309-38.229l542.379-383.36-542.379-383.403c-13.952-9.941-20.309-20.992-20.309-38.229v-47.701l600.32 424.277c4.139 2.901 6.528 6.357 9.173 9.6 4.992 6.357 8.363 13.483 9.429 22.016l0.768 13.525-0.768 13.568c-0.939 7.68-3.797 14.165-7.936 20.309l-0.043-0.043c-3.115 3.883-5.931 8.021-10.88 11.349l-600.064 424.064z" />
<glyph unicode="&#xe935;" glyph-name="arrow-last" d="M714.752 471.894c4.949-3.285 7.765-7.467 10.88-11.349l0.043 0.043c4.139-6.144 6.955-12.629 7.936-20.309l0.768-13.568-0.768-13.525c-1.024-8.491-4.437-15.616-9.429-22.016-2.645-3.2-5.035-6.656-9.173-9.6l-38.485-27.093v-0.085l-561.835-397.056v47.701c0 17.195 6.315 28.245 20.309 38.229l542.336 383.403-542.379 383.36c-13.952 9.984-20.267 20.992-20.267 38.229v47.744l600.064-424.107zM909.312 592.768v-266.411c-0.043-17.152-5.504-28.629-19.584-38.485l-39.083-27.349v266.368c0.043 17.152 5.461 28.629 19.541 38.485l39.125 27.392z" />
<glyph unicode="&#xe936;" glyph-name="arrow-top" d="M466.773 629.419c3.285 4.949 7.467 7.765 11.349 10.88l-0.043 0.043c6.144 4.139 12.629 6.955 20.309 7.936l13.568 0.768 13.525-0.768c8.491-1.024 15.616-4.437 22.016-9.429 3.2-2.645 6.656-5.035 9.6-9.173l27.093-38.485h0.085l397.056-561.835h-47.701c-17.195 0-28.245 6.315-38.229 20.309l-383.403 542.336-383.36-542.379c-9.941-13.952-20.949-20.309-38.229-20.309h-47.744l424.107 600.107zM345.899 823.979h266.411c17.152-0.043 28.629-5.504 38.485-19.584l27.349-39.083h-266.368c-17.152 0.043-28.629 5.461-38.485 19.584l-27.392 39.083z" />
<glyph unicode="&#xe937;" glyph-name="arrow-up" d="M42.667 116.822h47.744c17.237 0 28.245 6.315 38.229 20.309l383.36 542.379 383.403-542.379c9.941-13.952 20.992-20.309 38.229-20.309h47.701l-424.277 600.32c-2.901 4.139-6.357 6.528-9.6 9.173-6.357 4.992-13.483 8.363-22.016 9.429l-13.525 0.768-13.568-0.768c-7.68-0.939-14.165-3.797-20.309-7.936l0.043-0.043c-3.883-3.115-8.021-5.931-11.349-10.88l-424.064-600.064z" />
<glyph unicode="&#xe938;" glyph-name="arrow-down" d="M981.333 736.512h-47.744c-17.237 0-28.245-6.315-38.229-20.309l-383.36-542.379-383.403 542.379c-9.984 13.952-21.035 20.309-38.229 20.309h-47.701l424.277-600.32c2.901-4.139 6.357-6.528 9.6-9.173 6.357-4.992 13.483-8.363 22.016-9.429l13.525-0.768 13.568 0.768c7.68 0.939 14.165 3.797 20.309 7.936l-0.043 0.043c3.883 3.115 8.021 5.931 11.349 10.88l424.064 600.064z" />
<glyph unicode="&#xe939;" glyph-name="arrow-bottom" d="M557.227 223.915c-3.285-4.949-7.467-7.765-11.349-10.88l0.043-0.043c-6.144-4.139-12.629-6.955-20.309-7.936l-13.568-0.768-13.525 0.768c-8.491 1.024-15.616 4.437-22.016 9.429-3.2 2.645-6.656 5.035-9.6 9.173l-27.093 38.485h-0.085l-397.056 561.835h47.701c17.195 0 28.245-6.315 38.229-20.309l383.403-542.336 383.36 542.379c9.941 13.952 20.949 20.309 38.229 20.309h47.744l-424.107-600.107zM678.101 29.355h-266.453c-17.152 0.043-28.629 5.504-38.485 19.584l-27.349 39.083h266.368c17.152-0.043 28.629-5.461 38.485-19.541l27.435-39.125z" />
<glyph unicode="&#xe93a;" glyph-name="sort" d="M875.051 426.667l-290.773 411.52h-0.213l-26.837 38.485c-3.029 4.011-6.357 6.528-9.813 9.173-6.357 4.864-13.355 8.363-22.016 9.429l-13.397 0.725-13.568-0.768c-7.808-0.939-14.336-3.755-20.309-7.765l0.043-0.299c-3.883-2.987-7.936-5.803-11.477-10.624l-317.739-449.877 290.773-411.52h0.213l26.837-38.485c3.029-4.011 6.357-6.528 9.813-9.173 6.357-4.864 13.355-8.363 22.016-9.429l13.397-0.725 13.568 0.768c7.808 0.939 14.293 3.797 20.309 7.808l-0.043 0.299c3.883 2.987 7.936 5.803 11.477 10.624l317.739 449.835zM512 14.336l-277.248 392.021c-9.984 13.995-21.035 20.309-38.101 20.309h0.043c17.237 0 28.245 6.315 38.101 20.309l277.205 392.021 277.248-392.021c9.984-13.995 21.035-20.309 38.101-20.309h-0.043c-17.237 0-28.245-6.315-38.101-20.309l-277.205-392.021z" />
<glyph unicode="&#xe93b;" glyph-name="sort_asc" d="M196.693 426.667c17.195 0 28.203 6.315 38.101 20.309l277.205 392.021 277.248-392.021c9.899-13.995 20.949-20.309 38.101-20.309h47.701l-317.909 450.005c-2.987 4.139-6.357 6.528-9.728 9.173-6.357 4.992-13.44 8.363-22.016 9.429l-13.397 0.725-13.525-0.768c-7.808-0.939-14.379-3.755-20.352-7.893l0.043-0.043c-3.925-3.115-7.936-5.931-11.477-10.88l-317.739-449.749h47.744z" />
<glyph unicode="&#xe93c;" glyph-name="sort_des" d="M827.264 426.667c-17.195 0-28.203-6.315-38.101-20.309l-277.248-392.021-277.248 392.021c-9.856 13.995-20.907 20.309-38.059 20.309h-47.701l317.909-450.005c2.987-4.139 6.357-6.528 9.728-9.173 6.357-4.992 13.44-8.363 22.016-9.429l13.44-0.725 13.525 0.768c7.808 0.939 14.336 3.797 20.352 7.936l-0.043 0.043c3.925 3.115 7.936 5.931 11.477 10.88l317.696 449.707h-47.744z" />
<glyph unicode="&#xe93d;" glyph-name="arrow_positive" d="M196.651 421.632c17.195 0 28.203 6.315 38.101 20.309l247.296 349.696v-834.304l39.168 29.355c14.123 10.539 20.523 19.669 20.565 38.101v767.019l247.424-349.867c9.899-13.952 20.949-20.309 38.101-20.309h47.701l-317.909 450.005c-2.987 4.139-6.357 6.528-9.728 9.173-6.357 4.992-13.44 8.363-22.016 9.429l-13.483 0.768-13.525-0.768c-7.808-0.939-14.336-3.797-20.352-7.936l0.043-0.043c-3.925-3.115-7.936-5.931-11.477-10.88l-317.653-449.749h47.744z" />
<glyph unicode="&#xe93e;" glyph-name="arrow_negative" d="M827.264 426.667c-17.195 0-28.203-6.315-38.101-20.309l-247.296-349.696v834.304l-39.168-29.355c-14.123-10.539-20.523-19.669-20.565-38.101v-767.019l-247.424 349.867c-9.899 13.995-20.949 20.309-38.101 20.309h-47.701l317.909-450.005c2.987-4.139 6.357-6.528 9.728-9.173 6.357-4.992 13.44-8.363 22.016-9.429l13.44-0.725 13.525 0.768c7.808 0.939 14.336 3.797 20.352 7.936l-0.043 0.043c3.925 3.115 7.936 5.931 11.477 10.88l317.696 449.707h-47.744z" />
<glyph unicode="&#xe93f;" glyph-name="none" d="M70.059 416.896c9.856-14.080 21.333-19.499 38.485-19.541h872.789l-27.392 39.083c-9.856 14.080-21.333 19.456-38.485 19.584h-872.789l27.392-39.125z" />
<glyph unicode="&#xe940;" glyph-name="media_play" d="M856.832 498.518l-597.333 383.957c-14.037 9.003-30.080 13.525-46.165 13.525-14.037 0-28.117-3.456-40.875-10.411-27.435-14.976-44.459-43.733-44.459-74.923v-768c0-31.189 17.024-59.947 44.459-74.923 12.757-6.955 26.837-10.411 40.875-10.411 16.085 0 32.128 4.523 46.165 13.525l597.333 384.043c24.405 15.744 39.168 42.752 39.168 71.808s-14.763 56.064-39.168 71.808z" />
<glyph unicode="&#xe941;" glyph-name="media_stop" d="M128.043-42.666c-47.147 0-85.376 38.229-85.376 85.333v768c0 47.104 38.229 85.333 85.376 85.333h767.957c47.104 0 85.333-38.229 85.333-85.333v-768c0-47.104-38.229-85.333-85.333-85.333h-767.957z" />
<glyph unicode="&#xe942;" glyph-name="media_pause" d="M256.043-42.666c-47.147 0-85.376 38.229-85.376 85.333v768c0 47.104 38.229 85.333 85.376 85.333h85.291c47.104 0 85.333-38.229 85.333-85.333v-768c0-47.104-38.229-85.333-85.333-85.333h-85.291zM767.957-42.666c47.147 0 85.376 38.229 85.376 85.333v768c0 47.104-38.229 85.333-85.376 85.333h-85.248c-47.147 0-85.376-38.229-85.376-85.333v-768c0-47.104 38.229-85.333 85.376-85.333h85.248z" />
<glyph unicode="&#xe943;" glyph-name="sun" d="M512 611.67c-103.637 0-187.776-84.011-187.776-187.733s84.139-187.819 187.776-187.819c103.68 0 187.819 84.053 187.819 187.776s-84.139 187.776-187.819 187.776zM512 295.296c-70.997 0-128.725 57.771-128.725 128.64s57.728 128.555 128.725 128.555 128.768-57.728 128.768-128.597-57.771-128.597-128.768-128.597zM541.44 896v-190.976c0-17.28-6.229-29.355-20.395-39.339l-38.485-27.051v191.189c0.043 17.28 6.229 29.355 20.437 39.296l38.443 26.88zM862.592 732.843l-135.125-134.955c-12.16-12.373-25.259-16.427-42.24-13.483l-46.251 8.192 135.083 134.997c12.16 12.373 25.216 16.384 42.24 13.44l46.293-8.192zM978.475 394.454h-191.019c-17.323 0-29.355 6.229-39.339 20.352l-26.795 38.485h190.891c17.323 0 29.355-6.272 39.339-20.352l26.923-38.485zM815.872 68.054l-135.125 134.955c-12.117 12.117-16.213 25.387-13.312 42.155l8.192 46.464 135.125-135.211c12.117-12.16 16.213-25.131 13.312-42.283l-8.192-46.080zM541.44 214.699v-191.189c0-17.28-6.229-29.355-20.395-39.296l-38.485-26.88v190.976c0.043 17.28 6.229 29.355 20.437 39.339l38.443 27.051zM376.021 249.771l-134.955-134.997c-12.288-12.373-25.216-16.299-42.197-13.355l-46.293 8.192 134.955 135.211c12.288 12.117 25.216 16.085 42.24 13.141l46.251-8.192zM302.677 394.368h-190.891c-17.323 0.085-29.355 6.315-39.339 20.437l-26.923 38.485h191.019c17.323 0 29.355-6.272 39.339-20.352l26.795-38.571zM194.261 783.531l134.955-134.955c12.288-12.117 16.341-25.131 13.312-42.24l-8.235-46.464-134.955 135.211c-12.245 12.245-16.341 25.131-13.312 42.24l8.235 46.208z" />
<glyph unicode="&#xe944;" glyph-name="moon" d="M513.365-42.666c-14.507 0-29.099 0.683-43.776 2.005-258.176 23.893-448.768 253.355-424.917 511.488 20.779 225.451 199.509 404.224 424.917 424.96 1.835 0.171 3.627 0.213 5.419 0.213 21.035 0 40.619-11.307 51.072-29.824 11.349-20.181 9.813-45.099-3.925-63.659-85.632-115.968-61.056-279.979 54.827-365.696 45.312-33.451 99.072-51.157 155.392-51.157 56.363 0 110.123 17.707 155.435 51.157 10.283 7.637 22.528 11.563 34.859 11.563 9.899 0 19.84-2.56 28.8-7.595 20.181-11.349 31.787-33.451 29.611-56.491-22.485-243.413-223.573-426.965-467.712-426.965zM542.123 389.675c-142.123 105.088-172.203 305.408-67.157 447.659-197.333-18.176-353.664-174.592-371.883-371.883-20.907-226.389 145.579-426.795 371.883-447.701 226.389-20.864 426.752 145.536 447.701 371.925-113.067-83.584-267.477-83.584-380.544 0z" />
<glyph unicode="&#xe945;" glyph-name="earth" d="M512 896c-258.816 0-469.333-210.688-469.333-469.376s210.517-469.291 469.333-469.291 469.333 210.603 469.333 469.291-210.475 469.376-469.333 469.376zM921.216 456.278h-188.203c-8.363 135.083-55.851 263.979-137.045 371.243 176.896-36.693 311.936-187.008 325.248-371.243zM349.696 456.278c9.728 141.141 66.389 275.413 162.304 380.16 95.915-104.747 152.619-239.061 162.261-380.16h-324.565zM674.304 397.014c-9.685-141.141-66.347-275.413-162.261-380.117-95.957 104.704-152.619 239.019-162.304 380.117h324.565zM428.117 827.563c-80.811-106.667-128.213-235.136-137.003-371.285h-188.288c13.269 184.235 148.352 334.549 325.291 371.285zM102.827 397.014h188.16c8.405-135.125 55.893-264.021 137.088-371.2-176.896 36.693-311.979 186.965-325.248 371.2zM595.968 25.771c80.896 106.624 128.171 235.136 136.96 371.2h188.288c-13.312-184.192-148.309-334.464-325.248-371.2z" />
<glyph unicode="&#xe946;" glyph-name="compass" d="M512 896c-259.285 0-469.333-210.091-469.333-469.333s210.048-469.333 469.333-469.333 469.333 210.091 469.333 469.333-210.048 469.333-469.333 469.333zM512 16c-226.432 0-410.667 184.235-410.667 410.667s184.235 410.667 410.667 410.667 410.667-184.235 410.667-410.667-184.235-410.667-410.667-410.667zM529.451 450.304c12.971-9.771 15.744-28.075 6.229-41.045-9.771-13.013-28.117-15.744-41.088-6.229-12.971 9.771-15.744 28.075-6.101 41.045 9.6 12.971 27.947 15.701 40.96 6.229zM451.157 564.95c-58.453-41.344-85.803-92.8-85.803-162.219l0.043-253.099 207.616 138.795c58.581 41.685 85.717 93.227 85.675 162.261l0.043 252.971-207.573-138.709zM600.021 450.688c0.043-51.456-18.816-84.48-60.928-114.219l-115.029-76.971v143.189c0 51.584 18.901 84.48 60.971 114.091l115.029 76.971-0.043-143.061z" />
<glyph unicode="&#xe947;" glyph-name="location" d="M512 896c-217.643 0-394.667-176.981-394.667-394.496 0-289.408 347.349-524.331 362.112-534.229 9.813-6.571 21.163-9.941 32.555-9.941s22.741 3.371 32.555 9.899c14.763 9.899 362.112 244.821 362.112 534.229 0 217.557-177.024 394.539-394.667 394.539zM512 16c0 0-336 224-336 485.504 0 185.472 150.443 335.829 336 335.829 185.6 0 336-150.357 336-335.829 0-261.504-336-485.504-336-485.504zM512 661.334c-64.683 0-117.333-52.48-117.333-117.291 0-64.853 52.651-117.376 117.333-117.376s117.333 52.523 117.333 117.376c0 64.811-52.651 117.291-117.333 117.291zM512 485.334c-32.427 0-58.667 26.325-58.667 58.709 0 32.341 26.197 58.624 58.667 58.624s58.667-26.283 58.667-58.624c0-32.384-26.24-58.709-58.667-58.709z" />
<glyph unicode="&#xe948;" glyph-name="map" d="M952.064 850.816c-9.131 5.077-19.285 7.765-29.397 7.765-10.069 0-20.139-2.645-29.184-7.637l-233.941-133.845-270.72 135.253c-8.277 4.267-17.195 6.229-26.197 6.229-10.069 0-20.139-2.645-29.184-7.637l-261.291-149.419c-18.133-10.581-29.483-29.995-29.483-51.029v-597.077c0-20.949 11.093-40.277 29.269-50.901 9.131-5.077 19.285-7.765 29.397-7.765 10.069 0 20.139 2.645 29.184 7.637l233.941 133.845 270.72-135.211c8.277-4.267 17.195-6.229 26.197-6.229 10.069 0 20.139 2.645 29.184 7.637l261.291 149.419c18.133 10.539 29.483 29.952 29.483 50.987v597.077c0 20.949-11.093 40.277-29.269 50.901zM394.667 785.238l234.667-120.064v-597.077l-234.667 120.064v597.077zM101.333 53.419v597.077l234.667 132.693v-597.333l-234.667-132.437zM922.667 202.838l-234.667-132.693v597.333l234.667 132.437v-597.077z" />
<glyph unicode="&#xe949;" glyph-name="unlock" d="M366.208 457.6v236.928c0 77.611 65.152 140.757 145.408 140.757 80.171 0 145.365-63.104 146.261-144.555 0.939-1.792 6.357-11.307 17.92-19.413l41.941-29.269v52.48c-0.043 111.019-92.501 201.472-206.165 201.472s-206.165-90.453-206.165-201.472v-236.971h-34.603c-53.077 0-96.256-43.435-96.256-96.299v-403.925h577.792c53.589 0 97.152 43.179 97.152 96.256v404.011h-483.285zM789.205 53.59c0-19.925-16.512-35.84-36.864-35.84h-517.504l-0.043 343.211c0 20.011 16.085 36.267 36.011 36.267h518.4v-343.637z" />
<glyph unicode="&#xe94a;" glyph-name="lock" d="M717.696 457.6v236.928c0 111.019-92.501 201.472-206.123 201.472-113.664 0-206.165-90.453-206.165-201.472v-236.971h-34.603c-53.077 0-96.256-43.435-96.256-96.299v-403.925h577.92c53.461 0 96.981 43.179 96.981 96.256v404.011h-131.755zM366.165 694.528c0 77.611 65.195 140.757 145.408 140.757 80.171 0 145.365-63.104 144.213-140.16l1.152-20.096v-217.472h-290.773v236.971zM789.205 53.59c0-19.925-16.512-35.84-36.736-35.84h-517.632l-0.043 343.552c0 19.669 16.085 35.925 36.011 35.925h518.4v-343.637z" />
<glyph unicode="&#xe94b;" glyph-name="link" d="M246.315-42.666c-54.485 0-105.685 21.163-144.043 59.605-38.443 38.4-59.605 89.557-59.605 144.085 0 54.485 21.163 105.685 59.605 144.128l92.245 92.245c38.443 38.443 89.6 59.563 144.085 59.563 40.064 0 78.848-11.563 112.043-33.408l9.216-6.144 61.355 61.312-6.101 9.301c-52.949 80.341-41.941 188.075 26.155 256.128l92.203 92.245c38.485 38.485 89.643 59.605 144.171 59.605 54.485 0 105.685-21.12 144.085-59.563 79.488-79.445 79.488-208.811 0-288.213l-92.245-92.245c-38.4-38.443-89.6-59.563-144.085-59.563v0c-40.064 0-78.848 11.563-112.043 33.323l-9.216 6.187-61.312-61.355 6.059-9.259c52.907-80.427 41.899-188.117-26.155-256.085l-92.203-92.245c-38.485-38.485-89.643-59.648-144.213-59.648zM337.835 396.971c-38.229 0-74.112-14.891-101.12-41.856l-92.16-92.203c-27.221-27.179-42.197-63.317-42.197-101.803s15.019-74.667 42.197-101.888c27.221-27.179 63.403-42.155 101.803-42.155 38.443 0 74.624 14.976 101.803 42.112l92.245 92.245c42.667 42.581 53.931 108.075 27.989 162.987l-8.235 17.536-97.493-97.451c-5.717-5.76-13.355-8.875-21.461-8.875-8.064 0-15.701 3.115-21.376 8.875-11.861 11.819-11.861 31.061 0 42.88l97.451 97.451-17.451 8.192c-19.243 9.088-40.704 13.952-61.995 13.952zM682.752 627.755c8.064 0 15.701-3.2 21.419-8.917 5.76-5.717 8.875-13.355 8.875-21.461 0-8.064-3.157-15.659-8.875-21.376l-97.493-97.536 17.451-8.149c19.243-9.088 40.661-13.909 61.909-13.909 38.229 0 74.155 14.933 101.12 41.899l92.288 92.203c27.179 27.179 42.155 63.275 42.155 101.803 0 38.4-14.976 74.624-42.155 101.888-27.221 27.179-63.36 42.112-101.845 42.112-38.443 0-74.624-14.976-101.845-42.112l-92.16-92.245c-42.667-42.624-53.931-108.117-27.989-162.987l8.235-17.451 97.493 97.323c5.717 5.717 13.312 8.917 21.419 8.917z" />
<glyph unicode="&#xe94c;" glyph-name="unlink" d="M246.357-42.624c-54.485 0-105.685 21.163-144.043 59.563-38.485 38.4-59.648 89.557-59.648 144.085s21.163 105.728 59.605 144.128l92.203 92.245c38.4 38.4 89.6 59.563 144.085 59.563s105.685-21.163 144.085-59.563c79.445-79.488 79.445-208.811 0-288.213l-92.203-92.245c-38.357-38.4-89.557-59.563-144.085-59.563zM338.603 397.27c-38.443 0-74.624-15.019-101.845-42.155l-92.16-92.16c-27.221-27.221-42.197-63.36-42.197-101.845s15.019-74.667 42.197-101.845c27.179-27.221 63.36-42.197 101.76-42.197 38.485 0 74.667 14.976 101.803 42.155l92.245 92.245c27.221 27.179 42.197 63.36 42.197 101.803 0 38.485-15.019 74.624-42.197 101.803s-63.36 42.197-101.803 42.197zM685.355 396.374c-54.485 0-105.685 21.163-144.085 59.563-38.443 38.4-59.648 89.6-59.648 144.128 0 54.443 21.205 105.643 59.648 144.085l92.203 92.245c38.485 38.443 89.643 59.605 144.171 59.605 54.485 0 105.685-21.163 144.085-59.563 79.445-79.445 79.445-208.811 0-288.213l-92.245-92.245c-38.4-38.443-89.6-59.605-144.128-59.605zM777.643 836.31c-38.443 0-74.624-14.976-101.845-42.155l-92.16-92.245c-27.264-27.179-42.197-63.36-42.197-101.803s14.976-74.624 42.197-101.803c27.179-27.264 63.36-42.197 101.803-42.197s74.624 14.976 101.803 42.197l92.245 92.16c27.221 27.221 42.155 63.317 42.155 101.845 0 38.4-14.976 74.624-42.155 101.845s-63.403 42.155-101.845 42.155zM319.275 686.976l36.437 36.437c10.795 10.837 14.421 22.613 11.776 38.101l-18.944 102.485-36.48-36.437c-10.752-10.709-14.379-22.528-11.733-38.016l18.944-102.571zM214.912 583.339l36.437 36.437-102.4 18.901c-3.243 0.597-6.357 0.896-9.387 0.896-11.136 0-20.352-4.011-28.885-12.544l-36.437-36.48 102.4-18.901c3.157-0.555 6.272-0.853 9.259-0.853 11.264 0 20.48 4.011 29.013 12.544zM912.939 226.731l36.437 36.437-102.4 18.901c-3.243 0.597-6.315 0.896-9.344 0.896-11.136 0-20.309-4.011-28.885-12.629l-36.437-36.437 102.357-18.859c3.157-0.555 6.229-0.853 9.173-0.853 11.307 0.043 20.565 4.011 29.099 12.544zM675.883-11.093l36.437 36.437c10.795 10.837 14.421 22.613 11.733 38.101l-18.944 102.571-36.437-36.437c-10.752-10.752-14.379-22.528-11.776-38.059l18.987-102.613z" />
<glyph unicode="&#xe94d;" glyph-name="zoom_in" d="M779.307 188.246c77.995 74.965 126.848 179.925 126.848 296.32-0.043 226.987-184.576 411.435-411.477 411.435-226.816 0-411.307-184.448-411.307-411.435 0-226.773 184.491-411.52 411.307-411.52 89.259 0 171.733 29.056 239.189 77.483l121.728-173.824c9.728-13.141 21.419-19.371 38.229-19.371h46.805l-161.323 230.912zM142.123 484.566c0 194.901 157.824 352.683 352.555 352.683s352.683-157.739 352.683-352.683c0-194.688-157.952-352.768-352.683-352.768s-352.555 158.080-352.555 352.768zM524.075 455.254v-80.896c0-17.195-6.229-29.269-20.309-39.168l-38.443-26.837v146.901h-80.853c-17.28 0.043-29.269 6.272-39.211 20.309l-26.795 38.443h146.859v81.067c0.043 17.024 6.357 29.312 20.48 38.955l38.272 27.051v-147.072h80.981c17.28-0.043 29.269-6.357 39.083-20.437l26.88-38.315h-146.944z" />
<glyph unicode="&#xe94e;" glyph-name="zoom_out" d="M779.349 188.16c78.080 75.008 126.805 180.011 126.805 296.405 0 226.944-184.576 411.435-411.435 411.435-226.816 0-411.349-184.491-411.349-411.435 0-226.816 184.533-411.477 411.349-411.477 89.259 0 171.733 28.928 239.189 77.355l121.728-173.739c9.685-13.269 21.461-19.371 38.187-19.371h46.805l-161.28 230.827zM142.123 484.566c0 194.816 157.952 352.683 352.597 352.683 194.731 0 352.64-157.824 352.64-352.683 0-194.731-157.909-352.725-352.64-352.725-194.645 0.043-352.597 157.995-352.597 352.725zM671.061 455.254h-286.592c-17.28 0.043-29.312 6.272-39.168 20.352l-26.837 38.4h286.592c17.28-0.043 29.312-6.315 39.211-20.437l26.795-38.315z" />
<glyph unicode="&#xe94f;" glyph-name="zoom_money" d="M779.392 188.118c77.995 75.008 126.763 180.053 126.763 296.448 0 226.901-184.533 411.435-411.392 411.435-226.816 0-411.435-184.533-411.435-411.435s184.576-411.435 411.435-411.435c89.301 0 171.691 28.8 239.189 77.269l121.685-173.653c9.685-13.44 21.504-19.413 38.187-19.413h46.848l-161.28 230.784zM494.763 131.926c-194.731 0-352.64 157.867-352.64 352.683s157.909 352.64 352.64 352.64c194.688 0 352.64-157.824 352.64-352.64s-157.952-352.683-352.64-352.683zM662.699 372.438c0-43.605-16.171-76.331-48.341-98.773-17.365-11.904-38.869-20.437-64-25.984-11.264-14.336-24.789-21.376-43.776-21.717l-56.277 0.341 10.368 14.72c-33.664 0.597-62.123 3.712-82.304 9.643-23.637 6.955-39.723 12.416-48.128 15.659 12.885 36.736 47.787 56.917 86.059 50.091 22.869-4.395 36.181-4.565 59.52-4.565 34.475 0 60.245 4.565 76.757 13.696 16.64 8.832 25.045 23.424 25.045 43.349 0 20.437-8.235 36.864-24.619 48.896-16.171 11.947-43.093 25.685-80.469 40.875-18.261 7.040-35.584 14.379-52.224 22.187-16.555 7.552-30.848 16.427-43.051 26.624-11.989 10.24-21.632 22.4-28.885 36.949-7.381 14.677-11.008 32.299-11.008 53.419 0 41.813 15.488 74.965 46.251 99.2 19.669 15.573 44.16 25.685 72.875 31.189l1.408 2.219c11.904 16.896 26.325 24.32 46.976 24.405l56.277-0.085-16.043-22.955c1.451-0.171 2.859-0.085 4.352-0.213 13.227-1.536 25.771-3.371 37.163-5.461 11.52-2.048 21.675-4.395 30.293-6.741 8.875-2.475 15.573-4.48 20.565-6.272-14.293-36.693-47.531-56.832-86.784-52.181-15.872 1.963-24.789 2.475-40.832 2.475-23.509 0-44.245-4.949-61.952-14.336-17.493-9.344-26.24-23.979-26.24-43.904 0-10.197 1.92-19.285 5.973-27.179 3.968-7.936 9.984-15.061 17.963-21.12 8.277-6.4 18.432-12.459 30.379-17.835 12.203-5.461 26.581-11.179 43.563-17.067 22.315-8.661 42.24-16.981 59.691-25.131 17.707-7.936 32.427-17.621 44.928-28.459 12.416-10.709 21.931-23.979 28.501-39.509 6.741-15.232 10.027-34.091 10.027-56.448z" />
<glyph unicode="&#xe950;" glyph-name="home" d="M981.333 540.374c0 17.195-6.315 28.245-20.352 38.229l-448.981 317.397-448.981-315.563c-14.037-9.984-20.352-21.035-20.352-38.229v-47.701l29.355 20.48v-462.336c0-52.437 43.861-95.317 97.707-95.317h166.272c32.427 0 58.667 26.624 58.667 59.563v233.771h234.667v-233.771c0-32.939 26.24-59.563 58.667-59.563h166.272c53.803 0 97.707 42.88 97.707 95.317v460.843l29.355-20.821v47.701zM893.355 52.651c0-19.883-17.493-36.651-39.040-36.651h-166.272v264.32c0 16.512-13.184 29.013-29.355 29.013h-293.376c-16.171 0-29.355-12.501-29.355-29.013v-264.32h-166.229c-21.547 0-39.083 15.872-39.083 35.755v504.747l361.771 254.208c6.571 4.565 13.099 6.784 19.584 6.784s13.013-2.219 19.584-6.784l361.771-255.787v-502.272z" />
<glyph unicode="&#xe951;" glyph-name="office_building" d="M453.333 309.334l-27.093-39.211c-9.728-13.995-21.12-19.413-38.144-19.456h-81.408v58.667h146.645zM453.333 426.667l-27.093-39.211c-9.728-13.995-21.12-19.413-38.144-19.456h-81.408v58.667h146.645zM453.333 544l-27.093-39.211c-9.728-13.995-21.12-19.413-38.144-19.456h-81.408v58.667h146.645zM717.312 309.334l-27.093-39.211c-9.728-13.995-21.12-19.413-38.144-19.456h-81.408v58.667h146.645zM717.312 426.667l-27.093-39.211c-9.728-13.995-21.12-19.413-38.144-19.456h-81.408v58.667h146.645zM717.312 544l-27.093-39.211c-9.728-13.995-21.12-19.413-38.144-19.456h-81.408v58.667h146.645zM453.333 661.334l-27.093-39.211c-9.728-13.995-21.12-19.413-38.144-19.456h-81.408v58.667h146.645zM717.312 661.334l-27.093-39.211c-9.728-13.995-21.12-19.413-38.144-19.456h-81.408v58.667h146.645zM797.867 786.048l-264.021 105.685c-7.083 2.773-14.464 4.267-21.845 4.267s-14.763-1.493-21.888-4.309l-263.979-105.643c-22.187-9.003-36.779-30.421-36.779-54.4v-715.648c0-32.341 26.197-58.667 58.624-58.667h176c32.427 0 58.667 26.325 58.667 58.667v58.667h58.667v-58.667c0-32.341 26.24-58.667 58.667-58.667h176c32.427 0 58.667 26.325 58.667 58.667v715.648c0 23.979-14.592 45.397-36.779 54.4zM776.021 16h-176v87.979c0 16.299-13.184 29.355-29.355 29.355h-117.333c-16.171 0-29.355-13.056-29.355-29.355v-87.979h-176v715.648l264.021 105.685 264.021-105.685v-715.648z" />
<glyph unicode="&#xe952;" glyph-name="factory" d="M974.592 842.71c-10.283 19.541-30.677 31.957-52.907 31.957h-225.109c-22.357 0-42.752-12.416-52.949-31.957-10.283-19.797-8.789-43.733 4.053-61.995l45.781-65.365v-143.915h-114.133v89.515c0 24.192-14.635 45.995-36.864 55.125-7.381 3.243-15.104 4.565-22.784 4.565-15.488 0-30.763-5.888-42.155-17.408l-29.696-29.696c-4.096 18.901-17.237 35.072-35.456 42.539-7.509 3.243-15.232 4.608-22.912 4.608-15.488 0-30.763-5.888-42.155-17.408l-29.611-29.739c-4.053 18.901-17.152 35.072-35.541 42.539-7.381 3.243-15.104 4.608-22.784 4.608-15.616 0-30.763-5.888-42.155-17.408l-157.013-157.227c-11.264-11.093-17.536-26.283-17.536-42.027l-0.085-465.707c0-32.853 26.709-59.648 59.691-59.648h764.416c32.853 0 59.563 26.837 59.563 59.648l0.043 679.168 44.245 63.189c12.757 18.304 14.336 42.24 4.053 62.037zM866.731 736.384l-0.085-698.027h-764.373l0.085 465.707 157.013 156.928v-130.005l130.091 130.005v-130.005l130.176 130.005v-148.992h233.472v222.251l-56.576 80.768h225.109l-54.912-78.635z" />
<glyph unicode="&#xe953;" glyph-name="parthenon" d="M55.125-19.157l26.027 37.077c11.947 17.109 24.619 23.509 46.592 23.509h768.469c22.016 0 34.645-6.357 46.592-23.509l26.069-37.077h-913.749zM852.139 153.814c-12.373 8.704-17.963 19.627-18.005 35.115v191.531l42.581-29.269c12.459-8.704 18.005-19.584 18.048-34.901v-191.488l-42.624 29.013zM631.509 153.814c-12.373 8.704-18.048 19.627-18.091 35.115v191.531l42.539-29.269c12.459-8.704 18.048-19.584 18.219-34.901v-191.488l-42.667 29.013zM351.147 316.331c0.043 15.317 5.632 26.24 18.176 34.944l42.453 29.227v-191.573c-0.043-15.403-5.632-26.24-18.133-35.115l-42.496-28.971v191.488zM130.56 316.331c0.043 15.317 5.632 26.24 18.048 34.944l42.581 29.227v-191.573c-0.043-15.189-5.888-26.411-18.304-35.115l-42.325-28.971v191.488zM42.667 463.616v56.789l0.384 6.229c0.427 12.117 4.309 19.371 14.72 26.411l454.229 319.445 454.144-321.152c9.771-7.040 13.739-13.867 14.421-25.131l0.768-11.008v-51.584h-938.667zM122.283 524.374h776.96l-387.371 274.133-389.589-274.133zM512 639.19c-16.811 0-30.293 13.739-30.293 30.549 0 16.64 13.525 30.208 30.293 30.208s30.293-13.568 30.293-30.208c0-16.768-13.483-30.549-30.293-30.549z" />
<glyph unicode="&#xe954;" glyph-name="store" d="M922.667 475.392c51.797 42.24 71.168 144.725 49.579 213.205l-52.309 166.272c-7.68 24.533-30.293 41.131-55.936 41.131h-704c-25.643 0-48.256-16.597-55.979-41.131l-52.267-166.272c-21.589-68.523-2.261-170.965 49.579-213.205 0.128-0.085 0-459.392 0-459.392 0-15.616 6.229-30.507 17.28-41.515 11.008-10.923 25.856-17.152 41.387-17.152 0 0 138.923 0 293.333 0h117.333c154.368 0 293.291 0 293.291 0 15.573 0 30.379 6.229 41.387 17.152 11.051 11.051 17.323 25.899 17.323 41.515 0 0-0.085 459.307 0 459.392zM570.667 16c-39.083 0-77.867 0-117.333 0 0 97.365 0 194.987 0 293.333 38.571 0 77.525 0 117.333 0 0-98.091 0-195.285 0-293.333zM864 16h-234.667v293.333c0 32.341-26.24 58.667-58.667 58.667h-117.333c-32.469 0-58.667-26.325-58.667-58.667v-293.333h-234.667c0 0-0.128 314.325 0 449.024 24.235-3.84 64.939-3.2 86.229 0.128 23.381 3.669 44.373 14.891 63.701 29.397 22.912-16.555 48-27.307 75.605-30.976 42.453-5.589 82.005 2.304 117.845 26.027 5.333 3.328 8.619 4.523 14.507 0.384 55.168-37.632 130.773-37.632 186.624-0.171 5.376 3.627 8.661 3.925 14.464 0.128 34.517-23.637 72.619-33.109 114.304-27.733 2.773 0.256 23.339 2.603 30.72 3.797v-450.005zM853.76 523.776c-5.248-0.896-17.621-2.133-27.861-3.456-4.949-0.469-9.856-0.939-14.635-0.939-21.035 0-40.363 6.272-59.691 19.371-12.587 8.576-25.899 12.629-39.723 12.629s-27.435-4.395-39.936-12.8c-17.749-11.861-38.613-18.176-60.8-18.176-22.059 0-42.837 6.272-60.075 18.048-12.459 8.491-25.813 12.885-39.979 12.885-21.035 0-35.712-9.941-39.979-12.843-18.176-11.989-37.589-17.707-59.563-17.707-5.973 0-11.947 0.299-18.176 1.109-17.195 2.176-33.237 9.003-49.067 20.267-10.197 7.381-22.187 11.093-34.304 11.093-12.373 0-24.789-3.84-35.072-11.776-14.379-10.496-26.539-16.64-37.333-18.347-9.216-1.323-23.040-2.048-36.779-2.048-11.435 0-22.827 0.597-31.531 1.835-3.029 0.64-6.144 0.768-9.259 0.768-7.68 0-19.669-2.816-19.669-2.816-0.043 0-0.213 0.085-0.384 0.085-27.093 22.144-49.024 96.981-32.299 149.803 12.928 41.003 52.352 166.571 52.352 166.571h704c0 0 39.424-125.568 52.352-166.571 16.768-52.693-5.077-127.403-32.171-149.675-6.443 2.475-13.312 3.627-20.181 3.627-3.371 0-6.869-0.213-10.24-0.939z" />
<glyph unicode="&#xe955;" glyph-name="hospital" d="M776.021 896h-528.043c-32.427 0-58.667-26.325-58.667-58.667v-821.333c0.043-32.341 26.24-58.667 58.667-58.667h174.677c32.427 0 59.989 26.325 59.989 58.667v117.333h58.667v-117.333c0-32.341 24.917-58.667 57.344-58.667h177.323c32.427 0 58.667 26.325 58.667 58.667v821.333c0 32.341-26.197 58.667-58.624 58.667zM776.021 16h-176v146.688c0 16.299-13.184 29.355-29.355 29.355h-117.333c-16.171 0-29.355-13.056-29.355-29.355v-146.688h-176v821.333h528.043v-821.333zM717.312 661.334h-58.667v-58.667h-58.667v58.667h-58.667v58.667h58.667v58.667h58.667v-58.667h58.667v-58.667zM453.333 309.334l-27.093-39.211c-9.728-13.995-21.12-19.413-38.144-19.456h-81.408v58.667h146.645zM453.333 426.667l-27.093-39.211c-9.728-13.995-21.12-19.413-38.144-19.456h-81.408v58.667h146.645zM453.333 544l-27.093-39.211c-9.728-13.995-21.12-19.413-38.144-19.456h-81.408v58.667h146.645zM453.333 661.334l-27.093-39.211c-9.728-13.995-21.12-19.413-38.144-19.456h-81.408v58.667h146.645zM453.333 778.667l-27.093-39.211c-9.728-13.995-21.12-19.413-38.144-19.456h-81.408v58.667h146.645zM717.312 309.334l-27.093-39.211c-9.728-13.995-21.12-19.413-38.144-19.456h-81.408v58.667h146.645zM717.312 426.667l-27.093-39.211c-9.728-13.995-21.12-19.413-38.144-19.456h-81.408v58.667h146.645zM717.312 544l-27.093-39.211c-9.728-13.995-21.12-19.413-38.144-19.456h-81.408v58.667h146.645z" />
<glyph unicode="&#xe956;" glyph-name="newspaper" d="M453.333 661.334h-234.667c-32.427 0-58.667-26.325-58.667-58.667v-293.333c0-32.341 26.24-58.667 58.667-58.667h234.667c32.427 0 58.667 26.325 58.667 58.667v293.333c0 32.341-26.24 58.667-58.667 58.667zM453.333 309.334h-234.667v293.333h234.667v-293.333zM981.333 779.563v-605.909c0-112.512-94.805-216.32-207.147-216.32h-527.616c-112.384 0-203.904 98.347-203.904 210.816v699.264c0 15.659 13.653 28.587 29.355 28.587h733.355c15.915 0 29.355-13.653 29.355-29.355v-610.219l-39.083 27.435c-11.819 8.235-16.469 18.389-18.133 31.232l-1.451 29.355v492.885h-674.731v-669.355c0-80.555 64.299-151.979 145.237-151.979h527.659c80.683 0 148.437 76.8 148.437 157.44v518.827l1.451 29.355c1.664 12.885 6.315 22.997 18.133 31.232l39.040 27.392c0-0.427 0.043-0.555 0.043-0.683zM723.243 720h-497.323c-17.237 0.085-28.715 5.504-38.485 19.499l-27.435 39.168h497.323c17.237-0.043 28.715-5.461 38.485-19.456l27.435-39.211zM746.667 133.334h-520.747c-17.237 0.085-28.715 5.504-38.485 19.499l-27.435 39.168h520.747c17.237-0.043 28.715-5.461 38.485-19.456l27.435-39.211zM746.667 602.667h-139.435c-17.237 0.085-28.715 5.504-38.485 19.499l-27.392 39.168h139.435c17.237-0.043 28.715-5.461 38.485-19.456l27.392-39.211zM746.667 485.334h-139.435c-17.237 0.085-28.715 5.504-38.485 19.499l-27.392 39.168h139.435c17.237-0.043 28.715-5.461 38.485-19.456l27.392-39.211zM746.667 368h-139.435c-17.237 0.085-28.715 5.504-38.485 19.499l-27.392 39.168h139.435c17.237-0.043 28.715-5.461 38.485-19.456l27.392-39.211zM746.667 250.667h-139.435c-17.237 0.085-28.715 5.504-38.485 19.499l-27.435 39.168h139.435c17.237-0.043 28.715-5.461 38.485-19.456l27.435-39.211z" />
<glyph unicode="&#xe957;" glyph-name="portofolio" d="M805.333 896h-586.667c-32.427 0-58.667-26.325-58.667-58.667v-821.333c0-32.341 26.24-58.667 58.667-58.667h586.667c32.427 0 58.667 26.325 58.667 58.667v821.333c0 32.341-26.24 58.667-58.667 58.667zM805.333 16h-586.667v821.333h586.667v-821.333zM277.333 778.667h403.413c17.237-0.085 28.715-5.504 38.485-19.499l27.435-39.168h-403.413c-17.237 0.043-28.715 5.461-38.485 19.456l-27.435 39.211zM336 661.334v-227.413c-0.085-17.237-5.504-28.587-19.627-38.485l-39.040-27.435v227.413c0.043 17.237 5.461 28.587 19.584 38.485l39.083 27.435zM391.765 661.334h288.981c17.237-0.085 28.715-5.504 38.485-19.499l27.435-39.168h-289.109c-17.109 0.043-28.587 5.461-38.485 19.456l-27.307 39.211zM394.667 426.667h289.109c17.109-0.085 28.587-5.504 38.485-19.499l27.307-39.168h-288.981c-17.237 0.043-28.715 5.461-38.485 19.456l-27.435 39.211zM394.667 544h289.109c17.109-0.085 28.587-5.504 38.485-19.499l27.307-39.168h-288.981c-17.237 0.043-28.715 5.461-38.485 19.456l-27.435 39.211zM590.251 102.102c-14.123 9.899-19.541 21.248-19.584 38.485v51.413l39.040-27.435c14.123-9.899 19.541-21.248 19.627-38.485v-51.413l-39.083 27.435zM707.584 102.102c-14.123 9.899-19.541 21.248-19.584 38.485v51.413l39.040-27.435c14.123-9.899 19.541-21.248 19.627-38.485v-51.413l-39.083 27.435zM296.917 102.102c-14.123 9.899-19.541 21.248-19.584 38.485v51.413l39.040-27.435c14.123-9.899 19.541-21.248 19.627-38.485v-51.413l-39.083 27.435zM414.251 102.102c-14.123 9.899-19.541 21.248-19.584 38.485v51.413l39.040-27.435c14.123-9.899 19.541-21.248 19.627-38.485v-51.413l-39.083 27.435zM277.333 309.334h403.413c17.237-0.085 28.715-5.504 38.485-19.499l27.435-39.168h-403.413c-17.237 0.043-28.715 5.461-38.485 19.456l-27.435 39.211z" />
<glyph unicode="&#xe958;" glyph-name="calendar" d="M831.403 778.667h-55.424v87.979c0.043 16.299-13.141 29.355-29.312 29.355s-29.355-13.056-29.355-29.355v-87.979h-410.624v87.979c0 16.299-13.184 29.355-29.355 29.355s-29.355-13.056-29.355-29.355v-87.979h-55.381c-50.432 0-91.264-40.661-91.264-91.008v-638.933c0-50.731 40.832-91.392 91.264-91.392h638.848c50.432 0 91.264 40.661 91.264 91.435v638.891c-0.043 50.347-40.875 91.008-91.307 91.008zM864 48.768c0-18.091-14.635-32.768-32.597-32.768h-638.805c-17.92 0-32.597 14.677-32.597 32.768v436.565h704v-436.565zM864 544h-704v143.659c0 17.749 14.635 32.341 32.597 32.341h55.424v-29.355c-0.043-16.256 13.141-29.312 29.312-29.312s29.355 13.056 29.355 29.355v29.312h410.667v-29.355c0-16.299 13.184-29.355 29.355-29.355s29.355 13.056 29.355 29.355v29.355h55.424c17.92 0 32.597-14.592 32.597-32.341v-143.659z" />
<glyph unicode="&#xe959;" glyph-name="calendar_percent" d="M831.403 778.667h-55.424v87.979c0.043 16.299-13.141 29.355-29.312 29.355s-29.355-13.056-29.355-29.355v-87.979h-410.624v87.979c0 16.299-13.184 29.355-29.355 29.355s-29.355-13.056-29.355-29.355v-87.979h-55.381c-50.432 0-91.264-40.661-91.264-91.008v-638.933c0-50.731 40.832-91.392 91.264-91.392h638.848c50.432 0 91.264 40.661 91.264 91.435v638.891c-0.043 50.347-40.875 91.008-91.307 91.008zM864 48.768c0-18.091-14.635-32.768-32.597-32.768h-638.805c-17.92 0-32.597 14.677-32.597 32.768v436.565h704v-436.565zM864 544h-704v143.659c0 17.749 14.635 32.341 32.597 32.341h55.424v-29.355c-0.043-16.256 13.141-29.312 29.312-29.312s29.355 13.056 29.355 29.355v29.312h410.667v-29.355c0-16.299 13.184-29.355 29.355-29.355s29.355 13.056 29.355 29.355v29.355h55.424c17.92 0 32.597-14.592 32.597-32.341v-143.659zM629.589 193.707c-39.893 0-72.32-32.469-72.32-72.32s32.427-72.32 72.32-72.32 72.32 32.469 72.32 72.32-32.427 72.32-72.32 72.32zM629.589 103.723c-9.771 0-17.664 7.936-17.664 17.664s7.936 17.664 17.664 17.664 17.664-7.936 17.664-17.664-7.936-17.664-17.664-17.664zM662.528 361.302l-19.669-21.803-290.432-290.475-8.32 47.061c-2.517 14.165 1.323 24.619 9.344 34.859l19.712 21.803 290.389 290.475 8.277-47.061c2.56-14.165-1.28-24.619-9.301-34.859zM399.189 443.222c-39.893 0-72.32-32.469-72.32-72.32s32.427-72.32 72.32-72.32 72.32 32.469 72.32 72.32-32.384 72.32-72.32 72.32zM399.189 353.195c-9.771 0-17.664 7.936-17.664 17.664s7.936 17.664 17.664 17.664 17.664-7.936 17.664-17.664-7.893-17.664-17.664-17.664z" />
<glyph unicode="&#xe95a;" glyph-name="todo" d="M448.299 826.496h467.2c17.237-0.043 28.672-5.504 38.485-19.499l27.349-39.168h-467.115c-17.237 0-28.715 5.419-38.485 19.584l-27.435 39.083zM322.688 895.062c-16.939 2.944-29.867-0.981-42.069-13.099l-105.728-106.283-46.549 50.432c-11.563 10.453-23.893 14.677-39.851 11.861l-45.824-8.107c0-0.043 0.043-0.085 0.043-0.085l110.976-116.395c5.504-5.589 13.995-10.88 20.992-8.875 7.808 0 15.189 3.157 20.693 8.661l172.757 173.824-45.44 8.064zM475.691 413.952c9.771-13.995 21.248-19.413 38.485-19.413h467.157l-27.349 39.168c-9.813 13.995-21.291 19.456-38.485 19.499h-467.2l27.392-39.253zM322.688 521.771c-16.939 2.944-29.867-0.981-42.069-13.312l-105.728-106.283-46.549 50.475c-11.563 10.709-23.893 14.677-39.851 11.861l-45.824-7.936c0-0.299 0.043-0.341 0.043-0.341l110.976-116.395c5.504-5.632 14.037-10.667 20.992-8.661 7.808 0 15.189 2.987 20.693 8.491l172.757 174.037-45.44 8.064zM475.691 40.662c9.771-14.123 21.248-19.413 38.485-19.413h467.157l-27.349 38.912c-9.813 14.251-21.291 19.712-38.485 19.755h-467.2l27.392-39.253zM322.688 148.224c-16.939 3.2-29.867-0.981-42.069-13.099l-105.728-106.283-46.549 50.475c-11.563 10.709-23.893 14.677-39.851 11.861l-45.824-8.149c0-0.043 0.043-0.085 0.043-0.085l110.976-116.395c5.504-5.632 14.037-10.923 20.992-8.789 7.808 0 15.189 3.115 20.693 8.619l172.757 173.995-45.44 7.851z" />
<glyph unicode="&#xe95b;" glyph-name="list" d="M256.427 826.496h659.029c17.237-0.043 28.672-5.504 38.485-19.499l27.392-39.168h-658.987c-17.237 0-28.715 5.419-38.485 19.584l-27.435 39.083zM42.667 826.496h61.483c17.237-0.043 28.715-5.504 38.528-19.499l27.349-39.168h-61.44c-17.237 0-28.715 5.419-38.485 19.584l-27.435 39.083zM256.427 453.206h659.029c17.237-0.043 28.672-5.504 38.485-19.499l27.392-39.168h-658.987c-17.237 0-28.715 5.419-38.485 19.584l-27.435 39.083zM42.667 453.206h61.483c17.237-0.043 28.672-5.504 38.485-19.499l27.349-39.168h-61.44c-17.237 0-28.715 5.419-38.485 19.584l-27.392 39.083zM256.427 79.915h659.029c17.237-0.043 28.672-5.504 38.485-19.499l27.392-39.168h-658.987c-17.237 0-28.715 5.419-38.485 19.584l-27.435 39.083zM42.667 79.915h61.483c17.237-0.043 28.672-5.504 38.485-19.499l27.349-39.168h-61.44c-17.237 0-28.715 5.419-38.485 19.584l-27.392 39.083z" />
<glyph unicode="&#xe95c;" glyph-name="grid_list" d="M409.941 384h-309.333c-32.427 0-58.667-26.325-58.667-58.667v-309.333c0-32.341 26.24-58.667 58.667-58.667h309.333c32.427 0 58.667 26.325 58.667 58.667v309.333c0 32.341-26.197 58.667-58.667 58.667zM409.941 16h-309.333v309.333h309.333v-309.333zM922.667 384h-309.333c-32.469 0-58.667-26.325-58.667-58.667v-309.333c0-32.341 26.197-58.667 58.667-58.667h309.333c32.427 0 58.667 26.325 58.667 58.667v309.333c0 32.341-26.24 58.667-58.667 58.667zM922.667 16h-309.333v309.333h309.333v-309.333zM412.117 886.656h-309.333c-32.427 0-58.667-26.325-58.667-58.667v-309.333c0-32.341 26.24-58.667 58.667-58.667h309.333c32.427 0 58.667 26.325 58.667 58.667v309.333c0 32.341-26.197 58.667-58.667 58.667zM412.117 518.656h-309.333v309.333h309.333v-309.333zM924.8 886.656h-309.333c-32.427 0-58.667-26.325-58.667-58.667v-309.333c0-32.341 26.24-58.667 58.667-58.667h309.333c32.427 0 58.667 26.325 58.667 58.667v309.333c0 32.341-26.197 58.667-58.667 58.667zM924.8 518.656h-309.333v309.333h309.333v-309.333z" />
<glyph unicode="&#xe95d;" glyph-name="compact_list" d="M410.667 896h-309.333c-32.469 0-58.667-26.368-58.667-58.667v-96c0-32.341 26.197-58.667 58.667-58.667h309.333c32.427 0 58.667 26.325 58.667 58.667v96c0 32.299-26.24 58.667-58.667 58.667zM410.667 741.334h-309.333v96h309.333v-96zM410.667 534.23h-309.333c-32.469 0-58.667-26.325-58.667-58.667v-96c0-32.341 26.24-58.667 58.667-58.667h309.333c32.427 0 58.667 26.325 58.667 58.667v96c0 32.341-26.24 58.667-58.667 58.667zM410.667 379.563h-309.333v96h309.333v-96zM410.667 172.459h-309.333c-32.469 0-58.667-26.325-58.667-58.667v-96c0-32.341 26.24-58.667 58.667-58.667h309.333c32.427 0 58.667 26.325 58.667 58.667v96c0 32.341-26.24 58.667-58.667 58.667zM410.667 17.792h-309.333v96h309.333v-96zM922.624 896.896h-309.333c-32.427 0-58.667-26.325-58.667-58.667v-96c0-32.341 26.24-58.667 58.667-58.667h309.333c32.427 0 58.667 26.325 58.667 58.667v96c0 32.341-26.24 58.667-58.667 58.667zM922.624 742.23h-309.333v96h309.333v-96zM922.624 535.126h-309.333c-32.427 0-58.667-26.325-58.667-58.667v-96c0-32.341 26.24-58.667 58.667-58.667h309.333c32.427 0 58.667 26.325 58.667 58.667v96c0 32.341-26.24 58.667-58.667 58.667zM922.624 380.459h-309.333v96h309.333v-96zM922.624 173.355h-309.333c-32.427 0-58.667-26.325-58.667-58.667v-96c0-32.341 26.24-58.667 58.667-58.667h309.333c32.427 0 58.667 26.325 58.667 58.667v96c0 32.341-26.24 58.667-58.667 58.667zM922.624 18.688h-309.333v96h309.333v-96z" />
<glyph unicode="&#xe95e;" glyph-name="paper" d="M863.915 661.334l-234.624 234.667h-410.624c-32.427 0-58.667-26.325-58.667-58.667v-821.333c0-32.341 26.24-58.667 58.667-58.667h586.667c32.427 0 58.667 26.325 58.667 58.667v645.333h-0.085zM629.333 812.843l151.637-151.509h-151.637v151.509zM805.333 16h-586.667v821.333h352v-176c0-32.341 26.24-58.667 58.667-58.667h176v-586.667z" />
<glyph unicode="&#xe95f;" glyph-name="papers" d="M981.248 661.334l-234.624 234.667h-410.624c-32.427 0-58.667-26.325-58.667-58.667v-821.333c0-32.341 26.24-58.667 58.667-58.667h586.667c32.427 0 58.667 26.325 58.667 58.667v645.333h-0.085zM746.667 812.843l151.637-151.509h-151.637v151.509zM922.667 16h-586.667v821.333h352v-176c0-32.341 26.24-58.667 58.667-58.667h176v-586.667zM213.333 16h-112v821.333h112c16.213 0 29.355 13.141 29.355 29.355s-13.141 29.312-29.355 29.312h-112c-32.427 0-58.667-26.325-58.667-58.667v-821.333c0-32.341 26.24-58.667 58.667-58.667h112c16.213 0 29.355 13.141 29.355 29.355s-13.141 29.312-29.355 29.312z" />
<glyph unicode="&#xe960;" glyph-name="paper_text" d="M649.045 447.958c-4.693 17.323-12.715 32.512-23.851 44.885-11.093 12.672-25.771 22.443-44.075 29.269-18.347 6.997-40.747 10.155-67.371 10.155-23.296 0-44.885-1.707-64.896-5.035-19.84-3.584-34.091-7.296-42.667-11.008 7.253-28.715 32.555-46.165 61.781-42.752 15.531 1.707 24.277 2.005 39.936 2.005 17.024 0 31.104-2.645 41.813-7.552 10.752-4.864 19.072-11.691 25.216-19.968 6.272-8.32 10.453-17.707 12.843-28.501 2.517-10.496 3.541-21.376 3.541-32.384v-18.389c-1.835 0.299-5.12 1.067-9.984 2.091-4.693 0.896-10.283 1.92-16.64 2.987-6.485 1.408-13.227 2.304-20.224 3.115-7.211 0.469-14.165 0.981-20.651 0.981-20.949 0-41.003-2.347-59.904-6.4-18.987-4.395-35.669-10.965-49.92-20.011-14.208-9.088-25.557-20.907-33.621-35.627-8.533-14.72-12.587-32.213-12.587-52.523 0-21.632 3.541-39.936 10.581-54.912 7.168-15.317 17.195-27.52 30.037-36.693 12.843-9.259 27.989-16.128 45.483-20.267 17.664-4.352 36.864-6.357 57.728-6.357 14.72 0 29.611 0.427 44.459 1.792 15.019 1.067 28.928 2.261 41.771 3.797 12.757 1.28 24.277 2.901 34.603 4.651 10.155 1.664 18.091 2.859 23.851 3.797v231.637c-0.043 20.949-2.56 39.808-7.253 57.216zM591.317 205.568c-8.149-1.877-18.091-3.371-30.208-4.139-12.075-0.512-26.027-0.981-41.685-0.981-26.155 0-46.763 4.565-61.909 13.824-15.275 9.216-22.869 25.984-22.869 49.493 0 12.885 3.115 23.381 9.387 31.061 6.059 7.979 13.824 14.208 23.040 18.475 9.259 4.565 19.413 7.68 30.592 9.003 11.179 1.493 21.717 2.048 31.744 2.048 15.147 0 28.245-0.64 38.869-2.347 10.581-1.664 18.347-3.669 23.040-6.144v-110.293zM863.915 661.334l-234.624 234.667h-410.624c-32.427 0-58.667-26.325-58.667-58.667v-821.333c0-32.341 26.24-58.667 58.667-58.667h586.667c32.427 0 58.667 26.325 58.667 58.667v645.333h-0.085zM629.333 812.843l151.637-151.509h-151.637v151.509zM805.333 16h-586.667v821.333h352v-176c0-32.341 26.24-58.667 58.667-58.667h176v-586.667z" />
<glyph unicode="&#xe961;" glyph-name="paper_printer" d="M670.763 424.619c0.128 0.555 0.427 1.237 0.427 2.048v82.517c0 32.341-26.24 58.667-58.667 58.667h-201.045c-32.427 0-58.667-26.325-58.667-58.667v-82.517c0-0.811 0.299-1.493 0.427-2.048-42.453-4.181-75.904-39.467-75.904-83.072v-100.395c0-46.379 37.589-84.011 83.797-84.011h25.173c2.901 0 5.504 1.152 8.32 1.707v-25.557c0-32.341 26.24-58.667 58.667-58.667h117.333c32.427 0 58.667 26.325 58.667 58.667v25.557c2.816-0.555 5.419-1.707 8.32-1.707h25.173c46.208 0 83.797 37.632 83.797 84.011v100.395c0.085 43.605-33.365 78.891-75.819 83.072zM411.477 509.184h201.045v-82.517h-201.045v82.517zM570.667 133.334h-117.333v98.987h117.333v-98.987zM688 241.152c0-14.123-11.307-25.344-25.131-25.344h-25.173v50.389c0 13.824-11.179 25.003-25.131 25.003h-201.088c-13.952 0-25.131-11.179-25.131-25.003v-50.389h-25.173c-13.824 0-25.131 11.221-25.131 25.344v100.395c0 13.824 11.307 25.259 25.131 25.259h301.696c13.824 0 25.131-11.435 25.131-25.259v-100.395zM863.915 661.334l-234.624 234.667h-410.624c-32.427 0-58.667-26.325-58.667-58.667v-821.333c0-32.341 26.24-58.667 58.667-58.667h586.667c32.427 0 58.667 26.325 58.667 58.667v645.333h-0.085zM629.333 812.843l151.637-151.509h-151.637v151.509zM805.333 16h-586.667v821.333h352v-176c0-32.341 26.24-58.667 58.667-58.667h176v-586.667z" />
<glyph unicode="&#xe962;" glyph-name="paper_ribbon" d="M922.667 808.022l-645.333-0.085-234.667-234.667v-410.581c0-32.341 26.197-58.667 58.667-58.667h476.288c0-19.115 8.747-37.333 24.747-48.384 10.027-6.741 21.632-10.283 33.365-10.283 9.771 0 19.627 2.56 28.459 7.381l66.901 37.248 66.859-37.248c8.875-4.821 18.731-7.381 28.459-7.381 11.733 0 23.339 3.541 33.365 10.283 16 11.051 24.789 29.269 24.789 48.384h38.144c32.469 0 58.667 26.368 58.667 58.667v586.624c-0.043 32.341-26.24 58.709-58.709 58.709zM277.333 724.822v-151.509h-151.637l151.637 151.509zM814.848 300.246c-9.899-7.552-14.549-20.096-12.373-32.085 1.152-8.064 16.043-109.44 23.936-164.181l-79.232 43.989c-5.035 2.731-10.581 4.309-16.085 4.309s-11.093-1.536-16.085-4.309l-79.275-43.947c7.893 54.272 22.613 155.52 23.979 164.011 2.219 12.032-2.389 24.619-12.373 32.213-31.275 24.107-49.195 59.435-49.195 96.341 0 68.949 59.605 125.355 132.949 125.355 73.301 0 132.907-56.363 132.907-125.355 0-36.949-17.92-72.235-49.152-96.341zM922.667 396.544v-233.856h-45.44c0.683-5.461-11.221 76.203-14.72 100.949 38.315 34.816 60.16 82.475 60.16 132.907 0 101.504-86.016 183.979-191.573 183.979s-191.616-82.517-191.616-183.979c0-50.432 21.845-98.091 60.373-132.949-2.475-16.299-15.317-103.936-14.891-100.907h-483.627v352h176c32.469 0 58.667 26.325 58.667 58.667v175.957h586.667v-352.768z" />
<glyph unicode="&#xe963;" glyph-name="paper_organizer" d="M218.667 896h-117.333c-32.427 0-58.667-26.325-58.667-58.667v-821.333c0-32.341 26.24-58.667 58.667-58.667h117.333c32.427 0 58.667 26.325 58.667 58.667v821.333c0 32.341-26.24 58.667-58.667 58.667zM218.667 16h-117.333v821.333h117.333v-821.333zM189.355 766.891c0-16.043-13.184-29.355-29.355-29.355s-29.355 13.312-29.355 29.355c0 16.299 13.141 29.355 29.355 29.355 16.171-0.043 29.355-13.099 29.355-29.355zM512 896h-117.333c-32.427 0-58.667-26.325-58.667-58.667v-821.333c0-32.341 26.24-58.667 58.667-58.667h117.333c32.427 0 58.667 26.325 58.667 58.667v821.333c0 32.341-26.24 58.667-58.667 58.667zM512 16h-117.333v821.333h117.333v-821.333zM482.645 766.891c0-16.043-13.184-29.355-29.355-29.355s-29.269 13.312-29.269 29.355c0 16.299 13.184 29.355 29.355 29.355s29.269-13.099 29.269-29.355zM742.955 894.848l-114.048-24.235c-31.488-6.528-51.669-37.291-44.971-68.949l168.149-798.165c6.571-31.403 37.504-51.584 68.949-45.013l114.048 24.192c31.488 6.528 51.669 37.291 44.971 68.949l-168.021 798.208c-6.699 31.403-37.547 51.584-69.077 45.013zM923.093 39.68l-114.048-23.979-168.149 797.952 114.048 23.979 168.149-797.952zM740.821 763.264c3.456-15.701-6.656-31.147-22.485-34.389-15.744-3.413-31.189 6.656-34.475 22.357s6.741 31.189 22.485 34.645c15.701 3.157 31.189-6.912 34.475-22.613z" />
<glyph unicode="&#xe964;" glyph-name="file_cabinet" d="M810.667 896h-597.333c-32.427 0-58.667-26.325-58.667-48v-821.333c0-43.008 26.24-69.333 58.667-69.333h597.333c32.427 0 58.667 26.325 58.667 69.333v821.333c0 21.675-26.24 48-58.667 48zM810.667 16h-597.333v480h597.333v-480zM810.667 554.667h-597.333v282.667h597.333v-282.667zM365.312 720h227.413c17.237-0.085 28.715-5.504 38.485-19.499l27.477-39.168h-227.413c-17.28 0.043-28.715 5.461-38.528 19.456l-27.435 39.211zM365.312 426.667h227.413c17.237-0.085 28.715-5.504 38.485-19.499l27.435-39.168h-227.413c-17.237 0.043-28.715 5.461-38.485 19.456l-27.435 39.211z" />
<glyph unicode="&#xe965;" glyph-name="stamp" d="M975.189 159.659l-58.667 117.333c-9.899 19.541-29.952 32.171-51.968 32.341h-117.888c-16 0-66.944 0.171-106.453 79.787-3.968 8.021-6.016 16.427-6.443 25.728 3.755 5.419 13.312 15.573 21.717 24.704 10.112 10.923 22.101 23.808 36.011 40.021 20.821 24.32 46.379 58.581 57.984 104.448 23.808 93.525 0.725 177.877-66.944 243.84-44.971 44.032-105.045 68.139-170.965 68.139-2.347 0-4.651-0.128-6.912-0.341-61.824-1.536-119.595-25.6-163.243-68.352-67.669-65.92-90.752-150.272-66.944-243.797 11.605-45.867 37.163-79.872 58.155-104.491 13.781-15.957 25.771-28.843 35.84-39.765 8.448-9.131 17.963-19.285 21.717-24.704-0.299-9.557-2.475-17.92-6.4-25.685-39.211-79.317-89.173-79.531-106.453-79.531-0.085 0-117.931-0.299-117.931-0.299-21.973-0.427-42.027-12.757-51.797-32.555l-58.667-116.779c-9.131-18.219-8.192-39.979 2.475-57.301 10.667-17.067 29.653-27.733 49.92-27.733h821.333c20.309 0 39.253 10.667 49.92 27.733 10.624 17.365 11.605 39.040 2.603 57.259zM101.333 133.334l58.667 117.035c0 0 64 0.512 118.229 0.171 74.667-0.725 125.696 46.976 158.123 112.128 8.619 17.365 12.715 36.267 12.672 55.723-0.213 28.544-25.472 44.629-71.893 98.859-20.523 24.021-37.973 49.707-45.824 80.768-18.304 71.851-2.219 135.467 51.029 187.264 36.651 35.797 83.413 52.011 129.664 51.755v0.299c46.251 0.256 93.013-15.701 129.664-51.499 53.248-52.053 69.333-115.413 51.029-187.563-7.851-30.805-25.301-56.747-45.867-80.768-46.421-54.229-71.68-70.101-71.893-98.859-0.043-19.456 4.053-38.101 12.672-55.467 32.427-65.152 83.499-113.237 158.123-112.555 54.357 0.341 118.229 0 118.229 0l58.667-117.333h-821.291zM42.667-42.666l27.435 39.211c9.771 13.995 21.248 19.413 38.485 19.456h806.827c17.237-0.043 28.715-5.461 38.485-19.456l27.435-39.211h-938.667z" />
<glyph unicode="&#xe966;" glyph-name="paper_clip" d="M508.971 48.128c-83.584-114.56-200.747-105.387-268.672-56.192-90.539 65.323-133.333 143.061-26.325 298.155 63.147 91.733 0 0 377.856 539.947 50.133 71.68 137.045 85.291 206.037 39.125 66.773-44.629 85.845-132.608 37.888-201.216-294.187-420.267-196.949-283.307-294.187-420.267-30.933-43.776-87.765-45.696-134.144-12.928-41.131 28.928-64.939 85.845-35.968 127.403 46.677 66.475 118.955 167.168 118.955 167.168 8.576 9.771 18.347 15.317 32.64 15.317h43.691l2.645-2.176c0 0-131.072-186.368-138.795-198.229-14.848-22.485-14.379-46.208 9.685-62.677 24.277-16.683 47.445-8.405 63.019 13.269 36.736 51.84 221.056 315.477 276.693 395.691 33.451 47.829 26.752 101.205-14.805 131.925-44.331 32.384-92.288 20.651-127.147-28.757-126.165-178.261-257.024-368.725-375.936-536.789-73.429-104.021-56.917-165.504 2.517-215.595 60.075-50.944 148.395-29.611 196.651 38.571 74.283 104.576 233.771 332.971 298.795 426.24 8.619 9.515 18.261 15.019 32.469 15.019h47.659l1.365 2.005c-3.84-7.424-230.016-334.592-332.587-475.008z" />
<glyph unicode="&#xe967;" glyph-name="stapler" d="M42.667 150.784l27.435 39.168c9.771 13.995 21.248 19.413 38.485 19.499h806.827c17.237-0.085 28.715-5.504 38.485-19.499l27.435-39.168h-938.667zM980.821 370.646c2.816-21.76-6.485-43.179-24.533-55.851l-39.083-27.349c-29.355-20.48-61.824-24.832-96.384-12.331l-621.355 226.005c0.384-2.645 0-57.003 0-57.003l-37.504 27.435c-13.995 9.899-19.413 21.248-19.499 38.485v18.261c-17.408 13.227-29.781 31.232-36.011 54.229l-12.288 45.995c-5.632 21.205 0.853 43.776 17.109 58.539 16.128 14.763 39.083 19.328 59.648 11.904l771.84-280.832c20.608-7.68 35.2-26.027 38.059-47.488zM922.667 362.795l-771.797 281.088 12.331-46.080c4.437-16.853 13.312-25.6 29.44-31.659l648.021-235.733c16.128-5.76 28.843-4.736 42.923 5.248l39.083 27.136z" />
<glyph unicode="&#xe968;" glyph-name="scissors" d="M875.776 33.664l-281.813 283.179c-11.435 11.563-11.392 30.123 0.085 41.685 11.477 11.307 29.952 11.349 41.557-0.341l326.4-327.851c0.213-0.512 0.427-0.811 0.64-1.28l-45.824-7.851c-16.555-3.115-29.141 1.024-41.045 12.459zM961.963 864.555c-0.043 0.043-0.043 0.085-0.213 0.128-0.043 0.043-0.085 0.043-0.128 0.085l0.341-0.213zM347.008 203.734c-0.768-0.811-1.707-0.939-2.389-1.664 17.024-25.045 27.136-55.637 27.136-88.149 0-86.613-69.547-156.587-155.307-156.587s-155.349 69.973-155.349 156.587c0 86.272 69.547 156.245 155.349 156.245 32.512 0 62.635-10.112 87.509-27.136 0.512 0.512 0.811 1.323 1.365 2.048l180.395 181.589-180.395 181.589c-0.555 0.725-0.853 1.536-1.365 2.048-24.875-16.981-55.040-27.136-87.509-27.136-85.76 0-155.349 69.973-155.349 156.331 0 86.528 69.547 156.501 155.349 156.501 85.717 0 155.307-69.973 155.307-156.501 0-32.597-10.069-63.147-27.136-88.192 0.683-0.768 1.621-0.896 2.389-1.707l180.053-181.376 348.373 350.976c11.605 10.88 24.149 14.805 40.192 11.989l45.995-7.893 1.28 1.109c-0.384-0.299-0.469-0.896-0.896-1.451l-614.997-619.221zM313.045 739.499c0 53.973-43.392 97.835-96.64 97.835s-96.683-43.861-96.683-97.835c0-54.016 43.435-97.664 96.683-97.664s96.64 43.648 96.64 97.664zM313.045 113.92c0 53.973-43.392 97.579-96.64 97.579s-96.683-43.605-96.683-97.579c0-54.016 43.435-97.92 96.683-97.92s96.64 43.904 96.64 97.92z" />
<glyph unicode="&#xe969;" glyph-name="dice" horiz-adv-x="850" d="M425.39 937.274l-365.018-255.42-6.502-6.502-51.548-36.223v-423.532l423.068-300.002 424.925 300.466v421.674zM405.42 849.038c5.33 4.598 12.322 7.398 19.969 7.398s14.64-2.8 20.009-7.431l-0.040 0.033 300.931-212.23-300.931-210.373c-5.424-4.351-12.389-6.983-19.969-6.983s-14.546 2.632-20.032 7.032l0.063-0.049-301.859 212.23zM60.372 245.319v350.621l334.832-236.844v-350.621zM455.576 8.476v350.621l334.367 236.379v-350.157zM134.676 480.305c-25.078 11.61-46.44 0-46.44-24.613 2.761-29.808 20.716-54.869 45.957-67.582l0.483-0.22c25.542-11.61 46.44 0 46.44 24.613-2.668 29.84-20.657 54.939-45.956 67.583l-0.484 0.219zM227.091 345.165c-25.542 11.61-46.44 0-46.44-24.613 2.573-29.872 20.597-55.010 45.955-67.585l0.485-0.217c25.542-11.61 46.44 0 46.44 24.613-2.573 29.872-20.597 55.010-45.955 67.585l-0.485 0.217zM320.435 208.167c-25.078 11.61-46.44 0-46.44-24.613 2.761-29.808 20.716-54.869 45.957-67.582l0.483-0.22c25.542-11.61 46.44 0 46.44 24.613-2.668 29.84-20.657 54.939-45.956 67.583l-0.484 0.219zM704.029 472.875c-25.781-12.643-43.797-37.617-46.417-67.022l-0.023-0.316c0-25.542 20.898-36.688 46.44-24.613 25.783 12.863 43.772 37.962 46.417 67.481l0.023 0.321c0 24.149-19.505 35.759-46.44 24.149zM561.923 240.675c-25.903-12.496-43.991-37.551-46.42-67.044l-0.019-0.294c0-25.542 20.898-36.688 46.44-24.613 25.903 12.496 43.991 37.551 46.42 67.044l0.019 0.294c-0.464 24.613-20.898 36.688-46.44 24.613zM487.619 658.634c0 25.078-28.328 46.44-63.623 46.44s-64.087-20.898-64.087-46.44 28.793-46.44 65.48-46.44 62.229 20.434 62.229 46.44z" />
<glyph unicode="&#xe96a;" glyph-name="book" d="M847.061 798.592c0 1.109 0.256 2.261 0 3.541-0.512 2.005-0.896 4.096-2.005 5.717-7.723 11.093-20.096 14.123-33.323 8.448-129.109-55.125-258.176-110.165-387.2-165.803-22.187-9.429-44.587-16.896-68.992-17.707-37.333-1.237-73.131 4.821-106.667 21.333-3.285 1.749-6.4 3.755-10.069 6.144 1.92 0.981 3.157 1.536 4.267 2.048 122.667 52.395 245.205 104.704 367.829 157.013 1.792 0.768 4.437 0.853 6.229 0.171 15.573-6.315 31.061-13.099 46.549-19.584 1.536-0.597 3.243-1.195 5.547-2.133 0 2.176 0 3.883 0 5.504 0 19.669 0.043 39.552 0 59.307 0 2.987-0.043 6.016-0.555 8.832-3.029 18.688-20.693 30.080-39.552 21.973-133.547-57.387-267.392-114.432-400.939-171.52-6.997-2.944-13.995-6.272-20.437-9.984-20.48-12.331-31.061-30.080-30.976-54.485 0.213-201.643 0.171-403.157 0.085-604.8 0-20.181 7.424-36.693 22.912-49.664 4.48-3.84 9.173-7.381 14.123-10.624 27.307-17.579 57.856-26.539 89.771-31.275 9.984-1.579 20.053-2.56 30.165-3.669 9.088 0 18.176 0 27.349 0 1.877 0.256 3.797 0.811 5.76 0.896 21.632 1.877 42.496 6.528 62.464 15.104 117.76 50.432 235.605 100.949 353.408 151.253 16.853 7.125 33.664 14.251 50.475 21.632 8.789 3.84 14.037 9.771 13.952 20.693-0.213 210.347-0.171 420.992-0.171 631.637zM406.229 27.222c-13.269-5.632-51.541-11.349-68.992-11.221-20.096 0.171-60.843 7.083-78.165 18.219-3.541 2.133-22.059 11.733-24.405 13.696-0.085 332.075 0 0 0 548.053 34.389-14.677 72.32-21.291 111.872-21.973 40.149-0.683 77.952 12.843 101.163 22.528 100.437 43.477 200.917 86.187 301.355 129.109l39.381 16.981c0 0-0.085-381.781 0.043-551.723l-382.251-163.669z" />
<glyph unicode="&#xe96b;" glyph-name="books" d="M979.2 62.806l-109.056 395.861c-8.533 31.232-40.917 49.579-72.107 41.088l-113.152-31.147c-31.189-8.704-49.579-40.917-40.917-72.235l109.056-395.861c8.533-31.232 40.875-49.579 72.064-41.045l113.152 31.147c31.189 8.704 49.579 40.875 40.96 72.192zM809.515 16l-109.013 395.947 113.152 31.147 109.013-395.947-113.152-31.147zM277.333 720h-176c-32.427 0-58.667-26.325-58.667-58.667v-645.291c0-32.299 26.24-58.667 58.667-58.667h176c32.427 0 58.667 26.368 58.667 58.667v645.291c0 32.341-26.24 58.667-58.667 58.667zM277.333 16.043h-176v176h176v-176zM277.333 250.71h-176v410.624h176v-410.624zM575.36 896h-117.333c-32.299 0-58.667-26.368-58.667-58.667v-821.291c0-32.299 26.368-58.667 58.667-58.667h117.333c32.427 0 58.667 26.368 58.667 58.667v821.291c0 32.299-26.197 58.667-58.667 58.667zM575.36 16.043h-117.333v117.333h117.333v-117.333zM575.36 192.043h-117.333v645.291h117.333v-645.291z" />
<glyph unicode="&#xe96c;" glyph-name="graduation_cap" d="M980.565 547.926c-0.939 7.936-3.797 14.421-7.936 20.224h-0.043c-3.115 4.181-5.931 8.064-10.88 11.605l-447.787 316.245-451.925-319.104c-4.139-2.901-6.528-6.357-9.173-9.813-4.992-6.357-8.363-13.269-9.387-22.016l-0.768-13.611 0.768-13.227c0.939-7.936 3.797-14.421 7.936-20.309l0.043 0.043c3.115-3.797 5.931-8.021 10.88-11.563l97.749-68.949v-196.267h2.432c2.56-10.795 7.509-19.797 17.92-27.221l331.605-236.629 176 122.624v-56.747c0.043-17.195 5.461-28.544 19.584-38.443l39.083-27.435v163.285l96.981 67.627c13.995 9.941 20.352 20.992 20.352 37.931v194.133l98.005 68.949c4.139 3.157 6.528 6.357 9.173 9.813 4.992 6.357 8.363 13.483 9.429 22.016l0.725 13.483-0.768 13.355zM531.584 42.582c-6.571-4.565-13.099-6.699-19.584-6.699s-13.013 2.133-19.584 6.699l-273.749 195.328v138.112l291.413-205.867 177.92 125.653v-144.299l-156.416-108.928zM805.333 233.174l-58.667-40.917v145.195l58.667 41.429v-145.707zM726.485 394.667c-0.085 0.043-0.085 0.128-0.171 0.171l-214.315 148.907v-47.701c0-17.237 6.315-28.245 20.267-38.187l143.232-99.243-165.333-116.949-410.496 290.176 414.208 292.651 410.496-289.963-197.888-139.861z" />
<glyph unicode="&#xe96d;" glyph-name="message" d="M831.445 896h-638.891c-82.645 0-149.888-67.243-149.888-149.888v-730.112c0-23.723 14.293-45.184 36.224-54.229 7.253-3.029 14.891-4.437 22.443-4.437 15.232 0 30.251 5.973 41.472 17.152l165.333 165.291h523.264c82.645 0 149.888 67.328 149.888 150.059v456.277c0.043 82.645-67.2 149.888-149.845 149.888zM922.667 289.835c0-50.475-40.875-91.392-91.221-91.392h-547.584l-182.528-182.443v730.112c0 50.389 40.875 91.221 91.221 91.221h638.891c50.389 0 91.221-40.832 91.221-91.221v-456.277z" />
<glyph unicode="&#xe96e;" glyph-name="messages" d="M712.277 896h-519.723c-82.603 0-149.888-67.157-149.888-150.016v-612.651c0-23.765 14.251-45.099 36.224-54.187 7.296-2.944 14.976-4.48 22.443-4.48 15.189 0 30.251 5.845 41.429 17.237l165.376 165.205h404.139c82.603 0 151.723 63.275 151.723 145.963v339.029c0 82.56-69.12 153.899-151.723 153.899zM805.333 403.072c0-50.475-42.667-87.296-93.056-87.296h-428.459l-182.485-182.443v612.651c0 50.389 40.832 91.349 91.221 91.349h519.723c50.389 0 93.056-44.885 93.056-95.232v-339.029zM981.333 628.651v-612.651c0-23.765-14.251-45.099-36.224-54.187-7.296-2.944-14.933-4.48-22.443-4.48-15.189 0-30.251 5.845-41.429 17.237l-165.376 165.205h-404.139c-34.091 0-65.579 11.179-91.179 29.867l42.069 41.813c14.336-8.235 31.189-13.056 49.109-13.056h428.459l182.485-182.443v612.693c0 38.997-24.363 71.979-58.667 85.035v28.416c0 11.605-1.707 22.784-4.181 33.749 69.12-13.483 121.515-74.197 121.515-147.2z" />
</font>
</defs>
</svg>
