<!-- Generated by IcoMoon.io -->
<svg version="1.1" xmlns="http://www.w3.org/2000/svg" width="16" height="16" viewBox="0 0 16 16">
<title>account_activity</title>
<path fill="#444" d="M9 0l0.227 0.012c0.146 0.018 0.267 0.077 0.375 0.162 0.058 0.044 0.115 0.086 0.166 0.156l5.42 7.67h-0.814c-0.291 0-0.48-0.107-0.648-0.347l-3.726-5.264v12.488c-0.001 0.293-0.093 0.488-0.333 0.656l-0.667 0.467v-16zM7 0l-0.667 0.467c-0.24 0.168-0.332 0.363-0.333 0.656v12.488l-3.725-5.264c-0.168-0.24-0.357-0.347-0.648-0.347h-0.815l5.42 7.67c0.051 0.070 0.107 0.112 0.166 0.156 0.107 0.085 0.229 0.144 0.375 0.162l0.227 0.012v-16z"></path>
</svg>
