<!-- Generated by IcoMoon.io -->
<svg version="1.1" xmlns="http://www.w3.org/2000/svg" width="24" height="24" viewBox="0 0 24 24">
<title>account_activity</title>
<path fill="#444" d="M13.375 1l0.309 0.018c0.205 0.024 0.373 0.104 0.516 0.221 0.082 0.062 0.162 0.118 0.23 0.215l7.453 10.546h-1.119c-0.402 0-0.662-0.148-0.895-0.476l-5.119-7.239v17.17c-0.001 0.404-0.128 0.673-0.456 0.902l-0.919 0.643v-22zM10.625 1l-0.919 0.643c-0.328 0.229-0.455 0.498-0.456 0.902v17.17l-5.119-7.239c-0.233-0.328-0.492-0.476-0.895-0.476h-1.119l7.453 10.547c0.068 0.097 0.148 0.153 0.23 0.215 0.143 0.117 0.311 0.196 0.516 0.221l0.309 0.017v-22z"></path>
</svg>
