<!-- Generated by IcoMoon.io -->
<svg version="1.1" xmlns="http://www.w3.org/2000/svg" width="16" height="16" viewBox="0 0 16 16">
<title>airplane</title>
<path fill="#444" d="M15.273 8.334l-5.773-4.085v-2.345c-0.012-0.39-0.232-0.922-0.488-1.229l-0.17-0.244c-0.183-0.263-0.519-0.424-0.838-0.431-0.008 0-0.016 0-0.025 0-0.324 0-0.628 0.157-0.816 0.423l-0.177 0.255c-0.291 0.349-0.475 0.897-0.486 1.255v2.312l-5.77 4.059c-0.484 0.34-0.73 0.806-0.73 1.387v0.712c0 0.35 0.183 0.674 0.482 0.855 0.159 0.096 0.338 0.145 0.518 0.145 0.159 0 0.318-0.038 0.464-0.115l5.036-2.635v4.664l-0.776 1.108c-0.214 0.307-0.24 0.705-0.068 1.036 0.173 0.332 0.514 0.539 0.887 0.539h2.913c0.373 0 0.715-0.207 0.887-0.538s0.146-0.729-0.068-1.036l-0.775-1.109v-4.657l5.034 2.655c0.146 0.077 0.306 0.115 0.466 0.115 0.179 0 0.358-0.049 0.517-0.144 0.3-0.182 0.483-0.506 0.483-0.856v-0.711c0-0.581-0.246-1.048-0.727-1.385zM15 10.431l-6.5-3.429v6.315c0 0.205 0.063 0.405 0.181 0.573l0.776 1.11h-2.914l0.776-1.109c0.118-0.168 0.181-0.369 0.181-0.574v-6.316l-6.5 3.402v-0.712c0-0.255 0.094-0.421 0.304-0.568l6.196-4.358v-2.832c0.003-0.11 0.11-0.439 0.254-0.614l0.225-0.319 0.040 0.001 0.17 0.245c0.2 0.243 0.308 0.573 0.311 0.689v2.832l6.196 4.384c0.21 0.147 0.304 0.313 0.304 0.568v0.712z"></path>
</svg>
