<!-- Generated by IcoMoon.io -->
<svg version="1.1" xmlns="http://www.w3.org/2000/svg" width="24" height="24" viewBox="0 0 24 24">
<title>airplane</title>
<path d="M22.001 12.459l-7.938-5.616v-3.225c-0.016-0.535-0.32-1.268-0.671-1.69l-0.234-0.336c-0.252-0.362-0.714-0.582-1.153-0.592-0.011 0-0.022 0-0.034 0-0.446 0-0.865 0.216-1.123 0.581l-0.243 0.351c-0.401 0.48-0.654 1.234-0.669 1.726v3.18l-7.933 5.581c-0.665 0.466-1.003 1.107-1.003 1.907v0.979c0 0.48 0.251 0.927 0.663 1.176 0.219 0.132 0.465 0.199 0.712 0.199 0.219 0 0.438-0.053 0.638-0.158l6.925-3.623v6.413l-1.067 1.524c-0.294 0.421-0.33 0.969-0.093 1.424 0.236 0.455 0.706 0.74 1.219 0.74h4.006c0.513 0 0.983-0.285 1.22-0.74 0.236-0.455 0.201-1.003-0.093-1.424l-1.067-1.524v-6.403l6.921 3.65c0.201 0.106 0.421 0.158 0.641 0.158 0.247 0 0.492-0.066 0.71-0.197 0.413-0.25 0.665-0.696 0.665-1.178v-0.979c0-0.799-0.338-1.44-0.999-1.904zM21.625 15.342l-8.938-4.714v8.684c0 0.282 0.086 0.558 0.249 0.788l1.067 1.525h-4.006l1.067-1.525c0.162-0.23 0.249-0.506 0.249-0.788v-8.686l-8.938 4.679v-0.979c0-0.351 0.129-0.579 0.418-0.782l8.519-5.992v-3.895c0.005-0.151 0.152-0.604 0.35-0.845l0.31-0.438 0.055 0.001 0.234 0.337c0.273 0.335 0.421 0.789 0.426 0.947v3.894l8.519 6.028c0.29 0.202 0.418 0.431 0.418 0.781v0.98z"></path>
</svg>
