<!-- Generated by IcoMoon.io -->
<svg version="1.1" xmlns="http://www.w3.org/2000/svg" width="24" height="24" viewBox="0 0 24 24">
<title>anchor</title>
<path fill="#444" d="M23.25 11.25h-1.747c-0.438 0.002-0.745 0.161-0.997 0.522l-0.678 0.969c0.017 0 0.030 0.009 0.048 0.009h2.595c-0.394 4.797-4.546 8.625-9.719 8.967v-13.918c0-0.029-0.014-0.053-0.016-0.080 1.509-0.312 2.64-1.564 2.64-3.069 0-1.742-1.512-3.15-3.375-3.15s-3.375 1.409-3.375 3.15c0 1.504 1.132 2.757 2.643 3.071-0.005 0.026-0.018 0.051-0.018 0.078v13.917c-5.172-0.34-9.324-4.168-9.718-8.965h1.014c0.438-0.002 0.745-0.16 0.998-0.522l0.672-0.96c-0.032-0.003-0.059-0.018-0.090-0.018h-3.375c-0.414 0-0.75 0.336-0.75 0.75 0 6.204 5.383 11.25 12 11.25s12-5.046 12-11.25c0-0.414-0.336-0.75-0.75-0.75zM10.125 4.65c0-0.91 0.841-1.65 1.875-1.65 1.035 0 1.875 0.739 1.875 1.65s-0.84 1.648-1.875 1.648c-1.034 0-1.875-0.739-1.875-1.649z"></path>
</svg>
