<!-- Generated by IcoMoon.io -->
<svg version="1.1" xmlns="http://www.w3.org/2000/svg" width="16" height="16" viewBox="0 0 16 16">
<title>anchor</title>
<path fill="#444" d="M15.5 7.5h-1.165c-0.292 0.001-0.497 0.107-0.665 0.348l-0.452 0.646c0.011 0 0.020 0.006 0.032 0.006h1.73c-0.263 3.198-3.031 5.75-6.479 5.978v-9.279c0-0.019-0.009-0.035-0.011-0.053 1.006-0.208 1.76-1.043 1.76-2.046 0-1.161-1.008-2.1-2.25-2.1s-2.25 0.939-2.25 2.1c0 1.003 0.755 1.838 1.762 2.047-0.003 0.017-0.012 0.034-0.012 0.052v9.278c-3.448-0.227-6.216-2.779-6.479-5.977h0.676c0.292-0.001 0.497-0.107 0.665-0.348l0.448-0.64c-0.021-0.002-0.039-0.012-0.060-0.012h-2.25c-0.276 0-0.5 0.224-0.5 0.5 0 4.136 3.589 7.5 8 7.5s8-3.364 8-7.5c0-0.276-0.224-0.5-0.5-0.5zM6.75 3.1c0-0.607 0.561-1.1 1.25-1.1s1.25 0.493 1.25 1.1-0.56 1.099-1.25 1.099c-0.689 0-1.25-0.493-1.25-1.099z"></path>
</svg>
