<!-- Generated by IcoMoon.io -->
<svg version="1.1" xmlns="http://www.w3.org/2000/svg" width="24" height="24" viewBox="0 0 24 24">
<title>anchor</title>
<path d="M22.312 10.969h-1.602c-0.401 0.001-0.683 0.147-0.915 0.479l-0.622 0.887c0.016 0.002 0.028 0.010 0.044 0.010h2.378c-0.362 4.397-4.167 7.906-8.909 8.219v-12.759c0-0.025-0.012-0.048-0.015-0.072 1.384-0.287 2.421-1.436 2.421-2.814 0-1.595-1.386-2.887-3.094-2.887s-3.095 1.292-3.095 2.887c0 1.379 1.038 2.527 2.422 2.814-0.003 0.024-0.015 0.047-0.015 0.072v12.758c-4.742-0.312-8.548-3.821-8.91-8.219h0.929c0.401-0.001 0.683-0.147 0.915-0.479l0.616-0.881c-0.028-0.002-0.053-0.016-0.082-0.016h-3.090c-0.38 0.001-0.688 0.308-0.688 0.688 0 5.687 4.935 10.312 11 10.312s11-4.626 11-10.312c0-0.38-0.308-0.687-0.688-0.687zM10.281 4.918c0-0.834 0.771-1.512 1.72-1.512 0.948 0 1.719 0.678 1.719 1.512s-0.771 1.512-1.72 1.512c-0.948 0-1.719-0.678-1.719-1.512z"></path>
</svg>
