<!-- Generated by IcoMoon.io -->
<svg version="1.1" xmlns="http://www.w3.org/2000/svg" width="24" height="24" viewBox="0 0 24 24">
<title>arrow-top</title>
<path fill="#444" d="M10.842 7.156c0.090-0.126 0.192-0.198 0.293-0.277l-0.002-0.002c0.155-0.105 0.321-0.178 0.521-0.204l0.345-0.018 0.343 0.018c0.219 0.029 0.401 0.115 0.563 0.243 0.087 0.066 0.174 0.129 0.251 0.236l0.688 0.984h0.002l10.155 14.364h-1.22c-0.438 0-0.72-0.16-0.974-0.52l-9.807-13.865-9.804 13.865c-0.254 0.36-0.535 0.52-0.975 0.52h-1.221l10.842-15.343zM13.5 3c0-0.829-0.67-1.5-1.5-1.5s-1.5 0.671-1.5 1.5 0.671 1.5 1.5 1.5 1.5-0.671 1.5-1.5z"></path>
</svg>
