<!-- Generated by IcoMoon.io -->
<svg version="1.1" xmlns="http://www.w3.org/2000/svg" width="24" height="24" viewBox="0 0 24 24">
<title>arrow-top</title>
<path fill="#444" d="M11.253 7.248c0.077-0.116 0.175-0.182 0.266-0.255l-0.001-0.001c0.144-0.097 0.296-0.163 0.476-0.186l0.318-0.018 0.317 0.018c0.199 0.024 0.366 0.104 0.516 0.221 0.075 0.062 0.156 0.118 0.225 0.215l0.635 0.902h0.002l9.307 13.168h-1.118c-0.403 0-0.662-0.148-0.896-0.476l-8.988-12.711-8.985 12.712c-0.233 0.327-0.491 0.476-0.896 0.476h-1.119l9.941-14.065zM8.42 2.688h6.244c0.402 0.001 0.671 0.129 0.902 0.459l0.641 0.916h-6.243c-0.402-0.001-0.671-0.128-0.902-0.459l-0.642-0.916z"></path>
</svg>
