<!-- Generated by IcoMoon.io -->
<svg version="1.1" xmlns="http://www.w3.org/2000/svg" width="24" height="24" viewBox="0 0 24 24">
<title>arrow-bottom</title>
<path fill="#444" d="M13.158 16.843c-0.090 0.126-0.192 0.198-0.293 0.277l0.001 0.002c-0.155 0.105-0.321 0.178-0.521 0.204l-0.345 0.018-0.344-0.018c-0.219-0.028-0.401-0.115-0.563-0.243-0.087-0.066-0.173-0.129-0.249-0.234l-0.688-0.984h-0.003l-10.155-14.365h1.22c0.438 0 0.72 0.16 0.974 0.521l9.807 13.864 9.804-13.864c0.254-0.36 0.535-0.52 0.975-0.52h1.221l-10.842 15.343zM10.5 21c0 0.83 0.671 1.5 1.5 1.5s1.5-0.67 1.5-1.5-0.67-1.5-1.5-1.5-1.5 0.67-1.5 1.5z"></path>
</svg>
