<!-- Generated by IcoMoon.io -->
<svg version="1.1" xmlns="http://www.w3.org/2000/svg" width="16" height="16" viewBox="0 0 16 16">
<title>arrow-first</title>
<path fill="#444" d="M4.771 8.772c-0.084-0.060-0.132-0.128-0.185-0.195l-0.001 0.001c-0.070-0.103-0.119-0.214-0.136-0.347l-0.012-0.23 0.012-0.229c0.019-0.146 0.077-0.267 0.162-0.375 0.044-0.058 0.086-0.116 0.157-0.167l0.656-0.459v-0.001l9.576-6.77v0.813c0 0.292-0.107 0.48-0.347 0.649l-9.243 6.538 9.243 6.536c0.24 0.169 0.347 0.357 0.347 0.65v0.814l-10.229-7.228zM2 7c-0.553 0-1 0.447-1 1s0.447 1 1 1 1-0.447 1-1-0.447-1-1-1z"></path>
</svg>
