<!-- Generated by IcoMoon.io -->
<svg version="1.1" xmlns="http://www.w3.org/2000/svg" width="24" height="24" viewBox="0 0 24 24">
<title>arrow-next-circle</title>
<path fill="#444" d="M12 23.625c6.616 0 12-5.217 12-11.625s-5.384-11.625-12-11.625-12 5.217-12 11.625 5.383 11.625 12 11.625zM12 1.875c5.79 0 10.5 4.54 10.5 10.125s-4.71 10.125-10.5 10.125-10.5-4.541-10.5-10.125 4.71-10.125 10.5-10.125zM16.962 10.842c0.126 0.090 0.198 0.192 0.277 0.293l0.002-0.002c0.105 0.155 0.178 0.321 0.204 0.521l0.018 0.345-0.018 0.343c-0.029 0.219-0.116 0.401-0.243 0.563-0.066 0.087-0.129 0.173-0.234 0.249l-0.984 0.688v0.003l-7.942 5.607v-1.22c0-0.438 0.161-0.72 0.52-0.973l7.44-5.259-7.443-5.258c-0.358-0.253-0.52-0.534-0.52-0.973v-1.223l8.924 6.295z"></path>
</svg>
