<!-- Generated by IcoMoon.io -->
<svg version="1.1" xmlns="http://www.w3.org/2000/svg" width="16" height="16" viewBox="0 0 16 16">
<title>arrow-down-circle</title>
<path fill="#444" d="M8 15.75c4.411 0 8-3.478 8-7.75s-3.589-7.75-8-7.75-8 3.478-8 7.75 3.589 7.75 8 7.75zM8 1.25c3.859 0 7 3.027 7 6.75s-3.141 6.75-7 6.75c-3.86 0-7-3.027-7-6.75s3.141-6.75 7-6.75zM8.772 11.308c-0.060 0.084-0.128 0.132-0.195 0.185l0.001 0.001c-0.103 0.070-0.214 0.119-0.347 0.136l-0.23 0.012-0.229-0.012c-0.146-0.019-0.267-0.077-0.375-0.162-0.058-0.044-0.115-0.086-0.166-0.156l-0.459-0.656h-0.002l-3.739-5.297h0.813c0.292 0 0.48 0.107 0.649 0.347l3.507 4.962 3.505-4.962c0.169-0.239 0.356-0.347 0.649-0.347h0.814l-4.196 5.949z"></path>
</svg>
