<!-- Generated by IcoMoon.io -->
<svg version="1.1" xmlns="http://www.w3.org/2000/svg" width="16" height="16" viewBox="0 0 16 16">
<title>arrow-first-circle</title>
<path fill="#444" d="M8 15.75c4.411 0 8-3.478 8-7.75s-3.589-7.75-8-7.75-8 3.478-8 7.75 3.589 7.75 8 7.75zM8 1.25c3.86 0 7 3.027 7 6.75s-3.14 6.75-7 6.75-7-3.027-7-6.75 3.14-6.75 7-6.75zM5.333 8.772c-0.084-0.060-0.132-0.128-0.185-0.195l-0.001 0.001c-0.070-0.103-0.119-0.214-0.136-0.347l-0.011-0.23 0.012-0.229c0.018-0.147 0.077-0.267 0.162-0.376 0.044-0.057 0.086-0.115 0.156-0.166l0.656-0.459v-0.001l5.295-3.738v0.813c0 0.292-0.107 0.48-0.347 0.649l-4.961 3.506 4.962 3.505c0.239 0.169 0.347 0.356 0.347 0.649v0.814l-5.949-4.196zM3 10.831v-4.541c0.001-0.293 0.094-0.488 0.333-0.656l0.667-0.466v4.54c-0.001 0.293-0.093 0.488-0.333 0.656l-0.667 0.467z"></path>
</svg>
