<!-- Generated by IcoMoon.io -->
<svg version="1.1" xmlns="http://www.w3.org/2000/svg" width="24" height="24" viewBox="0 0 24 24">
<title>arrow-up-circle</title>
<path fill="#444" d="M12 22.656c6.066 0 11-4.784 11-10.656s-4.934-10.656-11-10.656-11 4.784-11 10.656 4.934 10.656 11 10.656zM12 2.719c5.307 0 9.625 4.164 9.625 9.281s-4.318 9.281-9.625 9.281c-5.308 0-9.625-4.164-9.625-9.281s4.318-9.281 9.625-9.281zM10.94 8.141c0.077-0.116 0.175-0.182 0.266-0.255l-0.001-0.001c0.144-0.097 0.296-0.163 0.476-0.186l0.318-0.018 0.317 0.018c0.199 0.024 0.366 0.104 0.516 0.221 0.075 0.062 0.156 0.118 0.225 0.215l0.635 0.902h0.002l5.139 7.281h-1.118c-0.403 0-0.662-0.148-0.896-0.476l-4.819-6.824-4.817 6.825c-0.233 0.327-0.491 0.476-0.896 0.476h-1.119l5.772-8.178z"></path>
</svg>
