<!-- Generated by IcoMoon.io -->
<svg version="1.1" xmlns="http://www.w3.org/2000/svg" width="16" height="16" viewBox="0 0 16 16">
<title>arrow-up-circle</title>
<path fill="#444" d="M8 0.25c-4.411 0-8 3.478-8 7.75s3.589 7.75 8 7.75 8-3.478 8-7.75-3.589-7.75-8-7.75zM8 14.75c-3.859 0-7-3.027-7-6.75s3.141-6.75 7-6.75c3.86 0 7 3.027 7 6.75s-3.141 6.75-7 6.75zM7.228 4.692c0.060-0.084 0.128-0.132 0.195-0.185h-0.001c0.103-0.070 0.214-0.119 0.347-0.136l0.23-0.012 0.229 0.012c0.147 0.019 0.267 0.077 0.376 0.162 0.057 0.044 0.115 0.086 0.166 0.156l0.459 0.656h0.001l3.738 5.295h-0.813c-0.292 0-0.48-0.107-0.649-0.347l-3.506-4.961-3.505 4.962c-0.169 0.239-0.356 0.347-0.649 0.347h-0.815l4.197-5.949z"></path>
</svg>
