<!-- Generated by IcoMoon.io -->
<svg version="1.1" xmlns="http://www.w3.org/2000/svg" width="24" height="24" viewBox="0 0 24 24">
<title>arrow-last</title>
<path fill="#444" d="M16.752 10.94c0.116 0.077 0.182 0.175 0.255 0.266l0.001-0.001c0.097 0.144 0.163 0.296 0.186 0.476l0.018 0.318-0.018 0.317c-0.024 0.199-0.104 0.366-0.221 0.516-0.062 0.075-0.118 0.156-0.215 0.225l-0.902 0.635v0.002l-13.168 9.306v-1.118c0-0.403 0.148-0.662 0.476-0.896l12.711-8.986-12.712-8.985c-0.327-0.234-0.475-0.492-0.475-0.896v-1.119l14.064 9.94zM21.312 8.107v6.244c-0.001 0.402-0.129 0.671-0.459 0.902l-0.916 0.641v-6.243c0.001-0.402 0.128-0.671 0.458-0.902l0.917-0.642z"></path>
</svg>
