<!-- Generated by IcoMoon.io -->
<svg version="1.1" xmlns="http://www.w3.org/2000/svg" width="24" height="24" viewBox="0 0 24 24">
<title>arrow-bottom</title>
<path d="M13.060 16.752c-0.077 0.116-0.175 0.182-0.266 0.255l0.001 0.001c-0.144 0.097-0.296 0.163-0.476 0.186l-0.318 0.018-0.317-0.018c-0.199-0.024-0.366-0.104-0.516-0.221-0.075-0.062-0.156-0.118-0.225-0.215l-0.635-0.902h-0.002l-9.306-13.168h1.118c0.403 0 0.662 0.148 0.896 0.476l8.986 12.711 8.985-12.712c0.233-0.327 0.491-0.476 0.896-0.476h1.119l-9.94 14.065zM15.893 21.312h-6.245c-0.402-0.001-0.671-0.129-0.902-0.459l-0.641-0.916h6.243c0.402 0.001 0.671 0.128 0.902 0.458l0.643 0.917z"></path>
</svg>
