<!-- Generated by IcoMoon.io -->
<svg version="1.1" xmlns="http://www.w3.org/2000/svg" width="24" height="24" viewBox="0 0 24 24">
<title>arrow-previous-circle</title>
<path fill="#444" d="M12 0.375c-6.616 0-12 5.217-12 11.625s5.383 11.625 12 11.625 12-5.217 12-11.625-5.384-11.625-12-11.625zM12 22.125c-5.788 0-10.5-4.541-10.5-10.125s4.712-10.125 10.5-10.125c5.79 0 10.5 4.54 10.5 10.125s-4.712 10.125-10.5 10.125zM7.038 13.158c-0.126-0.090-0.198-0.192-0.277-0.293v0.001c-0.105-0.155-0.178-0.321-0.204-0.521l-0.018-0.345 0.018-0.344c0.029-0.221 0.115-0.401 0.243-0.564 0.066-0.085 0.129-0.172 0.234-0.249l0.984-0.689v-0.002l7.943-5.607v1.22c0 0.438-0.16 0.72-0.52 0.973l-7.442 5.259 7.443 5.258c0.359 0.253 0.521 0.534 0.521 0.974v1.221l-8.924-6.294z"></path>
</svg>
