<!-- Generated by IcoMoon.io -->
<svg version="1.1" xmlns="http://www.w3.org/2000/svg" width="24" height="24" viewBox="0 0 24 24">
<title>arrow-previous-circle</title>
<path fill="#444" d="M12 1.344c-6.066 0-11 4.784-11 10.656s4.934 10.656 11 10.656 11-4.784 11-10.656-4.934-10.656-11-10.656zM12 21.281c-5.307 0-9.625-4.164-9.625-9.281s4.318-9.281 9.625-9.281c5.308 0 9.625 4.164 9.625 9.281s-4.318 9.281-9.625 9.281zM7.453 13.060c-0.116-0.077-0.182-0.175-0.255-0.266l-0.001 0.001c-0.097-0.144-0.163-0.296-0.186-0.476l-0.018-0.318 0.018-0.317c0.024-0.199 0.104-0.366 0.221-0.516 0.062-0.075 0.118-0.156 0.215-0.225l0.902-0.635v-0.002l7.281-5.139v1.118c0 0.403-0.148 0.662-0.476 0.896l-6.824 4.819 6.825 4.817c0.327 0.233 0.476 0.491 0.476 0.896v1.119l-8.178-5.772z"></path>
</svg>
