<!-- Generated by IcoMoon.io -->
<svg version="1.1" xmlns="http://www.w3.org/2000/svg" width="24" height="24" viewBox="0 0 24 24">
<title>arrow-left-right</title>
<path fill="#444" d="M23 13.375l-0.018 0.309c-0.024 0.205-0.104 0.373-0.221 0.516-0.062 0.082-0.118 0.162-0.215 0.23l-10.546 7.453v-1.119c0-0.402 0.148-0.662 0.476-0.895l7.239-5.119h-17.17c-0.404-0.001-0.673-0.128-0.902-0.456l-0.643-0.919h22zM23 10.625l-0.643-0.919c-0.229-0.328-0.498-0.455-0.902-0.456h-17.17l7.239-5.119c0.328-0.233 0.476-0.492 0.476-0.895v-1.119l-10.547 7.453c-0.097 0.069-0.153 0.149-0.215 0.231-0.117 0.143-0.196 0.311-0.221 0.516l-0.017 0.308h22z"></path>
</svg>
