<!-- Generated by IcoMoon.io -->
<svg version="1.1" xmlns="http://www.w3.org/2000/svg" width="16" height="16" viewBox="0 0 16 16">
<title>arrow-left-right</title>
<path fill="#444" d="M16 9l-0.012 0.227c-0.019 0.146-0.077 0.268-0.162 0.375-0.044 0.058-0.086 0.115-0.156 0.166l-7.67 5.42v-0.814c0-0.291 0.107-0.48 0.347-0.648l5.264-3.726h-12.488c-0.293-0.001-0.488-0.093-0.656-0.333l-0.467-0.667h16zM16 7l-0.467-0.667c-0.168-0.24-0.363-0.332-0.656-0.333h-12.488l5.265-3.725c0.239-0.168 0.346-0.357 0.346-0.648v-0.815l-7.67 5.42c-0.070 0.051-0.112 0.108-0.156 0.166-0.085 0.108-0.144 0.229-0.162 0.375l-0.012 0.227h16z"></path>
</svg>
