<!-- Generated by IcoMoon.io -->
<svg version="1.1" xmlns="http://www.w3.org/2000/svg" width="16" height="16" viewBox="0 0 16 16">
<title>arrow-last</title>
<path fill="#444" d="M11.229 7.228c0.084 0.060 0.132 0.128 0.185 0.195l0.001-0.001c0.070 0.103 0.119 0.214 0.136 0.347l0.012 0.23-0.012 0.229c-0.019 0.146-0.077 0.267-0.162 0.375-0.044 0.058-0.086 0.115-0.156 0.166l-0.656 0.459v0.002l-9.577 6.77v-0.813c0-0.292 0.107-0.48 0.347-0.649l9.243-6.538-9.243-6.536c-0.24-0.169-0.347-0.357-0.347-0.65v-0.814l10.229 7.228zM14 9c0.553 0 1-0.447 1-1s-0.447-1-1-1-1 0.447-1 1 0.447 1 1 1z"></path>
</svg>
