<!-- Generated by IcoMoon.io -->
<svg version="1.1" xmlns="http://www.w3.org/2000/svg" width="24" height="24" viewBox="0 0 24 24">
<title>arrow-left-right</title>
<path fill="#444" d="M24 13.5l-0.018 0.341c-0.029 0.219-0.116 0.402-0.243 0.563-0.066 0.087-0.129 0.173-0.234 0.249l-11.505 8.13v-1.221c0-0.436 0.16-0.72 0.521-0.972l7.896-5.589h-18.732c-0.439-0.002-0.732-0.139-0.984-0.5l-0.701-1h24zM24 10.5l-0.701-1c-0.252-0.36-0.544-0.498-0.984-0.5h-18.732l7.897-5.588c0.358-0.252 0.519-0.535 0.519-0.972v-1.222l-11.505 8.13c-0.105 0.076-0.168 0.162-0.234 0.249-0.128 0.162-0.216 0.344-0.243 0.563l-0.018 0.341h24z"></path>
</svg>
