<!-- Generated by IcoMoon.io -->
<svg version="1.1" xmlns="http://www.w3.org/2000/svg" width="24" height="24" viewBox="0 0 24 24">
<title>arrow-last-circle</title>
<path d="M1 12c0 5.875 4.935 10.656 11 10.656s11-4.781 11-10.656-4.935-10.656-11-10.656-11 4.781-11 10.656zM21.625 12c0 5.119-4.318 9.281-9.625 9.281s-9.625-4.162-9.625-9.281 4.318-9.281 9.625-9.281 9.625 4.162 9.625 9.281zM15.667 10.938c0.115 0.081 0.182 0.176 0.254 0.269l0.001-0.002c0.097 0.142 0.164 0.294 0.188 0.477l0.016 0.317-0.016 0.315c-0.026 0.201-0.106 0.366-0.224 0.516-0.061 0.079-0.118 0.158-0.215 0.229l-8.183 5.773v-1.119c0-0.4 0.147-0.66 0.477-0.893l6.822-4.82-6.822-4.819c-0.329-0.233-0.477-0.491-0.477-0.893v-1.12l8.179 5.77zM18.875 8.107v6.244c-0.001 0.402-0.129 0.671-0.459 0.902l-0.916 0.642v-6.244c0.001-0.402 0.128-0.671 0.458-0.902l0.917-0.642z"></path>
</svg>
