<!-- Generated by IcoMoon.io -->
<svg version="1.1" xmlns="http://www.w3.org/2000/svg" width="24" height="24" viewBox="0 0 24 24">
<title>arrow-down-circle</title>
<path fill="#444" d="M12 22.656c6.066 0 11-4.784 11-10.656s-4.934-10.656-11-10.656-11 4.784-11 10.656 4.934 10.656 11 10.656zM12 2.719c5.307 0 9.625 4.164 9.625 9.281s-4.318 9.281-9.625 9.281c-5.308 0-9.625-4.164-9.625-9.281s4.318-9.281 9.625-9.281zM13.060 15.859c-0.077 0.116-0.175 0.182-0.266 0.255l0.001 0.001c-0.144 0.097-0.296 0.163-0.476 0.186l-0.318 0.018-0.317-0.018c-0.199-0.024-0.366-0.104-0.516-0.221-0.075-0.062-0.156-0.118-0.225-0.215l-0.635-0.902h-0.002l-5.138-7.281h1.118c0.403 0 0.662 0.148 0.896 0.476l4.818 6.824 4.817-6.825c0.233-0.327 0.491-0.476 0.896-0.476h1.119l-5.772 8.178z"></path>
</svg>
