<!-- Generated by IcoMoon.io -->
<svg version="1.1" xmlns="http://www.w3.org/2000/svg" width="24" height="24" viewBox="0 0 24 24">
<title>arrow-first</title>
<path fill="#444" d="M7.156 13.158c-0.126-0.090-0.198-0.192-0.277-0.293l-0.002 0.001c-0.105-0.155-0.178-0.321-0.204-0.521l-0.018-0.345 0.018-0.344c0.029-0.219 0.115-0.401 0.243-0.563 0.066-0.087 0.129-0.174 0.236-0.251l0.984-0.688v-0.002l14.364-10.155v1.22c0 0.438-0.16 0.72-0.52 0.974l-13.865 9.807 13.865 9.804c0.36 0.254 0.52 0.535 0.52 0.975v1.221l-15.343-10.842zM3 10.5c-0.829 0-1.5 0.671-1.5 1.5s0.671 1.5 1.5 1.5 1.5-0.67 1.5-1.5-0.671-1.5-1.5-1.5z"></path>
</svg>
