<!-- Generated by IcoMoon.io -->
<svg version="1.1" xmlns="http://www.w3.org/2000/svg" width="24" height="24" viewBox="0 0 24 24">
<title>arrow_positive</title>
<path d="M4.609 12.118c0.403 0 0.661-0.148 0.893-0.476l5.796-8.196v19.554l0.918-0.688c0.331-0.247 0.481-0.461 0.482-0.893v-17.977l5.799 8.2c0.232 0.327 0.491 0.476 0.893 0.476h1.118l-7.451-10.547c-0.070-0.097-0.149-0.153-0.228-0.215-0.149-0.117-0.315-0.196-0.516-0.221l-0.316-0.018-0.317 0.018c-0.183 0.022-0.336 0.089-0.477 0.186l0.001 0.001c-0.092 0.073-0.186 0.139-0.269 0.255l-7.445 10.541h1.119z"></path>
</svg>
