<!-- Generated by IcoMoon.io -->
<svg version="1.1" xmlns="http://www.w3.org/2000/svg" width="24" height="24" viewBox="0 0 24 24">
<title>arrow-up-circle</title>
<path fill="#444" d="M12 0.375c-6.616 0-12 5.217-12 11.625s5.383 11.625 12 11.625 12-5.217 12-11.625-5.384-11.625-12-11.625zM12 22.125c-5.788 0-10.5-4.541-10.5-10.125s4.712-10.125 10.5-10.125c5.79 0 10.5 4.54 10.5 10.125s-4.712 10.125-10.5 10.125zM10.842 7.038c0.090-0.126 0.192-0.198 0.293-0.277h-0.002c0.155-0.105 0.321-0.178 0.521-0.204l0.345-0.018 0.343 0.018c0.221 0.029 0.401 0.115 0.564 0.243 0.085 0.066 0.172 0.129 0.249 0.234l0.688 0.984h0.002l5.607 7.943h-1.22c-0.438 0-0.72-0.16-0.974-0.52l-5.259-7.442-5.258 7.443c-0.253 0.359-0.534 0.521-0.973 0.521h-1.223l6.296-8.924z"></path>
</svg>
