<!-- Generated by IcoMoon.io -->
<svg version="1.1" xmlns="http://www.w3.org/2000/svg" width="16" height="16" viewBox="0 0 16 16">
<title>arrow-bottom-circle</title>
<path fill="#444" d="M8 0.25c-4.411 0-8 3.478-8 7.75s3.589 7.75 8 7.75 8-3.478 8-7.75-3.589-7.75-8-7.75zM8 14.75c-3.859 0-7-3.027-7-6.75s3.141-6.75 7-6.75 7 3.027 7 6.75-3.141 6.75-7 6.75zM8.772 10.667c-0.060 0.084-0.128 0.132-0.195 0.185l0.001 0.001c-0.103 0.070-0.214 0.119-0.347 0.136l-0.23 0.011-0.229-0.012c-0.146-0.019-0.267-0.077-0.375-0.162-0.058-0.044-0.116-0.086-0.167-0.156l-0.459-0.656h-0.001l-3.739-5.295h0.813c0.292 0 0.48 0.107 0.649 0.347l3.507 4.961 3.505-4.962c0.169-0.239 0.356-0.347 0.649-0.347h0.814l-4.196 5.949zM10.831 13h-4.541c-0.293-0.001-0.488-0.094-0.656-0.334l-0.466-0.666h4.54c0.293 0.001 0.488 0.093 0.656 0.333l0.467 0.667z"></path>
</svg>
