<!-- Generated by IcoMoon.io -->
<svg version="1.1" xmlns="http://www.w3.org/2000/svg" width="24" height="24" viewBox="0 0 24 24">
<title>arrow-bottom-circle</title>
<path fill="#444" d="M12 0.375c-6.616 0-12 5.217-12 11.625s5.383 11.625 12 11.625 12-5.217 12-11.625-5.384-11.625-12-11.625zM12 22.125c-5.788 0-10.5-4.541-10.5-10.125s4.712-10.125 10.5-10.125 10.5 4.54 10.5 10.125-4.712 10.125-10.5 10.125zM13.158 16c-0.090 0.126-0.192 0.198-0.293 0.277l0.001 0.002c-0.155 0.105-0.321 0.178-0.521 0.204l-0.345 0.016-0.344-0.018c-0.219-0.028-0.401-0.116-0.563-0.243-0.087-0.066-0.174-0.129-0.251-0.234l-0.688-0.984h-0.002l-5.608-7.942h1.219c0.438 0 0.72 0.16 0.974 0.52l5.261 7.442 5.258-7.443c0.253-0.359 0.534-0.52 0.974-0.52h1.221l-6.294 8.924zM16.246 19.5h-6.811c-0.44-0.002-0.732-0.141-0.984-0.501l-0.699-0.999h6.81c0.439 0.002 0.732 0.139 0.984 0.5l0.7 1z"></path>
</svg>
