<!-- Generated by IcoMoon.io -->
<svg version="1.1" xmlns="http://www.w3.org/2000/svg" width="16" height="16" viewBox="0 0 16 16">
<title>arrow-bottom</title>
<path fill="#444" d="M8.772 11.229c-0.060 0.084-0.128 0.132-0.195 0.185l0.001 0.001c-0.103 0.070-0.214 0.119-0.347 0.136l-0.23 0.012-0.229-0.012c-0.146-0.019-0.267-0.077-0.375-0.162-0.058-0.044-0.115-0.086-0.166-0.156l-0.459-0.656h-0.002l-6.77-9.577h0.813c0.292 0 0.48 0.107 0.649 0.347l6.538 9.243 6.536-9.243c0.169-0.24 0.357-0.347 0.65-0.347h0.814l-7.228 10.229zM7 14c0 0.553 0.447 1 1 1s1-0.447 1-1-0.447-1-1-1-1 0.447-1 1z"></path>
</svg>
