<!-- Generated by IcoMoon.io -->
<svg version="1.1" xmlns="http://www.w3.org/2000/svg" width="16" height="16" viewBox="0 0 16 16">
<title>arrow-last-circle</title>
<path fill="#444" d="M8 15.75c4.411 0 8-3.478 8-7.75s-3.589-7.75-8-7.75-8 3.478-8 7.75 3.589 7.75 8 7.75zM8 1.25c3.86 0 7 3.027 7 6.75s-3.14 6.75-7 6.75-7-3.027-7-6.75 3.14-6.75 7-6.75zM10.667 7.228c0.084 0.060 0.132 0.128 0.185 0.195l0.001-0.001c0.070 0.103 0.119 0.214 0.136 0.347l0.011 0.23-0.012 0.229c-0.019 0.146-0.077 0.267-0.162 0.375-0.044 0.058-0.086 0.116-0.156 0.167l-0.656 0.459v0.001l-5.295 3.738v-0.813c0-0.292 0.107-0.48 0.347-0.649l4.961-3.506-4.962-3.505c-0.239-0.169-0.346-0.356-0.346-0.649v-0.815l5.948 4.197zM13 5.169v4.541c-0.001 0.293-0.094 0.488-0.333 0.656l-0.667 0.466v-4.54c0.001-0.293 0.093-0.488 0.333-0.656l0.667-0.467z"></path>
</svg>
