<!-- Generated by IcoMoon.io -->
<svg version="1.1" xmlns="http://www.w3.org/2000/svg" width="24" height="24" viewBox="0 0 24 24">
<title>arrow-last</title>
<path fill="#444" d="M16.843 10.842c0.126 0.090 0.198 0.192 0.277 0.293l0.002-0.002c0.105 0.155 0.178 0.321 0.204 0.521l0.018 0.345-0.018 0.343c-0.028 0.219-0.115 0.401-0.243 0.563-0.066 0.087-0.129 0.173-0.234 0.249l-0.984 0.688v0.003l-14.365 10.155v-1.22c0-0.438 0.16-0.72 0.521-0.973l13.864-9.807-13.864-9.804c-0.36-0.254-0.52-0.535-0.52-0.975v-1.221l15.343 10.842zM21 13.5c0.83 0 1.5-0.67 1.5-1.5s-0.67-1.5-1.5-1.5-1.5 0.671-1.5 1.5 0.67 1.5 1.5 1.5z"></path>
</svg>
