<!-- Generated by IcoMoon.io -->
<svg version="1.1" xmlns="http://www.w3.org/2000/svg" width="24" height="24" viewBox="0 0 24 24">
<title>arrow-first</title>
<path fill="#444" d="M7.248 13.060c-0.116-0.077-0.182-0.175-0.255-0.266l-0.001 0.001c-0.097-0.144-0.163-0.296-0.186-0.476l-0.018-0.318 0.018-0.317c0.024-0.199 0.104-0.366 0.221-0.516 0.062-0.075 0.118-0.156 0.215-0.225l0.902-0.635v-0.002l13.168-9.306v1.118c0 0.403-0.148 0.662-0.476 0.896l-12.711 8.986 12.712 8.985c0.327 0.233 0.476 0.491 0.476 0.896v1.119l-14.065-9.94zM2.688 15.893v-6.245c0.001-0.402 0.129-0.671 0.459-0.902l0.916-0.641v6.243c-0.001 0.402-0.128 0.671-0.458 0.902l-0.917 0.643z"></path>
</svg>
