<!-- Generated by IcoMoon.io -->
<svg version="1.1" xmlns="http://www.w3.org/2000/svg" width="24" height="24" viewBox="0 0 24 24">
<title>arrow-first-circle</title>
<path fill="#444" d="M12 23.625c6.616 0 12-5.217 12-11.625s-5.384-11.625-12-11.625-12 5.217-12 11.625 5.383 11.625 12 11.625zM12 1.875c5.79 0 10.5 4.54 10.5 10.125s-4.71 10.125-10.5 10.125-10.5-4.541-10.5-10.125 4.71-10.125 10.5-10.125zM8 13.158c-0.126-0.090-0.198-0.192-0.277-0.293l-0.002 0.001c-0.105-0.155-0.178-0.321-0.204-0.521l-0.017-0.345 0.018-0.344c0.027-0.221 0.116-0.401 0.243-0.564 0.066-0.085 0.129-0.172 0.234-0.249l0.984-0.689v-0.002l7.942-5.607v1.22c0 0.438-0.16 0.72-0.52 0.973l-7.442 5.259 7.443 5.258c0.359 0.253 0.521 0.534 0.521 0.974v1.221l-8.924-6.294zM4.5 16.246v-6.811c0.002-0.44 0.141-0.732 0.5-0.984l1-0.699v6.81c-0.002 0.439-0.139 0.732-0.5 0.984l-1 0.7z"></path>
</svg>
