<!-- Generated by IcoMoon.io -->
<svg version="1.1" xmlns="http://www.w3.org/2000/svg" width="16" height="16" viewBox="0 0 16 16">
<title>arrow-top</title>
<path fill="#444" d="M7.228 4.771c0.060-0.084 0.128-0.132 0.195-0.185l-0.001-0.001c0.103-0.070 0.214-0.119 0.347-0.136l0.23-0.012 0.229 0.012c0.146 0.019 0.267 0.077 0.375 0.162 0.058 0.044 0.116 0.086 0.167 0.157l0.459 0.656h0.001l6.77 9.576h-0.813c-0.292 0-0.48-0.107-0.649-0.347l-6.538-9.243-6.536 9.243c-0.169 0.24-0.357 0.347-0.65 0.347h-0.814l7.228-10.229zM9 2c0-0.553-0.447-1-1-1s-1 0.447-1 1 0.447 1 1 1 1-0.447 1-1z"></path>
</svg>
