<!-- Generated by IcoMoon.io -->
<svg version="1.1" xmlns="http://www.w3.org/2000/svg" width="24" height="24" viewBox="0 0 24 24">
<title>at</title>
<path fill="#444" d="M12 1c-6.067 0.001-11 4.938-11 11.002 0 2.938 1.146 5.697 3.223 7.776 2.076 2.079 4.837 3.222 7.776 3.222 0 0 0.001 0 0.002 0 2.404 0 4.779-0.802 6.688-2.263 0.045-0.037 0.076-0.083 0.109-0.127l-0.984-0.43c-0.263-0.119-0.505-0.117-0.743-0.038-1.518 0.944-3.277 1.482-5.071 1.482 0 0-0.001 0-0.001 0-2.569 0-4.986-1.003-6.806-2.817-1.817-1.82-2.818-4.233-2.818-6.806 0-5.308 4.317-9.626 9.625-9.627 5.307 0 9.625 4.318 9.625 9.625v1.032c0 1.327-1.078 2.404-2.407 2.404-0.941 0-1.747-0.543-2.144-1.331 0.273-0.647 0.425-1.357 0.425-2.105 0-0.947-0.265-1.827-0.688-2.605v-1.518c0-0.382-0.309-0.688-0.688-0.688-0.34 0-0.609 0.252-0.665 0.574-0.946-0.774-2.14-1.261-3.458-1.261-3.031 0-5.499 2.468-5.499 5.499s2.468 5.499 5.499 5.499c1.743 0 3.284-0.834 4.29-2.104 0.695 0.857 1.744 1.416 2.929 1.416 2.085 0 3.782-1.695 3.782-3.779v-1.032c-0.001-6.063-4.935-11-11.001-11zM12 16.124c-2.278 0-4.124-1.846-4.124-4.124s1.846-4.124 4.124-4.124c1.438 0 2.697 0.733 3.437 1.848v3.309c0 0.341 0.058 0.664 0.143 0.98-0.705 1.253-2.035 2.111-3.58 2.111z"></path>
</svg>
