<!-- Generated by IcoMoon.io -->
<svg version="1.1" xmlns="http://www.w3.org/2000/svg" width="16" height="16" viewBox="0 0 16 16">
<title>at</title>
<path fill="#444" d="M8 0c-4.412 0.001-8 3.591-8 8.002 0 2.136 0.833 4.145 2.344 5.655s3.519 2.343 5.655 2.343c0 0 0.001 0 0.001 0 1.748 0 3.475-0.585 4.863-1.647 0.034-0.025 0.055-0.060 0.080-0.092l-0.714-0.312c-0.193-0.084-0.368-0.082-0.541-0.026-1.105 0.685-2.383 1.077-3.688 1.077 0 0-0.001 0-0.002 0-1.869 0-3.626-0.728-4.948-2.050-1.321-1.322-2.050-3.079-2.050-4.948 0-3.86 3.14-7.001 7-7.002s7 3.141 7 7v0.751c0 0.964-0.785 1.748-1.75 1.748-0.683 0-1.27-0.396-1.558-0.968 0.196-0.471 0.307-0.988 0.307-1.531 0-0.689-0.191-1.329-0.5-1.896v-1.103c0-0.276-0.224-0.5-0.5-0.5-0.247 0-0.442 0.182-0.483 0.416-0.689-0.563-1.558-0.916-2.516-0.916-2.205 0-3.999 1.794-3.999 3.999s1.794 3.999 3.999 3.999c1.269 0 2.388-0.605 3.121-1.529 0.505 0.623 1.267 1.029 2.129 1.029 1.517 0 2.75-1.232 2.75-2.748v-0.751c0-4.411-3.589-8-8-8zM8 10.999c-1.657 0-2.999-1.342-2.999-2.999s1.342-2.999 2.999-2.999c1.045 0 1.962 0.534 2.499 1.344v2.406c0 0.247 0.043 0.482 0.105 0.711-0.514 0.913-1.48 1.537-2.604 1.537z"></path>
</svg>
