<!-- Generated by IcoMoon.io -->
<svg version="1.1" xmlns="http://www.w3.org/2000/svg" width="24" height="24" viewBox="0 0 24 24">
<title>at</title>
<path fill="#444" d="M12 0c-6.618 0.002-12 5.386-12 12.003 0 3.204 1.249 6.218 3.516 8.483 2.265 2.266 5.278 3.514 8.482 3.514 0 0 0.002 0 0.002 0 2.622 0 5.212-0.878 7.294-2.471 0.051-0.038 0.082-0.090 0.12-0.138l-1.071-0.468c-0.29-0.126-0.552-0.123-0.812-0.039-1.657 1.027-3.574 1.616-5.532 1.616 0 0-0.002 0-0.003 0-2.803 0-5.439-1.092-7.422-3.075-1.982-1.983-3.075-4.618-3.075-7.422 0-5.79 4.71-10.502 10.5-10.503 5.79 0 10.5 4.712 10.5 10.5v1.127c0 1.446-1.177 2.622-2.625 2.622-1.024 0-1.905-0.594-2.337-1.452 0.294-0.707 0.461-1.482 0.461-2.296 0-1.034-0.287-1.993-0.75-2.844v-1.654c0-0.414-0.336-0.75-0.75-0.75-0.37 0-0.663 0.273-0.725 0.624-1.034-0.844-2.337-1.374-3.774-1.374-3.307 0-5.998 2.691-5.998 5.999s2.691 5.998 5.998 5.998c1.904 0 3.582-0.907 4.682-2.293 0.758 0.934 1.9 1.543 3.193 1.543 2.276 0 4.125-1.848 4.125-4.122v-1.126c0-6.617-5.384-12-12-12zM12 16.498c-2.486 0-4.499-2.013-4.499-4.498s2.013-4.499 4.499-4.499c1.567 0 2.943 0.801 3.748 2.016v3.609c0 0.37 0.064 0.723 0.158 1.066-0.771 1.37-2.22 2.306-3.906 2.306z"></path>
</svg>
