<!-- Generated by IcoMoon.io -->
<svg version="1.1" xmlns="http://www.w3.org/2000/svg" width="24" height="24" viewBox="0 0 24 24">
<title>auction_hammer</title>
<path fill="#444" d="M20.832 7.692c-0.113-0.219-0.274-0.402-0.466-0.536-0.246-0.174-0.542-0.273-0.854-0.273h-1.213c-0.267 0-0.519 0.046-0.745 0.12l-5.844-4.122c-0.012-0.237-0.053-0.492-0.144-0.747l-0.414-1.148c-0.106-0.294-0.3-0.541-0.544-0.717-0.194-0.135-0.419-0.225-0.66-0.258-0.552-0.072-1.098 0.17-1.416 0.628l-4.271 6.143c-0.319 0.459-0.358 1.059-0.102 1.554 0.112 0.219 0.274 0.402 0.468 0.536 0.246 0.174 0.543 0.273 0.854 0.273h1.212c0.268 0 0.519-0.046 0.747-0.12l1.092 0.769-8.261 11.847c-0.318 0.457-0.357 1.056-0.101 1.552 0.113 0.217 0.274 0.399 0.467 0.535 0.246 0.172 0.541 0.271 0.854 0.27h1.211c0.909 0.002 1.642-0.386 2.188-1.157l7.301-10.467 1.092 0.771c0.012 0.237 0.053 0.492 0.144 0.749l0.414 1.148c0.107 0.294 0.3 0.542 0.546 0.717 0.192 0.135 0.417 0.225 0.66 0.258 0.549 0.073 1.095-0.169 1.415-0.627l4.27-6.146c0.319-0.462 0.359-1.059 0.102-1.554zM15.24 14.529l-0.415-1.149c-0.15-0.412 0.048-0.942 0.048-0.942l-3.050-2.151-8.155 11.694c-0.252 0.357-0.531 0.52-0.967 0.52h-1.211l9.114-13.076-3.049-2.149c0 0-0.425 0.369-0.863 0.369h-1.212l4.271-6.144 0.415 1.147c0.149 0.413-0.050 0.942-0.050 0.942l7.32 5.161c0 0 0.426-0.369 0.863-0.369h1.212l-4.27 6.146zM11.85 24l0.7-1c0.252-0.36 0.544-0.498 0.984-0.5h8.781c0.439 0.002 0.732 0.139 0.984 0.5l0.701 1h-12.15z"></path>
</svg>
