<!-- Generated by IcoMoon.io -->
<svg version="1.1" xmlns="http://www.w3.org/2000/svg" width="16" height="16" viewBox="0 0 16 16">
<title>auction_hammer</title>
<path fill="#444" d="M13.888 5.128c-0.075-0.146-0.183-0.268-0.311-0.357-0.164-0.116-0.361-0.182-0.569-0.182h-0.809c-0.178 0-0.346 0.031-0.497 0.080l-3.896-2.748c-0.008-0.158-0.035-0.328-0.096-0.498l-0.276-0.765c-0.071-0.196-0.2-0.361-0.363-0.478-0.129-0.090-0.279-0.15-0.44-0.172-0.368-0.048-0.732 0.113-0.944 0.419l-2.847 4.095c-0.213 0.306-0.239 0.706-0.068 1.036 0.075 0.146 0.183 0.268 0.312 0.357 0.164 0.116 0.362 0.182 0.569 0.182h0.808c0.179 0 0.346-0.031 0.498-0.080l0.728 0.513-5.507 7.898c-0.212 0.305-0.238 0.704-0.067 1.035 0.075 0.145 0.183 0.266 0.311 0.357 0.164 0.115 0.361 0.181 0.569 0.18h0.807c0.606 0.001 1.095-0.257 1.459-0.771l4.867-6.978 0.728 0.514c0.008 0.158 0.035 0.328 0.096 0.499l0.276 0.765c0.071 0.196 0.2 0.361 0.364 0.478 0.128 0.090 0.278 0.15 0.44 0.172 0.366 0.049 0.73-0.113 0.943-0.418l2.847-4.097c0.213-0.308 0.239-0.706 0.068-1.036zM10.16 9.686l-0.277-0.766c-0.1-0.275 0.032-0.628 0.032-0.628l-2.033-1.434-5.437 7.796c-0.168 0.238-0.354 0.347-0.645 0.347h-0.807l6.076-8.717-2.033-1.433c0 0-0.283 0.246-0.575 0.246h-0.808l2.847-4.096 0.277 0.765c0.099 0.275-0.033 0.628-0.033 0.628l4.88 3.441c0 0 0.284-0.246 0.575-0.246h0.808l-2.847 4.097zM7.9 16l0.467-0.667c0.168-0.24 0.363-0.332 0.656-0.333h5.854c0.293 0.001 0.488 0.093 0.656 0.333l0.467 0.667h-8.1z"></path>
</svg>
