<!-- Generated by IcoMoon.io -->
<svg version="1.1" xmlns="http://www.w3.org/2000/svg" width="16" height="16" viewBox="0 0 16 16">
<title>backup</title>
<path fill="#444" d="M0.004 2.559l0.653 0.442c0.24 0.167 0.348 0.373 0.348 0.666v1.927l2.615-2.719c0.76-0.761 1.699-1.353 2.714-1.712 3.771-1.333 7.919 0.653 9.251 4.421 1.332 3.771-0.651 7.921-4.421 9.253-0.796 0.28-1.608 0.414-2.408 0.414-2.179 0-4.254-0.997-5.629-2.685 0 0-0.375-0.486-0.539-0.761-0.036-0.058-0.119-0.198-0.125-0.214-0.257-0.465-0.47-0.958-0.616-1.482l0.75 0.189c0.284 0.072 0.47 0.259 0.47 0.259 0.056 0.131 0.184 0.394 0.184 0.394 1.432 2.67 4.636 3.981 7.58 2.942 3.25-1.148 4.959-4.727 3.811-7.976s-4.725-4.957-7.975-3.811c-0.875 0.309-1.684 0.819-2.35 1.486l-2.558 2.66 0.008 0.007h1.86c0.258 0.015 0.453 0.113 0.608 0.334l0.453 0.665c-0.031 0.007-4.185 0-4.185 0-0.068 0.001-0.133-0.014-0.194-0.038-0.003-0.002-0.006-0.007-0.010-0.007-0.057-0.026-0.11-0.063-0.153-0.109-0.002-0.001-0.004 0-0.006-0.002-0.017-0.018-0.023-0.042-0.037-0.062-0.023-0.030-0.047-0.062-0.061-0.099-0.016-0.036-0.018-0.073-0.023-0.111-0.004-0.025-0.015-0.046-0.015-0.072 0 0-0.008-4.164 0-4.199zM12.336 5.173c-0.289-0.051-0.508 0.018-0.716 0.225l-2.735 2.734-2.57-2.57-0.141 0.782c-0.051 0.289 0.018 0.509 0.225 0.716l1.721 1.72c0.402 0.332 0.964 0.243 1.162 0.196 0-0.001 0-0.001 0-0.001s0.002-0.001 0.004-0.002c0.107-0.030 0.21-0.079 0.312-0.165l3.521-3.495-0.783-0.14z"></path>
</svg>
