<!-- Generated by IcoMoon.io -->
<svg version="1.1" xmlns="http://www.w3.org/2000/svg" width="24" height="24" viewBox="0 0 24 24">
<title>backup</title>
<path d="M1 12.546l0.974 0.524c0.312 0.169 0.506 0.389 0.597 0.645 0.829 4.557 4.792 7.864 9.422 7.864 5.285 0 9.585-4.297 9.585-9.579s-4.3-9.579-9.585-9.579c-2.705 0-5.301 1.163-7.123 3.193l-0.371 0.53h2.263c0.373 0.002 0.63 0.133 0.836 0.427l0.696 0.995h-5.567c-0.393 0-0.711-0.319-0.711-0.712v-5.575l0.996 0.669c0.293 0.205 0.425 0.462 0.426 0.832v2.271l0.551-0.584c2.102-2.236 4.946-3.467 8.004-3.467 6.069 0 11.007 4.935 11.007 11s-4.938 11-11.007 11c-5.885 0-10.708-4.642-10.993-10.454zM12.899 11.863c-0.175-0.062-0.307-0.155-0.396-0.281s-0.111-0.282-0.11-0.468v-6.146l-0.915 0.645c-0.33 0.232-0.456 0.503-0.455 0.906l-0.023 6.123 4.11 1.47c0.379 0.137 0.676 0.108 1.006-0.123l0.915-0.645-4.132-1.481z"></path>
</svg>
