<!-- Generated by IcoMoon.io -->
<svg version="1.1" xmlns="http://www.w3.org/2000/svg" width="24" height="24" viewBox="0 0 24 24">
<title>backup</title>
<path fill="#444" d="M0.006 3.839l0.98 0.663c0.36 0.251 0.522 0.56 0.522 0.999v2.89l3.922-4.078c1.14-1.142 2.549-2.030 4.071-2.568 5.657-2 11.879 0.979 13.876 6.632 1.998 5.656-0.976 11.881-6.632 13.879-1.194 0.42-2.412 0.621-3.612 0.621-3.268 0-6.381-1.495-8.443-4.028 0 0-0.563-0.729-0.809-1.141-0.054-0.087-0.179-0.297-0.188-0.321-0.385-0.697-0.705-1.437-0.924-2.223l1.125 0.284c0.426 0.108 0.705 0.389 0.705 0.389 0.084 0.197 0.276 0.591 0.276 0.591 2.148 4.005 6.954 5.971 11.37 4.413 4.875-1.722 7.439-7.091 5.717-11.964-1.722-4.872-7.088-7.435-11.963-5.716-1.313 0.464-2.526 1.228-3.525 2.229l-3.837 3.99 0.012 0.011h2.79c0.387 0.022 0.679 0.17 0.912 0.501l0.679 0.998c-0.046 0.010-6.277 0-6.277 0-0.102 0.002-0.2-0.021-0.291-0.057-0.004-0.003-0.009-0.011-0.015-0.011-0.085-0.039-0.165-0.094-0.229-0.163-0.003-0.002-0.006 0-0.009-0.003-0.025-0.027-0.034-0.063-0.055-0.093-0.034-0.045-0.071-0.093-0.091-0.149-0.024-0.054-0.027-0.11-0.035-0.166-0.006-0.038-0.022-0.069-0.022-0.108 0 0-0.012-6.246 0-6.299zM18.504 7.76c-0.433-0.077-0.762 0.027-1.074 0.337l-4.102 4.101-3.855-3.855-0.211 1.173c-0.077 0.434 0.027 0.764 0.337 1.074l2.582 2.58c0.603 0.498 1.446 0.365 1.743 0.294 0-0.002 0-0.002 0-0.002 0.001 0 0.003-0.001 0.006-0.003 0.16-0.045 0.315-0.119 0.468-0.247l5.282-5.242-1.174-0.21z"></path>
</svg>
