<!-- Generated by IcoMoon.io -->
<svg version="1.1" xmlns="http://www.w3.org/2000/svg" width="16" height="16" viewBox="0 0 16 16">
<title>bag</title>
<path fill="#444" d="M14.995 13.495l-1-7.599c-0.054-0.509-0.483-0.896-0.995-0.896h-10c-0.512 0-0.941 0.387-0.995 0.896l-1 7.599c-0.003 0.035-0.005 0.070-0.005 0.105 0 1.324 1.077 2.4 2.4 2.4l9.5-0.001c1.256 0 2.101-0.964 2.101-2.399-0.001-0.035-0.003-0.070-0.006-0.105zM12.899 15l-9.5 0.001c-0.773 0-1.4-0.626-1.4-1.401l1.001-7.6h10l1 7.6c0 0.775-0.327 1.4-1.101 1.4zM5.019 4.101c0.040-1.782 1.205-4.101 2.992-4.101 1.775 0 2.934 2.299 2.989 4.063l-0.708-0.295c-0.195-0.080-0.31-0.213-0.392-0.381-0.244-0.905-0.901-2.387-1.889-2.387-0.956 0-1.606 1.436-1.869 2.296-0.069 0.228-0.197 0.393-0.431 0.497l-0.692 0.308z"></path>
</svg>
