<!-- Generated by IcoMoon.io -->
<svg version="1.1" xmlns="http://www.w3.org/2000/svg" width="24" height="24" viewBox="0 0 24 24">
<title>bag</title>
<path fill="#444" d="M21.618 19.556l-1.375-10.449c-0.073-0.701-0.664-1.232-1.368-1.232h-13.75c-0.704 0-1.294 0.531-1.368 1.232l-1.375 10.449c-0.004 0.049-0.007 0.097-0.007 0.144 0 1.821 1.48 3.301 3.3 3.301l13.062-0.001c1.728 0 2.888-1.325 2.888-3.3 0-0.048-0.003-0.096-0.007-0.144zM18.737 21.625l-13.062 0.001c-1.063 0-1.925-0.86-1.925-1.927l1.375-10.449h13.75l1.375 10.449c0 1.067-0.45 1.926-1.513 1.926zM7.9 6.639c0.056-2.45 1.658-5.639 4.115-5.639 2.441 0 4.035 3.161 4.11 5.587l-0.973-0.405c-0.27-0.111-0.427-0.294-0.539-0.525-0.336-1.243-1.24-3.281-2.599-3.281-1.314 0-2.208 1.974-2.569 3.157-0.095 0.313-0.27 0.54-0.592 0.682l-0.953 0.424z"></path>
</svg>
