<!-- Generated by IcoMoon.io -->
<svg version="1.1" xmlns="http://www.w3.org/2000/svg" width="24" height="24" viewBox="0 0 24 24">
<title>bag</title>
<path fill="#444" d="M22.492 20.242l-1.5-11.399c-0.081-0.764-0.725-1.344-1.492-1.344h-15c-0.768 0-1.411 0.58-1.493 1.344l-1.5 11.399c-0.004 0.052-0.008 0.105-0.008 0.157 0 1.986 1.616 3.6 3.6 3.6l14.25-0.002c1.884 0 3.151-1.446 3.151-3.598-0.001-0.052-0.005-0.105-0.009-0.158zM19.348 22.5l-14.25 0.002c-1.16 0-2.1-0.939-2.1-2.102l1.501-11.4h15l1.5 11.4c0 1.163-0.491 2.1-1.651 2.1zM7.529 6.152c0.060-2.673 1.808-6.152 4.488-6.152 2.662 0 4.401 3.449 4.484 6.095l-1.062-0.443c-0.293-0.12-0.465-0.319-0.588-0.572-0.366-1.357-1.352-3.58-2.834-3.58-1.434 0-2.409 2.154-2.803 3.444-0.103 0.342-0.295 0.589-0.646 0.745l-1.038 0.462z"></path>
</svg>
