<!-- Generated by IcoMoon.io -->
<svg version="1.1" xmlns="http://www.w3.org/2000/svg" width="16" height="16" viewBox="0 0 16 16">
<title>balance</title>
<path fill="#444" d="M4.999 9.603c0 1.373-1.122 2.49-2.5 2.49v0c-1.378 0-2.499-1.117-2.499-2.49v-1.603l0.653 0.44c0.239 0.168 0.346 0.372 0.346 0.663v0.499c0 0.824 0.673 1.494 1.5 1.494v0c0.826 0 1.5-0.67 1.5-1.494v-0.498c0-0.291 0.106-0.495 0.346-0.663l0.654-0.441c0.008 0.035 0 1.603 0 1.603zM15.996 9.603c0 1.373-1.125 2.49-2.503 2.49v0c-1.377 0-2.496-1.117-2.496-2.49 0 0-0.008-1.567 0-1.603l0.649 0.44c0.24 0.168 0.35 0.372 0.35 0.663v0.499c0 0.824 0.669 1.494 1.496 1.494v0c0.827 0 1.503-0.67 1.503-1.494v-0.498c0-0.291 0.104-0.495 0.343-0.663l0.658-0.441c0.008 0.035 0 1.603 0 1.603zM13.993 4.514c0-1.374-1.132-2.514-2.509-2.514h-2.988v-1l-0.667 0.465c-0.209 0.145-0.291 0.302-0.313 0.535h-3.029c-1.379 0-2.488 1.14-2.488 2.514 0 0-0.008 1.458 0 1.494l0.642-0.44c0.239-0.169 0.346-0.373 0.346-0.665v-0.39c0-0.824 0.673-1.513 1.5-1.513h3.008v11l-2.375 0.004c-0.292 0-0.487 0.091-0.656 0.331l-0.466 0.665h7.996l-0.474-0.72c-0.167-0.24-0.363-0.28-0.655-0.28h-2.37v-11h2.988c0.827 0 1.5 0.689 1.5 1.514l0.021 0.39c0 0.292 0.107 0.496 0.347 0.664l0.642 0.44c0.008-0.036 0-1.494 0-1.494z"></path>
</svg>
