<!-- Generated by IcoMoon.io -->
<svg version="1.1" xmlns="http://www.w3.org/2000/svg" width="24" height="24" viewBox="0 0 24 24">
<title>balance</title>
<path fill="#444" d="M7.498 14.404c0 2.059-1.683 3.735-3.75 3.735v0c-2.067 0-3.748-1.675-3.748-3.735v-2.404l0.98 0.66c0.359 0.252 0.519 0.558 0.519 0.994v0.749c0 1.236 1.010 2.241 2.25 2.241v0c1.239 0 2.25-1.005 2.25-2.241v-0.747c0-0.437 0.159-0.742 0.519-0.995l0.981-0.662c0.012 0.053 0 2.404 0 2.404zM23.994 14.404c0 2.059-1.688 3.735-3.755 3.735v0c-2.066 0-3.744-1.675-3.744-3.735 0 0-0.012-2.351 0-2.404l0.974 0.66c0.36 0.252 0.525 0.558 0.525 0.994v0.749c0 1.236 1.004 2.241 2.244 2.241v0c1.241 0 2.255-1.005 2.255-2.241v-0.747c0-0.437 0.156-0.742 0.515-0.995l0.987-0.662c0.012 0.053 0 2.404 0 2.404zM20.989 6.771c0-2.061-1.698-3.771-3.764-3.771h-4.482v-1.5l-1 0.698c-0.313 0.218-0.437 0.453-0.47 0.803h-4.543c-2.068 0-3.732 1.71-3.732 3.771 0 0-0.012 2.187 0 2.241l0.963-0.66c0.358-0.254 0.519-0.56 0.519-0.998v-0.585c0-1.236 1.010-2.269 2.25-2.269h4.512v16.5l-3.563 0.006c-0.438 0-0.731 0.136-0.984 0.496l-0.699 0.998h11.994l-0.711-1.080c-0.25-0.36-0.544-0.42-0.982-0.42h-3.555v-16.5h4.482c1.241 0 2.25 1.034 2.25 2.271l0.032 0.585c0 0.438 0.16 0.744 0.521 0.996l0.963 0.66c0.012-0.054 0-2.241 0-2.241z"></path>
</svg>
