<!-- Generated by IcoMoon.io -->
<svg version="1.1" xmlns="http://www.w3.org/2000/svg" width="24" height="24" viewBox="0 0 24 24">
<title>balance</title>
<path fill="#444" d="M7.873 14.203c0 1.889-1.543 3.425-3.437 3.425v0c-1.894 0-3.436-1.536-3.436-3.425v-2.203l0.897 0.605c0.329 0.231 0.476 0.512 0.476 0.912v0.686c0 1.134 0.925 2.055 2.062 2.055v0c1.136 0 2.062-0.921 2.062-2.055v-0.686c0-0.4 0.146-0.681 0.476-0.912l0.9-0.605c0.011 0.049 0 2.203 0 2.203zM22.995 14.203c0 1.889-1.546 3.425-3.441 3.425v0c-1.894 0-3.432-1.536-3.432-3.425 0 0-0.011-2.154 0-2.203l0.893 0.605c0.33 0.231 0.481 0.512 0.481 0.912v0.686c0 1.134 0.92 2.055 2.057 2.055v0c1.137 0 2.067-0.921 2.067-2.055v-0.686c0-0.4 0.143-0.681 0.471-0.912l0.904-0.605c0.011 0.049 0 2.203 0 2.203zM20.241 7.206c0-1.889-1.557-3.456-3.45-3.456h-4.109v-1.375l-0.917 0.639c-0.288 0.2-0.401 0.415-0.431 0.736h-4.164c-1.896 0-3.421 1.567-3.421 3.456 0 0-0.011 2.005 0 2.055l0.882-0.605c0.329-0.232 0.476-0.512 0.476-0.914v-0.536c0-1.133 0.925-2.081 2.062-2.081h4.137v15.125l-3.266 0.006c-0.401 0-0.67 0.124-0.902 0.455l-0.641 0.914h10.995l-0.651-0.989c-0.231-0.331-0.5-0.386-0.901-0.386h-3.258v-15.125h4.109c1.137 0 2.062 0.948 2.062 2.081l0.029 0.536c0 0.401 0.147 0.682 0.477 0.913l0.882 0.605c0.010-0.049 0-2.054 0-2.054z"></path>
</svg>
