<!-- Generated by IcoMoon.io -->
<svg version="1.1" xmlns="http://www.w3.org/2000/svg" width="24" height="24" viewBox="0 0 24 24">
<title>balloon</title>
<path fill="#444" d="M16.41 20.303c-0.575-0.551-1.184-0.927-2.103-1.299-0.797-0.325-1.216-0.576-1.428-1.131-0.008-0.021-0.010-0.055-0.019-0.078h0.556c0.511 0 0.979-0.281 1.217-0.732 0.235-0.447 0.207-0.988-0.070-1.407 2.933-1.424 4.59-4.476 4.272-8.046-0.263-2.993-2.163-5.467-4.837-6.301-0.653-0.205-1.332-0.309-2.017-0.309-2.127 0-4.154 1.025-5.43 2.744-1.439 1.951-1.816 4.622-1.008 7.15 0.677 2.112 2.093 3.844 3.874 4.789-0.26 0.41-0.284 0.932-0.059 1.368 0.235 0.456 0.707 0.743 1.222 0.743h0.875c0.042 0.2 0.077 0.408 0.142 0.576 0.428 1.112 1.319 1.553 2.193 1.907 0.63 0.257 1.154 0.529 1.668 1.019 0.507 0.486 0.643 0.752 1.062 1.703l0.612-0.938c0.14-0.215 0.256-0.474 0.138-0.637-0.215-0.378-0.476-0.754-0.86-1.121zM10.581 16.419l0.678-1.415-0.518-0.235c-1.786-0.653-3.231-2.243-3.888-4.295-0.673-2.108-0.373-4.315 0.805-5.911 1.015-1.369 2.631-2.186 4.323-2.186 0.543 0 1.084 0.082 1.606 0.245 2.143 0.668 3.664 2.674 3.879 5.107 0.294 3.336-1.353 6.050-4.297 7.038l-0.582 0.235 0.829 1.415h-2.835zM15.631 8.855c-0.38 0-0.688-0.309-0.688-0.689 0-1.146-0.804-2.191-1.059-2.312-0.314-0.089-0.629-0.299-0.629-0.677 0-0.382 0.367-0.68 0.747-0.68 1.061 0 2.315 1.988 2.315 3.668 0.001 0.382-0.306 0.69-0.686 0.69z"></path>
</svg>
