<!-- Generated by IcoMoon.io -->
<svg version="1.1" xmlns="http://www.w3.org/2000/svg" width="24" height="24" viewBox="0 0 24 24">
<title>balloon</title>
<path fill="#444" d="M16.811 21.057c-0.627-0.6-1.29-1.011-2.293-1.416-0.87-0.354-1.326-0.628-1.559-1.233-0.009-0.024-0.010-0.060-0.021-0.085h0.607c0.558 0 1.068-0.308 1.328-0.799 0.256-0.487 0.225-1.078-0.078-1.534 3.2-1.553 5.007-4.883 4.662-8.778-0.287-3.266-2.36-5.964-5.275-6.873-0.714-0.225-1.455-0.338-2.202-0.338-2.32 0-4.531 1.119-5.922 2.994-1.571 2.128-1.981 5.042-1.099 7.8 0.739 2.304 2.283 4.193 4.227 5.223-0.284 0.448-0.311 1.017-0.063 1.492 0.257 0.498 0.771 0.812 1.332 0.812h0.955c0.045 0.219 0.084 0.445 0.154 0.628 0.468 1.213 1.439 1.694 2.393 2.081 0.687 0.28 1.26 0.578 1.82 1.111 0.553 0.531 0.702 0.82 1.158 1.857l0.669-1.023c0.151-0.234 0.279-0.518 0.15-0.694-0.239-0.413-0.524-0.822-0.942-1.224zM10.452 16.821l0.74-1.544-0.566-0.256c-1.949-0.714-3.525-2.448-4.241-4.686-0.735-2.298-0.406-4.707 0.878-6.447 1.107-1.494 2.871-2.385 4.717-2.385 0.593 0 1.182 0.090 1.752 0.269 2.337 0.727 3.998 2.916 4.232 5.571 0.321 3.64-1.476 6.6-4.688 7.678l-0.634 0.256 0.904 1.543h-3.095zM15.96 8.569c-0.414 0-0.75-0.337-0.75-0.752 0-1.251-0.876-2.391-1.155-2.523-0.342-0.096-0.686-0.325-0.686-0.738 0-0.415 0.4-0.741 0.814-0.741 1.157 0 2.526 2.169 2.526 4.002 0.002 0.414-0.335 0.752-0.75 0.752z"></path>
</svg>
