<!-- Generated by IcoMoon.io -->
<svg version="1.1" xmlns="http://www.w3.org/2000/svg" width="16" height="16" viewBox="0 0 16 16">
<title>balloon</title>
<path fill="#444" d="M11.207 14.038c-0.418-0.4-0.86-0.674-1.529-0.944-0.58-0.236-0.884-0.419-1.039-0.822-0.006-0.016-0.007-0.040-0.014-0.057h0.405c0.372 0 0.712-0.205 0.885-0.533 0.171-0.325 0.15-0.719-0.052-1.023 2.133-1.035 3.338-3.255 3.108-5.852-0.191-2.177-1.573-3.976-3.517-4.582-0.476-0.15-0.97-0.225-1.468-0.225-1.547 0-3.021 0.746-3.948 1.996-1.047 1.419-1.321 3.361-0.733 5.2 0.493 1.536 1.522 2.795 2.818 3.482-0.189 0.299-0.207 0.678-0.042 0.995 0.171 0.332 0.514 0.541 0.888 0.541h0.637c0.030 0.146 0.056 0.297 0.103 0.419 0.312 0.809 0.959 1.129 1.595 1.387 0.458 0.187 0.84 0.385 1.213 0.741 0.369 0.354 0.468 0.547 0.772 1.238l0.446-0.682c0.101-0.156 0.186-0.345 0.1-0.463-0.159-0.275-0.349-0.548-0.628-0.816zM6.968 11.214l0.493-1.029-0.377-0.171c-1.299-0.476-2.35-1.632-2.827-3.124-0.49-1.532-0.271-3.138 0.585-4.298 0.738-0.996 1.914-1.59 3.145-1.59 0.395 0 0.788 0.060 1.168 0.179 1.558 0.485 2.665 1.944 2.821 3.714 0.214 2.427-0.984 4.4-3.125 5.119l-0.423 0.171 0.603 1.029h-2.063zM10.64 5.713c-0.276 0-0.5-0.225-0.5-0.501 0-0.834-0.584-1.594-0.77-1.682-0.228-0.064-0.457-0.217-0.457-0.492 0-0.277 0.267-0.494 0.543-0.494 0.771 0 1.684 1.446 1.684 2.668 0.001 0.276-0.223 0.501-0.5 0.501z"></path>
</svg>
