<!-- Generated by IcoMoon.io -->
<svg version="1.1" xmlns="http://www.w3.org/2000/svg" width="16" height="16" viewBox="0 0 16 16">
<title>barcode</title>
<path fill="#444" d="M9 0v14.877c-0.002 0.293-0.094 0.488-0.334 0.656l-0.666 0.467v-14.877c0.001-0.293 0.093-0.488 0.333-0.656l0.667-0.467zM4.364 0.467c-0.24 0.168-0.332 0.363-0.333 0.656v14.877l0.666-0.467c0.24-0.168 0.332-0.363 0.334-0.656v-14.877l-0.667 0.467zM10.052 0.467c-0.24 0.168-0.332 0.363-0.333 0.656v14.877l0.666-0.467c0.24-0.168 0.332-0.363 0.334-0.656v-14.877l-0.667 0.467zM11.239 0.467c-0.24 0.168-0.332 0.363-0.333 0.656v14.877l0.666-0.467c0.24-0.168 0.332-0.363 0.334-0.656v-14.877l-0.667 0.467zM12.427 0.467c-0.24 0.168-0.332 0.363-0.333 0.656v14.877l0.666-0.467c0.24-0.168 0.332-0.363 0.334-0.656v-14.877l-0.667 0.467zM15.333 0.467c-0.24 0.168-0.332 0.363-0.333 0.656v14.877l0.666-0.467c0.24-0.168 0.332-0.363 0.334-0.656v-14.877l-0.667 0.467zM1.958 0.467c-0.24 0.168-0.332 0.363-0.333 0.656v14.877l0.666-0.467c0.24-0.168 0.332-0.363 0.334-0.656v-14.877l-0.667 0.467zM0.333 0.467c-0.24 0.168-0.332 0.363-0.333 0.656v14.877l0.666-0.467c0.24-0.168 0.332-0.363 0.334-0.656v-14.877l-0.667 0.467z"></path>
</svg>
