<!-- Generated by IcoMoon.io -->
<svg version="1.1" xmlns="http://www.w3.org/2000/svg" width="24" height="24" viewBox="0 0 24 24">
<title>barcode</title>
<path fill="#444" d="M13.5 0v22.316c-0.003 0.439-0.141 0.732-0.501 0.984l-0.999 0.7v-22.316c0.002-0.439 0.139-0.732 0.5-0.984l1-0.701zM6.546 0.701c-0.36 0.252-0.498 0.545-0.499 0.984v22.316l0.999-0.701c0.36-0.252 0.498-0.544 0.501-0.984v-22.316l-1.001 0.701zM15.078 0.701c-0.36 0.252-0.498 0.545-0.5 0.984v22.316l0.999-0.701c0.36-0.252 0.498-0.544 0.501-0.984v-22.316l-1 0.701zM16.858 0.701c-0.36 0.252-0.498 0.545-0.499 0.984v22.316l0.999-0.701c0.36-0.252 0.498-0.544 0.501-0.984v-22.316l-1.001 0.701zM18.64 0.701c-0.36 0.252-0.498 0.545-0.5 0.984v22.316l0.999-0.701c0.36-0.252 0.498-0.544 0.501-0.984v-22.316l-1 0.701zM23 0.701c-0.36 0.252-0.498 0.545-0.5 0.984v22.316l0.999-0.701c0.36-0.252 0.498-0.544 0.501-0.984v-22.316l-1 0.701zM2.937 0.701c-0.36 0.252-0.498 0.545-0.499 0.984v22.316l0.999-0.701c0.36-0.252 0.498-0.544 0.501-0.984v-22.316l-1.001 0.701zM0.5 0.701c-0.36 0.252-0.498 0.545-0.5 0.984v22.316l0.999-0.701c0.36-0.252 0.498-0.544 0.501-0.984v-22.316l-1.001 0.701z"></path>
</svg>
