<!-- Generated by IcoMoon.io -->
<svg version="1.1" xmlns="http://www.w3.org/2000/svg" width="24" height="24" viewBox="0 0 24 24">
<title>bell_off</title>
<path fill="#444" d="M13.205 20.25h-2.41c-0.404 0.001-0.673 0.128-0.902 0.456l-0.643 0.919h5.5l-0.643-0.919c-0.229-0.328-0.498-0.455-0.902-0.456z"></path>
<path fill="#444" d="M21.469 20.497l-19.424-19.425-0.194 1.103c-0.061 0.331 0.029 0.576 0.218 0.819l0.462 0.509 2.374 2.374c-0.646 1.163-1.017 2.498-1.017 3.926l-0.001 1.099c0 1.383-0.314 2.936-0.806 4.053-0.43 0.156-0.892 0.414-1.192 0.843l-0.64 0.913c-0.295 0.423-0.33 0.968-0.093 1.428 0.236 0.454 0.707 0.737 1.219 0.737h15.528l4.052 4.053 0.194-1.103c0.061-0.331-0.032-0.576-0.218-0.819l-0.462-0.51zM2.375 17.5l0.642-0.919c0.232-0.328 1.018-0.456 1.018-0.456 0.742-1.315 1.229-3.372 1.229-5.224l0.001-1.098c0-1.043 0.254-2.015 0.674-2.894l10.59 10.59h-14.154z"></path>
<path fill="#444" d="M22.751 16.71l-0.64-0.913c-0.3-0.429-0.762-0.687-1.192-0.843-0.492-1.117-0.806-2.671-0.806-4.054l-0.001-1.097c0-4.479-3.639-8.116-8.112-8.116-1.803 0-3.454 0.61-4.801 1.611-0.087 0.039-0.301 0.263-0.301 0.263-0.071 0.108-0.123 0.232-0.123 0.372 0 0.379 0.307 0.688 0.688 0.688 0.081 0 0.263 0 0.263 0 1.16-0.97 2.643-1.559 4.274-1.559 3.719 0 6.736 3.015 6.736 6.741l0.001 1.098c0 1.852 0.487 3.908 1.229 5.224 0 0 0.786 0.128 1.018 0.456l0.642 0.919h-0.006l0.006 0.001v0.014c-0.38 0-0.688 0.306-0.688 0.688 0 0.376 0.308 0.688 0.688 0.688 0.068 0 0.129-0.021 0.19-0.040 0.436-0.062 0.824-0.317 1.029-0.712 0.236-0.461 0.201-1.006-0.094-1.429z"></path>
</svg>
