<!-- Generated by IcoMoon.io -->
<svg version="1.1" xmlns="http://www.w3.org/2000/svg" width="24" height="24" viewBox="0 0 24 24">
<title>bell_off</title>
<path fill="#444" d="M22.835 21.747l-0.504-0.556-21.191-21.191-0.213 1.203c-0.065 0.362 0.033 0.63 0.239 0.892l0.504 0.557 2.635 2.634c-0.732 1.287-1.154 2.775-1.154 4.359v1.2c0 1.512-0.344 3.204-0.879 4.422-0.468 0.168-0.974 0.45-1.3 0.916l-0.701 1.001c-0.321 0.459-0.36 1.056-0.101 1.552 0.257 0.498 0.769 0.764 1.329 0.764h17.064l4.296 4.343 0.213-1.203c0.064-0.361-0.036-0.63-0.239-0.893zM1.5 18l0.7-0.956c0.252-0.36 1.11-0.5 1.11-0.5 0.808-1.437 1.339-3.678 1.339-5.7v-1.198c0-1.166 0.3-2.252 0.791-3.224l11.623 11.577h-15.564zM23.625 17.25c0 0.414-0.336 0.75-0.75 0.75-0.23 0-0.428-0.108-0.566-0.271l-0.51-0.684c-0.252-0.36-1.11-0.5-1.11-0.5-0.81-1.437-1.341-3.678-1.341-5.7v-1.199c0-4.060-3.291-7.351-7.348-7.351-1.311 0-2.524 0.363-3.583 0.975-0.128 0.104-0.285 0.176-0.465 0.176-0.414 0-0.75-0.336-0.75-0.75 0-0.233 0.129-0.514 0.25-0.633 1.108-1.089 2.885-1.313 4.548-1.313 4.88 0 8.848 4.017 8.848 8.898v1.197c0 1.512 0.343 3.205 0.879 4.424 0.468 0.168 0.974 0.45 1.3 0.916 0.002 0 0.597 0.855 0.597 1.065zM15 22.5l-0.701-1c-0.252-0.36-0.544-0.498-0.984-0.5h-2.631c-0.44 0.002-0.732 0.139-0.984 0.5l-0.7 1h6z"></path>
</svg>
