<!-- Generated by IcoMoon.io -->
<svg version="1.1" xmlns="http://www.w3.org/2000/svg" width="24" height="24" viewBox="0 0 24 24">
<title>bell</title>
<path fill="#444" d="M9 22.5l0.7-1c0.252-0.36 0.545-0.498 0.984-0.5h2.631c0.439 0.002 0.732 0.139 0.984 0.5l0.701 1h-6zM23.831 18.693c-0.258 0.497-0.771 0.807-1.331 0.807h-21c-0.559 0-1.073-0.311-1.331-0.807s-0.219-1.093 0.101-1.552l0.701-1c0.327-0.468 0.831-0.749 1.3-0.917 0.535-1.22 0.879-2.912 0.879-4.423v-1.2c0-4.88 3.969-8.85 8.848-8.85s8.849 3.97 8.849 8.851v1.197c0 1.512 0.343 3.205 0.879 4.424 0.468 0.168 0.974 0.45 1.3 0.917l0.701 1c0.323 0.459 0.362 1.058 0.104 1.554zM22.5 18l-0.701-1c-0.252-0.36-1.11-0.5-1.11-0.5-0.81-1.437-1.341-3.678-1.341-5.7v-1.199c0-4.060-3.29-7.351-7.348-7.351s-7.348 3.291-7.348 7.351v1.199c0 2.022-0.531 4.263-1.341 5.7 0 0-0.858 0.139-1.11 0.5l-0.701 1h21z"></path>
</svg>
