<!-- Generated by IcoMoon.io -->
<svg version="1.1" xmlns="http://www.w3.org/2000/svg" width="16" height="16" viewBox="0 0 16 16">
<title>bell_off</title>
<path fill="#444" d="M15.223 14.498l-0.336-0.371-14.127-14.127-0.142 0.802c-0.043 0.241 0.022 0.42 0.159 0.595l0.336 0.371 1.757 1.756c-0.488 0.858-0.769 1.85-0.769 2.906v0.8c0 1.008-0.229 2.136-0.586 2.948-0.312 0.112-0.649 0.3-0.867 0.611l-0.467 0.667c-0.214 0.306-0.24 0.704-0.067 1.035 0.171 0.332 0.513 0.509 0.886 0.509h11.376l2.864 2.895 0.142-0.802c0.043-0.241-0.024-0.42-0.159-0.595zM1 12l0.467-0.637c0.168-0.24 0.74-0.333 0.74-0.333 0.539-0.958 0.893-2.452 0.893-3.8v-0.799c0-0.777 0.2-1.501 0.527-2.149l7.749 7.718h-10.376zM15.75 11.5c0 0.276-0.224 0.5-0.5 0.5-0.153 0-0.285-0.072-0.377-0.181l-0.34-0.456c-0.168-0.24-0.74-0.333-0.74-0.333-0.54-0.958-0.894-2.452-0.894-3.8v-0.799c0-2.707-2.194-4.901-4.899-4.901-0.874 0-1.683 0.242-2.389 0.65-0.085 0.069-0.19 0.117-0.31 0.117-0.276 0-0.5-0.224-0.5-0.5 0-0.155 0.086-0.343 0.167-0.422 0.739-0.726 1.923-0.875 3.032-0.875 3.253 0 5.899 2.678 5.899 5.932v0.798c0 1.008 0.229 2.137 0.586 2.949 0.312 0.112 0.649 0.3 0.867 0.611 0.001 0 0.398 0.57 0.398 0.71zM10 15l-0.467-0.667c-0.168-0.24-0.363-0.332-0.656-0.333h-1.754c-0.293 0.001-0.488 0.093-0.656 0.333l-0.467 0.667h4z"></path>
</svg>
