<!-- Generated by IcoMoon.io -->
<svg version="1.1" xmlns="http://www.w3.org/2000/svg" width="24" height="24" viewBox="0 0 24 24">
<title>bell</title>
<path d="M9.25 21.669l0.643-0.919c0.229-0.328 0.498-0.455 0.902-0.456h2.41c0.404 0.001 0.673 0.128 0.902 0.456l0.643 0.919h-5.5zM22.844 18.182c-0.236 0.454-0.706 0.737-1.219 0.737h-19.25c-0.513 0-0.983-0.283-1.219-0.737-0.237-0.46-0.202-1.005 0.093-1.428l0.641-0.913c0.3-0.429 0.762-0.687 1.192-0.843 0.491-1.117 0.806-2.67 0.806-4.053l0.001-1.099c0-4.478 3.639-8.115 8.111-8.115s8.111 3.638 8.111 8.116l0.001 1.097c0 1.383 0.315 2.937 0.806 4.054 0.43 0.156 0.892 0.414 1.192 0.843l0.641 0.913c0.295 0.423 0.33 0.968 0.093 1.428zM21.625 17.544l-0.642-0.919c-0.231-0.328-1.018-0.456-1.018-0.456-0.742-1.315-1.229-3.372-1.229-5.224v-1.098c0-3.727-3.017-6.741-6.736-6.741s-6.736 3.015-6.736 6.742v1.098c0 1.852-0.487 3.908-1.229 5.224 0 0-0.787 0.128-1.018 0.456l-0.642 0.919h19.25z"></path>
</svg>
