<!-- Generated by IcoMoon.io -->
<svg version="1.1" xmlns="http://www.w3.org/2000/svg" width="16" height="16" viewBox="0 0 16 16">
<title>bell</title>
<path fill="#444" d="M6 15l0.467-0.667c0.168-0.24 0.363-0.332 0.656-0.333h1.754c0.293 0.001 0.488 0.093 0.656 0.333l0.467 0.667h-4zM15.887 12.462c-0.172 0.331-0.514 0.538-0.887 0.538h-14c-0.373 0-0.715-0.207-0.887-0.538s-0.146-0.729 0.067-1.035l0.467-0.667c0.218-0.312 0.554-0.499 0.867-0.611 0.357-0.813 0.586-1.941 0.586-2.949v-0.8c0-3.253 2.646-5.9 5.899-5.9s5.899 2.647 5.899 5.901v0.798c0 1.008 0.229 2.137 0.586 2.949 0.312 0.112 0.649 0.3 0.867 0.611l0.467 0.667c0.215 0.306 0.241 0.705 0.069 1.036zM15 12l-0.467-0.667c-0.168-0.24-0.74-0.333-0.74-0.333-0.54-0.958-0.894-2.452-0.894-3.8v-0.799c0-2.707-2.193-4.901-4.899-4.901s-4.899 2.194-4.899 4.901v0.799c0 1.348-0.354 2.842-0.894 3.8 0 0-0.572 0.093-0.74 0.333l-0.467 0.667h14z"></path>
</svg>
