<!-- Generated by IcoMoon.io -->
<svg version="1.1" xmlns="http://www.w3.org/2000/svg" width="24" height="24" viewBox="0 0 24 24">
<title>bike</title>
<path fill="#444" d="M5.695 12.464c-2.592 0-4.695 2.102-4.695 4.694 0 2.591 2.103 4.695 4.695 4.695 2.594 0 4.695-2.104 4.695-4.695 0-2.592-2.101-4.694-4.695-4.694zM5.695 20.479c-1.831 0-3.32-1.489-3.32-3.32s1.489-3.319 3.32-3.319c1.831 0 3.32 1.488 3.32 3.319s-1.489 3.32-3.32 3.32zM18.305 12.464c-2.592 0-4.695 2.103-4.695 4.694s2.103 4.695 4.695 4.695c2.593 0 4.695-2.104 4.695-4.695 0-2.592-2.102-4.694-4.695-4.694zM18.305 20.479c-1.831 0-3.32-1.489-3.32-3.32s1.489-3.319 3.32-3.319c1.831 0 3.32 1.488 3.32 3.319s-1.489 3.32-3.32 3.32zM14.75 2.339c-1.137 0-2.062 0.925-2.062 2.062s0.925 2.062 2.062 2.062 2.062-0.925 2.062-2.062-0.925-2.062-2.062-2.062zM14.75 5.089c-0.38 0-0.688-0.308-0.688-0.688s0.308-0.688 0.688-0.688 0.688 0.308 0.688 0.688-0.308 0.688-0.688 0.688zM16.446 8.848l0.642 0.917h-3.301c-0.233 0-0.45-0.118-0.577-0.313l-1.306-2.012-2.449 2.637 2.951 2.156c0.177 0.129 0.282 0.335 0.282 0.553v4.814l-0.035 0.688c-0.037 0.303-0.147 0.54-0.423 0.733l-0.917 0.642 0.001-6.524-3.294-2.408c-0.159-0.115-0.26-0.293-0.279-0.489-0.019-0.195 0.047-0.389 0.181-0.533l3.575-3.85c0.144-0.155 0.354-0.229 0.562-0.217 0.211 0.017 0.402 0.133 0.518 0.31l1.584 2.438h0.865l0.688 0.035c0.301 0.037 0.538 0.147 0.732 0.423z"></path>
</svg>
