<!-- Generated by IcoMoon.io -->
<svg version="1.1" xmlns="http://www.w3.org/2000/svg" width="16" height="16" viewBox="0 0 16 16">
<title>bike</title>
<path fill="#444" d="M3.415 8.363c-1.886 0-3.415 1.53-3.415 3.414s1.529 3.415 3.415 3.415c1.887 0 3.415-1.53 3.415-3.415s-1.529-3.414-3.415-3.414zM3.415 14.192c-1.332 0-2.415-1.083-2.415-2.415s1.083-2.414 2.415-2.414 2.415 1.083 2.415 2.414c-0.001 1.332-1.084 2.415-2.415 2.415zM12.585 8.363c-1.885 0-3.415 1.529-3.415 3.414s1.529 3.415 3.415 3.415c1.886 0 3.415-1.53 3.415-3.415s-1.529-3.414-3.415-3.414zM12.585 14.192c-1.332 0-2.415-1.083-2.415-2.415s1.083-2.414 2.415-2.414 2.415 1.083 2.415 2.414c0 1.332-1.083 2.415-2.415 2.415zM10 1c-0.827 0-1.5 0.673-1.5 1.5s0.673 1.5 1.5 1.5 1.5-0.673 1.5-1.5-0.673-1.5-1.5-1.5zM10 3c-0.276 0-0.5-0.224-0.5-0.5s0.224-0.5 0.5-0.5 0.5 0.224 0.5 0.5-0.224 0.5-0.5 0.5zM11.233 5.733l0.467 0.667h-2.4c-0.17 0-0.327-0.086-0.42-0.227l-0.95-1.463-1.781 1.918 2.146 1.568c0.128 0.094 0.205 0.243 0.205 0.402v3.502l-0.025 0.5c-0.027 0.22-0.107 0.393-0.308 0.533l-0.667 0.467 0.001-4.745-2.396-1.751c-0.115-0.084-0.189-0.213-0.203-0.356s0.035-0.283 0.132-0.388l2.6-2.8c0.104-0.113 0.258-0.167 0.409-0.158 0.153 0.013 0.292 0.097 0.376 0.226l1.152 1.772h0.629l0.5 0.025c0.22 0.028 0.393 0.108 0.533 0.308z"></path>
</svg>
