<!-- Generated by IcoMoon.io -->
<svg version="1.1" xmlns="http://www.w3.org/2000/svg" width="24" height="24" viewBox="0 0 24 24">
<title>bike</title>
<path fill="#444" d="M5.123 12.544c-2.829 0-5.123 2.295-5.123 5.121s2.293 5.123 5.123 5.123c2.83 0 5.123-2.295 5.123-5.122s-2.294-5.121-5.123-5.121zM5.123 21.288c-1.998 0-3.623-1.625-3.623-3.622 0-1.996 1.625-3.621 3.623-3.621s3.623 1.624 3.623 3.621c-0.002 1.998-1.626 3.622-3.623 3.622zM18.878 12.544c-2.828 0-5.122 2.293-5.122 5.121s2.294 5.123 5.122 5.123c2.829 0 5.122-2.295 5.122-5.122s-2.294-5.121-5.122-5.121zM18.878 21.288c-1.998 0-3.622-1.625-3.622-3.622 0-1.996 1.625-3.621 3.622-3.621s3.622 1.624 3.622 3.621c0 1.998-1.625 3.622-3.622 3.622zM15 1.5c-1.241 0-2.25 1.010-2.25 2.25s1.009 2.25 2.25 2.25 2.25-1.010 2.25-2.25-1.009-2.25-2.25-2.25zM15 4.5c-0.414 0-0.75-0.336-0.75-0.75s0.336-0.75 0.75-0.75 0.75 0.336 0.75 0.75-0.336 0.75-0.75 0.75zM16.849 8.599l0.701 1.001h-3.6c-0.255 0-0.49-0.129-0.63-0.341l-1.425-2.195-2.671 2.877 3.219 2.352c0.192 0.141 0.308 0.364 0.308 0.603v5.253l-0.038 0.75c-0.040 0.33-0.16 0.59-0.462 0.799l-1 0.701 0.002-7.118-3.594-2.627c-0.173-0.126-0.284-0.319-0.304-0.534s0.053-0.425 0.198-0.582l3.9-4.2c0.156-0.169 0.387-0.25 0.614-0.237 0.229 0.019 0.438 0.145 0.564 0.339l1.728 2.658h0.943l0.75 0.038c0.33 0.042 0.59 0.162 0.799 0.462z"></path>
</svg>
