<!-- Generated by IcoMoon.io -->
<svg version="1.1" xmlns="http://www.w3.org/2000/svg" width="16" height="16" viewBox="0 0 16 16">
<title>bill</title>
<path fill="#444" d="M15 4h-14c-0.552 0-1 0.447-1 1v6c0 0.553 0.448 1 1 1h14c0.552 0 1-0.447 1-1v-6c0-0.553-0.448-1-1-1zM15 11h-14v-6h14v6zM9.54 9.095c0 0.402-0.15 0.707-0.448 0.913-0.161 0.111-0.359 0.19-0.592 0.242-0.105 0.132-0.23 0.199-0.407 0.2l-0.521-0.001 0.095-0.137c-0.312-0.008-0.576-0.034-0.763-0.090-0.218-0.064-0.367-0.113-0.445-0.146 0.12-0.34 0.442-0.527 0.798-0.464 0.212 0.040 0.335 0.043 0.551 0.043 0.319 0 0.558-0.043 0.711-0.126s0.231-0.219 0.231-0.402c0-0.19-0.076-0.342-0.227-0.453-0.15-0.112-0.399-0.238-0.746-0.379-0.167-0.066-0.328-0.134-0.482-0.204s-0.286-0.153-0.399-0.247c-0.111-0.096-0.201-0.211-0.268-0.344-0.067-0.136-0.101-0.3-0.101-0.496 0-0.386 0.143-0.693 0.428-0.918 0.181-0.145 0.409-0.237 0.674-0.29l0.013-0.019c0.111-0.157 0.245-0.226 0.436-0.227l0.521 0.001-0.149 0.213c0.014 0.002 0.027 0.001 0.041 0.002 0.123 0.014 0.239 0.030 0.344 0.051 0.106 0.020 0.201 0.040 0.281 0.063 0.082 0.021 0.144 0.041 0.19 0.058-0.132 0.34-0.44 0.526-0.804 0.483-0.146-0.019-0.23-0.022-0.378-0.022-0.218 0-0.411 0.045-0.574 0.132-0.162 0.086-0.243 0.222-0.243 0.406 0 0.095 0.019 0.179 0.055 0.253s0.092 0.138 0.167 0.196c0.077 0.059 0.171 0.114 0.283 0.164 0.111 0.050 0.246 0.103 0.403 0.159 0.207 0.079 0.391 0.156 0.553 0.23 0.163 0.076 0.3 0.165 0.416 0.265 0.115 0.101 0.203 0.223 0.264 0.365 0.061 0.143 0.092 0.318 0.092 0.526z"></path>
</svg>
