<!-- Generated by IcoMoon.io -->
<svg version="1.1" xmlns="http://www.w3.org/2000/svg" width="24" height="24" viewBox="0 0 24 24">
<title>bill</title>
<path fill="#444" d="M22.5 6h-21c-0.828 0-1.5 0.671-1.5 1.5v9c0 0.83 0.672 1.5 1.5 1.5h21c0.828 0 1.5-0.67 1.5-1.5v-9c0-0.829-0.672-1.5-1.5-1.5zM22.5 16.5h-21v-9h21v9zM14.31 13.643c0 0.603-0.225 1.061-0.672 1.369-0.241 0.167-0.538 0.285-0.888 0.363-0.157 0.198-0.345 0.299-0.61 0.3l-0.782-0.001 0.143-0.206c-0.468-0.012-0.864-0.051-1.144-0.135-0.327-0.096-0.551-0.169-0.668-0.219 0.18-0.51 0.663-0.79 1.197-0.696 0.318 0.060 0.502 0.064 0.826 0.064 0.479 0 0.837-0.064 1.067-0.189 0.231-0.126 0.346-0.329 0.346-0.603 0-0.285-0.114-0.513-0.34-0.679-0.225-0.168-0.598-0.357-1.119-0.569-0.251-0.099-0.492-0.201-0.723-0.306s-0.429-0.229-0.598-0.37c-0.166-0.144-0.301-0.316-0.402-0.516-0.101-0.204-0.152-0.45-0.152-0.744 0-0.579 0.214-1.040 0.642-1.377 0.272-0.217 0.614-0.356 1.011-0.435l0.020-0.029c0.166-0.235 0.367-0.339 0.654-0.34l0.782 0.002-0.223 0.319c0.021 0.003 0.040 0.002 0.062 0.003 0.184 0.021 0.359 0.045 0.516 0.076 0.159 0.030 0.302 0.060 0.422 0.095 0.123 0.031 0.216 0.062 0.285 0.087-0.198 0.51-0.66 0.789-1.206 0.724-0.219-0.028-0.345-0.033-0.567-0.033-0.327 0-0.617 0.067-0.861 0.198-0.243 0.129-0.365 0.333-0.365 0.609 0 0.143 0.028 0.268 0.082 0.38 0.054 0.11 0.138 0.207 0.251 0.294 0.115 0.088 0.256 0.171 0.425 0.246 0.166 0.075 0.369 0.154 0.604 0.239 0.311 0.118 0.586 0.234 0.829 0.345 0.245 0.114 0.45 0.247 0.624 0.397 0.172 0.152 0.304 0.335 0.396 0.548 0.091 0.215 0.138 0.477 0.138 0.789z"></path>
</svg>
