<!-- Generated by IcoMoon.io -->
<svg version="1.1" xmlns="http://www.w3.org/2000/svg" width="24" height="24" viewBox="0 0 24 24">
<title>bill</title>
<path fill="#444" d="M21.625 6.5h-19.25c-0.76 0-1.375 0.617-1.375 1.375v8.25c0 0.758 0.615 1.375 1.375 1.375h19.25c0.76 0 1.375-0.617 1.375-1.375v-8.25c0-0.758-0.615-1.375-1.375-1.375zM21.625 16.125h-19.25v-8.25h19.25v8.25zM14.117 13.505c0 0.555-0.206 0.971-0.615 1.253-0.222 0.158-0.494 0.267-0.814 0.336-0.146 0.179-0.315 0.275-0.559 0.276l-0.717-0.001 0.133-0.189c-0.429-0.008-0.792-0.046-1.050-0.125-0.3-0.088-0.505-0.154-0.612-0.198 0.164-0.469 0.609-0.727 1.097-0.64 0.291 0.058 0.461 0.061 0.759 0.061 0.437 0 0.766-0.061 0.978-0.173 0.21-0.113 0.316-0.301 0.316-0.555 0-0.261-0.105-0.471-0.312-0.623-0.206-0.153-0.549-0.326-1.024-0.52-0.233-0.090-0.452-0.188-0.665-0.281-0.212-0.099-0.395-0.211-0.548-0.341-0.155-0.131-0.277-0.293-0.37-0.473-0.091-0.188-0.14-0.411-0.14-0.684 0-0.526 0.198-0.951 0.589-1.258 0.249-0.203 0.564-0.331 0.929-0.401l0.016-0.024c0.151-0.216 0.338-0.314 0.6-0.315l0.717 0.001-0.205 0.295c0.017 0.002 0.036 0.001 0.056 0.002 0.167 0.020 0.327 0.042 0.473 0.068 0.145 0.031 0.277 0.058 0.386 0.087 0.111 0.033 0.197 0.059 0.26 0.081-0.182 0.47-0.604 0.726-1.105 0.665-0.199-0.024-0.315-0.028-0.519-0.028-0.3 0-0.566 0.057-0.791 0.179-0.221 0.122-0.334 0.305-0.334 0.559 0 0.13 0.027 0.243 0.076 0.347 0.051 0.103 0.127 0.19 0.231 0.272 0.106 0.077 0.235 0.155 0.388 0.223 0.153 0.067 0.337 0.145 0.556 0.218 0.283 0.108 0.538 0.215 0.758 0.318 0.225 0.105 0.415 0.229 0.574 0.364 0.156 0.142 0.279 0.305 0.361 0.5 0.085 0.2 0.127 0.44 0.127 0.724z"></path>
</svg>
