<!-- Generated by IcoMoon.io -->
<svg version="1.1" xmlns="http://www.w3.org/2000/svg" width="16" height="16" viewBox="0 0 16 16">
<title>bills</title>
<path fill="#444" d="M8.221 9.946c0 0.343-0.127 0.602-0.381 0.776-0.137 0.095-0.306 0.162-0.504 0.206-0.089 0.113-0.195 0.17-0.346 0.171l-0.443-0.001 0.082-0.116c-0.266-0.007-0.49-0.029-0.649-0.077-0.187-0.053-0.313-0.095-0.38-0.123 0.102-0.29 0.376-0.448 0.679-0.395 0.181 0.034 0.286 0.036 0.469 0.036 0.272 0 0.475-0.036 0.605-0.106 0.131-0.072 0.197-0.187 0.197-0.344 0-0.161-0.065-0.29-0.193-0.386-0.128-0.094-0.34-0.202-0.635-0.321-0.144-0.058-0.28-0.114-0.412-0.175-0.131-0.059-0.244-0.13-0.339-0.21s-0.171-0.179-0.227-0.292c-0.058-0.115-0.087-0.255-0.087-0.422 0-0.328 0.122-0.59 0.365-0.781 0.154-0.123 0.348-0.202 0.573-0.246l0.011-0.018c0.095-0.133 0.208-0.192 0.371-0.192h0.443l-0.127 0.181c0.012 0.002 0.023 0.001 0.035 0.002 0.105 0.011 0.203 0.027 0.293 0.043 0.091 0.017 0.171 0.034 0.239 0.054 0.070 0.019 0.123 0.036 0.162 0.049-0.113 0.29-0.374 0.448-0.685 0.412-0.124-0.016-0.195-0.020-0.321-0.020-0.185 0-0.349 0.038-0.488 0.112-0.138 0.075-0.207 0.19-0.207 0.347 0 0.080 0.016 0.151 0.046 0.215 0.032 0.062 0.079 0.117 0.143 0.167 0.065 0.051 0.145 0.097 0.24 0.14 0.095 0.042 0.209 0.087 0.343 0.135 0.176 0.067 0.334 0.133 0.471 0.196 0.139 0.064 0.255 0.14 0.354 0.226s0.173 0.189 0.225 0.311c0.052 0.121 0.078 0.269 0.078 0.446zM15 3.5h-12c-0.552 0-1 0.447-1 1h13v6c0.552 0 1-0.447 1-1v-5c0-0.553-0.448-1-1-1zM13 5.5h-12c-0.552 0-1 0.447-1 1v5c0 0.553 0.448 1 1 1h12c0.552 0 1-0.447 1-1v-5c0-0.553-0.448-1-1-1zM13 11.5h-12v-5h12v5z"></path>
</svg>
