<!-- Generated by IcoMoon.io -->
<svg version="1.1" xmlns="http://www.w3.org/2000/svg" width="24" height="24" viewBox="0 0 24 24">
<title>bills</title>
<path fill="#444" d="M12.332 14.919c0 0.514-0.191 0.903-0.572 1.164-0.206 0.143-0.459 0.243-0.756 0.309-0.134 0.169-0.293 0.255-0.519 0.256l-0.664-0.002 0.123-0.174c-0.399-0.011-0.735-0.044-0.973-0.116-0.28-0.079-0.47-0.143-0.57-0.184 0.153-0.435 0.564-0.672 1.019-0.593 0.271 0.051 0.429 0.054 0.704 0.054 0.408 0 0.713-0.054 0.908-0.159 0.197-0.108 0.296-0.28 0.296-0.516 0-0.242-0.098-0.435-0.29-0.579-0.192-0.141-0.51-0.303-0.952-0.481-0.216-0.087-0.42-0.171-0.618-0.263-0.197-0.088-0.366-0.195-0.509-0.315-0.142-0.121-0.256-0.268-0.34-0.438-0.087-0.173-0.131-0.383-0.131-0.633 0-0.492 0.183-0.885 0.548-1.171 0.231-0.184 0.522-0.303 0.86-0.369l0.017-0.027c0.143-0.2 0.312-0.288 0.556-0.288h0.665l-0.191 0.271c0.018 0.003 0.034 0.002 0.053 0.003 0.158 0.016 0.305 0.040 0.44 0.065 0.136 0.025 0.257 0.051 0.358 0.081 0.105 0.029 0.184 0.054 0.243 0.074-0.17 0.435-0.561 0.672-1.028 0.618-0.186-0.024-0.293-0.030-0.481-0.030-0.277 0-0.524 0.057-0.732 0.168-0.207 0.113-0.31 0.285-0.31 0.521 0 0.12 0.024 0.226 0.069 0.322 0.048 0.093 0.119 0.176 0.215 0.251 0.098 0.077 0.217 0.146 0.36 0.21 0.143 0.063 0.313 0.13 0.514 0.202 0.264 0.101 0.501 0.2 0.707 0.294 0.209 0.096 0.383 0.21 0.531 0.339 0.147 0.129 0.26 0.284 0.338 0.466 0.078 0.181 0.117 0.403 0.117 0.669zM22.5 5.25h-18c-0.828 0-1.5 0.671-1.5 1.5h19.5v9c0.828 0 1.5-0.67 1.5-1.5v-7.5c0-0.829-0.672-1.5-1.5-1.5zM19.5 8.25h-18c-0.828 0-1.5 0.671-1.5 1.5v7.5c0 0.83 0.672 1.5 1.5 1.5h18c0.828 0 1.5-0.67 1.5-1.5v-7.5c0-0.829-0.672-1.5-1.5-1.5zM19.5 17.25h-18v-7.5h18v7.5z"></path>
</svg>
