<!-- Generated by IcoMoon.io -->
<svg version="1.1" xmlns="http://www.w3.org/2000/svg" width="16" height="16" viewBox="0 0 16 16">
<title>bomb</title>
<path fill="#444" d="M16 0.026l-0.247 0.842c-0.084 0.28-0.228 0.442-0.505 0.535l-0.771 0.261 0.247-0.842c0.083-0.28 0.227-0.442 0.504-0.535l0.772-0.261zM15.713 2.896c-0.094-0.278-0.255-0.421-0.536-0.505l-0.841-0.247 0.26 0.771c0.093 0.278 0.255 0.421 0.536 0.506l0.841 0.247-0.26-0.772zM12.62 0.771c0.093 0.277 0.255 0.421 0.536 0.504l0.841 0.247-0.26-0.771c-0.094-0.277-0.255-0.421-0.536-0.505l-0.841-0.246 0.26 0.771zM13.704 4.295c0.291-0.392 0.258-0.947-0.097-1.302l-0.707-0.707c-0.188-0.188-0.442-0.293-0.707-0.293-0.001 0-0.002 0-0.003 0-0.224 0.001-0.439 0.076-0.614 0.213-1.209-0.782-2.627-1.206-4.076-1.206-4.136 0-7.5 3.364-7.5 7.5s3.364 7.5 7.5 7.5 7.5-3.364 7.5-7.5c0-1.505-0.455-2.968-1.296-4.205zM7.5 15c-3.59 0-6.5-2.91-6.5-6.5s2.91-6.5 6.5-6.5c1.589 0 3.044 0.572 4.174 1.52l0.519-0.526 0.707 0.706-0.515 0.521c1.003 1.144 1.615 2.638 1.615 4.279 0 3.59-2.91 6.5-6.5 6.5z"></path>
</svg>
