<!-- Generated by IcoMoon.io -->
<svg version="1.1" xmlns="http://www.w3.org/2000/svg" width="24" height="24" viewBox="0 0 24 24">
<title>bomb</title>
<path fill="#444" d="M24 0.039l-0.37 1.263c-0.126 0.42-0.342 0.663-0.758 0.802l-1.157 0.392 0.37-1.263c0.124-0.42 0.34-0.663 0.756-0.803l1.158-0.392zM23.569 4.344c-0.141-0.417-0.383-0.631-0.804-0.757l-1.261-0.37 0.39 1.157c0.14 0.417 0.383 0.631 0.804 0.759l1.261 0.37-0.39-1.158zM18.93 1.157c0.139 0.415 0.383 0.631 0.804 0.756l1.261 0.37-0.39-1.156c-0.141-0.415-0.383-0.631-0.804-0.757l-1.261-0.369 0.39 1.156zM20.556 6.442c0.436-0.588 0.387-1.42-0.145-1.953l-1.061-1.060c-0.282-0.282-0.663-0.44-1.061-0.44-0.002 0-0.003 0-0.005 0-0.336 0.002-0.659 0.114-0.921 0.32-1.813-1.173-3.941-1.809-6.114-1.809-6.204 0-11.25 5.046-11.25 11.25s5.046 11.25 11.25 11.25 11.25-5.046 11.25-11.25c0-2.258-0.683-4.452-1.944-6.308zM11.25 22.5c-5.385 0-9.75-4.365-9.75-9.75s4.365-9.75 9.75-9.75c2.384 0 4.566 0.858 6.261 2.28l0.779-0.789 1.061 1.059-0.773 0.782c1.505 1.716 2.422 3.957 2.422 6.418 0 5.385-4.365 9.75-9.75 9.75z"></path>
</svg>
