<!-- Generated by IcoMoon.io -->
<svg version="1.1" xmlns="http://www.w3.org/2000/svg" width="24" height="24" viewBox="0 0 24 24">
<title>bomb</title>
<path d="M23 1.036l-0.34 1.157c-0.116 0.386-0.312 0.608-0.695 0.736l-1.060 0.358 0.34-1.157c0.115-0.386 0.312-0.608 0.694-0.736l1.061-0.358zM22.606 4.981c-0.129-0.383-0.351-0.579-0.737-0.694l-1.157-0.34 0.358 1.060c0.128 0.383 0.351 0.579 0.736 0.695l1.157 0.34-0.357-1.061zM18.353 2.061c0.128 0.382 0.351 0.579 0.737 0.693l1.157 0.34-0.357-1.060c-0.129-0.382-0.351-0.579-0.736-0.694l-1.158-0.34 0.357 1.061zM19.843 6.905c0.399-0.538 0.354-1.302-0.134-1.79l-0.972-0.972c-0.258-0.257-0.607-0.403-0.972-0.403-0.001 0-0.003 0-0.004 0-0.308 0.002-0.604 0.105-0.844 0.293-1.662-1.075-3.611-1.658-5.604-1.658-5.687 0-10.313 4.626-10.313 10.313s4.626 10.312 10.312 10.312 10.312-4.626 10.312-10.312c0.001-2.070-0.625-4.082-1.781-5.783zM11.312 21.625c-4.936 0-8.938-4.002-8.938-8.938s4.002-8.937 8.938-8.937c2.186 0 4.186 0.787 5.739 2.090l0.713-0.725 0.972 0.973-0.706 0.717c1.378 1.572 2.22 3.627 2.22 5.883 0 4.935-4.001 8.937-8.938 8.937z"></path>
</svg>
