<!-- Generated by IcoMoon.io -->
<svg version="1.1" xmlns="http://www.w3.org/2000/svg" width="16" height="16" viewBox="0 0 16 16">
<title>books</title>
<path fill="#444" d="M15.964 14.202l-1.858-6.747c-0.146-0.533-0.697-0.846-1.229-0.699l-1.928 0.531c-0.532 0.146-0.846 0.695-0.699 1.23l1.858 6.747c0.146 0.533 0.697 0.846 1.229 0.699l1.928-0.531c0.532-0.146 0.846-0.696 0.699-1.23zM13.071 15l-1.858-6.749 1.928-0.531 1.859 6.749-1.929 0.531zM4 3h-3c-0.552 0-1 0.446-1 1v10.999c0 0.553 0.448 1 1 1h3c0.552 0 1-0.447 1-1v-10.999c0-0.554-0.448-1-1-1zM4 14.999h-3v-3h3v3zM4 10.999h-3v-6.999h3v6.999zM9.081 0h-2c-0.552 0-1 0.447-1 1v13.999c0 0.553 0.448 1 1 1h2c0.552 0 1-0.447 1-1v-13.999c0-0.553-0.448-1-1-1zM9.081 14.999h-2v-2h2v2zM9.081 11.999h-2v-10.999h2v10.999z"></path>
</svg>
