<!-- Generated by IcoMoon.io -->
<svg version="1.1" xmlns="http://www.w3.org/2000/svg" width="24" height="24" viewBox="0 0 24 24">
<title>books</title>
<path fill="#444" d="M23.946 21.303l-2.787-10.12c-0.219-0.8-1.045-1.269-1.843-1.049l-2.892 0.796c-0.798 0.219-1.269 1.043-1.049 1.845l2.787 10.121c0.219 0.799 1.045 1.269 1.843 1.048l2.892-0.797c0.798-0.219 1.269-1.044 1.049-1.845zM19.607 22.5l-2.787-10.123 2.892-0.796 2.788 10.123-2.893 0.797zM6 4.5h-4.5c-0.828 0-1.5 0.669-1.5 1.5v16.498c0 0.83 0.672 1.5 1.5 1.5h4.5c0.828 0 1.5-0.67 1.5-1.5v-16.498c0-0.831-0.672-1.5-1.5-1.5zM6 22.498h-4.5v-4.5h4.5v4.5zM6 16.498h-4.5v-10.498h4.5v10.498zM13.621 0h-3c-0.828 0-1.5 0.67-1.5 1.5v20.998c0 0.83 0.672 1.5 1.5 1.5h3c0.828 0 1.5-0.67 1.5-1.5v-20.998c0-0.83-0.672-1.5-1.5-1.5zM13.621 22.498h-3v-3h3v3zM13.621 17.998h-3v-16.498h3v16.498z"></path>
</svg>
