<!-- Generated by IcoMoon.io -->
<svg version="1.1" xmlns="http://www.w3.org/2000/svg" width="24" height="24" viewBox="0 0 24 24">
<title>book</title>
<path fill="#444" d="M20.567 2.493c0-0.031 0.006-0.062 0-0.093-0.014-0.050-0.023-0.105-0.051-0.146-0.198-0.284-0.515-0.365-0.852-0.219-3.3 1.41-6.601 2.818-9.898 4.238-0.57 0.246-1.142 0.439-1.766 0.457-0.954 0.032-1.869-0.126-2.726-0.548-0.087-0.043-0.165-0.096-0.26-0.153 0.051-0.027 0.081-0.040 0.111-0.054 3.135-1.341 6.269-2.679 9.404-4.017 0.045-0.018 0.116-0.021 0.16-0.001 0.399 0.162 0.793 0.333 1.188 0.499 0.040 0.017 0.082 0.033 0.143 0.057 0-0.058 0-0.1 0-0.141 0-0.507 0.002-1.012 0-1.518 0-0.075-0.002-0.154-0.015-0.227-0.076-0.477-0.529-0.768-1.011-0.561-3.414 1.467-6.835 2.924-10.252 4.386-0.177 0.077-0.355 0.156-0.52 0.253-0.525 0.32-0.795 0.768-0.793 1.398 0.007 5.154 0.006 10.305 0.003 15.461 0 0.516 0.191 0.939 0.587 1.272 0.115 0.096 0.234 0.189 0.362 0.269 0.699 0.451 1.479 0.678 2.295 0.801 0.255 0.038 0.513 0.063 0.772 0.093 0.233 0 0.464 0 0.697 0 0.050-0.009 0.099-0.020 0.149-0.024 0.552-0.048 1.087-0.168 1.596-0.387 3.010-1.288 6.024-2.578 9.036-3.867 0.432-0.184 0.862-0.365 1.291-0.553 0.225-0.099 0.359-0.246 0.357-0.526-0.008-5.381-0.006-10.766-0.006-16.149zM9.297 22.212c-0.339 0.145-0.711 0.232-1.137 0.271-0.024 0-0.079 0.009-0.135 0.016h-0.495l-0.152-0.018c-0.162-0.018-0.324-0.034-0.485-0.060-0.719-0.108-1.26-0.291-1.702-0.578-0.090-0.057-0.153-0.108-0.215-0.159-0.039-4.739-0.042-9.38-0.046-14.011 0.879 0.375 1.827 0.561 2.838 0.561l0.279-0.006c0.917-0.028 1.715-0.322 2.307-0.576 2.569-1.105 5.139-2.204 7.709-3.3l1.006-0.43c0 0-0.003 9.758 0.002 14.105l-9.774 4.185z"></path>
</svg>
