<!-- Generated by IcoMoon.io -->
<svg version="1.1" xmlns="http://www.w3.org/2000/svg" width="16" height="16" viewBox="0 0 16 16">
<title>book</title>
<path fill="#444" d="M13.711 1.662c0-0.021 0.004-0.041 0-0.062-0.009-0.033-0.015-0.070-0.034-0.097-0.132-0.189-0.343-0.243-0.568-0.146-2.2 0.94-4.401 1.879-6.599 2.825-0.38 0.164-0.761 0.293-1.177 0.305-0.636 0.021-1.246-0.084-1.817-0.365-0.058-0.029-0.11-0.064-0.173-0.102 0.034-0.018 0.054-0.027 0.074-0.036 2.090-0.894 4.179-1.786 6.269-2.678 0.030-0.012 0.077-0.014 0.107-0.001 0.266 0.108 0.529 0.222 0.792 0.333 0.027 0.011 0.055 0.022 0.095 0.038 0-0.039 0-0.067 0-0.094 0-0.338 0.001-0.675 0-1.012 0-0.050-0.001-0.103-0.010-0.151-0.051-0.318-0.353-0.512-0.674-0.374-2.276 0.978-4.557 1.949-6.835 2.924-0.118 0.051-0.237 0.104-0.347 0.169-0.35 0.213-0.53 0.512-0.529 0.932 0.005 3.436 0.004 6.87 0.002 10.307 0 0.344 0.127 0.626 0.391 0.848 0.077 0.064 0.156 0.126 0.241 0.179 0.466 0.301 0.986 0.452 1.53 0.534 0.17 0.025 0.342 0.042 0.515 0.062 0.155 0 0.309 0 0.465 0 0.033-0.006 0.066-0.013 0.099-0.016 0.368-0.032 0.725-0.112 1.064-0.258 2.007-0.859 4.016-1.719 6.024-2.578 0.288-0.123 0.575-0.243 0.861-0.369 0.15-0.066 0.239-0.164 0.238-0.351-0.005-3.587-0.004-7.177-0.004-10.766zM6.198 14.808c-0.226 0.097-0.474 0.155-0.758 0.181-0.016 0-0.053 0.006-0.090 0.011h-0.33l-0.101-0.012c-0.108-0.012-0.216-0.023-0.323-0.040-0.479-0.072-0.84-0.194-1.135-0.385-0.060-0.038-0.102-0.072-0.143-0.106-0.026-3.159-0.028-6.253-0.031-9.341 0.586 0.25 1.218 0.374 1.892 0.374l0.186-0.004c0.611-0.019 1.143-0.215 1.538-0.384 1.713-0.737 3.426-1.469 5.139-2.2l0.671-0.287c0 0-0.002 6.505 0.001 9.403l-6.516 2.79z"></path>
</svg>
