<!-- Generated by IcoMoon.io -->
<svg version="1.1" xmlns="http://www.w3.org/2000/svg" width="24" height="24" viewBox="0 0 24 24">
<title>box_paper</title>
<path fill="#444" d="M16.5 13.5h-7.291c-0.441 0-0.748-0.16-1.001-0.522l-0.708-0.976 7.315-0.002c0.439 0 0.749 0.159 1.001 0.522l0.684 0.978zM24 3.75v4.5c0 0.829-0.672 1.5-1.5 1.5h-1.5v11.25c0 0.414-0.336 0.75-0.75 0.75h-16.5c-0.414 0-0.75-0.336-0.75-0.75v-11.25h-1.5c-0.828 0-1.5-0.671-1.5-1.5v-4.5c0-0.829 0.672-1.5 1.5-1.5h21c0.828 0 1.5 0.671 1.5 1.5zM19.5 9.75h-15v10.5h15v-10.5zM22.5 3.75h-21v4.5h21v-4.5z"></path>
</svg>
