<!-- Generated by IcoMoon.io -->
<svg version="1.1" xmlns="http://www.w3.org/2000/svg" width="16" height="16" viewBox="0 0 16 16">
<title>box_paper</title>
<path fill="#444" d="M11 9h-4.861c-0.294 0-0.499-0.107-0.667-0.348l-0.472-0.651 4.877-0.001c0.293 0 0.499 0.106 0.667 0.348l0.456 0.652zM16 2.5v3c0 0.553-0.448 1-1 1h-1v7.5c0 0.276-0.224 0.5-0.5 0.5h-11c-0.276 0-0.5-0.224-0.5-0.5v-7.5h-1c-0.552 0-1-0.447-1-1v-3c0-0.553 0.448-1 1-1h14c0.552 0 1 0.447 1 1zM13 6.5h-10v7h10v-7zM15 2.5h-14v3h14v-3z"></path>
</svg>
