<!-- Generated by IcoMoon.io -->
<svg version="1.1" xmlns="http://www.w3.org/2000/svg" width="24" height="24" viewBox="0 0 24 24">
<title>box_treasure</title>
<path fill="#444" d="M16.498 0.75h-8.997c-4.135 0-7.502 3.364-7.502 7.5v13.5c0 0.83 0.672 1.5 1.5 1.5h21c0.828 0 1.5-0.67 1.5-1.5v-13.5c0-4.136-3.366-7.5-7.502-7.5zM7.502 2.25h8.997c3.315 0 6.002 2.685 6.002 6h-8.439c-0.045-0.136-0.086-0.271-0.153-0.406l-0.596-1.173c-0.253-0.5-0.764-0.815-1.323-0.821-0.005 0-0.009 0-0.014 0-0.553 0-1.063 0.304-1.325 0.795l-0.574 1.079c-0.093 0.176-0.156 0.351-0.21 0.527h-8.367c0-3.315 2.686-6 6.002-6zM12.573 9.627l-0.573 1.079-0.597-1.173c-0.198-0.392-0.209-0.716-0.002-1.104l0.573-1.079 0.595 1.171c0.199 0.395 0.21 0.717 0.003 1.106zM22.5 21.75h-21v-12h8.391c0.050 0.156 0.098 0.309 0.176 0.465l0.597 1.171c0.254 0.498 0.764 0.814 1.323 0.819 0.005 0 0.008 0 0.012 0 0.555 0 1.064-0.306 1.325-0.796l0.572-1.077c0.105-0.192 0.18-0.387 0.234-0.582h8.371v12z"></path>
</svg>
