<!-- Generated by IcoMoon.io -->
<svg version="1.1" xmlns="http://www.w3.org/2000/svg" width="24" height="24" viewBox="0 0 24 24">
<title>box_paper</title>
<path d="M16.125 13.375h-6.684c-0.404 0-0.686-0.147-0.917-0.479l-0.649-0.896h6.706c0.402 0 0.685 0.146 0.917 0.479l0.627 0.896zM23 4.438v4.125c0 0.76-0.616 1.375-1.375 1.375h-1.375v10.312c0 0.38-0.308 0.688-0.688 0.688h-15.124c-0.38 0-0.688-0.308-0.688-0.688v-10.312h-1.375c-0.759 0-1.375-0.616-1.375-1.376v-4.124c0-0.76 0.616-1.375 1.375-1.375h19.25c0.759-0.001 1.375 0.615 1.375 1.375zM18.875 9.938h-13.75v9.625h13.75v-9.625zM21.625 4.438h-19.25v4.125h19.25v-4.125z"></path>
</svg>
