<!-- Generated by IcoMoon.io -->
<svg version="1.1" xmlns="http://www.w3.org/2000/svg" width="16" height="16" viewBox="0 0 16 16">
<title>box_3d</title>
<path fill="#444" d="M14.668 3.128l-6-2.972c-0.42-0.208-0.916-0.208-1.335 0l-6.001 2.972c-0.51 0.251-0.832 0.767-0.832 1.333v7.071c-0.004 0.566 0.316 1.085 0.824 1.339l6.001 2.973c0.423 0.209 0.92 0.209 1.343 0l6-2.973c0.51-0.25 0.832-0.766 0.832-1.329v-7.081c0-0.566-0.322-1.082-0.832-1.333zM7.777 1.053c0.069-0.034 0.146-0.053 0.223-0.053s0.155 0.019 0.225 0.053l5.583 2.766-5.808 2.876-5.807-2.878 5.584-2.764zM1.768 11.975c-0.166-0.082-0.27-0.25-0.268-0.436v-6.948l6 2.973v7.251l-5.732-2.84zM14.228 11.973l-5.728 2.838v-7.247l6-2.973v6.951c0 0.184-0.104 0.349-0.272 0.431z"></path>
</svg>
