<!-- Generated by IcoMoon.io -->
<svg version="1.1" xmlns="http://www.w3.org/2000/svg" width="24" height="24" viewBox="0 0 24 24">
<title>box_3d</title>
<path fill="#444" d="M22.002 4.692l-9-4.458c-0.63-0.312-1.374-0.312-2.002 0l-9.002 4.458c-0.765 0.377-1.248 1.151-1.248 2v10.607c-0.006 0.849 0.474 1.627 1.236 2.008l9.002 4.46c0.635 0.314 1.38 0.314 2.014 0l9-4.459c0.765-0.375 1.248-1.149 1.248-1.994v-10.622c0-0.849-0.483-1.623-1.248-1.999zM11.665 1.579c0.104-0.051 0.219-0.080 0.335-0.080 0.117 0 0.232 0.028 0.337 0.080l8.375 4.149-8.712 4.314-8.71-4.317 8.376-4.146zM2.652 17.962c-0.249-0.123-0.405-0.375-0.402-0.654v-10.422l9 4.459v10.877l-8.598-4.26zM21.342 17.96l-8.592 4.257v-10.87l9-4.46v10.426c0 0.276-0.156 0.524-0.408 0.646z"></path>
</svg>
