<!-- Generated by IcoMoon.io -->
<svg version="1.1" xmlns="http://www.w3.org/2000/svg" width="16" height="16" viewBox="0 0 16 16">
<title>box_gift</title>
<path fill="#444" d="M15 3h-2.355l0.298-0.427c0.12-0.172 0.181-0.372 0.181-0.573 0-0.158-0.037-0.317-0.113-0.462-0.173-0.331-0.514-0.538-0.887-0.538h-2c-0.619 0.001-1.131 0.269-1.486 0.773l-0.457 0.654c-0.12 0.171-0.181 0.371-0.181 0.573v0c0-0.202-0.061-0.402-0.181-0.573l-0.457-0.654c-0.355-0.504-0.867-0.772-1.486-0.773h-2c-0.373 0-0.714 0.207-0.886 0.538-0.076 0.145-0.114 0.304-0.114 0.462 0 0.201 0.061 0.401 0.181 0.573l0.298 0.427h-2.355c-0.552 0-1 0.447-1 1v3c0 0.553 0.448 1 1 1h1v6.5c0 0.276 0.224 0.5 0.5 0.5h11c0.276 0 0.5-0.224 0.5-0.5v-6.5h1c0.552 0 1-0.447 1-1v-3c0-0.553-0.448-1-1-1zM5.876 2c0.293 0.001 0.498 0.107 0.666 0.347l0.458 0.653h-2c-0.293-0.001-0.499-0.106-0.667-0.347l-0.457-0.653h2zM7.5 14h-4.5v-6h4.5v6zM7.5 7h-5.095c-0.002 0-0.004-0.001-0.005-0.001s-0.003 0.001-0.005 0.001h-1.395v-3h6.5v3zM9.458 2.347c0.167-0.24 0.373-0.346 0.666-0.347h2l-0.456 0.653c-0.169 0.241-0.375 0.346-0.668 0.347h-2l0.458-0.653zM13 14h-4.5v-6h4.5v6zM15 7h-1.395c-0.002 0-0.003-0.001-0.005-0.001s-0.003 0.001-0.005 0.001h-5.095v-3h6.5v3z"></path>
</svg>
