<!-- Generated by IcoMoon.io -->
<svg version="1.1" xmlns="http://www.w3.org/2000/svg" width="24" height="24" viewBox="0 0 24 24">
<title>box_gift</title>
<path fill="#444" d="M22.5 4.5h-3.532l0.447-0.641c0.18-0.258 0.271-0.558 0.271-0.859 0-0.237-0.056-0.475-0.169-0.693-0.26-0.496-0.771-0.807-1.331-0.807h-3c-0.928 0.001-1.697 0.404-2.229 1.16l-0.686 0.981c-0.18 0.256-0.271 0.556-0.271 0.859v0c0-0.303-0.091-0.603-0.271-0.859l-0.686-0.981c-0.532-0.756-1.3-1.158-2.229-1.16h-3c-0.559 0-1.071 0.311-1.329 0.807-0.114 0.218-0.171 0.456-0.171 0.693 0 0.301 0.091 0.601 0.271 0.859l0.447 0.641h-3.533c-0.828 0-1.5 0.671-1.5 1.5v4.5c0 0.829 0.672 1.5 1.5 1.5h1.5v9.75c0 0.414 0.336 0.75 0.75 0.75h16.5c0.414 0 0.75-0.336 0.75-0.75v-9.75h1.5c0.828 0 1.5-0.671 1.5-1.5v-4.5c0-0.829-0.672-1.5-1.5-1.5zM8.814 3c0.44 0.002 0.747 0.161 0.999 0.521l0.687 0.979h-3c-0.44-0.002-0.748-0.159-1.001-0.521l-0.685-0.979h3zM11.25 21h-6.75v-9h6.75v9zM11.25 10.5h-7.643c-0.003 0-0.006-0.002-0.007-0.002s-0.005 0.002-0.007 0.002h-2.093v-4.5h9.75v4.5zM14.187 3.521c0.25-0.36 0.559-0.519 0.999-0.521h3l-0.684 0.979c-0.254 0.362-0.563 0.519-1.002 0.521h-3l0.687-0.979zM19.5 21h-6.75v-9h6.75v9zM22.5 10.5h-2.093c-0.003 0-0.005-0.002-0.008-0.002s-0.005 0.002-0.008 0.002h-7.642v-4.5h9.75v4.5z"></path>
</svg>
