<!-- Generated by IcoMoon.io -->
<svg version="1.1" xmlns="http://www.w3.org/2000/svg" width="16" height="16" viewBox="0 0 16 16">
<title>box_treasure</title>
<path fill="#444" d="M10.999 0.5h-5.998c-2.757 0-5.001 2.243-5.001 5v9c0 0.553 0.448 1 1 1h14c0.552 0 1-0.447 1-1v-9c0-2.757-2.244-5-5.001-5zM5.001 1.5h5.998c2.21 0 4.001 1.79 4.001 4h-5.626c-0.030-0.091-0.057-0.181-0.102-0.271l-0.397-0.782c-0.169-0.333-0.509-0.543-0.882-0.547-0.003 0-0.006 0-0.009 0-0.369 0-0.709 0.203-0.883 0.53l-0.383 0.719c-0.062 0.117-0.104 0.234-0.14 0.351h-5.578c0-2.21 1.791-4 4.001-4zM8.382 6.418l-0.382 0.719-0.398-0.782c-0.132-0.261-0.139-0.477-0.001-0.736l0.382-0.719 0.397 0.781c0.133 0.263 0.14 0.478 0.002 0.737zM15 14.5h-14v-8h5.594c0.033 0.104 0.065 0.206 0.117 0.31l0.398 0.781c0.169 0.332 0.509 0.543 0.882 0.546 0.003 0 0.005 0 0.008 0 0.37 0 0.709-0.204 0.883-0.531l0.381-0.718c0.070-0.128 0.12-0.258 0.156-0.388h5.581v8z"></path>
</svg>
