<!-- Generated by IcoMoon.io -->
<svg version="1.1" xmlns="http://www.w3.org/2000/svg" width="24" height="24" viewBox="0 0 24 24">
<title>box_3d</title>
<path fill="#444" d="M21.168 5.301l-8.25-4.086c-0.578-0.286-1.259-0.286-1.835 0l-8.251 4.086c-0.701 0.345-1.144 1.054-1.144 1.833v9.723c-0.005 0.779 0.434 1.492 1.133 1.841l8.251 4.088c0.582 0.287 1.266 0.287 1.846 0l8.25-4.088c0.702-0.344 1.144-1.053 1.144-1.827v-9.737c0-0.779-0.442-1.488-1.144-1.833zM11.693 2.447c0.095-0.047 0.201-0.072 0.307-0.072s0.213 0.025 0.309 0.072l7.676 3.803-7.985 3.956-7.984-3.957 7.677-3.802zM3.431 17.465c-0.228-0.113-0.371-0.344-0.368-0.599v-9.554l8.25 4.087v9.97l-7.882-3.904zM20.563 17.462l-7.876 3.902v-9.965l8.249-4.087v9.558c0.001 0.252-0.142 0.48-0.373 0.592z"></path>
</svg>
