<!-- Generated by IcoMoon.io -->
<svg version="1.1" xmlns="http://www.w3.org/2000/svg" width="24" height="24" viewBox="0 0 24 24">
<title>brief_case</title>
<path fill="#444" d="M21.6 6h-4.35v-1.395c0-1.738-1.407-3.105-3.137-3.105h-4.227c-1.729 0-3.136 1.367-3.136 3.105v1.395h-4.35c-1.326 0-2.4 1.055-2.4 2.36v11.785c0 1.301 1.074 2.355 2.4 2.355h19.2c1.326 0 2.4-1.054 2.4-2.353v-11.787c0-1.305-1.074-2.359-2.4-2.359zM8.25 4.605c0-0.91 0.735-1.605 1.636-1.605h4.226c0.903 0 1.638 0.695 1.638 1.605v1.395h-7.5v-1.395zM22.5 20.146c0 0.47-0.404 0.854-0.9 0.854h-19.2c-0.496 0-0.9-0.384-0.9-0.853v-11.787c0-0.474 0.403-0.859 0.9-0.859h19.2c0.496 0 0.9 0.385 0.9 0.86v11.787z"></path>
</svg>
