<!-- Generated by IcoMoon.io -->
<svg version="1.1" xmlns="http://www.w3.org/2000/svg" width="16" height="16" viewBox="0 0 16 16">
<title>brief_case</title>
<path fill="#444" d="M14.4 4h-2.9v-0.93c0-1.159-0.938-2.070-2.091-2.070h-2.818c-1.153 0-2.091 0.911-2.091 2.070v0.93h-2.9c-0.884 0-1.6 0.703-1.6 1.573v7.857c0 0.867 0.716 1.57 1.6 1.57h12.8c0.884 0 1.6-0.703 1.6-1.569v-7.858c0-0.87-0.716-1.573-1.6-1.573zM5.5 3.070c0-0.607 0.49-1.070 1.091-1.070h2.817c0.602 0 1.092 0.463 1.092 1.070v0.93h-5v-0.93zM15 13.431c0 0.313-0.269 0.569-0.6 0.569h-12.8c-0.331 0-0.6-0.256-0.6-0.569v-7.858c0-0.316 0.269-0.573 0.6-0.573h12.8c0.331 0 0.6 0.257 0.6 0.573v7.858z"></path>
</svg>
