<!-- Generated by IcoMoon.io -->
<svg version="1.1" xmlns="http://www.w3.org/2000/svg" width="24" height="24" viewBox="0 0 24 24">
<title>bug</title>
<path fill="#444" d="M22.38 11.843l-2.993-0.024c-0.145-0.859-0.353-1.69-0.655-2.445l1.837-2.629c0.12-0.147 0.522-0.809 0.074-1.308-0.414-0.469-1.093 0.323-1.093 0.323l-1.492 2.252c-0.396-0.682-0.85-1.303-1.368-1.82-0.29-1.435-2.283-4.732-4.787-4.732-2.505 0-4.489 3.15-4.478 4.687 0.003 0.303-0.971 1.137-1.373 1.82l-1.185-2.177c0 0-0.508-0.784-1.019-0.392-0.508 0.4-0.194 1.109-0.075 1.249l1.61 2.681c-0.303 0.754-0.529 1.564-0.673 2.424l-3.068-0.003c-0.352 0-0.642 0.345-0.642 0.764 0 0.429 0.29 0.766 0.641 0.766l2.918 0.003c-0.005 0.172-0.023 0.34-0.023 0.512 0 1.438 0.247 2.797 0.676 4.021l-1.702 2.364c-0.121 0.146-0.271 0.672 0 0.987 0.339 0.391 1.017-0.197 1.017-0.197l1.3-1.721c1.927 2.503 3.479 3.293 6.002 3.293s4.213-0.348 6.457-3.247l1.493 1.72c0 0 0.679 0.589 1.019 0.197s0.024-1.112-0.097-1.254l-1.801-2.098c0.433-1.225 0.68-2.583 0.68-4.022 0-0.171 0.037-0.34 0.029-0.513l2.928-0.021c0.353 0 0.463-0.328 0.463-0.756 0-0.425-0.268-0.704-0.62-0.704zM18.205 13.837c0 1.236-0.202 2.436-0.602 3.565-0.084 0.237-0.306 0.922-0.406 1.050-1.901 2.457-3.096 2.714-5.369 2.714-1.891 0-3.108-0.412-4.913-2.757-0.1-0.13-0.324-0.813-0.407-1.050-0.397-1.134-0.599-2.334-0.599-3.566l0.023-0.475c0.006-0.243 0.090-1.093 0.132-1.339 0.126-0.754 0.327-1.474 0.594-2.14 0.088-0.221 0.457-0.97 0.578-1.177 0.119-0.2 0.396-0.512 0.618-0.762 0.532-0.6 0.952-1.074 0.947-1.765-0.004-0.437 0.454-1.533 1.289-2.375 0.343-0.346 1.035-0.926 1.813-0.926 1.563 0 3.221 2.546 3.439 3.63 0.054 0.265 0.184 0.508 0.375 0.699 0.41 0.41 0.797 0.927 1.151 1.539 0.122 0.21 0.499 0.963 0.587 1.183 0.243 0.604 0.436 1.332 0.575 2.162 0.045 0.266 0.195 1.114 0.205 1.342-0.021 0.207-0.030 0.327-0.030 0.448z"></path>
</svg>
