<!-- Generated by IcoMoon.io -->
<svg version="1.1" xmlns="http://www.w3.org/2000/svg" width="24" height="24" viewBox="0 0 24 24">
<title>bug</title>
<path fill="#444" d="M23.323 11.829l-3.265-0.027c-0.157-0.938-0.384-1.843-0.714-2.667l2.004-2.868c0.13-0.16 0.568-0.882 0.081-1.426-0.451-0.511-1.192 0.353-1.192 0.353l-1.628 2.457c-0.432-0.744-0.927-1.42-1.492-1.986-0.315-1.565-2.49-5.162-5.222-5.162-2.733 0-4.898 3.437-4.884 5.112 0.002 0.332-1.062 1.241-1.5 1.985l-1.293-2.375c0 0-0.555-0.855-1.112-0.426-0.555 0.435-0.213 1.209-0.083 1.362l1.757 2.923c-0.33 0.824-0.577 1.707-0.735 2.645l-3.346-0.003c-0.384 0-0.699 0.377-0.699 0.834 0 0.468 0.315 0.836 0.699 0.836l3.183 0.003c-0.005 0.188-0.026 0.37-0.026 0.558 0 1.569 0.27 3.051 0.738 4.388l-1.857 2.58c-0.132 0.158-0.296 0.732 0 1.077 0.37 0.426 1.11-0.216 1.11-0.216l1.417-1.877c2.103 2.73 3.795 3.593 6.548 3.593s4.596-0.38 7.044-3.542l1.629 1.877c0 0 0.741 0.642 1.111 0.216 0.372-0.429 0.027-1.215-0.105-1.368l-1.965-2.288c0.473-1.337 0.742-2.818 0.742-4.389 0-0.186 0.041-0.37 0.032-0.559l3.194-0.024c0.384 0 0.506-0.357 0.506-0.825 0-0.465-0.293-0.77-0.677-0.77zM18.77 14.004c0 1.348-0.221 2.656-0.657 3.889-0.091 0.259-0.333 1.006-0.442 1.146-2.075 2.68-3.376 2.961-5.857 2.961-2.063 0-3.39-0.45-5.36-3.008-0.11-0.143-0.354-0.888-0.444-1.146-0.432-1.238-0.652-2.547-0.652-3.891l0.026-0.518c0.007-0.265 0.099-1.193 0.144-1.461 0.138-0.824 0.356-1.608 0.648-2.335 0.096-0.24 0.498-1.058 0.63-1.283 0.129-0.219 0.43-0.559 0.673-0.831 0.581-0.655 1.038-1.171 1.032-1.925-0.003-0.477 0.495-1.674 1.407-2.593 0.373-0.377 1.13-1.010 1.978-1.010 1.705 0 3.513 2.778 3.752 3.96 0.058 0.288 0.201 0.553 0.409 0.764 0.447 0.447 0.87 1.011 1.256 1.679 0.134 0.228 0.544 1.050 0.64 1.29 0.264 0.659 0.476 1.454 0.627 2.358 0.049 0.29 0.213 1.216 0.223 1.464-0.023 0.225-0.033 0.357-0.033 0.489z"></path>
</svg>
