<!-- Generated by IcoMoon.io -->
<svg version="1.1" xmlns="http://www.w3.org/2000/svg" width="16" height="16" viewBox="0 0 16 16">
<title>bug</title>
<path fill="#444" d="M15.549 7.886l-2.177-0.018c-0.105-0.625-0.256-1.229-0.476-1.778l1.336-1.912c0.087-0.107 0.379-0.588 0.054-0.951-0.301-0.341-0.795 0.235-0.795 0.235l-1.085 1.638c-0.288-0.496-0.618-0.947-0.995-1.324-0.21-1.043-1.66-3.441-3.481-3.441-1.822 0-3.265 2.291-3.256 3.408 0.001 0.221-0.708 0.827-1 1.323l-0.862-1.583c0 0-0.37-0.57-0.741-0.284-0.37 0.29-0.142 0.806-0.055 0.908l1.171 1.949c-0.22 0.549-0.385 1.138-0.49 1.763l-2.231-0.002c-0.256 0-0.466 0.251-0.466 0.556 0 0.312 0.21 0.557 0.466 0.557l2.122 0.002c-0.003 0.125-0.017 0.247-0.017 0.372 0 1.046 0.18 2.034 0.492 2.925l-1.238 1.72c-0.088 0.105-0.197 0.488 0 0.718 0.247 0.284 0.74-0.144 0.74-0.144l0.945-1.251c1.402 1.82 2.53 2.395 4.365 2.395s3.064-0.253 4.696-2.361l1.086 1.251c0 0 0.494 0.428 0.741 0.144 0.248-0.286 0.018-0.81-0.070-0.912l-1.31-1.525c0.315-0.891 0.495-1.879 0.495-2.926 0-0.124 0.027-0.247 0.021-0.373l2.129-0.016c0.256 0 0.337-0.238 0.337-0.55 0-0.31-0.195-0.513-0.451-0.513zM12.513 9.336c0 0.899-0.147 1.771-0.438 2.593-0.061 0.173-0.222 0.671-0.295 0.764-1.383 1.787-2.251 1.974-3.905 1.974-1.375 0-2.26-0.3-3.573-2.005-0.073-0.095-0.236-0.592-0.296-0.764-0.288-0.825-0.435-1.698-0.435-2.594l0.017-0.345c0.005-0.177 0.066-0.795 0.096-0.974 0.092-0.549 0.237-1.072 0.432-1.557 0.064-0.16 0.332-0.705 0.42-0.855 0.086-0.146 0.287-0.373 0.449-0.554 0.387-0.437 0.692-0.781 0.688-1.283-0.002-0.318 0.33-1.116 0.938-1.729 0.249-0.251 0.753-0.673 1.319-0.673 1.137 0 2.342 1.852 2.501 2.64 0.039 0.192 0.134 0.369 0.273 0.509 0.298 0.298 0.58 0.674 0.837 1.119 0.089 0.152 0.363 0.7 0.427 0.86 0.176 0.439 0.317 0.969 0.418 1.572 0.033 0.193 0.142 0.811 0.149 0.976-0.015 0.15-0.022 0.238-0.022 0.326z"></path>
</svg>
