<!-- Generated by IcoMoon.io -->
<svg version="1.1" xmlns="http://www.w3.org/2000/svg" width="24" height="24" viewBox="0 0 24 24">
<title>bus</title>
<path fill="#444" d="M18.049 17.5c-0.252 0.36-0.544 0.498-0.984 0.5h-1.316l0.701-0.999c0.252-0.36 0.544-0.498 0.984-0.501h1.316l-0.701 1zM5.25 16.5h1.316c0.439 0.003 0.732 0.141 0.984 0.501l0.7 0.999h-1.315c-0.439-0.002-0.732-0.139-0.984-0.5l-0.701-1zM23.25 11.787l-1.515-9c-0.106-0.738-0.738-1.287-1.485-1.287h-3.495l-0.252-0.36c-0.527-0.753-1.269-1.137-2.212-1.14h-4.585c-0.939 0.003-1.682 0.387-2.208 1.14l-0.252 0.36h-3.495c-0.747 0-1.379 0.549-1.485 1.287l-1.515 9v7.713c0 0.83 0.672 1.5 1.5 1.5v1.5c0 0.83 0.672 1.5 1.5 1.5h1.5c0.828 0 1.5-0.67 1.5-1.5v-1.5h10.5v1.5c0 0.83 0.672 1.5 1.5 1.5h1.5c0.828 0 1.5-0.67 1.5-1.5v-1.5c0.828 0 1.5-0.67 1.5-1.5v-7.713zM3.75 3h4.275l0.7-1.001c0.252-0.36 0.545-0.498 0.984-0.499h4.581c0.439 0.001 0.732 0.139 0.984 0.499l0.701 1.001h4.275l1.5 9h-19.5l1.5-9zM21.75 18v1.5h-1.5v3h-1.5v-3h-13.5v3h-1.5v-3h-1.5v-6h19.5v4.5z"></path>
</svg>
