<!-- Generated by IcoMoon.io -->
<svg version="1.1" xmlns="http://www.w3.org/2000/svg" width="16" height="16" viewBox="0 0 16 16">
<title>bus</title>
<path fill="#444" d="M12.033 11.667c-0.168 0.24-0.363 0.332-0.656 0.333h-0.877l0.467-0.666c0.168-0.24 0.363-0.332 0.656-0.334h0.877l-0.467 0.667zM3.5 11h0.877c0.293 0.002 0.488 0.094 0.656 0.334l0.467 0.666h-0.877c-0.293-0.001-0.488-0.093-0.656-0.333l-0.467-0.667zM15.5 7.858l-1.010-6c-0.071-0.492-0.492-0.858-0.99-0.858h-2.33l-0.168-0.24c-0.351-0.502-0.846-0.758-1.475-0.76h-3.057c-0.626 0.002-1.121 0.258-1.472 0.76l-0.168 0.24h-2.33c-0.498 0-0.919 0.366-0.99 0.858l-1.010 6v5.142c0 0.553 0.448 1 1 1v1c0 0.553 0.448 1 1 1h1c0.552 0 1-0.447 1-1v-1h7v1c0 0.553 0.448 1 1 1h1c0.552 0 1-0.447 1-1v-1c0.552 0 1-0.447 1-1v-5.142zM2.5 2h2.85l0.467-0.667c0.168-0.24 0.363-0.332 0.656-0.333h3.054c0.293 0.001 0.488 0.093 0.656 0.333l0.467 0.667h2.85l1 6h-13l1-6zM14.5 12v1h-1v2h-1v-2h-9v2h-1v-2h-1v-4h13v3z"></path>
</svg>
