<!-- Generated by IcoMoon.io -->
<svg version="1.1" xmlns="http://www.w3.org/2000/svg" width="24" height="24" viewBox="0 0 24 24">
<title>calculator</title>
<path fill="#444" d="M18.062 18.759l-3.152-4.5h1.22c0.439 0 0.72 0.16 0.973 0.522l1.87 2.671 1.872-2.671c0.253-0.36 0.534-0.522 0.973-0.522h1.22l-3.151 4.5 3.151 4.5h-1.221c-0.438-0.003-0.72-0.16-0.972-0.522l-1.872-2.671-1.87 2.671c-0.252 0.36-0.534 0.519-0.972 0.522h-1.221l3.152-4.5zM12.993 7.512l-0.701-0.999c-0.252-0.36-0.544-0.498-0.984-0.501h-3.582v-3.587c0-0.439-0.141-0.732-0.5-0.984l-1-0.701v5.271h-5.268l0.701 1.002c0.252 0.357 0.544 0.498 0.984 0.498h3.585v3.58c0.003 0.44 0.141 0.732 0.501 0.984l0.999 0.701v-5.265h5.265zM21.822 2.262c-0.439-0.003-0.72 0.158-0.975 0.519l-5.937 8.478h1.221c0.436 0 0.72-0.161 0.972-0.522l5.937-8.478-1.218 0.003zM12.293 18.51c-0.252-0.36-0.544-0.498-0.984-0.501h-10.35l0.701 1.002c0.252 0.357 0.544 0.498 0.984 0.498h10.35l-0.701-0.999z"></path>
</svg>
