<!-- Generated by IcoMoon.io -->
<svg version="1.1" xmlns="http://www.w3.org/2000/svg" width="16" height="16" viewBox="0 0 16 16">
<title>calculator</title>
<path fill="#444" d="M12.041 12.506l-2.101-3h0.813c0.293 0 0.48 0.107 0.649 0.348l1.247 1.781 1.248-1.781c0.169-0.24 0.356-0.348 0.649-0.348h0.813l-2.101 3 2.101 3h-0.814c-0.292-0.002-0.48-0.107-0.648-0.348l-1.248-1.781-1.247 1.781c-0.168 0.24-0.356 0.346-0.648 0.348h-0.814l2.101-3zM8.662 5.008l-0.467-0.666c-0.168-0.24-0.363-0.332-0.656-0.334h-2.388v-2.391c0-0.293-0.094-0.488-0.333-0.656l-0.667-0.467v3.514h-3.512l0.467 0.668c0.168 0.238 0.363 0.332 0.656 0.332h2.39v2.387c0.002 0.293 0.094 0.488 0.334 0.656l0.666 0.467v-3.51h3.51zM14.548 1.508c-0.293-0.002-0.48 0.105-0.65 0.346l-3.958 5.652h0.814c0.291 0 0.48-0.107 0.648-0.348l3.958-5.652-0.812 0.002zM8.195 12.34c-0.168-0.24-0.363-0.332-0.656-0.334h-6.9l0.467 0.668c0.168 0.238 0.363 0.332 0.656 0.332h6.9l-0.467-0.666z"></path>
</svg>
