<!-- Generated by IcoMoon.io -->
<svg version="1.1" xmlns="http://www.w3.org/2000/svg" width="24" height="24" viewBox="0 0 24 24">
<title>calculator</title>
<path fill="#444" d="M17.652 18.302l-2.937-4.193h1.138c0.41 0 0.671 0.148 0.907 0.482l1.744 2.494 1.748-2.494c0.236-0.334 0.497-0.482 0.907-0.482h1.138l-2.938 4.193 2.938 4.198h-1.139c-0.409-0.002-0.671-0.148-0.906-0.487l-1.748-2.49-1.744 2.49c-0.235 0.339-0.497 0.485-0.906 0.487h-1.139l2.937-4.198zM12.925 7.814l-0.651-0.934c-0.235-0.334-0.509-0.461-0.919-0.463h-3.341v-3.344c0-0.41-0.129-0.687-0.465-0.92l-0.933-0.653v4.917h-4.913l0.651 0.932c0.235 0.337 0.509 0.466 0.919 0.466h3.343v3.34c0.002 0.41 0.132 0.682 0.466 0.914l0.932 0.654v-4.909h4.911zM21.159 2.917c-0.41-0.002-0.671 0.146-0.908 0.486l-5.536 7.904h1.139c0.408 0 0.671-0.149 0.906-0.483l5.537-7.909-1.138 0.002zM12.274 18.071c-0.235-0.335-0.509-0.467-0.919-0.469h-9.652l0.651 0.937c0.235 0.332 0.509 0.461 0.919 0.461h9.652l-0.651-0.929z"></path>
</svg>
