<!-- Generated by IcoMoon.io -->
<svg version="1.1" xmlns="http://www.w3.org/2000/svg" width="24" height="24" viewBox="0 0 24 24">
<title>calendar</title>
<path fill="#444" d="M19.486 3.75h-1.299v-2.062c0.001-0.382-0.308-0.688-0.687-0.688s-0.688 0.306-0.688 0.688v2.062h-9.624v-2.062c0-0.382-0.309-0.688-0.688-0.688s-0.688 0.306-0.688 0.688v2.062h-1.298c-1.182 0-2.139 0.953-2.139 2.133v14.975c0 1.189 0.957 2.142 2.139 2.142h14.973c1.182 0 2.139-0.953 2.139-2.143v-14.974c-0.001-1.18-0.958-2.133-2.14-2.133zM20.25 20.857c0 0.424-0.343 0.768-0.764 0.768h-14.972c-0.42 0-0.764-0.344-0.764-0.768v-10.232h16.5v10.232zM20.25 9.25h-16.5v-3.367c0-0.416 0.343-0.758 0.764-0.758h1.299v0.688c-0.001 0.381 0.308 0.687 0.687 0.687s0.688-0.306 0.688-0.688v-0.687h9.625v0.688c0 0.382 0.309 0.688 0.688 0.688s0.688-0.306 0.688-0.688v-0.688h1.299c0.42 0 0.764 0.342 0.764 0.758v3.367z"></path>
</svg>
