<!-- Generated by IcoMoon.io -->
<svg version="1.1" xmlns="http://www.w3.org/2000/svg" width="16" height="16" viewBox="0 0 16 16">
<title>calendar</title>
<path fill="#444" d="M13.444 2h-0.944v-1.5c0-0.276-0.224-0.5-0.5-0.5s-0.5 0.224-0.5 0.5v1.5h-7v-1.5c0-0.276-0.224-0.5-0.5-0.5s-0.5 0.224-0.5 0.5v1.5h-0.944c-0.86 0-1.556 0.695-1.556 1.553v10.891c0 0.861 0.696 1.556 1.556 1.556h10.889c0.859 0 1.555-0.695 1.555-1.557v-10.89c0-0.858-0.696-1.553-1.556-1.553zM14 14.443c0 0.307-0.25 0.557-0.556 0.557h-10.888c-0.306 0-0.556-0.25-0.556-0.557v-7.443h12v7.443zM14 6h-12v-2.447c0-0.305 0.25-0.553 0.556-0.553h0.944v0.5c0 0.276 0.224 0.5 0.5 0.5s0.5-0.224 0.5-0.5v-0.5h7v0.5c0 0.276 0.224 0.5 0.5 0.5s0.5-0.224 0.5-0.5v-0.5h0.944c0.306 0 0.556 0.248 0.556 0.553v2.447z"></path>
</svg>
