<!-- Generated by IcoMoon.io -->
<svg version="1.1" xmlns="http://www.w3.org/2000/svg" width="24" height="24" viewBox="0 0 24 24">
<title>calendar</title>
<path fill="#444" d="M20.166 3h-1.416v-2.25c0-0.414-0.336-0.75-0.75-0.75s-0.75 0.336-0.75 0.75v2.25h-10.5v-2.25c0-0.414-0.336-0.75-0.75-0.75s-0.75 0.336-0.75 0.75v2.25h-1.416c-1.29 0-2.334 1.042-2.334 2.329v16.336c0 1.292 1.044 2.334 2.334 2.334h16.334c1.288 0 2.332-1.043 2.332-2.335v-16.335c0-1.287-1.044-2.329-2.334-2.329zM21 21.665c0 0.46-0.375 0.835-0.834 0.835h-16.332c-0.459 0-0.834-0.375-0.834-0.835v-11.165h18v11.165zM21 9h-18v-3.671c0-0.457 0.375-0.829 0.834-0.829h1.416v0.75c0 0.414 0.336 0.75 0.75 0.75s0.75-0.336 0.75-0.75v-0.75h10.5v0.75c0 0.414 0.336 0.75 0.75 0.75s0.75-0.336 0.75-0.75v-0.75h1.416c0.459 0 0.834 0.372 0.834 0.829v3.671z"></path>
</svg>
