<!-- Generated by IcoMoon.io -->
<svg version="1.1" xmlns="http://www.w3.org/2000/svg" width="24" height="24" viewBox="0 0 24 24">
<title>callcenter</title>
<path fill="#444" d="M19.5 24l-0.026-0.018v0.018l-3.534-2.475c-0.358-0.253-0.52-0.532-0.52-0.973v-1.22l2.58 1.804v-0.717c0-1.947-1.368-3.553-3.15-3.857l-0.6-0.063h-3c-2.067 0-3.75 1.758-3.75 3.919v1.998c-0.027 0.38-0.171 0.668-0.498 0.897l-1.002 0.685v-3.581c0-2.988 2.355-5.419 5.25-5.419h3c2.895 0 5.25 2.431 5.25 5.419v3.581zM19.043 9l-0.997 0.704c-0.357 0.254-0.681 0.284-1.095 0.136l-0.29-0.102c-1.1 1.368-2.768 2.262-4.661 2.262-3.313 0-6-2.687-6-6 0-3.255 2.596-5.892 5.831-5.982l0.017-0.018v0.015c0.053 0 0.101-0.015 0.153-0.015 3.313 0 6 2.686 6 6 0 0.871-0.195 1.695-0.529 2.442l1.572 0.558zM11.846 1.516l-0.002 3.224c0.951 0.262 1.656 1.127 1.656 2.162 0 0.043-0.011 0.084-0.014 0.129l2.558 0.906c0.284-0.589 0.456-1.24 0.456-1.937 0-2.481-2.019-4.5-4.5-4.5-0.053 0-0.101 0.013-0.154 0.016zM10.5 6.902c0 0.414 0.336 0.75 0.75 0.75s0.75-0.336 0.75-0.75-0.336-0.75-0.75-0.75-0.75 0.334-0.75 0.75zM15.153 9.204l-2.244-0.795c-0.411 0.452-1 0.743-1.659 0.743-1.241 0-2.25-1.010-2.25-2.25 0-0.921 0.558-1.713 1.351-2.061l0.003-3.019c-1.667 0.658-2.854 2.278-2.854 4.179 0 2.481 2.019 4.5 4.5 4.5 1.228 0 2.341-0.497 3.153-1.296z"></path>
</svg>
