<!-- Generated by IcoMoon.io -->
<svg version="1.1" xmlns="http://www.w3.org/2000/svg" width="24" height="24" viewBox="0 0 24 24">
<title>callcenter</title>
<path d="M18.688 23l-0.023-0.016v0.016l-3.24-2.27c-0.329-0.232-0.477-0.488-0.477-0.893v-1.119l2.365 1.656v-0.656c0-1.785-1.254-3.258-2.888-3.536l-0.55-0.058h-2.75c-1.896 0-3.438 1.611-3.438 3.594v1.831c-0.025 0.348-0.156 0.612-0.457 0.821l-0.918 0.63v-3.281c0-2.74 2.159-4.969 4.812-4.969h2.75c2.653 0 4.812 2.229 4.812 4.969v3.281zM18.269 9.25l-0.914 0.645c-0.329 0.232-0.625 0.261-1.005 0.125l-0.266-0.094c-1.008 1.255-2.537 2.074-4.272 2.074-3.037 0-5.5-2.463-5.5-5.5 0-2.983 2.381-5.4 5.345-5.484l0.016-0.016v0.014c0.048 0 0.092-0.014 0.14-0.014 3.037 0 5.5 2.463 5.5 5.5 0 0.799-0.179 1.554-0.485 2.238l1.441 0.512zM11.671 2.39l-0.002 2.956c0.872 0.24 1.518 1.032 1.518 1.98 0 0.040-0.009 0.077-0.012 0.118l2.345 0.831c0.26-0.54 0.417-1.138 0.417-1.775 0-2.274-1.851-4.125-4.125-4.125-0.048 0-0.092 0.012-0.141 0.015zM10.438 7.326c0 0.38 0.308 0.688 0.688 0.688s0.688-0.308 0.688-0.688c0-0.381-0.308-0.688-0.688-0.688s-0.688 0.307-0.688 0.688zM14.703 9.437l-2.057-0.729c-0.377 0.415-0.916 0.682-1.521 0.682-1.137 0-2.062-0.926-2.062-2.062 0-0.845 0.511-1.57 1.239-1.89l0.003-2.768c-1.529 0.603-2.617 2.089-2.617 3.83 0 2.274 1.851 4.125 4.125 4.125 1.125 0 2.145-0.455 2.89-1.188z"></path>
</svg>
