<!-- Generated by IcoMoon.io -->
<svg version="1.1" xmlns="http://www.w3.org/2000/svg" width="16" height="16" viewBox="0 0 16 16">
<title>callcenter</title>
<path fill="#444" d="M13 16l-0.017-0.012v0.012l-2.356-1.65c-0.239-0.169-0.347-0.355-0.347-0.649v-0.813l1.72 1.203v-0.478c0-1.298-0.912-2.369-2.1-2.571l-0.4-0.042h-2c-1.378 0-2.5 1.172-2.5 2.613v1.332c-0.018 0.253-0.114 0.445-0.332 0.598l-0.668 0.457v-2.387c0-1.992 1.57-3.613 3.5-3.613h2c1.93 0 3.5 1.621 3.5 3.613v2.387zM12.695 6l-0.665 0.469c-0.238 0.169-0.454 0.189-0.73 0.091l-0.193-0.068c-0.733 0.912-1.845 1.508-3.107 1.508-2.209 0-4-1.791-4-4 0-2.17 1.731-3.928 3.887-3.988l0.011-0.012v0.010c0.035 0 0.067-0.010 0.102-0.010 2.209 0 4 1.791 4 4 0 0.581-0.13 1.13-0.353 1.628l1.048 0.372zM7.897 1.011l-0.001 2.149c0.634 0.175 1.104 0.751 1.104 1.441 0 0.029-0.007 0.056-0.009 0.086l1.705 0.604c0.189-0.393 0.304-0.827 0.304-1.291 0-1.654-1.346-3-3-3-0.035 0-0.067 0.009-0.103 0.011zM7 4.601c0 0.276 0.224 0.5 0.5 0.5s0.5-0.224 0.5-0.5-0.224-0.5-0.5-0.5-0.5 0.223-0.5 0.5zM10.102 6.136l-1.496-0.53c-0.274 0.301-0.667 0.495-1.106 0.495-0.827 0-1.5-0.673-1.5-1.5 0-0.614 0.372-1.142 0.901-1.374l0.002-2.013c-1.111 0.439-1.903 1.519-1.903 2.786 0 1.654 1.346 3 3 3 0.819 0 1.561-0.331 2.102-0.864z"></path>
</svg>
