<!-- Generated by IcoMoon.io -->
<svg version="1.1" xmlns="http://www.w3.org/2000/svg" width="24" height="24" viewBox="0 0 24 24">
<title>car</title>
<path fill="#444" d="M22.5 9.75c-0.45-0.9-0.672-1.5-1.5-1.5h-0.011c0-0.301-0.081-0.603-0.259-0.86l-1.399-2.001c-0.77-1.098-1.813-1.635-3.197-1.639h-8.272c-1.378 0.005-2.423 0.54-3.194 1.641l-1.398 2c-0.178 0.257-0.26 0.558-0.26 0.86h-0.010c-0.828 0-1.050 0.45-1.5 1.5l-1.5 3v6c0 0.83 0.672 1.5 1.5 1.5h1.5c0.828 0 1.5-0.67 1.5-1.5v-1.5h15v1.5c0 0.83 0.672 1.5 1.5 1.5h1.5c0.828 0 1.5-0.67 1.5-1.5v-6l-1.5-3zM5.898 6.25c0.504-0.718 1.089-0.997 1.968-1h8.268c0.879 0.003 1.465 0.282 1.968 1l1.398 2h-15l1.398-2zM22.5 18.75h-1.5v-3h-18v3h-1.5v-6l1.5-3h18l1.5 3v6zM15 12h4.316c0.439 0.003 0.732 0.141 0.984 0.501l0.701 0.999h-4.316c-0.439-0.002-0.732-0.139-0.984-0.5l-0.701-1zM3.7 12.5c0.252-0.36 0.545-0.498 0.984-0.5h4.316l-0.7 0.999c-0.252 0.36-0.545 0.498-0.984 0.501h-4.316l0.701-1z"></path>
</svg>
