<!-- Generated by IcoMoon.io -->
<svg version="1.1" xmlns="http://www.w3.org/2000/svg" width="16" height="16" viewBox="0 0 16 16">
<title>car</title>
<path fill="#444" d="M15 6.5c-0.3-0.6-0.448-1-1-1h-0.007c0-0.201-0.054-0.402-0.173-0.573l-0.933-1.334c-0.513-0.732-1.209-1.090-2.131-1.093h-5.515c-0.919 0.003-1.615 0.36-2.129 1.094l-0.932 1.333c-0.119 0.171-0.173 0.372-0.173 0.573h-0.007c-0.552 0-0.7 0.3-1 1l-1 2v4c0 0.553 0.448 1 1 1h1c0.552 0 1-0.447 1-1v-1h10v1c0 0.553 0.448 1 1 1h1c0.552 0 1-0.447 1-1v-4l-1-2zM3.932 4.167c0.336-0.479 0.726-0.665 1.312-0.667h5.512c0.586 0.002 0.977 0.188 1.312 0.667l0.932 1.333h-10l0.932-1.333zM15 12.5h-1v-2h-12v2h-1v-4l1-2h12l1 2v4zM10 8h2.877c0.293 0.002 0.488 0.094 0.656 0.334l0.467 0.666h-2.877c-0.293-0.001-0.488-0.093-0.656-0.333l-0.467-0.667zM2.467 8.333c0.168-0.24 0.363-0.332 0.656-0.333h2.877l-0.467 0.666c-0.168 0.24-0.363 0.332-0.656 0.334h-2.877l0.467-0.667z"></path>
</svg>
