<!-- Generated by IcoMoon.io -->
<svg version="1.1" xmlns="http://www.w3.org/2000/svg" width="24" height="24" viewBox="0 0 24 24">
<title>car</title>
<path fill="#444" d="M21.625 9.938c-0.411-0.822-0.615-1.375-1.375-1.375h-0.010c0-0.277-0.074-0.555-0.238-0.79l-1.281-1.833c-0.707-1.008-1.663-1.5-2.931-1.503h-7.583c-1.265 0.003-2.222 0.496-2.929 1.504l-1.28 1.831c-0.164 0.236-0.238 0.513-0.238 0.79h-0.010c-0.76 0-0.964 0.411-1.375 1.375l-1.375 2.751v5.5c0 0.758 0.615 1.375 1.375 1.375h1.375c0.76 0 1.375-0.617 1.375-1.375v-1.375h13.75v1.375c0 0.758 0.615 1.375 1.375 1.375h1.375c0.76 0 1.375-0.617 1.375-1.375v-5.5l-1.375-2.75zM6.405 6.731c0.462-0.661 0.999-0.917 1.805-0.919h7.58c0.806 0.002 1.343 0.258 1.805 0.919l1.28 1.831h-13.75l1.28-1.831zM21.625 18.188h-1.375v-2.75h-16.5v2.75h-1.375v-5.5l1.375-2.75h16.5l1.375 2.75v5.5zM14.75 12h3.955c0.404 0.002 0.673 0.129 0.902 0.457l0.643 0.918h-3.955c-0.404-0.001-0.673-0.128-0.902-0.456l-0.643-0.919zM4.393 12.456c0.229-0.328 0.498-0.455 0.902-0.456h3.955l-0.643 0.918c-0.229 0.328-0.498 0.455-0.902 0.457h-3.955l0.643-0.919z"></path>
</svg>
