<!-- Generated by IcoMoon.io -->
<svg version="1.1" xmlns="http://www.w3.org/2000/svg" width="16" height="16" viewBox="0 0 16 16">
<title>cardio</title>
<path fill="#444" d="M16 8.484h-3.145l-2.134 6.178c-0.069 0.203-0.259 0.338-0.472 0.338s-0.403-0.135-0.473-0.337l-4.030-11.663-1.778 5.146c-0.070 0.203-0.26 0.338-0.473 0.338h-2.392c-0.277-0.008-0.479-0.111-0.642-0.343l-0.461-0.659h3.139l2.134-6.179c0.14-0.404 0.806-0.405 0.945-0.001l4.031 11.664 1.777-5.146c0.070-0.203 0.26-0.338 0.473-0.338h2.377c0.293 0 0.499 0.107 0.667 0.348 0 0 0.46 0.654 0.457 0.654z"></path>
</svg>
