<!-- Generated by IcoMoon.io -->
<svg version="1.1" xmlns="http://www.w3.org/2000/svg" width="24" height="24" viewBox="0 0 24 24">
<title>cardio</title>
<path fill="#444" d="M24 12.726h-4.718l-3.201 9.267c-0.104 0.305-0.388 0.507-0.708 0.507s-0.604-0.202-0.71-0.505l-6.045-17.495-2.667 7.719c-0.105 0.304-0.39 0.507-0.709 0.507h-3.588c-0.415-0.012-0.718-0.167-0.963-0.515l-0.692-0.988h4.708l3.201-9.269c0.21-0.606 1.209-0.607 1.418-0.001l6.046 17.496 2.665-7.719c0.105-0.305 0.39-0.507 0.71-0.507h3.565c0.439 0 0.748 0.161 1 0.522 0 0 0.69 0.981 0.686 0.981z"></path>
</svg>
