<!-- Generated by IcoMoon.io -->
<svg version="1.1" xmlns="http://www.w3.org/2000/svg" width="24" height="24" viewBox="0 0 24 24">
<title>cardio</title>
<path fill="#444" d="M23 12.666h-4.325l-2.934 8.492c-0.096 0.279-0.356 0.467-0.648 0.467s-0.555-0.188-0.651-0.466l-5.543-16.034-2.442 7.074c-0.097 0.28-0.357 0.467-0.652 0.467h-3.289c-0.379-0.015-0.658-0.152-0.882-0.473l-0.634-0.904h4.317l2.933-8.499c0.192-0.551 1.107-0.552 1.3-0.001l5.542 16.041 2.442-7.080c0.096-0.279 0.359-0.461 0.652-0.461h3.268c0.404 0 0.686 0.148 0.916 0.477 0 0 0.633 0.9 0.63 0.9z"></path>
</svg>
