<!-- Generated by IcoMoon.io -->
<svg version="1.1" xmlns="http://www.w3.org/2000/svg" width="16" height="16" viewBox="0 0 16 16">
<title>chart_cashflow</title>
<path fill="#444" d="M7.5 3v4.5c0 0.276-0.224 0.5-0.5 0.5s-0.5-0.224-0.5-0.5c0-0.013 0.006-0.022 0.007-0.034l-0.007 0.002v-3.345c0.002-0.293 0.094-0.488 0.334-0.656l0.666-0.467zM14.834 3.467c-0.24 0.168-0.332 0.363-0.334 0.656v3.345l0.007-0.002c-0.001 0.012-0.007 0.021-0.007 0.034 0 0.276 0.224 0.5 0.5 0.5s0.5-0.224 0.5-0.5v-4.5l-0.666 0.467zM10.834 1.467c-0.24 0.168-0.332 0.363-0.334 0.656v5.345l0.007-0.002c-0.001 0.012-0.007 0.021-0.007 0.034 0 0.276 0.224 0.5 0.5 0.5s0.5-0.224 0.5-0.5v-6.5l-0.666 0.467zM4.834 5.467c-0.24 0.168-0.332 0.363-0.334 0.656v1.345l0.007-0.002c-0.001 0.012-0.007 0.021-0.007 0.034 0 0.276 0.224 0.5 0.5 0.5s0.5-0.224 0.5-0.5v-2.5l-0.666 0.467zM3.166 13.533c0.24-0.168 0.332-0.363 0.334-0.656v-4.345l-0.007 0.002c0.001-0.012 0.007-0.021 0.007-0.034 0-0.276-0.224-0.5-0.5-0.5s-0.5 0.224-0.5 0.5v5.5l0.666-0.467zM0.834 0.467c-0.24 0.168-0.332 0.363-0.334 0.656v6.345l0.007-0.002c-0.001 0.012-0.007 0.021-0.007 0.034 0 0.276 0.224 0.5 0.5 0.5s0.5-0.224 0.5-0.5v-7.5l-0.666 0.467zM13.166 10.533c0.24-0.168 0.332-0.363 0.334-0.656v-1.345l-0.007 0.002c0.001-0.012 0.007-0.021 0.007-0.034 0-0.276-0.224-0.5-0.5-0.5s-0.5 0.224-0.5 0.5v2.5l0.666-0.467zM9.166 15.533c0.24-0.168 0.332-0.363 0.334-0.656v-6.345l-0.007 0.002c0.001-0.012 0.007-0.021 0.007-0.034 0-0.276-0.224-0.5-0.5-0.5s-0.5 0.224-0.5 0.5v7.5l0.666-0.467z"></path>
</svg>
