<!-- Generated by IcoMoon.io -->
<svg version="1.1" xmlns="http://www.w3.org/2000/svg" width="24" height="24" viewBox="0 0 24 24">
<title>chart_pizza</title>
<path d="M21.612 6.567c-1.417-2.555-3.739-4.409-6.542-5.226-0.127-0.039-0.256-0.058-0.385-0.058-0.261 0-0.52 0.078-0.745 0.225-0.337 0.217-0.559 0.567-0.617 0.967l-0.264 1.894c-0.094 0.655 0.297 1.293 0.93 1.503 1.447 0.477 2.675 1.46 3.459 2.76 0.255 0.427 0.708 0.667 1.179 0.667 0.163 0 0.33-0.027 0.488-0.089l1.783-0.684c0.373-0.139 0.665-0.438 0.802-0.816 0.139-0.374 0.106-0.795-0.088-1.143zM18.628 7.921c-0.955-1.588-2.449-2.778-4.208-3.359l0.266-1.899c2.436 0.716 4.493 2.357 5.724 4.575l-1.782 0.683zM22.967 11.075c-0.032-0.401-0.235-0.767-0.556-1.005-0.238-0.174-0.525-0.266-0.816-0.266-0.1 0-0.203 0.008-0.303 0.030l-1.859 0.425c-0.646 0.147-1.098 0.735-1.071 1.402 0.126 2.933-1.73 5.562-4.515 6.412-0.604 0.181-1.226 0.278-1.847 0.278-0.173 0-0.347-0.012-0.519-0.021-0.686-0.060-1.353-0.229-1.985-0.503-0.174-0.073-0.361-0.111-0.544-0.111-0.449 0-0.886 0.22-1.147 0.62l-1.050 1.596c-0.221 0.337-0.285 0.749-0.178 1.135 0.108 0.386 0.379 0.706 0.739 0.876 1.2 0.565 2.469 0.908 3.778 1.017 0.303 0.024 0.606 0.040 0.908 0.040 1.079 0 2.148-0.158 3.188-0.476 4.91-1.496 8.18-6.31 7.777-11.449zM14.792 21.2c-1.168 0.358-2.374 0.488-3.585 0.385-1.141-0.093-2.262-0.396-3.303-0.889l1.048-1.602c0.768 0.335 1.584 0.536 2.413 0.611 0.971 0.076 1.942-0.029 2.881-0.313 3.42-1.037 5.64-4.304 5.49-7.785l1.858-0.424c0.352 4.45-2.438 8.695-6.802 10.017zM11.968 2.374c-0.001-0.402-0.175-0.776-0.479-1.037-0.251-0.222-0.57-0.337-0.896-0.337-0.066 0-0.132 0.004-0.201 0.017-0.531 0.074-1.059 0.196-1.573 0.35-5.807 1.763-9.102 7.945-7.347 13.775 0.436 1.452 1.152 2.771 2.13 3.93 0.258 0.304 0.635 0.485 1.035 0.489 0.004 0 0.011 0 0.015 0 0.395 0 0.767-0.169 1.029-0.466l1.265-1.428c0.442-0.505 0.463-1.247 0.049-1.775-0.494-0.625-0.86-1.329-1.088-2.090-1.019-3.385 0.889-6.961 4.253-7.984 0.227-0.067 0.457-0.127 0.693-0.171 0.653-0.118 1.124-0.693 1.123-1.359l-0.008-1.914zM9.759 4.5c-4.085 1.241-6.406 5.59-5.169 9.697 0.278 0.933 0.729 1.796 1.328 2.552l-1.266 1.434c-0.847-1.006-1.483-2.172-1.864-3.437-1.536-5.105 1.348-10.517 6.43-12.056 0.45-0.141 0.91-0.243 1.375-0.312l0.008 1.912c-0.287 0.059-0.567 0.126-0.842 0.21z"></path>
</svg>
