<!-- Generated by IcoMoon.io -->
<svg version="1.1" xmlns="http://www.w3.org/2000/svg" width="24" height="24" viewBox="0 0 24 24">
<title>chart_pizza</title>
<path fill="#444" d="M22.485 6.075c-1.545-2.785-4.080-4.812-7.135-5.703-0.138-0.040-0.279-0.060-0.418-0.060-0.287 0-0.569 0.083-0.813 0.24-0.367 0.237-0.612 0.623-0.672 1.054l-0.29 2.067c-0.102 0.72 0.326 1.413 1.015 1.639 1.576 0.522 2.918 1.593 3.774 3.015 0.277 0.465 0.771 0.728 1.284 0.728 0.178 0 0.359-0.031 0.533-0.098l1.944-0.744c0.407-0.156 0.726-0.48 0.875-0.891 0.152-0.413 0.116-0.867-0.096-1.248zM19.23 7.551c-1.041-1.731-2.672-3.033-4.59-3.668l0.291-2.068c2.657 0.777 4.902 2.571 6.244 4.992l-1.945 0.744zM23.964 10.991c-0.035-0.435-0.255-0.834-0.606-1.094-0.261-0.191-0.573-0.293-0.889-0.293-0.111 0-0.221 0.012-0.332 0.036l-2.028 0.462c-0.707 0.159-1.198 0.804-1.167 1.531 0.136 3.195-1.889 6.067-4.928 6.99-0.66 0.201-1.336 0.303-2.014 0.303-0.189 0-0.38-0.009-0.567-0.024-0.747-0.063-1.474-0.246-2.165-0.543-0.19-0.084-0.393-0.123-0.592-0.123-0.492 0-0.969 0.241-1.253 0.675l-1.146 1.743c-0.24 0.364-0.309 0.816-0.192 1.236 0.119 0.42 0.411 0.77 0.805 0.954 1.308 0.619 2.693 0.993 4.12 1.111 0.332 0.029 0.663 0.043 0.993 0.043 1.174 0 2.343-0.174 3.476-0.52 5.357-1.629 8.925-6.882 8.484-12.489zM15.045 22.038c-1.273 0.389-2.589 0.531-3.91 0.418-1.247-0.104-2.469-0.436-3.604-0.972l1.146-1.743c0.835 0.361 1.726 0.585 2.631 0.662 1.061 0.088 2.118-0.027 3.144-0.339 3.732-1.134 6.153-4.698 5.989-8.496l2.028-0.46c0.381 4.857-2.661 9.485-7.424 10.93zM11.966 1.498c-0.002-0.437-0.192-0.847-0.522-1.134-0.274-0.237-0.621-0.364-0.978-0.364-0.074 0-0.146 0.006-0.217 0.017-0.582 0.084-1.158 0.214-1.717 0.384-6.335 1.924-9.93 8.667-8.014 15.030 0.475 1.581 1.257 3.023 2.325 4.285 0.282 0.333 0.693 0.526 1.127 0.531 0.005 0 0.012 0 0.017 0 0.429 0 0.839-0.183 1.122-0.506l1.38-1.561c0.481-0.546 0.504-1.36 0.054-1.933-0.538-0.683-0.938-1.449-1.188-2.281-1.11-3.688 0.971-7.593 4.639-8.707 0.248-0.075 0.5-0.138 0.758-0.186 0.711-0.133 1.224-0.759 1.223-1.485l-0.006-2.088zM9.556 3.817c-4.458 1.351-6.99 6.099-5.64 10.582 0.303 1.013 0.795 1.956 1.447 2.781l-1.38 1.561c-0.924-1.095-1.619-2.37-2.032-3.748-1.677-5.566 1.468-11.467 7.014-13.152 0.49-0.15 0.992-0.261 1.5-0.336l0.008 2.086c-0.312 0.060-0.618 0.133-0.917 0.225z"></path>
</svg>
