<!-- Generated by IcoMoon.io -->
<svg version="1.1" xmlns="http://www.w3.org/2000/svg" width="24" height="24" viewBox="0 0 24 24">
<title>chart_line</title>
<path fill="#444" d="M22.845 0.274c-0.427 0.101-0.69 0.327-0.853 0.735l-4.584 13.428-5.203 2.683-5.616-7.087c-0.144-0.18-0.361-0.284-0.588-0.284-0.032 0-0.063 0.002-0.095 0.006-0.26 0.033-0.484 0.199-0.591 0.439 0 0-5.296 13.711-5.314 13.805h0.974c0.385-0.093 0.624-0.308 0.787-0.643l0.563-1.455 3.858-9.966 5.229 6.599c0.148 0.186 0.367 0.287 0.59 0.287 0.115 0 0.234-0.027 0.343-0.084l6-3.093c0.16-0.082 0.285-0.219 0.352-0.389l5.304-15.255-1.155 0.274z"></path>
</svg>
