<!-- Generated by IcoMoon.io -->
<svg version="1.1" xmlns="http://www.w3.org/2000/svg" width="16" height="16" viewBox="0 0 16 16">
<title>chart_lines</title>
<path fill="#444" d="M14.116 5.419l1.884-5.419-0.77 0.183c-0.285 0.067-0.46 0.218-0.569 0.49l-1.346 3.941-0.962-0.968c-0.195-0.195-0.512-0.195-0.707 0l-2.693 2.694-3.653-2.74c-0.114-0.086-0.259-0.12-0.398-0.090l-4.193 0.85c-0.173 0.080-0.305 0.206-0.386 0.408l-0.323 0.732 4.879-0.966 3.821 2.866c0.198 0.147 0.477 0.128 0.653-0.047l2.647-2.646 0.957 0.957-1.352 3.961-3.469 1.789-3.744-4.725c-0.096-0.12-0.241-0.189-0.392-0.189-0.021 0-0.042 0.001-0.063 0.004-0.173 0.022-0.323 0.133-0.394 0.293 0 0-3.531 9.141-3.543 9.203h0.649c0.257-0.062 0.416-0.205 0.525-0.429l0.375-0.97 2.572-6.644 3.486 4.399c0.099 0.124 0.245 0.191 0.393 0.191 0.077 0 0.156-0.018 0.229-0.056l4-2.062c0.107-0.055 0.19-0.146 0.235-0.259l1.29-3.709 2.083 2.083 0.133-0.796c0.041-0.24-0.008-0.438-0.146-0.611l-1.708-1.718z"></path>
</svg>
