<!-- Generated by IcoMoon.io -->
<svg version="1.1" xmlns="http://www.w3.org/2000/svg" width="24" height="24" viewBox="0 0 24 24">
<title>chart_cashflow</title>
<path fill="#444" d="M11.25 4.5v6.75c0 0.414-0.336 0.75-0.75 0.75s-0.75-0.336-0.75-0.75c0-0.020 0.009-0.033 0.011-0.051l-0.011 0.003v-5.018c0.003-0.439 0.141-0.732 0.501-0.984l0.999-0.701zM22.251 5.2c-0.36 0.252-0.498 0.545-0.501 0.984v5.018l0.011-0.003c-0.002 0.018-0.011 0.031-0.011 0.051 0 0.414 0.336 0.75 0.75 0.75s0.75-0.336 0.75-0.75v-6.75l-0.999 0.7zM16.251 2.2c-0.36 0.252-0.498 0.545-0.501 0.984v8.018l0.011-0.003c-0.002 0.018-0.011 0.031-0.011 0.051 0 0.414 0.336 0.75 0.75 0.75s0.75-0.336 0.75-0.75v-9.75l-0.999 0.7zM7.251 8.2c-0.36 0.252-0.498 0.545-0.501 0.984v2.017l0.010-0.003c-0.002 0.018-0.010 0.032-0.010 0.051 0 0.414 0.336 0.75 0.75 0.75s0.75-0.336 0.75-0.75v-3.75l-0.999 0.7zM4.749 20.299c0.36-0.252 0.498-0.544 0.501-0.984v-6.518l-0.011 0.003c0.002-0.018 0.011-0.032 0.011-0.051 0-0.414-0.336-0.75-0.75-0.75s-0.75 0.336-0.75 0.75v8.25l0.999-0.701zM1.251 0.701c-0.36 0.252-0.498 0.545-0.501 0.984v9.518l0.010-0.003c-0.001 0.018-0.011 0.031-0.011 0.051 0 0.414 0.336 0.75 0.75 0.75s0.75-0.336 0.75-0.75v-11.25l-0.999 0.701zM19.749 15.799c0.36-0.252 0.498-0.544 0.501-0.984v-2.018l-0.011 0.003c0.002-0.018 0.011-0.032 0.011-0.051 0-0.414-0.336-0.75-0.75-0.75s-0.75 0.336-0.75 0.75v3.75l0.999-0.7zM13.749 23.299c0.36-0.252 0.498-0.544 0.501-0.984v-9.518l-0.011 0.003c0.002-0.018 0.011-0.032 0.011-0.051 0-0.414-0.336-0.75-0.75-0.75s-0.75 0.336-0.75 0.75v11.25l0.999-0.701z"></path>
</svg>
