<!-- Generated by IcoMoon.io -->
<svg version="1.1" xmlns="http://www.w3.org/2000/svg" width="24" height="24" viewBox="0 0 24 24">
<title>chart_line</title>
<path fill="#444" d="M21.94 1.253c-0.391 0.091-0.633 0.3-0.78 0.672l-4.205 12.31-4.77 2.457-5.147-6.494c-0.13-0.168-0.331-0.26-0.538-0.26-0.030 0-0.057 0.001-0.086 0.004-0.238 0.034-0.443 0.186-0.541 0.404 0 0-4.855 12.568-4.873 12.654h0.893c0.354-0.085 0.571-0.281 0.722-0.587l0.514-1.328 0.002-0.011 3.539-9.134 4.793 6.052c0.133 0.17 0.334 0.26 0.539 0.26 0.106 0 0.214-0.023 0.313-0.079l5.5-2.836c0.148-0.072 0.264-0.199 0.323-0.353l4.862-13.984-1.060 0.253z"></path>
</svg>
