<!-- Generated by IcoMoon.io -->
<svg version="1.1" xmlns="http://www.w3.org/2000/svg" width="24" height="24" viewBox="0 0 24 24">
<title>chart_lines</title>
<path fill="#444" d="M21.174 8.128l2.826-8.128-1.155 0.274c-0.427 0.101-0.69 0.327-0.853 0.735l-2.019 5.911-1.443-1.452c-0.293-0.292-0.768-0.292-1.061 0l-4.040 4.041-5.479-4.11c-0.171-0.129-0.389-0.18-0.597-0.135l-6.289 1.275c-0.26 0.12-0.458 0.309-0.579 0.612l-0.485 1.098 7.319-1.449 5.731 4.299c0.297 0.22 0.716 0.192 0.98-0.071l3.971-3.969 1.436 1.435-2.028 5.941-5.203 2.683-5.616-7.087c-0.144-0.18-0.361-0.284-0.588-0.284-0.031 0-0.063 0.002-0.095 0.006-0.26 0.033-0.484 0.199-0.591 0.439 0 0-5.296 13.711-5.314 13.805h0.974c0.385-0.093 0.624-0.308 0.787-0.643l0.563-1.455 3.858-9.966 5.229 6.599c0.149 0.186 0.367 0.287 0.59 0.287 0.115 0 0.234-0.027 0.343-0.084l6-3.093c0.16-0.082 0.285-0.219 0.352-0.389l1.935-5.563 3.125 3.124 0.2-1.194c0.061-0.36-0.012-0.657-0.219-0.916l-2.562-2.577z"></path>
</svg>
