<!-- Generated by IcoMoon.io -->
<svg version="1.1" xmlns="http://www.w3.org/2000/svg" width="24" height="24" viewBox="0 0 24 24">
<title>chart_bar</title>
<path fill="#444" d="M5.25 15h-4.5c-0.414 0-0.75 0.336-0.75 0.75v7.5c0 0.414 0.336 0.75 0.75 0.75h4.5c0.414 0 0.75-0.336 0.75-0.75v-7.5c0-0.414-0.336-0.75-0.75-0.75zM4.5 22.5h-3v-6h3v6zM14.25 7.5h-4.5c-0.414 0-0.75 0.336-0.75 0.75v15c0 0.414 0.336 0.75 0.75 0.75h4.5c0.414 0 0.75-0.336 0.75-0.75v-15c0-0.414-0.336-0.75-0.75-0.75zM13.5 22.5h-3v-13.5h3v13.5zM23.25 0h-4.5c-0.414 0-0.75 0.336-0.75 0.75v22.5c0 0.414 0.336 0.75 0.75 0.75h4.5c0.414 0 0.75-0.336 0.75-0.75v-22.5c0-0.414-0.336-0.75-0.75-0.75zM22.5 22.5h-3v-21h3v21z"></path>
</svg>
