<!-- Generated by IcoMoon.io -->
<svg version="1.1" xmlns="http://www.w3.org/2000/svg" width="24" height="24" viewBox="0 0 24 24">
<title>chart_lines</title>
<path fill="#444" d="M20.41 8.452l2.59-7.452-1.060 0.253c-0.391 0.091-0.633 0.3-0.78 0.672l-1.853 5.418-1.322-1.331c-0.269-0.266-0.702-0.266-0.971 0l-3.704 3.707-5.024-3.772c-0.155-0.115-0.355-0.16-0.547-0.119l-5.764 1.166c-0.237 0.11-0.418 0.283-0.532 0.561l-0.443 1.007 6.707-1.329 5.257 3.944c0.271 0.2 0.656 0.175 0.896-0.064l3.64-3.643 1.314 1.314-1.859 5.449-4.77 2.457-5.147-6.494c-0.13-0.166-0.331-0.258-0.538-0.258-0.030 0-0.057 0.001-0.086 0.004-0.238 0.034-0.443 0.186-0.541 0.404 0 0-4.855 12.568-4.873 12.654h0.893c0.354-0.085 0.571-0.281 0.722-0.587l0.514-1.328 0.002-0.011 3.539-9.134 4.793 6.052c0.133 0.17 0.334 0.26 0.539 0.26 0.106 0 0.214-0.023 0.313-0.079l5.5-2.836c0.148-0.072 0.264-0.199 0.323-0.353l1.773-5.098 2.865 2.862 0.183-1.095c0.055-0.334-0.011-0.602-0.199-0.84l-2.35-2.361z"></path>
</svg>
