<!-- Generated by IcoMoon.io -->
<svg version="1.1" xmlns="http://www.w3.org/2000/svg" width="16" height="16" viewBox="0 0 16 16">
<title>chart_pizza</title>
<path fill="#444" d="M14.99 4.050c-1.030-1.857-2.72-3.208-4.757-3.802-0.092-0.027-0.186-0.040-0.279-0.040-0.191 0-0.379 0.055-0.542 0.16-0.245 0.158-0.408 0.415-0.448 0.703l-0.193 1.378c-0.068 0.48 0.217 0.942 0.677 1.093 1.051 0.348 1.945 1.062 2.516 2.010 0.185 0.31 0.514 0.485 0.856 0.485 0.119 0 0.239-0.021 0.355-0.065l1.296-0.496c0.271-0.104 0.484-0.32 0.583-0.594 0.101-0.275 0.077-0.578-0.064-0.832zM12.82 5.034c-0.694-1.154-1.781-2.022-3.060-2.445l0.194-1.379c1.771 0.518 3.268 1.714 4.163 3.328l-1.297 0.496zM15.976 7.327c-0.023-0.29-0.17-0.556-0.404-0.729-0.174-0.127-0.382-0.195-0.593-0.195-0.074 0-0.147 0.008-0.221 0.024l-1.352 0.308c-0.471 0.106-0.799 0.536-0.778 1.021 0.091 2.13-1.259 4.045-3.285 4.66-0.44 0.134-0.891 0.202-1.343 0.202-0.126 0-0.253-0.006-0.378-0.016-0.498-0.042-0.983-0.164-1.443-0.362-0.127-0.056-0.262-0.082-0.395-0.082-0.328 0-0.646 0.161-0.835 0.45l-0.764 1.162c-0.16 0.243-0.206 0.544-0.128 0.824 0.079 0.28 0.274 0.513 0.537 0.636 0.872 0.413 1.795 0.662 2.747 0.741 0.221 0.019 0.442 0.029 0.662 0.029 0.783 0 1.562-0.116 2.317-0.347 3.571-1.086 5.95-4.588 5.656-8.326zM10.030 14.692c-0.849 0.259-1.726 0.354-2.607 0.279-0.831-0.069-1.646-0.291-2.403-0.648l0.764-1.162c0.557 0.241 1.151 0.39 1.754 0.441 0.707 0.059 1.412-0.018 2.096-0.226 2.488-0.756 4.102-3.132 3.993-5.664l1.352-0.307c0.254 3.238-1.774 6.323-4.949 7.287zM7.977 0.999c-0.001-0.291-0.128-0.565-0.348-0.756-0.183-0.158-0.414-0.243-0.652-0.243-0.049 0-0.097 0.004-0.145 0.011-0.388 0.056-0.772 0.143-1.145 0.256-4.223 1.283-6.62 5.778-5.343 10.020 0.317 1.054 0.838 2.015 1.55 2.857 0.188 0.222 0.462 0.351 0.751 0.354 0.003 0 0.008 0 0.011 0 0.286 0 0.559-0.122 0.748-0.337l0.92-1.041c0.321-0.364 0.336-0.907 0.036-1.289-0.359-0.455-0.625-0.966-0.792-1.521-0.74-2.459 0.647-5.062 3.093-5.805 0.165-0.050 0.333-0.092 0.505-0.124 0.474-0.089 0.816-0.506 0.815-0.99l-0.004-1.392zM6.371 2.545c-2.972 0.901-4.66 4.066-3.76 7.055 0.202 0.675 0.53 1.304 0.965 1.854l-0.92 1.041c-0.616-0.73-1.079-1.58-1.355-2.499-1.118-3.711 0.979-7.645 4.676-8.768 0.327-0.1 0.661-0.174 1-0.224l0.005 1.391c-0.208 0.040-0.412 0.089-0.611 0.15z"></path>
</svg>
