<!-- Generated by IcoMoon.io -->
<svg version="1.1" xmlns="http://www.w3.org/2000/svg" width="16" height="16" viewBox="0 0 16 16">
<title>checkbox_select</title>
<path fill="#444" d="M13.5 6.4c-0.276 0-0.5 0.224-0.5 0.5 0 0.028 0 6.1 0 6.1h-10v-10h10v1.185l-5.408 5.395-2.224-2.271c-0.197-0.18-0.407-0.25-0.679-0.201l-0.781 0.136c0 0.002 0.001 0.002 0.001 0.002l3.674 3.754 8.417-8.41-0.774-0.135c-0.289-0.053-0.509 0.018-0.717 0.225l-0.509 0.508v-0.188c0-0.553-0.448-1-1-1h-10c-0.552 0-1 0.447-1 1v10c0 0.553 0.448 1 1 1h10c0.552 0 1-0.447 1-1 0 0 0-6.064 0-6.1 0-0.276-0.224-0.5-0.5-0.5z"></path>
</svg>
