<!-- Generated by IcoMoon.io -->
<svg version="1.1" xmlns="http://www.w3.org/2000/svg" width="24" height="24" viewBox="0 0 24 24">
<title>checkbox_select</title>
<path fill="#444" d="M20.25 9.6c-0.414 0-0.75 0.336-0.75 0.75 0 0.042 0 9.15 0 9.15h-15v-15h15v1.778l-8.112 8.093-3.336-3.407c-0.296-0.27-0.611-0.375-1.019-0.301l-1.171 0.204c0 0.003 0.002 0.003 0.002 0.003l5.511 5.631 12.625-12.615-1.161-0.202c-0.433-0.079-0.764 0.027-1.076 0.338l-0.764 0.762v-0.282c0-0.829-0.672-1.5-1.5-1.5h-15c-0.828 0-1.5 0.671-1.5 1.5v15c0 0.83 0.672 1.5 1.5 1.5h15c0.828 0 1.5-0.67 1.5-1.5 0 0 0-9.096 0-9.15 0-0.414-0.336-0.75-0.75-0.75z"></path>
</svg>
