<!-- Generated by IcoMoon.io -->
<svg version="1.1" xmlns="http://www.w3.org/2000/svg" width="24" height="24" viewBox="0 0 24 24">
<title>chip</title>
<path fill="#444" d="M22.5 15.138v-1.040c0-0.199-0.080-0.39-0.219-0.531s-0.331-0.219-0.531-0.219l-5.248 0.002v-2.7h5.248c0.2 0 0.39-0.079 0.531-0.219s0.219-0.333 0.219-0.531v-1.038c0.871-0.31 1.5-1.135 1.5-2.112 0-1.24-1.009-2.25-2.25-2.25s-2.25 1.010-2.25 2.25c0 0.976 0.629 1.802 1.5 2.112v0.288h-4.498v-1.65h-3.752v-3.138c0.871-0.311 1.5-1.136 1.5-2.112 0-1.24-1.009-2.25-2.25-2.25s-2.25 1.010-2.25 2.25c0 0.976 0.628 1.801 1.5 2.112v3.138h-1.5c-0.978 0-1.803 0.627-2.112 1.5h-4.638v-3.138c0.871-0.311 1.5-1.136 1.5-2.112 0-1.24-1.010-2.25-2.25-2.25s-2.25 1.010-2.25 2.25c0 0.976 0.628 1.801 1.5 2.112v3.888c0 0.414 0.336 0.75 0.75 0.75h5.25v3h-5.25c-0.414 0-0.75 0.336-0.75 0.75v3.888c-0.871 0.311-1.5 1.135-1.5 2.112 0 1.241 1.010 2.25 2.25 2.25s2.25-1.009 2.25-2.25c0-0.977-0.628-1.802-1.5-2.112v-3.138h4.5v1.502h3.75v3.136c-0.871 0.311-1.5 1.136-1.5 2.112 0 1.241 1.009 2.25 2.25 2.25s2.25-1.009 2.25-2.25c0-0.976-0.629-1.802-1.5-2.112v-3.137h1.502c1.032 0 1.895-0.702 2.159-1.651l4.59-0.002v0.288c-0.871 0.311-1.5 1.136-1.5 2.112 0 1.24 1.009 2.25 2.25 2.25s2.25-1.010 2.25-2.25c0-0.975-0.629-1.8-1.5-2.111zM21.75 6c0.414 0 0.75 0.336 0.75 0.75s-0.336 0.75-0.75 0.75-0.75-0.336-0.75-0.75 0.336-0.75 0.75-0.75zM12 1.5c0.414 0 0.75 0.336 0.75 0.75s-0.336 0.75-0.75 0.75-0.75-0.336-0.75-0.75 0.336-0.75 0.75-0.75zM2.25 4.5c-0.414 0-0.75-0.336-0.75-0.75s0.336-0.75 0.75-0.75 0.75 0.336 0.75 0.75-0.336 0.75-0.75 0.75zM2.25 21c-0.414 0-0.75-0.336-0.75-0.75s0.336-0.75 0.75-0.75 0.75 0.336 0.75 0.75-0.336 0.75-0.75 0.75zM12 22.5c-0.414 0-0.75-0.336-0.75-0.75s0.336-0.75 0.75-0.75 0.75 0.336 0.75 0.75-0.336 0.75-0.75 0.75zM15.002 14.25c0 0.414-0.336 0.752-0.75 0.752h-2.244c-0.003 0-0.005-0.002-0.008-0.002s-0.005 0.002-0.007 0.002h-2.993v-5.252c0-0.413 0.338-0.75 0.75-0.75h5.25v5.25zM21.75 18c-0.414 0-0.75-0.336-0.75-0.75s0.336-0.75 0.75-0.75 0.75 0.336 0.75 0.75-0.336 0.75-0.75 0.75z"></path>
</svg>
