<!-- Generated by IcoMoon.io -->
<svg version="1.1" xmlns="http://www.w3.org/2000/svg" width="16" height="16" viewBox="0 0 16 16">
<title>chip</title>
<path fill="#444" d="M15 10.092v-0.693c0-0.133-0.053-0.26-0.146-0.354s-0.221-0.146-0.354-0.146l-3.499 0.001v-1.8h3.499c0.133 0 0.26-0.053 0.354-0.146s0.146-0.222 0.146-0.354v-0.692c0.581-0.207 1-0.757 1-1.408 0-0.827-0.673-1.5-1.5-1.5s-1.5 0.673-1.5 1.5c0 0.651 0.419 1.201 1 1.408v0.192h-2.999v-1.1h-2.501v-2.092c0.581-0.207 1-0.757 1-1.408 0-0.827-0.673-1.5-1.5-1.5s-1.5 0.673-1.5 1.5c0 0.651 0.419 1.201 1 1.408v2.092h-1c-0.652 0-1.202 0.418-1.408 1h-3.092v-2.092c0.581-0.207 1-0.757 1-1.408 0-0.827-0.673-1.5-1.5-1.5s-1.5 0.673-1.5 1.5c0 0.651 0.419 1.201 1 1.408v2.592c0 0.276 0.224 0.5 0.5 0.5h3.5v2h-3.5c-0.276 0-0.5 0.224-0.5 0.5v2.592c-0.581 0.207-1 0.757-1 1.408 0 0.827 0.673 1.5 1.5 1.5s1.5-0.673 1.5-1.5c0-0.651-0.419-1.201-1-1.408v-2.092h3v1.001h2.5v2.091c-0.581 0.207-1 0.757-1 1.408 0 0.827 0.673 1.5 1.5 1.5s1.5-0.673 1.5-1.5c0-0.651-0.419-1.201-1-1.408v-2.091h1.001c0.688 0 1.263-0.468 1.439-1.101l3.060-0.001v0.192c-0.581 0.207-1 0.757-1 1.408 0 0.827 0.673 1.5 1.5 1.5s1.5-0.673 1.5-1.5c0-0.65-0.419-1.2-1-1.407zM14.5 4c0.276 0 0.5 0.224 0.5 0.5s-0.224 0.5-0.5 0.5-0.5-0.224-0.5-0.5 0.224-0.5 0.5-0.5zM8 1c0.276 0 0.5 0.224 0.5 0.5s-0.224 0.5-0.5 0.5-0.5-0.224-0.5-0.5 0.224-0.5 0.5-0.5zM1.5 3c-0.276 0-0.5-0.224-0.5-0.5s0.224-0.5 0.5-0.5 0.5 0.224 0.5 0.5-0.224 0.5-0.5 0.5zM1.5 14c-0.276 0-0.5-0.224-0.5-0.5s0.224-0.5 0.5-0.5 0.5 0.224 0.5 0.5-0.224 0.5-0.5 0.5zM8 15c-0.276 0-0.5-0.224-0.5-0.5s0.224-0.5 0.5-0.5 0.5 0.224 0.5 0.5-0.224 0.5-0.5 0.5zM10.001 9.5c0 0.276-0.224 0.501-0.5 0.501h-1.496c-0.002 0-0.003-0.001-0.005-0.001s-0.003 0.001-0.005 0.001h-1.995v-3.501c0-0.275 0.225-0.5 0.5-0.5h3.5v3.5zM14.5 12c-0.276 0-0.5-0.224-0.5-0.5s0.224-0.5 0.5-0.5 0.5 0.224 0.5 0.5-0.224 0.5-0.5 0.5z"></path>
</svg>
