<!-- Generated by IcoMoon.io -->
<svg version="1.1" xmlns="http://www.w3.org/2000/svg" width="24" height="24" viewBox="0 0 24 24">
<title>chip</title>
<path fill="#444" d="M21.625 14.876v-0.952c0-0.183-0.072-0.356-0.201-0.485s-0.304-0.202-0.486-0.202l-4.811 0.002v-2.477h4.811c0.183 0 0.357-0.072 0.486-0.201s0.201-0.304 0.201-0.486v-0.95c0.798-0.286 1.375-1.042 1.375-1.937 0-1.138-0.925-2.062-2.062-2.062s-2.062 0.925-2.062 2.062c0 0.896 0.577 1.651 1.375 1.937v0.263h-4.124v-1.513h-3.439v-2.876c0.798-0.285 1.375-1.041 1.375-1.937-0.001-1.137-0.926-2.062-2.063-2.062s-2.062 0.925-2.062 2.062c0 0.896 0.577 1.651 1.375 1.937v2.876h-1.375c-0.897 0-1.653 0.574-1.937 1.375h-4.251v-2.876c0.798-0.285 1.375-1.041 1.375-1.937 0-1.138-0.925-2.062-2.062-2.062s-2.063 0.925-2.063 2.063c0 0.896 0.577 1.651 1.375 1.937v3.563c0 0.38 0.308 0.688 0.688 0.688h4.812v2.75h-4.813c-0.38 0-0.688 0.308-0.688 0.688v3.563c-0.797 0.284-1.374 1.040-1.374 1.935 0 1.138 0.925 2.062 2.062 2.062s2.062-0.925 2.062-2.062c0-0.896-0.577-1.651-1.375-1.937v-2.875h4.125v1.376h3.438v2.875c-0.798 0.285-1.375 1.041-1.375 1.937 0.001 1.137 0.926 2.062 2.063 2.062s2.062-0.925 2.062-2.062c0-0.896-0.577-1.651-1.375-1.937v-2.875h1.376c0.947 0 1.737-0.643 1.979-1.513l4.207-0.002v0.265c-0.798 0.285-1.375 1.041-1.375 1.937 0 1.138 0.925 2.062 2.062 2.062s2.064-0.925 2.064-2.063c0-0.895-0.577-1.651-1.375-1.936zM20.938 6.5c0.38 0 0.688 0.308 0.688 0.688s-0.308 0.688-0.688 0.688-0.688-0.309-0.688-0.688 0.308-0.688 0.688-0.688zM12 2.375c0.38 0 0.688 0.308 0.688 0.688s-0.308 0.687-0.688 0.687-0.688-0.308-0.688-0.688 0.308-0.687 0.688-0.687zM3.062 5.125c-0.38 0-0.688-0.308-0.688-0.688s0.309-0.687 0.688-0.687 0.688 0.308 0.688 0.688-0.308 0.687-0.688 0.687zM3.062 20.25c-0.38 0-0.688-0.308-0.688-0.688s0.308-0.688 0.688-0.688 0.688 0.308 0.688 0.688-0.308 0.688-0.688 0.688zM12 21.625c-0.38 0-0.688-0.308-0.688-0.688s0.308-0.687 0.688-0.687 0.688 0.308 0.688 0.688-0.308 0.687-0.688 0.687zM14.751 14.062c0 0.38-0.308 0.688-0.688 0.688h-2.057c-0.003 0-0.004-0.001-0.007-0.001s-0.004 0.001-0.007 0.001h-2.742v-4.812c0-0.379 0.309-0.688 0.688-0.688h4.813v4.812zM20.938 17.5c-0.38 0-0.688-0.308-0.688-0.688s0.308-0.688 0.688-0.688 0.688 0.308 0.688 0.688-0.309 0.688-0.688 0.688z"></path>
</svg>
