<!-- Generated by IcoMoon.io -->
<svg version="1.1" xmlns="http://www.w3.org/2000/svg" width="16" height="16" viewBox="0 0 16 16">
<title>clock_alarm</title>
<path fill="#444" d="M7.974 1.557c-4.069 0-7.368 3.232-7.368 7.222s3.299 7.221 7.368 7.221c4.070 0 7.368-3.232 7.368-7.222s-3.298-7.221-7.368-7.221zM7.974 15c-3.511 0-6.365-2.791-6.365-6.222s2.854-6.222 6.365-6.222c3.509 0 6.365 2.791 6.365 6.222s-2.856 6.222-6.365 6.222zM12.22 5.786l-3.532 3.496c-0.103 0.086-0.205 0.135-0.313 0.164-0.002 0.002-0.003 0.002-0.004 0.002s0 0 0 0.002c-0.199 0.047-0.762 0.135-1.167-0.197l-0.227-0.227-1.499-1.494c-0.207-0.207-0.276-0.426-0.225-0.715l0.141-0.783 2.579 2.57 2.744-2.734c0.208-0.207 0.428-0.275 0.718-0.225l0.785 0.141zM11.648 0.157l0.802-0.142c0.289-0.052 0.492 0.021 0.7 0.229l2.606 2.568c0.207 0.208 0.28 0.411 0.229 0.699l-0.142 0.802-4.195-4.156zM0.157 4.314l-0.141-0.801c-0.051-0.288 0.022-0.491 0.229-0.699l2.606-2.568c0.208-0.207 0.411-0.28 0.7-0.229l0.802 0.142-4.196 4.155z"></path>
</svg>
