<!-- Generated by IcoMoon.io -->
<svg version="1.1" xmlns="http://www.w3.org/2000/svg" width="24" height="24" viewBox="0 0 24 24">
<title>clock_timer</title>
<path d="M12.79 3.182l-1.477-0.008c-5.255 0.35-9.412 4.64-9.412 9.896 0 5.486 4.522 9.93 10.099 9.93 5.578 0 10.099-4.444 10.099-9.93 0-5.257-4.156-9.547-9.412-9.896l0.103 0.008zM15.896 2.375l-0.626-0.896c-0.232-0.333-0.515-0.479-0.919-0.479h-6.247l0.627 0.896c0.232 0.331 0.514 0.479 0.917 0.479h6.248zM12 21.625c-4.811 0-8.724-3.838-8.724-8.555s3.913-8.554 8.724-8.554 8.724 3.838 8.724 8.555-3.913 8.554-8.724 8.554zM12.868 12.97c-0.175-0.062-0.307-0.155-0.396-0.281s-0.111-0.282-0.11-0.468v-6.146l-0.916 0.645c-0.329 0.232-0.447 0.503-0.446 0.906v6.122l4.079 1.47c0.379 0.137 0.676 0.108 1.006-0.123l0.915-0.645-4.132-1.48z"></path>
</svg>
