<!-- Generated by IcoMoon.io -->
<svg version="1.1" xmlns="http://www.w3.org/2000/svg" width="24" height="24" viewBox="0 0 24 24">
<title>clock</title>
<path fill="#444" d="M12 0c-6.616 0-12 5.383-12 12s5.383 12 12 12 12-5.384 12-12-5.384-12-12-12zM12 22.5c-5.799 0-10.5-4.703-10.5-10.5s4.701-10.5 10.5-10.5 10.5 4.702 10.5 10.5-4.701 10.5-10.5 10.5zM18.389 7.171l-5.282 5.244c-0.153 0.129-0.306 0.203-0.468 0.246-0.003 0.003-0.005 0.003-0.006 0.003 0 0 0 0 0 0.003-0.295 0.071-1.139 0.203-1.743-0.295l-2.58-2.582c-0.311-0.31-0.416-0.637-0.338-1.072l0.211-1.175 3.855 3.855 4.101-4.101c0.312-0.311 0.641-0.413 1.074-0.337l1.174 0.212z"></path>
</svg>
