<!-- Generated by IcoMoon.io -->
<svg version="1.1" xmlns="http://www.w3.org/2000/svg" width="24" height="24" viewBox="0 0 24 24">
<title>clock_schedule</title>
<path fill="#444" d="M16.71 8.706c-0.397-0.068-0.699 0.023-0.985 0.307l-3.76 3.76-3.535-3.532-0.193 1.076c-0.071 0.395 0.025 0.695 0.31 0.984l2.365 2.365c0.554 0.455 1.328 0.332 1.598 0.268 0-0.002 0-0.002 0-0.002 0.001 0 0.002 0 0.005-0.002 0.147-0.041 0.29-0.107 0.428-0.223l4.843-4.809-1.076-0.192zM12.007 23c-6.069 0-11.007-4.935-11.007-11s4.938-11 11.007-11c3.059 0 5.902 1.231 8.004 3.468l0.551 0.584v-2.272c0.001-0.37 0.133-0.627 0.426-0.832l0.996-0.669v5.575c0 0.393-0.318 0.712-0.711 0.712h-5.566l0.696-0.995c0.206-0.294 0.463-0.425 0.836-0.427h2.263l-0.371-0.53c-1.822-2.030-4.418-3.193-7.123-3.193-5.285 0-9.585 4.297-9.585 9.579s4.3 9.579 9.585 9.579c4.63 0 8.593-3.308 9.422-7.864 0.091-0.256 0.285-0.476 0.597-0.645l0.973-0.524c-0.285 5.812-5.108 10.454-10.993 10.454z"></path>
</svg>
