<!-- Generated by IcoMoon.io -->
<svg version="1.1" xmlns="http://www.w3.org/2000/svg" width="24" height="24" viewBox="0 0 24 24">
<title>clock_timer</title>
<path fill="#444" d="M12.861 2.381l-1.611-0.009c-5.733 0.381-10.268 5.061-10.268 10.796 0 5.985 4.934 10.833 11.018 10.833 6.085 0 11.017-4.848 11.017-10.833 0-5.735-4.533-10.415-10.267-10.796l0.111 0.009zM16.251 1.5l-0.684-0.977c-0.254-0.364-0.561-0.523-1.002-0.523h-6.816l0.685 0.978c0.252 0.362 0.559 0.522 1.001 0.522h6.816zM12 22.5c-5.249 0-9.518-4.187-9.518-9.333s4.269-9.332 9.518-9.332 9.517 4.187 9.517 9.333-4.269 9.332-9.518 9.332zM18.348 8.679l-5.282 5.244c-0.153 0.129-0.306 0.202-0.468 0.246-0.003 0.003-0.005 0.003-0.005 0.003s0 0 0 0.003c-0.295 0.071-1.14 0.203-1.743-0.295l-0.342-0.341-2.239-2.241c-0.311-0.31-0.416-0.639-0.338-1.072l0.212-1.175 3.855 3.855 4.101-4.101c0.312-0.31 0.64-0.412 1.074-0.338l1.174 0.212z"></path>
</svg>
