<!-- Generated by IcoMoon.io -->
<svg version="1.1" xmlns="http://www.w3.org/2000/svg" width="24" height="24" viewBox="0 0 24 24">
<title>clock_alarm</title>
<path fill="#444" d="M11.964 3.141c-5.595 0-10.131 4.444-10.131 9.93s4.536 9.929 10.131 9.929c5.596 0 10.131-4.444 10.131-9.93s-4.535-9.929-10.131-9.929zM11.964 21.625c-4.827 0-8.752-3.838-8.752-8.555s3.925-8.555 8.752-8.555c4.825 0 8.752 3.838 8.752 8.555s-3.926 8.555-8.752 8.555zM17.802 8.956l-4.856 4.808c-0.14 0.118-0.281 0.185-0.43 0.226-0.003 0.002-0.004 0.002-0.006 0.002 0 0 0 0 0 0.003-0.273 0.064-1.047 0.186-1.604-0.271l-2.374-2.366c-0.284-0.285-0.38-0.586-0.309-0.983l0.193-1.076 3.545 3.533 3.772-3.759c0.286-0.285 0.588-0.379 0.987-0.31l1.082 0.193zM17.016 1.217l1.103-0.194c0.397-0.071 0.676 0.029 0.962 0.313l3.583 3.532c0.284 0.285 0.385 0.564 0.315 0.961l-0.194 1.103-5.769-5.715zM1.216 6.933l-0.194-1.103c-0.070-0.396 0.031-0.675 0.315-0.961l3.583-3.531c0.286-0.285 0.565-0.386 0.962-0.314l1.103 0.194-5.769 5.715z"></path>
</svg>
