<!-- Generated by IcoMoon.io -->
<svg version="1.1" xmlns="http://www.w3.org/2000/svg" width="24" height="24" viewBox="0 0 24 24">
<title>clock_alarm</title>
<path fill="#444" d="M11.961 2.335c-6.104 0-11.052 4.848-11.052 10.833s4.949 10.832 11.052 10.832c6.105 0 11.052-4.848 11.052-10.833s-4.947-10.832-11.052-10.832zM11.961 22.5c-5.267 0-9.547-4.187-9.547-9.333s4.281-9.333 9.547-9.333c5.263 0 9.548 4.186 9.548 9.333s-4.284 9.333-9.548 9.333zM18.33 8.679l-5.298 5.244c-0.154 0.129-0.307 0.202-0.47 0.246-0.003 0.003-0.005 0.003-0.006 0.003 0 0 0 0 0 0.003-0.298 0.071-1.143 0.203-1.75-0.295l-0.341-0.341-2.249-2.241c-0.31-0.31-0.414-0.639-0.337-1.072l0.212-1.175 3.869 3.855 4.116-4.101c0.312-0.31 0.642-0.412 1.077-0.338l1.178 0.212zM17.472 0.235l1.203-0.213c0.434-0.078 0.738 0.032 1.050 0.344l3.909 3.852c0.311 0.312 0.42 0.617 0.343 1.049l-0.213 1.203-6.293-6.234zM0.235 6.471l-0.211-1.202c-0.076-0.432 0.033-0.737 0.344-1.048l3.909-3.852c0.312-0.31 0.616-0.42 1.050-0.344l1.203 0.213-6.294 6.232z"></path>
</svg>
