<!-- Generated by IcoMoon.io -->
<svg version="1.1" xmlns="http://www.w3.org/2000/svg" width="16" height="16" viewBox="0 0 16 16">
<title>clock</title>
<path fill="#444" d="M8 0c-4.411 0-8 3.589-8 8s3.589 8 8 8 8-3.589 8-8-3.589-8-8-8zM8 15c-3.866 0-7-3.135-7-7s3.134-7 7-7 7 3.135 7 7-3.134 7-7 7zM12.259 4.781l-3.521 3.496c-0.102 0.086-0.204 0.135-0.312 0.164-0.002 0.002-0.003 0.002-0.004 0.002s0 0 0 0.002c-0.197 0.047-0.759 0.135-1.162-0.197l-1.72-1.721c-0.207-0.207-0.277-0.425-0.225-0.715l0.141-0.783 2.57 2.57 2.734-2.734c0.208-0.207 0.427-0.275 0.716-0.225l0.783 0.141z"></path>
</svg>
