<!-- Generated by IcoMoon.io -->
<svg version="1.1" xmlns="http://www.w3.org/2000/svg" width="16" height="16" viewBox="0 0 16 16">
<title>clock_timer</title>
<path fill="#444" d="M8.574 1.587l-1.074-0.006c-3.822 0.254-6.845 3.374-6.845 7.197 0 3.99 3.289 7.222 7.345 7.222 4.057 0 7.345-3.232 7.345-7.222 0-3.823-3.022-6.943-6.845-7.197l0.074 0.006zM10.834 1l-0.456-0.651c-0.169-0.243-0.374-0.349-0.668-0.349h-4.544l0.457 0.652c0.168 0.241 0.373 0.348 0.667 0.348h4.544zM8 15c-3.499 0-6.345-2.791-6.345-6.222s2.846-6.221 6.345-6.221 6.345 2.791 6.345 6.222-2.846 6.221-6.345 6.221zM12.232 5.786l-3.521 3.496c-0.102 0.086-0.204 0.135-0.312 0.164-0.002 0.002-0.003 0.002-0.003 0.002s0 0 0 0.002c-0.197 0.047-0.76 0.135-1.162-0.197l-0.228-0.227-1.493-1.494c-0.207-0.207-0.277-0.426-0.225-0.715l0.141-0.783 2.57 2.57 2.734-2.734c0.208-0.207 0.427-0.275 0.716-0.225l0.783 0.141z"></path>
</svg>
