<!-- Generated by IcoMoon.io -->
<svg version="1.1" xmlns="http://www.w3.org/2000/svg" width="24" height="24" viewBox="0 0 24 24">
<title>cloud_off</title>
<path fill="#444" d="M22.741 21.156h0.042l-0.433-0.408-21.21-19.998-0.212 1.134c-0.065 0.342 0.033 0.594 0.237 0.842l0.506 0.526 1.996 1.882c-2.862 1.98-4.32 5.473-3.387 8.913 0.28 1.034 0.782 2.011 1.451 2.88 0 0-0.010 0.001-0.009 0.005 1.435 1.926 4.832 3.561 7.743 3.561h8.601c0.481 0 1.023-0.105 1.585-0.287l3.228 3.043 0.213-1.134c0.064-0.343-0.035-0.594-0.239-0.843l-0.113-0.117zM18.405 19.032c-0.116 0.011-0.221 0.045-0.339 0.045h-8.595c-2.364 0.003-4.837-1.090-6.253-2.653-0.696-0.797-1.214-1.731-1.482-2.727-0.798-2.94 0.526-5.903 3.040-7.517l13.629 12.852zM7.173 4.326c0-0.3 0.195-0.558 0.474-0.666l0.332-0.099c2.016-0.28 3.724 0.129 5.503 1.122 1.889 1.053 3.276 2.687 3.948 4.638h0.724c0 0 0.003 0 0.003 0 1.908 0 3.702 0.879 4.802 2.353 1.514 2.034 1.27 4.593-0.062 6.39l-0.169 0.136c-0.132 0.12-0.311 0.198-0.51 0.198-0.407 0-0.736-0.311-0.736-0.696 0-0.21 0.105-0.39 0.259-0.517 1.002-1.38 1.063-3.252-0.014-4.698-0.816-1.095-2.152-1.751-3.57-1.751-0.001 0-0.001 0-0.003 0h-1.287c-0.343 0-0.644-0.219-0.727-0.533-0.495-1.819-1.71-3.348-3.423-4.302-1.405-0.787-3.012-1.059-4.611-0.882-0.054 0.012-0.106 0.032-0.166 0.032-0.027 0-0.048-0.012-0.075-0.014-0.021 0.003-0.043 0.002-0.066 0.005l-0.024-0.022c-0.342-0.074-0.601-0.348-0.601-0.694z"></path>
</svg>
