<!-- Generated by IcoMoon.io -->
<svg version="1.1" xmlns="http://www.w3.org/2000/svg" width="16" height="16" viewBox="0 0 16 16">
<title>cloud_off</title>
<path fill="#444" d="M15.161 14.104h0.028l-0.289-0.272-14.14-13.332-0.141 0.756c-0.043 0.228 0.022 0.396 0.158 0.561l0.337 0.351 1.331 1.255c-1.908 1.32-2.88 3.649-2.258 5.942 0.187 0.689 0.521 1.341 0.967 1.92 0 0-0.007 0.001-0.006 0.003 0.957 1.284 3.221 2.374 5.162 2.374h5.734c0.321 0 0.682-0.070 1.057-0.191l2.152 2.029 0.142-0.756c0.043-0.229-0.023-0.396-0.159-0.562l-0.075-0.078zM12.27 12.688c-0.077 0.007-0.147 0.030-0.226 0.030h-5.73c-1.576 0.002-3.225-0.727-4.169-1.769-0.464-0.531-0.809-1.154-0.988-1.818-0.532-1.96 0.351-3.935 2.027-5.011l9.086 8.568zM4.782 2.884c0-0.2 0.13-0.372 0.316-0.444l0.221-0.066c1.344-0.187 2.483 0.086 3.669 0.748 1.259 0.702 2.184 1.791 2.632 3.092h0.483c0 0 0.002 0 0.002 0 1.272 0 2.468 0.586 3.201 1.569 1.009 1.356 0.847 3.062-0.041 4.26l-0.113 0.091c-0.088 0.080-0.207 0.132-0.34 0.132-0.271 0-0.491-0.207-0.491-0.464 0-0.14 0.070-0.26 0.173-0.345 0.668-0.92 0.709-2.168-0.009-3.132-0.544-0.73-1.435-1.167-2.38-1.167-0.001 0-0.001 0-0.002 0h-0.858c-0.229 0-0.429-0.146-0.485-0.355-0.33-1.213-1.14-2.232-2.282-2.868-0.937-0.525-2.008-0.706-3.074-0.588-0.036 0.008-0.071 0.021-0.111 0.021-0.018 0-0.032-0.008-0.050-0.009-0.014 0.002-0.029 0.001-0.044 0.003l-0.016-0.015c-0.228-0.049-0.401-0.232-0.401-0.463z"></path>
</svg>
