<!-- Generated by IcoMoon.io -->
<svg version="1.1" xmlns="http://www.w3.org/2000/svg" width="24" height="24" viewBox="0 0 24 24">
<title>cloud_rain</title>
<path fill="#444" d="M21.081 18.47c-0.235 0-0.468-0.111-0.615-0.318-0.239-0.339-0.158-0.807 0.181-1.046 1.968-1.386 2.444-4.117 1.059-6.090-0.816-1.161-2.149-1.856-3.567-1.856-0.001 0-0.001 0-0.003 0h-1.287c-0.343 0-0.642-0.231-0.726-0.564-0.494-1.929-1.709-3.548-3.419-4.56-1.706-1.008-3.702-1.293-5.622-0.799-3.968 1.020-6.366 5.087-5.348 9.061 0.29 1.135 0.853 2.202 1.632 3.084 0.274 0.311 0.244 0.784-0.066 1.059-0.309 0.276-0.785 0.243-1.059-0.066-0.936-1.061-1.614-2.343-1.96-3.707-1.222-4.776 1.659-9.659 6.428-10.886 2.308-0.593 4.707-0.252 6.759 0.963 1.887 1.116 3.272 2.845 3.944 4.914h0.723c0.002 0 0.003 0 0.003 0 1.907 0 3.699 0.932 4.795 2.494 1.859 2.648 1.221 6.317-1.422 8.178-0.131 0.093-0.28 0.136-0.431 0.136zM6.75 12v1.486c0 0.422 0.336 0.764 0.75 0.764s0.75-0.342 0.75-0.764v-2.986l-1 0.7c-0.301 0.21-0.459 0.469-0.5 0.8zM11.25 14.25v1.486c0 0.422 0.336 0.764 0.75 0.764s0.75-0.342 0.75-0.764v-2.986l-1 0.701c-0.302 0.21-0.459 0.47-0.5 0.799zM15.75 12v1.486c0 0.422 0.336 0.764 0.75 0.764s0.75-0.342 0.75-0.764v-2.986l-1 0.7c-0.302 0.21-0.459 0.469-0.5 0.8zM6.75 18v1.486c0 0.422 0.336 0.764 0.75 0.764s0.75-0.342 0.75-0.764v-2.986l-1 0.701c-0.301 0.21-0.459 0.47-0.5 0.799zM11.25 20.25v1.486c0 0.422 0.336 0.764 0.75 0.764s0.75-0.342 0.75-0.764v-2.986l-1 0.701c-0.302 0.21-0.459 0.47-0.5 0.799zM15.75 18v1.486c0 0.422 0.336 0.764 0.75 0.764s0.75-0.342 0.75-0.764v-2.986l-1 0.701c-0.302 0.21-0.459 0.47-0.5 0.799z"></path>
</svg>
