<!-- Generated by IcoMoon.io -->
<svg version="1.1" xmlns="http://www.w3.org/2000/svg" width="16" height="16" viewBox="0 0 16 16">
<title>cloud_lightning</title>
<path fill="#444" d="M14.054 12.313c-0.157 0-0.312-0.074-0.41-0.212-0.159-0.226-0.105-0.538 0.121-0.697 1.312-0.924 1.629-2.745 0.706-4.060-0.544-0.774-1.433-1.237-2.378-1.237-0.001 0-0.001 0-0.002 0h-0.858c-0.229 0-0.428-0.154-0.484-0.376-0.329-1.286-1.139-2.365-2.279-3.040-1.137-0.672-2.468-0.862-3.748-0.533-2.645 0.68-4.244 3.391-3.565 6.041 0.193 0.757 0.569 1.468 1.088 2.056 0.183 0.207 0.163 0.523-0.044 0.706s-0.523 0.162-0.706-0.044c-0.624-0.707-1.076-1.562-1.307-2.471-0.815-3.184 1.106-6.439 4.285-7.257 1.539-0.395 3.138-0.168 4.506 0.642 1.258 0.744 2.181 1.897 2.629 3.276h0.482c0.001 0 0.002 0 0.002 0 1.271 0 2.466 0.621 3.197 1.663 1.239 1.765 0.814 4.211-0.948 5.452-0.087 0.062-0.187 0.091-0.287 0.091zM10.441 11.264c-0.087-0.162-0.256-0.264-0.441-0.264h-3.066l2.059-2.871c0.027-0.040 0.039-0.085 0.052-0.129l-0.766 0.006c-0.26 0.002-0.444 0.103-0.6 0.29l-2.095 2.927c-0.102 0.153-0.112 0.351-0.025 0.514 0.087 0.161 0.256 0.263 0.441 0.263h3.066l-2.062 2.995c0 0.001 0 0.004-0.001 0.005h0.795c0.247 0.003 0.423-0.092 0.577-0.259l2.042-2.964c0.101-0.153 0.111-0.35 0.024-0.513z"></path>
</svg>
