<!-- Generated by IcoMoon.io -->
<svg version="1.1" xmlns="http://www.w3.org/2000/svg" width="24" height="24" viewBox="0 0 24 24">
<title>cloud</title>
<path fill="#444" d="M22.941 11.656c-1.098-1.563-2.891-2.495-4.797-2.495h-0.729c-0.672-2.069-2.056-3.798-3.944-4.914-2.055-1.215-4.453-1.554-6.762-0.963-4.77 1.225-7.653 6.11-6.429 10.885 0.279 1.095 0.778 2.133 1.449 3.051 0 0-0.010 0.001-0.009 0.005 1.434 2.041 4.828 3.774 7.735 3.774h8.594c1.236 0 2.857-0.654 4.236-1.813 0.001-0.002-0.009-0.012-0.009-0.012 1.98-1.977 2.325-5.151 0.665-7.518zM9.462 19.5c-2.36 0.003-4.833-1.155-6.249-2.811-0.695-0.843-1.21-1.835-1.479-2.89-1.018-3.975 1.381-8.042 5.347-9.062 1.921-0.494 3.92-0.21 5.625 0.8 1.711 1.013 2.927 2.631 3.42 4.56 0.085 0.333 0.384 0.564 0.726 0.564h1.287c0.002 0 0.002 0 0.003 0 1.418 0 2.752 0.694 3.568 1.856 1.206 1.717 0.999 4.009-0.375 5.488-0.864 0.808-1.975 1.495-3.286 1.495h-8.587z"></path>
</svg>
