<!-- Generated by IcoMoon.io -->
<svg version="1.1" xmlns="http://www.w3.org/2000/svg" width="24" height="24" viewBox="0 0 24 24">
<title>cloud_lightning</title>
<path fill="#444" d="M21.081 18.47c-0.235 0-0.468-0.111-0.615-0.318-0.239-0.339-0.158-0.807 0.181-1.046 1.968-1.386 2.444-4.117 1.059-6.090-0.816-1.161-2.149-1.856-3.567-1.856-0.001 0-0.001 0-0.003 0h-1.287c-0.343 0-0.642-0.231-0.726-0.564-0.494-1.929-1.709-3.548-3.419-4.56-1.706-1.008-3.702-1.293-5.622-0.799-3.968 1.020-6.366 5.087-5.348 9.061 0.29 1.135 0.853 2.202 1.632 3.084 0.274 0.311 0.244 0.784-0.066 1.059-0.309 0.276-0.785 0.243-1.059-0.066-0.936-1.061-1.614-2.343-1.96-3.707-1.222-4.776 1.659-9.659 6.428-10.886 2.308-0.593 4.707-0.252 6.759 0.963 1.887 1.116 3.272 2.845 3.944 4.914h0.723c0.002 0 0.003 0 0.003 0 1.907 0 3.699 0.932 4.795 2.494 1.859 2.648 1.221 6.317-1.422 8.178-0.131 0.093-0.28 0.136-0.431 0.136zM15.662 16.896c-0.13-0.243-0.384-0.396-0.662-0.396h-4.599l3.088-4.306c0.040-0.060 0.059-0.128 0.078-0.194l-1.149 0.009c-0.39 0.003-0.666 0.154-0.9 0.435l-3.143 4.39c-0.153 0.23-0.168 0.526-0.037 0.771 0.13 0.241 0.384 0.394 0.661 0.394h4.599l-3.093 4.492c0 0.002 0 0.006-0.002 0.008h1.193c0.37 0.005 0.634-0.138 0.866-0.389l3.063-4.446c0.152-0.229 0.167-0.525 0.036-0.769z"></path>
</svg>
