<!-- Generated by IcoMoon.io -->
<svg version="1.1" xmlns="http://www.w3.org/2000/svg" width="16" height="16" viewBox="0 0 16 16">
<title>cloud</title>
<path fill="#444" d="M15.294 7.771c-0.732-1.042-1.927-1.663-3.198-1.663h-0.486c-0.448-1.379-1.371-2.532-2.629-3.276-1.37-0.81-2.969-1.036-4.508-0.642-3.18 0.817-5.102 4.073-4.286 7.257 0.186 0.73 0.519 1.422 0.966 2.034 0 0-0.007 0.001-0.006 0.003 0.956 1.361 3.219 2.516 5.157 2.516h5.729c0.824 0 1.905-0.436 2.824-1.209 0.001-0.001-0.006-0.008-0.006-0.008 1.32-1.318 1.55-3.434 0.443-5.012zM6.308 13c-1.573 0.002-3.222-0.77-4.166-1.874-0.463-0.562-0.807-1.223-0.986-1.927-0.679-2.65 0.921-5.361 3.565-6.041 1.281-0.329 2.613-0.14 3.75 0.533 1.141 0.675 1.951 1.754 2.28 3.040 0.057 0.222 0.256 0.376 0.484 0.376h0.858c0.001 0 0.001 0 0.002 0 0.945 0 1.835 0.463 2.379 1.237 0.804 1.145 0.666 2.673-0.25 3.659-0.576 0.539-1.317 0.997-2.191 0.997h-5.725z"></path>
</svg>
