<!-- Generated by IcoMoon.io -->
<svg version="1.1" xmlns="http://www.w3.org/2000/svg" width="24" height="24" viewBox="0 0 24 24">
<title>cloud</title>
<path fill="#444" d="M22.029 11.685c-1.006-1.433-2.65-2.287-4.397-2.287h-0.668c-0.616-1.896-1.885-3.481-3.615-4.505-1.883-1.113-4.082-1.425-6.199-0.882-4.372 1.123-7.015 5.601-5.893 9.978 0.255 1.005 0.713 1.955 1.328 2.798 0 0-0.010 0.001-0.009 0.004 1.315 1.871 4.427 3.46 7.091 3.46h7.878c1.132 0 2.619-0.599 3.883-1.662 0.001-0.002-0.009-0.011-0.009-0.011 1.816-1.813 2.132-4.724 0.61-6.893zM9.673 18.875c-2.163 0.003-4.43-1.058-5.728-2.577-0.637-0.773-1.11-1.681-1.356-2.649-0.934-3.644 1.266-7.371 4.902-8.306 1.762-0.453 3.593-0.192 5.156 0.732 1.568 0.928 2.682 2.412 3.135 4.181 0.078 0.305 0.352 0.517 0.666 0.517h1.18c0.001 0 0.002 0 0.003 0 1.3 0 2.523 0.637 3.271 1.701 1.106 1.574 0.915 3.676-0.344 5.032-0.793 0.739-1.812 1.369-3.014 1.369h-7.871z"></path>
</svg>
