<!-- Generated by IcoMoon.io -->
<svg version="1.1" xmlns="http://www.w3.org/2000/svg" width="24" height="24" viewBox="0 0 24 24">
<title>cloud_off</title>
<path fill="#444" d="M21.845 20.302h0.039l-0.397-0.378-19.443-18.33-0.194 1.037c-0.058 0.316 0.031 0.549 0.22 0.772l0.463 0.485 1.829 1.724c-2.623 1.818-3.961 5.021-3.104 8.169 0.257 0.953 0.717 1.845 1.331 2.641 0 0-0.010 0.001-0.009 0.003 1.317 1.771 4.428 3.265 7.098 3.265h7.884c0.441 0 0.937-0.094 1.452-0.262l2.958 2.791 0.195-1.037c0.060-0.316-0.032-0.549-0.218-0.772l-0.104-0.108zM17.873 18.353c-0.106 0.008-0.203 0.042-0.311 0.042h-7.88c-2.165 0.002-4.435-1.001-5.73-2.431-0.64-0.73-1.113-1.588-1.36-2.504-0.732-2.692 0.482-5.405 2.788-6.886l12.493 11.779zM7.575 4.874c0-0.276 0.18-0.513 0.437-0.614l0.303-0.090c1.848-0.257 3.414 0.116 5.043 1.030 1.733 0.966 3.003 2.459 3.619 4.252h0.665c0 0 0.005 0 0.005 0 1.747 0 3.391 0.803 4.399 2.155 1.388 1.866 1.166 4.211-0.055 5.859l-0.154 0.126c-0.124 0.109-0.286 0.179-0.469 0.179-0.374 0-0.675-0.283-0.675-0.64 0-0.192 0.096-0.354 0.238-0.474 0.919-1.266 0.976-2.977-0.013-4.304-0.747-1.006-1.971-1.606-3.271-1.606-0.003 0-0.004 0-0.005 0h-1.181c-0.314 0-0.587-0.199-0.667-0.49-0.453-1.664-1.568-3.070-3.137-3.94-1.29-0.724-2.762-0.969-4.226-0.811-0.051 0.015-0.098 0.034-0.151 0.034-0.026 0-0.047-0.014-0.070-0.015-0.022 0.002-0.042 0.001-0.063 0.003l-0.022-0.021c-0.313-0.067-0.55-0.319-0.55-0.633z"></path>
</svg>
