<!-- Generated by IcoMoon.io -->
<svg version="1.1" xmlns="http://www.w3.org/2000/svg" width="16" height="16" viewBox="0 0 16 16">
<title>cloud_rain</title>
<path fill="#444" d="M14.054 12.313c-0.157 0-0.312-0.074-0.41-0.212-0.159-0.226-0.105-0.538 0.121-0.697 1.312-0.924 1.629-2.745 0.706-4.060-0.544-0.774-1.433-1.237-2.378-1.237-0.001 0-0.001 0-0.002 0h-0.858c-0.229 0-0.428-0.154-0.484-0.376-0.329-1.286-1.139-2.365-2.279-3.040-1.137-0.672-2.468-0.862-3.748-0.533-2.645 0.68-4.244 3.391-3.565 6.041 0.193 0.757 0.569 1.468 1.088 2.056 0.183 0.207 0.163 0.523-0.044 0.706s-0.523 0.162-0.706-0.044c-0.624-0.707-1.076-1.562-1.307-2.471-0.815-3.184 1.106-6.439 4.285-7.257 1.539-0.395 3.138-0.168 4.506 0.642 1.258 0.744 2.181 1.897 2.629 3.276h0.482c0.001 0 0.002 0 0.002 0 1.271 0 2.466 0.621 3.197 1.663 1.239 1.765 0.814 4.211-0.948 5.452-0.087 0.062-0.187 0.091-0.287 0.091zM4.5 8v0.991c0 0.281 0.224 0.509 0.5 0.509s0.5-0.228 0.5-0.509v-1.991l-0.667 0.467c-0.201 0.14-0.306 0.313-0.333 0.533zM7.5 9.5v0.991c0 0.281 0.224 0.509 0.5 0.509s0.5-0.228 0.5-0.509v-1.991l-0.667 0.467c-0.201 0.14-0.306 0.313-0.333 0.533zM10.5 8v0.991c0 0.281 0.224 0.509 0.5 0.509s0.5-0.228 0.5-0.509v-1.991l-0.667 0.467c-0.201 0.14-0.306 0.313-0.333 0.533zM4.5 12v0.991c0 0.281 0.224 0.509 0.5 0.509s0.5-0.228 0.5-0.509v-1.991l-0.667 0.467c-0.201 0.14-0.306 0.313-0.333 0.533zM7.5 13.5v0.991c0 0.281 0.224 0.509 0.5 0.509s0.5-0.228 0.5-0.509v-1.991l-0.667 0.467c-0.201 0.14-0.306 0.313-0.333 0.533zM10.5 12v0.991c0 0.281 0.224 0.509 0.5 0.509s0.5-0.228 0.5-0.509v-1.991l-0.667 0.467c-0.201 0.14-0.306 0.313-0.333 0.533z"></path>
</svg>
