<!-- Generated by IcoMoon.io -->
<svg version="1.1" xmlns="http://www.w3.org/2000/svg" width="24" height="24" viewBox="0 0 24 24">
<title>coins</title>
<path fill="#444" d="M14.471 15.045c0.171 0.39 0.259 0.87 0.262 1.443 0.008 1.11-0.399 1.951-1.218 2.527-0.439 0.308-0.987 0.529-1.624 0.675-0.288 0.367-0.629 0.553-1.116 0.561l-1.434 0.006 0.26-0.378c-0.86-0.015-1.587-0.084-2.103-0.234-0.601-0.169-1.013-0.303-1.23-0.392 0.322-0.941 1.21-1.461 2.19-1.29 0.584 0.105 0.924 0.11 1.518 0.105 0.88-0.006 1.537-0.128 1.957-0.359 0.423-0.235 0.633-0.607 0.629-1.114-0.003-0.523-0.216-0.941-0.633-1.245-0.417-0.303-1.106-0.648-2.063-1.028-0.465-0.181-0.909-0.364-1.335-0.558-0.425-0.189-0.792-0.412-1.104-0.672-0.309-0.261-0.556-0.576-0.744-0.941-0.189-0.372-0.285-0.825-0.289-1.365-0.008-1.063 0.381-1.912 1.161-2.538 0.498-0.404 1.123-0.663 1.854-0.81l0.036-0.053c0.3-0.437 0.668-0.628 1.195-0.636l1.434-0.007-0.406 0.589c0.037 0.006 0.075 0.003 0.113 0.008 0.337 0.031 0.657 0.079 0.948 0.132 0.294 0.053 0.555 0.106 0.775 0.168 0.226 0.058 0.398 0.112 0.525 0.156-0.358 0.941-1.201 1.46-2.205 1.346-0.404-0.050-0.633-0.056-1.041-0.054-0.6 0.005-1.13 0.132-1.578 0.375-0.445 0.243-0.666 0.617-0.663 1.125 0.003 0.26 0.054 0.492 0.158 0.693 0.102 0.201 0.257 0.38 0.463 0.54 0.213 0.159 0.473 0.311 0.78 0.444 0.31 0.135 0.681 0.282 1.115 0.432 0.57 0.216 1.081 0.423 1.528 0.624 0.45 0.207 0.83 0.448 1.15 0.722 0.318 0.276 0.564 0.61 0.735 1.002zM19.278 19.26c-1.863 2.834-5.059 4.713-8.706 4.74-5.797 0.039-10.531-4.63-10.572-10.427-0.026-3.688 1.859-6.942 4.723-8.835 1.865-2.832 5.060-4.712 8.705-4.739 5.797-0.039 10.531 4.631 10.572 10.426 0.026 3.689-1.858 6.939-4.722 8.833zM19.53 13.431c-0.035-4.951-4.101-8.949-9.063-8.915s-8.971 4.087-8.937 9.039c0.033 4.95 4.099 8.949 9.062 8.914s8.971-4.089 8.939-9.039zM21 13.427c0.006 0.841-0.098 1.656-0.28 2.442 1.143-1.516 1.823-3.399 1.809-5.438-0.035-4.952-4.101-8.949-9.063-8.915-1.956 0.013-3.759 0.66-5.231 1.733 0.707-0.156 1.44-0.243 2.193-0.249 5.797-0.039 10.531 4.631 10.572 10.426z"></path>
</svg>
