<!-- Generated by IcoMoon.io -->
<svg version="1.1" xmlns="http://www.w3.org/2000/svg" width="24" height="24" viewBox="0 0 24 24">
<title>coin</title>
<path fill="#444" d="M16.244 15.015c0 1.11-0.414 1.948-1.236 2.518-0.441 0.305-0.99 0.524-1.63 0.665-0.29 0.364-0.633 0.549-1.119 0.552l-1.434-0.003 0.262-0.377c-0.859-0.021-1.587-0.095-2.101-0.249-0.6-0.174-1.011-0.31-1.227-0.4 0.33-0.938 1.22-1.452 2.197-1.276 0.583 0.11 0.924 0.117 1.518 0.117 0.88 0 1.538-0.117 1.96-0.345 0.426-0.232 0.638-0.603 0.638-1.11 0-0.524-0.21-0.942-0.626-1.25-0.415-0.306-1.102-0.654-2.057-1.041-0.465-0.184-0.906-0.37-1.332-0.567-0.423-0.192-0.787-0.417-1.098-0.68-0.307-0.264-0.553-0.58-0.738-0.947-0.188-0.373-0.28-0.826-0.28-1.367 0-1.062 0.393-1.908 1.179-2.53 0.501-0.397 1.128-0.654 1.86-0.797l0.036-0.053c0.304-0.433 0.672-0.624 1.2-0.627l1.434 0.003-0.411 0.587c0.038 0.006 0.075 0.003 0.112 0.008 0.338 0.034 0.659 0.082 0.948 0.138 0.294 0.054 0.553 0.11 0.774 0.173 0.226 0.062 0.398 0.115 0.525 0.16-0.366 0.939-1.212 1.452-2.215 1.332-0.404-0.053-0.633-0.062-1.041-0.062-0.6 0-1.131 0.123-1.581 0.363-0.447 0.24-0.67 0.612-0.67 1.12 0 0.261 0.051 0.492 0.153 0.696 0.099 0.201 0.253 0.381 0.46 0.542 0.212 0.161 0.47 0.313 0.777 0.45 0.309 0.136 0.678 0.285 1.111 0.44 0.568 0.217 1.077 0.43 1.523 0.634 0.45 0.21 0.826 0.454 1.146 0.729 0.317 0.279 0.561 0.614 0.727 1.008 0.169 0.391 0.255 0.871 0.255 1.444zM12 0c-6.627 0-12 5.373-12 12s5.373 12 12 12 12-5.373 12-12-5.373-12-12-12zM12 22.5c-5.79 0-10.5-4.712-10.5-10.5s4.71-10.5 10.5-10.5 10.5 4.712 10.5 10.5-4.71 10.5-10.5 10.5z"></path>
</svg>
