<!-- Generated by IcoMoon.io -->
<svg version="1.1" xmlns="http://www.w3.org/2000/svg" width="16" height="16" viewBox="0 0 16 16">
<title>coins</title>
<path fill="#444" d="M9.647 10.030c0.114 0.26 0.173 0.58 0.175 0.962 0.005 0.74-0.266 1.301-0.812 1.685-0.293 0.205-0.658 0.353-1.083 0.45-0.192 0.245-0.419 0.369-0.744 0.374l-0.956 0.004 0.173-0.252c-0.573-0.010-1.058-0.056-1.402-0.156-0.401-0.113-0.675-0.202-0.82-0.261 0.215-0.627 0.807-0.974 1.46-0.86 0.389 0.070 0.616 0.073 1.012 0.070 0.587-0.004 1.025-0.085 1.305-0.239 0.282-0.157 0.422-0.405 0.419-0.743-0.002-0.349-0.144-0.627-0.422-0.83s-0.737-0.432-1.375-0.685c-0.31-0.121-0.606-0.243-0.89-0.372-0.283-0.126-0.528-0.275-0.736-0.448-0.206-0.174-0.371-0.384-0.496-0.627-0.126-0.248-0.19-0.55-0.193-0.91-0.005-0.709 0.254-1.275 0.774-1.692 0.332-0.269 0.749-0.442 1.236-0.54l0.024-0.035c0.2-0.291 0.445-0.419 0.797-0.424l0.956-0.005-0.271 0.393c0.025 0.004 0.050 0.002 0.075 0.005 0.225 0.021 0.438 0.053 0.632 0.088 0.196 0.035 0.37 0.071 0.517 0.112 0.151 0.039 0.265 0.075 0.35 0.104-0.239 0.627-0.801 0.973-1.47 0.897-0.269-0.033-0.422-0.037-0.694-0.036-0.4 0.003-0.753 0.088-1.052 0.25-0.297 0.162-0.444 0.411-0.442 0.75 0.002 0.173 0.036 0.328 0.105 0.462 0.068 0.134 0.171 0.253 0.309 0.36 0.142 0.106 0.315 0.207 0.52 0.296 0.207 0.090 0.454 0.188 0.743 0.288 0.38 0.144 0.721 0.282 1.019 0.416 0.3 0.138 0.553 0.299 0.767 0.481 0.212 0.184 0.376 0.407 0.49 0.668zM12.852 12.84c-1.242 1.889-3.373 3.142-5.804 3.16-3.865 0.026-7.021-3.087-7.048-6.951-0.017-2.459 1.239-4.628 3.149-5.89 1.243-1.888 3.373-3.141 5.803-3.159 3.865-0.026 7.021 3.087 7.048 6.951 0.017 2.459-1.239 4.626-3.148 5.889zM13.020 8.954c-0.023-3.301-2.734-5.966-6.042-5.943s-5.981 2.725-5.958 6.026c0.022 3.3 2.733 5.966 6.041 5.943s5.981-2.726 5.959-6.026zM14 8.951c0.004 0.561-0.065 1.104-0.187 1.628 0.762-1.011 1.215-2.266 1.206-3.625-0.023-3.301-2.734-5.966-6.042-5.943-1.304 0.009-2.506 0.44-3.487 1.155 0.471-0.104 0.96-0.162 1.462-0.166 3.865-0.026 7.021 3.087 7.048 6.951z"></path>
</svg>
