<!-- Generated by IcoMoon.io -->
<svg version="1.1" xmlns="http://www.w3.org/2000/svg" width="24" height="24" viewBox="0 0 24 24">
<title>coins</title>
<path fill="#444" d="M14.266 14.779c0.156 0.355 0.238 0.796 0.241 1.321 0.008 1.017-0.366 1.786-1.116 2.314-0.403 0.281-0.904 0.483-1.489 0.618-0.264 0.337-0.577 0.507-1.022 0.514l-1.314 0.006 0.238-0.347c-0.789-0.014-1.455-0.076-1.928-0.215-0.552-0.156-0.928-0.277-1.127-0.357 0.296-0.862 1.109-1.338 2.007-1.182 0.535 0.096 0.847 0.1 1.392 0.096 0.807-0.006 1.409-0.116 1.795-0.328 0.387-0.217 0.579-0.558 0.576-1.021-0.003-0.479-0.198-0.861-0.581-1.141-0.382-0.277-1.013-0.593-1.891-0.939-0.427-0.167-0.833-0.334-1.225-0.511-0.389-0.174-0.725-0.378-1.011-0.616-0.283-0.239-0.511-0.527-0.683-0.861-0.174-0.341-0.262-0.755-0.265-1.25-0.008-0.973 0.348-1.752 1.063-2.324 0.457-0.369 1.030-0.608 1.699-0.742l0.033-0.049c0.275-0.399 0.612-0.575 1.096-0.582l1.314-0.006-0.372 0.539c0.035 0.006 0.068 0.003 0.104 0.007 0.308 0.028 0.602 0.071 0.869 0.12 0.27 0.048 0.508 0.098 0.71 0.154 0.208 0.054 0.364 0.104 0.481 0.144-0.329 0.861-1.101 1.337-2.021 1.233-0.37-0.046-0.581-0.053-0.956-0.051-0.55 0.004-1.037 0.12-1.446 0.344-0.408 0.223-0.61 0.563-0.607 1.030 0.002 0.238 0.049 0.451 0.145 0.636 0.093 0.184 0.235 0.347 0.425 0.493 0.195 0.146 0.433 0.285 0.714 0.407 0.285 0.123 0.624 0.258 1.022 0.395 0.522 0.198 0.99 0.389 1.4 0.572 0.414 0.189 0.761 0.411 1.055 0.661 0.292 0.253 0.517 0.558 0.675 0.918zM10.61 3.78c-5.307 0-9.61 4.302-9.61 9.611 0 5.307 4.303 9.609 9.61 9.609s9.61-4.302 9.61-9.609c0-5.309-4.303-9.611-9.61-9.611zM10.61 21.605c-4.536 0-8.215-3.679-8.215-8.215 0-4.537 3.679-8.215 8.215-8.215s8.215 3.678 8.215 8.215c0 4.537-3.679 8.215-8.215 8.215zM13.39 1c-1.309 0-2.548 0.275-3.684 0.75-0.286 0.089-0.496 0.344-0.496 0.658 0 0.388 0.313 0.698 0.7 0.698 0.099 0 0.192-0.021 0.277-0.058l0.001 0.002c0.983-0.42 2.064-0.655 3.202-0.655 4.536 0 8.215 3.678 8.215 8.215 0 1.179-0.254 2.297-0.704 3.309 0 0-0.051 0.187-0.051 0.287 0 0.385 0.311 0.694 0.695 0.694 0.312 0 0.567-0.21 0.654-0.494 0.505-1.165 0.8-2.443 0.8-3.796 0.001-5.307-4.302-9.61-9.609-9.61z"></path>
</svg>
