<!-- Generated by IcoMoon.io -->
<svg version="1.1" xmlns="http://www.w3.org/2000/svg" width="16" height="16" viewBox="0 0 16 16">
<title>coin</title>
<path fill="#444" d="M10.829 10.010c0 0.74-0.276 1.299-0.824 1.679-0.294 0.203-0.66 0.349-1.087 0.443-0.193 0.243-0.422 0.366-0.746 0.368l-0.956-0.002 0.175-0.251c-0.573-0.014-1.058-0.063-1.401-0.166-0.4-0.116-0.674-0.207-0.818-0.267 0.22-0.625 0.813-0.968 1.465-0.851 0.389 0.073 0.616 0.078 1.012 0.078 0.587 0 1.025-0.078 1.307-0.23 0.284-0.155 0.425-0.402 0.425-0.74 0-0.349-0.14-0.628-0.417-0.833s-0.735-0.436-1.371-0.694c-0.31-0.123-0.604-0.247-0.888-0.378-0.282-0.128-0.525-0.278-0.732-0.453-0.205-0.176-0.369-0.387-0.492-0.631-0.125-0.249-0.187-0.551-0.187-0.911 0-0.708 0.262-1.272 0.786-1.687 0.334-0.265 0.752-0.436 1.24-0.531l0.024-0.035c0.203-0.289 0.448-0.416 0.8-0.418l0.956 0.002-0.274 0.391c0.025 0.004 0.050 0.002 0.075 0.005 0.225 0.023 0.439 0.055 0.632 0.092 0.196 0.036 0.369 0.073 0.516 0.115 0.151 0.041 0.265 0.077 0.35 0.107-0.244 0.626-0.808 0.968-1.477 0.888-0.269-0.035-0.422-0.041-0.694-0.041-0.4 0-0.754 0.082-1.054 0.242-0.298 0.16-0.447 0.408-0.447 0.747 0 0.174 0.034 0.328 0.102 0.464 0.066 0.134 0.169 0.254 0.307 0.361 0.141 0.107 0.313 0.209 0.518 0.3 0.206 0.091 0.452 0.19 0.741 0.293 0.379 0.145 0.718 0.287 1.015 0.423 0.3 0.14 0.551 0.303 0.764 0.486 0.211 0.186 0.374 0.409 0.485 0.672 0.113 0.261 0.17 0.581 0.17 0.963zM8 0c-4.418 0-8 3.582-8 8s3.582 8 8 8 8-3.582 8-8-3.582-8-8-8zM8 15c-3.86 0-7-3.141-7-7s3.14-7 7-7 7 3.141 7 7-3.14 7-7 7z"></path>
</svg>
