<!-- Generated by IcoMoon.io -->
<svg version="1.1" xmlns="http://www.w3.org/2000/svg" width="24" height="24" viewBox="0 0 24 24">
<title>compass</title>
<path d="M12 1c-6.077 0-11 4.924-11 11s4.923 11 11 11 11-4.924 11-11-4.923-11-11-11zM12 21.625c-5.307 0-9.625-4.318-9.625-9.625s4.318-9.625 9.625-9.625 9.625 4.318 9.625 9.625-4.318 9.625-9.625 9.625zM12.409 11.446c0.304 0.229 0.369 0.658 0.146 0.962-0.229 0.305-0.659 0.369-0.963 0.146-0.304-0.229-0.369-0.658-0.143-0.962 0.225-0.304 0.655-0.368 0.96-0.146zM10.574 8.759c-1.37 0.969-2.011 2.175-2.011 3.802l0.001 5.932 4.866-3.253c1.373-0.977 2.009-2.185 2.008-3.803l0.001-5.929-4.865 3.251zM14.063 11.437c0.001 1.206-0.441 1.98-1.428 2.677l-2.696 1.804v-3.356c0-1.209 0.443-1.98 1.429-2.674l2.696-1.804-0.001 3.353z"></path>
</svg>
