<!-- Generated by IcoMoon.io -->
<svg version="1.1" xmlns="http://www.w3.org/2000/svg" width="24" height="24" viewBox="0 0 24 24">
<title>compass</title>
<path fill="#444" d="M12 0c-6.627 0-12 5.373-12 12s5.373 12 12 12 12-5.373 12-12-5.373-12-12-12zM12 22.5c-5.79 0-10.5-4.712-10.5-10.5s4.71-10.5 10.5-10.5 10.5 4.712 10.5 10.5-4.71 10.5-10.5 10.5zM12.446 11.399c0.335 0.248 0.403 0.714 0.158 1.047-0.246 0.335-0.716 0.403-1.049 0.158-0.333-0.247-0.403-0.714-0.156-1.047 0.245-0.335 0.714-0.404 1.047-0.158zM10.446 8.466c-1.497 1.057-2.195 2.374-2.195 4.146l0.002 6.471 5.309-3.552c1.497-1.061 2.191-2.38 2.19-4.149l0.001-6.468-5.307 3.552zM14.25 11.384c0.002 1.317-0.482 2.162-1.558 2.925l-2.94 1.968v-3.663c0-1.322 0.485-2.162 1.56-2.921l2.94-1.968-0.001 3.659z"></path>
</svg>
