<!-- Generated by IcoMoon.io -->
<svg version="1.1" xmlns="http://www.w3.org/2000/svg" width="24" height="24" viewBox="0 0 24 24">
<title>compasses</title>
<path fill="#444" d="M23.751 21.756l-4-5.56h0.005l-0.052-0.075c0.231-0.069 0.432-0.184 0.597-0.42l0.701-1.001h-2.303l-4.17-5.899c0.296-0.463 0.473-1.011 0.473-1.601 0-1.413-0.931-2.595-2.25-2.91 0.018-0.091 0-3.238 0-3.238l-1 0.699c-0.36 0.252-0.498 0.544-0.5 0.984v1.572c-1.29 0.336-2.25 1.5-2.25 2.893 0 0.588 0.177 1.134 0.47 1.596l-4.17 5.904h-2.3l0.7 1.001c0.165 0.235 0.366 0.349 0.595 0.42l-0.053 0.075h0.021l-4.015 5.56c-0.257 0.357-0.317 0.674-0.173 1.091l0.396 1.153 5.644-7.804h2.905v0.005h2.228v1.65l0.999-0.701c0.35-0.244 0.483-0.531 0.494-0.949h1.038v-0.005h4.115l5.633 7.804 0.398-1.155c0.142-0.415 0.082-0.732-0.174-1.089zM12 5.7c0.828 0 1.5 0.671 1.5 1.5s-0.672 1.5-1.5 1.5-1.5-0.671-1.5-1.5 0.672-1.5 1.5-1.5zM12.75 14.7v-1.5l-1 0.7c-0.302 0.21-0.421 0.47-0.462 0.8l-4.155-0.001 3.446-4.874c0.426 0.231 0.904 0.375 1.422 0.375s0.998-0.144 1.422-0.375l3.447 4.875h-4.119z"></path>
</svg>
