<!-- Generated by IcoMoon.io -->
<svg version="1.1" xmlns="http://www.w3.org/2000/svg" width="16" height="16" viewBox="0 0 16 16">
<title>compass</title>
<path fill="#444" d="M8 0c-4.418 0-8 3.582-8 8s3.582 8 8 8 8-3.582 8-8-3.582-8-8-8zM8 15c-3.86 0-7-3.141-7-7s3.14-7 7-7 7 3.141 7 7-3.14 7-7 7zM8.297 7.599c0.223 0.165 0.269 0.476 0.105 0.698s-0.477 0.269-0.699 0.105c-0.222-0.165-0.269-0.476-0.104-0.698 0.163-0.223 0.476-0.269 0.698-0.105zM6.964 5.644c-0.998 0.705-1.463 1.583-1.463 2.764l0.001 4.314 3.539-2.368c0.998-0.707 1.461-1.587 1.46-2.766l0.001-4.312-3.538 2.368zM9.5 7.589c0.001 0.878-0.321 1.441-1.039 1.95l-1.96 1.312v-2.442c0-0.881 0.323-1.441 1.040-1.947l1.96-1.312-0.001 2.439z"></path>
</svg>
