<!-- Generated by IcoMoon.io -->
<svg version="1.1" xmlns="http://www.w3.org/2000/svg" width="16" height="16" viewBox="0 0 16 16">
<title>compasses</title>
<path fill="#444" d="M15.834 14.504l-2.667-3.707h0.003l-0.035-0.050c0.154-0.046 0.288-0.123 0.398-0.28l0.467-0.667h-1.535l-2.78-3.933c0.197-0.309 0.315-0.674 0.315-1.067 0-0.942-0.621-1.73-1.5-1.94 0.012-0.061 0-2.159 0-2.159l-0.667 0.466c-0.24 0.168-0.332 0.363-0.333 0.656v1.048c-0.86 0.224-1.5 1-1.5 1.929 0 0.392 0.118 0.756 0.313 1.064l-2.78 3.936h-1.533l0.467 0.667c0.11 0.157 0.244 0.233 0.397 0.28l-0.035 0.050h0.014l-2.677 3.707c-0.171 0.238-0.211 0.449-0.115 0.727l0.264 0.769 3.763-5.203h1.937v0.003h1.485v1.1l0.666-0.467c0.233-0.163 0.322-0.354 0.329-0.633h0.692v-0.003h2.743l3.755 5.203 0.265-0.77c0.095-0.277 0.055-0.488-0.116-0.726zM8 3.8c0.552 0 1 0.447 1 1s-0.448 1-1 1-1-0.447-1-1 0.448-1 1-1zM8.5 9.8v-1l-0.667 0.467c-0.201 0.14-0.281 0.313-0.308 0.533l-2.77-0.001 2.297-3.249c0.284 0.154 0.603 0.25 0.948 0.25s0.665-0.096 0.948-0.25l2.298 3.25h-2.746z"></path>
</svg>
