<!-- Generated by IcoMoon.io -->
<svg version="1.1" xmlns="http://www.w3.org/2000/svg" width="16" height="16" viewBox="0 0 16 16">
<title>control_panel</title>
<path fill="#444" d="M0 9.132c0-4.272 3.589-7.75 8-7.75s8 3.478 8 7.75c0 2.142-0.904 4.082-2.359 5.486l-0.201-0.768c-0.065-0.248-0.015-0.451 0.122-0.648 0.896-1.133 1.438-2.538 1.438-4.070 0-3.723-3.14-6.75-7-6.75s-7 3.027-7 6.75c0 1.535 0.545 2.943 1.444 4.077 0.128 0.193 0.176 0.392 0.111 0.634l-0.205 0.765c-1.45-1.403-2.35-3.339-2.35-5.476zM7.996 11c0.293 0 0.48-0.107 0.649-0.347l3.255-4.653h-0.813c-0.292 0-0.48 0.107-0.65 0.347l-3.255 4.653h0.814z"></path>
</svg>
