<!-- Generated by IcoMoon.io -->
<svg version="1.1" xmlns="http://www.w3.org/2000/svg" width="24" height="24" viewBox="0 0 24 24">
<title>control_panel</title>
<path fill="#444" d="M1 13.554c0-5.872 4.934-10.657 11-10.657s11 4.784 11 10.656c0 2.95-1.244 5.617-3.244 7.549l-0.277-1.062c-0.088-0.342-0.021-0.615 0.168-0.889 1.233-1.56 1.978-3.492 1.978-5.599 0-5.117-4.318-9.281-9.625-9.281s-9.625 4.164-9.625 9.281c0 2.115 0.75 4.051 1.986 5.606 0.175 0.27 0.241 0.538 0.152 0.874l-0.282 1.053c-1.994-1.929-3.231-4.592-3.231-7.531zM11.993 16.125c0.405 0 0.662-0.148 0.896-0.476l4.474-6.399h-1.118c-0.401 0-0.659 0.148-0.893 0.476l-4.478 6.399h1.119z"></path>
</svg>
