<!-- Generated by IcoMoon.io -->
<svg version="1.1" xmlns="http://www.w3.org/2000/svg" width="24" height="24" viewBox="0 0 24 24">
<title>control_panel</title>
<path fill="#444" d="M0 13.698c0-6.408 5.383-11.625 12-11.625s12 5.217 12 11.625c0 3.213-1.356 6.123-3.538 8.229l-0.302-1.152c-0.098-0.372-0.023-0.677 0.183-0.972 1.344-1.7 2.157-3.807 2.157-6.105 0-5.585-4.71-10.125-10.5-10.125s-10.5 4.54-10.5 10.125c0 2.302 0.817 4.415 2.166 6.116 0.192 0.289 0.264 0.588 0.167 0.951l-0.308 1.148c-2.175-2.105-3.525-5.009-3.525-8.214zM11.994 16.5c0.439 0 0.72-0.16 0.973-0.52l4.882-6.979h-1.22c-0.438 0-0.72 0.161-0.975 0.521l-4.883 6.979h1.221z"></path>
</svg>
