<!-- Generated by IcoMoon.io -->
<svg version="1.1" xmlns="http://www.w3.org/2000/svg" width="24" height="24" viewBox="0 0 24 24">
<title>copter</title>
<path fill="#444" d="M21 3.75c-1.428 0-2.622 1.005-2.922 2.343h-12.078c-3.31 0-5.992 2.678-6 5.985v0.015c0 3.313 2.685 6 6 6h3c3.313 0 6-2.685 6-6v-4.5h3.135c0.367 1.244 1.506 2.157 2.865 2.157 1.654 0 3-1.345 3-3s-1.346-3-3-3zM13.5 12.093c0 2.481-2.019 4.5-4.5 4.5h-3c-2.481 0-4.5-2.019-4.5-4.5 0.006-2.486 2.025-4.5 4.5-4.5h7.5v4.5zM21 8.25c-0.828 0-1.5-0.671-1.5-1.5s0.672-1.5 1.5-1.5 1.5 0.671 1.5 1.5-0.672 1.5-1.5 1.5zM16.316 4.5h-7.315l0.7-0.999c0.252-0.36 0.544-0.498 0.984-0.501h7.316l-0.701 1c-0.252 0.36-0.544 0.498-0.984 0.5zM0.701 3.999l-0.701-0.999h7.316c0.439 0.002 0.732 0.139 0.984 0.5l0.7 1h-7.315c-0.439-0.003-0.732-0.141-0.984-0.501zM17.299 20.001l0.701 0.999h-16.316c-0.439-0.002-0.732-0.139-0.984-0.5l-0.701-1h16.316c0.439 0.003 0.732 0.141 0.984 0.501z"></path>
</svg>
