<!-- Generated by IcoMoon.io -->
<svg version="1.1" xmlns="http://www.w3.org/2000/svg" width="16" height="16" viewBox="0 0 16 16">
<title>copter</title>
<path fill="#444" d="M14 2.5c-0.952 0-1.748 0.67-1.948 1.562h-8.052c-2.207 0-3.995 1.785-4 3.99v0.010c0 2.209 1.79 4 4 4h2c2.209 0 4-1.79 4-4v-3h2.090c0.245 0.829 1.004 1.438 1.91 1.438 1.103 0 2-0.897 2-2s-0.897-2-2-2zM9 8.062c0 1.654-1.346 3-3 3h-2c-1.654 0-3-1.346-3-3 0.004-1.657 1.35-3 3-3h5v3zM14 5.5c-0.552 0-1-0.447-1-1s0.448-1 1-1 1 0.447 1 1-0.448 1-1 1zM10.877 3h-4.877l0.467-0.666c0.168-0.24 0.363-0.332 0.656-0.334h4.877l-0.467 0.667c-0.168 0.24-0.363 0.332-0.656 0.333zM0.467 2.666l-0.467-0.666h4.877c0.293 0.001 0.488 0.093 0.656 0.333l0.467 0.667h-4.877c-0.293-0.002-0.488-0.094-0.656-0.334zM11.533 13.334l0.467 0.666h-10.877c-0.293-0.001-0.488-0.093-0.656-0.333l-0.467-0.667h10.877c0.293 0.002 0.488 0.094 0.656 0.334z"></path>
</svg>
