<!-- Generated by IcoMoon.io -->
<svg version="1.1" xmlns="http://www.w3.org/2000/svg" width="24" height="24" viewBox="0 0 24 24">
<title>creditcard</title>
<path fill="#444" d="M1 6.865v-0.795c0-1.086 0.897-1.977 2.001-1.977h17.998c1.104 0.001 2.001 0.891 2.001 1.977v0.795h-1.375v-0.795c0-0.326-0.287-0.602-0.626-0.602h-17.998c-0.339 0-0.626 0.275-0.626 0.602v0.795h-1.375zM21.625 9.594v8.336c0 0.326-0.287 0.602-0.626 0.602h-17.998c-0.339 0-0.626-0.275-0.626-0.602v-8.336h-1.375v8.336c0 1.086 0.897 1.977 2.001 1.977h17.998c1.104 0 2.001-0.891 2.001-1.977v-8.336h-1.375z"></path>
</svg>
