<!-- Generated by IcoMoon.io -->
<svg version="1.1" xmlns="http://www.w3.org/2000/svg" width="16" height="16" viewBox="0 0 16 16">
<title>creditcard</title>
<path fill="#444" d="M0 4.266v-0.578c0-0.791 0.652-1.438 1.455-1.438h13.090c0.803 0 1.455 0.647 1.455 1.438v0.578h-1v-0.578c0-0.237-0.208-0.438-0.455-0.438h-13.090c-0.247 0-0.455 0.2-0.455 0.438v0.578h-1zM15 6.25v6.062c0 0.237-0.208 0.438-0.455 0.438h-13.090c-0.247 0-0.455-0.2-0.455-0.438v-6.062h-1v6.062c0 0.79 0.652 1.438 1.455 1.438h13.090c0.803 0 1.455-0.647 1.455-1.438v-6.062h-1z"></path>
</svg>
