<!-- Generated by IcoMoon.io -->
<svg version="1.1" xmlns="http://www.w3.org/2000/svg" width="24" height="24" viewBox="0 0 24 24">
<title>creditcard</title>
<path fill="#444" d="M0 6.399v-0.867c0-1.186 0.978-2.157 2.183-2.157h19.635c1.205 0 2.183 0.971 2.183 2.157v0.867h-1.5v-0.867c0-0.356-0.312-0.657-0.683-0.657h-19.635c-0.37 0-0.683 0.3-0.683 0.657v0.867h-1.5zM22.5 9.375v9.093c0 0.355-0.312 0.657-0.683 0.657h-19.635c-0.37 0-0.683-0.3-0.683-0.657v-9.093h-1.5v9.093c0 1.185 0.978 2.157 2.183 2.157h19.635c1.205 0 2.183-0.971 2.183-2.157v-9.093h-1.5z"></path>
</svg>
