<!-- Generated by IcoMoon.io -->
<svg version="1.1" xmlns="http://www.w3.org/2000/svg" width="24" height="24" viewBox="0 0 24 24">
<title>currency_pound</title>
<path fill="#444" d="M10.203 13.912c0-0.322 0-0.588-0.022-0.859-0.016-0.19-0.176-0.338-0.369-0.338h-1.589v-1.467h1.203c0.104 0 0.202-0.043 0.272-0.118 0.069-0.078 0.104-0.18 0.096-0.282-0.027-0.327-0.027-0.658-0.026-1.042l0.001-0.193c0-2.118 1.551-3.599 3.772-3.599 1.191 0 1.877 0.285 2.181 0.457l0.055 0.029-0.44 1.324-0.076-0.038c-0.164-0.080-0.776-0.347-1.792-0.347-1.384 0-2.243 0.833-2.243 2.17 0 0.592 0.013 0.938 0.072 1.324 0.027 0.18 0.183 0.314 0.365 0.314h0.337l0.733 0.037c0.322 0.040 0.575 0.156 0.781 0.451l0.684 0.979h-2.109c-0.102 0-0.199 0.043-0.269 0.117-0.071 0.073-0.106 0.172-0.1 0.274 0.027 0.435 0.021 0.806-0.085 1.522-0.069 0.471-0.252 0.913-0.545 1.313-0.082 0.113-0.094 0.261-0.032 0.384 0.063 0.124 0.191 0.204 0.33 0.204l2.396-0.005 0.483 0.024c0.322 0.039 0.575 0.155 0.781 0.451l0.671 0.958v0.027h-6.951v-1.424l0.135-0.129c0.999-0.96 1.3-1.253 1.3-2.518zM23 12c0 6.075-4.924 11-11 11s-11-4.925-11-11c0-6.074 4.924-11 11-11s11 4.926 11 11zM21.625 12c0-5.307-4.317-9.625-9.625-9.625s-9.625 4.318-9.625 9.625 4.317 9.625 9.625 9.625 9.625-4.318 9.625-9.625z"></path>
</svg>
