<!-- Generated by IcoMoon.io -->
<svg version="1.1" xmlns="http://www.w3.org/2000/svg" width="24" height="24" viewBox="0 0 24 24">
<title>currency_pound</title>
<path fill="#444" d="M10.040 14.087c0-0.351 0-0.642-0.024-0.938-0.017-0.209-0.192-0.369-0.402-0.369h-1.734v-1.601h1.313c0.113 0 0.221-0.046 0.297-0.129 0.075-0.086 0.114-0.197 0.104-0.308-0.030-0.357-0.030-0.719-0.029-1.137v-0.211c0-2.311 1.692-3.926 4.116-3.926 1.299 0 2.048 0.311 2.379 0.498l0.062 0.033-0.48 1.444-0.082-0.041c-0.178-0.089-0.846-0.378-1.954-0.378-1.509 0-2.447 0.907-2.447 2.367 0 0.645 0.014 1.023 0.078 1.445 0.030 0.197 0.2 0.343 0.399 0.343h0.366l0.799 0.039c0.351 0.042 0.627 0.169 0.852 0.492l0.747 1.068h-2.301c-0.111 0-0.218 0.046-0.293 0.129-0.078 0.078-0.117 0.186-0.11 0.299 0.030 0.474 0.024 0.879-0.093 1.66-0.075 0.513-0.274 0.996-0.594 1.433-0.090 0.123-0.104 0.284-0.034 0.418s0.209 0.222 0.36 0.222l2.613-0.006 0.526 0.027c0.351 0.042 0.627 0.169 0.852 0.492l0.732 1.045v0.030h-7.584v-1.553l0.147-0.141c1.091-1.052 1.419-1.37 1.419-2.75zM24 12c0 6.627-5.373 12-12 12s-12-5.373-12-12 5.373-12 12-12 12 5.373 12 12zM22.5 12c0-5.788-4.71-10.5-10.5-10.5s-10.5 4.712-10.5 10.5 4.71 10.5 10.5 10.5 10.5-4.712 10.5-10.5z"></path>
</svg>
