<!-- Generated by IcoMoon.io -->
<svg version="1.1" xmlns="http://www.w3.org/2000/svg" width="16" height="16" viewBox="0 0 16 16">
<title>currency_yen</title>
<path fill="#444" d="M8 0c-4.418 0-8 3.582-8 8s3.582 8 8 8 8-3.582 8-8-3.582-8-8-8zM8 15c-3.86 0-7-3.141-7-7s3.14-7 7-7 7 3.141 7 7-3.14 7-7 7zM7.427 12.222v-1.71c0-0.144-0.117-0.261-0.261-0.261h-1.824v-1.026h1.824c0.144 0 0.261-0.117 0.261-0.261v-0.249c0-0.144-0.117-0.261-0.261-0.261h-1.824v-1.028h1.009c0.098 0 0.187-0.055 0.231-0.142 0.045-0.086 0.037-0.191-0.020-0.271l-2.312-3.235h1.59l1.932 3.21c0.048 0.078 0.133 0.126 0.224 0.126 0.001 0 0.002 0 0.003 0 0.093-0.001 0.177-0.051 0.224-0.13 0.526-0.917 1.622-2.694 1.911-3.162l0.026-0.044h1.591l-2.313 3.236c-0.057 0.079-0.064 0.185-0.020 0.271s0.134 0.142 0.231 0.142h1.009v1.028h-1.824c-0.144 0-0.261 0.117-0.261 0.261v0.249c0 0.144 0.117 0.261 0.261 0.261h1.824v1.026h-1.824c-0.144 0-0.261 0.117-0.261 0.261v1.71h-1.146z"></path>
</svg>
