<!-- Generated by IcoMoon.io -->
<svg version="1.1" xmlns="http://www.w3.org/2000/svg" width="16" height="16" viewBox="0 0 16 16">
<title>currency_pound</title>
<path fill="#444" d="M6.693 9.391c0-0.234 0-0.428-0.016-0.625-0.011-0.139-0.128-0.246-0.268-0.246h-1.156v-1.067h0.875c0.075 0 0.147-0.031 0.198-0.086 0.050-0.057 0.076-0.131 0.069-0.205-0.020-0.238-0.020-0.479-0.019-0.758v-0.141c0-1.541 1.128-2.617 2.744-2.617 0.866 0 1.365 0.207 1.586 0.332l0.041 0.022-0.32 0.963-0.055-0.027c-0.119-0.059-0.564-0.252-1.303-0.252-1.006 0-1.631 0.605-1.631 1.578 0 0.43 0.009 0.682 0.052 0.963 0.020 0.131 0.133 0.229 0.266 0.229h0.244l0.533 0.026c0.234 0.028 0.418 0.113 0.568 0.328l0.498 0.712h-1.534c-0.074 0-0.145 0.031-0.195 0.086-0.052 0.052-0.078 0.124-0.073 0.199 0.020 0.316 0.016 0.586-0.062 1.107-0.050 0.342-0.183 0.664-0.396 0.955-0.060 0.082-0.069 0.189-0.023 0.279s0.139 0.148 0.24 0.148l1.742-0.004 0.351 0.018c0.234 0.028 0.418 0.113 0.568 0.328l0.488 0.697v0.020h-5.056v-1.035l0.098-0.094c0.727-0.701 0.946-0.913 0.946-1.833zM16 8c0 4.418-3.582 8-8 8s-8-3.582-8-8 3.582-8 8-8 8 3.582 8 8zM15 8c0-3.859-3.14-7-7-7s-7 3.141-7 7 3.14 7 7 7 7-3.141 7-7z"></path>
</svg>
