<!-- Generated by IcoMoon.io -->
<svg version="1.1" xmlns="http://www.w3.org/2000/svg" width="16" height="16" viewBox="0 0 16 16">
<title>currency_euro</title>
<path fill="#444" d="M8 0c-4.418 0-8 3.582-8 8s3.582 8 8 8 8-3.582 8-8-3.582-8-8-8zM8 15c-3.86 0-7-3.141-7-7s3.14-7 7-7 7 3.141 7 7-3.14 7-7 7zM3.644 8.381h0.213c0 0-0.060-0.252-0.060-0.381s0.017-0.256 0.035-0.379l-0.698-0.004 0.497-0.998h0.435c0.611-1.629 2.217-2.719 4.017-2.719 1.064 0 2.088 0.387 2.881 1.092l0.062 0.055-0.6 0.982-0.089-0.094c-0.57-0.594-1.412-0.947-2.254-0.947-1.178 0-2.258 0.635-2.798 1.631h4.468l-0.646 1.008h-4.144c-0.020 0.127-0.036 0.242-0.036 0.373 0 0.129 0.016 0.254 0.035 0.381h3.835l-0.568 0.949-2.922-0.002c0.54 0.998 1.598 1.684 2.776 1.684 0.894 0 1.728-0.371 2.346-1.043l0.174-0.191v1.461c-0.774 0.591-1.63 0.861-2.52 0.861-1.8 0-3.365-1.141-3.976-2.771h-1l0.537-0.948z"></path>
</svg>
