<!-- Generated by IcoMoon.io -->
<svg version="1.1" xmlns="http://www.w3.org/2000/svg" width="24" height="24" viewBox="0 0 24 24">
<title>currency_euro</title>
<path fill="#444" d="M12 0c-6.627 0-12 5.373-12 12s5.373 12 12 12 12-5.373 12-12-5.373-12-12-12zM12 22.5c-5.79 0-10.5-4.712-10.5-10.5s4.71-10.5 10.5-10.5 10.5 4.712 10.5 10.5-4.71 10.5-10.5 10.5zM5.466 12.572h0.32c0 0-0.090-0.378-0.090-0.572s0.026-0.384 0.053-0.569l-1.047-0.006 0.745-1.497h0.652c0.916-2.444 3.325-4.079 6.026-4.079 1.596 0 3.132 0.58 4.322 1.638l0.093 0.082-0.9 1.473-0.133-0.141c-0.855-0.891-2.118-1.42-3.381-1.42-1.767 0-3.387 0.952-4.197 2.447h6.702l-0.969 1.512h-6.216c-0.030 0.191-0.054 0.363-0.054 0.559 0 0.194 0.024 0.381 0.053 0.572h5.753l-0.852 1.424-4.383-0.003c0.81 1.497 2.397 2.526 4.164 2.526 1.341 0 2.592-0.556 3.519-1.564l0.261-0.287v2.192c-1.161 0.886-2.445 1.291-3.78 1.291-2.7 0-5.048-1.712-5.964-4.156h-1.5l0.805-1.422z"></path>
</svg>
