<!-- Generated by IcoMoon.io -->
<svg version="1.1" xmlns="http://www.w3.org/2000/svg" width="24" height="24" viewBox="0 0 24 24">
<title>currency_yen</title>
<path fill="#444" d="M12 1c-6.075 0-11 4.926-11 11s4.925 11 11 11 11-4.926 11-11-4.925-11-11-11zM12 21.625c-5.307 0-9.625-4.318-9.625-9.625s4.318-9.625 9.625-9.625 9.625 4.318 9.625 9.625-4.318 9.625-9.625 9.625zM11.212 17.805v-2.352c0-0.197-0.161-0.358-0.358-0.358h-2.509v-1.411h2.509c0.197 0 0.358-0.161 0.358-0.358v-0.343c0-0.197-0.161-0.358-0.358-0.358h-2.509v-1.413h1.387c0.134 0 0.256-0.076 0.318-0.195s0.051-0.263-0.027-0.372l-3.18-4.448h2.187l2.656 4.414c0.066 0.107 0.183 0.173 0.308 0.173 0.001 0 0.003 0 0.004 0 0.128-0.001 0.243-0.070 0.308-0.179 0.724-1.261 2.23-3.705 2.628-4.348l0.036-0.061h2.188l-3.18 4.448c-0.078 0.109-0.089 0.254-0.027 0.372s0.184 0.195 0.318 0.195h1.387v1.413h-2.509c-0.197 0-0.358 0.161-0.358 0.358v0.343c0 0.197 0.161 0.358 0.358 0.358h2.509v1.411h-2.509c-0.197 0-0.358 0.161-0.358 0.358v2.352h-1.577z"></path>
</svg>
