<!-- Generated by IcoMoon.io -->
<svg version="1.1" xmlns="http://www.w3.org/2000/svg" width="24" height="24" viewBox="0 0 24 24">
<title>currency_yen</title>
<path fill="#444" d="M12 0c-6.627 0-12 5.373-12 12s5.373 12 12 12 12-5.373 12-12-5.373-12-12-12zM12 22.5c-5.79 0-10.5-4.712-10.5-10.5s4.71-10.5 10.5-10.5 10.5 4.712 10.5 10.5-4.71 10.5-10.5 10.5zM11.14 18.333v-2.565c0-0.216-0.175-0.391-0.392-0.391h-2.736v-1.539h2.736c0.216 0 0.392-0.176 0.392-0.391v-0.374c0-0.216-0.175-0.391-0.392-0.391h-2.736v-1.542h1.513c0.147 0 0.28-0.082 0.346-0.213 0.068-0.129 0.056-0.287-0.030-0.406l-3.468-4.853h2.385l2.898 4.815c0.072 0.117 0.199 0.189 0.336 0.189 0.002 0 0.003 0 0.005 0 0.14-0.002 0.265-0.077 0.336-0.195 0.789-1.375 2.433-4.041 2.866-4.743l0.039-0.066h2.386l-3.47 4.854c-0.086 0.118-0.096 0.277-0.030 0.406 0.066 0.131 0.201 0.213 0.346 0.213h1.514v1.542h-2.736c-0.216 0-0.391 0.176-0.391 0.391v0.373c0 0.216 0.176 0.392 0.391 0.392h2.736v1.539h-2.736c-0.216 0-0.391 0.176-0.391 0.392v2.565h-1.719z"></path>
</svg>
