<!-- Generated by IcoMoon.io -->
<svg version="1.1" xmlns="http://www.w3.org/2000/svg" width="24" height="24" viewBox="0 0 24 24">
<title>database</title>
<path fill="#444" d="M12 1.5c4.994 0 7.544 1.171 7.551 2.619 0 0.002 0 0.014 0 0.014-0.015 1.449-2.562 2.619-7.551 2.619-4.987 0-7.485-1.17-7.5-2.619 0 0 0-0.012 0-0.013 0.008-1.448 2.508-2.619 7.5-2.619zM12 0c-1.752 0-9 0.2-9 4.123 0 0.003 0.002 0.006 0.002 0.011v15.742c0 2.707 3.782 4.123 8.998 4.123s8.998-1.416 8.998-4.123v-15.742c0-0.005 0.001-0.008 0.001-0.011 0-3.924-7.248-4.123-9-4.123zM4.5 6.459c2.562 1.68 6.195 1.793 7.5 1.793s4.939-0.113 7.5-1.793v5.541c0 1.069-1.977 2.622-7.5 2.622s-7.5-1.553-7.5-2.622v-5.541zM12 22.5c-5.523 0-7.5-1.554-7.5-2.623v-5.682c1.926 1.271 3.951 1.928 7.5 1.928s5.576-0.657 7.5-1.928v5.682c0 1.069-1.977 2.623-7.5 2.623z"></path>
</svg>
