<!-- Generated by IcoMoon.io -->
<svg version="1.1" xmlns="http://www.w3.org/2000/svg" width="16" height="16" viewBox="0 0 16 16">
<title>database</title>
<path fill="#444" d="M8 1c3.329 0 5.029 0.781 5.034 1.746 0 0.001 0 0.009 0 0.009-0.010 0.966-1.708 1.746-5.034 1.746s-4.99-0.78-5-1.746c0 0 0-0.008 0-0.009 0.005-0.965 1.672-1.746 5-1.746zM8 0c-1.168 0-6 0.133-6 2.749 0 0.002 0.001 0.004 0.001 0.007v10.495c0 1.805 2.521 2.749 5.999 2.749s5.999-0.944 5.999-2.749v-10.495c0-0.003 0.001-0.005 0.001-0.007 0-2.616-4.832-2.749-6-2.749zM3 4.306c1.708 1.12 4.13 1.195 5 1.195s3.293-0.075 5-1.195v3.694c0 0.713-1.318 1.748-5 1.748s-5-1.035-5-1.748v-3.694zM8 15c-3.682 0-5-1.036-5-1.749v-3.788c1.284 0.847 2.634 1.285 5 1.285s3.717-0.438 5-1.285v3.788c0 0.713-1.318 1.749-5 1.749z"></path>
</svg>
