<!-- Generated by IcoMoon.io -->
<svg version="1.1" xmlns="http://www.w3.org/2000/svg" width="16" height="16" viewBox="0 0 16 16">
<title>delete</title>
<path fill="#444" d="M7 6v4.542c0 0.294-0.107 0.498-0.347 0.667l-0.653 0.455v-4.541c0-0.294 0.107-0.499 0.347-0.668l0.653-0.455zM9.347 6.455c-0.24 0.169-0.347 0.374-0.347 0.668v4.541l0.653-0.455c0.24-0.169 0.347-0.373 0.347-0.667v-4.542l-0.653 0.455zM15 3h-1l0.016 11c0 1.103-1.030 2-2.154 2h-7.693c-1.124 0-2.154-0.897-2.154-2l-0.015-11h-1l0.45-0.642c0.168-0.24 0.307-0.348 0.6-0.348l1.95-0.010c0.348-0.572 0.806-1.228 0.806-1.228 0.355-0.504 0.868-0.772 1.485-0.772h3.418c0.616 0 1.129 0.268 1.485 0.772 0 0 0.506 0.728 0.806 1.228h1.943c0.293 0 0.432 0.107 0.6 0.348l0.457 0.652zM5.168 2h5.664l-0.455-0.652c-0.169-0.241-0.374-0.348-0.668-0.348h-3.418c-0.294 0-0.499 0.107-0.667 0.348l-0.456 0.652zM13 3h-10l0.016 11c0 0.552 0.581 1 1.154 1h7.692c0.573 0 1.154-0.448 1.154-1l-0.016-11z"></path>
</svg>
