<!-- Generated by IcoMoon.io -->
<svg version="1.1" xmlns="http://www.w3.org/2000/svg" width="24" height="24" viewBox="0 0 24 24">
<title>delete</title>
<path fill="#444" d="M10.376 9v6.245c0 0.401-0.148 0.684-0.478 0.917l-0.898 0.626v-6.244c0-0.406 0.148-0.688 0.478-0.919l0.898-0.625zM14.101 9.625c-0.33 0.23-0.477 0.513-0.478 0.919v6.244l0.899-0.626c0.33-0.233 0.478-0.516 0.478-0.917v-6.245l-0.899 0.625zM21.625 5l-0.628-0.894c-0.23-0.332-0.423-0.48-0.826-0.48h-2.671c-0.413-0.686-1.108-1.566-1.108-1.566-0.489-0.695-1.194-1.060-2.041-1.060h-4.702c-0.847 0-1.552 0.365-2.041 1.060 0 0-0.629 0.778-1.108 1.566l-2.682 0.016c-0.403 0-0.595 0.148-0.825 0.477l-0.618 0.881h1.375l0.023 15.251c-0.001 1.513 1.414 2.749 2.96 2.749h10.577c1.545 0 2.962-1.236 2.962-2.749l-0.021-15.251h1.374zM8.731 2.851c0.233-0.328 0.514-0.477 0.918-0.477h4.702c0.404 0 0.685 0.148 0.918 0.477l0.625 0.775h-7.787l0.624-0.775zM17.31 21.626h-10.577c-0.788 0-1.587-0.618-1.587-1.375l-0.021-15.251h13.749l0.023 15.251c0 0.757-0.799 1.375-1.587 1.375z"></path>
</svg>
