<!-- Generated by IcoMoon.io -->
<svg version="1.1" xmlns="http://www.w3.org/2000/svg" width="24" height="24" viewBox="0 0 24 24">
<title>delete</title>
<path fill="#444" d="M10.5 9v6.813c0 0.441-0.161 0.747-0.52 1l-0.98 0.683v-6.811c0-0.441 0.161-0.748 0.52-1.002l0.98-0.683zM14.020 9.683c-0.36 0.253-0.52 0.561-0.52 1.002v6.812l0.98-0.683c0.36-0.253 0.52-0.559 0.52-1v-6.813l-0.98 0.682zM22.5 4.5h-1.5l0.024 16.5c0 1.654-1.545 3-3.231 3h-11.539c-1.686 0-3.231-1.346-3.231-3l-0.022-16.5h-1.5l0.675-0.963c0.252-0.36 0.46-0.522 0.9-0.522l2.925-0.015c0.522-0.858 1.209-1.842 1.209-1.842 0.532-0.756 1.302-1.158 2.228-1.158h5.127c0.924 0 1.693 0.402 2.227 1.158 0 0 0.759 1.092 1.209 1.842h2.915c0.439 0 0.648 0.16 0.9 0.522l0.686 0.978zM7.752 3h8.496l-0.683-0.978c-0.253-0.362-0.561-0.522-1.002-0.522h-5.127c-0.441 0-0.748 0.161-1.001 0.522l-0.684 0.978zM19.5 4.5h-15l0.024 16.5c0 0.828 0.872 1.5 1.731 1.5h11.538c0.86 0 1.731-0.672 1.731-1.5l-0.024-16.5z"></path>
</svg>
