<!-- Generated by IcoMoon.io -->
<svg version="1.1" xmlns="http://www.w3.org/2000/svg" width="24" height="24" viewBox="0 0 24 24">
<title>delta</title>
<path fill="#444" d="M23 18.573v0 0l-9.941-14.069c-0.071-0.095-0.149-0.153-0.229-0.215-0.149-0.114-0.314-0.195-0.516-0.222l-0.315-0.017-0.318 0.017c-0.183 0.024-0.335 0.091-0.476 0.186h0.001c-0.093 0.075-0.186 0.142-0.269 0.256l-9.937 14.064 0.642 0.918c0.229 0.329 0.498 0.456 0.902 0.458h18.91c0.404-0.002 0.673-0.129 0.902-0.458l0.644-0.918zM2.126 18.573c0.398-0.002 0.655-0.147 0.886-0.474l8.988-12.711 8.989 12.712c0.23 0.326 0.488 0.472 0.886 0.474h-19.749z"></path>
</svg>
