<!-- Generated by IcoMoon.io -->
<svg version="1.1" xmlns="http://www.w3.org/2000/svg" width="24" height="24" viewBox="0 0 24 24">
<title>delta</title>
<path fill="#444" d="M24 19.172v0 0l-10.845-15.348c-0.077-0.105-0.162-0.167-0.249-0.234-0.163-0.126-0.343-0.215-0.563-0.244l-0.345-0.017-0.345 0.017c-0.2 0.027-0.367 0.101-0.52 0.206h0.002c-0.102 0.079-0.204 0.153-0.293 0.279l-10.842 15.342 0.699 0.999c0.252 0.36 0.544 0.498 0.984 0.501h20.631c0.439-0.003 0.732-0.141 0.984-0.501l0.702-0.999zM1.228 19.172c0.435-0.003 0.715-0.16 0.967-0.519l9.804-13.866 9.805 13.866c0.252 0.357 0.534 0.516 0.967 0.519h-21.544z"></path>
</svg>
