<!-- Generated by IcoMoon.io -->
<svg version="1.1" xmlns="http://www.w3.org/2000/svg" width="16" height="16" viewBox="0 0 16 16">
<title>delta</title>
<path fill="#444" d="M16 12.781v0 0l-7.23-10.232c-0.051-0.070-0.108-0.111-0.166-0.156-0.109-0.084-0.229-0.143-0.375-0.163l-0.23-0.011-0.23 0.011c-0.133 0.018-0.245 0.067-0.347 0.137h0.001c-0.068 0.053-0.136 0.102-0.195 0.186l-7.228 10.228 0.466 0.666c0.168 0.24 0.363 0.332 0.656 0.334h13.754c0.293-0.002 0.488-0.094 0.656-0.334l0.468-0.666zM0.819 12.781c0.29-0.002 0.477-0.107 0.645-0.346l6.536-9.244 6.537 9.244c0.168 0.238 0.356 0.344 0.645 0.346h-14.363z"></path>
</svg>
