<!-- Generated by IcoMoon.io -->
<svg version="1.1" xmlns="http://www.w3.org/2000/svg" width="24" height="24" viewBox="0 0 24 24">
<title>dna</title>
<path fill="#444" d="M14.199 11.283c0 0.005 0 0.007 0 0.012-0.181 0.008-0.361 0.075-0.501 0.214-0.293 0.293-0.293 0.768 0 1.061 0.139 0.14 0.319 0.209 0.503 0.215 0 0.002 0 0.003 0 0.005 0.009 0 0.016 0 0.025 0.002 0.002 0 0.003 0 0.005 0 0.396 0.009 0.788 0.027 1.175 0.049l-2.585 2.585c-0.071-1.11-0.078-2.255-0.075-3.42 0.011-4.364 0.015-8.853-3.659-11.88l-0.229 1.173c-0.070 0.348-0.003 0.635 0.181 0.896 0.348 0.405 0.625 0.841 0.871 1.29l-6.438 6.437c-0.465-0.258-0.917-0.547-1.333-0.913-0.243-0.153-0.507-0.215-0.83-0.152l-1.194 0.236c2.85 3.48 7.005 3.679 11.13 3.683 0.003 4.125 0.202 8.278 3.683 11.128l0.234-1.193c0.063-0.325 0.001-0.59-0.152-0.832-0.372-0.423-0.665-0.882-0.926-1.354l6.429-6.429c0.457 0.249 0.898 0.531 1.309 0.885 0.259 0.186 0.547 0.253 0.895 0.183l1.174-0.23c-2.523-3.063-6.061-3.569-9.695-3.648zM10.546 4.968c0.178 0.547 0.329 1.109 0.426 1.695l-4.328 4.328c-0.587-0.098-1.146-0.249-1.692-0.429l5.594-5.594zM8.562 11.194l2.611-2.61c0.054 0.873 0.070 1.771 0.072 2.683-0.912 0-1.809-0.018-2.683-0.074zM13.446 19.038c-0.178-0.546-0.327-1.109-0.425-1.695l4.302-4.302c0.59 0.096 1.158 0.234 1.708 0.413l-5.586 5.584z"></path>
</svg>
