<!-- Generated by IcoMoon.io -->
<svg version="1.1" xmlns="http://www.w3.org/2000/svg" width="16" height="16" viewBox="0 0 16 16">
<title>dna</title>
<path fill="#444" d="M9.466 7.522c0 0.003 0 0.005 0 0.008-0.121 0.005-0.241 0.050-0.334 0.143-0.195 0.195-0.195 0.512 0 0.707 0.093 0.093 0.213 0.139 0.335 0.143 0 0.001 0 0.002 0 0.003 0.006 0 0.011 0 0.017 0.001 0.001 0 0.002 0 0.003 0 0.264 0.006 0.525 0.018 0.783 0.033l-1.723 1.723c-0.047-0.74-0.052-1.503-0.050-2.28 0.007-2.909 0.010-5.902-2.439-7.92l-0.153 0.782c-0.047 0.232-0.002 0.423 0.121 0.597 0.232 0.27 0.417 0.561 0.581 0.86l-4.292 4.291c-0.31-0.172-0.611-0.365-0.889-0.609-0.162-0.102-0.338-0.143-0.553-0.101l-0.796 0.157c1.9 2.32 4.67 2.453 7.42 2.455 0.002 2.75 0.135 5.519 2.455 7.419l0.156-0.795c0.042-0.217 0.001-0.393-0.101-0.555-0.248-0.282-0.443-0.588-0.617-0.903l4.286-4.286c0.305 0.166 0.599 0.354 0.873 0.59 0.173 0.124 0.365 0.169 0.597 0.122l0.783-0.153c-1.682-2.042-4.041-2.379-6.463-2.432zM7.031 3.312c0.119 0.365 0.219 0.739 0.284 1.13l-2.885 2.885c-0.391-0.065-0.764-0.166-1.128-0.286l3.729-3.729zM5.708 7.463l1.741-1.74c0.036 0.582 0.047 1.181 0.048 1.789-0.608 0-1.206-0.012-1.789-0.049zM8.964 12.692c-0.119-0.364-0.218-0.739-0.283-1.13l2.868-2.868c0.393 0.064 0.772 0.156 1.139 0.275l-3.724 3.723z"></path>
</svg>
