<!-- Generated by IcoMoon.io -->
<svg version="1.1" xmlns="http://www.w3.org/2000/svg" width="24" height="24" viewBox="0 0 24 24">
<title>dna</title>
<path d="M14.033 11.334c0 0.004 0 0.007 0 0.011-0.168 0.007-0.334 0.069-0.463 0.198-0.271 0.271-0.271 0.71 0 0.981 0.129 0.128 0.296 0.192 0.465 0.197 0 0.002 0 0.003 0 0.004 0.008 0 0.016 0 0.023 0.002 0.001 0 0.003 0 0.004 0 0.367 0.008 0.729 0.024 1.086 0.046l-2.392 2.391c-0.064-1.025-0.071-2.084-0.068-3.163 0.009-4.038 0.014-8.192-3.386-10.992l-0.21 1.086c-0.066 0.321-0.004 0.587 0.167 0.828 0.322 0.374 0.578 0.777 0.806 1.193l-5.956 5.956c-0.43-0.238-0.848-0.507-1.234-0.845-0.225-0.142-0.469-0.199-0.768-0.14l-1.105 0.217c2.637 3.221 6.482 3.404 10.298 3.407 0.003 3.817 0.187 7.659 3.408 10.297l0.216-1.104c0.058-0.301 0.001-0.545-0.141-0.77-0.344-0.392-0.615-0.815-0.856-1.254l5.949-5.948c0.423 0.23 0.831 0.491 1.211 0.818 0.24 0.172 0.506 0.234 0.828 0.169l1.086-0.212c-2.332-2.832-5.605-3.3-8.968-3.373zM10.654 5.489c0.166 0.507 0.303 1.026 0.394 1.57l-4.005 4.003c-0.542-0.091-1.060-0.23-1.565-0.396l5.176-5.177zM8.818 11.251l2.416-2.415c0.050 0.808 0.066 1.639 0.067 2.483-0.844 0-1.675-0.016-2.483-0.068zM13.337 18.51c-0.166-0.506-0.302-1.026-0.393-1.568l3.98-3.98c0.545 0.089 1.071 0.217 1.58 0.382l-5.167 5.166z"></path>
</svg>
