<!-- Generated by IcoMoon.io -->
<svg version="1.1" xmlns="http://www.w3.org/2000/svg" width="24" height="24" viewBox="0 0 24 24">
<title>download</title>
<path fill="#444" d="M21.081 18.47c-0.235 0-0.468-0.114-0.615-0.319-0.239-0.337-0.158-0.806 0.181-1.044 1.968-1.386 2.444-4.119 1.059-6.090-0.816-1.163-2.149-1.856-3.567-1.856-0.001 0-0.001 0-0.003 0h-1.287c-0.343 0-0.642-0.231-0.726-0.564-0.494-1.929-1.709-3.548-3.419-4.56-1.706-1.008-3.702-1.293-5.622-0.799-3.968 1.020-6.366 5.087-5.348 9.061 0.29 1.134 0.853 2.2 1.632 3.084 0.274 0.309 0.244 0.783-0.066 1.059-0.309 0.274-0.785 0.243-1.059-0.066-0.936-1.061-1.614-2.345-1.96-3.707-1.222-4.776 1.659-9.659 6.428-10.886 2.308-0.593 4.707-0.252 6.759 0.963 1.887 1.116 3.272 2.845 3.944 4.912h0.723c0.002 0 0.003 0 0.003 0 1.907 0 3.699 0.933 4.795 2.496 1.859 2.648 1.221 6.315-1.422 8.178-0.131 0.093-0.28 0.136-0.431 0.136zM16.971 16.5h-1.221c-0.439 0-0.627 0.082-0.88 0.441l-2.12 3.027v-5.718c0-0.414-0.336-0.75-0.75-0.75s-0.75 0.336-0.75 0.75v5.72l-2.121-3.030c-0.254-0.357-0.441-0.439-0.879-0.439h-1.22l3.126 4.521 0.688 0.984c0.077 0.105 0.162 0.168 0.249 0.234 0.163 0.128 0.344 0.216 0.563 0.243l0.345 0.018 0.345-0.018c0.199-0.025 0.367-0.097 0.52-0.204l-0.001-0.002c0.101-0.079 0.204-0.152 0.293-0.277l3.813-5.499z"></path>
</svg>
