<!-- Generated by IcoMoon.io -->
<svg version="1.1" xmlns="http://www.w3.org/2000/svg" width="16" height="16" viewBox="0 0 16 16">
<title>download</title>
<path fill="#444" d="M14.054 12.313c-0.157 0-0.312-0.076-0.41-0.213-0.159-0.225-0.105-0.537 0.121-0.696 1.312-0.924 1.629-2.746 0.706-4.060-0.544-0.775-1.433-1.237-2.378-1.237-0.001 0-0.001 0-0.002 0h-0.858c-0.229 0-0.428-0.154-0.484-0.376-0.329-1.286-1.139-2.365-2.279-3.040-1.137-0.672-2.468-0.862-3.748-0.533-2.645 0.68-4.244 3.391-3.565 6.041 0.193 0.756 0.569 1.467 1.088 2.056 0.183 0.206 0.163 0.522-0.044 0.706s-0.523 0.162-0.706-0.044c-0.624-0.707-1.076-1.563-1.307-2.471-0.815-3.184 1.106-6.439 4.285-7.257 1.539-0.395 3.138-0.168 4.506 0.642 1.258 0.744 2.181 1.897 2.629 3.275h0.482c0.001 0 0.002 0 0.002 0 1.271 0 2.466 0.622 3.197 1.664 1.239 1.765 0.814 4.21-0.948 5.452-0.087 0.062-0.187 0.091-0.287 0.091zM11.314 11h-0.814c-0.293 0-0.418 0.055-0.587 0.294l-1.413 2.018v-3.812c0-0.276-0.224-0.5-0.5-0.5s-0.5 0.224-0.5 0.5v3.813l-1.414-2.020c-0.169-0.238-0.294-0.293-0.586-0.293h-0.813l2.084 3.014 0.459 0.656c0.051 0.070 0.108 0.112 0.166 0.156 0.109 0.085 0.229 0.144 0.375 0.162l0.23 0.012 0.23-0.012c0.133-0.017 0.245-0.065 0.347-0.136l-0.001-0.001c0.067-0.053 0.136-0.101 0.195-0.185l2.542-3.666z"></path>
</svg>
