<!-- Generated by IcoMoon.io -->
<svg version="1.1" xmlns="http://www.w3.org/2000/svg" width="16" height="16" viewBox="0 0 16 16">
<title>earth</title>
<path fill="#444" d="M8 0c-4.411 0-8 3.59-8 8.001s3.589 7.999 8 7.999 8-3.588 8-7.999-3.588-8.001-8-8.001zM14.975 7.493h-3.207c-0.144-2.299-0.952-4.499-2.336-6.328 3.015 0.626 5.316 3.189 5.543 6.328zM5.233 7.493c0.166-2.405 1.131-4.691 2.767-6.478 1.636 1.787 2.601 4.073 2.766 6.479h-5.533zM10.767 8.508c-0.165 2.405-1.13 4.691-2.766 6.478-1.636-1.786-2.601-4.072-2.767-6.478h5.533zM6.57 1.165c-1.378 1.819-2.185 4.011-2.335 6.328h-3.209c0.226-3.139 2.528-5.702 5.544-6.328zM1.026 8.508h3.206c0.145 2.3 0.953 4.5 2.337 6.327-3.015-0.626-5.317-3.188-5.543-6.327zM9.432 14.835c1.378-1.819 2.184-4.011 2.334-6.327h3.209c-0.227 3.139-2.527 5.701-5.543 6.327z"></path>
</svg>
