<!-- Generated by IcoMoon.io -->
<svg version="1.1" xmlns="http://www.w3.org/2000/svg" width="24" height="24" viewBox="0 0 24 24">
<title>earth</title>
<path fill="#444" d="M12 0c-6.616 0-12 5.385-12 12.002s5.383 11.998 12 11.998 12-5.382 12-11.998-5.382-12.002-12-12.002zM22.462 11.239h-4.81c-0.216-3.448-1.428-6.748-3.504-9.492 4.523 0.939 7.974 4.784 8.315 9.492zM7.849 11.239c0.249-3.607 1.697-7.036 4.151-9.717 2.454 2.681 3.901 6.11 4.149 9.719h-8.3zM16.151 12.762c-0.248 3.607-1.695 7.036-4.149 9.717-2.454-2.679-3.902-6.108-4.151-9.717h8.3zM9.855 1.748c-2.067 2.728-3.278 6.017-3.502 9.492h-4.814c0.339-4.708 3.792-8.553 8.316-9.492zM1.539 12.762h4.809c0.217 3.45 1.429 6.75 3.505 9.49-4.522-0.939-7.975-4.782-8.314-9.49zM14.148 22.253c2.067-2.729 3.276-6.016 3.501-9.491h4.813c-0.34 4.709-3.79 8.551-8.315 9.491z"></path>
</svg>
