<!-- Generated by IcoMoon.io -->
<svg version="1.1" xmlns="http://www.w3.org/2000/svg" width="24" height="24" viewBox="0 0 24 24">
<title>edit</title>
<path fill="#444" d="M22.597 6.753l-5.349-5.35c-0.269-0.268-0.62-0.403-0.972-0.403s-0.704 0.135-0.973 0.403l-12.731 12.734c-0.238 0.206-0.399 0.492-0.453 0.81l-1.099 6.443c-0.063 0.371 0.028 0.751 0.253 1.055l0.002 0.002c0.262 0.352 0.672 0.553 1.103 0.553 0.076 0 0.154-0.007 0.231-0.021l6.321-1.078c0.324-0.025 0.632-0.164 0.867-0.398l12.8-12.805c0.537-0.537 0.537-1.407 0-1.945zM8.824 20.53l-0.003-0.005-6.445 1.096 1.098-6.444 0.003 0.002 12.799-12.804 5.349 5.351-12.801 12.804z"></path>
</svg>
