<!-- Generated by IcoMoon.io -->
<svg version="1.1" xmlns="http://www.w3.org/2000/svg" width="16" height="16" viewBox="0 0 16 16">
<title>edit</title>
<path fill="#444" d="M15.712 4.184l-3.89-3.891c-0.196-0.195-0.451-0.293-0.707-0.293s-0.512 0.098-0.708 0.293l-9.259 9.261c-0.173 0.15-0.291 0.358-0.33 0.589l-0.799 4.687c-0.046 0.27 0.021 0.546 0.184 0.767l0.001 0.002c0.191 0.255 0.49 0.401 0.803 0.401 0.056 0 0.112-0.005 0.168-0.015l4.597-0.784c0.235-0.019 0.459-0.119 0.63-0.29l9.31-9.312c0.391-0.391 0.391-1.024 0-1.415zM5.695 14.204l-0.002-0.004-4.688 0.797 0.799-4.687 0.002 0.001 9.309-9.311 3.89 3.892-9.31 9.312z"></path>
</svg>
