<!-- Generated by IcoMoon.io -->
<svg version="1.1" xmlns="http://www.w3.org/2000/svg" width="24" height="24" viewBox="0 0 24 24">
<title>edit</title>
<path fill="#444" d="M23.568 6.276l-5.835-5.836c-0.294-0.292-0.676-0.44-1.060-0.44s-0.768 0.147-1.062 0.44l-13.889 13.891c-0.26 0.225-0.436 0.537-0.495 0.883l-1.199 7.030c-0.069 0.405 0.032 0.819 0.276 1.151l0.002 0.003c0.286 0.383 0.735 0.601 1.205 0.601 0.084 0 0.168-0.008 0.252-0.023l6.896-1.176c0.353-0.029 0.688-0.178 0.945-0.435l13.965-13.968c0.587-0.587 0.587-1.536 0-2.123zM8.543 21.306l-0.003-0.006-7.032 1.196 1.199-7.030 0.003 0.002 13.963-13.966 5.835 5.838-13.965 13.968z"></path>
</svg>
