<!-- Generated by IcoMoon.io -->
<svg version="1.1" xmlns="http://www.w3.org/2000/svg" width="24" height="24" viewBox="0 0 24 24">
<title>error</title>
<path fill="#444" d="M22.5 0h-21c-0.828 0-1.5 0.67-1.5 1.5v21c0 0.83 0.672 1.5 1.5 1.5h21c0.828 0 1.5-0.67 1.5-1.5v-21c0-0.83-0.672-1.5-1.5-1.5zM19.752 20.064c-0.432 0.076-0.764-0.029-1.074-0.339l-6.64-6.638-6.692 6.69c-0.31 0.311-0.642 0.414-1.074 0.339l-1.178-0.208 7.883-7.883-7.884-7.881 1.178-0.209c0.434-0.077 0.765 0.029 1.075 0.339l6.69 6.69 6.64-6.639c0.311-0.31 0.642-0.414 1.074-0.339l1.178 0.208-7.832 7.83 7.832 7.832-1.176 0.207z"></path>
</svg>
