<!-- Generated by IcoMoon.io -->
<svg version="1.1" xmlns="http://www.w3.org/2000/svg" width="16" height="16" viewBox="0 0 16 16">
<title>error</title>
<path fill="#444" d="M15 0h-14c-0.552 0-1 0.447-1 1v14c0 0.553 0.448 1 1 1h14c0.552 0 1-0.447 1-1v-14c0-0.553-0.448-1-1-1zM15 15h-14v-14h14v14zM13.954 13.237l-0.785 0.139c-0.288 0.051-0.509-0.019-0.716-0.226l-4.428-4.425-4.461 4.46c-0.207 0.207-0.428 0.276-0.716 0.226l-0.785-0.139 5.255-5.255-5.256-5.254 0.785-0.139c0.289-0.051 0.51 0.019 0.717 0.226l4.46 4.46 4.427-4.426c0.207-0.207 0.428-0.276 0.716-0.226l0.785 0.139-5.221 5.22 5.223 5.22z"></path>
</svg>
