<!-- Generated by IcoMoon.io -->
<svg version="1.1" xmlns="http://www.w3.org/2000/svg" width="24" height="24" viewBox="0 0 24 24">
<title>error</title>
<path fill="#444" d="M21.625 1h-19.25c-0.76 0-1.375 0.617-1.375 1.375v19.25c0 0.758 0.615 1.375 1.375 1.375h19.25c0.76 0 1.375-0.617 1.375-1.375v-19.25c0-0.758-0.615-1.375-1.375-1.375zM19.108 19.392c-0.396 0.068-0.703-0.024-0.986-0.308l-6.088-6.090-6.135 6.136c-0.283 0.283-0.589 0.382-0.986 0.308l-1.078-0.191 7.227-7.224-7.226-7.223 1.078-0.191c0.397-0.069 0.703 0.024 0.986 0.307l6.133 6.136 6.088-6.084c0.283-0.289 0.589-0.382 0.986-0.313l1.078 0.191-7.178 7.177 7.178 7.178-1.077 0.191z"></path>
</svg>
