<!-- Generated by IcoMoon.io -->
<svg version="1.1" xmlns="http://www.w3.org/2000/svg" width="24" height="24" viewBox="0 0 24 24">
<title>eye</title>
<path fill="#444" d="M23.85 11.345c-0.172-0.356-4.317-8.72-11.85-8.72s-11.678 8.364-11.85 8.72c-0.2 0.412-0.2 0.897 0 1.309 0.172 0.357 4.317 8.721 11.85 8.721s11.678-8.364 11.85-8.719c0.2-0.414 0.2-0.897 0-1.311zM12 19.875c-6.681 0-10.5-7.875-10.5-7.875s3.819-7.875 10.5-7.875 10.5 7.875 10.5 7.875-3.819 7.875-10.5 7.875zM12 7.5c-2.481 0-4.5 2.019-4.5 4.5s2.019 4.5 4.5 4.5 4.5-2.019 4.5-4.5-2.019-4.5-4.5-4.5zM12 15c-1.658 0-3-1.35-3-3s1.342-3 3-3c1.656 0 3 1.35 3 3s-1.344 3-3 3z"></path>
</svg>
