<!-- Generated by IcoMoon.io -->
<svg version="1.1" xmlns="http://www.w3.org/2000/svg" width="16" height="16" viewBox="0 0 16 16">
<title>eye</title>
<path fill="#444" d="M15.9 7.563c-0.115-0.237-2.878-5.813-7.9-5.813s-7.785 5.576-7.9 5.813c-0.133 0.275-0.133 0.598 0 0.873 0.115 0.238 2.878 5.814 7.9 5.814s7.785-5.576 7.9-5.813c0.133-0.276 0.133-0.598 0-0.874zM8 13.25c-4.454 0-7-5.25-7-5.25s2.546-5.25 7-5.25 7 5.25 7 5.25-2.546 5.25-7 5.25zM8 5c-1.654 0-3 1.346-3 3s1.346 3 3 3 3-1.346 3-3-1.346-3-3-3zM8 10c-1.105 0-2-0.9-2-2s0.895-2 2-2c1.104 0 2 0.9 2 2s-0.896 2-2 2z"></path>
</svg>
