<!-- Generated by IcoMoon.io -->
<svg version="1.1" xmlns="http://www.w3.org/2000/svg" width="24" height="24" viewBox="0 0 24 24">
<title>eye</title>
<path fill="#444" d="M22.862 11.399c-0.158-0.325-3.956-7.993-10.862-7.993s-10.704 7.668-10.862 7.993c-0.184 0.381-0.184 0.82 0 1.201 0.158 0.326 3.956 7.994 10.862 7.994s10.704-7.668 10.862-7.993c0.184-0.381 0.184-0.821 0-1.202zM12 19.219c-6.124 0-9.625-7.219-9.625-7.219s3.501-7.219 9.625-7.219 9.625 7.219 9.625 7.219-3.501 7.219-9.625 7.219zM12 7.875c-2.275 0-4.125 1.85-4.125 4.125s1.85 4.125 4.125 4.125 4.125-1.85 4.125-4.125-1.85-4.125-4.125-4.125zM12 14.75c-1.518 0-2.75-1.24-2.75-2.75s1.232-2.75 2.75-2.75c1.518 0 2.75 1.24 2.75 2.75s-1.232 2.75-2.75 2.75z"></path>
</svg>
