<!-- Generated by IcoMoon.io -->
<svg version="1.1" xmlns="http://www.w3.org/2000/svg" width="16" height="16" viewBox="0 0 16 16">
<title>eye_off</title>
<path fill="#444" d="M15.222 14.551l-0.335-0.371-14.127-14.127-0.142 0.801c-0.043 0.241 0.022 0.42 0.159 0.595l0.336 0.371 1.94 1.94c-1.87 1.624-2.884 3.662-2.953 3.803-0.133 0.275-0.133 0.598 0 0.873 0.115 0.238 2.878 5.814 7.9 5.814 1.629 0 3.011-0.592 4.149-1.394l3.091 3.091 0.142-0.802c0.042-0.241-0.024-0.419-0.16-0.594zM6.28 6.988l2.732 2.732c-0.296 0.177-0.641 0.28-1.012 0.28-1.105 0-2-0.9-2-2 0-0.37 0.103-0.716 0.28-1.012zM8 13.25c-4.454 0-7-5.25-7-5.25s0.975-1.997 2.766-3.526l1.806 1.806c-0.349 0.489-0.572 1.074-0.572 1.72 0 1.654 1.346 3 3 3 0.646 0 1.231-0.223 1.72-0.572l1.712 1.712c-0.966 0.647-2.114 1.11-3.432 1.11zM15.9 7.563c-0.115-0.237-2.878-5.813-7.9-5.813-0.909 0-1.736 0.194-2.494 0.496-0.030 0.012-0.061 0.022-0.090 0.035-0.159 0.084-0.27 0.245-0.27 0.437 0 0.21 0.13 0.389 0.314 0.463 0.058 0.022 0.12 0.037 0.186 0.037 0.089 0 0.169-0.029 0.241-0.070 0.082-0.016 0.137-0.029 0.137-0.029 0.611-0.225 1.266-0.369 1.976-0.369 4.454 0 7 5.25 7 5.25s-0.582 1.187-1.663 2.431c0 0-0.306 0.397-0.024 0.711 0.378 0.421 0.735 0 0.735 0 1.164-1.324 1.799-2.595 1.853-2.705 0.132-0.276 0.132-0.598-0.001-0.874z"></path>
</svg>
