<!-- Generated by IcoMoon.io -->
<svg version="1.1" xmlns="http://www.w3.org/2000/svg" width="24" height="24" viewBox="0 0 24 24">
<title>eye_off</title>
<path fill="#444" d="M21.931 21.008l-0.461-0.511-19.426-19.425-0.194 1.103c-0.059 0.332 0.031 0.577 0.219 0.817l0.462 0.511 2.667 2.668c-2.572 2.231-3.966 5.034-4.061 5.229-0.184 0.379-0.184 0.822 0 1.201 0.159 0.326 3.957 7.993 10.863 7.993 2.24 0 4.14-0.813 5.706-1.916l4.25 4.25 0.195-1.103c0.057-0.332-0.033-0.577-0.22-0.817zM9.635 10.608l3.756 3.756c-0.406 0.245-0.881 0.386-1.391 0.386-1.52 0-2.75-1.238-2.75-2.75 0-0.509 0.141-0.984 0.385-1.392zM12 19.219c-6.124 0-9.625-7.219-9.625-7.219s1.34-2.746 3.803-4.849l2.483 2.482c-0.48 0.674-0.786 1.478-0.786 2.367 0 2.274 1.85 4.125 4.125 4.125 0.888 0 1.692-0.306 2.365-0.787l2.354 2.354c-1.328 0.89-2.906 1.527-4.719 1.527zM22.862 11.399c-0.158-0.326-3.956-7.993-10.862-7.993-1.25 0-2.387 0.267-3.429 0.682-0.041 0.016-0.084 0.031-0.124 0.049-0.218 0.115-0.371 0.337-0.371 0.6 0 0.288 0.179 0.534 0.432 0.636 0.079 0.031 0.165 0.052 0.256 0.052 0.123 0 0.232-0.041 0.332-0.097 0.113-0.021 0.189-0.041 0.189-0.041 0.839-0.309 1.74-0.506 2.716-0.506 6.124 0 9.625 7.219 9.625 7.219s-0.799 1.632-2.287 3.342c0 0-0.42 0.547-0.034 0.978 0.52 0.579 1.011 0 1.011 0 1.6-1.82 2.473-3.567 2.547-3.719 0.183-0.379 0.183-0.823-0.001-1.202z"></path>
</svg>
