<!-- Generated by IcoMoon.io -->
<svg version="1.1" xmlns="http://www.w3.org/2000/svg" width="24" height="24" viewBox="0 0 24 24">
<title>eye_off</title>
<path fill="#444" d="M22.833 21.826l-0.503-0.556-21.191-21.191-0.213 1.202c-0.065 0.362 0.033 0.63 0.239 0.892l0.504 0.557 2.91 2.91c-2.805 2.436-4.326 5.493-4.429 5.704-0.2 0.412-0.2 0.897 0 1.309 0.172 0.357 4.317 8.721 11.85 8.721 2.444 0 4.517-0.888 6.223-2.091l4.637 4.636 0.213-1.203c0.063-0.361-0.036-0.629-0.24-0.891zM9.42 10.482l4.098 4.098c-0.444 0.265-0.962 0.42-1.518 0.42-1.658 0-3-1.35-3-3 0-0.555 0.154-1.074 0.42-1.518zM12 19.875c-6.681 0-10.5-7.875-10.5-7.875s1.463-2.995 4.149-5.289l2.709 2.709c-0.524 0.734-0.858 1.611-0.858 2.58 0 2.481 2.019 4.5 4.5 4.5 0.969 0 1.846-0.335 2.58-0.858l2.568 2.568c-1.449 0.971-3.171 1.665-5.148 1.665zM23.85 11.345c-0.172-0.356-4.317-8.72-11.85-8.72-1.364 0-2.604 0.291-3.741 0.744-0.045 0.018-0.091 0.033-0.135 0.053-0.239 0.126-0.405 0.368-0.405 0.655 0 0.315 0.195 0.584 0.471 0.694 0.087 0.033 0.18 0.056 0.279 0.056 0.134 0 0.253-0.043 0.361-0.105 0.123-0.024 0.206-0.043 0.206-0.043 0.916-0.338 1.899-0.554 2.964-0.554 6.681 0 10.5 7.875 10.5 7.875s-0.873 1.78-2.495 3.647c0 0-0.459 0.595-0.036 1.066 0.567 0.631 1.102 0 1.102 0 1.746-1.986 2.698-3.893 2.78-4.057 0.198-0.414 0.198-0.897-0.002-1.311z"></path>
</svg>
