<!-- Generated by IcoMoon.io -->
<svg version="1.1" xmlns="http://www.w3.org/2000/svg" width="24" height="24" viewBox="0 0 24 24">
<title>factory</title>
<path fill="#444" d="M1.5 24c-0.828 0-1.5-0.67-1.5-1.5v-12c0-0.501 0.251-0.969 0.667-1.248l4.5-3c0.252-0.167 0.542-0.252 0.833-0.252 0.243 0 0.486 0.058 0.708 0.177 0.487 0.261 0.792 0.769 0.792 1.323v0.198l2.168-1.446c0.252-0.166 0.541-0.252 0.832-0.252 0.243 0 0.486 0.059 0.708 0.177 0.488 0.261 0.792 0.769 0.792 1.323v0.198l2.168-1.446c0.252-0.166 0.542-0.252 0.832-0.252 0.243 0 0.486 0.059 0.708 0.177 0.488 0.261 0.792 0.769 0.792 1.323v1.5h1.5v-4.5c-0.474 0-0.921-0.223-1.203-0.604-0.282-0.38-0.37-0.871-0.234-1.326 0.356-1.185 1.338-2.57 2.937-2.57h3c0.828 0 1.5 0.67 1.5 1.5v21c0 0.83-0.672 1.5-1.5 1.5h-21zM22.5 3v-1.5c0 0-1.5 0-3 0-1.050 0-1.5 1.5-1.5 1.5h1.5v7.5h-4.5v-3l-4.5 3v-3l-4.5 3v-3l-4.5 3v12h21v-19.5z"></path>
</svg>
