<!-- Generated by IcoMoon.io -->
<svg version="1.1" xmlns="http://www.w3.org/2000/svg" width="16" height="16" viewBox="0 0 16 16">
<title>factory</title>
<path fill="#444" d="M1 16c-0.552 0-1-0.447-1-1v-8c0-0.334 0.167-0.646 0.445-0.832l3-2c0.168-0.111 0.361-0.168 0.555-0.168 0.162 0 0.324 0.039 0.472 0.118 0.325 0.174 0.528 0.513 0.528 0.882v0.132l1.445-0.964c0.168-0.111 0.361-0.168 0.555-0.168 0.162 0 0.324 0.039 0.472 0.118 0.325 0.174 0.528 0.513 0.528 0.882v0.132l1.445-0.964c0.168-0.111 0.361-0.168 0.555-0.168 0.162 0 0.324 0.039 0.472 0.118 0.325 0.174 0.528 0.513 0.528 0.882v1h1v-3c-0.316 0-0.614-0.149-0.802-0.403s-0.247-0.581-0.156-0.884c0.237-0.79 0.892-1.713 1.958-1.713h2c0.552 0 1 0.447 1 1v14c0 0.553-0.448 1-1 1h-14zM15 2v-1c0 0-1 0-2 0-0.7 0-1 1-1 1h1v5h-3v-2l-3 2v-2l-3 2v-2l-3 2v8h14v-13z"></path>
</svg>
