<!-- Generated by IcoMoon.io -->
<svg version="1.1" xmlns="http://www.w3.org/2000/svg" width="24" height="24" viewBox="0 0 24 24">
<title>factory</title>
<path fill="#444" d="M22.842 2.249c-0.241-0.458-0.719-0.749-1.24-0.749h-5.276c-0.524 0-1.002 0.291-1.241 0.749-0.241 0.464-0.206 1.025 0.095 1.453l1.073 1.532v3.373h-2.675v-2.098c0-0.567-0.343-1.078-0.864-1.292-0.173-0.076-0.354-0.107-0.534-0.107-0.363 0-0.721 0.138-0.988 0.408l-0.696 0.696c-0.096-0.443-0.404-0.822-0.831-0.997-0.176-0.076-0.357-0.108-0.537-0.108-0.363 0-0.721 0.138-0.988 0.408l-0.694 0.697c-0.095-0.443-0.402-0.822-0.833-0.997-0.173-0.076-0.354-0.108-0.534-0.108-0.366 0-0.721 0.138-0.988 0.408l-3.68 3.685c-0.264 0.26-0.411 0.616-0.411 0.985l-0.002 10.915c0 0.77 0.626 1.398 1.399 1.398h17.916c0.77 0 1.396-0.629 1.396-1.398l0.001-15.918 1.037-1.481c0.299-0.429 0.336-0.99 0.095-1.454zM20.314 4.741l-0.002 16.36h-17.915l0.002-10.915 3.68-3.678v3.047l3.049-3.047v3.047l3.051-3.047v3.492h5.472v-5.209l-1.326-1.893h5.276l-1.287 1.843z"></path>
</svg>
