<!-- Generated by IcoMoon.io -->
<svg version="1.1" xmlns="http://www.w3.org/2000/svg" width="16" height="16" viewBox="0 0 16 16">
<title>file_cabinet</title>
<path fill="#444" d="M13 0h-10c-0.552 0-1 0.447-1 1v14c0 0.553 0.448 1 1 1h10c0.552 0 1-0.447 1-1v-14c0-0.553-0.448-1-1-1zM13 15h-10v-8h10v8zM13 6h-10v-5h10v5zM5.5 3h3.877c0.293 0.002 0.488 0.094 0.656 0.334l0.467 0.666h-3.877c-0.293-0.001-0.488-0.093-0.656-0.333l-0.467-0.667zM5.5 8h3.877c0.293 0.002 0.488 0.094 0.656 0.334l0.467 0.666h-3.877c-0.293-0.001-0.488-0.093-0.656-0.333l-0.467-0.667z"></path>
</svg>
