<!-- Generated by IcoMoon.io -->
<svg version="1.1" xmlns="http://www.w3.org/2000/svg" width="24" height="24" viewBox="0 0 24 24">
<title>file_cabinet</title>
<path fill="#444" d="M19.5 0h-15c-0.828 0-1.5 0.67-1.5 1.5v21c0 0.83 0.672 1.5 1.5 1.5h15c0.828 0 1.5-0.67 1.5-1.5v-21c0-0.83-0.672-1.5-1.5-1.5zM19.5 22.5h-15v-12h15v12zM19.5 9h-15v-7.5h15v7.5zM8.25 4.5h5.815c0.439 0.003 0.732 0.141 0.984 0.501l0.701 0.999h-5.816c-0.439-0.002-0.732-0.139-0.984-0.5l-0.7-1zM8.25 12h5.815c0.439 0.003 0.732 0.141 0.984 0.501l0.701 0.999h-5.816c-0.439-0.002-0.732-0.139-0.984-0.5l-0.7-1z"></path>
</svg>
