<!-- Generated by IcoMoon.io -->
<svg version="1.1" xmlns="http://www.w3.org/2000/svg" width="24" height="24" viewBox="0 0 24 24">
<title>filter</title>
<path fill="#444" d="M22.895 2.879c-0.213-0.516-0.714-0.852-1.27-0.852h-19.25c-0.556 0-1.057 0.336-1.27 0.852s-0.095 1.107 0.298 1.502l7.848 8.59v4.797c0 0.047 0.002 0.092 0.007 0.139 0.108 1.076 0.622 1.941 1.525 2.574l1.804 1.27c0.236 0.166 0.512 0.25 0.79 0.25 0.217 0 0.435-0.051 0.635-0.156 0.455-0.238 0.74-0.707 0.74-1.223v-7.65l7.847-8.59c0.391-0.396 0.509-0.987 0.296-1.503zM13.375 12.4v8.221l-1.804-1.268c-0.589-0.412-0.879-0.916-0.946-1.586v-5.367l-8.25-8.994h19.25l-8.25 8.994z"></path>
</svg>
