<!-- Generated by IcoMoon.io -->
<svg version="1.1" xmlns="http://www.w3.org/2000/svg" width="16" height="16" viewBox="0 0 16 16">
<title>filter</title>
<path fill="#444" d="M15.924 1.618c-0.155-0.374-0.52-0.618-0.924-0.618h-14c-0.404 0-0.769 0.244-0.924 0.618-0.155 0.375-0.069 0.806 0.217 1.093l5.707 5.723v3.489c0 0.033 0.001 0.066 0.005 0.1 0.079 0.783 0.452 1.413 1.109 1.873l1.312 0.923c0.172 0.12 0.373 0.181 0.574 0.181 0.158 0 0.316-0.037 0.461-0.113 0.332-0.173 0.539-0.515 0.539-0.889v-5.564l5.707-5.723c0.286-0.287 0.372-0.718 0.217-1.093zM9 8.019v5.979l-1.312-0.922c-0.428-0.301-0.639-0.667-0.688-1.153v-3.904l-6-6.017h14l-6 6.017z"></path>
</svg>
