<!-- Generated by IcoMoon.io -->
<svg version="1.1" xmlns="http://www.w3.org/2000/svg" width="24" height="24" viewBox="0 0 24 24">
<title>find</title>
<path fill="#444" d="M22.941 23.968l-4.133-5.902c1.991-1.911 3.236-4.596 3.236-7.566 0-5.79-4.71-10.5-10.5-10.5-5.788 0-10.5 4.71-10.5 10.5 0 5.792 4.712 10.502 10.5 10.502 2.278 0 4.383-0.738 6.105-1.973l3.105 4.434c0.247 0.34 0.547 0.496 0.975 0.496h1.196l0.032 0.040c-0.008-0.010-0.008-0.023-0.015-0.032zM2.544 10.5c0-4.971 4.030-9 9-9s9 4.029 9 9c0 4.973-4.030 9.002-9 9.002s-9-4.029-9-9.001z"></path>
</svg>
