<!-- Generated by IcoMoon.io -->
<svg version="1.1" xmlns="http://www.w3.org/2000/svg" width="16" height="16" viewBox="0 0 16 16">
<title>find</title>
<path fill="#444" d="M15.294 15.979l-2.755-3.935c1.327-1.274 2.157-3.064 2.157-5.044 0-3.86-3.14-7-7-7s-7 3.14-7 7c0 3.861 3.141 7.001 7 7.001 1.519 0 2.922-0.492 4.070-1.315l2.070 2.956c0.165 0.227 0.365 0.331 0.65 0.331h0.797l0.021 0.027c-0.005-0.007-0.005-0.015-0.010-0.021zM1.696 7c0-3.314 2.687-6 6-6s6 2.686 6 6c0 3.315-2.687 6.001-6 6.001s-6-2.686-6-6.001z"></path>
</svg>
