<!-- Generated by IcoMoon.io -->
<svg version="1.1" xmlns="http://www.w3.org/2000/svg" width="24" height="24" viewBox="0 0 24 24">
<title>find</title>
<path fill="#444" d="M18.266 17.589c1.827-1.755 2.971-4.221 2.971-6.947-0.001-5.318-4.325-9.642-9.641-9.642s-9.642 4.324-9.642 9.642c0 5.318 4.325 9.642 9.642 9.642 2.091 0 4.024-0.678 5.605-1.812l2.852 4.071c0.227 0.312 0.504 0.457 0.895 0.457h1.098l-3.78-5.411zM3.331 10.642c0-4.565 3.7-8.265 8.265-8.265 4.563 0 8.264 3.699 8.264 8.265s-3.7 8.265-8.264 8.265c-4.565-0.001-8.265-3.699-8.265-8.265z"></path>
</svg>
