<!-- Generated by IcoMoon.io -->
<svg version="1.1" xmlns="http://www.w3.org/2000/svg" width="24" height="24" viewBox="0 0 24 24">
<title>flag_finish</title>
<path fill="#444" d="M6.5 3.89v1.1c0 0.077-0.062 0.139-0.138 0.139h-1.1c-0.076 0-0.138-0.062-0.138-0.139v-1.1c0-0.075 0.062-0.137 0.138-0.137h1.1c0.076 0 0.138 0.061 0.138 0.137zM6.362 6.503h-1.1c-0.076 0-0.138 0.061-0.138 0.137v1.1c0 0.077 0.062 0.137 0.138 0.137h1.1c0.076 0 0.138-0.060 0.138-0.137v-1.1c0-0.077-0.062-0.137-0.138-0.137zM6.362 9.251h-1.1c-0.076 0-0.138 0.062-0.138 0.139v1.1c0 0.075 0.062 0.137 0.138 0.137h1.1c0.076 0 0.138-0.062 0.138-0.137v-1.1c0-0.077-0.062-0.139-0.138-0.139zM6.362 12.001h-1.1c-0.076 0-0.138 0.062-0.138 0.138v1.101c0 0.075 0.062 0.137 0.138 0.137h1.1c0.076 0 0.138-0.062 0.138-0.137v-1.101c0-0.076-0.062-0.138-0.138-0.138zM9.112 5.128h-1.1c-0.076 0-0.138 0.062-0.138 0.137v1.1c0 0.077 0.062 0.139 0.138 0.139h1.1c0.076 0 0.138-0.062 0.138-0.139v-1.1c0-0.076-0.062-0.137-0.138-0.137zM9.112 7.876h-1.1c-0.076 0-0.138 0.062-0.138 0.139v1.1c0 0.075 0.062 0.137 0.138 0.137h1.1c0.076 0 0.138-0.062 0.138-0.137v-1.1c0-0.077-0.062-0.139-0.138-0.139zM9.112 10.626h-1.1c-0.076 0-0.138 0.062-0.138 0.139v1.1c0 0.075 0.062 0.137 0.138 0.137h1.1c0.076 0 0.138-0.062 0.138-0.137v-1.1c0-0.077-0.062-0.139-0.138-0.139zM21.625 3.357v11.783c0 0.375-0.154 0.736-0.427 0.995-0.239 0.229-1.607 1.361-5.075 1.361-1.798 0-3.293-0.567-4.612-1.068-1.205-0.461-2.342-0.896-3.634-0.894-1.893 0.009-2.172 0.224-2.881 0.464-0.327 0.111-0.956 0.478-1.246 0.6v4.854c0 0.402-0.147 0.685-0.478 0.916l-0.897 0.628v0.004c0 0 0-0.001 0-0.003v-19.64c0-0.375 0.154-0.735 0.427-0.996 0.239-0.226 1.607-1.361 5.075-1.361 1.799 0 3.294 0.57 4.613 1.073 1.204 0.459 2.341 0.893 3.633 0.893 2.369 0 3.22-0.644 3.228-0.647 0.254-0.198 0.574-0.306 0.892-0.306 0.201 0 0.401 0.043 0.583 0.133 0.473 0.229 0.799 0.687 0.799 1.211zM20.25 3.357c0 0-0.724 0.661-2.707 0.896v0.735c0 0.077-0.062 0.139-0.138 0.139h-1.1c-0.076 0-0.138-0.062-0.138-0.139v-0.648c-0.016 0-0.029 0.001-0.045 0.001-2.608 0-4.492-1.39-6.873-1.826v1.1c0 0.077-0.062 0.139-0.138 0.139h-1.1c-0.076 0-0.138-0.062-0.138-0.139v-1.1c0-0.069 0.055-0.122 0.122-0.13-0.042-0.002-0.079-0.010-0.12-0.010-3.094 0-4.127 0.982-4.127 0.982v11.783c0 0 1.353-0.993 4.125-0.98v-0.646c0-0.075 0.062-0.138 0.138-0.138h1.1c0.076 0 0.138 0.062 0.138 0.138v0.793c0.575 0.106 1.125 0.261 1.658 0.444h0.954c0.076 0 0.138 0.062 0.138 0.138v0.259c1.289 0.49 2.578 0.977 4.123 0.977 0.044 0 0.079-0.006 0.122-0.007-0.066-0.008-0.12-0.061-0.12-0.129v-1.1c0-0.075 0.062-0.138 0.138-0.138h1.1c0.076 0 0.138 0.062 0.138 0.138v1.1c0 0.021-0.014 0.039-0.023 0.058 2.036-0.229 2.773-0.905 2.773-0.905v-0.527c0 0.076-0.062 0.138-0.138 0.138h-1.1c-0.076 0-0.138-0.062-0.138-0.138v-1.1c0-0.075 0.062-0.138 0.138-0.138h1.1c0.076 0 0.138 0.062 0.138 0.138v-1.649c0 0.075-0.062 0.137-0.138 0.137h-1.1c-0.076 0-0.138-0.062-0.138-0.137v-1.1c0-0.076 0.062-0.139 0.138-0.139h1.1c0.076 0 0.138 0.062 0.138 0.139v-1.65c0 0.075-0.062 0.137-0.138 0.137h-1.1c-0.076 0-0.138-0.062-0.138-0.137v-1.1c0-0.076 0.062-0.139 0.138-0.139h1.1c0.076 0 0.138 0.062 0.138 0.139v-1.65c0 0.077-0.062 0.139-0.138 0.139h-1.1c-0.076 0-0.138-0.062-0.138-0.139v-1.1c0-0.075 0.062-0.137 0.138-0.137h1.1c0.076 0 0.138 0.062 0.138 0.137v-1.909zM11.862 3.753h-1.1c-0.076 0-0.138 0.062-0.138 0.137v1.1c0 0.077 0.062 0.139 0.138 0.139h1.1c0.076-0.001 0.138-0.063 0.138-0.14v-1.1c0-0.075-0.062-0.136-0.138-0.136zM11.862 6.503h-1.1c-0.076 0-0.138 0.061-0.138 0.137v1.1c0 0.077 0.062 0.137 0.138 0.137h1.1c0.076 0 0.138-0.060 0.138-0.137v-1.1c0-0.077-0.062-0.137-0.138-0.137zM11.862 9.251h-1.1c-0.076 0-0.138 0.062-0.138 0.139v1.1c0 0.075 0.062 0.137 0.138 0.137h1.1c0.076 0 0.138-0.062 0.138-0.137v-1.1c0-0.077-0.062-0.139-0.138-0.139zM11.862 12.001h-1.1c-0.076 0-0.138 0.062-0.138 0.138v1.101c0 0.075 0.062 0.137 0.138 0.137h1.1c0.076 0 0.138-0.062 0.138-0.137v-1.101c0-0.076-0.062-0.138-0.138-0.138zM14.612 5.128h-1.1c-0.076 0-0.138 0.062-0.138 0.137v1.1c0 0.077 0.062 0.139 0.138 0.139h1.1c0.076 0 0.138-0.062 0.138-0.139v-1.1c0-0.076-0.062-0.137-0.138-0.137zM14.612 7.876h-1.1c-0.076 0-0.138 0.062-0.138 0.139v1.1c0 0.075 0.062 0.137 0.138 0.137h1.1c0.076 0 0.138-0.062 0.138-0.137v-1.1c0-0.077-0.062-0.139-0.138-0.139zM14.612 10.626h-1.1c-0.076 0-0.138 0.062-0.138 0.139v1.1c0 0.075 0.062 0.137 0.138 0.137h1.1c0.076 0 0.138-0.062 0.138-0.137v-1.1c0-0.077-0.062-0.139-0.138-0.139zM14.612 13.376h-1.1c-0.076 0-0.138 0.062-0.138 0.138v1.1c0 0.076 0.062 0.138 0.138 0.138h1.1c0.076 0 0.138-0.062 0.138-0.138v-1.1c0-0.076-0.062-0.138-0.138-0.138zM17.362 6.503h-1.1c-0.076 0-0.138 0.061-0.138 0.137v1.1c0 0.077 0.062 0.137 0.138 0.137h1.1c0.076 0 0.138-0.060 0.138-0.137v-1.1c0-0.077-0.062-0.137-0.138-0.137zM17.362 9.251h-1.1c-0.076 0-0.138 0.062-0.138 0.139v1.1c0 0.075 0.062 0.137 0.138 0.137h1.1c0.076 0 0.138-0.062 0.138-0.137v-1.1c0-0.077-0.062-0.139-0.138-0.139zM17.362 12.001h-1.1c-0.076 0-0.138 0.062-0.138 0.138v1.101c0 0.075 0.062 0.137 0.138 0.137h1.1c0.076 0 0.138-0.062 0.138-0.137v-1.101c0-0.076-0.062-0.138-0.138-0.138z"></path>
</svg>
