<!-- Generated by IcoMoon.io -->
<svg version="1.1" xmlns="http://www.w3.org/2000/svg" width="24" height="24" viewBox="0 0 24 24">
<title>flag</title>
<path fill="#444" d="M20.827 2.146c-0.183-0.090-0.383-0.133-0.583-0.133-0.318 0-0.638 0.107-0.892 0.306-0.008 0.004-0.859 0.647-3.228 0.647-1.292 0-2.429-0.434-3.633-0.893-1.32-0.503-2.815-1.073-4.614-1.073-3.468 0-4.836 1.135-5.075 1.361-0.273 0.261-0.427 0.621-0.427 0.996v19.639c0 0.002 0 0.003 0 0.003v-0.003l0.897-0.628c0.33-0.231 0.478-0.514 0.478-0.916v-4.854c0.29-0.122 0.918-0.488 1.246-0.6 0.709-0.24 0.989-0.455 2.881-0.464 1.292-0.002 2.43 0.433 3.634 0.894 1.319 0.501 2.814 1.068 4.612 1.068 3.468 0 4.836-1.133 5.075-1.361 0.272-0.259 0.427-0.62 0.427-0.995v-11.783c0-0.524-0.326-0.982-0.798-1.211zM20.25 15.141c0 0-1.033 0.983-4.127 0.983-3.090 0-5.156-1.946-8.246-1.964-2.773-0.013-4.127 0.98-4.127 0.98v-11.783c0 0 1.033-0.982 4.127-0.982 3.090 0 5.156 1.966 8.246 1.966 3.094 0 4.127-0.983 4.127-0.983v11.783z"></path>
</svg>
