<!-- Generated by IcoMoon.io -->
<svg version="1.1" xmlns="http://www.w3.org/2000/svg" width="24" height="24" viewBox="0 0 24 24">
<title>flag</title>
<path fill="#444" d="M21.629 1.249c-0.2-0.097-0.417-0.145-0.636-0.145-0.346 0-0.696 0.117-0.974 0.334-0.009 0.005-0.936 0.707-3.52 0.707-1.409 0-2.65-0.473-3.963-0.974-1.44-0.549-3.071-1.172-5.034-1.172-3.783 0-5.276 1.238-5.535 1.485-0.298 0.285-0.466 0.676-0.466 1.087v21.426c0 0 0 0.002 0 0.002v-0.003l0.978-0.686c0.361-0.252 0.522-0.559 0.522-0.999v-5.295c0.315-0.134 1.002-0.532 1.359-0.655 0.774-0.262 1.079-0.496 3.144-0.505 1.41-0.003 2.651 0.471 3.964 0.973 1.439 0.546 3.069 1.165 5.031 1.165 3.783 0 5.275-1.236 5.537-1.485 0.297-0.282 0.465-0.675 0.465-1.085v-12.854c0-0.573-0.356-1.073-0.872-1.323zM21 15.426c0 0-1.127 1.072-4.502 1.072-3.372 0-5.625-2.123-8.995-2.142-3.027-0.014-4.503 1.069-4.503 1.069v-12.854c0 0 1.126-1.073 4.502-1.073 3.372 0 5.625 2.145 8.995 2.145 3.377 0 4.503-1.072 4.503-1.072v12.854z"></path>
</svg>
