<!-- Generated by IcoMoon.io -->
<svg version="1.1" xmlns="http://www.w3.org/2000/svg" width="16" height="16" viewBox="0 0 16 16">
<title>flag_finish</title>
<path fill="#444" d="M4 2.102v0.8c0 0.056-0.045 0.101-0.1 0.101h-0.8c-0.055-0.001-0.1-0.046-0.1-0.102v-0.8c0-0.055 0.045-0.1 0.1-0.1h0.8c0.055 0.001 0.1 0.046 0.1 0.101zM3.9 4.002h-0.8c-0.055 0-0.1 0.044-0.1 0.1v0.8c0 0.056 0.045 0.1 0.1 0.1h0.8c0.055 0 0.1-0.044 0.1-0.1v-0.8c0-0.056-0.045-0.1-0.1-0.1zM3.9 6.001h-0.8c-0.055 0-0.1 0.045-0.1 0.101v0.8c0 0.055 0.045 0.1 0.1 0.1h0.8c0.055 0 0.1-0.045 0.1-0.1v-0.8c0-0.056-0.045-0.101-0.1-0.101zM3.9 8.001h-0.8c-0.055 0-0.1 0.045-0.1 0.1v0.801c0 0.055 0.045 0.1 0.1 0.1h0.8c0.055 0 0.1-0.045 0.1-0.1v-0.801c0-0.055-0.045-0.1-0.1-0.1zM5.9 3.002h-0.8c-0.055 0-0.1 0.045-0.1 0.1v0.8c0 0.056 0.045 0.101 0.1 0.101h0.8c0.055 0 0.1-0.045 0.1-0.101v-0.8c0-0.055-0.045-0.1-0.1-0.1zM5.9 5.001h-0.8c-0.055 0-0.1 0.045-0.1 0.101v0.8c0 0.055 0.045 0.1 0.1 0.1h0.8c0.055 0 0.1-0.045 0.1-0.1v-0.8c0-0.056-0.045-0.101-0.1-0.101zM5.9 7.001h-0.8c-0.055 0-0.1 0.045-0.1 0.101v0.8c0 0.055 0.045 0.1 0.1 0.1h0.8c0.055 0 0.1-0.045 0.1-0.1v-0.8c0-0.056-0.045-0.101-0.1-0.101zM15 1.715v8.569c0 0.272-0.112 0.535-0.311 0.724-0.174 0.166-1.168 0.99-3.691 0.99-1.308 0-2.395-0.413-3.354-0.777-0.876-0.335-1.703-0.651-2.643-0.649-1.376 0.006-1.58 0.162-2.096 0.337-0.237 0.080-0.695 0.347-0.905 0.436v3.53c0 0.293-0.107 0.498-0.347 0.666l-0.653 0.457v0.002c0 0 0-0.001 0-0.002v-14.283c0-0.274 0.112-0.535 0.311-0.725 0.173-0.165 1.168-0.99 3.69-0.99 1.309 0 2.396 0.415 3.355 0.78 0.875 0.334 1.703 0.649 2.642 0.649 1.723 0 2.342-0.468 2.348-0.471 0.185-0.145 0.417-0.223 0.649-0.223 0.146 0 0.292 0.031 0.424 0.097 0.344 0.168 0.581 0.501 0.581 0.883zM14 1.715c0 0-0.526 0.48-1.969 0.651v0.535c0 0.056-0.045 0.101-0.1 0.101h-0.8c-0.055 0-0.1-0.045-0.1-0.101v-0.472c-0.012 0-0.021 0.001-0.033 0.001-1.896 0-3.267-1.011-4.998-1.328v0.8c0 0.056-0.045 0.101-0.1 0.101h-0.8c-0.055-0.001-0.1-0.046-0.1-0.102v-0.8c0-0.051 0.040-0.089 0.089-0.095-0.030 0-0.057-0.006-0.088-0.006-2.25 0-3.001 0.715-3.001 0.715v8.57c0 0 0.984-0.723 3-0.713v-0.471c0-0.055 0.045-0.1 0.1-0.1h0.8c0.055 0 0.1 0.045 0.1 0.1v0.577c0.418 0.077 0.818 0.189 1.206 0.323h0.694c0.055 0 0.1 0.045 0.1 0.1v0.188c0.938 0.356 1.875 0.71 2.999 0.71 0.032 0 0.057-0.004 0.088-0.005-0.048-0.006-0.087-0.044-0.087-0.094v-0.8c0-0.055 0.045-0.1 0.1-0.1h0.8c0.055 0 0.1 0.045 0.1 0.1v0.8c0 0.016-0.010 0.028-0.017 0.042 1.48-0.166 2.017-0.658 2.017-0.658v-0.384c0 0.056-0.045 0.101-0.1 0.101h-0.8c-0.055 0-0.1-0.045-0.1-0.101v-0.8c0-0.055 0.045-0.1 0.1-0.1h0.8c0.055 0 0.1 0.045 0.1 0.1v-1.199c0 0.055-0.045 0.1-0.1 0.1h-0.8c-0.055 0-0.1-0.045-0.1-0.1v-0.8c0-0.056 0.045-0.101 0.1-0.101h0.8c0.055 0 0.1 0.045 0.1 0.101v-1.2c0 0.055-0.045 0.1-0.1 0.1h-0.8c-0.055 0-0.1-0.045-0.1-0.1v-0.8c0-0.056 0.045-0.101 0.1-0.101h0.8c0.055 0 0.1 0.045 0.1 0.101v-1.2c0 0.056-0.045 0.101-0.1 0.101h-0.8c-0.055 0-0.1-0.045-0.1-0.101v-0.8c0-0.055 0.045-0.1 0.1-0.1h0.8c0.055 0 0.1 0.045 0.1 0.1v-1.386zM7.9 2.002h-0.8c-0.055 0-0.1 0.045-0.1 0.1v0.8c0 0.056 0.045 0.101 0.1 0.101h0.8c0.055 0 0.1-0.045 0.1-0.101v-0.8c0-0.055-0.045-0.1-0.1-0.1zM7.9 4.002h-0.8c-0.055 0-0.1 0.044-0.1 0.1v0.8c0 0.056 0.045 0.1 0.1 0.1h0.8c0.055 0 0.1-0.044 0.1-0.1v-0.8c0-0.056-0.045-0.1-0.1-0.1zM7.9 6.001h-0.8c-0.055 0-0.1 0.045-0.1 0.101v0.8c0 0.055 0.045 0.1 0.1 0.1h0.8c0.055 0 0.1-0.045 0.1-0.1v-0.8c0-0.056-0.045-0.101-0.1-0.101zM7.9 8.001h-0.8c-0.055 0-0.1 0.045-0.1 0.1v0.801c0 0.055 0.045 0.1 0.1 0.1h0.8c0.055 0 0.1-0.045 0.1-0.1v-0.801c0-0.055-0.045-0.1-0.1-0.1zM9.9 3.002h-0.8c-0.055 0-0.1 0.045-0.1 0.1v0.8c0 0.056 0.045 0.101 0.1 0.101h0.8c0.055 0 0.1-0.045 0.1-0.101v-0.8c0-0.055-0.045-0.1-0.1-0.1zM9.9 5.001h-0.8c-0.055 0-0.1 0.045-0.1 0.101v0.8c0 0.055 0.045 0.1 0.1 0.1h0.8c0.055 0 0.1-0.045 0.1-0.1v-0.8c0-0.056-0.045-0.101-0.1-0.101zM9.9 7.001h-0.8c-0.055 0-0.1 0.045-0.1 0.101v0.8c0 0.055 0.045 0.1 0.1 0.1h0.8c0.055 0 0.1-0.045 0.1-0.1v-0.8c0-0.056-0.045-0.101-0.1-0.101zM9.9 9.001h-0.8c-0.055 0-0.1 0.045-0.1 0.1v0.8c0 0.056 0.045 0.101 0.1 0.101h0.8c0.055 0 0.1-0.045 0.1-0.101v-0.8c0-0.055-0.045-0.1-0.1-0.1zM11.9 4.002h-0.8c-0.055 0-0.1 0.044-0.1 0.1v0.8c0 0.056 0.045 0.1 0.1 0.1h0.8c0.055 0 0.1-0.044 0.1-0.1v-0.8c0-0.056-0.045-0.1-0.1-0.1zM11.9 6.001h-0.8c-0.055 0-0.1 0.045-0.1 0.101v0.8c0 0.055 0.045 0.1 0.1 0.1h0.8c0.055 0 0.1-0.045 0.1-0.1v-0.8c0-0.056-0.045-0.101-0.1-0.101zM11.9 8.001h-0.8c-0.055 0-0.1 0.045-0.1 0.1v0.801c0 0.055 0.045 0.1 0.1 0.1h0.8c0.055 0 0.1-0.045 0.1-0.1v-0.801c0-0.055-0.045-0.1-0.1-0.1z"></path>
</svg>
