<!-- Generated by IcoMoon.io -->
<svg version="1.1" xmlns="http://www.w3.org/2000/svg" width="16" height="16" viewBox="0 0 16 16">
<title>flag</title>
<path fill="#444" d="M14.419 0.833c-0.133-0.065-0.278-0.097-0.424-0.097-0.231 0-0.464 0.078-0.649 0.223-0.006 0.003-0.624 0.471-2.347 0.471-0.939 0-1.767-0.315-2.642-0.649-0.96-0.366-2.047-0.781-3.356-0.781-2.522 0-3.517 0.825-3.69 0.99-0.199 0.19-0.311 0.451-0.311 0.725v14.284c0 0 0 0.001 0 0.001v-0.002l0.652-0.457c0.241-0.168 0.348-0.373 0.348-0.666v-3.53c0.21-0.089 0.668-0.355 0.906-0.437 0.516-0.175 0.719-0.331 2.096-0.337 0.94-0.002 1.767 0.314 2.643 0.649 0.959 0.364 2.046 0.777 3.354 0.777 2.522 0 3.517-0.824 3.691-0.99 0.198-0.188 0.31-0.45 0.31-0.723v-8.569c0-0.382-0.237-0.715-0.581-0.882zM14 10.284c0 0-0.751 0.715-3.001 0.715-2.248 0-3.75-1.415-5.997-1.428-2.018-0.009-3.002 0.713-3.002 0.713v-8.569c0 0 0.751-0.715 3.001-0.715 2.248 0 3.75 1.43 5.997 1.43 2.251 0 3.002-0.715 3.002-0.715v8.569z"></path>
</svg>
