<!-- Generated by IcoMoon.io -->
<svg version="1.1" xmlns="http://www.w3.org/2000/svg" width="24" height="24" viewBox="0 0 24 24">
<title>flag_finish</title>
<path fill="#444" d="M6 3.153v1.2c0 0.084-0.067 0.152-0.15 0.152h-1.2c-0.083-0.002-0.15-0.069-0.15-0.153v-1.2c0-0.083 0.067-0.15 0.15-0.15h1.2c0.082 0.001 0.15 0.069 0.15 0.151zM5.85 6.003h-1.2c-0.083 0-0.15 0.066-0.15 0.15v1.2c0 0.084 0.067 0.15 0.15 0.15h1.2c0.082 0 0.15-0.066 0.15-0.15v-1.2c0-0.084-0.067-0.15-0.15-0.15zM5.85 9.002h-1.2c-0.083 0-0.15 0.068-0.15 0.152v1.2c0 0.082 0.067 0.15 0.15 0.15h1.2c0.082 0 0.15-0.068 0.15-0.15v-1.2c0-0.084-0.067-0.152-0.15-0.152zM5.85 12.002h-1.2c-0.083 0-0.15 0.067-0.15 0.15v1.201c0 0.082 0.067 0.15 0.15 0.15h1.2c0.082 0 0.15-0.068 0.15-0.15v-1.201c0-0.082-0.067-0.15-0.15-0.15zM8.85 4.503h-1.2c-0.082 0-0.15 0.067-0.15 0.15v1.2c0 0.084 0.067 0.152 0.15 0.152h1.2c0.082 0 0.15-0.067 0.15-0.152v-1.2c0-0.083-0.067-0.15-0.15-0.15zM8.85 7.502h-1.2c-0.082 0-0.15 0.068-0.15 0.152v1.2c0 0.082 0.067 0.15 0.15 0.15h1.2c0.082 0 0.15-0.068 0.15-0.15v-1.2c0-0.084-0.067-0.152-0.15-0.152zM8.85 10.502h-1.2c-0.082 0-0.15 0.068-0.15 0.152v1.2c0 0.082 0.067 0.15 0.15 0.15h1.2c0.082 0 0.15-0.067 0.15-0.15v-1.2c0-0.084-0.067-0.152-0.15-0.152zM22.5 2.573v12.854c0 0.408-0.168 0.802-0.466 1.086-0.261 0.249-1.752 1.485-5.537 1.485-1.962 0-3.592-0.619-5.031-1.165-1.314-0.503-2.555-0.976-3.964-0.973-2.064 0.009-2.37 0.243-3.144 0.505-0.356 0.12-1.042 0.521-1.358 0.654v5.295c0 0.439-0.16 0.747-0.52 0.999l-0.98 0.686v0.003c0 0 0-0.002 0-0.003v-21.424c0-0.411 0.168-0.803 0.466-1.087 0.26-0.248 1.752-1.485 5.535-1.485 1.963 0 3.594 0.623 5.033 1.17 1.313 0.501 2.554 0.973 3.963 0.973 2.585 0 3.513-0.702 3.522-0.706 0.278-0.218 0.626-0.335 0.974-0.335 0.219 0 0.438 0.046 0.636 0.145 0.516 0.252 0.871 0.751 0.871 1.325zM21 2.573c0 0-0.789 0.72-2.953 0.977v0.803c0 0.084-0.068 0.151-0.15 0.151h-1.2c-0.082 0-0.15-0.067-0.15-0.151v-0.708c-0.018 0-0.032 0.002-0.050 0.002-2.844 0-4.9-1.517-7.497-1.992v1.2c0 0.084-0.068 0.151-0.15 0.151h-1.2c-0.082-0.002-0.15-0.069-0.15-0.153v-1.2c0-0.076 0.060-0.133 0.134-0.143-0.045 0-0.086-0.009-0.132-0.009-3.375 0-4.502 1.072-4.502 1.072v12.855c0 0 1.476-1.085 4.5-1.069v-0.706c0-0.082 0.067-0.15 0.15-0.15h1.2c0.082 0 0.15 0.068 0.15 0.15v0.865c0.627 0.115 1.227 0.284 1.809 0.485h1.041c0.082 0 0.15 0.068 0.15 0.15v0.282c1.407 0.534 2.813 1.065 4.498 1.065 0.048 0 0.085-0.006 0.132-0.008-0.072-0.009-0.13-0.066-0.13-0.141v-1.2c0-0.082 0.067-0.15 0.15-0.15h1.2c0.083 0 0.15 0.067 0.15 0.15v1.2c0 0.024-0.015 0.042-0.026 0.063 2.22-0.249 3.026-0.987 3.026-0.987v-0.576c0 0.084-0.067 0.152-0.15 0.152h-1.2c-0.082 0-0.15-0.067-0.15-0.152v-1.2c0-0.082 0.067-0.15 0.15-0.15h1.2c0.083 0 0.15 0.067 0.15 0.15v-1.799c0 0.082-0.067 0.15-0.15 0.15h-1.2c-0.082 0-0.15-0.068-0.15-0.15v-1.2c0-0.084 0.067-0.151 0.15-0.151h1.2c0.083 0 0.15 0.067 0.15 0.151v-1.8c0 0.082-0.067 0.15-0.15 0.15h-1.2c-0.082 0-0.15-0.068-0.15-0.15v-1.2c0-0.084 0.067-0.151 0.15-0.151h1.2c0.083 0 0.15 0.067 0.15 0.151v-1.8c0 0.084-0.067 0.151-0.15 0.151h-1.2c-0.082 0-0.15-0.067-0.15-0.151v-1.2c0-0.082 0.067-0.15 0.15-0.15h1.2c0.083 0 0.15 0.067 0.15 0.15v-2.079zM11.85 3.003h-1.2c-0.082 0-0.15 0.067-0.15 0.15v1.2c0 0.084 0.067 0.152 0.15 0.152h1.2c0.082 0 0.15-0.067 0.15-0.152v-1.2c0-0.083-0.067-0.15-0.15-0.15zM11.85 6.003h-1.2c-0.082 0-0.15 0.066-0.15 0.15v1.2c0 0.084 0.067 0.15 0.15 0.15h1.2c0.082 0 0.15-0.066 0.15-0.15v-1.2c0-0.084-0.067-0.15-0.15-0.15zM11.85 9.002h-1.2c-0.082 0-0.15 0.068-0.15 0.152v1.2c0 0.082 0.067 0.15 0.15 0.15h1.2c0.082 0 0.15-0.068 0.15-0.15v-1.2c0-0.084-0.067-0.152-0.15-0.152zM11.85 12.002h-1.2c-0.082 0-0.15 0.067-0.15 0.15v1.201c0 0.082 0.067 0.15 0.15 0.15h1.2c0.082 0 0.15-0.068 0.15-0.15v-1.201c0-0.082-0.067-0.15-0.15-0.15zM14.85 4.503h-1.2c-0.082 0-0.15 0.067-0.15 0.15v1.2c0 0.084 0.067 0.152 0.15 0.152h1.2c0.082 0 0.15-0.067 0.15-0.152v-1.2c0-0.083-0.067-0.15-0.15-0.15zM14.85 7.502h-1.2c-0.082 0-0.15 0.068-0.15 0.152v1.2c0 0.082 0.067 0.15 0.15 0.15h1.2c0.082 0 0.15-0.068 0.15-0.15v-1.2c0-0.084-0.067-0.152-0.15-0.152zM14.85 10.502h-1.2c-0.082 0-0.15 0.068-0.15 0.152v1.2c0 0.082 0.067 0.15 0.15 0.15h1.2c0.082 0 0.15-0.067 0.15-0.15v-1.2c0-0.084-0.067-0.152-0.15-0.152zM14.85 13.502h-1.2c-0.082 0-0.15 0.067-0.15 0.15v1.2c0 0.084 0.067 0.152 0.15 0.152h1.2c0.082 0 0.15-0.067 0.15-0.152v-1.2c0-0.082-0.067-0.15-0.15-0.15zM17.85 6.003h-1.2c-0.082 0-0.15 0.066-0.15 0.15v1.2c0 0.084 0.067 0.15 0.15 0.15h1.2c0.082 0 0.15-0.066 0.15-0.15v-1.2c0-0.084-0.067-0.15-0.15-0.15zM17.85 9.002h-1.2c-0.082 0-0.15 0.068-0.15 0.152v1.2c0 0.082 0.067 0.15 0.15 0.15h1.2c0.082 0 0.15-0.068 0.15-0.15v-1.2c0-0.084-0.067-0.152-0.15-0.152zM17.85 12.002h-1.2c-0.082 0-0.15 0.067-0.15 0.15v1.201c0 0.082 0.067 0.15 0.15 0.15h1.2c0.082 0 0.15-0.068 0.15-0.15v-1.201c0-0.082-0.067-0.15-0.15-0.15z"></path>
</svg>
