<!-- Generated by IcoMoon.io -->
<svg version="1.1" xmlns="http://www.w3.org/2000/svg" width="24" height="24" viewBox="0 0 24 24">
<title>folder</title>
<path fill="#444" d="M20.402 4.5h-8.636l-1.658-2.314c-0.276-0.427-0.75-0.686-1.26-0.686h-5.25c-1.984 0-3.599 1.646-3.599 3.666v13.668c0 2.022 1.614 3.666 3.599 3.666h16.802c1.986 0 3.6-1.644 3.6-3.665v-10.665c0-2.024-1.614-3.671-3.599-3.671zM22.5 18.835c0 1.196-0.939 2.165-2.099 2.165h-16.803c-1.16 0-2.099-0.969-2.099-2.165v-13.669c0-1.197 0.939-2.166 2.099-2.166h5.25l2.1 3h9.451c1.161 0 2.1 0.969 2.1 2.169v10.666z"></path>
</svg>
