<!-- Generated by IcoMoon.io -->
<svg version="1.1" xmlns="http://www.w3.org/2000/svg" width="16" height="16" viewBox="0 0 16 16">
<title>folder</title>
<path fill="#444" d="M13.601 3h-5.757l-1.105-1.543c-0.184-0.285-0.5-0.457-0.84-0.457h-3.5c-1.323 0-2.399 1.097-2.399 2.444v9.112c0 1.348 1.076 2.444 2.399 2.444h11.201c1.324 0 2.4-1.096 2.4-2.443v-7.11c0-1.349-1.076-2.447-2.399-2.447zM15 12.557c0 0.797-0.626 1.443-1.399 1.443h-11.202c-0.773 0-1.399-0.646-1.399-1.443v-9.113c0-0.798 0.626-1.444 1.399-1.444h3.5l1.4 2h6.301c0.774 0 1.4 0.646 1.4 1.446v7.111z"></path>
</svg>
