<!-- Generated by IcoMoon.io -->
<svg version="1.1" xmlns="http://www.w3.org/2000/svg" width="24" height="24" viewBox="0 0 24 24">
<title>gas_pump</title>
<path fill="#444" d="M14.649 22.5h-10.466v-21h10.466v21zM23.619 15.27c0-3.003 0-3.652 0-5.661v-3.984l-4.254-4.093-0.212 1.203c-0.053 0.297 0.025 0.526 0.159 0.745l1.316 1.32 1.495 1.387v4.313c0 0 0 0.897 0 3.9-0.003 1.25 0.091 2.567-0.201 2.907-0.228 0.267-0.98 0.543-1.294 0.543-0.861-0.020-1.157-0.408-1.404-0.803-0.247-0.411-0.348-1.131-0.343-2.005-0.001-0.951 0.102-2.072 0.102-3.192 0.018-1.752-0.602-2.301-1.539-2.748-0.295-0.147-1.041-0.028-1.3-0.102v-7.538c0-0.612-0.888-1.462-1.494-1.462h-10.466c-0.748 0-1.495 0.712-1.495 1.462v21.037l-0.749 0.038c-0.329 0.040-0.587 0.16-0.796 0.462l-0.768 1h18.198l-0.698-1c-0.21-0.3-0.468-0.42-0.798-0.462l-0.186-0.038h-0.749v-12c0.448 0 0.798-0.111 1.058 0.102 0.457 0.385 0.429 0.39 0.438 1.398 0 1.053-0.102 2.165-0.104 3.192 0.005 0.941 0.285 2.073 0.702 2.808 0.407 0.736 1.346 1.2 2.393 1.2 0.598 0 1.588-0.243 2.178-0.77 0.921-0.828 0.817-1.068 0.812-3.161zM6.375 5.5c0.252 0.36 0.544 0.498 0.982 0.5h5.82l-0.699-0.999c-0.25-0.36-0.543-0.498-0.981-0.501h-5.82l0.697 1z"></path>
</svg>
