<!-- Generated by IcoMoon.io -->
<svg version="1.1" xmlns="http://www.w3.org/2000/svg" width="16" height="16" viewBox="0 0 16 16">
<title>gas_pump</title>
<path fill="#444" d="M9.766 15h-6.977v-14h6.977v14zM15.746 10.18c0-2.002 0-2.435 0-3.774v-2.656l-2.836-2.729-0.141 0.802c-0.035 0.198 0.017 0.351 0.106 0.497l0.877 0.88 0.997 0.925v2.875c0 0 0 0.598 0 2.6-0.002 0.833 0.061 1.711-0.134 1.938-0.152 0.178-0.653 0.362-0.863 0.362-0.574-0.013-0.771-0.272-0.936-0.535-0.165-0.274-0.232-0.754-0.229-1.337-0.001-0.634 0.068-1.381 0.068-2.128 0.012-1.168-0.401-1.534-1.026-1.832-0.197-0.098-0.694-0.019-0.867-0.068v-5.025c0-0.408-0.592-0.975-0.996-0.975h-6.977c-0.499 0-0.997 0.475-0.997 0.975v14.025l-0.499 0.025c-0.219 0.027-0.391 0.107-0.531 0.308l-0.512 0.667h12.132l-0.465-0.667c-0.14-0.2-0.312-0.28-0.532-0.308l-0.124-0.025h-0.499v-8c0.299 0 0.532-0.074 0.705 0.068 0.305 0.257 0.286 0.26 0.292 0.932 0 0.702-0.068 1.443-0.069 2.128 0.003 0.627 0.19 1.382 0.468 1.872 0.271 0.491 0.897 0.8 1.595 0.8 0.399 0 1.059-0.162 1.452-0.513 0.614-0.552 0.545-0.712 0.541-2.107zM4.25 3.667c0.168 0.24 0.363 0.332 0.655 0.333h3.88l-0.466-0.666c-0.167-0.24-0.362-0.332-0.654-0.334h-3.88l0.465 0.667z"></path>
</svg>
