<!-- Generated by IcoMoon.io -->
<svg version="1.1" xmlns="http://www.w3.org/2000/svg" width="16" height="16" viewBox="0 0 16 16">
<title>gears</title>
<path fill="#444" d="M8 6c-1.106 0-2 0.895-2 2s0.894 2 2 2c1.105 0 2-0.894 2-2s-0.896-2-2-2zM8 9c-0.552 0-1-0.448-1-1s0.448-1 1-1c0.552 0 1 0.448 1 1s-0.449 1-1 1zM15.682 2.562l-0.466-0.079c-0.048-0.158-0.112-0.313-0.192-0.46l0.274-0.386c0.109-0.152 0.091-0.358-0.041-0.49l-0.403-0.402c-0.072-0.073-0.168-0.112-0.271-0.112-0.079 0-0.156 0.023-0.221 0.069l-0.386 0.275c-0.152-0.080-0.31-0.146-0.475-0.195l-0.076-0.462c-0.029-0.186-0.187-0.32-0.374-0.32h-0.571c-0.187 0-0.345 0.134-0.376 0.318l-0.081 0.47c-0.158 0.050-0.312 0.114-0.458 0.195l-0.381-0.272c-0.065-0.046-0.142-0.070-0.221-0.070-0.103 0-0.199 0.040-0.271 0.111l-0.402 0.403c-0.132 0.132-0.15 0.338-0.041 0.491l0.277 0.39c-0.078 0.148-0.141 0.302-0.187 0.462l-0.462 0.077c-0.185 0.029-0.319 0.189-0.319 0.375v0.57c0 0.188 0.134 0.346 0.318 0.378l0.471 0.079c0.049 0.158 0.113 0.313 0.194 0.46l-0.271 0.38c-0.109 0.152-0.091 0.359 0.041 0.491l0.403 0.403c0.072 0.073 0.167 0.111 0.27 0.111 0.079 0 0.156-0.023 0.221-0.071l0.39-0.276c0.142 0.074 0.292 0.137 0.444 0.184l0.078 0.465c0.031 0.185 0.19 0.317 0.377 0.317h0.57c0.187 0 0.345-0.133 0.377-0.317l0.079-0.467c0.159-0.048 0.313-0.112 0.46-0.191l0.385 0.274c0.065 0.047 0.142 0.071 0.221 0.071 0.102 0 0.197-0.039 0.27-0.112l0.403-0.403c0.132-0.132 0.15-0.337 0.041-0.49l-0.274-0.386c0.079-0.148 0.142-0.301 0.19-0.461l0.466-0.077c0.184-0.032 0.318-0.191 0.318-0.377v-0.572c0-0.182-0.134-0.34-0.318-0.371zM12.779 5.013c-0.989 0-1.792-0.802-1.792-1.792s0.803-1.792 1.792-1.792 1.792 0.802 1.792 1.792-0.802 1.792-1.792 1.792zM16 7.357v1.348c0 0.463-0.332 0.857-0.79 0.936l-1.156 0.193c-0.121 0.396-0.277 0.775-0.474 1.143l0.682 0.959c0.271 0.381 0.227 0.891-0.102 1.221l-1 1c-0.181 0.181-0.418 0.278-0.672 0.278-0.196 0-0.387-0.061-0.549-0.176l-0.957-0.683c-0.365 0.197-0.748 0.356-1.143 0.475l-0.195 1.16c-0.078 0.458-0.471 0.789-0.936 0.789h-1.416c-0.465 0-0.858-0.331-0.937-0.789l-0.193-1.156c-0.379-0.115-0.752-0.268-1.105-0.453l-0.969 0.688c-0.163 0.116-0.353 0.177-0.549 0.177-0.254 0-0.491-0.099-0.671-0.278l-1-1.002c-0.329-0.328-0.373-0.84-0.102-1.221l0.675-0.943c-0.201-0.363-0.359-0.747-0.482-1.141l-1.169-0.2c-0.458-0.079-0.79-0.471-0.79-0.938v-1.416c0-0.465 0.332-0.857 0.793-0.93l1.146-0.193c0.115-0.396 0.271-0.779 0.464-1.146l-0.688-0.969c-0.271-0.38-0.227-0.893 0.101-1.221l1-1.001c0.18-0.179 0.417-0.277 0.672-0.277 0.196 0 0.386 0.061 0.549 0.177l0.946 0.675c0.363-0.201 0.746-0.36 1.139-0.482l0.201-1.17c0.077-0.458 0.47-0.791 0.935-0.791h1.417c0.218 0 0.414 0.081 0.573 0.208 0.182 0.075 0.31 0.253 0.31 0.462 0 0.276-0.224 0.5-0.5 0.5-0.158 0-0.419-0.171-0.419-0.171l-1.331-0.040-0.201 1.17c-0.064 0.371-0.33 0.674-0.689 0.786-0.34 0.106-0.66 0.241-0.95 0.402-0.152 0.084-0.319 0.125-0.485 0.125-0.204 0-0.408-0.062-0.581-0.186l-0.878-0.681-0.994 0.936 0.688 0.969c0.219 0.308 0.246 0.711 0.070 1.045-0.163 0.309-0.293 0.631-0.388 0.958-0.107 0.37-0.416 0.644-0.794 0.708l-1.106 0.137-0.041 1.367 1.169 0.2c0.37 0.063 0.673 0.328 0.786 0.687 0.108 0.347 0.244 0.668 0.403 0.955 0.187 0.338 0.163 0.753-0.062 1.066l-0.678 0.876 0.934 0.994 0.969-0.688c0.172-0.122 0.375-0.185 0.579-0.185 0.16 0 0.319 0.038 0.466 0.115 0.294 0.155 0.607 0.283 0.93 0.381 0.364 0.11 0.633 0.418 0.696 0.793l0.141 1.111h1.374l0.188-1.115c0.063-0.376 0.334-0.683 0.699-0.792 0.328-0.098 0.649-0.231 0.955-0.396 0.149-0.080 0.312-0.12 0.475-0.12 0.204 0 0.408 0.062 0.581 0.186l0.89 0.688 0.994-0.935-0.682-0.959c-0.22-0.309-0.246-0.716-0.067-1.051 0.165-0.308 0.295-0.623 0.399-0.963 0.111-0.363 0.417-0.632 0.792-0.694l1.11-0.144c0 0 0-1.148 0-1.205 0-0.276 0.224-0.5 0.5-0.5 0.226 0 0.409 0.152 0.471 0.357h0.029z"></path>
</svg>
