<!-- Generated by IcoMoon.io -->
<svg version="1.1" xmlns="http://www.w3.org/2000/svg" width="24" height="24" viewBox="0 0 24 24">
<title>gears</title>
<path fill="#444" d="M12 9c-1.659 0-3 1.342-3 3 0 1.659 1.341 3 3 3 1.658 0 3-1.341 3-3 0-1.658-1.344-3-3-3zM12 13.5c-0.828 0-1.5-0.672-1.5-1.5s0.672-1.5 1.5-1.5c0.828 0 1.5 0.672 1.5 1.5s-0.674 1.5-1.5 1.5zM23.523 3.843l-0.699-0.119c-0.072-0.237-0.168-0.47-0.288-0.69l0.411-0.579c0.163-0.228 0.136-0.537-0.062-0.735l-0.604-0.603c-0.108-0.109-0.252-0.168-0.407-0.168-0.119 0-0.234 0.034-0.332 0.103l-0.579 0.413c-0.228-0.12-0.465-0.219-0.713-0.292l-0.114-0.693c-0.044-0.279-0.28-0.48-0.561-0.48h-0.857c-0.28 0-0.517 0.201-0.564 0.477l-0.122 0.705c-0.237 0.075-0.468 0.171-0.687 0.292l-0.572-0.408c-0.098-0.069-0.213-0.105-0.332-0.105-0.154 0-0.299 0.060-0.407 0.166l-0.603 0.605c-0.198 0.198-0.225 0.507-0.062 0.736l0.415 0.585c-0.117 0.222-0.211 0.453-0.28 0.693l-0.693 0.115c-0.277 0.043-0.479 0.284-0.479 0.563v0.855c0 0.282 0.201 0.519 0.477 0.567l0.706 0.119c0.073 0.237 0.169 0.47 0.291 0.69l-0.407 0.57c-0.164 0.228-0.136 0.538 0.062 0.736l0.605 0.605c0.108 0.11 0.25 0.166 0.405 0.166 0.119 0 0.234-0.034 0.332-0.107l0.585-0.414c0.213 0.111 0.438 0.205 0.666 0.276l0.117 0.697c0.047 0.277 0.285 0.476 0.566 0.476h0.855c0.28 0 0.517-0.199 0.566-0.476l0.119-0.7c0.239-0.072 0.47-0.168 0.69-0.287l0.578 0.411c0.097 0.071 0.213 0.107 0.331 0.107 0.153 0 0.296-0.059 0.405-0.168l0.605-0.604c0.198-0.198 0.225-0.505 0.061-0.735l-0.411-0.579c0.119-0.222 0.213-0.451 0.285-0.691l0.699-0.115c0.276-0.048 0.477-0.286 0.477-0.566v-0.858c0-0.273-0.201-0.51-0.477-0.557zM19.169 7.519c-1.484 0-2.688-1.203-2.688-2.688s1.205-2.688 2.688-2.688 2.688 1.203 2.688 2.688-1.203 2.688-2.688 2.688zM24 11.036v2.022c0 0.694-0.498 1.285-1.185 1.404l-1.734 0.289c-0.181 0.594-0.415 1.162-0.711 1.714l1.023 1.439c0.407 0.572 0.34 1.337-0.153 1.832l-1.5 1.5c-0.271 0.271-0.627 0.417-1.008 0.417-0.294 0-0.581-0.091-0.823-0.264l-1.436-1.024c-0.547 0.296-1.122 0.534-1.715 0.712l-0.293 1.74c-0.117 0.687-0.707 1.183-1.404 1.183h-2.124c-0.697 0-1.287-0.496-1.405-1.183l-0.29-1.734c-0.569-0.172-1.128-0.402-1.657-0.68l-1.454 1.032c-0.245 0.174-0.53 0.265-0.824 0.265-0.381 0-0.737-0.149-1.006-0.417l-1.5-1.503c-0.494-0.492-0.559-1.26-0.153-1.832l1.012-1.414c-0.301-0.545-0.538-1.121-0.723-1.712l-1.753-0.3c-0.687-0.119-1.185-0.706-1.185-1.407v-2.124c0-0.697 0.498-1.286 1.19-1.395l1.719-0.289c0.173-0.594 0.406-1.169 0.696-1.719l-1.032-1.454c-0.407-0.57-0.341-1.339 0.151-1.832l1.5-1.502c0.27-0.268 0.626-0.415 1.008-0.415 0.294 0 0.579 0.091 0.823 0.265l1.419 1.012c0.545-0.301 1.119-0.54 1.708-0.723l0.302-1.755c0.115-0.687 0.705-1.187 1.402-1.187h2.125c0.327 0 0.621 0.121 0.86 0.312 0.273 0.112 0.465 0.379 0.465 0.693 0 0.414-0.336 0.75-0.75 0.75-0.237 0-0.628-0.256-0.628-0.256l-1.997-0.060-0.301 1.755c-0.096 0.556-0.495 1.011-1.034 1.179-0.51 0.159-0.99 0.362-1.425 0.603-0.228 0.126-0.479 0.188-0.728 0.188-0.306 0-0.612-0.093-0.872-0.279l-1.317-1.021-1.491 1.404 1.032 1.453c0.328 0.462 0.369 1.067 0.105 1.568-0.244 0.463-0.44 0.947-0.582 1.437-0.161 0.555-0.624 0.966-1.191 1.062l-1.659 0.205-0.061 2.051 1.754 0.3c0.555 0.095 1.010 0.492 1.179 1.030 0.162 0.521 0.366 1.002 0.605 1.433 0.28 0.507 0.244 1.13-0.093 1.599l-1.017 1.314 1.401 1.491 1.454-1.032c0.258-0.183 0.563-0.277 0.868-0.277 0.24 0 0.479 0.057 0.699 0.172 0.441 0.232 0.911 0.424 1.395 0.572 0.546 0.165 0.95 0.627 1.044 1.189l0.211 1.666h2.061l0.282-1.672c0.095-0.564 0.501-1.024 1.049-1.188 0.492-0.147 0.974-0.346 1.433-0.594 0.223-0.12 0.468-0.18 0.712-0.18 0.306 0 0.612 0.093 0.872 0.279l1.335 1.032 1.491-1.402-1.023-1.439c-0.33-0.463-0.369-1.074-0.101-1.576 0.247-0.462 0.442-0.934 0.598-1.444 0.167-0.544 0.626-0.948 1.188-1.041l1.665-0.216c0 0 0-1.722 0-1.808 0-0.414 0.336-0.75 0.75-0.75 0.339 0 0.614 0.228 0.706 0.536h0.044z"></path>
</svg>
