<!-- Generated by IcoMoon.io -->
<svg version="1.1" xmlns="http://www.w3.org/2000/svg" width="24" height="24" viewBox="0 0 24 24">
<title>gear</title>
<path d="M21.914 9.747l-1.594-0.271c-0.163-0.539-0.383-1.066-0.653-1.57l0.938-1.313c0.372-0.524 0.312-1.227-0.14-1.679l-1.375-1.376c-0.247-0.25-0.575-0.383-0.924-0.383-0.27 0-0.532 0.083-0.755 0.24l-1.318 0.938c-0.519-0.274-1.058-0.498-1.622-0.666l-0.266-1.576c-0.098-0.633-0.64-1.091-1.277-1.091h-1.948c-0.64 0-1.179 0.458-1.287 1.087l-0.276 1.607c-0.54 0.169-1.067 0.387-1.566 0.664l-1.3-0.927c-0.224-0.16-0.484-0.243-0.754-0.243-0.35 0-0.677 0.136-0.924 0.382l-1.375 1.375c-0.451 0.451-0.512 1.155-0.14 1.678l0.947 1.332c-0.266 0.506-0.48 1.031-0.638 1.577l-1.577 0.266c-0.633 0.099-1.090 0.64-1.090 1.278v1.947c0 0.642 0.457 1.181 1.086 1.288l1.607 0.274c0.169 0.542 0.387 1.069 0.664 1.568l-0.928 1.298c-0.373 0.523-0.312 1.227 0.14 1.678l1.375 1.378c0.247 0.247 0.573 0.383 0.922 0.383 0.27 0 0.532-0.084 0.755-0.243l1.333-0.945c0.485 0.255 0.998 0.465 1.52 0.623l0.265 1.59c0.107 0.63 0.648 1.085 1.287 1.085h1.947c0.639 0 1.18-0.455 1.288-1.085l0.269-1.595c0.542-0.163 1.069-0.382 1.571-0.653l1.316 0.939c0.223 0.157 0.484 0.241 0.754 0.241 0.349 0 0.675-0.134 0.924-0.383l1.375-1.375c0.451-0.454 0.512-1.154 0.14-1.679l-0.937-1.318c0.27-0.505 0.484-1.025 0.651-1.571l1.59-0.266c0.629-0.107 1.086-0.65 1.086-1.285v-1.95c0-0.624-0.457-1.166-1.086-1.273zM21.625 12.97l-1.528 0.196c-0.514 0.086-0.936 0.454-1.088 0.954-0.142 0.467-0.322 0.901-0.548 1.324-0.246 0.461-0.21 1.021 0.092 1.445l0.938 1.317-1.366 1.286-1.224-0.945c-0.238-0.17-0.518-0.256-0.799-0.256-0.224 0-0.448 0.055-0.653 0.166-0.42 0.227-0.861 0.41-1.312 0.544-0.501 0.15-0.874 0.573-0.961 1.090l-0.258 1.533h-1.89l-0.198-1.524c-0.086-0.516-0.457-0.938-0.957-1.090-0.443-0.135-0.873-0.311-1.278-0.525-0.201-0.106-0.421-0.158-0.641-0.158-0.28 0-0.559 0.086-0.795 0.254l-1.333 0.945-1.284-1.367 0.933-1.204c0.309-0.431 0.342-1.002 0.085-1.467-0.219-0.395-0.406-0.837-0.554-1.312-0.154-0.493-0.571-0.857-1.080-0.944l-1.551-0.275v-1.88l1.521-0.188c0.52-0.089 0.945-0.466 1.091-0.975 0.13-0.449 0.31-0.893 0.534-1.317 0.242-0.46 0.205-1.015-0.096-1.438l-0.946-1.332 1.367-1.286 1.208 0.937c0.238 0.17 0.518 0.256 0.798 0.256 0.229 0 0.458-0.057 0.667-0.172 0.398-0.222 0.837-0.409 1.307-0.553 0.493-0.155 0.859-0.571 0.947-1.081l0.276-1.553h1.879l0.188 1.521c0.086 0.517 0.46 0.94 0.963 1.089 0.463 0.138 0.925 0.327 1.372 0.563 0.202 0.107 0.422 0.16 0.643 0.16 0.281 0 0.56-0.086 0.798-0.255l1.318-0.938 1.284 1.369-0.945 1.224c-0.303 0.426-0.339 0.987-0.092 1.447 0.229 0.426 0.413 0.87 0.548 1.317 0.151 0.5 0.572 0.87 1.086 0.958l1.536 0.271v1.869zM11.999 9.25c-1.52 0-2.749 1.23-2.749 2.75 0 1.521 1.229 2.75 2.749 2.75s2.751-1.229 2.751-2.75c0-1.52-1.231-2.75-2.751-2.75zM11.999 13.375c-0.758 0-1.374-0.616-1.374-1.375s0.616-1.375 1.374-1.375c0.759 0 1.376 0.616 1.376 1.375s-0.617 1.375-1.376 1.375z"></path>
</svg>
