<!-- Generated by IcoMoon.io -->
<svg version="1.1" xmlns="http://www.w3.org/2000/svg" width="24" height="24" viewBox="0 0 24 24">
<title>gear</title>
<path fill="#444" d="M22.815 9.541l-1.739-0.296c-0.177-0.588-0.417-1.162-0.712-1.713l1.023-1.434c0.407-0.572 0.341-1.338-0.153-1.832l-1.5-1.5c-0.27-0.273-0.627-0.417-1.008-0.417-0.294 0-0.581 0.091-0.823 0.262l-1.438 1.025c-0.566-0.298-1.155-0.543-1.77-0.726l-0.288-1.72c-0.108-0.692-0.698-1.191-1.394-1.191h-2.126c-0.697 0-1.287 0.5-1.404 1.185l-0.3 1.755c-0.589 0.183-1.164 0.421-1.709 0.723l-1.419-1.011c-0.243-0.175-0.528-0.266-0.824-0.266-0.381 0-0.738 0.149-1.008 0.416l-1.5 1.502c-0.492 0.492-0.558 1.261-0.151 1.832l1.032 1.454c-0.29 0.55-0.524 1.125-0.696 1.719l-1.719 0.29c-0.692 0.11-1.19 0.697-1.19 1.395v2.124c0 0.701 0.498 1.287 1.185 1.405l1.753 0.3c0.185 0.591 0.422 1.165 0.723 1.712l-1.013 1.415c-0.407 0.572-0.341 1.34 0.153 1.831l1.5 1.503c0.27 0.27 0.625 0.417 1.006 0.417 0.294 0 0.581-0.091 0.824-0.265l1.454-1.032c0.53 0.279 1.089 0.507 1.658 0.679l0.289 1.734c0.118 0.689 0.708 1.185 1.405 1.185h2.124c0.697 0 1.287-0.496 1.405-1.183l0.293-1.74c0.592-0.177 1.165-0.415 1.714-0.712l1.436 1.024c0.243 0.172 0.529 0.264 0.823 0.264 0.381 0 0.736-0.147 1.008-0.417l1.5-1.5c0.492-0.495 0.558-1.26 0.153-1.832l-1.023-1.439c0.294-0.55 0.53-1.119 0.711-1.714l1.734-0.289c0.685-0.119 1.184-0.71 1.184-1.404v-2.127c0-0.68-0.498-1.272-1.185-1.389zM22.5 13.058l-1.666 0.215c-0.561 0.093-1.022 0.496-1.188 1.041-0.156 0.51-0.351 0.982-0.598 1.444-0.268 0.503-0.23 1.113 0.101 1.577l1.023 1.438-1.491 1.402-1.335-1.032c-0.259-0.184-0.564-0.279-0.871-0.279-0.245 0-0.489 0.060-0.713 0.18-0.459 0.247-0.939 0.448-1.432 0.594-0.548 0.163-0.954 0.624-1.049 1.188l-0.28 1.674h-2.061l-0.214-1.663c-0.093-0.563-0.498-1.024-1.044-1.189-0.483-0.147-0.952-0.339-1.395-0.572-0.219-0.116-0.459-0.173-0.699-0.173-0.306 0-0.609 0.093-0.868 0.278l-1.452 1.030-1.401-1.491 1.017-1.314c0.337-0.47 0.373-1.093 0.093-1.599-0.238-0.432-0.442-0.914-0.603-1.434-0.17-0.537-0.624-0.934-1.179-1.029l-1.754-0.3 0.061-2.052 1.659-0.206c0.567-0.096 1.030-0.507 1.191-1.062 0.143-0.49 0.338-0.973 0.582-1.438 0.264-0.501 0.224-1.106-0.105-1.567l-1.032-1.452 1.491-1.404 1.317 1.023c0.259 0.184 0.565 0.278 0.872 0.278 0.25 0 0.5-0.062 0.728-0.188 0.435-0.242 0.915-0.446 1.426-0.603 0.537-0.168 0.936-0.623 1.032-1.179l0.302-1.755 2.050 0.061 0.204 1.659c0.095 0.564 0.503 1.026 1.052 1.188 0.505 0.151 1.008 0.357 1.497 0.615 0.22 0.117 0.46 0.174 0.7 0.174 0.306 0 0.611-0.093 0.87-0.279l1.439-1.025 1.401 1.494-1.032 1.335c-0.331 0.465-0.37 1.077-0.101 1.58 0.251 0.465 0.45 0.949 0.597 1.437 0.165 0.545 0.624 0.95 1.185 1.044l1.738 0.296-0.063 2.040zM12 9c-1.659 0-3 1.342-3 3 0 1.659 1.341 3 3 3 1.658 0 3-1.341 3-3 0-1.658-1.344-3-3-3zM12 13.5c-0.828 0-1.5-0.672-1.5-1.5s0.672-1.5 1.5-1.5c0.828 0 1.5 0.672 1.5 1.5s-0.674 1.5-1.5 1.5z"></path>
</svg>
