<!-- Generated by IcoMoon.io -->
<svg version="1.1" xmlns="http://www.w3.org/2000/svg" width="16" height="16" viewBox="0 0 16 16">
<title>glasses</title>
<path fill="#444" d="M12.5 5h-2.5c-0.552 0-1 0.447-1 1v0.078c-0.295-0.172-0.634-0.278-1-0.278s-0.705 0.106-1 0.278v-0.078c0-0.553-0.448-1-1-1h-2.5c-1.93 0-3.5 1.57-3.5 3.5v1.5c0 0.553 0.448 1 1 1h2.5c1.827 0 3.345-1.412 3.5-3.2v0c0-0.553 0.448-1 1-1s1 0.447 1 1v0c0.155 1.788 1.673 3.2 3.5 3.2h2.5c0.552 0 1-0.447 1-1v-1.5c0-1.93-1.57-3.5-3.5-3.5zM3.5 10h-2.5v-1.5c0-1.381 1.118-2.5 2.5-2.5h2.5v1.5c0 1.381-1.119 2.5-2.5 2.5zM15 10h-2.5c-1.381 0-2.5-1.119-2.5-2.5v-1.5h2.5c1.382 0 2.5 1.119 2.5 2.5v1.5z"></path>
</svg>
