<!-- Generated by IcoMoon.io -->
<svg version="1.1" xmlns="http://www.w3.org/2000/svg" width="24" height="24" viewBox="0 0 24 24">
<title>glasses</title>
<path fill="#444" d="M18.75 7.5h-3.75c-0.828 0-1.5 0.671-1.5 1.5v0.117c-0.442-0.258-0.951-0.417-1.5-0.417s-1.058 0.159-1.5 0.417v-0.117c0-0.83-0.672-1.5-1.5-1.5h-3.75c-2.895 0-5.25 2.355-5.25 5.25v2.25c0 0.83 0.672 1.5 1.5 1.5h3.75c2.74 0 5.018-2.118 5.25-4.8v0c0-0.829 0.672-1.5 1.5-1.5s1.5 0.671 1.5 1.5v0c0.232 2.682 2.509 4.8 5.25 4.8h3.75c0.828 0 1.5-0.67 1.5-1.5v-2.25c0-2.895-2.355-5.25-5.25-5.25zM5.25 15h-3.75v-2.25c0-2.072 1.677-3.75 3.75-3.75h3.75v2.25c0 2.072-1.678 3.75-3.75 3.75zM22.5 15h-3.75c-2.072 0-3.75-1.678-3.75-3.75v-2.25h3.75c2.073 0 3.75 1.678 3.75 3.75v2.25z"></path>
</svg>
