<!-- Generated by IcoMoon.io -->
<svg version="1.1" xmlns="http://www.w3.org/2000/svg" width="16" height="16" viewBox="0 0 16 16">
<title>googleplus</title>
<path fill="#444" d="M9.073 7.334c0.041 0.232 0.074 0.467 0.074 0.773 0 2.666-1.787 4.559-4.48 4.559-2.581 0-4.667-2.086-4.667-4.666s2.086-4.666 4.667-4.666c1.26 0 2.313 0.459 3.126 1.221l-1.266 1.218c-0.347-0.334-0.954-0.718-1.86-0.718-1.594 0-2.894 1.318-2.894 2.945 0 1.629 1.3 2.945 2.893 2.945 1.846 0 2.54-1.326 2.646-2.012h-2.645v-1.6h4.406zM14 7.334v-2h-1.333v2h-2v1.332h2v2h1.333v-2h2v-1.332h-2z"></path>
</svg>
