<!-- Generated by IcoMoon.io -->
<svg version="1.1" xmlns="http://www.w3.org/2000/svg" width="24" height="24" viewBox="0 0 24 24">
<title>googleplus</title>
<path d="M13.476 10.501c0.055 0.319 0.101 0.642 0.101 1.063 0 3.666-2.456 6.269-6.159 6.269-3.549 0-6.418-2.869-6.418-6.417s2.869-6.415 6.417-6.415c1.731 0 3.181 0.632 4.298 1.679l-1.74 1.675c-0.478-0.46-1.311-0.988-2.558-0.988-2.191 0-3.979 1.812-3.979 4.049 0 2.24 1.788 4.051 3.979 4.051 2.538 0 3.492-1.823 3.639-2.766h-3.639v-2.2h6.059zM20.249 10.501v-2.75h-1.832v2.75h-2.75v1.832h2.75v2.75h1.832v-2.75h2.751v-1.832h-2.751z"></path>
</svg>
