<!-- Generated by IcoMoon.io -->
<svg version="1.1" xmlns="http://www.w3.org/2000/svg" width="24" height="24" viewBox="0 0 24 24">
<title>googleplus</title>
<path fill="#444" d="M13.61 11.001c0.062 0.348 0.111 0.7 0.111 1.159 0 3.999-2.681 6.839-6.72 6.839-3.872 0-7-3.129-7-6.999s3.129-6.999 7-6.999c1.89 0 3.47 0.689 4.689 1.832l-1.899 1.827c-0.52-0.501-1.431-1.077-2.79-1.077-2.391 0-4.341 1.977-4.341 4.418 0 2.444 1.95 4.418 4.339 4.418 2.769 0 3.81-1.989 3.969-3.018h-3.968v-2.4h6.609zM21 11.001v-3h-2v3h-3v1.998h3v3h2v-3h3v-1.998h-3z"></path>
</svg>
