<!-- Generated by IcoMoon.io -->
<svg version="1.1" xmlns="http://www.w3.org/2000/svg" width="24" height="24" viewBox="0 0 24 24">
<title>graduation_cap</title>
<path fill="#444" d="M23.982 8.898c-0.026-0.199-0.098-0.366-0.204-0.517h-0.001c-0.080-0.102-0.152-0.206-0.277-0.294l-11.45-8.086-11.555 8.159c-0.105 0.076-0.168 0.163-0.234 0.249-0.128 0.163-0.216 0.343-0.243 0.563l-0.018 0.348 0.018 0.342c0.026 0.2 0.098 0.366 0.204 0.521l0.002-0.002c0.078 0.098 0.15 0.203 0.276 0.291l2.5 1.765v5.019h0.063c0.063 0.274 0.189 0.503 0.459 0.693l8.478 6.053 4.5-3.134v1.451c0.002 0.438 0.139 0.73 0.5 0.982l1 0.701v-4.176l2.478-1.726c0.361-0.254 0.522-0.537 0.522-0.974v-4.962l2.505-1.765c0.105-0.077 0.168-0.162 0.234-0.249 0.128-0.162 0.216-0.344 0.243-0.563l0.018-0.342-0.018-0.345zM12.5 21.821c-0.165 0.117-0.333 0.174-0.5 0.174s-0.335-0.057-0.5-0.174l-7-4.995v-3.53l7.45 5.26 4.55-3.213v3.693l-4 2.784zM19.5 16.948l-1.5 1.043v-3.708l1.5-1.061v3.726zM17.484 12.817c-0.003-0.001-0.003-0.005-0.006-0.006l-5.478-3.803v1.22c0 0.439 0.16 0.721 0.519 0.973l3.66 2.539-4.226 2.986-10.494-7.414 10.589-7.485 10.494 7.416-5.058 3.573z"></path>
</svg>
