<!-- Generated by IcoMoon.io -->
<svg version="1.1" xmlns="http://www.w3.org/2000/svg" width="16" height="16" viewBox="0 0 16 16">
<title>graduation_cap</title>
<path fill="#444" d="M15.988 5.932c-0.017-0.133-0.065-0.244-0.136-0.345h-0.001c-0.053-0.068-0.101-0.137-0.185-0.196l-7.633-5.391-7.703 5.439c-0.070 0.051-0.112 0.109-0.156 0.166-0.085 0.109-0.144 0.229-0.162 0.375l-0.012 0.232 0.012 0.228c0.017 0.133 0.065 0.244 0.136 0.347l0.001-0.001c0.052 0.065 0.1 0.135 0.184 0.194l1.667 1.177v3.346h0.042c0.042 0.183 0.126 0.335 0.306 0.462l5.652 4.035 3-2.089v0.967c0.001 0.292 0.093 0.487 0.333 0.655l0.667 0.467v-2.784l1.652-1.151c0.241-0.169 0.348-0.358 0.348-0.649v-3.308l1.67-1.177c0.070-0.051 0.112-0.108 0.156-0.166 0.085-0.108 0.144-0.229 0.162-0.375l0.012-0.228-0.012-0.23zM8.333 14.547c-0.11 0.078-0.222 0.116-0.333 0.116s-0.223-0.038-0.333-0.116l-4.667-3.33v-2.353l4.967 3.507 3.033-2.142v2.462l-2.667 1.856zM13 11.299l-1 0.695v-2.472l1-0.707v2.484zM11.656 8.545c-0.002-0.001-0.002-0.003-0.004-0.004l-3.652-2.535v0.813c0 0.293 0.107 0.481 0.346 0.649l2.44 1.693-2.817 1.991-6.996-4.943 7.059-4.99 6.996 4.944-3.372 2.382z"></path>
</svg>
