<!-- Generated by IcoMoon.io -->
<svg version="1.1" xmlns="http://www.w3.org/2000/svg" width="24" height="24" viewBox="0 0 24 24">
<title>hammer</title>
<path fill="#444" d="M22.063 5.4l-1.224-0.86c-0.253-0.178-0.553-0.273-0.86-0.273-0.087 0-0.172 0.009-0.259 0.023-0.391 0.071-0.738 0.291-0.966 0.615l-0.015 0.022-6.714-4.659c-0.255-0.177-0.555-0.268-0.854-0.268-0.237 0-0.476 0.057-0.694 0.171-0.493 0.259-0.803 0.768-0.803 1.326l0.002 1.216c0 0.912 0.386 1.652 1.176 2.212l1.635 1.101c-1.182 1.686-4.884 6.981-10.918 15.621-0.319 0.459-0.357 1.053-0.099 1.548 0.257 0.494 0.768 0.804 1.325 0.804 0.002 0 1.218-0.002 1.218-0.002 0.913 0 1.651-0.386 2.197-1.154l9.943-14.226c-0.441 0.674-0.27 1.581 0.393 2.044l1.226 0.858c0.254 0.178 0.553 0.273 0.858 0.273 0.087 0 0.173-0.008 0.26-0.022 0.391-0.071 0.738-0.291 0.967-0.617l2.574-3.675c0.472-0.676 0.309-1.609-0.367-2.080zM18.675 10.263l-1.227-0.861 0.86-1.227-2.459-1.722-10.855 15.53c-0.253 0.355-0.534 0.516-0.973 0.516l-1.221 0.002c0 0 11.778-16.858 11.823-16.908l-2.904-1.96c-0.358-0.255-0.519-0.534-0.519-0.974l-0.002-1.221 7.959 5.524 0.873-1.245 1.227 0.861-2.582 3.686z"></path>
</svg>
