<!-- Generated by IcoMoon.io -->
<svg version="1.1" xmlns="http://www.w3.org/2000/svg" width="16" height="16" viewBox="0 0 16 16">
<title>hammer</title>
<path fill="#444" d="M14.709 3.6l-0.816-0.573c-0.169-0.119-0.369-0.182-0.573-0.182-0.058 0-0.115 0.006-0.173 0.015-0.261 0.047-0.492 0.194-0.644 0.41l-0.010 0.015-4.476-3.106c-0.17-0.118-0.37-0.179-0.569-0.179-0.158 0-0.317 0.038-0.463 0.114-0.329 0.173-0.535 0.512-0.535 0.884l0.001 0.811c0 0.608 0.257 1.101 0.784 1.475l1.090 0.734c-0.788 1.124-3.256 4.654-7.279 10.414-0.213 0.306-0.238 0.702-0.066 1.032s0.512 0.536 0.883 0.536c0.001 0 0.812-0.001 0.812-0.001 0.609 0 1.101-0.257 1.465-0.769l6.629-9.484c-0.294 0.449-0.18 1.054 0.262 1.363l0.817 0.572c0.169 0.119 0.369 0.182 0.572 0.182 0.058 0 0.115-0.005 0.173-0.015 0.261-0.047 0.492-0.194 0.645-0.411l1.716-2.45c0.315-0.451 0.206-1.073-0.245-1.387zM12.45 6.842l-0.818-0.574 0.573-0.818-1.639-1.148-7.237 10.353c-0.169 0.237-0.356 0.344-0.649 0.344l-0.814 0.001c0 0 7.852-11.239 7.882-11.272l-1.936-1.307c-0.239-0.17-0.346-0.356-0.346-0.649l-0.001-0.814 5.306 3.683 0.582-0.83 0.818 0.574-1.721 2.457z"></path>
</svg>
