<!-- Generated by IcoMoon.io -->
<svg version="1.1" xmlns="http://www.w3.org/2000/svg" width="24" height="24" viewBox="0 0 24 24">
<title>hammer</title>
<path fill="#444" d="M21.225 5.949l-1.123-0.788c-0.232-0.164-0.508-0.25-0.789-0.25-0.079 0-0.158 0.009-0.237 0.021-0.359 0.064-0.677 0.268-0.885 0.564l-0.013 0.020-6.155-4.27c-0.234-0.163-0.508-0.246-0.782-0.246-0.217 0-0.436 0.053-0.636 0.157-0.453 0.238-0.736 0.703-0.736 1.215l0.001 1.114c0 0.837 0.353 1.514 1.078 2.028l1.499 1.010c-1.083 1.545-4.477 6.4-10.009 14.32-0.292 0.42-0.328 0.965-0.091 1.419 0.236 0.452 0.705 0.737 1.215 0.737 0.001 0 1.116 0 1.116 0 0.838 0 1.514-0.354 2.014-1.059l9.115-13.041c-0.404 0.618-0.247 1.449 0.36 1.875l1.124 0.787c0.232 0.164 0.508 0.25 0.787 0.25 0.079 0 0.158-0.007 0.237-0.021 0.359-0.064 0.677-0.268 0.886-0.565l2.359-3.369c0.434-0.62 0.285-1.475-0.335-1.908zM18.119 10.407l-1.125-0.789 0.789-1.126-2.253-1.578-9.952 14.237c-0.232 0.326-0.49 0.473-0.893 0.473l-1.119 0.001c0 0 10.796-15.454 10.838-15.5l-2.663-1.796c-0.329-0.234-0.475-0.49-0.475-0.894l-0.001-1.118 7.295 5.063 0.8-1.142 1.125 0.79-2.366 3.379z"></path>
</svg>
