<!-- Generated by IcoMoon.io -->
<svg version="1.1" xmlns="http://www.w3.org/2000/svg" width="24" height="24" viewBox="0 0 24 24">
<title>hand</title>
<path fill="#444" d="M12.433 12.28c-0.541 0.085-1.261 0.129-2.137 0.129-0.204 0-0.437-0.008-0.671-0.018-0.361-0.068-0.628-0.236-0.819-0.577l-0.582-1.043c0.258 0.016 1.395 0.118 2.084 0.118 0.777 0 1.412-0.039 1.886-0.114 0.141-0.024 0.249-0.062 0.331-0.122l-3.525-1.272c-0.297-0.093-0.627-0.139-0.982-0.139-1.253 0-2.424 0.569-2.553 0.633l-3.283 1.976c-0.36 0.197-0.696 0.219-1.080 0.045l-1.099-0.491c0 0-0.011-0.018 0.019-0.034l4.681-2.831c0.157-0.082 1.61-0.828 3.327-0.828 0.501 0 0.975 0.067 1.409 0.198l4.314 1.303c0.299 0.093 0.51 0.353 0.542 0.665 0.080 0.835-0.351 2.162-1.86 2.401zM23.904 8.142c-0.312-0.572-1.043-1.234-2.070-1.234-0.369 0-0.755 0.087-1.148 0.261-0.779 0.345-2.835 1.326-4.155 1.959-0.299 0.194-0.752 0.556-0.804 0.934l-0.165 1.163c0.069-0.014 0.138-0.017 0.208-0.051 0 0 4.325-2.076 5.532-2.61 0.052-0.024 0.108-0.045 0.172-0.045 0.072 0 0.144 0.029 0.225 0.159l-7.455 5.463c-0.417 0.307-0.941 0.477-1.475 0.477-0.126 0-0.252-0.009-0.377-0.028l-7.254-1.148c-0.18 0-0.356 0.061-0.497 0.172l-1.39 1.237c-0.335 0.289-0.462 0.617-0.417 1.059 0 0 0.141 1.218 0.183 1.182l2.394-2.076 6.744 1.080c0.208 0.032 0.42 0.048 0.63 0.048 0.845 0 1.688-0.274 2.37-0.773l8.541-6.254c0.302-0.229 0.39-0.642 0.206-0.976z"></path>
</svg>
