<!-- Generated by IcoMoon.io -->
<svg version="1.1" xmlns="http://www.w3.org/2000/svg" width="24" height="24" viewBox="0 0 24 24">
<title>hand</title>
<path fill="#444" d="M12.397 12.256c-0.496 0.082-1.157 0.123-1.958 0.123-0.189 0-0.402-0.012-0.617-0.018-0.329-0.064-0.575-0.217-0.752-0.533l-0.53-0.953c0.236 0.012 1.278 0.109 1.91 0.109 0.711 0 1.293-0.039 1.729-0.105 0.129-0.021 0.228-0.059 0.303-0.111l-3.232-1.17c-0.271-0.084-0.577-0.127-0.901-0.127-1.149 0-2.223 0.525-2.341 0.58l-3.009 1.814c-0.33 0.178-0.637 0.199-0.99 0.043l-1.008-0.451c0 0-0.010-0.018 0.019-0.035l4.29-2.596c0.146-0.072 1.478-0.758 3.050-0.758 0.46 0 0.894 0.062 1.291 0.186l3.957 1.191c0.272 0.084 0.466 0.322 0.496 0.613 0.070 0.762-0.323 1.981-1.707 2.198zM22.912 8.461c-0.288-0.521-0.956-1.129-1.898-1.129-0.337 0-0.691 0.076-1.052 0.238-0.712 0.317-2.598 1.213-3.807 1.793-0.275 0.182-0.688 0.512-0.738 0.857l-0.151 1.068c0.063-0.016 0.127-0.018 0.192-0.047 0 0 3.964-1.904 5.071-2.396 0.047-0.021 0.098-0.041 0.159-0.041 0.065 0 0.131 0.029 0.206 0.146l-6.833 5.008c-0.384 0.281-0.865 0.441-1.352 0.441-0.116 0-0.232-0.012-0.345-0.023l-6.65-1.053c-0.166 0-0.327 0.053-0.456 0.156l-1.273 1.135c-0.309 0.265-0.427 0.566-0.385 0.972 0 0 0.129 1.115 0.168 1.080l2.194-1.898 6.18 0.988c0.192 0.027 0.385 0.045 0.578 0.045 0.774 0 1.546-0.254 2.172-0.709l7.83-5.732c0.278-0.214 0.359-0.589 0.19-0.899z"></path>
</svg>
