<!-- Generated by IcoMoon.io -->
<svg version="1.1" xmlns="http://www.w3.org/2000/svg" width="16" height="16" viewBox="0 0 16 16">
<title>hand</title>
<path fill="#444" d="M8.289 8.187c-0.361 0.057-0.841 0.086-1.425 0.086-0.136 0-0.291-0.005-0.447-0.012-0.241-0.045-0.419-0.157-0.546-0.385l-0.388-0.695c0.172 0.011 0.93 0.079 1.389 0.079 0.518 0 0.941-0.026 1.257-0.076 0.094-0.016 0.166-0.041 0.221-0.081l-2.35-0.848c-0.198-0.062-0.418-0.093-0.655-0.093-0.835 0-1.616 0.379-1.702 0.422l-2.189 1.317c-0.24 0.131-0.464 0.146-0.72 0.030l-0.733-0.327c0 0-0.007-0.012 0.013-0.023l3.121-1.887c0.105-0.055 1.073-0.552 2.218-0.552 0.334 0 0.65 0.045 0.939 0.132l2.876 0.869c0.199 0.062 0.34 0.235 0.361 0.443 0.053 0.557-0.234 1.441-1.24 1.601zM15.936 5.428c-0.208-0.381-0.695-0.823-1.38-0.823-0.246 0-0.503 0.058-0.765 0.174-0.519 0.23-1.89 0.884-2.77 1.306-0.199 0.129-0.501 0.371-0.536 0.623l-0.11 0.775c0.046-0.009 0.092-0.011 0.139-0.034 0 0 2.883-1.384 3.688-1.74 0.035-0.016 0.072-0.030 0.115-0.030 0.048 0 0.096 0.019 0.15 0.106l-4.97 3.642c-0.278 0.205-0.627 0.318-0.983 0.318-0.084 0-0.168-0.006-0.251-0.019l-4.836-0.765c-0.12 0-0.237 0.041-0.331 0.115l-0.927 0.825c-0.223 0.193-0.308 0.411-0.278 0.706 0 0 0.094 0.812 0.122 0.788l1.596-1.384 4.496 0.72c0.139 0.021 0.28 0.032 0.42 0.032 0.563 0 1.125-0.183 1.58-0.515l5.694-4.169c0.201-0.153 0.26-0.428 0.137-0.651z"></path>
</svg>
