<!-- Generated by IcoMoon.io -->
<svg version="1.1" xmlns="http://www.w3.org/2000/svg" width="24" height="24" viewBox="0 0 24 24">
<title>headphones</title>
<path fill="#444" d="M12 1c-6.065 0-11 4.935-11 11v8.594c0 1.329 1.077 2.406 2.406 2.406h4.469v-7.219c0-1.329-1.077-2.406-2.406-2.406h-3.094v-1.375c0-5.307 4.318-9.625 9.625-9.625s9.625 4.318 9.625 9.625v1.375h-3.094c-1.329 0-2.406 1.077-2.406 2.406v7.219h4.469c1.329 0 2.406-1.077 2.406-2.406v-8.594c0-6.065-4.935-11-11-11zM5.469 14.75c0.569 0 1.031 0.463 1.031 1.031v5.844h-3.094c-0.569 0-1.031-0.463-1.031-1.031v-5.844h3.094zM21.625 20.594c0 0.568-0.462 1.031-1.031 1.031h-3.094v-5.844c0-0.568 0.462-1.031 1.031-1.031h3.094v5.844z"></path>
</svg>
