<!-- Generated by IcoMoon.io -->
<svg version="1.1" xmlns="http://www.w3.org/2000/svg" width="16" height="16" viewBox="0 0 16 16">
<title>headphones</title>
<path fill="#444" d="M8 0c-4.411 0-8 3.589-8 8v6.25c0 0.967 0.783 1.75 1.75 1.75h3.25v-5.25c0-0.967-0.783-1.75-1.75-1.75h-2.25v-1c0-3.859 3.14-7 7-7s7 3.141 7 7v1h-2.25c-0.967 0-1.75 0.783-1.75 1.75v5.25h3.25c0.967 0 1.75-0.783 1.75-1.75v-6.25c0-4.411-3.589-8-8-8zM3.25 10c0.414 0 0.75 0.337 0.75 0.75v4.25h-2.25c-0.414 0-0.75-0.337-0.75-0.75v-4.25h2.25zM15 14.25c0 0.413-0.336 0.75-0.75 0.75h-2.25v-4.25c0-0.413 0.336-0.75 0.75-0.75h2.25v4.25z"></path>
</svg>
