<!-- Generated by IcoMoon.io -->
<svg version="1.1" xmlns="http://www.w3.org/2000/svg" width="24" height="24" viewBox="0 0 24 24">
<title>headphones</title>
<path fill="#444" d="M12 0c-6.616 0-12 5.383-12 12v9.375c0 1.451 1.175 2.625 2.625 2.625h4.875v-7.875c0-1.451-1.175-2.625-2.625-2.625h-3.375v-1.5c0-5.788 4.71-10.5 10.5-10.5s10.5 4.712 10.5 10.5v1.5h-3.375c-1.451 0-2.625 1.174-2.625 2.625v7.875h4.875c1.451 0 2.625-1.174 2.625-2.625v-9.375c0-6.616-5.384-12-12-12zM4.875 15c0.621 0 1.125 0.505 1.125 1.125v6.375h-3.375c-0.621 0-1.125-0.505-1.125-1.125v-6.375h3.375zM22.5 21.375c0 0.62-0.504 1.125-1.125 1.125h-3.375v-6.375c0-0.62 0.504-1.125 1.125-1.125h3.375v6.375z"></path>
</svg>
