<!-- Generated by IcoMoon.io -->
<svg version="1.1" xmlns="http://www.w3.org/2000/svg" width="24" height="24" viewBox="0 0 24 24">
<title>heart</title>
<path fill="#444" d="M22.151 3.36c0 0-0.002-0.002-0.002-0.005-2.465-2.474-6.463-2.475-8.931 0-0.001 0-0.001 0-0.001 0l-1.218 1.224-1.216-1.224c-2.467-2.474-6.466-2.474-8.934 0-2.465 2.476-2.465 6.486 0 8.964l10.151 10.18 10.15-10.18c2.468-2.476 2.468-6.483 0.002-8.96zM21.087 11.261l-9.088 9.115-9.088-9.115c-1.876-1.887-1.876-4.959 0-6.846 0.911-0.912 2.12-1.415 3.405-1.415s2.495 0.503 3.405 1.415l1.215 1.221c0.282 0.282 0.663 0.442 1.062 0.442v0c0.399 0 0.782-0.157 1.062-0.441l1.221-1.223c0.909-0.912 2.12-1.415 3.405-1.415 1.263 0 2.453 0.485 3.355 1.368 0.017 0.018 0.033 0.035 0.051 0.053 1.875 1.884 1.873 4.953-0.005 6.84z"></path>
</svg>
