<!-- Generated by IcoMoon.io -->
<svg version="1.1" xmlns="http://www.w3.org/2000/svg" width="24" height="24" viewBox="0 0 24 24">
<title>heart</title>
<path fill="#444" d="M21.305 4.079c0 0-0.001-0.001-0.001-0.003-2.258-2.268-5.923-2.27-8.187 0-0.001 0-0.001 0-0.001 0l-1.117 1.119-1.115-1.119c-2.261-2.268-5.928-2.268-8.189 0-2.259 2.271-2.259 5.946 0 8.219l9.305 9.33 9.305-9.33c2.26-2.273 2.26-5.946 0-8.216zM20.33 11.32l-8.331 8.357-8.332-8.357c-1.72-1.727-1.72-4.544 0.002-6.276 0.832-0.834 1.941-1.295 3.121-1.295 1.179 0 2.287 0.461 3.12 1.296l1.114 1.122c0.258 0.258 0.609 0.403 0.975 0.403v0c0.365 0 0.714-0.142 0.975-0.401l1.116-1.124c0.834-0.835 1.944-1.296 3.121-1.296 1.159 0 2.25 0.446 3.077 1.254 0.015 0.017 0.030 0.034 0.047 0.049 1.718 1.726 1.717 4.541-0.005 6.268z"></path>
</svg>
