<!-- Generated by IcoMoon.io -->
<svg version="1.1" xmlns="http://www.w3.org/2000/svg" width="16" height="16" viewBox="0 0 16 16">
<title>heart</title>
<path fill="#444" d="M14.767 2.24c0 0-0.001-0.001-0.001-0.003-1.643-1.649-4.309-1.65-5.954 0-0.001 0-0.001 0-0.001 0l-0.812 0.816-0.811-0.816c-1.645-1.649-4.311-1.649-5.956 0-1.643 1.651-1.643 4.324 0 5.976l6.767 6.787 6.767-6.787c1.645-1.651 1.645-4.322 0.001-5.973zM14.058 7.507l-6.059 6.077-6.059-6.077c-1.251-1.258-1.251-3.306 0-4.564 0.607-0.608 1.413-0.943 2.27-0.943s1.663 0.335 2.27 0.943l0.81 0.814c0.188 0.188 0.442 0.295 0.708 0.295v0c0.266 0 0.521-0.105 0.708-0.294l0.814-0.815c0.606-0.608 1.413-0.943 2.27-0.943 0.842 0 1.635 0.323 2.237 0.912 0.011 0.012 0.022 0.023 0.034 0.035 1.25 1.256 1.249 3.302-0.003 4.56z"></path>
</svg>
