<!-- Generated by IcoMoon.io -->
<svg version="1.1" xmlns="http://www.w3.org/2000/svg" width="24" height="24" viewBox="0 0 24 24">
<title>home</title>
<path fill="#444" d="M23 9.335c0-0.403-0.148-0.662-0.477-0.896l-10.523-7.439-10.523 7.396c-0.329 0.234-0.477 0.493-0.477 0.896v1.118l0.688-0.48v10.836c0 1.229 1.028 2.234 2.29 2.234h3.897c0.76 0 1.375-0.624 1.375-1.396v-5.479h5.5v5.479c0 0.772 0.615 1.396 1.375 1.396h3.897c1.261 0 2.29-1.005 2.29-2.234v-10.801l0.688 0.488v-1.118zM20.938 20.766c0 0.466-0.41 0.859-0.915 0.859h-3.897v-6.195c0-0.387-0.309-0.68-0.688-0.68h-6.876c-0.379 0-0.688 0.293-0.688 0.68v6.195h-3.896c-0.505 0-0.916-0.372-0.916-0.838v-11.83l8.479-5.958c0.154-0.107 0.307-0.159 0.459-0.159s0.305 0.052 0.459 0.159l8.479 5.995v11.772z"></path>
</svg>
