<!-- Generated by IcoMoon.io -->
<svg version="1.1" xmlns="http://www.w3.org/2000/svg" width="24" height="24" viewBox="0 0 24 24">
<title>home</title>
<path fill="#444" d="M24 9.093c0-0.438-0.16-0.72-0.522-0.973l-11.478-8.12-11.478 8.072c-0.361 0.253-0.522 0.536-0.522 0.973v1.22l0.75-0.528v11.825c0 1.345 1.122 2.439 2.5 2.439h4.249c0.828 0 1.5-0.681 1.5-1.524v-5.976h6v5.976c0 0.843 0.672 1.524 1.5 1.524h4.251c1.377 0 2.499-1.093 2.499-2.438v-11.781l0.75 0.531v-1.219zM21.75 21.563c0 0.505-0.448 0.938-0.999 0.938h-4.251v-6.762c0-0.421-0.336-0.738-0.75-0.738h-7.5c-0.414 0-0.75 0.317-0.75 0.738v6.762h-4.25c-0.552 0-1.001-0.408-1.001-0.913v-12.903l9.25-6.502c0.165-0.117 0.333-0.177 0.5-0.177s0.335 0.060 0.5 0.177l9.25 6.54v12.841z"></path>
</svg>
