<!-- Generated by IcoMoon.io -->
<svg version="1.1" xmlns="http://www.w3.org/2000/svg" width="16" height="16" viewBox="0 0 16 16">
<title>home</title>
<path fill="#444" d="M16 6.062c0-0.292-0.107-0.48-0.348-0.649l-7.652-5.413-7.652 5.381c-0.241 0.169-0.348 0.357-0.348 0.649v0.813l0.5-0.352v7.883c0 0.897 0.748 1.626 1.667 1.626h2.833c0.552 0 1-0.454 1-1.016v-3.984h4v3.984c0 0.562 0.448 1.016 1 1.016h2.834c0.918 0 1.666-0.729 1.666-1.625v-7.854l0.5 0.354v-0.813zM14.5 14.375c0 0.337-0.299 0.625-0.666 0.625h-2.834v-4.508c0-0.281-0.224-0.492-0.5-0.492h-5c-0.276 0-0.5 0.211-0.5 0.492v4.508h-2.833c-0.368 0-0.667-0.272-0.667-0.609v-8.602l6.167-4.335c0.11-0.078 0.222-0.118 0.333-0.118s0.223 0.040 0.333 0.118l6.167 4.36v8.561z"></path>
</svg>
