<!-- Generated by IcoMoon.io -->
<svg version="1.1" xmlns="http://www.w3.org/2000/svg" width="24" height="24" viewBox="0 0 24 24">
<title>hospital</title>
<path fill="#444" d="M18.75 0h-13.5c-0.828 0-1.5 0.67-1.5 1.5v21c0 0.83 0.672 1.5 1.5 1.5h4.467c0.828 0 1.533-0.67 1.533-1.5v-3h1.5v3c0 0.83 0.639 1.5 1.467 1.5h4.533c0.828 0 1.5-0.67 1.5-1.5v-21c0-0.83-0.672-1.5-1.5-1.5zM18.75 22.5h-4.5v-3.75c0-0.414-0.336-0.75-0.75-0.75h-3c-0.414 0-0.75 0.336-0.75 0.75v3.75h-4.5v-21h13.5v21zM14.25 6h-1.5v1.5h-1.5v-1.5h-1.5v-1.5h1.5v-1.5h1.5v1.5h1.5v1.5zM10.5 15l-0.693 1c-0.251 0.36-0.54 0.498-0.976 0.5h-2.081v-1.5h3.75zM10.5 12l-0.693 1c-0.251 0.36-0.541 0.498-0.976 0.5h-2.081v-1.5h3.75zM10.5 9l-0.693 1c-0.251 0.36-0.541 0.498-0.976 0.5h-2.081v-1.5h3.75zM17.25 15l-0.693 1c-0.251 0.36-0.54 0.498-0.977 0.5h-2.081v-1.5h3.75zM17.25 12l-0.693 1c-0.251 0.36-0.54 0.498-0.977 0.5h-2.081v-1.5h3.75zM17.25 9l-0.693 1c-0.251 0.36-0.54 0.498-0.977 0.5h-2.081v-1.5h3.75z"></path>
</svg>
