<!-- Generated by IcoMoon.io -->
<svg version="1.1" xmlns="http://www.w3.org/2000/svg" width="16" height="16" viewBox="0 0 16 16">
<title>hospital</title>
<path fill="#444" d="M12.5 0h-9c-0.552 0-1 0.447-1 1v14c0 0.553 0.448 1 1 1h2.978c0.552 0 1.022-0.447 1.022-1v-2h1v2c0 0.553 0.426 1 0.978 1h3.022c0.552 0 1-0.447 1-1v-14c0-0.553-0.448-1-1-1zM12.5 15h-3v-2.5c0-0.276-0.224-0.5-0.5-0.5h-2c-0.276 0-0.5 0.224-0.5 0.5v2.5h-3v-14h9v14zM9.5 4h-1v1h-1v-1h-1v-1h1v-1h1v1h1v1zM7 10l-0.462 0.667c-0.167 0.24-0.36 0.332-0.651 0.333h-1.387v-1h2.5zM7 8l-0.462 0.667c-0.167 0.24-0.361 0.332-0.651 0.333h-1.387v-1h2.5zM7 6l-0.462 0.667c-0.167 0.24-0.361 0.332-0.651 0.333h-1.387v-1h2.5zM11.5 10l-0.462 0.667c-0.167 0.24-0.36 0.332-0.651 0.333h-1.387v-1h2.5zM11.5 8l-0.462 0.667c-0.167 0.24-0.36 0.332-0.651 0.333h-1.387v-1h2.5zM11.5 6l-0.462 0.667c-0.167 0.24-0.36 0.332-0.651 0.333h-1.387v-1h2.5z"></path>
</svg>
