<!-- Generated by IcoMoon.io -->
<svg version="1.1" xmlns="http://www.w3.org/2000/svg" width="24" height="24" viewBox="0 0 24 24">
<title>hospital</title>
<path fill="#444" d="M18.188 1h-12.376c-0.76 0-1.375 0.617-1.375 1.375v19.25c0.001 0.758 0.615 1.375 1.375 1.375h4.094c0.76 0 1.406-0.617 1.406-1.375v-2.75h1.375v2.75c0 0.758 0.584 1.375 1.344 1.375h4.156c0.76 0 1.375-0.617 1.375-1.375v-19.25c0-0.758-0.614-1.375-1.374-1.375zM18.188 21.625h-4.125v-3.438c0-0.382-0.309-0.688-0.688-0.688h-2.75c-0.379 0-0.688 0.306-0.688 0.688v3.438h-4.125v-19.25h12.376v19.25zM16.812 6.5h-1.375v1.375h-1.375v-1.375h-1.375v-1.375h1.375v-1.375h1.375v1.375h1.375v1.375zM10.625 14.75l-0.635 0.919c-0.228 0.328-0.495 0.455-0.894 0.456h-1.908v-1.375h3.437zM10.625 12l-0.635 0.919c-0.228 0.328-0.495 0.455-0.894 0.456h-1.908v-1.375h3.437zM10.625 9.25l-0.635 0.919c-0.228 0.328-0.495 0.455-0.894 0.456h-1.908v-1.375h3.437zM10.625 6.5l-0.635 0.919c-0.228 0.328-0.495 0.455-0.894 0.456h-1.908v-1.375h3.437zM10.625 3.75l-0.635 0.919c-0.228 0.328-0.495 0.455-0.894 0.456h-1.908v-1.375h3.437zM16.812 14.75l-0.635 0.919c-0.228 0.328-0.495 0.455-0.894 0.456h-1.908v-1.375h3.437zM16.812 12l-0.635 0.919c-0.228 0.328-0.495 0.455-0.894 0.456h-1.908v-1.375h3.437zM16.812 9.25l-0.635 0.919c-0.228 0.328-0.495 0.455-0.894 0.456h-1.908v-1.375h3.437z"></path>
</svg>
