<!-- Generated by IcoMoon.io -->
<svg version="1.1" xmlns="http://www.w3.org/2000/svg" width="24" height="24" viewBox="0 0 24 24">
<title>hourglass</title>
<path fill="#444" d="M10.835 12.495l-7.086 10.005h-0.541c-0.439 0.002-0.732 0.139-0.984 0.5l-0.699 1h20.976l-0.699-1c-0.251-0.36-0.544-0.498-0.984-0.5h-0.588l-7.086-10.005c-0.405-0.495-0.405-0.495 0.023-0.99l7.086-10.005h0.542c0.439-0.002 0.732-0.139 0.984-0.499l0.699-1.001h-20.976l0.699 1.001c0.252 0.36 0.545 0.498 0.984 0.499h0.588l7.086 10.005c0.231 0.495 0.231 0.495-0.023 0.99zM5.569 1.5h12.885l-6.444 9.040-6.441-9.040zM18.431 22.5h-12.885l6.444-9.041 6.441 9.041zM15.659 21h-7.342l1.125-1.5h5.094l1.124 1.5zM13.486 6h-2.997l-0.975-1.5h4.945l-0.973 1.5z"></path>
</svg>
