<!-- Generated by IcoMoon.io -->
<svg version="1.1" xmlns="http://www.w3.org/2000/svg" width="16" height="16" viewBox="0 0 16 16">
<title>hourglass</title>
<path fill="#444" d="M7.223 8.33l-4.724 6.67h-0.361c-0.293 0.001-0.488 0.093-0.656 0.333l-0.466 0.667h13.984l-0.466-0.667c-0.167-0.24-0.363-0.332-0.656-0.333h-0.392l-4.724-6.67c-0.27-0.33-0.27-0.33 0.015-0.66l4.724-6.67h0.361c0.293-0.001 0.488-0.093 0.656-0.333l0.466-0.667h-13.984l0.466 0.667c0.168 0.24 0.363 0.332 0.656 0.333h0.392l4.724 6.67c0.154 0.33 0.154 0.33-0.015 0.66zM3.713 1h8.59l-4.296 6.027-4.294-6.027zM12.287 15h-8.59l4.296-6.027 4.294 6.027zM10.439 14h-4.895l0.75-1h3.396l0.749 1zM8.991 4h-1.998l-0.65-1h3.297l-0.649 1z"></path>
</svg>
