<!-- Generated by IcoMoon.io -->
<svg version="1.1" xmlns="http://www.w3.org/2000/svg" width="60" height="16" viewBox="0 0 60 16">
<title>ifeed</title>
<path fill="#444" d="M4.001 0c-2.21 0-4.001 1.79-4.001 4v12h12.001c2.209 0 4-1.791 4-4v-12h-12zM14.501 12c0 1.381-1.119 2.5-2.5 2.5h-10.5v-10.5c0-1.381 1.118-2.5 2.5-2.5h10.5v10.5zM11.044 3c-0.722 0-1.226 0.262-1.64 0.853l-6.403 9.147h1.957c0.72 0 1.225-0.263 1.639-0.853l6.404-9.147h-1.957zM49.941 6.268c-0.602-0.706-1.469-1.058-2.599-1.058-0.484 0-0.959 0.092-1.422 0.274s-0.873 0.457-1.227 0.823c-0.357 0.366-0.641 0.827-0.857 1.381-0.215 0.556-0.322 1.203-0.322 1.946 0 0.635 0.082 1.219 0.25 1.752 0.166 0.533 0.424 0.994 0.768 1.381 0.344 0.389 0.783 0.693 1.316 0.912 0.533 0.223 1.164 0.332 1.896 0.332 0.584 0 1.104-0.053 1.561-0.162 0.457-0.107 0.779-0.209 0.961-0.305-0.195-0.637-0.777-1.008-1.434-0.914-0.359 0.049-0.564 0.057-0.926 0.057-0.937 0-1.624-0.227-2.065-0.678-0.441-0.455-0.695-1.116-0.76-1.987h5.751c0.010-0.088 0.016-0.181 0.016-0.283v-0.251c-0.001-1.441-0.304-2.515-0.907-3.22zM45.114 8.811c0.031-0.29 0.098-0.576 0.201-0.855 0.102-0.28 0.246-0.527 0.43-0.743 0.182-0.216 0.406-0.39 0.668-0.525 0.264-0.134 0.568-0.2 0.912-0.2 0.614 0 1.097 0.217 1.446 0.653 0.348 0.437 0.52 0.993 0.51 1.671h-4.167zM41.253 6.268c-0.602-0.706-1.469-1.058-2.599-1.058-0.484 0-0.959 0.092-1.422 0.274s-0.873 0.457-1.227 0.823c-0.357 0.366-0.641 0.827-0.857 1.381-0.215 0.556-0.322 1.203-0.322 1.946 0 0.635 0.082 1.219 0.25 1.752 0.166 0.533 0.424 0.994 0.768 1.381 0.344 0.389 0.783 0.693 1.316 0.912 0.533 0.223 1.164 0.332 1.896 0.332 0.584 0 1.104-0.053 1.561-0.162 0.457-0.107 0.779-0.209 0.961-0.305-0.195-0.637-0.777-1.008-1.434-0.914-0.359 0.049-0.564 0.057-0.926 0.057-0.937 0-1.624-0.227-2.065-0.678-0.441-0.455-0.695-1.116-0.76-1.987h5.751c0.010-0.088 0.016-0.181 0.016-0.283v-0.251c0-1.441-0.303-2.515-0.907-3.22zM36.426 8.811c0.031-0.29 0.098-0.576 0.201-0.855 0.102-0.28 0.246-0.527 0.43-0.743 0.182-0.216 0.406-0.39 0.668-0.525 0.264-0.134 0.568-0.2 0.912-0.2 0.614 0 1.097 0.217 1.446 0.653 0.348 0.437 0.52 0.993 0.51 1.671h-4.167zM25.987 6.948v6.888c0.827 0 1.5-0.672 1.5-1.5v-6.888c-0.829 0-1.5 0.672-1.5 1.5zM25.766 2.941c0 0.535 0.434 0.97 0.97 0.97s0.97-0.435 0.97-0.97c0-0.536-0.435-0.971-0.97-0.971-0.536 0-0.97 0.435-0.97 0.971zM59.309 2.869c-0.686 0-1.243 0.558-1.243 1.241v1.518c-0.126-0.059-0.269-0.121-0.43-0.184-0.403-0.154-0.879-0.234-1.413-0.234-0.596 0-1.132 0.109-1.592 0.322-0.468 0.215-0.867 0.516-1.188 0.898-0.317 0.377-0.563 0.834-0.728 1.357-0.162 0.512-0.243 1.307-0.243 1.918 0 0.654 0.098 1.252 0.291 1.771 0.198 0.531 0.478 0.988 0.831 1.357 0.355 0.373 0.789 0.662 1.286 0.859 0.492 0.195 1.044 0.295 1.639 0.295 0.694 0 1.281-0.047 1.746-0.141 0.455-0.090 0.836-0.189 1.134-0.291l0.188-0.064v-10.622h-0.278zM58.087 12.354c-0.036 0.008-0.073 0.016-0.111 0.023-0.258 0.051-0.713 0.111-1.456 0.111-0.404 0-0.77-0.062-1.085-0.189-0.296-0.117-0.55-0.285-0.754-0.5-0.214-0.223-0.385-0.506-0.512-0.845-0.13-0.35-0.196-0.771-0.196-1.248 0-0.461 0.059-1.103 0.173-1.465 0.105-0.336 0.255-0.618 0.445-0.844 0.18-0.215 0.396-0.379 0.666-0.502 0.268-0.124 0.591-0.186 0.966-0.186 0.343 0 0.646 0.047 0.877 0.135 0.121 0.047 0.233 0.098 0.333 0.143l0.654 0.305v5.062zM32.485 6.74h-1.92v-0.255c0-0.42 0.029-0.967 0.096-1.24 0.064-0.275 0.162-0.49 0.289-0.646 0.131-0.156 0.293-0.268 0.486-0.332 0.191-0.064 0.42-0.096 0.678-0.096h0.629c0.73 0 1.322-0.592 1.322-1.322h-2.082c-0.568 0-1.041 0.072-1.412 0.217s-0.67 0.363-0.896 0.654c-0.227 0.292-0.385 0.65-0.475 1.075-0.094 0.424-0.135 0.912-0.135 1.473v7.563c0.274 0 0.528-0.078 0.75-0.207 0.446-0.26 0.75-0.738 0.75-1.293v-4.333h3.178c0-0.696-0.563-1.258-1.258-1.258z"></path>
</svg>
