<!-- Generated by IcoMoon.io -->
<svg version="1.1" xmlns="http://www.w3.org/2000/svg" width="24" height="24" viewBox="0 0 24 24">
<title>in</title>
<path fill="#444" d="M24 7.5v12.75c0 2.069-1.683 3.75-3.75 3.75h-16.5c-2.067 0-3.75-1.681-3.75-3.75v-12.75c0-0.057 0.021-0.108 0.033-0.162l0.947 0.663c0.36 0.252 0.52 0.559 0.52 0.999v11.25c0 1.241 1.010 2.25 2.25 2.25h16.5c1.241 0 2.25-1.009 2.25-2.25v-11.25c0-0.44 0.16-0.747 0.52-0.999l0.947-0.663c0.012 0.054 0.033 0.105 0.033 0.162zM16.971 3h-1.221c-0.439 0-0.627 0.083-0.88 0.441l-2.12 3.027v-5.718c0-0.414-0.336-0.75-0.75-0.75s-0.75 0.336-0.75 0.75v5.72l-2.121-3.030c-0.254-0.357-0.441-0.44-0.879-0.44h-1.22l3.126 4.521 0.688 0.984c0.077 0.105 0.162 0.168 0.249 0.234 0.163 0.128 0.344 0.216 0.563 0.243l0.345 0.018 0.345-0.018c0.199-0.025 0.367-0.098 0.52-0.204h-0.001c0.101-0.080 0.204-0.152 0.293-0.277l3.813-5.501z"></path>
</svg>
