<!-- Generated by IcoMoon.io -->
<svg version="1.1" xmlns="http://www.w3.org/2000/svg" width="16" height="16" viewBox="0 0 16 16">
<title>in</title>
<path fill="#444" d="M16 5v8.5c0 1.379-1.122 2.5-2.5 2.5h-11c-1.378 0-2.5-1.121-2.5-2.5v-8.5c0-0.038 0.014-0.072 0.022-0.108l0.631 0.442c0.24 0.168 0.347 0.373 0.347 0.666v7.5c0 0.827 0.673 1.5 1.5 1.5h11c0.827 0 1.5-0.673 1.5-1.5v-7.5c0-0.293 0.107-0.498 0.347-0.666l0.631-0.442c0.008 0.036 0.022 0.070 0.022 0.108zM11.314 2h-0.814c-0.293 0-0.418 0.055-0.587 0.294l-1.413 2.018v-3.812c0-0.276-0.224-0.5-0.5-0.5s-0.5 0.224-0.5 0.5v3.813l-1.414-2.020c-0.169-0.238-0.294-0.293-0.586-0.293h-0.813l2.084 3.014 0.459 0.656c0.051 0.070 0.108 0.112 0.166 0.156 0.109 0.085 0.229 0.144 0.375 0.162l0.23 0.012 0.23-0.012c0.133-0.017 0.245-0.065 0.347-0.136h-0.001c0.067-0.053 0.136-0.101 0.195-0.185l2.542-3.667z"></path>
</svg>
