<!-- Generated by IcoMoon.io -->
<svg version="1.1" xmlns="http://www.w3.org/2000/svg" width="16" height="16" viewBox="0 0 16 16">
<title>information</title>
<path fill="#444" d="M8 0.25c-4.411 0-8 3.478-8 7.75s3.589 7.75 8 7.75 8-3.478 8-7.75-3.589-7.75-8-7.75zM8 14.75c-3.86 0-7-3.027-7-6.75s3.14-6.75 7-6.75 7 3.027 7 6.75-3.14 6.75-7 6.75zM8 12.383c-0.415 0-0.75-0.336-0.75-0.75s0.335-0.75 0.75-0.75c0.414 0 0.75 0.336 0.75 0.75s-0.336 0.75-0.75 0.75zM8.5 8.865c0 0.576-0.448 1.041-1 1.041v-5.25c0-0.574 0.448-1.039 1-1.039v5.248z"></path>
</svg>
