<!-- Generated by IcoMoon.io -->
<svg version="1.1" xmlns="http://www.w3.org/2000/svg" width="24" height="24" viewBox="0 0 24 24">
<title>information</title>
<path fill="#444" d="M12 0.375c-6.616 0-12 5.214-12 11.625s5.383 11.625 12 11.625 12-5.214 12-11.625-5.384-11.625-12-11.625zM11.25 6.984c0-0.861 0.672-1.559 1.5-1.559v7.872c0 0.864-0.672 1.562-1.5 1.562v-7.875zM12 18.575c-0.623 0-1.125-0.504-1.125-1.125s0.502-1.125 1.125-1.125c0.621 0 1.125 0.504 1.125 1.125s-0.504 1.125-1.125 1.125z"></path>
</svg>
