<!-- Generated by IcoMoon.io -->
<svg version="1.1" xmlns="http://www.w3.org/2000/svg" width="24" height="24" viewBox="0 0 24 24">
<title>information</title>
<path fill="#444" d="M12 1.344c-6.066 0-11 4.776-11 10.656s4.934 10.656 11 10.656 11-4.776 11-10.656-4.934-10.656-11-10.656zM11.312 7.402c0-0.791 0.615-1.426 1.375-1.426v7.211c0 0.793-0.615 1.434-1.375 1.434v-7.219zM12 18.023c-0.57 0-1.031-0.459-1.031-1.031 0-0.566 0.461-1.031 1.031-1.031 0.569 0 1.031 0.465 1.031 1.031 0 0.572-0.462 1.031-1.031 1.031z"></path>
</svg>
