<!-- Generated by IcoMoon.io -->
<svg version="1.1" xmlns="http://www.w3.org/2000/svg" width="24" height="24" viewBox="0 0 24 24">
<title>instagram</title>
<path fill="#444" d="M12 2.163c3.206 0 3.583 0.010 4.849 0.069 3.252 0.147 4.772 1.693 4.92 4.92 0.057 1.264 0.069 1.646 0.069 4.848s-0.012 3.583-0.069 4.846c-0.15 3.225-1.663 4.773-4.92 4.92-1.266 0.058-1.644 0.069-4.849 0.069s-3.583-0.010-4.848-0.069c-3.259-0.149-4.771-1.698-4.918-4.92-0.060-1.263-0.072-1.641-0.072-4.846 0-3.204 0.012-3.583 0.071-4.848 0.148-3.225 1.663-4.773 4.918-4.918 1.266-0.060 1.644-0.071 4.85-0.071zM12 0c-3.259 0-3.666 0.012-4.947 0.074-4.359 0.197-6.78 2.616-6.979 6.978-0.058 1.281-0.074 1.689-0.074 4.948s0.015 3.668 0.072 4.948c0.201 4.359 2.618 6.782 6.979 6.978 1.283 0.061 1.689 0.073 4.949 0.073s3.668-0.012 4.948-0.073c4.353-0.197 6.782-2.616 6.978-6.978 0.060-1.281 0.073-1.689 0.073-4.948s-0.014-3.668-0.072-4.948c-0.195-4.351-2.617-6.78-6.978-6.978-1.283-0.061-1.691-0.074-4.95-0.074zM12 5.839c-3.404 0-6.162 2.757-6.162 6.161s2.758 6.162 6.162 6.162c3.404 0 6.162-2.758 6.162-6.162s-2.758-6.161-6.162-6.161zM12 15.999c-2.21 0-4-1.788-4-3.999 0-2.21 1.791-3.999 4-3.999s4 1.789 4 3.999c0 2.211-1.791 3.999-4 3.999zM18.407 4.155c-0.797 0-1.442 0.645-1.442 1.441 0 0.793 0.645 1.44 1.442 1.44 0.795 0 1.44-0.647 1.44-1.44-0.002-0.798-0.645-1.441-1.44-1.441z"></path>
</svg>
