<!-- Generated by IcoMoon.io -->
<svg version="1.1" xmlns="http://www.w3.org/2000/svg" width="24" height="24" viewBox="0 0 24 24">
<title>instagram</title>
<path fill="#444" d="M12 2.983c2.938 0 3.285 0.009 4.445 0.063 2.981 0.134 4.374 1.552 4.51 4.51 0.052 1.159 0.063 1.508 0.063 4.444s-0.011 3.285-0.063 4.443c-0.137 2.957-1.525 4.375-4.51 4.511-1.16 0.054-1.507 0.062-4.445 0.062s-3.285-0.009-4.444-0.062c-2.989-0.136-4.374-1.557-4.509-4.511-0.054-1.159-0.065-1.505-0.065-4.443 0-2.937 0.011-3.284 0.064-4.444 0.136-2.957 1.525-4.375 4.509-4.509 1.161-0.055 1.507-0.064 4.445-0.064zM12 1c-2.988 0-3.361 0.011-4.535 0.067-3.995 0.18-6.215 2.398-6.398 6.397-0.053 1.174-0.067 1.549-0.067 4.536s0.014 3.362 0.066 4.536c0.184 3.996 2.399 6.217 6.398 6.396 1.175 0.057 1.548 0.068 4.536 0.068s3.362-0.011 4.536-0.067c3.99-0.18 6.217-2.397 6.396-6.396 0.055-1.175 0.068-1.55 0.068-4.537s-0.013-3.362-0.066-4.536c-0.179-3.989-2.399-6.214-6.396-6.396-1.176-0.057-1.55-0.068-4.538-0.068zM12 6.353c-3.12 0-5.648 2.528-5.648 5.647s2.528 5.649 5.648 5.649c3.119 0 5.648-2.528 5.648-5.649 0-3.119-2.529-5.647-5.648-5.647zM12 15.666c-2.025 0-3.667-1.64-3.667-3.666 0-2.025 1.642-3.666 3.667-3.666s3.667 1.641 3.667 3.666c0 2.026-1.642 3.666-3.667 3.666zM17.872 4.809c-0.73 0-1.321 0.59-1.321 1.32 0 0.729 0.591 1.32 1.321 1.32 0.729 0 1.32-0.592 1.32-1.32 0-0.731-0.591-1.32-1.32-1.32z"></path>
</svg>
