<!-- Generated by IcoMoon.io -->
<svg version="1.1" xmlns="http://www.w3.org/2000/svg" width="16" height="16" viewBox="0 0 16 16">
<title>instagram</title>
<path fill="#444" d="M8 1.442c2.137 0 2.389 0.007 3.233 0.046 2.168 0.098 3.181 1.129 3.28 3.28 0.038 0.843 0.046 1.097 0.046 3.232s-0.008 2.389-0.046 3.231c-0.1 2.15-1.109 3.182-3.28 3.28-0.844 0.039-1.096 0.046-3.233 0.046s-2.389-0.007-3.232-0.046c-2.173-0.099-3.181-1.132-3.279-3.28-0.040-0.842-0.048-1.094-0.048-3.231 0-2.136 0.008-2.389 0.047-3.232 0.099-2.15 1.109-3.182 3.279-3.279 0.844-0.040 1.096-0.047 3.233-0.047zM8 0c-2.173 0-2.444 0.008-3.298 0.049-2.906 0.131-4.52 1.744-4.653 4.652-0.039 0.854-0.049 1.126-0.049 3.299s0.010 2.445 0.048 3.299c0.134 2.906 1.745 4.521 4.653 4.652 0.855 0.041 1.126 0.049 3.299 0.049s2.445-0.008 3.299-0.049c2.902-0.131 4.521-1.744 4.652-4.652 0.040-0.854 0.049-1.126 0.049-3.299s-0.009-2.445-0.048-3.299c-0.13-2.901-1.745-4.52-4.652-4.652-0.855-0.041-1.127-0.049-3.3-0.049zM8 3.893c-2.269 0-4.108 1.838-4.108 4.107s1.839 4.108 4.108 4.108c2.269 0 4.108-1.839 4.108-4.108s-1.839-4.107-4.108-4.107zM8 10.666c-1.473 0-2.667-1.192-2.667-2.666 0-1.473 1.194-2.666 2.667-2.666s2.667 1.193 2.667 2.666c0 1.474-1.194 2.666-2.667 2.666zM12.271 2.77c-0.531 0-0.961 0.43-0.961 0.961 0 0.529 0.43 0.96 0.961 0.96 0.53 0 0.96-0.431 0.96-0.96-0.001-0.532-0.43-0.961-0.96-0.961z"></path>
</svg>
