<!-- Generated by IcoMoon.io -->
<svg version="1.1" xmlns="http://www.w3.org/2000/svg" width="16" height="16" viewBox="0 0 16 16">
<title>investiment</title>
<path fill="#444" d="M8.289 11.79c-0.361 0.058-0.841 0.087-1.425 0.087-0.136 0-0.291-0.005-0.447-0.012-0.241-0.046-0.419-0.158-0.547-0.386l-0.388-0.695c0.172 0.012 0.93 0.079 1.389 0.079 0.518 0 0.941-0.026 1.257-0.076 0.094-0.016 0.166-0.041 0.221-0.081l-2.349-0.848c-0.198-0.061-0.418-0.092-0.655-0.092-0.835 0-1.616 0.379-1.702 0.422l-2.189 1.317c-0.24 0.131-0.464 0.146-0.72 0.030l-0.732-0.328c0 0-0.007-0.012 0.013-0.023l3.121-1.887c0.104-0.055 1.072-0.552 2.217-0.552 0.334 0 0.65 0.045 0.939 0.132l2.876 0.869c0.199 0.062 0.34 0.235 0.361 0.443 0.053 0.557-0.234 1.442-1.24 1.601zM15.936 9.031c-0.208-0.381-0.695-0.823-1.38-0.823-0.246 0-0.503 0.058-0.765 0.174-0.519 0.23-1.89 0.884-2.77 1.306-0.199 0.129-0.501 0.371-0.536 0.623l-0.11 0.775c0.046-0.009 0.092-0.011 0.139-0.034 0 0 2.883-1.384 3.688-1.74 0.035-0.016 0.072-0.030 0.115-0.030 0.048 0 0.096 0.019 0.15 0.106l-4.97 3.642c-0.278 0.206-0.627 0.319-0.983 0.319-0.084 0-0.168-0.006-0.251-0.019l-4.836-0.766c-0.12 0-0.237 0.041-0.331 0.115l-0.927 0.825c-0.223 0.193-0.308 0.411-0.278 0.706 0 0 0.094 0.812 0.122 0.788l1.596-1.384 4.496 0.72c0.139 0.021 0.28 0.032 0.42 0.032 0.563 0 1.125-0.183 1.58-0.515l5.694-4.169c0.201-0.153 0.26-0.427 0.137-0.651zM10.357 6.425c0 0.617-0.229 1.083-0.686 1.398-0.246 0.17-0.55 0.291-0.906 0.37-0.161 0.203-0.351 0.305-0.622 0.307l-0.797-0.002 0.146-0.209c-0.477-0.012-0.881-0.053-1.167-0.138-0.334-0.097-0.562-0.172-0.682-0.222 0.183-0.521 0.677-0.807 1.221-0.709 0.324 0.060 0.513 0.065 0.843 0.065 0.489 0 0.854-0.065 1.089-0.192 0.236-0.129 0.354-0.335 0.354-0.617 0-0.29-0.117-0.522-0.348-0.693s-0.611-0.364-1.142-0.579c-0.258-0.103-0.503-0.206-0.74-0.314-0.235-0.106-0.438-0.232-0.61-0.378-0.17-0.146-0.308-0.322-0.41-0.526-0.103-0.209-0.154-0.46-0.154-0.76 0-0.59 0.218-1.061 0.655-1.405 0.278-0.222 0.626-0.363 1.033-0.443l0.020-0.029c0.168-0.242 0.373-0.347 0.666-0.349l0.797 0.002-0.229 0.325c0.021 0.003 0.042 0.002 0.063 0.004 0.188 0.020 0.366 0.046 0.527 0.077 0.163 0.030 0.308 0.062 0.43 0.097 0.126 0.033 0.221 0.063 0.291 0.089-0.202 0.521-0.673 0.806-1.23 0.739-0.225-0.028-0.352-0.034-0.579-0.034-0.333 0-0.628 0.068-0.878 0.202-0.248 0.133-0.372 0.34-0.372 0.622 0 0.145 0.028 0.273 0.084 0.387 0.056 0.111 0.141 0.211 0.256 0.301 0.117 0.090 0.261 0.174 0.432 0.25s0.376 0.158 0.617 0.244c0.316 0.121 0.599 0.239 0.847 0.353 0.25 0.116 0.459 0.252 0.636 0.405s0.311 0.341 0.404 0.56c0.094 0.217 0.141 0.483 0.141 0.802z"></path>
</svg>
