<!-- Generated by IcoMoon.io -->
<svg version="1.1" xmlns="http://www.w3.org/2000/svg" width="24" height="24" viewBox="0 0 24 24">
<title>investiment</title>
<path fill="#444" d="M12.433 17.685c-0.541 0.087-1.261 0.131-2.137 0.131-0.204 0-0.437-0.008-0.671-0.018-0.361-0.069-0.628-0.237-0.82-0.579l-0.582-1.043c0.258 0.018 1.395 0.119 2.083 0.119 0.777 0 1.412-0.039 1.886-0.114 0.141-0.024 0.249-0.061 0.332-0.122l-3.524-1.272c-0.297-0.091-0.627-0.138-0.982-0.138-1.253 0-2.424 0.569-2.553 0.633l-3.283 1.976c-0.36 0.197-0.696 0.219-1.080 0.045l-1.098-0.492c0 0-0.011-0.018 0.019-0.034l4.681-2.831c0.156-0.082 1.608-0.828 3.325-0.828 0.501 0 0.975 0.067 1.409 0.198l4.314 1.303c0.299 0.093 0.51 0.352 0.542 0.664 0.080 0.836-0.351 2.163-1.86 2.402zM23.904 13.547c-0.312-0.572-1.043-1.235-2.070-1.235-0.369 0-0.755 0.087-1.148 0.261-0.779 0.345-2.835 1.326-4.155 1.959-0.299 0.193-0.752 0.557-0.804 0.934l-0.165 1.163c0.069-0.014 0.138-0.017 0.208-0.051 0 0 4.325-2.076 5.532-2.61 0.052-0.024 0.108-0.045 0.172-0.045 0.072 0 0.144 0.028 0.225 0.159l-7.455 5.463c-0.417 0.309-0.941 0.479-1.475 0.479-0.126 0-0.252-0.009-0.377-0.029l-7.254-1.149c-0.18 0-0.356 0.062-0.497 0.172l-1.39 1.238c-0.335 0.29-0.462 0.616-0.417 1.059 0 0 0.141 1.218 0.183 1.182l2.394-2.076 6.744 1.080c0.208 0.032 0.42 0.048 0.63 0.048 0.845 0 1.688-0.274 2.37-0.773l8.541-6.253c0.302-0.229 0.39-0.64 0.206-0.976zM15.535 9.637c0 0.925-0.343 1.625-1.029 2.097-0.369 0.255-0.825 0.437-1.359 0.555-0.241 0.304-0.527 0.457-0.933 0.46l-1.195-0.003 0.219-0.314c-0.716-0.018-1.322-0.079-1.751-0.207-0.501-0.146-0.843-0.258-1.023-0.333 0.274-0.782 1.015-1.211 1.832-1.063 0.486 0.090 0.769 0.098 1.264 0.098 0.734 0 1.281-0.098 1.634-0.288 0.354-0.193 0.531-0.502 0.531-0.925 0-0.435-0.176-0.783-0.522-1.040-0.345-0.257-0.916-0.546-1.713-0.868-0.387-0.154-0.755-0.309-1.11-0.471-0.353-0.159-0.657-0.348-0.915-0.567-0.255-0.219-0.462-0.483-0.615-0.789-0.154-0.314-0.231-0.69-0.231-1.14 0-0.885 0.327-1.591 0.983-2.107 0.417-0.333 0.939-0.545 1.549-0.665l0.030-0.043c0.252-0.363 0.559-0.52 0.999-0.523l1.196 0.003-0.343 0.487c0.032 0.004 0.063 0.003 0.095 0.006 0.282 0.030 0.549 0.069 0.79 0.115 0.245 0.045 0.462 0.093 0.645 0.146 0.189 0.050 0.332 0.095 0.437 0.133-0.303 0.782-1.010 1.209-1.845 1.109-0.337-0.042-0.528-0.051-0.869-0.051-0.5 0-0.942 0.102-1.317 0.303-0.372 0.2-0.558 0.51-0.558 0.933 0 0.218 0.042 0.41 0.126 0.58 0.084 0.167 0.211 0.317 0.384 0.452 0.175 0.135 0.392 0.261 0.648 0.375s0.564 0.237 0.925 0.366c0.474 0.181 0.899 0.358 1.271 0.529 0.375 0.174 0.688 0.378 0.954 0.608 0.264 0.231 0.466 0.512 0.606 0.84 0.141 0.325 0.211 0.724 0.211 1.203z"></path>
</svg>
