<!-- Generated by IcoMoon.io -->
<svg version="1.1" xmlns="http://www.w3.org/2000/svg" width="37" height="24" viewBox="0 0 37 24">
<title>investira_v</title>
<path fill="#444" d="M16.108 0c-1.425 0-2.577 1.153-2.577 2.577v7.732h7.732c1.423 0 2.577-1.153 2.577-2.577v-7.732h-7.732zM17.78 7.826c-0.267 0.381-0.591 0.55-1.056 0.55h-1.26l4.126-5.893c0.267-0.381 0.59-0.55 1.055-0.55h1.261l-4.126 5.893zM12.194 18.467c-0.457 0-0.807 0.267-0.93 0.706-0.041 0.149-0.066 0.231-0.111 0.381-0.133 0.448-0.213 0.7-0.363 1.142-0.147 0.43-0.231 0.671-0.389 1.096-0.139 0.372-0.219 0.58-0.374 0.946-0.156-0.366-0.236-0.574-0.376-0.946-0.158-0.425-0.244-0.666-0.389-1.096-0.151-0.443-0.231-0.695-0.364-1.142-0.044-0.149-0.068-0.231-0.11-0.381-0.124-0.439-0.474-0.706-0.93-0.706h-0.295c0.309 1.155 0.515 1.797 0.951 2.911 0.386 0.984 0.611 1.534 1.055 2.494h0.914c0.443-0.96 0.669-1.51 1.055-2.494 0.437-1.114 0.642-1.756 0.951-2.911h-0.295zM3.464 18.439c-0.367 0.063-0.663 0.122-0.884 0.177v5.254h0.968v-4.569c0.034-0.006 0.091-0.015 0.171-0.030s0.171-0.026 0.271-0.037c0.101-0.012 0.207-0.019 0.318-0.026s0.218-0.010 0.322-0.010c0.257 0 0.472 0.033 0.646 0.098 0.173 0.067 0.312 0.173 0.417 0.317 0.102 0.146 0.177 0.336 0.223 0.573s0.068 0.521 0.068 0.853v2.832h0.968v-3.039c0-0.367-0.036-0.704-0.104-1.009-0.070-0.306-0.189-0.568-0.36-0.785-0.17-0.22-0.397-0.389-0.682-0.51-0.284-0.122-0.642-0.184-1.071-0.184-0.479 0.003-0.902 0.035-1.271 0.097zM30.576 18.455c-0.34 0.074-0.625 0.151-0.853 0.235v5.182h0.968v-4.548c0.055-0.014 0.173-0.040 0.349-0.078 0.177-0.038 0.358-0.058 0.537-0.058 0.086 0 0.132 0 0.215 0.004 0.478 0.020 0.856-0.238 1.012-0.689-0.041-0.014-0.106-0.030-0.193-0.048-0.086-0.015-0.182-0.034-0.285-0.052-0.104-0.017-0.211-0.030-0.318-0.042-0.108-0.010-0.203-0.014-0.286-0.014-0.425-0.002-0.807 0.034-1.146 0.108zM17.033 19.011c-0.389-0.454-0.947-0.681-1.675-0.681-0.312 0-0.618 0.059-0.916 0.176s-0.562 0.294-0.791 0.53c-0.229 0.235-0.413 0.532-0.552 0.89s-0.208 0.775-0.208 1.253c0 0.409 0.053 0.785 0.162 1.13 0.107 0.343 0.273 0.639 0.494 0.89s0.504 0.445 0.848 0.588c0.343 0.143 0.751 0.213 1.222 0.213 0.376 0 0.711-0.035 1.005-0.103 0.294-0.070 0.502-0.136 0.619-0.198-0.125-0.411-0.5-0.65-0.924-0.589-0.231 0.033-0.363 0.037-0.596 0.037-0.604 0-1.047-0.146-1.331-0.437-0.284-0.292-0.448-0.718-0.49-1.28h3.705c0.006-0.057 0.010-0.116 0.010-0.182v-0.162c0-0.928-0.195-1.62-0.583-2.075zM13.922 20.649c0.020-0.186 0.064-0.371 0.129-0.551s0.159-0.339 0.277-0.477c0.117-0.14 0.262-0.253 0.43-0.338 0.171-0.087 0.366-0.129 0.588-0.129 0.396 0 0.707 0.14 0.932 0.421 0.224 0.282 0.335 0.639 0.329 1.076l-2.685-0.001zM19.005 18.75c-0.354 0.282-0.531 0.662-0.531 1.141 0 0.243 0.041 0.446 0.125 0.614 0.083 0.166 0.195 0.309 0.333 0.426 0.139 0.119 0.303 0.221 0.495 0.308s0.39 0.172 0.599 0.255c0.43 0.174 0.738 0.33 0.926 0.47 0.188 0.139 0.282 0.326 0.282 0.561 0 0.229-0.094 0.395-0.285 0.499-0.191 0.103-0.486 0.156-0.882 0.156-0.268 0-0.42-0.004-0.684-0.053-0.439-0.079-0.841 0.151-0.988 0.574 0.096 0.040 0.282 0.102 0.552 0.181s0.646 0.12 1.124 0.12c0.686 0 1.215-0.127 1.587-0.385 0.37-0.255 0.556-0.634 0.556-1.134 0-0.256-0.039-0.473-0.115-0.651-0.075-0.178-0.185-0.327-0.327-0.451-0.144-0.126-0.313-0.235-0.516-0.329-0.201-0.094-0.429-0.189-0.686-0.286-0.195-0.069-0.361-0.136-0.499-0.198s-0.255-0.129-0.35-0.202c-0.094-0.073-0.162-0.153-0.207-0.244s-0.068-0.196-0.068-0.312c0-0.23 0.101-0.398 0.302-0.504 0.201-0.108 0.441-0.162 0.711-0.162 0.184 0 0.287 0.004 0.469 0.026 0.451 0.054 0.833-0.176 0.997-0.599-0.057-0.020-0.133-0.044-0.235-0.072s-0.216-0.054-0.349-0.078c-0.132-0.025-0.275-0.046-0.427-0.063s-0.305-0.025-0.457-0.025c-0.617-0.003-1.099 0.137-1.453 0.418zM23.2 17.761v3.906c0 0.362 0.026 0.677 0.087 0.95 0.058 0.274 0.16 0.504 0.307 0.691 0.146 0.188 0.337 0.329 0.577 0.421 0.24 0.094 0.544 0.141 0.91 0.141h1.34c0-0.47-0.381-0.851-0.851-0.851h-0.405c-0.167 0-0.313-0.020-0.437-0.064-0.124-0.040-0.228-0.112-0.312-0.214-0.082-0.099-0.146-0.239-0.186-0.416-0.042-0.177-0.063-0.398-0.063-0.669v-2.379h1.238c0.448 0 0.811-0.362 0.811-0.812h-2.048v-1.673c-0.534 0.002-0.967 0.435-0.967 0.968zM0.142 19.433v4.439c0.533 0 0.966-0.433 0.966-0.966v-4.439c-0.534 0-0.966 0.433-0.966 0.966zM0 16.852c0 0.345 0.28 0.624 0.625 0.624s0.625-0.28 0.625-0.624c0-0.346-0.28-0.626-0.625-0.626s-0.625 0.28-0.625 0.626zM27.283 19.433v4.439c0.533 0 0.966-0.433 0.966-0.966v-4.439c-0.533 0-0.966 0.433-0.966 0.966zM27.141 16.852c0 0.345 0.281 0.624 0.625 0.624 0.345 0 0.626-0.28 0.626-0.624 0-0.346-0.281-0.626-0.626-0.626-0.344 0.001-0.625 0.28-0.625 0.626zM37.021 23.849c0.149-0.024 0.265-0.042 0.349-0.057v-3.383c0-0.306-0.035-0.584-0.103-0.838-0.069-0.253-0.186-0.472-0.35-0.656-0.162-0.184-0.378-0.326-0.644-0.427s-0.595-0.149-0.983-0.149c-0.34 0-0.657 0.025-0.949 0.077-0.289 0.052-0.498 0.106-0.624 0.161 0.107 0.416 0.476 0.671 0.903 0.623 0.227-0.025 0.356-0.030 0.584-0.030 0.249 0 0.454 0.038 0.611 0.111 0.156 0.073 0.279 0.17 0.369 0.291 0.091 0.122 0.152 0.26 0.188 0.416s0.052 0.314 0.052 0.474v0.269c-0.028-0.006-0.075-0.015-0.146-0.032-0.069-0.014-0.151-0.029-0.244-0.044-0.094-0.019-0.193-0.032-0.297-0.043s-0.205-0.015-0.302-0.015c-0.305 0-0.597 0.032-0.873 0.093-0.278 0.064-0.521 0.16-0.73 0.292-0.207 0.132-0.372 0.305-0.494 0.521s-0.182 0.471-0.182 0.769c0 0.313 0.052 0.58 0.156 0.801 0.104 0.224 0.249 0.401 0.437 0.536 0.188 0.136 0.41 0.234 0.667 0.297s0.537 0.094 0.843 0.094c0.215 0 0.432-0.010 0.649-0.026 0.219-0.015 0.423-0.036 0.609-0.057 0.19-0.021 0.359-0.044 0.507-0.069zM34.269 21.809c0.089-0.115 0.202-0.204 0.336-0.271 0.136-0.067 0.284-0.108 0.447-0.129 0.164-0.019 0.318-0.032 0.465-0.032 0.222 0 0.412 0.014 0.568 0.037s0.268 0.054 0.337 0.089v1.613c-0.119 0.028-0.265 0.048-0.443 0.058-0.177 0.011-0.378 0.014-0.607 0.014-0.383 0-0.684-0.067-0.905-0.202-0.224-0.135-0.333-0.376-0.333-0.724 0.001-0.188 0.045-0.34 0.137-0.454z"></path>
</svg>
