<!-- Generated by IcoMoon.io -->
<svg version="1.1" xmlns="http://www.w3.org/2000/svg" width="102" height="16" viewBox="0 0 102 16">
<title>investira_h_pro</title>
<path fill="#444" d="M1.426 3.801c0-1.312 1.061-2.375 2.375-2.375h9.977v9.977c0 1.312-1.063 2.375-2.375 2.375h-9.977v-9.977zM3.802 0c-2.1 0-3.802 1.701-3.802 3.801v11.402h11.403c2.099 0 3.801-1.7 3.801-3.801v-11.402h-11.402zM10.494 2.851c-0.687 0-1.166 0.249-1.559 0.81l-6.083 8.691h1.859c0.684 0 1.164-0.249 1.557-0.81l6.085-8.692h-1.86zM42.467 5.174c-0.674 0-1.19 0.392-1.37 1.040-0.061 0.22-0.099 0.342-0.163 0.563-0.197 0.661-0.314 1.032-0.536 1.686-0.216 0.634-0.339 0.989-0.574 1.616-0.205 0.548-0.322 0.853-0.55 1.396-0.23-0.54-0.348-0.848-0.553-1.396-0.233-0.627-0.359-0.982-0.574-1.616-0.22-0.654-0.338-1.024-0.535-1.686-0.070-0.22-0.105-0.342-0.168-0.563-0.181-0.648-0.698-1.040-1.37-1.040h-0.435c0.455 1.704 0.759 2.649 1.403 4.293 0.57 1.451 0.9 2.262 1.556 3.678h1.349c0.654-1.416 0.987-2.227 1.555-3.678 0.644-1.643 0.946-2.588 1.402-4.293h-0.437zM29.593 5.132c-0.541 0.093-0.977 0.18-1.303 0.261v7.75h1.427v-6.737c0.052-0.010 0.136-0.025 0.254-0.046s0.253-0.039 0.399-0.054c0.147-0.017 0.305-0.029 0.469-0.039 0.162-0.011 0.321-0.015 0.475-0.015 0.377 0 0.695 0.048 0.952 0.145 0.253 0.098 0.459 0.254 0.613 0.468 0.152 0.216 0.261 0.496 0.33 0.845 0.066 0.348 0.099 0.768 0.099 1.258v4.176h1.429v-4.482c0-0.543-0.054-1.039-0.154-1.489-0.102-0.45-0.28-0.837-0.531-1.158-0.251-0.324-0.584-0.574-1.005-0.752-0.417-0.179-0.946-0.271-1.579-0.271-0.706-0.001-1.331 0.048-1.875 0.139zM69.575 5.154c-0.501 0.11-0.921 0.224-1.256 0.348v7.642h1.425v-6.708c0.082-0.020 0.256-0.059 0.514-0.115 0.261-0.056 0.528-0.086 0.794-0.086 0.124 0 0.193 0.001 0.317 0.007 0.703 0.029 1.262-0.352 1.49-1.018-0.061-0.020-0.156-0.044-0.284-0.070-0.126-0.023-0.267-0.049-0.421-0.075s-0.31-0.045-0.467-0.061c-0.16-0.016-0.301-0.026-0.424-0.026-0.623 0-1.188 0.055-1.688 0.162zM49.605 5.971c-0.574-0.671-1.399-1.005-2.471-1.005-0.459 0-0.911 0.087-1.351 0.26s-0.83 0.434-1.166 0.782c-0.338 0.349-0.607 0.787-0.813 1.313-0.204 0.528-0.306 1.143-0.306 1.849 0 0.604 0.078 1.159 0.238 1.666 0.158 0.506 0.403 0.944 0.731 1.312s0.744 0.658 1.249 0.867c0.506 0.212 1.106 0.315 1.802 0.315 0.555 0 1.047-0.050 1.481-0.153s0.74-0.199 0.913-0.291c-0.182-0.606-0.735-0.959-1.363-0.868-0.339 0.048-0.536 0.055-0.878 0.055-0.891 0-1.544-0.217-1.963-0.645-0.418-0.431-0.66-1.059-0.722-1.886h5.463c0.010-0.084 0.015-0.173 0.015-0.269v-0.242c0-1.368-0.286-2.389-0.859-3.059zM45.016 8.387c0.029-0.276 0.093-0.547 0.19-0.812s0.234-0.501 0.41-0.706c0.173-0.205 0.386-0.371 0.635-0.499 0.251-0.127 0.539-0.19 0.867-0.19 0.583 0 1.041 0.206 1.374 0.62s0.495 0.944 0.486 1.588l-3.96-0.001zM52.512 5.586c-0.522 0.414-0.783 0.975-0.783 1.681 0 0.359 0.061 0.659 0.185 0.906 0.123 0.245 0.286 0.454 0.49 0.629 0.207 0.174 0.448 0.324 0.731 0.452 0.282 0.13 0.574 0.255 0.884 0.376 0.635 0.257 1.089 0.486 1.365 0.693 0.276 0.204 0.416 0.481 0.416 0.828 0 0.337-0.141 0.582-0.423 0.736-0.28 0.152-0.716 0.23-1.301 0.23-0.394 0-0.619-0.008-1.008-0.078-0.648-0.117-1.24 0.224-1.459 0.847 0.143 0.059 0.416 0.15 0.814 0.267s0.952 0.177 1.657 0.177c1.012 0 1.791-0.187 2.34-0.568 0.544-0.376 0.819-0.935 0.819-1.672 0-0.378-0.056-0.698-0.169-0.96-0.111-0.261-0.273-0.485-0.483-0.666-0.212-0.185-0.462-0.347-0.761-0.486-0.296-0.137-0.633-0.278-1.011-0.421-0.288-0.102-0.533-0.2-0.735-0.292-0.204-0.091-0.376-0.191-0.516-0.298s-0.239-0.227-0.306-0.36c-0.067-0.134-0.1-0.288-0.1-0.461 0-0.338 0.148-0.585 0.447-0.744 0.296-0.159 0.65-0.239 1.049-0.239 0.271 0 0.423 0.006 0.692 0.039 0.665 0.081 1.229-0.258 1.47-0.883-0.084-0.029-0.197-0.066-0.347-0.106-0.146-0.041-0.319-0.079-0.514-0.115-0.193-0.036-0.405-0.067-0.629-0.092s-0.449-0.038-0.674-0.038c-0.909-0.001-1.62 0.206-2.142 0.62zM79.442 6.798c-0.101-0.374-0.273-0.696-0.514-0.968-0.239-0.271-0.557-0.481-0.95-0.629-0.395-0.148-0.878-0.221-1.45-0.221-0.501 0-0.968 0.038-1.399 0.114-0.429 0.076-0.735 0.156-0.921 0.238 0.156 0.613 0.701 0.989 1.33 0.919 0.334-0.038 0.524-0.045 0.86-0.045 0.369 0 0.67 0.056 0.902 0.162 0.23 0.108 0.411 0.252 0.543 0.429 0.134 0.179 0.224 0.384 0.276 0.614s0.076 0.463 0.076 0.698v0.397c-0.041-0.009-0.111-0.023-0.217-0.046-0.101-0.020-0.221-0.043-0.36-0.067-0.139-0.027-0.284-0.047-0.436-0.062-0.154-0.015-0.303-0.023-0.446-0.023-0.451 0-0.882 0.047-1.289 0.139-0.41 0.093-0.769 0.236-1.077 0.43-0.306 0.193-0.549 0.449-0.726 0.767-0.181 0.317-0.269 0.696-0.269 1.134 0 0.462 0.076 0.855 0.228 1.184 0.154 0.329 0.37 0.59 0.646 0.791 0.276 0.199 0.603 0.345 0.982 0.436 0.377 0.093 0.792 0.139 1.244 0.139 0.317 0 0.637-0.013 0.959-0.039 0.323-0.024 0.622-0.052 0.899-0.084 0.275-0.029 0.525-0.063 0.744-0.1 0.219-0.035 0.391-0.062 0.514-0.084v-4.988c0.004-0.45-0.048-0.862-0.15-1.235zM78.198 12.025c-0.176 0.041-0.391 0.069-0.653 0.084-0.26 0.017-0.561 0.023-0.897 0.023-0.565 0-1.009-0.099-1.334-0.297-0.331-0.199-0.492-0.557-0.492-1.067 0-0.277 0.066-0.499 0.2-0.668 0.132-0.169 0.297-0.302 0.496-0.399 0.2-0.099 0.419-0.162 0.658-0.191 0.241-0.029 0.469-0.047 0.685-0.047 0.327 0 0.607 0.019 0.837 0.054 0.228 0.035 0.395 0.080 0.497 0.13l0.002 2.378zM58.698 4.131v5.761c0 0.534 0.041 0.997 0.128 1.4 0.086 0.406 0.236 0.744 0.454 1.022 0.214 0.277 0.496 0.483 0.85 0.621s0.803 0.206 1.344 0.206h1.976c0-0.693-0.563-1.256-1.255-1.256h-0.599c-0.245 0-0.461-0.028-0.644-0.091-0.182-0.060-0.336-0.167-0.461-0.315-0.122-0.148-0.215-0.353-0.275-0.614s-0.092-0.588-0.092-0.987v-3.508h1.824c0.662 0 1.196-0.534 1.196-1.196h-3.021v-2.468c-0.789 0-1.427 0.639-1.427 1.425zM24.695 6.599v6.546c0.786 0 1.425-0.639 1.425-1.425v-6.546c-0.789 0-1.425 0.639-1.425 1.425zM24.485 2.792c0 0.508 0.412 0.922 0.922 0.922s0.923-0.413 0.923-0.922c0-0.509-0.414-0.923-0.923-0.923s-0.922 0.413-0.922 0.923zM64.72 6.599v6.546c0.789 0 1.425-0.639 1.425-1.425v-6.546c-0.788 0-1.425 0.639-1.425 1.425zM64.512 2.792c0 0.508 0.413 0.922 0.921 0.922 0.51 0 0.924-0.413 0.924-0.922s-0.413-0.923-0.924-0.923c-0.508 0-0.921 0.413-0.921 0.923zM102.223 7.579c-0.179-0.507-0.427-0.941-0.746-1.301s-0.696-0.638-1.132-0.835-0.917-0.296-1.444-0.296c-0.528 0-1.009 0.099-1.445 0.296-0.434 0.198-0.811 0.476-1.131 0.835s-0.569 0.793-0.744 1.301c-0.179 0.506-0.267 1.069-0.267 1.687s0.089 1.18 0.267 1.686c0.177 0.507 0.425 0.938 0.744 1.292s0.696 0.629 1.131 0.828c0.436 0.197 0.919 0.296 1.445 0.296s1.008-0.1 1.444-0.296c0.436-0.199 0.812-0.473 1.132-0.828s0.568-0.785 0.746-1.292c0.177-0.505 0.264-1.069 0.264-1.686s-0.088-1.18-0.264-1.687zM100.755 11.605c-0.456 0.577-1.076 0.867-1.854 0.867-0.781 0-1.402-0.29-1.856-0.867-0.456-0.577-0.683-1.357-0.683-2.34s0.225-1.765 0.683-2.351c0.455-0.582 1.075-0.874 1.856-0.874 0.778 0 1.398 0.292 1.854 0.874s0.685 1.366 0.685 2.351-0.229 1.764-0.685 2.34zM88.263 7.562c-0.189-0.507-0.451-0.938-0.791-1.292s-0.746-0.625-1.217-0.812-0.995-0.282-1.573-0.282c-0.697 0-1.278 0.047-1.733 0.138s-0.829 0.187-1.126 0.29v10.397c0.545 0 0.989-0.444 0.989-0.987v-2.279c0.174 0.133 0.45 0.271 0.828 0.416 0.38 0.146 0.829 0.22 1.345 0.22 0.569 0 1.073-0.1 1.513-0.304 0.443-0.202 0.814-0.485 1.118-0.845s0.534-0.791 0.693-1.291c0.158-0.501 0.236-1.051 0.236-1.649-0.002-0.641-0.095-1.212-0.282-1.719zM87.357 10.52c-0.091 0.39-0.238 0.73-0.44 1.018-0.204 0.289-0.469 0.517-0.798 0.684-0.331 0.167-0.738 0.253-1.225 0.253-0.234 0-0.456-0.023-0.668-0.069-0.216-0.046-0.412-0.101-0.594-0.176-0.181-0.068-0.341-0.144-0.479-0.226s-0.251-0.158-0.341-0.228v-5.49c0.152-0.051 0.376-0.099 0.676-0.143s0.693-0.068 1.178-0.068c0.851 0 1.536 0.276 2.052 0.828 0.518 0.553 0.775 1.345 0.775 2.38 0.001 0.434-0.047 0.849-0.137 1.239zM94.682 5.393c-0.165 0.46-0.566 0.716-1.052 0.676-0.181-0.015-0.388-0.021-0.62-0.021-0.425 0-0.769 0.031-1.026 0.091-0.257 0.062-0.429 0.112-0.508 0.152v6.888h-0.989v-7.496c0.256-0.111 0.603-0.226 1.050-0.343s0.987-0.175 1.626-0.175c0.325 0 0.631 0.026 0.921 0.076 0.287 0.052 0.487 0.102 0.599 0.152z"></path>
</svg>
