<!-- Generated by IcoMoon.io -->
<svg version="1.1" xmlns="http://www.w3.org/2000/svg" width="156" height="24" viewBox="0 0 156 24">
<title>investira_h_biz</title>
<path fill="#444" d="M147.185 8.341h7.382c0.717 0 1.231 1.127 0.763 1.668-0.31 0.36-0.677 0.8-1.095 1.326-0.591 0.736-1.221 1.559-1.893 2.466-0.669 0.904-1.333 1.848-1.99 2.831-0.657 0.987-1.236 1.918-1.732 2.797h7.281c0 0.727-0.593 1.319-1.32 1.319h-6.746c-0.648 0-1.156-0.855-0.846-1.427v0.003c0.382-0.706 0.843-1.473 1.379-2.301 0.612-0.947 1.248-1.878 1.909-2.793 0.662-0.916 1.306-1.777 1.935-2.581 0.63-0.806 1.155-1.466 1.577-1.986h-5.281c-0.731-0.003-1.322-0.594-1.322-1.322zM143.353 3.484c-0.621 0-1.125 0.504-1.125 1.125s0.504 1.125 1.125 1.125c0.623 0 1.125-0.504 1.125-1.125s-0.502-1.125-1.125-1.125zM142.574 9.902v10.845c0.861 0 1.56-0.697 1.56-1.558v-10.846c-0.861 0-1.56 0.696-1.56 1.56zM139.407 11.966c0.248 0.79 0.372 1.659 0.372 2.602 0 1.008-0.148 1.912-0.444 2.713-0.297 0.799-0.713 1.479-1.248 2.039-0.536 0.561-1.176 0.987-1.92 1.285-0.744 0.294-1.572 0.442-2.484 0.442-1.102 0-2.016-0.071-2.736-0.218-0.719-0.144-1.311-0.295-1.776-0.456v-16.678c0-0.861 0.699-1.56 1.56-1.56v6.962c0.273-0.209 0.708-0.428 1.308-0.66 0.6-0.231 1.308-0.348 2.124-0.348 0.895 0 1.692 0.16 2.388 0.48 0.696 0.321 1.284 0.768 1.764 1.345 0.48 0.573 0.843 1.255 1.092 2.051zM136.9 18.324c0.816-0.871 1.222-2.124 1.222-3.756 0-0.687-0.072-1.34-0.216-1.956-0.145-0.615-0.377-1.153-0.696-1.608-0.321-0.457-0.741-0.819-1.26-1.091-0.52-0.274-1.164-0.409-1.932-0.409-0.369 0-0.72 0.037-1.056 0.108-0.338 0.072-0.65 0.164-0.936 0.276-0.288 0.112-0.54 0.231-0.756 0.36s-0.398 0.249-0.54 0.36v8.688c0.24 0.081 0.596 0.156 1.068 0.227 0.471 0.075 1.093 0.108 1.86 0.108 1.344 0.002 2.425-0.433 3.242-1.306zM6.031 0c-3.313 0-6 2.685-6 6v18h18c3.313 0 6-2.687 6-6v-18h-18zM9.925 18.221c-0.621 0.888-1.377 1.281-2.458 1.281h-2.936l9.606-13.722c0.622-0.887 1.379-1.279 2.458-1.279h2.936l-9.606 13.721zM67.059 8.168c-1.064 0-1.878 0.621-2.164 1.644-0.096 0.348-0.156 0.539-0.258 0.888-0.311 1.043-0.495 1.629-0.846 2.66-0.34 1.002-0.535 1.561-0.906 2.552-0.326 0.867-0.51 1.351-0.87 2.203-0.363-0.852-0.55-1.337-0.873-2.203-0.369-0.99-0.568-1.55-0.907-2.552-0.348-1.032-0.535-1.617-0.846-2.66-0.102-0.348-0.157-0.538-0.255-0.888-0.289-1.023-1.104-1.644-2.164-1.644h-0.689c0.718 2.69 1.198 4.184 2.215 6.777 0.9 2.29 1.421 3.572 2.456 5.808h2.13c1.032-2.235 1.558-3.518 2.456-5.808 1.017-2.593 1.494-4.087 2.213-6.777h-0.69zM46.736 8.103c-0.852 0.147-1.541 0.284-2.056 0.413v12.235h2.253v-10.638c0.082-0.015 0.215-0.037 0.399-0.070 0.188-0.031 0.399-0.062 0.63-0.085 0.234-0.027 0.483-0.046 0.741-0.062 0.258-0.018 0.507-0.024 0.75-0.024 0.597 0 1.098 0.077 1.503 0.228 0.402 0.156 0.726 0.402 0.969 0.738 0.24 0.341 0.413 0.785 0.522 1.334 0.102 0.55 0.156 1.213 0.156 1.986v6.592h2.256v-7.074c0-0.855-0.086-1.638-0.243-2.349-0.16-0.712-0.443-1.322-0.838-1.829-0.396-0.513-0.923-0.906-1.588-1.187-0.659-0.284-1.494-0.428-2.493-0.428-1.113-0.002-2.102 0.075-2.959 0.219zM109.852 8.137c-0.79 0.173-1.453 0.351-1.983 0.548v12.064h2.25v-10.587c0.129-0.031 0.402-0.093 0.811-0.181 0.413-0.089 0.833-0.135 1.254-0.135 0.197 0 0.305 0 0.501 0.009 1.11 0.046 1.992-0.553 2.352-1.605-0.096-0.031-0.246-0.070-0.448-0.111-0.2-0.037-0.422-0.079-0.665-0.12s-0.489-0.071-0.738-0.099c-0.252-0.021-0.474-0.034-0.667-0.034-0.986-0.003-1.875 0.082-2.667 0.252zM78.327 9.433c-0.906-1.057-2.207-1.585-3.9-1.585-0.726 0-1.439 0.138-2.133 0.409s-1.309 0.685-1.839 1.238c-0.535 0.547-0.962 1.239-1.285 2.072-0.323 0.833-0.483 1.804-0.483 2.917 0 0.953 0.123 1.828 0.375 2.63 0.249 0.801 0.636 1.489 1.152 2.073 0.516 0.581 1.174 1.037 1.974 1.368s1.746 0.495 2.844 0.495c0.876 0 1.653-0.079 2.338-0.24 0.686-0.163 1.169-0.317 1.442-0.461-0.29-0.956-1.163-1.512-2.151-1.371-0.535 0.076-0.846 0.085-1.386 0.085-1.407 0-2.438-0.34-3.099-1.017-0.661-0.68-1.042-1.674-1.14-2.98h8.625c0.015-0.132 0.024-0.27 0.024-0.425v-0.378c-0.002-2.162-0.453-3.773-1.358-4.83zM71.085 13.248c0.046-0.433 0.147-0.864 0.301-1.283 0.153-0.418 0.369-0.79 0.645-1.113 0.273-0.325 0.609-0.587 1.002-0.788 0.396-0.202 0.852-0.301 1.368-0.301 0.922 0 1.644 0.325 2.171 0.981 0.522 0.654 0.78 1.488 0.765 2.505h-6.252zM82.917 8.826c-0.823 0.654-1.236 1.54-1.236 2.655 0 0.566 0.096 1.039 0.293 1.429 0.194 0.387 0.452 0.718 0.774 0.993 0.325 0.276 0.706 0.513 1.152 0.715s0.907 0.399 1.395 0.593c1.002 0.405 1.719 0.768 2.154 1.093 0.436 0.322 0.657 0.758 0.657 1.308 0 0.532-0.222 0.919-0.668 1.163-0.443 0.24-1.131 0.363-2.053 0.363-0.624 0-0.978-0.009-1.591-0.123-1.023-0.184-1.958 0.354-2.302 1.337 0.225 0.093 0.657 0.237 1.285 0.421 0.627 0.184 1.503 0.279 2.616 0.279 1.599 0 2.828-0.296 3.694-0.897 0.861-0.594 1.294-1.476 1.294-2.64 0-0.599-0.088-1.102-0.267-1.515-0.175-0.412-0.43-0.762-0.762-1.052-0.334-0.293-0.729-0.547-1.201-0.765-0.467-0.217-0.999-0.439-1.596-0.668-0.454-0.16-0.841-0.316-1.162-0.461s-0.594-0.302-0.814-0.471c-0.218-0.169-0.378-0.357-0.483-0.568s-0.157-0.454-0.157-0.726c0-0.535 0.234-0.925 0.703-1.175 0.468-0.252 1.026-0.378 1.656-0.378 0.427 0 0.668 0.009 1.090 0.061 1.052 0.126 1.94-0.409 2.32-1.395-0.132-0.046-0.311-0.102-0.547-0.166-0.231-0.064-0.504-0.126-0.811-0.181-0.305-0.058-0.639-0.108-0.993-0.147-0.354-0.041-0.71-0.059-1.064-0.059-1.43-0.003-2.552 0.322-3.375 0.975zM92.682 6.524v9.096c0 0.841 0.065 1.572 0.203 2.21 0.135 0.639 0.372 1.175 0.716 1.611 0.337 0.436 0.784 0.765 1.343 0.981 0.559 0.219 1.266 0.329 2.121 0.329h3.12c0-1.095-0.888-1.983-1.983-1.983h-0.944c-0.387 0-0.729-0.047-1.017-0.147-0.29-0.093-0.532-0.261-0.729-0.498-0.191-0.231-0.338-0.556-0.434-0.969s-0.144-0.928-0.144-1.559v-5.537h2.88c1.046 0 1.887-0.843 1.887-1.89h-4.767v-3.894c-1.243 0-2.251 1.008-2.251 2.25zM39.003 10.418v10.333c1.24 0 2.252-1.008 2.252-2.25v-10.333c-1.244 0-2.252 1.008-2.252 2.25zM38.671 4.409c0 0.803 0.651 1.454 1.454 1.454 0.804 0 1.458-0.651 1.458-1.454 0-0.805-0.654-1.457-1.458-1.457-0.803 0-1.454 0.651-1.454 1.457zM102.189 10.418v10.333c1.245 0 2.25-1.008 2.25-2.25v-10.333c-1.242 0-2.25 1.008-2.25 2.25zM101.861 4.409c0 0.803 0.651 1.454 1.453 1.454 0.805 0 1.457-0.651 1.457-1.454 0-0.805-0.651-1.457-1.457-1.457-0.803 0-1.453 0.651-1.453 1.457zM124.862 20.698c0.345-0.056 0.618-0.099 0.811-0.132v-7.877c0-0.712-0.083-1.359-0.243-1.951-0.16-0.59-0.43-1.098-0.811-1.527-0.378-0.428-0.879-0.759-1.5-0.993-0.624-0.234-1.386-0.348-2.29-0.348-0.79 0-1.527 0.058-2.207 0.178-0.676 0.12-1.163 0.246-1.453 0.375 0.246 0.967 1.107 1.561 2.1 1.45 0.528-0.059 0.827-0.071 1.359-0.071 0.581 0 1.058 0.089 1.423 0.258 0.364 0.171 0.65 0.396 0.859 0.678 0.212 0.284 0.354 0.606 0.436 0.969s0.12 0.732 0.12 1.104v0.627c-0.065-0.015-0.176-0.037-0.341-0.073-0.16-0.030-0.351-0.067-0.569-0.105-0.219-0.043-0.449-0.073-0.689-0.099-0.243-0.024-0.48-0.034-0.703-0.034-0.712 0-1.392 0.073-2.035 0.217-0.648 0.147-1.213 0.372-1.699 0.679-0.483 0.307-0.867 0.71-1.146 1.211-0.287 0.501-0.425 1.098-0.425 1.793 0 0.73 0.12 1.351 0.36 1.867 0.243 0.519 0.584 0.934 1.020 1.248 0.436 0.317 0.953 0.544 1.55 0.692 0.597 0.144 1.251 0.218 1.963 0.218 0.501 0 1.005-0.021 1.512-0.062 0.51-0.037 0.984-0.082 1.421-0.132 0.435-0.049 0.828-0.102 1.176-0.16zM118.455 15.948c0.209-0.267 0.471-0.477 0.784-0.63 0.316-0.156 0.662-0.252 1.040-0.302 0.381-0.046 0.741-0.073 1.082-0.073 0.516 0 0.958 0.030 1.321 0.086 0.36 0.056 0.624 0.126 0.785 0.206v3.756c-0.276 0.064-0.618 0.111-1.029 0.135-0.412 0.024-0.885 0.035-1.417 0.035-0.891 0-1.591-0.156-2.106-0.471-0.522-0.313-0.777-0.876-0.777-1.686 0.001-0.436 0.106-0.788 0.318-1.054z"></path>
</svg>
