<!-- Generated by IcoMoon.io -->
<svg version="1.1" xmlns="http://www.w3.org/2000/svg" width="84" height="16" viewBox="0 0 84 16">
<title>investira_h</title>
<path fill="#444" d="M1.501 4c0-1.381 1.118-2.5 2.5-2.5h10.5v10.5c0 1.381-1.118 2.5-2.5 2.5h-10.5v-10.5zM4.001 0c-2.21 0-4.001 1.79-4.001 4v12h12.001c2.209 0 4-1.79 4-4v-12h-12zM11.044 3c-0.722 0-1.226 0.262-1.64 0.853l-6.403 9.147h1.957c0.721 0 1.226-0.263 1.64-0.854l6.403-9.146h-1.957zM44.706 5.444c-0.709 0-1.253 0.414-1.443 1.096-0.064 0.232-0.104 0.359-0.172 0.592-0.207 0.695-0.33 1.086-0.563 1.773-0.228 0.668-0.358 1.041-0.604 1.7-0.217 0.578-0.341 0.9-0.58 1.47-0.242-0.568-0.367-0.892-0.582-1.47-0.246-0.659-0.379-1.032-0.604-1.7-0.232-0.688-0.357-1.078-0.564-1.773-0.067-0.232-0.105-0.359-0.17-0.592-0.193-0.682-0.736-1.096-1.443-1.096h-0.461c0.479 1.793 0.8 2.789 1.477 4.518 0.601 1.527 0.948 2.381 1.638 3.871h1.42c0.688-1.49 1.039-2.344 1.637-3.871 0.678-1.729 0.996-2.725 1.476-4.518h-0.462zM31.157 5.401c-0.569 0.098-1.028 0.189-1.372 0.275v8.156h1.503v-7.091c0.055-0.010 0.143-0.025 0.266-0.047 0.125-0.021 0.266-0.041 0.42-0.057 0.155-0.018 0.321-0.031 0.494-0.041 0.172-0.012 0.338-0.016 0.5-0.016 0.398 0 0.731 0.051 1.002 0.152 0.268 0.104 0.484 0.268 0.646 0.492 0.159 0.227 0.274 0.523 0.347 0.889 0.069 0.367 0.104 0.809 0.104 1.324v4.395h1.503v-4.716c0-0.57-0.057-1.092-0.162-1.566-0.106-0.475-0.294-0.881-0.559-1.219-0.265-0.342-0.615-0.604-1.059-0.791-0.439-0.189-0.997-0.285-1.663-0.285-0.74 0-1.398 0.051-1.97 0.146zM73.235 5.425c-0.527 0.115-0.969 0.234-1.323 0.365v8.043h1.501v-7.059c0.086-0.021 0.269-0.062 0.541-0.121 0.275-0.059 0.556-0.090 0.835-0.090 0.132 0 0.204 0 0.334 0.006 0.741 0.031 1.328-0.369 1.569-1.070-0.064-0.021-0.164-0.047-0.299-0.074-0.133-0.025-0.282-0.053-0.443-0.080-0.162-0.027-0.327-0.047-0.493-0.065-0.167-0.014-0.314-0.023-0.443-0.023-0.659-0.002-1.251 0.055-1.779 0.168zM52.218 6.288c-0.604-0.705-1.471-1.057-2.601-1.057-0.483 0-0.959 0.092-1.421 0.273-0.463 0.182-0.873 0.457-1.228 0.824-0.356 0.365-0.642 0.826-0.856 1.381-0.215 0.555-0.323 1.203-0.323 1.945 0 0.635 0.083 1.219 0.251 1.754 0.166 0.533 0.423 0.992 0.768 1.381 0.345 0.387 0.783 0.691 1.315 0.912 0.533 0.221 1.165 0.33 1.896 0.33 0.584 0 1.103-0.053 1.56-0.16 0.457-0.109 0.779-0.211 0.961-0.307-0.193-0.638-0.775-1.008-1.434-0.914-0.358 0.051-0.564 0.057-0.925 0.057-0.938 0-1.625-0.227-2.066-0.678-0.44-0.453-0.695-1.115-0.76-1.986h5.751c0.010-0.088 0.016-0.18 0.016-0.283v-0.251c0-1.442-0.302-2.516-0.904-3.221zM47.389 8.831c0.030-0.289 0.099-0.576 0.201-0.855s0.245-0.527 0.43-0.742c0.182-0.217 0.406-0.391 0.668-0.525 0.265-0.135 0.568-0.201 0.912-0.201 0.615 0 1.097 0.217 1.446 0.654 0.349 0.436 0.521 0.992 0.511 1.67l-4.168-0.001zM55.278 5.884c-0.55 0.436-0.824 1.027-0.824 1.771 0 0.377 0.063 0.693 0.194 0.953 0.129 0.258 0.302 0.479 0.517 0.662 0.217 0.184 0.472 0.342 0.769 0.477s0.604 0.266 0.929 0.395c0.668 0.271 1.147 0.512 1.438 0.729 0.291 0.215 0.437 0.506 0.437 0.871 0 0.354-0.146 0.612-0.444 0.774-0.296 0.16-0.754 0.242-1.368 0.242-0.416 0-0.652-0.006-1.062-0.082-0.682-0.123-1.305 0.236-1.534 0.891 0.149 0.062 0.438 0.158 0.856 0.281s1.003 0.187 1.745 0.187c1.064 0 1.885-0.197 2.463-0.599 0.574-0.396 0.862-0.983 0.862-1.76 0-0.398-0.060-0.734-0.178-1.010s-0.287-0.508-0.508-0.701c-0.223-0.195-0.487-0.365-0.801-0.51-0.312-0.145-0.666-0.293-1.065-0.445-0.302-0.107-0.56-0.211-0.773-0.307s-0.396-0.201-0.543-0.314c-0.146-0.113-0.252-0.238-0.322-0.379s-0.105-0.303-0.105-0.484c0-0.357 0.156-0.617 0.47-0.783 0.312-0.168 0.683-0.252 1.103-0.252 0.286 0 0.446 0.006 0.729 0.041 0.699 0.084 1.293-0.273 1.547-0.93-0.088-0.031-0.207-0.068-0.365-0.111-0.155-0.043-0.336-0.084-0.541-0.121-0.204-0.039-0.426-0.072-0.662-0.098-0.236-0.027-0.473-0.039-0.709-0.039-0.958-0.002-1.706 0.215-2.255 0.651zM61.788 4.349v6.064c0 0.562 0.042 1.049 0.136 1.473 0.090 0.427 0.247 0.783 0.476 1.074 0.226 0.291 0.524 0.51 0.896 0.654 0.372 0.146 0.845 0.219 1.413 0.219h2.081c0-0.729-0.592-1.322-1.321-1.322h-0.63c-0.258 0-0.485-0.030-0.678-0.098-0.192-0.062-0.354-0.174-0.485-0.332-0.127-0.154-0.226-0.371-0.289-0.646-0.065-0.274-0.097-0.619-0.097-1.039v-3.692h1.92c0.696 0 1.259-0.562 1.259-1.26h-3.179v-2.595c-0.83 0-1.502 0.672-1.502 1.5zM26.001 6.944v6.889c0.828 0 1.5-0.672 1.5-1.5v-6.889c-0.828 0-1.5 0.672-1.5 1.5zM25.78 2.938c0 0.535 0.435 0.969 0.97 0.969 0.536 0 0.972-0.434 0.972-0.969 0-0.537-0.436-0.971-0.972-0.971-0.535 0.001-0.97 0.434-0.97 0.971zM68.126 6.944v6.889c0.829 0 1.5-0.672 1.5-1.5v-6.889c-0.827 0-1.5 0.672-1.5 1.5zM67.906 2.938c0 0.535 0.436 0.969 0.969 0.969 0.537 0 0.973-0.434 0.973-0.969 0-0.537-0.436-0.971-0.973-0.971-0.533 0.001-0.969 0.434-0.969 0.971zM83.24 13.798c0.231-0.037 0.412-0.065 0.541-0.088v-5.25c0-0.475-0.054-0.906-0.161-1.301-0.106-0.393-0.288-0.732-0.542-1.018-0.252-0.285-0.586-0.506-1-0.662-0.415-0.156-0.924-0.232-1.525-0.232-0.527 0-1.020 0.039-1.473 0.119-0.45 0.080-0.773 0.164-0.969 0.25 0.165 0.645 0.739 1.041 1.401 0.967 0.352-0.039 0.551-0.047 0.905-0.047 0.388 0 0.704 0.059 0.948 0.172 0.242 0.113 0.434 0.264 0.572 0.451 0.141 0.189 0.237 0.404 0.291 0.646 0.055 0.242 0.081 0.488 0.081 0.736v0.419c-0.043-0.010-0.118-0.024-0.228-0.049-0.106-0.021-0.233-0.045-0.379-0.070-0.146-0.028-0.299-0.049-0.46-0.065-0.162-0.017-0.318-0.023-0.469-0.023-0.474 0-0.927 0.049-1.356 0.145-0.432 0.099-0.809 0.248-1.133 0.453-0.322 0.205-0.578 0.474-0.765 0.808-0.19 0.334-0.283 0.731-0.283 1.194 0 0.486 0.080 0.9 0.241 1.244 0.162 0.346 0.388 0.623 0.679 0.832 0.291 0.211 0.636 0.363 1.034 0.461 0.398 0.096 0.834 0.146 1.309 0.146 0.334 0 0.67-0.015 1.009-0.041 0.34-0.025 0.655-0.056 0.945-0.088 0.294-0.035 0.557-0.070 0.787-0.109zM78.97 10.632c0.138-0.178 0.312-0.317 0.522-0.42s0.441-0.168 0.693-0.201c0.254-0.030 0.494-0.049 0.72-0.049 0.344 0 0.64 0.021 0.881 0.058s0.417 0.084 0.524 0.137v2.504c-0.185 0.043-0.412 0.074-0.688 0.090-0.274 0.016-0.589 0.023-0.943 0.023-0.595 0-1.062-0.104-1.405-0.314-0.347-0.209-0.517-0.584-0.517-1.123 0.003-0.293 0.071-0.526 0.213-0.705z"></path>
</svg>
