<!-- Generated by IcoMoon.io -->
<svg version="1.1" xmlns="http://www.w3.org/2000/svg" width="25" height="16" viewBox="0 0 25 16">
<title>investira_v</title>
<path fill="#444" d="M9.665 1.718c0-0.593 0.48-1.074 1.074-1.074h4.51v4.51c0 0.593-0.48 1.074-1.074 1.074h-4.51v-4.51zM10.739 0c-0.949 0-1.719 0.769-1.719 1.718v5.154h5.154c0.949 0 1.718-0.769 1.718-1.718v-5.154h-5.154zM13.763 1.289c-0.31 0-0.527 0.113-0.704 0.366l-2.75 3.929h0.841c0.309 0 0.526-0.113 0.704-0.366l2.75-3.929h-0.841zM8.129 12.311c-0.305 0-0.538 0.178-0.62 0.471-0.027 0.1-0.044 0.154-0.074 0.254-0.089 0.299-0.142 0.466-0.242 0.762-0.098 0.287-0.154 0.447-0.259 0.731-0.093 0.248-0.146 0.387-0.249 0.631-0.104-0.244-0.158-0.383-0.25-0.631-0.105-0.283-0.162-0.444-0.259-0.731-0.101-0.296-0.154-0.463-0.243-0.762-0.029-0.099-0.046-0.154-0.073-0.254-0.082-0.293-0.316-0.471-0.62-0.471h-0.197c0.206 0.77 0.343 1.198 0.634 1.941 0.257 0.656 0.407 1.023 0.703 1.663h0.609c0.296-0.64 0.446-1.007 0.703-1.663 0.291-0.743 0.428-1.17 0.634-1.941h-0.198zM2.31 12.293c-0.245 0.042-0.442 0.081-0.589 0.118v3.503h0.646v-3.046c0.023-0.004 0.061-0.010 0.114-0.020s0.114-0.018 0.18-0.025c0.067-0.008 0.138-0.013 0.212-0.018s0.145-0.007 0.215-0.007c0.171 0 0.314 0.022 0.43 0.065 0.115 0.045 0.208 0.115 0.278 0.211 0.068 0.098 0.118 0.224 0.149 0.382s0.045 0.347 0.045 0.569v1.888h0.646v-2.026c0-0.245-0.024-0.469-0.070-0.673s-0.126-0.378-0.24-0.524c-0.113-0.147-0.265-0.259-0.454-0.34s-0.428-0.122-0.714-0.122c-0.319 0.002-0.601 0.023-0.847 0.064zM20.384 12.303c-0.226 0.049-0.417 0.101-0.568 0.157v3.455h0.645v-3.032c0.037-0.009 0.115-0.027 0.232-0.052s0.238-0.039 0.359-0.039c0.057 0 0.088 0 0.143 0.003 0.318 0.013 0.57-0.159 0.674-0.46-0.027-0.009-0.070-0.020-0.129-0.032-0.057-0.010-0.121-0.023-0.19-0.034s-0.14-0.020-0.212-0.028c-0.072-0.006-0.135-0.009-0.191-0.009-0.283-0.001-0.538 0.023-0.764 0.072zM11.355 12.674c-0.259-0.303-0.631-0.454-1.117-0.454-0.208 0-0.412 0.040-0.61 0.117s-0.375 0.196-0.527 0.354c-0.153 0.157-0.275 0.355-0.368 0.593s-0.139 0.517-0.139 0.835c0 0.273 0.036 0.524 0.108 0.753s0.182 0.426 0.329 0.593c0.148 0.167 0.336 0.297 0.565 0.392s0.5 0.142 0.814 0.142c0.251 0 0.474-0.023 0.671-0.069s0.334-0.091 0.413-0.132c-0.083-0.274-0.333-0.433-0.616-0.393-0.153 0.022-0.242 0.024-0.397 0.024-0.402 0-0.698-0.098-0.887-0.291s-0.299-0.479-0.326-0.853h2.47c0.004-0.038 0.007-0.077 0.007-0.121v-0.108c-0-0.619-0.13-1.080-0.389-1.383zM9.281 13.766c0.013-0.124 0.043-0.247 0.086-0.367s0.106-0.226 0.185-0.318c0.078-0.094 0.174-0.168 0.287-0.226 0.114-0.058 0.244-0.086 0.392-0.086 0.264 0 0.471 0.093 0.622 0.28s0.223 0.426 0.219 0.717l-1.79-0.001zM12.67 12.5c-0.236 0.188-0.354 0.441-0.354 0.761 0 0.162 0.027 0.297 0.083 0.409 0.055 0.111 0.13 0.206 0.223 0.284s0.202 0.147 0.33 0.205c0.128 0.058 0.26 0.115 0.399 0.17 0.287 0.116 0.492 0.22 0.617 0.313s0.188 0.217 0.188 0.374c0 0.152-0.063 0.263-0.19 0.333s-0.324 0.104-0.588 0.104c-0.179 0-0.28-0.003-0.456-0.035-0.293-0.053-0.561 0.101-0.658 0.383 0.064 0.027 0.188 0.068 0.367 0.121s0.431 0.080 0.75 0.080c0.457 0 0.81-0.085 1.058-0.257 0.247-0.17 0.371-0.423 0.371-0.756 0-0.171-0.026-0.315-0.077-0.434s-0.123-0.218-0.218-0.301c-0.096-0.084-0.209-0.157-0.344-0.219-0.134-0.063-0.286-0.126-0.457-0.191-0.13-0.046-0.241-0.091-0.332-0.132s-0.17-0.086-0.233-0.134c-0.063-0.049-0.108-0.102-0.138-0.163s-0.045-0.131-0.045-0.208c0-0.153 0.067-0.265 0.201-0.336s0.294-0.108 0.474-0.108c0.122 0 0.191 0.003 0.313 0.018 0.301 0.036 0.555-0.117 0.664-0.399-0.038-0.013-0.089-0.029-0.157-0.048-0.067-0.018-0.144-0.036-0.232-0.052s-0.183-0.031-0.284-0.042c-0.101-0.012-0.204-0.017-0.305-0.017-0.411-0.002-0.733 0.091-0.969 0.279zM15.467 11.84v2.604c0 0.241 0.018 0.451 0.058 0.633 0.039 0.183 0.107 0.336 0.204 0.461s0.225 0.219 0.385 0.281c0.16 0.063 0.363 0.094 0.607 0.094h0.894c0-0.313-0.255-0.567-0.568-0.567h-0.27c-0.111 0-0.209-0.013-0.292-0.043-0.082-0.027-0.152-0.075-0.208-0.143-0.055-0.066-0.097-0.159-0.124-0.277s-0.041-0.265-0.041-0.446v-1.586h0.825c0.299 0 0.54-0.241 0.54-0.541h-1.365v-1.115c-0.356 0.001-0.645 0.29-0.645 0.646zM0.095 12.955v2.959c0.356 0 0.644-0.289 0.644-0.644v-2.959c-0.356 0-0.644 0.289-0.644 0.644zM0 11.235c0 0.23 0.186 0.416 0.417 0.416s0.417-0.186 0.417-0.416c0-0.231-0.186-0.417-0.417-0.417s-0.417 0.186-0.417 0.417zM18.189 12.955v2.959c0.356 0 0.644-0.289 0.644-0.644v-2.959c-0.356 0-0.644 0.289-0.644 0.644zM18.094 11.235c0 0.23 0.187 0.416 0.417 0.416 0.231 0 0.418-0.186 0.418-0.416s-0.187-0.417-0.418-0.417c-0.229 0-0.417 0.186-0.417 0.417zM24.68 15.899c0.099-0.016 0.177-0.028 0.232-0.038v-2.255c0-0.204-0.023-0.389-0.069-0.559s-0.124-0.314-0.233-0.437c-0.109-0.122-0.252-0.217-0.43-0.284s-0.397-0.1-0.655-0.1c-0.226 0-0.438 0.017-0.632 0.051s-0.332 0.070-0.417 0.107c0.071 0.277 0.317 0.447 0.602 0.415 0.152-0.017 0.237-0.020 0.389-0.020 0.166 0 0.302 0.025 0.407 0.074 0.104 0.049 0.186 0.113 0.245 0.194 0.061 0.081 0.102 0.174 0.125 0.277s0.035 0.209 0.035 0.316v0.18c-0.018-0.004-0.050-0.010-0.098-0.021-0.046-0.009-0.101-0.019-0.163-0.030-0.063-0.012-0.128-0.021-0.198-0.028s-0.137-0.010-0.202-0.010c-0.204 0-0.398 0.021-0.582 0.063-0.186 0.042-0.347 0.106-0.487 0.194s-0.248 0.204-0.329 0.347c-0.081 0.143-0.122 0.314-0.122 0.513 0 0.209 0.034 0.387 0.104 0.534 0.070 0.149 0.167 0.268 0.292 0.357s0.274 0.156 0.445 0.198c0.171 0.042 0.358 0.063 0.562 0.063 0.143 0 0.288-0.006 0.433-0.018s0.282-0.024 0.406-0.038c0.126-0.014 0.239-0.029 0.338-0.046zM22.846 14.54c0.059-0.076 0.134-0.136 0.224-0.18s0.189-0.072 0.298-0.086c0.109-0.013 0.212-0.021 0.31-0.021 0.148 0 0.275 0.009 0.378 0.025s0.179 0.036 0.225 0.059v1.076c-0.079 0.018-0.177 0.032-0.295 0.039s-0.252 0.009-0.405 0.009c-0.255 0-0.456-0.045-0.603-0.135-0.149-0.090-0.222-0.251-0.222-0.482 0.001-0.125 0.030-0.226 0.091-0.302z"></path>
</svg>
