<!-- Generated by IcoMoon.io -->
<svg version="1.1" xmlns="http://www.w3.org/2000/svg" width="16" height="16" viewBox="0 0 16 16">
<title>key</title>
<path fill="#444" d="M3.787 12.582v0.814c0 0.293-0.107 0.48-0.347 0.648l-1.373 0.963c-0.241 0.168-0.453 0.203-0.729 0.104l-0.766-0.279 3.215-2.25zM14.082 9.018c-1.888 1.322-4.434 0.971-5.929-0.713l-8.153 5.709v-0.814c0-0.293 0.106-0.48 0.347-0.648l7.231-5.062c-1.091-1.986-0.555-4.515 1.342-5.844 2.033-1.424 4.845-0.928 6.268 1.104 1.423 2.033 0.927 4.844-1.106 6.268zM14.368 3.324c-1.106-1.58-3.293-1.967-4.874-0.859-1.582 1.107-1.966 3.293-0.859 4.875 1.106 1.58 3.293 1.967 4.874 0.859 1.582-1.107 1.967-3.295 0.859-4.875z"></path>
</svg>
