<!-- Generated by IcoMoon.io -->
<svg version="1.1" xmlns="http://www.w3.org/2000/svg" width="24" height="24" viewBox="0 0 24 24">
<title>key</title>
<path fill="#444" d="M5.681 18.873v1.221c0 0.439-0.161 0.72-0.521 0.972l-2.059 1.444c-0.362 0.252-0.679 0.304-1.094 0.156l-1.149-0.419 4.822-3.375zM21.123 13.527c-2.832 1.983-6.651 1.457-8.893-1.069l-12.23 8.563v-1.221c0-0.439 0.159-0.72 0.52-0.972l10.846-7.593c-1.636-2.979-0.832-6.772 2.013-8.766 3.049-2.136 7.268-1.392 9.402 1.656 2.134 3.050 1.391 7.266-1.659 9.402zM21.552 4.986c-1.659-2.37-4.94-2.95-7.311-1.288-2.373 1.661-2.949 4.94-1.288 7.313 1.659 2.37 4.94 2.95 7.311 1.289 2.373-1.661 2.951-4.943 1.288-7.313z"></path>
</svg>
