<!-- Generated by IcoMoon.io -->
<svg version="1.1" xmlns="http://www.w3.org/2000/svg" width="24" height="24" viewBox="0 0 24 24">
<title>key</title>
<path fill="#444" d="M6.208 18.3v1.12c0 0.403-0.148 0.661-0.477 0.892l-1.888 1.324c-0.332 0.23-0.623 0.279-1.002 0.143l-1.053-0.385 4.42-3.094zM20.363 13.399c-2.596 1.817-6.096 1.334-8.152-0.98l-11.211 7.85v-1.12c0-0.402 0.146-0.66 0.477-0.892l9.943-6.961c-1.5-2.729-0.763-6.206 1.845-8.032 2.796-1.957 6.662-1.275 8.618 1.518 1.957 2.795 1.275 6.659-1.52 8.617zM20.756 5.57c-1.521-2.172-4.528-2.704-6.702-1.182-2.175 1.523-2.703 4.528-1.182 6.703 1.521 2.173 4.528 2.705 6.702 1.182 2.176-1.522 2.705-4.53 1.182-6.703z"></path>
</svg>
