<!-- Generated by IcoMoon.io -->
<svg version="1.1" xmlns="http://www.w3.org/2000/svg" width="16" height="16" viewBox="0 0 16 16">
<title>key</title>
<path fill="#444" d="M16 9l-0.467 0.667c-0.168 0.24-0.363 0.332-0.656 0.333h-0.854c-0.293-0.001-0.488-0.093-0.656-0.333l-0.467-0.667h3.1zM16 8h-8c0 2.206-1.794 4-4 4s-4-1.794-4-4 1.794-4 4-4c1.858 0 3.411 1.279 3.858 3h7.019c0.293 0.001 0.488 0.093 0.656 0.333l0.467 0.667zM7 8c0-1.657-1.343-3-3-3s-3 1.343-3 3 1.343 3 3 3 3-1.343 3-3z"></path>
</svg>
