<!-- Generated by IcoMoon.io -->
<svg version="1.1" xmlns="http://www.w3.org/2000/svg" width="24" height="24" viewBox="0 0 24 24">
<title>keyhole</title>
<path d="M12 5.125c-2.465 0-4.47 2.005-4.47 4.47 0 1.324 0.643 2.581 1.72 3.438v4.467c0 0.76 0.616 1.375 1.375 1.375h2.75c0.759 0 1.375-0.615 1.375-1.375v-4.468c1.078-0.856 1.72-2.113 1.72-3.438 0-2.464-2.005-4.469-4.47-4.469zM13.375 12.3v5.2h-2.75v-5.2c-0.961-0.522-1.72-1.532-1.72-2.705 0-1.709 1.387-3.095 3.095-3.095s3.095 1.386 3.095 3.095c0 1.173-0.759 2.182-1.72 2.705zM12 1c-6.075 0-11 4.926-11 11s4.925 11 11 11 11-4.926 11-11-4.925-11-11-11zM12 21.625c-5.316 0-9.625-4.309-9.625-9.625s4.309-9.625 9.625-9.625 9.625 4.309 9.625 9.625-4.309 9.625-9.625 9.625z"></path>
</svg>
