<!-- Generated by IcoMoon.io -->
<svg version="1.1" xmlns="http://www.w3.org/2000/svg" width="24" height="24" viewBox="0 0 24 24">
<title>lamp</title>
<path fill="#444" d="M12.083 1c-0.004 0-0.162 0-0.167 0-3.864 0.040-7.008 3.216-7.008 7.079 0 1.841 0.707 3.585 2.021 4.952 0.373 0.506 1.666 3.262 1.776 4.583 0.055 0.658-0.089 1.154 0.551 1.231 0 0.011-0.006 0.019-0.006 0.029v2.75c0 0.76 0.616 1.375 1.375 1.375h2.768c0.759 0 1.375-0.615 1.375-1.375v-2.75h0.025c0.715 0 0.58-0.548 0.64-1.261 0.116-1.389 1.312-4.136 1.668-4.622 1.284-1.326 1.991-3.072 1.991-4.913 0-3.866-3.144-7.042-7.009-7.078zM13.393 21.625h-2.768v-2.75h2.768v2.75zM16.113 12.036c-0.054 0.058-0.104 0.115-0.149 0.179-0.473 0.645-1.764 3.635-1.901 5.285h-3.987c-0.138-1.65-1.566-4.644-2.040-5.285-0.046-0.063-0.095-0.121-0.148-0.178-1.034-1.069-1.604-2.477-1.604-3.958 0-3.126 2.528-5.672 5.647-5.704 0.023 0.001 0.116 0.001 0.14 0 3.119 0.029 5.647 2.578 5.647 5.704-0.001 1.483-0.571 2.889-1.605 3.957z"></path>
</svg>
