<!-- Generated by IcoMoon.io -->
<svg version="1.1" xmlns="http://www.w3.org/2000/svg" width="24" height="24" viewBox="0 0 24 24">
<title>lamp</title>
<path fill="#444" d="M12.090 0c-0.005 0-0.177 0-0.181 0-4.216 0.044-7.646 3.508-7.646 7.722 0 2.008 0.771 3.911 2.205 5.403 0.407 0.552 1.817 3.558 1.938 5 0.060 0.718-0.098 1.26 0.601 1.344-0.002 0.010-0.008 0.019-0.008 0.032v3c0 0.829 0.672 1.5 1.5 1.5h3.019c0.828 0 1.5-0.67 1.5-1.5v-3h0.029c0.78 0 0.633-0.597 0.697-1.375 0.126-1.515 1.431-4.512 1.82-5.042 1.401-1.447 2.172-3.351 2.172-5.359 0-4.22-3.43-7.684-7.647-7.723zM13.52 22.5h-3.020v-3h3.020v3zM16.486 12.039c-0.058 0.063-0.114 0.126-0.162 0.195-0.516 0.703-1.925 3.966-2.075 5.766h-4.35c-0.15-1.8-1.708-5.065-2.224-5.766-0.051-0.069-0.103-0.132-0.162-0.194-1.128-1.167-1.75-2.701-1.75-4.318 0-3.41 2.757-6.188 6.161-6.222 0.025 0.001 0.126 0.001 0.153 0 3.404 0.031 6.161 2.813 6.161 6.222 0 1.619-0.622 3.151-1.75 4.317z"></path>
</svg>
