<!-- Generated by IcoMoon.io -->
<svg version="1.1" xmlns="http://www.w3.org/2000/svg" width="16" height="16" viewBox="0 0 16 16">
<title>lifebelt</title>
<path fill="#444" d="M8 0c-4.411 0-8 3.589-8 8s3.589 8 8 8 8-3.589 8-8-3.589-8-8-8zM8 1c1.753 0 3.351 0.649 4.579 1.714l-1.786 1.786c-0.77-0.616-1.732-1-2.793-1s-2.023 0.384-2.793 1l-1.786-1.786c1.228-1.066 2.826-1.714 4.579-1.714zM8 11.5c-1.93 0-3.5-1.569-3.5-3.5s1.57-3.5 3.5-3.5 3.5 1.569 3.5 3.5-1.57 3.5-3.5 3.5zM1 8c0-1.753 0.649-3.352 1.714-4.579l1.786 1.786c-0.616 0.77-1 1.732-1 2.793s0.384 2.023 1 2.793l-1.786 1.786c-1.065-1.227-1.714-2.826-1.714-4.579zM8 15c-1.753 0-3.351-0.648-4.579-1.714l1.786-1.786c0.77 0.616 1.732 1 2.793 1s2.023-0.384 2.793-1l1.786 1.786c-1.228 1.065-2.826 1.714-4.579 1.714zM13.286 12.579l-1.786-1.786c0.616-0.77 1-1.732 1-2.793s-0.384-2.023-1-2.793l1.786-1.786c1.065 1.228 1.714 2.826 1.714 4.579s-0.649 3.351-1.714 4.579z"></path>
</svg>
