<!-- Generated by IcoMoon.io -->
<svg version="1.1" xmlns="http://www.w3.org/2000/svg" width="16" height="16" viewBox="0 0 16 16">
<title>lifebelt</title>
<path fill="#444" d="M8 0c-4.411 0-8 3.589-8 8s3.589 8 8 8 8-3.589 8-8-3.589-8-8-8zM6 8c0-1.103 0.897-2 2-2s2 0.897 2 2-0.897 2-2 2-2-0.897-2-2zM12.579 2.714l-2.845 2.845c-0.49-0.349-1.086-0.559-1.734-0.559s-1.244 0.21-1.734 0.559l-2.845-2.845c1.228-1.066 2.826-1.714 4.579-1.714s3.351 0.649 4.579 1.714zM1 8c0-1.753 0.649-3.352 1.714-4.579l2.845 2.845c-0.349 0.49-0.559 1.086-0.559 1.734s0.21 1.244 0.559 1.734l-2.845 2.845c-1.065-1.227-1.714-2.826-1.714-4.579zM3.421 13.286l2.845-2.845c0.49 0.349 1.086 0.559 1.734 0.559s1.244-0.21 1.734-0.559l2.845 2.845c-1.228 1.065-2.826 1.714-4.579 1.714s-3.351-0.648-4.579-1.714zM13.286 12.579l-2.845-2.845c0.349-0.49 0.559-1.086 0.559-1.734s-0.21-1.244-0.559-1.734l2.845-2.845c1.065 1.228 1.714 2.826 1.714 4.579s-0.649 3.351-1.714 4.579z"></path>
</svg>
