<!-- Generated by IcoMoon.io -->
<svg version="1.1" xmlns="http://www.w3.org/2000/svg" width="24" height="24" viewBox="0 0 24 24">
<title>lifebelt</title>
<path fill="#444" d="M12 0c-6.616 0-12 5.383-12 12s5.383 12 12 12 12-5.384 12-12-5.384-12-12-12zM12 1.5c2.63 0 5.026 0.974 6.869 2.571l-2.679 2.679c-1.155-0.924-2.598-1.5-4.19-1.5s-3.034 0.576-4.19 1.5l-2.679-2.679c1.842-1.599 4.239-2.571 6.869-2.571zM12 17.25c-2.895 0-5.25-2.353-5.25-5.25s2.355-5.25 5.25-5.25 5.25 2.354 5.25 5.25-2.355 5.25-5.25 5.25zM1.5 12c0-2.63 0.974-5.028 2.571-6.868l2.679 2.679c-0.924 1.155-1.5 2.598-1.5 4.189s0.576 3.034 1.5 4.189l-2.679 2.679c-1.597-1.84-2.571-4.239-2.571-6.868zM12 22.5c-2.63 0-5.027-0.972-6.868-2.571l2.679-2.679c1.155 0.924 2.598 1.5 4.189 1.5s3.034-0.576 4.189-1.5l2.679 2.679c-1.842 1.598-4.239 2.571-6.868 2.571zM19.929 18.869l-2.679-2.679c0.924-1.155 1.5-2.598 1.5-4.19s-0.576-3.034-1.5-4.19l2.679-2.679c1.598 1.842 2.571 4.239 2.571 6.869s-0.974 5.026-2.571 6.869z"></path>
</svg>
