<!-- Generated by IcoMoon.io -->
<svg version="1.1" xmlns="http://www.w3.org/2000/svg" width="24" height="24" viewBox="0 0 24 24">
<title>link</title>
<path fill="#444" d="M5.773 23c-1.277 0-2.477-0.496-3.376-1.397-0.901-0.9-1.397-2.099-1.397-3.377 0-1.277 0.496-2.477 1.397-3.378l2.162-2.162c0.901-0.901 2.1-1.396 3.377-1.396 0.939 0 1.848 0.271 2.626 0.783l0.216 0.144 1.438-1.437-0.143-0.218c-1.241-1.883-0.983-4.408 0.613-6.003l2.161-2.162c0.902-0.902 2.101-1.397 3.379-1.397 1.277 0 2.477 0.495 3.377 1.396 1.863 1.862 1.863 4.894 0 6.755l-2.162 2.162c-0.9 0.901-2.1 1.396-3.377 1.396v0c-0.939 0-1.848-0.271-2.626-0.781l-0.216-0.145-1.437 1.438 0.142 0.217c1.24 1.885 0.982 4.409-0.613 6.002l-2.161 2.162c-0.902 0.902-2.101 1.398-3.38 1.398zM7.918 12.696c-0.896 0-1.737 0.349-2.37 0.981l-2.16 2.161c-0.638 0.637-0.989 1.484-0.989 2.386s0.352 1.75 0.989 2.388c0.638 0.637 1.486 0.988 2.386 0.988 0.901 0 1.749-0.351 2.386-0.987l2.162-2.162c1-0.998 1.264-2.533 0.656-3.82l-0.193-0.411-2.285 2.284c-0.134 0.135-0.313 0.208-0.503 0.208s-0.368-0.073-0.501-0.208c-0.278-0.277-0.278-0.728 0-1.005l2.284-2.284-0.409-0.192c-0.451-0.213-0.954-0.327-1.453-0.327zM16.002 7.287c0.189 0 0.368 0.075 0.502 0.209s0.208 0.313 0.208 0.503c0 0.189-0.074 0.367-0.208 0.501l-2.285 2.286 0.409 0.191c0.451 0.213 0.953 0.326 1.451 0.326 0.896 0 1.738-0.35 2.37-0.982l2.163-2.161c0.637-0.637 0.988-1.483 0.988-2.386 0-0.9-0.351-1.749-0.988-2.388-0.638-0.637-1.485-0.987-2.387-0.987s-1.749 0.351-2.387 0.987l-2.16 2.162c-1 0.999-1.264 2.534-0.656 3.82l0.193 0.409 2.285-2.281c0.134-0.134 0.312-0.209 0.502-0.209z"></path>
</svg>
