<!-- Generated by IcoMoon.io -->
<svg version="1.1" xmlns="http://www.w3.org/2000/svg" width="16" height="16" viewBox="0 0 16 16">
<title>link</title>
<path fill="#444" d="M14.661 1.343c-1.755-1.755-4.57-1.795-6.276-0.089l-1.591 1.591c-0.752 0.753-1.144 1.724-1.219 2.724-1.002 0.074-1.977 0.466-2.733 1.222l-1.591 1.591c-1.702 1.702-1.663 4.517 0.088 6.275 1.755 1.755 4.57 1.795 6.276 0.089l1.591-1.591c0.752-0.753 1.144-1.725 1.219-2.725 1.002-0.073 1.978-0.466 2.733-1.222l1.591-1.591c1.702-1.701 1.663-4.515-0.088-6.274zM8.499 12.448l-1.591 1.591c-1.316 1.316-3.497 1.276-4.861-0.089-1.364-1.37-1.401-3.548-0.088-4.861l1.591-1.591c0.57-0.569 1.303-0.87 2.060-0.934 0.139 0.93 0.553 1.832 1.273 2.556 0.72 0.721 1.621 1.136 2.548 1.275-0.066 0.755-0.365 1.486-0.932 2.053zM6.615 6.611c0.655 0.137 1.282 0.463 1.796 0.976 0.514 0.516 0.838 1.146 0.974 1.802-0.655-0.137-1.282-0.463-1.796-0.976-0.513-0.516-0.838-1.146-0.974-1.802zM14.042 6.911l-1.591 1.591c-0.57 0.569-1.303 0.87-2.060 0.934-0.139-0.93-0.553-1.832-1.273-2.556-0.72-0.721-1.621-1.136-2.548-1.275 0.065-0.755 0.364-1.486 0.931-2.053l1.591-1.591c1.316-1.316 3.497-1.276 4.861 0.089 1.364 1.37 1.401 3.548 0.089 4.861z"></path>
</svg>
