<!-- Generated by IcoMoon.io -->
<svg version="1.1" xmlns="http://www.w3.org/2000/svg" width="24" height="24" viewBox="0 0 24 24">
<title>link</title>
<path fill="#444" d="M21.991 2.014c-2.633-2.632-6.855-2.692-9.414-0.133l-2.387 2.386c-1.128 1.13-1.716 2.586-1.829 4.086-1.503 0.111-2.966 0.699-4.099 1.833l-2.387 2.386c-2.553 2.553-2.494 6.776 0.132 9.413 2.633 2.632 6.855 2.692 9.414 0.133l2.386-2.386c1.128-1.13 1.716-2.587 1.829-4.087 1.503-0.11 2.967-0.699 4.099-1.833l2.387-2.386c2.553-2.552 2.494-6.772-0.132-9.411zM12.748 18.672l-2.386 2.386c-1.974 1.974-5.245 1.914-7.291-0.134-2.046-2.055-2.102-5.322-0.132-7.291l2.387-2.386c0.855-0.854 1.954-1.305 3.090-1.401 0.208 1.395 0.829 2.748 1.909 3.834 1.080 1.082 2.432 1.704 3.822 1.913-0.099 1.133-0.548 2.229-1.398 3.079zM9.922 9.916c0.983 0.206 1.923 0.695 2.694 1.464 0.771 0.774 1.257 1.719 1.461 2.703-0.982-0.206-1.923-0.694-2.694-1.464-0.77-0.774-1.257-1.719-1.461-2.703zM21.063 10.366l-2.386 2.386c-0.855 0.853-1.954 1.305-3.090 1.401-0.209-1.395-0.83-2.748-1.91-3.834-1.080-1.082-2.431-1.704-3.822-1.912 0.098-1.133 0.546-2.229 1.396-3.080l2.387-2.386c1.974-1.974 5.245-1.914 7.291 0.134 2.046 2.055 2.102 5.322 0.134 7.292z"></path>
</svg>
