<!-- Generated by IcoMoon.io -->
<svg version="1.1" xmlns="http://www.w3.org/2000/svg" width="16" height="16" viewBox="0 0 16 16">
<title>lion</title>
<path fill="#444" d="M15.923 7.115l-2.5-6c-0.155-0.372-0.519-0.615-0.923-0.615h-3.5c-0.265 0-0.52 0.105-0.707 0.293l-0.293 0.293-0.293-0.293c-0.187-0.188-0.442-0.293-0.707-0.293h-3.5c-0.404 0-0.768 0.243-0.923 0.615l-2.5 6c-0.104 0.25-0.103 0.53 0.004 0.778l3 7c0.157 0.369 0.519 0.607 0.919 0.607h8c0.4 0 0.762-0.238 0.919-0.606l3-7c0.106-0.248 0.108-0.529 0.004-0.779zM12 14.5h-8l-3-7 2.5-6h3.5l1 1 1-1h3.5l2.5 6-3 7zM4 5h0.877c0.293 0.002 0.488 0.094 0.656 0.334l0.467 0.666h-0.877c-0.293-0.001-0.488-0.093-0.656-0.333l-0.467-0.667zM11.533 5.667c-0.168 0.24-0.363 0.332-0.656 0.333h-0.877l0.467-0.666c0.168-0.24 0.363-0.332 0.656-0.334h0.877l-0.467 0.667zM9.562 8l-0.467 0.667c-0.168 0.24-0.364 0.332-0.657 0.333h-0.876c-0.293-0.001-0.489-0.093-0.657-0.333l-0.467-0.667h3.124zM5.9 11l0.467-0.667c0.168-0.24 0.363-0.332 0.656-0.333h1.954c0.293 0.001 0.488 0.093 0.656 0.333l0.467 0.667h-4.2z"></path>
</svg>
