<!-- Generated by IcoMoon.io -->
<svg version="1.1" xmlns="http://www.w3.org/2000/svg" width="24" height="24" viewBox="0 0 24 24">
<title>lion</title>
<path fill="#444" d="M23.884 10.672l-3.75-9c-0.232-0.558-0.778-0.922-1.384-0.922h-5.25c-0.398 0-0.78 0.157-1.061 0.439l-0.44 0.439-0.44-0.439c-0.28-0.282-0.663-0.439-1.060-0.439h-5.25c-0.606 0-1.152 0.364-1.384 0.922l-3.75 9c-0.156 0.375-0.154 0.795 0.006 1.167l4.5 10.5c0.236 0.553 0.779 0.91 1.378 0.91h12c0.6 0 1.143-0.357 1.379-0.909l4.5-10.5c0.159-0.372 0.162-0.794 0.006-1.169zM18 21.75h-12l-4.5-10.5 3.75-9h5.25l1.5 1.5 1.5-1.5h5.25l3.75 9-4.5 10.5zM6 7.5h1.316c0.439 0.003 0.732 0.141 0.984 0.501l0.7 0.999h-1.315c-0.439-0.002-0.732-0.139-0.984-0.5l-0.701-1zM17.299 8.5c-0.252 0.36-0.544 0.498-0.984 0.5h-1.316l0.701-0.999c0.252-0.36 0.544-0.498 0.984-0.501h1.316l-0.701 1zM14.343 12l-0.701 1c-0.252 0.36-0.546 0.498-0.986 0.5h-1.314c-0.44-0.002-0.734-0.139-0.986-0.5l-0.7-1h4.686zM8.85 16.5l0.7-1c0.252-0.36 0.545-0.498 0.984-0.5h2.931c0.439 0.002 0.732 0.139 0.984 0.5l0.701 1h-6.3z"></path>
</svg>
