<!-- Generated by IcoMoon.io -->
<svg version="1.1" xmlns="http://www.w3.org/2000/svg" width="16" height="16" viewBox="0 0 16 16">
<title>location</title>
<path fill="#444" d="M8 0c-3.709 0-6.727 3.018-6.727 6.727 0 4.932 5.92 8.938 6.172 9.105 0.168 0.112 0.362 0.168 0.555 0.168s0.387-0.056 0.555-0.168c0.252-0.168 6.172-4.174 6.172-9.105 0-3.709-3.018-6.727-6.727-6.727zM8 15c0 0-5.727-3.82-5.727-8.273 0-3.164 2.565-5.727 5.727-5.727 3.164 0 5.727 2.563 5.727 5.727 0 4.453-5.727 8.273-5.727 8.273zM8 4c-1.103 0-2 0.896-2 1.999s0.897 2.001 2 2.001 2-0.897 2-2.001c0-1.103-0.897-1.999-2-1.999zM8 7c-0.553 0-1-0.447-1-1.001s0.447-0.999 1-0.999 1 0.446 1 0.999c0 0.554-0.448 1.001-1 1.001z"></path>
</svg>
