<!-- Generated by IcoMoon.io -->
<svg version="1.1" xmlns="http://www.w3.org/2000/svg" width="24" height="24" viewBox="0 0 24 24">
<title>location</title>
<path fill="#444" d="M12 0c-5.563 0-10.091 4.527-10.091 10.091 0 7.398 8.88 13.407 9.258 13.658 0.252 0.168 0.543 0.252 0.832 0.252s0.58-0.084 0.833-0.252c0.378-0.252 9.258-6.261 9.258-13.658 0-5.564-4.527-10.091-10.090-10.091zM12 22.5c0 0-8.591-5.73-8.591-12.409 0-4.746 3.847-8.591 8.591-8.591 4.746 0 8.59 3.845 8.59 8.591 0 6.679-8.59 12.409-8.59 12.409zM12 6c-1.654 0-3 1.344-3 2.998 0 1.656 1.346 3.002 3 3.002s3-1.346 3-3.002c0-1.654-1.346-2.998-3-2.998zM12 10.5c-0.829 0-1.5-0.671-1.5-1.502 0-0.829 0.671-1.498 1.5-1.498s1.5 0.669 1.5 1.498c0 0.831-0.672 1.502-1.5 1.502z"></path>
</svg>
