<!-- Generated by IcoMoon.io -->
<svg version="1.1" xmlns="http://www.w3.org/2000/svg" width="24" height="24" viewBox="0 0 24 24">
<title>lock</title>
<path d="M16.821 11.275v-5.553c0-2.602-2.168-4.722-4.831-4.722s-4.832 2.12-4.832 4.722v5.554h-0.811c-1.244 0-2.256 1.018-2.256 2.257v9.467h13.545c1.253 0 2.273-1.012 2.273-2.256v-9.469h-3.088zM8.582 5.722c0-1.819 1.528-3.299 3.408-3.299s3.407 1.479 3.38 3.285l0.027 0.471v5.097h-6.815v-5.554zM18.497 20.744c0 0.467-0.387 0.84-0.861 0.84h-12.132l-0.001-8.052c0-0.461 0.377-0.842 0.844-0.842h12.15v8.054z"></path>
</svg>
