<!-- Generated by IcoMoon.io -->
<svg version="1.1" xmlns="http://www.w3.org/2000/svg" width="24" height="24" viewBox="0 0 24 24">
<title>magnet</title>
<path fill="#444" d="M21 0h-3c-0.828 0-1.5 0.67-1.5 1.5v8.952c0 6.048-1.596 7.548-4.5 7.548-2.967 0-4.453-1.453-4.5-7.546v-8.954c0-0.83-0.671-1.5-1.5-1.5h-3c-0.828 0-1.5 0.67-1.5 1.5v10.5c0 10.5 6.604 12 10.5 12 3.897 0 10.5-1.547 10.5-12v-10.5c0-0.83-0.67-1.5-1.5-1.5zM6 1.5v3h-3v-3h3zM21 12c0 9.046-5.072 10.5-9 10.5-3.927 0-9-1.5-9-10.5v-6h3v4.453c0 7.593 3.079 9.047 6 9.047 2.922 0 6-1.407 6-9.048v-4.454l3 0.002v6zM21 4.5l-3-0.002v-2.998h3v3z"></path>
</svg>
