<!-- Generated by IcoMoon.io -->
<svg version="1.1" xmlns="http://www.w3.org/2000/svg" width="16" height="16" viewBox="0 0 16 16">
<title>magnet</title>
<path fill="#444" d="M15 0.001h-2c-0.552 0-1 0.447-1 1v5.968c0 4.643-2.064 5.031-4 5.031-1.978 0-4-0.598-4-5.031v-5.969c0-0.553-0.447-1-1-1h-2c-0.552 0-1 0.447-1 1v7c0 8 5.403 8 8 8s8 0.001 8-7.999v-7c0-0.553-0.447-1-1-1zM3 1v2h-2v-2h2zM15 8.001c0 7-4.381 6.999-7 6.999s-7 0-7-7v-4h2v2.969c0 5.531 3.053 6.031 5 6.031 1.948 0 5-0.38 5-6.031v-2.969l2 0.001v4zM15 3.001l-2-0.001v-1.999h2v2z"></path>
</svg>
