<!-- Generated by IcoMoon.io -->
<svg version="1.1" xmlns="http://www.w3.org/2000/svg" width="16" height="16" viewBox="0 0 16 16">
<title>mail</title>
<path fill="#444" d="M16 3.169c-0.177-0.669-0.856-1.169-1.599-1.169h-12.801c-0.744 0-1.423 0.5-1.6 1.169v8.288c0 0.848 0.719 1.543 1.599 1.543h12.801c0.879 0 1.6-0.695 1.6-1.543v-8.288zM1 3.553v-0.003c0-0.298 0.275-0.55 0.6-0.55h12.801c0.325 0 0.599 0.252 0.599 0.55v0.286l-6.667 4.71c-0.11 0.078-0.222 0.118-0.333 0.118s-0.223-0.040-0.333-0.118l-6.667-4.71v-0.283zM15 11.457c0 0.294-0.275 0.543-0.6 0.543h-12.801c-0.325 0-0.599-0.249-0.599-0.543v-6.403l7 4.946 7-4.946v6.403z"></path>
</svg>
