<!-- Generated by IcoMoon.io -->
<svg version="1.1" xmlns="http://www.w3.org/2000/svg" width="24" height="24" viewBox="0 0 24 24">
<title>mail</title>
<path fill="#444" d="M24 4.753c-0.265-1.003-1.284-1.753-2.398-1.753h-19.202c-1.116 0-2.135 0.75-2.4 1.753v12.432c0 1.272 1.079 2.314 2.399 2.314h19.202c1.319 0 2.4-1.043 2.4-2.314v-12.432zM1.5 5.329v-0.005c0-0.447 0.412-0.825 0.9-0.825h19.202c0.487 0 0.898 0.378 0.898 0.825v0.429l-10 7.065c-0.165 0.117-0.333 0.177-0.5 0.177s-0.335-0.060-0.5-0.177l-10-7.065v-0.425zM22.5 17.186c0 0.441-0.413 0.814-0.9 0.814h-19.202c-0.487 0-0.898-0.373-0.898-0.814v-9.604l10.5 7.419 10.5-7.419v9.605z"></path>
</svg>
