<!-- Generated by IcoMoon.io -->
<svg version="1.1" xmlns="http://www.w3.org/2000/svg" width="24" height="24" viewBox="0 0 24 24">
<title>mail</title>
<path fill="#444" d="M23 6.046c-0.244-0.921-1.178-1.608-2.199-1.608h-17.601c-1.022 0-1.956 0.688-2.2 1.608v11.394c0 1.169 0.988 2.123 2.199 2.123h17.601c1.209 0 2.2-0.954 2.2-2.123v-11.394zM2.375 6.571v-0.004c0-0.408 0.377-0.755 0.825-0.755h17.601c0.447 0 0.824 0.347 0.824 0.755v0.393l-9.167 6.479c-0.151 0.107-0.306 0.164-0.458 0.164s-0.307-0.057-0.458-0.164l-9.167-6.479v-0.389zM21.625 17.439c0 0.406-0.378 0.748-0.825 0.748h-17.601c-0.448 0-0.824-0.342-0.824-0.748v-8.804l9.625 6.803 9.625-6.803v8.804z"></path>
</svg>
