<!-- Generated by IcoMoon.io -->
<svg version="1.1" xmlns="http://www.w3.org/2000/svg" width="16" height="16" viewBox="0 0 16 16">
<title>map</title>
<path fill="#444" d="M15.502 0.771c-0.155-0.089-0.329-0.134-0.502-0.134-0.171 0-0.343 0.044-0.497 0.132l-3.988 2.281-4.614-2.308c-0.141-0.070-0.295-0.105-0.447-0.105-0.171 0-0.343 0.044-0.497 0.132l-4.454 2.546c-0.311 0.178-0.503 0.51-0.503 0.869v10.18c0 0.356 0.19 0.687 0.498 0.865 0.155 0.090 0.329 0.135 0.502 0.135 0.171 0 0.343-0.044 0.497-0.132l3.989-2.281 4.613 2.308c0.141 0.070 0.294 0.105 0.447 0.105 0.171 0 0.343-0.044 0.497-0.132l4.454-2.547c0.311-0.178 0.503-0.51 0.503-0.869v-10.179c0-0.357-0.19-0.687-0.498-0.866zM6 1.887l4 2.047v10.18l-4-2.047v-10.18zM1 14.363v-10.179l4-2.261v10.18l-4 2.26zM15 11.816l-4 2.261v-10.18l4-2.261v10.18z"></path>
</svg>
