<!-- Generated by IcoMoon.io -->
<svg version="1.1" xmlns="http://www.w3.org/2000/svg" width="24" height="24" viewBox="0 0 24 24">
<title>map</title>
<path d="M22.314 2.059c-0.214-0.119-0.452-0.182-0.689-0.182-0.236 0-0.472 0.062-0.684 0.179l-5.483 3.137-6.345-3.17c-0.194-0.1-0.403-0.146-0.614-0.146-0.236 0-0.472 0.062-0.684 0.179l-6.124 3.502c-0.425 0.248-0.691 0.703-0.691 1.196v13.994c0 0.491 0.26 0.944 0.686 1.193 0.214 0.119 0.452 0.182 0.689 0.182 0.236 0 0.472-0.062 0.684-0.179l5.483-3.137 6.345 3.169c0.194 0.1 0.403 0.146 0.614 0.146 0.236 0 0.472-0.062 0.684-0.179l6.124-3.502c0.425-0.247 0.691-0.702 0.691-1.195v-13.994c0-0.491-0.26-0.944-0.686-1.193zM9.25 3.596l5.5 2.814v13.994l-5.5-2.814v-13.994zM2.375 20.748v-13.994l5.5-3.11v14l-5.5 3.104zM21.625 17.246l-5.5 3.11v-14l5.5-3.104v13.994z"></path>
</svg>
