<!-- Generated by IcoMoon.io -->
<svg version="1.1" xmlns="http://www.w3.org/2000/svg" width="24" height="24" viewBox="0 0 24 24">
<title>map</title>
<path fill="#444" d="M23.253 1.157c-0.232-0.133-0.494-0.201-0.753-0.201-0.256 0-0.514 0.066-0.745 0.198l-5.982 3.421-6.921-3.462c-0.212-0.105-0.443-0.157-0.671-0.157-0.257 0-0.514 0.066-0.745 0.198l-6.681 3.819c-0.467 0.267-0.754 0.765-0.754 1.303v15.27c0 0.534 0.285 1.030 0.747 1.298 0.233 0.135 0.494 0.202 0.753 0.202 0.256 0 0.514-0.066 0.745-0.198l5.983-3.422 6.919 3.462c0.211 0.105 0.441 0.157 0.67 0.157 0.256 0 0.515-0.066 0.745-0.198l6.681-3.821c0.466-0.267 0.755-0.765 0.755-1.303v-15.268c0-0.535-0.285-1.030-0.747-1.299zM9 2.83l6 3.071v15.27l-6-3.070v-15.27zM1.5 21.544v-15.268l6-3.392v15.27l-6 3.39zM22.5 17.724l-6 3.392v-15.27l6-3.392v15.27z"></path>
</svg>
