<!-- Generated by IcoMoon.io -->
<svg version="1.1" xmlns="http://www.w3.org/2000/svg" width="16" height="16" viewBox="0 0 16 16">
<title>medal</title>
<path fill="#444" d="M8.5 7.5v4.541c-0.002 0.293-0.094 0.488-0.334 0.656l-0.666 0.467v-4.541c0.001-0.293 0.093-0.488 0.333-0.656l0.667-0.467zM14 0h-12c-0.552 0-1 0.447-1 1v1.286c0 0.446 0.296 0.839 0.725 0.962l4.090 1.168c-2.232 0.875-3.815 3.043-3.815 5.584 0 3.312 2.685 6 6 6s6-2.688 6-6c0-2.541-1.583-4.709-3.815-5.584l4.090-1.168c0.429-0.123 0.725-0.516 0.725-0.962v-1.286c0-0.553-0.448-1-1-1zM13 10c0 2.758-2.243 5-5 5s-5-2.242-5-5 2.243-5 5-5 5 2.242 5 5zM14 2.286l-6 1.714-6-1.714v-1.286h12v1.286z"></path>
</svg>
