<!-- Generated by IcoMoon.io -->
<svg version="1.1" xmlns="http://www.w3.org/2000/svg" width="24" height="24" viewBox="0 0 24 24">
<title>medal</title>
<path fill="#444" d="M12.75 11.25v6.812c-0.003 0.439-0.141 0.732-0.501 0.984l-0.999 0.701v-6.812c0.002-0.439 0.139-0.732 0.5-0.984l1-0.7zM21 0h-18c-0.828 0-1.5 0.67-1.5 1.5v1.929c0 0.669 0.444 1.258 1.088 1.443l6.135 1.752c-3.348 1.313-5.723 4.565-5.723 8.376 0 4.968 4.028 9 9 9s9-4.032 9-9c0-3.812-2.375-7.063-5.723-8.376l6.135-1.752c0.643-0.184 1.087-0.774 1.087-1.443v-1.929c0-0.83-0.672-1.5-1.5-1.5zM19.5 15c0 4.137-3.364 7.5-7.5 7.5s-7.5-3.363-7.5-7.5 3.365-7.5 7.5-7.5 7.5 3.363 7.5 7.5zM21 3.429l-9 2.571-9-2.571v-1.929h18v1.929z"></path>
</svg>
