<!-- Generated by IcoMoon.io -->
<svg version="1.1" xmlns="http://www.w3.org/2000/svg" width="24" height="24" viewBox="0 0 24 24">
<title>menu</title>
<path fill="#444" d="M0 20.25h22.316c0.439 0.003 0.732 0.141 0.984 0.501l0.7 0.999h-22.316c-0.439-0.002-0.732-0.139-0.984-0.5l-0.701-1zM0.701 12.25c0.252 0.36 0.545 0.498 0.984 0.5h22.316l-0.701-0.999c-0.252-0.36-0.544-0.498-0.984-0.501h-22.316l0.701 1zM0.701 3.25c0.252 0.36 0.545 0.498 0.984 0.5h22.316l-0.701-0.999c-0.252-0.36-0.544-0.498-0.984-0.501h-22.316l0.701 1z"></path>
</svg>
