<!-- Generated by IcoMoon.io -->
<svg version="1.1" xmlns="http://www.w3.org/2000/svg" width="16" height="16" viewBox="0 0 16 16">
<title>menu</title>
<path fill="#444" d="M0 13.5h14.877c0.293 0.002 0.488 0.094 0.656 0.334l0.467 0.666h-14.877c-0.293-0.001-0.488-0.093-0.656-0.333l-0.467-0.667zM0.467 8.167c0.168 0.24 0.363 0.332 0.656 0.333h14.877l-0.467-0.666c-0.168-0.24-0.363-0.332-0.656-0.334h-14.877l0.467 0.667zM0.467 2.167c0.168 0.24 0.363 0.332 0.656 0.333h14.877l-0.467-0.666c-0.168-0.24-0.363-0.332-0.656-0.334h-14.877l0.467 0.667z"></path>
</svg>
