<!-- Generated by IcoMoon.io -->
<svg version="1.1" xmlns="http://www.w3.org/2000/svg" width="24" height="24" viewBox="0 0 24 24">
<title>messages</title>
<path fill="#444" d="M17.121 0h-13.288c-2.114 0-3.833 1.719-3.833 3.833v15.668c0 0.606 0.366 1.155 0.925 1.386 0.186 0.078 0.381 0.114 0.575 0.114 0.39 0 0.774-0.153 1.060-0.439l4.227-4.226h10.332c2.113 0 3.88-1.619 3.88-3.735v-8.666c0-2.112-1.767-3.935-3.879-3.935zM19.5 12.6c0 1.29-1.092 2.233-2.379 2.233h-10.954l-4.667 4.667v-15.668c0-1.288 1.044-2.333 2.333-2.333h13.287c1.288 0 2.38 1.147 2.38 2.435v8.666zM24 6.832v15.668c0 0.606-0.366 1.155-0.925 1.386-0.186 0.078-0.381 0.114-0.575 0.114-0.39 0-0.774-0.153-1.061-0.439l-4.227-4.226h-10.333c-0.873 0-1.677-0.287-2.331-0.761l1.076-1.075c0.367 0.211 0.798 0.336 1.256 0.336h10.953l4.668 4.665v-15.668c0-0.993-0.624-1.836-1.5-2.172v-0.726c0-0.294-0.042-0.582-0.107-0.861 1.766 0.34 3.107 1.894 3.107 3.759z"></path>
</svg>
