<!-- Generated by IcoMoon.io -->
<svg version="1.1" xmlns="http://www.w3.org/2000/svg" width="24" height="24" viewBox="0 0 24 24">
<title>message</title>
<path fill="#444" d="M20.168 0h-16.335c-2.114 0-3.833 1.719-3.833 3.833v18.668c0 0.606 0.366 1.155 0.925 1.386 0.186 0.078 0.381 0.114 0.575 0.114 0.39 0 0.774-0.153 1.060-0.439l4.227-4.226h13.378c2.114 0 3.833-1.721 3.833-3.837v-11.665c0.001-2.114-1.718-3.833-3.831-3.833zM22.5 15.498c0 1.29-1.044 2.337-2.332 2.337h-14.001l-4.667 4.665v-18.668c0-1.288 1.044-2.333 2.333-2.333h16.335c1.288 0 2.332 1.044 2.332 2.333v11.666z"></path>
</svg>
