<!-- Generated by IcoMoon.io -->
<svg version="1.1" xmlns="http://www.w3.org/2000/svg" width="16" height="16" viewBox="0 0 16 16">
<title>messages</title>
<path fill="#444" d="M11.414 0h-8.859c-1.409 0-2.555 1.146-2.555 2.555v10.445c0 0.404 0.244 0.77 0.617 0.924 0.124 0.052 0.254 0.076 0.383 0.076 0.26 0 0.516-0.102 0.707-0.293l2.818-2.817h6.888c1.409 0 2.587-1.079 2.587-2.49v-5.777c0-1.408-1.178-2.623-2.586-2.623zM13 8.4c0 0.86-0.728 1.489-1.586 1.489h-7.303l-3.111 3.111v-10.445c0-0.859 0.696-1.555 1.555-1.555h8.858c0.859 0 1.587 0.765 1.587 1.623v5.777zM16 4.555v10.445c0 0.404-0.244 0.77-0.617 0.924-0.124 0.052-0.254 0.076-0.383 0.076-0.26 0-0.516-0.102-0.707-0.293l-2.818-2.817h-6.889c-0.582 0-1.118-0.191-1.554-0.507l0.717-0.717c0.245 0.141 0.532 0.224 0.837 0.224h7.302l3.112 3.11v-10.445c0-0.662-0.416-1.224-1-1.448v-0.484c0-0.196-0.028-0.388-0.071-0.574 1.177 0.227 2.071 1.263 2.071 2.506z"></path>
</svg>
