<!-- Generated by IcoMoon.io -->
<svg version="1.1" xmlns="http://www.w3.org/2000/svg" width="16" height="16" viewBox="0 0 16 16">
<title>message</title>
<path fill="#444" d="M13.445 0h-10.89c-1.409 0-2.555 1.146-2.555 2.555v12.445c0 0.404 0.244 0.77 0.617 0.924 0.124 0.052 0.254 0.076 0.383 0.076 0.26 0 0.516-0.102 0.707-0.293l2.818-2.817h8.919c1.409 0 2.555-1.147 2.555-2.558v-7.777c0.001-1.409-1.145-2.555-2.554-2.555zM15 10.332c0 0.86-0.696 1.558-1.555 1.558h-9.334l-3.111 3.11v-12.445c0-0.859 0.696-1.555 1.555-1.555h10.89c0.859 0 1.555 0.696 1.555 1.555v7.777z"></path>
</svg>
