<!-- Generated by IcoMoon.io -->
<svg version="1.1" xmlns="http://www.w3.org/2000/svg" width="24" height="24" viewBox="0 0 24 24">
<title>messages</title>
<path fill="#444" d="M16.694 1h-12.181c-1.936 0-3.513 1.574-3.513 3.516v14.359c0 0.557 0.334 1.057 0.849 1.27 0.171 0.069 0.351 0.105 0.526 0.105 0.356 0 0.709-0.137 0.971-0.404l3.876-3.872h9.472c1.936 0 3.556-1.483 3.556-3.421v-7.946c0-1.935-1.62-3.607-3.556-3.607zM18.875 12.553c0 1.183-1 2.046-2.181 2.046h-10.042l-4.277 4.276v-14.359c0-1.181 0.957-2.141 2.138-2.141h12.181c1.181 0 2.181 1.052 2.181 2.232v7.946zM23 7.266v14.359c0 0.557-0.334 1.057-0.849 1.27-0.171 0.069-0.35 0.105-0.526 0.105-0.356 0-0.709-0.137-0.971-0.404l-3.876-3.872h-9.472c-0.799 0-1.537-0.262-2.137-0.7l0.986-0.98c0.336 0.193 0.731 0.306 1.151 0.306h10.042l4.277 4.276v-14.36c0-0.914-0.571-1.687-1.375-1.993v-0.666c0-0.272-0.040-0.534-0.098-0.791 1.62 0.316 2.848 1.739 2.848 3.45z"></path>
</svg>
