<!-- Generated by IcoMoon.io -->
<svg version="1.1" xmlns="http://www.w3.org/2000/svg" width="24" height="24" viewBox="0 0 24 24">
<title>microphone_off</title>
<path fill="#444" d="M18.047 14.462c-0.485-0.479-0.251-1.030-0.251-1.030 0.15-0.522 0.204-0.867 0.204-1.431v-0.415c0-0.44 0.16-0.747 0.52-0.999l0.945-0.662c0.014 0.054 0.035 0.107 0.035 0.166v1.909c0 0.993-0.098 1.667-0.457 2.537 0 0-0.427 0.487-0.996-0.075zM8.274 4.899c0.75-0.024 0.726-0.538 0.726-0.538 0-1.579 1.401-2.861 3-2.861 1.598 0 3 1.281 3 2.861v6.516c0 0-0.071 1.123 0.75 1.123 0.657 0 0.75-0.493 0.75-0.609v-7.030c0-2.405-2.076-4.361-4.5-4.361-2.118 0-3.969 1.492-4.404 3.473 0 0-0.342 1.458 0.678 1.426zM23.073 22.719l-0.213 1.203-6.156-6.156c-1.107 0.906-2.469 1.514-3.969 1.66 0.003 0.025 0.015 0.047 0.015 0.073v3h1.269c0.439 0 0.747 0.16 0.999 0.522l0.686 0.978h-7.454l0.685-0.978c0.252-0.361 0.56-0.522 0.999-0.522h1.315v-3c0-0.027 0.012-0.048 0.015-0.073-3.786-0.372-6.765-3.579-6.765-7.427v-1.909c0-0.060 0.021-0.111 0.033-0.166l0.945 0.661c0.362 0.252 0.522 0.56 0.522 0.999v0.415c0 3.27 2.691 6 6 6 1.381 0 2.642-0.489 3.653-1.287l-1.093-1.094c-0.738 0.536-1.612 0.88-2.559 0.88-2.424 0-4.5-2.094-4.5-4.5v-3.44l-5.83-5.83-0.504-0.556c-0.204-0.263-0.303-0.53-0.238-0.893l0.213-1.202 21.191 21.191 0.504 0.558c0.202 0.261 0.303 0.528 0.238 0.891zM13.497 14.558l-4.497-4.497v1.94c0 1.582 1.401 3 3 3 0.54 0 1.051-0.165 1.497-0.442z"></path>
</svg>
