<!-- Generated by IcoMoon.io -->
<svg version="1.1" xmlns="http://www.w3.org/2000/svg" width="24" height="24" viewBox="0 0 24 24">
<title>microphone</title>
<path fill="#444" d="M12 0c-2.424 0-4.5 1.956-4.5 4.361v7.639c0 2.406 2.076 4.5 4.5 4.5s4.5-2.094 4.5-4.5v-7.639c0-2.405-2.076-4.361-4.5-4.361zM15 12c0 1.582-1.402 3-3 3-1.599 0-3-1.418-3-3v-7.639c0-1.579 1.401-2.861 3-2.861 1.598 0 3 1.281 3 2.861v7.639zM18.52 10.585c-0.36 0.252-0.52 0.56-0.52 0.999v0.415c0 3.27-2.691 6-6 6s-6-2.73-6-6v-0.415c0-0.44-0.161-0.747-0.521-0.999l-0.945-0.662c-0.013 0.054-0.035 0.107-0.035 0.166v1.909c0 3.848 2.979 7.054 6.765 7.426-0.003 0.026-0.015 0.047-0.015 0.073v3h-1.316c-0.439 0-0.747 0.16-0.999 0.522l-0.685 0.978h7.454l-0.686-0.978c-0.252-0.361-0.559-0.522-0.999-0.522h-1.269v-3c0-0.027-0.012-0.048-0.015-0.073 3.786-0.372 6.765-3.579 6.765-7.426v-1.909c0-0.060-0.021-0.111-0.033-0.166l-0.947 0.662z"></path>
</svg>
