<!-- Generated by IcoMoon.io -->
<svg version="1.1" xmlns="http://www.w3.org/2000/svg" width="16" height="16" viewBox="0 0 16 16">
<title>microphone</title>
<path fill="#444" d="M8 0c-1.616 0-3 1.304-3 2.907v5.093c0 1.604 1.384 3 3 3s3-1.396 3-3v-5.093c0-1.603-1.384-2.907-3-2.907zM10 8c0 1.055-0.935 2-2 2-1.066 0-2-0.945-2-2v-5.093c0-1.053 0.934-1.907 2-1.907s2 0.854 2 1.907v5.093zM12.347 7.057c-0.24 0.168-0.347 0.373-0.347 0.666v0.277c0 2.18-1.794 4-4 4s-4-1.82-4-4v-0.277c0-0.293-0.107-0.498-0.347-0.666l-0.63-0.441c-0.009 0.036-0.023 0.071-0.023 0.111v1.273c0 2.565 1.986 4.703 4.51 4.951-0.002 0.017-0.010 0.031-0.010 0.049v2h-0.877c-0.293 0-0.498 0.107-0.666 0.348l-0.457 0.652h4.969l-0.457-0.652c-0.168-0.241-0.373-0.348-0.666-0.348h-0.846v-2c0-0.018-0.008-0.032-0.010-0.049 2.524-0.248 4.51-2.386 4.51-4.951v-1.273c0-0.040-0.014-0.074-0.022-0.111l-0.631 0.441z"></path>
</svg>
