<!-- Generated by IcoMoon.io -->
<svg version="1.1" xmlns="http://www.w3.org/2000/svg" width="24" height="24" viewBox="0 0 24 24">
<title>microphone</title>
<path fill="#444" d="M12 1c-2.222 0-4.125 1.793-4.125 3.997v7.003c0 2.205 1.903 4.125 4.125 4.125s4.125-1.92 4.125-4.125v-7.003c0-2.204-1.903-3.997-4.125-3.997zM14.75 12c0 1.45-1.285 2.75-2.75 2.75-1.466 0-2.75-1.3-2.75-2.75v-7.003c0-1.447 1.284-2.622 2.75-2.622s2.75 1.175 2.75 2.622v7.003zM17.978 10.703c-0.33 0.23-0.478 0.513-0.478 0.916v0.381c0 2.997-2.467 5.5-5.5 5.5s-5.5-2.503-5.5-5.5v-0.381c0-0.403-0.147-0.686-0.478-0.916l-0.867-0.607c-0.012 0.051-0.031 0.099-0.031 0.153v1.751c0 3.527 2.73 6.467 6.201 6.808-0.002 0.023-0.014 0.043-0.014 0.067v2.75h-1.206c-0.402 0-0.685 0.147-0.916 0.479l-0.627 0.896h6.832l-0.628-0.896c-0.231-0.331-0.513-0.479-0.916-0.479h-1.163v-2.75c0-0.024-0.011-0.044-0.014-0.067 3.471-0.341 6.201-3.28 6.201-6.808v-1.751c0-0.055-0.019-0.103-0.031-0.153l-0.865 0.607z"></path>
</svg>
