<!-- Generated by IcoMoon.io -->
<svg version="1.1" xmlns="http://www.w3.org/2000/svg" width="24" height="24" viewBox="0 0 24 24">
<title>microphone_off</title>
<path fill="#444" d="M17.543 14.256c-0.444-0.439-0.229-0.944-0.229-0.944 0.136-0.478 0.186-0.795 0.186-1.312v-0.381c0-0.403 0.148-0.686 0.478-0.916l0.867-0.607c0.012 0.051 0.031 0.099 0.031 0.153v1.751c0 0.91-0.090 1.528-0.419 2.326-0.001 0-0.394 0.445-0.914-0.070zM8.584 5.49c0.687-0.021 0.666-0.493 0.666-0.493 0-1.447 1.284-2.622 2.75-2.622s2.75 1.175 2.75 2.622v5.973c0 0-0.064 1.030 0.688 1.030 0.602 0 0.688-0.452 0.688-0.559v-6.444c-0.001-2.204-1.904-3.997-4.126-3.997-1.941 0-3.638 1.368-4.036 3.184 0 0-0.315 1.336 0.62 1.306zM22.15 21.825l-0.194 1.103-5.643-5.643c-1.015 0.831-2.263 1.387-3.639 1.522 0.002 0.023 0.013 0.043 0.013 0.067v2.75h1.163c0.403 0 0.685 0.147 0.916 0.479l0.629 0.897h-6.833l0.628-0.896c0.231-0.331 0.513-0.479 0.916-0.479h1.206v-2.75c0-0.024 0.011-0.044 0.014-0.067-3.471-0.341-6.201-3.281-6.201-6.808v-1.751c0-0.055 0.019-0.103 0.031-0.153l0.867 0.607c0.33 0.23 0.478 0.513 0.478 0.916v0.381c0 2.997 2.467 5.5 5.5 5.5 1.267 0 2.422-0.448 3.348-1.181l-1.003-1.003c-0.675 0.492-1.477 0.809-2.345 0.809-2.222 0-4.125-1.92-4.125-4.125v-3.152l-5.345-5.345-0.462-0.511c-0.188-0.24-0.278-0.485-0.219-0.817l0.195-1.103 19.424 19.425 0.462 0.511c0.187 0.24 0.278 0.485 0.219 0.817zM13.373 14.345l-4.123-4.122v1.777c0 1.45 1.284 2.75 2.75 2.75 0.495 0 0.964-0.151 1.373-0.405z"></path>
</svg>
