<!-- Generated by IcoMoon.io -->
<svg version="1.1" xmlns="http://www.w3.org/2000/svg" width="16" height="16" viewBox="0 0 16 16">
<title>microphone_off</title>
<path fill="#444" d="M12.031 9.641c-0.323-0.319-0.167-0.687-0.167-0.687 0.1-0.348 0.136-0.578 0.136-0.954v-0.277c0-0.293 0.107-0.498 0.347-0.666l0.63-0.441c0.009 0.036 0.023 0.071 0.023 0.111v1.273c0 0.662-0.065 1.111-0.305 1.691 0 0-0.285 0.325-0.664-0.050zM5.516 3.266c0.5-0.016 0.484-0.359 0.484-0.359 0-1.053 0.934-1.907 2-1.907s2 0.854 2 1.907v4.344c0 0-0.047 0.749 0.5 0.749 0.438 0 0.5-0.329 0.5-0.406v-4.687c0-1.603-1.384-2.907-3-2.907-1.412 0-2.646 0.995-2.936 2.315 0 0-0.228 0.972 0.452 0.951zM15.382 15.146l-0.142 0.802-4.104-4.104c-0.738 0.604-1.646 1.009-2.646 1.107 0.002 0.017 0.010 0.031 0.010 0.049v2h0.846c0.293 0 0.498 0.107 0.666 0.348l0.457 0.652h-4.969l0.457-0.652c0.168-0.241 0.373-0.348 0.666-0.348h0.877v-2c0-0.018 0.008-0.032 0.010-0.049-2.524-0.248-4.51-2.386-4.51-4.951v-1.273c0-0.040 0.014-0.074 0.022-0.111l0.63 0.441c0.241 0.168 0.348 0.373 0.348 0.666v0.277c0 2.18 1.794 4 4 4 0.921 0 1.761-0.326 2.435-0.858l-0.729-0.729c-0.492 0.357-1.075 0.587-1.706 0.587-1.616 0-3-1.396-3-3v-2.293l-3.887-3.887-0.336-0.371c-0.136-0.175-0.202-0.353-0.159-0.595l0.142-0.801 14.127 14.127 0.336 0.372c0.135 0.174 0.202 0.352 0.159 0.594zM8.998 9.705l-2.998-2.998v1.293c0 1.055 0.934 2 2 2 0.36 0 0.701-0.11 0.998-0.295z"></path>
</svg>
