<!-- Generated by IcoMoon.io -->
<svg version="1.1" xmlns="http://www.w3.org/2000/svg" width="16" height="16" viewBox="0 0 16 16">
<title>mobile</title>
<path fill="#444" d="M11.477 0h-6.954c-0.84 0-1.523 0.716-1.523 1.603v12.795c0 0.886 0.683 1.602 1.523 1.602h6.953c0.841 0 1.524-0.716 1.524-1.603v-12.794c0-0.887-0.683-1.603-1.523-1.603zM12 14.397c0 0.332-0.235 0.603-0.523 0.603h-6.954c-0.288 0-0.523-0.271-0.523-0.603v-12.794c0-0.332 0.235-0.603 0.523-0.603h1.477v0.423c0 0.043 0.093 0.077 0.207 0.077h3.587c0.113 0 0.206-0.034 0.206-0.077v-0.423h1.477c0.288 0 0.523 0.271 0.523 0.603v12.794z"></path>
</svg>
