<!-- Generated by IcoMoon.io -->
<svg version="1.1" xmlns="http://www.w3.org/2000/svg" width="24" height="24" viewBox="0 0 24 24">
<title>mobile</title>
<path d="M16.563 1h-9.126c-1.104 0-2 0.939-2 2.103v17.795c0 1.163 0.896 2.103 2 2.103h9.126c1.104 0 2-0.939 2-2.103v-17.795c-0.001-1.164-0.896-2.103-2-2.103zM17.25 20.897c0 0.435-0.308 0.79-0.687 0.79h-9.126c-0.379 0-0.687-0.355-0.687-0.79v-17.794c0-0.435 0.308-0.79 0.687-0.79h1.938v0.555c0 0.057 0.122 0.102 0.271 0.102h4.707c0.15 0 0.271-0.045 0.271-0.102v-0.556h1.938c0.379 0 0.687 0.355 0.687 0.79v17.795z"></path>
</svg>
