<!-- Generated by IcoMoon.io -->
<svg version="1.1" xmlns="http://www.w3.org/2000/svg" width="24" height="24" viewBox="0 0 24 24">
<title>mobile</title>
<path fill="#444" d="M17.215 0h-10.431c-1.26 0-2.284 1.074-2.284 2.405v19.193c0 1.329 1.024 2.403 2.284 2.403h10.43c1.261 0 2.286-1.074 2.286-2.404v-19.191c0-1.331-1.024-2.405-2.285-2.405zM18 21.596c0 0.498-0.352 0.904-0.785 0.904h-10.431c-0.432 0-0.784-0.407-0.784-0.904v-19.191c0-0.498 0.353-0.905 0.784-0.905h2.216v0.635c0 0.065 0.139 0.115 0.31 0.115h5.38c0.169 0 0.309-0.051 0.309-0.115v-0.635h2.215c0.432 0 0.785 0.407 0.785 0.905v19.191z"></path>
</svg>
