<!-- Generated by IcoMoon.io -->
<svg version="1.1" xmlns="http://www.w3.org/2000/svg" width="24" height="24" viewBox="0 0 24 24">
<title>money_saving</title>
<path fill="#444" d="M14.325 0.75c-2.275 0-4.125 1.849-4.125 4.125s1.85 4.125 4.125 4.125 4.125-1.85 4.125-4.125-1.851-4.125-4.125-4.125zM14.325 7.5c-1.447 0-2.625-1.178-2.625-2.625s1.178-2.625 2.625-2.625 2.625 1.178 2.625 2.625-1.178 2.625-2.625 2.625zM23.991 11.569c0.041 0.136-0.049 0.404-0.243 0.708-0.303 0.482-0.759 0.918-0.994 0.954-0.215 0.081-0.377 0.081-0.533 0.081-0.216 0-0.432-0.038-0.662-0.114-0.219 2.304-1.313 4.337-3.199 5.805l0.51 2.73c0.049 0.458-0.054 0.84-0.311 1.127s-0.594 0.392-0.804 0.392h-2.736c-0.66 0-1.245-0.482-1.332-1.096l-0.168-0.89c-0.062-0.002-0.123-0.003-0.184-0.003-0.577 0-1.17 0.046-1.63 0.046-0.476 0-1.046-0.040-1.742-0.121l-0.392 0.997c-0.17 0.597-0.752 1.065-1.324 1.065h-2.736c-0.322 0-0.657-0.152-0.92-0.413-0.258-0.258-0.354-0.612-0.264-0.969l0.459-2.29c-1.022-0.547-1.827-1.364-2.319-2.4l-0.916-0.051c-1.030-0.002-1.551-0.427-1.551-1.268v-3.119c0-0.942 0.637-1.599 1.549-1.599h0.451c0.398-0.999 0.822-1.754 1.423-2.444-0.058-0.739-0.334-1.189-0.684-1.759l-0.121-0.2c-0.062-0.124-0.125-0.231-0.192-0.343-0.114-0.19-0.234-0.39-0.326-0.622-0.093-0.186-0.088-0.464 0.006-0.649 0.125-0.243 0.345-0.39 0.594-0.39 0.424-0.048 0.84-0.073 1.227-0.073 1.927 0 3.133 0.563 3.805 1.034 0.479-0.141 0.93-0.24 1.38-0.344l-0.241 1.049c-0.048 0.206-0.143 0.356-0.262 0.481-0.252 0.067-0.501 0.137-0.732 0.221-0.060 0.029-0.159 0.057-0.269 0.057-0.165 0-0.317-0.062-0.426-0.174-0.753-0.624-1.847-0.952-3.168-0.96v0c-0.033 0-0.063 0.018-0.079 0.048-0.017 0.028-0.015 0.064 0.003 0.093 0.422 0.645 0.822 1.403 0.888 2.56 0 0.158 0 0.406-0.242 0.528-0.679 0.765-1.147 1.688-1.347 2.613-0.091 0.285-0.356 0.581-0.679 0.581l-1.149 0.243 0.033 2.822 1.473 0.096c0.267 0 0.559 0.172 0.667 0.391 0.498 1.134 1.323 1.941 2.265 2.216 0.18 0.040 0.337 0.162 0.428 0.326 0.084 0.15 0.103 0.328 0.054 0.479l-0.57 2.672h2.25l0.565-1.622c0.093-0.367 0.456-0.568 0.752-0.568 0.633 0.136 1.48 0.215 2.307 0.215s1.674-0.078 2.265-0.21c0.489 0.001 0.797 0.246 0.797 0.606l0.409 1.604 2.291-0.026-0.467-2.91c-0.093-0.282 0.087-0.583 0.314-0.699 1.79-1.244 2.851-3.121 2.851-5.029 0-1.034-0.322-2.022-0.873-2.925l0.079 0.093-0.12-0.152c-0.147-0.236-0.28-0.477-0.463-0.699-0.080-0.197-0.122-0.401-0.060-0.646l0.271-1.097c1.182 1.098 1.998 2.409 2.337 3.843 0.434 0.303 0.734 0.417 0.984 0.417 0.569-0.12 0.819-0.461 0.927-0.606 0.181-0.261 0.419-0.406 0.672-0.409l0.143 0.7z"></path>
</svg>
