<!-- Generated by IcoMoon.io -->
<svg version="1.1" xmlns="http://www.w3.org/2000/svg" width="16" height="16" viewBox="0 0 16 16">
<title>money_bag</title>
<path fill="#444" d="M14.235 8.227c-0.406-0.997-0.961-1.948-1.647-2.821-0.518-0.668-1.038-1.198-1.46-1.586l1.266-2.346c0.167-0.31 0.159-0.685-0.021-0.987s-0.507-0.487-0.859-0.487h-6.943c-0.346 0-0.668 0.18-0.85 0.475-0.182 0.294-0.199 0.662-0.044 0.972l1.189 2.38c-0.419 0.385-0.937 0.914-1.454 1.576-0.691 0.887-1.245 1.837-1.648 2.826-0.507 1.251-0.764 2.559-0.764 3.884 0 2.144 1.662 3.887 3.704 3.887h6.592c2.042 0 3.704-1.743 3.704-3.887 0-1.326-0.257-2.633-0.765-3.886zM11.296 15h-6.592c-1.49 0-2.704-1.296-2.704-2.887 0-1.195 0.232-2.377 0.691-3.51 0.366-0.899 0.875-1.771 1.51-2.585 0.759-0.973 1.514-1.628 1.909-1.941l-1.539-3.077h6.943l-1.649 3.056c0.392 0.308 1.162 0.97 1.934 1.963 0.639 0.814 1.144 1.686 1.51 2.585 0.459 1.132 0.691 2.314 0.691 3.509 0 1.591-1.215 2.887-2.704 2.887zM10.4 11.425c0 0.617-0.229 1.083-0.686 1.398-0.246 0.17-0.55 0.291-0.906 0.37-0.161 0.202-0.352 0.305-0.622 0.307l-0.797-0.002 0.146-0.209c-0.478-0.012-0.881-0.053-1.167-0.138-0.334-0.098-0.562-0.173-0.682-0.223 0.183-0.521 0.677-0.807 1.221-0.709 0.325 0.061 0.513 0.065 0.843 0.065 0.489 0 0.854-0.065 1.089-0.192 0.236-0.129 0.354-0.335 0.354-0.617 0-0.29-0.117-0.522-0.348-0.693s-0.611-0.364-1.142-0.579c-0.257-0.102-0.503-0.206-0.739-0.314-0.235-0.106-0.438-0.232-0.61-0.378-0.17-0.146-0.308-0.322-0.41-0.526-0.104-0.208-0.155-0.459-0.155-0.759 0-0.59 0.218-1.061 0.655-1.405 0.277-0.222 0.626-0.364 1.032-0.444l0.020-0.029c0.169-0.241 0.374-0.346 0.667-0.348l0.797 0.002-0.229 0.325c0.021 0.003 0.042 0.002 0.063 0.004 0.188 0.020 0.366 0.046 0.527 0.077 0.163 0.030 0.308 0.062 0.43 0.097 0.126 0.033 0.221 0.063 0.291 0.089-0.202 0.521-0.673 0.806-1.23 0.739-0.225-0.028-0.353-0.034-0.579-0.034-0.333 0-0.628 0.068-0.878 0.202-0.248 0.133-0.372 0.34-0.372 0.622 0 0.145 0.028 0.273 0.084 0.387 0.056 0.111 0.141 0.211 0.256 0.301 0.117 0.089 0.261 0.173 0.431 0.25 0.171 0.076 0.376 0.158 0.617 0.244 0.316 0.121 0.599 0.239 0.847 0.353 0.25 0.116 0.459 0.252 0.636 0.405 0.176 0.154 0.311 0.341 0.404 0.56 0.095 0.217 0.142 0.483 0.142 0.802z"></path>
</svg>
