<!-- Generated by IcoMoon.io -->
<svg version="1.1" xmlns="http://www.w3.org/2000/svg" width="16" height="16" viewBox="0 0 16 16">
<title>money_saving</title>
<path fill="#444" d="M9.55 0.5c-1.517 0-2.75 1.233-2.75 2.75s1.233 2.75 2.75 2.75 2.75-1.233 2.75-2.75-1.234-2.75-2.75-2.75zM9.55 5c-0.965 0-1.75-0.785-1.75-1.75s0.785-1.75 1.75-1.75 1.75 0.785 1.75 1.75-0.785 1.75-1.75 1.75zM15.994 7.713c0.027 0.091-0.033 0.269-0.162 0.472-0.202 0.321-0.506 0.612-0.663 0.636-0.143 0.054-0.251 0.054-0.355 0.054-0.144 0-0.288-0.025-0.441-0.076-0.146 1.536-0.875 2.891-2.133 3.87l0.34 1.82c0.033 0.305-0.036 0.56-0.207 0.751s-0.396 0.261-0.536 0.261h-1.824c-0.44 0-0.83-0.321-0.888-0.731l-0.112-0.593c-0.041-0.001-0.082-0.002-0.123-0.002-0.385 0-0.78 0.031-1.087 0.031-0.317 0-0.697-0.027-1.161-0.081l-0.261 0.665c-0.113 0.398-0.501 0.71-0.883 0.71h-1.824c-0.215 0-0.438-0.101-0.613-0.275-0.172-0.172-0.236-0.408-0.176-0.646l0.306-1.527c-0.681-0.365-1.218-0.909-1.546-1.6l-0.611-0.034c-0.687-0.001-1.034-0.285-1.034-0.845v-2.079c0-0.628 0.425-1.066 1.033-1.066h0.301c0.265-0.666 0.548-1.169 0.949-1.629-0.039-0.493-0.223-0.793-0.456-1.173l-0.081-0.133c-0.041-0.083-0.083-0.154-0.128-0.229-0.076-0.127-0.156-0.26-0.217-0.415-0.062-0.124-0.059-0.309 0.004-0.433 0.083-0.162 0.23-0.26 0.396-0.26 0.283-0.032 0.56-0.049 0.818-0.049 1.285 0 2.089 0.375 2.537 0.689 0.319-0.094 0.62-0.16 0.92-0.229l-0.161 0.699c-0.032 0.137-0.095 0.237-0.175 0.321-0.168 0.045-0.334 0.091-0.488 0.147-0.040 0.019-0.106 0.038-0.179 0.038-0.11 0-0.211-0.041-0.284-0.116-0.502-0.416-1.231-0.635-2.112-0.64v0c-0.022 0-0.042 0.012-0.053 0.032-0.011 0.019-0.010 0.043 0.002 0.062 0.281 0.43 0.548 0.935 0.592 1.707 0 0.105 0 0.271-0.161 0.352-0.453 0.51-0.765 1.125-0.898 1.742-0.061 0.19-0.237 0.387-0.453 0.387l-0.766 0.162 0.022 1.881 0.982 0.064c0.178 0 0.373 0.115 0.445 0.261 0.332 0.756 0.882 1.294 1.51 1.477 0.12 0.027 0.225 0.108 0.285 0.217 0.056 0.1 0.069 0.219 0.036 0.319l-0.38 1.781h1.5l0.377-1.081c0.062-0.245 0.304-0.379 0.501-0.379 0.422 0.091 0.987 0.143 1.538 0.143s1.116-0.052 1.51-0.14c0.326 0.001 0.531 0.164 0.531 0.404l0.273 1.069 1.527-0.017-0.311-1.94c-0.062-0.188 0.058-0.389 0.209-0.466 1.193-0.829 1.901-2.081 1.901-3.353 0-0.689-0.215-1.348-0.582-1.95l0.053 0.062-0.080-0.101c-0.098-0.157-0.187-0.318-0.309-0.466-0.053-0.131-0.081-0.267-0.040-0.431l0.181-0.731c0.788 0.732 1.332 1.606 1.558 2.562 0.289 0.202 0.489 0.278 0.656 0.278 0.379-0.080 0.546-0.307 0.618-0.404 0.121-0.174 0.279-0.271 0.448-0.273l0.095 0.467z"></path>
</svg>
