<!-- Generated by IcoMoon.io -->
<svg version="1.1" xmlns="http://www.w3.org/2000/svg" width="24" height="24" viewBox="0 0 24 24">
<title>money_bag</title>
<path fill="#444" d="M21.352 12.341c-0.609-1.495-1.442-2.922-2.471-4.231-0.777-1.002-1.557-1.797-2.19-2.379l1.899-3.519c0.25-0.465 0.239-1.028-0.032-1.48-0.271-0.452-0.761-0.731-1.288-0.731h-10.415c-0.519 0-1.002 0.27-1.275 0.713-0.273 0.441-0.298 0.993-0.066 1.458l1.784 3.57c-0.628 0.577-1.405 1.371-2.181 2.364-1.037 1.331-1.868 2.755-2.472 4.239-0.76 1.876-1.146 3.838-1.146 5.826 0 3.216 2.493 5.83 5.556 5.83h9.888c3.063 0 5.556-2.614 5.556-5.831 0-1.989-0.386-3.949-1.148-5.829zM16.944 22.5h-9.888c-2.235 0-4.056-1.944-4.056-4.331 0-1.793 0.348-3.565 1.037-5.265 0.549-1.348 1.313-2.656 2.265-3.877 1.139-1.459 2.271-2.442 2.864-2.911l-2.308-4.615h10.415l-2.474 4.584c0.588 0.462 1.743 1.455 2.901 2.945 0.959 1.221 1.716 2.529 2.265 3.877 0.688 1.698 1.037 3.471 1.037 5.264 0 2.386-1.822 4.331-4.056 4.331zM15.6 17.138c0 0.925-0.343 1.624-1.029 2.097-0.369 0.255-0.825 0.436-1.359 0.555-0.241 0.303-0.528 0.457-0.933 0.46l-1.195-0.003 0.219-0.314c-0.717-0.018-1.322-0.079-1.751-0.207-0.501-0.147-0.843-0.26-1.023-0.335 0.274-0.782 1.015-1.21 1.832-1.064 0.488 0.091 0.769 0.098 1.264 0.098 0.734 0 1.281-0.098 1.634-0.288 0.354-0.194 0.531-0.503 0.531-0.925 0-0.435-0.176-0.783-0.522-1.040-0.345-0.256-0.917-0.546-1.713-0.869-0.385-0.153-0.755-0.309-1.108-0.471-0.353-0.159-0.657-0.348-0.915-0.567-0.255-0.219-0.462-0.483-0.615-0.789-0.156-0.312-0.232-0.688-0.232-1.139 0-0.885 0.327-1.591 0.982-2.107 0.415-0.333 0.939-0.546 1.548-0.666l0.030-0.044c0.253-0.361 0.561-0.519 1.001-0.522l1.195 0.003-0.343 0.487c0.032 0.005 0.063 0.003 0.095 0.006 0.282 0.030 0.549 0.069 0.79 0.115 0.244 0.045 0.462 0.093 0.645 0.146 0.189 0.050 0.331 0.094 0.436 0.133-0.303 0.781-1.009 1.209-1.845 1.108-0.338-0.042-0.53-0.051-0.869-0.051-0.5 0-0.942 0.102-1.317 0.303-0.372 0.2-0.558 0.51-0.558 0.933 0 0.217 0.042 0.409 0.126 0.581 0.084 0.167 0.212 0.317 0.384 0.451 0.176 0.134 0.392 0.26 0.647 0.375 0.257 0.114 0.564 0.237 0.925 0.366 0.474 0.182 0.899 0.359 1.271 0.53 0.375 0.174 0.688 0.378 0.954 0.607 0.264 0.231 0.466 0.511 0.606 0.84 0.143 0.326 0.213 0.725 0.213 1.203z"></path>
</svg>
