<!-- Generated by IcoMoon.io -->
<svg version="1.1" xmlns="http://www.w3.org/2000/svg" width="16" height="16" viewBox="0 0 16 16">
<title>moon</title>
<path fill="#444" d="M8.023 16c-0.247 0-0.496-0.012-0.746-0.034-4.4-0.407-7.649-4.318-7.243-8.719 0.354-3.843 3.401-6.89 7.243-7.243 0.031-0.003 0.062-0.004 0.093-0.004 0.358 0 0.692 0.192 0.87 0.509 0.193 0.344 0.167 0.769-0.067 1.085-1.46 1.976-1.040 4.772 0.935 6.233 0.772 0.57 1.688 0.872 2.649 0.872s1.876-0.302 2.649-0.872c0.175-0.13 0.384-0.196 0.594-0.196 0.169 0 0.338 0.043 0.491 0.129 0.344 0.193 0.542 0.57 0.505 0.963-0.384 4.148-3.811 7.277-7.973 7.277zM8.514 8.631c-2.423-1.791-2.936-5.206-1.145-7.631-3.363 0.31-6.028 2.976-6.339 6.339-0.356 3.858 2.481 7.274 6.339 7.631 3.859 0.356 7.274-2.48 7.631-6.339-1.927 1.425-4.559 1.425-6.486 0z"></path>
</svg>
