<!-- Generated by IcoMoon.io -->
<svg version="1.1" xmlns="http://www.w3.org/2000/svg" width="24" height="24" viewBox="0 0 24 24">
<title>moon</title>
<path fill="#444" d="M12.034 24c-0.37 0-0.744-0.018-1.119-0.051-6.6-0.61-11.473-6.477-10.864-13.078 0.531-5.764 5.101-10.335 10.864-10.864 0.046-0.005 0.093-0.006 0.14-0.006 0.537 0 1.038 0.288 1.305 0.764 0.289 0.516 0.251 1.153-0.101 1.627-2.19 2.964-1.56 7.158 1.403 9.349 1.158 0.855 2.532 1.308 3.973 1.308s2.814-0.453 3.974-1.308c0.262-0.195 0.576-0.294 0.891-0.294 0.254 0 0.507 0.065 0.736 0.194 0.516 0.289 0.813 0.855 0.758 1.444-0.576 6.222-5.717 10.916-11.96 10.916zM12.771 12.947c-3.635-2.687-4.404-7.809-1.717-11.447-5.044 0.465-9.042 4.464-9.509 9.509-0.534 5.787 3.721 10.911 9.509 11.447 5.788 0.534 10.911-3.72 11.447-9.509-2.89 2.138-6.839 2.138-9.729 0z"></path>
</svg>
