<!-- Generated by IcoMoon.io -->
<svg version="1.1" xmlns="http://www.w3.org/2000/svg" width="24" height="24" viewBox="0 0 24 24">
<title>more</title>
<path fill="#444" d="M12 9.75c-1.241 0-2.25 1.009-2.25 2.25s1.009 2.25 2.25 2.25 2.25-1.009 2.25-2.25-1.009-2.25-2.25-2.25zM12 12.75c-0.413 0-0.75-0.335-0.75-0.75s0.337-0.75 0.75-0.75 0.75 0.335 0.75 0.75-0.337 0.75-0.75 0.75zM12 0c-1.241 0-2.25 1.010-2.25 2.25s1.009 2.25 2.25 2.25 2.25-1.010 2.25-2.25-1.009-2.25-2.25-2.25zM12 3c-0.413 0-0.75-0.335-0.75-0.75s0.337-0.75 0.75-0.75 0.75 0.335 0.75 0.75-0.337 0.75-0.75 0.75zM12 19.5c-1.241 0-2.25 1.009-2.25 2.25s1.009 2.25 2.25 2.25 2.25-1.009 2.25-2.25-1.009-2.25-2.25-2.25zM12 22.5c-0.413 0-0.75-0.335-0.75-0.75s0.337-0.75 0.75-0.75 0.75 0.335 0.75 0.75-0.337 0.75-0.75 0.75z"></path>
</svg>
