<!-- Generated by IcoMoon.io -->
<svg version="1.1" xmlns="http://www.w3.org/2000/svg" width="16" height="16" viewBox="0 0 16 16">
<title>more</title>
<path fill="#444" d="M8 6.5c-0.827 0-1.5 0.673-1.5 1.5s0.673 1.5 1.5 1.5 1.5-0.673 1.5-1.5-0.673-1.5-1.5-1.5zM8 8.5c-0.275 0-0.5-0.223-0.5-0.5s0.225-0.5 0.5-0.5 0.5 0.223 0.5 0.5-0.225 0.5-0.5 0.5zM8 0c-0.827 0-1.5 0.673-1.5 1.5s0.673 1.5 1.5 1.5 1.5-0.673 1.5-1.5-0.673-1.5-1.5-1.5zM8 2c-0.275 0-0.5-0.223-0.5-0.5s0.225-0.5 0.5-0.5 0.5 0.223 0.5 0.5-0.225 0.5-0.5 0.5zM8 13c-0.827 0-1.5 0.673-1.5 1.5s0.673 1.5 1.5 1.5 1.5-0.673 1.5-1.5-0.673-1.5-1.5-1.5zM8 15c-0.275 0-0.5-0.223-0.5-0.5s0.225-0.5 0.5-0.5 0.5 0.223 0.5 0.5-0.225 0.5-0.5 0.5z"></path>
</svg>
