<!-- Generated by IcoMoon.io -->
<svg version="1.1" xmlns="http://www.w3.org/2000/svg" width="24" height="24" viewBox="0 0 24 24">
<title>multiplataform</title>
<path d="M23 5.125v12.869c0 0.455-0.355 0.881-0.813 0.881h-7.437v1.363h3.074c0.29 0.043 0.521 0.183 0.71 0.449l0.635 0.908h-5.066c-0.014 0.001-0.026 0.008-0.040 0.008-0.38 0-0.688-0.308-0.688-0.688v-2.685h0.009c-0.001-0.015-0.009-0.028-0.009-0.043 0-0.38 0.308-0.688 0.688-0.688 0.002 0 0.003 0.001 0.005 0.001s0.001-0.001 0.001-0.001h7.351c0.109-0.032 0.191-0.113 0.205-0.229v-11.962c-0.021-0.087-0.077-0.147-0.159-0.183h-4.438c-0.006 0-1.558-0.003-1.563-0.006-0.009 0-1.393 0.006-1.402 0.006-0.38 0-0.688-0.308-0.688-0.688s0.308-0.688 0.688-0.688h7.562c0.967 0.001 1.375 0.517 1.375 1.376zM9.905 1h-6.81c-1.157 0-2.095 0.984-2.095 2.203v17.594c0 1.219 0.938 2.203 2.095 2.203h6.811c1.156 0 2.094-0.984 2.094-2.203v-17.594c0-1.219-0.938-2.203-2.095-2.203zM10.625 20.797c0 0.456-0.323 0.828-0.72 0.828h-6.81c-0.397 0-0.72-0.372-0.72-0.828v-17.594c0-0.456 0.323-0.828 0.72-0.828h2.030v0.581c0 0.060 0.127 0.106 0.284 0.106h2.182c0.157 0 0.284-0.047 0.284-0.106v-0.581h2.030c0.397 0 0.72 0.372 0.72 0.828v17.594z"></path>
</svg>
