<!-- Generated by IcoMoon.io -->
<svg version="1.1" xmlns="http://www.w3.org/2000/svg" width="24" height="24" viewBox="0 0 24 24">
<title>multiplataform</title>
<path fill="#444" d="M24 4.5v14.038c0 0.497-0.387 0.962-0.886 0.962h-8.114v1.486h3.354c0.317 0.047 0.569 0.2 0.774 0.491l0.693 0.99h-5.528c-0.015 0.002-0.028 0.009-0.043 0.009-0.414 0-0.75-0.336-0.75-0.75v-2.929h0.009c-0.002-0.015-0.009-0.030-0.009-0.047 0-0.414 0.336-0.75 0.75-0.75 0.002 0 0.003 0.002 0.006 0.002 0.001 0 0.001-0.002 0.001-0.002h8.019c0.12-0.035 0.209-0.123 0.223-0.25v-13.050c-0.024-0.096-0.084-0.162-0.174-0.199h-4.842c-0.006 0-1.699-0.003-1.706-0.006-0.009 0-1.518 0.006-1.529 0.006-0.414 0-0.75-0.336-0.75-0.75s0.336-0.75 0.75-0.75h8.25c1.055 0 1.5 0.563 1.5 1.5zM9.716 0h-7.431c-1.26 0-2.284 1.074-2.284 2.405v19.193c0 1.329 1.025 2.403 2.284 2.403h7.43c1.261 0 2.286-1.074 2.286-2.404v-19.191c0-1.331-1.024-2.405-2.284-2.405zM10.5 21.596c0 0.498-0.353 0.904-0.784 0.904h-7.431c-0.432 0-0.785-0.407-0.785-0.904v-19.191c0-0.498 0.352-0.905 0.785-0.905h2.216v0.635c0 0.065 0.139 0.115 0.31 0.115h2.38c0.17 0 0.309-0.051 0.309-0.115v-0.635h2.216c0.432 0 0.784 0.407 0.784 0.905v19.191z"></path>
</svg>
