<!-- Generated by IcoMoon.io -->
<svg version="1.1" xmlns="http://www.w3.org/2000/svg" width="16" height="16" viewBox="0 0 16 16">
<title>multiplataform</title>
<path fill="#444" d="M16 3v9.359c0 0.331-0.258 0.641-0.591 0.641h-5.409v0.991h2.236c0.211 0.031 0.379 0.133 0.516 0.327l0.462 0.66h-3.685c-0.010 0.001-0.019 0.006-0.029 0.006-0.276 0-0.5-0.224-0.5-0.5v-1.953h0.006c-0.001-0.010-0.006-0.020-0.006-0.031 0-0.276 0.224-0.5 0.5-0.5 0.001 0 0.002 0.001 0.004 0.001s0.001-0.001 0.001-0.001h5.346c0.080-0.023 0.139-0.082 0.149-0.167v-8.7c-0.016-0.064-0.056-0.108-0.116-0.133h-3.228c-0.004 0-1.133-0.002-1.137-0.004-0.006 0-1.012 0.004-1.019 0.004-0.276 0-0.5-0.224-0.5-0.5s0.224-0.5 0.5-0.5h5.5c0.703 0 1 0.375 1 1zM6.477 0h-4.954c-0.84 0-1.523 0.716-1.523 1.603v12.795c0 0.886 0.683 1.602 1.523 1.602h4.953c0.841 0 1.524-0.716 1.524-1.603v-12.794c0-0.887-0.683-1.603-1.523-1.603zM7 14.397c0 0.332-0.235 0.603-0.523 0.603h-4.954c-0.288 0-0.523-0.271-0.523-0.603v-12.794c0-0.332 0.235-0.603 0.523-0.603h1.477v0.423c0 0.043 0.093 0.077 0.207 0.077h1.587c0.113 0 0.206-0.034 0.206-0.077v-0.423h1.477c0.288 0 0.523 0.271 0.523 0.603v12.794z"></path>
</svg>
