<!-- Generated by IcoMoon.io -->
<svg version="1.1" xmlns="http://www.w3.org/2000/svg" width="24" height="24" viewBox="0 0 24 24">
<title>music_note</title>
<path d="M23 1.724c0-0.206-0.092-0.4-0.251-0.532-0.159-0.13-0.367-0.187-0.57-0.143l-13.063 2.584c-0.321 0.062-0.554 0.346-0.554 0.674v14.458l-1.289-0.744c-1.061-0.613-2.136-0.655-3.294-0.125l-2.186 1.020c-0.463 0.216-0.769 0.673-0.792 1.186-0.023 0.512 0.242 0.995 0.686 1.25l1.94 1.122c1.066 0.614 2.142 0.654 3.29 0.121l2.186-1.019c0.419-0.195 0.697-0.59 0.766-1.040 0.042-0.088 0.068-0.184 0.068-0.288v-9.876l11.688-2.312v6.598l-1.25-0.72c-1.061-0.614-2.137-0.657-3.292-0.127l-2.186 1.020c-0.465 0.216-0.771 0.673-0.792 1.186-0.022 0.512 0.242 0.995 0.686 1.252l1.94 1.122c1.066 0.612 2.142 0.652 3.289 0.119l2.186-1.019c0.464-0.217 0.771-0.674 0.793-1.186 0.002-0.046-0.010-0.089-0.013-0.135 0.003-0.024 0.014-0.044 0.014-0.069v-14.377zM6.336 21.348c-0.729 0.34-1.326 0.336-2.021-0.065l-1.94-1.121 2.186-1.020c0.732-0.336 1.325-0.334 2.023 0.070l1.938 1.117-2.186 1.019zM9.938 8.97v-4.098l11.687-2.312v4.1l-11.687 2.31zM19.439 17.263c-0.73 0.34-1.325 0.336-2.022-0.065l-1.939-1.121 2.186-1.020c0.732-0.335 1.326-0.333 2.022 0.070l1.939 1.117-2.186 1.019z"></path>
</svg>
