<!-- Generated by IcoMoon.io -->
<svg version="1.1" xmlns="http://www.w3.org/2000/svg" width="24" height="24" viewBox="0 0 24 24">
<title>music_note</title>
<path fill="#444" d="M24 0.789c0-0.224-0.101-0.436-0.274-0.581-0.174-0.143-0.4-0.204-0.622-0.156l-14.25 2.818c-0.349 0.070-0.603 0.379-0.603 0.736v15.772l-1.407-0.811c-1.156-0.669-2.331-0.716-3.594-0.136l-2.385 1.111c-0.506 0.235-0.84 0.733-0.864 1.293-0.026 0.558 0.264 1.086 0.748 1.364l2.117 1.224c1.162 0.669 2.337 0.714 3.589 0.132l2.385-1.111c0.457-0.213 0.761-0.643 0.835-1.134 0.045-0.096 0.075-0.201 0.075-0.315v-10.773l12.75-2.52v7.197l-1.364-0.784c-1.157-0.669-2.331-0.717-3.592-0.138l-2.385 1.111c-0.507 0.235-0.841 0.733-0.864 1.293-0.025 0.558 0.264 1.086 0.749 1.365l2.117 1.224c1.162 0.668 2.337 0.712 3.588 0.13l2.385-1.111c0.507-0.235 0.841-0.735 0.866-1.293 0.001-0.049-0.011-0.096-0.014-0.147 0.003-0.027 0.015-0.048 0.015-0.076v-15.684zM5.821 22.198c-0.795 0.37-1.446 0.366-2.205-0.072l-2.117-1.223 2.385-1.111c0.798-0.366 1.446-0.364 2.208 0.076l2.113 1.218-2.385 1.111zM9.75 8.695v-4.47l12.75-2.523v4.471l-12.75 2.521zM20.115 17.742c-0.797 0.37-1.446 0.366-2.207-0.072l-2.115-1.223 2.385-1.111c0.798-0.366 1.446-0.363 2.206 0.077l2.115 1.218-2.385 1.111z"></path>
</svg>
