<!-- Generated by IcoMoon.io -->
<svg version="1.1" xmlns="http://www.w3.org/2000/svg" width="16" height="16" viewBox="0 0 16 16">
<title>newspaper</title>
<path fill="#444" d="M7 4h-4c-0.552 0-1 0.447-1 1v5c0 0.553 0.448 1 1 1h4c0.552 0 1-0.447 1-1v-5c0-0.553-0.448-1-1-1zM7 10h-4v-5h4v5zM16 1.984v10.328c0 1.917-1.616 3.688-3.531 3.688h-8.993c-1.917 0-3.476-1.678-3.476-3.594v-11.918c0-0.267 0.232-0.488 0.5-0.488h12.5c0.27 0 0.5 0.232 0.5 0.5v10.4l-0.667-0.467c-0.201-0.141-0.281-0.313-0.308-0.533l-0.025-0.5v-8.4h-11.5v11.41c0 1.372 1.097 2.59 2.476 2.59h8.995c1.375 0 2.529-1.308 2.529-2.683v-8.842l0.025-0.5c0.027-0.22 0.107-0.393 0.308-0.533l0.666-0.466c0 0.003 0.001 0.005 0.001 0.008zM11.6 3h-8.477c-0.293-0.002-0.488-0.094-0.656-0.334l-0.467-0.666h8.477c0.293 0.001 0.488 0.093 0.656 0.333l0.467 0.667zM12 13h-8.877c-0.293-0.002-0.488-0.094-0.656-0.334l-0.467-0.666h8.877c0.293 0.001 0.488 0.093 0.656 0.333l0.467 0.667zM12 5h-2.377c-0.293-0.002-0.488-0.094-0.656-0.334l-0.467-0.666h2.377c0.293 0.001 0.488 0.093 0.656 0.333l0.467 0.667zM12 7h-2.377c-0.293-0.002-0.488-0.094-0.656-0.334l-0.467-0.666h2.377c0.293 0.001 0.488 0.093 0.656 0.333l0.467 0.667zM12 9h-2.377c-0.293-0.002-0.488-0.094-0.656-0.334l-0.467-0.666h2.377c0.293 0.001 0.488 0.093 0.656 0.333l0.467 0.667zM12 11h-2.377c-0.293-0.002-0.488-0.094-0.656-0.334l-0.467-0.666h2.377c0.293 0.001 0.488 0.093 0.656 0.333l0.467 0.667z"></path>
</svg>
