<!-- Generated by IcoMoon.io -->
<svg version="1.1" xmlns="http://www.w3.org/2000/svg" width="24" height="24" viewBox="0 0 24 24">
<title>office_building</title>
<path fill="#444" d="M10.5 15l-0.693 1c-0.251 0.36-0.54 0.498-0.976 0.5h-2.081v-1.5h3.75zM10.5 12l-0.693 1c-0.251 0.36-0.541 0.498-0.976 0.5h-2.081v-1.5h3.75zM10.5 9l-0.693 1c-0.251 0.36-0.541 0.498-0.976 0.5h-2.081v-1.5h3.75zM17.25 15l-0.693 1c-0.251 0.36-0.54 0.498-0.977 0.5h-2.081v-1.5h3.75zM17.25 12l-0.693 1c-0.251 0.36-0.54 0.498-0.977 0.5h-2.081v-1.5h3.75zM17.25 9l-0.693 1c-0.251 0.36-0.54 0.498-0.977 0.5h-2.081v-1.5h3.75zM10.5 6l-0.693 1c-0.251 0.36-0.541 0.498-0.976 0.5h-2.081v-1.5h3.75zM17.25 6l-0.693 1c-0.251 0.36-0.54 0.498-0.977 0.5h-2.081v-1.5h3.75zM19.308 2.811l-6.75-2.704c-0.18-0.072-0.369-0.106-0.558-0.106s-0.378 0.034-0.558 0.106l-6.75 2.704c-0.569 0.228-0.942 0.78-0.942 1.393v18.296c0 0.83 0.672 1.5 1.5 1.5h4.5c0.828 0 1.5-0.67 1.5-1.5v-1.5h1.5v1.5c0 0.83 0.672 1.5 1.5 1.5h4.5c0.828 0 1.5-0.67 1.5-1.5v-18.295c0-0.613-0.373-1.166-0.942-1.393zM18.75 22.5h-4.5v-2.25c0-0.414-0.336-0.75-0.75-0.75h-3c-0.414 0-0.75 0.336-0.75 0.75v2.25h-4.5v-18.295l6.75-2.704 6.75 2.704v18.295z"></path>
</svg>
