<!-- Generated by IcoMoon.io -->
<svg version="1.1" xmlns="http://www.w3.org/2000/svg" width="16" height="16" viewBox="0 0 16 16">
<title>office_building</title>
<path fill="#444" d="M7 10l-0.462 0.667c-0.167 0.24-0.36 0.332-0.651 0.333h-1.387v-1h2.5zM7 8l-0.462 0.667c-0.167 0.24-0.361 0.332-0.651 0.333h-1.387v-1h2.5zM7 6l-0.462 0.667c-0.167 0.24-0.361 0.332-0.651 0.333h-1.387v-1h2.5zM11.5 10l-0.462 0.667c-0.167 0.24-0.36 0.332-0.651 0.333h-1.387v-1h2.5zM11.5 8l-0.462 0.667c-0.167 0.24-0.36 0.332-0.651 0.333h-1.387v-1h2.5zM11.5 6l-0.462 0.667c-0.167 0.24-0.36 0.332-0.651 0.333h-1.387v-1h2.5zM7 4l-0.462 0.667c-0.167 0.24-0.361 0.332-0.651 0.333h-1.387v-1h2.5zM11.5 4l-0.462 0.667c-0.167 0.24-0.36 0.332-0.651 0.333h-1.387v-1h2.5zM12.872 1.874l-4.5-1.803c-0.12-0.048-0.246-0.071-0.372-0.071s-0.252 0.023-0.372 0.071l-4.5 1.803c-0.379 0.152-0.628 0.52-0.628 0.929v12.197c0 0.553 0.448 1 1 1h3c0.552 0 1-0.447 1-1v-1h1v1c0 0.553 0.448 1 1 1h3c0.552 0 1-0.447 1-1v-12.197c0-0.409-0.249-0.777-0.628-0.929zM12.5 15h-3v-1.5c0-0.276-0.224-0.5-0.5-0.5h-2c-0.276 0-0.5 0.224-0.5 0.5v1.5h-3v-12.197l4.5-1.803 4.5 1.803v12.197z"></path>
</svg>
