<!-- Generated by IcoMoon.io -->
<svg version="1.1" xmlns="http://www.w3.org/2000/svg" width="24" height="24" viewBox="0 0 24 24">
<title>office_building</title>
<path fill="#444" d="M10.625 14.75l-0.635 0.919c-0.228 0.328-0.495 0.455-0.894 0.456h-1.908v-1.375h3.437zM10.625 12l-0.635 0.919c-0.228 0.328-0.495 0.455-0.894 0.456h-1.908v-1.375h3.437zM10.625 9.25l-0.635 0.919c-0.228 0.328-0.495 0.455-0.894 0.456h-1.908v-1.375h3.437zM16.812 14.75l-0.635 0.919c-0.228 0.328-0.495 0.455-0.894 0.456h-1.908v-1.375h3.437zM16.812 12l-0.635 0.919c-0.228 0.328-0.495 0.455-0.894 0.456h-1.908v-1.375h3.437zM16.812 9.25l-0.635 0.919c-0.228 0.328-0.495 0.455-0.894 0.456h-1.908v-1.375h3.437zM10.625 6.5l-0.635 0.919c-0.228 0.328-0.495 0.455-0.894 0.456h-1.908v-1.375h3.437zM16.812 6.5l-0.635 0.919c-0.228 0.328-0.495 0.455-0.894 0.456h-1.908v-1.375h3.437zM18.7 3.577l-6.188-2.477c-0.166-0.065-0.339-0.1-0.512-0.1s-0.346 0.035-0.513 0.101l-6.187 2.476c-0.52 0.211-0.862 0.713-0.862 1.275v16.773c0 0.758 0.614 1.375 1.374 1.375h4.125c0.76 0 1.375-0.617 1.375-1.375v-1.375h1.375v1.375c0 0.758 0.615 1.375 1.375 1.375h4.125c0.76 0 1.375-0.617 1.375-1.375v-16.773c0-0.562-0.342-1.064-0.862-1.275zM18.188 21.625h-4.125v-2.062c0-0.382-0.309-0.688-0.688-0.688h-2.75c-0.379 0-0.688 0.306-0.688 0.688v2.062h-4.125v-16.773l6.188-2.477 6.188 2.477v16.773z"></path>
</svg>
