<!-- Generated by IcoMoon.io -->
<svg version="1.1" xmlns="http://www.w3.org/2000/svg" width="24" height="24" viewBox="0 0 24 24">
<title>on_off</title>
<path fill="#444" d="M11.75 0.888c-0.36 0.252-0.498 0.544-0.5 0.984v16.316l0.999-0.701c0.36-0.252 0.498-0.544 0.501-0.984v-16.316l-1 0.701zM24 12.188c0 6.408-5.384 11.625-12 11.625s-12-5.217-12-11.625c0-4.222 2.226-7.688 5.617-9.803v0 1.219c0 0.326-0.111 0.573-0.303 0.781-2.328 1.858-3.815 4.665-3.815 7.802 0 5.584 4.71 10.125 10.5 10.125s10.5-4.541 10.5-10.125c0-3.448-1.946-6.188-3.419-7.464l-0.246-0.249c-0.246-0.222-0.367-0.501-0.367-0.87v-1.194c3.321 2.070 5.532 5.676 5.532 9.777z"></path>
</svg>
