<!-- Generated by IcoMoon.io -->
<svg version="1.1" xmlns="http://www.w3.org/2000/svg" width="16" height="16" viewBox="0 0 16 16">
<title>on_off</title>
<path fill="#444" d="M7.833 0.592c-0.24 0.168-0.332 0.363-0.333 0.656v10.877l0.666-0.467c0.24-0.168 0.332-0.363 0.334-0.656v-10.877l-0.667 0.467zM16 8.125c0 4.272-3.589 7.75-8 7.75s-8-3.478-8-7.75c0-2.815 1.484-5.125 3.745-6.535v0 0.813c0 0.217-0.074 0.382-0.202 0.521-1.552 1.239-2.543 3.11-2.543 5.201 0 3.723 3.14 6.75 7 6.75s7-3.027 7-6.75c0-2.299-1.297-4.125-2.279-4.976l-0.164-0.166c-0.164-0.148-0.245-0.334-0.245-0.58v-0.796c2.214 1.38 3.688 3.784 3.688 6.518z"></path>
</svg>
