<!-- Generated by IcoMoon.io -->
<svg version="1.1" xmlns="http://www.w3.org/2000/svg" width="16" height="16" viewBox="0 0 16 16">
<title>opensource</title>
<path fill="#444" d="M15.88 7.137c-0.533-3.093-2.856-5.612-5.88-6.384-4.431-1.133-8.896 1.646-9.833 6.123-0.067 0.319-0.093 0.647-0.139 0.971-0.007 0.050-0.018 0.101-0.028 0.152 0 0.322 0 0.646 0 0.969 0.022 0.189 0.040 0.38 0.069 0.569 0.392 2.557 1.688 4.514 3.899 5.861 0.281 0.171 0.439 0.127 0.6-0.157 0.508-0.896 1.015-1.792 1.521-2.688 0.284-0.503 0.567-1.006 0.851-1.509 0.146-0.259 0.109-0.404-0.14-0.56-0.026-0.016-0.053-0.032-0.078-0.050-0.964-0.635-1.321-1.856-0.846-2.901 0.471-1.041 1.638-1.6 2.739-1.281 0.948 0.274 1.519 0.923 1.688 1.892 0.16 0.92-0.285 1.836-1.092 2.333-0.248 0.152-0.303 0.303-0.176 0.526 0.808 1.432 1.616 2.862 2.427 4.292 0.122 0.215 0.301 0.263 0.514 0.135 2.123-1.266 3.426-3.111 3.897-5.537 0.058-0.295 0.085-0.596 0.127-0.894 0-0.334 0-0.667 0-1-0.040-0.287-0.071-0.576-0.12-0.862zM15 8.935l-0.030 0.233c-0.022 0.178-0.044 0.356-0.078 0.533-0.377 1.938-1.324 3.422-2.889 4.521-0.607-1.073-1.214-2.146-1.821-3.221 0.877-0.757 1.303-1.894 1.106-3.029-0.236-1.35-1.086-2.302-2.395-2.681-0.295-0.085-0.6-0.128-0.906-0.128-1.298 0-2.484 0.769-3.022 1.958-0.617 1.358-0.254 2.924 0.852 3.88l-1.82 3.22c-1.659-1.172-2.621-2.758-2.939-4.835-0.019-0.12-0.031-0.24-0.044-0.359l-0.014-0.116v-0.814c0.008-0.044 0.015-0.080 0.020-0.116l0.042-0.334c0.023-0.189 0.044-0.378 0.083-0.564 0.677-3.236 3.56-5.583 6.855-5.583 0.587 0 1.177 0.074 1.753 0.222 2.656 0.679 4.674 2.87 5.142 5.585 0.030 0.175 0.052 0.354 0.075 0.531l0.030 0.226v0.871z"></path>
</svg>
