<!-- Generated by IcoMoon.io -->
<svg version="1.1" xmlns="http://www.w3.org/2000/svg" width="16" height="16" viewBox="0 0 16 16">
<title>option_select</title>
<path fill="#444" d="M14 8c0 3.309-2.691 6-6 6s-6-2.691-6-6 2.691-6 6-6c1.957 0 3.687 0.949 4.781 2.403l1.728-1.724c0.208-0.207 0.428-0.277 0.717-0.225l0.774 0.136-8.417 8.41-3.674-3.754c0 0 0 0-0.001-0.002l0.781-0.137c0.272-0.049 0.482 0.021 0.679 0.201l2.224 2.272 4.474-4.463c-0.906-1.275-2.382-2.117-4.066-2.117-2.762 0-5 2.238-5 5s2.238 5 5 5 5-2.238 5-5c0-0.309-0.080-0.9-0.080-0.9 0-0.276 0.224-0.5 0.5-0.5s0.5 0.224 0.5 0.5c0 0 0.080 0.593 0.080 0.9z"></path>
</svg>
