<!-- Generated by IcoMoon.io -->
<svg version="1.1" xmlns="http://www.w3.org/2000/svg" width="24" height="24" viewBox="0 0 24 24">
<title>option_select</title>
<path fill="#444" d="M21 12c0 4.964-4.036 9-9 9s-9-4.036-9-9 4.037-9 9-9c2.936 0 5.53 1.423 7.171 3.605l2.592-2.586c0.312-0.31 0.642-0.416 1.076-0.338l1.161 0.204-12.625 12.615-5.511-5.631c0 0 0 0-0.002-0.003l1.171-0.205c0.408-0.074 0.723 0.031 1.018 0.301l3.336 3.408 6.711-6.695c-1.359-1.912-3.573-3.175-6.099-3.175-4.143 0-7.5 3.357-7.5 7.5s3.357 7.5 7.5 7.5 7.5-3.357 7.5-7.5c0-0.463-0.12-1.35-0.12-1.35 0-0.414 0.336-0.75 0.75-0.75s0.75 0.336 0.75 0.75c0 0 0.12 0.89 0.12 1.35z"></path>
</svg>
