<!-- Generated by IcoMoon.io -->
<svg version="1.1" xmlns="http://www.w3.org/2000/svg" width="24" height="24" viewBox="0 0 24 24">
<title>out</title>
<path d="M22.267 19.333c0 2.022-1.645 3.667-3.667 3.667h-13.2c-2.021 0-3.667-1.645-3.667-3.667 0 0-0.013-11.105 0-11.158l0.958 0.648c0.351 0.246 0.509 0.547 0.509 0.977v9.533c0 1.214 0.987 2.2 2.2 2.2h13.2c1.213 0 2.2-0.986 2.2-2.2v-9.533c0-0.43 0.158-0.73 0.509-0.977l0.958-0.648c0.012 0.053 0 11.158 0 11.158zM7.14 6.866h1.194c0.431 0 0.613-0.080 0.861-0.431l2.073-2.961v5.592c0 0.406 0.327 0.734 0.732 0.734s0.733-0.328 0.733-0.733v-5.593l2.074 2.962c0.249 0.351 0.43 0.431 0.859 0.431h1.192l-3.057-4.42-0.674-0.962c-0.075-0.104-0.159-0.165-0.243-0.229-0.16-0.125-0.335-0.211-0.55-0.237l-0.334-0.019-0.337 0.018c-0.196 0.024-0.359 0.096-0.509 0.198l0.001 0.002c-0.099 0.077-0.199 0.147-0.286 0.271l-3.729 5.377z"></path>
</svg>
