<!-- Generated by IcoMoon.io -->
<svg version="1.1" xmlns="http://www.w3.org/2000/svg" width="16" height="16" viewBox="0 0 16 16">
<title>paper_clip</title>
<path fill="#444" d="M8.022 14.481c-1.033 1.446-3.096 1.853-4.138 1.248-1.297-0.752-2.127-1.756-1.911-3.287 0.075-0.537 0.699-1.651 1.010-2.093 6.454-9.223 0 0 6.454-9.223 0.857-1.225 2.341-1.457 3.521-0.668 1.14 0.762 1.466 2.265 0.646 3.436-5.024 7.18-3.363 4.839-5.024 7.18-0.529 0.747-1.5 0.78-2.292 0.221-0.702-0.496-1.108-1.469-0.613-2.176 0.797-1.138 2.030-2.857 2.030-2.857 0.148-0.164 0.313-0.26 0.558-0.26h0.747l0.045 0.033c0 0-2.238 3.186-2.37 3.387-0.255 0.387-0.247 0.791 0.165 1.072 0.415 0.285 0.81 0.145 1.075-0.229 0.628-0.883 3.776-5.389 4.729-6.757 0.571-0.818 0.456-1.73-0.254-2.253-0.757-0.555-1.577-0.355-2.173 0.489-2.154 3.048-4.391 6.3-6.421 9.173-1.254 1.774-1.055 2.934 0.043 3.683 1.097 0.75 2.534 0.504 3.359-0.659 1.269-1.787 3.993-5.688 5.104-7.28 0.147-0.164 0.312-0.258 0.555-0.258h0.814l0.023-0.035c-0.065 0.127-3.956 5.696-5.682 8.113z"></path>
</svg>
