<!-- Generated by IcoMoon.io -->
<svg version="1.1" xmlns="http://www.w3.org/2000/svg" width="24" height="24" viewBox="0 0 24 24">
<title>paper_plane</title>
<path d="M22.597 1.402c-0.263-0.261-0.614-0.402-0.972-0.402-0.152 0-0.306 0.025-0.455 0.078l-19.25 6.739c-0.532 0.186-0.896 0.678-0.919 1.24-0.023 0.564 0.3 1.084 0.815 1.313l8.179 3.635 3.637 8.178c0.221 0.499 0.715 0.817 1.256 0.817 0.018 0 0.038 0 0.057-0.001 0.563-0.023 1.055-0.387 1.241-0.92l6.737-19.25c0.174-0.498 0.047-1.053-0.326-1.427zM2.375 9.114l17.754-6.216-9.579 9.58c-0.062 0.062-0.105 0.133-0.138 0.208l-8.037-3.572zM14.888 21.625l-3.574-8.036c0.075-0.034 0.146-0.077 0.208-0.139l9.579-9.579-6.213 17.754z"></path>
</svg>
