<!-- Generated by IcoMoon.io -->
<svg version="1.1" xmlns="http://www.w3.org/2000/svg" width="24" height="24" viewBox="0 0 24 24">
<title>paper_text</title>
<path fill="#444" d="M15.212 11.501c-0.11-0.406-0.298-0.762-0.559-1.052-0.26-0.297-0.604-0.526-1.033-0.686-0.43-0.164-0.955-0.238-1.579-0.238-0.546 0-1.052 0.040-1.521 0.118-0.465 0.084-0.799 0.171-1 0.258 0.17 0.673 0.763 1.082 1.448 1.002 0.364-0.040 0.569-0.047 0.936-0.047 0.399 0 0.729 0.062 0.98 0.177 0.252 0.114 0.447 0.274 0.591 0.468 0.147 0.195 0.245 0.415 0.301 0.668 0.059 0.246 0.083 0.501 0.083 0.759v0.431c-0.043-0.007-0.12-0.025-0.234-0.049-0.11-0.021-0.241-0.045-0.39-0.070-0.152-0.033-0.31-0.054-0.474-0.073-0.169-0.011-0.332-0.023-0.484-0.023-0.491 0-0.961 0.055-1.404 0.15-0.445 0.103-0.836 0.257-1.17 0.469-0.333 0.213-0.599 0.49-0.788 0.835-0.2 0.345-0.295 0.755-0.295 1.231 0 0.507 0.083 0.936 0.248 1.287 0.168 0.359 0.403 0.645 0.704 0.86 0.301 0.217 0.656 0.378 1.066 0.475 0.414 0.102 0.864 0.149 1.353 0.149 0.345 0 0.694-0.010 1.042-0.042 0.352-0.025 0.678-0.053 0.979-0.089 0.299-0.030 0.569-0.068 0.811-0.109 0.238-0.039 0.424-0.067 0.559-0.089v-5.429c-0.001-0.491-0.060-0.933-0.17-1.341zM13.859 17.182c-0.191 0.044-0.424 0.079-0.708 0.097-0.283 0.012-0.61 0.023-0.977 0.023-0.613 0-1.096-0.107-1.451-0.324-0.358-0.216-0.536-0.609-0.536-1.16 0-0.302 0.073-0.548 0.22-0.728 0.142-0.187 0.324-0.333 0.54-0.433 0.217-0.107 0.455-0.18 0.717-0.211 0.262-0.035 0.509-0.048 0.744-0.048 0.355 0 0.662 0.015 0.911 0.055 0.248 0.039 0.43 0.086 0.54 0.144v2.585zM20.248 6.5l-5.499-5.5h-9.624c-0.76 0-1.375 0.617-1.375 1.375v19.25c0 0.758 0.615 1.375 1.375 1.375h13.75c0.76 0 1.375-0.617 1.375-1.375v-15.125h-0.002zM14.75 2.949l3.554 3.551h-3.554v-3.551zM18.875 21.625h-13.75v-19.25h8.25v4.125c0 0.758 0.615 1.375 1.375 1.375h4.125v13.75z"></path>
</svg>
