<!-- Generated by IcoMoon.io -->
<svg version="1.1" xmlns="http://www.w3.org/2000/svg" width="24" height="24" viewBox="0 0 24 24">
<title>paper_organizer</title>
<path fill="#444" d="M5.125 1h-2.75c-0.76 0-1.375 0.617-1.375 1.375v19.25c0 0.758 0.615 1.375 1.375 1.375h2.75c0.76 0 1.375-0.617 1.375-1.375v-19.25c0-0.758-0.615-1.375-1.375-1.375zM5.125 21.625h-2.75v-19.25h2.75v19.25zM4.438 4.026c0 0.376-0.309 0.688-0.688 0.688s-0.688-0.312-0.688-0.688c0-0.382 0.308-0.688 0.688-0.688 0.379 0.001 0.688 0.307 0.688 0.688zM12 1h-2.75c-0.76 0-1.375 0.617-1.375 1.375v19.25c0 0.758 0.615 1.375 1.375 1.375h2.75c0.76 0 1.375-0.617 1.375-1.375v-19.25c0-0.758-0.615-1.375-1.375-1.375zM12 21.625h-2.75v-19.25h2.75v19.25zM11.312 4.026c0 0.376-0.309 0.688-0.688 0.688s-0.686-0.312-0.686-0.688c0-0.382 0.309-0.688 0.688-0.688s0.686 0.307 0.686 0.688zM17.413 1.027l-2.673 0.568c-0.738 0.153-1.211 0.874-1.054 1.616l3.941 18.707c0.154 0.736 0.879 1.209 1.616 1.055l2.673-0.567c0.738-0.153 1.211-0.874 1.054-1.616l-3.938-18.708c-0.157-0.736-0.88-1.209-1.619-1.055zM21.635 21.070l-2.673 0.562-3.941-18.702 2.673-0.562 3.941 18.702zM17.363 4.111c0.081 0.368-0.156 0.73-0.527 0.806-0.369 0.080-0.731-0.156-0.808-0.524s0.158-0.731 0.527-0.812c0.368-0.074 0.731 0.162 0.808 0.53z"></path>
</svg>
