<!-- Generated by IcoMoon.io -->
<svg version="1.1" xmlns="http://www.w3.org/2000/svg" width="24" height="24" viewBox="0 0 24 24">
<title>paper_ribbon</title>
<path fill="#444" d="M21.625 3.062l-15.125 0.002-5.5 5.5v9.623c0 0.758 0.614 1.375 1.375 1.375h11.163c0 0.448 0.205 0.875 0.58 1.134 0.235 0.158 0.507 0.241 0.782 0.241 0.229 0 0.46-0.060 0.667-0.173l1.568-0.873 1.567 0.873c0.208 0.113 0.439 0.173 0.667 0.173 0.275 0 0.547-0.083 0.782-0.241 0.375-0.259 0.581-0.686 0.581-1.134h0.894c0.761 0 1.375-0.618 1.375-1.375v-13.749c-0.001-0.758-0.615-1.376-1.376-1.376zM6.5 5.012v3.551h-3.554l3.554-3.551zM19.098 14.963c-0.232 0.177-0.341 0.471-0.29 0.752 0.027 0.189 0.376 2.565 0.561 3.848l-1.857-1.031c-0.118-0.064-0.248-0.101-0.377-0.101s-0.26 0.036-0.377 0.101l-1.858 1.030c0.185-1.272 0.53-3.645 0.562-3.844 0.052-0.282-0.056-0.577-0.29-0.755-0.733-0.565-1.153-1.393-1.153-2.258 0-1.616 1.397-2.938 3.116-2.938 1.718 0 3.115 1.321 3.115 2.938 0 0.866-0.42 1.693-1.152 2.258zM21.625 12.706v5.481h-1.065c0.016 0.128-0.263-1.786-0.345-2.366 0.898-0.816 1.41-1.933 1.41-3.115 0-2.379-2.016-4.312-4.49-4.312s-4.491 1.934-4.491 4.312c0 1.182 0.512 2.299 1.415 3.116-0.058 0.382-0.359 2.436-0.349 2.365h-11.335v-8.25h4.125c0.761 0 1.375-0.617 1.375-1.375v-4.124h13.75v8.268z"></path>
</svg>
