<!-- Generated by IcoMoon.io -->
<svg version="1.1" xmlns="http://www.w3.org/2000/svg" width="16" height="16" viewBox="0 0 16 16">
<title>paper_ribbon</title>
<path fill="#444" d="M15 2l-11 0.002-4 4v6.998c0 0.553 0.447 1 1 1h8.119c0 0.325 0.149 0.635 0.422 0.823 0.17 0.117 0.369 0.177 0.568 0.177 0.167 0 0.334-0.042 0.485-0.126l1.14-0.633 1.139 0.633c0.152 0.084 0.319 0.126 0.486 0.126 0.199 0 0.397-0.060 0.568-0.177 0.273-0.188 0.423-0.498 0.423-0.823h0.65c0.553 0 1-0.448 1-1v-10c0-0.553-0.447-1-1-1zM4 3.416v2.584h-2.584l2.584-2.584zM13.162 10.654c-0.168 0.13-0.247 0.342-0.211 0.547 0.021 0.137 0.273 1.868 0.409 2.799l-1.35-0.75c-0.085-0.047-0.18-0.071-0.275-0.071s-0.189 0.024-0.275 0.071l-1.351 0.75c0.135-0.927 0.386-2.648 0.409-2.795 0.038-0.206-0.042-0.419-0.21-0.55-0.534-0.413-0.839-1.012-0.839-1.643 0-1.177 1.017-2.135 2.266-2.135 1.248 0.001 2.265 0.959 2.265 2.136 0 0.631-0.306 1.229-0.838 1.641zM15 9.013v3.987h-0.775c0.013 0.093 0.026 0.18 0.039 0.269-0.104-0.715-0.229-1.568-0.291-1.99 0.656-0.594 1.027-1.407 1.027-2.266 0-1.729-1.465-3.135-3.266-3.135s-3.266 1.406-3.266 3.135c0 0.859 0.372 1.672 1.028 2.267-0.041 0.276-0.177 1.206-0.273 1.869 0.007-0.050 0.014-0.096 0.021-0.148h-8.244v-6.001h3c0.553 0 1-0.447 1-1v-3h10v6.013z"></path>
</svg>
