<!-- Generated by IcoMoon.io -->
<svg version="1.1" xmlns="http://www.w3.org/2000/svg" width="24" height="24" viewBox="0 0 24 24">
<title>paper_clip</title>
<path fill="#444" d="M12.033 21.721c-1.55 2.169-4.644 2.779-6.207 1.872-1.945-1.128-3.19-2.634-2.867-4.93 0.113-0.806 1.048-2.476 1.515-3.139 9.681-13.835 0 0 9.681-13.835 1.285-1.838 3.511-2.186 5.282-1.002 1.71 1.143 2.199 3.397 0.969 5.154-7.536 10.77-5.045 7.259-7.536 10.77-0.793 1.12-2.25 1.17-3.438 0.331-1.053-0.744-1.662-2.203-0.919-3.264 1.196-1.707 3.045-4.285 3.045-4.285 0.222-0.246 0.47-0.39 0.837-0.39h1.12l0.068 0.050c0 0-3.357 4.779-3.555 5.081-0.382 0.581-0.37 1.186 0.248 1.608 0.623 0.428 1.215 0.217 1.613-0.343 0.942-1.324 5.664-8.084 7.093-10.136 0.857-1.227 0.684-2.595-0.381-3.38-1.135-0.833-2.365-0.532-3.259 0.733-3.231 4.572-6.586 9.45-9.631 13.76-1.881 2.661-1.582 4.401 0.064 5.524 1.645 1.125 3.801 0.756 5.038-0.989 1.903-2.68 5.99-8.532 7.656-10.92 0.22-0.246 0.468-0.387 0.832-0.387h1.221l0.034-0.053c-0.098 0.191-5.934 8.544-8.523 12.169z"></path>
</svg>
