<!-- Generated by IcoMoon.io -->
<svg version="1.1" xmlns="http://www.w3.org/2000/svg" width="24" height="24" viewBox="0 0 24 24">
<title>paper_text</title>
<path fill="#444" d="M15.504 11.454c-0.122-0.443-0.324-0.827-0.609-1.148-0.284-0.322-0.66-0.57-1.127-0.747-0.471-0.175-1.043-0.261-1.723-0.261-0.594 0-1.147 0.042-1.658 0.133s-0.874 0.186-1.092 0.282c0.185 0.728 0.832 1.175 1.578 1.089 0.396-0.042 0.621-0.053 1.022-0.053 0.436 0 0.795 0.066 1.069 0.195 0.273 0.128 0.486 0.297 0.645 0.509 0.16 0.213 0.267 0.454 0.328 0.729 0.062 0.273 0.090 0.549 0.090 0.831v0.47c-0.048-0.010-0.132-0.030-0.255-0.056-0.12-0.021-0.264-0.050-0.426-0.080-0.167-0.032-0.338-0.054-0.518-0.073-0.183-0.016-0.361-0.027-0.53-0.027-0.534 0-1.046 0.056-1.53 0.164-0.488 0.11-0.911 0.28-1.277 0.51-0.364 0.232-0.652 0.534-0.861 0.91-0.216 0.377-0.32 0.825-0.32 1.346 0 0.549 0.090 1.017 0.272 1.404 0.183 0.39 0.438 0.703 0.766 0.939 0.329 0.237 0.716 0.408 1.164 0.519 0.45 0.108 0.94 0.162 1.476 0.162 0.377 0 0.755-0.015 1.136-0.045 0.383-0.030 0.739-0.061 1.068-0.098 0.326-0.036 0.621-0.076 0.882-0.12 0.26-0.041 0.465-0.075 0.611-0.098v-5.922c0-0.534-0.062-1.020-0.183-1.466zM14.029 17.655c-0.207 0.048-0.465 0.084-0.773 0.1-0.311 0.018-0.664 0.027-1.065 0.027-0.669 0-1.195-0.117-1.582-0.354-0.392-0.236-0.584-0.659-0.584-1.266 0-0.33 0.079-0.594 0.239-0.792 0.156-0.201 0.354-0.359 0.589-0.473 0.239-0.117 0.498-0.191 0.782-0.228 0.286-0.034 0.558-0.054 0.813-0.054 0.389 0 0.72 0.023 0.993 0.064 0.268 0.037 0.466 0.091 0.588 0.152v2.823zM20.997 6l-5.999-6h-10.498c-0.828 0-1.5 0.67-1.5 1.5v21c0 0.83 0.672 1.5 1.5 1.5h15c0.828 0 1.5-0.67 1.5-1.5v-16.5h-0.003zM15 2.124l3.876 3.876h-3.876v-3.876zM19.5 22.5h-15v-21h9v4.5c0 0.829 0.672 1.5 1.5 1.5h4.5v15z"></path>
</svg>
