<!-- Generated by IcoMoon.io -->
<svg version="1.1" xmlns="http://www.w3.org/2000/svg" width="24" height="24" viewBox="0 0 24 24">
<title>paper_organizer</title>
<path fill="#444" d="M4.5 0h-3c-0.828 0-1.5 0.67-1.5 1.5v21c0 0.83 0.672 1.5 1.5 1.5h3c0.828 0 1.5-0.67 1.5-1.5v-21c0-0.83-0.672-1.5-1.5-1.5zM4.5 22.5h-3v-21h3v21zM3.75 3.3c0 0.414-0.336 0.75-0.75 0.75s-0.75-0.335-0.75-0.75 0.336-0.75 0.75-0.75 0.75 0.336 0.75 0.75zM12 0h-3c-0.828 0-1.5 0.67-1.5 1.5v21c0 0.83 0.672 1.5 1.5 1.5h3c0.828 0 1.5-0.67 1.5-1.5v-21c0-0.83-0.672-1.5-1.5-1.5zM12 22.5h-3v-21h3v21zM11.25 3.3c0 0.414-0.336 0.75-0.75 0.75s-0.75-0.335-0.75-0.75 0.336-0.75 0.75-0.75 0.75 0.336 0.75 0.75zM17.905 0.032l-2.916 0.615c-0.804 0.168-1.32 0.96-1.15 1.765l4.299 20.406c0.169 0.806 0.959 1.322 1.764 1.152l2.916-0.613c0.804-0.168 1.32-0.96 1.151-1.765l-4.299-20.408c-0.169-0.806-0.959-1.321-1.764-1.152zM22.511 21.897l-2.916 0.613-4.299-20.407 2.916-0.614 4.299 20.407zM17.852 3.393c0.085 0.404-0.173 0.797-0.575 0.884-0.404 0.085-0.798-0.173-0.882-0.576s0.171-0.798 0.575-0.883 0.797 0.172 0.882 0.576z"></path>
</svg>
