<!-- Generated by IcoMoon.io -->
<svg version="1.1" xmlns="http://www.w3.org/2000/svg" width="24" height="24" viewBox="0 0 24 24">
<title>paper_plane</title>
<path fill="#444" d="M23.561 0.44c-0.287-0.285-0.669-0.44-1.061-0.44-0.166 0-0.335 0.028-0.496 0.086l-21 7.352c-0.579 0.202-0.977 0.74-1.002 1.353-0.026 0.615 0.327 1.182 0.889 1.432l8.922 3.966 3.968 8.92c0.242 0.544 0.78 0.891 1.371 0.891 0.019 0 0.040 0 0.061-0.001 0.615-0.026 1.152-0.422 1.355-1.004l7.349-21c0.191-0.543 0.053-1.149-0.355-1.555zM1.5 8.851l19.368-6.781-10.449 10.452c-0.067 0.067-0.115 0.144-0.151 0.226l-8.768-3.897zM15.152 22.5l-3.9-8.767c0.082-0.036 0.161-0.082 0.228-0.15l10.449-10.45-6.777 19.368z"></path>
</svg>
