<!-- Generated by IcoMoon.io -->
<svg version="1.1" xmlns="http://www.w3.org/2000/svg" width="24" height="24" viewBox="0 0 24 24">
<title>paper_printer</title>
<path fill="#444" d="M16.061 12.054c0-0.019 0.011-0.034 0.011-0.054v-2.109c0-0.829-0.672-1.5-1.5-1.5h-5.142c-0.828 0-1.5 0.671-1.5 1.5v2.109c0 0.020 0.011 0.034 0.011 0.054-1.085 0.104-1.94 1.010-1.94 2.121v2.571c0 1.182 0.962 2.145 2.142 2.145h0.644c0.076 0 0.141-0.032 0.214-0.042v0.651c0 0.83 0.672 1.5 1.5 1.5h3c0.828 0 1.5-0.67 1.5-1.5v-0.652c0.073 0.011 0.138 0.042 0.215 0.042h0.643c1.182 0 2.142-0.963 2.142-2.145v-2.569c0-1.111-0.855-2.018-1.939-2.121zM9.429 9.891h5.144v2.109h-5.144v-2.109zM13.5 19.5h-3v-2.532h3v2.532zM16.5 16.746c0 0.356-0.288 0.645-0.642 0.645h-0.644v-1.287c0-0.354-0.288-0.642-0.642-0.642h-5.144c-0.354 0-0.642 0.287-0.642 0.642v1.287h-0.645c-0.354 0-0.642-0.289-0.642-0.645v-2.571c0-0.354 0.288-0.642 0.642-0.642h7.716c0.354 0 0.642 0.288 0.642 0.642v2.571zM20.997 6l-5.999-6h-10.498c-0.828 0-1.5 0.67-1.5 1.5v21c0 0.83 0.672 1.5 1.5 1.5h15c0.828 0 1.5-0.67 1.5-1.5v-16.5h-0.003zM15 2.124l3.876 3.876h-3.876v-3.876zM19.5 22.5h-15v-21h9v4.5c0 0.829 0.672 1.5 1.5 1.5h4.5v15z"></path>
</svg>
