<!-- Generated by IcoMoon.io -->
<svg version="1.1" xmlns="http://www.w3.org/2000/svg" width="24" height="24" viewBox="0 0 24 24">
<title>paper_ribbon</title>
<path fill="#444" d="M22.5 3l-16.5 0.003-6 6v10.497c0 0.83 0.67 1.5 1.5 1.5h12.178c0 0.487 0.223 0.953 0.633 1.235 0.255 0.176 0.553 0.265 0.852 0.265 0.251 0 0.501-0.063 0.727-0.189l1.71-0.95 1.709 0.95c0.228 0.126 0.479 0.189 0.729 0.189 0.299 0 0.596-0.090 0.852-0.265 0.409-0.282 0.634-0.747 0.634-1.235h0.975c0.83 0 1.5-0.672 1.5-1.5v-15c0-0.829-0.67-1.5-1.5-1.5zM6 5.124v3.876h-3.876l3.876-3.876zM19.743 15.981c-0.252 0.195-0.37 0.513-0.317 0.821 0.032 0.206 0.409 2.802 0.614 4.198l-2.025-1.125c-0.127-0.071-0.27-0.107-0.412-0.107s-0.284 0.036-0.413 0.107l-2.026 1.125c0.203-1.39 0.579-3.972 0.614-4.192 0.057-0.309-0.063-0.629-0.315-0.825-0.801-0.619-1.259-1.518-1.259-2.465 0-1.765 1.525-3.202 3.399-3.202 1.872 0.002 3.398 1.438 3.398 3.204 0 0.947-0.459 1.843-1.257 2.462zM22.5 13.52v5.98h-1.163c0.020 0.139 0.039 0.27 0.059 0.404-0.156-1.073-0.343-2.352-0.437-2.985 0.984-0.891 1.54-2.111 1.54-3.399 0-2.594-2.197-4.703-4.899-4.703s-4.899 2.109-4.899 4.703c0 1.288 0.558 2.508 1.542 3.4-0.062 0.414-0.265 1.809-0.409 2.803 0.011-0.075 0.021-0.144 0.032-0.222h-12.366v-9.002h4.5c0.829 0 1.5-0.67 1.5-1.5v-4.5h15v9.019z"></path>
</svg>
