<!-- Generated by IcoMoon.io -->
<svg version="1.1" xmlns="http://www.w3.org/2000/svg" width="16" height="16" viewBox="0 0 16 16">
<title>paper_plane</title>
<path fill="#444" d="M15.707 0.293c-0.191-0.19-0.446-0.293-0.707-0.293-0.111 0-0.223 0.019-0.331 0.057l-14 4.901c-0.386 0.135-0.651 0.493-0.668 0.902-0.017 0.41 0.218 0.788 0.593 0.955l5.948 2.644 2.645 5.947c0.161 0.363 0.52 0.594 0.914 0.594 0.013 0 0.027 0 0.041-0.001 0.41-0.017 0.768-0.281 0.903-0.669l4.899-14c0.127-0.362 0.035-0.766-0.237-1.037zM1 5.901l12.912-4.521-6.966 6.968c-0.045 0.045-0.077 0.096-0.101 0.151l-5.845-2.598zM10.101 15l-2.6-5.845c0.055-0.024 0.107-0.055 0.152-0.1l6.966-6.967-4.518 12.912z"></path>
</svg>
