<!-- Generated by IcoMoon.io -->
<svg version="1.1" xmlns="http://www.w3.org/2000/svg" width="24" height="24" viewBox="0 0 24 24">
<title>papers</title>
<path fill="#444" d="M23.247 6l-5.998-6h-14.999c-0.828 0-1.5 0.67-1.5 1.5v21c0 0.83 0.672 1.5 1.5 1.5h19.5c0.828 0 1.5-0.67 1.5-1.5v-16.5h-0.003zM17.25 2.124l3.876 3.876h-2.379l-1.497-1.497v-2.379zM15.75 1.5v1.503l-1.503-1.503h1.503zM12.75 2.124l3.876 3.876h-3.876v-3.876zM2.25 22.5v-21h9v4.5c0 0.829 0.672 1.5 1.5 1.5h4.5v15h-15zM21.75 22.5h-3v-15h3v15z"></path>
</svg>
