<!-- Generated by IcoMoon.io -->
<svg version="1.1" xmlns="http://www.w3.org/2000/svg" width="16" height="16" viewBox="0 0 16 16">
<title>paper_text</title>
<path fill="#444" d="M10.336 7.636c-0.081-0.295-0.216-0.551-0.406-0.765-0.189-0.215-0.44-0.38-0.751-0.498-0.314-0.117-0.695-0.174-1.149-0.174-0.396 0-0.765 0.028-1.105 0.089s-0.583 0.124-0.728 0.188c0.123 0.485 0.555 0.783 1.052 0.726 0.264-0.028 0.414-0.035 0.681-0.035 0.291 0 0.53 0.044 0.713 0.13 0.182 0.085 0.324 0.198 0.43 0.339 0.107 0.142 0.178 0.303 0.219 0.486s0.060 0.366 0.060 0.554v0.313c-0.032-0.007-0.088-0.020-0.17-0.037-0.080-0.014-0.176-0.033-0.284-0.053-0.111-0.021-0.225-0.036-0.345-0.049-0.122-0.011-0.241-0.018-0.353-0.018-0.356 0-0.697 0.037-1.020 0.109-0.325 0.073-0.607 0.187-0.851 0.34-0.243 0.155-0.435 0.356-0.574 0.607-0.144 0.251-0.213 0.55-0.213 0.897 0 0.366 0.060 0.678 0.181 0.936 0.122 0.26 0.292 0.469 0.511 0.626s0.477 0.272 0.776 0.346c0.3 0.072 0.627 0.108 0.984 0.108 0.251 0 0.503-0.010 0.757-0.030 0.255-0.020 0.493-0.041 0.712-0.065 0.217-0.024 0.414-0.051 0.588-0.080 0.173-0.027 0.31-0.050 0.407-0.065v-3.948c0-0.356-0.041-0.68-0.122-0.977zM9.353 11.77c-0.138 0.032-0.31 0.056-0.515 0.067-0.207 0.012-0.443 0.018-0.71 0.018-0.446 0-0.797-0.078-1.055-0.236-0.261-0.157-0.389-0.439-0.389-0.844 0-0.22 0.053-0.396 0.159-0.528 0.104-0.134 0.236-0.239 0.393-0.315 0.159-0.078 0.332-0.127 0.521-0.152 0.191-0.023 0.372-0.036 0.542-0.036 0.259 0 0.48 0.015 0.662 0.043 0.179 0.025 0.311 0.061 0.392 0.101v1.882zM13.998 4l-3.999-4h-6.999c-0.552 0-1 0.447-1 1v14c0 0.553 0.448 1 1 1h10c0.552 0 1-0.447 1-1v-11h-0.002zM10 1.416l2.584 2.584h-2.584v-2.584zM13 15h-10v-14h6v3c0 0.553 0.448 1 1 1h3v10z"></path>
</svg>
