<!-- Generated by IcoMoon.io -->
<svg version="1.1" xmlns="http://www.w3.org/2000/svg" width="16" height="16" viewBox="0 0 16 16">
<title>paper_printer</title>
<path fill="#444" d="M10.707 8.036c0-0.013 0.007-0.023 0.007-0.036v-1.406c0-0.553-0.448-1-1-1h-3.428c-0.552 0-1 0.447-1 1v1.406c0 0.013 0.007 0.023 0.007 0.036-0.723 0.069-1.293 0.673-1.293 1.414v1.714c0 0.788 0.641 1.43 1.428 1.43h0.429c0.051 0 0.094-0.021 0.143-0.028v0.434c0 0.553 0.448 1 1 1h2c0.552 0 1-0.447 1-1v-0.435c0.049 0.007 0.092 0.028 0.143 0.028h0.429c0.788 0 1.428-0.642 1.428-1.43v-1.713c0-0.741-0.57-1.345-1.293-1.414zM6.286 6.594h3.429v1.406h-3.429v-1.406zM9 13h-2v-1.688h2v1.688zM11 11.164c0 0.237-0.192 0.43-0.428 0.43h-0.429v-0.858c0-0.236-0.192-0.428-0.428-0.428h-3.429c-0.236 0-0.428 0.191-0.428 0.428v0.858h-0.43c-0.236 0-0.428-0.193-0.428-0.43v-1.714c0-0.236 0.192-0.428 0.428-0.428h5.144c0.236 0 0.428 0.192 0.428 0.428v1.714zM13.998 4l-3.999-4h-6.999c-0.552 0-1 0.447-1 1v14c0 0.553 0.448 1 1 1h10c0.552 0 1-0.447 1-1v-11h-0.002zM10 1.416l2.584 2.584h-2.584v-2.584zM13 15h-10v-14h6v3c0 0.553 0.448 1 1 1h3v10z"></path>
</svg>
