<!-- Generated by IcoMoon.io -->
<svg version="1.1" xmlns="http://www.w3.org/2000/svg" width="16" height="16" viewBox="0 0 16 16">
<title>paper_organizer</title>
<path fill="#444" d="M3 0h-2c-0.552 0-1 0.447-1 1v14c0 0.553 0.448 1 1 1h2c0.552 0 1-0.447 1-1v-14c0-0.553-0.448-1-1-1zM3 15h-2v-14h2v14zM2.5 2.2c0 0.276-0.224 0.5-0.5 0.5s-0.5-0.223-0.5-0.5 0.224-0.5 0.5-0.5 0.5 0.224 0.5 0.5zM8 0h-2c-0.552 0-1 0.447-1 1v14c0 0.553 0.448 1 1 1h2c0.552 0 1-0.447 1-1v-14c0-0.553-0.448-1-1-1zM8 15h-2v-14h2v14zM7.5 2.2c0 0.276-0.224 0.5-0.5 0.5s-0.5-0.223-0.5-0.5 0.224-0.5 0.5-0.5 0.5 0.224 0.5 0.5zM11.937 0.021l-1.944 0.41c-0.536 0.112-0.88 0.64-0.767 1.177l2.866 13.604c0.113 0.537 0.639 0.881 1.176 0.768l1.944-0.409c0.536-0.112 0.88-0.64 0.767-1.177l-2.866-13.605c-0.113-0.537-0.639-0.881-1.176-0.768zM15.007 14.598l-1.944 0.409-2.866-13.605 1.944-0.409 2.866 13.605zM11.901 2.262c0.057 0.269-0.115 0.531-0.383 0.589-0.269 0.057-0.532-0.115-0.588-0.384s0.114-0.532 0.383-0.589 0.531 0.115 0.588 0.384z"></path>
</svg>
