<!-- Generated by IcoMoon.io -->
<svg version="1.1" xmlns="http://www.w3.org/2000/svg" width="24" height="24" viewBox="0 0 24 24">
<title>parthenon</title>
<path d="M1.292 22.449l0.61-0.869c0.28-0.401 0.577-0.551 1.092-0.551h18.011c0.516 0 0.812 0.149 1.092 0.551l0.611 0.869h-21.416zM19.972 18.395c-0.29-0.204-0.421-0.46-0.422-0.823v-4.489l0.998 0.686c0.292 0.204 0.422 0.459 0.423 0.818v4.488l-0.999-0.68zM14.801 18.395c-0.29-0.204-0.423-0.46-0.424-0.823v-4.489l0.997 0.686c0.292 0.204 0.423 0.459 0.427 0.818v4.488l-1-0.68zM8.23 14.586c0.001-0.359 0.132-0.615 0.426-0.819l0.995-0.685v4.49c-0.001 0.361-0.132 0.615-0.425 0.823l-0.996 0.679v-4.488zM3.060 14.586c0.001-0.359 0.132-0.615 0.423-0.819l0.998-0.685v4.49c-0.001 0.356-0.138 0.619-0.429 0.823l-0.992 0.679v-4.488zM1 11.134v-1.331l0.009-0.146c0.010-0.284 0.101-0.454 0.345-0.619l10.646-7.487 10.644 7.527c0.229 0.165 0.322 0.325 0.338 0.589l0.018 0.258v1.209h-22zM2.866 9.71h18.21l-9.079-6.425-9.131 6.425zM12 7.019c-0.394 0-0.71-0.322-0.71-0.716 0-0.39 0.317-0.708 0.71-0.708s0.71 0.318 0.71 0.708c0 0.393-0.316 0.716-0.71 0.716z"></path>
</svg>
