<!-- Generated by IcoMoon.io -->
<svg version="1.1" xmlns="http://www.w3.org/2000/svg" width="24" height="24" viewBox="0 0 24 24">
<title>parthenon</title>
<path fill="#444" d="M0 24l0.701-1c0.252-0.36 0.545-0.498 0.984-0.5h20.631c0.439 0.002 0.732 0.139 0.984 0.5l0.701 1h-24zM1.5 21l0.7-1c0.252-0.36 0.545-0.498 0.984-0.5h17.631c0.439 0.002 0.732 0.139 0.984 0.5l0.701 1h-21zM4.5 11.25v6.117c-0.002 0.44-0.141 0.732-0.5 0.984l-1.001 0.699v-6.115c0.002-0.439 0.14-0.732 0.499-0.984l1.001-0.7zM9 11.25v6.117c-0.002 0.44-0.141 0.732-0.5 0.984l-1 0.699v-6.115c0.002-0.439 0.139-0.732 0.5-0.984l1-0.7zM16 11.95c0.36 0.252 0.498 0.545 0.5 0.984v6.115l-1-0.699c-0.36-0.252-0.5-0.544-0.5-0.984v-6.117l1 0.7zM20.5 11.95c0.36 0.252 0.498 0.545 0.5 0.984v6.115l-1-0.699c-0.36-0.252-0.5-0.544-0.5-0.984v-6.117l1 0.7zM23.979 9c-0.025-0.38-0.171-0.649-0.501-0.882l-11.478-8.118-11.478 8.072c-0.347 0.243-0.5 0.52-0.512 0.928h-0.011v1.5h24v-1.5h-0.021zM1.8 9l9.7-6.819c0.165-0.117 0.333-0.177 0.5-0.177s0.335 0.060 0.5 0.177l9.645 6.819h-20.345zM10.5 6c0 0.829 0.671 1.5 1.5 1.5s1.5-0.671 1.5-1.5-0.67-1.5-1.5-1.5-1.5 0.671-1.5 1.5z"></path>
</svg>
