<!-- Generated by IcoMoon.io -->
<svg version="1.1" xmlns="http://www.w3.org/2000/svg" width="16" height="16" viewBox="0 0 16 16">
<title>parthenon</title>
<path fill="#444" d="M0 16l0.467-0.667c0.168-0.24 0.363-0.332 0.656-0.333h13.754c0.293 0.001 0.488 0.093 0.656 0.333l0.467 0.667h-16zM1 14l0.467-0.667c0.168-0.24 0.363-0.332 0.656-0.333h11.754c0.293 0.001 0.488 0.093 0.656 0.333l0.467 0.667h-14zM3 7.5v4.078c-0.001 0.293-0.094 0.488-0.333 0.656l-0.667 0.466v-4.077c0.001-0.293 0.093-0.488 0.333-0.656l0.667-0.467zM6 7.5v4.078c-0.001 0.293-0.094 0.488-0.333 0.656l-0.667 0.466v-4.077c0.001-0.293 0.093-0.488 0.333-0.656l0.667-0.467zM10.667 7.967c0.24 0.168 0.332 0.363 0.333 0.656v4.077l-0.667-0.466c-0.24-0.168-0.333-0.363-0.333-0.656v-4.078l0.667 0.467zM13.667 7.967c0.24 0.168 0.332 0.363 0.333 0.656v4.077l-0.667-0.466c-0.24-0.168-0.333-0.363-0.333-0.656v-4.078l0.667 0.467zM15.986 6c-0.017-0.253-0.114-0.433-0.334-0.588l-7.652-5.412-7.652 5.381c-0.231 0.162-0.333 0.347-0.341 0.619h-0.007v1h16v-1h-0.014zM1.2 6l6.467-4.546c0.11-0.078 0.222-0.118 0.333-0.118s0.223 0.040 0.333 0.118l6.43 4.546h-13.563zM7 4c0 0.553 0.447 1 1 1s1-0.447 1-1-0.447-1-1-1-1 0.447-1 1z"></path>
</svg>
