<!-- Generated by IcoMoon.io -->
<svg version="1.1" xmlns="http://www.w3.org/2000/svg" width="24" height="24" viewBox="0 0 24 24">
<title>percent</title>
<path fill="#444" d="M4.782 0c-2.637 0-4.782 2.145-4.782 4.782s2.145 4.782 4.782 4.782 4.782-2.145 4.782-4.782-2.146-4.782-4.782-4.782zM4.782 8.063c-1.812 0-3.282-1.469-3.282-3.28s1.47-3.282 3.282-3.282 3.282 1.469 3.282 3.282-1.471 3.28-3.282 3.28zM19.218 14.438c-2.637 0-4.782 2.145-4.782 4.782s2.147 4.78 4.782 4.78 4.782-2.145 4.782-4.782-2.145-4.78-4.782-4.78zM19.218 22.5c-1.812 0-3.282-1.468-3.282-3.282s1.469-3.282 3.282-3.282 3.282 1.47 3.282 3.282-1.468 3.282-3.282 3.282zM22.787 2.127l-0.503 0.557-21.191 21.191-0.213-1.203c-0.065-0.361 0.033-0.63 0.239-0.892l0.504-0.556 21.191-21.191 0.213 1.203c0.063 0.362-0.036 0.63-0.24 0.892z"></path>
</svg>
