<!-- Generated by IcoMoon.io -->
<svg version="1.1" xmlns="http://www.w3.org/2000/svg" width="16" height="16" viewBox="0 0 16 16">
<title>percent</title>
<path fill="#444" d="M3.188 0c-1.758 0-3.188 1.43-3.188 3.188s1.43 3.188 3.188 3.188 3.188-1.43 3.188-3.188-1.431-3.188-3.188-3.188zM3.188 5.375c-1.208 0-2.188-0.979-2.188-2.187s0.98-2.188 2.188-2.188 2.188 0.979 2.188 2.188-0.981 2.187-2.188 2.187zM12.812 9.625c-1.758 0-3.188 1.43-3.188 3.188s1.431 3.187 3.188 3.187 3.188-1.43 3.188-3.188-1.43-3.187-3.188-3.187zM12.812 15c-1.208 0-2.188-0.979-2.188-2.188s0.979-2.188 2.188-2.188 2.188 0.98 2.188 2.188-0.979 2.188-2.188 2.188zM15.191 1.418l-0.335 0.371-14.127 14.127-0.142-0.802c-0.043-0.241 0.022-0.42 0.159-0.595l0.336-0.371 14.127-14.127 0.142 0.802c0.042 0.241-0.024 0.42-0.16 0.595z"></path>
</svg>
