<!-- Generated by IcoMoon.io -->
<svg version="1.1" xmlns="http://www.w3.org/2000/svg" width="24" height="24" viewBox="0 0 24 24">
<title>phone</title>
<path d="M21.096 15.23c-1.062-0.141-2.105-0.399-3.108-0.773-0.808-0.305-1.719-0.108-2.334 0.496l-1.404 1.404c-2.77-1.574-5.062-3.86-6.637-6.625l1.405-1.402c0.607-0.613 0.802-1.521 0.498-2.328-0.375-1.005-0.634-2.044-0.774-3.104-0.157-1.095-1.103-1.909-2.214-1.898h-3.317c-0.066 0-0.132 0.004-0.197 0.011-1.218 0.107-2.115 1.18-2.005 2.395 0.363 3.415 1.527 6.692 3.396 9.568 1.699 2.671 3.964 4.93 6.637 6.625 2.874 1.861 6.14 3.021 9.545 3.389 0.069 0.009 0.139 0.012 0.209 0.012 1.222-0.006 2.207-1.002 2.204-2.22v-3.31c0.026-1.12-0.793-2.085-1.904-2.24zM21.625 20.78c0.001 0.463-0.372 0.839-0.831 0.845l-0.032-0.001c-3.203-0.347-6.296-1.444-8.973-3.178-2.499-1.587-4.648-3.731-6.224-6.21-1.751-2.693-2.85-5.794-3.188-8.974-0.018-0.2 0.049-0.415 0.191-0.586s0.344-0.276 0.567-0.295l3.394-0.006c0.437 0 0.793 0.309 0.853 0.719 0.152 1.146 0.437 2.29 0.847 3.389 0.115 0.307 0.042 0.65-0.187 0.881l-1.4 1.395c-0.439 0.437-0.532 1.115-0.224 1.654 1.695 2.976 4.168 5.444 7.151 7.14 0.213 0.12 0.447 0.18 0.679 0.18 0.356 0 0.708-0.139 0.973-0.403l1.404-1.404c0.151-0.147 0.361-0.235 0.584-0.235 0.1 0 0.198 0.020 0.292 0.054 1.102 0.41 2.248 0.696 3.413 0.851 0.412 0.058 0.72 0.42 0.711 0.845v3.339z"></path>
</svg>
