<!-- Generated by IcoMoon.io -->
<svg version="1.1" xmlns="http://www.w3.org/2000/svg" width="16" height="16" viewBox="0 0 16 16">
<title>phone</title>
<path fill="#444" d="M14.615 10.35c-0.772-0.103-1.531-0.291-2.261-0.562-0.587-0.222-1.25-0.079-1.697 0.36l-1.021 1.021c-2.014-1.145-3.681-2.808-4.827-4.818l1.022-1.020c0.441-0.446 0.583-1.106 0.362-1.693-0.272-0.731-0.461-1.487-0.563-2.257-0.113-0.797-0.801-1.389-1.609-1.381h-2.413c-0.048 0-0.096 0.003-0.143 0.008-0.886 0.078-1.538 0.858-1.458 1.742 0.264 2.483 1.11 4.867 2.47 6.959 1.235 1.942 2.883 3.585 4.827 4.818 2.090 1.354 4.466 2.196 6.942 2.464 0.049 0.007 0.1 0.009 0.151 0.009 0.889-0.004 1.605-0.729 1.603-1.614v-2.407c0.019-0.816-0.577-1.517-1.385-1.629zM15 14.386c0.001 0.337-0.27 0.61-0.604 0.614l-0.023-0.001c-2.329-0.252-4.579-1.050-6.526-2.311-1.817-1.154-3.38-2.714-4.526-4.517-1.274-1.958-2.074-4.213-2.32-6.526-0.013-0.146 0.036-0.302 0.14-0.426s0.25-0.2 0.412-0.215l2.468-0.004c0.318 0 0.577 0.225 0.62 0.522 0.11 0.833 0.318 1.666 0.616 2.465 0.083 0.223 0.030 0.473-0.136 0.641l-1.018 1.015c-0.319 0.318-0.386 0.811-0.163 1.203 1.232 2.164 3.031 3.96 5.201 5.192 0.155 0.088 0.325 0.131 0.494 0.131 0.259 0 0.515-0.101 0.708-0.293l1.021-1.021c0.11-0.107 0.263-0.171 0.425-0.171 0.073 0 0.144 0.014 0.212 0.039 0.801 0.298 1.635 0.506 2.482 0.618 0.299 0.042 0.524 0.306 0.517 0.614v2.431z"></path>
</svg>
