<!-- Generated by IcoMoon.io -->
<svg version="1.1" xmlns="http://www.w3.org/2000/svg" width="24" height="24" viewBox="0 0 24 24">
<title>phone</title>
<path fill="#444" d="M21.922 15.525c-1.158-0.154-2.297-0.436-3.392-0.843-0.88-0.333-1.875-0.119-2.545 0.54l-1.532 1.532c-3.021-1.718-5.521-4.212-7.24-7.227l1.533-1.53c0.662-0.669 0.874-1.659 0.543-2.54-0.408-1.096-0.692-2.231-0.845-3.385-0.17-1.196-1.202-2.083-2.414-2.071h-3.619c-0.072 0-0.144 0.005-0.214 0.012-1.329 0.117-2.307 1.287-2.187 2.613 0.396 3.725 1.665 7.3 3.705 10.438 1.853 2.913 4.325 5.378 7.24 7.227 3.135 2.031 6.699 3.294 10.413 3.696 0.073 0.010 0.15 0.013 0.227 0.013 1.333-0.006 2.407-1.093 2.404-2.421v-3.611c0.028-1.224-0.866-2.275-2.078-2.444zM22.5 21.579c0.002 0.505-0.405 0.915-0.906 0.921l-0.035-0.002c-3.493-0.378-6.868-1.575-9.789-3.466-2.726-1.731-5.070-4.071-6.789-6.776-1.911-2.937-3.111-6.319-3.48-9.789-0.020-0.219 0.054-0.453 0.21-0.639s0.375-0.3 0.618-0.323l3.702-0.006c0.477 0 0.865 0.338 0.93 0.783 0.165 1.249 0.477 2.499 0.924 3.697 0.124 0.334 0.045 0.709-0.204 0.961l-1.527 1.522c-0.479 0.477-0.579 1.216-0.244 1.805 1.848 3.246 4.546 5.94 7.801 7.788 0.232 0.132 0.487 0.197 0.741 0.197 0.389 0 0.773-0.152 1.062-0.44l1.531-1.532c0.165-0.16 0.395-0.256 0.638-0.256 0.11 0 0.216 0.021 0.318 0.058 1.202 0.447 2.453 0.759 3.723 0.927 0.449 0.063 0.786 0.459 0.776 0.921v3.646z"></path>
</svg>
