<!-- Generated by IcoMoon.io -->
<svg version="1.1" xmlns="http://www.w3.org/2000/svg" width="24" height="24" viewBox="0 0 24 24">
<title>photo_camera</title>
<path fill="#444" d="M20.59 5.25h-3.014l-1.462-2.333c-0.279-0.417-0.748-0.667-1.249-0.667h-5.73c-0.501 0-0.969 0.251-1.248 0.667l-1.463 2.333h-3.015c-1.879 0-3.41 1.531-3.41 3.411v9.678c0 1.881 1.53 3.411 3.41 3.411h17.179c1.881 0 3.411-1.53 3.411-3.41v-9.679c0-1.88-1.53-3.411-3.41-3.411zM22.5 18.34c0 1.059-0.857 1.91-1.91 1.91h-17.181c-1.053 0-1.909-0.851-1.909-1.91v-9.679c0-1.051 0.857-1.911 1.909-1.911h3.816l1.908-3h5.73l1.908 3h3.816c1.056 0 1.913 0.86 1.913 1.911v9.679zM12 8.121c-2.934 0-5.319 2.244-5.319 5.174 0 2.933 2.386 5.317 5.319 5.317s5.319-2.385 5.319-5.317c0-2.93-2.385-5.174-5.319-5.174zM12 17.112c-2.107 0-3.819-1.706-3.819-3.817 0-2.111 1.712-3.815 3.819-3.815s3.819 1.704 3.819 3.815c0 2.112-1.712 3.817-3.819 3.817z"></path>
</svg>
