<!-- Generated by IcoMoon.io -->
<svg version="1.1" xmlns="http://www.w3.org/2000/svg" width="16" height="16" viewBox="0 0 16 16">
<title>photo_camera</title>
<path fill="#444" d="M13.727 3.5h-2.009l-0.975-1.555c-0.186-0.278-0.499-0.445-0.833-0.445h-3.82c-0.334 0-0.646 0.167-0.832 0.445l-0.975 1.555h-2.010c-1.253 0-2.273 1.021-2.273 2.274v6.452c0 1.254 1.020 2.274 2.273 2.274h11.453c1.254 0 2.274-1.020 2.274-2.273v-6.453c0-1.253-1.020-2.274-2.273-2.274zM15 12.227c0 0.706-0.571 1.273-1.273 1.273h-11.454c-0.702 0-1.273-0.567-1.273-1.273v-6.453c0-0.701 0.571-1.274 1.273-1.274h2.544l1.272-2h3.82l1.272 2h2.544c0.704 0 1.275 0.573 1.275 1.274v6.453zM8 5.414c-1.956 0-3.546 1.496-3.546 3.449 0 1.955 1.591 3.545 3.546 3.545s3.546-1.59 3.546-3.545c0-1.953-1.59-3.449-3.546-3.449zM8 11.408c-1.405 0-2.546-1.137-2.546-2.545s1.141-2.543 2.546-2.543 2.546 1.136 2.546 2.543c0 1.408-1.141 2.545-2.546 2.545z"></path>
</svg>
