<!-- Generated by IcoMoon.io -->
<svg version="1.1" xmlns="http://www.w3.org/2000/svg" width="24" height="24" viewBox="0 0 24 24">
<title>picture</title>
<path fill="#444" d="M7.5 5.25c-1.24 0-2.25 1.008-2.25 2.25s1.010 2.25 2.25 2.25c1.241 0 2.25-1.008 2.25-2.25s-1.009-2.25-2.25-2.25zM7.5 8.25c-0.414 0-0.75-0.335-0.75-0.75 0-0.413 0.336-0.75 0.75-0.75 0.415 0 0.75 0.337 0.75 0.75 0 0.415-0.336 0.75-0.75 0.75zM6.002 0c-3.313 0-6.002 2.685-6.002 6v18h18c3.288 0 5.952-2.648 5.992-5.927l0.008 0.006v-18.080h-17.998zM1.5 14.447l4.426 3.099-3.906 2.76c-0.359 0.253-0.521 0.537-0.521 0.975v-6.834zM22.5 18c0 2.481-2.019 4.5-4.5 4.5h-16.5l13.88-9.805c0.165-0.117 0.332-0.177 0.5-0.177 0.166 0 0.333 0.060 0.5 0.177l6.121 4.324v0.981zM22.5 15.192l-6.621-4.678-8.652 6.112-5.727-4.011v-6.615c0-2.481 2.019-4.5 4.501-4.5h16.498v13.692z"></path>
</svg>
