<!-- Generated by IcoMoon.io -->
<svg version="1.1" xmlns="http://www.w3.org/2000/svg" width="24" height="24" viewBox="0 0 24 24">
<title>picture</title>
<path fill="#444" d="M7.874 5.812c-1.136 0-2.061 0.924-2.061 2.062s0.925 2.062 2.061 2.062c1.138 0 2.063-0.924 2.063-2.062s-0.925-2.062-2.063-2.062zM7.874 8.562c-0.379 0-0.687-0.307-0.687-0.688 0-0.379 0.307-0.688 0.687-0.688 0.381 0 0.688 0.309 0.688 0.688 0 0.382-0.307 0.688-0.688 0.688zM6.502 1c-3.039 0-5.502 2.461-5.502 5.5v16.5h16.5c3.014 0 5.456-2.427 5.493-5.433l0.007 0.005v-16.572h-16.498zM2.375 14.242l4.058 2.842-3.58 2.529c-0.33 0.232-0.478 0.492-0.478 0.894v-6.265zM21.625 17.5c0 2.274-1.85 4.125-4.125 4.125h-15.125l12.724-8.988c0.151-0.107 0.304-0.163 0.458-0.163s0.306 0.056 0.458 0.163l5.611 3.964v0.899zM21.625 14.926l-6.069-4.289-7.93 5.604-5.251-3.676v-6.065c0-2.274 1.851-4.125 4.126-4.125h15.124v12.551z"></path>
</svg>
