<!-- Generated by IcoMoon.io -->
<svg version="1.1" xmlns="http://www.w3.org/2000/svg" width="24" height="24" viewBox="0 0 24 24">
<title>place123</title>
<path fill="#444" d="M22.5 12h-5.25v-4.5c0-0.829-0.672-1.5-1.5-1.5h-7.5c-0.828 0-1.5 0.671-1.5 1.5v1.5h-5.25c-0.828 0-1.5 0.671-1.5 1.5v6c0 0.83 0.672 1.5 1.5 1.5h21c0.828 0 1.5-0.67 1.5-1.5v-3c0-0.83-0.672-1.5-1.5-1.5zM22.5 16.5h-21v-6h6.75v-3h7.5v6h6.75v3zM12.75 8.25v5.815c-0.003 0.439-0.141 0.732-0.501 0.984l-0.999 0.701v-5.816c0.002-0.439 0.139-0.732 0.5-0.984l1-0.7z"></path>
</svg>
