<!-- Generated by IcoMoon.io -->
<svg version="1.1" xmlns="http://www.w3.org/2000/svg" width="24" height="24" viewBox="0 0 24 24">
<title>policeman</title>
<path fill="#444" d="M19.958 4.136l-0.861-0.718c-0.308-0.258-0.6-0.307-0.99-0.205l-0.619 0.168v-1.006c0-0.434-0.204-0.841-0.55-1.102-0.242-0.179-0.532-0.273-0.825-0.273-0.129 0-0.26 0.019-0.387 0.055l-10.393 2.937c-0.422 0.124-1.035 0.443-1.183 0.858s0.11 0.98 0.359 1.342l0.845 0.988c0.309 0.42 0.688 0.599 1.134 0.599 0.062 0 0.125-0.016 0.186-0.025 0.57 2.427 2.718 4.246 5.314 4.246 3.033 0 5.5-2.468 5.5-5.501 0-0.568-0.103-1.108-0.27-1.62l2.74-0.743zM11.988 10.625c-1.96 0-3.593-1.369-4.013-3.204l7.931-2.185c0.13 0.397 0.206 0.82 0.206 1.263 0.001 2.279-1.847 4.126-4.124 4.126zM16.113 3.75l-9.625 2.654-0.825-1.142 10.45-2.887v1.375zM18.863 19.719v3.281l-0.897-0.629c-0.33-0.23-0.477-0.513-0.477-0.915l-0.001-1.737c0-1.785-1.254-3.258-2.888-3.536l-0.55-0.058h-2.75c-1.895 0-3.438 1.611-3.438 3.594v1.831c-0.025 0.348-0.156 0.612-0.457 0.821l-0.917 0.629v-3.281c0-2.74 2.159-4.969 4.812-4.969h2.75c2.654 0 4.813 2.229 4.813 4.969zM16.113 18.875h-1.206c-0.403-0.003-0.671-0.129-0.902-0.459l-0.642-0.916h1.206c0.403 0.001 0.671 0.128 0.902 0.458l0.642 0.917z"></path>
</svg>
