<!-- Generated by IcoMoon.io -->
<svg version="1.1" xmlns="http://www.w3.org/2000/svg" width="24" height="24" viewBox="0 0 24 24">
<title>policeman</title>
<path fill="#444" d="M20.694 3.42l-0.939-0.782c-0.336-0.282-0.655-0.336-1.080-0.223l-0.675 0.181v-1.097c0-0.472-0.222-0.916-0.6-1.202-0.264-0.197-0.581-0.298-0.9-0.298-0.141 0-0.284 0.021-0.423 0.060l-11.337 3.204c-0.46 0.137-1.13 0.483-1.29 0.936s0.12 1.070 0.392 1.465l0.921 1.079c0.338 0.456 0.752 0.652 1.237 0.652 0.067 0 0.135-0.018 0.202-0.028 0.622 2.647 2.965 4.632 5.798 4.632 3.309 0 6-2.692 6-6.002 0-0.62-0.112-1.209-0.294-1.767l2.988-0.811zM12 10.5c-2.139 0-3.919-1.494-4.377-3.495l8.652-2.383c0.143 0.433 0.225 0.895 0.225 1.377 0 2.487-2.016 4.502-4.5 4.502zM16.5 3l-10.5 2.896-0.9-1.246 11.4-3.15v1.5zM19.5 20.419v3.581l-0.978-0.686c-0.36-0.252-0.522-0.559-0.522-0.999v-1.896c0-1.947-1.368-3.553-3.15-3.857l-0.6-0.063h-3c-2.067 0-3.75 1.758-3.75 3.919v1.998c-0.027 0.38-0.171 0.668-0.498 0.897l-1.002 0.685v-3.581c0-2.988 2.355-5.419 5.25-5.419h3c2.895 0 5.25 2.431 5.25 5.419zM16.5 19.5h-1.316c-0.439-0.003-0.732-0.141-0.984-0.501l-0.701-0.999h1.316c0.439 0.002 0.732 0.139 0.984 0.5l0.701 1z"></path>
</svg>
