<!-- Generated by IcoMoon.io -->
<svg version="1.1" xmlns="http://www.w3.org/2000/svg" width="16" height="16" viewBox="0 0 16 16">
<title>policeman</title>
<path fill="#444" d="M13.796 2.28l-0.626-0.521c-0.224-0.188-0.437-0.224-0.72-0.149l-0.45 0.121v-0.731c0-0.315-0.148-0.611-0.4-0.801-0.176-0.131-0.387-0.199-0.6-0.199-0.094 0-0.189 0.014-0.282 0.040l-7.558 2.136c-0.307 0.091-0.753 0.322-0.86 0.624s0.080 0.713 0.261 0.977l0.614 0.719c0.225 0.304 0.501 0.435 0.825 0.435 0.045 0 0.090-0.012 0.135-0.019 0.415 1.765 1.977 3.088 3.865 3.088 2.206 0 4-1.795 4-4.001 0-0.413-0.075-0.806-0.196-1.178l1.992-0.541zM8 7c-1.426 0-2.613-0.996-2.918-2.33l5.768-1.589c0.095 0.289 0.15 0.597 0.15 0.918 0 1.658-1.344 3.001-3 3.001zM11 2l-7 1.931-0.6-0.831 7.6-2.1v1zM13 13.613v2.387l-0.652-0.457c-0.24-0.168-0.348-0.373-0.348-0.666v-1.264c0-1.298-0.912-2.369-2.1-2.571l-0.4-0.042h-2c-1.378 0-2.5 1.172-2.5 2.613v1.332c-0.018 0.253-0.114 0.445-0.332 0.598l-0.668 0.457v-2.387c0-1.992 1.57-3.613 3.5-3.613h2c1.93 0 3.5 1.621 3.5 3.613zM11 13h-0.877c-0.293-0.002-0.488-0.094-0.656-0.334l-0.467-0.666h0.877c0.293 0.001 0.488 0.093 0.656 0.333l0.467 0.667z"></path>
</svg>
