<!-- Generated by IcoMoon.io -->
<svg version="1.1" xmlns="http://www.w3.org/2000/svg" width="16" height="16" viewBox="0 0 16 16">
<title>portofolio</title>
<path fill="#444" d="M13 0h-10c-0.552 0-1 0.447-1 1v14c0 0.553 0.448 1 1 1h10c0.552 0 1-0.447 1-1v-14c0-0.553-0.448-1-1-1zM13 15h-10v-14h10v14zM4 2h6.877c0.293 0.002 0.488 0.094 0.656 0.334l0.467 0.666h-6.877c-0.293-0.001-0.488-0.093-0.656-0.333l-0.467-0.667zM5 4v3.877c-0.002 0.293-0.094 0.488-0.334 0.656l-0.666 0.467v-3.877c0.001-0.293 0.093-0.488 0.333-0.656l0.667-0.467zM5.949 4h4.928c0.293 0.002 0.488 0.094 0.656 0.334l0.467 0.666h-4.928c-0.293-0.001-0.488-0.093-0.656-0.333l-0.467-0.667zM6 8h4.928c0.293 0.002 0.488 0.094 0.656 0.334l0.467 0.666h-4.928c-0.293-0.001-0.488-0.093-0.656-0.333l-0.467-0.667zM6 6h4.928c0.293 0.002 0.488 0.094 0.656 0.334l0.467 0.666h-4.928c-0.293-0.001-0.488-0.093-0.656-0.333l-0.467-0.667zM9.333 13.533c-0.24-0.168-0.332-0.363-0.333-0.656v-0.877l0.666 0.467c0.24 0.168 0.332 0.363 0.334 0.656v0.877l-0.667-0.467zM11.333 13.533c-0.24-0.168-0.332-0.363-0.333-0.656v-0.877l0.666 0.467c0.24 0.168 0.332 0.363 0.334 0.656v0.877l-0.667-0.467zM4.333 13.533c-0.24-0.168-0.332-0.363-0.333-0.656v-0.877l0.666 0.467c0.24 0.168 0.332 0.363 0.334 0.656v0.877l-0.667-0.467zM6.333 13.533c-0.24-0.168-0.332-0.363-0.333-0.656v-0.877l0.666 0.467c0.24 0.168 0.332 0.363 0.334 0.656v0.877l-0.667-0.467zM4.467 10.333c0.168-0.24 0.363-0.332 0.656-0.333h6.877l-0.467 0.666c-0.168 0.24-0.363 0.332-0.656 0.334h-6.877l0.467-0.667z"></path>
</svg>
