<!-- Generated by IcoMoon.io -->
<svg version="1.1" xmlns="http://www.w3.org/2000/svg" width="24" height="24" viewBox="0 0 24 24">
<title>portofolio</title>
<path fill="#444" d="M19.5 0h-15c-0.828 0-1.5 0.67-1.5 1.5v21c0 0.83 0.672 1.5 1.5 1.5h15c0.828 0 1.5-0.67 1.5-1.5v-21c0-0.83-0.672-1.5-1.5-1.5zM19.5 22.5h-15v-21h15v21zM6 3h10.316c0.439 0.003 0.732 0.141 0.984 0.501l0.701 0.999h-10.316c-0.439-0.002-0.732-0.139-0.984-0.5l-0.7-1.001zM7.5 6v5.816c-0.003 0.439-0.141 0.732-0.501 0.984l-0.999 0.701v-5.816c0.002-0.439 0.139-0.732 0.5-0.984l1-0.7zM8.924 6h7.392c0.439 0.003 0.732 0.141 0.984 0.501l0.701 0.999h-7.392c-0.44-0.002-0.732-0.139-0.984-0.5l-0.7-1zM9 12h7.392c0.439 0.003 0.732 0.141 0.984 0.501l0.701 0.999h-7.392c-0.44-0.002-0.732-0.139-0.984-0.5l-0.7-1zM9 9h7.392c0.439 0.003 0.732 0.141 0.984 0.501l0.701 0.999h-7.392c-0.44-0.002-0.732-0.139-0.984-0.5l-0.7-1zM14 20.299c-0.36-0.252-0.498-0.544-0.5-0.984v-1.316l0.999 0.701c0.36 0.252 0.498 0.544 0.501 0.984v1.316l-1-0.701zM17 20.299c-0.36-0.252-0.498-0.544-0.5-0.984v-1.316l0.999 0.701c0.36 0.252 0.498 0.544 0.501 0.984v1.316l-1-0.701zM6.5 20.299c-0.36-0.252-0.498-0.544-0.5-0.984v-1.316l0.999 0.701c0.36 0.252 0.498 0.544 0.501 0.984v1.316l-1-0.701zM9.5 20.299c-0.36-0.252-0.498-0.544-0.5-0.984v-1.316l0.999 0.701c0.36 0.252 0.498 0.544 0.501 0.984v1.316l-1-0.701zM6 15h10.316c0.439 0.003 0.732 0.141 0.984 0.501l0.701 0.999h-10.316c-0.439-0.002-0.732-0.139-0.984-0.5l-0.7-1z"></path>
</svg>
