<!-- Generated by IcoMoon.io -->
<svg version="1.1" xmlns="http://www.w3.org/2000/svg" width="24" height="24" viewBox="0 0 24 24">
<title>printer</title>
<path fill="#444" d="M21 7.5h-1.5v-6.75c0-0.414-0.336-0.75-0.75-0.75h-13.5c-0.414 0-0.75 0.336-0.75 0.75v6.75h-1.5c-1.655 0-3 1.346-3 3v6c0 1.654 1.345 3 3 3h1.5v3c0 0.83 0.672 1.5 1.5 1.5h12c0.828 0 1.5-0.67 1.5-1.5v-3h1.5c1.654 0 3-1.346 3-3v-6c0-1.654-1.346-3-3-3zM6 1.5h12v6h-12v-6zM18 22.5h-12v-7.5h12v7.5zM22.5 16.5c0 0.828-0.674 1.5-1.5 1.5h-1.5v-3c0-0.83-0.672-1.5-1.5-1.5h-12c-0.828 0-1.5 0.67-1.5 1.5v3h-1.5c-0.827 0-1.5-0.672-1.5-1.5v-6c0-0.828 0.674-1.5 1.5-1.5h18c0.826 0 1.5 0.672 1.5 1.5v6z"></path>
</svg>
