<!-- Generated by IcoMoon.io -->
<svg version="1.1" xmlns="http://www.w3.org/2000/svg" width="16" height="16" viewBox="0 0 16 16">
<title>printer</title>
<path fill="#444" d="M14 5h-1v-4.5c0-0.276-0.224-0.5-0.5-0.5h-9c-0.276 0-0.5 0.224-0.5 0.5v4.5h-1c-1.103 0-2 0.897-2 2v4c0 1.103 0.897 2 2 2h1v2c0 0.553 0.448 1 1 1h8c0.552 0 1-0.447 1-1v-2h1c1.103 0 2-0.897 2-2v-4c0-1.103-0.897-2-2-2zM4 1h8v4h-8v-4zM12 15h-8v-5h8v5zM15 11c0 0.552-0.449 1-1 1h-1v-2c0-0.553-0.448-1-1-1h-8c-0.552 0-1 0.447-1 1v2h-1c-0.551 0-1-0.448-1-1v-4c0-0.552 0.449-1 1-1h12c0.551 0 1 0.448 1 1v4z"></path>
</svg>
