<!-- Generated by IcoMoon.io -->
<svg version="1.1" xmlns="http://www.w3.org/2000/svg" width="24" height="24" viewBox="0 0 24 24">
<title>prize_ribbon</title>
<path fill="#444" d="M19.333 7.994c0-3.861-3.283-6.994-7.333-6.994s-7.334 3.133-7.334 6.994c0 2.194 1.083 4.129 2.742 5.412-0.013 0.037-1.287 8.8-1.287 8.8-0.038 0.266 0.086 0.526 0.319 0.675 0.123 0.079 0.266 0.119 0.408 0.119 0.127 0 0.255-0.033 0.369-0.096l4.783-2.656 4.782 2.656c0.241 0.136 0.544 0.127 0.776-0.023 0.233-0.148 0.357-0.409 0.319-0.675 0 0-1.273-8.767-1.284-8.801 1.659-1.283 2.74-3.218 2.74-5.411zM12.712 18.967c-0.221-0.123-0.467-0.185-0.712-0.185s-0.49 0.062-0.712 0.185l-3.496 1.94c0.35-2.399 0.999-6.857 1.059-7.237 0.098-0.533-0.107-1.084-0.545-1.424-1.381-1.068-2.173-2.618-2.173-4.252 0-3.048 2.632-5.527 5.867-5.527s5.867 2.479 5.867 5.527c0 1.634-0.792 3.184-2.17 4.251-0.435 0.336-0.641 0.884-0.546 1.415 0.055 0.355 0.708 4.837 1.058 7.247l-3.497-1.94z"></path>
</svg>
