<!-- Generated by IcoMoon.io -->
<svg version="1.1" xmlns="http://www.w3.org/2000/svg" width="16" height="16" viewBox="0 0 16 16">
<title>prize_ribbon</title>
<path fill="#444" d="M13 5.269c0-2.633-2.239-4.769-5-4.769s-5 2.136-5 4.769c0 1.496 0.738 2.815 1.87 3.69-0.009 0.025-0.877 6-0.877 6-0.026 0.181 0.059 0.358 0.218 0.46 0.082 0.054 0.179 0.081 0.276 0.081 0.087 0 0.174-0.022 0.251-0.065l3.262-1.811 3.261 1.811c0.164 0.093 0.371 0.087 0.529-0.016 0.159-0.102 0.244-0.279 0.218-0.46 0 0-0.868-5.978-0.875-6.001 1.13-0.875 1.867-2.194 1.867-3.689zM8.485 12.75c-0.151-0.084-0.318-0.126-0.485-0.126s-0.334 0.042-0.485 0.126l-2.384 1.323c0.238-1.636 0.681-4.676 0.722-4.935 0.066-0.363-0.073-0.739-0.372-0.97-0.941-0.729-1.481-1.785-1.481-2.899 0-2.079 1.794-3.769 4-3.769s4 1.69 4 3.769c0 1.114-0.54 2.171-1.48 2.898-0.296 0.229-0.437 0.603-0.373 0.965 0.038 0.242 0.482 3.298 0.721 4.941l-2.383-1.323z"></path>
</svg>
