<!-- Generated by IcoMoon.io -->
<svg version="1.1" xmlns="http://www.w3.org/2000/svg" width="24" height="24" viewBox="0 0 24 24">
<title>prize_ribbon</title>
<path fill="#444" d="M19.5 7.904c0-3.95-3.358-7.154-7.5-7.154s-7.5 3.204-7.5 7.154c0 2.244 1.107 4.222 2.805 5.535-0.014 0.037-1.315 9-1.315 9-0.039 0.271 0.089 0.537 0.327 0.69 0.123 0.081 0.269 0.121 0.414 0.121 0.13 0 0.261-0.033 0.377-0.098l4.893-2.716 4.892 2.716c0.246 0.14 0.556 0.131 0.793-0.024 0.239-0.153 0.366-0.419 0.327-0.69 0 0-1.302-8.967-1.313-9.002 1.695-1.313 2.8-3.291 2.8-5.534zM12.727 19.125c-0.226-0.126-0.477-0.189-0.728-0.189s-0.501 0.063-0.728 0.189l-3.576 1.985c0.357-2.454 1.022-7.014 1.083-7.402 0.099-0.544-0.11-1.109-0.558-1.455-1.412-1.094-2.221-2.678-2.221-4.349 0-3.119 2.691-5.653 6-5.653s6 2.535 6 5.653c0 1.671-0.81 3.257-2.22 4.347-0.444 0.343-0.655 0.904-0.559 1.447 0.057 0.363 0.723 4.947 1.082 7.411l-3.575-1.985z"></path>
</svg>
