<!-- Generated by IcoMoon.io -->
<svg version="1.1" xmlns="http://www.w3.org/2000/svg" width="16" height="16" viewBox="0 0 16 16">
<title>qr</title>
<path fill="#444" d="M6.3 8.016c-0.165 0-0.3-0.134-0.3-0.3v-1.432c0-0.165 0.135-0.3 0.3-0.3h0.4c0.165 0 0.3 0.135 0.3 0.3v1.432c0 0.166-0.135 0.3-0.3 0.3h-0.4zM12 6.3c0-0.165-0.134-0.3-0.3-0.3h-2.4c-0.166 0-0.3 0.135-0.3 0.3v0.4c0 0.165 0.134 0.3 0.3 0.3h2.4c0.166 0 0.3-0.135 0.3-0.3v-0.4zM10 4.3c0-0.165-0.134-0.3-0.3-0.3h-3.4c-0.166 0-0.3 0.135-0.3 0.3v0.4c0 0.165 0.134 0.3 0.3 0.3h3.4c0.166 0 0.3-0.135 0.3-0.3v-0.4zM2 7.3c0-0.165-0.134-0.3-0.3-0.3h-0.4c-0.166 0-0.3 0.135-0.3 0.3v2.4c0 0.165 0.134 0.3 0.3 0.3h0.4c0.166 0 0.3-0.135 0.3-0.3v-2.4zM9 10.3c0-0.165-0.134-0.3-0.3-0.3h-2.4c-0.166 0-0.3 0.135-0.3 0.3v0.4c0 0.165 0.134 0.3 0.3 0.3h2.4c0.166 0 0.3-0.135 0.3-0.3v-0.4zM10.003 0.3c0-0.165-0.134-0.3-0.3-0.3h-0.4c-0.166 0-0.3 0.135-0.3 0.3l-0.003 1.4c0 0.165 0.134 0.3 0.3 0.3h0.4c0.166 0 0.3-0.135 0.3-0.3l0.003-1.4zM12.3 12c-0.165 0-0.3 0.135-0.3 0.3v3.4c0 0.165 0.135 0.3 0.3 0.3h0.4c0.165 0 0.3-0.135 0.3-0.3v-3.4c0-0.165-0.135-0.3-0.3-0.3h-0.4zM15.692 11c0.165 0 0.3-0.135 0.3-0.3v-0.4c0-0.165-0.135-0.3-0.3-0.3h-2.385c-0.165 0-0.3 0.135-0.3 0.3v0.4c0 0.165 0.135 0.3 0.3 0.3h2.385zM10.9 12.3c0-0.165-0.134-0.3-0.3-0.3h-1.3c-0.166 0-0.3 0.135-0.3 0.3v0.4c0 0.165 0.134 0.3 0.3 0.3h1.3c0.166 0 0.3-0.135 0.3-0.3v-0.4zM15 6.3c0-0.165-0.134-0.3-0.3-0.3h-0.4c-0.166 0-0.3 0.135-0.3 0.3v2.4c0 0.165 0.134 0.3 0.3 0.3h0.4c0.166 0 0.3-0.135 0.3-0.3v-2.4zM8 13.3c0-0.165-0.134-0.3-0.3-0.3h-0.4c-0.166 0-0.3 0.135-0.3 0.3v1.4c0 0.165 0.134 0.3 0.3 0.3h0.4c0.166 0 0.3-0.135 0.3-0.3v-1.4zM5 12v3c0 0.553-0.447 1-1 1h-3c-0.553 0-1-0.447-1-1v-3c0-0.553 0.447-1 1-1h3c0.553 0 1 0.447 1 1zM4.375 11.625h-3.75v3.75h3.75v-3.75zM3.75 12.25h-2.5v2.5h2.5v-2.5zM5 1v3c0 0.553-0.447 1-1 1h-3c-0.553 0-1-0.447-1-1v-3c0-0.553 0.447-1 1-1h3c0.553 0 1 0.447 1 1zM4.375 0.625h-3.75v3.75h3.75v-3.75zM3.75 1.25h-2.5v2.5h2.5v-2.5zM16 1v3c0 0.553-0.447 1-1 1h-3c-0.553 0-1-0.447-1-1v-3c0-0.553 0.447-1 1-1h3c0.553 0 1 0.447 1 1zM15.375 0.625h-3.75v3.75h3.75v-3.75zM14.75 1.25h-2.5v2.5h2.5v-2.5z"></path>
</svg>
