<!-- Generated by IcoMoon.io -->
<svg version="1.1" xmlns="http://www.w3.org/2000/svg" width="24" height="24" viewBox="0 0 24 24">
<title>qr</title>
<path fill="#444" d="M9.45 12.024c-0.247 0-0.45-0.201-0.45-0.45v-2.148c0-0.248 0.203-0.45 0.45-0.45h0.6c0.247 0 0.45 0.203 0.45 0.45v2.148c0 0.249-0.203 0.45-0.45 0.45h-0.6zM18 9.45c0-0.247-0.201-0.45-0.45-0.45h-3.6c-0.249 0-0.45 0.203-0.45 0.45v0.6c0 0.247 0.201 0.45 0.45 0.45h3.6c0.249 0 0.45-0.203 0.45-0.45v-0.6zM15 6.45c0-0.247-0.201-0.45-0.45-0.45h-5.1c-0.249 0-0.45 0.202-0.45 0.45v0.6c0 0.247 0.201 0.45 0.45 0.45h5.1c0.249 0 0.45-0.202 0.45-0.45v-0.6zM3 10.95c0-0.247-0.201-0.45-0.45-0.45h-0.6c-0.249 0-0.45 0.203-0.45 0.45v3.6c0 0.247 0.201 0.45 0.45 0.45h0.6c0.249 0 0.45-0.203 0.45-0.45v-3.6zM13.5 15.45c0-0.247-0.201-0.45-0.45-0.45h-3.6c-0.249 0-0.45 0.203-0.45 0.45v0.6c0 0.247 0.201 0.45 0.45 0.45h3.6c0.249 0 0.45-0.203 0.45-0.45v-0.6zM15.005 0.45c0-0.247-0.201-0.45-0.45-0.45h-0.6c-0.249 0-0.45 0.203-0.45 0.45l-0.005 2.1c0 0.248 0.201 0.45 0.45 0.45h0.6c0.249 0 0.45-0.203 0.45-0.45l0.005-2.1zM18.45 18c-0.248 0-0.45 0.203-0.45 0.45v5.1c0 0.247 0.203 0.45 0.45 0.45h0.6c0.247 0 0.45-0.203 0.45-0.45v-5.1c0-0.247-0.203-0.45-0.45-0.45h-0.6zM23.538 16.5c0.247 0 0.45-0.203 0.45-0.45v-0.6c0-0.247-0.202-0.45-0.45-0.45h-3.578c-0.247 0-0.45 0.203-0.45 0.45v0.6c0 0.248 0.203 0.45 0.45 0.45h3.578zM16.35 18.45c0-0.248-0.201-0.45-0.45-0.45h-1.95c-0.249 0-0.45 0.203-0.45 0.45v0.6c0 0.247 0.201 0.45 0.45 0.45h1.95c0.249 0 0.45-0.203 0.45-0.45v-0.6zM22.5 9.45c0-0.247-0.201-0.45-0.45-0.45h-0.6c-0.249 0-0.45 0.203-0.45 0.45v3.6c0 0.247 0.201 0.45 0.45 0.45h0.6c0.249 0 0.45-0.203 0.45-0.45v-3.6zM12 19.95c0-0.248-0.201-0.45-0.45-0.45h-0.6c-0.249 0-0.45 0.203-0.45 0.45v2.1c0 0.247 0.201 0.45 0.45 0.45h0.6c0.249 0 0.45-0.203 0.45-0.45v-2.1zM7.5 18v4.5c0 0.83-0.671 1.5-1.5 1.5h-4.5c-0.83 0-1.5-0.67-1.5-1.5v-4.5c0-0.83 0.67-1.5 1.5-1.5h4.5c0.829 0 1.5 0.67 1.5 1.5zM6.563 17.438h-5.625v5.625h5.625v-5.625zM5.625 18.375h-3.75v3.75h3.75v-3.75zM7.5 1.5v4.5c0 0.829-0.671 1.5-1.5 1.5h-4.5c-0.83 0-1.5-0.671-1.5-1.5v-4.5c0-0.83 0.67-1.5 1.5-1.5h4.5c0.829 0 1.5 0.67 1.5 1.5zM6.563 0.938h-5.625v5.625h5.625v-5.625zM5.625 1.875h-3.75v3.75h3.75v-3.75zM24 1.5v4.5c0 0.829-0.67 1.5-1.5 1.5h-4.5c-0.83 0-1.5-0.671-1.5-1.5v-4.5c0-0.83 0.67-1.5 1.5-1.5h4.5c0.83 0 1.5 0.67 1.5 1.5zM23.063 0.938h-5.625v5.625h5.625v-5.625zM22.125 1.875h-3.75v3.75h3.75v-3.75z"></path>
</svg>
