<!-- Generated by IcoMoon.io -->
<svg version="1.1" xmlns="http://www.w3.org/2000/svg" width="24" height="24" viewBox="0 0 24 24">
<title>question</title>
<path fill="#444" d="M12 1.344c-6.065 0-11 4.779-11 10.656s4.935 10.656 11 10.656 11-4.779 11-10.656-4.935-10.656-11-10.656zM12 18.026c-0.571 0-1.031-0.462-1.031-1.031s0.46-1.031 1.031-1.031c0.569 0 1.031 0.462 1.031 1.031s-0.462 1.031-1.031 1.031zM14.572 11.447c-0.161 0.147-0.612 0.41-1.339 0.779-0.313 0.261-0.503 0.476-0.551 0.763 0.001 0.058 0.005 0.615 0.009 1.083 0.002 0.387 0.002 0.718 0 0.753 0 0.007-0.005 0.012-0.005 0.019l-0.915-0.641c-0.275-0.193-0.42-0.43-0.458-0.73-0.002-0.609 0.002-0.646 0.015-0.715 0.144-0.869 0.774-1.435 1.216-1.724 0.266-0.173 0.998-0.524 1.113-0.613 0.28-0.258 0.414-0.568 0.405-0.96-0.030-1.227-0.781-1.93-2.062-1.93-0.322 0-0.931 0.043-1.4 0.334-0.445 0.278-0.662 0.73-0.661 1.385l-0.001 1.333c0 0.014-0.007 0.024-0.007 0.036l-0.91-0.636c-0.275-0.192-0.419-0.43-0.457-0.729v-0.004c-0.001-1.437 0.712-2.181 1.311-2.553 0.721-0.447 1.554-0.541 2.125-0.541 2.008 0 3.389 1.314 3.437 3.272 0.017 0.785-0.282 1.483-0.865 2.019z"></path>
</svg>
