<!-- Generated by IcoMoon.io -->
<svg version="1.1" xmlns="http://www.w3.org/2000/svg" width="16" height="16" viewBox="0 0 16 16">
<title>question</title>
<path fill="#444" d="M8 0.25c-4.411 0-8 3.478-8 7.75s3.589 7.75 8 7.75 8-3.478 8-7.75-3.589-7.75-8-7.75zM8 14.75c-3.86 0-7-3.027-7-6.75s3.14-6.75 7-6.75 7 3.027 7 6.75-3.14 6.75-7 6.75zM8 12.383c-0.415 0-0.75-0.336-0.75-0.75s0.335-0.75 0.75-0.75c0.414 0 0.75 0.336 0.75 0.75s-0.336 0.75-0.75 0.75zM10.5 6.13c0.013 0.57-0.205 1.078-0.629 1.468-0.118 0.107-0.445 0.298-0.974 0.567-0.228 0.189-0.366 0.346-0.4 0.555 0.001 0.042 0.003 0.447 0.006 0.787 0.001 0.281 0.001 0.522 0 0.548 0 0.005-0.003 0.009-0.004 0.014l-0.666-0.466c-0.2-0.141-0.305-0.313-0.333-0.532-0.001-0.443 0.001-0.47 0.011-0.521 0.104-0.632 0.563-1.043 0.885-1.253 0.193-0.126 0.726-0.382 0.809-0.446 0.204-0.187 0.301-0.413 0.295-0.698-0.022-0.891-0.568-1.403-1.5-1.403-0.234 0-0.677 0.031-1.018 0.243-0.324 0.201-0.482 0.53-0.481 1.007l-0.001 0.97c0 0.010-0.005 0.018-0.005 0.026l-0.662-0.463c-0.2-0.14-0.305-0.312-0.332-0.53v-0.003c0-1.045 0.518-1.586 0.954-1.856 0.524-0.326 1.129-0.394 1.545-0.394 1.46 0 2.465 0.956 2.5 2.38z"></path>
</svg>
