<!-- Generated by IcoMoon.io -->
<svg version="1.1" xmlns="http://www.w3.org/2000/svg" width="24" height="24" viewBox="0 0 24 24">
<title>receipt</title>
<path fill="#444" d="M22.5 0h-21c-0.828 0-1.5 0.67-1.5 1.5v19.5c0 0.399 0.158 0.78 0.44 1.061l1.5 1.5c0.293 0.293 0.677 0.439 1.061 0.439s0.768-0.147 1.060-0.439l1.94-1.939 1.94 1.939c0.293 0.293 0.676 0.439 1.060 0.439s0.768-0.147 1.060-0.439l1.94-1.939 1.939 1.939c0.293 0.293 0.677 0.439 1.061 0.439s0.768-0.147 1.061-0.439l1.939-1.939 1.939 1.939c0.293 0.293 0.677 0.439 1.061 0.439s0.768-0.147 1.061-0.439l1.5-1.5c0.282-0.28 0.439-0.662 0.439-1.061v-19.5c0-0.83-0.672-1.5-1.5-1.5zM22.5 21l-1.5 1.5-3-3-3 3-3-3-3 3-3-3-3 3-1.5-1.5v-19.5h21v19.5zM10.139 12.033c-0.139-0.327-0.344-0.608-0.607-0.839-0.264-0.229-0.579-0.433-0.954-0.607-0.372-0.17-0.795-0.346-1.27-0.529-0.36-0.129-0.668-0.252-0.926-0.366-0.255-0.114-0.471-0.24-0.648-0.375-0.173-0.135-0.3-0.284-0.384-0.452-0.083-0.17-0.125-0.363-0.125-0.581 0-0.423 0.186-0.733 0.558-0.933 0.375-0.201 0.816-0.303 1.317-0.303 0.341 0 0.531 0.009 0.867 0.051 0.837 0.101 1.542-0.325 1.846-1.108-0.106-0.037-0.249-0.084-0.438-0.133-0.183-0.053-0.399-0.099-0.644-0.144-0.241-0.048-0.508-0.087-0.79-0.117-0.031-0.003-0.063-0.002-0.095-0.005l0.342-0.487-1.194-0.005c-0.44 0.003-0.747 0.162-1 0.522l-0.030 0.043c-0.609 0.12-1.132 0.333-1.55 0.666-0.654 0.516-0.981 1.223-0.981 2.108 0 0.451 0.077 0.828 0.232 1.139 0.153 0.306 0.359 0.57 0.615 0.789 0.258 0.219 0.563 0.407 0.915 0.567 0.354 0.162 0.723 0.318 1.11 0.473 0.796 0.322 1.368 0.612 1.713 0.868 0.347 0.256 0.522 0.605 0.522 1.040 0 0.423-0.177 0.732-0.531 0.925-0.354 0.191-0.902 0.289-1.635 0.289-0.495 0-0.779-0.008-1.264-0.097-0.815-0.147-1.557 0.282-1.832 1.063 0.18 0.075 0.522 0.188 1.023 0.335 0.429 0.128 1.035 0.189 1.751 0.207l-0.219 0.314h1.195c0.406-0.003 0.692-0.156 0.933-0.46 0.533-0.119 0.99-0.3 1.359-0.555 0.684-0.473 1.029-1.172 1.029-2.097 0-0.477-0.071-0.878-0.212-1.205zM12.701 5.5c0.252 0.36 0.544 0.498 0.984 0.5h7.315l-0.701-0.999c-0.252-0.36-0.544-0.498-0.984-0.501h-7.316l0.7 1zM12.701 8.5c0.252 0.36 0.544 0.498 0.984 0.5h7.315l-0.701-0.999c-0.252-0.36-0.544-0.498-0.984-0.501h-7.316l0.7 1zM12.701 11.5c0.252 0.36 0.544 0.498 0.984 0.5h7.315l-0.701-0.999c-0.252-0.36-0.544-0.498-0.984-0.501h-7.316l0.7 1zM12.701 16c0.252 0.36 0.544 0.498 0.984 0.5h7.315l-0.701-0.999c-0.252-0.36-0.544-0.498-0.984-0.501h-7.316l0.7 1z"></path>
</svg>
