<!-- Generated by IcoMoon.io -->
<svg version="1.1" xmlns="http://www.w3.org/2000/svg" width="16" height="16" viewBox="0 0 16 16">
<title>receipt</title>
<path fill="#444" d="M15 0h-14c-0.552 0-1 0.447-1 1v13c0 0.266 0.105 0.52 0.293 0.707l1 1c0.195 0.195 0.451 0.293 0.707 0.293s0.512-0.098 0.707-0.293l1.293-1.293 1.293 1.293c0.195 0.195 0.451 0.293 0.707 0.293s0.512-0.098 0.707-0.293l1.293-1.293 1.293 1.293c0.195 0.195 0.451 0.293 0.707 0.293s0.512-0.098 0.707-0.293l1.293-1.293 1.293 1.293c0.195 0.195 0.451 0.293 0.707 0.293s0.512-0.098 0.707-0.293l1-1c0.188-0.187 0.293-0.441 0.293-0.707v-13c0-0.553-0.448-1-1-1zM15 14l-1 1-2-2-2 2-2-2-2 2-2-2-2 2-1-1v-13h14v13zM6.759 8.022c-0.093-0.218-0.229-0.405-0.405-0.559-0.176-0.153-0.386-0.289-0.636-0.405-0.248-0.113-0.53-0.231-0.847-0.353-0.24-0.086-0.445-0.168-0.617-0.244-0.17-0.076-0.314-0.16-0.432-0.25-0.115-0.090-0.2-0.189-0.256-0.301-0.055-0.113-0.083-0.242-0.083-0.387 0-0.282 0.124-0.489 0.372-0.622 0.25-0.134 0.544-0.202 0.878-0.202 0.227 0 0.354 0.006 0.578 0.034 0.558 0.067 1.028-0.217 1.231-0.739-0.071-0.025-0.166-0.056-0.292-0.089-0.122-0.035-0.266-0.066-0.429-0.096-0.161-0.032-0.339-0.058-0.527-0.078-0.021-0.002-0.042-0.001-0.063-0.003l0.228-0.325-0.796-0.003c-0.293 0.002-0.498 0.108-0.667 0.348l-0.020 0.029c-0.406 0.080-0.755 0.222-1.033 0.444-0.436 0.344-0.654 0.815-0.654 1.405 0 0.301 0.051 0.552 0.155 0.759 0.102 0.204 0.239 0.38 0.41 0.526s0.375 0.271 0.61 0.378c0.236 0.108 0.482 0.212 0.74 0.315 0.531 0.215 0.912 0.408 1.142 0.579 0.231 0.171 0.348 0.403 0.348 0.693 0 0.282-0.118 0.488-0.354 0.617-0.236 0.127-0.601 0.193-1.090 0.193-0.33 0-0.519-0.005-0.843-0.065-0.543-0.098-1.038 0.188-1.221 0.709 0.12 0.050 0.348 0.125 0.682 0.223 0.286 0.085 0.69 0.126 1.167 0.138l-0.146 0.209h0.797c0.271-0.002 0.461-0.104 0.622-0.307 0.355-0.079 0.66-0.2 0.906-0.37 0.456-0.315 0.686-0.781 0.686-1.398 0-0.318-0.047-0.585-0.141-0.803zM8.467 3.667c0.168 0.24 0.363 0.332 0.656 0.333h4.877l-0.467-0.666c-0.168-0.24-0.363-0.332-0.656-0.334h-4.877l0.467 0.667zM8.467 5.667c0.168 0.24 0.363 0.332 0.656 0.333h4.877l-0.467-0.666c-0.168-0.24-0.363-0.332-0.656-0.334h-4.877l0.467 0.667zM8.467 7.667c0.168 0.24 0.363 0.332 0.656 0.333h4.877l-0.467-0.666c-0.168-0.24-0.363-0.332-0.656-0.334h-4.877l0.467 0.667zM8.467 10.667c0.168 0.24 0.363 0.332 0.656 0.333h4.877l-0.467-0.666c-0.168-0.24-0.363-0.332-0.656-0.334h-4.877l0.467 0.667z"></path>
</svg>
