<!-- Generated by IcoMoon.io -->
<svg version="1.1" xmlns="http://www.w3.org/2000/svg" width="16" height="16" viewBox="0 0 16 16">
<title>refresh</title>
<path fill="#444" d="M15.996 6.758c0 0.026-0.011 0.047-0.015 0.072-0.005 0.038-0.007 0.075-0.022 0.111-0.015 0.037-0.039 0.069-0.062 0.099-0.014 0.020-0.020 0.044-0.037 0.062-0.002 0.002-0.004 0.001-0.006 0.003-0.043 0.046-0.095 0.082-0.153 0.108-0.004 0-0.006 0.005-0.010 0.007-0.061 0.024-0.125 0.039-0.195 0.038 0 0-4.154 0.007-4.185 0l0.453-0.665c0.155-0.221 0.35-0.319 0.608-0.334h1.86l0.008-0.007-2.558-2.659c-0.667-0.667-1.475-1.178-2.35-1.486-3.249-1.147-6.826 0.562-7.974 3.811s0.561 6.827 3.811 7.976c2.944 1.039 6.147-0.272 7.58-2.942 0 0 0.128-0.263 0.184-0.394 0 0 0.186-0.187 0.47-0.259l0.75-0.189c-0.146 0.524-0.358 1.018-0.616 1.482-0.005 0.016-0.089 0.156-0.125 0.214-0.164 0.274-0.539 0.761-0.539 0.761-1.375 1.688-3.45 2.685-5.629 2.685-0.799 0-1.612-0.134-2.408-0.414-3.77-1.332-5.752-5.482-4.421-9.253 1.332-3.769 5.481-5.755 9.251-4.422 1.015 0.359 1.954 0.951 2.714 1.712l2.616 2.719v-1.927c0-0.293 0.108-0.499 0.348-0.666l0.653-0.442c0.007 0.035-0.001 4.199-0.001 4.199z"></path>
</svg>
