<!-- Generated by IcoMoon.io -->
<svg version="1.1" xmlns="http://www.w3.org/2000/svg" width="24" height="24" viewBox="0 0 24 24">
<title>refresh</title>
<path fill="#444" d="M23.994 10.137c0 0.039-0.016 0.070-0.023 0.108-0.008 0.057-0.011 0.112-0.033 0.166-0.023 0.055-0.058 0.104-0.093 0.149-0.021 0.030-0.030 0.066-0.056 0.093-0.003 0.003-0.006 0.002-0.009 0.005-0.064 0.069-0.143 0.123-0.23 0.162-0.006 0-0.009 0.008-0.015 0.011-0.091 0.036-0.188 0.058-0.292 0.057 0 0-6.231 0.010-6.277 0l0.68-0.998c0.232-0.332 0.525-0.479 0.912-0.501h2.79l0.012-0.011-3.837-3.988c-1-1.001-2.212-1.767-3.525-2.229-4.873-1.72-10.239 0.843-11.961 5.717s0.841 10.24 5.716 11.964c4.416 1.559 9.22-0.408 11.37-4.413 0 0 0.192-0.395 0.276-0.591 0 0 0.279-0.28 0.705-0.389l1.125-0.284c-0.219 0.786-0.537 1.527-0.924 2.223-0.008 0.024-0.134 0.234-0.188 0.321-0.246 0.411-0.808 1.141-0.808 1.141-2.063 2.532-5.175 4.027-8.444 4.027-1.199 0-2.418-0.201-3.612-0.621-5.655-1.998-8.628-8.223-6.632-13.88 1.998-5.654 8.221-8.633 13.877-6.633 1.523 0.538 2.931 1.427 4.071 2.568l3.924 4.079v-2.891c0-0.439 0.162-0.748 0.522-0.999l0.98-0.663c0.010 0.053-0.002 6.298-0.002 6.298z"></path>
</svg>
