<!-- Generated by IcoMoon.io -->
<svg version="1.1" xmlns="http://www.w3.org/2000/svg" width="16" height="16" viewBox="0 0 16 16">
<title>runnig_timer</title>
<path fill="#444" d="M10.417 0l-0.467 0.666c-0.168 0.241-0.363 0.333-0.656 0.334h-2.692c-0.293-0.001-0.488-0.093-0.656-0.334l-0.467-0.666h4.938zM12.508 0.798l-0.141 0.801c-0.052 0.29 0.021 0.493 0.228 0.7l1.904 1.904c0.208 0.206 0.411 0.279 0.7 0.228l0.801-0.141-3.492-3.492zM0 4.29l0.8 0.141c0.29 0.052 0.492-0.021 0.7-0.228l1.904-1.904c0.207-0.207 0.279-0.41 0.228-0.7l-0.141-0.801-3.491 3.492zM7.5 5.146v4.541l0.666-0.467c0.24-0.167 0.332-0.363 0.334-0.656v-4.541l-0.667 0.467c-0.24 0.168-0.332 0.364-0.333 0.656zM15.345 8.778c0 3.99-3.288 7.222-7.345 7.222-4.056 0-7.345-3.232-7.345-7.222 0-1.782 0.663-3.407 1.752-4.665l0.7-0.714c1.184-1.038 2.71-1.707 4.393-1.818h1c1.683 0.111 3.209 0.78 4.393 1.818l0.7 0.714c1.089 1.258 1.752 2.883 1.752 4.665zM14.345 8.778c0-3.431-2.846-6.222-6.345-6.222s-6.345 2.792-6.345 6.222 2.846 6.222 6.345 6.222 6.345-2.791 6.345-6.222z"></path>
</svg>
