<!-- Generated by IcoMoon.io -->
<svg version="1.1" xmlns="http://www.w3.org/2000/svg" width="24" height="24" viewBox="0 0 24 24">
<title>runnig_timer</title>
<path d="M15.323 1l-0.642 0.916c-0.23 0.331-0.499 0.458-0.902 0.459h-3.701c-0.402-0.001-0.671-0.128-0.902-0.459l-0.642-0.916h6.789zM18.199 2.097l-0.193 1.102c-0.071 0.398 0.029 0.678 0.312 0.963l2.618 2.618c0.285 0.283 0.564 0.384 0.963 0.312l1.101-0.194-4.801-4.801zM1 6.898l1.101 0.193c0.398 0.071 0.677-0.029 0.962-0.312l2.618-2.618c0.284-0.285 0.384-0.564 0.313-0.963l-0.193-1.101-4.801 4.801zM11.312 8.076v6.244l0.916-0.642c0.33-0.231 0.457-0.5 0.459-0.902v-6.244l-0.917 0.642c-0.33 0.231-0.456 0.5-0.458 0.902zM22.1 13.070c0 5.486-4.522 9.93-10.1 9.93s-10.099-4.444-10.099-9.93c0-2.451 0.912-4.686 2.409-6.414l0.963-0.982c1.626-1.427 3.726-2.347 6.039-2.5h1.375c2.313 0.153 4.413 1.073 6.040 2.5l0.963 0.982c1.498 1.729 2.41 3.963 2.41 6.414zM20.725 13.070c0-4.717-3.914-8.555-8.725-8.555s-8.724 3.839-8.724 8.555 3.913 8.555 8.724 8.555 8.725-3.838 8.725-8.555z"></path>
</svg>
