<!-- Generated by IcoMoon.io -->
<svg version="1.1" xmlns="http://www.w3.org/2000/svg" width="24" height="24" viewBox="0 0 24 24">
<title>runnig_timer</title>
<path fill="#444" d="M15.625 0l-0.7 0.999c-0.252 0.361-0.544 0.5-0.984 0.501h-4.038c-0.44-0.002-0.732-0.139-0.984-0.501l-0.7-0.999h7.407zM18.762 1.197l-0.212 1.202c-0.078 0.435 0.032 0.739 0.342 1.050l2.856 2.856c0.312 0.309 0.616 0.418 1.050 0.342l1.201-0.211-5.238-5.238zM0 6.435l1.2 0.211c0.435 0.078 0.738-0.031 1.050-0.342l2.856-2.856c0.31-0.31 0.418-0.615 0.342-1.050l-0.212-1.202-5.237 5.238zM11.25 7.719v6.812l0.999-0.7c0.36-0.251 0.498-0.544 0.501-0.984v-6.812l-1 0.7c-0.36 0.252-0.498 0.546-0.5 0.984zM23.018 13.167c0 5.985-4.932 10.833-11.018 10.833-6.084 0-11.018-4.848-11.018-10.833 0-2.673 0.994-5.111 2.628-6.998l1.050-1.071c1.776-1.557 4.065-2.56 6.589-2.727h1.5c2.524 0.167 4.813 1.17 6.59 2.727l1.050 1.071c1.634 1.887 2.628 4.325 2.628 6.998zM21.518 13.167c0-5.147-4.269-9.333-9.518-9.333s-9.518 4.188-9.518 9.333 4.269 9.333 9.518 9.333 9.517-4.187 9.517-9.333z"></path>
</svg>
