<!-- Generated by IcoMoon.io -->
<svg version="1.1" xmlns="http://www.w3.org/2000/svg" width="24" height="24" viewBox="0 0 24 24">
<title>safe</title>
<path fill="#444" d="M20.998 7.75v6.815c0 0.439-0.16 0.747-0.52 0.999l-0.98 0.686v-6.815c0-0.439 0.16-0.747 0.522-1l0.978-0.684zM6 0c-3.314 0-6 2.685-6 6v18h18c3.312 0 6-2.685 6-6v-18h-18zM22.5 18c0 2.481-2.019 4.5-4.5 4.5h-16.5v-16.5c0-2.481 2.019-4.5 4.5-4.5h16.5v16.5zM16.353 11.011l-0.699-0.118c-0.072-0.237-0.168-0.47-0.288-0.69l0.411-0.579c0.163-0.228 0.136-0.537-0.062-0.735l-0.604-0.603c-0.108-0.11-0.251-0.168-0.405-0.168-0.119 0-0.234 0.034-0.331 0.103l-0.578 0.413c-0.228-0.12-0.465-0.219-0.712-0.293l-0.117-0.692c-0.043-0.281-0.28-0.48-0.561-0.48h-0.857c-0.28 0-0.517 0.201-0.564 0.477l-0.122 0.705c-0.237 0.075-0.468 0.171-0.687 0.293l-0.572-0.409c-0.098-0.069-0.213-0.105-0.332-0.105-0.153 0-0.299 0.060-0.406 0.166l-0.603 0.606c-0.198 0.197-0.225 0.505-0.062 0.736l0.416 0.585c-0.117 0.222-0.212 0.452-0.28 0.692l-0.692 0.115c-0.277 0.045-0.48 0.284-0.48 0.563v0.857c0 0.282 0.201 0.519 0.479 0.567l0.705 0.119c0.074 0.237 0.17 0.47 0.291 0.69l-0.406 0.57c-0.165 0.228-0.138 0.538 0.062 0.736l0.605 0.605c0.108 0.11 0.25 0.166 0.405 0.166 0.119 0 0.234-0.034 0.333-0.106l0.585-0.414c0.211 0.111 0.438 0.206 0.666 0.276l0.117 0.697c0.046 0.278 0.285 0.476 0.566 0.476h0.855c0.28 0 0.518-0.2 0.566-0.476l0.119-0.7c0.239-0.072 0.47-0.168 0.69-0.287l0.578 0.411c0.097 0.071 0.213 0.106 0.331 0.106 0.153 0 0.296-0.058 0.405-0.168l0.604-0.605c0.198-0.198 0.223-0.505 0.060-0.735l-0.411-0.579c0.119-0.222 0.213-0.452 0.287-0.691l0.697-0.116c0.277-0.048 0.477-0.285 0.477-0.566v-0.86c0-0.273-0.201-0.51-0.477-0.557zM12 14.688c-1.483 0-2.688-1.203-2.688-2.688s1.204-2.688 2.688-2.688 2.688 1.203 2.688 2.688-1.206 2.688-2.688 2.688z"></path>
</svg>
