<!-- Generated by IcoMoon.io -->
<svg version="1.1" xmlns="http://www.w3.org/2000/svg" width="16" height="16" viewBox="0 0 16 16">
<title>safe</title>
<path fill="#444" d="M13.999 5.167v4.543c0 0.293-0.107 0.498-0.347 0.666l-0.653 0.457v-4.543c0-0.293 0.107-0.498 0.348-0.667l0.652-0.456zM4 0c-2.209 0-4 1.79-4 4v12h12c2.208 0 4-1.79 4-4v-12h-12zM15 12c0 1.654-1.346 3-3 3h-11v-11c0-1.654 1.346-3 3-3h11v11zM10.902 7.341l-0.466-0.079c-0.048-0.158-0.112-0.313-0.192-0.46l0.274-0.386c0.109-0.152 0.091-0.358-0.041-0.49l-0.403-0.402c-0.072-0.073-0.167-0.112-0.27-0.112-0.079 0-0.156 0.023-0.221 0.069l-0.385 0.275c-0.152-0.080-0.31-0.146-0.475-0.195l-0.078-0.461c-0.029-0.187-0.187-0.32-0.374-0.32h-0.571c-0.187 0-0.345 0.134-0.376 0.318l-0.081 0.47c-0.158 0.050-0.312 0.114-0.458 0.195l-0.381-0.273c-0.065-0.046-0.142-0.070-0.221-0.070-0.102 0-0.199 0.040-0.271 0.111l-0.402 0.404c-0.132 0.131-0.15 0.337-0.041 0.491l0.277 0.39c-0.078 0.148-0.141 0.301-0.187 0.461l-0.461 0.077c-0.185 0.030-0.32 0.189-0.32 0.375v0.571c0 0.188 0.134 0.346 0.319 0.378l0.47 0.079c0.049 0.158 0.113 0.313 0.194 0.46l-0.271 0.38c-0.11 0.152-0.092 0.359 0.041 0.491l0.403 0.403c0.072 0.073 0.167 0.111 0.27 0.111 0.079 0 0.156-0.023 0.222-0.071l0.39-0.276c0.141 0.074 0.292 0.137 0.444 0.184l0.078 0.465c0.031 0.185 0.19 0.317 0.377 0.317h0.57c0.187 0 0.345-0.133 0.377-0.317l0.079-0.467c0.159-0.048 0.313-0.112 0.46-0.191l0.385 0.274c0.065 0.047 0.142 0.071 0.221 0.071 0.102 0 0.197-0.039 0.27-0.112l0.403-0.403c0.132-0.132 0.149-0.337 0.040-0.49l-0.274-0.386c0.079-0.148 0.142-0.301 0.191-0.461l0.465-0.077c0.185-0.032 0.318-0.19 0.318-0.377v-0.573c0-0.182-0.134-0.34-0.318-0.371zM8 9.792c-0.989 0-1.792-0.802-1.792-1.792s0.803-1.792 1.792-1.792 1.792 0.802 1.792 1.792-0.804 1.792-1.792 1.792z"></path>
</svg>
