<!-- Generated by IcoMoon.io -->
<svg version="1.1" xmlns="http://www.w3.org/2000/svg" width="24" height="24" viewBox="0 0 24 24">
<title>save</title>
<path d="M22.596 6.753l-5.345-5.349c-0.258-0.258-0.609-0.404-0.974-0.404h-11.764c-1.936 0-3.513 1.574-3.513 3.516v14.969c0 1.941 1.577 3.515 3.513 3.515h14.974c1.936 0 3.513-1.574 3.513-3.516v-11.76c0-0.366-0.146-0.713-0.404-0.971zM17.625 21.625h-11.25v-6.625h11.25v6.625zM21.625 19.484c0 1.181-0.957 2.141-2.138 2.141h-0.487v-7.312c0-0.382-0.309-0.688-0.688-0.688h-12.624c-0.379 0-0.688 0.306-0.688 0.687v7.312h-0.487c-1.181 0-2.138-0.96-2.138-2.141v-14.967c0-1.181 0.957-2.141 2.138-2.141l0.499 0.025-0.012 6.288c0 0.382 0.309 0.688 0.688 0.688h7.701l-0.643-0.919c-0.193-0.276-0.431-0.386-0.732-0.419l-0.688-0.038h-4.951l0.012-5.6 9.891-0.025 5.348 5.349v11.76z"></path>
</svg>
