<!-- Generated by IcoMoon.io -->
<svg version="1.1" xmlns="http://www.w3.org/2000/svg" width="16" height="16" viewBox="0 0 16 16">
<title>save</title>
<path fill="#444" d="M15.707 4.183l-3.889-3.89c-0.187-0.188-0.442-0.293-0.707-0.293h-8.556c-1.409 0-2.555 1.146-2.555 2.555v10.891c0 1.408 1.146 2.554 2.555 2.554h10.89c1.409 0 2.555-1.146 2.555-2.555v-8.555c0-0.266-0.105-0.52-0.293-0.707zM12 15h-8v-5h8v5zM15 13.445c0 0.859-0.696 1.555-1.555 1.555h-0.445v-5.5c0-0.276-0.224-0.5-0.5-0.5h-9c-0.276 0-0.5 0.224-0.5 0.5v5.5h-0.445c-0.859 0-1.555-0.696-1.555-1.555v-10.89c0-0.859 0.696-1.555 1.555-1.555h0.445v4.5c0 0.276 0.224 0.5 0.5 0.5h5.6l-0.467-0.667c-0.14-0.2-0.313-0.28-0.533-0.308l-0.5-0.025h-3.6v-4h7.111l3.889 3.89v8.555z"></path>
</svg>
