<!-- Generated by IcoMoon.io -->
<svg version="1.1" xmlns="http://www.w3.org/2000/svg" width="24" height="24" viewBox="0 0 24 24">
<title>save</title>
<path fill="#444" d="M23.561 6.274l-5.833-5.835c-0.28-0.282-0.663-0.44-1.061-0.44h-12.834c-2.114 0-3.833 1.719-3.833 3.833v16.337c0 2.112 1.719 3.831 3.833 3.831h16.335c2.114 0 3.833-1.719 3.833-3.832v-12.832c0-0.399-0.158-0.78-0.44-1.060zM18 22.5h-12v-7.5h12v7.5zM22.5 20.168c0 1.288-1.044 2.332-2.332 2.332h-0.668v-8.25c0-0.414-0.336-0.75-0.75-0.75h-13.5c-0.414 0-0.75 0.336-0.75 0.75v8.25h-0.667c-1.288 0-2.333-1.044-2.333-2.332v-16.335c0-1.288 1.044-2.333 2.333-2.333h0.667v6.75c0 0.414 0.336 0.75 0.75 0.75h8.4l-0.7-1c-0.21-0.3-0.47-0.42-0.8-0.462l-0.75-0.038h-5.4v-6h10.666l5.833 5.835v12.832z"></path>
</svg>
