<!-- Generated by IcoMoon.io -->
<svg version="1.1" xmlns="http://www.w3.org/2000/svg" width="24" height="24" viewBox="0 0 24 24">
<title>scissors</title>
<path d="M20.526 21.211l-6.605-6.637c-0.268-0.271-0.267-0.706 0.002-0.977 0.269-0.265 0.702-0.266 0.974 0.008l7.65 7.684c0.005 0.012 0.010 0.019 0.015 0.030l-1.074 0.184c-0.388 0.073-0.683-0.024-0.962-0.292zM22.546 1.737c-0.001-0.001-0.001-0.002-0.005-0.003-0.001-0.001-0.002-0.001-0.003-0.002l0.008 0.005zM8.133 17.225c-0.018 0.019-0.040 0.022-0.056 0.039 0.399 0.587 0.636 1.304 0.636 2.066 0 2.030-1.63 3.67-3.64 3.67s-3.641-1.64-3.641-3.67c0-2.022 1.63-3.662 3.641-3.662 0.762 0 1.468 0.237 2.051 0.636 0.012-0.012 0.019-0.031 0.032-0.048l4.228-4.256-4.228-4.256c-0.013-0.017-0.020-0.036-0.032-0.048-0.583 0.398-1.29 0.636-2.051 0.636-2.010 0-3.641-1.64-3.641-3.664 0-2.028 1.63-3.668 3.641-3.668 2.009 0 3.64 1.64 3.64 3.668 0 0.764-0.236 1.48-0.636 2.067 0.016 0.018 0.038 0.021 0.056 0.040l4.22 4.251 8.165-8.226c0.272-0.255 0.566-0.347 0.942-0.281l1.078 0.185 0.030-0.026c-0.009 0.007-0.011 0.021-0.021 0.034l-14.414 14.513zM7.337 4.668c0-1.265-1.017-2.293-2.265-2.293s-2.266 1.028-2.266 2.293c0 1.266 1.018 2.289 2.266 2.289s2.265-1.023 2.265-2.289zM7.337 19.33c0-1.265-1.017-2.287-2.265-2.287s-2.266 1.022-2.266 2.287c0 1.266 1.018 2.295 2.266 2.295s2.265-1.029 2.265-2.295z"></path>
</svg>
