<!-- Generated by IcoMoon.io -->
<svg version="1.1" xmlns="http://www.w3.org/2000/svg" width="24" height="24" viewBox="0 0 24 24">
<title>scissors</title>
<path fill="#444" d="M21.3 22.045l-7.206-7.239c-0.291-0.293-0.289-0.769 0.003-1.061s0.768-0.293 1.061 0.003l8.346 8.388c0.008 0.009 0.010 0.019 0.018 0.028l-1.172 0.204c-0.422 0.075-0.747-0.027-1.050-0.324zM23.504 0.807c-0.002-0.001-0.002-0.003-0.003-0.005s-0.003-0.001-0.005-0.003l0.008 0.007zM7.782 17.701c-0.018 0.020-0.042 0.026-0.063 0.040 0.437 0.644 0.694 1.419 0.694 2.256 0 2.211-1.777 4.002-3.97 4.002s-3.97-1.791-3.97-4.002c0-2.208 1.778-3.999 3.97-3.999 0.831 0 1.6 0.26 2.238 0.699 0.014-0.018 0.019-0.038 0.034-0.054l4.611-4.644-4.609-4.644c-0.016-0.015-0.022-0.036-0.036-0.054-0.637 0.439-1.407 0.699-2.238 0.699-2.193 0-3.97-1.791-3.97-4.002 0-2.208 1.778-3.999 3.97-3.999 2.192 0 3.969 1.791 3.969 3.999 0 0.838-0.258 1.614-0.694 2.258 0.019 0.018 0.043 0.024 0.063 0.042l4.604 4.637 8.907-8.973c0.299-0.278 0.617-0.38 1.028-0.308l1.177 0.207 0.032-0.031c-0.009 0.010-0.012 0.024-0.023 0.033l-15.723 15.838zM6.913 3.999c0-1.378-1.109-2.499-2.471-2.499s-2.47 1.12-2.47 2.499c0 1.38 1.108 2.502 2.47 2.502s2.471-1.122 2.471-2.502zM6.913 19.998c0-1.378-1.109-2.499-2.469-2.499-1.362 0-2.47 1.12-2.47 2.499 0 1.38 1.109 2.502 2.47 2.502 1.361 0 2.469-1.122 2.469-2.502z"></path>
</svg>
