<!-- Generated by IcoMoon.io -->
<svg version="1.1" xmlns="http://www.w3.org/2000/svg" width="16" height="16" viewBox="0 0 16 16">
<title>scissors</title>
<path fill="#444" d="M14.2 14.697l-4.804-4.826c-0.194-0.195-0.193-0.513 0.002-0.707s0.512-0.195 0.707 0.002l5.564 5.592c0.005 0.006 0.007 0.013 0.012 0.019l-0.781 0.136c-0.281 0.050-0.498-0.018-0.7-0.216zM15.669 0.538c-0.001-0.001-0.001-0.002-0.002-0.003s-0.002-0.001-0.003-0.002l0.005 0.005zM5.188 11.801c-0.012 0.013-0.028 0.017-0.042 0.027 0.291 0.429 0.463 0.946 0.463 1.504 0 1.474-1.185 2.668-2.647 2.668s-2.647-1.194-2.647-2.668c0-1.472 1.185-2.666 2.647-2.666 0.554 0 1.067 0.173 1.492 0.466 0.009-0.012 0.013-0.025 0.023-0.036l3.074-3.096-3.073-3.096c-0.011-0.010-0.015-0.024-0.024-0.036-0.425 0.293-0.938 0.466-1.492 0.466-1.462 0-2.647-1.194-2.647-2.668 0-1.472 1.185-2.666 2.647-2.666s2.646 1.194 2.646 2.666c0 0.559-0.172 1.076-0.463 1.505 0.013 0.012 0.029 0.016 0.042 0.028l3.069 3.091 5.938-5.982c0.199-0.185 0.411-0.253 0.685-0.205l0.785 0.138 0.021-0.021c-0.006 0.007-0.008 0.016-0.015 0.022l-10.482 10.559zM4.609 2.666c0-0.919-0.739-1.666-1.647-1.666s-1.647 0.747-1.647 1.666c0 0.92 0.739 1.668 1.647 1.668s1.647-0.748 1.647-1.668zM4.609 13.332c0-0.919-0.739-1.666-1.646-1.666s-1.647 0.747-1.647 1.666c0 0.92 0.739 1.668 1.647 1.668s1.646-0.748 1.646-1.668z"></path>
</svg>
