<!-- Generated by IcoMoon.io -->
<svg version="1.1" xmlns="http://www.w3.org/2000/svg" width="24" height="24" viewBox="0 0 24 24">
<title>servers</title>
<path fill="#444" d="M5.25 6.75c-0.39 0-0.78-0.165-1.065-0.437-0.27-0.288-0.435-0.679-0.435-1.072 0-0.394 0.165-0.785 0.435-1.072 0.57-0.558 1.575-0.558 2.13 0 0.27 0.288 0.435 0.678 0.435 1.072 0 0.393-0.165 0.783-0.435 1.072-0.285 0.271-0.675 0.437-1.065 0.437zM24 0v6c0 2.481-2.019 4.5-4.5 4.5h-19.5v-6c0-2.481 2.019-4.5 4.502-4.5h19.498zM22.5 1.5h-17.998c-1.656 0-3.002 1.345-3.002 3v4.5h18c1.654 0 3-1.346 3-3v-4.5zM6.315 19.813c0.27-0.288 0.435-0.679 0.435-1.072 0-0.395-0.165-0.785-0.435-1.072-0.555-0.558-1.56-0.558-2.13 0-0.27 0.287-0.435 0.678-0.435 1.072 0 0.393 0.165 0.783 0.435 1.072 0.285 0.271 0.675 0.437 1.065 0.437s0.78-0.165 1.065-0.437zM24 13.5v6c0 2.481-2.019 4.5-4.5 4.5h-19.5v-6c0-2.481 2.019-4.5 4.502-4.5h19.498zM22.5 15h-17.998c-1.656 0-3.002 1.346-3.002 3v4.5h18c1.654 0 3-1.346 3-3v-4.5z"></path>
</svg>
