<!-- Generated by IcoMoon.io -->
<svg version="1.1" xmlns="http://www.w3.org/2000/svg" width="16" height="16" viewBox="0 0 16 16">
<title>servers</title>
<path fill="#444" d="M3.5 4.5c-0.26 0-0.52-0.11-0.71-0.291-0.18-0.192-0.29-0.453-0.29-0.715s0.11-0.523 0.29-0.715c0.38-0.372 1.050-0.372 1.42 0 0.18 0.192 0.29 0.452 0.29 0.715s-0.11 0.522-0.29 0.715c-0.19 0.181-0.45 0.291-0.71 0.291zM16 0v4c0 1.654-1.346 3-3 3h-13v-4c0-1.654 1.346-3 3.001-3h12.999zM15 1h-11.999c-1.104 0-2.001 0.897-2.001 2v3h12c1.103 0 2-0.897 2-2v-3zM4.21 13.209c0.18-0.192 0.29-0.453 0.29-0.715s-0.11-0.523-0.29-0.715c-0.37-0.372-1.040-0.372-1.42 0-0.18 0.191-0.29 0.452-0.29 0.715s0.11 0.522 0.29 0.715c0.19 0.181 0.45 0.291 0.71 0.291s0.52-0.11 0.71-0.291zM16 9v4c0 1.654-1.346 3-3 3h-13v-4c0-1.654 1.346-3 3.001-3h12.999zM15 10h-11.999c-1.104 0-2.001 0.897-2.001 2v3h12c1.103 0 2-0.897 2-2v-3z"></path>
</svg>
