<!-- Generated by IcoMoon.io -->
<svg version="1.1" xmlns="http://www.w3.org/2000/svg" width="16" height="16" viewBox="0 0 16 16">
<title>share_left</title>
<path fill="#444" d="M13 4.971c-1.485 0-2.712 1.098-2.95 2.529h-8.363l2.020-1.414c0.239-0.169 0.347-0.357 0.347-0.649v-0.814l-3.724 2.607c-0.070 0.051-0.112 0.109-0.156 0.166-0.085 0.109-0.144 0.229-0.162 0.375l-0.012 0.23 0.012 0.23c0.017 0.133 0.065 0.244 0.136 0.347l0.001-0.001c0.053 0.067 0.101 0.136 0.185 0.195l3.72 2.604v-0.814c0-0.293-0.107-0.48-0.347-0.649l-2.020-1.413h8.363c0.238 1.432 1.465 2.529 2.95 2.529 1.654 0 3-1.359 3-3.029s-1.346-3.029-3-3.029zM13 10.029c-1.105 0-2-0.908-2-2.029s0.895-2.029 2-2.029 2 0.908 2 2.029-0.895 2.029-2 2.029z"></path>
</svg>
