<!-- Generated by IcoMoon.io -->
<svg version="1.1" xmlns="http://www.w3.org/2000/svg" width="24" height="24" viewBox="0 0 24 24">
<title>share_left</title>
<path fill="#444" d="M19.5 7.457c-2.227 0-4.068 1.647-4.425 3.793h-12.544l3.030-2.121c0.358-0.254 0.52-0.536 0.52-0.974v-1.221l-5.586 3.911c-0.105 0.077-0.168 0.164-0.234 0.249-0.128 0.163-0.216 0.344-0.243 0.563l-0.018 0.345 0.018 0.345c0.026 0.199 0.098 0.366 0.204 0.52l0.002-0.001c0.079 0.101 0.152 0.204 0.277 0.293l5.58 3.906v-1.221c0-0.439-0.16-0.72-0.52-0.974l-3.030-2.12h12.544c0.357 2.148 2.197 3.794 4.425 3.794 2.481 0 4.5-2.039 4.5-4.544s-2.019-4.543-4.5-4.543zM19.5 15.043c-1.657 0-3-1.362-3-3.043s1.343-3.043 3-3.043 3 1.362 3 3.043-1.343 3.043-3 3.043z"></path>
</svg>
