<!-- Generated by IcoMoon.io -->
<svg version="1.1" xmlns="http://www.w3.org/2000/svg" width="16" height="16" viewBox="0 0 16 16">
<title>share</title>
<path fill="#444" d="M12 9.94c-0.899 0-1.698 0.41-2.248 1.045l-2.976-1.848c0.142-0.352 0.224-0.736 0.224-1.138 0-0.404-0.082-0.79-0.226-1.144l2.967-1.854c0.551 0.643 1.354 1.059 2.259 1.059 1.654 0 3-1.359 3-3.030s-1.346-3.030-3-3.030-3 1.359-3 3.029c0 0.396 0.081 0.772 0.218 1.12l-2.975 1.86c-0.55-0.632-1.347-1.039-2.243-1.039-1.654 0-3 1.359-3 3.029s1.346 3.030 3 3.030c0.899 0 1.697-0.409 2.248-1.044l2.976 1.849c-0.142 0.352-0.224 0.733-0.224 1.136 0 1.671 1.346 3.030 3 3.030s3-1.359 3-3.030c0-1.67-1.346-3.030-3-3.030zM12 1c1.105 0 2 0.908 2 2.029s-0.895 2.030-2 2.030c-0.55 0-1.047-0.226-1.408-0.59-0.114-0.114-0.211-0.245-0.293-0.385-0.007-0.013-0.013-0.026-0.021-0.038-0.077-0.139-0.141-0.285-0.187-0.441-0.053-0.183-0.091-0.375-0.091-0.576 0-1.121 0.895-2.029 2-2.029zM5.902 8.595c-0.049 0.164-0.117 0.318-0.202 0.461-0.001 0.002-0.001 0.004-0.002 0.005-0.086 0.143-0.188 0.275-0.306 0.392v0c-0.36 0.356-0.85 0.576-1.392 0.576-1.105 0-2-0.909-2-2.030s0.895-2.029 2-2.029c0.541 0 1.029 0.22 1.389 0.573v0c0.238 0.233 0.411 0.527 0.512 0.857 0.058 0.191 0.099 0.389 0.099 0.599s-0.040 0.406-0.098 0.596zM12 15c-1.105 0-2-0.909-2-2.030 0-0.208 0.040-0.404 0.097-0.594 0.049-0.163 0.117-0.317 0.201-0.46 0.001-0.003 0.002-0.005 0.003-0.007 0.085-0.144 0.187-0.275 0.305-0.392 0.36-0.356 0.851-0.577 1.394-0.577 1.105 0 2 0.908 2 2.029s-0.895 2.031-2 2.031z"></path>
</svg>
