<!-- Generated by IcoMoon.io -->
<svg version="1.1" xmlns="http://www.w3.org/2000/svg" width="24" height="24" viewBox="0 0 24 24">
<title>share_right</title>
<path d="M5.125 16.165c2.042 0 3.729-1.509 4.057-3.478h11.5l-2.777 1.944c-0.329 0.232-0.477 0.491-0.477 0.893v1.119l5.118-3.585c0.097-0.070 0.155-0.149 0.215-0.229 0.117-0.149 0.198-0.314 0.223-0.516l0.016-0.314-0.016-0.317c-0.023-0.183-0.090-0.336-0.187-0.477l-0.001 0.001c-0.072-0.093-0.138-0.187-0.254-0.269l-5.114-3.581v1.12c0 0.402 0.147 0.66 0.477 0.893l2.776 1.943h-11.499c-0.328-1.968-2.015-3.477-4.057-3.477-2.274 0-4.125 1.869-4.125 4.165s1.851 4.165 4.125 4.165zM5.125 9.21c1.52 0 2.75 1.249 2.75 2.79s-1.23 2.79-2.75 2.79-2.75-1.249-2.75-2.79 1.23-2.79 2.75-2.79z"></path>
</svg>
