<!-- Generated by IcoMoon.io -->
<svg version="1.1" xmlns="http://www.w3.org/2000/svg" width="24" height="24" viewBox="0 0 24 24">
<title>share_left</title>
<path fill="#444" d="M18.875 7.834c-2.042 0-3.729 1.508-4.058 3.479h-11.498l2.775-1.941c0.33-0.233 0.479-0.492 0.479-0.896v-1.119l-5.12 3.586c-0.097 0.068-0.153 0.149-0.215 0.225-0.117 0.149-0.196 0.316-0.221 0.516l-0.017 0.317 0.018 0.318c0.022 0.18 0.089 0.332 0.186 0.476l0.001-0.001c0.073 0.091 0.139 0.188 0.255 0.266l5.114 3.583v-1.119c0-0.404-0.148-0.662-0.479-0.896l-2.775-1.94h11.498c0.329 1.971 2.016 3.479 4.058 3.479 2.274-0.001 4.124-1.87 4.124-4.167s-1.85-4.166-4.125-4.166zM18.875 14.791c-1.518 0-2.75-1.248-2.75-2.791s1.232-2.791 2.75-2.791 2.75 1.248 2.75 2.791-1.232 2.791-2.75 2.791z"></path>
</svg>
