<!-- Generated by IcoMoon.io -->
<svg version="1.1" xmlns="http://www.w3.org/2000/svg" width="24" height="24" viewBox="0 0 24 24">
<title>share</title>
<path fill="#444" d="M18 14.91c-1.349 0-2.547 0.615-3.372 1.567l-4.464-2.772c0.213-0.528 0.336-1.104 0.336-1.707 0-0.606-0.123-1.185-0.339-1.716l4.451-2.781c0.826 0.964 2.031 1.588 3.389 1.588 2.481 0 4.5-2.038 4.5-4.545s-2.019-4.545-4.5-4.545-4.5 2.038-4.5 4.543c0 0.594 0.121 1.158 0.327 1.68l-4.463 2.79c-0.825-0.948-2.020-1.558-3.364-1.558-2.481 0-4.5 2.038-4.5 4.543 0 2.506 2.019 4.545 4.5 4.545 1.348 0 2.546-0.614 3.372-1.566l4.464 2.773c-0.213 0.528-0.336 1.1-0.336 1.704 0 2.506 2.019 4.545 4.5 4.545s4.5-2.038 4.5-4.545c0-2.505-2.019-4.545-4.5-4.545zM18 1.5c1.657 0 3 1.362 3 3.043s-1.343 3.045-3 3.045c-0.825 0-1.571-0.339-2.112-0.885-0.171-0.171-0.317-0.368-0.439-0.577-0.011-0.019-0.020-0.039-0.032-0.057-0.116-0.209-0.212-0.428-0.28-0.662-0.080-0.274-0.136-0.563-0.136-0.864 0-1.681 1.342-3.043 3-3.043zM8.853 12.893c-0.074 0.246-0.175 0.477-0.303 0.691-0.002 0.003-0.002 0.006-0.003 0.008-0.129 0.215-0.282 0.412-0.459 0.588v0c-0.54 0.534-1.275 0.864-2.088 0.864-1.657 0-3-1.364-3-3.045s1.343-3.043 3-3.043c0.812 0 1.543 0.33 2.084 0.86v0c0.357 0.349 0.616 0.79 0.768 1.286 0.087 0.287 0.149 0.584 0.149 0.899 0 0.313-0.060 0.609-0.147 0.894zM18 22.5c-1.657 0-3-1.364-3-3.045 0-0.312 0.060-0.606 0.145-0.891 0.073-0.244 0.176-0.475 0.302-0.69 0.002-0.005 0.003-0.008 0.005-0.011 0.128-0.216 0.28-0.413 0.457-0.588 0.54-0.534 1.277-0.865 2.091-0.865 1.657 0 3 1.362 3 3.043s-1.343 3.047-3 3.047z"></path>
</svg>
