<!-- Generated by IcoMoon.io -->
<svg version="1.1" xmlns="http://www.w3.org/2000/svg" width="16" height="16" viewBox="0 0 16 16">
<title>ship</title>
<path fill="#444" d="M11.7 5.999h-7.4l0.467-0.667c0.168-0.239 0.363-0.332 0.656-0.334h5.154c0.293 0.003 0.488 0.096 0.656 0.335l0.467 0.666zM15.942 6.885c-0.382 1.078-1.684 5.318-1.979 6.384-0.080 0.288-0.285 0.524-0.558 0.646-0.129 0.058-0.268 0.086-0.406 0.086-0.153 0-0.307-0.035-0.447-0.105-0.487-0.243-0.747-0.295-0.879-0.295-0.137 0-0.243 0.062-0.594 0.305-0.326 0.226-0.732 0.508-1.327 0.731-0.676 0.255-1.181 0.363-1.688 0.363-0.503 0-1.014-0.107-1.706-0.359-0.523-0.189-0.917-0.452-1.234-0.662-0.396-0.265-0.567-0.364-0.786-0.364s-0.519 0.093-0.892 0.281c-0.139 0.070-0.293 0.105-0.446 0.105-0.146 0-0.291-0.031-0.426-0.096-0.277-0.13-0.479-0.381-0.548-0.68-0.276-1.195-1.507-4.994-1.972-6.35-0.097-0.284-0.062-0.597 0.096-0.852 0.158-0.253 0.422-0.423 0.719-0.464 0.336-0.043 0.545-0.075 0.719-0.101 0.241-0.036 0.417-0.063 0.745-0.098 0.442-0.859 1.421-2.361 2.867-2.361h0.69c-0.047-0.335-0.090-0.676-0.090-0.999 0-0.553 0.448-1 1-1h2.4c0.552 0 1 0.447 1 1 0 0.305-0.045 0.656-0.092 1.002l0.681-0.003c1.351 0 2.396 1.353 2.901 2.367l0.139 0.015c0.514 0.049 0.742 0.072 1.355 0.188 0.287 0.054 0.537 0.23 0.682 0.482 0.146 0.255 0.174 0.559 0.076 0.834zM15 6.551c-0.8-0.151-0.9-0.131-2-0.251-0.239-0.759-1.2-2.312-2.2-2.3-0.551 0.005-0.4 0-1.8 0 0-0.579 0.2-1.456 0.2-2-1.004 0-1.368 0-2.4 0 0 0.594 0.2 1.401 0.2 2-0.99 0-0.9 0-1.8 0-1 0-1.9 1.518-2.2 2.3-1.1 0.1-1 0.12-2 0.251 0.4 1.168 1.7 5.149 2 6.45 2-1.001 2.321 0.199 3.7 0.7 1.1 0.399 1.645 0.396 2.7 0 1.539-0.582 1.6-1.701 3.6-0.7 0.3-1.082 1.601-5.321 2-6.45z"></path>
</svg>
