<!-- Generated by IcoMoon.io -->
<svg version="1.1" xmlns="http://www.w3.org/2000/svg" width="24" height="24" viewBox="0 0 24 24">
<title>ship</title>
<path fill="#444" d="M17.55 8.998h-11.1l0.7-1.001c0.252-0.358 0.545-0.498 0.984-0.501h7.731c0.439 0.005 0.732 0.144 0.984 0.503l0.7 0.999zM23.913 10.328c-0.573 1.617-2.526 7.977-2.968 9.576-0.12 0.432-0.427 0.786-0.837 0.969-0.194 0.087-0.402 0.129-0.609 0.129-0.23 0-0.46-0.052-0.67-0.157-0.73-0.364-1.12-0.442-1.319-0.442-0.206 0-0.364 0.093-0.891 0.457-0.489 0.339-1.098 0.762-1.991 1.096-1.014 0.383-1.772 0.544-2.532 0.544-0.755 0-1.521-0.16-2.559-0.538-0.784-0.284-1.375-0.678-1.851-0.993-0.594-0.398-0.851-0.546-1.179-0.546s-0.779 0.139-1.338 0.421c-0.208 0.105-0.439 0.158-0.669 0.158-0.219 0-0.436-0.047-0.639-0.144-0.416-0.195-0.719-0.572-0.822-1.020-0.414-1.793-2.26-7.491-2.958-9.525-0.146-0.426-0.093-0.895 0.144-1.278 0.237-0.38 0.633-0.635 1.079-0.696 0.504-0.065 0.817-0.113 1.078-0.152 0.362-0.054 0.625-0.095 1.118-0.147 0.663-1.288 2.131-3.542 4.301-3.542h1.035c-0.071-0.503-0.135-1.014-0.135-1.499 0-0.829 0.672-1.5 1.5-1.5h3.6c0.828 0 1.5 0.671 1.5 1.5 0 0.458-0.067 0.984-0.138 1.503l1.021-0.005c2.026 0 3.594 2.029 4.352 3.55l0.208 0.022c0.771 0.074 1.113 0.108 2.033 0.282 0.43 0.081 0.805 0.345 1.023 0.723 0.219 0.383 0.261 0.838 0.114 1.251zM22.5 9.826c-1.2-0.226-1.35-0.197-3-0.377-0.358-1.139-1.8-3.468-3.3-3.45-0.827 0.008-0.6 0-2.7 0 0-0.868 0.3-2.184 0.3-3-1.506 0-2.052 0-3.6 0 0 0.891 0.3 2.101 0.3 3-1.485 0-1.35 0-2.7 0-1.5 0-2.85 2.277-3.3 3.45-1.65 0.15-1.5 0.18-3 0.377 0.6 1.752 2.55 7.723 3 9.675 3-1.501 3.482 0.299 5.55 1.050 1.65 0.599 2.467 0.594 4.050 0 2.308-0.873 2.4-2.552 5.4-1.050 0.45-1.623 2.402-7.981 3-9.675z"></path>
</svg>
