<!-- Generated by IcoMoon.io -->
<svg version="1.1" xmlns="http://www.w3.org/2000/svg" width="16" height="16" viewBox="0 0 16 16">
<title>shopping_cart</title>
<path fill="#444" d="M7.002 12.5c-0.827 0-1.5 0.673-1.5 1.5s0.673 1.5 1.5 1.5c0.827 0 1.5-0.673 1.5-1.5s-0.672-1.5-1.5-1.5zM7.002 14.5c-0.274 0-0.5-0.225-0.5-0.5 0-0.278 0.226-0.5 0.5-0.5 0.277 0 0.5 0.222 0.5 0.5 0 0.275-0.223 0.5-0.5 0.5zM13.001 12.5c-0.827 0-1.5 0.673-1.5 1.5s0.673 1.5 1.5 1.5 1.5-0.673 1.5-1.5-0.673-1.5-1.5-1.5zM13.001 14.5c-0.275 0-0.5-0.225-0.5-0.5 0-0.278 0.225-0.5 0.5-0.5 0.277 0 0.5 0.222 0.5 0.5 0 0.275-0.223 0.5-0.5 0.5zM15.887 3.939c-0.095-0.115-0.237-0.182-0.387-0.182h-11.181l-0.598-2.86c-0.048-0.231-0.252-0.397-0.489-0.397h-2.105c-0.293 0-0.498 0.107-0.666 0.347l-0.457 0.652h-0.004c0.001 0 0.002 0.001 0.004 0.001h2.822l0.592 2.835c0.004 0.017 0.007 0.033 0.012 0.049l1.139 5.448c0.177 0.842 0.941 1.443 1.816 1.443 0.012 0 0.024 0 0.037 0h6.615c0.888 0.005 1.683-0.589 1.864-1.449l1.090-5.472c0.029-0.146-0.010-0.298-0.104-0.415zM13.921 9.625c-0.082 0.386-0.412 0.672-0.875 0.65h-6.634c-0.407 0.001-0.784-0.265-0.865-0.649l-1.019-4.869h10.363l-0.97 4.868z"></path>
</svg>
