<!-- Generated by IcoMoon.io -->
<svg version="1.1" xmlns="http://www.w3.org/2000/svg" width="24" height="24" viewBox="0 0 24 24">
<title>shopping_cart</title>
<path fill="#444" d="M10.503 18.75c-1.241 0-2.25 1.009-2.25 2.25s1.009 2.25 2.25 2.25c1.24 0 2.25-1.009 2.25-2.25s-1.008-2.25-2.25-2.25zM10.503 21.75c-0.411 0-0.75-0.337-0.75-0.75 0-0.417 0.339-0.75 0.75-0.75 0.415 0 0.75 0.333 0.75 0.75 0 0.413-0.335 0.75-0.75 0.75zM19.502 18.75c-1.241 0-2.25 1.009-2.25 2.25s1.009 2.25 2.25 2.25 2.25-1.009 2.25-2.25-1.010-2.25-2.25-2.25zM19.502 21.75c-0.413 0-0.75-0.337-0.75-0.75 0-0.417 0.337-0.75 0.75-0.75 0.415 0 0.75 0.333 0.75 0.75 0 0.413-0.335 0.75-0.75 0.75zM23.831 5.909c-0.143-0.173-0.355-0.273-0.581-0.273h-16.771l-0.897-4.29c-0.072-0.347-0.378-0.596-0.734-0.596h-3.157c-0.44 0-0.747 0.16-0.999 0.52l-0.685 0.978h-0.006c0.002 0 0.003 0.002 0.006 0.002h4.233l0.888 4.252c0.006 0.026 0.011 0.050 0.018 0.074l1.708 8.172c0.265 1.263 1.411 2.165 2.724 2.165 0.018 0 0.036 0 0.056 0h9.923c1.332 0.008 2.524-0.884 2.796-2.174l1.635-8.208c0.044-0.219-0.015-0.447-0.156-0.623zM20.881 14.438c-0.123 0.579-0.618 1.008-1.313 0.975h-9.951c-0.611 0.001-1.176-0.398-1.297-0.973l-1.529-7.303h15.544l-1.455 7.302z"></path>
</svg>
