<!-- Generated by IcoMoon.io -->
<svg version="1.1" xmlns="http://www.w3.org/2000/svg" width="16" height="16" viewBox="0 0 16 16">
<title>shovel</title>
<path fill="#444" d="M14.865 7.952c-0.164-0.255-0.434-0.423-0.736-0.456-0.036-0.005-0.072-0.006-0.108-0.006-0.264 0-0.519 0.104-0.707 0.293l-2.408 2.408-4.956-4.946c0.005-0.018 0.015-0.030 0.019-0.047 0.274-1.1 0.149-2.226-0.374-3.348-0.303-0.651-0.695-1.174-0.97-1.497-0.182-0.214-0.443-0.342-0.722-0.353-0.014 0-0.028 0-0.041 0-0.265 0-0.519 0.104-0.707 0.292l-2.863 2.861c-0.196 0.197-0.303 0.469-0.291 0.747 0.012 0.28 0.14 0.542 0.354 0.724 0.325 0.273 0.85 0.666 1.5 0.971 0.733 0.34 1.475 0.513 2.204 0.513 0.382 0 0.766-0.047 1.142-0.141 0.013-0.003 0.026-0.014 0.039-0.018l4.958 4.951-2.409 2.41c-0.214 0.215-0.32 0.516-0.287 0.817s0.202 0.572 0.459 0.734c0.819 0.52 2.154 1.139 3.855 1.139 0.994 0 2.010-0.21 3.018-0.627 0.247-0.103 0.442-0.298 0.544-0.546 1.319-3.212 0.245-5.686-0.513-6.875zM2.276 4.688c-0.547-0.256-0.989-0.585-1.276-0.828l2.862-2.86c0.243 0.285 0.573 0.728 0.827 1.271 0.281 0.605 0.462 1.32 0.393 2.108-0.017 0.188-0.035 0.378-0.084 0.577l-0.039 0.040c-0.202 0.051-0.396 0.069-0.59 0.086-0.784 0.064-1.494-0.115-2.093-0.394zM14.453 14.448c-0.885 0.364-1.772 0.551-2.637 0.551v0c-1.455 0-2.605-0.53-3.319-0.983l5.524-5.525c0.714 1.118 1.557 3.218 0.432 5.957z"></path>
</svg>
