<!-- Generated by IcoMoon.io -->
<svg version="1.1" xmlns="http://www.w3.org/2000/svg" width="24" height="24" viewBox="0 0 24 24">
<title>shovel</title>
<path fill="#444" d="M21.439 11.935c-0.225-0.351-0.597-0.582-1.012-0.628-0.049-0.006-0.099-0.008-0.149-0.008-0.362 0-0.713 0.144-0.972 0.403l-3.311 3.312-6.813-6.802c0.006-0.024 0.020-0.042 0.025-0.065 0.377-1.513 0.206-3.062-0.514-4.604-0.416-0.895-0.956-1.613-1.334-2.059-0.25-0.294-0.609-0.469-0.993-0.484-0.018 0-0.037 0-0.056 0-0.364 0-0.713 0.143-0.972 0.401l-3.936 3.935c-0.271 0.269-0.417 0.644-0.401 1.027 0.016 0.385 0.192 0.745 0.486 0.995 0.447 0.376 1.168 0.915 2.062 1.334 1.009 0.468 2.028 0.705 3.031 0.705 0.525 0 1.053-0.064 1.569-0.193 0.018-0.004 0.037-0.018 0.054-0.024l6.818 6.809-3.311 3.312c-0.295 0.295-0.44 0.709-0.395 1.124 0.046 0.415 0.278 0.786 0.631 1.010 1.127 0.713 2.962 1.565 5.301 1.565 1.367 0 2.763-0.289 4.149-0.862 0.34-0.141 0.608-0.409 0.748-0.75 1.814-4.417 0.337-7.82-0.705-9.453zM4.129 7.445c-0.752-0.352-1.36-0.805-1.754-1.138l3.935-3.932c0.334 0.393 0.788 1 1.137 1.748 0.387 0.831 0.635 1.814 0.54 2.898-0.023 0.259-0.047 0.52-0.115 0.793l-0.054 0.055c-0.278 0.070-0.545 0.096-0.811 0.119-1.077 0.088-2.053-0.159-2.878-0.543zM20.873 20.866c-1.217 0.501-2.438 0.758-3.625 0.758v0c-2.001 0-3.582-0.729-4.564-1.353l7.596-7.597c0.981 1.539 2.14 4.426 0.593 8.192z"></path>
</svg>
