<!-- Generated by IcoMoon.io -->
<svg version="1.1" xmlns="http://www.w3.org/2000/svg" width="24" height="24" viewBox="0 0 24 24">
<title>shovel</title>
<path fill="#444" d="M22.297 11.928c-0.246-0.383-0.651-0.635-1.104-0.684-0.054-0.008-0.108-0.009-0.162-0.009-0.396 0-0.778 0.156-1.061 0.439l-3.612 3.612-7.434-7.419c0.008-0.027 0.023-0.045 0.029-0.071 0.411-1.65 0.223-3.339-0.561-5.022-0.454-0.977-1.043-1.761-1.455-2.246-0.273-0.321-0.664-0.513-1.083-0.529-0.021 0-0.042 0-0.061 0-0.398 0-0.779 0.156-1.061 0.438l-4.295 4.292c-0.294 0.295-0.455 0.703-0.436 1.12 0.018 0.42 0.21 0.813 0.531 1.086 0.488 0.409 1.275 0.999 2.25 1.457 1.099 0.51 2.213 0.769 3.306 0.769 0.573 0 1.149-0.070 1.713-0.211 0.019-0.005 0.039-0.021 0.058-0.027l7.437 7.426-3.613 3.615c-0.321 0.323-0.48 0.774-0.431 1.226 0.051 0.453 0.303 0.858 0.688 1.101 1.228 0.78 3.231 1.708 5.782 1.708 1.491 0 3.015-0.315 4.527-0.941 0.37-0.154 0.663-0.447 0.816-0.819 1.978-4.818 0.367-8.529-0.77-10.313zM3.414 7.032c-0.821-0.384-1.483-0.878-1.914-1.242l4.293-4.29c0.365 0.427 0.86 1.092 1.24 1.906 0.421 0.908 0.693 1.98 0.589 3.162-0.026 0.282-0.053 0.567-0.126 0.865l-0.058 0.060c-0.303 0.076-0.594 0.103-0.885 0.129-1.176 0.096-2.241-0.172-3.14-0.591zM21.679 21.672c-1.327 0.546-2.658 0.826-3.956 0.826v0c-2.182 0-3.907-0.795-4.978-1.474l8.286-8.288c1.071 1.677 2.335 4.827 0.648 8.936z"></path>
</svg>
