<!-- Generated by IcoMoon.io -->
<svg version="1.1" xmlns="http://www.w3.org/2000/svg" width="16" height="16" viewBox="0 0 16 16">
<title>sign_accessibility</title>
<path fill="#444" d="M6.906 4c1.103 0 2-0.897 2-2s-0.897-2-2-2-2 0.897-2 2 0.897 2 2 2zM6.906 1c0.552 0 1 0.447 1 1s-0.448 1-1 1-1-0.447-1-1 0.448-1 1-1zM11.506 10.247c-0.090-0.153-0.254-0.247-0.431-0.247h-3.686v-2h3l-0.467-0.667c-0.141-0.2-0.313-0.28-0.533-0.308l-0.5-0.025h-1.5v-1c-0.027-0.22-0.165-0.393-0.367-0.533l-0.647-0.467v2.025c-2.367 0.132-4.25 2.075-4.25 4.475 0 2.485 2.015 4.5 4.5 4.5 2.468 0 4.467-1.988 4.495-4.45l1.451 2.412c0.142 0.151 0.3 0.244 0.534 0.245l0.771 0.003-2.37-3.963zM6.625 15c-1.93 0-3.5-1.57-3.5-3.5 0-1.844 1.438-3.344 3.25-3.475v2.475c0 0.276 0.237 0.5 0.514 0.5h3.186c0.023 0.165 0.050 0.329 0.050 0.5 0 1.93-1.57 3.5-3.5 3.5z"></path>
</svg>
