<!-- Generated by IcoMoon.io -->
<svg version="1.1" xmlns="http://www.w3.org/2000/svg" width="24" height="24" viewBox="0 0 24 24">
<title>sign_prohibid</title>
<path fill="#444" d="M20.52 20.447c2.151-2.168 3.48-5.152 3.48-8.447 0-6.627-5.373-12-12-12-3.296 0-6.279 1.331-8.447 3.478l-0.993 1.128c-1.599 2.040-2.561 4.602-2.561 7.394 0 6.627 5.373 12 12 12 2.792 0 5.353-0.962 7.392-2.561l1.128-0.993zM12 1.5c5.79 0 10.5 4.712 10.5 10.5 0 2.875-1.164 5.484-3.044 7.383l-14.838-14.84c1.897-1.879 4.506-3.043 7.381-3.043zM12 22.5c-5.79 0-10.5-4.712-10.5-10.5 0-2.373 0.801-4.558 2.135-6.319l14.685 14.685c-1.761 1.334-3.945 2.134-6.319 2.134z"></path>
</svg>
