<!-- Generated by IcoMoon.io -->
<svg version="1.1" xmlns="http://www.w3.org/2000/svg" width="24" height="24" viewBox="0 0 24 24">
<title>sign_radioactive</title>
<path fill="#444" d="M23.692 18.648l-9.728-15.534c-0.657-1.036-2.072-1.371-3.155-0.741-0.315 0.182-0.582 0.437-0.772 0.741l-9.729 15.534c-0.634 1.052-0.258 2.397 0.84 3.003 0.342 0.188 0.729 0.289 1.124 0.295h19.459c1.268-0.015 2.285-1.008 2.269-2.22-0.005-0.38-0.11-0.752-0.309-1.079zM22.309 20.201c-0.152 0.156-0.36 0.24-0.59 0.246h-19.448c-0.129-0.003-0.275-0.040-0.402-0.111-0.174-0.096-0.3-0.249-0.348-0.43-0.032-0.114-0.044-0.29 0.072-0.48l9.716-15.514c0.058-0.093 0.147-0.178 0.25-0.237 0.135-0.079 0.285-0.12 0.438-0.12 0.289 0 0.559 0.141 0.7 0.363l9.723 15.528c0.047 0.077 0.078 0.184 0.078 0.293 0.003 0.221-0.102 0.372-0.191 0.463zM16.13 11.884c-0.277-0.481-0.634-0.906-1.061-1.26-0.271-0.227-0.611-0.347-0.958-0.347-0.088 0-0.177 0.008-0.265 0.024-0.435 0.078-0.813 0.345-1.035 0.729l-0.671 1.165c-0.073 0.128-0.12 0.265-0.153 0.404-0.033-0.143-0.080-0.284-0.156-0.415l-0.666-1.155c-0.222-0.384-0.604-0.651-1.043-0.728-0.086-0.015-0.171-0.022-0.257-0.022-0.352 0-0.697 0.125-0.97 0.355-0.396 0.338-0.735 0.74-1.010 1.206-0.284 0.48-0.474 0.999-0.57 1.54-0.077 0.436 0.043 0.885 0.329 1.224s0.707 0.535 1.149 0.535h1.33c0.177 0 0.351-0.042 0.516-0.11-0.139 0.112-0.269 0.241-0.363 0.404l-0.681 1.163c-0.228 0.389-0.268 0.858-0.113 1.281 0.158 0.421 0.497 0.751 0.923 0.897 0.495 0.169 1.026 0.255 1.575 0.255 0.545 0 1.069-0.086 1.56-0.255 0.422-0.144 0.758-0.47 0.915-0.886s0.123-0.884-0.098-1.272l-0.662-1.167c-0.112-0.198-0.299-0.352-0.51-0.476 0.201 0.097 0.417 0.168 0.653 0.168h1.369c0.446 0 0.869-0.198 1.154-0.54s0.404-0.795 0.321-1.233c-0.096-0.519-0.284-1.018-0.553-1.485zM10.123 13.643h-1.331c0.065-0.369 0.192-0.714 0.386-1.043 0.189-0.319 0.415-0.591 0.687-0.821l0.666 1.155c-0.192 0.201-0.329 0.438-0.408 0.708zM11.411 13.698c0.166-0.158 0.361-0.239 0.58-0.239 0.232 0 0.424 0.081 0.582 0.239 0.157 0.159 0.235 0.354 0.235 0.586 0 0.223-0.082 0.417-0.243 0.582-0.164 0.162-0.354 0.243-0.575 0.243-0.24 0-0.44-0.078-0.595-0.234-0.158-0.159-0.237-0.358-0.237-0.592 0-0.231 0.084-0.426 0.252-0.585zM11.98 17.53c-0.387 0-0.748-0.057-1.092-0.174l0.681-1.163c0.123 0.027 0.249 0.039 0.378 0.039 0.156 0 0.306-0.015 0.443-0.042l0.662 1.167c-0.335 0.114-0.69 0.173-1.071 0.173zM13.839 13.643c-0.080-0.26-0.213-0.494-0.399-0.699l0.67-1.165c0.291 0.242 0.528 0.525 0.718 0.855 0.188 0.324 0.312 0.657 0.378 1.010h-1.368z"></path>
</svg>
