<!-- Generated by IcoMoon.io -->
<svg version="1.1" xmlns="http://www.w3.org/2000/svg" width="16" height="16" viewBox="0 0 16 16">
<title>sign_recycle</title>
<path fill="#444" d="M5.644 12.483l-0.324-0.131c-1.471-0.891-2.47-2.482-2.47-4.326 0-0.042 0.008-0.083 0.009-0.126l-1.421 2.032c-0.169 0.238-0.356 0.346-0.649 0.346h-0.814l2.604-3.719c0.060-0.084 0.128-0.133 0.195-0.186h-0.002c0.103-0.070 0.214-0.119 0.347-0.137l0.23-0.012 0.229 0.012c0.146 0.020 0.267 0.078 0.375 0.162 0.059 0.045 0.116 0.086 0.167 0.157l0.459 0.656h0.002l2.146 3.066h-0.813c-0.292 0-0.48-0.107-0.649-0.346l-1.407-2.010c-0.002 0.036-0.008 0.069-0.008 0.105 0 1.913 1.322 3.511 3.097 3.962l-0.69 0.442c-0.212 0.122-0.403 0.122-0.613 0.053zM12.645 7.312l-0.728-0.376c0.498 1.762-0.225 3.706-1.882 4.663-0.031 0.018-0.063 0.028-0.095 0.045l1.037-2.224c0.122-0.266 0.121-0.482-0.025-0.735l-0.406-0.705-1.582 3.393v0.002l-0.338 0.726c-0.036 0.079-0.043 0.149-0.053 0.221-0.020 0.137-0.010 0.27 0.047 0.405l0.105 0.205 0.125 0.193c0.080 0.107 0.179 0.179 0.291 0.232v-0.001c0.080 0.032 0.154 0.067 0.258 0.077l4.523 0.396-0.407-0.705c-0.146-0.254-0.333-0.362-0.625-0.39l-2.469-0.215c0.037-0.021 0.076-0.034 0.113-0.056 1.597-0.922 2.475-2.582 2.511-4.302l-0.048-0.347c-0.045-0.214-0.141-0.378-0.352-0.502zM5.019 4.34l0.039 0.817c1.276-1.312 3.322-1.658 4.979-0.701 0.031 0.018 0.057 0.040 0.087 0.060l-2.445 0.213c-0.291 0.027-0.479 0.136-0.624 0.39l-0.408 0.703 4.528-0.396c0.087-0.009 0.151-0.038 0.219-0.065 0.128-0.052 0.238-0.126 0.328-0.243l0.124-0.193 0.104-0.205c0.054-0.123 0.066-0.244 0.057-0.369l-0.001 0.001c-0.013-0.085-0.019-0.167-0.062-0.263l-1.92-4.114-0.406 0.704c-0.147 0.254-0.148 0.469-0.025 0.735l1.048 2.246c-0.036-0.021-0.067-0.049-0.104-0.070-1.598-0.922-3.475-0.852-4.982-0.024l-0.276 0.215c-0.165 0.148-0.259 0.314-0.26 0.559z"></path>
</svg>
