<!-- Generated by IcoMoon.io -->
<svg version="1.1" xmlns="http://www.w3.org/2000/svg" width="24" height="24" viewBox="0 0 24 24">
<title>sign_recycle</title>
<path fill="#444" d="M8.869 17.854l-0.424-0.177c-1.939-1.171-3.257-3.268-3.257-5.696 0-0.061 0.010-0.114 0.014-0.17l-1.874 2.676c-0.223 0.316-0.469 0.459-0.854 0.459h-1.075l3.431-4.9c0.079-0.109 0.17-0.177 0.258-0.246v0c0.135-0.092 0.28-0.159 0.457-0.181l0.305-0.017 0.3 0.017c0.194 0.029 0.354 0.104 0.494 0.214 0.077 0.059 0.152 0.111 0.22 0.21l0.604 0.862h0.002l2.831 4.041h-1.074c-0.385 0-0.631-0.143-0.854-0.459l-1.855-2.646c-0.001 0.044-0.010 0.091-0.010 0.14 0 2.519 1.742 4.622 4.082 5.217l-0.91 0.585c-0.282 0.161-0.532 0.161-0.811 0.071zM18.096 11.038l-0.959-0.492c0.659 2.32-0.293 4.883-2.479 6.143-0.040 0.021-0.083 0.039-0.126 0.059l1.369-2.93c0.158-0.353 0.157-0.633-0.034-0.969l-0.536-0.932-2.531 5.434c-0.047 0.1-0.056 0.196-0.068 0.29-0.026 0.181-0.014 0.355 0.059 0.536l0.141 0.27 0.164 0.255c0.106 0.142 0.238 0.233 0.384 0.305v-0.001c0.106 0.041 0.205 0.089 0.341 0.104l5.96 0.52-0.537-0.93c-0.192-0.338-0.439-0.479-0.825-0.515l-3.252-0.279c0.048-0.030 0.1-0.049 0.15-0.079 2.103-1.212 3.26-3.399 3.307-5.663l-0.063-0.462c-0.061-0.286-0.186-0.502-0.465-0.664zM8.048 7.121l0.049 1.077c1.684-1.726 4.379-2.186 6.561-0.921 0.042 0.022 0.076 0.047 0.115 0.076l-3.222 0.277c-0.384 0.036-0.63 0.18-0.82 0.517l-0.537 0.929 5.966-0.523c0.112-0.013 0.199-0.051 0.288-0.086 0.167-0.070 0.314-0.165 0.433-0.322l0.163-0.253 0.137-0.271c0.071-0.161 0.088-0.321 0.077-0.485l-0.001 0.002c-0.018-0.117-0.025-0.226-0.084-0.351l-2.527-5.421-0.537 0.931c-0.195 0.337-0.196 0.621-0.034 0.968l1.381 2.96c-0.047-0.029-0.089-0.066-0.137-0.091-2.106-1.218-4.579-1.126-6.566-0.032l-0.362 0.283c-0.217 0.197-0.342 0.415-0.343 0.736z"></path>
</svg>
