<!-- Generated by IcoMoon.io -->
<svg version="1.1" xmlns="http://www.w3.org/2000/svg" width="16" height="16" viewBox="0 0 16 16">
<title>sign_radioactive</title>
<path fill="#444" d="M15.795 12.432l-6.485-10.356c-0.438-0.691-1.381-0.914-2.103-0.494-0.21 0.121-0.388 0.291-0.515 0.494l-6.486 10.356c-0.423 0.701-0.172 1.598 0.56 2.002 0.228 0.125 0.486 0.193 0.749 0.197h12.973c0.845-0.010 1.523-0.672 1.513-1.48-0.003-0.253-0.073-0.501-0.206-0.719zM14.873 13.467c-0.101 0.104-0.24 0.16-0.393 0.164h-12.965c-0.086-0.002-0.183-0.027-0.268-0.074-0.116-0.064-0.2-0.166-0.232-0.287-0.021-0.076-0.029-0.193 0.048-0.32l6.477-10.343c0.039-0.062 0.098-0.119 0.167-0.158 0.090-0.053 0.19-0.080 0.292-0.080 0.193 0 0.373 0.094 0.467 0.242l6.482 10.352c0.031 0.051 0.052 0.123 0.052 0.195 0.002 0.147-0.068 0.248-0.127 0.309zM10.753 7.923c-0.185-0.321-0.423-0.604-0.707-0.84-0.181-0.151-0.407-0.231-0.639-0.231-0.059 0-0.118 0.005-0.177 0.016-0.29 0.052-0.542 0.23-0.69 0.486l-0.447 0.777c-0.049 0.085-0.080 0.177-0.102 0.269-0.022-0.095-0.053-0.189-0.104-0.277l-0.444-0.77c-0.148-0.256-0.403-0.434-0.695-0.485-0.057-0.010-0.114-0.015-0.171-0.015-0.235 0-0.465 0.083-0.647 0.237-0.264 0.225-0.49 0.493-0.673 0.804-0.189 0.32-0.316 0.666-0.38 1.027-0.051 0.291 0.029 0.59 0.219 0.816s0.471 0.357 0.766 0.357h0.887c0.118 0 0.234-0.028 0.344-0.073-0.093 0.075-0.179 0.161-0.242 0.269l-0.454 0.775c-0.152 0.259-0.179 0.572-0.075 0.854 0.105 0.281 0.331 0.501 0.615 0.598 0.33 0.113 0.684 0.17 1.050 0.17 0.363 0 0.713-0.057 1.040-0.17 0.281-0.096 0.505-0.313 0.61-0.591s0.082-0.589-0.065-0.848l-0.441-0.778c-0.075-0.132-0.199-0.235-0.34-0.317 0.134 0.065 0.278 0.112 0.435 0.112h0.913c0.297 0 0.579-0.132 0.769-0.36s0.269-0.53 0.214-0.822c-0.064-0.346-0.189-0.679-0.369-0.99zM6.749 9.095h-0.887c0.043-0.246 0.128-0.476 0.257-0.695 0.126-0.213 0.277-0.394 0.458-0.547l0.444 0.77c-0.128 0.134-0.219 0.292-0.272 0.472zM7.607 9.132c0.111-0.105 0.241-0.159 0.387-0.159 0.155 0 0.283 0.054 0.388 0.159s0.157 0.236 0.157 0.391c0 0.149-0.055 0.278-0.162 0.388-0.109 0.108-0.236 0.162-0.383 0.162-0.16 0-0.293-0.052-0.397-0.156-0.105-0.106-0.158-0.239-0.158-0.395 0-0.154 0.056-0.284 0.168-0.39zM7.987 11.687c-0.258 0-0.499-0.038-0.728-0.116l0.454-0.775c0.082 0.018 0.166 0.026 0.252 0.026 0.104 0 0.204-0.010 0.295-0.028l0.441 0.778c-0.223 0.076-0.46 0.115-0.714 0.115zM9.226 9.095c-0.053-0.173-0.142-0.329-0.266-0.466l0.447-0.777c0.194 0.161 0.352 0.35 0.479 0.57 0.125 0.216 0.208 0.438 0.252 0.673h-0.912z"></path>
</svg>
