<!-- Generated by IcoMoon.io -->
<svg version="1.1" xmlns="http://www.w3.org/2000/svg" width="24" height="24" viewBox="0 0 24 24">
<title>sign_recycle</title>
<path fill="#444" d="M8.466 18.724l-0.486-0.197c-2.207-1.336-3.705-3.723-3.705-6.489 0-0.063 0.012-0.124 0.013-0.189l-2.131 3.048c-0.254 0.357-0.534 0.519-0.974 0.519h-1.221l3.906-5.578c0.090-0.126 0.192-0.2 0.292-0.279h-0.003c0.155-0.105 0.321-0.178 0.521-0.206l0.345-0.018 0.344 0.018c0.219 0.030 0.4 0.117 0.563 0.243 0.088 0.068 0.174 0.129 0.25 0.236l0.688 0.984h0.003l3.219 4.599h-1.22c-0.438 0-0.72-0.16-0.973-0.519l-2.111-3.015c-0.003 0.054-0.012 0.104-0.012 0.158 0 2.869 1.983 5.267 4.645 5.943l-1.035 0.663c-0.318 0.183-0.605 0.183-0.919 0.080zM18.968 10.968l-1.092-0.564c0.747 2.643-0.337 5.559-2.823 6.994-0.046 0.027-0.095 0.042-0.143 0.068l1.555-3.336c0.183-0.399 0.182-0.723-0.037-1.102l-0.609-1.057-2.373 5.089v0.003l-0.507 1.089c-0.054 0.118-0.064 0.223-0.080 0.331-0.030 0.206-0.015 0.405 0.071 0.607l0.157 0.308 0.188 0.29c0.12 0.16 0.269 0.268 0.437 0.348v-0.002c0.12 0.048 0.231 0.101 0.387 0.116l6.785 0.594-0.611-1.058c-0.219-0.381-0.5-0.543-0.938-0.585l-3.703-0.323c0.056-0.032 0.114-0.051 0.169-0.084 2.395-1.383 3.712-3.873 3.767-6.453l-0.072-0.521c-0.067-0.321-0.212-0.567-0.528-0.753zM7.529 6.51l0.058 1.226c1.914-1.968 4.983-2.487 7.468-1.051 0.047 0.027 0.085 0.060 0.13 0.090l-3.668 0.32c-0.437 0.040-0.719 0.204-0.936 0.585l-0.612 1.055 6.792-0.594c0.13-0.014 0.227-0.057 0.328-0.098 0.192-0.078 0.357-0.189 0.492-0.364l0.186-0.29 0.156-0.307c0.081-0.185 0.099-0.366 0.085-0.553l-0.002 0.002c-0.019-0.127-0.028-0.25-0.093-0.394l-2.88-6.171-0.609 1.056c-0.221 0.381-0.222 0.704-0.038 1.103l1.572 3.369c-0.054-0.032-0.101-0.074-0.156-0.105-2.397-1.383-5.212-1.278-7.473-0.036l-0.414 0.322c-0.248 0.222-0.389 0.471-0.39 0.839z"></path>
</svg>
