<!-- Generated by IcoMoon.io -->
<svg version="1.1" xmlns="http://www.w3.org/2000/svg" width="16" height="16" viewBox="0 0 16 16">
<title>sign_prohibid</title>
<path fill="#444" d="M13.68 13.631c1.434-1.445 2.32-3.435 2.32-5.631 0-4.418-3.582-8-8-8-2.197 0-4.186 0.887-5.631 2.319l-0.662 0.752c-1.066 1.36-1.707 3.068-1.707 4.929 0 4.418 3.582 8 8 8 1.861 0 3.569-0.641 4.928-1.707l0.752-0.662zM8 1c3.86 0 7 3.141 7 7 0 1.917-0.776 3.656-2.029 4.922l-9.892-9.893c1.265-1.253 3.004-2.029 4.921-2.029zM8 15c-3.86 0-7-3.141-7-7 0-1.582 0.534-3.039 1.423-4.213l9.79 9.79c-1.174 0.889-2.63 1.423-4.213 1.423z"></path>
</svg>
