<!-- Generated by IcoMoon.io -->
<svg version="1.1" xmlns="http://www.w3.org/2000/svg" width="24" height="24" viewBox="0 0 24 24">
<title>sign_accessibility</title>
<path fill="#444" d="M10.359 6c1.655 0 3-1.346 3-3s-1.346-3-3-3-3 1.345-3 3 1.346 3 3 3zM10.359 1.5c0.828 0 1.5 0.671 1.5 1.5s-0.672 1.5-1.5 1.5-1.5-0.671-1.5-1.5 0.672-1.5 1.5-1.5zM17.259 15.37c-0.135-0.23-0.381-0.37-0.646-0.37h-5.529v-3h4.5l-0.7-1c-0.211-0.3-0.47-0.42-0.8-0.462l-0.75-0.038h-2.25v-1.5c-0.040-0.33-0.247-0.589-0.55-0.8l-0.97-0.7v3.038c-3.551 0.198-6.375 3.113-6.375 6.712 0 3.727 3.022 6.75 6.75 6.75 3.702 0 6.7-2.982 6.742-6.675l2.177 3.618c0.213 0.227 0.45 0.366 0.801 0.367l1.157 0.005-3.555-5.944zM9.938 22.5c-2.895 0-5.25-2.355-5.25-5.25 0-2.766 2.157-5.016 4.875-5.212v3.712c0 0.414 0.355 0.75 0.771 0.75h4.779c0.034 0.247 0.075 0.494 0.075 0.75 0 2.895-2.355 5.25-5.25 5.25z"></path>
</svg>
