<!-- Generated by IcoMoon.io -->
<svg version="1.1" xmlns="http://www.w3.org/2000/svg" width="24" height="24" viewBox="0 0 24 24">
<title>slider</title>
<path fill="#444" d="M22.365 4.916l0.628 0.896h-6.873c-0.379 0-0.688-0.308-0.688-0.688s0.309-0.688 0.688-0.688l5.329 0.001c0.404 0.001 0.686 0.15 0.916 0.479zM22.993 12.687l-0.628-0.897c-0.23-0.329-0.512-0.477-0.916-0.477h-8.078c-0.379 0-0.688 0.308-0.688 0.688s0.308 0.688 0.688 0.688l9.622-0.002c0.003 0.001 0.004 0 0.007 0h-0.007zM21.449 18.188l-2.58-0.001c-0.38 0-0.688 0.308-0.688 0.688s0.308 0.688 0.688 0.688h4.124l-0.628-0.896c-0.23-0.33-0.512-0.479-0.916-0.479zM11.309 7.188c-0.896 0-1.651-0.574-1.936-1.375h-6.83c-0.402 0-0.684-0.149-0.915-0.479l-0.628-0.896h8.374c0.284-0.801 1.040-1.375 1.936-1.375 1.138 0 2.062 0.923 2.062 2.062s-0.925 2.063-2.063 2.063zM11.309 4.438c-0.378 0-0.688 0.309-0.688 0.688s0.309 0.688 0.688 0.688c0.379 0 0.688-0.309 0.688-0.688s-0.309-0.688-0.688-0.688zM8.56 14.062c-0.896 0-1.651-0.574-1.936-1.375h-4.081c-0.402 0-0.684-0.149-0.915-0.479l-0.628-0.896h5.624c0.284-0.801 1.040-1.375 1.936-1.375 1.139 0 2.062 0.923 2.062 2.062s-0.924 2.063-2.062 2.063zM8.56 11.312c-0.378 0-0.687 0.309-0.687 0.688s0.308 0.688 0.687 0.688c0.379 0 0.688-0.309 0.688-0.688s-0.309-0.688-0.688-0.688zM14.059 20.938c-0.896 0-1.652-0.574-1.936-1.375h-9.58c-0.402 0-0.684-0.149-0.915-0.479l-0.628-0.896h11.123c0.284-0.801 1.040-1.375 1.936-1.375 1.138 0 2.062 0.923 2.062 2.062s-0.925 2.063-2.062 2.063zM14.059 18.188c-0.379 0-0.688 0.309-0.688 0.688s0.309 0.688 0.688 0.688c0.379 0 0.687-0.309 0.687-0.688s-0.308-0.688-0.687-0.688z"></path>
</svg>
