<!-- Generated by IcoMoon.io -->
<svg version="1.1" xmlns="http://www.w3.org/2000/svg" width="16" height="16" viewBox="0 0 16 16">
<title>slider</title>
<path fill="#444" d="M15.538 2.848l0.457 0.652h-4.999c-0.276 0-0.5-0.224-0.5-0.5s0.224-0.5 0.5-0.5l3.875 0.001c0.295 0 0.5 0.107 0.667 0.347zM15.995 8.499l-0.457-0.652c-0.167-0.24-0.372-0.347-0.666-0.347h-5.875c-0.276 0-0.5 0.224-0.5 0.5s0.224 0.5 0.5 0.5l6.998-0.001c0.002 0.001 0.003 0 0.005 0h-0.005zM14.872 12.501l-1.876-0.001c-0.276 0-0.5 0.224-0.5 0.5s0.224 0.5 0.5 0.5h2.999l-0.457-0.652c-0.167-0.24-0.372-0.347-0.666-0.347zM7.498 4.5c-0.651 0-1.201-0.418-1.408-1h-4.967c-0.292 0-0.498-0.108-0.666-0.348l-0.457-0.652h6.090c0.207-0.582 0.756-1 1.408-1 0.828 0 1.5 0.671 1.5 1.5s-0.673 1.5-1.5 1.5zM7.498 2.5c-0.275 0-0.5 0.225-0.5 0.5s0.225 0.5 0.5 0.5c0.276 0 0.5-0.225 0.5-0.5s-0.225-0.5-0.5-0.5zM5.498 9.5c-0.651 0-1.201-0.418-1.408-1h-2.967c-0.292 0-0.498-0.108-0.666-0.348l-0.457-0.652h4.090c0.207-0.582 0.756-1 1.408-1 0.828 0 1.5 0.671 1.5 1.5s-0.672 1.5-1.5 1.5zM5.498 7.5c-0.275 0-0.5 0.225-0.5 0.5s0.224 0.5 0.5 0.5c0.276 0 0.5-0.225 0.5-0.5s-0.224-0.5-0.5-0.5zM9.497 14.5c-0.651 0-1.201-0.418-1.408-1h-6.966c-0.292 0-0.498-0.108-0.666-0.348l-0.457-0.652h8.089c0.207-0.582 0.756-1 1.408-1 0.828 0 1.5 0.671 1.5 1.5s-0.672 1.5-1.5 1.5zM9.497 12.5c-0.275 0-0.5 0.225-0.5 0.5s0.225 0.5 0.5 0.5c0.276 0 0.5-0.225 0.5-0.5s-0.224-0.5-0.5-0.5z"></path>
</svg>
