<!-- Generated by IcoMoon.io -->
<svg version="1.1" xmlns="http://www.w3.org/2000/svg" width="24" height="24" viewBox="0 0 24 24">
<title>slider</title>
<path fill="#444" d="M23.307 4.272l0.685 0.978h-7.498c-0.414 0-0.75-0.336-0.75-0.75s0.336-0.75 0.75-0.75l5.813 0.002c0.442 0 0.75 0.16 1 0.521zM23.992 12.748l-0.686-0.978c-0.25-0.36-0.558-0.521-0.999-0.521h-8.813c-0.414 0-0.75 0.336-0.75 0.75s0.336 0.75 0.75 0.75l10.497-0.002c0.003 0.002 0.005 0 0.008 0h-0.008zM22.308 18.752l-2.814-0.002c-0.414 0-0.75 0.336-0.75 0.75s0.336 0.75 0.75 0.75h4.498l-0.685-0.978c-0.251-0.36-0.558-0.521-0.999-0.521zM11.247 6.75c-0.976 0-1.801-0.627-2.112-1.5h-7.45c-0.438 0-0.747-0.162-0.999-0.522l-0.685-0.978h9.135c0.31-0.873 1.134-1.5 2.112-1.5 1.242 0 2.25 1.007 2.25 2.25s-1.010 2.25-2.25 2.25zM11.247 3.75c-0.412 0-0.75 0.338-0.75 0.75s0.338 0.75 0.75 0.75c0.414 0 0.75-0.338 0.75-0.75s-0.337-0.75-0.75-0.75zM8.247 14.25c-0.976 0-1.801-0.627-2.112-1.5h-4.45c-0.438 0-0.747-0.162-0.999-0.522l-0.685-0.978h6.135c0.31-0.873 1.134-1.5 2.112-1.5 1.242 0 2.25 1.007 2.25 2.25s-1.008 2.25-2.25 2.25zM8.247 11.25c-0.412 0-0.75 0.337-0.75 0.75s0.336 0.75 0.75 0.75c0.414 0 0.75-0.337 0.75-0.75s-0.336-0.75-0.75-0.75zM14.245 21.75c-0.976 0-1.802-0.627-2.112-1.5h-10.449c-0.438 0-0.747-0.162-0.999-0.522l-0.685-0.978h12.134c0.311-0.873 1.134-1.5 2.112-1.5 1.242 0 2.25 1.006 2.25 2.25s-1.008 2.25-2.25 2.25zM14.245 18.75c-0.413 0-0.75 0.337-0.75 0.75s0.337 0.75 0.75 0.75c0.414 0 0.75-0.337 0.75-0.75s-0.336-0.75-0.75-0.75z"></path>
</svg>
