<!-- Generated by IcoMoon.io -->
<svg version="1.1" xmlns="http://www.w3.org/2000/svg" width="16" height="16" viewBox="0 0 16 16">
<title>sort</title>
<path fill="#444" d="M14.189 8l-5.419-7.67c-0.051-0.070-0.108-0.112-0.166-0.156-0.108-0.085-0.229-0.144-0.375-0.162l-0.229-0.012-0.23 0.012c-0.134 0.016-0.245 0.065-0.348 0.135l0.001 0.001c-0.067 0.053-0.135 0.101-0.195 0.185l-5.417 7.667 5.419 7.67c0.051 0.070 0.108 0.112 0.166 0.156 0.108 0.085 0.229 0.144 0.375 0.162l0.229 0.012 0.23-0.012c0.133-0.017 0.244-0.065 0.347-0.136l-0.001-0.001c0.067-0.053 0.136-0.101 0.195-0.185l5.418-7.666zM8 15.027l-4.726-6.68c-0.169-0.24-0.357-0.347-0.649-0.347h0.001c0.293 0 0.48-0.107 0.649-0.347l4.725-6.68 4.726 6.681c0.169 0.239 0.357 0.346 0.649 0.346h-0.001c-0.293 0-0.48 0.107-0.649 0.347l-4.725 6.68z"></path>
</svg>
