<!-- Generated by IcoMoon.io -->
<svg version="1.1" xmlns="http://www.w3.org/2000/svg" width="24" height="24" viewBox="0 0 24 24">
<title>sort</title>
<path fill="#444" d="M21.284 12l-8.129-11.505c-0.077-0.105-0.162-0.168-0.249-0.234-0.162-0.128-0.343-0.216-0.563-0.243l-0.344-0.018-0.345 0.018c-0.201 0.024-0.367 0.098-0.522 0.203l0.002 0.002c-0.101 0.079-0.203 0.151-0.293 0.277l-8.126 11.501 8.129 11.505c0.076 0.105 0.162 0.168 0.249 0.234 0.162 0.128 0.344 0.216 0.563 0.243l0.344 0.018 0.345-0.018c0.2-0.026 0.366-0.098 0.52-0.204l-0.002-0.001c0.101-0.080 0.204-0.152 0.293-0.277l8.127-11.499zM12 22.54l-7.089-10.020c-0.253-0.36-0.535-0.52-0.973-0.52h0.002c0.439 0 0.72-0.161 0.973-0.52l7.088-10.020 7.089 10.021c0.254 0.358 0.535 0.519 0.974 0.519h-0.002c-0.439 0-0.72 0.16-0.973 0.52l-7.087 10.020z"></path>
</svg>
