<!-- Generated by IcoMoon.io -->
<svg version="1.1" xmlns="http://www.w3.org/2000/svg" width="24" height="24" viewBox="0 0 24 24">
<title>sort</title>
<path fill="#444" d="M20.509 12l-6.815-9.645h-0.005l-0.629-0.902c-0.071-0.094-0.149-0.153-0.23-0.215-0.149-0.114-0.313-0.196-0.516-0.221l-0.314-0.017-0.318 0.018c-0.183 0.022-0.336 0.088-0.476 0.182l0.001 0.007c-0.091 0.070-0.186 0.136-0.269 0.249l-7.447 10.544 6.815 9.645h0.005l0.629 0.902c0.071 0.094 0.149 0.153 0.23 0.215 0.149 0.114 0.313 0.196 0.516 0.221l0.314 0.017 0.318-0.018c0.183-0.022 0.335-0.089 0.476-0.183l-0.001-0.007c0.091-0.070 0.186-0.136 0.269-0.249l7.447-10.543zM12 21.664l-6.498-9.188c-0.234-0.328-0.493-0.476-0.893-0.476h0.001c0.404 0 0.662-0.148 0.893-0.476l6.497-9.188 6.498 9.188c0.234 0.328 0.493 0.476 0.893 0.476h-0.001c-0.404 0-0.662 0.148-0.893 0.476l-6.497 9.188z"></path>
</svg>
