<!-- Generated by IcoMoon.io -->
<svg version="1.1" xmlns="http://www.w3.org/2000/svg" width="16" height="16" viewBox="0 0 16 16">
<title>speaker</title>
<path fill="#444" d="M10.735 0.099c-0.137-0.067-0.285-0.099-0.432-0.099-0.223 0-0.445 0.074-0.625 0.219l-4.726 3.781h-3.649c-0.553 0-1 0.447-1 1v6c0 0.553 0.447 1 1 1h3.649l4.726 3.781c0.18 0.145 0.402 0.219 0.625 0.219 0.147 0 0.295-0.032 0.433-0.099 0.347-0.167 0.567-0.517 0.567-0.901v-14c0-0.385-0.221-0.734-0.568-0.901zM10.303 15l-5-4h-4v-6h4l5-4v14zM13.016 4.258c0.239 1.3 0.356 2.524 0.356 3.742s-0.117 2.442-0.356 3.742c-0.010 0.054-0.031 0.102-0.056 0.147l0.007-0.042-0.581-0.57c-0.176-0.171-0.227-0.354-0.217-0.576 0 0 0.203-1.686 0.203-2.701s-0.203-2.701-0.203-2.701c-0.010-0.222 0.041-0.405 0.217-0.576l0.581-0.57-0.007-0.043c0.024 0.046 0.046 0.094 0.056 0.148zM15.697 8c0 2.066-0.301 4.135-0.888 6.15l-0.551-0.584c-0.157-0.166-0.199-0.341-0.19-0.543 0.409-1.656 0.629-3.341 0.629-5.023s-0.22-3.367-0.629-5.023c-0.009-0.202 0.033-0.377 0.19-0.543l0.552-0.584c0.586 2.015 0.887 4.084 0.887 6.15z"></path>
</svg>
