<!-- Generated by IcoMoon.io -->
<svg version="1.1" xmlns="http://www.w3.org/2000/svg" width="24" height="24" viewBox="0 0 24 24">
<title>speaker</title>
<path fill="#444" d="M15.761 1.136c-0.189-0.092-0.392-0.136-0.595-0.136-0.306 0-0.611 0.102-0.859 0.301l-6.498 5.199h-5.018c-0.76 0-1.375 0.615-1.375 1.375v8.25c0 0.76 0.615 1.375 1.375 1.375h5.018l6.498 5.199c0.248 0.199 0.553 0.301 0.859 0.301 0.203 0 0.406-0.044 0.595-0.136 0.477-0.229 0.78-0.71 0.78-1.239v-19.25c0-0.529-0.303-1.010-0.78-1.239zM15.166 21.625l-6.875-5.5h-5.5v-8.25h5.5l6.875-5.5v19.25zM18.896 6.854c0.329 1.787 0.49 3.471 0.49 5.146s-0.161 3.358-0.49 5.146c-0.014 0.074-0.043 0.14-0.077 0.203l0.009-0.058-0.799-0.785c-0.242-0.234-0.312-0.487-0.298-0.792 0 0 0.279-2.317 0.279-3.714s-0.279-3.714-0.279-3.714c-0.014-0.305 0.056-0.558 0.298-0.792l0.799-0.785-0.008-0.058c0.034 0.064 0.063 0.129 0.076 0.203zM22.584 12c0 2.842-0.414 5.686-1.221 8.457l-0.757-0.803c-0.216-0.229-0.274-0.469-0.262-0.747 0.563-2.277 0.865-4.594 0.865-6.907s-0.302-4.63-0.865-6.907c-0.012-0.278 0.046-0.519 0.262-0.747l0.757-0.803c0.807 2.771 1.221 5.615 1.221 8.457z"></path>
</svg>
