<!-- Generated by IcoMoon.io -->
<svg version="1.1" xmlns="http://www.w3.org/2000/svg" width="16" height="16" viewBox="0 0 16 16">
<title>speaker_off</title>
<path fill="#444" d="M6.021 3.386c0-0.149 0.087-0.312 0.167-0.375 3.289-2.644 3.49-2.792 3.49-2.792 0.181-0.145 0.402-0.219 0.625-0.219 0.147 0 0.295 0.032 0.433 0.099 0.347 0.167 0.567 0.516 0.567 0.901v6.5c0 0.276-0.224 0.5-0.5 0.5s-0.5-0.224-0.5-0.5 0-0.375 0-0.375v-6.125l-3.411 2.715c-0.092 0.102-0.222 0.171-0.371 0.171-0.276 0-0.5-0.224-0.5-0.5zM15.525 14.551l-0.336-0.371-14.127-14.127-0.141 0.801c-0.043 0.242 0.022 0.42 0.159 0.595l2.516 2.551h-2.293c-0.552 0-1 0.447-1 1v6c0 0.553 0.448 1 1 1h3.649l4.726 3.781c0.181 0.145 0.402 0.219 0.625 0.219 0.147 0 0.295-0.032 0.433-0.099 0.347-0.167 0.567-0.517 0.567-0.901v-3.293l4.24 4.24 0.142-0.802c0.043-0.241-0.024-0.419-0.16-0.594zM10.303 15l-5-4h-4v-6h3.293l5.707 5.707v4.293z"></path>
</svg>
