<!-- Generated by IcoMoon.io -->
<svg version="1.1" xmlns="http://www.w3.org/2000/svg" width="24" height="24" viewBox="0 0 24 24">
<title>speaker</title>
<path fill="#444" d="M16.102 0.149c-0.206-0.101-0.428-0.149-0.648-0.149-0.335 0-0.668 0.111-0.938 0.329l-7.089 5.671h-5.474c-0.83 0-1.5 0.671-1.5 1.5v9c0 0.83 0.671 1.5 1.5 1.5h5.474l7.089 5.672c0.27 0.217 0.603 0.328 0.938 0.328 0.22 0 0.442-0.048 0.649-0.148 0.52-0.251 0.851-0.776 0.851-1.352v-21c0-0.578-0.332-1.101-0.852-1.352zM15.455 22.5l-7.5-6h-6v-9h6l7.5-6v21zM19.524 6.387c0.358 1.95 0.534 3.786 0.534 5.613s-0.175 3.663-0.534 5.613c-0.015 0.081-0.047 0.153-0.084 0.221l0.011-0.063-0.872-0.855c-0.264-0.256-0.34-0.531-0.325-0.864 0 0 0.304-2.529 0.304-4.052s-0.304-4.052-0.304-4.052c-0.015-0.333 0.061-0.607 0.325-0.864l0.872-0.855-0.011-0.065c0.036 0.069 0.069 0.141 0.084 0.222zM23.545 12c0 3.099-0.451 6.203-1.332 9.225l-0.826-0.876c-0.236-0.249-0.299-0.511-0.285-0.814 0.613-2.484 0.943-5.011 0.943-7.534s-0.33-5.051-0.943-7.535c-0.014-0.303 0.049-0.565 0.285-0.815l0.828-0.876c0.879 3.022 1.331 6.126 1.331 9.225z"></path>
</svg>
