<!-- Generated by IcoMoon.io -->
<svg version="1.1" xmlns="http://www.w3.org/2000/svg" width="24" height="24" viewBox="0 0 24 24">
<title>speaker_off</title>
<path fill="#444" d="M9.031 5.079c0-0.224 0.13-0.468 0.251-0.563 4.934-3.966 5.235-4.188 5.235-4.188 0.271-0.217 0.603-0.329 0.938-0.329 0.22 0 0.443 0.048 0.649 0.149 0.521 0.251 0.851 0.774 0.851 1.352v9.75c0 0.414-0.336 0.75-0.75 0.75s-0.75-0.336-0.75-0.75 0-0.563 0-0.563v-9.188l-5.117 4.072c-0.138 0.153-0.333 0.256-0.556 0.256-0.414 0-0.75-0.336-0.75-0.75zM23.288 21.826l-0.504-0.556-21.191-21.191-0.212 1.202c-0.065 0.363 0.033 0.63 0.239 0.892l3.774 3.826h-3.439c-0.828 0-1.5 0.671-1.5 1.5v9c0 0.83 0.672 1.5 1.5 1.5h5.474l7.089 5.672c0.271 0.217 0.603 0.328 0.938 0.328 0.22 0 0.442-0.048 0.649-0.148 0.52-0.251 0.851-0.776 0.851-1.352v-4.939l6.36 6.36 0.213-1.203c0.065-0.361-0.036-0.628-0.24-0.891zM15.455 22.5l-7.5-6h-6v-9h4.94l8.56 8.561v6.439z"></path>
</svg>
