<!-- Generated by IcoMoon.io -->
<svg version="1.1" xmlns="http://www.w3.org/2000/svg" width="24" height="24" viewBox="0 0 24 24">
<title>speaker_off</title>
<path fill="#444" d="M9.279 5.655c0-0.205 0.12-0.429 0.23-0.516 4.521-3.635 4.798-3.839 4.798-3.839 0.249-0.198 0.553-0.3 0.859-0.3 0.203 0 0.406 0.044 0.596 0.136 0.477 0.229 0.779 0.71 0.779 1.239v8.938c0 0.38-0.307 0.688-0.688 0.688-0.38 0-0.688-0.308-0.688-0.688s0-0.516 0-0.516v-8.422l-4.69 3.732c-0.126 0.142-0.304 0.235-0.509 0.235-0.379 0.001-0.687-0.307-0.687-0.687zM22.347 21.008l-0.462-0.511-19.424-19.425-0.195 1.103c-0.059 0.332 0.031 0.577 0.219 0.817l3.459 3.508h-3.153c-0.759 0-1.375 0.615-1.375 1.375v8.25c0 0.76 0.616 1.375 1.375 1.375h5.018l6.499 5.199c0.248 0.199 0.552 0.301 0.858 0.301 0.203 0 0.406-0.044 0.596-0.136 0.477-0.229 0.779-0.71 0.779-1.239v-4.527l5.831 5.83 0.195-1.103c0.058-0.332-0.033-0.577-0.22-0.817zM15.166 21.625l-6.875-5.5h-5.5v-8.25h4.528l7.847 7.848v5.902z"></path>
</svg>
