<!-- Generated by IcoMoon.io -->
<svg version="1.1" xmlns="http://www.w3.org/2000/svg" width="16" height="16" viewBox="0 0 16 16">
<title>stamp</title>
<path fill="#444" d="M15.895 12.553l-1-2c-0.168-0.335-0.509-0.549-0.884-0.553h-2.011c-0.272 0-1.141-0.004-1.815-1.36-0.067-0.136-0.103-0.279-0.11-0.438 0.065-0.092 0.227-0.266 0.372-0.421 0.172-0.186 0.377-0.405 0.613-0.681 0.356-0.418 0.792-0.998 0.99-1.78 0.405-1.595 0.011-3.032-1.141-4.156-0.769-0.751-1.793-1.164-2.916-1.164-0.040 0-0.080 0.003-0.118 0.008-1.054 0.024-2.039 0.435-2.783 1.162-1.153 1.124-1.547 2.561-1.142 4.156 0.199 0.782 0.634 1.362 0.991 1.781 0.235 0.274 0.439 0.494 0.612 0.68 0.145 0.155 0.307 0.329 0.372 0.421-0.007 0.159-0.043 0.303-0.11 0.438-0.67 1.349-1.522 1.354-1.815 1.354-0.002 0-2.011 0.007-2.011 0.007-0.375 0.004-0.715 0.217-0.883 0.552l-1 1.993c-0.155 0.31-0.139 0.679 0.043 0.974s0.504 0.474 0.851 0.474h14c0.347 0 0.668-0.18 0.851-0.475s0.198-0.663 0.044-0.972zM1 13l1-1.993c0 0 1.090-0.012 2.016-0.004 1.272 0.011 2.144-0.802 2.695-1.913 0.146-0.296 0.216-0.615 0.215-0.948-0.002-0.488-0.433-0.759-1.225-1.685-0.35-0.41-0.647-0.849-0.782-1.377-0.312-1.227-0.037-2.309 0.871-3.194 0.625-0.611 1.421-0.885 2.21-0.879v-0.007c0.789-0.006 1.585 0.269 2.21 0.879 0.908 0.886 1.183 1.967 0.871 3.194-0.134 0.528-0.432 0.967-0.782 1.377-0.792 0.926-1.223 1.197-1.225 1.685-0.001 0.333 0.069 0.652 0.215 0.948 0.552 1.111 1.423 1.928 2.695 1.917 0.926-0.008 2.016 0 2.016 0l1 2h-14zM0 16l0.467-0.667c0.168-0.24 0.363-0.332 0.656-0.333h13.754c0.293 0.001 0.488 0.093 0.656 0.333l0.467 0.667h-16z"></path>
</svg>
