<!-- Generated by IcoMoon.io -->
<svg version="1.1" xmlns="http://www.w3.org/2000/svg" width="24" height="24" viewBox="0 0 24 24">
<title>stamp</title>
<path fill="#444" d="M23.843 18.83l-1.5-3c-0.252-0.503-0.764-0.823-1.326-0.83h-3.017c-0.408 0-1.712-0.006-2.723-2.040-0.101-0.204-0.154-0.418-0.165-0.657 0.098-0.138 0.341-0.399 0.558-0.632 0.258-0.279 0.566-0.607 0.919-1.022 0.534-0.627 1.188-1.497 1.485-2.67 0.607-2.392 0.016-4.548-1.712-6.234-1.154-1.127-2.689-1.746-4.374-1.746-0.060 0-0.12 0.005-0.177 0.012-1.581 0.036-3.058 0.652-4.174 1.743-1.729 1.686-2.321 3.842-1.713 6.234 0.299 1.173 0.951 2.043 1.487 2.671 0.353 0.411 0.658 0.741 0.918 1.020 0.217 0.232 0.461 0.494 0.558 0.631-0.010 0.239-0.065 0.455-0.165 0.657-1.005 2.024-2.283 2.031-2.723 2.031-0.003 0-3.017 0.011-3.017 0.011-0.563 0.006-1.072 0.325-1.325 0.828l-1.5 2.989c-0.232 0.465-0.209 1.018 0.064 1.461s0.756 0.711 1.276 0.711h21c0.52 0 1.002-0.27 1.276-0.712s0.297-0.995 0.066-1.458zM1.5 19.5l1.5-2.989c0 0 1.635-0.018 3.024-0.006 1.908 0.017 3.216-1.203 4.043-2.87 0.219-0.444 0.324-0.923 0.322-1.422-0.003-0.732-0.649-1.139-1.837-2.528-0.525-0.615-0.971-1.273-1.173-2.065-0.468-1.841-0.056-3.464 1.307-4.791 0.938-0.917 2.131-1.328 3.315-1.319v-0.010c1.183-0.009 2.378 0.403 3.315 1.318 1.362 1.329 1.774 2.95 1.306 4.791-0.201 0.792-0.648 1.45-1.173 2.065-1.188 1.389-1.835 1.796-1.838 2.527-0.001 0.5 0.104 0.978 0.322 1.422 0.828 1.667 2.134 2.892 4.043 2.875 1.389-0.012 3.024 0 3.024 0l1.5 3h-21zM0 24l0.701-1c0.252-0.36 0.545-0.498 0.984-0.5h20.631c0.439 0.002 0.732 0.139 0.984 0.5l0.701 1h-24z"></path>
</svg>
