<!-- Generated by IcoMoon.io -->
<svg version="1.1" xmlns="http://www.w3.org/2000/svg" width="24" height="24" viewBox="0 0 24 24">
<title>stamp</title>
<path fill="#444" d="M22.856 18.258l-1.375-2.75c-0.232-0.458-0.702-0.754-1.218-0.758h-2.763c-0.375 0-1.569-0.004-2.495-1.87-0.093-0.188-0.141-0.385-0.151-0.603 0.088-0.127 0.312-0.365 0.509-0.579 0.237-0.256 0.518-0.558 0.844-0.938 0.488-0.57 1.087-1.373 1.359-2.448 0.558-2.192 0.017-4.169-1.569-5.715-1.054-1.032-2.462-1.597-4.007-1.597-0.055 0-0.109 0.003-0.162 0.008-1.449 0.036-2.803 0.6-3.826 1.602-1.586 1.545-2.127 3.522-1.569 5.714 0.272 1.075 0.871 1.872 1.363 2.449 0.323 0.374 0.604 0.676 0.84 0.932 0.198 0.214 0.421 0.452 0.509 0.579-0.007 0.224-0.058 0.42-0.15 0.602-0.919 1.859-2.090 1.864-2.495 1.864-0.002 0-2.764 0.007-2.764 0.007-0.515 0.010-0.985 0.299-1.214 0.763l-1.375 2.737c-0.214 0.427-0.192 0.937 0.058 1.343 0.25 0.4 0.695 0.65 1.17 0.65h19.25c0.476 0 0.92-0.25 1.17-0.65 0.249-0.407 0.272-0.915 0.061-1.342zM2.375 18.875l1.375-2.743c0 0 1.5-0.012 2.771-0.004 1.75 0.017 2.946-1.101 3.706-2.628 0.202-0.407 0.298-0.85 0.297-1.306-0.005-0.669-0.597-1.046-1.685-2.317-0.481-0.563-0.89-1.165-1.074-1.893-0.429-1.684-0.052-3.175 1.196-4.389 0.859-0.839 1.955-1.219 3.039-1.213v-0.007c1.084-0.006 2.18 0.368 3.039 1.207 1.248 1.22 1.625 2.705 1.196 4.396-0.184 0.722-0.593 1.33-1.075 1.893-1.088 1.271-1.68 1.643-1.685 2.317-0.001 0.456 0.095 0.893 0.297 1.3 0.76 1.527 1.957 2.654 3.706 2.638 1.274-0.008 2.771 0 2.771 0l1.375 2.75h-19.249zM1 23l0.643-0.919c0.229-0.328 0.498-0.455 0.902-0.456h18.91c0.404 0.001 0.673 0.128 0.902 0.456l0.643 0.919h-22z"></path>
</svg>
