<!-- Generated by IcoMoon.io -->
<svg version="1.1" xmlns="http://www.w3.org/2000/svg" width="24" height="24" viewBox="0 0 24 24">
<title>stapler</title>
<path fill="#444" d="M0 19.053l0.701-1c0.252-0.36 0.545-0.498 0.984-0.5h20.631c0.439 0.001 0.732 0.139 0.984 0.5l0.701 1h-24zM23.986 13.433c0.073 0.553-0.166 1.104-0.625 1.427l-1 0.697c-0.752 0.528-1.581 0.636-2.466 0.319l-15.885-5.783c0.009 0.069 0 1.461 0 1.461l-0.959-0.702c-0.36-0.252-0.498-0.544-0.501-0.984v-0.465c-0.444-0.344-0.761-0.801-0.92-1.39l-0.313-1.178c-0.145-0.542 0.022-1.116 0.435-1.494s1-0.494 1.527-0.303l19.734 7.182c0.527 0.189 0.9 0.659 0.973 1.212zM22.5 13.629l-19.734-7.182 0.315 1.18c0.113 0.425 0.342 0.654 0.755 0.804l16.567 6.030c0.413 0.152 0.736 0.123 1.095-0.131l1.002-0.702z"></path>
</svg>
