<!-- Generated by IcoMoon.io -->
<svg version="1.1" xmlns="http://www.w3.org/2000/svg" width="16" height="16" viewBox="0 0 16 16">
<title>stapler</title>
<path fill="#444" d="M0 12.702l0.467-0.667c0.168-0.24 0.363-0.332 0.656-0.333h13.754c0.293 0.001 0.488 0.093 0.656 0.333l0.467 0.667h-16zM15.991 8.955c0.049 0.369-0.111 0.736-0.417 0.951l-0.667 0.465c-0.501 0.352-1.054 0.424-1.644 0.213l-10.59-3.855c0.006 0.046 0 0.974 0 0.974l-0.639-0.468c-0.24-0.168-0.332-0.363-0.334-0.656v-0.31c-0.296-0.229-0.507-0.534-0.613-0.927l-0.209-0.785c-0.097-0.361 0.015-0.744 0.29-0.996s0.667-0.329 1.018-0.202l13.156 4.788c0.351 0.126 0.6 0.439 0.649 0.808zM15 9.086l-13.156-4.788 0.21 0.787c0.075 0.283 0.228 0.436 0.503 0.536l11.045 4.020c0.275 0.101 0.491 0.082 0.73-0.087l0.668-0.468z"></path>
</svg>
