<!-- Generated by IcoMoon.io -->
<svg version="1.1" xmlns="http://www.w3.org/2000/svg" width="16" height="16" viewBox="0 0 16 16">
<title>star5</title>
<path fill="#444" d="M15.954 6.203c-0.116-0.367-0.433-0.636-0.815-0.689l-4.324-0.604-1.927-3.726c-0.171-0.332-0.514-0.541-0.888-0.541s-0.717 0.209-0.888 0.541l-1.926 3.725-4.324 0.605c-0.382 0.054-0.7 0.322-0.815 0.689-0.116 0.368-0.010 0.771 0.273 1.033l3.1 2.882-0.73 4.063c-0.067 0.373 0.083 0.751 0.386 0.978 0.176 0.132 0.387 0.199 0.599 0.199 0.153 0 0.307-0.035 0.449-0.106l3.876-1.947 3.876 1.946c0.142 0.071 0.295 0.106 0.449 0.106 0.212 0 0.422-0.067 0.598-0.199 0.304-0.227 0.453-0.604 0.386-0.978l-0.729-4.062 3.1-2.882c0.283-0.262 0.39-0.665 0.274-1.033zM11.5 9.758l0.825 4.6-4.325-2.172-4.326 2.172 0.826-4.6-3.5-3.254 4.836-0.676 2.164-4.185 2.164 4.186 4.836 0.675-3.5 3.254z"></path>
</svg>
