<!-- Generated by IcoMoon.io -->
<svg version="1.1" xmlns="http://www.w3.org/2000/svg" width="24" height="24" viewBox="0 0 24 24">
<title>star5</title>
<path fill="#444" d="M23.931 9.305c-0.174-0.55-0.649-0.954-1.223-1.034l-6.486-0.906-2.891-5.589c-0.256-0.498-0.771-0.812-1.332-0.812s-1.075 0.313-1.332 0.812l-2.889 5.588-6.486 0.907c-0.573 0.081-1.050 0.483-1.222 1.034-0.174 0.552-0.015 1.157 0.41 1.55l4.65 4.323-1.095 6.095c-0.101 0.559 0.124 1.126 0.579 1.467 0.264 0.198 0.58 0.298 0.899 0.298 0.229 0 0.46-0.052 0.673-0.159l5.814-2.921 5.814 2.919c0.213 0.106 0.443 0.159 0.674 0.159 0.318 0 0.633-0.101 0.897-0.299 0.456-0.34 0.679-0.906 0.579-1.467l-1.093-6.093 4.65-4.323c0.424-0.393 0.585-0.998 0.411-1.55zM17.25 14.637l1.237 6.9-6.487-3.258-6.489 3.258 1.239-6.9-5.25-4.881 7.254-1.014 3.246-6.277 3.246 6.279 7.254 1.013-5.25 4.881z"></path>
</svg>
