<!-- Generated by IcoMoon.io -->
<svg version="1.1" xmlns="http://www.w3.org/2000/svg" width="24" height="24" viewBox="0 0 24 24">
<title>star5</title>
<path fill="#444" d="M22.937 9.529c-0.159-0.505-0.596-0.874-1.122-0.948l-5.945-0.831-2.649-5.123c-0.235-0.456-0.707-0.743-1.221-0.743s-0.986 0.287-1.221 0.743l-2.649 5.123-5.945 0.831c-0.526 0.074-0.962 0.443-1.122 0.948s-0.013 1.060 0.375 1.421l4.263 3.962-1.003 5.586c-0.092 0.514 0.113 1.033 0.53 1.345 0.242 0.181 0.532 0.273 0.823 0.273 0.211 0 0.421-0.048 0.617-0.146l5.332-2.676 5.33 2.676c0.195 0.099 0.406 0.146 0.617 0.146 0.292 0 0.581-0.093 0.822-0.273 0.418-0.312 0.623-0.831 0.531-1.345l-1.002-5.586 4.263-3.962c0.389-0.361 0.535-0.915 0.376-1.421zM16.812 14.417l1.135 6.324-5.947-2.986-5.948 2.986 1.135-6.324-4.812-4.475 6.65-0.929 2.975-5.754 2.975 5.755 6.65 0.929-4.813 4.474z"></path>
</svg>
