<!-- Generated by IcoMoon.io -->
<svg version="1.1" xmlns="http://www.w3.org/2000/svg" width="16" height="16" viewBox="0 0 16 16">
<title>steering_wheel</title>
<path fill="#444" d="M8 0c-4.418 0-8 3.582-8 8 0 1.125 0.234 2.194 0.654 3.166 0.133 0.31 0.291 0.605 0.461 0.894 1.392 2.355 3.95 3.94 6.885 3.94 2.927 0 5.479-1.576 6.874-3.922 0.17-0.286 0.328-0.582 0.462-0.89 0.425-0.977 0.664-2.054 0.664-3.188 0-4.418-3.582-8-8-8zM8 15c-2.59 0-4.847-1.411-6.057-3.502l5.724-4.044c0.11-0.078 0.222-0.118 0.333-0.118s0.223 0.040 0.333 0.118l5.711 4.063c-1.214 2.082-3.462 3.483-6.044 3.483zM14.5 10.588l-6.5-4.588-6.508 4.565c-0.314-0.795-0.492-1.659-0.492-2.565 0-3.866 3.134-7 7-7s7 3.134 7 7c0 0.915-0.181 1.787-0.5 2.588z"></path>
</svg>
