<!-- Generated by IcoMoon.io -->
<svg version="1.1" xmlns="http://www.w3.org/2000/svg" width="24" height="24" viewBox="0 0 24 24">
<title>steering_wheel</title>
<path fill="#444" d="M12 0c-6.627 0-12 5.373-12 12 0 1.688 0.351 3.291 0.981 4.749 0.2 0.465 0.436 0.907 0.691 1.341 2.088 3.533 5.925 5.91 10.328 5.91 4.39 0 8.218-2.364 10.311-5.883 0.255-0.429 0.492-0.873 0.693-1.335 0.638-1.465 0.996-3.081 0.996-4.782 0-6.627-5.373-12-12-12zM12 22.5c-3.885 0-7.271-2.116-9.085-5.253l8.586-6.066c0.165-0.117 0.333-0.177 0.5-0.177s0.335 0.060 0.5 0.177l8.567 6.094c-1.821 3.123-5.193 5.225-9.066 5.225zM21.75 15.882l-9.75-6.882-9.762 6.848c-0.471-1.193-0.738-2.489-0.738-3.848 0-5.799 4.701-10.5 10.5-10.5s10.5 4.701 10.5 10.5c0 1.372-0.271 2.68-0.75 3.882z"></path>
</svg>
