<!-- Generated by IcoMoon.io -->
<svg version="1.1" xmlns="http://www.w3.org/2000/svg" width="16" height="16" viewBox="0 0 16 16">
<title>stethoscope</title>
<path fill="#444" d="M14 6.354c-1.103 0-2 0.899-2 2.006 0 0.931 0.638 1.706 1.496 1.933-0.023 3.228-1.641 4.704-3.149 4.704-0.955 0-1.861-0.548-2.554-1.543-0.585-0.842-1.28-2.409-1.291-5.074l5.405-7.587c0.109-0.152 0.124-0.354 0.038-0.521s-0.257-0.272-0.445-0.272h-1.001l-0.5 0.025c-0.22 0.025-0.393 0.105-0.533 0.308l-0.467 0.67h1.529l-4.528 6.356-4.528-6.356h1.528c0.012 0 0.021-0.006 0.033-0.008l-0.462-0.662c-0.141-0.199-0.314-0.28-0.533-0.308l-0.5-0.025h-1.038c-0.188 0-0.359 0.104-0.444 0.272-0.086 0.166-0.072 0.369 0.037 0.521l5.411 7.595c0.010 2.316 0.515 4.268 1.468 5.639 0.872 1.254 2.102 1.973 3.374 1.973 1.988 0 4.123-1.788 4.149-5.705 0.863-0.221 1.505-1.002 1.505-1.935 0-1.106-0.897-2.006-2-2.006zM14 9.363c-0.552 0-1-0.448-1-1.003s0.448-1.003 1-1.003 1 0.448 1 1.003-0.448 1.003-1 1.003z"></path>
</svg>
