<!-- Generated by IcoMoon.io -->
<svg version="1.1" xmlns="http://www.w3.org/2000/svg" width="24" height="24" viewBox="0 0 24 24">
<title>stethoscope</title>
<path fill="#444" d="M20.25 9.737c-1.517 0-2.75 1.237-2.75 2.758 0 1.28 0.877 2.347 2.057 2.657-0.032 4.438-2.257 6.469-4.331 6.469-1.312 0-2.56-0.754-3.511-2.122-0.805-1.157-1.761-3.312-1.775-6.977l7.432-10.432c0.15-0.209 0.17-0.487 0.052-0.715-0.118-0.232-0.354-0.375-0.612-0.375h-1.377l-0.688 0.035c-0.302 0.035-0.54 0.145-0.733 0.423l-0.642 0.921h2.104l-6.227 8.74-6.227-8.74h2.102c0.016 0 0.029-0.008 0.045-0.011l-0.636-0.91c-0.192-0.274-0.429-0.386-0.731-0.423l-0.688-0.035h-1.426c-0.258 0-0.494 0.143-0.611 0.375-0.119 0.228-0.098 0.506 0.051 0.715l7.439 10.443c0.013 3.185 0.708 5.868 2.019 7.753 1.199 1.726 2.891 2.714 4.64 2.714 2.734 0 5.668-2.459 5.705-7.845 1.186-0.303 2.069-1.378 2.069-2.66 0-1.52-1.233-2.758-2.75-2.758zM20.25 13.875c-0.759 0-1.375-0.617-1.375-1.38s0.616-1.379 1.375-1.379 1.375 0.616 1.375 1.379-0.616 1.38-1.375 1.38z"></path>
</svg>
