<!-- Generated by IcoMoon.io -->
<svg version="1.1" xmlns="http://www.w3.org/2000/svg" width="24" height="24" viewBox="0 0 24 24">
<title>stethoscope</title>
<path fill="#444" d="M21 9.531c-1.654 0-3 1.348-3 3.009 0 1.397 0.957 2.559 2.244 2.899-0.034 4.842-2.462 7.056-4.723 7.056-1.433 0-2.792-0.822-3.831-2.314-0.878-1.263-1.92-3.613-1.937-7.611l8.108-11.38c0.163-0.228 0.186-0.531 0.057-0.782-0.129-0.252-0.386-0.408-0.668-0.408h-1.502l-0.75 0.038c-0.33 0.038-0.59 0.158-0.799 0.462l-0.701 1.005h2.294l-6.792 9.534-6.792-9.534h2.292c0.018 0 0.032-0.009 0.050-0.012l-0.693-0.993c-0.212-0.298-0.471-0.42-0.799-0.462l-0.75-0.038h-1.557c-0.282 0-0.538 0.156-0.666 0.408-0.129 0.249-0.108 0.553 0.056 0.782l8.116 11.393c0.015 3.474 0.773 6.402 2.202 8.458 1.308 1.881 3.153 2.959 5.061 2.959 2.982 0 6.185-2.682 6.223-8.558 1.294-0.331 2.258-1.503 2.258-2.902 0-1.659-1.346-3.009-3-3.009zM21 14.044c-0.828 0-1.5-0.672-1.5-1.505s0.672-1.505 1.5-1.505 1.5 0.672 1.5 1.505-0.672 1.505-1.5 1.505z"></path>
</svg>
