<!-- Generated by IcoMoon.io -->
<svg version="1.1" xmlns="http://www.w3.org/2000/svg" width="16" height="16" viewBox="0 0 16 16">
<title>store</title>
<path fill="#444" d="M15 7.169c0.883-0.721 1.214-2.466 0.846-3.632l-0.892-2.837c-0.131-0.417-0.517-0.7-0.954-0.7h-12c-0.437 0-0.823 0.283-0.954 0.7l-0.892 2.837c-0.367 1.166-0.037 2.911 0.846 3.632 0.003 0.002 0 7.831 0 7.831 0 0.267 0.106 0.521 0.294 0.709s0.442 0.291 0.706 0.291c0 0 2.369 0 5 0h2c2.631 0 5 0 5 0 0.265 0 0.518-0.104 0.706-0.291s0.294-0.443 0.294-0.709c0 0-0.002-7.829 0-7.831zM9 15c-0.667 0-1.327 0-2 0 0-1.661 0-3.322 0-5 0.658 0 1.323 0 2 0 0 1.672 0 3.329 0 5zM14 15h-4v-5c0-0.553-0.448-1-1-1h-2c-0.552 0-1 0.447-1 1v5h-4c0 0-0.002-5.357 0-7.653 0.413 0.066 1.106 0.052 1.471-0.003 0.399-0.063 0.756-0.255 1.086-0.502 0.391 0.282 0.817 0.464 1.29 0.526 0.722 0.096 1.397-0.036 2.009-0.44 0.089-0.061 0.146-0.077 0.246-0.009 0.942 0.642 2.23 0.642 3.182 0.004 0.091-0.062 0.147-0.068 0.246-0.003 0.589 0.401 1.239 0.565 1.949 0.475 0.046-0.006 0.395-0.043 0.521-0.066v7.671zM13.825 6.345c-0.088 0.016-0.299 0.038-0.475 0.058-0.084 0.011-0.167 0.017-0.249 0.017-0.358 0-0.689-0.106-1.019-0.331-0.213-0.143-0.44-0.214-0.676-0.214s-0.467 0.073-0.681 0.218c-0.301 0.201-0.659 0.307-1.035 0.307s-0.731-0.106-1.023-0.305c-0.213-0.146-0.442-0.22-0.682-0.22-0.358 0-0.608 0.169-0.682 0.219-0.31 0.205-0.642 0.304-1.017 0.304-0.102 0-0.205-0.007-0.309-0.021-0.293-0.039-0.567-0.152-0.835-0.346-0.175-0.126-0.38-0.189-0.585-0.189-0.211 0-0.422 0.066-0.6 0.2-0.243 0.182-0.452 0.284-0.634 0.312-0.158 0.025-0.393 0.037-0.628 0.037-0.194 0-0.389-0.008-0.537-0.031-0.052-0.009-0.105-0.013-0.158-0.013-0.13 0-0.335 0.049-0.335 0.049s-0.004-0.002-0.005-0.002c-0.464-0.378-0.837-1.653-0.552-2.556 0.22-0.697 0.892-2.838 0.892-2.838h12c0 0 0.672 2.141 0.893 2.838 0.284 0.901-0.087 2.172-0.549 2.553-0.11-0.040-0.226-0.062-0.344-0.062-0.059 0-0.117 0.005-0.175 0.016z"></path>
</svg>
