<!-- Generated by IcoMoon.io -->
<svg version="1.1" xmlns="http://www.w3.org/2000/svg" width="24" height="24" viewBox="0 0 24 24">
<title>store</title>
<path fill="#444" d="M21.625 10.858c1.214-0.99 1.668-3.392 1.162-4.997l-1.226-3.897c-0.18-0.575-0.71-0.964-1.311-0.964h-16.5c-0.601 0-1.131 0.389-1.312 0.964l-1.225 3.897c-0.506 1.606-0.053 4.007 1.162 4.997 0.003 0.002 0 10.767 0 10.767 0 0.366 0.146 0.715 0.405 0.973 0.258 0.256 0.606 0.402 0.97 0.402 0 0 3.256 0 6.875 0h2.75c3.618 0 6.874 0 6.874 0 0.365 0 0.712-0.146 0.97-0.402 0.259-0.259 0.406-0.607 0.406-0.973 0 0-0.002-10.765 0-10.767zM13.375 21.625c-0.916 0-1.825 0-2.75 0 0-2.282 0-4.57 0-6.875 0.904 0 1.817 0 2.75 0 0 2.299 0 4.577 0 6.875zM20.25 21.625h-5.5v-6.875c0-0.758-0.615-1.375-1.375-1.375h-2.75c-0.761 0-1.375 0.617-1.375 1.375v6.875h-5.5c0 0-0.003-7.367 0-10.524 0.568 0.090 1.522 0.075 2.021-0.003 0.548-0.086 1.040-0.349 1.493-0.689 0.537 0.388 1.125 0.64 1.772 0.726 0.995 0.131 1.922-0.054 2.762-0.61 0.125-0.078 0.202-0.106 0.34-0.009 1.293 0.882 3.065 0.882 4.374 0.004 0.126-0.085 0.203-0.092 0.339-0.003 0.809 0.554 1.702 0.776 2.679 0.65 0.065-0.006 0.547-0.061 0.72-0.089v10.547zM20.010 9.724c-0.123 0.021-0.413 0.050-0.653 0.081-0.116 0.011-0.231 0.022-0.343 0.022-0.493 0-0.946-0.147-1.399-0.454-0.295-0.201-0.607-0.296-0.931-0.296s-0.643 0.103-0.936 0.3c-0.416 0.278-0.905 0.426-1.425 0.426-0.517 0-1.004-0.147-1.408-0.423-0.292-0.199-0.605-0.302-0.937-0.302-0.493 0-0.837 0.233-0.937 0.301-0.426 0.281-0.881 0.415-1.396 0.415-0.14 0-0.28-0.007-0.426-0.026-0.403-0.051-0.779-0.211-1.15-0.475-0.239-0.173-0.52-0.26-0.804-0.26-0.29 0-0.581 0.090-0.822 0.276-0.337 0.246-0.622 0.39-0.875 0.43-0.216 0.031-0.54 0.048-0.862 0.048-0.268 0-0.535-0.014-0.739-0.043-0.071-0.015-0.144-0.018-0.217-0.018-0.18 0-0.461 0.066-0.461 0.066-0.001 0-0.005-0.002-0.009-0.002-0.635-0.519-1.149-2.273-0.757-3.511 0.303-0.961 1.227-3.904 1.227-3.904h16.5c0 0 0.924 2.943 1.227 3.904 0.393 1.235-0.119 2.986-0.754 3.508-0.151-0.058-0.312-0.085-0.473-0.085-0.079 0-0.161 0.005-0.24 0.022z"></path>
</svg>
