<!-- Generated by IcoMoon.io -->
<svg version="1.1" xmlns="http://www.w3.org/2000/svg" width="24" height="24" viewBox="0 0 24 24">
<title>store</title>
<path fill="#444" d="M22.5 10.753c1.325-1.082 1.821-3.699 1.269-5.448l-1.338-4.256c-0.197-0.625-0.775-1.050-1.431-1.050h-18c-0.655 0-1.234 0.424-1.431 1.050l-1.338 4.256c-0.55 1.749-0.055 4.366 1.269 5.448 0.004 0.003 0 11.747 0 11.747 0 0.401 0.159 0.782 0.441 1.063 0.282 0.28 0.663 0.437 1.059 0.437 0 0 3.553 0 7.5 0h3c3.947 0 7.5 0 7.5 0 0.398 0 0.777-0.156 1.059-0.437 0.282-0.282 0.441-0.664 0.441-1.063 0 0-0.003-11.743 0-11.747zM13.5 22.5c-1 0-1.991 0-3 0 0-2.491 0-4.983 0-7.5 0.987 0 1.985 0 3 0 0 2.508 0 4.994 0 7.5zM21 22.5h-6v-7.5c0-0.83-0.672-1.5-1.5-1.5h-3c-0.828 0-1.5 0.67-1.5 1.5v7.5h-6c0 0-0.003-8.035 0-11.479 0.619 0.099 1.659 0.078 2.207-0.005 0.598-0.094 1.134-0.382 1.629-0.753 0.587 0.423 1.225 0.696 1.935 0.789 1.083 0.144 2.096-0.054 3.013-0.66 0.134-0.091 0.219-0.115 0.369-0.014 1.413 0.963 3.345 0.963 4.773 0.006 0.136-0.093 0.221-0.102 0.369-0.005 0.884 0.601 1.858 0.848 2.924 0.712 0.069-0.009 0.592-0.064 0.782-0.099v11.507zM20.737 9.518c-0.132 0.024-0.448 0.057-0.712 0.087-0.126 0.016-0.25 0.025-0.373 0.025-0.537 0-1.034-0.159-1.529-0.496-0.319-0.214-0.66-0.321-1.014-0.321-0.355 0-0.701 0.11-1.021 0.327-0.452 0.302-0.989 0.461-1.553 0.461s-1.096-0.159-1.534-0.457c-0.319-0.219-0.663-0.33-1.023-0.33-0.537 0-0.912 0.253-1.023 0.329-0.465 0.308-0.963 0.456-1.525 0.456-0.153 0-0.307-0.011-0.463-0.032-0.44-0.058-0.851-0.228-1.253-0.519-0.263-0.189-0.57-0.284-0.878-0.284-0.316 0-0.633 0.099-0.9 0.3-0.365 0.273-0.678 0.426-0.951 0.468-0.237 0.037-0.59 0.055-0.942 0.055-0.291 0-0.584-0.012-0.806-0.046-0.078-0.014-0.157-0.020-0.237-0.020-0.195 0-0.502 0.074-0.502 0.074-0.002 0-0.006-0.003-0.008-0.003-0.696-0.567-1.255-2.48-0.828-3.834 0.33-1.046 1.338-4.257 1.338-4.257h18c0 0 1.008 3.212 1.34 4.257 0.426 1.351-0.13 3.258-0.823 3.829-0.165-0.060-0.339-0.093-0.516-0.093-0.088 0-0.175 0.007-0.263 0.024z"></path>
</svg>
