<!-- Generated by IcoMoon.io -->
<svg version="1.1" xmlns="http://www.w3.org/2000/svg" width="24" height="24" viewBox="0 0 24 24">
<title>success</title>
<path fill="#444" d="M21.625 1h-19.25c-0.76 0-1.375 0.617-1.375 1.375v19.25c0 0.758 0.615 1.375 1.375 1.375h19.25c0.76 0 1.375-0.617 1.375-1.375v-19.25c0-0.758-0.615-1.375-1.375-1.375zM8.738 17.887l-5.050-5.16c0 0 0 0-0.001-0.002l1.074-0.189c0.375-0.066 0.664 0.027 0.934 0.277l3.059 3.121 9.51-9.484c0.287-0.289 0.589-0.383 0.986-0.312l1.064 0.188-11.576 11.561z"></path>
</svg>
