<!-- Generated by IcoMoon.io -->
<svg version="1.1" xmlns="http://www.w3.org/2000/svg" width="16" height="16" viewBox="0 0 16 16">
<title>sun</title>
<path fill="#444" d="M8 4.82c-1.757 0-3.182 1.421-3.182 3.181s1.425 3.182 3.182 3.182c1.758 0 3.183-1.422 3.183-3.182s-1.425-3.181-3.183-3.181zM8 10.183c-1.203 0-2.182-0.979-2.182-2.182 0-1.202 0.979-2.181 2.182-2.181s2.183 0.979 2.183 2.181c0 1.203-0.98 2.182-2.183 2.182zM8.5 0v3.237c0 0.293-0.107 0.498-0.347 0.666l-0.653 0.457v-3.237c0.001-0.293 0.107-0.498 0.348-0.666l0.652-0.457zM13.942 2.766l-2.289 2.289c-0.208 0.207-0.429 0.276-0.717 0.226l-0.784-0.139 2.289-2.289c0.207-0.207 0.428-0.276 0.716-0.226l0.785 0.139zM15.906 8.502h-3.237c-0.293 0-0.498-0.106-0.666-0.347l-0.456-0.652h3.237c0.293 0 0.497 0.106 0.666 0.347l0.456 0.652zM13.15 14.035l-2.289-2.289c-0.207-0.207-0.276-0.428-0.226-0.716l0.139-0.785 2.289 2.289c0.207 0.208 0.276 0.428 0.226 0.717l-0.139 0.784zM8.5 11.549v3.237c0 0.293-0.107 0.498-0.347 0.666l-0.653 0.457v-3.237c0.001-0.293 0.107-0.498 0.348-0.666l0.652-0.457zM5.696 10.952l-2.289 2.289c-0.207 0.207-0.428 0.276-0.716 0.226l-0.785-0.139 2.289-2.289c0.208-0.207 0.428-0.276 0.717-0.226l0.784 0.139zM4.453 8.503h-3.237c-0.293-0.001-0.498-0.107-0.666-0.348l-0.456-0.652h3.237c0.293 0 0.497 0.106 0.666 0.347l0.456 0.653zM2.613 1.904l2.289 2.289c0.207 0.207 0.277 0.428 0.226 0.716l-0.139 0.785-2.289-2.289c-0.207-0.208-0.276-0.427-0.225-0.717l0.138-0.784z"></path>
</svg>
