<!-- Generated by IcoMoon.io -->
<svg version="1.1" xmlns="http://www.w3.org/2000/svg" width="24" height="24" viewBox="0 0 24 24">
<title>sun</title>
<path fill="#444" d="M12 7.23c-2.636 0-4.773 2.132-4.773 4.772s2.138 4.773 4.773 4.773c2.637 0 4.774-2.133 4.774-4.773s-2.138-4.771-4.774-4.771zM12 15.274c-1.805 0-3.273-1.468-3.273-3.273 0-1.803 1.468-3.272 3.273-3.272s3.274 1.469 3.274 3.272c0 1.804-1.47 3.273-3.274 3.273zM12.75 0v4.856c0 0.439-0.16 0.747-0.52 0.999l-0.98 0.686v-4.856c0.002-0.439 0.161-0.747 0.522-0.999l0.978-0.685zM20.913 4.149l-3.433 3.433c-0.312 0.31-0.644 0.414-1.076 0.339l-1.176-0.209 3.433-3.434c0.311-0.31 0.642-0.414 1.074-0.339l1.177 0.208zM23.859 12.753h-4.855c-0.44 0-0.747-0.159-0.999-0.52l-0.684-0.978h4.855c0.439 0 0.745 0.159 0.999 0.521l0.684 0.978zM19.725 21.053l-3.434-3.434c-0.31-0.311-0.414-0.642-0.339-1.074l0.208-1.178 3.433 3.434c0.311 0.312 0.414 0.642 0.339 1.075l-0.208 1.176zM12.75 17.323v4.855c0 0.439-0.16 0.747-0.52 0.999l-0.98 0.686v-4.855c0.002-0.44 0.161-0.747 0.522-0.999l0.978-0.686zM8.544 16.428l-3.434 3.433c-0.31 0.311-0.642 0.414-1.074 0.339l-1.178-0.209 3.434-3.433c0.312-0.311 0.642-0.414 1.075-0.339l1.176 0.209zM6.68 12.755h-4.856c-0.439-0.002-0.747-0.16-0.999-0.522l-0.684-0.978h4.856c0.439 0 0.745 0.159 0.999 0.521l0.684 0.98zM3.92 2.856l3.433 3.433c0.311 0.311 0.416 0.642 0.339 1.074l-0.209 1.178-3.433-3.434c-0.311-0.312-0.414-0.641-0.338-1.075l0.207-1.176z"></path>
</svg>
