<!-- Generated by IcoMoon.io -->
<svg version="1.1" xmlns="http://www.w3.org/2000/svg" width="16" height="16" viewBox="0 0 16 16">
<title>synchronize</title>
<path fill="#444" d="M0.004 9.503c0-0.025 0.011-0.047 0.015-0.071 0.005-0.038 0.008-0.076 0.022-0.112s0.039-0.068 0.062-0.099c0.013-0.020 0.020-0.043 0.037-0.061 0.002-0.002 0.004-0.002 0.006-0.004 0.043-0.045 0.095-0.081 0.153-0.107 0.004-0.001 0.006-0.005 0.010-0.007 0.060-0.025 0.125-0.039 0.195-0.039 0 0 4.153-0.006 4.185 0l-0.454 0.666c-0.155 0.221-0.349 0.318-0.608 0.334h-1.86l2.209 2.375c0.601 0.602 1.329 1.062 2.118 1.341 2.674 0.949 5.623-0.525 6.901-2.968 0 0 0.2-0.172 0.488-0.222l0.762-0.132c-1.24 3.419-5.053 5.479-8.484 4.265-0.929-0.329-1.787-0.871-2.48-1.567l-2.276-2.437v1.937c0 0.293-0.107 0.498-0.347 0.666l-0.653 0.442c-0.009-0.036-0.001-4.2-0.001-4.2zM15.996 2.311l-0.653 0.442c-0.24 0.167-0.348 0.373-0.348 0.666v1.937l-2.275-2.437c-0.693-0.697-1.551-1.239-2.48-1.567-3.431-1.215-7.245 0.845-8.485 4.264l0.762-0.132c0.289-0.050 0.488-0.222 0.488-0.222 1.278-2.442 4.227-3.917 6.901-2.968 0.789 0.279 1.517 0.739 2.117 1.342l2.209 2.375h-1.86c-0.258 0.015-0.453 0.113-0.608 0.334l-0.452 0.665c0.031 0.007 4.185 0 4.185 0 0.069 0.001 0.134-0.014 0.195-0.038 0.003-0.002 0.006-0.007 0.010-0.007 0.058-0.026 0.11-0.062 0.153-0.108 0.002-0.002 0.004-0.001 0.006-0.003 0.017-0.018 0.023-0.042 0.037-0.062 0.023-0.030 0.047-0.062 0.062-0.099 0.015-0.036 0.018-0.073 0.022-0.111 0.004-0.025 0.015-0.046 0.015-0.072-0.001 0 0.007-4.164-0.001-4.199z"></path>
</svg>
