<!-- Generated by IcoMoon.io -->
<svg version="1.1" xmlns="http://www.w3.org/2000/svg" width="24" height="24" viewBox="0 0 24 24">
<title>synchronize</title>
<path fill="#444" d="M0.006 14.255c0-0.038 0.017-0.071 0.022-0.107 0.008-0.057 0.012-0.114 0.033-0.168s0.058-0.102 0.093-0.149c0.019-0.030 0.030-0.064 0.055-0.091 0.003-0.003 0.006-0.003 0.009-0.006 0.065-0.068 0.143-0.122 0.23-0.16 0.006-0.002 0.009-0.008 0.015-0.011 0.090-0.038 0.188-0.058 0.292-0.058 0 0 6.229-0.009 6.277 0l-0.681 0.999c-0.233 0.332-0.524 0.477-0.912 0.501h-2.79l3.314 3.563c0.901 0.903 1.993 1.593 3.177 2.011 4.011 1.424 8.434-0.788 10.352-4.452 0 0 0.3-0.258 0.732-0.333l1.143-0.198c-1.86 5.129-7.579 8.218-12.726 6.397-1.394-0.493-2.681-1.306-3.72-2.35l-3.414-3.655v2.905c0 0.439-0.161 0.747-0.52 0.999l-0.98 0.663c-0.013-0.054-0.001-6.3-0.001-6.3zM23.994 3.466l-0.98 0.663c-0.36 0.25-0.522 0.559-0.522 0.999v2.905l-3.413-3.655c-1.040-1.045-2.326-1.858-3.72-2.35-5.146-1.823-10.867 1.268-12.727 6.396l1.143-0.198c0.434-0.075 0.732-0.333 0.732-0.333 1.917-3.663 6.341-5.875 10.351-4.452 1.183 0.418 2.275 1.108 3.176 2.013l3.313 3.563h-2.79c-0.387 0.023-0.679 0.17-0.912 0.501l-0.678 0.997c0.046 0.011 6.277 0 6.277 0 0.104 0.002 0.201-0.021 0.293-0.057 0.005-0.003 0.009-0.010 0.015-0.010 0.087-0.039 0.165-0.093 0.229-0.162 0.003-0.003 0.006-0.002 0.009-0.005 0.026-0.027 0.035-0.063 0.056-0.093 0.035-0.045 0.071-0.093 0.093-0.149 0.023-0.054 0.027-0.11 0.033-0.166 0.006-0.038 0.023-0.069 0.023-0.108-0.002 0 0.010-6.246-0.002-6.298z"></path>
</svg>
