<!-- Generated by IcoMoon.io -->
<svg version="1.1" xmlns="http://www.w3.org/2000/svg" width="24" height="24" viewBox="0 0 24 24">
<title>synchronize</title>
<path fill="#444" d="M12 23c-3.986 0-7.671-2.181-9.619-5.689l-0.13-0.25c-0.752-1.437-1.172-2.955-1.251-4.521l0.974 0.525c0.312 0.167 0.505 0.387 0.609 0.689 0.248 1.386 0.825 2.713 1.701 3.899 1.807 2.457 4.691 3.924 7.716 3.924 2.707 0 5.305-1.163 7.128-3.193l0.477-0.529h-2.371c-0.372-0.002-0.63-0.133-0.835-0.427l-0.696-0.995h5.57c0.393 0 0.712 0.319 0.712 0.711v5.576l-1.001-0.673c-0.289-0.201-0.42-0.458-0.421-0.831v-2.269l-0.551 0.584c-2.106 2.237-4.951 3.469-8.012 3.469zM22.026 10.935c-0.312-0.167-0.505-0.387-0.609-0.689-0.248-1.386-0.825-2.713-1.701-3.899-1.807-2.458-4.691-3.925-7.716-3.925-2.707 0-5.305 1.163-7.128 3.193l-0.477 0.53h2.371c0.372 0.002 0.63 0.133 0.835 0.427l0.696 0.995h-5.57c-0.393 0-0.712-0.319-0.712-0.711v-5.577l1.001 0.673c0.289 0.201 0.42 0.458 0.421 0.831v2.269l0.553-0.584c2.104-2.236 4.949-3.468 8.010-3.468 3.986 0 7.671 2.181 9.619 5.689l0.13 0.25c0.752 1.437 1.172 2.955 1.251 4.521l-0.974-0.525z"></path>
</svg>
