<!-- Generated by IcoMoon.io -->
<svg version="1.1" xmlns="http://www.w3.org/2000/svg" width="24" height="24" viewBox="0 0 24 24">
<title>tag</title>
<path fill="#444" d="M14.019 23.395c-0.586 0.587-1.534 0.587-2.121 0l-11.46-11.46c-0.348-0.348-0.503-0.848-0.413-1.335l1.373-7.374c0.056-0.335 0.18-0.798 0.605-1.224 0.347-0.347 0.827-0.593 1.314-0.675l7.295-1.304c0.481-0.087 0.976 0.069 1.325 0.416l11.458 11.46c0.587 0.587 0.587 1.534 0 2.121l-9.375 9.375zM10.875 1.5l-7.309 1.306c-0.197 0.034-0.387 0.141-0.502 0.256s-0.157 0.24-0.191 0.438l-1.373 7.374 11.458 11.46 9.375-9.375-11.459-11.46zM4.123 4.123c-0.292 0.293-0.292 0.768 0 1.061s0.768 0.292 1.061 0 0.292-0.768 0-1.061-0.768-0.292-1.061 0z"></path>
</svg>
