<!-- Generated by IcoMoon.io -->
<svg version="1.1" xmlns="http://www.w3.org/2000/svg" width="24" height="24" viewBox="0 0 24 24">
<title>tag</title>
<path fill="#444" d="M13.942 22.594c-0.543 0.541-1.417 0.541-1.96 0l-10.577-10.575c-0.321-0.322-0.465-0.786-0.382-1.235l1.267-6.803c0.051-0.312 0.166-0.741 0.558-1.132 0.32-0.321 0.763-0.545 1.213-0.623l6.734-1.203c0.443-0.082 0.902 0.063 1.223 0.385l10.576 10.575c0.542 0.54 0.541 1.417 0 1.957l-8.652 8.654zM11.037 2.387l-6.745 1.207c-0.182 0.028-0.358 0.129-0.465 0.236s-0.146 0.22-0.176 0.402l-1.266 6.805 10.578 10.578 8.653-8.651-10.579-10.577zM4.805 4.806c-0.27 0.272-0.27 0.709 0 0.981 0.271 0.267 0.708 0.267 0.98 0 0.271-0.272 0.271-0.709 0-0.981-0.271-0.267-0.708-0.267-0.98 0z"></path>
</svg>
