<!-- Generated by IcoMoon.io -->
<svg version="1.1" xmlns="http://www.w3.org/2000/svg" width="16" height="16" viewBox="0 0 16 16">
<title>tag</title>
<path fill="#444" d="M9.346 15.597c-0.391 0.391-1.023 0.391-1.414 0l-7.64-7.64c-0.232-0.232-0.335-0.565-0.275-0.89l0.915-4.916c0.037-0.223 0.12-0.532 0.403-0.816 0.231-0.231 0.551-0.395 0.876-0.45l4.863-0.869c0.321-0.058 0.651 0.046 0.883 0.277l7.639 7.64c0.391 0.391 0.391 1.023 0 1.414l-6.25 6.25zM7.25 1l-4.873 0.871c-0.131 0.023-0.258 0.094-0.335 0.171s-0.105 0.16-0.127 0.292l-0.915 4.916 7.639 7.64 6.25-6.25-7.639-7.64zM2.749 2.749c-0.195 0.195-0.195 0.512 0 0.707s0.512 0.195 0.707 0 0.195-0.512 0-0.707-0.512-0.195-0.707 0z"></path>
</svg>
