<!-- Generated by IcoMoon.io -->
<svg version="1.1" xmlns="http://www.w3.org/2000/svg" width="24" height="24" viewBox="0 0 24 24">
<title>tag_price</title>
<path fill="#444" d="M19.608 4.77l-6.195-4.317c-0.407-0.288-0.921-0.453-1.413-0.453-0.601 0-1.021 0.242-1.302 0.441l-6.297 4.323c-0.406 0.279-0.651 0.743-0.651 1.236v16.5c0 0.83 0.672 1.5 1.5 1.5h13.5c0.828 0 1.5-0.67 1.5-1.5v-16.5c0-0.49-0.24-0.951-0.642-1.23zM18.75 22.5h-13.5v-16.5l6.297-4.323c0.166-0.117 0.287-0.177 0.453-0.177s0.381 0.060 0.546 0.177l6.204 4.323v16.5zM12.75 3.75c0 0.414-0.336 0.75-0.75 0.75s-0.75-0.336-0.75-0.75 0.336-0.75 0.75-0.75 0.75 0.336 0.75 0.75zM15.971 15.788c0.171 0.39 0.259 0.87 0.262 1.443 0.008 1.11-0.399 1.952-1.218 2.528-0.439 0.307-0.987 0.529-1.624 0.675-0.288 0.367-0.629 0.553-1.116 0.561l-1.433 0.006 0.258-0.378c-0.859-0.015-1.587-0.084-2.103-0.234-0.601-0.169-1.012-0.303-1.23-0.392 0.322-0.941 1.211-1.461 2.19-1.29 0.584 0.105 0.924 0.11 1.518 0.105 0.88-0.006 1.537-0.128 1.957-0.359 0.423-0.235 0.633-0.607 0.628-1.114-0.003-0.524-0.216-0.941-0.633-1.245-0.417-0.303-1.106-0.648-2.063-1.027-0.465-0.182-0.909-0.365-1.335-0.558-0.425-0.189-0.792-0.413-1.104-0.672-0.309-0.261-0.556-0.576-0.744-0.941-0.189-0.372-0.285-0.825-0.29-1.365-0.008-1.062 0.381-1.913 1.161-2.538 0.498-0.404 1.123-0.663 1.854-0.81l0.036-0.053c0.3-0.437 0.668-0.628 1.195-0.636l1.434-0.007-0.407 0.589c0.038 0.006 0.075 0.003 0.112 0.008 0.338 0.031 0.659 0.078 0.949 0.132 0.294 0.053 0.555 0.107 0.775 0.168 0.226 0.059 0.398 0.113 0.525 0.156-0.359 0.941-1.202 1.46-2.205 1.346-0.405-0.048-0.634-0.056-1.043-0.054-0.6 0.005-1.13 0.132-1.578 0.375-0.445 0.243-0.666 0.617-0.662 1.125 0.002 0.261 0.053 0.492 0.156 0.695 0.102 0.2 0.257 0.38 0.463 0.538 0.213 0.159 0.473 0.311 0.78 0.444 0.31 0.135 0.681 0.282 1.115 0.432 0.57 0.216 1.081 0.423 1.528 0.624 0.452 0.207 0.83 0.448 1.15 0.721 0.318 0.276 0.564 0.611 0.735 1.002z"></path>
</svg>
