<!-- Generated by IcoMoon.io -->
<svg version="1.1" xmlns="http://www.w3.org/2000/svg" width="16" height="16" viewBox="0 0 16 16">
<title>tag_price</title>
<path fill="#444" d="M13.072 3.18l-4.13-2.878c-0.271-0.192-0.614-0.302-0.942-0.302-0.401 0-0.681 0.161-0.868 0.294l-4.198 2.882c-0.271 0.186-0.434 0.495-0.434 0.824v11c0 0.553 0.448 1 1 1h9c0.552 0 1-0.447 1-1v-11c0-0.327-0.16-0.634-0.428-0.82zM12.5 15h-9v-11l4.198-2.882c0.111-0.078 0.191-0.118 0.302-0.118s0.254 0.040 0.364 0.118l4.136 2.882v11zM8.5 2.5c0 0.276-0.224 0.5-0.5 0.5s-0.5-0.224-0.5-0.5 0.224-0.5 0.5-0.5 0.5 0.224 0.5 0.5zM10.647 10.525c0.114 0.26 0.173 0.58 0.175 0.962 0.005 0.74-0.266 1.301-0.812 1.685-0.293 0.205-0.658 0.353-1.083 0.45-0.192 0.245-0.419 0.369-0.744 0.374l-0.955 0.004 0.172-0.252c-0.573-0.010-1.058-0.056-1.402-0.156-0.401-0.113-0.675-0.202-0.82-0.261 0.215-0.627 0.807-0.974 1.46-0.86 0.389 0.070 0.616 0.073 1.012 0.070 0.587-0.004 1.025-0.085 1.305-0.239 0.282-0.157 0.422-0.405 0.419-0.743-0.002-0.349-0.144-0.627-0.422-0.83s-0.737-0.432-1.375-0.685c-0.31-0.121-0.606-0.243-0.89-0.372-0.283-0.126-0.528-0.275-0.736-0.448-0.206-0.174-0.371-0.384-0.496-0.627-0.126-0.248-0.19-0.55-0.193-0.91-0.005-0.708 0.254-1.275 0.774-1.692 0.332-0.269 0.749-0.442 1.236-0.54l0.024-0.035c0.2-0.291 0.445-0.419 0.797-0.424l0.956-0.005-0.271 0.393c0.025 0.004 0.050 0.002 0.075 0.005 0.225 0.021 0.439 0.052 0.633 0.088 0.196 0.035 0.37 0.071 0.517 0.112 0.151 0.039 0.265 0.075 0.35 0.104-0.239 0.627-0.801 0.973-1.47 0.897-0.27-0.032-0.423-0.037-0.695-0.036-0.4 0.003-0.753 0.088-1.052 0.25-0.297 0.162-0.444 0.411-0.441 0.75 0.001 0.174 0.035 0.328 0.104 0.463 0.068 0.133 0.171 0.253 0.309 0.359 0.142 0.106 0.315 0.207 0.52 0.296 0.207 0.090 0.454 0.188 0.743 0.288 0.38 0.144 0.721 0.282 1.019 0.416 0.301 0.138 0.553 0.299 0.767 0.481 0.212 0.184 0.376 0.407 0.49 0.668z"></path>
</svg>
