<!-- Generated by IcoMoon.io -->
<svg version="1.1" xmlns="http://www.w3.org/2000/svg" width="24" height="24" viewBox="0 0 24 24">
<title>target</title>
<path fill="#444" d="M21.516 4.712l-0.011 0.009c-0.135-0.199-0.351-0.338-0.609-0.338-0.414 0-0.75 0.336-0.75 0.75 0 0.17 0.066 0.318 0.16 0.443l-0.006 0.005 0.308 0.426c1.189 1.702 1.891 3.766 1.891 5.994 0 5.788-4.71 10.5-10.5 10.5s-10.5-4.712-10.5-10.5 4.71-10.5 10.5-10.5c1.706 0 3.31 0.416 4.734 1.142l-2.056 2.94c-0.234 0.327-0.269 0.646-0.165 1.012-0.765-0.366-1.607-0.594-2.513-0.594-3.313 0-6 2.687-6 6s2.687 6 6 6 6-2.687 6-6c0-0.888-0.218-1.716-0.564-2.471-0.012-0.033-0.025-0.063-0.042-0.094-0.015-0.031-0.025-0.063-0.040-0.093l-0.018 0.008c-0.135-0.191-0.348-0.324-0.6-0.324-0.414 0-0.75 0.336-0.75 0.75 0 0.053 0.019 0.098 0.030 0.147l-0.011 0.002 0.021 0.060c0.012 0.040 0.024 0.082 0.043 0.12l0.247 0.697c0.108 0.384 0.183 0.781 0.183 1.199 0 2.481-2.019 4.5-4.5 4.5s-4.5-2.019-4.5-4.5 2.019-4.5 4.5-4.5c0.689 0 1.334 0.17 1.917 0.45l-2.55 3.606c-0.238 0.341-0.156 0.806 0.183 1.044 0.341 0.24 0.807 0.156 1.046-0.184l3.247-4.593 0.287 0.002c0.439-0.002 0.747-0.162 1-0.524l3.906-5.582h-1.191c-0.441 0.001-0.75 0.159-1.002 0.522v-0.002c0.014-0.021 0.030-0.066 0.030-0.066s0 0-0.002-0.002c0.213-0.336 0.262-0.661 0.121-1.050l-0.411-1.122-0.987 1.41c-1.673-0.888-3.569-1.41-5.595-1.41-6.627 0-12 5.373-12 12s5.373 12 12 12 12-5.373 12-12c0-2.745-0.933-5.268-2.484-7.288z"></path>
</svg>
