<!-- Generated by IcoMoon.io -->
<svg version="1.1" xmlns="http://www.w3.org/2000/svg" width="16" height="16" viewBox="0 0 16 16">
<title>target</title>
<path fill="#444" d="M14.344 3.141l-0.007 0.006c-0.090-0.133-0.234-0.225-0.406-0.225-0.276 0-0.5 0.224-0.5 0.5 0 0.113 0.044 0.212 0.107 0.295l-0.004 0.003 0.205 0.284c0.793 1.135 1.261 2.511 1.261 3.996 0 3.859-3.14 7-7 7s-7-3.141-7-7 3.14-7 7-7c1.137 0 2.207 0.277 3.156 0.761l-1.371 1.96c-0.156 0.218-0.179 0.431-0.11 0.675-0.51-0.244-1.071-0.396-1.675-0.396-2.209 0-4 1.791-4 4s1.791 4 4 4 4-1.791 4-4c0-0.592-0.145-1.144-0.376-1.647-0.008-0.022-0.017-0.042-0.028-0.063-0.010-0.021-0.017-0.042-0.027-0.062l-0.012 0.005c-0.090-0.127-0.232-0.216-0.4-0.216-0.276 0-0.5 0.224-0.5 0.5 0 0.035 0.013 0.065 0.020 0.098l-0.007 0.001 0.014 0.040c0.008 0.027 0.016 0.055 0.029 0.080l0.165 0.465c0.072 0.256 0.122 0.521 0.122 0.799 0 1.654-1.346 3-3 3s-3-1.346-3-3 1.346-3 3-3c0.459 0 0.889 0.113 1.278 0.3l-1.7 2.404c-0.159 0.227-0.104 0.537 0.122 0.696 0.227 0.16 0.538 0.104 0.697-0.123l2.165-3.062 0.191 0.001c0.293-0.001 0.498-0.108 0.667-0.349l2.604-3.721h-0.794c-0.294 0.001-0.5 0.106-0.668 0.348v-0.001c0.009-0.014 0.020-0.044 0.020-0.044s0 0-0.001-0.001c0.142-0.224 0.175-0.441 0.081-0.7l-0.274-0.748-0.658 0.94c-1.115-0.592-2.379-0.94-3.73-0.94-4.418 0-8 3.582-8 8s3.582 8 8 8 8-3.582 8-8c0-1.83-0.622-3.512-1.656-4.859z"></path>
</svg>
