<!-- Generated by IcoMoon.io -->
<svg version="1.1" xmlns="http://www.w3.org/2000/svg" width="24" height="24" viewBox="0 0 24 24">
<title>target</title>
<path fill="#444" d="M20.723 5.318l-0.010 0.008c-0.125-0.183-0.322-0.309-0.559-0.309-0.38 0-0.688 0.308-0.688 0.688 0 0.156 0.060 0.291 0.147 0.405l-0.005 0.004 0.282 0.392c1.089 1.56 1.733 3.452 1.733 5.494 0 5.307-4.318 9.625-9.625 9.625s-9.623-4.318-9.623-9.625 4.318-9.625 9.625-9.625c1.563 0 3.035 0.381 4.339 1.046l-1.885 2.695c-0.214 0.301-0.246 0.593-0.15 0.929-0.702-0.336-1.473-0.545-2.304-0.545-3.037 0-5.5 2.463-5.5 5.5s2.463 5.5 5.5 5.5 5.5-2.463 5.5-5.5c0-0.813-0.199-1.572-0.518-2.266-0.011-0.030-0.023-0.058-0.038-0.087-0.014-0.028-0.024-0.058-0.038-0.086l-0.016 0.007c-0.125-0.175-0.319-0.297-0.551-0.297-0.38 0-0.688 0.308-0.688 0.688 0 0.049 0.018 0.090 0.027 0.135l-0.007 0.004 0.020 0.055c0.011 0.037 0.021 0.075 0.040 0.11l0.227 0.639c0.098 0.353 0.167 0.716 0.167 1.099 0 2.274-1.851 4.125-4.125 4.125s-4.125-1.852-4.125-4.126 1.851-4.125 4.125-4.125c0.632 0 1.222 0.156 1.757 0.412l-2.337 3.306c-0.218 0.312-0.143 0.739 0.168 0.958 0.312 0.219 0.74 0.143 0.958-0.17l2.977-4.211 0.262 0.002c0.404-0.002 0.684-0.149 0.917-0.479l3.582-5.116-1.092-0.001c-0.404 0.001-0.687 0.146-0.918 0.478v-0.001c0.012-0.020 0.026-0.062 0.026-0.062s0 0-0.001-0.001c0.195-0.308 0.24-0.607 0.111-0.963l-0.377-1.027-0.904 1.293c-1.534-0.814-3.271-1.293-5.129-1.293-6.075 0-11 4.926-11 11s4.925 11 11 11 11-4.926 11-11c0-2.517-0.854-4.828-2.277-6.682z"></path>
</svg>
