<!-- Generated by IcoMoon.io -->
<svg version="1.1" xmlns="http://www.w3.org/2000/svg" width="24" height="24" viewBox="0 0 24 24">
<title>taxi</title>
<path fill="#444" d="M22.5 8.25h-0.011c0-0.301-0.081-0.603-0.259-0.86l-1.399-2.001c-0.77-1.098-1.813-1.635-3.197-1.639h-1.852l-0.25-0.358c-0.528-0.755-1.271-1.139-2.214-1.142h-2.639c-0.939 0.003-1.681 0.387-2.21 1.142l-0.25 0.358h-1.857c-1.378 0.005-2.423 0.54-3.194 1.641l-1.398 2c-0.179 0.257-0.26 0.558-0.26 0.86h-0.010c-0.828 0-1.5 0.671-1.5 1.5v7.5c0 0.83 0.672 1.5 1.5 1.5v1.5c0 0.83 0.672 1.5 1.5 1.5h1.5c0.828 0 1.5-0.67 1.5-1.5v-1.5h12v1.5c0 0.83 0.672 1.5 1.5 1.5h1.5c0.828 0 1.5-0.67 1.5-1.5v-1.5c0.828 0 1.5-0.67 1.5-1.5v-7.5c0-0.829-0.672-1.5-1.5-1.5zM4.398 6.25c0.504-0.718 1.089-0.997 1.968-1h2.634l0.699-0.999c0.252-0.36 0.545-0.5 0.984-0.501h2.634c0.439 0.002 0.732 0.141 0.984 0.501l0.699 0.999h2.634c0.879 0.003 1.465 0.282 1.968 1l1.398 2h-18l1.398-2zM22.5 17.25h-1.5v3h-1.5v-3h-15v3h-1.5v-3h-1.5v-7.5h21v7.5zM20.299 14.5c-0.252 0.36-0.544 0.498-0.984 0.5h-4.316l0.701-0.999c0.252-0.36 0.544-0.498 0.984-0.501h4.316l-0.701 1zM3 13.5h4.316c0.439 0.003 0.732 0.141 0.984 0.501l0.7 0.999h-4.315c-0.439-0.002-0.732-0.139-0.984-0.5l-0.701-1z"></path>
</svg>
