<!-- Generated by IcoMoon.io -->
<svg version="1.1" xmlns="http://www.w3.org/2000/svg" width="24" height="24" viewBox="0 0 24 24">
<title>taxi</title>
<path fill="#444" d="M21.625 9.112h-0.010c0-0.045 0.013-1.195 0.010-1.24-0.021-0.225-0.095-0.453-0.233-0.648l-1.282-1.832c-0.707-1.008-1.663-1.5-2.931-1.504h-1.698l-0.229-0.326c-0.483-0.697-1.166-1.047-2.029-1.049h-2.418c-0.86 0.002-1.542 0.352-2.026 1.049l-0.229 0.326h-1.704c-1.262 0.004-2.219 0.496-2.926 1.504l-1.283 1.832c-0.135 0.195-0.209 0.424-0.23 0.648-0.007 0.045-0.022 1.195-0.022 1.24h-0.010c-0.76 0-1.375 0.617-1.375 1.375v6.875c0 0.758 0.615 1.375 1.375 1.375v1.375c0 0.758 0.615 1.375 1.375 1.375h1.375c0.76 0 1.375-0.617 1.375-1.375v-1.375h11v1.375c0 0.758 0.615 1.375 1.375 1.375h1.375c0.76 0 1.375-0.617 1.375-1.375v-1.375c0.76 0 1.375-0.617 1.375-1.375v-6.875c0-0.758-0.615-1.375-1.375-1.375zM5.047 6.183c0.462-0.662 0.999-0.918 1.805-0.92h2.412l0.642-0.918c0.232-0.328 0.501-0.455 0.902-0.457h2.415c0.401 0.002 0.67 0.129 0.902 0.457l0.639 0.918h2.415c0.806 0.002 1.343 0.258 1.805 0.92l1.28 1.83-0.014 1.1h-16.5l0.014-1.1 1.283-1.83zM21.625 17.362h-1.375v2.75h-1.375v-2.75h-13.75v2.75h-1.375v-2.75h-1.375v-6.875h19.25v6.875zM19.607 14.843c-0.229 0.328-0.498 0.455-0.902 0.457h-3.955l0.643-0.918c0.229-0.328 0.498-0.455 0.902-0.457h3.955l-0.643 0.918zM3.75 13.925h3.955c0.404 0.002 0.673 0.129 0.902 0.457l0.643 0.918h-3.955c-0.404-0.002-0.673-0.129-0.902-0.457l-0.643-0.918z"></path>
</svg>
