<!-- Generated by IcoMoon.io -->
<svg version="1.1" xmlns="http://www.w3.org/2000/svg" width="16" height="16" viewBox="0 0 16 16">
<title>thermometer</title>
<path fill="#444" d="M9.5 2h2.877c0.293 0.001 0.498 0.107 0.666 0.347l0.457 0.653h-2.877c-0.293-0.001-0.498-0.106-0.666-0.347l-0.457-0.653zM9.957 5.653c0.168 0.241 0.373 0.346 0.666 0.347h2.877l-0.457-0.653c-0.168-0.24-0.373-0.346-0.666-0.347h-2.877l0.457 0.653zM9.957 8.653c0.168 0.241 0.373 0.346 0.666 0.347h2.877l-0.457-0.653c-0.168-0.24-0.373-0.346-0.666-0.347h-2.877l0.457 0.653zM9.5 12.5c0 1.932-1.567 3.5-3.5 3.5s-3.5-1.568-3.5-3.5c0-0.976 0.401-1.856 1.046-2.491v-7.409c0-1.429 1.167-2.6 2.46-2.6s2.448 1.171 2.448 2.6v7.409c0.645 0.635 1.046 1.515 1.046 2.491zM8.5 12.5c0-0.672-0.266-1.304-0.748-1.778-0.191-0.188-0.298-0.445-0.298-0.713v-7.409c0-0.853-0.677-1.6-1.448-1.6-0.764 0-1.46 0.763-1.46 1.6v7.409c0 0.268-0.107 0.524-0.298 0.713-0.482 0.474-0.748 1.106-0.748 1.778 0 1.379 1.122 2.5 2.5 2.5s2.5-1.121 2.5-2.5z"></path>
</svg>
