<!-- Generated by IcoMoon.io -->
<svg version="1.1" xmlns="http://www.w3.org/2000/svg" width="24" height="24" viewBox="0 0 24 24">
<title>thermometer</title>
<path fill="#444" d="M14.25 3h4.316c0.439 0.002 0.747 0.161 0.999 0.521l0.686 0.979h-4.315c-0.439-0.002-0.747-0.159-0.999-0.521l-0.686-0.979zM14.936 8.479c0.252 0.361 0.559 0.519 0.999 0.521h4.315l-0.686-0.98c-0.252-0.36-0.559-0.519-0.999-0.52h-4.316l0.686 0.98zM14.936 12.98c0.252 0.361 0.559 0.519 0.999 0.52h4.315l-0.686-0.98c-0.252-0.36-0.559-0.519-0.999-0.52h-4.316l0.686 0.98zM14.25 18.75c0 2.898-2.351 5.25-5.25 5.25s-5.25-2.352-5.25-5.25c0-1.464 0.601-2.784 1.569-3.736v-11.114c0-2.143 1.75-3.9 3.69-3.9s3.672 1.757 3.672 3.9v11.114c0.967 0.953 1.569 2.273 1.569 3.736zM12.75 18.75c0-1.008-0.399-1.956-1.122-2.667-0.287-0.282-0.447-0.668-0.447-1.069v-11.114c0-1.28-1.016-2.4-2.172-2.4-1.146 0-2.19 1.145-2.19 2.4v11.114c0 0.402-0.161 0.786-0.447 1.069-0.723 0.711-1.122 1.659-1.122 2.667 0 2.069 1.683 3.75 3.75 3.75s3.75-1.681 3.75-3.75z"></path>
</svg>
