<!-- Generated by IcoMoon.io -->
<svg version="1.1" xmlns="http://www.w3.org/2000/svg" width="24" height="24" viewBox="0 0 24 24">
<title>todo</title>
<path fill="#444" d="M10.371 1.776h11.946c0.439 0.002 0.732 0.141 0.984 0.501l0.699 0.999h-11.945c-0.44 0-0.732-0.138-0.984-0.498l-0.7-1.002zM7.159 0.026c-0.432-0.078-0.764 0.026-1.074 0.336l-2.705 2.718-1.191-1.292c-0.296-0.27-0.611-0.375-1.019-0.303l-1.171 0.207c0 0.001 0.002 0.003 0.002 0.003l2.838 2.975c0.141 0.145 0.356 0.279 0.535 0.226 0.2 0 0.39-0.080 0.531-0.219l4.416-4.447-1.163-0.204zM11.072 12.324c0.252 0.36 0.544 0.498 0.984 0.498h11.944l-0.699-0.999c-0.252-0.36-0.544-0.5-0.984-0.501h-11.946l0.7 1.002zM7.159 9.572c-0.432-0.078-0.764 0.026-1.074 0.336l-2.705 2.718-1.191-1.29c-0.296-0.271-0.611-0.375-1.019-0.303l-1.171 0.206c0 0.002 0.002 0.003 0.002 0.003l2.838 2.975c0.141 0.145 0.356 0.279 0.535 0.226 0.2 0 0.39-0.079 0.531-0.219l4.416-4.447-1.163-0.204zM11.072 21.87c0.252 0.36 0.544 0.498 0.984 0.498h11.944l-0.699-0.999c-0.252-0.36-0.544-0.499-0.984-0.501h-11.946l0.7 1.002zM7.159 19.117c-0.433-0.078-0.764 0.027-1.075 0.337l-2.704 2.718-1.191-1.29c-0.296-0.271-0.611-0.375-1.019-0.303l-1.17 0.204c0 0.001 0.002 0.003 0.002 0.003l2.838 2.974c0.141 0.145 0.357 0.279 0.536 0.225 0.2 0 0.39-0.080 0.531-0.219l4.416-4.447-1.162-0.203z"></path>
</svg>
