<!-- Generated by IcoMoon.io -->
<svg version="1.1" xmlns="http://www.w3.org/2000/svg" width="24" height="24" viewBox="0 0 24 24">
<title>traffic_cone</title>
<path fill="#444" d="M20.299 23c-0.21-0.3-0.47-0.42-0.798-0.462-0.027-0.102-0.048-0.191-0.086-0.321l-5.25-21c-0.135-0.706-0.753-1.217-1.473-1.217h-1.5c-0.719 0-1.336 0.51-1.473 1.218l-5.109 21c-0.039 0.128-0.060 0.215-0.088 0.317-0.342 0.034-0.606 0.156-0.822 0.466l-0.701 0.999h18l-0.701-1zM16.068 15h-8.16l1.461-6h5.199l1.5 6zM11.193 1.5h1.5l1.5 6h-4.46l1.46-6zM6.084 22.5l1.46-6h8.899l1.5 6h-11.859z"></path>
</svg>
