<!-- Generated by IcoMoon.io -->
<svg version="1.1" xmlns="http://www.w3.org/2000/svg" width="16" height="16" viewBox="0 0 16 16">
<title>traffic_cone</title>
<path fill="#444" d="M13.533 15.333c-0.14-0.2-0.313-0.28-0.532-0.308-0.018-0.068-0.032-0.127-0.057-0.214l-3.5-14c-0.090-0.471-0.502-0.811-0.982-0.811h-1c-0.479 0-0.891 0.34-0.982 0.812l-3.406 14c-0.026 0.085-0.040 0.143-0.059 0.211-0.228 0.023-0.404 0.104-0.548 0.311l-0.467 0.666h12l-0.467-0.667zM10.712 10h-5.44l0.974-4h3.466l1 4zM7.462 1h1l1 4h-2.973l0.973-4zM4.056 15l0.973-4h5.933l1 4h-7.906z"></path>
</svg>
