<!-- Generated by IcoMoon.io -->
<svg version="1.1" xmlns="http://www.w3.org/2000/svg" width="16" height="16" viewBox="0 0 16 16">
<title>traffic_light</title>
<path fill="#444" d="M8 1.75c-0.965 0-1.75 0.785-1.75 1.75s0.785 1.75 1.75 1.75 1.75-0.785 1.75-1.75-0.785-1.75-1.75-1.75zM8 4.25c-0.415 0-0.75-0.336-0.75-0.75s0.335-0.75 0.75-0.75 0.75 0.336 0.75 0.75-0.335 0.75-0.75 0.75zM8.050 10.8c-0.965 0-1.75 0.785-1.75 1.75s0.785 1.75 1.75 1.75 1.75-0.785 1.75-1.75-0.785-1.75-1.75-1.75zM8.050 13.3c-0.415 0-0.75-0.336-0.75-0.75s0.335-0.75 0.75-0.75 0.75 0.336 0.75 0.75-0.336 0.75-0.75 0.75zM8.050 6.275c-0.965 0-1.75 0.785-1.75 1.75s0.785 1.75 1.75 1.75 1.75-0.785 1.75-1.75-0.785-1.75-1.75-1.75zM8.050 8.775c-0.415 0-0.75-0.336-0.75-0.75s0.335-0.75 0.75-0.75 0.75 0.336 0.75 0.75-0.336 0.75-0.75 0.75zM5.5 16c-0.552 0-1-0.447-1-1v-3.096c-0.347-0.116-0.635-0.34-0.862-0.669l-0.461-0.667c-0.211-0.306-0.235-0.703-0.063-1.033 0.173-0.329 0.514-0.535 0.886-0.535h0.5v-1.596c-0.347-0.116-0.635-0.34-0.862-0.669l-0.461-0.667c-0.211-0.305-0.235-0.703-0.063-1.033 0.173-0.329 0.514-0.535 0.886-0.535h0.5v-1.596c-0.347-0.116-0.635-0.34-0.862-0.669l-0.461-0.667c-0.211-0.305-0.235-0.703-0.063-1.033 0.173-0.329 0.514-0.535 0.886-0.535h8c0.372 0 0.713 0.206 0.886 0.535 0.172 0.33 0.148 0.728-0.063 1.033l-0.461 0.667c-0.227 0.329-0.516 0.553-0.862 0.669v1.596h0.5c0.372 0 0.713 0.206 0.886 0.535 0.172 0.33 0.148 0.728-0.063 1.033l-0.461 0.667c-0.227 0.329-0.516 0.553-0.862 0.669v1.596h0.5c0.372 0 0.713 0.206 0.886 0.535s0.148 0.728-0.063 1.033l-0.461 0.667c-0.227 0.329-0.516 0.553-0.862 0.669v3.096c0 0.553-0.448 1-1 1h-5zM10.891 6.5c0.29-0.001 0.482-0.093 0.648-0.333l0.461-0.667h-1.5v-3.5h0.391c0.29-0.001 0.482-0.093 0.648-0.333l0.461-0.667h-8l0.461 0.667c0.166 0.24 0.359 0.332 0.648 0.333h0.391v3.5h-1.5l0.461 0.667c0.166 0.24 0.359 0.332 0.648 0.333h0.391v3.5h-1.5l0.461 0.667c0.166 0.24 0.359 0.332 0.648 0.333h0.391v4h5v-4h0.391c0.29-0.001 0.482-0.093 0.648-0.333l0.461-0.667h-1.5v-3.5h0.391z"></path>
</svg>
