<!-- Generated by IcoMoon.io -->
<svg version="1.1" xmlns="http://www.w3.org/2000/svg" width="24" height="24" viewBox="0 0 24 24">
<title>traffic_light</title>
<path fill="#444" d="M12 2.625c-1.447 0-2.625 1.178-2.625 2.625s1.178 2.625 2.625 2.625 2.625-1.178 2.625-2.625-1.178-2.625-2.625-2.625zM12 6.375c-0.623 0-1.125-0.504-1.125-1.125s0.502-1.125 1.125-1.125 1.125 0.504 1.125 1.125-0.503 1.125-1.125 1.125zM12.075 16.2c-1.447 0-2.625 1.177-2.625 2.625s1.178 2.625 2.625 2.625 2.625-1.178 2.625-2.625-1.178-2.625-2.625-2.625zM12.075 19.95c-0.623 0-1.125-0.504-1.125-1.125s0.502-1.125 1.125-1.125 1.125 0.504 1.125 1.125-0.504 1.125-1.125 1.125zM12.075 9.413c-1.447 0-2.625 1.177-2.625 2.625s1.178 2.625 2.625 2.625 2.625-1.178 2.625-2.625-1.178-2.625-2.625-2.625zM12.075 13.163c-0.623 0-1.125-0.504-1.125-1.125s0.502-1.125 1.125-1.125 1.125 0.504 1.125 1.125-0.504 1.125-1.125 1.125zM8.25 24c-0.828 0-1.5-0.67-1.5-1.5v-4.644c-0.52-0.174-0.952-0.51-1.293-1.004l-0.691-1c-0.317-0.459-0.353-1.055-0.095-1.55 0.26-0.494 0.771-0.803 1.329-0.803h0.75v-2.394c-0.52-0.174-0.952-0.51-1.293-1.004l-0.691-1c-0.317-0.457-0.353-1.055-0.095-1.55 0.26-0.493 0.771-0.803 1.329-0.803h0.75v-2.394c-0.52-0.174-0.952-0.51-1.293-1.003l-0.691-1.001c-0.317-0.458-0.353-1.054-0.095-1.55 0.26-0.494 0.771-0.802 1.329-0.802h12c0.558 0 1.069 0.309 1.329 0.802 0.258 0.495 0.222 1.092-0.095 1.55l-0.691 1.001c-0.341 0.494-0.774 0.829-1.293 1.003v2.394h0.75c0.558 0 1.070 0.309 1.329 0.803 0.258 0.495 0.222 1.092-0.095 1.55l-0.692 1c-0.341 0.493-0.774 0.829-1.293 1.004v2.394h0.75c0.558 0 1.070 0.309 1.329 0.803 0.258 0.495 0.222 1.092-0.095 1.55l-0.692 1c-0.34 0.494-0.774 0.83-1.293 1.004v4.644c0 0.83-0.672 1.5-1.5 1.5h-7.5zM16.337 9.75c0.435-0.002 0.723-0.139 0.972-0.5l0.692-1h-2.25v-5.25h0.587c0.435-0.002 0.723-0.139 0.972-0.499l0.692-1.001h-12l0.692 1.001c0.249 0.36 0.538 0.498 0.972 0.499h0.587v5.25h-2.25l0.692 1c0.249 0.36 0.538 0.498 0.972 0.5h0.587v5.25h-2.25l0.692 1c0.249 0.36 0.538 0.498 0.972 0.5h0.587v6h7.5v-6h0.587c0.435-0.002 0.723-0.139 0.972-0.5l0.692-1h-2.25v-5.25h0.587z"></path>
</svg>
