<!-- Generated by IcoMoon.io -->
<svg version="1.1" xmlns="http://www.w3.org/2000/svg" width="16" height="16" viewBox="0 0 16 16">
<title>train</title>
<path fill="#444" d="M8 7.5c-0.827 0-1.5 0.673-1.5 1.5s0.673 1.5 1.5 1.5 1.5-0.673 1.5-1.5-0.673-1.5-1.5-1.5zM8 9.5c-0.276 0-0.5-0.224-0.5-0.5s0.224-0.5 0.5-0.5 0.5 0.224 0.5 0.5-0.224 0.5-0.5 0.5zM12 1h-1.479l-0.168-0.24c-0.352-0.502-0.847-0.758-1.476-0.76h-1.757c-0.626 0.002-1.121 0.258-1.473 0.76l-0.168 0.24h-1.479c-0.552 0-1 0.447-1 1v9c0 0.266 0.105 0.52 0.293 0.707l1 1c0.187 0.188 0.442 0.293 0.707 0.293h1.751l-2.128 3h0.814c0.294 0 0.48-0.106 0.648-0.342l1.887-2.658h0.057l1.886 2.658c0.168 0.236 0.356 0.342 0.648 0.342h0.813l-2.128-3h1.752c0.265 0 0.52-0.105 0.707-0.293l1-1c0.188-0.187 0.293-0.441 0.293-0.707v-9c0-0.553-0.448-1-1-1zM12 11l-1 1h-6l-1-1v-5h8v5zM12 5h-8v-3h2l0.467-0.667c0.168-0.24 0.363-0.332 0.656-0.333h1.754c0.293 0.001 0.488 0.093 0.656 0.333l0.467 0.667h2v3z"></path>
</svg>
