<!-- Generated by IcoMoon.io -->
<svg version="1.1" xmlns="http://www.w3.org/2000/svg" width="24" height="24" viewBox="0 0 24 24">
<title>train</title>
<path fill="#444" d="M12 11.25c-1.241 0-2.25 1.009-2.25 2.25s1.009 2.25 2.25 2.25 2.25-1.009 2.25-2.25-1.009-2.25-2.25-2.25zM12 14.25c-0.414 0-0.75-0.336-0.75-0.75s0.336-0.75 0.75-0.75 0.75 0.336 0.75 0.75-0.336 0.75-0.75 0.75zM18 1.5h-2.218l-0.252-0.36c-0.528-0.753-1.27-1.137-2.214-1.14h-2.636c-0.939 0.003-1.681 0.387-2.209 1.14l-0.252 0.36h-2.219c-0.828 0-1.5 0.671-1.5 1.5v13.5c0 0.399 0.158 0.78 0.44 1.061l1.5 1.5c0.28 0.282 0.663 0.439 1.060 0.439h2.627l-3.192 4.5h1.221c0.441 0 0.72-0.159 0.972-0.513l2.831-3.987h0.085l2.829 3.987c0.252 0.354 0.534 0.513 0.972 0.513h1.22l-3.192-4.5h2.628c0.398 0 0.78-0.157 1.060-0.439l1.5-1.5c0.282-0.28 0.44-0.662 0.44-1.061v-13.5c0-0.829-0.672-1.5-1.5-1.5zM18 16.5l-1.5 1.5h-9l-1.5-1.5v-7.5h12v7.5zM18 7.5h-12v-4.5h3l0.7-1.001c0.252-0.36 0.545-0.498 0.984-0.499h2.631c0.439 0.001 0.732 0.139 0.984 0.499l0.701 1.001h3v4.5z"></path>
</svg>
