<!-- Generated by IcoMoon.io -->
<svg version="1.1" xmlns="http://www.w3.org/2000/svg" width="24" height="24" viewBox="0 0 24 24">
<title>truck</title>
<path fill="#444" d="M3.75 16.5c-1.24 0-2.25 1.009-2.25 2.25s1.010 2.25 2.25 2.25 2.25-1.009 2.25-2.25-1.010-2.25-2.25-2.25zM3.75 19.5c-0.414 0-0.75-0.336-0.75-0.75s0.336-0.75 0.75-0.75 0.75 0.336 0.75 0.75-0.336 0.75-0.75 0.75zM20.25 16.5c-1.241 0-2.25 1.009-2.25 2.25s1.009 2.25 2.25 2.25 2.25-1.009 2.25-2.25-1.009-2.25-2.25-2.25zM20.25 19.5c-0.414 0-0.75-0.336-0.75-0.75s0.336-0.75 0.75-0.75 0.75 0.336 0.75 0.75-0.336 0.75-0.75 0.75zM14.25 16.5c-1.241 0-2.25 1.009-2.25 2.25s1.009 2.25 2.25 2.25 2.25-1.009 2.25-2.25-1.009-2.25-2.25-2.25zM14.25 19.5c-0.414 0-0.75-0.336-0.75-0.75s0.336-0.75 0.75-0.75 0.75 0.336 0.75 0.75-0.336 0.75-0.75 0.75zM10.875 1.5c-1.863 0-3.375 1.51-3.375 3.375v1.125h-6c-0.828 0-1.5 0.671-1.5 1.5v6c0 0.83 0.672 1.5 1.5 1.5h19.050c1.863 0 3.45-1.511 3.45-3.375v-10.125h-13.125zM7.5 13.5h-6v-6h6v6zM22.5 11.625c0 1.017-0.893 1.875-1.95 1.875h-11.55v-8.625c0-1.034 0.841-1.875 1.875-1.875h11.625v8.625z"></path>
</svg>
