<!-- Generated by IcoMoon.io -->
<svg version="1.1" xmlns="http://www.w3.org/2000/svg" width="16" height="16" viewBox="0 0 16 16">
<title>truck</title>
<path fill="#444" d="M2.5 11c-0.827 0-1.5 0.673-1.5 1.5s0.673 1.5 1.5 1.5 1.5-0.673 1.5-1.5-0.673-1.5-1.5-1.5zM2.5 13c-0.276 0-0.5-0.224-0.5-0.5s0.224-0.5 0.5-0.5 0.5 0.224 0.5 0.5-0.224 0.5-0.5 0.5zM13.5 11c-0.827 0-1.5 0.673-1.5 1.5s0.673 1.5 1.5 1.5 1.5-0.673 1.5-1.5-0.673-1.5-1.5-1.5zM13.5 13c-0.276 0-0.5-0.224-0.5-0.5s0.224-0.5 0.5-0.5 0.5 0.224 0.5 0.5-0.224 0.5-0.5 0.5zM9.5 11c-0.827 0-1.5 0.673-1.5 1.5s0.673 1.5 1.5 1.5 1.5-0.673 1.5-1.5-0.673-1.5-1.5-1.5zM9.5 13c-0.276 0-0.5-0.224-0.5-0.5s0.224-0.5 0.5-0.5 0.5 0.224 0.5 0.5-0.224 0.5-0.5 0.5zM7.25 1c-1.242 0-2.25 1.007-2.25 2.25v0.75h-4c-0.552 0-1 0.447-1 1v4c0 0.553 0.448 1 1 1h12.7c1.242 0 2.3-1.007 2.3-2.25v-6.75h-8.75zM5 9h-4v-4h4v4zM15 7.75c0 0.678-0.595 1.25-1.3 1.25h-7.7v-5.75c0-0.689 0.561-1.25 1.25-1.25h7.75v5.75z"></path>
</svg>
