<!-- Generated by IcoMoon.io -->
<svg version="1.1" xmlns="http://www.w3.org/2000/svg" width="16" height="16" viewBox="0 0 16 16">
<title>twitter</title>
<path fill="#444" d="M14.361 4.734c0.209 4.62-3.234 9.767-9.33 9.767-1.854 0-3.578-0.545-5.031-1.474 1.742 0.204 3.479-0.279 4.859-1.359-1.437-0.027-2.649-0.979-3.065-2.279 0.513 0.097 1.020 0.066 1.48-0.059-1.578-0.314-2.666-1.737-2.632-3.257 0.443 0.242 0.95 0.393 1.485 0.409-1.46-0.978-1.875-2.906-1.016-4.385 1.621 1.986 4.039 3.294 6.766 3.432-0.479-2.056 1.082-4.030 3.2-4.030 0.943 0 1.797 0.396 2.396 1.036 0.746-0.146 1.449-0.421 2.086-0.796-0.247 0.766-0.769 1.413-1.444 1.818 0.665-0.083 1.298-0.258 1.885-0.521-0.439 0.656-0.995 1.235-1.639 1.698z"></path>
</svg>
