<!-- Generated by IcoMoon.io -->
<svg version="1.1" xmlns="http://www.w3.org/2000/svg" width="24" height="24" viewBox="0 0 24 24">
<title>twitter</title>
<path fill="#444" d="M20.746 7.51c0.289 6.354-4.447 13.429-12.828 13.429-2.548 0-4.92-0.75-6.918-2.024 2.395 0.28 4.782-0.385 6.682-1.869-1.976-0.039-3.642-1.348-4.213-3.135 0.703 0.132 1.4 0.090 2.034-0.082-2.171-0.432-3.666-2.388-3.62-4.476 0.61 0.33 1.308 0.539 2.042 0.562-2.009-1.349-2.579-3.997-1.398-6.033 2.23 2.73 5.553 4.53 9.303 4.722-0.657-2.829 1.489-5.542 4.401-5.542 1.298 0 2.471 0.543 3.296 1.423 1.024-0.198 1.991-0.579 2.868-1.095-0.341 1.053-1.059 1.946-1.986 2.504 0.913-0.119 1.783-0.358 2.59-0.721-0.602 0.902-1.366 1.697-2.253 2.337z"></path>
</svg>
