<!-- Generated by IcoMoon.io -->
<svg version="1.1" xmlns="http://www.w3.org/2000/svg" width="24" height="24" viewBox="0 0 24 24">
<title>twitter</title>
<path fill="#444" d="M21.541 7.101c0.314 6.93-4.851 14.651-13.995 14.651-2.781 0-5.367-0.818-7.546-2.211 2.613 0.306 5.219-0.418 7.288-2.038-2.155-0.040-3.973-1.468-4.597-3.418 0.769 0.146 1.53 0.099 2.22-0.088-2.367-0.471-3.999-2.606-3.948-4.886 0.665 0.363 1.425 0.589 2.228 0.614-2.19-1.467-2.813-4.359-1.524-6.578 2.431 2.979 6.058 4.941 10.149 5.148-0.718-3.084 1.623-6.045 4.8-6.045 1.414 0 2.695 0.594 3.594 1.554 1.119-0.219 2.173-0.631 3.129-1.194-0.37 1.149-1.154 2.12-2.166 2.727 0.997-0.125 1.947-0.387 2.828-0.782-0.659 0.984-1.492 1.853-2.459 2.547z"></path>
</svg>
