<!-- Generated by IcoMoon.io -->
<svg version="1.1" xmlns="http://www.w3.org/2000/svg" width="24" height="24" viewBox="0 0 24 24">
<title>umbrella</title>
<path fill="#444" d="M12.015 0c-0.381 0-0.765 0.017-1.152 0.051-5.739 0.523-10.305 4.854-10.855 10.297-0.042 0.421 0.095 0.843 0.38 1.156 0.285 0.315 0.689 0.495 1.113 0.495h9.75v8.096c0 2.152 1.681 3.904 3.75 3.904 1.971 0 3.573-1.598 3.72-3.611l-1.113 0.335c-0.279 0.085-0.46 0.246-0.606 0.447-0.37 0.785-1.125 1.329-2.001 1.329-1.241 0-2.25-1.078-2.25-2.404v-8.096h9.75c0.424 0 0.828-0.18 1.113-0.493 0.285-0.315 0.423-0.735 0.38-1.156-0.597-5.901-5.745-10.35-11.977-10.35zM1.5 10.5c0.48-4.744 4.465-8.496 9.5-8.955 5.797-0.522 10.947 3.486 11.5 8.955h-21z"></path>
</svg>
