<!-- Generated by IcoMoon.io -->
<svg version="1.1" xmlns="http://www.w3.org/2000/svg" width="16" height="16" viewBox="0 0 16 16">
<title>umbrella</title>
<path fill="#444" d="M8.010 0c-0.254 0-0.51 0.011-0.768 0.034-3.826 0.349-6.87 3.236-7.237 6.865-0.028 0.281 0.063 0.562 0.253 0.771 0.19 0.21 0.459 0.33 0.742 0.33h6.5v5.397c0 1.435 1.121 2.603 2.5 2.603 1.314 0 2.382-1.065 2.48-2.407l-0.742 0.223c-0.186 0.057-0.307 0.164-0.404 0.298-0.247 0.523-0.75 0.886-1.334 0.886-0.827 0-1.5-0.719-1.5-1.603v-5.397h6.5c0.283 0 0.552-0.12 0.742-0.329 0.19-0.21 0.282-0.49 0.253-0.771-0.398-3.934-3.83-6.9-7.985-6.9zM1 7c0.32-3.163 2.977-5.664 6.333-5.97 3.865-0.348 7.298 2.324 7.667 5.97h-14z"></path>
</svg>
