<!-- Generated by IcoMoon.io -->
<svg version="1.1" xmlns="http://www.w3.org/2000/svg" width="24" height="24" viewBox="0 0 24 24">
<title>umbrella</title>
<path fill="#444" d="M12.014 1c-0.349 0-0.701 0.015-1.057 0.047-5.261 0.479-9.446 4.45-9.951 9.439-0.039 0.387 0.087 0.772 0.349 1.062 0.261 0.287 0.631 0.452 1.020 0.452h8.938v7.421c0 1.973 1.542 3.579 3.438 3.579 1.807 0 3.275-1.465 3.411-3.311l-1.021 0.307c-0.255 0.078-0.422 0.226-0.556 0.409-0.339 0.72-1.030 1.22-1.834 1.22-1.137 0-2.063-0.988-2.063-2.204v-7.421h8.938c0.389 0 0.759-0.165 1.020-0.452 0.261-0.289 0.388-0.675 0.349-1.062-0.549-5.408-5.269-9.486-10.981-9.486zM2.375 10.625c0.44-4.35 4.093-7.788 8.707-8.208 5.315-0.479 10.036 3.194 10.543 8.208h-19.25z"></path>
</svg>
