<!-- Generated by IcoMoon.io -->
<svg version="1.1" xmlns="http://www.w3.org/2000/svg" width="16" height="16" viewBox="0 0 16 16">
<title>undo</title>
<path fill="#444" d="M0.002 2.585l0.654 0.44c0.238 0.164 0.348 0.372 0.348 0.666l0.005 1.925 2.606-2.725c0.76-0.761 1.695-1.355 2.709-1.717 3.765-1.341 7.915 0.635 9.256 4.399 1.339 3.767-0.634 7.922-4.397 9.262-0.795 0.28-1.606 0.418-2.405 0.419-2.178 0.004-4.253-0.988-5.631-2.673 0 0-0.376-0.483-0.54-0.757-0.036-0.058-0.121-0.199-0.125-0.215-0.259-0.464-0.472-0.957-0.618-1.48l0.749 0.187c0.283 0.072 0.47 0.258 0.47 0.258 0.057 0.132 0.186 0.394 0.186 0.394 1.438 2.666 4.641 3.971 7.58 2.926 3.245-1.155 4.944-4.738 3.789-7.982-1.154-3.247-4.731-4.947-7.978-3.793-0.873 0.31-1.681 0.822-2.345 1.49l-2.55 2.665 0.008 0.007 1.859-0.003c0.258 0.010 0.453 0.11 0.608 0.329l0.455 0.664c-0.031 0.007-4.182 0.009-4.182 0.009-0.070 0.001-0.135-0.012-0.196-0.036-0.003-0.002-0.006-0.008-0.010-0.008-0.057-0.026-0.109-0.062-0.152-0.106-0.003-0.002-0.005-0.001-0.007-0.004-0.016-0.019-0.023-0.042-0.037-0.062-0.023-0.030-0.048-0.063-0.062-0.1-0.015-0.034-0.017-0.071-0.022-0.11-0.004-0.025-0.015-0.045-0.016-0.073 0 0-0.018-4.163-0.009-4.196z"></path>
</svg>
