<!-- Generated by IcoMoon.io -->
<svg version="1.1" xmlns="http://www.w3.org/2000/svg" width="24" height="24" viewBox="0 0 24 24">
<title>undo</title>
<path fill="#444" d="M0.003 3.877l0.981 0.66c0.357 0.246 0.522 0.558 0.522 0.999l0.007 2.887 3.909-4.088c1.14-1.141 2.543-2.032 4.064-2.575 5.648-2.011 11.872 0.953 13.884 6.598 2.009 5.651-0.951 11.883-6.596 13.893-1.192 0.42-2.409 0.627-3.607 0.628-3.267 0.006-6.38-1.482-8.447-4.009 0 0-0.564-0.724-0.81-1.135-0.054-0.087-0.182-0.299-0.188-0.323-0.389-0.696-0.708-1.436-0.927-2.22l1.124 0.28c0.424 0.108 0.705 0.387 0.705 0.387 0.085 0.198 0.279 0.591 0.279 0.591 2.157 3.999 6.962 5.957 11.37 4.389 4.868-1.732 7.416-7.107 5.684-11.973-1.731-4.87-7.097-7.42-11.967-5.689-1.309 0.465-2.521 1.233-3.518 2.235l-3.825 3.998 0.012 0.010 2.788-0.005c0.387 0.015 0.679 0.165 0.912 0.494l0.682 0.996c-0.046 0.011-6.273 0.014-6.273 0.014-0.105 0.002-0.203-0.018-0.294-0.054-0.004-0.003-0.009-0.012-0.015-0.012-0.085-0.039-0.163-0.093-0.228-0.159-0.005-0.003-0.008-0.002-0.011-0.006-0.024-0.029-0.034-0.063-0.055-0.093-0.034-0.045-0.072-0.095-0.093-0.15-0.022-0.051-0.026-0.106-0.033-0.165-0.006-0.037-0.022-0.067-0.024-0.11 0 0-0.027-6.245-0.013-6.294z"></path>
</svg>
