<!-- Generated by IcoMoon.io -->
<svg version="1.1" xmlns="http://www.w3.org/2000/svg" width="24" height="24" viewBox="0 0 24 24">
<title>unlink</title>
<path fill="#444" d="M15.605 15.668c-0.029 0.361-0.087 0.72-0.171 1.073-0.008 0.033-0.215 0.73-0.343 1.033-0.054 0.125-0.403 0.8-0.54 1.005-0.225 0.336-0.477 0.657-0.773 0.953l-2.386 2.386c-1.279 1.279-2.974 1.905-4.68 1.881-1.704-0.026-3.418-0.698-4.734-2.015-1.478-1.484-2.112-3.466-1.956-5.373 0.121-1.484 0.708-2.922 1.824-4.040l2.388-2.386c0.236-0.237 0.49-0.435 0.748-0.625 0.25-0.176 0.784-0.462 0.784-0.462 0.039-0.022 0.114-0.068 0.234-0.065 0 0.222 0 1.213 0 1.213-0.011 0.312-0.184 0.528-0.377 0.72-0.111 0.093-0.225 0.174-0.33 0.281l-2.386 2.385c-0.492 0.492-0.858 1.067-1.097 1.682-0.718 1.845-0.304 4.070 1.228 5.61 1.024 1.024 2.354 1.551 3.673 1.575 1.321 0.026 2.632-0.454 3.62-1.441l2.386-2.387c0.226-0.225 0.42-0.471 0.59-0.727 0.102-0.152 0.369-0.665 0.413-0.768 0.097-0.222 0.255-0.751 0.262-0.784 0.066-0.264 0.11-0.53 0.132-0.8 0-0.001 0-0.003 0-0.005 0.042-0.501 0.033-1.006-0.069-1.505-0.005-0.027-0.015-0.053-0.021-0.080-0.060-0.268-0.144-0.531-0.246-0.789-0.035-0.087-0.317-0.663-0.438-0.86-0.048-0.078-0.524-0.742-0.755-0.975-0.082-0.084-0.174-0.152-0.261-0.224-0.197-0.195-0.313-0.412-0.325-0.729v-1.185c0.032-0.005 0.184 0.009 0.252 0.031 0.099 0.057 0.198 0.113 0.294 0.176 0.018 0.018 0.341 0.241 0.479 0.344 0.211 0.165 0.426 0.33 0.621 0.526 0.009 0.011 0.016 0.021 0.027 0.032 0.284 0.289 0.531 0.6 0.755 0.922 0.116 0.168 0.21 0.345 0.308 0.522 0.088 0.156 0.177 0.31 0.252 0.473 0.114 0.247 0.211 0.498 0.294 0.755 0.025 0.078 0.232 0.849 0.278 1.161v0c0.072 0.495 0.085 0.99 0.046 1.485zM8.441 9.815v0c0.045 0.312 0.252 1.085 0.279 1.161 0.082 0.257 0.18 0.507 0.294 0.755 0.075 0.161 0.164 0.317 0.252 0.473 0.098 0.175 0.194 0.352 0.308 0.522 0.223 0.322 0.469 0.633 0.755 0.923 0.010 0.010 0.018 0.021 0.027 0.032 0.197 0.197 0.409 0.36 0.621 0.527 0.138 0.102 0.462 0.327 0.479 0.343 0.096 0.063 0.195 0.119 0.293 0.174 0.069 0.024 0.222 0.037 0.253 0.033v-1.185c-0.012-0.316-0.127-0.534-0.325-0.727-0.087-0.073-0.177-0.141-0.259-0.225-0.232-0.232-0.708-0.899-0.756-0.975-0.121-0.197-0.403-0.772-0.438-0.86-0.101-0.258-0.186-0.52-0.246-0.789-0.006-0.026-0.017-0.053-0.023-0.079-0.102-0.498-0.111-1.004-0.069-1.505 0-0.002 0-0.003 0-0.005 0.024-0.272 0.067-0.536 0.133-0.8 0.008-0.033 0.164-0.563 0.262-0.784 0.043-0.103 0.31-0.616 0.413-0.768 0.17-0.255 0.363-0.501 0.589-0.726l2.386-2.386c0.987-0.987 2.298-1.467 3.62-1.442 1.32 0.024 2.65 0.55 3.673 1.575 1.533 1.541 1.949 3.763 1.229 5.608-0.239 0.615-0.605 1.19-1.096 1.682l-2.387 2.386c-0.105 0.105-0.219 0.188-0.33 0.28-0.192 0.191-0.364 0.407-0.377 0.718v1.213c0 0 0.165-0.028 0.234-0.064 0 0 0.534-0.285 0.784-0.462 0.258-0.191 0.513-0.389 0.749-0.625l2.386-2.386c1.116-1.118 1.704-2.556 1.824-4.040 0.156-1.907-0.479-3.888-1.956-5.372-1.317-1.317-3.030-1.989-4.734-2.014-1.706-0.024-3.4 0.602-4.68 1.881l-2.386 2.386c-0.294 0.294-0.546 0.617-0.773 0.951-0.136 0.205-0.485 0.879-0.538 1.003-0.13 0.304-0.336 1-0.345 1.035-0.082 0.351-0.141 0.711-0.17 1.072-0.039 0.495-0.026 0.99 0.045 1.485z"></path>
</svg>
