<!-- Generated by IcoMoon.io -->
<svg version="1.1" xmlns="http://www.w3.org/2000/svg" width="24" height="24" viewBox="0 0 24 24">
<title>unlink</title>
<path d="M5.774 22.999c-1.277 0-2.477-0.496-3.376-1.396-0.902-0.9-1.398-2.099-1.398-3.377s0.496-2.478 1.397-3.378l2.161-2.162c0.9-0.9 2.1-1.396 3.377-1.396s2.477 0.496 3.377 1.396c1.862 1.863 1.862 4.894 0 6.755l-2.161 2.162c-0.899 0.9-2.099 1.396-3.377 1.396zM7.936 12.689c-0.901 0-1.749 0.352-2.387 0.988l-2.16 2.16c-0.638 0.638-0.989 1.485-0.989 2.387s0.352 1.75 0.989 2.387c0.637 0.638 1.485 0.989 2.385 0.989 0.902 0 1.75-0.351 2.386-0.988l2.162-2.162c0.638-0.637 0.989-1.485 0.989-2.386s-0.352-1.749-0.989-2.386-1.485-0.989-2.386-0.989zM16.063 12.71c-1.277 0-2.477-0.496-3.377-1.396-0.901-0.9-1.398-2.1-1.398-3.378 0-1.276 0.497-2.476 1.398-3.377l2.161-2.162c0.902-0.901 2.101-1.397 3.379-1.397 1.277 0 2.477 0.496 3.377 1.396 1.862 1.862 1.862 4.894 0 6.755l-2.162 2.162c-0.9 0.901-2.1 1.397-3.378 1.397zM18.226 2.399c-0.901 0-1.749 0.351-2.387 0.988l-2.16 2.162c-0.639 0.637-0.989 1.485-0.989 2.386s0.351 1.749 0.989 2.386c0.637 0.639 1.485 0.989 2.386 0.989s1.749-0.351 2.386-0.989l2.162-2.16c0.638-0.638 0.988-1.484 0.988-2.387 0-0.9-0.351-1.749-0.988-2.387s-1.486-0.988-2.387-0.988zM7.483 5.899l0.854-0.854c0.253-0.254 0.338-0.53 0.276-0.893l-0.444-2.402-0.855 0.854c-0.252 0.251-0.337 0.528-0.275 0.891l0.444 2.404zM5.037 8.328l0.854-0.854-2.4-0.443c-0.076-0.014-0.149-0.021-0.22-0.021-0.261 0-0.477 0.094-0.677 0.294l-0.854 0.855 2.4 0.443c0.074 0.013 0.147 0.020 0.217 0.020 0.264 0 0.48-0.094 0.68-0.294zM21.397 16.686l0.854-0.854-2.4-0.443c-0.076-0.014-0.148-0.021-0.219-0.021-0.261 0-0.476 0.094-0.677 0.296l-0.854 0.854 2.399 0.442c0.074 0.013 0.146 0.020 0.215 0.020 0.265-0.001 0.482-0.094 0.682-0.294zM15.841 22.26l0.854-0.854c0.253-0.254 0.338-0.53 0.275-0.893l-0.444-2.404-0.854 0.854c-0.252 0.252-0.337 0.528-0.276 0.892l0.445 2.405z"></path>
</svg>
