<!-- Generated by IcoMoon.io -->
<svg version="1.1" xmlns="http://www.w3.org/2000/svg" width="16" height="16" viewBox="0 0 16 16">
<title>unlink</title>
<path fill="#444" d="M10.403 10.445c-0.019 0.241-0.058 0.48-0.114 0.715-0.005 0.022-0.143 0.487-0.229 0.689-0.036 0.083-0.269 0.533-0.36 0.67-0.15 0.224-0.318 0.438-0.515 0.635l-1.591 1.591c-0.853 0.853-1.983 1.27-3.12 1.254-1.136-0.017-2.279-0.465-3.156-1.343-0.985-0.989-1.408-2.311-1.304-3.582 0.081-0.989 0.472-1.948 1.216-2.693l1.592-1.591c0.157-0.158 0.327-0.29 0.499-0.417 0.167-0.117 0.523-0.308 0.523-0.308 0.026-0.015 0.076-0.045 0.156-0.043 0 0.148 0 0.809 0 0.809-0.007 0.208-0.123 0.352-0.251 0.48-0.074 0.062-0.15 0.116-0.22 0.187l-1.591 1.59c-0.328 0.328-0.572 0.711-0.731 1.121-0.479 1.23-0.203 2.713 0.819 3.74 0.683 0.683 1.569 1.034 2.449 1.050 0.881 0.017 1.755-0.303 2.413-0.961l1.591-1.591c0.151-0.15 0.28-0.314 0.393-0.485 0.068-0.101 0.246-0.443 0.275-0.512 0.065-0.148 0.17-0.501 0.175-0.523 0.044-0.176 0.073-0.353 0.088-0.533 0-0.001 0-0.002 0-0.003 0.028-0.334 0.022-0.671-0.046-1.003-0.003-0.018-0.010-0.035-0.014-0.053-0.040-0.179-0.096-0.354-0.164-0.526-0.023-0.058-0.211-0.442-0.292-0.573-0.032-0.052-0.349-0.495-0.503-0.65-0.055-0.056-0.116-0.101-0.174-0.149-0.131-0.13-0.209-0.275-0.217-0.486v-0.79c0.021-0.003 0.123 0.006 0.168 0.021 0.066 0.038 0.132 0.075 0.196 0.117 0.012 0.012 0.227 0.161 0.319 0.229 0.141 0.11 0.284 0.22 0.414 0.351 0.006 0.007 0.011 0.014 0.018 0.021 0.189 0.193 0.354 0.4 0.503 0.615 0.077 0.112 0.14 0.23 0.205 0.348 0.059 0.104 0.118 0.207 0.168 0.315 0.076 0.165 0.141 0.332 0.196 0.503 0.017 0.052 0.155 0.566 0.185 0.774v0c0.048 0.33 0.057 0.66 0.031 0.99zM5.627 6.543v0c0.030 0.208 0.168 0.723 0.186 0.774 0.055 0.171 0.12 0.338 0.196 0.503 0.050 0.107 0.109 0.211 0.168 0.315 0.065 0.117 0.129 0.235 0.205 0.348 0.149 0.215 0.313 0.422 0.503 0.615 0.007 0.007 0.012 0.014 0.018 0.021 0.131 0.131 0.273 0.24 0.414 0.351 0.092 0.068 0.308 0.218 0.319 0.229 0.064 0.042 0.13 0.079 0.195 0.116 0.046 0.016 0.148 0.025 0.169 0.022v-0.79c-0.008-0.211-0.085-0.356-0.217-0.485-0.058-0.049-0.118-0.094-0.173-0.15-0.155-0.155-0.472-0.599-0.504-0.65-0.081-0.131-0.269-0.515-0.292-0.573-0.067-0.172-0.124-0.347-0.164-0.526-0.004-0.017-0.011-0.035-0.015-0.053-0.068-0.332-0.074-0.669-0.046-1.003 0-0.001 0-0.002 0-0.003 0.016-0.181 0.045-0.357 0.089-0.533 0.005-0.022 0.109-0.375 0.175-0.523 0.029-0.069 0.207-0.411 0.275-0.512 0.113-0.17 0.242-0.334 0.393-0.484l1.591-1.591c0.658-0.658 1.532-0.978 2.413-0.961 0.88 0.016 1.767 0.367 2.449 1.050 1.022 1.027 1.299 2.509 0.819 3.739-0.159 0.41-0.403 0.793-0.731 1.121l-1.591 1.591c-0.070 0.070-0.146 0.125-0.22 0.187-0.128 0.127-0.243 0.271-0.251 0.479v0.809c0 0 0.11-0.019 0.156-0.043 0 0 0.356-0.19 0.523-0.308 0.172-0.127 0.342-0.259 0.499-0.417l1.591-1.591c0.744-0.745 1.136-1.704 1.216-2.693 0.104-1.271-0.319-2.592-1.304-3.581-0.878-0.878-2.020-1.326-3.156-1.343s-2.267 0.401-3.12 1.254l-1.591 1.591c-0.196 0.196-0.364 0.411-0.515 0.634-0.091 0.137-0.323 0.586-0.359 0.669-0.087 0.203-0.224 0.667-0.23 0.69-0.055 0.234-0.094 0.474-0.113 0.715-0.026 0.33-0.017 0.66 0.030 0.99z"></path>
</svg>
