<!-- Generated by IcoMoon.io -->
<svg version="1.1" xmlns="http://www.w3.org/2000/svg" width="24" height="24" viewBox="0 0 24 24">
<title>unlock</title>
<path fill="#444" d="M6.75 12v-5.413c0-2.805 2.355-5.087 5.25-5.087s5.25 2.281 5.25 5.087c0 0 0.16 0.311 0.52 0.563l0.974 0.681c0-0.011 0.006-0.020 0.006-0.030v-1.215c0-3.63-3.028-6.585-6.75-6.585s-6.75 2.955-6.75 6.586v5.413c-1.657 0-3 1.342-3 3v9h16.5c1.656 0 3-1.343 3-3v-9h-15zM20.25 21c0 0.828-0.674 1.5-1.5 1.5h-15v-7.5c0-0.828 0.673-1.5 1.5-1.5h15v7.5z"></path>
</svg>
