<!-- Generated by IcoMoon.io -->
<svg version="1.1" xmlns="http://www.w3.org/2000/svg" width="24" height="24" viewBox="0 0 24 24">
<title>unlock</title>
<path d="M8.583 11.275v-5.553c0-1.819 1.527-3.299 3.408-3.299 1.879 0 3.407 1.479 3.428 3.388 0.022 0.042 0.149 0.265 0.42 0.455l0.983 0.686v-1.23c-0.001-2.602-2.168-4.722-4.832-4.722s-4.832 2.12-4.832 4.722v5.554h-0.811c-1.244 0-2.256 1.018-2.256 2.257v9.467h13.542c1.256 0 2.277-1.012 2.277-2.256v-9.469h-11.327zM18.497 20.744c0 0.467-0.387 0.84-0.864 0.84h-12.129l-0.001-8.044c0-0.469 0.377-0.85 0.844-0.85h12.15v8.054z"></path>
</svg>
