<!-- Generated by IcoMoon.io -->
<svg version="1.1" xmlns="http://www.w3.org/2000/svg" width="24" height="24" viewBox="0 0 24 24">
<title>upload</title>
<path fill="#444" d="M20.325 17.931c-0.216 0-0.429-0.104-0.563-0.292-0.219-0.31-0.144-0.739 0.167-0.958 1.805-1.27 2.24-3.775 0.971-5.582-0.748-1.065-1.97-1.701-3.27-1.701-0.001 0-0.002 0-0.003 0h-1.18c-0.314 0-0.588-0.212-0.666-0.517-0.452-1.769-1.565-3.253-3.134-4.181-1.562-0.925-3.393-1.186-5.154-0.732-3.638 0.934-5.837 4.662-4.903 8.305 0.265 1.040 0.782 2.018 1.496 2.827 0.252 0.283 0.224 0.719-0.061 0.971-0.283 0.251-0.719 0.223-0.97-0.061-0.857-0.972-1.479-2.148-1.796-3.397-1.123-4.377 1.52-8.854 5.891-9.977 2.115-0.543 4.315-0.231 6.196 0.882 1.73 1.023 2.999 2.609 3.615 4.504h0.664c0.001 0 0.003 0 0.003 0 1.748 0 3.391 0.855 4.396 2.288 1.704 2.426 1.119 5.789-1.304 7.497-0.121 0.084-0.259 0.124-0.395 0.124zM7.444 18.875h1.12c0.403 0 0.575-0.075 0.807-0.404l1.943-2.775v5.242c0 0.38 0.307 0.688 0.688 0.688 0.379 0 0.688-0.308 0.688-0.688v-5.243l1.944 2.776c0.233 0.329 0.403 0.404 0.806 0.404h1.118l-2.863-4.144h-0.002l-0.632-0.902c-0.070-0.097-0.149-0.154-0.228-0.215-0.15-0.117-0.314-0.197-0.516-0.224l-0.317-0.015-0.316 0.016c-0.183 0.023-0.336 0.091-0.477 0.188l0.001 0.001c-0.093 0.072-0.187 0.139-0.269 0.254l-3.495 5.041z"></path>
</svg>
