<!-- Generated by IcoMoon.io -->
<svg version="1.1" xmlns="http://www.w3.org/2000/svg" width="16" height="16" viewBox="0 0 16 16">
<title>user_id</title>
<path fill="#444" d="M14.545 2.25h-13.090c-0.803 0-1.455 0.647-1.455 1.438v8.625c0 0.79 0.652 1.438 1.455 1.438h13.090c0.803 0 1.455-0.647 1.455-1.438v-8.625c0-0.791-0.652-1.438-1.455-1.438zM15 12.312c0 0.237-0.208 0.438-0.455 0.438h-13.090c-0.247 0-0.455-0.2-0.455-0.438v-8.624c0-0.238 0.208-0.438 0.455-0.438h13.090c0.247 0 0.455 0.2 0.455 0.438v8.624zM5.050 4.25c-0.965 0-1.75 0.785-1.75 1.75s0.785 1.75 1.75 1.75 1.75-0.785 1.75-1.75-0.785-1.75-1.75-1.75zM5.050 6.75c-0.414 0-0.75-0.336-0.75-0.75s0.336-0.75 0.75-0.75 0.75 0.336 0.75 0.75-0.336 0.75-0.75 0.75zM8 10.65v1.1l-0.652-0.457c-0.201-0.141-0.291-0.32-0.32-0.543h-0.028c0-0.553-0.448-1-1-1h-2c-0.552 0-1 0.447-1 1h-0.015c-0.029 0.224-0.117 0.403-0.317 0.543l-0.668 0.457 0.010-1.1c0.053-1.055 0.921-1.9 1.99-1.9h2c1.069 0 1.937 0.845 1.99 1.9h0.010zM9 11h3.877c0.293 0.002 0.488 0.094 0.656 0.334l0.467 0.666h-3.877c-0.293-0.001-0.488-0.093-0.656-0.333l-0.467-0.667zM9 6.25h3.877c0.293 0.002 0.488 0.094 0.656 0.334l0.467 0.666h-3.877c-0.293-0.001-0.488-0.093-0.656-0.333l-0.467-0.667zM9 4.25h3.877c0.293 0.002 0.488 0.094 0.656 0.334l0.467 0.666h-3.877c-0.293-0.001-0.488-0.093-0.656-0.333l-0.467-0.667z"></path>
</svg>
