<!-- Generated by IcoMoon.io -->
<svg version="1.1" xmlns="http://www.w3.org/2000/svg" width="24" height="24" viewBox="0 0 24 24">
<title>user_tie</title>
<path fill="#444" d="M20.938 19.717v3.283l-0.898-0.627c-0.328-0.232-0.476-0.514-0.476-0.918v-1.738c0-1.98-1.543-3.592-3.438-3.592h-2.75v5.33c-0.002 0.404-0.129 0.67-0.46 0.902l-0.916 0.643-0.915-0.643c-0.331-0.232-0.458-0.498-0.46-0.902v-5.33h-2.75c-1.894 0-3.438 1.611-3.438 3.592v1.83c-0.024 0.353-0.158 0.615-0.455 0.826l-0.92 0.627v-3.283c0-2.736 2.159-4.967 4.812-4.967h8.25c2.654 0 4.814 2.23 4.814 4.967zM6.5 6.499c0-3.031 2.468-5.499 5.5-5.499s5.5 2.468 5.5 5.499c0 3.032-2.468 5.501-5.5 5.501s-5.5-2.469-5.5-5.501zM7.875 6.499c0 2.279 1.847 4.126 4.125 4.126 2.277 0 4.125-1.847 4.125-4.126 0-2.277-1.848-4.124-4.125-4.124-2.278 0-4.125 1.847-4.125 4.124z"></path>
</svg>
