<!-- Generated by IcoMoon.io -->
<svg version="1.1" xmlns="http://www.w3.org/2000/svg" width="24" height="24" viewBox="0 0 24 24">
<title>users</title>
<path fill="#444" d="M19.5 20.419v3.581l-0.978-0.686c-0.36-0.252-0.522-0.559-0.522-0.999v-1.896c0-2.162-1.683-3.919-3.75-3.919h-9c-2.067 0-3.75 1.758-3.75 3.919v1.998c-0.027 0.38-0.171 0.668-0.498 0.897l-1.002 0.685v-3.581c0-2.988 2.355-5.419 5.25-5.419h9c2.895 0 5.25 2.431 5.25 5.419zM3.75 5.998c0-3.308 2.691-5.998 6-5.998s6 2.691 6 5.998c0 3.309-2.691 6.002-6 6.002s-6-2.692-6-6.002zM5.25 5.998c0 2.487 2.014 4.502 4.5 4.502 2.484 0 4.5-2.014 4.5-4.502 0-2.484-2.016-4.498-4.5-4.498-2.486 0-4.5 2.014-4.5 4.498zM21.386 15.768c-0.435-0.243-0.765-0.418-0.987-0.463l0.104 1.21c0.029 0.332 0.163 0.572 0.383 0.764 0.909 0.716 1.616 1.842 1.616 3.141v2.068c0.042 0.341 0.177 0.612 0.483 0.827l1.017 0.685v-3.581c0-2.215-1.085-3.795-2.614-4.651zM16.16 0.354c-0.068-0.028-0.135-0.060-0.204-0.086l0.126 1.135c0.039 0.352 0.188 0.607 0.44 0.798 1.282 0.825 2.227 2.157 2.227 3.795 0 1.668-0.923 3.095-2.274 3.863-0.209 0.175-0.352 0.395-0.401 0.707l-0.174 1.155c0.015-0.005 0.030-0.006 0.045-0.009v0.002c0.003-0.002 0.005-0.003 0.008-0.003 0.063-0.016 0.121-0.036 0.175-0.067 2.385-0.789 4.122-2.997 4.122-5.644 0-2.635-1.617-4.615-4.090-5.644z"></path>
</svg>
