<!-- Generated by IcoMoon.io -->
<svg version="1.1" xmlns="http://www.w3.org/2000/svg" width="24" height="24" viewBox="0 0 24 24">
<title>user_id</title>
<path fill="#444" d="M21.817 3.375h-19.635c-1.205 0-2.183 0.971-2.183 2.157v12.937c0 1.185 0.978 2.157 2.183 2.157h19.635c1.205 0 2.183-0.971 2.183-2.157v-12.937c0-1.186-0.978-2.157-2.183-2.157zM22.5 18.468c0 0.355-0.312 0.657-0.683 0.657h-19.635c-0.37 0-0.683-0.3-0.683-0.657v-12.936c0-0.357 0.312-0.657 0.683-0.657h19.635c0.37 0 0.683 0.3 0.683 0.657v12.936zM7.575 6.375c-1.447 0-2.625 1.178-2.625 2.625s1.178 2.625 2.625 2.625 2.625-1.178 2.625-2.625-1.178-2.625-2.625-2.625zM7.575 10.125c-0.621 0-1.125-0.504-1.125-1.125s0.504-1.125 1.125-1.125 1.125 0.504 1.125 1.125-0.504 1.125-1.125 1.125zM12 15.975v1.65l-0.978-0.686c-0.301-0.212-0.437-0.48-0.48-0.814h-0.042c0-0.83-0.672-1.5-1.5-1.5h-3c-0.828 0-1.5 0.67-1.5 1.5h-0.022c-0.043 0.336-0.176 0.605-0.476 0.814l-1.002 0.686 0.015-1.65c0.080-1.582 1.381-2.85 2.985-2.85h3c1.604 0 2.906 1.268 2.985 2.85h0.015zM13.5 16.5h5.816c0.439 0.003 0.732 0.141 0.984 0.501l0.701 0.999h-5.815c-0.439-0.002-0.732-0.139-0.984-0.5l-0.701-1zM13.5 9.375h5.816c0.439 0.003 0.732 0.141 0.984 0.501l0.701 0.999h-5.815c-0.439-0.002-0.732-0.139-0.984-0.5l-0.701-1zM13.5 6.375h5.816c0.439 0.003 0.732 0.141 0.984 0.501l0.701 0.999h-5.815c-0.439-0.002-0.732-0.139-0.984-0.5l-0.701-1z"></path>
</svg>
