<!-- Generated by IcoMoon.io -->
<svg version="1.1" xmlns="http://www.w3.org/2000/svg" width="16" height="16" viewBox="0 0 16 16">
<title>user_tie</title>
<path fill="#444" d="M14.5 13.613v2.387l-0.652-0.457c-0.24-0.168-0.347-0.373-0.347-0.666v-1.264c-0.001-1.441-1.123-2.613-2.501-2.613h-2v3.877c-0.002 0.293-0.094 0.488-0.334 0.656l-0.666 0.467-0.666-0.467c-0.24-0.168-0.332-0.363-0.334-0.656v-3.877h-2c-1.378 0-2.5 1.172-2.5 2.613v1.332c-0.018 0.253-0.114 0.445-0.332 0.598l-0.668 0.457v-2.387c0-1.992 1.57-3.613 3.5-3.613h6c1.93 0 3.5 1.621 3.5 3.613zM4 3.999c0-2.205 1.794-3.999 4-3.999s4 1.794 4 3.999c0 2.206-1.794 4.001-4 4.001s-4-1.795-4-4.001zM5 3.999c0 1.658 1.343 3.001 3 3.001s3-1.343 3-3.001c0-1.656-1.344-2.999-3-2.999s-3 1.343-3 2.999z"></path>
</svg>
