<!-- Generated by IcoMoon.io -->
<svg version="1.1" xmlns="http://www.w3.org/2000/svg" width="24" height="24" viewBox="0 0 24 24">
<title>user_hat</title>
<path fill="#444" d="M6.5 6.499c0 3.033 2.467 5.501 5.5 5.501s5.5-2.468 5.5-5.501c0-0.478-0.070-0.937-0.189-1.374h1.885l-0.642-0.916c-0.231-0.33-0.5-0.456-0.902-0.459h-0.839v-1.375c0-0.76-0.616-1.375-1.375-1.375h-6.876c-0.759 0-1.374 0.615-1.374 1.375v1.375h-0.84c-0.403 0.003-0.671 0.129-0.902 0.459l-0.642 0.916h1.885c-0.119 0.437-0.189 0.896-0.189 1.374zM8.562 2.375h6.875v1.375h-6.875v-1.375zM8.127 5.125h7.746c0.157 0.43 0.252 0.889 0.252 1.374 0 2.279-1.848 4.126-4.125 4.126-2.278 0-4.125-1.847-4.125-4.126 0-0.485 0.095-0.944 0.252-1.374zM20.938 19.719v3.281l-0.897-0.629c-0.33-0.23-0.478-0.513-0.478-0.915v-1.737c0-1.982-1.542-3.594-3.438-3.594h-2.75v5.331c-0.003 0.402-0.129 0.671-0.459 0.902l-0.916 0.642-0.916-0.642c-0.33-0.231-0.456-0.5-0.459-0.902v-5.331h-2.75c-1.896 0-3.438 1.611-3.438 3.594v1.831c-0.025 0.348-0.156 0.612-0.457 0.821l-0.918 0.629v-3.281c0-2.74 2.159-4.969 4.812-4.969h8.25c2.654 0 4.814 2.229 4.814 4.969z"></path>
</svg>
