<!-- Generated by IcoMoon.io -->
<svg version="1.1" xmlns="http://www.w3.org/2000/svg" width="16" height="16" viewBox="0 0 16 16">
<title>user_hat</title>
<path fill="#444" d="M4 3.999c0 2.206 1.794 4.001 4 4.001s4-1.795 4-4.001c0-0.347-0.051-0.681-0.138-0.999h1.371l-0.467-0.666c-0.167-0.24-0.363-0.332-0.656-0.334h-0.61v-1c0-0.553-0.448-1-1-1h-5c-0.552 0-1 0.447-1 1v1h-0.61c-0.293 0.002-0.489 0.094-0.657 0.334l-0.466 0.666h1.371c-0.087 0.318-0.138 0.652-0.138 0.999zM5.5 1h5v1h-5v-1zM5.183 3h5.634c0.114 0.312 0.183 0.646 0.183 0.999 0 1.658-1.344 3.001-3 3.001s-3-1.343-3-3.001c0-0.353 0.069-0.687 0.183-0.999zM14.5 13.613v2.387l-0.652-0.457c-0.24-0.168-0.347-0.373-0.347-0.666v-1.264c-0.001-1.441-1.123-2.613-2.501-2.613h-2v3.877c-0.002 0.293-0.094 0.488-0.334 0.656l-0.666 0.467-0.666-0.467c-0.24-0.168-0.332-0.363-0.334-0.656v-3.877h-2c-1.378 0-2.5 1.172-2.5 2.613v1.332c-0.018 0.253-0.114 0.445-0.332 0.598l-0.668 0.457v-2.387c0-1.992 1.57-3.613 3.5-3.613h6c1.93 0 3.5 1.621 3.5 3.613z"></path>
</svg>
