<!-- Generated by IcoMoon.io -->
<svg version="1.1" xmlns="http://www.w3.org/2000/svg" width="24" height="24" viewBox="0 0 24 24">
<title>user</title>
<path d="M12 1c-3.033 0-5.5 2.467-5.5 5.499 0 3.033 2.467 5.501 5.5 5.501s5.5-2.468 5.5-5.501c0-3.032-2.467-5.499-5.5-5.499zM12 10.625c-2.278 0-4.125-1.847-4.125-4.126 0-2.277 1.847-4.124 4.125-4.124 2.277 0 4.125 1.847 4.125 4.124 0 2.279-1.848 4.126-4.125 4.126zM19.563 21.456v-1.737c0-1.982-1.542-3.594-3.438-3.594h-8.25c-1.896 0-3.438 1.611-3.438 3.594v1.831c-0.025 0.348-0.156 0.612-0.457 0.821l-0.918 0.629v-3.281c0-2.74 2.159-4.969 4.812-4.969h8.25c2.653 0 4.812 2.229 4.812 4.969v3.281l-0.897-0.629c-0.328-0.23-0.476-0.513-0.476-0.915z"></path>
</svg>
