<!-- Generated by IcoMoon.io -->
<svg version="1.1" xmlns="http://www.w3.org/2000/svg" width="16" height="16" viewBox="0 0 16 16">
<title>user</title>
<path fill="#444" d="M8 0c-2.206 0-4 1.794-4 3.999s1.794 4.001 4 4.001 4-1.795 4-4.001c0-2.205-1.794-3.999-4-3.999zM8 7c-1.657 0-3-1.343-3-3.001 0-1.656 1.343-2.999 3-2.999s3 1.343 3 2.999c0 1.658-1.344 3.001-3 3.001zM13.5 14.877v-1.264c0-1.441-1.122-2.613-2.5-2.613h-6c-1.378 0-2.5 1.172-2.5 2.613v1.332c-0.018 0.253-0.114 0.445-0.332 0.598l-0.668 0.457v-2.387c0-1.992 1.57-3.613 3.5-3.613h6c1.93 0 3.5 1.621 3.5 3.613v2.387l-0.652-0.457c-0.24-0.168-0.348-0.373-0.348-0.666z"></path>
</svg>
