<!-- Generated by IcoMoon.io -->
<svg version="1.1" xmlns="http://www.w3.org/2000/svg" width="24" height="24" viewBox="0 0 24 24">
<title>user</title>
<path fill="#444" d="M12 0c-3.309 0-6 2.691-6 5.998 0 3.309 2.691 6.002 6 6.002s6-2.692 6-6.002c0-3.308-2.691-5.999-6-5.999zM12 10.5c-2.486 0-4.5-2.014-4.5-4.502 0-2.484 2.014-4.498 4.5-4.498 2.484 0 4.5 2.014 4.5 4.498 0 2.487-2.016 4.502-4.5 4.502zM20.25 22.316v-1.896c0-2.162-1.683-3.919-3.75-3.919h-9c-2.067 0-3.75 1.758-3.75 3.919v1.998c-0.027 0.38-0.171 0.668-0.498 0.897l-1.002 0.686v-3.581c0-2.988 2.355-5.42 5.25-5.42h9c2.895 0 5.25 2.432 5.25 5.42v3.581l-0.978-0.686c-0.36-0.252-0.522-0.559-0.522-0.999z"></path>
</svg>
