<!-- Generated by IcoMoon.io -->
<svg version="1.1" xmlns="http://www.w3.org/2000/svg" width="24" height="24" viewBox="0 0 24 24">
<title>user_tie</title>
<path fill="#444" d="M21.75 20.419v3.581l-0.978-0.686c-0.36-0.252-0.521-0.559-0.521-0.999v-1.896c-0.001-2.162-1.684-3.919-3.751-3.919h-3v5.816c-0.003 0.439-0.141 0.732-0.501 0.984l-0.999 0.701-0.999-0.701c-0.36-0.252-0.498-0.544-0.501-0.984v-5.816h-3c-2.067 0-3.75 1.758-3.75 3.919v1.998c-0.027 0.38-0.171 0.668-0.498 0.897l-1.002 0.685v-3.581c0-2.988 2.355-5.419 5.25-5.419h9c2.895 0 5.25 2.431 5.25 5.419zM6 5.998c0-3.308 2.691-5.998 6-5.998s6 2.691 6 5.998c0 3.309-2.691 6.002-6 6.002s-6-2.692-6-6.002zM7.5 5.998c0 2.487 2.014 4.502 4.5 4.502 2.484 0 4.5-2.014 4.5-4.502 0-2.484-2.016-4.498-4.5-4.498-2.486 0-4.5 2.014-4.5 4.498z"></path>
</svg>
