<!-- Generated by IcoMoon.io -->
<svg version="1.1" xmlns="http://www.w3.org/2000/svg" width="24" height="24" viewBox="0 0 24 24">
<title>video_camera</title>
<path fill="#444" d="M23.073 4.614c-0.186-0.078-0.381-0.114-0.575-0.114-0.392 0-0.774 0.153-1.062 0.44l-1.062 1.060h-5.36v-1.5h-11.261c-2.070 0-3.755 1.68-3.755 3.75v11.25h11.261c2.070 0 3.753-1.68 3.753-3.75v-2.234c0.249-0.001 5.362-0.015 5.362-0.015l1.061 1.059c0.288 0.287 0.67 0.439 1.062 0.439 0.193 0 0.389-0.036 0.575-0.114 0.563-0.231 0.927-0.78 0.927-1.386v-7.5c0-0.606-0.364-1.155-0.927-1.386zM11.261 18h-9.759v-9.75c0-1.24 1.011-2.25 2.253-2.25h9.759v1.385c-0.003 0.039-0.003 4.71 0 4.749v3.616c0 1.241-1.011 2.25-2.253 2.25zM22.511 13.5l-1.514-1.5-5.982 0.016v-4.517h5.982l1.514-1.5v7.5z"></path>
</svg>
