<!-- Generated by IcoMoon.io -->
<svg version="1.1" xmlns="http://www.w3.org/2000/svg" width="24" height="24" viewBox="0 0 24 24">
<title>video_camera</title>
<path d="M22.151 5.229c-0.171-0.071-0.35-0.104-0.527-0.104-0.358 0-0.709 0.14-0.973 0.402l-0.974 0.973h-4.914v-1.375h-10.322c-1.898 0-3.441 1.54-3.441 3.437v10.312h10.323c1.897 0 3.441-1.54 3.441-3.438v-2.046c0.228-0.001 4.915-0.014 4.915-0.014l0.972 0.972c0.263 0.263 0.614 0.402 0.973 0.402 0.177 0 0.356-0.033 0.527-0.104 0.515-0.212 0.849-0.715 0.849-1.271v-6.875c0-0.556-0.334-1.059-0.849-1.271zM11.323 17.5h-8.947v-8.938c0-1.138 0.926-2.062 2.065-2.062h8.946v1.269c-0.003 0.036-0.003 4.317 0 4.354v3.315c0 1.137-0.926 2.062-2.064 2.062zM21.634 13.375l-1.387-1.375-5.483 0.015v-4.14h5.483l1.387-1.375v6.875z"></path>
</svg>
