<!-- Generated by IcoMoon.io -->
<svg version="1.1" xmlns="http://www.w3.org/2000/svg" width="16" height="16" viewBox="0 0 16 16">
<title>video_camera</title>
<path fill="#444" d="M15.382 3.076c-0.124-0.052-0.254-0.076-0.383-0.076-0.261 0-0.516 0.102-0.708 0.293l-0.708 0.707h-3.573v-1h-7.507c-1.38 0-2.503 1.12-2.503 2.5v7.5h7.507c1.38 0 2.502-1.12 2.502-2.5v-1.489c0.166-0.001 3.575-0.010 3.575-0.010l0.707 0.706c0.192 0.191 0.447 0.293 0.708 0.293 0.129 0 0.259-0.024 0.383-0.076 0.375-0.154 0.618-0.52 0.618-0.924v-5c0-0.404-0.243-0.77-0.618-0.924zM7.507 12h-6.506v-6.5c0-0.827 0.674-1.5 1.502-1.5h6.506v0.923c-0.002 0.026-0.002 3.14 0 3.166v2.411c0 0.827-0.674 1.5-1.502 1.5zM15.007 9l-1.009-1-3.988 0.011v-3.011h3.988l1.009-1v5z"></path>
</svg>
