<!-- Generated by IcoMoon.io -->
<svg version="1.1" xmlns="http://www.w3.org/2000/svg" width="16" height="16" viewBox="0 0 16 16">
<title>wallet</title>
<path fill="#444" d="M15.325 3.225l-0.192-1.050c-0.143-0.775-0.9-1.295-1.69-1.15l-10.804 1.971h-1.184c-0.803 0-1.455 0.649-1.455 1.436v9.132c0 0.79 0.652 1.436 1.455 1.436h13.090c0.803 0 1.455-0.646 1.455-1.436v-9.132c0-0.505-0.271-0.952-0.675-1.207zM13.622 2.006c0.243-0.043 0.484 0.114 0.526 0.349l0.105 0.642h-6.056l5.425-0.991zM1.455 3.995h13.090c0.247 0 0.455 0.2 0.455 0.437v0.643c-0.144-0.046-0.295-0.080-0.455-0.080h-13.090c-0.16 0-0.311 0.034-0.455 0.080v-0.643c0-0.237 0.208-0.437 0.455-0.437zM15 7.51v6.054c0 0.237-0.208 0.438-0.455 0.438h-13.090c-0.247 0-0.455-0.2-0.455-0.438v-7.134c0-0.236 0.208-0.437 0.455-0.437h13.090c0.247 0 0.455 0.2 0.455 0.437v1.080z"></path>
</svg>
