<!-- Generated by IcoMoon.io -->
<svg version="1.1" xmlns="http://www.w3.org/2000/svg" width="24" height="24" viewBox="0 0 24 24">
<title>wallet</title>
<path fill="#444" d="M22.987 4.838l-0.288-1.575c-0.215-1.163-1.35-1.942-2.535-1.725l-16.206 2.957h-1.776c-1.205 0-2.183 0.974-2.183 2.154v13.698c0 1.185 0.978 2.154 2.183 2.154h19.635c1.205 0 2.183-0.969 2.183-2.154v-13.698c0-0.757-0.407-1.428-1.013-1.811zM20.433 3.009c0.364-0.064 0.726 0.171 0.789 0.523l0.157 0.963h-9.084l8.138-1.486zM2.183 5.992h19.635c0.37 0 0.683 0.3 0.683 0.656v0.965c-0.216-0.069-0.442-0.12-0.683-0.12h-19.635c-0.24 0-0.466 0.051-0.683 0.12v-0.965c0-0.356 0.312-0.655 0.683-0.655zM22.5 11.265v9.081c0 0.355-0.312 0.657-0.683 0.657h-19.635c-0.37 0-0.683-0.3-0.683-0.657v-10.701c0-0.354 0.312-0.655 0.683-0.655h19.635c0.37 0 0.683 0.3 0.683 0.655v1.62z"></path>
</svg>
