<!-- Generated by IcoMoon.io -->
<svg version="1.1" xmlns="http://www.w3.org/2000/svg" width="24" height="24" viewBox="0 0 24 24">
<title>wallet</title>
<path fill="#444" d="M22.073 5.431l-0.266-1.442c-0.195-1.062-1.237-1.781-2.323-1.578l-14.855 2.709h-1.629c-1.102 0-2 0.889-2 1.975v12.556c0 1.089 0.898 1.975 2 1.975h18c1.102 0 2-0.886 2-1.975v-12.556c0-0.699-0.373-1.309-0.927-1.664zM19.731 3.755c0.334-0.055 0.666 0.161 0.723 0.483l0.143 0.882h-8.327l7.461-1.365zM3 6.494h18c0.337 0 0.625 0.271 0.625 0.601v0.883c-0.197-0.064-0.406-0.11-0.625-0.11h-18c-0.219 0-0.428 0.046-0.625 0.109v-0.882c0-0.33 0.288-0.601 0.625-0.601zM21.625 11.327v8.323c0 0.325-0.288 0.602-0.625 0.602h-18c-0.337 0-0.625-0.276-0.625-0.602v-9.813c0-0.324 0.288-0.595 0.625-0.595h18c0.337 0 0.625 0.271 0.625 0.595v1.49z"></path>
</svg>
