<!-- Generated by IcoMoon.io -->
<svg version="1.1" xmlns="http://www.w3.org/2000/svg" width="16" height="16" viewBox="0 0 16 16">
<title>warning</title>
<path fill="#444" d="M8 12.857c-0.415 0-0.75-0.336-0.75-0.75s0.335-0.75 0.75-0.75c0.414 0 0.75 0.336 0.75 0.75s-0.335 0.75-0.75 0.75zM8.5 9.34c0 0.576-0.448 1.041-1 1.041v-5.25c0-0.574 0.448-1.039 1-1.039v5.248zM15.795 12.432l-6.485-10.356c-0.438-0.691-1.381-0.914-2.103-0.494-0.21 0.121-0.388 0.291-0.515 0.494l-6.486 10.356c-0.423 0.701-0.172 1.598 0.56 2.002 0.228 0.125 0.486 0.193 0.749 0.197h12.973c0.845-0.010 1.523-0.672 1.513-1.48-0.003-0.253-0.073-0.501-0.206-0.719zM14.873 13.467c-0.101 0.104-0.24 0.16-0.393 0.164h-12.965c-0.086-0.002-0.183-0.027-0.268-0.074-0.116-0.064-0.2-0.166-0.232-0.287-0.021-0.076-0.029-0.193 0.048-0.32l6.477-10.343c0.039-0.062 0.098-0.119 0.167-0.158 0.090-0.053 0.19-0.080 0.292-0.080 0.193 0 0.373 0.094 0.467 0.242l6.482 10.352c0.031 0.051 0.052 0.123 0.052 0.195 0.002 0.147-0.068 0.248-0.127 0.309z"></path>
</svg>
