<!-- Generated by IcoMoon.io -->
<svg version="1.1" xmlns="http://www.w3.org/2000/svg" width="24" height="24" viewBox="0 0 24 24">
<title>warning</title>
<path fill="#444" d="M23.692 18.648l-9.728-15.534c-0.657-1.036-2.072-1.371-3.155-0.741-0.315 0.182-0.582 0.437-0.772 0.741l-9.729 15.534c-0.634 1.052-0.258 2.397 0.84 3.003 0.342 0.188 0.729 0.289 1.124 0.295h19.459c1.268-0.015 2.285-1.008 2.269-2.22-0.005-0.38-0.11-0.752-0.309-1.079zM11.25 7.697c0-0.861 0.672-1.558 1.5-1.558v7.872c0 0.864-0.672 1.562-1.5 1.562v-7.875zM12 19.285c-0.623 0-1.125-0.504-1.125-1.125s0.502-1.125 1.125-1.125c0.621 0 1.125 0.504 1.125 1.125s-0.503 1.125-1.125 1.125z"></path>
</svg>
