<!-- Generated by IcoMoon.io -->
<svg version="1.1" xmlns="http://www.w3.org/2000/svg" width="24" height="24" viewBox="0 0 24 24">
<title>wheel</title>
<path fill="#444" d="M23 12c0 6.074-4.925 11-11 11s-11-4.926-11-11 4.925-11 11-11 11 4.926 11 11zM21.625 12c0-5.307-4.318-9.625-9.625-9.625s-9.625 4.318-9.625 9.625 4.318 9.625 9.625 9.625 9.625-4.318 9.625-9.625zM18.875 12c0 3.797-3.078 6.875-6.875 6.875s-6.875-3.078-6.875-6.875 3.078-6.875 6.875-6.875 6.875 3.078 6.875 6.875zM17.5 12c0-3.033-2.467-5.5-5.5-5.5s-5.5 2.467-5.5 5.5 2.467 5.5 5.5 5.5 5.5-2.467 5.5-5.5zM12 7.875c-0.38 0-0.688 0.308-0.688 0.688s0.308 0.687 0.688 0.687 0.688-0.308 0.688-0.688-0.308-0.687-0.688-0.687zM8.076 10.726c-0.118 0.361 0.081 0.748 0.44 0.866 0.363 0.117 0.75-0.080 0.868-0.441 0.117-0.361-0.081-0.75-0.442-0.866-0.361-0.119-0.749 0.079-0.866 0.441zM9.575 15.338c0.306 0.223 0.735 0.154 0.958-0.151 0.224-0.308 0.156-0.737-0.15-0.962-0.309-0.223-0.739-0.154-0.961 0.152-0.223 0.308-0.154 0.738 0.153 0.961zM14.425 15.338c0.307-0.223 0.374-0.652 0.152-0.959-0.223-0.309-0.654-0.375-0.961-0.154-0.308 0.226-0.375 0.654-0.153 0.962 0.224 0.307 0.655 0.374 0.962 0.151zM15.924 10.726c-0.118-0.361-0.505-0.558-0.865-0.441-0.362 0.118-0.56 0.506-0.444 0.867 0.12 0.362 0.506 0.559 0.868 0.443 0.36-0.118 0.558-0.508 0.441-0.869zM12 10.625c-0.759 0-1.375 0.615-1.375 1.375s0.616 1.375 1.375 1.375 1.375-0.615 1.375-1.375-0.616-1.375-1.375-1.375z"></path>
</svg>
