<!-- Generated by IcoMoon.io -->
<svg version="1.1" xmlns="http://www.w3.org/2000/svg" width="24" height="24" viewBox="0 0 24 24">
<title>wheel</title>
<path fill="#444" d="M24 12c0 6.627-5.373 12-12 12s-12-5.373-12-12 5.373-12 12-12 12 5.373 12 12zM22.5 12c0-5.788-4.71-10.5-10.5-10.5s-10.5 4.712-10.5 10.5 4.71 10.5 10.5 10.5 10.5-4.712 10.5-10.5zM19.5 12c0 4.143-3.358 7.5-7.5 7.5s-7.5-3.357-7.5-7.5 3.358-7.5 7.5-7.5 7.5 3.357 7.5 7.5zM18 12c0-3.309-2.691-6-6-6s-6 2.691-6 6 2.691 6 6 6 6-2.691 6-6zM12 7.5c-0.414 0-0.75 0.336-0.75 0.75s0.336 0.75 0.75 0.75 0.75-0.336 0.75-0.75-0.336-0.75-0.75-0.75zM7.719 10.61c-0.129 0.395 0.089 0.816 0.48 0.945 0.396 0.127 0.819-0.087 0.948-0.482 0.127-0.394-0.089-0.817-0.482-0.945-0.394-0.129-0.819 0.089-0.947 0.482zM9.354 15.642c0.335 0.243 0.803 0.168 1.046-0.165 0.245-0.336 0.17-0.804-0.163-1.048-0.336-0.245-0.806-0.169-1.049 0.165s-0.168 0.806 0.166 1.048zM14.646 15.642c0.335-0.243 0.407-0.713 0.165-1.045-0.243-0.337-0.714-0.411-1.048-0.169-0.336 0.246-0.408 0.714-0.167 1.049 0.245 0.336 0.714 0.409 1.050 0.166zM16.281 10.61c-0.129-0.395-0.551-0.607-0.944-0.482-0.396 0.129-0.612 0.552-0.486 0.947 0.13 0.396 0.552 0.609 0.947 0.483 0.394-0.129 0.609-0.553 0.483-0.948zM12 10.5c-0.828 0-1.5 0.671-1.5 1.5s0.672 1.5 1.5 1.5 1.5-0.67 1.5-1.5-0.672-1.5-1.5-1.5z"></path>
</svg>
