<!-- Generated by IcoMoon.io -->
<svg version="1.1" xmlns="http://www.w3.org/2000/svg" width="16" height="16" viewBox="0 0 16 16">
<title>wheel</title>
<path fill="#444" d="M16 8c0 4.418-3.582 8-8 8s-8-3.582-8-8 3.582-8 8-8 8 3.582 8 8zM15 8c0-3.859-3.14-7-7-7s-7 3.141-7 7 3.14 7 7 7 7-3.141 7-7zM13 8c0 2.762-2.239 5-5 5s-5-2.238-5-5 2.239-5 5-5 5 2.238 5 5zM12 8c0-2.206-1.794-4-4-4s-4 1.794-4 4 1.794 4 4 4 4-1.794 4-4zM8 5c-0.276 0-0.5 0.224-0.5 0.5s0.224 0.5 0.5 0.5 0.5-0.224 0.5-0.5-0.224-0.5-0.5-0.5zM5.146 7.073c-0.086 0.263 0.059 0.544 0.32 0.63 0.264 0.085 0.546-0.058 0.632-0.321s-0.059-0.545-0.321-0.63c-0.263-0.086-0.546 0.059-0.631 0.321zM6.236 10.428c0.223 0.162 0.535 0.112 0.697-0.11 0.163-0.224 0.113-0.536-0.109-0.699-0.224-0.163-0.537-0.113-0.699 0.11s-0.112 0.537 0.111 0.699zM9.764 10.428c0.223-0.162 0.271-0.475 0.11-0.697-0.162-0.225-0.476-0.274-0.699-0.113-0.224 0.164-0.272 0.476-0.111 0.699 0.163 0.224 0.476 0.273 0.7 0.111zM10.854 7.073c-0.086-0.263-0.367-0.405-0.629-0.321-0.264 0.086-0.408 0.368-0.324 0.631 0.087 0.264 0.368 0.406 0.631 0.322 0.263-0.086 0.406-0.369 0.322-0.632zM8 7c-0.552 0-1 0.447-1 1s0.448 1 1 1 1-0.447 1-1-0.448-1-1-1z"></path>
</svg>
