<!-- Generated by IcoMoon.io -->
<svg version="1.1" xmlns="http://www.w3.org/2000/svg" width="24" height="24" viewBox="0 0 24 24">
<title>wifi_off</title>
<path fill="#444" d="M12.695 19.613c0 0.377-0.316 0.688-0.695 0.694v0.004c-0.379-0.007-0.695-0.312-0.695-0.695 0-0.387 0.308-0.703 0.695-0.703v-0.003c0.387 0 0.695 0.317 0.695 0.703zM2.044 1.018l-0.194 1.106c-0.058 0.329 0.031 0.578 0.22 0.817l0.459 0.506 2.242 2.244c-1.329 0.635-2.589 1.462-3.74 2.476-0.012 0.015-0.019 0.025-0.031 0.041l0.003-0.003 1.096 0.427c0.229 0.071 0.422 0.047 0.608-0.016 0.979-0.756 2.030-1.376 3.126-1.866l2.763 2.766c-1.427 0.438-2.786 1.162-3.995 2.17-0.013 0.009-0.021 0.026-0.033 0.042l1.048 0.45c0.306 0.109 0.56 0.065 0.819-0.065 1.041-0.686 2.172-1.149 3.341-1.416l3.362 3.359c-0.376-0.065-0.755-0.107-1.138-0.107v0.003c-1.344 0.001-2.687 0.408-3.835 1.22l0.934 0.6c0.227 0.128 0.438 0.133 0.653 0.093 0.711-0.332 1.477-0.506 2.248-0.507v-0.009c0.771 0.001 1.537 0.181 2.248 0.513 0.202 0.038 0.402 0.023 0.611-0.083l7.097 7.1 0.194-1.106c0.058-0.329-0.032-0.578-0.221-0.817l-19.885-19.938zM23 8.205l-0.003-0.003-1.096 0.421c-0.229 0.077-0.422 0.053-0.608-0.010-2.729-2.116-6.007-3.182-9.293-3.182v0.003c-0.808 0-1.613 0.092-2.414 0.225-0.038 0.011-0.078 0.029-0.121 0.030v0.004c-0.379-0.012-0.692-0.318-0.692-0.701 0-0.387 0.305-0.697 0.691-0.697v-0.037c0.84-0.132 1.686-0.223 2.535-0.223v-0.009c3.921 0 7.842 1.383 10.969 4.138 0.013 0.009 0.020 0.025 0.032 0.041zM19.433 11.725l-1.048 0.444c-0.306 0.115-0.56 0.071-0.819-0.065-0.95-0.626-2.010-1.142-3.073-1.425v0c-0.379-0.013-0.695-0.318-0.695-0.701 0-0.387 0.308-0.697 0.695-0.697v-0.004c0.12 0 0.228 0.034 0.325 0.091 1.64 0.411 3.21 1.167 4.583 2.314 0.012 0.009 0.019 0.027 0.032 0.043z"></path>
</svg>
