<!-- Generated by IcoMoon.io -->
<svg version="1.1" xmlns="http://www.w3.org/2000/svg" width="24" height="24" viewBox="0 0 24 24">
<title>wifi_off</title>
<path fill="#444" d="M12.756 20.282c0 0.415-0.342 0.752-0.756 0.761v0.006c-0.414-0.011-0.756-0.345-0.756-0.762 0-0.422 0.335-0.765 0.756-0.765v-0.005c0.423 0.002 0.756 0.343 0.756 0.765zM1.14 0l-0.213 1.203c-0.065 0.362 0.033 0.63 0.238 0.892l0.504 0.557 2.443 2.444c-1.447 0.696-2.823 1.594-4.080 2.702-0.013 0.014-0.019 0.030-0.033 0.045l0.005-0.005 1.196 0.464c0.248 0.081 0.458 0.052 0.662-0.015 1.067-0.827 2.214-1.501 3.408-2.034l3.015 3.015c-1.556 0.481-3.039 1.268-4.356 2.367-0.015 0.014-0.022 0.031-0.036 0.045l1.142 0.491c0.336 0.12 0.612 0.072 0.896-0.072 1.134-0.747 2.37-1.249 3.645-1.543l3.667 3.668c-0.412-0.071-0.827-0.117-1.242-0.117v0.005c-1.467 0.001-2.932 0.446-4.184 1.329l1.018 0.654c0.249 0.14 0.477 0.147 0.713 0.104 0.776-0.366 1.613-0.556 2.452-0.558v-0.005c0.84 0.002 1.677 0.192 2.454 0.558 0.219 0.039 0.436 0.027 0.666-0.090l7.74 7.74 0.213-1.203c0.064-0.361-0.034-0.63-0.239-0.893l-21.694-21.745zM24 7.837l-0.005-0.005-1.196 0.464c-0.247 0.081-0.457 0.053-0.662-0.015-2.977-2.304-6.553-3.472-10.139-3.472v0.005c-0.882 0-1.759 0.102-2.631 0.249-0.045 0.009-0.087 0.029-0.133 0.030v0.006c-0.416-0.010-0.758-0.346-0.758-0.762 0-0.421 0.334-0.765 0.756-0.765v-0.039c0.918-0.144 1.839-0.246 2.766-0.246v-0.005c4.278 0 8.556 1.503 11.967 4.511 0.014 0.014 0.019 0.030 0.033 0.045zM20.107 11.675l-1.14 0.491c-0.336 0.12-0.612 0.072-0.896-0.072-1.038-0.684-2.193-1.246-3.352-1.557v0c-0.414-0.011-0.756-0.345-0.756-0.762 0-0.421 0.335-0.765 0.756-0.765v-0.003c0.132 0 0.249 0.042 0.356 0.101 1.788 0.45 3.501 1.277 4.998 2.523 0.015 0.014 0.021 0.030 0.035 0.045z"></path>
</svg>
