<!-- Generated by IcoMoon.io -->
<svg version="1.1" xmlns="http://www.w3.org/2000/svg" width="16" height="16" viewBox="0 0 16 16">
<title>wifi</title>
<path fill="#444" d="M8.504 13.521c0 0.277-0.228 0.501-0.504 0.507v0.004c-0.276-0.007-0.504-0.23-0.504-0.508 0-0.281 0.223-0.51 0.504-0.51v-0.003c0.282 0.001 0.504 0.229 0.504 0.51zM8 9.406c-0.978 0.001-1.955 0.297-2.789 0.886l0.679 0.436c0.166 0.093 0.318 0.098 0.475 0.069 0.517-0.244 1.075-0.371 1.635-0.372v-0.003c0.56 0.001 1.118 0.128 1.636 0.372 0.156 0.028 0.309 0.023 0.475-0.069l0.679-0.436c-0.835-0.589-1.812-0.885-2.79-0.886v0.003zM8 5.794v0.003c-1.912 0.007-3.821 0.659-5.381 1.959-0.010 0.009-0.015 0.021-0.024 0.030l0.761 0.327c0.224 0.080 0.408 0.048 0.597-0.048 1.229-0.81 2.632-1.243 4.047-1.249v-0.003c1.415 0.006 2.818 0.438 4.048 1.249 0.189 0.096 0.373 0.128 0.597 0.048l0.761-0.327c-0.009-0.010-0.014-0.021-0.024-0.030-1.561-1.301-3.47-1.952-5.382-1.959zM15.978 5.195c-2.274-2.005-5.126-3.007-7.978-3.007v0.003c-2.852 0-5.704 1.002-7.978 3.007-0.009 0.009-0.013 0.020-0.022 0.030l0.003-0.003 0.797 0.309c0.165 0.054 0.305 0.035 0.441-0.010 1.985-1.536 4.369-2.315 6.759-2.315v-0.003c2.39 0 4.774 0.779 6.758 2.315 0.136 0.045 0.277 0.063 0.441 0.010l0.797-0.31 0.004 0.004c-0.009-0.010-0.013-0.021-0.022-0.030z"></path>
</svg>
