<!-- Generated by IcoMoon.io -->
<svg version="1.1" xmlns="http://www.w3.org/2000/svg" width="16" height="16" viewBox="0 0 16 16">
<title>wifi_off</title>
<path fill="#444" d="M8.504 13.521c0 0.277-0.228 0.501-0.504 0.507v0.004c-0.276-0.007-0.504-0.23-0.504-0.508 0-0.281 0.223-0.51 0.504-0.51v-0.003c0.282 0.001 0.504 0.229 0.504 0.51zM0.76 0l-0.142 0.802c-0.043 0.241 0.022 0.42 0.159 0.595l0.336 0.371 1.629 1.629c-0.965 0.464-1.882 1.063-2.72 1.801-0.009 0.009-0.013 0.020-0.022 0.030l0.003-0.003 0.797 0.309c0.165 0.054 0.305 0.035 0.441-0.010 0.711-0.551 1.476-1.001 2.272-1.356l2.010 2.010c-1.037 0.321-2.026 0.845-2.904 1.578-0.010 0.009-0.015 0.021-0.024 0.030l0.761 0.327c0.224 0.080 0.408 0.048 0.597-0.048 0.756-0.498 1.58-0.833 2.43-1.029l2.445 2.445c-0.275-0.047-0.551-0.078-0.828-0.078v0.003c-0.978 0.001-1.955 0.297-2.789 0.886l0.679 0.436c0.166 0.093 0.318 0.098 0.475 0.069 0.517-0.244 1.075-0.371 1.635-0.372v-0.003c0.56 0.001 1.118 0.128 1.636 0.372 0.146 0.026 0.291 0.018 0.444-0.060l5.16 5.16 0.142-0.802c0.043-0.241-0.023-0.42-0.159-0.595l-14.463-14.497zM16 5.225l-0.003-0.003-0.797 0.309c-0.165 0.054-0.305 0.035-0.441-0.010-1.985-1.536-4.369-2.315-6.759-2.315v0.003c-0.588 0-1.173 0.068-1.754 0.166-0.030 0.006-0.058 0.019-0.089 0.020v0.004c-0.277-0.007-0.505-0.231-0.505-0.508 0-0.281 0.223-0.51 0.504-0.51v-0.026c0.612-0.096 1.226-0.164 1.844-0.164v-0.003c2.852 0 5.704 1.002 7.978 3.007 0.009 0.009 0.013 0.020 0.022 0.030zM13.405 7.783l-0.76 0.327c-0.224 0.080-0.408 0.048-0.597-0.048-0.692-0.456-1.462-0.831-2.235-1.038v0c-0.276-0.007-0.504-0.23-0.504-0.508 0-0.281 0.223-0.51 0.504-0.51v-0.002c0.088 0 0.166 0.028 0.237 0.067 1.192 0.3 2.334 0.851 3.332 1.682 0.010 0.009 0.014 0.020 0.023 0.030z"></path>
</svg>
