<!-- Generated by IcoMoon.io -->
<svg version="1.1" xmlns="http://www.w3.org/2000/svg" width="24" height="24" viewBox="0 0 24 24">
<title>wind</title>
<path fill="#444" d="M8.759 4.29c-0.291-0.292-0.29-0.768 0.003-1.061 0.584-0.58 1.354-0.871 2.123-0.871 0.767 0 1.532 0.287 2.116 0.863 0.567 0.556 0.884 1.302 0.886 2.097 0.003 0.798-0.307 1.548-0.874 2.113-0.569 0.564-1.325 0.873-2.129 0.873-0.003 0-0.005 0-0.007 0l-10.877 0.014 0.701-1.002c0.21-0.3 0.469-0.42 0.799-0.461 0 0 9.381 0 9.381 0 0.408 0 0.789-0.207 1.074-0.489 0.281-0.277 0.434-0.648 0.432-1.041-0.002-0.391-0.158-0.757-0.438-1.034-0.294-0.291-0.68-0.436-1.065-0.436s-0.771 0.147-1.063 0.438c-0.147 0.146-0.339 0.219-0.53 0.219-0.194 0-0.385-0.074-0.532-0.222zM22.956 6.723c-0.694-0.686-1.607-1.029-2.518-1.029-0.909 0-1.82 0.342-2.514 1.024-0.296 0.291-0.299 0.766-0.008 1.060 0.147 0.15 0.341 0.223 0.534 0.223 0.191 0 0.38-0.072 0.527-0.216 0.403-0.397 0.933-0.596 1.461-0.596 0.529 0 1.059 0.2 1.462 0.596 0.387 0.385 0.6 0.896 0.599 1.437 0 0.539-0.215 1.046-0.602 1.426-0.39 0.386-0.906 0.596-1.456 0.597l-18.191 0.024-0.75 0.037c-0.33 0.039-0.59 0.161-0.8 0.461l-0.701 1.002 20.444-0.021c0.947-0.002 1.837-0.367 2.506-1.029 0.675-0.665 1.049-1.549 1.050-2.493 0.002-0.945-0.369-1.833-1.044-2.505zM16.388 16.569c-0.558-0.555-1.334-0.852-2.127-0.852-0.001 0-12.765 0-12.765 0-0.327 0.039-0.585 0.159-0.795 0.459l-0.701 1c0 0 14.258 0 14.259 0 0.402 0 0.792 0.178 1.069 0.456 0.282 0.28 0.437 0.652 0.433 1.044-0.001 0.39-0.157 0.756-0.441 1.034-0.294 0.288-0.678 0.433-1.062 0.433-0.386 0-0.771-0.147-1.063-0.438-0.147-0.145-0.339-0.219-0.53-0.219-0.192 0-0.385 0.073-0.531 0.221-0.293 0.293-0.291 0.768 0.002 1.061 0.585 0.582 1.355 0.873 2.124 0.873 0.765 0 1.53-0.288 2.112-0.863 0.57-0.556 0.886-1.302 0.889-2.095 0.005-0.797-0.306-1.547-0.874-2.114z"></path>
</svg>
