<!-- Generated by IcoMoon.io -->
<svg version="1.1" xmlns="http://www.w3.org/2000/svg" width="24" height="24" viewBox="0 0 24 24">
<title>workstation</title>
<path fill="#444" d="M1.345 0c-0.742 0-1.345 0.603-1.345 1.344v22.656h9.076c0.743 0 1.424-0.6 1.424-1.344v-22.656h-9.154zM9 21.9c0 0.528-0.074 0.6-0.6 0.6h-6.9v-20.4c0-0.525 0.075-0.6 0.6-0.6h6.9v20.4zM8.325 4.476l-0.7 1c-0.252 0.362-0.544 0.498-0.984 0.5h-2.781c-0.44-0.002-0.732-0.138-0.984-0.5l-0.701-1h6.15zM8.325 7.476l-0.7 1c-0.252 0.361-0.544 0.498-0.984 0.499h-2.781c-0.44-0.002-0.732-0.138-0.984-0.499l-0.701-1h6.15zM8.325 10.476l-0.7 1.001c-0.252 0.361-0.544 0.498-0.984 0.499h-2.781c-0.44-0.002-0.732-0.138-0.984-0.499l-0.701-1.001h6.15zM24 6v12.538c0 0.497-0.387 0.962-0.886 0.962h-9.614v1.486h3.354c0.317 0.047 0.569 0.2 0.774 0.491l0.693 0.99h-5.528c-0.015 0.002-0.028 0.009-0.043 0.009-0.414 0-0.75-0.336-0.75-0.75v-2.929h0.009c-0.002-0.015-0.009-0.030-0.009-0.047 0-0.414 0.336-0.75 0.75-0.75 0.002 0 0.003 0.002 0.006 0.002 0.001 0 0.001-0.002 0.001-0.002h9.519c0.12-0.035 0.209-0.123 0.223-0.25v-11.55c-0.024-0.096-0.084-0.162-0.174-0.2h-9.529c-0.006 0-0.012-0.003-0.016-0.006-0.010 0-0.019 0.006-0.030 0.006-0.414 0-0.75-0.336-0.75-0.75s0.336-0.75 0.75-0.75h9.75c1.054 0 1.5 0.563 1.5 1.5z"></path>
</svg>
