<!-- Generated by IcoMoon.io -->
<svg version="1.1" xmlns="http://www.w3.org/2000/svg" width="24" height="24" viewBox="0 0 24 24">
<title>workman</title>
<path fill="#444" d="M18.777 5.742l-0.758-0.822c-0.274-0.296-0.558-0.385-0.956-0.331l-0.155 0.021c-0.774-2.1-2.778-3.61-5.144-3.61-2.902 0-5.261 2.266-5.461 5.116-0.24 0.087-0.433 0.22-0.569 0.484l-0.511 0.995 1.136-0.156c0.449 2.584 2.694 4.561 5.405 4.561 3.032 0 5.5-2.468 5.5-5.501 0-0.186-0.038-0.361-0.055-0.542l1.568-0.215zM11.764 2.375c1.67 0 3.102 0.998 3.75 2.427l-7.812 1.067c0.306-1.976 1.999-3.494 4.062-3.494zM11.764 10.625c-2.020 0-3.694-1.453-4.050-3.37l8.139-1.112c0.011 0.118 0.036 0.234 0.036 0.356 0 2.279-1.848 4.126-4.125 4.126zM13.375 14.75h-2.75c-2.653 0-4.812 2.229-4.812 4.969v3.281l0.918-0.629c0.3-0.209 0.432-0.474 0.457-0.821v-1.831c0-1.982 1.542-3.594 3.438-3.594h2.75l0.55 0.058c1.366 0.232 2.455 1.306 2.78 2.692h-1.786c-0.402 0.001-0.671 0.128-0.902 0.458l-0.642 0.917h3.438v1.206c0 0.402 0.148 0.685 0.478 0.915l0.896 0.629v-3.281c0-2.74-2.16-4.969-4.813-4.969z"></path>
</svg>
