<!-- Generated by IcoMoon.io -->
<svg version="1.1" xmlns="http://www.w3.org/2000/svg" width="16" height="16" viewBox="0 0 16 16">
<title>workstation</title>
<path fill="#444" d="M0.897 0c-0.495 0-0.897 0.402-0.897 0.896v15.104h6.051c0.495 0 0.949-0.4 0.949-0.896v-15.104h-6.103zM6 14.6c0 0.352-0.049 0.4-0.4 0.4h-4.6v-13.6c0-0.35 0.050-0.4 0.4-0.4h4.6v13.6zM5.55 2.984l-0.467 0.667c-0.168 0.241-0.363 0.332-0.656 0.333h-1.854c-0.293-0.001-0.488-0.092-0.656-0.333l-0.467-0.667h4.1zM5.55 4.984l-0.467 0.667c-0.168 0.241-0.363 0.332-0.656 0.333h-1.854c-0.293-0.001-0.488-0.092-0.656-0.333l-0.467-0.667h4.1zM5.55 6.984l-0.467 0.667c-0.168 0.241-0.363 0.332-0.656 0.333h-1.854c-0.293-0.001-0.488-0.092-0.656-0.333l-0.467-0.667h4.1zM16 4v8.359c0 0.331-0.258 0.641-0.591 0.641h-6.409v0.991h2.236c0.211 0.031 0.379 0.133 0.516 0.327l0.462 0.66h-3.685c-0.010 0.001-0.019 0.006-0.029 0.006-0.276 0-0.5-0.224-0.5-0.5v-1.953h0.006c-0.001-0.010-0.006-0.020-0.006-0.031 0-0.276 0.224-0.5 0.5-0.5 0.001 0 0.002 0.001 0.004 0.001s0.001-0.001 0.001-0.001h6.346c0.080-0.023 0.139-0.082 0.149-0.167v-7.7c-0.016-0.064-0.056-0.108-0.116-0.133h-6.353c-0.004 0-0.008-0.002-0.011-0.004-0.007 0-0.013 0.004-0.020 0.004-0.276 0-0.5-0.224-0.5-0.5s0.224-0.5 0.5-0.5h6.5c0.703 0 1 0.375 1 1z"></path>
</svg>
