<!-- Generated by IcoMoon.io -->
<svg version="1.1" xmlns="http://www.w3.org/2000/svg" width="24" height="24" viewBox="0 0 24 24">
<title>workman</title>
<path fill="#444" d="M19.393 5.173l-0.828-0.899c-0.298-0.322-0.607-0.418-1.043-0.36l-0.168 0.024c-0.845-2.292-3.032-3.939-5.613-3.939-3.165 0-5.739 2.471-5.958 5.582-0.261 0.095-0.471 0.24-0.62 0.528l-0.558 1.085 1.239-0.17c0.491 2.819 2.938 4.976 5.896 4.976 3.308 0 6-2.692 6-6.002 0-0.202-0.040-0.394-0.060-0.591l1.712-0.234zM11.742 1.5c1.823 0 3.384 1.089 4.092 2.647l-8.523 1.164c0.334-2.155 2.181-3.811 4.431-3.811zM11.742 10.5c-2.204 0-4.029-1.585-4.417-3.677l8.878-1.213c0.012 0.129 0.039 0.255 0.039 0.388 0 2.487-2.016 4.501-4.5 4.501zM13.5 15h-3c-2.895 0-5.25 2.431-5.25 5.419v3.581l1.002-0.686c0.327-0.228 0.471-0.518 0.498-0.897v-1.998c0-2.162 1.683-3.919 3.75-3.919h3l0.6 0.063c1.491 0.254 2.679 1.424 3.031 2.937h-1.947c-0.439 0.002-0.732 0.14-0.984 0.5l-0.701 1h3.75v1.316c0 0.439 0.16 0.747 0.521 0.999l0.979 0.686v-3.581c0-2.988-2.355-5.419-5.25-5.419z"></path>
</svg>
