<!-- Generated by IcoMoon.io -->
<svg version="1.1" xmlns="http://www.w3.org/2000/svg" width="24" height="24" viewBox="0 0 24 24">
<title>workstation</title>
<path fill="#444" d="M2.233 1c-0.68 0-1.233 0.553-1.233 1.232v20.768h8.32c0.681 0 1.305-0.551 1.305-1.232v-20.768h-8.392zM9.25 21.074c0 0.485-0.068 0.551-0.55 0.551h-6.325v-18.699c0-0.482 0.068-0.551 0.55-0.551h6.325v18.699zM8.631 5.104l-0.642 0.917c-0.231 0.33-0.5 0.457-0.902 0.458h-2.549c-0.403-0.001-0.671-0.128-0.902-0.458l-0.642-0.917h5.637zM8.631 7.854l-0.642 0.917c-0.231 0.33-0.5 0.457-0.902 0.458h-2.549c-0.403-0.001-0.671-0.128-0.902-0.458l-0.642-0.917h5.637zM8.631 10.604l-0.642 0.917c-0.231 0.33-0.5 0.457-0.902 0.458h-2.549c-0.403-0.001-0.671-0.128-0.902-0.458l-0.642-0.917h5.637zM23 6.5v11.494c0 0.455-0.355 0.881-0.813 0.881h-8.812v1.363h3.074c0.29 0.043 0.521 0.183 0.71 0.449l0.635 0.908h-5.066c-0.014 0.001-0.026 0.008-0.040 0.008-0.38 0-0.688-0.308-0.688-0.688v-2.685h0.009c-0.002-0.014-0.009-0.028-0.009-0.042 0-0.38 0.308-0.688 0.688-0.688 0.002 0 0.003 0.001 0.005 0.001s0.001-0.001 0.001-0.001h8.726c0.109-0.032 0.191-0.113 0.205-0.229v-10.588c-0.021-0.087-0.077-0.147-0.159-0.183h-8.736c-0.006 0-0.011-0.003-0.016-0.006-0.009 0-0.018 0.006-0.027 0.006-0.379 0-0.687-0.308-0.687-0.688s0.308-0.688 0.688-0.688h8.938c0.966 0.001 1.374 0.517 1.374 1.376z"></path>
</svg>
