<!-- Generated by IcoMoon.io -->
<svg version="1.1" xmlns="http://www.w3.org/2000/svg" width="16" height="16" viewBox="0 0 16 16">
<title>workman</title>
<path fill="#444" d="M12.929 3.449l-0.552-0.599c-0.199-0.215-0.405-0.279-0.695-0.24l-0.112 0.016c-0.563-1.528-2.021-2.626-3.742-2.626-2.11 0-3.826 1.647-3.972 3.721-0.174 0.063-0.314 0.16-0.413 0.352l-0.372 0.723 0.826-0.113c0.327 1.879 1.959 3.317 3.931 3.317 2.205 0 4-1.795 4-4.001 0-0.135-0.027-0.263-0.040-0.394l1.141-0.156zM7.828 1c1.215 0 2.256 0.726 2.728 1.765l-5.682 0.776c0.223-1.437 1.454-2.541 2.954-2.541zM7.828 7c-1.469 0-2.686-1.057-2.945-2.451l5.919-0.809c0.008 0.086 0.026 0.17 0.026 0.259 0 1.658-1.344 3.001-3 3.001zM9 10h-2c-1.93 0-3.5 1.621-3.5 3.613v2.387l0.668-0.457c0.218-0.152 0.314-0.345 0.332-0.598v-1.332c0-1.441 1.122-2.613 2.5-2.613h2l0.4 0.042c0.994 0.169 1.786 0.949 2.021 1.958h-1.298c-0.293 0.001-0.488 0.093-0.656 0.333l-0.467 0.667h2.5v0.877c0 0.293 0.107 0.498 0.347 0.666l0.653 0.457v-2.387c0-1.992-1.57-3.613-3.5-3.613z"></path>
</svg>
