<!-- Generated by IcoMoon.io -->
<svg version="1.1" xmlns="http://www.w3.org/2000/svg" width="16" height="16" viewBox="0 0 16 16">
<title>wrench</title>
<path fill="#444" d="M13.556 2.956c-0.147-0.328-0.46-0.552-0.818-0.585-0.032-0.004-0.063-0.005-0.094-0.005-0.324 0-0.631 0.157-0.819 0.427l-1.312 1.937c-0.178 0.249-0.262 0.27-0.485 0.27h-0.927l-0.318-0.875c-0.075-0.203-0.085-0.291 0.087-0.539l1.338-1.974c0.204-0.291 0.19-0.674 0.041-0.997s-0.505-0.549-0.859-0.583c-0.128-0.017-0.257-0.032-0.39-0.032-2.757 0-5 2.243-5 5 0 0.992 0.296 1.951 0.846 2.77l-4.665 6.656c-0.214 0.306-0.24 0.705-0.068 1.036s0.514 0.538 0.887 0.538h1.999c1.036 0 1.803-0.406 2.416-1.278l3.315-4.729c0.091 0.004 0.181 0.007 0.27 0.007 2.757 0 5-2.243 5-5 0-0.7-0.149-1.388-0.444-2.044zM9 9c-0.255 0-0.502-0.029-0.744-0.075l-3.661 5.223c-0.413 0.589-0.876 0.852-1.596 0.852h-1.999l5.093-7.267c-0.673-0.715-1.093-1.672-1.093-2.733 0-2.21 1.791-4 4-4 0.133 0 0.259 0.026 0.389 0.039l-1.339 1.974c-0.333 0.482-0.409 0.906-0.206 1.458l0.556 1.529h1.628c0.588 0.002 0.961-0.214 1.3-0.691l1.316-1.942c0.225 0.499 0.356 1.049 0.356 1.633 0 2.21-1.792 4-4 4z"></path>
</svg>
