<!-- Generated by IcoMoon.io -->
<svg version="1.1" xmlns="http://www.w3.org/2000/svg" width="24" height="24" viewBox="0 0 24 24">
<title>wrench</title>
<path fill="#444" d="M20.334 4.434c-0.221-0.492-0.69-0.828-1.227-0.878-0.048-0.006-0.095-0.007-0.141-0.007-0.486 0-0.947 0.236-1.229 0.641l-1.968 2.905c-0.267 0.373-0.393 0.405-0.727 0.405h-1.39l-0.477-1.313c-0.112-0.304-0.128-0.436 0.13-0.809l2.007-2.961c0.306-0.436 0.285-1.011 0.062-1.495-0.222-0.485-0.758-0.824-1.288-0.875-0.192-0.026-0.386-0.048-0.585-0.048-4.136 0-7.5 3.364-7.5 7.5 0 1.488 0.444 2.927 1.269 4.155l-6.998 9.984c-0.321 0.459-0.36 1.058-0.102 1.554 0.258 0.495 0.771 0.807 1.331 0.807h2.998c1.554 0 2.704-0.609 3.624-1.917l4.973-7.094c0.136 0.006 0.271 0.010 0.405 0.010 4.135 0 7.5-3.364 7.5-7.5 0-1.050-0.223-2.082-0.666-3.066zM13.5 13.5c-0.383 0-0.753-0.043-1.116-0.112l-5.491 7.835c-0.62 0.883-1.314 1.278-2.394 1.278h-2.998l7.639-10.901c-1.010-1.072-1.639-2.508-1.639-4.099 0-3.315 2.687-6 6-6 0.199 0 0.389 0.039 0.583 0.058l-2.008 2.961c-0.5 0.723-0.614 1.359-0.309 2.187l0.834 2.293h2.442c0.882 0.003 1.442-0.321 1.95-1.037l1.974-2.913c0.337 0.749 0.534 1.574 0.534 2.45 0 3.315-2.688 6-6 6z"></path>
</svg>
