<!-- Generated by IcoMoon.io -->
<svg version="1.1" xmlns="http://www.w3.org/2000/svg" width="24" height="24" viewBox="0 0 24 24">
<title>wrench</title>
<path fill="#444" d="M20.015 5.064c-0.203-0.451-0.632-0.759-1.125-0.805-0.043-0.005-0.086-0.006-0.129-0.006-0.446 0-0.868 0.216-1.127 0.586l-1.805 2.663c-0.243 0.344-0.359 0.372-0.666 0.372h-1.275l-0.437-1.203c-0.104-0.279-0.116-0.4 0.12-0.741l1.84-2.714c0.28-0.4 0.261-0.927 0.056-1.371-0.204-0.444-0.694-0.754-1.181-0.802-0.176-0.022-0.353-0.043-0.536-0.043-3.791 0-6.875 3.084-6.875 6.875 0 1.364 0.408 2.683 1.164 3.809l-6.415 9.152c-0.294 0.42-0.33 0.969-0.094 1.424 0.237 0.454 0.707 0.74 1.22 0.74h2.749c1.424 0 2.479-0.559 3.321-1.758l4.558-6.503c0.125 0.007 0.249 0.011 0.372 0.011 3.791 0 6.875-3.084 6.875-6.875 0-0.963-0.206-1.908-0.61-2.811zM13.75 13.375c-0.351 0-0.69-0.040-1.022-0.104l-5.033 7.182c-0.569 0.811-1.206 1.172-2.196 1.172h-2.749l7.002-9.991c-0.924-0.985-1.502-2.301-1.502-3.759 0-3.039 2.462-5.5 5.5-5.5 0.183 0 0.356 0.036 0.535 0.054l-1.84 2.714c-0.458 0.663-0.563 1.246-0.284 2.005l0.764 2.103h2.238c0.809 0.003 1.321-0.294 1.788-0.951l1.81-2.67c0.309 0.688 0.489 1.443 0.489 2.246 0 3.038-2.463 5.499-5.5 5.499z"></path>
</svg>
