<!-- Generated by IcoMoon.io -->
<svg version="1.1" xmlns="http://www.w3.org/2000/svg" width="24" height="24" viewBox="0 0 24 24">
<title>zoom_in</title>
<path fill="#444" d="M18.265 17.588c1.828-1.757 2.973-4.217 2.973-6.945-0.001-5.32-4.326-9.643-9.644-9.643-5.316 0-9.64 4.323-9.64 9.643 0 5.315 4.324 9.645 9.64 9.645 2.092 0 4.025-0.681 5.606-1.816l2.853 4.074c0.228 0.308 0.502 0.454 0.896 0.454h1.097l-3.781-5.412zM3.331 10.643c0-4.568 3.699-8.266 8.263-8.266s8.266 3.697 8.266 8.266c0 4.563-3.702 8.268-8.266 8.268s-8.263-3.705-8.263-8.268zM12.283 11.33v1.896c0 0.403-0.146 0.686-0.476 0.918l-0.901 0.629v-3.443h-1.895c-0.405-0.001-0.686-0.147-0.919-0.476l-0.628-0.901h3.442v-1.9c0.001-0.399 0.149-0.687 0.48-0.913l0.897-0.634v3.447h1.898c0.405 0.001 0.686 0.149 0.916 0.479l0.63 0.898h-3.444z"></path>
</svg>
