<!-- Generated by IcoMoon.io -->
<svg version="1.1" xmlns="http://www.w3.org/2000/svg" width="24" height="24" viewBox="0 0 24 24">
<title>zoom_money</title>
<path fill="#444" d="M22.941 23.968l-4.133-5.902c1.991-1.911 3.236-4.596 3.236-7.566 0-5.79-4.71-10.5-10.5-10.5-5.788 0-10.5 4.71-10.5 10.5 0 5.792 4.712 10.502 10.5 10.502 2.278 0 4.383-0.738 6.105-1.973l3.105 4.434c0.247 0.34 0.547 0.496 0.975 0.496h1.196l0.032 0.040c-0.008-0.010-0.008-0.023-0.015-0.032zM11.544 19.502c-4.97 0-9-4.029-9-9.002 0-4.971 4.030-9 9-9s9 4.029 9 9c0 4.973-4.029 9.002-9 9.002zM15.831 13.365c0 1.109-0.412 1.948-1.235 2.517-0.442 0.305-0.99 0.525-1.63 0.666-0.29 0.363-0.633 0.547-1.119 0.55l-1.434-0.003 0.262-0.375c-0.859-0.021-1.587-0.095-2.101-0.251-0.6-0.172-1.011-0.312-1.227-0.4 0.33-0.938 1.22-1.452 2.199-1.275 0.584 0.11 0.923 0.117 1.518 0.117 0.88 0 1.537-0.117 1.961-0.348 0.424-0.231 0.637-0.601 0.637-1.107 0-0.525-0.21-0.943-0.625-1.251-0.414-0.306-1.099-0.656-2.055-1.040-0.465-0.184-0.906-0.372-1.332-0.567-0.428-0.192-0.792-0.417-1.102-0.68-0.308-0.264-0.554-0.577-0.738-0.948-0.188-0.373-0.279-0.825-0.279-1.365 0-1.063 0.395-1.909 1.179-2.532 0.501-0.397 1.128-0.654 1.859-0.795l0.036-0.051c0.303-0.435 0.672-0.625 1.2-0.628l1.434 0.003-0.409 0.585c0.037 0.006 0.075 0.003 0.112 0.007 0.337 0.036 0.657 0.084 0.948 0.139 0.294 0.054 0.553 0.109 0.774 0.174 0.226 0.060 0.398 0.114 0.525 0.159-0.366 0.938-1.213 1.45-2.217 1.33-0.403-0.051-0.633-0.060-1.041-0.060-0.6 0-1.131 0.122-1.581 0.361-0.446 0.24-0.669 0.612-0.669 1.12 0 0.261 0.050 0.492 0.153 0.697 0.099 0.2 0.253 0.38 0.461 0.54 0.211 0.162 0.469 0.313 0.777 0.45 0.309 0.139 0.678 0.285 1.111 0.441 0.567 0.217 1.077 0.429 1.523 0.636 0.45 0.209 0.826 0.452 1.146 0.726 0.316 0.279 0.559 0.614 0.727 1.008 0.168 0.393 0.254 0.871 0.254 1.446z"></path>
</svg>
