<!-- Generated by IcoMoon.io -->
<svg version="1.1" xmlns="http://www.w3.org/2000/svg" width="16" height="16" viewBox="0 0 16 16">
<title>zoom_in</title>
<path fill="#444" d="M15.294 15.979l-2.755-3.935c1.327-1.274 2.157-3.064 2.157-5.044 0-3.86-3.14-7-7-7s-7 3.14-7 7c0 3.861 3.141 7.001 7 7.001 1.519 0 2.922-0.492 4.070-1.315l2.070 2.956c0.165 0.227 0.365 0.331 0.65 0.331h0.797l0.021 0.027c-0.005-0.007-0.005-0.015-0.010-0.021zM1.696 7c0-3.314 2.687-6 6-6s6 2.686 6 6c0 3.315-2.687 6.001-6 6.001s-6-2.686-6-6.001zM8.196 7.499v1.378c0 0.292-0.107 0.498-0.347 0.665l-0.653 0.458v-2.501h-1.377c-0.293-0.001-0.498-0.106-0.666-0.347l-0.457-0.653h2.5v-1.377c0.001-0.293 0.107-0.498 0.348-0.666l0.652-0.457v2.5h1.377c0.293 0.001 0.498 0.107 0.666 0.349l0.457 0.651h-2.5z"></path>
</svg>
