<!-- Generated by IcoMoon.io -->
<svg version="1.1" xmlns="http://www.w3.org/2000/svg" width="24" height="24" viewBox="0 0 24 24">
<title>zoom_out</title>
<path fill="#444" d="M18.266 17.59c1.83-1.758 2.972-4.219 2.972-6.947 0-5.319-4.326-9.643-9.643-9.643-5.316 0-9.641 4.324-9.641 9.643 0 5.316 4.325 9.644 9.641 9.644 2.092 0 4.025-0.678 5.606-1.813l2.853 4.072c0.227 0.311 0.503 0.454 0.895 0.454h1.097l-3.78-5.41zM3.331 10.643c0-4.566 3.702-8.266 8.264-8.266 4.564 0 8.265 3.699 8.265 8.266 0 4.564-3.701 8.267-8.265 8.267-4.562-0.001-8.264-3.703-8.264-8.267zM15.728 11.33h-6.717c-0.405-0.001-0.687-0.147-0.918-0.477l-0.629-0.9h6.717c0.405 0.001 0.687 0.148 0.919 0.479l0.628 0.898z"></path>
</svg>
