<!-- Generated by IcoMoon.io -->
<svg version="1.1" xmlns="http://www.w3.org/2000/svg" width="16" height="16" viewBox="0 0 16 16">
<title>zoom_money</title>
<path fill="#444" d="M15.294 15.979l-2.755-3.935c1.327-1.274 2.157-3.064 2.157-5.044 0-3.86-3.14-7-7-7s-7 3.14-7 7c0 3.861 3.141 7.001 7 7.001 1.519 0 2.922-0.492 4.070-1.315l2.070 2.956c0.165 0.227 0.365 0.331 0.65 0.331h0.797l0.021 0.027c-0.005-0.007-0.005-0.015-0.010-0.021zM7.696 13.001c-3.313 0-6-2.686-6-6.001 0-3.314 2.687-6 6-6s6 2.686 6 6c0 3.315-2.686 6.001-6 6.001zM10.554 8.91c0 0.739-0.275 1.299-0.823 1.678-0.295 0.203-0.66 0.35-1.087 0.444-0.193 0.242-0.422 0.365-0.746 0.367l-0.956-0.002 0.175-0.25c-0.573-0.014-1.058-0.063-1.401-0.167-0.4-0.115-0.674-0.208-0.818-0.267 0.22-0.625 0.813-0.968 1.466-0.85 0.389 0.073 0.615 0.078 1.012 0.078 0.587 0 1.025-0.078 1.307-0.232s0.425-0.401 0.425-0.738c0-0.35-0.14-0.629-0.417-0.834-0.276-0.204-0.733-0.437-1.37-0.693-0.31-0.123-0.604-0.248-0.888-0.378-0.285-0.128-0.528-0.278-0.735-0.453-0.205-0.176-0.369-0.385-0.492-0.632-0.125-0.249-0.186-0.55-0.186-0.91 0-0.709 0.263-1.273 0.786-1.688 0.334-0.265 0.752-0.436 1.239-0.53l0.024-0.034c0.202-0.29 0.448-0.417 0.8-0.419l0.956 0.002-0.273 0.39c0.025 0.004 0.050 0.002 0.075 0.005 0.225 0.024 0.438 0.056 0.632 0.093 0.196 0.036 0.369 0.073 0.516 0.116 0.151 0.040 0.265 0.076 0.35 0.106-0.244 0.625-0.809 0.967-1.478 0.887-0.269-0.034-0.422-0.040-0.694-0.040-0.4 0-0.754 0.081-1.054 0.241-0.297 0.16-0.446 0.408-0.446 0.747 0 0.174 0.033 0.328 0.102 0.465 0.066 0.133 0.169 0.253 0.307 0.36 0.141 0.108 0.313 0.209 0.518 0.3 0.206 0.093 0.452 0.19 0.741 0.294 0.378 0.145 0.718 0.286 1.015 0.424 0.3 0.139 0.551 0.301 0.764 0.484 0.211 0.186 0.373 0.409 0.485 0.672s0.169 0.581 0.169 0.964z"></path>
</svg>
