<!-- Generated by IcoMoon.io -->
<svg version="1.1" xmlns="http://www.w3.org/2000/svg" width="32" height="32" viewBox="0 0 32 32">
<path d="M16 0.5c-8.822 0-16 6.952-16 15.5s7.178 15.5 16 15.5c8.822 0 16-6.952 16-15.5s-7.178-15.5-16-15.5zM17.042 17.042v7.044c-0.002 0.61-0.224 1.038-0.724 1.39l-1.362 0.954v-9.388h-7.042c-0.61 0-1.038-0.224-1.39-0.726l-0.954-1.36h9.386v-7.042c0.002-0.612 0.224-1.038 0.726-1.392l1.362-0.952v9.386h7.044c0.61 0.002 1.038 0.224 1.39 0.726l0.952 1.36h-9.388z"></path>
</svg>
