<!-- Generated by IcoMoon.io -->
<svg version="1.1" xmlns="http://www.w3.org/2000/svg" width="32" height="32" viewBox="0 0 32 32">
<path d="M26.111 17.268c-0.056-0.019-0.505-0.164-1.203-0.257 2.983-2.905 1.997-6.301 1.765-6.964-0.080-0.252-0.287-0.457-0.561-0.549-0.128-0.043-2.36-0.764-4.904 0.047 0.144-0.54 0.228-1.132 0.228-1.783 0-4.164-3.444-5.993-4.135-6.319-0.252-0.127-0.556-0.137-0.821-0.024-0.173 0.071-4.191 1.831-4.191 6.341 0 0.652 0.084 1.247 0.228 1.787-2.548-0.816-4.787-0.093-4.915-0.051-0.273 0.092-0.48 0.297-0.561 0.549-0.233 0.663-1.217 4.059 1.765 6.964-0.699 0.093-1.148 0.239-1.203 0.257-0.275 0.092-0.481 0.297-0.563 0.549-0.237 0.677-1.26 4.201 1.956 7.145 1.861 1.704 3.927 2.111 5.473 2.111 0.573 0 1.073-0.056 1.468-0.123v1.291c0 0.001 0 0.001 0 0.003v2.424l1.199-0.835c0.439-0.311 0.636-0.688 0.637-1.223v-1.659c0.395 0.067 0.895 0.123 1.468 0.123 1.547 0 3.613-0.407 5.473-2.111 3.216-2.944 2.193-6.468 1.956-7.145-0.080-0.252-0.287-0.457-0.561-0.549zM25.052 10.957c0.229 0.957 0.448 3.155-1.625 5.053-0.669 0.613-1.372 1.007-2.051 1.252-0.132 0.039-0.265 0.081-0.4 0.129-1.3 0.371-2.465 0.233-3.067 0.112-0.068-0.279-0.139-0.687-0.141-1.176 0-0.007 0-0.015 0-0.021-0.001-0.98 0.276-2.277 1.409-3.496 0.135-0.123 0.269-0.253 0.403-0.395 2.093-1.885 4.504-1.656 5.472-1.459zM16.857 3.135c0.901 0.528 2.753 1.94 2.753 4.625 0 1.596-0.653 2.74-1.364 3.515-0.148 0.136-0.285 0.272-0.416 0.409-0.364 0.324-0.713 0.556-0.967 0.703-0.285-0.168-0.697-0.444-1.116-0.844-0.043-0.043-0.085-0.085-0.131-0.128-0.761-0.775-1.504-1.964-1.504-3.655 0-2.721 1.903-4.135 2.744-4.625zM15.939 24.348c-0.020 0.379-0.079 0.697-0.133 0.927-0.975 0.199-3.413 0.433-5.517-1.493-2.072-1.897-1.855-4.093-1.625-5.052 0.613-0.121 1.809-0.257 3.133 0.136 0.087 0.029 0.175 0.059 0.26 0.084 0.701 0.244 1.429 0.641 2.119 1.272 1.315 1.204 1.708 2.528 1.764 3.568v0.559zM15.939 16.576c-0.020 0.379-0.079 0.697-0.133 0.927-0.604 0.123-1.769 0.26-3.069-0.112-0.132-0.047-0.263-0.089-0.393-0.127-0.68-0.247-1.384-0.64-2.055-1.253-2.072-1.897-1.855-4.093-1.625-5.052 0.973-0.193 3.42-0.424 5.513 1.492 0.013 0.012 0.025 0.024 0.039 0.036 0.080 0.083 0.16 0.161 0.24 0.236 1.092 1.128 1.433 2.332 1.485 3.296v0.557zM23.427 23.781c-2.104 1.927-4.543 1.691-5.516 1.493-0.212-0.888-0.468-3.132 1.629-5.052 0.671-0.615 1.376-1.008 2.056-1.255 0.129-0.039 0.26-0.080 0.392-0.127 1.297-0.371 2.46-0.236 3.064-0.113 0.229 0.957 0.448 3.155-1.625 5.053z"></path>
</svg>
