<!-- Generated by IcoMoon.io -->
<svg version="1.1" xmlns="http://www.w3.org/2000/svg" width="32" height="32" viewBox="0 0 32 32">
<path d="M29.749 14.625h-2.136c-0.535 0.001-0.911 0.196-1.22 0.639l-0.829 1.183c0.021 0.003 0.037 0.013 0.059 0.013h3.171c-0.483 5.863-5.556 10.541-11.879 10.959v-17.012c0-0.033-0.016-0.064-0.020-0.096 1.845-0.383 3.228-1.915 3.228-3.752 0-2.127-1.848-3.849-4.125-3.849s-4.127 1.723-4.127 3.849c0 1.839 1.384 3.369 3.229 3.752-0.004 0.032-0.020 0.063-0.020 0.096v17.011c-6.323-0.416-11.397-5.095-11.88-10.959h1.239c0.535-0.001 0.911-0.196 1.22-0.639l0.821-1.175c-0.037-0.003-0.071-0.021-0.109-0.021h-4.12c-0.507 0.001-0.917 0.411-0.917 0.917 0 7.583 6.58 13.749 14.667 13.749s14.667-6.168 14.667-13.749c0-0.507-0.411-0.916-0.917-0.916zM13.708 6.557c0-1.112 1.028-2.016 2.293-2.016 1.264 0 2.292 0.904 2.292 2.016s-1.028 2.016-2.293 2.016c-1.264 0-2.292-0.904-2.292-2.016z"></path>
</svg>
