<!-- Generated by IcoMoon.io -->
<svg version="1.1" xmlns="http://www.w3.org/2000/svg" width="32" height="32" viewBox="0 0 32 32">
<path d="M16 30.208c8.088 0 14.667-6.379 14.667-14.208s-6.579-14.208-14.667-14.208-14.667 6.379-14.667 14.208 6.579 14.208 14.667 14.208zM16 3.625c7.076 0 12.833 5.552 12.833 12.375s-5.757 12.375-12.833 12.375c-7.077 0-12.833-5.552-12.833-12.375s5.757-12.375 12.833-12.375zM14.587 10.855c0.103-0.155 0.233-0.243 0.355-0.34l-0.001-0.001c0.192-0.129 0.395-0.217 0.635-0.248l0.424-0.024 0.423 0.024c0.265 0.032 0.488 0.139 0.688 0.295 0.1 0.083 0.208 0.157 0.3 0.287l0.847 1.203h0.003l6.852 9.708h-1.491c-0.537 0-0.883-0.197-1.195-0.635l-6.425-9.099-6.423 9.1c-0.311 0.436-0.655 0.635-1.195 0.635h-1.492l7.696-10.904z"></path>
</svg>
