<!-- Generated by IcoMoon.io -->
<svg version="1.1" xmlns="http://www.w3.org/2000/svg" width="32" height="32" viewBox="0 0 32 32">
<path d="M26.795 10.735c-0.137-0.268-0.335-0.491-0.571-0.655-0.3-0.213-0.663-0.333-1.044-0.333h-1.483c-0.327 0-0.635 0.057-0.911 0.147l-7.143-5.039c-0.013-0.289-0.063-0.601-0.176-0.913l-0.507-1.401c-0.131-0.361-0.367-0.663-0.667-0.876-0.236-0.164-0.512-0.276-0.807-0.315-0.672-0.091-1.339 0.205-1.729 0.767l-5.219 7.509c-0.391 0.56-0.439 1.292-0.124 1.897 0.137 0.267 0.335 0.491 0.571 0.655 0.301 0.213 0.664 0.333 1.044 0.333h1.481c0.328 0 0.633-0.057 0.912-0.147l1.335 0.943-10.096 14.477c-0.389 0.559-0.437 1.292-0.123 1.899 0.137 0.264 0.335 0.487 0.571 0.655 0.3 0.211 0.663 0.332 1.043 0.329h1.48c1.111 0.003 2.007-0.471 2.675-1.415l8.923-12.793 1.335 0.943c0.013 0.289 0.063 0.601 0.176 0.915l0.507 1.403c0.129 0.36 0.365 0.663 0.667 0.875 0.235 0.165 0.511 0.276 0.808 0.315 0.671 0.089 1.337-0.207 1.728-0.765l5.22-7.511c0.389-0.561 0.437-1.292 0.124-1.897zM19.96 19.089l-0.508-1.404c-0.183-0.505 0.059-1.151 0.059-1.151l-3.727-2.628-9.967 14.292c-0.308 0.437-0.649 0.637-1.183 0.637h-1.481l11.14-15.981-3.728-2.628c0 0-0.519 0.451-1.053 0.451h-1.481l5.22-7.509 0.508 1.403c0.181 0.505-0.061 1.151-0.061 1.151l8.947 6.309c0 0 0.52-0.452 1.055-0.452h1.481l-5.22 7.511zM15.817 30.667l0.856-1.223c0.308-0.44 0.667-0.608 1.203-0.611h10.732c0.537 0.003 0.895 0.171 1.203 0.611l0.856 1.223h-14.849z"></path>
</svg>
