<!-- Generated by IcoMoon.io -->
<svg version="1.1" xmlns="http://www.w3.org/2000/svg" width="32" height="32" viewBox="0 0 32 32">
<path d="M21.88 27.071c-0.767-0.735-1.579-1.236-2.804-1.732-1.063-0.433-1.621-0.768-1.904-1.508-0.011-0.028-0.013-0.073-0.025-0.104h0.741c0.681 0 1.305-0.375 1.623-0.976 0.313-0.596 0.276-1.317-0.093-1.876 3.911-1.899 6.12-5.968 5.696-10.728-0.351-3.991-2.884-7.289-6.449-8.401-0.871-0.273-1.776-0.412-2.689-0.412-2.836 0-5.539 1.367-7.24 3.659-1.919 2.601-2.421 6.163-1.344 9.533 0.903 2.816 2.791 5.125 5.165 6.385-0.347 0.547-0.379 1.243-0.079 1.824 0.313 0.608 0.943 0.991 1.629 0.991h1.167c0.056 0.267 0.103 0.544 0.189 0.768 0.571 1.483 1.759 2.071 2.924 2.543 0.84 0.343 1.539 0.705 2.224 1.359 0.676 0.648 0.857 1.003 1.416 2.271l0.816-1.251c0.187-0.287 0.341-0.632 0.184-0.849-0.287-0.504-0.635-1.005-1.147-1.495zM14.108 21.892l0.904-1.887-0.691-0.313c-2.381-0.871-4.308-2.991-5.184-5.727-0.897-2.811-0.497-5.753 1.073-7.881 1.353-1.825 3.508-2.915 5.764-2.915 0.724 0 1.445 0.109 2.141 0.327 2.857 0.891 4.885 3.565 5.172 6.809 0.392 4.448-1.804 8.067-5.729 9.384l-0.776 0.313 1.105 1.887h-3.78zM20.841 11.807c-0.507 0-0.917-0.412-0.917-0.919 0-1.528-1.072-2.921-1.412-3.083-0.419-0.119-0.839-0.399-0.839-0.903 0-0.509 0.489-0.907 0.996-0.907 1.415 0 3.087 2.651 3.087 4.891 0.001 0.509-0.408 0.92-0.915 0.92z"></path>
</svg>
