<!-- Generated by IcoMoon.io -->
<svg version="1.1" xmlns="http://www.w3.org/2000/svg" width="32" height="32" viewBox="0 0 32 32">
<path d="M17.833 1.333v27.275c-0.004 0.536-0.172 0.895-0.612 1.203l-1.221 0.856v-27.275c0.001-0.536 0.169-0.895 0.611-1.203l1.223-0.856zM9.335 2.189c-0.441 0.308-0.609 0.667-0.611 1.203v27.275l1.221-0.856c0.44-0.308 0.608-0.667 0.612-1.203v-27.275l-1.223 0.856zM19.761 2.189c-0.441 0.308-0.609 0.667-0.611 1.203v27.275l1.221-0.856c0.44-0.308 0.608-0.667 0.612-1.203v-27.275l-1.223 0.856zM21.939 2.189c-0.441 0.308-0.609 0.667-0.611 1.203v27.275l1.221-0.856c0.44-0.308 0.608-0.667 0.612-1.203v-27.275l-1.223 0.856zM24.116 2.189c-0.441 0.308-0.609 0.667-0.611 1.203v27.275l1.221-0.856c0.44-0.308 0.608-0.667 0.612-1.203v-27.275l-1.223 0.856zM29.444 2.189c-0.441 0.308-0.609 0.667-0.611 1.203v27.275l1.221-0.856c0.44-0.308 0.608-0.667 0.612-1.203v-27.275l-1.223 0.856zM4.923 2.189c-0.441 0.308-0.609 0.667-0.611 1.203v27.275l1.221-0.856c0.44-0.308 0.608-0.667 0.612-1.203v-27.275l-1.223 0.856zM1.944 2.189c-0.441 0.308-0.609 0.667-0.611 1.203v27.275l1.221-0.856c0.44-0.308 0.608-0.667 0.612-1.203v-27.275l-1.223 0.856z"></path>
</svg>
