<!-- Generated by IcoMoon.io -->
<svg version="1.1" xmlns="http://www.w3.org/2000/svg" width="32" height="32" viewBox="0 0 32 32">
<path d="M24.163 24.701c-0.009-0.067 0.004-0.125 0.020-0.18 0.363-1.288 1.815-5.925 1.815-5.925 0.021-0.075 0.013-0.145 0.021-0.217l-1.144 0.335c-0.371 0.109-0.665 0.613-0.82 0.944-0.443 1.413-1.121 3.619-1.356 4.447-0.12 0.42-0.147 0.82-0.093 1.188 0.149 1.031 0.92 1.665 1.536 1.896 0.367 0.135 0.764-0.012 0.952-0.352l5.024-9.472c0.399-0.756 0.553-1.641 0.431-2.488-0.031-0.211-0.080-0.42-0.141-0.625l-2.063-6.6 1.727-2.7c0.032-0.048-1.208-0.012-1.208-0.012-0.451 0.019-0.761 0.196-1 0.573l-1.039 1.573c-0.093 0.157-0.125 0.343-0.099 0.524l2.208 7.104c0.031 0.121 0.061 0.247 0.080 0.373 0.077 0.533-0.021 1.084-0.268 1.548l-4.391 8.268c-0.14-0.063-0.181-0.129-0.192-0.201z"></path>
<path d="M23.739 16.857c0.135 0.284 0.427 0.459 0.749 0.444 0.844-0.044 2.115-0.667 2.132-2.213 0.011-0.555-0.049-1.285-0.176-2.16-0.031-0.207-0.077-0.439-0.117-0.672-0.123-0.349-0.328-0.593-0.703-0.737l-1.127-0.429c0.051 0.256 0.323 1.38 0.423 2.071 0.113 0.777 0.163 1.42 0.159 1.907-0.003 0.145-0.028 0.259-0.073 0.349l-1.792-3.347c-0.135-0.284-0.231-0.611-0.283-0.965-0.183-1.256 0.221-2.513 0.263-2.652l1.505-3.579c0.143-0.388 0.116-0.728-0.111-1.089l-0.653-1.031c0 0-0.021-0.008-0.036 0.027l-2.157 5.103c-0.056 0.172-0.593 1.736-0.344 3.456 0.073 0.504 0.211 0.967 0.408 1.381l1.933 4.137z"></path>
<path d="M7.837 24.701c0.009-0.067-0.004-0.125-0.020-0.18-0.363-1.288-1.815-5.925-1.815-5.925-0.021-0.075-0.013-0.145-0.021-0.217l1.144 0.335c0.371 0.109 0.665 0.613 0.82 0.944 0.443 1.413 1.121 3.619 1.356 4.447 0.12 0.42 0.147 0.82 0.093 1.188-0.149 1.031-0.92 1.665-1.536 1.896-0.367 0.135-0.764-0.012-0.952-0.352l-5.024-9.472c-0.399-0.756-0.553-1.641-0.431-2.488 0.032-0.209 0.081-0.417 0.143-0.624l2.063-6.6-1.728-2.7c-0.032-0.048 1.208-0.012 1.208-0.012 0.451 0.019 0.761 0.196 1 0.573l1.039 1.573c0.093 0.157 0.125 0.343 0.099 0.524l-2.208 7.103c-0.031 0.121-0.061 0.247-0.080 0.373-0.077 0.533 0.021 1.084 0.268 1.548l4.391 8.268c0.14-0.063 0.181-0.129 0.192-0.201z"></path>
<path d="M8.261 16.857c-0.135 0.284-0.427 0.459-0.749 0.444-0.844-0.044-2.115-0.667-2.132-2.213-0.011-0.555 0.049-1.285 0.176-2.16 0.031-0.207 0.077-0.439 0.119-0.672 0.123-0.349 0.328-0.593 0.703-0.737l1.127-0.429c-0.051 0.256-0.323 1.38-0.424 2.071-0.113 0.777-0.163 1.42-0.159 1.907 0.003 0.145 0.028 0.259 0.073 0.349l1.792-3.347c0.135-0.284 0.231-0.611 0.283-0.965 0.183-1.256-0.221-2.513-0.263-2.652l-1.505-3.579c-0.143-0.389-0.117-0.728 0.109-1.089l0.653-1.031c0 0 0.021-0.008 0.036 0.027l2.157 5.103c0.056 0.172 0.593 1.736 0.344 3.456-0.073 0.504-0.211 0.967-0.408 1.381l-1.932 4.137z"></path>
<path d="M22.264 9.535l-0.216-2.436c-1.839-1.149-4.004-1.825-6.328-1.825-2.14 0-4.147 0.571-5.888 1.557v2.196c1.66-1.189 3.689-1.897 5.888-1.897 2.496 0 4.779 0.908 6.544 2.405z"></path>
<path d="M23.596 24.505l-0.071-0.789c-1.859 2.245-4.665 3.676-7.807 3.676-3.043 0-5.767-1.348-7.623-3.473h-0.5v1.479h-0.643c2.191 2.359 5.301 3.851 8.765 3.851 5.456 0 10.064-3.669 11.508-8.667l-3.631 3.924z"></path>
<path d="M19.923 15.52c-0.863 0-1.6-0.505-1.952-1.233-0.137 0.285-0.221 0.601-0.221 0.94 0 1.2 0.973 2.173 2.173 2.173s2.173-0.973 2.173-2.173c0-0.339-0.084-0.655-0.221-0.94-0.352 0.727-1.091 1.233-1.952 1.233z"></path>
<path d="M11.825 15.52c-0.863 0-1.6-0.505-1.952-1.233-0.137 0.285-0.221 0.601-0.221 0.94 0 1.2 0.973 2.173 2.173 2.173s2.173-0.973 2.173-2.173c0-0.339-0.084-0.655-0.221-0.94-0.352 0.727-1.091 1.233-1.952 1.233z"></path>
<path d="M20.196 20.58l-1.136 0.777c-0.216 0.144-0.441 0.277-0.677 0.392-0.073 0.036-0.147 0.072-0.223 0.105-0.289 0.124-0.591 0.225-0.903 0.297-0.063 0.015-0.128 0.024-0.191 0.037-0.339 0.065-0.684 0.111-1.041 0.111-0.045 0-0.088-0.008-0.133-0.008-0.293-0.005-0.579-0.041-0.859-0.092-0.104-0.019-0.209-0.035-0.311-0.060-0.28-0.068-0.551-0.159-0.812-0.268-0.112-0.047-0.219-0.1-0.327-0.153-0.205-0.103-0.403-0.216-0.592-0.343-0.009-0.007-0.017-0.013-0.027-0.020v0.004l-1.139-0.779-0.021 1.372c-0.007 0.491 0.169 0.808 0.568 1.095l0.031 0.023 0.557 0.387c0.001 0.001 0.003 0 0.004 0.001v0.001c0.287 0.132 0.58 0.247 0.885 0.341 0.025 0.008 0.051 0.017 0.076 0.025 0.325 0.097 0.659 0.175 1.001 0.227 0.004 0 0.008 0.001 0.013 0.003 0.347 0.051 0.7 0.084 1.061 0.084 0.056 0 0.109-0.011 0.167-0.012 0.293-0.005 0.583-0.025 0.867-0.064 0.093-0.013 0.181-0.037 0.273-0.053 0.249-0.044 0.495-0.096 0.733-0.165 0.087-0.025 0.169-0.056 0.253-0.084 0.243-0.080 0.479-0.169 0.709-0.273 0.020-0.009 0.039-0.019 0.057-0.028l0.557-0.387 0.031-0.023c0.399-0.287 0.575-0.604 0.568-1.095l-0.023-1.376z"></path>
</svg>
