<!-- Generated by IcoMoon.io -->
<svg version="1.1" xmlns="http://www.w3.org/2000/svg" width="32" height="32" viewBox="0 0 32 32">
<path d="M16.404 19.572c0 0.621-0.232 1.099-0.696 1.417-0.252 0.173-0.564 0.303-0.925 0.376-0.163 0.213-0.359 0.312-0.633 0.313l-0.813-0.001 0.148-0.209c-0.488-0.017-0.896-0.055-1.191-0.141-0.337-0.103-0.573-0.175-0.693-0.227 0.187-0.528 0.689-0.824 1.245-0.721 0.331 0.061 0.521 0.064 0.86 0.064 0.496 0 0.868-0.064 1.108-0.196 0.241-0.128 0.361-0.343 0.361-0.631 0-0.293-0.117-0.528-0.352-0.701-0.237-0.172-0.625-0.371-1.167-0.592-0.261-0.108-0.511-0.207-0.752-0.319-0.241-0.109-0.445-0.236-0.624-0.389-0.173-0.148-0.313-0.325-0.416-0.531-0.105-0.216-0.159-0.472-0.159-0.773 0-0.601 0.224-1.083 0.669-1.432 0.28-0.227 0.636-0.371 1.051-0.453l0.023-0.031c0.172-0.248 0.379-0.351 0.677-0.351h0.813l-0.232 0.328c0.020 0.003 0.039 0.001 0.061 0.003 0.191 0.023 0.372 0.051 0.539 0.081 0.164 0.029 0.309 0.061 0.436 0.095 0.129 0.040 0.227 0.072 0.299 0.096-0.209 0.528-0.687 0.816-1.256 0.752-0.228-0.028-0.359-0.033-0.588-0.033-0.34 0-0.641 0.067-0.892 0.204-0.255 0.139-0.381 0.347-0.381 0.635 0 0.145 0.028 0.28 0.085 0.396 0.057 0.113 0.144 0.211 0.26 0.308 0.123 0.091 0.268 0.176 0.441 0.249 0.173 0.080 0.384 0.163 0.629 0.251 0.32 0.121 0.612 0.249 0.861 0.363 0.256 0.117 0.469 0.256 0.652 0.411 0.177 0.161 0.316 0.347 0.409 0.571 0.095 0.221 0.141 0.489 0.141 0.82zM28.833 7.749h-22c-1.013 0-1.833 0.823-1.833 1.833h23.833v11c1.013 0 1.833-0.823 1.833-1.833v-9.165c0-1.011-0.82-1.835-1.833-1.835zM25.167 11.416h-22c-1.013 0-1.833 0.824-1.833 1.835v9.167c0 1.011 0.82 1.833 1.833 1.833h22c1.013 0 1.833-0.823 1.833-1.833v-9.167c0-1.011-0.82-1.835-1.833-1.835zM25.167 22.416h-22v-9.165h22v9.165z"></path>
</svg>
