<!-- Generated by IcoMoon.io -->
<svg version="1.1" xmlns="http://www.w3.org/2000/svg" width="32" height="32" viewBox="0 0 32 32">
<path d="M26.471 4.377c0-0.035 0.008-0.071 0-0.111-0.016-0.063-0.028-0.128-0.063-0.179-0.241-0.347-0.628-0.441-1.041-0.264-4.035 1.723-8.068 3.443-12.1 5.181-0.693 0.295-1.393 0.528-2.156 0.553-1.167 0.039-2.285-0.151-3.333-0.667-0.103-0.055-0.2-0.117-0.315-0.192 0.060-0.031 0.099-0.048 0.133-0.064 3.833-1.637 7.663-3.272 11.495-4.907 0.056-0.024 0.139-0.027 0.195-0.005 0.487 0.197 0.971 0.409 1.455 0.612 0.048 0.019 0.101 0.037 0.173 0.067 0-0.068 0-0.121 0-0.172 0-0.615 0.001-1.236 0-1.853 0-0.093-0.001-0.188-0.017-0.276-0.095-0.584-0.647-0.94-1.236-0.687-4.173 1.793-8.356 3.576-12.529 5.36-0.219 0.092-0.437 0.196-0.639 0.312-0.64 0.385-0.971 0.94-0.968 1.703 0.007 6.301 0.005 12.599 0.003 18.9 0 0.631 0.232 1.147 0.716 1.552 0.14 0.12 0.287 0.231 0.441 0.332 0.853 0.549 1.808 0.829 2.805 0.977 0.312 0.049 0.627 0.080 0.943 0.115 0.284 0 0.568 0 0.855 0 0.059-0.008 0.119-0.025 0.18-0.028 0.676-0.059 1.328-0.204 1.952-0.472 3.68-1.576 7.363-3.155 11.044-4.727 0.527-0.223 1.052-0.445 1.577-0.676 0.275-0.12 0.439-0.305 0.436-0.647-0.007-6.573-0.005-13.156-0.005-19.739zM12.695 28.483c-0.415 0.176-1.611 0.355-2.156 0.351-0.628-0.005-1.901-0.221-2.443-0.569-0.111-0.067-0.689-0.367-0.763-0.428-0.003-10.377 0 0 0-17.127 1.075 0.459 2.26 0.665 3.496 0.687 1.255 0.021 2.436-0.401 3.161-0.704 3.139-1.359 6.279-2.693 9.417-4.035l1.231-0.531c0 0-0.003 11.931 0.001 17.241l-11.945 5.115z"></path>
</svg>
