<!-- Generated by IcoMoon.io -->
<svg version="1.1" xmlns="http://www.w3.org/2000/svg" width="32" height="32" viewBox="0 0 32 32">
<path d="M30.6 27.371l-3.408-12.371c-0.267-0.976-1.279-1.549-2.253-1.284l-3.536 0.973c-0.975 0.272-1.549 1.279-1.279 2.257l3.408 12.371c0.267 0.976 1.277 1.549 2.252 1.283l3.536-0.973c0.975-0.272 1.549-1.277 1.28-2.256zM25.297 28.833l-3.407-12.373 3.536-0.973 3.407 12.373-3.536 0.973zM8.667 6.833h-5.5c-1.013 0-1.833 0.823-1.833 1.833v20.165c0 1.009 0.82 1.833 1.833 1.833h5.5c1.013 0 1.833-0.824 1.833-1.833v-20.165c0-1.011-0.82-1.833-1.833-1.833zM8.667 28.832h-5.5v-5.5h5.5v5.5zM8.667 21.499h-5.5v-12.832h5.5v12.832zM17.98 1.333h-3.667c-1.009 0-1.833 0.824-1.833 1.833v25.665c0 1.009 0.824 1.833 1.833 1.833h3.667c1.013 0 1.833-0.824 1.833-1.833v-25.665c0-1.009-0.819-1.833-1.833-1.833zM17.98 28.832h-3.667v-3.667h3.667v3.667zM17.98 23.332h-3.667v-20.165h3.667v20.165z"></path>
</svg>
