<!-- Generated by IcoMoon.io -->
<svg version="1.1" xmlns="http://www.w3.org/2000/svg" width="32" height="32" viewBox="0 0 32 32">
<path d="M28.224 7.068l-11-5.448c-0.771-0.381-1.679-0.381-2.447 0l-11.001 5.448c-0.935 0.46-1.525 1.405-1.525 2.444v12.964c-0.007 1.039 0.579 1.989 1.511 2.455l11.001 5.451c0.776 0.383 1.688 0.383 2.461 0l11-5.451c0.936-0.459 1.525-1.404 1.525-2.436v-12.983c0-1.039-0.589-1.984-1.525-2.444zM15.591 3.263c0.127-0.063 0.268-0.096 0.409-0.096 0.143 0 0.284 0.033 0.412 0.096l10.235 5.071-10.647 5.275-10.645-5.276 10.236-5.069zM4.575 23.287c-0.304-0.151-0.495-0.459-0.491-0.799v-12.739l11 5.449v13.293l-10.509-5.205zM27.417 23.283l-10.501 5.203v-13.287l10.999-5.449v12.744c0.001 0.336-0.189 0.64-0.497 0.789z"></path>
</svg>
