<!-- Generated by IcoMoon.io -->
<svg version="1.1" xmlns="http://www.w3.org/2000/svg" width="32" height="32" viewBox="0 0 32 32">
<path d="M17.307 24.84v-1.613l1.227 0.853c0.44 0.307 0.613 0.667 0.613 1.2v1.613l-1.227-0.853c-0.44-0.307-0.6-0.667-0.613-1.2zM30.64 2.427c-0.080 0.28-2.013 6.853-5.533 9.853-0.933 0.8-1.973 1.44-3.107 1.987v15.547c0 0.44-0.347 0.787-0.787 0.787h-6.653c-0.347 0-0.64-0.213-0.747-0.547l-1.92-5.853-1.707 5.707c-0.107 0.347-0.413 0.56-0.76 0.56-0.080 0-0.147-0.013-0.227-0.027-0.413-0.12-0.653-0.56-0.533-0.987l2.347-7.84c0-0.013 0.013-0.013 0.013-0.027l-0.893-2.72c-0.133-0.413 0.093-0.867 0.507-1s0.853 0.093 1 0.507l3.507 10.64h5.293v-14.12c-2.533 0.88-5.6 1.293-9.547 1.293h-4.533c-1.88 0-5.027-0.707-5.027-3.333 0-0.84 0.307-1.573 0.88-2.147 1.36-1.347 3.813-1.36 4.12-1.36h4.533c13.24 0 18.293-7.507 18.347-7.587 0.213-0.333 0.64-0.453 0.987-0.293 0.36 0.187 0.547 0.587 0.44 0.96zM27.773 5.56c-2.893 2.387-8.24 5.373-16.907 5.373h-4.533c0 0 0 0 0 0-0.6 0.013-2.24 0.147-3.013 0.907-0.28 0.28-0.413 0.6-0.413 1.013 0 1.693 3.387 1.747 3.427 1.747h4.533c6.347 0 10.293-1.053 13.213-3.533 1.573-1.333 2.827-3.587 3.693-5.507z"></path>
</svg>
