<!-- Generated by IcoMoon.io -->
<svg version="1.1" xmlns="http://www.w3.org/2000/svg" width="32" height="32" viewBox="0 0 32 32">
<path d="M28.833 13.251c-0.548-1.096-0.82-1.833-1.833-1.833h-0.013c0-0.369-0.099-0.74-0.317-1.053l-1.708-2.444c-0.943-1.344-2.217-2-3.908-2.004h-10.111c-1.687 0.004-2.963 0.661-3.905 2.005l-1.707 2.441c-0.219 0.315-0.317 0.684-0.317 1.053h-0.013c-1.013 0-1.285 0.548-1.833 1.833l-1.833 3.668v7.333c0 1.011 0.82 1.833 1.833 1.833h1.833c1.013 0 1.833-0.823 1.833-1.833v-1.833h18.333v1.833c0 1.011 0.82 1.833 1.833 1.833h1.833c1.013 0 1.833-0.823 1.833-1.833v-7.333l-1.833-3.667zM8.54 8.975c0.616-0.881 1.332-1.223 2.407-1.225h10.107c1.075 0.003 1.791 0.344 2.407 1.225l1.707 2.441h-18.333l1.707-2.441zM28.833 24.251h-1.833v-3.667h-22v3.667h-1.833v-7.333l1.833-3.667h22l1.833 3.667v7.333zM19.667 16h5.273c0.539 0.003 0.897 0.172 1.203 0.609l0.857 1.224h-5.273c-0.539-0.001-0.897-0.171-1.203-0.608l-0.857-1.225zM5.857 16.608c0.305-0.437 0.664-0.607 1.203-0.608h5.273l-0.857 1.224c-0.305 0.437-0.664 0.607-1.203 0.609h-5.273l0.857-1.225z"></path>
</svg>
