<!-- Generated by IcoMoon.io -->
<svg version="1.1" xmlns="http://www.w3.org/2000/svg" width="32" height="32" viewBox="0 0 32 32">
<path d="M28.824 4.873h-25.709c-1.289 0-1.833 0.688-1.833 1.833v17.159c0 0.607 0.473 1.175 1.084 1.175h9.916v1.817h-4.099c-0.387 0.057-0.695 0.244-0.947 0.599l-0.847 1.211h6.755c0.019 0.001 0.035 0.011 0.053 0.011 0.507 0 0.917-0.411 0.917-0.917v-3.581h-0.012c0.003-0.020 0.012-0.037 0.012-0.057 0-0.507-0.411-0.917-0.917-0.917-0.003 0-0.004 0.001-0.007 0.001-0.001 0-0.001-0.001-0.001-0.001h-9.801c-0.145-0.043-0.255-0.151-0.273-0.305v-15.948c0.029-0.116 0.104-0.196 0.213-0.244h5.917c0.008 0 2.077-0.004 2.084-0.008 0.007 0 4.083 0.003 7.396 0.005 0.005 0 0.009 0.003 0.015 0.003 0.004 0 0.26-0.001 0.58-0.003 1.48 0.001 2.709 0.001 3.259 0.003 0.068 0 0.113 0 0.115 0h5.917c0.109 0.047 0.184 0.128 0.212 0.244v15.951c-0.019 0.155-0.127 0.263-0.273 0.305h-9.801c0 0 0 0.001-0.001 0.001-0.003 0-0.004-0.001-0.007-0.001-0.507 0-0.917 0.411-0.917 0.917 0 0.020 0.009 0.037 0.012 0.057h-0.012v3.581c0 0.507 0.411 0.917 0.917 0.917 0.019 0 0.035-0.009 0.053-0.011h6.755l-0.847-1.211c-0.252-0.356-0.56-0.541-0.947-0.599h-4.099v-1.82h9.916c0.611 0 1.084-0.568 1.084-1.175v-17.159c0.001-1.145-0.544-1.833-1.832-1.833z"></path>
<path d="M10.681 8.189c-1.767 0-3.208 1.437-3.208 3.208s1.441 3.208 3.208 3.208c1.771 0 3.208-1.437 3.208-3.208s-1.437-3.208-3.208-3.208zM10.681 12.772c-0.759 0-1.375-0.62-1.375-1.375s0.616-1.375 1.375-1.375c0.759 0 1.375 0.62 1.375 1.375s-0.616 1.375-1.375 1.375z"></path>
<path d="M16.181 19.925v2.013l-1.197-0.836c-0.365-0.257-0.532-0.591-0.584-0.997h-0.052c0-1.011-0.82-1.833-1.833-1.833h-3.667c-1.013 0-1.833 0.823-1.833 1.833h-0.028c-0.053 0.408-0.213 0.741-0.579 0.997l-1.227 0.836 0.017-2.013c0.099-1.939 1.689-3.487 3.649-3.487h3.667c1.96 0 3.551 1.548 3.649 3.487h0.017z"></path>
<path d="M25.471 9.564c0 0.759-0.615 1.375-1.375 1.375s-1.375-0.615-1.375-1.375c0-0.759 0.615-1.375 1.375-1.375s1.375 0.615 1.375 1.375z"></path>
<path d="M26.508 13.417c-0.303-1.052-1.263-1.828-2.412-1.828-1.147 0-2.108 0.775-2.412 1.828h4.824z"></path>
<path d="M25.471 17.949c0 0.759-0.615 1.375-1.375 1.375s-1.375-0.615-1.375-1.375c0-0.759 0.615-1.375 1.375-1.375s1.375 0.615 1.375 1.375z"></path>
<path d="M26.508 21.803c-0.303-1.052-1.263-1.828-2.412-1.828-1.147 0-2.108 0.775-2.412 1.828h4.824z"></path>
</svg>
