<!-- Generated by IcoMoon.io -->
<svg version="1.1" xmlns="http://www.w3.org/2000/svg" width="32" height="32" viewBox="0 0 32 32">
<path d="M27.1 23.908c-0.288 0-0.572-0.136-0.751-0.388-0.292-0.415-0.192-0.987 0.223-1.279 2.407-1.693 2.987-5.032 1.295-7.443-0.997-1.419-2.627-2.268-4.36-2.268-0.001 0-0.003 0-0.004 0h-1.573c-0.419 0-0.784-0.283-0.888-0.689-0.603-2.359-2.087-4.337-4.179-5.575-2.083-1.233-4.524-1.581-6.872-0.976-4.851 1.245-7.783 6.216-6.537 11.073 0.353 1.388 1.043 2.692 1.995 3.769 0.336 0.379 0.299 0.96-0.081 1.295-0.377 0.337-0.959 0.297-1.293-0.081-1.143-1.296-1.972-2.863-2.395-4.529-1.497-5.836 2.027-11.805 7.855-13.303 2.82-0.724 5.753-0.308 8.261 1.176 2.307 1.364 3.999 3.479 4.82 6.007h0.885c0.001 0 0.004 0 0.004 0 2.331 0 4.521 1.139 5.861 3.049 2.272 3.235 1.492 7.72-1.739 9.996-0.161 0.112-0.345 0.165-0.527 0.165zM20.475 21.983c-0.16-0.297-0.471-0.483-0.808-0.483h-5.621l3.775-5.264c0.049-0.073 0.072-0.155 0.097-0.236l-1.405 0.011c-0.476 0.004-0.813 0.189-1.099 0.532l-3.841 5.365c-0.187 0.28-0.205 0.641-0.045 0.941 0.157 0.297 0.468 0.484 0.807 0.484h5.621l-3.78 5.491c0 0.003 0 0.008-0.001 0.009h1.457c0.452 0.005 0.776-0.168 1.057-0.473l3.743-5.433c0.185-0.283 0.204-0.644 0.044-0.944z"></path>
</svg>
