<!-- Generated by IcoMoon.io -->
<svg version="1.1" xmlns="http://www.w3.org/2000/svg" width="32" height="32" viewBox="0 0 32 32">
<path d="M21.185 19.685c0 1.357-0.505 2.38-1.509 3.077-0.54 0.372-1.211 0.639-1.993 0.813-0.355 0.445-0.773 0.671-1.368 0.675l-1.752-0.004 0.32-0.46c-1.051-0.025-1.939-0.117-2.569-0.305-0.735-0.213-1.236-0.379-1.5-0.488 0.403-1.145 1.491-1.775 2.687-1.56 0.713 0.135 1.129 0.143 1.855 0.143 1.076 0 1.88-0.143 2.396-0.421 0.52-0.285 0.779-0.739 0.779-1.359 0-0.639-0.257-1.151-0.764-1.527-0.507-0.375-1.345-0.801-2.513-1.273-0.567-0.225-1.108-0.453-1.627-0.693-0.517-0.235-0.964-0.511-1.343-0.831-0.375-0.323-0.676-0.709-0.901-1.156-0.229-0.455-0.341-1.009-0.341-1.669 0-1.299 0.481-2.333 1.441-3.092 0.611-0.487 1.377-0.801 2.272-0.973l0.044-0.065c0.372-0.528 0.821-0.761 1.467-0.765l1.752 0.004-0.501 0.716c0.047 0.007 0.092 0.004 0.139 0.009 0.413 0.043 0.804 0.101 1.159 0.169 0.36 0.067 0.676 0.135 0.945 0.211 0.277 0.076 0.485 0.141 0.64 0.197-0.445 1.145-1.48 1.772-2.707 1.625-0.492-0.063-0.773-0.076-1.272-0.076-0.733 0-1.383 0.151-1.932 0.445-0.547 0.293-0.819 0.748-0.819 1.368 0 0.319 0.061 0.601 0.187 0.851 0.121 0.247 0.309 0.467 0.561 0.663 0.257 0.196 0.575 0.384 0.949 0.549 0.377 0.167 0.828 0.351 1.359 0.537 0.695 0.267 1.317 0.527 1.861 0.775 0.551 0.256 1.011 0.556 1.4 0.892 0.387 0.34 0.684 0.749 0.889 1.232 0.208 0.479 0.311 1.065 0.311 1.767zM16 1.333c-8.1 0-14.667 6.568-14.667 14.667s6.567 14.667 14.667 14.667 14.667-6.568 14.667-14.667-6.567-14.667-14.667-14.667zM16 28.833c-7.076 0-12.833-5.757-12.833-12.833s5.757-12.833 12.833-12.833 12.833 5.757 12.833 12.833-5.757 12.833-12.833 12.833z"></path>
</svg>
