<!-- Generated by IcoMoon.io -->
<svg version="1.1" xmlns="http://www.w3.org/2000/svg" width="32" height="32" viewBox="0 0 32 32">
<path d="M30.58 26.96l-0.864-1.233c-0.311-0.444-0.672-0.615-1.213-0.616h-1.576v-3.837l-1.233 0.864c-0.444 0.311-0.615 0.672-0.616 1.213v1.76h-3.472l0.864 1.232c0.311 0.444 0.672 0.615 1.215 0.617h1.395v3.707l1.232-0.864c0.444-0.311 0.615-0.672 0.617-1.215v-1.628h3.652z"></path>
<path d="M19.047 19.705c0.208 0.473 0.317 1.061 0.321 1.761 0.011 1.356-0.488 2.381-1.488 3.085-0.537 0.375-1.205 0.644-1.985 0.824-0.352 0.449-0.769 0.676-1.364 0.685l-1.752 0.008 0.317-0.463c-1.052-0.019-1.94-0.101-2.571-0.287-0.736-0.208-1.237-0.369-1.503-0.476 0.395-1.149 1.479-1.784 2.676-1.576 0.713 0.128 1.129 0.133 1.856 0.128 1.076-0.008 1.879-0.155 2.393-0.437 0.516-0.289 0.772-0.744 0.768-1.361-0.004-0.639-0.264-1.148-0.775-1.521-0.509-0.369-1.351-0.791-2.521-1.252-0.569-0.223-1.111-0.445-1.633-0.681-0.519-0.232-0.967-0.504-1.348-0.821-0.377-0.319-0.681-0.703-0.911-1.148-0.232-0.455-0.349-1.007-0.353-1.667-0.008-1.297 0.467-2.336 1.42-3.099 0.609-0.492 1.373-0.811 2.265-0.989l0.044-0.065c0.367-0.532 0.816-0.767 1.461-0.776l1.752-0.008-0.496 0.719c0.047 0.008 0.091 0.004 0.137 0.009 0.411 0.037 0.803 0.095 1.159 0.16 0.36 0.064 0.677 0.131 0.948 0.205 0.277 0.072 0.485 0.139 0.641 0.192-0.439 1.148-1.468 1.783-2.695 1.644-0.493-0.061-0.775-0.071-1.273-0.068-0.733 0.005-1.383 0.16-1.928 0.459-0.544 0.297-0.813 0.751-0.809 1.373 0.003 0.317 0.065 0.601 0.193 0.848 0.124 0.245 0.313 0.463 0.567 0.657 0.26 0.195 0.577 0.38 0.952 0.543 0.38 0.164 0.832 0.344 1.363 0.527 0.697 0.264 1.32 0.519 1.867 0.763 0.552 0.252 1.015 0.548 1.407 0.881 0.388 0.337 0.688 0.744 0.897 1.224z"></path>
<path d="M17.789 1.244c-1.745 0-3.397 0.367-4.912 1-0.381 0.119-0.661 0.459-0.661 0.877 0 0.517 0.417 0.931 0.933 0.931 0.132 0 0.256-0.028 0.369-0.077l0.001 0.003c1.311-0.56 2.752-0.873 4.269-0.873 6.048 0 10.953 4.904 10.953 10.953 0 1.572-0.339 3.063-0.939 4.412 0 0-0.068 0.249-0.068 0.383 0 0.513 0.415 0.925 0.927 0.925 0.416 0 0.756-0.28 0.872-0.659 0.673-1.553 1.067-3.257 1.067-5.061 0.001-7.076-5.736-12.813-12.812-12.813z"></path>
<path d="M26.959 17.791c0 0.514-0.417 0.931-0.931 0.931s-0.931-0.417-0.931-0.931c0-0.514 0.417-0.931 0.931-0.931s0.931 0.417 0.931 0.931z"></path>
<path d="M20.104 28.605c0 0.514-0.417 0.931-0.931 0.931s-0.931-0.417-0.931-0.931c0-0.514 0.417-0.931 0.931-0.931s0.931 0.417 0.931 0.931z"></path>
<path d="M14.147 5.040c-7.076 0-12.813 5.736-12.813 12.815 0 7.076 5.737 12.812 12.813 12.812 1.933 0 3.759-0.439 5.4-1.208v-1.457h-0.763l0.016-0.249c-1.411 0.668-2.989 1.055-4.653 1.055-6.048 0-10.953-4.905-10.953-10.953 0-6.049 4.905-10.953 10.953-10.953 6.036 0 10.932 4.885 10.952 10.919h1.86c-0.020-7.061-5.748-12.779-12.812-12.779z"></path>
</svg>
