<!-- Generated by IcoMoon.io -->
<svg version="1.1" xmlns="http://www.w3.org/2000/svg" width="32" height="32" viewBox="0 0 32 32">
<path d="M30.361 27.281l-4.948-6.888c0.281-0.083 0.528-0.224 0.731-0.513l0.856-1.221h-2.813l-5.097-7.211c0.36-0.568 0.577-1.235 0.577-1.956 0-1.729-1.139-3.175-2.749-3.557 0.021-0.112 0-3.959 0-3.959l-1.223 0.855c-0.441 0.307-0.609 0.667-0.611 1.203v1.921c-1.579 0.409-2.751 1.835-2.751 3.537 0 0.716 0.216 1.385 0.575 1.951l-5.099 7.216h-2.809l0.856 1.221c0.201 0.289 0.447 0.427 0.728 0.513l-4.945 6.888c-0.313 0.437-0.387 0.823-0.212 1.333l0.485 1.409 6.899-9.536 6.272 0.005v2.016l1.221-0.857c0.427-0.3 0.591-0.648 0.604-1.159l6.299-0.005 6.881 9.536 0.485-1.409c0.176-0.511 0.101-0.896-0.212-1.333zM16 7.659c1.012 0 1.833 0.82 1.833 1.833s-0.821 1.833-1.833 1.833-1.833-0.82-1.833-1.833 0.821-1.833 1.833-1.833zM16.917 18.659v-1.833l-1.223 0.855c-0.368 0.257-0.515 0.576-0.564 0.979l-5.080-0.003 4.212-5.956c0.52 0.281 1.105 0.459 1.737 0.459s1.219-0.177 1.737-0.459l4.213 5.959h-5.033z"></path>
</svg>
