<!-- Generated by IcoMoon.io -->
<svg version="1.1" xmlns="http://www.w3.org/2000/svg" width="32" height="32" viewBox="0 0 32 32">
<path d="M16 1.333c-8.1 0-14.667 6.568-14.667 14.667s6.567 14.667 14.667 14.667 14.667-6.568 14.667-14.667-6.567-14.667-14.667-14.667zM16 28.833c-7.076 0-12.833-5.757-12.833-12.833s5.757-12.833 12.833-12.833 12.833 5.757 12.833 12.833-5.757 12.833-12.833 12.833zM8.015 16.697h0.391c0 0-0.111-0.461-0.111-0.697s0.032-0.469 0.064-0.695l-1.279-0.007 0.912-1.829h0.797c1.12-2.987 4.064-4.984 7.364-4.984 1.951 0 3.829 0.708 5.283 2.001l0.113 0.1-1.101 1.8-0.163-0.172c-1.045-1.088-2.588-1.736-4.133-1.736-2.16 0-4.139 1.163-5.129 2.989h8.192l-1.185 1.848h-7.596c-0.037 0.233-0.067 0.444-0.067 0.684 0 0.237 0.029 0.467 0.064 0.697h7.031l-1.041 1.741-5.357-0.004c0.991 1.829 2.929 3.085 5.089 3.085 1.639 0 3.168-0.68 4.301-1.912l0.319-0.352v2.68c-1.419 1.084-2.988 1.579-4.62 1.579-3.3 0-6.168-2.091-7.289-5.081h-1.833l0.985-1.736z"></path>
</svg>
