<!-- Generated by IcoMoon.io -->
<svg version="1.1" xmlns="http://www.w3.org/2000/svg" width="32" height="32" viewBox="0 0 32 32">
<path d="M16 1.333c-8.1 0-14.667 6.568-14.667 14.667s6.567 14.667 14.667 14.667 14.667-6.568 14.667-14.667-6.567-14.667-14.667-14.667zM16 28.833c-7.076 0-12.833-5.757-12.833-12.833s5.757-12.833 12.833-12.833 12.833 5.757 12.833 12.833-5.757 12.833-12.833 12.833zM14.949 23.74v-3.136c0-0.263-0.215-0.477-0.477-0.477h-3.345v-1.881h3.345c0.263 0 0.477-0.215 0.477-0.477v-0.457c0-0.263-0.215-0.477-0.477-0.477h-3.345v-1.884h1.849c0.179 0 0.341-0.101 0.424-0.26 0.083-0.157 0.068-0.351-0.036-0.496l-4.24-5.931h2.916l3.541 5.885c0.088 0.143 0.244 0.231 0.411 0.231 0.001 0 0.004 0 0.005 0 0.171-0.001 0.324-0.093 0.411-0.239 0.965-1.681 2.973-4.94 3.504-5.797l0.048-0.081h2.917l-4.24 5.931c-0.104 0.145-0.119 0.339-0.036 0.496 0.081 0.159 0.245 0.26 0.424 0.26h1.849v1.884h-3.345c-0.263 0-0.477 0.215-0.477 0.477v0.457c0 0.263 0.215 0.477 0.477 0.477h3.345v1.881h-3.345c-0.263 0-0.477 0.215-0.477 0.477v3.136h-2.103z"></path>
</svg>
