<!-- Generated by IcoMoon.io -->
<svg version="1.1" xmlns="http://www.w3.org/2000/svg" width="32" height="32" viewBox="0 0 32 32">
<path d="M30.667 24.764v0 0l-13.255-18.759c-0.095-0.127-0.199-0.204-0.305-0.287-0.199-0.152-0.419-0.26-0.688-0.296l-0.42-0.023-0.424 0.023c-0.244 0.032-0.447 0.121-0.635 0.248h0.001c-0.124 0.1-0.248 0.189-0.359 0.341l-13.249 18.752 0.856 1.224c0.305 0.439 0.664 0.608 1.203 0.611h25.213c0.539-0.003 0.897-0.172 1.203-0.611l0.859-1.224zM2.835 24.764c0.531-0.003 0.873-0.196 1.181-0.632l11.984-16.948 11.985 16.949c0.307 0.435 0.651 0.629 1.181 0.632h-26.332z"></path>
</svg>
