<!-- Generated by IcoMoon.io -->
<svg version="1.1" xmlns="http://www.w3.org/2000/svg" width="27" height="32" viewBox="0 0 27 32">
<path d="M13.293 0.044l-11.407 7.982-0.203 0.203-1.611 1.132v13.235l13.221 9.375 13.279-9.39v-13.177zM12.669 2.801c0.167-0.144 0.385-0.231 0.624-0.231s0.457 0.087 0.625 0.232l-0.001-0.001 9.404 6.632-9.404 6.574c-0.169 0.136-0.387 0.218-0.624 0.218s-0.455-0.082-0.626-0.22l0.002 0.002-9.433-6.632zM1.887 21.667v-10.957l10.463 7.401v10.957zM14.237 29.068v-10.957l10.449-7.387v10.942z"></path>
<path d="M4.209 14.324c-0.784-0.363-1.451 0-1.451 0.769 0.086 0.931 0.647 1.715 1.436 2.112l0.015 0.007c0.798 0.363 1.451 0 1.451-0.769-0.083-0.932-0.646-1.717-1.436-2.112l-0.015-0.007z"></path>
<path d="M7.097 18.547c-0.798-0.363-1.451 0-1.451 0.769 0.080 0.933 0.644 1.719 1.436 2.112l0.015 0.007c0.798 0.363 1.451 0 1.451-0.769-0.080-0.933-0.644-1.719-1.436-2.112l-0.015-0.007z"></path>
<path d="M10.014 22.828c-0.784-0.363-1.451 0-1.451 0.769 0.086 0.931 0.647 1.715 1.436 2.112l0.015 0.007c0.798 0.363 1.451 0 1.451-0.769-0.083-0.933-0.646-1.717-1.436-2.112l-0.015-0.007z"></path>
<path d="M22.001 14.556c-0.806 0.395-1.369 1.176-1.451 2.094l-0.001 0.010c0 0.798 0.653 1.146 1.451 0.769 0.806-0.402 1.368-1.186 1.451-2.109l0.001-0.010c0-0.755-0.61-1.117-1.451-0.755z"></path>
<path d="M17.56 21.812c-0.809 0.39-1.375 1.173-1.451 2.095l-0.001 0.009c0 0.798 0.653 1.146 1.451 0.769 0.809-0.39 1.375-1.173 1.451-2.095l0.001-0.009c-0.015-0.769-0.653-1.146-1.451-0.769z"></path>
<path d="M15.238 8.751c0-0.784-0.885-1.451-1.988-1.451s-2.003 0.653-2.003 1.451 0.9 1.451 2.046 1.451 1.945-0.639 1.945-1.451z"></path>
</svg>
