<!-- Generated by IcoMoon.io -->
<svg version="1.1" xmlns="http://www.w3.org/2000/svg" width="32" height="32" viewBox="0 0 32 32">
<path d="M9.556 16.531l-6.685-0.001c-0.045 0-0.045-0.027-0.045-0.027l0.839-1.211c0.295-0.421 0.66-0.609 1.159-0.633l4.685-0.007z"></path>
<path d="M12.591 17.288c0.017 0.173 0.144 1.761 0.924 3.080 0.22 0.372 0.477 0.693 0.757 0.948l3.537 2.913c0.009-0.123-0.015-0.26-0.079-0.424-0.22-0.545-0.571-1.239-1.053-2.056-0.429-0.725-1.249-1.855-1.423-2.117l1.455-0.037c0.484-0.012 0.825 0.167 1.123 0.5 0.152 0.241 0.311 0.479 0.439 0.696 0.544 0.919 0.947 1.705 1.189 2.331 0.691 1.735-0.441 3.013-1.363 3.449-0.355 0.164-0.759 0.103-1.040-0.152l-4.055-3.731c-0.411-0.372-0.777-0.827-1.089-1.355-1.068-1.804-1.185-3.797-1.203-4.015z"></path>
<path d="M7.205 16.529l3.137 0.001c0.145 0.008 0.265 0.299 0.368 0.788 0.612 0.027 1.879-0.031 1.879-0.031-0.083-0.843-0.485-1.667-0.837-2.084l-0.195-0.239c-0.149-0.165-0.353-0.271-0.575-0.305l-3.953-0.007z"></path>
<path d="M27.659 19.945l-1.897-0.003-0.679 0.003-4.352-0.003c-0.556 0.001-0.928-0.173-1.247-0.625l-0.888-1.259 7.819 0.004-2.603-8.721c-0.219-0.599-0.477-1.315-1.031-1.659-0.364-0.227-1.077-0.565-1.553-0.569l-6.991-0.011c-0.632 0.053-1.256 0.313-1.747 0.739-0.116 0.103-0.223 0.217-0.325 0.327l-1.156 1.309c-0.167 0.145-0.376 0.233-0.596 0.241l-5.608-0.009c-0.54 0.004-0.921-0.196-1.235-0.64 0 0-0.845-1.235-0.776-1.233l7.203-0.028 0.74-0.832c0.169-0.196 0.348-0.383 0.543-0.551 0.779-0.677 1.777-1.097 2.805-1.188l7.444 0.095c0.277 0.005 1.341 0.205 2.255 0.804 0.867 0.568 1.44 1.595 1.797 2.565l3.124 10.107c0.151 0.443-0.101 1.137-1.047 1.137z"></path>
</svg>
