<!-- Generated by IcoMoon.io -->
<svg version="1.1" xmlns="http://www.w3.org/2000/svg" width="32" height="32" viewBox="0 0 32 32">
<path d="M16.529 22.953c-0.661 0.099-1.543 0.153-2.611 0.153-0.252 0-0.536-0.005-0.823-0.024-0.439-0.076-0.767-0.289-1.003-0.7l-0.707-1.279c0.315 0.024 1.704 0.143 2.547 0.143 0.948 0 1.724-0.041 2.305-0.14 0.172-0.028 0.304-0.071 0.404-0.145l-4.309-1.552c-0.361-0.115-0.769-0.172-1.201-0.172-1.532 0-2.964 0.693-3.121 0.773l-4.012 2.415c-0.44 0.245-0.849 0.271-1.32 0.055l-1.344-0.601c0 0-0.013-0.016 0.025-0.039l5.72-3.461c0.195-0.096 1.971-1.008 4.067-1.008 0.613 0 1.192 0.083 1.721 0.237l5.276 1.596c0.363 0.115 0.621 0.432 0.661 0.809 0.093 1.023-0.431 2.64-2.276 2.94zM30.549 17.891c-0.384-0.695-1.275-1.511-2.531-1.511-0.449 0-0.921 0.107-1.403 0.317-0.949 0.424-3.464 1.623-5.076 2.396-0.367 0.235-0.919 0.683-0.984 1.143l-0.201 1.424c0.084-0.019 0.169-0.021 0.256-0.068 0 0 5.285-2.533 6.761-3.188 0.063-0.028 0.131-0.057 0.212-0.057 0.087 0 0.175 0.033 0.275 0.197l-9.112 6.675c-0.512 0.377-1.153 0.583-1.803 0.583-0.155 0-0.309-0.008-0.46-0.033l-8.867-1.404c-0.221 0-0.436 0.079-0.608 0.216l-1.697 1.508c-0.409 0.36-0.567 0.757-0.511 1.297 0 0 0.172 1.489 0.224 1.445l2.925-2.541 8.24 1.325c0.256 0.036 0.513 0.057 0.771 0.057 1.032 0 2.061-0.333 2.896-0.94l10.44-7.645c0.369-0.281 0.477-0.787 0.252-1.196zM-10873.333 3.125h21844zM-10873.333 16.959h21844zM22.889 4.080c0 0-0.001-0.001-0.001-0.003-1.647-1.653-4.319-1.655-5.969 0-0.001 0-0.001 0-0.001 0l-0.815 0.816-0.813-0.816c-1.648-1.653-4.323-1.653-5.972 0-1.647 1.656-1.647 4.336 0 5.993l6.784 6.804 6.785-6.804c1.651-1.657 1.651-4.336 0.003-5.991zM21.731 8.925l-5.627 5.563-5.739-5.587c-1.047-1.051-1.047-2.763 0-3.816 0.507-0.507 1.18-0.787 1.897-0.787 0.716 0 1.316 0.212 1.823 0.719l1.412 1.371c0.157 0.157 0.371 0.245 0.593 0.245v0c0.223 0 0.435-0.087 0.592-0.244l1.255-1.279c0.507-0.508 1.181-0.788 1.897-0.788 0.704 0 1.368 0.271 1.871 0.763 0.009 0.011 0.019 0.021 0.028 0.029 1.044 1.051 1.044 2.761-0.003 3.811z"></path>
</svg>
