<!-- Generated by IcoMoon.io -->
<svg version="1.1" xmlns="http://www.w3.org/2000/svg" width="32" height="32" viewBox="0 0 32 32">
<path d="M18.727 13.499l0.352-1.025c0.128-0.369 0.073-0.652-0.155-0.969l-2.255-3.104-0.353 1.027c-0.128 0.369-0.073 0.652 0.155 0.969l2.256 3.103z"></path>
<path d="M28.301 19.52l-9.916-13.645c-1.824-2.509-5.337-3.065-7.847-1.243s-3.067 5.337-1.243 7.848l2.893 3.981c-2.111-1.192-4.803-1.145-6.897 0.363-2.873 2.069-3.525 6.076-1.457 8.949 2.069 2.873 6.076 3.525 8.949 1.457 2.109-1.519 3.009-4.081 2.525-6.475l3.901 5.369c1.824 2.509 5.337 3.065 7.847 1.243s3.068-5.337 1.244-7.848zM5.323 24.703c-1.295-1.797-1.097-4.215 0.351-5.78l5.243 7.281c-1.944 0.876-4.3 0.296-5.593-1.501zM12.403 25.132l-5.243-7.28c1.944-0.876 4.299-0.296 5.593 1.501 1.295 1.796 1.097 4.213-0.351 5.779zM11.616 6.116c1.691-1.228 4.057-0.855 5.287 0.837l4.419 6.081-6.123 4.449-4.42-6.083c-1.228-1.691-0.853-4.057 0.837-5.285zM25.981 25.884c-1.691 1.229-4.057 0.855-5.287-0.837l-4.419-6.081 6.123-4.449 4.419 6.081c1.229 1.692 0.855 4.059-0.836 5.287z"></path>
<path d="M15.811 7.975c0.128-0.369 0.073-0.652-0.155-0.969l-0.688-0.945-0.353 1.027c-0.128 0.369-0.073 0.652 0.155 0.969l0.688 0.945 0.353-1.027z"></path>
</svg>
