<!-- Generated by IcoMoon.io -->
<svg version="1.1" xmlns="http://www.w3.org/2000/svg" width="32" height="32" viewBox="0 0 32 32">
<path d="M30.456 2.999c-0.321-0.611-0.959-0.999-1.653-0.999h-7.035c-0.699 0-1.336 0.388-1.655 0.999-0.321 0.619-0.275 1.367 0.127 1.937l1.431 2.043v4.497h-3.567v-2.797c0-0.756-0.457-1.437-1.152-1.723-0.231-0.101-0.472-0.143-0.712-0.143-0.484 0-0.961 0.184-1.317 0.544l-0.928 0.928c-0.128-0.591-0.539-1.096-1.108-1.329-0.235-0.101-0.476-0.144-0.716-0.144-0.484 0-0.961 0.184-1.317 0.544l-0.925 0.929c-0.127-0.591-0.536-1.096-1.111-1.329-0.231-0.101-0.472-0.144-0.712-0.144-0.488 0-0.961 0.184-1.317 0.544l-4.907 4.913c-0.352 0.347-0.548 0.821-0.548 1.313l-0.003 14.553c0 1.027 0.835 1.864 1.865 1.864h23.888c1.027 0 1.861-0.839 1.861-1.864l0.001-21.224 1.383-1.975c0.399-0.572 0.448-1.32 0.127-1.939zM27.085 6.321l-0.003 21.813h-23.887l0.003-14.553 4.907-4.904v4.063l4.065-4.063v4.063l4.068-4.063v4.656h7.296v-6.945l-1.768-2.524h7.035l-1.716 2.457z"></path>
</svg>
