<!-- Generated by IcoMoon.io -->
<svg version="1.1" xmlns="http://www.w3.org/2000/svg" width="32" height="32" viewBox="0 0 32 32">
<path d="M15.733 12.133c-2.5 0-4.533 2.033-4.533 4.532 0 2.5 2.033 4.535 4.533 4.535s4.533-2.035 4.533-4.535c0-2.499-2.033-4.532-4.533-4.532zM15.733 19.333c-1.472 0-2.667-1.193-2.667-2.667 0-1.472 1.195-2.667 2.667-2.667s2.667 1.193 2.667 2.667c0 1.473-1.195 2.667-2.667 2.667z"></path>
<path d="M15.6 23.967h-0.116c-2.528 0-4.584 2.148-4.584 4.792v-0.025c-0.033 0.464-0.208 0.816-0.609 1.095l-1.224 0.839v-1.908c0-3.653 2.879-6.625 6.416-6.625h0.384z"></path>
<path d="M15.333 22.133h0.384c3.537 0 6.416 2.972 6.416 6.625v1.908l-1.224-0.839c-0.4-0.279-0.576-0.632-0.609-1.095v0.025c0-2.643-2.056-4.792-4.584-4.792h-0.116z"></path>
<path d="M8.733 1.2c-2.5 0-4.533 2.033-4.533 4.532 0 2.5 2.033 4.535 4.533 4.535s4.533-2.035 4.533-4.535c0-2.499-2.033-4.532-4.533-4.532zM8.733 8.4c-1.472 0-2.667-1.193-2.667-2.667 0-1.472 1.195-2.667 2.667-2.667s2.667 1.193 2.667 2.667c0 1.473-1.195 2.667-2.667 2.667z"></path>
<path d="M14.393 13.32c-1.172-1.296-2.828-2.12-4.677-2.12h-1.967c-3.537 0-6.416 2.971-6.416 6.625v12.88l1.224-0.839c0.4-0.279 0.576-0.632 0.609-1.095v-10.947c0-2.643 2.056-4.792 4.584-4.792h1.967c1.229 0 2.34 0.515 3.164 1.34l1.512-1.053z"></path>
<path d="M18.733 5.695c0 2.5 2.033 4.535 4.533 4.535s4.533-2.035 4.533-4.535c0-2.499-2.033-4.532-4.533-4.532s-4.533 2.032-4.533 4.532zM20.6 5.695c0-1.472 1.195-2.667 2.667-2.667s2.667 1.193 2.667 2.667c0 1.473-1.195 2.667-2.667 2.667s-2.667-1.193-2.667-2.667z"></path>
<path d="M17.607 13.281c1.172-1.297 2.828-2.12 4.677-2.12h1.965c3.537 0 6.416 2.972 6.416 6.625v12.88l-1.224-0.839c-0.4-0.279-0.576-0.632-0.609-1.095v-10.947c0-2.643-2.056-4.792-4.584-4.792h-1.965c-1.229 0-2.34 0.515-3.164 1.34l-1.512-1.053z"></path>
</svg>
