<!-- Generated by IcoMoon.io -->
<svg version="1.1" xmlns="http://www.w3.org/2000/svg" width="32" height="32" viewBox="0 0 32 32">
<path d="M28 5.459h-24c-1.469 0-2.667 1.184-2.667 2.636v15.812c0 1.452 1.197 2.636 2.667 2.636h24c1.469 0 2.667-1.184 2.667-2.636v-15.813c0-1.452-1.197-2.635-2.667-2.635zM28.833 23.907c0 0.433-0.384 0.803-0.833 0.803h-24c-0.449 0-0.833-0.368-0.833-0.803v-15.813c0-0.433 0.384-0.803 0.833-0.803h24c0.449 0 0.833 0.368 0.833 0.803v15.813zM21.739 14.704c-0.084-0.265-0.312-0.459-0.588-0.497l-3.12-0.436-1.391-2.688c-0.123-0.241-0.371-0.392-0.64-0.392s-0.517 0.151-0.641 0.389l-1.391 2.688-3.12 0.436c-0.276 0.039-0.505 0.233-0.588 0.497-0.084 0.265-0.007 0.556 0.197 0.745l2.237 2.079-0.527 2.932c-0.048 0.269 0.060 0.543 0.279 0.705 0.127 0.095 0.279 0.144 0.432 0.144 0.111 0 0.221-0.025 0.324-0.077l2.797-1.401 2.797 1.404c0.103 0.052 0.213 0.077 0.324 0.077 0.153 0 0.304-0.049 0.432-0.144 0.22-0.164 0.327-0.436 0.279-0.705l-0.527-2.932 2.237-2.079c0.204-0.189 0.28-0.48 0.196-0.745z"></path>
</svg>
