<!-- Generated by IcoMoon.io -->
<svg version="1.1" xmlns="http://www.w3.org/2000/svg" width="32" height="32" viewBox="0 0 32 32">
<path d="M25.333 1.333h-18.667c-1.013 0-1.833 0.823-1.833 1.5v25.667c0 1.344 0.82 2.167 1.833 2.167h18.667c1.013 0 1.833-0.823 1.833-2.167v-25.667c0-0.677-0.82-1.5-1.833-1.5zM25.333 28.833h-18.667v-15h18.667v15zM25.333 12h-18.667v-8.833h18.667v8.833zM11.416 6.833h7.107c0.539 0.003 0.897 0.172 1.203 0.609l0.859 1.224h-7.107c-0.54-0.001-0.897-0.171-1.204-0.608l-0.857-1.225zM11.416 16h7.107c0.539 0.003 0.897 0.172 1.203 0.609l0.857 1.224h-7.107c-0.539-0.001-0.897-0.171-1.203-0.608l-0.857-1.225z"></path>
</svg>
