<!-- Generated by IcoMoon.io -->
<svg version="1.1" xmlns="http://www.w3.org/2000/svg" width="32" height="32" viewBox="0 0 32 32">
<path d="M30.527 3.839c-0.284-0.688-0.952-1.136-1.693-1.136h-25.667c-0.741 0-1.409 0.448-1.693 1.136s-0.127 1.476 0.397 2.003l10.464 11.453v6.396c0 0.063 0.003 0.123 0.009 0.185 0.144 1.435 0.829 2.588 2.033 3.432l2.405 1.693c0.315 0.221 0.683 0.333 1.053 0.333 0.289 0 0.58-0.068 0.847-0.208 0.607-0.317 0.987-0.943 0.987-1.631v-10.2l10.463-11.453c0.521-0.528 0.679-1.316 0.395-2.004zM17.833 16.533v10.961l-2.405-1.691c-0.785-0.549-1.172-1.221-1.261-2.115v-7.156l-11-11.992h25.667l-11 11.992z"></path>
</svg>
