<!-- Generated by IcoMoon.io -->
<svg version="1.1" xmlns="http://www.w3.org/2000/svg" width="32" height="32" viewBox="0 0 32 32">
<path d="M24.355 23.452c2.436-2.34 3.961-5.628 3.961-9.263-0.001-7.091-5.767-12.856-12.855-12.856s-12.856 5.765-12.856 12.856c0 7.091 5.767 12.856 12.856 12.856 2.788 0 5.365-0.904 7.473-2.416l3.803 5.428c0.303 0.416 0.672 0.609 1.193 0.609h1.464l-5.040-7.215zM4.441 14.189c0-6.087 4.933-11.020 11.020-11.020 6.084 0 11.019 4.932 11.019 11.020s-4.933 11.020-11.019 11.020c-6.087-0.001-11.020-4.932-11.020-11.020z"></path>
</svg>
