<!-- Generated by IcoMoon.io -->
<svg version="1.1" xmlns="http://www.w3.org/2000/svg" width="32" height="32" viewBox="0 0 32 32">
<path d="M11.2 9.6c-4.5 2.4-5.2 8-5.3 9-0.3 3.8 1.1 6.8 2 8.2 0 0 0 0 0 0l1 1.6 0.6-1.4c0.1-0.3 0.2-0.5 0.1-0.8 0-0.2 0-0.4-0.1-0.5 0 0 0 0 0 0s0 0 0 0v0c-0.8-1.2-2-3.7-1.7-6.9 0.1-0.9 0.7-5.6 4.3-7.5 3.3-1.8 7.2-0.2 9.3 2.2 1.7 2 3.1 5.4 2.1 7.7-0.4 0.9-0.9 1.5-1.5 1.7-1 0.3-2.1-0.4-2.7-1.2-0.7-1-0.6-2.1-0.6-2.6 0.1-0.5-0.3-1-0.9-1.1-0.5-0.1-1 0.3-1.1 0.9-0.1 0.7-0.1 2.4 0.9 3.9 1 1.4 3 2.6 4.9 1.9 1.1-0.4 2.1-1.4 2.7-2.8 1.3-3.2-0.3-7.3-2.5-9.8-2.5-2.9-7.3-4.8-11.5-2.5z"></path>
<path d="M20.6 20.2c0 0.5 0.5 0.9 1 0.9 0 0 0 0 0 0 0.5 0 1-0.5 0.9-1 0-0.1-0.2-3.6-2.4-6-0.4-0.4-1-0.4-1.4-0.1-0.4 0.4-0.4 1-0.1 1.4 1.9 1.9 2 4.8 2 4.8z"></path>
<path d="M10.2 20c-0.2-2.2 1-3.7 1.8-4.3 1.2-1.1 2.9-1.6 4.1-1.3 0.5 0.1 1-0.2 1.2-0.7 0.1-0.5-0.2-1-0.7-1.2-1.8-0.4-4.1 0.2-5.8 1.7-1.8 1.5-2.7 3.6-2.5 5.9 0.4 4.2 3.2 7.4 4.1 8.4l1.3 1.4 0.4-1.5c0.1-0.5 0-0.9-0.3-1.3-0.7-0.6-3.3-3.5-3.6-7.1z"></path>
<path d="M14.1 19.7c0 0.5 0.4 1 1 1 0.5 0 1-0.4 1-1 0-0.5-0.4-1-1-1s-1 0.4-1 1z"></path>
<path d="M22.7 25.8v0c0 0 0 0 0 0-4.1 0.8-6.2-3.7-6.3-3.9-0.2-0.5-0.8-0.7-1.3-0.5s-0.7 0.8-0.5 1.3c0.9 2.1 3.9 5.9 8.4 5.1 0 0 0 0 0 0v0l1.9-0.3-1-1.1c-0.3-0.5-0.7-0.7-1.2-0.6z"></path>
<path d="M18.7 28.3c-0.1-0.5-0.3-0.8-0.7-1.1 0 0 0 0 0 0s0 0 0 0 0 0 0 0v0c-3.3-1.6-5.5-5.3-4.5-7.9 0.8-2.1 2.6-1.7 2.9-1.5 0.5 0.2 1.1-0.1 1.2-0.6 0.2-0.5-0.1-1.1-0.6-1.2-1.1-0.4-4.2-0.7-5.4 2.7-1.3 3.5 1.3 8.3 5.5 10.3 0.1 0 0.2 0.1 0.3 0.1l1.5 0.7-0.2-1.5z"></path>
<path d="M25.9 11.8c-1.1-1.6-4.7-6.2-10.6-5.9-2.8 0.1-4.5 0.7-6 1.8-0.4 0.4-0.5 1-0.1 1.5 0.3 0.4 0.9 0.5 1.4 0.2 1.1-1 2.4-1.4 4.8-1.5 4.9-0.3 8 3.7 8.9 5 0 0 0 0 0 0v0l0.1 0.2c0 0 0 0.1 0.1 0.1 0 0 0 0 0 0l0.9 1.3 0.6-1.4c0.2-0.4 0.2-0.8-0.1-1.3z"></path>
<path d="M6.7 13.2c0.3-0.4 1.1-1.8 1.8-2.3 0.5-0.3 0.6-0.9 0.3-1.4-0.4-0.4-1-0.5-1.4-0.2-1 0.7-2 2.2-2.3 2.7 0 0 0 0 0 0v0c-0.2 0.4-0.2 0.9 0 1.3l0.7 1.3 0.9-1.4z"></path>
<path d="M6.7 9.3l1.3-1.4c0 0 0 0 0 0 1.1-1 4-3.2 7.9-3 3.7 0.2 6.2 2.3 7.2 3.3v0l1.4 1.4 0.3-1.5c0.1-0.3 0-0.5 0-0.8 0-0.2-0.1-0.4-0.2-0.5 0 0 0 0 0 0s0 0 0 0v0c-1.4-1.4-4.3-3.6-8.5-3.8-4.8-0.2-8.1 2.4-9.4 3.6 0 0 0 0 0 0v0c-0.4 0.3-0.5 0.8-0.4 1.2l0.4 1.5z"></path>
</svg>
