<!-- Generated by IcoMoon.io -->
<svg version="1.1" xmlns="http://www.w3.org/2000/svg" width="32" height="32" viewBox="0 0 32 32">
<path d="M15.181 4.592l-0.928-0.957c-1.021-1.056-2.705-1.093-3.748-0.083l-0.995 0.963c-1.031-0.917-2.603-0.919-3.597 0.045l-1.024 0.992c-0.995 0.964-1.045 2.535-0.16 3.595l-0.995 0.963c-1.043 1.009-1.060 2.693-0.037 3.749l0.928 0.957c1.021 1.055 2.705 1.092 3.748 0.083l6.771-6.557c1.041-1.011 1.059-2.695 0.037-3.749zM6.164 6.868l1.024-0.992c0.264-0.255 0.679-0.267 0.992-0.072l-2.12 2.052c-0.184-0.319-0.159-0.732 0.104-0.988zM7.097 13.581c-0.312 0.301-0.843 0.283-1.156-0.040l-0.928-0.959c-0.313-0.323-0.315-0.855-0.004-1.157l6.771-6.557c0.312-0.301 0.843-0.283 1.156 0.040l0.928 0.959c0.313 0.323 0.315 0.855 0.004 1.157l-6.771 6.557z"></path>
<path d="M16.819 27.408l0.928 0.957c1.021 1.055 2.705 1.092 3.748 0.083l0.995-0.963c1.031 0.917 2.603 0.919 3.597-0.045l1.024-0.992c0.995-0.964 1.045-2.535 0.16-3.595l0.995-0.963c1.043-1.009 1.060-2.693 0.037-3.749l-0.928-0.957c-1.021-1.055-2.705-1.092-3.748-0.083l-6.771 6.557c-1.041 1.011-1.059 2.695-0.037 3.749zM25.836 25.132l-1.024 0.992c-0.264 0.256-0.679 0.268-0.991 0.073l2.12-2.052c0.183 0.317 0.157 0.731-0.105 0.987zM24.903 18.419c0.312-0.301 0.843-0.283 1.156 0.040l0.928 0.957c0.313 0.323 0.315 0.855 0.004 1.156l-6.771 6.557c-0.312 0.301-0.843 0.283-1.156-0.040l-0.928-0.956c-0.313-0.323-0.315-0.855-0.004-1.157l6.771-6.557z"></path>
<path d="M11.35 10.181l1.317-1.275 10.122 10.451-1.317 1.275-10.122-10.451z"></path>
<path d="M9.016 12.442l1.317-1.275 10.122 10.451-1.317 1.275-10.122-10.451z"></path>
</svg>
