<!-- Generated by IcoMoon.io -->
<svg version="1.1" xmlns="http://www.w3.org/2000/svg" width="32" height="32" viewBox="0 0 32 32">
<path d="M20.508 10.015c-5.515-2.643-3.524-7.351-3.437-7.547 0.148-0.423 0.301-0.695 0.496-1.152-0.068-0.033-1.059-0.083-1.363-0.052-2.677 0.268-4.696 1.237-6.003 2.883-2.233 2.812-1.719 6.788-1.5 8.485 0.025 0.189 0.045 0.351 0.057 0.472 0.127 1.264 0.447 2.412 0.728 3.424 0.181 0.652 0.339 1.215 0.401 1.664 0.067 0.48-0.009 0.6-0.013 0.605-0.011 0.016-0.111 0.083-0.393 0.111-0.323 0.032-0.571-0.049-0.805-0.264-0.916-0.841-1.225-3.356-1.205-4.744 0.004-0.245 0.040-0.721 0.055-0.841-0.331-0.055-0.752-0.051-0.996-0.027-2.215 0.221-3.508 4.009-3.184 7.249 0.152 1.523 0.608 2.984 1.353 4.343 0.721 1.313 1.677 2.468 2.843 3.432 2.427 2.008 5.456 2.944 8.529 2.637 3.085-0.308 5.869-1.809 7.841-4.225 1.965-2.409 2.879-5.429 2.572-8.501-0.392-3.921-3.789-6.904-5.976-7.952zM15.88 28.772c-5.257 0.525-10.141-3.471-10.668-8.728-0.128-1.279 0.043-2.651 0.468-3.765 0.1-0.26 0.205-0.485 0.313-0.677 0.152 1.383 0.56 3.248 1.64 4.241 0.583 0.536 1.309 0.777 2.103 0.697 0.741-0.075 1.283-0.355 1.611-0.835 0.613-0.897 0.277-2.105-0.149-3.635-0.259-0.929-0.552-1.983-0.663-3.081-0.013-0.145-0.036-0.316-0.061-0.515-0.205-1.581-0.631-4.872 1.121-7.077 0.787-0.991 1.956-1.663 3.485-2.005-0.117 0.599-0.193 1.351-0.117 2.176 0.169 1.82 1.124 4.349 4.717 6.071 1.739 0.833 4.613 3.324 4.927 6.465 0.536 5.348-3.38 10.133-8.727 10.668z"></path>
</svg>
