<!-- Generated by IcoMoon.io -->
<svg version="1.1" xmlns="http://www.w3.org/2000/svg" width="32" height="32" viewBox="0 0 32 32">
<path d="M26.268 6.833h-10.553l-2.025-2.828c-0.337-0.524-0.917-0.839-1.54-0.839h-6.417c-2.427 0-4.399 2.011-4.399 4.481v16.705c0 2.471 1.972 4.479 4.399 4.479h20.535c2.427 0 4.399-2.009 4.399-4.479v-13.036c0.001-2.471-1.971-4.484-4.397-4.484zM28.833 24.355c0 1.461-1.148 2.645-2.565 2.645h-20.536c-1.417 0-2.565-1.185-2.565-2.645v-16.707c0-1.464 1.148-2.648 2.565-2.648h6.416l2.567 3.667h11.552c1.417 0 2.565 1.185 2.565 2.651v13.037z"></path>
</svg>
