<!-- Generated by IcoMoon.io -->
<svg version="1.1" xmlns="http://www.w3.org/2000/svg" width="32" height="32" viewBox="0 0 32 32">
<path d="M30.643 12.211c-0.029-0.248-0.119-0.451-0.248-0.632h-0.001c-0.097-0.131-0.185-0.252-0.34-0.363l-13.993-9.883-14.123 9.972c-0.129 0.091-0.204 0.199-0.287 0.307-0.156 0.199-0.261 0.415-0.293 0.688l-0.024 0.425 0.024 0.413c0.029 0.248 0.119 0.451 0.248 0.635l0.001-0.001c0.097 0.119 0.185 0.251 0.34 0.361l3.055 2.155v6.133h0.076c0.080 0.337 0.235 0.619 0.56 0.851l10.363 7.395 5.5-3.832v1.773c0.001 0.537 0.171 0.892 0.612 1.201l1.221 0.857v-5.103l3.031-2.113c0.437-0.311 0.636-0.656 0.636-1.185v-6.067l3.063-2.155c0.129-0.099 0.204-0.199 0.287-0.307 0.156-0.199 0.261-0.421 0.295-0.688l0.023-0.421-0.024-0.417zM16.612 28.003c-0.205 0.143-0.409 0.209-0.612 0.209s-0.407-0.067-0.612-0.209l-8.555-6.104v-4.316l9.107 6.433 5.56-3.927v4.509l-4.888 3.404zM25.167 22.047l-1.833 1.279v-4.537l1.833-1.295v4.553zM22.703 17c-0.003-0.001-0.003-0.004-0.005-0.005l-6.697-4.653v1.491c0 0.539 0.197 0.883 0.633 1.193l4.476 3.101-5.167 3.655-12.828-9.068 12.944-9.145 12.828 9.061-6.184 4.371z"></path>
</svg>
