<!-- Generated by IcoMoon.io -->
<svg version="1.1" xmlns="http://www.w3.org/2000/svg" width="32" height="32" viewBox="0 0 32 32">
<path d="M16.529 16.341c-0.661 0.109-1.543 0.164-2.611 0.164-0.252 0-0.536-0.016-0.823-0.024-0.439-0.085-0.767-0.289-1.003-0.711l-0.707-1.271c0.315 0.016 1.704 0.145 2.547 0.145 0.948 0 1.724-0.052 2.305-0.14 0.172-0.028 0.304-0.079 0.404-0.148l-4.309-1.56c-0.361-0.112-0.769-0.169-1.201-0.169-1.532 0-2.964 0.7-3.121 0.773l-4.012 2.419c-0.44 0.237-0.849 0.265-1.32 0.057l-1.344-0.601c0 0-0.013-0.024 0.025-0.047l5.72-3.461c0.195-0.096 1.971-1.011 4.067-1.011 0.613 0 1.192 0.083 1.721 0.248l5.276 1.588c0.363 0.112 0.621 0.429 0.661 0.817 0.093 1.016-0.431 2.641-2.276 2.931zM30.549 11.281c-0.384-0.695-1.275-1.505-2.531-1.505-0.449 0-0.921 0.101-1.403 0.317-0.949 0.423-3.464 1.617-5.076 2.391-0.367 0.243-0.917 0.683-0.984 1.143l-0.201 1.424c0.084-0.021 0.169-0.024 0.256-0.063 0 0 5.285-2.539 6.761-3.195 0.063-0.028 0.131-0.055 0.212-0.055 0.087 0 0.175 0.039 0.275 0.195l-9.111 6.677c-0.512 0.375-1.153 0.588-1.803 0.588-0.155 0-0.309-0.016-0.46-0.031l-8.867-1.404c-0.221 0-0.436 0.071-0.608 0.208l-1.697 1.513c-0.412 0.353-0.569 0.755-0.513 1.296 0 0 0.172 1.487 0.224 1.44l2.925-2.531 8.24 1.317c0.256 0.036 0.513 0.060 0.771 0.060 1.032 0 2.061-0.339 2.896-0.945l10.44-7.643c0.371-0.285 0.479-0.785 0.253-1.199z"></path>
</svg>
