<!-- Generated by IcoMoon.io -->
<svg version="1.1" xmlns="http://www.w3.org/2000/svg" width="32" height="32" viewBox="0 0 32 32">
<path d="M30.667 12.447c0-0.537-0.197-0.883-0.636-1.195l-14.031-9.919-14.031 9.861c-0.439 0.312-0.636 0.657-0.636 1.195v1.491l0.917-0.64v14.448c0 1.639 1.371 2.979 3.053 2.979h5.196c1.013 0 1.833-0.832 1.833-1.861v-7.305h7.333v7.305c0 1.029 0.82 1.861 1.833 1.861h5.196c1.681 0 3.053-1.34 3.053-2.979v-14.401l0.917 0.651v-1.491zM27.917 27.688c0 0.621-0.547 1.145-1.22 1.145h-5.196v-8.26c0-0.516-0.412-0.907-0.917-0.907h-9.168c-0.505 0-0.917 0.391-0.917 0.907v8.26h-5.195c-0.673 0-1.221-0.496-1.221-1.117v-15.773l11.305-7.944c0.205-0.143 0.409-0.212 0.612-0.212s0.407 0.069 0.612 0.212l11.305 7.993v15.696z"></path>
</svg>
