<!-- Generated by IcoMoon.io -->
<svg version="1.1" xmlns="http://www.w3.org/2000/svg" width="119" height="32" viewBox="0 0 119 32">
<path d="M88.551 13.509c-0.865-1.015-2.112-1.521-3.737-1.521-0.696 0-1.379 0.132-2.044 0.394s-1.255 0.657-1.764 1.183c-0.513 0.526-0.921 1.189-1.232 1.985-0.309 0.799-0.463 1.729-0.463 2.797 0 0.913 0.118 1.752 0.359 2.517 0.239 0.766 0.609 1.429 1.104 1.985 0.495 0.559 1.126 0.996 1.892 1.311 0.766 0.321 1.673 0.477 2.725 0.477 0.84 0 1.587-0.076 2.244-0.233 0.657-0.154 1.12-0.3 1.381-0.438-0.28-0.916-1.117-1.449-2.061-1.314-0.516 0.070-0.811 0.082-1.331 0.082-1.348 0-2.336-0.326-2.97-0.975-0.634-0.654-0.999-1.603-1.093-2.855h8.269c0.014-0.127 0.023-0.26 0.023-0.407v-0.361c0-2.071-0.436-3.615-1.302-4.629zM81.611 17.164c0.045-0.417 0.141-0.828 0.289-1.229 0.147-0.402 0.354-0.758 0.618-1.068 0.262-0.31 0.584-0.561 0.96-0.755 0.379-0.193 0.817-0.287 1.311-0.287 0.884 0 1.578 0.312 2.080 0.939 0.5 0.628 0.748 1.427 0.733 2.402h-5.992zM76.062 13.509c-0.865-1.015-2.112-1.521-3.737-1.521-0.696 0-1.379 0.132-2.044 0.394s-1.255 0.657-1.764 1.183c-0.513 0.526-0.921 1.189-1.232 1.985-0.309 0.799-0.463 1.729-0.463 2.797 0 0.913 0.118 1.752 0.359 2.517 0.239 0.766 0.609 1.429 1.104 1.985 0.495 0.559 1.126 0.996 1.892 1.311 0.766 0.321 1.673 0.477 2.725 0.477 0.84 0 1.587-0.076 2.244-0.233 0.657-0.154 1.12-0.3 1.381-0.438-0.28-0.916-1.117-1.449-2.061-1.314-0.516 0.070-0.811 0.082-1.331 0.082-1.348 0-2.336-0.326-2.97-0.975-0.634-0.654-0.999-1.603-1.093-2.855h8.269c0.014-0.127 0.023-0.26 0.023-0.407v-0.361c0.001-2.071-0.434-3.615-1.302-4.629zM69.122 17.164c0.045-0.417 0.141-0.828 0.289-1.229 0.147-0.402 0.354-0.758 0.618-1.068 0.262-0.31 0.584-0.561 0.96-0.755 0.379-0.193 0.817-0.287 1.311-0.287 0.884 0 1.578 0.312 2.080 0.939 0.5 0.628 0.748 1.427 0.733 2.402h-5.992zM54.116 14.485v9.902c1.19 0 2.156-0.966 2.156-2.156v-9.902c-1.19 0-2.156 0.966-2.156 2.156zM53.798 8.726c0 0.769 0.624 1.393 1.396 1.393 0.769 0 1.393-0.624 1.393-1.393 0-0.772-0.624-1.396-1.393-1.396-0.772 0.001-1.396 0.624-1.396 1.396zM102.016 8.623c-0.986 0-1.785 0.802-1.785 1.784v2.182c-0.183-0.085-0.388-0.174-0.618-0.264-0.581-0.221-1.264-0.336-2.033-0.336-0.857 0-1.626 0.157-2.288 0.463-0.671 0.309-1.246 0.742-1.708 1.291-0.454 0.542-0.808 1.199-1.045 1.951-0.233 0.736-0.351 1.879-0.351 2.757 0 0.94 0.141 1.8 0.418 2.544 0.286 0.763 0.689 1.42 1.196 1.951 0.51 0.536 1.134 0.952 1.847 1.235 0.707 0.28 1.502 0.424 2.356 0.424 0.999 0 1.841-0.068 2.51-0.203 0.654-0.129 1.202-0.272 1.632-0.418l0.27-0.092v-15.268h-0.401zM100.261 22.256c-0.053 0.012-0.106 0.023-0.16 0.033-0.371 0.073-1.025 0.16-2.094 0.16-0.581 0-1.107-0.089-1.558-0.272-0.427-0.168-0.792-0.41-1.084-0.719-0.309-0.321-0.553-0.727-0.736-1.213-0.188-0.503-0.283-1.108-0.283-1.794 0-0.663 0.085-1.586 0.25-2.106 0.151-0.483 0.365-0.888 0.64-1.213 0.259-0.309 0.569-0.545 0.957-0.722 0.385-0.178 0.848-0.267 1.387-0.267 0.495 0 0.929 0.068 1.261 0.194 0.174 0.068 0.336 0.141 0.48 0.206l0.94 0.438v7.275zM63.457 14.187h-2.76v-0.368c0-0.604 0.042-1.39 0.138-1.783 0.092-0.395 0.233-0.704 0.415-0.929 0.188-0.224 0.421-0.385 0.699-0.477 0.275-0.092 0.604-0.138 0.975-0.138h0.904c1.049 0 1.9-0.851 1.9-1.9h-2.993c-0.816 0-1.496 0.104-2.030 0.312-0.533 0.21-0.963 0.522-1.288 0.94-0.326 0.421-0.553 0.934-0.683 1.547-0.135 0.61-0.194 1.311-0.194 2.117v10.873c0.395 0 0.76-0.112 1.078-0.298 0.643-0.374 1.078-1.061 1.078-1.859v-6.23h4.568c0-0.999-0.809-1.808-1.808-1.808zM22.511 4.5c-3.175 0-5.75 2.573-5.75 5.75v17.25h17.25c3.175 0 5.75-2.575 5.75-5.75v-17.25h-17.25zM26.243 21.961c-0.595 0.851-1.32 1.226-2.356 1.226h-2.813l9.206-13.15c0.595-0.848 1.32-1.225 2.356-1.225h2.813l-9.206 13.149z"></path>
</svg>
