<!-- Generated by IcoMoon.io -->
<svg version="1.1" xmlns="http://www.w3.org/2000/svg" width="32" height="32" viewBox="0 0 32 32">
<path d="M26.425 6.716c0-0.749-0.472-1.417-1.189-1.699l-8.531-3.301c-0.229-0.087-0.468-0.135-0.707-0.135s-0.477 0.047-0.707 0.135l-0.728 0.281v-0.008l-7.8 3.027c-0.716 0.281-1.188 0.951-1.188 1.7l-0.001 12.156v0.307l0.019 0.013c0.132 2.493 1.783 5.253 4.189 6.812v0.005l6.241 4.409 6.151-4.345v-0.031c0.041-0.027 0.075-0.063 0.116-0.091 0.38-0.251 0.736-0.535 1.075-0.84 0.107-0.096 0.201-0.203 0.304-0.305 0.268-0.264 0.52-0.539 0.755-0.831 0.073-0.092 0.144-0.184 0.213-0.279 0.273-0.365 0.519-0.741 0.735-1.132 0.012-0.023 0.027-0.044 0.039-0.067 0.637-1.177 1.015-2.439 1.015-3.627 0-0.051-0.011-0.099-0.012-0.149l0.012-0.008v-11.999zM24.531 19.624c-0.284 1.771-1.563 3.748-3.34 4.876v0.015l-4.552 3.216c-0.204 0.144-0.409 0.219-0.616 0.219-0.205 0-0.412-0.075-0.616-0.219l-0.743-0.524c0.011-0.001 0.021-0.001 0.031-0.001l-3.924-2.752c-1.748-1.131-3.012-3.068-3.295-4.821h-0.005v-0.028c0-0.004 0-0.008-0.001-0.012v-1.295c0-0.003 0-0.007 0.001-0.009v-11.571l4.468-1.731c0 0 0 0 0.001 0l0.091-0.035 0.209-0.083 3.76-1.456 4.061 1.572c0 0 0 0 0.001 0l4.468 1.729v12.909z"></path>
<path d="M14.331 17.205l-1.896-2.101c-0.36-0.332-0.743-0.457-1.239-0.371l-1.423 0.252c0 0.001 0.001 0.004 0.001 0.004l3.897 4.16c0.172 0.177 0.433 0.34 0.652 0.276 0.241 0 0.473-0.097 0.644-0.269l7.259-7.347-1.412-0.249c-0.527-0.095-0.928 0.032-1.307 0.412l-5.177 5.233z"></path>
</svg>
