<!-- Generated by IcoMoon.io -->
<svg version="1.1" xmlns="http://www.w3.org/2000/svg" width="203" height="32" viewBox="0 0 203 32">
<path d="M40.060 5.458c-2.899 0-5.25 2.349-5.25 5.25v15.75h15.75c2.899 0 5.25-2.351 5.25-5.25v-15.75h-15.75zM43.467 21.401c-0.543 0.777-1.205 1.121-2.151 1.121h-2.569l8.407-12.008c0.543-0.776 1.205-1.12 2.151-1.12h2.567l-8.405 12.007zM164.658 23.914c-0.957 0-1.789-0.143-2.479-0.428-0.677-0.281-1.243-0.675-1.687-1.169-0.441-0.496-0.772-1.095-0.984-1.777-0.218-0.698-0.331-1.475-0.331-2.307 0-0.151 0.005-0.301 0.016-0.448l0.003-0.072h-0.018c0.033-0.675 0.138-1.298 0.312-1.853 0.213-0.681 0.546-1.28 0.984-1.777 0.444-0.496 1.011-0.889 1.689-1.169 0.684-0.285 1.517-0.428 2.477-0.428 0.777 0 1.469 0.072 2.063 0.214 0.42 0.097 0.753 0.192 0.992 0.282-0.251 0.495-0.74 0.801-1.294 0.801-0.075 0-0.151-0.007-0.231-0.018-0.492-0.068-0.79-0.080-1.307-0.080-1.361 0-2.383 0.344-3.045 1.018-0.618 0.634-0.99 1.546-1.105 2.712l-0.024 1.109 0.018 0.26c0.095 1.26 0.474 2.238 1.125 2.909 0.661 0.676 1.687 1.017 3.048 1.017 0.52 0 0.815-0.011 1.307-0.080 0.080-0.011 0.156-0.014 0.231-0.014 0.554 0 1.043 0.305 1.294 0.799-0.244 0.089-0.576 0.185-0.992 0.282-0.593 0.147-1.288 0.219-2.062 0.219zM152.149 23.658c-0.887-1.929-1.364-3.091-2.156-5.111-0.866-2.221-1.299-3.531-1.91-5.784h0.244c0.833 0 1.469 0.48 1.692 1.285 0.067 0.231 0.113 0.387 0.169 0.574l0.059 0.205 0.008 0.033c0.293 0.982 0.459 1.504 0.78 2.443 0.304 0.903 0.484 1.406 0.828 2.338 0.312 0.836 0.482 1.267 0.805 2.020l0.268 0.64 0.272-0.639c0.336-0.798 0.508-1.248 0.797-2.019 0.346-0.933 0.528-1.454 0.828-2.339 0.31-0.911 0.476-1.435 0.777-2.439l0.043-0.147c0.070-0.235 0.121-0.402 0.192-0.669 0.228-0.803 0.858-1.284 1.694-1.284h0.244c-0.616 2.276-1.049 3.586-1.91 5.784-0.767 1.954-1.259 3.16-2.156 5.111h-1.567zM93.487 12.605c-0.931 0-1.643 0.543-1.894 1.438-0.085 0.304-0.136 0.471-0.227 0.776-0.272 0.912-0.433 1.425-0.74 2.327-0.298 0.877-0.469 1.366-0.793 2.233-0.285 0.759-0.446 1.181-0.761 1.928-0.318-0.745-0.482-1.169-0.764-1.928-0.323-0.866-0.497-1.356-0.794-2.233-0.306-0.902-0.47-1.415-0.742-2.327-0.089-0.305-0.138-0.471-0.223-0.777-0.253-0.895-0.966-1.438-1.894-1.438h-0.602c0.629 2.353 1.049 3.661 1.939 5.93 0.787 2.004 1.243 3.125 2.149 5.081h1.864c0.903-1.956 1.364-3.076 2.149-5.081 0.89-2.269 1.307-3.577 1.936-5.93h-0.601zM75.704 12.548c-0.746 0.129-1.348 0.248-1.799 0.361v10.705h1.971v-9.308c0.072-0.013 0.188-0.033 0.349-0.062 0.164-0.028 0.349-0.054 0.551-0.075 0.205-0.024 0.423-0.041 0.648-0.054 0.226-0.016 0.444-0.021 0.656-0.021 0.522 0 0.961 0.067 1.315 0.2 0.352 0.136 0.635 0.352 0.848 0.646 0.21 0.298 0.361 0.686 0.457 1.167 0.089 0.482 0.136 1.062 0.136 1.738v5.768h1.974v-6.19c0-0.748-0.075-1.433-0.213-2.055-0.14-0.623-0.387-1.156-0.734-1.6-0.347-0.449-0.807-0.793-1.39-1.038-0.576-0.248-1.307-0.374-2.181-0.374-0.975 0-1.839 0.067-2.59 0.193zM130.931 12.578c-0.692 0.151-1.272 0.307-1.735 0.479v10.556h1.969v-9.264c0.113-0.028 0.352-0.081 0.71-0.159 0.361-0.077 0.728-0.118 1.097-0.118 0.172 0 0.266 0 0.438 0.008 0.971 0.041 1.743-0.484 2.058-1.404-0.084-0.028-0.215-0.062-0.392-0.097-0.175-0.033-0.369-0.070-0.581-0.105s-0.428-0.062-0.646-0.087c-0.22-0.018-0.415-0.030-0.584-0.030-0.862-0.003-1.642 0.072-2.334 0.22zM103.345 13.711c-0.793-0.925-1.931-1.387-3.412-1.387-0.635 0-1.259 0.121-1.866 0.358s-1.146 0.6-1.61 1.082c-0.469 0.479-0.841 1.084-1.125 1.813-0.282 0.728-0.423 1.579-0.423 2.553 0 0.833 0.108 1.6 0.328 2.302 0.218 0.7 0.556 1.302 1.008 1.813 0.451 0.508 1.028 0.907 1.727 1.197s1.529 0.434 2.49 0.434c0.766 0 1.446-0.070 2.046-0.21 0.6-0.143 1.022-0.277 1.261-0.403-0.253-0.836-1.017-1.323-1.882-1.2-0.469 0.067-0.74 0.075-1.213 0.075-1.231 0-2.133-0.298-2.712-0.89-0.579-0.595-0.912-1.463-0.998-2.607h7.547c0.013-0.116 0.021-0.236 0.021-0.371v-0.331c0-1.891-0.395-3.302-1.188-4.228zM97.008 17.049c0.041-0.379 0.129-0.756 0.264-1.122 0.134-0.366 0.323-0.692 0.564-0.974 0.239-0.285 0.533-0.513 0.877-0.689 0.347-0.177 0.746-0.264 1.197-0.264 0.807 0 1.439 0.285 1.899 0.858 0.457 0.572 0.683 1.302 0.669 2.192h-5.471zM107.363 13.181c-0.721 0.572-1.082 1.348-1.082 2.323 0 0.495 0.084 0.91 0.256 1.251 0.169 0.339 0.395 0.629 0.677 0.869 0.285 0.241 0.618 0.449 1.008 0.626s0.794 0.349 1.221 0.518c0.877 0.354 1.504 0.672 1.885 0.957 0.382 0.282 0.575 0.664 0.575 1.143 0 0.466-0.194 0.805-0.584 1.017-0.387 0.21-0.99 0.318-1.797 0.318-0.546 0-0.856-0.008-1.393-0.108-0.895-0.161-1.713 0.31-2.015 1.169 0.197 0.081 0.575 0.207 1.125 0.369 0.546 0.16 1.313 0.241 2.286 0.241 1.399 0 2.474-0.259 3.233-0.785 0.753-0.52 1.133-1.291 1.133-2.31 0-0.522-0.077-0.963-0.234-1.326-0.154-0.361-0.377-0.667-0.667-0.92-0.293-0.256-0.638-0.479-1.051-0.669-0.408-0.19-0.874-0.385-1.397-0.584-0.398-0.14-0.736-0.277-1.017-0.403s-0.52-0.264-0.713-0.412c-0.19-0.148-0.331-0.312-0.423-0.497s-0.138-0.398-0.138-0.635c0-0.469 0.205-0.81 0.616-1.028 0.409-0.22 0.898-0.331 1.449-0.331 0.374 0 0.584 0.008 0.954 0.054 0.92 0.11 1.697-0.358 2.030-1.221-0.115-0.041-0.272-0.089-0.479-0.146-0.202-0.056-0.441-0.11-0.71-0.159-0.266-0.051-0.559-0.095-0.869-0.129-0.312-0.035-0.623-0.050-0.933-0.050-1.246 0-2.227 0.285-2.948 0.856zM115.907 11.166v7.959c0 0.736 0.056 1.377 0.177 1.933 0.118 0.559 0.326 1.028 0.626 1.41 0.295 0.382 0.686 0.669 1.175 0.858 0.49 0.192 1.108 0.287 1.856 0.287h2.73c0-0.958-0.777-1.735-1.735-1.735h-0.826c-0.339 0-0.638-0.041-0.89-0.129-0.253-0.081-0.466-0.228-0.638-0.436-0.167-0.202-0.295-0.487-0.379-0.847-0.084-0.361-0.126-0.812-0.126-1.364v-4.847h2.52c0.915 0 1.651-0.738 1.651-1.654h-4.171v-3.406c-1.089 0-1.97 0.882-1.97 1.969zM68.936 14.573v9.042c1.087 0 1.97-0.882 1.97-1.969v-9.042c-1.088 0-1.97 0.881-1.97 1.969zM68.646 9.315c0 0.702 0.57 1.272 1.273 1.272s1.274-0.57 1.274-1.272c0-0.705-0.572-1.274-1.274-1.274-0.704 0-1.273 0.57-1.273 1.274zM124.224 14.573v9.042c1.089 0 1.969-0.882 1.969-1.969v-9.042c-1.087 0-1.969 0.881-1.969 1.969zM123.938 9.315c0 0.702 0.57 1.272 1.272 1.272 0.705 0 1.274-0.57 1.274-1.272 0-0.705-0.57-1.274-1.274-1.274-0.704 0-1.272 0.57-1.272 1.274zM144.064 23.568c0.302-0.049 0.541-0.087 0.71-0.116v-6.891c0-0.623-0.072-1.189-0.213-1.708-0.14-0.516-0.377-0.961-0.71-1.336-0.331-0.374-0.769-0.664-1.313-0.869-0.546-0.205-1.213-0.305-2.004-0.305-0.692 0-1.336 0.051-1.931 0.156-0.592 0.105-1.017 0.215-1.272 0.328 0.215 0.847 0.969 1.366 1.838 1.269 0.462-0.051 0.723-0.062 1.189-0.062 0.508 0 0.925 0.077 1.246 0.226 0.319 0.15 0.567 0.347 0.752 0.592 0.185 0.248 0.31 0.53 0.382 0.848s0.105 0.641 0.105 0.966v0.549c-0.056-0.013-0.154-0.033-0.298-0.064-0.14-0.026-0.307-0.059-0.497-0.092-0.192-0.038-0.392-0.064-0.602-0.087-0.213-0.021-0.42-0.030-0.616-0.030-0.623 0-1.218 0.064-1.781 0.19-0.567 0.129-1.062 0.326-1.487 0.595-0.423 0.269-0.759 0.621-1.003 1.059-0.251 0.438-0.371 0.961-0.371 1.568 0 0.638 0.105 1.181 0.315 1.633 0.213 0.454 0.511 0.818 0.893 1.092 0.382 0.277 0.833 0.476 1.356 0.605 0.524 0.126 1.096 0.189 1.718 0.189 0.438 0 0.879-0.018 1.323-0.054 0.446-0.033 0.861-0.072 1.243-0.116 0.381-0.041 0.723-0.087 1.029-0.138zM138.457 19.413c0.182-0.234 0.412-0.417 0.686-0.551 0.277-0.137 0.579-0.221 0.91-0.264 0.335-0.041 0.65-0.064 0.948-0.064 0.452 0 0.839 0.026 1.156 0.075 0.315 0.049 0.546 0.11 0.686 0.18v3.287c-0.242 0.056-0.541 0.097-0.9 0.118-0.361 0.021-0.774 0.030-1.24 0.030-0.78 0-1.393-0.137-1.843-0.412-0.457-0.274-0.68-0.767-0.68-1.474 0-0.383 0.093-0.69 0.277-0.924z"></path>
</svg>
