<!-- Generated by IcoMoon.io -->
<svg version="1.1" xmlns="http://www.w3.org/2000/svg" width="205" height="32" viewBox="0 0 205 32">
<path d="M172.532 15.421c-0.245-0.697-0.586-1.293-1.025-1.787-0.439-0.493-0.955-0.876-1.555-1.148s-1.26-0.407-1.984-0.407-1.386 0.136-1.986 0.407c-0.597 0.272-1.116 0.654-1.555 1.148s-0.781 1.090-1.022 1.787c-0.245 0.696-0.367 1.469-0.367 2.317s0.123 1.622 0.367 2.317c0.243 0.697 0.584 1.289 1.022 1.777 0.439 0.487 0.958 0.864 1.555 1.137 0.599 0.27 1.263 0.407 1.986 0.407s1.385-0.137 1.984-0.407c0.599-0.273 1.116-0.65 1.555-1.137 0.439-0.488 0.781-1.080 1.025-1.777 0.243-0.696 0.364-1.469 0.364-2.317s-0.123-1.622-0.364-2.317zM170.515 20.954c-0.627 0.794-1.477 1.191-2.547 1.191-1.073 0-1.926-0.397-2.55-1.191-0.627-0.792-0.939-1.864-0.939-3.216s0.311-2.426 0.939-3.229c0.625-0.8 1.477-1.201 2.55-1.201 1.071 0 1.92 0.401 2.547 1.201 0.627 0.802 0.941 1.877 0.941 3.229s-0.315 2.423-0.941 3.216zM153.351 15.399c-0.26-0.697-0.62-1.289-1.086-1.776-0.466-0.488-1.025-0.859-1.672-1.116s-1.367-0.388-2.162-0.388c-0.958 0-1.755 0.064-2.381 0.189-0.625 0.126-1.14 0.257-1.546 0.398v14.287c0.75 0 1.359-0.61 1.359-1.356v-3.133c0.238 0.182 0.618 0.372 1.137 0.573 0.522 0.201 1.14 0.303 1.849 0.303 0.781 0 1.474-0.137 2.078-0.418 0.607-0.278 1.119-0.666 1.535-1.161 0.418-0.495 0.734-1.086 0.952-1.774 0.217-0.689 0.324-1.445 0.324-2.267-0.001-0.88-0.129-1.666-0.386-2.362zM152.106 19.463c-0.126 0.535-0.326 1.003-0.604 1.398-0.281 0.397-0.645 0.71-1.097 0.94-0.454 0.23-1.014 0.347-1.683 0.347-0.321 0-0.627-0.032-0.918-0.097-0.296-0.061-0.567-0.14-0.816-0.24-0.249-0.095-0.468-0.2-0.658-0.312-0.189-0.111-0.345-0.215-0.468-0.313v-7.542c0.209-0.071 0.517-0.136 0.928-0.197 0.41-0.062 0.952-0.094 1.619-0.094 1.17 0 2.111 0.379 2.82 1.137 0.711 0.76 1.065 1.849 1.065 3.27 0.001 0.597-0.062 1.167-0.188 1.702zM162.171 12.418c-0.227 0.632-0.778 0.984-1.445 0.928-0.249-0.021-0.533-0.030-0.851-0.030-0.584 0-1.056 0.043-1.41 0.126-0.354 0.085-0.589 0.154-0.699 0.209v9.463h-1.359v-10.297c0.35-0.153 0.829-0.311 1.442-0.471 0.613-0.159 1.356-0.24 2.234-0.24 0.447 0 0.867 0.035 1.265 0.105 0.394 0.072 0.67 0.14 0.822 0.209zM37.334 5.044c-2.884 0-5.222 2.337-5.222 5.222v15.667h15.667c2.884 0 5.222-2.338 5.222-5.222v-15.667h-15.667zM40.723 20.903c-0.541 0.773-1.198 1.115-2.14 1.115h-2.555l8.361-11.943c0.541-0.772 1.198-1.114 2.14-1.114h2.555l-8.361 11.942zM90.448 12.114c-0.925 0-1.635 0.54-1.884 1.431-0.084 0.303-0.136 0.468-0.224 0.773-0.27 0.907-0.431 1.418-0.736 2.315-0.296 0.872-0.466 1.359-0.788 2.221-0.283 0.755-0.444 1.176-0.757 1.918-0.316-0.741-0.479-1.163-0.76-1.918-0.321-0.862-0.495-1.349-0.79-2.221-0.303-0.898-0.466-1.407-0.736-2.315-0.089-0.303-0.137-0.468-0.222-0.773-0.252-0.89-0.961-1.431-1.884-1.431h-0.599c0.623 2.341 1.042 3.641 1.927 5.898 0.783 1.994 1.237 3.108 2.137 5.055h1.854c0.898-1.945 1.356-3.061 2.137-5.055 0.885-2.257 1.3-3.558 1.926-5.898h-0.599zM72.761 12.058c-0.741 0.128-1.341 0.247-1.79 0.359v10.649h1.961v-9.259c0.072-0.013 0.187-0.033 0.347-0.061 0.163-0.027 0.347-0.054 0.548-0.075 0.204-0.024 0.42-0.040 0.645-0.054 0.224-0.016 0.441-0.021 0.653-0.021 0.519 0 0.955 0.067 1.308 0.198 0.349 0.137 0.63 0.351 0.843 0.645 0.209 0.296 0.359 0.683 0.454 1.161 0.089 0.479 0.136 1.056 0.136 1.729v5.738h1.964v-6.16c0-0.744-0.075-1.426-0.212-2.045-0.14-0.62-0.385-1.15-0.73-1.592-0.345-0.447-0.803-0.788-1.382-1.033-0.574-0.247-1.302-0.372-2.171-0.372-0.969 0-1.828 0.067-2.574 0.191zM127.695 12.089c-0.688 0.15-1.265 0.305-1.726 0.477v10.501h1.958v-9.216c0.112-0.027 0.35-0.081 0.706-0.158 0.359-0.077 0.725-0.117 1.091-0.117 0.171 0 0.265 0 0.436 0.008 0.966 0.040 1.734-0.482 2.047-1.397-0.083-0.027-0.214-0.061-0.39-0.097-0.174-0.033-0.367-0.069-0.578-0.105s-0.426-0.061-0.642-0.086c-0.219-0.018-0.412-0.030-0.581-0.030-0.858-0.001-1.633 0.073-2.321 0.221zM100.256 13.216c-0.788-0.92-1.92-1.38-3.395-1.38-0.632 0-1.252 0.12-1.857 0.356s-1.14 0.597-1.602 1.076c-0.466 0.477-0.837 1.078-1.119 1.803-0.281 0.725-0.42 1.571-0.42 2.539 0 0.829 0.107 1.592 0.326 2.289 0.217 0.697 0.554 1.296 1.003 1.804 0.449 0.505 1.022 0.902 1.718 1.191s1.519 0.431 2.475 0.431c0.762 0 1.439-0.069 2.035-0.209 0.597-0.142 1.017-0.275 1.255-0.401-0.252-0.832-1.012-1.316-1.872-1.193-0.466 0.067-0.736 0.075-1.207 0.075-1.224 0-2.122-0.296-2.697-0.885-0.576-0.591-0.907-1.457-0.992-2.594h7.507c0.013-0.115 0.021-0.235 0.021-0.37v-0.326c0-1.883-0.392-3.285-1.18-4.205zM93.952 16.536c0.040-0.377 0.128-0.752 0.263-1.116 0.133-0.364 0.321-0.688 0.562-0.969 0.238-0.283 0.53-0.511 0.872-0.685 0.345-0.176 0.741-0.263 1.191-0.263 0.803 0 1.431 0.283 1.889 0.854 0.454 0.569 0.679 1.295 0.666 2.18h-5.441zM104.252 12.688c-0.717 0.569-1.076 1.341-1.076 2.311 0 0.492 0.084 0.905 0.254 1.244 0.168 0.337 0.393 0.625 0.674 0.864 0.283 0.24 0.615 0.447 1.003 0.623s0.79 0.347 1.214 0.516c0.872 0.352 1.496 0.669 1.875 0.952 0.38 0.281 0.572 0.659 0.572 1.138 0 0.463-0.193 0.8-0.581 1.012-0.385 0.209-0.984 0.316-1.787 0.316-0.543 0-0.851-0.008-1.385-0.107-0.89-0.161-1.704 0.308-2.004 1.163 0.196 0.081 0.572 0.206 1.119 0.367 0.546 0.161 1.308 0.243 2.277 0.243 1.392 0 2.461-0.257 3.216-0.781 0.75-0.517 1.127-1.285 1.127-2.298 0-0.521-0.077-0.96-0.233-1.319-0.153-0.359-0.375-0.663-0.663-0.915-0.291-0.254-0.634-0.477-1.046-0.666-0.406-0.189-0.869-0.382-1.389-0.581-0.396-0.14-0.732-0.275-1.012-0.401s-0.519-0.265-0.711-0.412c-0.189-0.147-0.329-0.311-0.42-0.495s-0.138-0.396-0.138-0.633c0-0.466 0.204-0.806 0.612-1.022 0.407-0.219 0.893-0.329 1.441-0.329 0.372 0 0.581 0.008 0.949 0.054 0.915 0.11 1.688-0.356 2.020-1.214-0.115-0.040-0.27-0.089-0.477-0.145-0.201-0.056-0.439-0.11-0.706-0.158-0.265-0.051-0.556-0.094-0.864-0.128s-0.618-0.051-0.925-0.051c-1.24 0-2.217 0.283-2.934 0.853zM112.75 10.685v7.917c0 0.732 0.056 1.368 0.176 1.923 0.117 0.556 0.324 1.022 0.623 1.402 0.294 0.38 0.683 0.666 1.168 0.854 0.487 0.191 1.102 0.286 1.846 0.286h2.716c0-0.953-0.773-1.726-1.726-1.726h-0.821c-0.337 0-0.634-0.040-0.885-0.128-0.252-0.081-0.463-0.227-0.634-0.433-0.166-0.201-0.294-0.484-0.377-0.843s-0.126-0.808-0.126-1.356v-4.82h2.507c0.91 0 1.643-0.734 1.643-1.645h-4.149v-3.388c-1.082 0-1.96 0.877-1.96 1.958zM66.029 14.072v8.994c1.080 0 1.96-0.877 1.96-1.958v-8.994c-1.082 0-1.96 0.877-1.96 1.958zM65.742 8.844c0 0.699 0.567 1.265 1.265 1.265 0.7 0 1.269-0.567 1.269-1.265 0-0.701-0.569-1.268-1.269-1.268s-1.265 0.565-1.265 1.268zM121.024 14.072v8.994c1.084 0 1.958-0.877 1.958-1.958v-8.994c-1.081 0-1.958 0.877-1.958 1.958zM120.74 8.844c0 0.699 0.567 1.265 1.265 1.265 0.701 0 1.268-0.567 1.268-1.265 0-0.701-0.567-1.268-1.268-1.268-0.7 0-1.265 0.565-1.265 1.268zM140.759 23.020c0.3-0.048 0.538-0.086 0.706-0.115v-6.854c0-0.62-0.072-1.183-0.212-1.699-0.14-0.513-0.375-0.955-0.706-1.329-0.329-0.372-0.765-0.661-1.305-0.864-0.543-0.204-1.207-0.303-1.994-0.303-0.688 0-1.329 0.051-1.92 0.156-0.589 0.105-1.012 0.214-1.265 0.326 0.214 0.842 0.964 1.359 1.828 1.263 0.46-0.051 0.72-0.061 1.183-0.061 0.505 0 0.92 0.077 1.239 0.224 0.316 0.147 0.564 0.345 0.747 0.589 0.184 0.247 0.308 0.527 0.38 0.843s0.105 0.637 0.105 0.961v0.546c-0.056-0.013-0.153-0.032-0.296-0.064-0.14-0.026-0.305-0.059-0.495-0.091-0.191-0.038-0.39-0.064-0.599-0.086-0.212-0.021-0.418-0.030-0.613-0.030-0.62 0-1.212 0.064-1.772 0.189-0.564 0.128-1.056 0.324-1.479 0.591-0.42 0.268-0.755 0.618-0.998 1.054-0.249 0.436-0.37 0.955-0.37 1.56 0 0.636 0.105 1.176 0.313 1.625 0.212 0.452 0.508 0.813 0.888 1.086 0.38 0.275 0.829 0.474 1.349 0.602 0.519 0.126 1.089 0.189 1.709 0.189 0.436 0 0.875-0.018 1.316-0.054 0.444-0.032 0.857-0.072 1.237-0.115 0.379-0.042 0.721-0.089 1.025-0.14zM135.181 18.887c0.182-0.233 0.41-0.415 0.683-0.548 0.275-0.136 0.576-0.219 0.905-0.263 0.331-0.040 0.645-0.064 0.941-0.064 0.449 0 0.834 0.026 1.15 0.075 0.313 0.048 0.543 0.11 0.683 0.179v3.269c-0.24 0.056-0.538 0.097-0.895 0.117-0.359 0.021-0.77 0.030-1.234 0.030-0.776 0-1.385-0.136-1.833-0.41-0.454-0.273-0.676-0.762-0.676-1.467 0.001-0.38 0.093-0.685 0.277-0.918z"></path>
</svg>
