<!-- Generated by IcoMoon.io -->
<svg version="1.1" xmlns="http://www.w3.org/2000/svg" width="168" height="32" viewBox="0 0 168 32">
<path d="M87.698 12.404c-0.997 0-1.761 0.582-2.028 1.541-0.090 0.326-0.146 0.505-0.242 0.832-0.291 0.977-0.464 1.527-0.793 2.493-0.319 0.939-0.501 1.464-0.849 2.392-0.307 0.813-0.478 1.264-0.816 2.064-0.34-0.799-0.516-1.252-0.818-2.064-0.346-0.928-0.533-1.453-0.851-2.392-0.325-0.968-0.501-1.516-0.792-2.493-0.093-0.326-0.148-0.505-0.239-0.832-0.271-0.959-1.035-1.541-2.029-1.541h-0.648c0.675 2.521 1.126 3.922 2.077 6.353 0.845 2.147 1.332 3.347 2.303 5.444h1.997c0.968-2.095 1.461-3.296 2.302-5.444 0.953-2.431 1.401-3.832 2.076-6.353h-0.65zM68.648 12.344c-0.8 0.138-1.446 0.266-1.931 0.387v11.469h2.115v-9.972c0.076-0.014 0.2-0.035 0.373-0.066 0.176-0.030 0.374-0.058 0.591-0.080 0.219-0.025 0.453-0.044 0.695-0.058 0.242-0.017 0.475-0.023 0.703-0.023 0.561 0 1.028 0.072 1.409 0.214 0.38 0.146 0.682 0.377 0.91 0.692 0.222 0.319 0.384 0.735 0.488 1.25 0.097 0.516 0.146 1.138 0.146 1.862v6.18h2.112v-6.632c0-0.802-0.080-1.536-0.228-2.202-0.149-0.668-0.412-1.239-0.786-1.714-0.371-0.481-0.865-0.849-1.486-1.112-0.62-0.266-1.403-0.401-2.34-0.401-1.043-0.001-1.969 0.070-2.77 0.205zM127.817 12.376c-0.74 0.162-1.363 0.329-1.859 0.513v11.309h2.109v-9.924c0.122-0.030 0.378-0.087 0.761-0.17 0.387-0.083 0.782-0.127 1.177-0.127 0.184 0 0.284 0 0.47 0.008 1.039 0.044 1.866-0.519 2.204-1.505-0.089-0.030-0.231-0.066-0.42-0.104-0.187-0.035-0.395-0.075-0.623-0.113s-0.457-0.066-0.69-0.093c-0.236-0.020-0.444-0.032-0.626-0.032-0.925-0.003-1.761 0.077-2.502 0.236zM98.262 13.591c-0.849-0.991-2.070-1.486-3.658-1.486-0.679 0-1.349 0.129-2 0.384s-1.228 0.643-1.725 1.159c-0.502 0.513-0.903 1.162-1.205 1.942s-0.451 1.692-0.451 2.734c0 0.894 0.114 1.716 0.352 2.467 0.232 0.75 0.596 1.395 1.080 1.942 0.484 0.544 1.101 0.972 1.851 1.282 0.748 0.311 1.635 0.464 2.666 0.464 0.821 0 1.55-0.075 2.192-0.225 0.643-0.153 1.095-0.297 1.353-0.432-0.271-0.897-1.090-1.418-2.018-1.285-0.501 0.072-0.792 0.080-1.299 0.080-1.319 0-2.285-0.319-2.905-0.953-0.619-0.637-0.976-1.568-1.069-2.793h8.086c0.014-0.124 0.022-0.253 0.022-0.398v-0.353c0-2.026-0.423-3.537-1.271-4.528zM91.471 17.167c0.044-0.406 0.138-0.81 0.283-1.202 0.143-0.392 0.346-0.741 0.605-1.043 0.256-0.305 0.571-0.55 0.939-0.738 0.371-0.19 0.799-0.283 1.282-0.283 0.865 0 1.541 0.305 2.035 0.92 0.489 0.613 0.731 1.395 0.717 2.348l-5.861-0.001zM102.565 13.022c-0.772 0.613-1.159 1.444-1.159 2.489 0 0.53 0.090 0.975 0.274 1.342 0.181 0.363 0.423 0.674 0.726 0.931 0.307 0.259 0.664 0.481 1.081 0.671s0.849 0.374 1.308 0.555c0.939 0.381 1.612 0.72 2.021 1.025 0.409 0.302 0.616 0.71 0.616 1.225 0 0.498-0.207 0.861-0.624 1.088-0.416 0.225-1.062 0.34-1.925 0.34-0.585 0-0.917-0.008-1.493-0.115-0.959-0.173-1.835 0.332-2.159 1.253 0.211 0.087 0.616 0.222 1.205 0.395 0.588 0.173 1.409 0.263 2.453 0.263 1.498 0 2.651-0.277 3.464-0.842 0.807-0.557 1.214-1.382 1.214-2.475 0-0.56-0.084-1.032-0.252-1.419-0.163-0.385-0.404-0.714-0.714-0.986-0.314-0.273-0.682-0.512-1.126-0.717-0.439-0.205-0.937-0.412-1.496-0.626-0.426-0.149-0.789-0.297-1.088-0.432-0.304-0.136-0.563-0.284-0.768-0.444-0.205-0.159-0.354-0.335-0.453-0.533s-0.146-0.426-0.146-0.681c0-0.502 0.218-0.868 0.66-1.101 0.439-0.236 0.962-0.354 1.552-0.354 0.401 0 0.626 0.008 1.024 0.058 0.986 0.118 1.818-0.384 2.175-1.308-0.124-0.044-0.291-0.096-0.513-0.156-0.217-0.060-0.472-0.118-0.761-0.17-0.285-0.055-0.599-0.101-0.931-0.138-0.339-0.038-0.672-0.055-1.004-0.055-1.335 0-2.386 0.305-3.158 0.917zM111.72 10.863v8.527c0 0.79 0.060 1.474 0.191 2.070 0.127 0.599 0.349 1.101 0.671 1.51 0.318 0.409 0.735 0.717 1.26 0.92 0.525 0.205 1.187 0.308 1.988 0.308h2.924c0-1.027-0.832-1.859-1.858-1.859h-0.885c-0.364 0-0.683-0.044-0.955-0.138-0.27-0.087-0.498-0.245-0.682-0.467-0.179-0.217-0.318-0.522-0.406-0.907-0.090-0.387-0.136-0.87-0.136-1.461v-5.19h2.701c0.979 0 1.769-0.79 1.769-1.772h-4.47v-3.651c-1.167 0-2.112 0.945-2.112 2.109zM61.396 14.514v9.686c1.163 0 2.109-0.945 2.109-2.109v-9.686c-1.166 0-2.109 0.945-2.109 2.109zM61.085 8.88c0 0.752 0.612 1.363 1.365 1.363s1.365-0.61 1.365-1.363c0-0.755-0.612-1.365-1.365-1.365s-1.365 0.61-1.365 1.365zM120.633 14.514v9.686c1.166 0 2.109-0.945 2.109-2.109v-9.686c-1.164 0-2.109 0.945-2.109 2.109zM120.325 8.88c0 0.752 0.612 1.363 1.364 1.363 0.754 0 1.365-0.61 1.365-1.363 0-0.755-0.612-1.365-1.365-1.365s-1.364 0.61-1.364 1.365zM141.888 24.151c0.323-0.052 0.579-0.091 0.761-0.124v-7.383c0-0.668-0.077-1.274-0.228-1.83-0.149-0.553-0.402-1.029-0.761-1.432-0.354-0.401-0.824-0.712-1.406-0.931-0.585-0.219-1.299-0.326-2.146-0.326-0.741 0-1.433 0.055-2.070 0.167-0.633 0.113-1.088 0.231-1.363 0.352 0.231 0.907 1.038 1.464 1.969 1.36 0.495-0.055 0.775-0.066 1.274-0.066 0.544 0 0.99 0.083 1.333 0.242 0.343 0.16 0.61 0.371 0.807 0.636 0.198 0.266 0.332 0.568 0.409 0.908s0.113 0.686 0.113 1.035v0.588c-0.060-0.014-0.165-0.034-0.319-0.069-0.15-0.030-0.329-0.063-0.534-0.098-0.205-0.039-0.42-0.069-0.645-0.091-0.226-0.024-0.449-0.032-0.66-0.032-0.668 0-1.305 0.069-1.907 0.204-0.609 0.139-1.139 0.349-1.595 0.637-0.451 0.288-0.811 0.665-1.074 1.135-0.267 0.471-0.398 1.029-0.398 1.68 0 0.683 0.113 1.266 0.338 1.749 0.228 0.487 0.547 0.876 0.956 1.17 0.409 0.297 0.894 0.51 1.453 0.648 0.56 0.135 1.173 0.205 1.842 0.205 0.47 0 0.942-0.021 1.417-0.058 0.478-0.035 0.923-0.079 1.332-0.125 0.408-0.048 0.776-0.097 1.102-0.152zM135.881 19.698c0.195-0.25 0.44-0.446 0.734-0.591 0.297-0.146 0.62-0.236 0.975-0.283 0.359-0.042 0.696-0.069 1.015-0.069 0.485 0 0.9 0.030 1.239 0.082 0.338 0.052 0.585 0.118 0.735 0.193v3.52c-0.259 0.060-0.579 0.103-0.965 0.127-0.387 0.024-0.831 0.031-1.329 0.031-0.835 0-1.493-0.146-1.974-0.44-0.489-0.294-0.728-0.821-0.728-1.579 0.003-0.411 0.101-0.738 0.298-0.99zM30.497 4.749c-3.106 0-5.625 2.517-5.625 5.625v16.875h16.875c3.106 0 5.625-2.519 5.625-5.625v-16.875h-16.875zM34.148 21.83c-0.582 0.832-1.29 1.201-2.305 1.201h-2.752l9.007-12.864c0.582-0.831 1.29-1.2 2.303-1.2h2.752l-9.006 12.863z"></path>
</svg>
