<!-- Generated by IcoMoon.io -->
<svg version="1.1" xmlns="http://www.w3.org/2000/svg" width="32" height="32" viewBox="0 0 32 32">
<path d="M30 29.333l-0.667 0.933c-0.267 0.267-0.533 0.4-0.933 0.4h-24.8c-0.4 0-0.667-0.133-0.933-0.4l-0.533-0.933h27.867z"></path>
<path d="M10.667 2.667h1.333v1.333h-1.333v-1.333z"></path>
<path d="M10.667 2.667l0.667-0.933c0.133-0.267 0.4-0.4 0.8-0.4h7.733c0.4 0 0.667 0.133 0.933 0.4l0.533 0.933h-10.667z"></path>
<path d="M12 4.4v12l0.933-0.667c0.267-0.267 0.4-0.533 0.4-0.933v-10.4h-1.333z"></path>
<path d="M18.667 4.133v10.933c0 0.4 0.133 0.667 0.4 0.933l0.933 0.667v-12.533h-1.333z"></path>
<path d="M21.333 4l-0.667 0.933c-0.133 0.267-0.4 0.4-0.8 0.4h-7.733c-0.4 0-0.667-0.133-0.8-0.4l-0.667-0.933h10.667z"></path>
<path d="M20 2.667h1.333v1.333h-1.333v-1.333z"></path>
<path d="M22 25.333c-0.4 0-0.667-0.133-0.8-0.4l-4.4-6.267h1.067c0.4 0 0.667 0.133 0.8 0.4l4.267 6.267h-0.933z"></path>
<path d="M23.867 28c-0.4 0-0.667-0.133-0.8-0.4l-0.667-0.933h1.067c0.4 0 0.667 0.133 0.8 0.4l0.533 0.933h-0.933z"></path>
<path d="M13.333 13.467l-11.2 15.867h1.067c0.267 0 0.533 0 0.533 0s0.133-0.267 0.267-0.4l9.333-13.333v-2.133z"></path>
<path d="M18.667 13.6v2.267l9.467 13.067c0.133 0.133 0.4 0.533 0.4 0.533s0.133-0.133 0.4-0.133h1.067l-11.333-15.733z"></path>
</svg>
