<!-- Generated by IcoMoon.io -->
<svg version="1.1" xmlns="http://www.w3.org/2000/svg" width="32" height="32" viewBox="0 0 32 32">
<path d="M15.371 4.719h1.975v1.833h-1.975v-1.833z"></path>
<path d="M23.248 6.552h0.041c0.532-0.001 0.888-0.171 1.192-0.608l0.847-1.225h-3.291c-0.532 0.001-0.888 0.171-1.192 0.608l-0.847 1.225h3.249z"></path>
<path d="M27.48 1.321h-23.001c-1.013 0-1.833 0.823-1.833 1.833l-0.003 25.669c0.001 1.011 0.82 1.833 1.833 1.833h23c1.013 0 1.833-0.823 1.833-1.833l0.003-25.669c0-1.011-0.819-1.833-1.832-1.833zM27.477 28.824h-23.001l0.003-18.935h23.001l-0.003 18.935zM27.48 8.056h-23.001v-4.903h23.001v4.903z"></path>
<path d="M16 26.664c4.060 0 7.351-3.291 7.351-7.351s-3.291-7.351-7.351-7.351c-4.060 0-7.351 3.291-7.351 7.351s3.291 7.351 7.351 7.351zM16 13.821c2.868 0 5.196 2.207 5.444 5.011-1.656 0.72-3.479 0.56-4.94-0.285-1.691-1.023-3.761-1.343-5.741-0.8 0.677-2.264 2.752-3.925 5.237-3.925zM15.409 20.055c1.711 1.052 3.821 1.38 5.833 0.813-0.673 2.271-2.752 3.939-5.243 3.939-2.875 0-5.207-2.216-5.445-5.028 1.628-0.695 3.412-0.54 4.855 0.276z"></path>
</svg>
