<!-- Generated by IcoMoon.io -->
<svg version="1.1" xmlns="http://www.w3.org/2000/svg" width="32" height="32" viewBox="0 0 32 32">
<path d="M16 1.333c-8.087 0-14.667 6.58-14.667 14.667s6.58 14.667 14.667 14.667 14.667-6.58 14.667-14.667-6.58-14.667-14.667-14.667zM16 3.167c3.213 0 6.144 1.191 8.395 3.141l-3.275 3.276c-1.411-1.131-3.176-1.835-5.12-1.835s-3.709 0.704-5.12 1.835l-3.275-3.276c2.251-1.952 5.181-3.141 8.395-3.141zM16 22.416c-3.537 0-6.416-2.877-6.416-6.416s2.879-6.416 6.416-6.416 6.416 2.877 6.416 6.416-2.879 6.416-6.416 6.416zM3.167 16c0-3.213 1.189-6.144 3.141-8.395l3.276 3.275c-1.131 1.411-1.835 3.176-1.835 5.12s0.704 3.709 1.833 5.12l-3.275 3.275c-1.952-2.251-3.141-5.181-3.141-8.395zM16 28.833c-3.213 0-6.144-1.189-8.395-3.141l3.275-3.275c1.411 1.131 3.176 1.833 5.12 1.833s3.709-0.703 5.12-1.833l3.275 3.275c-2.251 1.951-5.181 3.141-8.395 3.141zM25.692 24.395l-3.275-3.275c1.129-1.411 1.833-3.176 1.833-5.12s-0.704-3.709-1.833-5.12l3.275-3.275c1.952 2.252 3.141 5.181 3.141 8.395s-1.189 6.143-3.141 8.395z"></path>
</svg>
