<!-- Generated by IcoMoon.io -->
<svg version="1.1" xmlns="http://www.w3.org/2000/svg" width="32" height="32" viewBox="0 0 32 32">
<path d="M30.525 14.377l-4.584-11c-0.284-0.683-0.951-1.128-1.692-1.128h-6.416c-0.487 0-0.952 0.193-1.296 0.536l-0.537 0.539-0.537-0.537c-0.344-0.344-0.809-0.536-1.296-0.536h-6.417c-0.741 0-1.408 0.445-1.692 1.128l-4.584 11c-0.191 0.459-0.188 0.972 0.007 1.427l5.5 12.833c0.288 0.676 0.952 1.112 1.685 1.112h14.667c0.733 0 1.396-0.436 1.685-1.112l5.5-12.833c0.196-0.455 0.199-0.969 0.008-1.428zM23.333 27.917h-14.667l-5.5-12.833 4.584-11h6.416l1.833 1.833 1.833-1.833h6.416l4.584 11-5.5 12.833zM8.667 10.5h1.608c0.537 0.004 0.895 0.172 1.203 0.612l0.856 1.221h-1.608c-0.537-0.001-0.895-0.171-1.203-0.611l-0.856-1.223zM22.477 11.723c-0.308 0.44-0.667 0.609-1.203 0.611h-1.608l0.856-1.221c0.308-0.44 0.667-0.608 1.203-0.612h1.608l-0.856 1.223zM18.863 16l-0.856 1.223c-0.308 0.44-0.667 0.609-1.203 0.611h-1.608c-0.537-0.001-0.895-0.171-1.203-0.611l-0.856-1.223h5.725zM12.149 21.5l0.856-1.223c0.308-0.44 0.667-0.609 1.204-0.611h3.583c0.537 0.001 0.895 0.171 1.204 0.611l0.856 1.223h-7.703z"></path>
</svg>
