<!-- Generated by IcoMoon.io -->
<svg version="1.1" xmlns="http://www.w3.org/2000/svg" width="32" height="32" viewBox="0 0 32 32">
<path d="M8.013 3.505h20.595c0.539 0.001 0.896 0.172 1.203 0.609l0.856 1.224h-20.593c-0.539 0-0.897-0.169-1.203-0.612l-0.857-1.221zM1.333 3.505h1.921c0.539 0.001 0.897 0.172 1.204 0.609l0.855 1.224h-1.92c-0.539 0-0.897-0.169-1.203-0.612l-0.857-1.221z"></path>
<path d="M8.013 15.171h20.595c0.539 0.001 0.896 0.172 1.203 0.609l0.856 1.224h-20.593c-0.539 0-0.897-0.169-1.203-0.612l-0.857-1.221z"></path>
<path d="M1.333 15.171h1.921c0.539 0.001 0.896 0.172 1.203 0.609l0.855 1.224h-1.92c-0.539 0-0.897-0.169-1.203-0.612l-0.856-1.221z"></path>
<path d="M8.013 26.836h20.595c0.539 0.001 0.896 0.172 1.203 0.609l0.856 1.224h-20.593c-0.539 0-0.897-0.169-1.203-0.612l-0.857-1.221z"></path>
<path d="M1.333 26.836h1.921c0.539 0.001 0.896 0.172 1.203 0.609l0.855 1.224h-1.92c-0.539 0-0.897-0.169-1.203-0.612l-0.856-1.221z"></path>
</svg>
