<!-- Generated by IcoMoon.io -->
<svg version="1.1" xmlns="http://www.w3.org/2000/svg" width="32" height="32" viewBox="0 0 32 32">
<path d="M22.428 15.033v-7.404c0-3.469-2.891-6.296-6.441-6.296-3.552 0-6.443 2.827-6.443 6.296v7.405h-1.081c-1.659 0-3.008 1.357-3.008 3.009v12.623h18.060c1.671 0 3.031-1.349 3.031-3.008v-12.625h-4.117zM11.443 7.629c0-2.425 2.037-4.399 4.544-4.399 2.505 0 4.543 1.972 4.507 4.38l0.036 0.628v6.796h-9.087v-7.405zM24.663 27.659c0 0.623-0.516 1.12-1.148 1.12h-16.176l-0.001-10.736c0-0.615 0.503-1.123 1.125-1.123h16.2v10.739z"></path>
</svg>
