<!-- Generated by IcoMoon.io -->
<svg version="1.1" xmlns="http://www.w3.org/2000/svg" width="32" height="32" viewBox="0 0 32 32">
<path d="M1.333 26.083h27.275c0.536 0.004 0.895 0.172 1.203 0.612l0.856 1.223h-27.275c-0.536-0.001-0.895-0.171-1.203-0.611l-0.856-1.224zM2.189 16.305c0.308 0.44 0.667 0.609 1.203 0.611h27.275l-0.856-1.221c-0.308-0.44-0.667-0.608-1.203-0.612h-27.275l0.856 1.223zM2.189 5.305c0.308 0.44 0.667 0.609 1.203 0.611h27.275l-0.856-1.221c-0.308-0.44-0.667-0.608-1.203-0.612h-27.275l0.856 1.223z"></path>
</svg>
