<!-- Generated by IcoMoon.io -->
<svg version="1.1" xmlns="http://www.w3.org/2000/svg" width="32" height="32" viewBox="0 0 32 32">
<path d="M16 1.333c-2.963 0-5.5 2.391-5.5 5.329v9.337c0 2.94 2.537 5.5 5.5 5.5s5.5-2.56 5.5-5.5v-9.337c0-2.939-2.537-5.329-5.5-5.329zM19.667 16c0 1.933-1.713 3.667-3.667 3.667-1.955 0-3.667-1.733-3.667-3.667v-9.337c0-1.929 1.712-3.496 3.667-3.496 1.953 0 3.667 1.567 3.667 3.496v9.337zM23.971 14.271c-0.44 0.307-0.637 0.684-0.637 1.221v0.508c0 3.996-3.289 7.333-7.333 7.333s-7.333-3.337-7.333-7.333v-0.508c0-0.537-0.196-0.915-0.637-1.221l-1.156-0.809c-0.016 0.068-0.041 0.132-0.041 0.204v2.335c0 4.703 3.64 8.623 8.268 9.077-0.003 0.031-0.019 0.057-0.019 0.089v3.667h-1.608c-0.536 0-0.913 0.196-1.221 0.639l-0.836 1.195h9.109l-0.837-1.195c-0.308-0.441-0.684-0.639-1.221-0.639h-1.551v-3.667c0-0.032-0.015-0.059-0.019-0.089 4.628-0.455 8.268-4.373 8.268-9.077v-2.335c0-0.073-0.025-0.137-0.041-0.204l-1.153 0.809z"></path>
</svg>
