<!-- Generated by IcoMoon.io -->
<svg version="1.1" xmlns="http://www.w3.org/2000/svg" width="32" height="32" viewBox="0 0 32 32">
<path d="M23.391 19.008c-0.592-0.585-0.305-1.259-0.305-1.259 0.181-0.637 0.248-1.060 0.248-1.749v-0.508c0-0.537 0.197-0.915 0.637-1.221l1.156-0.809c0.016 0.068 0.041 0.132 0.041 0.204v2.335c0 1.213-0.12 2.037-0.559 3.101-0.001 0-0.525 0.593-1.219-0.093zM11.445 7.32c0.916-0.028 0.888-0.657 0.888-0.657 0-1.929 1.712-3.496 3.667-3.496 1.953 0 3.667 1.567 3.667 3.496v7.964c0 0-0.085 1.373 0.917 1.373 0.803 0 0.917-0.603 0.917-0.745v-8.592c-0.001-2.939-2.539-5.329-5.501-5.329-2.588 0-4.851 1.824-5.381 4.245 0 0-0.42 1.781 0.827 1.741zM29.533 29.1l-0.259 1.471-7.524-7.524c-1.353 1.108-3.017 1.849-4.852 2.029 0.003 0.031 0.017 0.057 0.017 0.089v3.667h1.551c0.537 0 0.913 0.196 1.221 0.639l0.839 1.196h-9.111l0.837-1.195c0.308-0.441 0.684-0.639 1.221-0.639h1.608v-3.667c0-0.032 0.015-0.059 0.019-0.089-4.628-0.455-8.268-4.375-8.268-9.077v-2.335c0-0.073 0.025-0.137 0.041-0.204l1.156 0.809c0.44 0.307 0.637 0.684 0.637 1.221v0.508c0 3.996 3.289 7.333 7.333 7.333 1.689 0 3.229-0.597 4.464-1.575l-1.337-1.337c-0.9 0.656-1.969 1.079-3.127 1.079-2.963 0-5.5-2.56-5.5-5.5v-4.203l-7.127-7.127-0.616-0.681c-0.251-0.32-0.371-0.647-0.292-1.089l0.26-1.471 25.899 25.9 0.616 0.681c0.249 0.32 0.371 0.647 0.292 1.089zM17.831 19.127l-5.497-5.496v2.369c0 1.933 1.712 3.667 3.667 3.667 0.66 0 1.285-0.201 1.831-0.54z"></path>
</svg>
