<!-- Generated by IcoMoon.io -->
<svg version="1.1" xmlns="http://www.w3.org/2000/svg" width="32" height="32" viewBox="0 0 32 32">
<path d="M30.549 18.419c-0.384-0.695-1.275-1.505-2.531-1.505-0.449 0-0.921 0.101-1.403 0.317-0.949 0.423-3.464 1.617-5.076 2.391-0.367 0.243-0.917 0.683-0.984 1.143l-0.201 1.424c0.084-0.021 0.169-0.024 0.256-0.063 0 0 5.285-2.539 6.761-3.195 0.063-0.028 0.131-0.055 0.212-0.055 0.087 0 0.175 0.039 0.275 0.195l-9.111 6.677c-0.512 0.375-1.153 0.588-1.803 0.588-0.155 0-0.309-0.016-0.46-0.031l-8.867-1.404c-0.221 0-0.436 0.071-0.608 0.208l-1.697 1.513c-0.412 0.353-0.569 0.755-0.513 1.296 0 0 0.172 1.487 0.224 1.44l2.925-2.531 8.24 1.317c0.256 0.036 0.513 0.060 0.771 0.060 1.032 0 2.061-0.339 2.896-0.945l10.44-7.643c0.371-0.285 0.479-0.785 0.253-1.199z"></path>
<path d="M11.132 19.765c0.432 0 0.84 0.057 1.201 0.169l4.309 1.56c-0.1 0.069-0.232 0.12-0.404 0.148-0.581 0.088-1.357 0.14-2.305 0.14-0.843 0-2.232-0.129-2.547-0.145l0.707 1.271c0.236 0.421 0.564 0.625 1.003 0.711 0.287 0.008 0.571 0.024 0.823 0.024 1.068 0 1.949-0.055 2.611-0.164 1.845-0.289 2.369-1.915 2.276-2.931-0.040-0.388-0.299-0.705-0.661-0.817l-5.276-1.588c-0.529-0.165-1.108-0.248-1.721-0.248-2.096 0-3.872 0.915-4.067 1.011l-5.72 3.461c-0.039 0.023-0.025 0.047-0.025 0.047l1.344 0.601c0.471 0.208 0.88 0.18 1.32-0.057l4.012-2.419c0.157-0.073 1.589-0.773 3.121-0.773z"></path>
<path d="M16.352 12.863c0 0.544-0.203 0.955-0.605 1.232-0.217 0.151-0.485 0.257-0.799 0.327-0.141 0.18-0.309 0.269-0.548 0.271l-0.703-0.001 0.129-0.184c-0.423-0.011-0.777-0.047-1.031-0.123-0.295-0.085-0.496-0.152-0.601-0.195 0.161-0.46 0.597-0.711 1.076-0.625 0.287 0.055 0.453 0.057 0.744 0.057 0.432 0 0.753-0.057 0.96-0.169 0.208-0.115 0.313-0.296 0.313-0.545 0-0.256-0.103-0.46-0.307-0.612-0.203-0.149-0.539-0.32-1.007-0.509-0.228-0.092-0.444-0.181-0.653-0.277-0.208-0.093-0.387-0.207-0.539-0.333-0.151-0.129-0.271-0.284-0.361-0.464-0.092-0.183-0.137-0.404-0.137-0.669 0-0.52 0.193-0.936 0.579-1.239 0.245-0.195 0.552-0.32 0.909-0.391l0.017-0.028c0.149-0.211 0.329-0.305 0.588-0.305h0.703l-0.2 0.288c0.019 0.003 0.036 0.001 0.055 0.003 0.167 0.017 0.323 0.041 0.464 0.068 0.144 0.027 0.271 0.055 0.379 0.085 0.112 0.029 0.195 0.057 0.257 0.077-0.179 0.46-0.593 0.711-1.085 0.653-0.197-0.025-0.309-0.031-0.509-0.031-0.293 0-0.553 0.060-0.773 0.179-0.219 0.117-0.328 0.3-0.328 0.549 0 0.127 0.025 0.24 0.073 0.341 0.049 0.097 0.125 0.185 0.227 0.265 0.104 0.080 0.231 0.153 0.381 0.221 0.151 0.067 0.332 0.137 0.544 0.213 0.279 0.107 0.529 0.212 0.747 0.311 0.221 0.103 0.405 0.221 0.561 0.357 0.155 0.136 0.275 0.3 0.356 0.492 0.081 0.196 0.124 0.429 0.124 0.711zM27.103 2.639h-19.032c-0.876 0-1.587 0.709-1.587 1.587h20.619v9.516c0.876 0 1.587-0.709 1.587-1.587v-7.929c0-0.877-0.711-1.587-1.587-1.587zM23.931 5.811h-19.032c-0.876 0-1.587 0.709-1.587 1.587v7.931c0 0.876 0.711 1.587 1.587 1.587h19.032c0.876 0 1.587-0.709 1.587-1.587v-7.931c0-0.876-0.711-1.587-1.587-1.587zM23.931 15.328h-19.032v-7.931h19.032v7.931z"></path>
</svg>
