<!-- Generated by IcoMoon.io -->
<svg version="1.1" xmlns="http://www.w3.org/2000/svg" width="32" height="32" viewBox="0 0 32 32">
<path d="M15.083 6.541h1.833v6.667h-1.833v-6.667z"></path>
<path d="M16.031 30.695c-5.313 0-9.636-3.991-9.636-8.899v-11.592c0-4.908 4.323-8.899 9.636-8.899s9.636 3.991 9.636 8.899v11.591c0 4.908-4.323 8.9-9.636 8.9zM16.031 3.035c-4.36 0-7.907 3.216-7.907 7.169v11.591c0 3.953 3.547 7.169 7.907 7.169s7.907-3.216 7.907-7.169v-11.591c0-3.953-3.547-7.169-7.907-7.169z"></path>
</svg>
