<!-- Generated by IcoMoon.io -->
<svg version="1.1" xmlns="http://www.w3.org/2000/svg" width="32" height="32" viewBox="0 0 32 32">
<path d="M14.167 8.667h-7.333c-1.013 0-1.833 0.823-1.833 1.833v9.167c0 1.011 0.82 1.833 1.833 1.833h7.333c1.013 0 1.833-0.823 1.833-1.833v-9.167c0-1.011-0.82-1.833-1.833-1.833zM14.167 19.667h-7.333v-9.167h7.333v9.167zM30.667 4.972v18.935c0 3.516-2.963 6.76-6.473 6.76h-16.488c-3.512 0-6.372-3.073-6.372-6.588v-21.852c0-0.489 0.427-0.893 0.917-0.893h22.917c0.497 0 0.917 0.427 0.917 0.917v19.069l-1.221-0.857c-0.369-0.257-0.515-0.575-0.567-0.976l-0.045-0.917v-15.403h-21.085v20.917c0 2.517 2.009 4.749 4.539 4.749h16.489c2.521 0 4.639-2.4 4.639-4.92v-16.213l0.045-0.917c0.052-0.403 0.197-0.719 0.567-0.976l1.22-0.856c0 0.013 0.001 0.017 0.001 0.021zM22.601 6.833h-15.541c-0.539-0.003-0.897-0.172-1.203-0.609l-0.857-1.224h15.541c0.539 0.001 0.897 0.171 1.203 0.608l0.857 1.225zM23.333 25.167h-16.273c-0.539-0.003-0.897-0.172-1.203-0.609l-0.857-1.224h16.273c0.539 0.001 0.897 0.171 1.203 0.608l0.857 1.225zM23.333 10.5h-4.357c-0.539-0.003-0.897-0.172-1.203-0.609l-0.856-1.224h4.357c0.539 0.001 0.897 0.171 1.203 0.608l0.856 1.225zM23.333 14.167h-4.357c-0.539-0.003-0.897-0.172-1.203-0.609l-0.856-1.224h4.357c0.539 0.001 0.897 0.171 1.203 0.608l0.856 1.225zM23.333 17.833h-4.357c-0.539-0.003-0.897-0.172-1.203-0.609l-0.856-1.224h4.357c0.539 0.001 0.897 0.171 1.203 0.608l0.856 1.225zM23.333 21.5h-4.357c-0.539-0.003-0.897-0.172-1.203-0.609l-0.857-1.224h4.357c0.539 0.001 0.897 0.171 1.203 0.608l0.857 1.225z"></path>
</svg>
