<!-- Generated by IcoMoon.io -->
<svg version="1.1" xmlns="http://www.w3.org/2000/svg" width="32" height="32" viewBox="0 0 32 32">
<path d="M30.447 14.417c-0.977-5.671-5.235-10.288-10.78-11.704-8.123-2.076-16.309 3.019-18.028 11.225-0.124 0.585-0.169 1.188-0.253 1.78-0.013 0.093-0.033 0.187-0.052 0.28 0 0.589 0 1.184 0 1.776 0.041 0.347 0.073 0.696 0.127 1.043 0.719 4.688 3.093 8.276 7.149 10.747 0.516 0.313 0.805 0.233 1.099-0.288 0.931-1.644 1.861-3.285 2.789-4.929 0.521-0.921 1.040-1.844 1.559-2.765 0.269-0.473 0.2-0.741-0.256-1.027-0.048-0.028-0.097-0.059-0.143-0.091-1.769-1.165-2.423-3.404-1.552-5.319 0.863-1.909 3.001-2.932 5.021-2.349 1.739 0.503 2.784 1.692 3.093 3.468 0.295 1.687-0.523 3.365-2.001 4.277-0.455 0.28-0.555 0.555-0.323 0.965 1.48 2.625 2.963 5.248 4.449 7.868 0.223 0.395 0.552 0.481 0.941 0.248 3.892-2.32 6.28-5.704 7.145-10.151 0.107-0.54 0.156-1.092 0.233-1.639 0-0.613 0-1.223 0-1.833-0.072-0.528-0.129-1.059-0.219-1.583zM28.833 17.713l-0.056 0.428c-0.041 0.325-0.081 0.652-0.143 0.976-0.692 3.552-2.428 6.273-5.296 8.288-1.113-1.968-2.225-3.935-3.337-5.905 1.608-1.387 2.389-3.472 2.028-5.553-0.432-2.473-1.991-4.22-4.391-4.915-0.543-0.155-1.101-0.232-1.663-0.232-2.38 0-4.555 1.409-5.54 3.589-1.131 2.489-0.465 5.36 1.561 7.112l-3.337 5.904c-3.040-2.148-4.804-5.056-5.388-8.864-0.033-0.22-0.057-0.44-0.081-0.659l-0.024-0.211v-1.493c0.015-0.081 0.027-0.147 0.036-0.212l0.079-0.613c0.041-0.347 0.081-0.693 0.153-1.033 1.24-5.935 6.524-10.237 12.565-10.237 1.076 0 2.157 0.137 3.213 0.407 4.869 1.245 8.568 5.261 9.427 10.24 0.055 0.32 0.096 0.648 0.139 0.973l0.056 0.416v1.595z"></path>
</svg>
