<!-- Generated by IcoMoon.io -->
<svg version="1.1" xmlns="http://www.w3.org/2000/svg" width="32" height="32" viewBox="0 0 32 32">
<path d="M24.533 6.267c-1.067-1.2-2.667-2.133-4.4-2.533-0.267 0-0.4-0.133-0.667-0.133-1.333 0-2.4 1.067-2.4 2.4 0 1.067 0.8 2 1.733 2.267 0.667 0.267 1.333 0.667 1.867 1.333 0.667 0.933 0.8 2.133 0.933 3.867v6.267c0 0 0 0 0 0.133 0.133 1.6-0.133 3.067-0.933 4.133-0.933 1.333-2.267 1.6-3.6 1.6s-2.667-0.4-3.6-1.6c-0.8-1.067-0.933-2.267-0.933-4.133 0-0.133 0-0.4 0-0.533v0c0-1.467-1.2-2.533-2.533-2.533s-2.533 1.2-2.533 2.533v0c0 0.267 0 0.533 0 0.8-0.133 2.667 0.667 5.467 2.267 7.333 1.733 2 4.667 3.067 7.467 3.067s5.467-0.8 7.467-3.2c1.6-1.867 2.267-4.4 2.267-7.067 0-0.133 0-0.267 0-0.4v0-6.4c0-2.533-0.8-5.333-2.4-7.2z"></path>
<path d="M10.267 12.133v0-0.933c0-1.733 0.133-2.8 0.933-3.867 0.533-0.667 1.067-1.067 1.867-1.333 1.067-0.267 1.733-1.2 1.733-2.267 0-1.333-1.067-2.4-2.4-2.4-0.267 0-0.4 0-0.667 0.133-1.733 0.4-3.2 1.2-4.267 2.4-1.6 1.867-2.267 4-2.267 6.933v1.333c0 1.467 1.2 2.533 2.533 2.533s2.533-1.067 2.533-2.533z"></path>
</svg>
