<!-- Generated by IcoMoon.io -->
<svg version="1.1" xmlns="http://www.w3.org/2000/svg" width="32" height="32" viewBox="0 0 32 32">
<path d="M18.749 16c0-1.516-1.233-2.749-2.749-2.749s-2.749 1.233-2.749 2.749 1.233 2.749 2.749 2.749 2.749-1.233 2.749-2.749zM15.083 16c0-0.505 0.409-0.917 0.917-0.917s0.917 0.412 0.917 0.917-0.409 0.917-0.917 0.917-0.917-0.412-0.917-0.917zM30.667 16c0-1.516-1.233-2.749-2.749-2.749s-2.751 1.233-2.751 2.749 1.233 2.749 2.749 2.749 2.751-1.233 2.751-2.749zM27 16c0-0.505 0.409-0.917 0.917-0.917s0.917 0.412 0.917 0.917-0.409 0.917-0.917 0.917-0.917-0.412-0.917-0.917zM6.833 16c0-1.516-1.233-2.749-2.749-2.749-1.517 0-2.751 1.233-2.751 2.749s1.233 2.749 2.749 2.749c1.517 0 2.751-1.233 2.751-2.749zM3.167 16c0-0.505 0.409-0.917 0.917-0.917s0.917 0.412 0.917 0.917-0.409 0.917-0.917 0.917c-0.508 0-0.917-0.412-0.917-0.917z"></path>
</svg>
