<!-- Generated by IcoMoon.io -->
<svg version="1.1" xmlns="http://www.w3.org/2000/svg" width="32" height="32" viewBox="0 0 32 32">
<path d="M6.833 1.333h-3.667c-1.013 0-1.833 0.823-1.833 1.833v25.667c0 1.011 0.82 1.833 1.833 1.833h3.667c1.013 0 1.833-0.823 1.833-1.833v-25.667c0-1.011-0.82-1.833-1.833-1.833zM6.833 28.833h-3.667v-25.667h3.667v25.667zM5.917 5.368c0 0.501-0.412 0.917-0.917 0.917s-0.917-0.416-0.917-0.917c0-0.509 0.411-0.917 0.917-0.917 0.505 0.001 0.917 0.409 0.917 0.917zM16 1.333h-3.667c-1.013 0-1.833 0.823-1.833 1.833v25.667c0 1.011 0.82 1.833 1.833 1.833h3.667c1.013 0 1.833-0.823 1.833-1.833v-25.667c0-1.011-0.82-1.833-1.833-1.833zM16 28.833h-3.667v-25.667h3.667v25.667zM15.083 5.368c0 0.501-0.412 0.917-0.917 0.917s-0.915-0.416-0.915-0.917c0-0.509 0.412-0.917 0.917-0.917s0.915 0.409 0.915 0.917zM23.217 1.369l-3.564 0.757c-0.984 0.204-1.615 1.165-1.405 2.155l5.255 24.943c0.205 0.981 1.172 1.612 2.155 1.407l3.564-0.756c0.984-0.204 1.615-1.165 1.405-2.155l-5.251-24.944c-0.209-0.981-1.173-1.612-2.159-1.407zM28.847 28.093l-3.564 0.749-5.255-24.936 3.564-0.749 5.255 24.936zM23.151 5.481c0.108 0.491-0.208 0.973-0.703 1.075-0.492 0.107-0.975-0.208-1.077-0.699s0.211-0.975 0.703-1.083c0.491-0.099 0.975 0.216 1.077 0.707z"></path>
</svg>
