<!-- Generated by IcoMoon.io -->
<svg version="1.1" xmlns="http://www.w3.org/2000/svg" width="32" height="32" viewBox="0 0 32 32">
<path d="M15.905 27.829c-2.612 3.58-6.273 3.293-8.396 1.756-2.829-2.041-4.167-4.471-0.823-9.317 1.973-2.867 0 0 11.808-16.873 1.567-2.24 4.283-2.665 6.439-1.223 2.087 1.395 2.683 4.144 1.184 6.288-9.193 13.133-6.155 8.853-9.193 13.133-0.967 1.368-2.743 1.428-4.192 0.404-1.285-0.904-2.029-2.683-1.124-3.981 1.459-2.077 3.717-5.224 3.717-5.224 0.268-0.305 0.573-0.479 1.020-0.479h1.365l0.083 0.068c0 0-4.096 5.824-4.337 6.195-0.464 0.703-0.449 1.444 0.303 1.959 0.759 0.521 1.483 0.263 1.969-0.415 1.148-1.62 6.908-9.859 8.647-12.365 1.045-1.495 0.836-3.163-0.463-4.123-1.385-1.012-2.884-0.645-3.973 0.899-3.943 5.571-8.032 11.523-11.748 16.775-2.295 3.251-1.779 5.172 0.079 6.737 1.877 1.592 4.637 0.925 6.145-1.205 2.321-3.268 7.305-10.405 9.337-13.32 0.269-0.297 0.571-0.469 1.015-0.469h1.489l0.043-0.063c-0.12 0.232-7.188 10.456-10.393 14.844z"></path>
</svg>
