<!-- Generated by IcoMoon.io -->
<svg version="1.1" xmlns="http://www.w3.org/2000/svg" width="32" height="32" viewBox="0 0 32 32">
<path d="M20.283 15.335c-0.147-0.541-0.397-1.016-0.745-1.403-0.347-0.396-0.805-0.701-1.377-0.915-0.573-0.219-1.273-0.317-2.105-0.317-0.728 0-1.403 0.053-2.028 0.157-0.62 0.112-1.065 0.228-1.333 0.344 0.227 0.897 1.017 1.443 1.931 1.336 0.485-0.053 0.759-0.063 1.248-0.063 0.532 0 0.972 0.083 1.307 0.236 0.336 0.152 0.596 0.365 0.788 0.624 0.196 0.26 0.327 0.553 0.401 0.891 0.079 0.328 0.111 0.668 0.111 1.012v0.575c-0.057-0.009-0.16-0.033-0.312-0.065-0.147-0.028-0.321-0.060-0.52-0.093-0.203-0.044-0.413-0.072-0.632-0.097-0.225-0.015-0.443-0.031-0.645-0.031-0.655 0-1.281 0.073-1.872 0.2-0.593 0.137-1.115 0.343-1.56 0.625-0.444 0.284-0.799 0.653-1.051 1.113-0.267 0.46-0.393 1.007-0.393 1.641 0 0.676 0.111 1.248 0.331 1.716 0.224 0.479 0.537 0.86 0.939 1.147 0.401 0.289 0.875 0.504 1.421 0.633 0.552 0.136 1.152 0.199 1.804 0.199 0.46 0 0.925-0.013 1.389-0.056 0.469-0.033 0.904-0.071 1.305-0.119 0.399-0.040 0.759-0.091 1.081-0.145 0.317-0.052 0.565-0.089 0.745-0.119v-7.239c-0.001-0.655-0.080-1.244-0.227-1.788zM18.479 22.909c-0.255 0.059-0.565 0.105-0.944 0.129-0.377 0.016-0.813 0.031-1.303 0.031-0.817 0-1.461-0.143-1.935-0.432-0.477-0.288-0.715-0.812-0.715-1.547 0-0.403 0.097-0.731 0.293-0.971 0.189-0.249 0.432-0.444 0.72-0.577 0.289-0.143 0.607-0.24 0.956-0.281 0.349-0.047 0.679-0.064 0.992-0.064 0.473 0 0.883 0.020 1.215 0.073 0.331 0.052 0.573 0.115 0.72 0.192v3.447zM26.997 8.667l-7.332-7.333h-12.832c-1.013 0-1.833 0.823-1.833 1.833v25.667c0 1.011 0.82 1.833 1.833 1.833h18.333c1.013 0 1.833-0.823 1.833-1.833v-20.167h-0.003zM19.667 3.932l4.739 4.735h-4.739v-4.735zM25.167 28.833h-18.333v-25.667h11v5.5c0 1.011 0.82 1.833 1.833 1.833h5.5v18.333z"></path>
</svg>
