<!-- Generated by IcoMoon.io -->
<svg version="1.1" xmlns="http://www.w3.org/2000/svg" width="32" height="32" viewBox="0 0 32 32">
<path d="M28.128 20.307c-1.416-0.188-2.807-0.532-4.144-1.031-1.077-0.407-2.292-0.144-3.112 0.661l-1.872 1.872c-3.693-2.099-6.749-5.147-8.849-8.833l1.873-1.869c0.809-0.817 1.069-2.028 0.664-3.104-0.5-1.34-0.845-2.725-1.032-4.139-0.209-1.46-1.471-2.545-2.952-2.531h-4.423c-0.088 0-0.176 0.005-0.263 0.015-1.624 0.143-2.82 1.573-2.673 3.193 0.484 4.553 2.036 8.923 4.528 12.757 2.265 3.561 5.285 6.573 8.849 8.833 3.832 2.481 8.187 4.028 12.727 4.519 0.092 0.012 0.185 0.016 0.279 0.016 1.629-0.008 2.943-1.336 2.939-2.96v-4.413c0.035-1.493-1.057-2.78-2.539-2.987zM28.833 27.707c0.001 0.617-0.496 1.119-1.108 1.127l-0.043-0.001c-4.271-0.463-8.395-1.925-11.964-4.237-3.332-2.116-6.197-4.975-8.299-8.28-2.335-3.591-3.8-7.725-4.251-11.965-0.024-0.267 0.065-0.553 0.255-0.781s0.459-0.368 0.756-0.393l4.525-0.008c0.583 0 1.057 0.412 1.137 0.959 0.203 1.528 0.583 3.053 1.129 4.519 0.153 0.409 0.056 0.867-0.249 1.175l-1.867 1.86c-0.585 0.583-0.709 1.487-0.299 2.205 2.26 3.968 5.557 7.259 9.535 9.52 0.284 0.16 0.596 0.24 0.905 0.24 0.475 0 0.944-0.185 1.297-0.537l1.872-1.872c0.201-0.196 0.481-0.313 0.779-0.313 0.133 0 0.264 0.027 0.389 0.072 1.469 0.547 2.997 0.928 4.551 1.135 0.549 0.077 0.96 0.56 0.948 1.127v4.452z"></path>
</svg>
