<!-- Generated by IcoMoon.io -->
<svg version="1.1" xmlns="http://www.w3.org/2000/svg" width="32" height="32" viewBox="0 0 32 32">
<path d="M10.499 7.749c-1.515 0-2.748 1.232-2.748 2.749s1.233 2.749 2.748 2.749c1.517 0 2.751-1.232 2.751-2.749s-1.233-2.749-2.751-2.749zM10.499 11.416c-0.505 0-0.916-0.409-0.916-0.917 0-0.505 0.409-0.917 0.916-0.917 0.508 0 0.917 0.412 0.917 0.917 0 0.509-0.409 0.917-0.917 0.917zM8.669 1.333c-4.052 0-7.336 3.281-7.336 7.333v22h22c4.019 0 7.275-3.236 7.324-7.244l0.009 0.007v-22.096h-21.997zM3.167 18.989l5.411 3.789-4.773 3.372c-0.44 0.309-0.637 0.656-0.637 1.192v-8.353zM28.833 23.333c0 3.032-2.467 5.5-5.5 5.5h-20.167l16.965-11.984c0.201-0.143 0.405-0.217 0.611-0.217s0.408 0.075 0.611 0.217l7.481 5.285v1.199zM28.833 19.901l-8.092-5.719-10.573 7.472-7.001-4.901v-8.087c0-3.032 2.468-5.5 5.501-5.5h20.165v16.735z"></path>
</svg>
