<!-- Generated by IcoMoon.io -->
<svg version="1.1" xmlns="http://www.w3.org/2000/svg" width="32" height="32" viewBox="0 0 32 32">
<path d="M28.833 16h-6.416v-5.5c0-1.013-0.821-1.833-1.833-1.833h-9.168c-1.012 0-1.833 0.82-1.833 1.833v1.833h-6.416c-1.012 0-1.833 0.82-1.833 1.833v7.333c0 1.013 0.821 1.833 1.833 1.833h25.667c1.012 0 1.833-0.82 1.833-1.833v-3.667c0-1.013-0.821-1.833-1.833-1.833zM28.833 21.5h-25.667v-7.333h8.251v-3.667h9.167v7.333h8.251v3.667zM16.917 11.416v7.108c-0.004 0.536-0.172 0.895-0.612 1.203l-1.221 0.856v-7.108c0.001-0.536 0.169-0.895 0.611-1.203l1.223-0.856z"></path>
</svg>
