<!-- Generated by IcoMoon.io -->
<svg version="1.1" xmlns="http://www.w3.org/2000/svg" width="32" height="32" viewBox="0 0 32 32">
<path d="M30.667 19.132c0-2.571-1.899-4.716-4.431-5.24l0.001-7.004 1.247-1.781c0.359-0.515 0.404-1.189 0.113-1.747-0.291-0.551-0.865-0.901-1.491-0.901h-6.344c-0.631 0-1.205 0.349-1.492 0.901-0.289 0.557-0.248 1.233 0.113 1.747l1.291 1.843v4.056h-3.216v-2.524c0-0.683-0.413-1.296-1.039-1.553-0.208-0.092-0.425-0.129-0.643-0.129-0.436 0-0.867 0.165-1.188 0.491l-0.837 0.837c-0.115-0.533-0.484-0.989-0.999-1.199-0.211-0.092-0.428-0.129-0.645-0.129-0.437 0-0.867 0.165-1.188 0.491l-0.833 0.837c-0.115-0.532-0.483-0.989-1.003-1.2-0.208-0.091-0.424-0.128-0.641-0.128-0.44 0-0.867 0.165-1.188 0.491l-4.425 4.429c-0.316 0.313-0.493 0.741-0.493 1.184l-0.003 13.124c0 0.925 0.753 1.681 1.683 1.681h17.849c-0.185 1.275-0.34 2.332-0.34 2.332-0.029 0.204 0.067 0.404 0.245 0.517 0.093 0.061 0.203 0.092 0.312 0.092 0.097 0 0.196-0.025 0.283-0.073l3.671-2.039 3.671 2.039c0.185 0.104 0.419 0.097 0.596-0.017 0.179-0.113 0.275-0.315 0.245-0.517 0 0-0.977-6.729-0.985-6.755 1.273-0.987 2.104-2.472 2.104-4.155zM21.111 26.027h-18.095l0.003-13.124 4.424-4.423v3.664l3.667-3.664v3.664l3.669-3.664v4.197h6.579v-6.261l-1.593-2.276h6.344l-1.548 2.216-0.001 7.455c0.161-0.013 0.316-0.047 0.48-0.047-3.108 0-5.629 2.404-5.629 5.368 0 1.684 0.831 3.169 2.104 4.155-0.004 0.012-0.192 1.296-0.403 2.74zM27.251 23.512c0.040 0.257 0.475 3.244 0.751 5.147l-2.316-1.287c-0.201-0.112-0.424-0.168-0.648-0.168-0.223 0-0.445 0.056-0.648 0.168l-2.316 1.287c0.275-1.892 0.707-4.852 0.752-5.137 0.088-0.483-0.1-0.983-0.496-1.291-1.009-0.781-1.588-1.911-1.588-3.1 0-2.224 1.927-4.033 4.296-4.033 2.368 0 4.296 1.809 4.296 4.033 0 1.191-0.577 2.32-1.584 3.099-0.395 0.305-0.583 0.8-0.499 1.283z"></path>
</svg>
