<!-- Generated by IcoMoon.io -->
<svg version="1.1" xmlns="http://www.w3.org/2000/svg" width="32" height="32" viewBox="0 0 32 32">
<path d="M25.777 10.659c0-5.148-4.377-9.325-9.777-9.325s-9.779 4.177-9.779 9.325c0 2.925 1.444 5.505 3.656 7.216-0.017 0.049-1.716 11.733-1.716 11.733-0.051 0.355 0.115 0.701 0.425 0.9 0.164 0.105 0.355 0.159 0.544 0.159 0.169 0 0.34-0.044 0.492-0.128l6.377-3.541 6.376 3.541c0.321 0.181 0.725 0.169 1.035-0.031 0.311-0.197 0.476-0.545 0.425-0.9 0 0-1.697-11.689-1.712-11.735 2.212-1.711 3.653-4.291 3.653-7.215zM16.949 25.289c-0.295-0.164-0.623-0.247-0.949-0.247s-0.653 0.083-0.949 0.247l-4.661 2.587c0.467-3.199 1.332-9.143 1.412-9.649 0.131-0.711-0.143-1.445-0.727-1.899-1.841-1.424-2.897-3.491-2.897-5.669 0-4.064 3.509-7.369 7.823-7.369s7.823 3.305 7.823 7.369c0 2.179-1.056 4.245-2.893 5.668-0.58 0.448-0.855 1.179-0.728 1.887 0.073 0.473 0.944 6.449 1.411 9.663l-4.663-2.587z"></path>
</svg>
