<!-- Generated by IcoMoon.io -->
<svg version="1.1" xmlns="http://www.w3.org/2000/svg" width="32" height="32" viewBox="0 0 32 32">
<path d="M26.997 8.667l-7.333-7.333h-12.831c-1.013 0-1.833 0.823-1.833 1.833v25.667c0 1.011 0.82 1.833 1.833 1.833h18.333c1.013 0 1.833-0.823 1.833-1.833v-20.167h-0.003zM19.667 3.932l4.739 4.735h-4.739v-4.735zM25.167 28.833h-18.333v-25.667h11v5.5c0 1.011 0.82 1.833 1.833 1.833h5.5v18.333z"></path>
<path d="M16.009 11.181v7.876l-6.579-4.315c-0.815 1.24-1.297 2.72-1.297 4.315 0 4.349 3.527 7.876 7.876 7.876s7.876-3.527 7.876-7.876-3.527-7.876-7.876-7.876z"></path>
<path d="M14.688 10c-2.249 0-4.224 1.159-5.373 2.909l5.373 3.524v-6.433z"></path>
</svg>
