<!-- Generated by IcoMoon.io -->
<svg version="1.1" xmlns="http://www.w3.org/2000/svg" width="32" height="32" viewBox="0 0 32 32">
<path d="M13.765 2.408l-1.225-0.847v2.611c0 0.003-0.001 0.007-0.001 0.009v3.756h-1.836v-3.756c0-0.001-0.001-0.003-0.001-0.005v-0.771c0-0.532-0.169-0.888-0.607-1.192l-1.225-0.847v2.811c0 0.001-0.001 0.003-0.001 0.004v3.756h-1.835v-3.756c0-0.003-0.001-0.005-0.001-0.009v-0.572c-0.003-0.532-0.172-0.888-0.609-1.192l-1.225-0.847v7.295c0 2.216 1.579 4.069 3.671 4.496v13.648c0 0.001 0.001 0.003 0.001 0.005v1.605c0.001 0.532 0.171 0.888 0.608 1.192l1.225 0.847v-3.645c0-0.001 0.001-0.003 0.001-0.004v-13.649c2.091-0.427 3.669-2.279 3.671-4.495 0 0 0-0.001 0-0.001s0 0 0 0v-5.255c-0.003-0.532-0.172-0.888-0.609-1.192zM9.785 11.608c-1.196 0-2.216-0.767-2.595-1.836h5.189c-0.379 1.068-1.399 1.836-2.595 1.836z"></path>
<path d="M26.617 4.94v-1.153c-0.001-0.532-0.171-0.888-0.608-1.192l-1.225-0.847v0.004c-0.001-0.003-0.003-0.004-0.004-0.007-2.261 1.357-3.667 3.811-3.667 6.479v6.908c0 2.216 1.579 4.069 3.671 4.496v8.143c0 0.003 0.001 0.005 0.001 0.009v0.831c0.001 0.532 0.171 0.888 0.608 1.192l1.225 0.847v-2.879c0-0.161 0-0.777 0-1.704 0-4.851 0-18.329 0-21.113 0.001-0.005 0-0.009-0.001-0.013zM24.784 17.727c-1.068-0.379-1.835-1.399-1.835-2.596v-6.907c0-1.631 0.677-3.139 1.835-4.204v13.707z"></path>
</svg>
