<!-- Generated by IcoMoon.io -->
<svg version="1.1" xmlns="http://www.w3.org/2000/svg" width="32" height="32" viewBox="0 0 32 32">
<path d="M20.431 1.333l-0.856 1.221c-0.307 0.441-0.665 0.611-1.203 0.612h-4.935c-0.536-0.001-0.895-0.171-1.203-0.612l-0.856-1.221h9.052zM24.265 2.796l-0.257 1.469c-0.095 0.531 0.039 0.904 0.416 1.284l3.491 3.491c0.38 0.377 0.752 0.512 1.284 0.416l1.468-0.259-6.401-6.401zM1.333 9.197l1.468 0.257c0.531 0.095 0.903-0.039 1.283-0.416l3.491-3.491c0.379-0.38 0.512-0.752 0.417-1.284l-0.257-1.468-6.401 6.401zM15.083 10.768v8.325l1.221-0.856c0.44-0.308 0.609-0.667 0.612-1.203v-8.325l-1.223 0.856c-0.44 0.308-0.608 0.667-0.611 1.203zM29.467 17.427c0 7.315-6.029 13.24-13.467 13.24-7.436 0-13.465-5.925-13.465-13.24 0-3.268 1.216-6.248 3.212-8.552l1.284-1.309c2.168-1.903 4.968-3.129 8.052-3.333h1.833c3.084 0.204 5.884 1.431 8.053 3.333l1.284 1.309c1.997 2.305 3.213 5.284 3.213 8.552zM27.633 17.427c0-6.289-5.219-11.407-11.633-11.407s-11.632 5.119-11.632 11.407 5.217 11.407 11.632 11.407 11.633-5.117 11.633-11.407z"></path>
</svg>
