<!-- Generated by IcoMoon.io -->
<svg version="1.1" xmlns="http://www.w3.org/2000/svg" width="32" height="32" viewBox="0 0 32 32">
<path d="M30.128 9.004l-7.127-7.132c-0.344-0.344-0.812-0.539-1.299-0.539h-15.685c-2.581 0-4.684 2.099-4.684 4.688v19.959c0 2.588 2.103 4.687 4.684 4.687h19.965c2.581 0 4.684-2.099 4.684-4.688v-15.68c0-0.488-0.195-0.951-0.539-1.295zM23.5 28.833h-15v-8.833h15v8.833zM28.833 25.979c0 1.575-1.276 2.855-2.851 2.855h-0.649v-9.749c0-0.509-0.412-0.917-0.917-0.917h-16.832c-0.505 0-0.917 0.408-0.917 0.916v9.749h-0.649c-1.575 0-2.851-1.28-2.851-2.855v-19.956c0-1.575 1.276-2.855 2.851-2.855l0.665 0.033-0.016 8.384c0 0.509 0.412 0.917 0.917 0.917h10.268l-0.857-1.225c-0.257-0.368-0.575-0.515-0.976-0.559l-0.917-0.051h-6.601l0.016-7.467 13.188-0.033 7.131 7.132v15.68z"></path>
</svg>
