<!-- Generated by IcoMoon.io -->
<svg version="1.1" xmlns="http://www.w3.org/2000/svg" width="32" height="32" viewBox="0 0 32 32">
<path d="M23.333 19.555c-1.649 0-3.111 0.751-4.123 1.917l-5.456-3.387c0.264-0.648 0.411-1.348 0.411-2.087 0-0.741-0.148-1.451-0.413-2.095l5.44-3.401c1.007 1.176 2.48 1.943 4.14 1.943 3.033 0 5.5-2.493 5.5-5.557 0.001-3.061-2.465-5.555-5.499-5.555s-5.5 2.493-5.5 5.555c0 0.725 0.145 1.413 0.4 2.057l-5.455 3.409c-1.007-1.164-2.467-1.909-4.112-1.909-3.033 0-5.5 2.489-5.5 5.553s2.467 5.555 5.5 5.555c1.648 0 3.111-0.748 4.121-1.915l5.456 3.387c-0.263 0.648-0.411 1.344-0.411 2.084 0 3.064 2.467 5.557 5.5 5.557s5.5-2.493 5.5-5.556-2.467-5.556-5.5-5.556zM23.333 3.167c2.024 0 3.667 1.665 3.667 3.721 0 2.057-1.643 3.723-3.667 3.723-1.007 0-1.919-0.417-2.581-1.083-0.211-0.207-0.387-0.452-0.539-0.708-0.013-0.017-0.021-0.043-0.035-0.067-0.141-0.255-0.259-0.52-0.343-0.807-0.1-0.339-0.169-0.688-0.169-1.057 0-2.057 1.643-3.723 3.667-3.723zM12.156 17.089c-0.093 0.305-0.22 0.581-0.371 0.849-0.001 0.003-0.005 0.004-0.007 0.005-0.157 0.263-0.344 0.508-0.56 0.721v0c-0.661 0.652-1.559 1.056-2.552 1.056-2.024 0-3.667-1.665-3.667-3.723s1.643-3.721 3.667-3.721c0.991 0 1.889 0.403 2.548 1.052v0c0.435 0.429 0.752 0.963 0.937 1.575 0.109 0.349 0.183 0.705 0.183 1.095-0.001 0.38-0.075 0.744-0.179 1.091zM23.333 28.833c-2.024 0-3.667-1.667-3.667-3.723 0-0.379 0.073-0.744 0.177-1.088 0.093-0.296 0.215-0.58 0.369-0.841 0.001-0.011 0.003-0.015 0.008-0.017 0.156-0.259 0.343-0.5 0.559-0.716 0.66-0.655 1.556-1.059 2.553-1.059 2.024 0 3.667 1.664 3.667 3.721 0 2.056-1.643 3.723-3.667 3.723z"></path>
</svg>
