<!-- Generated by IcoMoon.io -->
<svg version="1.1" xmlns="http://www.w3.org/2000/svg" width="32" height="32" viewBox="0 0 32 32">
<path d="M26.413 26.32c2.631-2.645 4.253-6.291 4.253-10.32 0-8.101-6.564-14.667-14.667-14.667-4.027 0-7.675 1.628-10.324 4.249l-1.215 1.385c-1.953 2.492-3.128 5.62-3.128 9.032 0 8.101 6.564 14.667 14.667 14.667 3.412 0 6.544-1.175 9.036-3.128l1.377-1.219zM16 3.167c7.076 0 12.833 5.757 12.833 12.833 0 3.517-1.421 6.703-3.721 9.024l-18.135-18.136c2.32-2.296 5.509-3.721 9.023-3.721zM16 28.833c-7.076 0-12.833-5.757-12.833-12.833 0-2.899 0.977-5.568 2.608-7.727l17.947 17.952c-2.151 1.631-4.819 2.608-7.721 2.608z"></path>
</svg>
