<!-- Generated by IcoMoon.io -->
<svg version="1.1" xmlns="http://www.w3.org/2000/svg" width="32" height="32" viewBox="0 0 32 32">
<path d="M13.995 8.667c2.023 0 3.667-1.645 3.667-3.667s-1.644-3.667-3.667-3.667-3.667 1.645-3.667 3.667 1.644 3.667 3.667 3.667zM13.995 3.167c1.012 0 1.833 0.82 1.833 1.833s-0.821 1.833-1.833 1.833-1.833-0.82-1.833-1.833 0.821-1.833 1.833-1.833zM22.427 20.12c-0.164-0.281-0.465-0.453-0.789-0.453h-6.759v-3.667h5.5l-0.856-1.223c-0.257-0.367-0.575-0.515-0.977-0.564l-0.917-0.047h-2.749v-1.833c-0.048-0.403-0.303-0.72-0.671-0.977l-1.187-0.856v3.713c-4.339 0.241-7.792 3.805-7.792 8.203 0 4.556 3.693 8.251 8.251 8.251 4.524 0 8.191-3.645 8.24-8.159l2.66 4.421c0.26 0.279 0.549 0.448 0.979 0.451l1.413 0.005-4.345-7.265zM13.479 28.833c-3.537 0-6.416-2.879-6.416-6.416 0-3.38 2.637-6.131 5.959-6.369v4.536c0 0.507 0.435 0.917 0.941 0.917h5.84c0.043 0.303 0.092 0.603 0.092 0.917 0 3.536-2.877 6.415-6.416 6.415z"></path>
</svg>
