<!-- Generated by IcoMoon.io -->
<svg version="1.1" xmlns="http://www.w3.org/2000/svg" width="32" height="32" viewBox="0 0 32 32">
<path d="M16.039 0.039c-8.837 0-16 7.163-16 16v0c0 8.837 7.163 16 16 16v0c8.837 0 16-7.163 16-16v0c0-8.837-7.163-16-16-16v0zM16.039 4.685c6.251 0 11.315 5.065 11.315 11.315 0 3.109-1.252 5.92-3.281 7.961l-1.063 0.943c-1.923 1.507-4.339 2.411-6.971 2.411-6.251 0-11.318-5.065-11.318-11.315 0-2.632 0.907-5.046 2.414-6.969l0.938-1.068c2.044-2.022 4.859-3.279 7.966-3.279zM16.039 6.099c-2.711 0-5.171 1.098-6.961 2.87l13.99 13.995c1.775-1.791 2.872-4.25 2.872-6.964 0-5.459-4.442-9.901-9.901-9.901zM8.148 10.039c-1.258 1.665-2.010 3.725-2.010 5.961 0 5.459 4.442 9.901 9.901 9.901 2.239 0 4.296-0.755 5.956-2.013l-13.846-13.849z"></path>
</svg>
