<!-- Generated by IcoMoon.io -->
<svg version="1.1" xmlns="http://www.w3.org/2000/svg" width="32" height="32" viewBox="0 0 32 32">
<path d="M11.825 23.805l-0.565-0.236c-2.585-1.561-4.343-4.357-4.343-7.595 0-0.081 0.013-0.152 0.019-0.227l-2.499 3.568c-0.297 0.421-0.625 0.612-1.139 0.612h-1.433l4.575-6.533c0.105-0.145 0.227-0.236 0.344-0.328v0c0.18-0.123 0.373-0.212 0.609-0.241l0.407-0.023 0.4 0.023c0.259 0.039 0.472 0.139 0.659 0.285 0.103 0.079 0.203 0.148 0.293 0.28l0.805 1.149h0.003l3.775 5.388h-1.432c-0.513 0-0.841-0.191-1.139-0.612l-2.473-3.528c-0.001 0.059-0.013 0.121-0.013 0.187 0 3.359 2.323 6.163 5.443 6.956l-1.213 0.78c-0.376 0.215-0.709 0.215-1.081 0.095zM24.128 14.717l-1.279-0.656c0.879 3.093-0.391 6.511-3.305 8.191-0.053 0.028-0.111 0.052-0.168 0.079l1.825-3.907c0.211-0.471 0.209-0.844-0.045-1.292l-0.715-1.243-3.375 7.245c-0.063 0.133-0.075 0.261-0.091 0.387-0.035 0.241-0.019 0.473 0.079 0.715l0.188 0.36 0.219 0.34c0.141 0.189 0.317 0.311 0.512 0.407v-0.001c0.141 0.055 0.273 0.119 0.455 0.139l7.947 0.693-0.716-1.24c-0.256-0.451-0.585-0.639-1.1-0.687l-4.336-0.372c0.064-0.040 0.133-0.065 0.2-0.105 2.804-1.616 4.347-4.532 4.409-7.551l-0.084-0.616c-0.081-0.381-0.248-0.669-0.62-0.885zM10.731 9.495l0.065 1.436c2.245-2.301 5.839-2.915 8.748-1.228 0.056 0.029 0.101 0.063 0.153 0.101l-4.296 0.369c-0.512 0.048-0.84 0.24-1.093 0.689l-0.716 1.239 7.955-0.697c0.149-0.017 0.265-0.068 0.384-0.115 0.223-0.093 0.419-0.22 0.577-0.429l0.217-0.337 0.183-0.361c0.095-0.215 0.117-0.428 0.103-0.647l-0.001 0.003c-0.024-0.156-0.033-0.301-0.112-0.468l-3.369-7.228-0.716 1.241c-0.26 0.449-0.261 0.828-0.045 1.291l1.841 3.947c-0.063-0.039-0.119-0.088-0.183-0.121-2.808-1.624-6.105-1.501-8.755-0.043l-0.483 0.377c-0.289 0.263-0.456 0.553-0.457 0.981z"></path>
</svg>
