<!-- Generated by IcoMoon.io -->
<svg version="1.1" xmlns="http://www.w3.org/2000/svg" width="32" height="32" viewBox="0 0 32 32">
<path d="M29.82 6.555l0.837 1.195h-9.164c-0.505 0-0.917-0.411-0.917-0.917s0.412-0.917 0.917-0.917l7.105 0.001c0.539 0.001 0.915 0.2 1.221 0.639zM30.657 16.916l-0.837-1.196c-0.307-0.439-0.683-0.636-1.221-0.636h-10.771c-0.505 0-0.917 0.411-0.917 0.917s0.411 0.917 0.917 0.917l12.829-0.003c0.004 0.001 0.005 0 0.009 0h-0.009zM28.599 24.251l-3.44-0.001c-0.507 0-0.917 0.411-0.917 0.917s0.411 0.917 0.917 0.917h5.499l-0.837-1.195c-0.307-0.44-0.683-0.639-1.221-0.639zM15.079 9.584c-1.195 0-2.201-0.765-2.581-1.833h-9.107c-0.536 0-0.912-0.199-1.22-0.639l-0.837-1.195h11.165c0.379-1.068 1.387-1.833 2.581-1.833 1.517 0 2.749 1.231 2.749 2.749s-1.233 2.751-2.751 2.751zM15.079 5.917c-0.504 0-0.917 0.412-0.917 0.917s0.412 0.917 0.917 0.917c0.505 0 0.917-0.412 0.917-0.917s-0.412-0.917-0.917-0.917zM11.413 18.749c-1.195 0-2.201-0.765-2.581-1.833h-5.441c-0.536 0-0.912-0.199-1.22-0.639l-0.837-1.195h7.499c0.379-1.068 1.387-1.833 2.581-1.833 1.519 0 2.749 1.231 2.749 2.749s-1.232 2.751-2.749 2.751zM11.413 15.083c-0.504 0-0.916 0.412-0.916 0.917s0.411 0.917 0.916 0.917c0.505 0 0.917-0.412 0.917-0.917s-0.412-0.917-0.917-0.917zM18.745 27.917c-1.195 0-2.203-0.765-2.581-1.833h-12.773c-0.536 0-0.912-0.199-1.22-0.639l-0.837-1.195h14.831c0.379-1.068 1.387-1.833 2.581-1.833 1.517 0 2.749 1.231 2.749 2.749s-1.233 2.751-2.749 2.751zM18.745 24.251c-0.505 0-0.917 0.412-0.917 0.917s0.412 0.917 0.917 0.917c0.505 0 0.916-0.412 0.916-0.917s-0.411-0.917-0.916-0.917z"></path>
</svg>
