<!-- Generated by IcoMoon.io -->
<svg version="1.1" xmlns="http://www.w3.org/2000/svg" width="32" height="32" viewBox="0 0 32 32">
<path d="M16 3.2c-7.067 0-12.8 5.733-12.8 12.8s5.733 12.8 12.8 12.8 12.8-5.733 12.8-12.8-5.733-12.8-12.8-12.8zM16 26.933c-6 0-10.933-4.933-10.933-10.933s4.933-10.933 10.933-10.933 10.933 4.933 10.933 10.933-4.933 10.933-10.933 10.933z"></path>
<path d="M11.067 14.933c1.2 0 2-0.933 2-2 0-1.2-0.933-2-2-2-1.2 0-2 0.933-2 2s0.933 2 2 2z"></path>
<path d="M20.8 14.933c1.2 0 2-0.933 2-2 0-1.2-0.933-2-2-2-1.2 0-2 0.933-2 2-0.133 1.067 0.8 2 2 2z"></path>
<path d="M22.267 17.733c-0.267 0-0.533 0.267-0.667 0.533v0c-1.067 2.267-3.2 3.733-5.733 3.733-2.4 0-4.533-1.467-5.6-3.6-0.133-0.4-0.533-0.667-0.933-0.533-0.533 0-0.8 0.533-0.8 0.933 0 0 0 0 0 0.133v0c0 0 0 0.133 0.133 0.133 0 0 0 0.133 0 0.133 1.067 2.667 3.867 4.667 7.2 4.667 3.2 0 6-1.867 7.2-4.533 0.133-0.133 0.267-0.4 0.267-0.667-0.133-0.533-0.533-0.933-1.067-0.933z"></path>
</svg>
