<!-- Generated by IcoMoon.io -->
<svg version="1.1" xmlns="http://www.w3.org/2000/svg" width="32" height="32" viewBox="0 0 32 32">
<path d="M27.345 16l-9.087-12.86h-0.007l-0.839-1.203c-0.095-0.125-0.199-0.204-0.307-0.287-0.199-0.152-0.417-0.261-0.688-0.295l-0.419-0.023-0.424 0.024c-0.244 0.029-0.448 0.117-0.635 0.243l0.001 0.009c-0.121 0.093-0.248 0.181-0.359 0.332l-9.929 14.059 9.087 12.86h0.007l0.839 1.203c0.095 0.125 0.199 0.204 0.307 0.287 0.199 0.152 0.417 0.261 0.688 0.295l0.419 0.023 0.424-0.024c0.244-0.029 0.447-0.119 0.635-0.244l-0.001-0.009c0.121-0.093 0.248-0.181 0.359-0.332l9.929-14.057zM16 28.885l-8.664-12.251c-0.312-0.437-0.657-0.635-1.191-0.635h0.001c0.539 0 0.883-0.197 1.191-0.635l8.663-12.251 8.664 12.251c0.312 0.437 0.657 0.635 1.191 0.635h-0.001c-0.539 0-0.883 0.197-1.191 0.635l-8.663 12.251z"></path>
</svg>
