<!-- Generated by IcoMoon.io -->
<svg version="1.1" xmlns="http://www.w3.org/2000/svg" width="32" height="32" viewBox="0 0 32 32">
<path d="M1.333 24.621l0.857-1.224c0.305-0.437 0.664-0.607 1.203-0.609h25.213c0.539 0.003 0.897 0.172 1.203 0.609l0.857 1.224h-29.333zM30.651 17.751c0.088 0.68-0.203 1.349-0.767 1.745l-1.221 0.855c-0.917 0.64-1.932 0.776-3.012 0.385l-19.417-7.063c0.012 0.083 0 1.781 0 1.781l-1.172-0.857c-0.437-0.309-0.607-0.664-0.609-1.203v-0.571c-0.544-0.413-0.931-0.976-1.125-1.695l-0.384-1.437c-0.176-0.663 0.027-1.368 0.535-1.829 0.504-0.461 1.221-0.604 1.864-0.372l24.12 8.776c0.644 0.24 1.1 0.813 1.189 1.484zM28.833 17.996l-24.119-8.784 0.385 1.44c0.139 0.527 0.416 0.8 0.92 0.989l20.251 7.367c0.504 0.18 0.901 0.148 1.341-0.164l1.221-0.848z"></path>
</svg>
