<!-- Generated by IcoMoon.io -->
<svg version="1.1" xmlns="http://www.w3.org/2000/svg" width="32" height="32" viewBox="0 0 32 32">
<path d="M16 10.219c-3.239 0-5.868 2.625-5.868 5.867s2.629 5.869 5.868 5.869c3.24 0 5.869-2.627 5.869-5.868s-2.629-5.868-5.869-5.868zM16 20.105c-2.219 0-4.023-1.805-4.023-4.020s1.804-4.017 4.023-4.017 4.024 1.804 4.024 4.019-1.805 4.019-4.024 4.019zM16.92 1.333v5.968c0 0.54-0.195 0.917-0.637 1.229l-1.203 0.845v-5.975c0.001-0.54 0.195-0.917 0.639-1.228l1.201-0.84zM26.956 6.432l-4.223 4.217c-0.38 0.387-0.789 0.513-1.32 0.421l-1.445-0.256 4.221-4.219c0.38-0.387 0.788-0.512 1.32-0.42l1.447 0.256zM30.577 17.007h-5.969c-0.541 0-0.917-0.195-1.229-0.636l-0.837-1.203h5.965c0.541 0 0.917 0.196 1.229 0.636l0.841 1.203zM25.496 27.207l-4.223-4.217c-0.379-0.379-0.507-0.793-0.416-1.317l0.256-1.452 4.223 4.225c0.379 0.38 0.507 0.785 0.416 1.321l-0.256 1.44zM16.92 22.624v5.975c0 0.54-0.195 0.917-0.637 1.228l-1.203 0.84v-5.968c0.001-0.54 0.195-0.917 0.639-1.229l1.201-0.845zM11.751 21.528l-4.217 4.219c-0.384 0.387-0.788 0.509-1.319 0.417l-1.447-0.256 4.217-4.225c0.384-0.379 0.788-0.503 1.32-0.411l1.445 0.256zM9.459 17.009h-5.965c-0.541-0.003-0.917-0.197-1.229-0.639l-0.841-1.203h5.969c0.541 0 0.917 0.196 1.229 0.636l0.837 1.205zM6.071 4.848l4.217 4.217c0.384 0.379 0.511 0.785 0.416 1.32l-0.257 1.452-4.217-4.225c-0.383-0.383-0.511-0.785-0.416-1.32l0.257-1.444z"></path>
</svg>
