<!-- Generated by IcoMoon.io -->
<svg version="1.1" xmlns="http://www.w3.org/2000/svg" width="32" height="32" viewBox="0 0 32 32">
<path d="M18.589 30.125c-0.724 0.721-1.889 0.721-2.613 0l-14.103-14.1c-0.428-0.429-0.62-1.048-0.509-1.647l1.689-9.071c0.068-0.416 0.221-0.988 0.744-1.509 0.427-0.428 1.017-0.727 1.617-0.831l8.979-1.604c0.591-0.109 1.203 0.084 1.631 0.513l14.101 14.1c0.723 0.72 0.721 1.889 0 2.609l-11.536 11.539zM14.716 3.183l-8.993 1.609c-0.243 0.037-0.477 0.172-0.62 0.315s-0.195 0.293-0.235 0.536l-1.688 9.073 14.104 14.104 11.537-11.535-14.105-14.103zM6.407 6.408c-0.36 0.363-0.36 0.945 0 1.308 0.361 0.356 0.944 0.356 1.307 0 0.361-0.363 0.361-0.945 0-1.308-0.361-0.356-0.944-0.356-1.307 0z"></path>
</svg>
