<!-- Generated by IcoMoon.io -->
<svg version="1.1" xmlns="http://www.w3.org/2000/svg" width="32" height="32" viewBox="0 0 32 32">
<path d="M7.699 30.665c-1.703 0-3.303-0.661-4.501-1.861-1.203-1.2-1.864-2.799-1.864-4.503s0.661-3.304 1.863-4.504l2.881-2.883c1.2-1.2 2.8-1.861 4.503-1.861s3.303 0.661 4.503 1.861c2.483 2.484 2.483 6.525 0 9.007l-2.881 2.883c-1.199 1.2-2.799 1.861-4.503 1.861zM10.581 16.919c-1.201 0-2.332 0.469-3.183 1.317l-2.88 2.88c-0.851 0.851-1.319 1.98-1.319 3.183s0.469 2.333 1.319 3.183c0.849 0.851 1.98 1.319 3.18 1.319 1.203 0 2.333-0.468 3.181-1.317l2.883-2.883c0.851-0.849 1.319-1.98 1.319-3.181 0-1.203-0.469-2.332-1.319-3.181s-1.98-1.319-3.181-1.319zM21.417 16.947c-1.703 0-3.303-0.661-4.503-1.861-1.201-1.2-1.864-2.8-1.864-4.504 0-1.701 0.663-3.301 1.864-4.503l2.881-2.883c1.203-1.201 2.801-1.863 4.505-1.863 1.703 0 3.303 0.661 4.503 1.861 2.483 2.483 2.483 6.525 0 9.007l-2.883 2.883c-1.2 1.201-2.8 1.863-4.504 1.863zM24.301 3.199c-1.201 0-2.332 0.468-3.183 1.317l-2.88 2.883c-0.852 0.849-1.319 1.98-1.319 3.181s0.468 2.332 1.319 3.181c0.849 0.852 1.98 1.319 3.181 1.319s2.332-0.468 3.181-1.319l2.883-2.88c0.851-0.851 1.317-1.979 1.317-3.183 0-1.2-0.468-2.332-1.317-3.183s-1.981-1.317-3.183-1.317zM9.977 7.865l1.139-1.139c0.337-0.339 0.451-0.707 0.368-1.191l-0.592-3.203-1.14 1.139c-0.336 0.335-0.449 0.704-0.367 1.188l0.592 3.205zM6.716 11.104l1.139-1.139-3.2-0.591c-0.101-0.019-0.199-0.028-0.293-0.028-0.348 0-0.636 0.125-0.903 0.392l-1.139 1.14 3.2 0.591c0.099 0.017 0.196 0.027 0.289 0.027 0.352 0 0.64-0.125 0.907-0.392zM28.529 22.248l1.139-1.139-3.2-0.591c-0.101-0.019-0.197-0.028-0.292-0.028-0.348 0-0.635 0.125-0.903 0.395l-1.139 1.139 3.199 0.589c0.099 0.017 0.195 0.027 0.287 0.027 0.353-0.001 0.643-0.125 0.909-0.392zM21.121 29.68l1.139-1.139c0.337-0.339 0.451-0.707 0.367-1.191l-0.592-3.205-1.139 1.139c-0.336 0.336-0.449 0.704-0.368 1.189l0.593 3.207z"></path>
</svg>
