<!-- Generated by IcoMoon.io -->
<svg version="1.1" xmlns="http://www.w3.org/2000/svg" width="32" height="32" viewBox="0 0 32 32">
<path d="M11.444 15.033v-7.404c0-2.425 2.036-4.399 4.544-4.399 2.505 0 4.543 1.972 4.571 4.517 0.029 0.056 0.199 0.353 0.56 0.607l1.311 0.915v-1.64c-0.001-3.469-2.891-6.296-6.443-6.296s-6.443 2.827-6.443 6.296v7.405h-1.081c-1.659 0-3.008 1.357-3.008 3.009v12.623h18.056c1.675 0 3.036-1.349 3.036-3.008v-12.625h-15.103zM24.663 27.659c0 0.623-0.516 1.12-1.152 1.12h-16.172l-0.001-10.725c0-0.625 0.503-1.133 1.125-1.133h16.2v10.739z"></path>
</svg>
