<!-- Generated by IcoMoon.io -->
<svg version="1.1" xmlns="http://www.w3.org/2000/svg" width="32" height="32" viewBox="0 0 32 32">
<path d="M16 1.333c-4.044 0-7.333 3.289-7.333 7.332 0 4.044 3.289 7.335 7.333 7.335s7.333-3.291 7.333-7.335c0-4.043-3.289-7.332-7.333-7.332zM16 14.167c-3.037 0-5.5-2.463-5.5-5.501 0-3.036 2.463-5.499 5.5-5.499 3.036 0 5.5 2.463 5.5 5.499 0 3.039-2.464 5.501-5.5 5.501zM21.842 21.461l-11.342 0.039c-2.528 0.009-4.584 2.148-4.584 4.792v2.441c-0.033 0.464-0.208 0.816-0.609 1.095l-1.224 0.839v-4.375c0-3.653 2.879-6.625 6.416-6.625l11.344-0.001z"></path>
<path d="M25.355 25.187v4.599c0 0.232-0.085 0.394-0.274 0.528l-1.131 0.36v-5.487h-5.044c-0.232 0-0.394-0.085-0.528-0.274l-0.414-1.125h6.013l-0.027-4.872c-0.001-0.232 0.077-0.394 0.455-0.474l0.949-0.414 0.027 5.76h4.34c0.232 0.001 0.448 0.234 0.582 0.423l0.359 0.976z"></path>
</svg>
