<!-- Generated by IcoMoon.io -->
<svg version="1.1" xmlns="http://www.w3.org/2000/svg" width="32" height="32" viewBox="0 0 32 32">
<path d="M30.667 16c0 8.099-6.567 14.667-14.667 14.667s-14.667-6.568-14.667-14.667 6.567-14.667 14.667-14.667 14.667 6.568 14.667 14.667zM28.833 16c0-7.076-5.757-12.833-12.833-12.833s-12.833 5.757-12.833 12.833 5.757 12.833 12.833 12.833 12.833-5.757 12.833-12.833zM25.167 16c0 5.063-4.104 9.167-9.167 9.167s-9.167-4.104-9.167-9.167 4.104-9.167 9.167-9.167 9.167 4.104 9.167 9.167zM23.333 16c0-4.044-3.289-7.333-7.333-7.333s-7.333 3.289-7.333 7.333 3.289 7.333 7.333 7.333 7.333-3.289 7.333-7.333zM16 10.5c-0.507 0-0.917 0.411-0.917 0.917s0.411 0.916 0.917 0.916 0.917-0.411 0.917-0.917-0.411-0.916-0.917-0.916zM10.768 14.301c-0.157 0.481 0.108 0.997 0.587 1.155 0.484 0.156 1-0.107 1.157-0.588 0.156-0.481-0.108-1-0.589-1.155-0.481-0.159-0.999 0.105-1.155 0.588zM12.767 20.451c0.408 0.297 0.98 0.205 1.277-0.201 0.299-0.411 0.208-0.983-0.2-1.283-0.412-0.297-0.985-0.205-1.281 0.203-0.297 0.411-0.205 0.984 0.204 1.281zM19.233 20.451c0.409-0.297 0.499-0.869 0.203-1.279-0.297-0.412-0.872-0.5-1.281-0.205-0.411 0.301-0.5 0.872-0.204 1.283 0.299 0.409 0.873 0.499 1.283 0.201zM21.232 14.301c-0.157-0.481-0.673-0.744-1.153-0.588-0.483 0.157-0.747 0.675-0.592 1.156 0.16 0.483 0.675 0.745 1.157 0.591 0.48-0.157 0.744-0.677 0.588-1.159zM16 14.167c-1.012 0-1.833 0.82-1.833 1.833s0.821 1.833 1.833 1.833 1.833-0.82 1.833-1.833-0.821-1.833-1.833-1.833z"></path>
</svg>
