<!-- Generated by IcoMoon.io -->
<svg version="1.1" xmlns="http://www.w3.org/2000/svg" width="32" height="32" viewBox="0 0 32 32">
<path d="M16.927 26.065c0 0.511-0.421 0.917-0.927 0.933v0.005c-0.505-0.009-0.927-0.424-0.927-0.927 0-0.516 0.411-0.937 0.927-0.937v-0.004c0.516 0 0.927 0.413 0.927 0.929zM16 18.524c-1.792 0.001-3.583 0.544-5.113 1.627l1.245 0.792c0.303 0.171 0.584 0.185 0.871 0.132 0.948-0.451 1.969-0.683 2.997-0.684v-0.004c1.028 0.001 2.049 0.233 2.997 0.684 0.287 0.053 0.568 0.039 0.871-0.132l1.245-0.8c-1.531-1.075-3.321-1.617-5.113-1.619v0.004zM16 11.903v0.004c-3.505 0.009-7.005 1.207-9.867 3.588-0.017 0.020-0.028 0.043-0.044 0.056l1.397 0.6c0.408 0.145 0.747 0.087 1.092-0.087 2.253-1.487 4.827-2.275 7.42-2.291v-0.004c2.593 0.008 5.167 0.804 7.42 2.291 0.345 0.175 0.685 0.233 1.092 0.087l1.397-0.6c-0.016-0.021-0.027-0.036-0.044-0.056-2.859-2.383-6.359-3.579-9.864-3.588zM30.625 10.8c-4.169-3.673-9.397-5.509-14.625-5.509v0.004c-5.228 0-10.456 1.836-14.625 5.517-0.016 0.011-0.025 0.033-0.041 0.047l0.004-0.004 1.461 0.569c0.305 0.103 0.563 0.063 0.811-0.013 3.639-2.823 8.009-4.252 12.391-4.252v-0.004c4.381 0 8.752 1.429 12.389 4.244 0.248 0.083 0.505 0.116 0.811 0.021l1.461-0.569 0.005 0.004c-0.016-0.013-0.025-0.036-0.041-0.055z"></path>
</svg>
