<!-- Generated by IcoMoon.io -->
<svg version="1.1" xmlns="http://www.w3.org/2000/svg" width="34" height="32" viewBox="0 0 34 32">
<path d="M20.812 4.598l-2.207-3.065-0.705-1.012c-0.076-0.093-0.161-0.174-0.257-0.243l-0.004-0.003c-0.156-0.134-0.348-0.231-0.559-0.274l-0.008-0.001h-0.705c-0.204 0.029-0.386 0.105-0.54 0.217l0.003-0.002c-0.113 0.077-0.209 0.168-0.289 0.273l-0.002 0.003-2.912 4.107h-12.582v27.402h33.716v-27.402zM15.893 2.605c0.183 0.267 0.484 0.441 0.827 0.444h0.001c0.341-0.011 0.64-0.183 0.825-0.441l0.002-0.003 1.395 1.992h-4.444zM2.299 29.946h-0.276c0.004-0.041 0.006-0.089 0.006-0.138s-0.002-0.097-0.006-0.144l0 0.006v-22.713c0.004-0.041 0.006-0.089 0.006-0.138s-0.002-0.097-0.006-0.144l0 0.006h29.671c-0.004 0.041-0.006 0.089-0.006 0.138s0.002 0.097 0.006 0.144l-0-0.006v22.743c-0.004 0.041-0.006 0.089-0.006 0.138s0.002 0.097 0.006 0.144l-0-0.006h-0.276z"></path>
<path d="M3.939 9.195v18.391h25.839v-18.391zM27.479 11.188h0.276c-0.003 0.037-0.005 0.079-0.005 0.123s0.002 0.086 0.005 0.128l-0-0.006v3.249l-2.59-1.854-12.153 8.628-7.034-4.95v-5.073c0-0.092 0-0.184 0-0.276l0.199 0.031zM6.023 25.533c0-0.077 0-0.153 0-0.245v-6.207l5.195 3.632-4 2.789h-1.042zM10.912 25.533l13.609-9.609c0.189-0.152 0.433-0.244 0.697-0.244s0.508 0.092 0.7 0.246l-0.002-0.002 1.87 1.333v8.031c-0.004 0.041-0.006 0.089-0.006 0.138s0.002 0.097 0.006 0.144l-0-0.006h-0.276z"></path>
<path d="M12.306 18.391c0.027 0.001 0.059 0.001 0.091 0.001 1.744 0 3.157-1.413 3.157-3.157s-1.413-3.157-3.157-3.157c-1.722 0-3.121 1.378-3.156 3.091l-0 0.003c-0 0.019-0.001 0.041-0.001 0.063 0 1.712 1.362 3.105 3.061 3.156l0.005 0zM12.306 14.176c0.584 0 1.057 0.473 1.057 1.057s-0.473 1.057-1.057 1.057c-0.584 0-1.057-0.473-1.057-1.057v0c-0.001-0.018-0.002-0.040-0.002-0.061 0-0.584 0.473-1.057 1.057-1.057 0.001 0 0.001 0 0.002 0h-0z"></path>
</svg>
