<!-- Generated by IcoMoon.io -->
<svg version="1.1" xmlns="http://www.w3.org/2000/svg" width="32" height="32" viewBox="0 0 32 32">
<path d="M24.355 23.453c2.44-2.344 3.963-5.625 3.963-9.263 0-7.092-5.768-12.857-12.857-12.857-7.088 0-12.855 5.765-12.855 12.857 0 7.088 5.767 12.859 12.855 12.859 2.789 0 5.367-0.904 7.475-2.417l3.804 5.429c0.303 0.415 0.671 0.605 1.193 0.605h1.463l-5.040-7.213zM4.441 14.191c0-6.088 4.936-11.021 11.019-11.021 6.085 0 11.020 4.932 11.020 11.021 0 6.085-4.935 11.023-11.020 11.023-6.083-0.001-11.019-4.937-11.019-11.023zM20.971 15.107h-8.956c-0.54-0.001-0.916-0.196-1.224-0.636l-0.839-1.2h8.956c0.54 0.001 0.916 0.197 1.225 0.639l0.837 1.197z"></path>
</svg>
