<!-- Generated by IcoMoon.io -->
<svg version="1.1" xmlns="http://www.w3.org/2000/svg" width="24" height="24" viewBox="0 0 24 24">
<title>account_activity</title>
<path fill="#444" d="M13.375 1l0.312 0.016c0.201 0.025 0.367 0.106 0.516 0.223 0.080 0.061 0.158 0.118 0.228 0.214l7.453 10.546h-1.119c-0.4 0-0.66-0.147-0.891-0.477l-5.123-7.238v17.171c-0.001 0.403-0.128 0.671-0.458 0.902l-0.917 0.642v-22zM10.625 1l-0.917 0.642c-0.33 0.231-0.457 0.499-0.458 0.902v17.171l-5.122-7.238c-0.231-0.33-0.491-0.477-0.891-0.477h-1.121l7.453 10.546c0.070 0.096 0.147 0.154 0.228 0.215 0.147 0.117 0.315 0.198 0.516 0.223l0.312 0.017v-22z"></path>
</svg>
