<!-- Generated by IcoMoon.io -->
<svg version="1.1" xmlns="http://www.w3.org/2000/svg" width="32" height="32" viewBox="0 0 32 32">
<path d="M17.833 1.333l0.412 0.024c0.273 0.032 0.497 0.139 0.688 0.295 0.109 0.083 0.216 0.157 0.307 0.287l9.937 14.061h-1.492c-0.536 0-0.883-0.197-1.193-0.635l-6.825-9.652v22.893c-0.001 0.539-0.171 0.897-0.608 1.203l-1.225 0.857v-29.333zM14.167 1.333l-1.225 0.857c-0.437 0.305-0.607 0.664-0.608 1.203v22.893l-6.825-9.652c-0.311-0.437-0.656-0.635-1.193-0.635h-1.492l9.937 14.063c0.091 0.129 0.197 0.204 0.307 0.287 0.191 0.156 0.415 0.261 0.688 0.295l0.412 0.023v-29.333z"></path>
</svg>
