<!-- Generated by IcoMoon.io -->
<svg version="1.1" xmlns="http://www.w3.org/2000/svg" width="24" height="24" viewBox="0 0 24 24">
<title>add</title>
<path d="M12 1.375c-6.047 0-10.968 4.766-10.968 10.625s4.92 10.625 10.968 10.625c6.047 0 10.968-4.766 10.968-10.625s-4.92-10.625-10.968-10.625zM12.714 12.714v4.829c-0.001 0.418-0.154 0.712-0.496 0.953l-0.934 0.654v-6.435h-4.827c-0.418 0-0.712-0.154-0.953-0.498l-0.654-0.932h6.434v-4.827c0.001-0.42 0.154-0.712 0.498-0.954l0.934-0.653v6.434h4.829c0.418 0.001 0.712 0.154 0.953 0.498l0.653 0.932h-6.435z"></path>
</svg>
