<!-- Generated by IcoMoon.io -->
<svg version="1.1" xmlns="http://www.w3.org/2000/svg" width="24" height="24" viewBox="0 0 24 24">
<title>agro</title>
<path d="M19.583 12.951c-0.042-0.014-0.379-0.123-0.902-0.193 2.237-2.179 1.498-4.726 1.324-5.223-0.060-0.189-0.215-0.343-0.421-0.412-0.096-0.032-1.77-0.573-3.678 0.035 0.108-0.405 0.171-0.849 0.171-1.337 0-3.123-2.583-4.495-3.101-4.739-0.189-0.095-0.417-0.103-0.616-0.018-0.13 0.053-3.143 1.373-3.143 4.756 0 0.489 0.063 0.935 0.171 1.34-1.911-0.612-3.59-0.070-3.686-0.038-0.205 0.069-0.36 0.223-0.421 0.412-0.175 0.497-0.913 3.044 1.324 5.223-0.524 0.070-0.861 0.179-0.902 0.193-0.206 0.069-0.361 0.223-0.422 0.412-0.178 0.508-0.945 3.151 1.467 5.359 1.396 1.278 2.945 1.583 4.105 1.583 0.43 0 0.805-0.042 1.101-0.092v0.968c0 0.001 0 0.001 0 0.002v1.818l0.899-0.626c0.329-0.233 0.477-0.516 0.478-0.917v-1.244c0.296 0.050 0.671 0.092 1.101 0.092 1.16 0 2.71-0.305 4.105-1.583 2.412-2.208 1.645-4.851 1.467-5.359-0.060-0.189-0.215-0.343-0.421-0.412zM18.789 8.218c0.172 0.718 0.336 2.366-1.219 3.79-0.502 0.46-1.029 0.755-1.538 0.939-0.099 0.029-0.199 0.061-0.3 0.097-0.975 0.278-1.849 0.175-2.3 0.084-0.051-0.209-0.104-0.515-0.106-0.882 0-0.005 0-0.011 0-0.016-0.001-0.735 0.207-1.708 1.057-2.622 0.101-0.092 0.202-0.19 0.302-0.296 1.57-1.414 3.378-1.242 4.104-1.094zM12.643 2.351c0.676 0.396 2.065 1.455 2.065 3.469 0 1.197-0.49 2.055-1.023 2.636-0.111 0.102-0.214 0.204-0.312 0.307-0.273 0.243-0.535 0.417-0.725 0.527-0.214-0.126-0.523-0.333-0.837-0.633-0.032-0.032-0.064-0.064-0.098-0.096-0.571-0.581-1.128-1.473-1.128-2.741 0-2.041 1.427-3.101 2.058-3.469zM11.954 18.261c-0.015 0.284-0.059 0.523-0.1 0.695-0.731 0.149-2.56 0.325-4.138-1.12-1.554-1.423-1.391-3.070-1.219-3.789 0.46-0.091 1.357-0.193 2.35 0.102 0.065 0.022 0.131 0.044 0.195 0.063 0.526 0.183 1.072 0.481 1.589 0.954 0.986 0.903 1.281 1.896 1.323 2.676v0.419zM11.954 12.432c-0.015 0.284-0.059 0.523-0.1 0.695-0.453 0.092-1.327 0.195-2.302-0.084-0.099-0.035-0.197-0.067-0.295-0.095-0.51-0.185-1.038-0.48-1.541-0.94-1.554-1.423-1.391-3.070-1.219-3.789 0.73-0.145 2.565-0.318 4.135 1.119 0.010 0.009 0.019 0.018 0.029 0.027 0.060 0.062 0.12 0.121 0.18 0.177 0.819 0.846 1.075 1.749 1.114 2.472v0.418zM17.57 17.836c-1.578 1.445-3.407 1.268-4.137 1.12-0.159-0.666-0.351-2.349 1.222-3.789 0.503-0.461 1.032-0.756 1.542-0.941 0.097-0.029 0.195-0.060 0.294-0.095 0.973-0.278 1.845-0.177 2.298-0.085 0.172 0.718 0.336 2.366-1.219 3.79z"></path>
</svg>
