<!-- Generated by IcoMoon.io -->
<svg version="1.1" xmlns="http://www.w3.org/2000/svg" width="24" height="24" viewBox="0 0 24 24">
<title>airplane</title>
<path fill="#444" d="M22 12.459l-7.938-5.617v-3.224c-0.016-0.536-0.319-1.268-0.671-1.69l-0.234-0.335c-0.252-0.362-0.714-0.583-1.152-0.593-0.011 0-0.022 0-0.034 0-0.445 0-0.863 0.216-1.122 0.582l-0.243 0.351c-0.4 0.48-0.653 1.233-0.668 1.726v3.179l-7.934 5.581c-0.665 0.467-1.004 1.108-1.004 1.907v0.979c0 0.481 0.252 0.927 0.663 1.176 0.219 0.132 0.465 0.199 0.712 0.199 0.219 0 0.437-0.052 0.638-0.158l6.925-3.623v6.413l-1.067 1.523c-0.294 0.422-0.33 0.969-0.094 1.424 0.238 0.457 0.707 0.741 1.22 0.741h4.005c0.513 0 0.983-0.285 1.22-0.74s0.201-1.002-0.094-1.424l-1.066-1.525v-6.403l6.922 3.651c0.201 0.106 0.421 0.158 0.641 0.158 0.246 0 0.492-0.067 0.711-0.198 0.413-0.25 0.664-0.696 0.664-1.177v-0.978c0-0.799-0.338-1.441-1-1.904zM21.625 15.343l-8.938-4.715v8.683c0 0.282 0.087 0.557 0.249 0.788l1.067 1.526h-4.007l1.067-1.525c0.162-0.231 0.249-0.507 0.249-0.789v-8.684l-8.938 4.678v-0.979c0-0.351 0.129-0.579 0.418-0.781l8.519-5.992v-3.894c0.004-0.151 0.151-0.604 0.349-0.844l0.309-0.439 0.055 0.001 0.234 0.337c0.275 0.334 0.424 0.788 0.428 0.947v3.894l8.519 6.028c0.289 0.202 0.418 0.43 0.418 0.781v0.979z"></path>
</svg>
