<!-- Generated by IcoMoon.io -->
<svg version="1.1" xmlns="http://www.w3.org/2000/svg" width="24" height="24" viewBox="0 0 24 24">
<title>anchor</title>
<path fill="#444" d="M22.216 11.319h-1.587c-0.398 0.001-0.677 0.146-0.906 0.474l-0.616 0.88c0.015 0 0.027 0.008 0.044 0.008h2.356c-0.358 4.356-4.128 7.832-8.825 8.142v-12.639c0-0.026-0.012-0.048-0.015-0.072 1.37-0.283 2.397-1.421 2.397-2.787 0-1.581-1.373-2.86-3.065-2.86s-3.065 1.279-3.065 2.86c0 1.366 1.028 2.503 2.4 2.788-0.004 0.023-0.016 0.046-0.016 0.071v12.637c-4.696-0.309-8.467-3.785-8.825-8.141h0.921c0.398-0.001 0.677-0.146 0.906-0.474l0.61-0.872c-0.029-0.003-0.053-0.016-0.082-0.016h-3.065c-0.376 0-0.681 0.305-0.681 0.681 0 5.634 4.888 10.216 10.897 10.216s10.897-4.582 10.897-10.216c0-0.376-0.305-0.681-0.681-0.681zM10.297 5.326c0-0.827 0.764-1.498 1.703-1.498 0.94 0 1.703 0.671 1.703 1.498s-0.763 1.497-1.703 1.497c-0.938 0-1.703-0.671-1.703-1.497z"></path>
</svg>
