<!-- Generated by IcoMoon.io -->
<svg version="1.1" xmlns="http://www.w3.org/2000/svg" width="32" height="32" viewBox="0 0 32 32">
<title>arrow-previous-circle</title>
<path d="M16 1.792c-8.088 0-14.667 6.379-14.667 14.208s6.579 14.208 14.667 14.208 14.667-6.379 14.667-14.208-6.579-14.208-14.667-14.208zM16 28.375c-7.076 0-12.833-5.552-12.833-12.375s5.757-12.375 12.833-12.375c7.077 0 12.833 5.552 12.833 12.375s-5.757 12.375-12.833 12.375zM9.937 17.413c-0.155-0.103-0.243-0.233-0.34-0.355l-0.001 0.001c-0.129-0.192-0.217-0.395-0.248-0.635l-0.024-0.424 0.024-0.423c0.032-0.265 0.139-0.488 0.295-0.688 0.083-0.1 0.157-0.208 0.287-0.3l1.203-0.847v-0.003l9.708-6.852v1.491c0 0.537-0.197 0.883-0.635 1.195l-9.099 6.425 9.1 6.423c0.436 0.311 0.635 0.655 0.635 1.195v1.492l-10.904-7.696z"></path>
</svg>
