<!-- Generated by IcoMoon.io -->
<svg version="1.1" xmlns="http://www.w3.org/2000/svg" width="24" height="24" viewBox="0 0 24 24">
<title>arrow-first</title>
<path fill="#444" d="M7.56 13.061c-0.115-0.082-0.181-0.176-0.254-0.268l-0.001 0.001c-0.096-0.142-0.164-0.294-0.187-0.477l-0.017-0.316 0.017-0.315c0.026-0.201 0.106-0.367 0.223-0.516 0.061-0.080 0.118-0.16 0.216-0.23l0.902-0.631v-0.001l13.167-9.309v1.118c0 0.401-0.147 0.66-0.477 0.892l-12.709 8.99 12.709 8.987c0.33 0.232 0.477 0.491 0.477 0.894v1.119l-14.065-9.938zM3.75 10.625c-0.76 0-1.375 0.615-1.375 1.375s0.615 1.375 1.375 1.375 1.375-0.615 1.375-1.375-0.615-1.375-1.375-1.375z"></path>
</svg>
