<!-- Generated by IcoMoon.io -->
<svg version="1.1" xmlns="http://www.w3.org/2000/svg" width="32" height="32" viewBox="0 0 32 32">
<title>arrow-bottom</title>
<path d="M17.413 22.336c-0.103 0.155-0.233 0.243-0.355 0.34l0.001 0.001c-0.192 0.129-0.395 0.217-0.635 0.248l-0.424 0.024-0.423-0.024c-0.265-0.032-0.488-0.139-0.688-0.295-0.1-0.083-0.208-0.157-0.3-0.287l-0.847-1.203h-0.003l-12.408-17.557h1.491c0.537 0 0.883 0.197 1.195 0.635l11.981 16.948 11.98-16.949c0.311-0.436 0.655-0.635 1.195-0.635h1.492l-13.253 18.753zM21.191 28.416h-8.327c-0.536-0.001-0.895-0.172-1.203-0.612l-0.855-1.221h8.324c0.536 0.001 0.895 0.171 1.203 0.611l0.857 1.223z"></path>
</svg>
