<!-- Generated by IcoMoon.io -->
<svg version="1.1" xmlns="http://www.w3.org/2000/svg" width="32" height="32" viewBox="0 0 32 32">
<path d="M14.587 9.664c0.103-0.155 0.233-0.243 0.355-0.34l-0.001-0.001c0.192-0.129 0.395-0.217 0.635-0.248l0.424-0.024 0.423 0.024c0.265 0.032 0.488 0.139 0.688 0.295 0.1 0.083 0.208 0.157 0.3 0.287l0.847 1.203h0.003l12.408 17.557h-1.491c-0.537 0-0.883-0.197-1.195-0.635l-11.981-16.948-11.98 16.949c-0.311 0.436-0.655 0.635-1.195 0.635h-1.492l13.253-18.753zM10.809 3.584h8.325c0.536 0.001 0.895 0.172 1.203 0.612l0.855 1.221h-8.324c-0.536-0.001-0.895-0.171-1.203-0.612l-0.856-1.221z"></path>
</svg>
