<!-- Generated by IcoMoon.io -->
<svg version="1.1" xmlns="http://www.w3.org/2000/svg" width="24" height="24" viewBox="0 0 24 24">
<title>arrow-top-circle</title>
<path d="M12 22.656c6.065 0 11-4.781 11-10.656s-4.935-10.656-11-10.656-11 4.781-11 10.656 4.935 10.656 11 10.656zM12 2.719c5.307 0 9.625 4.162 9.625 9.281s-4.318 9.281-9.625 9.281-9.625-4.162-9.625-9.281 4.318-9.281 9.625-9.281zM10.938 8.333c0.082-0.115 0.176-0.182 0.269-0.254l-0.001-0.001c0.141-0.097 0.294-0.164 0.477-0.188l0.317-0.016 0.316 0.016c0.201 0.026 0.366 0.106 0.516 0.224 0.079 0.061 0.158 0.118 0.228 0.215l5.774 8.183h-1.119c-0.401 0-0.661-0.147-0.893-0.477l-4.822-6.822-4.819 6.822c-0.232 0.329-0.49 0.477-0.893 0.477h-1.12l5.77-8.179zM8.107 5.125h6.244c0.403 0.001 0.671 0.129 0.902 0.459l0.641 0.916h-6.243c-0.402-0.001-0.671-0.128-0.902-0.458l-0.642-0.917z"></path>
</svg>
