<!-- Generated by IcoMoon.io -->
<svg version="1.1" xmlns="http://www.w3.org/2000/svg" width="24" height="24" viewBox="0 0 24 24">
<title>arrow_negative</title>
<path d="M19.389 12c-0.403 0-0.661 0.148-0.893 0.476l-5.796 8.196v-19.554l-0.918 0.688c-0.331 0.247-0.481 0.461-0.482 0.893v17.977l-5.799-8.2c-0.232-0.328-0.491-0.476-0.893-0.476h-1.118l7.451 10.547c0.070 0.097 0.149 0.153 0.228 0.215 0.149 0.117 0.315 0.196 0.516 0.221l0.315 0.017 0.317-0.018c0.183-0.022 0.336-0.089 0.477-0.186l-0.001-0.001c0.092-0.073 0.186-0.139 0.269-0.255l7.446-10.54h-1.119z"></path>
</svg>
