<!-- Generated by IcoMoon.io -->
<svg version="1.1" xmlns="http://www.w3.org/2000/svg" width="32" height="32" viewBox="0 0 32 32">
<title>arrow-last-circle</title>
<path d="M1.333 16c0 7.833 6.58 14.208 14.667 14.208s14.667-6.375 14.667-14.208-6.58-14.208-14.667-14.208-14.667 6.375-14.667 14.208zM28.833 16c0 6.825-5.757 12.375-12.833 12.375s-12.833-5.549-12.833-12.375 5.757-12.375 12.833-12.375 12.833 5.549 12.833 12.375zM20.889 14.584c0.153 0.108 0.243 0.235 0.339 0.359l0.001-0.003c0.129 0.189 0.219 0.392 0.251 0.636l0.021 0.423-0.021 0.42c-0.035 0.268-0.141 0.488-0.299 0.688-0.081 0.105-0.157 0.211-0.287 0.305l-10.911 7.697v-1.492c0-0.533 0.196-0.88 0.636-1.191l9.096-6.427-9.096-6.425c-0.439-0.311-0.636-0.655-0.636-1.191v-1.493l10.905 7.693zM25.167 10.809v8.325c-0.001 0.536-0.172 0.895-0.612 1.203l-1.221 0.856v-8.325c0.001-0.536 0.171-0.895 0.611-1.203l1.223-0.856z"></path>
</svg>
