<!-- Generated by IcoMoon.io -->
<svg version="1.1" xmlns="http://www.w3.org/2000/svg" width="32" height="32" viewBox="0 0 32 32">
<title>arrow-first-circle</title>
<path d="M30.667 16c0-7.833-6.58-14.208-14.667-14.208s-14.667 6.375-14.667 14.208 6.58 14.208 14.667 14.208 14.667-6.375 14.667-14.208zM3.167 16c0-6.825 5.757-12.375 12.833-12.375s12.833 5.549 12.833 12.375-5.757 12.375-12.833 12.375-12.833-5.549-12.833-12.375zM11.111 17.416c-0.153-0.108-0.243-0.235-0.339-0.359l-0.001 0.003c-0.129-0.189-0.219-0.392-0.251-0.636l-0.021-0.423 0.021-0.42c0.035-0.268 0.141-0.488 0.299-0.688 0.081-0.105 0.157-0.211 0.287-0.305l10.911-7.697v1.492c0 0.533-0.196 0.88-0.636 1.191l-9.096 6.427 9.096 6.425c0.439 0.309 0.636 0.653 0.636 1.191v1.493l-10.905-7.693zM6.833 21.191v-8.327c0.001-0.536 0.172-0.895 0.612-1.203l1.221-0.855v8.324c-0.001 0.536-0.171 0.895-0.611 1.203l-1.223 0.857z"></path>
</svg>
