<!-- Generated by IcoMoon.io -->
<svg version="1.1" xmlns="http://www.w3.org/2000/svg" width="32" height="32" viewBox="0 0 32 32">
<title>arrow_positive</title>
<path d="M6.145 16.157c0.537 0 0.881-0.197 1.191-0.635l7.728-10.928v26.072l1.224-0.917c0.441-0.329 0.641-0.615 0.643-1.191v-23.969l7.732 10.933c0.309 0.436 0.655 0.635 1.191 0.635h1.491l-9.935-14.063c-0.093-0.129-0.199-0.204-0.304-0.287-0.199-0.156-0.42-0.261-0.688-0.295l-0.421-0.024-0.423 0.024c-0.244 0.029-0.448 0.119-0.636 0.248l0.001 0.001c-0.123 0.097-0.248 0.185-0.359 0.34l-9.927 14.055h1.492z"></path>
</svg>
