<!-- Generated by IcoMoon.io -->
<svg version="1.1" xmlns="http://www.w3.org/2000/svg" width="24" height="24" viewBox="0 0 24 24">
<title>arrow-top</title>
<path fill="#444" d="M10.952 7.618c0.081-0.114 0.174-0.179 0.265-0.251l-0.001-0.001c0.14-0.095 0.29-0.161 0.471-0.185l0.312-0.016 0.311 0.016c0.198 0.026 0.362 0.104 0.509 0.22 0.079 0.060 0.157 0.117 0.227 0.213l0.623 0.89h0.001l9.188 12.996h-1.103c-0.396 0-0.651-0.145-0.881-0.471l-8.873-12.544-8.87 12.544c-0.229 0.326-0.484 0.471-0.882 0.471h-1.105l9.809-13.882zM13.357 3.857c0-0.751-0.607-1.357-1.357-1.357s-1.357 0.607-1.357 1.357 0.607 1.357 1.357 1.357 1.357-0.607 1.357-1.357z"></path>
</svg>
