<!-- Generated by IcoMoon.io -->
<svg version="1.1" xmlns="http://www.w3.org/2000/svg" width="24" height="24" viewBox="0 0 24 24">
<title>arrow-bottom</title>
<path fill="#444" d="M13.048 16.382c-0.081 0.114-0.174 0.179-0.265 0.251l0.001 0.001c-0.14 0.095-0.29 0.161-0.471 0.185l-0.312 0.016-0.311-0.016c-0.198-0.026-0.362-0.104-0.509-0.22-0.079-0.060-0.156-0.117-0.225-0.212l-0.623-0.89h-0.003l-9.188-12.997h1.103c0.396 0 0.651 0.145 0.881 0.471l8.873 12.544 8.87-12.544c0.229-0.326 0.485-0.471 0.882-0.471h1.105l-9.809 13.882zM10.643 20.143c0 0.751 0.607 1.357 1.357 1.357s1.357-0.607 1.357-1.357-0.607-1.357-1.357-1.357-1.357 0.607-1.357 1.357z"></path>
</svg>
