<!-- Generated by IcoMoon.io -->
<svg version="1.1" xmlns="http://www.w3.org/2000/svg" width="24" height="24" viewBox="0 0 24 24">
<title>arrow-left-right</title>
<path fill="#444" d="M22.887 13.361l-0.016 0.309c-0.026 0.199-0.105 0.365-0.22 0.51-0.060 0.079-0.117 0.157-0.212 0.226l-10.438 7.376v-1.108c0-0.396 0.146-0.653 0.472-0.882l7.164-5.071h-16.995c-0.399-0.001-0.664-0.127-0.893-0.453l-0.636-0.908h21.774zM22.887 10.639l-0.636-0.908c-0.229-0.327-0.494-0.452-0.893-0.453h-16.995l7.165-5.069c0.325-0.229 0.471-0.486 0.471-0.882v-1.109l-10.438 7.376c-0.095 0.069-0.152 0.147-0.212 0.226-0.116 0.147-0.196 0.312-0.22 0.51l-0.016 0.309h21.774z"></path>
</svg>
