<!-- Generated by IcoMoon.io -->
<svg version="1.1" xmlns="http://www.w3.org/2000/svg" width="24" height="24" viewBox="0 0 24 24">
<title>arrow-next-circle</title>
<path d="M12 22.656c6.066 0 11-4.784 11-10.656s-4.934-10.656-11-10.656-11 4.784-11 10.656 4.934 10.656 11 10.656zM12 2.719c5.307 0 9.625 4.164 9.625 9.281s-4.318 9.281-9.625 9.281c-5.308 0-9.625-4.164-9.625-9.281s4.318-9.281 9.625-9.281zM16.547 10.94c0.116 0.077 0.182 0.175 0.255 0.266l0.001-0.001c0.097 0.144 0.163 0.296 0.186 0.476l0.018 0.318-0.018 0.317c-0.024 0.199-0.104 0.366-0.221 0.516-0.062 0.075-0.118 0.156-0.215 0.225l-0.902 0.635v0.002l-7.281 5.139v-1.118c0-0.403 0.148-0.662 0.476-0.896l6.824-4.819-6.825-4.817c-0.327-0.234-0.476-0.492-0.476-0.896v-1.119l8.178 5.772z"></path>
</svg>
