<!-- Generated by IcoMoon.io -->
<svg version="1.1" xmlns="http://www.w3.org/2000/svg" width="24" height="24" viewBox="0 0 24 24">
<title>arrow-last</title>
<path fill="#444" d="M16.44 10.939c0.116 0.082 0.182 0.176 0.254 0.268l0.001-0.001c0.096 0.142 0.164 0.294 0.187 0.477l0.017 0.316-0.017 0.315c-0.026 0.201-0.106 0.367-0.223 0.516-0.061 0.080-0.118 0.158-0.215 0.228l-0.902 0.631v0.003l-13.168 9.309v-1.118c0-0.401 0.147-0.66 0.477-0.892l12.709-8.99-12.709-8.987c-0.33-0.232-0.477-0.491-0.477-0.894v-1.119l14.065 9.938zM20.25 13.375c0.76 0 1.375-0.615 1.375-1.375s-0.615-1.375-1.375-1.375-1.375 0.615-1.375 1.375 0.615 1.375 1.375 1.375z"></path>
</svg>
