<!-- Generated by IcoMoon.io -->
<svg version="1.1" xmlns="http://www.w3.org/2000/svg" width="24" height="24" viewBox="0 0 24 24">
<title>arrow-down-circle</title>
<path fill="#444" d="M12 22.625c6.047 0 10.968-4.768 10.968-10.625s-4.92-10.625-10.968-10.625-10.968 4.768-10.968 10.625 4.92 10.625 10.968 10.625zM12 2.746c5.291 0 9.597 4.15 9.597 9.254s-4.306 9.254-9.597 9.254c-5.292 0-9.597-4.15-9.597-9.254s4.306-9.254 9.597-9.254zM13.058 16.535c-0.082 0.115-0.176 0.181-0.267 0.254l0.001 0.001c-0.141 0.096-0.293 0.163-0.476 0.186l-0.315 0.016-0.314-0.016c-0.2-0.026-0.366-0.106-0.514-0.222-0.079-0.060-0.158-0.118-0.228-0.214l-0.629-0.899h-0.003l-5.126-7.262h1.115c0.4 0 0.658 0.147 0.89 0.476l4.808 6.803 4.805-6.803c0.232-0.328 0.488-0.476 0.89-0.476h1.116l-5.753 8.156z"></path>
</svg>
