<!-- Generated by IcoMoon.io -->
<svg version="1.1" xmlns="http://www.w3.org/2000/svg" width="32" height="32" viewBox="0 0 32 32">
<title>arrow-first</title>
<path d="M9.664 17.413c-0.155-0.103-0.243-0.233-0.34-0.355l-0.001 0.001c-0.129-0.192-0.217-0.395-0.248-0.635l-0.024-0.424 0.024-0.423c0.032-0.265 0.139-0.488 0.295-0.688 0.083-0.1 0.157-0.208 0.287-0.3l1.203-0.847v-0.003l17.557-12.408v1.491c0 0.537-0.197 0.883-0.635 1.195l-16.948 11.981 16.949 11.98c0.436 0.311 0.635 0.655 0.635 1.195v1.492l-18.753-13.253zM3.584 21.191v-8.327c0.001-0.536 0.172-0.895 0.612-1.203l1.221-0.855v8.324c-0.001 0.536-0.171 0.895-0.611 1.203l-1.223 0.857z"></path>
</svg>
