<!-- Generated by IcoMoon.io -->
<svg version="1.1" xmlns="http://www.w3.org/2000/svg" width="24" height="24" viewBox="0 0 24 24">
<title>arrow-last-circle</title>
<path fill="#444" d="M12 22.625c6.047 0 10.968-4.768 10.968-10.625s-4.92-10.625-10.968-10.625-10.968 4.768-10.968 10.625 4.92 10.625 10.968 10.625zM12 2.746c5.292 0 9.597 4.15 9.597 9.254s-4.305 9.254-9.597 9.254-9.597-4.15-9.597-9.254 4.305-9.254 9.597-9.254zM15.656 10.942c0.115 0.082 0.181 0.176 0.254 0.267l0.001-0.001c0.096 0.141 0.163 0.293 0.186 0.476l0.015 0.315-0.016 0.314c-0.026 0.2-0.106 0.366-0.222 0.514-0.060 0.079-0.118 0.159-0.214 0.229l-0.899 0.629v0.001l-7.259 5.125v-1.115c0-0.4 0.147-0.658 0.476-0.89l6.801-4.807-6.803-4.805c-0.328-0.232-0.474-0.488-0.474-0.89v-1.117l8.155 5.754zM18.855 8.119v6.226c-0.001 0.402-0.129 0.669-0.457 0.899l-0.914 0.639v-6.224c0.001-0.402 0.128-0.669 0.457-0.899l0.914-0.64z"></path>
</svg>
