<!-- Generated by IcoMoon.io -->
<svg version="1.1" xmlns="http://www.w3.org/2000/svg" width="32" height="32" viewBox="0 0 32 32">
<path d="M25.852 16c-0.537 0-0.881 0.197-1.191 0.635l-7.728 10.928v-26.072l-1.224 0.917c-0.441 0.329-0.641 0.615-0.643 1.191v23.969l-7.732-10.933c-0.309-0.437-0.655-0.635-1.191-0.635h-1.491l9.935 14.063c0.093 0.129 0.199 0.204 0.304 0.287 0.199 0.156 0.42 0.261 0.688 0.295l0.42 0.023 0.423-0.024c0.244-0.029 0.448-0.119 0.636-0.248l-0.001-0.001c0.123-0.097 0.248-0.185 0.359-0.34l9.928-14.053h-1.492z"></path>
</svg>
