<!-- Generated by IcoMoon.io -->
<svg version="1.1" xmlns="http://www.w3.org/2000/svg" width="32" height="32" viewBox="0 0 32 32">
<title>arrow-left-right</title>
<path d="M30.667 17.833l-0.024 0.412c-0.032 0.273-0.139 0.497-0.295 0.688-0.083 0.109-0.157 0.216-0.287 0.307l-14.061 9.937v-1.492c0-0.536 0.197-0.883 0.635-1.193l9.652-6.825h-22.893c-0.539-0.001-0.897-0.171-1.203-0.608l-0.857-1.225h29.333zM30.667 14.167l-0.857-1.225c-0.305-0.437-0.664-0.607-1.203-0.608h-22.893l9.652-6.825c0.437-0.311 0.635-0.656 0.635-1.193v-1.492l-14.063 9.937c-0.129 0.092-0.204 0.199-0.287 0.308-0.156 0.191-0.261 0.415-0.295 0.688l-0.023 0.411h29.333z"></path>
</svg>
