<!-- Generated by IcoMoon.io -->
<svg version="1.1" xmlns="http://www.w3.org/2000/svg" width="24" height="24" viewBox="0 0 24 24">
<title>arrow-previous-circle</title>
<path fill="#444" d="M12 1.375c-6.047 0-10.968 4.768-10.968 10.625s4.92 10.625 10.968 10.625 10.968-4.768 10.968-10.625-4.92-10.625-10.968-10.625zM12 21.254c-5.291 0-9.597-4.15-9.597-9.254s4.306-9.254 9.597-9.254c5.292 0 9.597 4.15 9.597 9.254s-4.306 9.254-9.597 9.254zM7.465 13.058c-0.115-0.082-0.181-0.176-0.254-0.267v0.001c-0.096-0.141-0.163-0.293-0.186-0.476l-0.016-0.315 0.016-0.314c0.026-0.202 0.106-0.366 0.222-0.515 0.060-0.078 0.118-0.158 0.214-0.228l0.899-0.629v-0.001l7.259-5.125v1.115c0 0.4-0.147 0.658-0.476 0.89l-6.801 4.807 6.803 4.805c0.328 0.232 0.476 0.488 0.476 0.89v1.116l-8.156-5.753z"></path>
</svg>
