<!-- Generated by IcoMoon.io -->
<svg version="1.1" xmlns="http://www.w3.org/2000/svg" width="32" height="32" viewBox="0 0 32 32">
<title>arrow-bottom-circle</title>
<path d="M16 1.792c-8.087 0-14.667 6.375-14.667 14.208s6.58 14.208 14.667 14.208 14.667-6.375 14.667-14.208-6.58-14.208-14.667-14.208zM16 28.375c-7.076 0-12.833-5.549-12.833-12.375s5.757-12.375 12.833-12.375 12.833 5.549 12.833 12.375-5.757 12.375-12.833 12.375zM17.416 20.889c-0.109 0.153-0.235 0.243-0.359 0.339l0.001 0.001c-0.188 0.129-0.392 0.219-0.636 0.251l-0.423 0.021-0.421-0.021c-0.268-0.035-0.488-0.141-0.688-0.299-0.105-0.081-0.211-0.157-0.304-0.287l-7.696-10.911h1.492c0.535 0 0.881 0.196 1.191 0.636l6.427 9.096 6.425-9.096c0.309-0.439 0.653-0.636 1.191-0.636h1.493l-7.693 10.905zM21.191 25.167h-8.325c-0.537-0.001-0.895-0.172-1.203-0.612l-0.855-1.221h8.324c0.537 0.001 0.895 0.171 1.203 0.611l0.856 1.223z"></path>
</svg>
