<!-- Generated by IcoMoon.io -->
<svg version="1.1" xmlns="http://www.w3.org/2000/svg" width="24" height="24" viewBox="0 0 24 24">
<title>arrow-up-circle</title>
<path fill="#444" d="M12 1.375c-6.047 0-10.968 4.768-10.968 10.625s4.92 10.625 10.968 10.625 10.968-4.768 10.968-10.625-4.92-10.625-10.968-10.625zM12 21.254c-5.291 0-9.597-4.15-9.597-9.254s4.306-9.254 9.597-9.254c5.292 0 9.597 4.15 9.597 9.254s-4.306 9.254-9.597 9.254zM10.942 7.465c0.082-0.115 0.176-0.181 0.267-0.254h-0.001c0.141-0.096 0.293-0.163 0.476-0.186l0.315-0.016 0.314 0.016c0.202 0.026 0.366 0.106 0.515 0.222 0.078 0.060 0.158 0.118 0.228 0.214l0.629 0.899h0.001l5.125 7.259h-1.115c-0.4 0-0.658-0.147-0.89-0.476l-4.807-6.801-4.805 6.803c-0.232 0.328-0.488 0.476-0.89 0.476h-1.117l5.754-8.156z"></path>
</svg>
