<!-- Generated by IcoMoon.io -->
<svg version="1.1" xmlns="http://www.w3.org/2000/svg" width="32" height="32" viewBox="0 0 32 32">
<title>at</title>
<path d="M16 1.333c-8.089 0.001-14.667 6.584-14.667 14.669 0 3.917 1.528 7.596 4.297 10.368 2.768 2.772 6.449 4.296 10.368 4.296 0 0 0.001 0 0.003 0 3.205 0 6.372-1.069 8.917-3.017 0.060-0.049 0.101-0.111 0.145-0.169l-1.312-0.573c-0.351-0.159-0.673-0.156-0.991-0.051-2.024 1.259-4.369 1.976-6.761 1.976 0 0-0.001 0-0.001 0-3.425 0-6.648-1.337-9.075-3.756-2.423-2.427-3.757-5.644-3.757-9.075 0-7.077 5.756-12.835 12.833-12.836 7.076 0 12.833 5.757 12.833 12.833v1.376c0 1.769-1.437 3.205-3.209 3.205-1.255 0-2.329-0.724-2.859-1.775 0.364-0.863 0.567-1.809 0.567-2.807 0-1.263-0.353-2.436-0.917-3.473v-2.024c0-0.509-0.412-0.917-0.917-0.917-0.453 0-0.812 0.336-0.887 0.765-1.261-1.032-2.853-1.681-4.611-1.681-4.041 0-7.332 3.291-7.332 7.332s3.291 7.332 7.332 7.332c2.324 0 4.379-1.112 5.72-2.805 0.927 1.143 2.325 1.888 3.905 1.888 2.78 0 5.043-2.26 5.043-5.039v-1.376c-0.001-8.084-6.58-14.667-14.668-14.667zM16 21.499c-3.037 0-5.499-2.461-5.499-5.499s2.461-5.499 5.499-5.499c1.917 0 3.596 0.977 4.583 2.464v4.412c0 0.455 0.077 0.885 0.191 1.307-0.94 1.671-2.713 2.815-4.773 2.815z"></path>
</svg>
