<!-- Generated by IcoMoon.io -->
<svg version="1.1" xmlns="http://www.w3.org/2000/svg" width="24" height="24" viewBox="0 0 24 24">
<title>at</title>
<path fill="#444" d="M12 1c-6.067 0.001-11 4.938-11 11.003 0 2.937 1.145 5.699 3.223 7.776 2.076 2.078 4.839 3.222 7.776 3.222 0 0 0.001 0 0.001 0 2.404 0 4.778-0.804 6.687-2.265 0.047-0.034 0.076-0.082 0.11-0.127l-0.982-0.429c-0.265-0.116-0.506-0.113-0.744-0.036-1.519 0.942-3.277 1.481-5.071 1.481 0 0-0.001 0-0.003 0-2.57 0-4.986-1.001-6.803-2.819-1.816-1.818-2.819-4.234-2.819-6.803 0-5.308 4.318-9.626 9.625-9.628 5.308 0 9.625 4.319 9.625 9.625v1.033c0 1.325-1.079 2.404-2.406 2.404-0.939 0-1.746-0.544-2.142-1.331 0.269-0.648 0.422-1.358 0.422-2.105 0-0.947-0.263-1.827-0.688-2.607v-1.517c0-0.38-0.308-0.688-0.688-0.688-0.34 0-0.608 0.25-0.664 0.572-0.947-0.774-2.142-1.259-3.46-1.259-3.032 0-5.499 2.467-5.499 5.499s2.467 5.499 5.499 5.499c1.745 0 3.284-0.832 4.291-2.102 0.694 0.857 1.742 1.415 2.927 1.415 2.086 0 3.781-1.694 3.781-3.779v-1.033c0-6.065-4.935-11-11-11zM12 16.124c-2.278 0-4.124-1.845-4.124-4.124s1.845-4.124 4.124-4.124c1.437 0 2.698 0.734 3.436 1.848v3.308c0 0.34 0.059 0.663 0.144 0.978-0.707 1.255-2.035 2.113-3.581 2.113z"></path>
</svg>
