<!-- Generated by IcoMoon.io -->
<svg version="1.1" xmlns="http://www.w3.org/2000/svg" width="24" height="24" viewBox="0 0 24 24">
<title>auction_hammer</title>
<path d="M20.096 8.051c-0.103-0.201-0.251-0.368-0.428-0.491-0.225-0.16-0.497-0.25-0.783-0.25h-1.112c-0.245 0-0.476 0.043-0.683 0.11l-5.357-3.779c-0.010-0.217-0.047-0.451-0.132-0.685l-0.38-1.051c-0.098-0.271-0.275-0.497-0.5-0.657-0.177-0.123-0.384-0.207-0.605-0.236-0.504-0.068-1.004 0.154-1.297 0.575l-3.914 5.632c-0.293 0.42-0.329 0.969-0.093 1.423 0.103 0.2 0.251 0.368 0.428 0.491 0.226 0.16 0.498 0.25 0.783 0.25h1.111c0.246 0 0.475-0.043 0.684-0.11l1.001 0.707-7.572 10.858c-0.292 0.419-0.328 0.969-0.092 1.424 0.103 0.198 0.251 0.365 0.428 0.491 0.225 0.158 0.497 0.249 0.782 0.247h1.11c0.833 0.002 1.505-0.353 2.006-1.061l6.692-9.595 1.001 0.707c0.010 0.217 0.047 0.451 0.132 0.686l0.38 1.052c0.097 0.27 0.274 0.497 0.5 0.656 0.176 0.124 0.383 0.207 0.606 0.236 0.503 0.067 1.003-0.155 1.296-0.574l3.915-5.633c0.292-0.421 0.328-0.969 0.093-1.423zM14.97 14.317l-0.381-1.053c-0.137-0.379 0.044-0.863 0.044-0.863l-2.795-1.971-7.475 10.719c-0.231 0.328-0.487 0.478-0.887 0.478h-1.111l8.355-11.986-2.796-1.971c0 0-0.389 0.338-0.79 0.338h-1.111l3.915-5.632 0.381 1.052c0.136 0.379-0.046 0.863-0.046 0.863l6.71 4.732c0 0 0.39-0.339 0.791-0.339h1.111l-3.915 5.633zM11.863 23l0.642-0.917c0.231-0.33 0.5-0.456 0.902-0.458h8.049c0.403 0.002 0.671 0.128 0.902 0.458l0.642 0.917h-11.137z"></path>
</svg>
