<!-- Generated by IcoMoon.io -->
<svg version="1.1" xmlns="http://www.w3.org/2000/svg" width="24" height="24" viewBox="0 0 24 24">
<title>auction_hammer</title>
<path fill="#444" d="M20.096 8.051c-0.103-0.201-0.252-0.368-0.428-0.491-0.226-0.16-0.496-0.25-0.782-0.25h-1.112c-0.245 0-0.476 0.043-0.683 0.11l-5.357-3.779c-0.011-0.217-0.048-0.451-0.132-0.685l-0.38-1.052c-0.098-0.269-0.275-0.496-0.499-0.657-0.177-0.124-0.384-0.206-0.605-0.236-0.506-0.066-1.006 0.155-1.298 0.576l-3.915 5.631c-0.293 0.421-0.329 0.971-0.094 1.424 0.103 0.201 0.252 0.368 0.429 0.491 0.226 0.16 0.498 0.25 0.782 0.25h1.111c0.246 0 0.476-0.043 0.685-0.11l1.001 0.705-7.572 10.86c-0.292 0.419-0.327 0.968-0.092 1.423 0.103 0.199 0.252 0.366 0.428 0.491 0.226 0.158 0.496 0.249 0.782 0.247h1.11c0.833 0.001 1.506-0.353 2.006-1.060l6.692-9.595 1.001 0.707c0.011 0.217 0.048 0.451 0.132 0.686l0.38 1.052c0.098 0.269 0.275 0.496 0.5 0.657 0.176 0.124 0.382 0.206 0.605 0.236 0.503 0.067 1.004-0.155 1.297-0.575l3.915-5.633c0.293-0.424 0.329-0.971 0.094-1.424zM14.97 14.318l-0.381-1.053c-0.137-0.378 0.044-0.863 0.044-0.863l-2.795-1.972-7.476 10.72c-0.231 0.327-0.487 0.477-0.887 0.477h-1.11l8.355-11.986-2.795-1.97c0 0-0.389 0.338-0.791 0.338h-1.111l3.915-5.632 0.381 1.052c0.136 0.378-0.045 0.863-0.045 0.863l6.71 4.731c0 0 0.391-0.338 0.791-0.338h1.111l-3.915 5.633zM11.863 23l0.642-0.917c0.231-0.33 0.499-0.457 0.902-0.458h8.049c0.403 0.001 0.671 0.128 0.902 0.458l0.642 0.917h-11.138z"></path>
</svg>
