<!-- Generated by IcoMoon.io -->
<svg version="1.1" xmlns="http://www.w3.org/2000/svg" width="24" height="24" viewBox="0 0 24 24">
<title>backup</title>
<path fill="#444" d="M1.109 4.589l0.889 0.602c0.327 0.227 0.474 0.508 0.474 0.907v2.625l3.562-3.704c1.035-1.037 2.314-1.843 3.697-2.332 5.136-1.816 10.786 0.889 12.601 6.022 1.814 5.136-0.887 10.789-6.022 12.603-1.084 0.381-2.19 0.564-3.28 0.564-2.968 0-5.794-1.358-7.667-3.657 0 0-0.511-0.662-0.734-1.037-0.049-0.079-0.162-0.27-0.17-0.291-0.35-0.633-0.64-1.305-0.839-2.019l1.022 0.257c0.387 0.098 0.64 0.353 0.64 0.353 0.076 0.178 0.251 0.537 0.251 0.537 1.951 3.637 6.315 5.422 10.325 4.007 4.427-1.564 6.755-6.439 5.191-10.864-1.564-4.424-6.436-6.752-10.863-5.191-1.192 0.421-2.294 1.116-3.201 2.024l-3.484 3.623 0.011 0.010h2.534c0.351 0.020 0.617 0.154 0.828 0.455l0.617 0.906c-0.042 0.010-5.7 0-5.7 0-0.093 0.001-0.181-0.019-0.264-0.052-0.004-0.003-0.008-0.010-0.014-0.010-0.078-0.035-0.15-0.086-0.208-0.148-0.003-0.001-0.005 0-0.008-0.003-0.023-0.025-0.031-0.057-0.050-0.084-0.031-0.041-0.064-0.084-0.083-0.135-0.022-0.049-0.025-0.099-0.031-0.151-0.005-0.034-0.020-0.063-0.020-0.098 0 0-0.011-5.672 0-5.719zM17.906 8.149c-0.394-0.069-0.692 0.025-0.975 0.306l-3.725 3.724-3.501-3.501-0.192 1.065c-0.069 0.394 0.025 0.693 0.306 0.975l2.344 2.343c0.548 0.452 1.313 0.331 1.583 0.267 0-0.001 0-0.001 0-0.001 0.001 0 0.003-0.001 0.005-0.003 0.146-0.041 0.286-0.108 0.425-0.225l4.796-4.761-1.067-0.191z"></path>
</svg>
