<!-- Generated by IcoMoon.io -->
<svg version="1.1" xmlns="http://www.w3.org/2000/svg" width="32" height="32" viewBox="0 0 32 32">
<title>backup</title>
<path d="M1.333 16.728l1.299 0.699c0.416 0.225 0.675 0.519 0.796 0.86 1.105 6.076 6.389 10.485 12.563 10.485 7.047 0 12.78-5.729 12.78-12.772s-5.733-12.772-12.78-12.772c-3.607 0-7.068 1.551-9.497 4.257l-0.495 0.707h3.017c0.497 0.003 0.84 0.177 1.115 0.569l0.928 1.327h-7.423c-0.524 0-0.948-0.425-0.948-0.949v-7.433l1.328 0.892c0.391 0.273 0.567 0.616 0.568 1.109v3.028l0.735-0.779c2.803-2.981 6.595-4.623 10.672-4.623 8.092 0 14.676 6.58 14.676 14.667s-6.584 14.667-14.676 14.667c-7.847 0-14.277-6.189-14.657-13.939zM17.199 15.817c-0.233-0.083-0.409-0.207-0.528-0.375s-0.148-0.376-0.147-0.624v-8.195l-1.22 0.86c-0.44 0.309-0.608 0.671-0.607 1.208l-0.031 8.164 5.48 1.96c0.505 0.183 0.901 0.144 1.341-0.164l1.22-0.86-5.509-1.975z"></path>
</svg>
