<!-- Generated by IcoMoon.io -->
<svg version="1.1" xmlns="http://www.w3.org/2000/svg" width="32" height="32" viewBox="0 0 32 32">
<path d="M28.824 26.075l-1.833-13.932c-0.097-0.935-0.885-1.643-1.824-1.643h-18.333c-0.939 0-1.725 0.708-1.824 1.643l-1.833 13.932c-0.005 0.065-0.009 0.129-0.009 0.192 0 2.428 1.973 4.401 4.4 4.401l17.416-0.001c2.304 0 3.851-1.767 3.851-4.4 0-0.064-0.004-0.128-0.009-0.192zM24.983 28.833l-17.416 0.001c-1.417 0-2.567-1.147-2.567-2.569l1.833-13.932h18.333l1.833 13.932c0 1.423-0.6 2.568-2.017 2.568zM10.533 8.852c0.075-3.267 2.211-7.519 5.487-7.519 3.255 0 5.38 4.215 5.48 7.449l-1.297-0.54c-0.36-0.148-0.569-0.392-0.719-0.7-0.448-1.657-1.653-4.375-3.465-4.375-1.752 0-2.944 2.632-3.425 4.209-0.127 0.417-0.36 0.72-0.789 0.909l-1.271 0.565z"></path>
</svg>
