<!-- Generated by IcoMoon.io -->
<svg version="1.1" xmlns="http://www.w3.org/2000/svg" width="24" height="24" viewBox="0 0 24 24">
<title>bag</title>
<path fill="#444" d="M21.618 19.556l-1.375-10.449c-0.074-0.7-0.664-1.232-1.368-1.232h-13.75c-0.704 0-1.294 0.532-1.368 1.232l-1.375 10.449c-0.004 0.048-0.007 0.096-0.007 0.144 0 1.82 1.481 3.3 3.3 3.3l13.063-0.001c1.727 0 2.889-1.325 2.889-3.299-0.001-0.048-0.004-0.096-0.008-0.144zM18.736 21.625l-13.063 0.001c-1.063 0-1.925-0.861-1.925-1.926l1.376-10.45h13.75l1.375 10.45c0 1.066-0.45 1.925-1.514 1.925zM7.901 6.639c0.055-2.45 1.657-5.639 4.114-5.639 2.441 0 4.034 3.161 4.11 5.587l-0.974-0.406c-0.268-0.11-0.426-0.293-0.539-0.524-0.335-1.244-1.239-3.282-2.597-3.282-1.315 0-2.208 1.975-2.57 3.157-0.095 0.314-0.271 0.54-0.593 0.683l-0.952 0.424z"></path>
</svg>
