<!-- Generated by IcoMoon.io -->
<svg version="1.1" xmlns="http://www.w3.org/2000/svg" width="32" height="32" viewBox="0 0 32 32">
<title>balance</title>
<path d="M10.497 18.937c0 2.519-2.057 4.567-4.583 4.567v0c-2.525 0-4.581-2.048-4.581-4.567v-2.937l1.196 0.807c0.439 0.308 0.635 0.683 0.635 1.216v0.915c0 1.512 1.233 2.74 2.749 2.74v0c1.515 0 2.749-1.228 2.749-2.74v-0.915c0-0.533 0.195-0.908 0.635-1.216l1.2-0.807c0.015 0.065 0 2.937 0 2.937zM30.66 18.937c0 2.519-2.061 4.567-4.588 4.567v0c-2.525 0-4.576-2.048-4.576-4.567 0 0-0.015-2.872 0-2.937l1.191 0.807c0.44 0.308 0.641 0.683 0.641 1.216v0.915c0 1.512 1.227 2.74 2.743 2.74v0c1.516 0 2.756-1.228 2.756-2.74v-0.915c0-0.533 0.191-0.908 0.628-1.216l1.205-0.807c0.015 0.065 0 2.937 0 2.937zM26.988 9.608c0-2.519-2.076-4.608-4.6-4.608h-5.479v-1.833l-1.223 0.852c-0.384 0.267-0.535 0.553-0.575 0.981h-5.552c-2.528 0-4.561 2.089-4.561 4.608 0 0-0.015 2.673 0 2.74l1.176-0.807c0.439-0.309 0.635-0.683 0.635-1.219v-0.715c0-1.511 1.233-2.775 2.749-2.775h5.516v20.167l-4.355 0.008c-0.535 0-0.893 0.165-1.203 0.607l-0.855 1.219h14.66l-0.868-1.319c-0.308-0.441-0.667-0.515-1.201-0.515h-4.344v-20.167h5.479c1.516 0 2.749 1.264 2.749 2.775l0.039 0.715c0 0.535 0.196 0.909 0.636 1.217l1.176 0.807c0.013-0.065 0-2.739 0-2.739z"></path>
</svg>
