<!-- Generated by IcoMoon.io -->
<svg version="1.1" xmlns="http://www.w3.org/2000/svg" width="24" height="24" viewBox="0 0 24 24">
<title>balance</title>
<path fill="#444" d="M7.927 14.176c0 1.863-1.523 3.379-3.393 3.379v0c-1.87 0-3.392-1.516-3.392-3.379v-2.176l0.886 0.597c0.324 0.228 0.47 0.505 0.47 0.9v0.677c0 1.118 0.913 2.028 2.036 2.028v0c1.121 0 2.036-0.909 2.036-2.028v-0.676c0-0.395 0.144-0.672 0.47-0.9l0.888-0.598c0.011 0.047 0 2.176 0 2.176zM22.852 14.176c0 1.863-1.527 3.379-3.397 3.379v0c-1.869 0-3.387-1.516-3.387-3.379 0 0-0.011-2.127 0-2.176l0.881 0.597c0.326 0.228 0.475 0.505 0.475 0.9v0.677c0 1.118 0.908 2.028 2.030 2.028v0c1.122 0 2.040-0.909 2.040-2.028v-0.676c0-0.395 0.141-0.672 0.466-0.9l0.893-0.598c0.011 0.047 0 2.176 0 2.176zM20.133 7.269c0-1.865-1.536-3.412-3.405-3.412h-4.055v-1.357l-0.905 0.631c-0.284 0.197-0.395 0.41-0.425 0.726h-4.111c-1.871 0-3.377 1.547-3.377 3.412 0 0-0.011 1.979 0 2.028l0.871-0.597c0.324-0.229 0.47-0.506 0.47-0.902v-0.529c0-1.118 0.913-2.053 2.036-2.053h4.082v14.929l-3.223 0.005c-0.396 0-0.661 0.124-0.89 0.449l-0.632 0.902h10.852l-0.643-0.977c-0.227-0.326-0.493-0.38-0.889-0.38h-3.216v-14.929h4.055c1.122 0 2.036 0.935 2.036 2.055l0.029 0.529c0 0.396 0.145 0.673 0.471 0.901l0.871 0.597c0.011-0.049 0-2.028 0-2.028z"></path>
</svg>
