<!-- Generated by IcoMoon.io -->
<svg version="1.1" xmlns="http://www.w3.org/2000/svg" width="24" height="24" viewBox="0 0 24 24">
<title>balloon</title>
<path fill="#444" d="M16.41 20.302c-0.575-0.55-1.183-0.927-2.102-1.298-0.797-0.325-1.215-0.576-1.429-1.13-0.008-0.022-0.010-0.055-0.019-0.078h0.557c0.511 0 0.979-0.282 1.217-0.733 0.235-0.447 0.206-0.989-0.071-1.407 2.933-1.423 4.59-4.476 4.273-8.046-0.263-2.993-2.163-5.467-4.836-6.3-0.655-0.206-1.334-0.309-2.018-0.309-2.127 0-4.154 1.026-5.428 2.744-1.44 1.951-1.816 4.621-1.008 7.15 0.678 2.112 2.093 3.843 3.875 4.788-0.26 0.411-0.285 0.932-0.058 1.368 0.235 0.457 0.707 0.744 1.221 0.744h0.876c0.041 0.201 0.077 0.408 0.142 0.576 0.429 1.112 1.319 1.552 2.193 1.907 0.63 0.257 1.155 0.529 1.668 1.019 0.507 0.487 0.644 0.752 1.061 1.702l0.613-0.938c0.139-0.215 0.256-0.474 0.137-0.637-0.219-0.378-0.48-0.754-0.863-1.122zM10.581 16.419l0.678-1.415-0.518-0.235c-1.786-0.655-3.231-2.244-3.887-4.295-0.674-2.106-0.373-4.315 0.804-5.91 1.015-1.369 2.632-2.186 4.324-2.186 0.543 0 1.084 0.083 1.606 0.246 2.142 0.667 3.664 2.673 3.879 5.107 0.294 3.337-1.353 6.050-4.297 7.039l-0.582 0.235 0.829 1.415h-2.837zM15.63 8.855c-0.38 0-0.688-0.309-0.688-0.689 0-1.147-0.803-2.192-1.059-2.313-0.313-0.088-0.628-0.298-0.628-0.677 0-0.381 0.367-0.679 0.747-0.679 1.060 0 2.315 1.988 2.315 3.668 0.001 0.38-0.307 0.689-0.688 0.689z"></path>
</svg>
