<!-- Generated by IcoMoon.io -->
<svg version="1.1" xmlns="http://www.w3.org/2000/svg" width="24" height="24" viewBox="0 0 24 24">
<title>bank_bond</title>
<path d="M23 14.349c0-2.223-1.866-3.724-3.438-3.951v-5.546c0-0.562-0.342-1.064-0.862-1.275l-6.187-2.477c-0.167-0.065-0.34-0.1-0.513-0.1s-0.346 0.035-0.513 0.101l-6.187 2.476c-0.52 0.211-0.862 0.713-0.862 1.275v16.773c0 0.758 0.614 1.375 1.374 1.375h4.125c0.76 0 1.375-0.617 1.375-1.375v-1.375h1.375v1.375c0 0.758 0.615 1.375 1.375 1.375h4.125c0.691 0 1.256-0.511 1.355-1.173l1.989 1.105c0.139 0.078 0.314 0.073 0.447-0.013 0.134-0.085 0.206-0.236 0.184-0.388 0 0-0.733-5.047-0.739-5.066 0.954-0.74 1.577-1.854 1.577-3.116zM15.526 21.625h-1.464v-2.062c0-0.382-0.309-0.688-0.688-0.688h-2.75c-0.379 0-0.688 0.306-0.688 0.688v2.062h-4.124v-16.773l6.188-2.477 6.188 2.477v5.514c-1.161 0.157-2.167 0.766-2.825 1.634h-1.988v1.375h1.32c0 0 0-0.001 0-0.001-0.082 0.314-0.139 0.637-0.139 0.975 0 0.136 0.010 0.269 0.025 0.401h-1.206v1.375h1.625c0 0 0 0 0 0 0.275 0.519 0.664 0.976 1.135 1.34-0.007 0.020-0.668 4.563-0.609 4.16zM20.438 17.634c0.030 0.193 0.356 2.433 0.563 3.86l-1.737-0.965c-0.151-0.084-0.318-0.126-0.486-0.126-0.167 0-0.334 0.042-0.486 0.126l-1.737 0.965c0.206-1.419 0.53-3.639 0.564-3.853 0.066-0.362-0.075-0.737-0.372-0.968-0.757-0.586-1.191-1.433-1.191-2.325 0-1.668 1.445-3.025 3.222-3.025 1.776 0 3.222 1.357 3.222 3.025 0 0.893-0.433 1.74-1.188 2.324-0.296 0.229-0.437 0.6-0.374 0.962z"></path>
<path d="M13.375 7.875h1.908c0.399-0.001 0.666-0.128 0.894-0.456l0.635-0.919h-3.438v1.375z"></path>
<path d="M13.375 10.625h1.908c0.399-0.001 0.666-0.128 0.894-0.456l0.635-0.919h-3.438v1.375z"></path>
<path d="M7.188 10.625h1.908c0.399-0.001 0.666-0.128 0.894-0.456l0.635-0.919h-3.437v1.375z"></path>
<path d="M7.188 7.875h1.908c0.399-0.001 0.666-0.128 0.894-0.456l0.635-0.919h-3.437v1.375z"></path>
<path d="M7.188 16.125h1.908c0.399-0.001 0.666-0.128 0.894-0.456l0.635-0.919h-3.437v1.375z"></path>
<path d="M7.188 13.375h1.908c0.399-0.001 0.666-0.128 0.894-0.456l0.635-0.919h-3.437v1.375z"></path>
</svg>
