<!-- Generated by IcoMoon.io -->
<svg version="1.1" xmlns="http://www.w3.org/2000/svg" width="32" height="32" viewBox="0 0 32 32">
<path d="M30.667 19.132c0-2.964-2.488-4.965-4.584-5.268v-7.395c0-0.749-0.456-1.419-1.149-1.7l-8.249-3.303c-0.223-0.087-0.453-0.133-0.684-0.133s-0.461 0.047-0.684 0.135l-8.249 3.301c-0.693 0.281-1.149 0.951-1.149 1.7v22.364c0 1.011 0.819 1.833 1.832 1.833h5.5c1.013 0 1.833-0.823 1.833-1.833v-1.833h1.833v1.833c0 1.011 0.82 1.833 1.833 1.833h5.5c0.921 0 1.675-0.681 1.807-1.564l2.652 1.473c0.185 0.104 0.419 0.097 0.596-0.017 0.179-0.113 0.275-0.315 0.245-0.517 0 0-0.977-6.729-0.985-6.755 1.272-0.987 2.103-2.472 2.103-4.155zM20.701 28.833h-1.952v-2.749c0-0.509-0.412-0.917-0.917-0.917h-3.667c-0.505 0-0.917 0.408-0.917 0.917v2.749h-5.499v-22.364l8.251-3.303 8.251 3.303v7.352c-1.548 0.209-2.889 1.021-3.767 2.179h-2.651v1.833h1.76c0 0 0-0.001 0-0.001-0.109 0.419-0.185 0.849-0.185 1.3 0 0.181 0.013 0.359 0.033 0.535h-1.608v1.833h2.167c0 0 0 0 0 0 0.367 0.692 0.885 1.301 1.513 1.787-0.009 0.027-0.891 6.084-0.812 5.547zM27.251 23.512c0.040 0.257 0.475 3.244 0.751 5.147l-2.316-1.287c-0.201-0.112-0.424-0.168-0.648-0.168-0.223 0-0.445 0.056-0.648 0.168l-2.316 1.287c0.275-1.892 0.707-4.852 0.752-5.137 0.088-0.483-0.1-0.983-0.496-1.291-1.009-0.781-1.588-1.911-1.588-3.1 0-2.224 1.927-4.033 4.296-4.033 2.368 0 4.296 1.809 4.296 4.033 0 1.191-0.577 2.32-1.584 3.099-0.395 0.305-0.583 0.8-0.499 1.283z"></path>
<path d="M17.833 10.5h2.544c0.532-0.001 0.888-0.171 1.192-0.608l0.847-1.225h-4.584v1.833z"></path>
<path d="M17.833 14.167h2.544c0.532-0.001 0.888-0.171 1.192-0.608l0.847-1.225h-4.584v1.833z"></path>
<path d="M9.584 14.167h2.544c0.532-0.001 0.888-0.171 1.192-0.608l0.847-1.225h-4.583v1.833z"></path>
<path d="M9.584 10.5h2.544c0.532-0.001 0.888-0.171 1.192-0.608l0.847-1.225h-4.583v1.833z"></path>
<path d="M9.584 21.5h2.544c0.532-0.001 0.888-0.171 1.192-0.608l0.847-1.225h-4.583v1.833z"></path>
<path d="M9.584 17.833h2.544c0.532-0.001 0.888-0.171 1.192-0.608l0.847-1.225h-4.583v1.833z"></path>
</svg>
