<!-- Generated by IcoMoon.io -->
<svg version="1.1" xmlns="http://www.w3.org/2000/svg" width="24" height="24" viewBox="0 0 24 24">
<title>bank_account</title>
<path d="M4.724 16.125h1.908c0.399-0.001 0.666-0.128 0.894-0.456l0.635-0.919h-3.437v1.375z"></path>
<path d="M4.724 12v1.375h1.908c0.399-0.001 0.666-0.128 0.894-0.456l0.636-0.919h-3.438z"></path>
<path d="M4.724 9.25v1.375h1.908c0.399-0.001 0.666-0.128 0.894-0.456l0.636-0.919h-3.438z"></path>
<path d="M4.724 6.5v1.375h1.908c0.399-0.001 0.666-0.128 0.894-0.456l0.636-0.919h-3.438z"></path>
<path d="M15.724 18.67v2.956h-4.125v-2.062c0-0.382-0.309-0.688-0.688-0.688h-2.75c-0.379 0-0.688 0.306-0.688 0.688v2.062h-4.124v-16.774l6.188-2.477 1.674 0.657 0.218 0.088c0.372 0.143 0.665 0.124 0.997-0.098l0.921-0.614-2.769-1.1v0.005l-0.528-0.211c-0.167-0.067-0.34-0.102-0.513-0.102-0.174 0-0.346 0.035-0.513 0.101l-6.187 2.476c-0.52 0.211-0.863 0.713-0.863 1.275v16.773c0 0.758 0.615 1.375 1.375 1.375h4.125c0.76 0 1.375-0.617 1.375-1.375v-1.375h1.375v1.375c0 0.758 0.615 1.375 1.375 1.375h4.125c0.76 0 1.375-0.617 1.375-1.375v-4.5l-0.917 0.642c-0.33 0.231-0.456 0.5-0.458 0.903z"></path>
<path d="M18.845 4.606c-0.068-0.097-0.148-0.153-0.23-0.215-0.143-0.117-0.311-0.196-0.516-0.221l-0.309-0.018v11l0.919-0.643c0.328-0.229 0.455-0.498 0.456-0.902v-6.17l0.74 1.055c0.232 0.327 0.492 0.476 0.895 0.476h1.119l-3.074-4.362z"></path>
<path d="M14.765 14.914c0.143 0.117 0.31 0.196 0.516 0.221l0.309 0.018v-11l-0.92 0.642c-0.328 0.229-0.455 0.498-0.456 0.902v6.17l-0.74-1.055c-0.232-0.327-0.492-0.476-0.895-0.476h-1.119l3.074 4.362c0.069 0.098 0.149 0.155 0.231 0.216z"></path>
<path d="M10.912 6.5h1.367v1.375h-1.367v-1.375z"></path>
<path d="M10.912 16.125h1.337c0.253-0.001 0.863 0 1.058 0l-0.981-1.375h-1.414v1.375z"></path>
</svg>
