<!-- Generated by IcoMoon.io -->
<svg version="1.1" xmlns="http://www.w3.org/2000/svg" width="24" height="24" viewBox="0 0 24 24">
<title>bank_account</title>
<path d="M8.162 14.75l-0.635 0.919c-0.228 0.328-0.495 0.455-0.894 0.456h-1.909v-1.375h3.438z"></path>
<path d="M8.162 12l-0.635 0.919c-0.228 0.328-0.495 0.455-0.894 0.456h-1.909v-1.375h3.438z"></path>
<path d="M8.162 9.25l-0.635 0.919c-0.228 0.328-0.495 0.455-0.894 0.456h-1.909v-1.375h3.438z"></path>
<path d="M14.349 14.75l-0.635 0.919c-0.228 0.328-0.495 0.455-0.894 0.456h-1.908v-1.375h3.437z"></path>
<path d="M14.349 12l-0.635 0.919c-0.228 0.328-0.495 0.455-0.894 0.456h-1.908v-1.375h3.437z"></path>
<path d="M8.162 6.5l-0.635 0.919c-0.229 0.328-0.496 0.455-0.895 0.456h-1.908v-1.375h3.438z"></path>
<path d="M18.131 1.949c-2.085 0-3.781 1.696-3.781 3.781 0 2.086 1.696 3.781 3.781 3.781s3.781-1.695 3.781-3.781c0-2.084-1.696-3.781-3.781-3.781zM18.131 8.137c-1.327 0-2.406-1.080-2.406-2.406 0-1.327 1.080-2.406 2.406-2.406 1.327 0 2.406 1.079 2.406 2.406 0 1.326-1.080 2.406-2.406 2.406z"></path>
<path d="M16.182 11.081c-0.33 0.231-0.456 0.5-0.458 0.902v9.64h-4.125v-2.062c0-0.382-0.309-0.688-0.688-0.688h-2.75c-0.379 0-0.688 0.306-0.688 0.688v2.062h-4.124v-16.771l6.188-2.477 2.946 1.18c0.372 0.143 0.665 0.124 0.997-0.098l0.921-0.614-3.823-1.535v0.005l-0.528-0.211c-0.167-0.067-0.34-0.102-0.513-0.102-0.174 0-0.346 0.035-0.513 0.101l-6.187 2.476c-0.52 0.211-0.863 0.713-0.863 1.275v16.773c0 0.758 0.615 1.375 1.375 1.375h4.125c0.76 0 1.375-0.617 1.375-1.375v-1.375h1.375v1.375c0 0.758 0.615 1.375 1.375 1.375h4.125c0.76 0 1.375-0.617 1.375-1.375v-11.186l-0.917 0.642z"></path>
<path d="M12.68 6.5h-1.768v1.375h1.908c0.082 0 0.155-0.010 0.226-0.021-0.178-0.426-0.3-0.881-0.366-1.354z"></path>
<path d="M13.99 9.25h-3.079v1.375h1.908c0.399-0.001 0.666-0.128 0.894-0.456l0.48-0.695c-0.069-0.072-0.136-0.148-0.203-0.224z"></path>
</svg>
