<!-- Generated by IcoMoon.io -->
<svg version="1.1" xmlns="http://www.w3.org/2000/svg" width="32" height="32" viewBox="0 0 32 32">
<title>bank_account</title>
<path d="M6.299 21.5h2.544c0.532-0.001 0.888-0.171 1.192-0.608l0.847-1.225h-4.583v1.833z"></path>
<path d="M6.299 16v1.833h2.544c0.532-0.001 0.888-0.171 1.192-0.608l0.848-1.225h-4.584z"></path>
<path d="M6.299 12.333v1.833h2.544c0.532-0.001 0.888-0.171 1.192-0.608l0.848-1.225h-4.584z"></path>
<path d="M6.299 8.667v1.833h2.544c0.532-0.001 0.888-0.171 1.192-0.608l0.848-1.225h-4.584z"></path>
<path d="M20.965 24.893v3.941h-5.5v-2.749c0-0.509-0.412-0.917-0.917-0.917h-3.667c-0.505 0-0.917 0.408-0.917 0.917v2.749h-5.499v-22.365l8.251-3.303 2.232 0.876 0.291 0.117c0.496 0.191 0.887 0.165 1.329-0.131l1.228-0.819-3.692-1.467v0.007l-0.704-0.281c-0.223-0.089-0.453-0.136-0.684-0.136-0.232 0-0.461 0.047-0.684 0.135l-8.249 3.301c-0.693 0.281-1.151 0.951-1.151 1.7v22.364c0 1.011 0.82 1.833 1.833 1.833h5.5c1.013 0 1.833-0.823 1.833-1.833v-1.833h1.833v1.833c0 1.011 0.82 1.833 1.833 1.833h5.5c1.013 0 1.833-0.823 1.833-1.833v-6l-1.223 0.856c-0.44 0.308-0.608 0.667-0.611 1.204z"></path>
<path d="M25.127 6.141c-0.091-0.129-0.197-0.204-0.307-0.287-0.191-0.156-0.415-0.261-0.688-0.295l-0.412-0.024v14.667l1.225-0.857c0.437-0.305 0.607-0.664 0.608-1.203v-8.227l0.987 1.407c0.309 0.436 0.656 0.635 1.193 0.635h1.492l-4.099-5.816z"></path>
<path d="M19.687 19.885c0.191 0.156 0.413 0.261 0.688 0.295l0.412 0.024v-14.667l-1.227 0.856c-0.437 0.305-0.607 0.664-0.608 1.203v8.227l-0.987-1.407c-0.309-0.436-0.656-0.635-1.193-0.635h-1.492l4.099 5.816c0.092 0.131 0.199 0.207 0.308 0.288z"></path>
<path d="M14.549 8.667h1.823v1.833h-1.823v-1.833z"></path>
<path d="M14.549 21.5h1.783c0.337-0.001 1.151 0 1.411 0l-1.308-1.833h-1.885v1.833z"></path>
</svg>
