<!-- Generated by IcoMoon.io -->
<svg version="1.1" xmlns="http://www.w3.org/2000/svg" width="24" height="24" viewBox="0 0 24 24">
<title>barcode</title>
<path d="M13.375 1v20.456c-0.003 0.402-0.129 0.671-0.459 0.902l-0.916 0.642v-20.456c0.001-0.402 0.127-0.671 0.458-0.902l0.917-0.642zM7.001 1.642c-0.331 0.231-0.457 0.5-0.458 0.902v20.456l0.916-0.642c0.33-0.231 0.456-0.5 0.459-0.902v-20.456l-0.917 0.642zM14.821 1.642c-0.331 0.231-0.457 0.5-0.458 0.902v20.456l0.916-0.642c0.33-0.231 0.456-0.5 0.459-0.902v-20.456l-0.917 0.642zM16.454 1.642c-0.331 0.231-0.457 0.5-0.458 0.902v20.456l0.916-0.642c0.33-0.231 0.456-0.5 0.459-0.902v-20.456l-0.917 0.642zM18.087 1.642c-0.331 0.231-0.457 0.5-0.458 0.902v20.456l0.916-0.642c0.33-0.231 0.456-0.5 0.459-0.902v-20.456l-0.917 0.642zM22.083 1.642c-0.331 0.231-0.457 0.5-0.458 0.902v20.456l0.916-0.642c0.33-0.231 0.456-0.5 0.459-0.902v-20.456l-0.917 0.642zM3.692 1.642c-0.331 0.231-0.457 0.5-0.458 0.902v20.456l0.916-0.642c0.33-0.231 0.456-0.5 0.459-0.902v-20.456l-0.917 0.642zM1.458 1.642c-0.331 0.231-0.457 0.5-0.458 0.902v20.456l0.916-0.642c0.33-0.231 0.456-0.5 0.459-0.902v-20.456l-0.917 0.642z"></path>
</svg>
