<!-- Generated by IcoMoon.io -->
<svg version="1.1" xmlns="http://www.w3.org/2000/svg" width="32" height="32" viewBox="0 0 32 32">
<title>bear</title>
<path d="M10.507 11.453l1.12-1.147 0.267 1.467c0.107 0.52-0.013 0.893-0.4 1.28l-1.12 1.147-0.267-1.467c-0.107-0.52 0.027-0.893 0.4-1.28zM2.013 26.053c0.24 0.187 0.467 0.227 0.773 0.133l0.893-0.28-0.68-0.533c-0.24-0.187-0.467-0.227-0.773-0.133l-0.893 0.28 0.68 0.533zM3.28 24.613c0.24 0.187 0.48 0.227 0.773 0.133l0.893-0.28-0.68-0.533c-0.24-0.187-0.48-0.227-0.773-0.133l-0.893 0.28 0.68 0.533zM5.48 23.947c0.24 0.187 0.467 0.227 0.773 0.133l0.893-0.28-0.68-0.533c-0.24-0.187-0.467-0.227-0.773-0.133l-0.893 0.293 0.68 0.52zM3.56 28.893c0.24 0.187 0.48 0.227 0.773 0.133l0.893-0.28-0.693-0.533c-0.24-0.187-0.467-0.227-0.773-0.133l-0.893 0.28 0.693 0.533zM2.093 27.587c0.24 0.187 0.48 0.227 0.773 0.133l0.893-0.28-0.68-0.533c-0.24-0.187-0.48-0.227-0.773-0.133l-0.893 0.28 0.68 0.533zM10.947 30.093l5.64-5.92c0.267-0.28 0.293-0.72 0.053-1.027l-2.893-3.84c-0.213-0.28-0.587-0.387-0.907-0.267l-4.373 1.587-2.267-1.613 2.56-4.373c0.12-0.2 0.147-0.427 0.067-0.653l-0.693-2.16 8.467-8.093h2.987l9.68 12.307c0.267 0.347 0.773 0.4 1.12 0.133s0.413-0.773 0.133-1.12l-9.92-12.613c-0.147-0.2-0.387-0.307-0.627-0.307h-3.707c-0.2 0-0.4 0.080-0.547 0.227l-9.053 8.653c-0.227 0.213-0.307 0.533-0.213 0.827l0.733 2.28-2.747 4.693c-0.213 0.36-0.107 0.813 0.227 1.053l3.2 2.28c0.213 0.147 0.493 0.187 0.733 0.107l4.213-1.52 2.12 2.827-5.173 5.427c-0.307 0.32-0.293 0.827 0.027 1.133 0.16 0.147 0.347 0.227 0.547 0.227 0.24-0.013 0.453-0.093 0.613-0.253z"></path>
</svg>
