<!-- Generated by IcoMoon.io -->
<svg version="1.1" xmlns="http://www.w3.org/2000/svg" width="24" height="24" viewBox="0 0 24 24">
<title>bear</title>
<path d="M9.384 11.808c-0.231-0.33-0.5-0.457-0.902-0.458h-0.207c-0.403 0.001-0.671 0.128-0.902 0.458l-0.642 0.917h3.294l-0.641-0.917z"></path>
<path d="M16.192 11.35h-0.206c-0.403 0.001-0.671 0.128-0.902 0.458l-0.642 0.917h3.294l-0.642-0.917c-0.231-0.33-0.5-0.457-0.902-0.458z"></path>
<path d="M13.431 18.903h-0.767v-1.545c0.354-0.019 0.604-0.145 0.818-0.45l0.642-0.917v-1.375h-4.295v1.375l0.642 0.917c0.213 0.305 0.464 0.431 0.818 0.45v1.545h-0.779c-0.399 0.001-0.665 0.126-0.894 0.454l-0.636 0.908h5.98l-0.636-0.908c-0.228-0.327-0.495-0.452-0.893-0.454z"></path>
<path d="M23 9.053v-4.812c0-0.556-0.334-1.056-0.846-1.269l-2.916-1.25c-0.344-0.143-0.729-0.141-1.070 0.005l-2.667 1.125c-0.507 0.216-0.834 0.714-0.834 1.264v1.37h-5.334v-1.37c0-0.55-0.327-1.047-0.834-1.264l-2.667-1.125c-0.341-0.147-0.727-0.148-1.070-0.005l-2.916 1.25c-0.512 0.213-0.846 0.713-0.846 1.269v4.812c0 0.365 0.145 0.714 0.402 0.972l1.537 1.537-1.837 4.287c-0.137 0.319-0.135 0.675-0.019 1.001h-0.010l0.021 0.050c0.003 0.006 0.001 0.013 0.004 0.019l2.169 5.205h0.005c0.214 0.51 0.713 0.843 1.267 0.843l14.915-0.006c0.552 0 1.048-0.331 1.264-0.837v0 0c0.001-0.003 0.004-0.005 0.005-0.008l2.196-5.271h-0.019c0.114-0.325 0.116-0.678-0.020-0.995l-1.305-3.044-0.526-1.232 1.548-1.548c0.258-0.258 0.403-0.608 0.403-0.973zM21.625 9.053l-1.157 1.157-1.233-2.89c-0.159-0.37-0.381-0.567-0.775-0.65l-1.095-0.23 1.099 2.575h-0.008l1.897 4.426c0.001 0.002 0.001 0.002 0.002 0.003l1.263 2.946-2.166 5.197-14.914 0.006-1.976-4.742h-0.005l-0.192-0.46 1.25-2.917c0.007-0.014 0.012-0.016 0.019-0.032l1.138-2.667 0.754-1.759h-0.002l1.099-2.576-1.096 0.23c-0.394 0.083-0.615 0.28-0.775 0.65l-1.229 2.881-1.148-1.148v-4.812l2.916-1.25 2.667 1.125v1.37h-0.015l0.636 0.909c0.229 0.327 0.495 0.452 0.894 0.454h5.035c0.399-0.001 0.665-0.126 0.894-0.454l0.633-0.904 0.007-0.005v-1.37l2.667-1.125 2.916 1.25v4.812z"></path>
</svg>
