<!-- Generated by IcoMoon.io -->
<svg version="1.1" xmlns="http://www.w3.org/2000/svg" width="24" height="24" viewBox="0 0 24 24">
<title>bear</title>
<path d="M7.88 8.59l0.84-0.86 0.2 1.1c0.080 0.39-0.010 0.67-0.3 0.96l-0.84 0.86-0.2-1.1c-0.080-0.39 0.020-0.67 0.3-0.96zM1.51 19.54c0.18 0.14 0.35 0.17 0.58 0.1l0.67-0.21-0.51-0.4c-0.18-0.14-0.35-0.17-0.58-0.1l-0.67 0.21 0.51 0.4zM2.46 18.46c0.18 0.14 0.36 0.17 0.58 0.1l0.67-0.21-0.51-0.4c-0.18-0.14-0.36-0.17-0.58-0.1l-0.67 0.21 0.51 0.4zM4.11 17.96c0.18 0.14 0.35 0.17 0.58 0.1l0.67-0.21-0.51-0.4c-0.18-0.14-0.35-0.17-0.58-0.1l-0.67 0.22 0.51 0.39zM2.67 21.67c0.18 0.14 0.36 0.17 0.58 0.1l0.67-0.21-0.52-0.4c-0.18-0.14-0.35-0.17-0.58-0.1l-0.67 0.21 0.52 0.4zM1.57 20.69c0.18 0.14 0.36 0.17 0.58 0.1l0.67-0.21-0.51-0.4c-0.18-0.14-0.36-0.17-0.58-0.1l-0.67 0.21 0.51 0.4zM8.21 22.57l4.23-4.44c0.2-0.21 0.22-0.54 0.040-0.77l-2.17-2.88c-0.16-0.21-0.44-0.29-0.68-0.2l-3.28 1.19-1.7-1.21 1.92-3.28c0.090-0.15 0.11-0.32 0.050-0.49l-0.52-1.62 6.35-6.070h2.24l7.26 9.23c0.2 0.26 0.58 0.3 0.84 0.1s0.31-0.58 0.1-0.84l-7.44-9.46c-0.11-0.15-0.29-0.23-0.47-0.23h-2.78c-0.15 0-0.3 0.060-0.41 0.17l-6.79 6.49c-0.17 0.16-0.23 0.4-0.16 0.62l0.55 1.71-2.060 3.52c-0.16 0.27-0.080 0.61 0.17 0.79l2.4 1.71c0.16 0.11 0.37 0.14 0.55 0.080l3.16-1.14 1.59 2.12-3.88 4.070c-0.23 0.24-0.22 0.62 0.020 0.85 0.12 0.11 0.26 0.17 0.41 0.17 0.18-0.010 0.34-0.070 0.46-0.19z"></path>
</svg>
