<!-- Generated by IcoMoon.io -->
<svg version="1.1" xmlns="http://www.w3.org/2000/svg" width="32" height="32" viewBox="0 0 32 32">
<title>bell</title>
<path d="M12.333 28.892l0.857-1.225c0.305-0.437 0.664-0.607 1.203-0.608h3.213c0.539 0.001 0.897 0.171 1.203 0.608l0.857 1.225h-7.333zM30.459 24.243c-0.315 0.605-0.941 0.983-1.625 0.983h-25.667c-0.684 0-1.311-0.377-1.625-0.983-0.316-0.613-0.269-1.34 0.124-1.904l0.855-1.217c0.4-0.572 1.016-0.916 1.589-1.124 0.655-1.489 1.075-3.56 1.075-5.404l0.001-1.465c0-5.971 4.852-10.82 10.815-10.82s10.815 4.851 10.815 10.821l0.001 1.463c0 1.844 0.42 3.916 1.075 5.405 0.573 0.208 1.189 0.552 1.589 1.124l0.855 1.217c0.393 0.564 0.44 1.291 0.124 1.904zM28.833 23.392l-0.856-1.225c-0.308-0.437-1.357-0.608-1.357-0.608-0.989-1.753-1.639-4.496-1.639-6.965v-1.464c0-4.969-4.023-8.988-8.981-8.988s-8.981 4.020-8.981 8.989v1.464c0 2.469-0.649 5.211-1.639 6.965 0 0-1.049 0.171-1.357 0.608l-0.856 1.225h25.667z"></path>
</svg>
