<!-- Generated by IcoMoon.io -->
<svg version="1.1" xmlns="http://www.w3.org/2000/svg" width="24" height="24" viewBox="0 0 24 24">
<title>bell_off</title>
<path fill="#444" d="M21.926 20.929l-0.462-0.51-19.413-19.413-0.195 1.102c-0.059 0.331 0.030 0.577 0.218 0.818l0.462 0.51 2.414 2.413c-0.671 1.179-1.057 2.542-1.057 3.993v1.099c0 1.385-0.315 2.935-0.805 4.051-0.429 0.154-0.892 0.412-1.191 0.84l-0.642 0.917c-0.294 0.421-0.33 0.967-0.092 1.422 0.235 0.456 0.705 0.699 1.218 0.699h15.633l3.936 3.978 0.195-1.102c0.059-0.331-0.033-0.577-0.218-0.818zM2.381 17.497l0.642-0.875c0.231-0.33 1.017-0.458 1.017-0.458 0.741-1.316 1.227-3.369 1.227-5.222v-1.098c0-1.068 0.275-2.063 0.724-2.953l10.648 10.606h-14.258zM22.65 16.81c0 0.379-0.308 0.687-0.687 0.687-0.21 0-0.392-0.099-0.518-0.249l-0.467-0.627c-0.231-0.33-1.017-0.458-1.017-0.458-0.742-1.316-1.229-3.369-1.229-5.222v-1.098c0-3.72-3.015-6.735-6.732-6.735-1.201 0-2.313 0.333-3.283 0.893-0.117 0.095-0.261 0.161-0.426 0.161-0.379 0-0.687-0.308-0.687-0.687 0-0.213 0.118-0.471 0.229-0.58 1.015-0.998 2.643-1.202 4.166-1.202 4.47 0 8.106 3.68 8.106 8.152v1.097c0 1.385 0.315 2.937 0.805 4.052 0.429 0.154 0.892 0.412 1.191 0.84 0.001 0 0.547 0.783 0.547 0.976zM14.748 21.619l-0.642-0.917c-0.231-0.33-0.499-0.456-0.901-0.458h-2.41c-0.403 0.001-0.671 0.128-0.901 0.458l-0.642 0.917h5.497z"></path>
</svg>
