<!-- Generated by IcoMoon.io -->
<svg version="1.1" xmlns="http://www.w3.org/2000/svg" width="32" height="32" viewBox="0 0 32 32">
<path d="M17.607 27h-3.213c-0.539 0.001-0.897 0.171-1.203 0.608l-0.857 1.225h7.333l-0.857-1.225c-0.305-0.437-0.664-0.607-1.203-0.608z"></path>
<path d="M28.625 27.329l-25.899-25.9-0.259 1.471c-0.081 0.441 0.039 0.768 0.291 1.092l0.616 0.679 3.165 3.165c-0.861 1.551-1.356 3.331-1.356 5.235l-0.001 1.465c0 1.844-0.419 3.915-1.075 5.404-0.573 0.208-1.189 0.552-1.589 1.124l-0.853 1.217c-0.393 0.564-0.44 1.291-0.124 1.904 0.315 0.605 0.943 0.983 1.625 0.983h20.704l5.403 5.404 0.259-1.471c0.081-0.441-0.043-0.768-0.291-1.092l-0.616-0.68zM3.167 23.333l0.856-1.225c0.309-0.437 1.357-0.608 1.357-0.608 0.989-1.753 1.639-4.496 1.639-6.965l0.001-1.464c0-1.391 0.339-2.687 0.899-3.859l14.12 14.12h-18.872z"></path>
<path d="M30.335 22.28l-0.853-1.217c-0.4-0.572-1.016-0.916-1.589-1.124-0.656-1.489-1.075-3.561-1.075-5.405l-0.001-1.463c0-5.972-4.852-10.821-10.816-10.821-2.404 0-4.605 0.813-6.401 2.148-0.116 0.052-0.401 0.351-0.401 0.351-0.095 0.144-0.164 0.309-0.164 0.496 0 0.505 0.409 0.917 0.917 0.917 0.108 0 0.351 0 0.351 0 1.547-1.293 3.524-2.079 5.699-2.079 4.959 0 8.981 4.020 8.981 8.988l0.001 1.464c0 2.469 0.649 5.211 1.639 6.965 0 0 1.048 0.171 1.357 0.608l0.856 1.225h-0.008l0.008 0.001v0.019c-0.507 0-0.917 0.408-0.917 0.917 0 0.501 0.411 0.917 0.917 0.917 0.091 0 0.172-0.028 0.253-0.053 0.581-0.083 1.099-0.423 1.372-0.949 0.315-0.615 0.268-1.341-0.125-1.905z"></path>
</svg>
