<!-- Generated by IcoMoon.io -->
<svg version="1.1" xmlns="http://www.w3.org/2000/svg" width="24" height="24" viewBox="0 0 24 24">
<title>bell</title>
<path fill="#444" d="M9.276 21.534l0.636-0.908c0.229-0.327 0.494-0.452 0.894-0.454h2.389c0.399 0.001 0.665 0.127 0.894 0.454l0.636 0.908h-5.448zM22.743 18.078c-0.234 0.451-0.7 0.733-1.208 0.733h-19.069c-0.508 0-0.974-0.282-1.208-0.733s-0.199-0.993 0.091-1.41l0.636-0.908c0.297-0.425 0.755-0.68 1.181-0.832 0.486-1.107 0.798-2.644 0.798-4.017v-1.090c0-4.431 3.604-8.036 8.035-8.036s8.035 3.605 8.035 8.038v1.087c0 1.373 0.312 2.911 0.798 4.017 0.425 0.153 0.884 0.409 1.181 0.832l0.636 0.908c0.293 0.417 0.328 0.96 0.094 1.411zM21.534 17.448l-0.636-0.908c-0.229-0.327-1.008-0.454-1.008-0.454-0.736-1.305-1.218-3.34-1.218-5.176v-1.088c0-3.687-2.987-6.676-6.673-6.676s-6.673 2.988-6.673 6.676v1.088c0 1.836-0.482 3.871-1.218 5.176 0 0-0.779 0.127-1.008 0.454l-0.636 0.908h19.069z"></path>
</svg>
