<!-- Generated by IcoMoon.io -->
<svg version="1.1" xmlns="http://www.w3.org/2000/svg" width="32" height="32" viewBox="0 0 32 32">
<title>bike</title>
<path d="M7.593 16.619c-3.456 0-6.26 2.803-6.26 6.259 0 3.455 2.804 6.26 6.26 6.26 3.459 0 6.26-2.805 6.26-6.26 0-3.456-2.801-6.259-6.26-6.259zM7.593 27.305c-2.441 0-4.427-1.985-4.427-4.427s1.985-4.425 4.427-4.425c2.441 0 4.427 1.984 4.427 4.425s-1.985 4.427-4.427 4.427zM24.407 16.619c-3.456 0-6.26 2.804-6.26 6.259s2.804 6.26 6.26 6.26c3.457 0 6.26-2.805 6.26-6.26 0-3.456-2.803-6.259-6.26-6.259zM24.407 27.305c-2.441 0-4.427-1.985-4.427-4.427s1.985-4.425 4.427-4.425c2.441 0 4.427 1.984 4.427 4.425s-1.985 4.427-4.427 4.427zM19.667 3.119c-1.516 0-2.749 1.233-2.749 2.749s1.233 2.749 2.749 2.749 2.749-1.233 2.749-2.749-1.233-2.749-2.749-2.749zM19.667 6.785c-0.507 0-0.917-0.411-0.917-0.917s0.411-0.917 0.917-0.917 0.917 0.411 0.917 0.917-0.411 0.917-0.917 0.917zM21.928 11.797l0.856 1.223h-4.401c-0.311 0-0.6-0.157-0.769-0.417l-1.741-2.683-3.265 3.516 3.935 2.875c0.236 0.172 0.376 0.447 0.376 0.737v6.419l-0.047 0.917c-0.049 0.404-0.196 0.72-0.564 0.977l-1.223 0.856 0.001-8.699-4.392-3.211c-0.212-0.153-0.347-0.391-0.372-0.652-0.025-0.26 0.063-0.519 0.241-0.711l4.767-5.133c0.192-0.207 0.472-0.305 0.749-0.289 0.281 0.023 0.536 0.177 0.691 0.413l2.112 3.251h1.153l0.917 0.047c0.401 0.049 0.717 0.196 0.976 0.564z"></path>
</svg>
