<!-- Generated by IcoMoon.io -->
<svg version="1.1" xmlns="http://www.w3.org/2000/svg" width="24" height="24" viewBox="0 0 24 24">
<title>bike</title>
<path fill="#444" d="M5.769 12.493c-2.563 0-4.641 2.079-4.641 4.64s2.078 4.641 4.641 4.641c2.565 0 4.641-2.079 4.641-4.641s-2.078-4.64-4.641-4.64zM5.769 20.415c-1.81 0-3.282-1.472-3.282-3.282 0-1.809 1.472-3.281 3.282-3.281s3.282 1.472 3.282 3.281c-0.001 1.81-1.473 3.282-3.282 3.282zM18.231 12.493c-2.562 0-4.641 2.078-4.641 4.64s2.078 4.641 4.641 4.641c2.563 0 4.641-2.079 4.641-4.641s-2.078-4.64-4.641-4.64zM18.231 20.415c-1.81 0-3.282-1.472-3.282-3.282 0-1.809 1.472-3.281 3.282-3.281s3.282 1.472 3.282 3.281c0 1.81-1.472 3.282-3.282 3.282zM14.718 2.486c-1.124 0-2.039 0.915-2.039 2.039s0.915 2.039 2.039 2.039 2.039-0.915 2.039-2.039-0.915-2.039-2.039-2.039zM14.718 5.205c-0.375 0-0.68-0.304-0.68-0.68s0.304-0.68 0.68-0.68 0.68 0.304 0.68 0.68-0.304 0.68-0.68 0.68zM16.394 8.919l0.635 0.907h-3.262c-0.231 0-0.444-0.117-0.571-0.309l-1.291-1.988-2.421 2.607 2.917 2.131c0.174 0.128 0.279 0.33 0.279 0.546v4.76l-0.034 0.68c-0.037 0.299-0.145 0.534-0.419 0.724l-0.907 0.635 0.001-6.449-3.256-2.38c-0.156-0.114-0.257-0.289-0.276-0.484s0.048-0.385 0.179-0.527l3.534-3.805c0.141-0.154 0.351-0.227 0.556-0.215 0.208 0.018 0.397 0.132 0.511 0.307l1.566 2.408h0.855l0.68 0.034c0.299 0.038 0.534 0.147 0.724 0.419z"></path>
</svg>
