<!-- Generated by IcoMoon.io -->
<svg version="1.1" xmlns="http://www.w3.org/2000/svg" width="32" height="32" viewBox="0 0 32 32">
<title>bill_in</title>
<path d="M28.7 1.333h-25.667c-1.013 0-1.833 0.823-1.833 1.833v11c0 1.011 0.82 1.833 1.833 1.833h25.667c1.013 0 1.833-0.823 1.833-1.833v-11c0-1.011-0.82-1.833-1.833-1.833zM28.7 14.167h-25.667v-11h25.667v11zM18.689 10.673c0 0.74-0.275 1.295-0.82 1.671-0.296 0.211-0.659 0.356-1.085 0.448-0.195 0.239-0.42 0.367-0.745 0.368l-0.956-0.001 0.177-0.252c-0.572-0.011-1.056-0.061-1.4-0.167-0.4-0.117-0.673-0.207-0.816-0.265 0.219-0.625 0.812-0.969 1.463-0.853 0.388 0.077 0.615 0.081 1.012 0.081 0.583 0 1.021-0.081 1.304-0.231 0.28-0.151 0.421-0.401 0.421-0.74 0-0.348-0.14-0.628-0.416-0.831-0.275-0.204-0.732-0.435-1.365-0.693-0.311-0.12-0.603-0.251-0.887-0.375-0.283-0.132-0.527-0.281-0.731-0.455-0.207-0.175-0.369-0.391-0.493-0.631-0.121-0.251-0.187-0.548-0.187-0.912 0-0.701 0.264-1.268 0.785-1.677 0.332-0.271 0.752-0.441 1.239-0.535l0.021-0.032c0.201-0.288 0.451-0.419 0.8-0.42l0.956 0.001-0.273 0.395c0.023 0.003 0.048 0.001 0.075 0.003 0.223 0.027 0.436 0.056 0.631 0.091 0.193 0.041 0.369 0.077 0.515 0.116 0.148 0.044 0.263 0.079 0.347 0.108-0.243 0.627-0.805 0.967-1.473 0.887-0.265-0.032-0.42-0.037-0.692-0.037-0.4 0-0.755 0.076-1.055 0.239-0.295 0.163-0.445 0.407-0.445 0.745 0 0.173 0.036 0.324 0.101 0.463 0.068 0.137 0.169 0.253 0.308 0.363 0.141 0.103 0.313 0.207 0.517 0.297 0.204 0.089 0.449 0.193 0.741 0.291 0.377 0.144 0.717 0.287 1.011 0.424 0.3 0.14 0.553 0.305 0.765 0.485 0.208 0.189 0.372 0.407 0.481 0.667 0.113 0.267 0.169 0.587 0.169 0.965z"></path>
<path d="M22.48 22.845h-1.592c-0.575 0-0.817 0.107-1.148 0.575l-2.764 3.948v-7.456c0-0.54-0.437-0.977-0.977-0.977s-0.977 0.437-0.977 0.977v7.457l-2.765-3.949c-0.331-0.468-0.573-0.575-1.145-0.575h-1.591l4.076 5.893 0.899 1.283c0.1 0.139 0.212 0.22 0.324 0.305 0.213 0.167 0.447 0.281 0.733 0.316l0.449 0.024 0.449-0.024c0.261-0.032 0.479-0.128 0.679-0.264l-0.003-0.003c0.132-0.103 0.265-0.196 0.381-0.361l4.972-7.169z"></path>
</svg>
