<!-- Generated by IcoMoon.io -->
<svg version="1.1" xmlns="http://www.w3.org/2000/svg" width="24" height="24" viewBox="0 0 24 24">
<title>bill</title>
<path fill="#444" d="M21.625 6.5h-19.25c-0.759 0-1.375 0.615-1.375 1.375v8.25c0 0.76 0.616 1.375 1.375 1.375h19.25c0.759 0 1.375-0.615 1.375-1.375v-8.25c0-0.76-0.616-1.375-1.375-1.375zM21.625 16.125h-19.25v-8.25h19.25v8.25zM14.118 13.506c0 0.553-0.206 0.972-0.616 1.255-0.221 0.153-0.494 0.261-0.814 0.333-0.144 0.181-0.316 0.274-0.56 0.275l-0.716-0.001 0.131-0.188c-0.429-0.011-0.792-0.047-1.049-0.124-0.3-0.088-0.505-0.155-0.612-0.201 0.165-0.468 0.608-0.725 1.097-0.638 0.291 0.055 0.461 0.059 0.758 0.059 0.439 0 0.767-0.059 0.978-0.173 0.212-0.116 0.318-0.301 0.318-0.553 0-0.261-0.105-0.47-0.312-0.623-0.206-0.154-0.549-0.327-1.026-0.521-0.23-0.091-0.451-0.184-0.663-0.28s-0.393-0.21-0.549-0.34c-0.153-0.132-0.276-0.29-0.369-0.473-0.092-0.187-0.139-0.413-0.139-0.682 0-0.531 0.197-0.953 0.588-1.262 0.249-0.199 0.562-0.326 0.927-0.399l0.018-0.026c0.153-0.216 0.337-0.311 0.6-0.312l0.716 0.001-0.205 0.293c0.019 0.003 0.037 0.001 0.056 0.003 0.169 0.019 0.329 0.041 0.473 0.070 0.146 0.027 0.276 0.055 0.386 0.087 0.113 0.029 0.198 0.056 0.261 0.080-0.182 0.468-0.605 0.723-1.106 0.664-0.201-0.026-0.316-0.030-0.52-0.030-0.3 0-0.565 0.062-0.789 0.181-0.223 0.118-0.334 0.305-0.334 0.558 0 0.131 0.026 0.246 0.076 0.348 0.050 0.1 0.126 0.19 0.23 0.27 0.106 0.081 0.235 0.157 0.389 0.225 0.153 0.069 0.338 0.142 0.554 0.219 0.285 0.109 0.538 0.214 0.76 0.316 0.224 0.105 0.413 0.227 0.572 0.364 0.158 0.139 0.279 0.307 0.363 0.502 0.084 0.197 0.126 0.437 0.126 0.723z"></path>
</svg>
