<!-- Generated by IcoMoon.io -->
<svg version="1.1" xmlns="http://www.w3.org/2000/svg" width="24" height="24" viewBox="0 0 24 24">
<title>bills</title>
<path fill="#444" d="M12.307 14.703c0 0.476-0.176 0.836-0.529 1.078-0.19 0.132-0.425 0.225-0.7 0.286-0.124 0.157-0.271 0.236-0.481 0.237l-0.615-0.001 0.114-0.161c-0.369-0.010-0.681-0.040-0.901-0.107-0.26-0.074-0.435-0.132-0.528-0.171 0.142-0.403 0.522-0.622 0.943-0.549 0.251 0.047 0.397 0.050 0.651 0.050 0.378 0 0.66-0.050 0.84-0.147 0.182-0.1 0.274-0.26 0.274-0.478 0-0.224-0.090-0.403-0.268-0.536-0.178-0.131-0.472-0.281-0.882-0.446-0.2-0.081-0.389-0.158-0.572-0.243-0.182-0.082-0.339-0.181-0.471-0.292-0.132-0.112-0.237-0.249-0.315-0.406-0.081-0.16-0.121-0.354-0.121-0.586 0-0.456 0.169-0.819 0.507-1.085 0.214-0.171 0.483-0.281 0.796-0.342l0.015-0.025c0.132-0.185 0.289-0.267 0.515-0.267h0.615l-0.176 0.251c0.017 0.003 0.032 0.001 0.049 0.003 0.146 0.015 0.282 0.038 0.407 0.060 0.126 0.024 0.237 0.047 0.332 0.075 0.097 0.026 0.171 0.050 0.225 0.068-0.157 0.403-0.519 0.622-0.951 0.572-0.172-0.022-0.271-0.028-0.446-0.028-0.257 0-0.485 0.053-0.678 0.156-0.192 0.104-0.288 0.264-0.288 0.482 0 0.111 0.022 0.21 0.064 0.299 0.044 0.086 0.11 0.162 0.199 0.232 0.090 0.071 0.201 0.135 0.333 0.194 0.132 0.058 0.29 0.121 0.476 0.188 0.244 0.093 0.464 0.185 0.654 0.272 0.193 0.089 0.354 0.194 0.492 0.314 0.136 0.119 0.24 0.263 0.312 0.432 0.072 0.168 0.108 0.374 0.108 0.619zM21.722 5.75h-16.667c-0.767 0-1.389 0.621-1.389 1.389h18.056v8.333c0.767 0 1.389-0.621 1.389-1.389v-6.944c0-0.768-0.622-1.389-1.389-1.389zM18.944 8.528h-16.667c-0.767 0-1.389 0.621-1.389 1.389v6.944c0 0.768 0.622 1.389 1.389 1.389h16.667c0.767 0 1.389-0.621 1.389-1.389v-6.944c0-0.768-0.622-1.389-1.389-1.389zM18.944 16.861h-16.667v-6.944h16.667v6.944z"></path>
</svg>
