<!-- Generated by IcoMoon.io -->
<svg version="1.1" xmlns="http://www.w3.org/2000/svg" width="32" height="32" viewBox="0 0 32 32">
<title>bomb</title>
<path d="M30.667 1.381l-0.453 1.543c-0.155 0.515-0.416 0.811-0.927 0.981l-1.413 0.477 0.453-1.543c0.153-0.515 0.416-0.811 0.925-0.981l1.415-0.477zM30.141 6.641c-0.172-0.511-0.468-0.772-0.983-0.925l-1.543-0.453 0.477 1.413c0.171 0.511 0.468 0.772 0.981 0.927l1.543 0.453-0.476-1.415zM24.471 2.748c0.171 0.509 0.468 0.772 0.983 0.924l1.543 0.453-0.476-1.413c-0.172-0.509-0.468-0.772-0.981-0.925l-1.544-0.453 0.476 1.415zM26.457 9.207c0.532-0.717 0.472-1.736-0.179-2.387l-1.296-1.296c-0.344-0.343-0.809-0.537-1.296-0.537-0.001 0-0.004 0-0.005 0-0.411 0.003-0.805 0.14-1.125 0.391-2.216-1.433-4.815-2.211-7.472-2.211-7.583 0-13.751 6.168-13.751 13.751s6.168 13.749 13.749 13.749 13.749-6.168 13.749-13.749c0.001-2.76-0.833-5.443-2.375-7.711zM15.083 28.833c-6.581 0-11.917-5.336-11.917-11.917s5.336-11.916 11.917-11.916c2.915 0 5.581 1.049 7.652 2.787l0.951-0.967 1.296 1.297-0.941 0.956c1.837 2.096 2.96 4.836 2.96 7.844 0 6.58-5.335 11.916-11.917 11.916z"></path>
</svg>
