<!-- Generated by IcoMoon.io -->
<svg version="1.1" xmlns="http://www.w3.org/2000/svg" width="24" height="24" viewBox="0 0 24 24">
<title>bomb</title>
<path fill="#444" d="M23 1.036l-0.34 1.158c-0.116 0.385-0.313 0.608-0.694 0.736l-1.060 0.359 0.34-1.158c0.114-0.385 0.312-0.608 0.693-0.736l1.061-0.359zM22.605 4.982c-0.129-0.382-0.351-0.579-0.737-0.694l-1.156-0.34 0.358 1.060c0.128 0.382 0.351 0.579 0.737 0.696l1.156 0.34-0.358-1.061zM18.352 2.060c0.128 0.381 0.351 0.579 0.737 0.693l1.156 0.34-0.358-1.060c-0.129-0.381-0.351-0.579-0.737-0.694l-1.156-0.338 0.358 1.060zM19.843 6.906c0.4-0.539 0.355-1.302-0.133-1.79l-0.972-0.972c-0.259-0.259-0.608-0.403-0.972-0.403-0.001 0-0.003 0-0.004 0-0.308 0.001-0.604 0.104-0.844 0.293-1.662-1.075-3.612-1.658-5.605-1.658-5.687 0-10.313 4.625-10.313 10.313s4.625 10.313 10.313 10.313 10.313-4.625 10.313-10.313c0-2.069-0.626-4.081-1.782-5.782zM11.312 21.625c-4.936 0-8.938-4.001-8.938-8.938s4.001-8.938 8.938-8.938c2.185 0 4.186 0.787 5.739 2.090l0.714-0.723 0.972 0.971-0.708 0.716c1.379 1.573 2.221 3.627 2.221 5.884 0 4.936-4.001 8.938-8.938 8.938z"></path>
</svg>
