<!-- Generated by IcoMoon.io -->
<svg version="1.1" xmlns="http://www.w3.org/2000/svg" width="32" height="32" viewBox="0 0 32 32">
<path d="M16 7.107c-4.912 0-8.893 3.983-8.893 8.893s3.981 8.893 8.893 8.893 8.893-3.983 8.893-8.893-3.981-8.893-8.893-8.893zM16 23.335c-4.044 0-7.335-3.291-7.335-7.335s3.291-7.335 7.335-7.335 7.335 3.291 7.335 7.335-3.291 7.335-7.335 7.335z"></path>
<path d="M18.525 16.436c-0.247-0.213-0.539-0.403-0.888-0.565-0.345-0.157-0.739-0.321-1.18-0.491-0.336-0.119-0.621-0.235-0.86-0.341-0.237-0.105-0.439-0.224-0.601-0.348-0.16-0.124-0.279-0.264-0.356-0.42-0.079-0.157-0.119-0.336-0.119-0.539 0-0.393 0.173-0.681 0.519-0.867 0.348-0.187 0.759-0.283 1.224-0.283 0.316 0 0.495 0.008 0.807 0.048 0.777 0.093 1.433-0.304 1.715-1.029-0.099-0.036-0.231-0.077-0.407-0.125-0.171-0.048-0.371-0.092-0.599-0.133-0.225-0.043-0.473-0.080-0.735-0.107-0.029-0.004-0.057-0.001-0.088-0.005l0.317-0.453-1.111-0.003c-0.408 0.003-0.693 0.151-0.929 0.485l-0.028 0.041c-0.567 0.109-1.052 0.308-1.44 0.617-0.608 0.481-0.913 1.137-0.913 1.96 0 0.419 0.072 0.769 0.216 1.059 0.143 0.283 0.333 0.528 0.572 0.732 0.24 0.203 0.523 0.377 0.851 0.527 0.329 0.152 0.672 0.296 1.031 0.439 0.74 0.3 1.272 0.569 1.592 0.807 0.321 0.237 0.484 0.563 0.484 0.967 0 0.392-0.164 0.68-0.493 0.86-0.327 0.176-0.836 0.268-1.519 0.268-0.46 0-0.723-0.005-1.175-0.091-0.757-0.136-1.447 0.263-1.703 0.988 0.167 0.069 0.485 0.175 0.951 0.309 0.399 0.119 0.961 0.177 1.628 0.193l-0.203 0.291 1.111 0.003c0.376-0.003 0.641-0.145 0.867-0.428 0.496-0.111 0.921-0.28 1.263-0.516 0.636-0.441 0.957-1.089 0.957-1.949 0-0.444-0.065-0.816-0.197-1.119-0.127-0.307-0.315-0.567-0.56-0.781z"></path>
<path d="M16 5.485c0.431 0 0.78-0.349 0.78-0.78v-2.543c0-0.431-0.349-0.78-0.78-0.78s-0.78 0.349-0.78 0.78v2.543c0 0.431 0.349 0.78 0.78 0.78z"></path>
<path d="M16 26.515c-0.431 0-0.78 0.349-0.78 0.78v2.543c0 0.431 0.349 0.78 0.78 0.78s0.78-0.349 0.78-0.78v-2.543c0-0.431-0.349-0.78-0.78-0.78z"></path>
<path d="M29.837 15.22h-2.543c-0.431 0-0.78 0.349-0.78 0.78s0.349 0.78 0.78 0.78h2.543c0.431 0 0.78-0.349 0.78-0.78s-0.349-0.78-0.78-0.78z"></path>
<path d="M4.705 15.22h-2.543c-0.431 0-0.78 0.349-0.78 0.78s0.349 0.78 0.78 0.78h2.543c0.431 0 0.78-0.349 0.78-0.78s-0.349-0.78-0.78-0.78z"></path>
<path d="M24.537 23.436c-0.304-0.304-0.797-0.304-1.103 0s-0.304 0.797 0 1.103l1.799 1.799c0.304 0.304 0.797 0.304 1.103 0s0.304-0.797 0-1.103l-1.799-1.799z"></path>
<path d="M7.463 8.564c0.304 0.304 0.797 0.304 1.103 0s0.304-0.797 0-1.103l-1.799-1.797c-0.304-0.304-0.797-0.304-1.103 0s-0.304 0.797 0 1.103l1.799 1.797z"></path>
<path d="M7.463 23.436l-1.799 1.799c-0.304 0.304-0.304 0.797 0 1.103s0.797 0.304 1.103 0l1.799-1.799c0.304-0.304 0.304-0.797 0-1.103s-0.799-0.305-1.103 0z"></path>
<path d="M24.537 8.564l1.799-1.799c0.304-0.304 0.304-0.797 0-1.103s-0.797-0.304-1.103 0l-1.799 1.799c-0.304 0.304-0.304 0.797 0 1.103s0.799 0.305 1.103 0z"></path>
</svg>
