<!-- Generated by IcoMoon.io -->
<svg version="1.1" xmlns="http://www.w3.org/2000/svg" width="24" height="24" viewBox="0 0 24 24">
<title>books</title>
<path fill="#444" d="M22.95 20.528l-2.555-9.277c-0.201-0.733-0.958-1.163-1.69-0.961l-2.651 0.73c-0.731 0.201-1.163 0.956-0.961 1.691l2.555 9.277c0.201 0.733 0.958 1.163 1.69 0.961l2.651-0.73c0.731-0.201 1.163-0.957 0.961-1.691zM18.973 21.625l-2.555-9.28 2.651-0.73 2.556 9.28-2.652 0.73zM6.5 5.125h-4.125c-0.759 0-1.375 0.613-1.375 1.375v15.124c0 0.76 0.616 1.375 1.375 1.375h4.125c0.759 0 1.375-0.615 1.375-1.375v-15.124c0-0.762-0.616-1.375-1.375-1.375zM6.5 21.624h-4.125v-4.125h4.125v4.125zM6.5 16.124h-4.125v-9.624h4.125v9.624zM13.486 1h-2.75c-0.759 0-1.375 0.615-1.375 1.375v19.249c0 0.76 0.616 1.375 1.375 1.375h2.75c0.759 0 1.375-0.615 1.375-1.375v-19.249c0-0.76-0.616-1.375-1.375-1.375zM13.486 21.624h-2.75v-2.75h2.75v2.75zM13.486 17.499h-2.75v-15.124h2.75v15.124z"></path>
</svg>
