<!-- Generated by IcoMoon.io -->
<svg version="1.1" xmlns="http://www.w3.org/2000/svg" width="24" height="24" viewBox="0 0 24 24">
<title>book</title>
<path d="M19.853 3.283c0-0.026 0.006-0.053 0-0.083-0.012-0.047-0.021-0.096-0.047-0.134-0.181-0.26-0.471-0.331-0.781-0.198-3.026 1.292-6.051 2.582-9.075 3.886-0.52 0.221-1.045 0.396-1.617 0.415-0.875 0.029-1.714-0.113-2.5-0.5-0.077-0.041-0.15-0.088-0.236-0.144 0.045-0.023 0.074-0.036 0.1-0.048 2.875-1.228 5.747-2.454 8.621-3.68 0.042-0.018 0.104-0.020 0.146-0.004 0.365 0.148 0.728 0.307 1.091 0.459 0.036 0.014 0.076 0.028 0.13 0.050 0-0.051 0-0.091 0-0.129 0-0.461 0.001-0.927 0-1.39 0-0.070-0.001-0.141-0.013-0.207-0.071-0.438-0.485-0.705-0.927-0.515-3.13 1.345-6.267 2.682-9.397 4.020-0.164 0.069-0.328 0.147-0.479 0.234-0.48 0.289-0.728 0.705-0.726 1.277 0.005 4.726 0.004 9.449 0.002 14.175 0 0.473 0.174 0.86 0.537 1.164 0.105 0.090 0.215 0.173 0.331 0.249 0.64 0.412 1.356 0.622 2.104 0.733 0.234 0.037 0.47 0.060 0.707 0.086 0.213 0 0.426 0 0.641 0 0.044-0.006 0.089-0.019 0.135-0.021 0.507-0.044 0.996-0.153 1.464-0.354 2.76-1.182 5.522-2.366 8.283-3.545 0.395-0.167 0.789-0.334 1.183-0.507 0.206-0.090 0.329-0.229 0.327-0.485-0.005-4.93-0.004-9.867-0.004-14.804zM9.521 21.362c-0.311 0.132-1.208 0.266-1.617 0.263-0.471-0.004-1.426-0.166-1.832-0.427-0.083-0.050-0.517-0.275-0.572-0.321-0.002-7.783 0 0 0-12.845 0.806 0.344 1.695 0.499 2.622 0.515 0.941 0.016 1.827-0.301 2.371-0.528 2.354-1.019 4.709-2.020 7.063-3.026l0.923-0.398c0 0-0.002 8.948 0.001 12.931l-8.959 3.836z"></path>
</svg>
