<!-- Generated by IcoMoon.io -->
<svg version="1.1" xmlns="http://www.w3.org/2000/svg" width="24" height="24" viewBox="0 0 24 24">
<title>book</title>
<path fill="#444" d="M19.853 3.285c0-0.029 0.005-0.056 0-0.085-0.012-0.045-0.021-0.096-0.047-0.133-0.181-0.26-0.472-0.334-0.781-0.201-3.025 1.292-6.051 2.584-9.074 3.884-0.523 0.226-1.046 0.403-1.618 0.419-0.875 0.029-1.713-0.115-2.498-0.502-0.080-0.040-0.151-0.088-0.238-0.14 0.047-0.025 0.074-0.037 0.102-0.050 2.874-1.229 5.746-2.456 8.62-3.682 0.041-0.016 0.106-0.019 0.147-0.001 0.366 0.148 0.727 0.305 1.089 0.458 0.037 0.015 0.076 0.030 0.131 0.052 0-0.054 0-0.092 0-0.129 0-0.465 0.001-0.928 0-1.391 0-0.069-0.001-0.142-0.014-0.208-0.070-0.437-0.485-0.704-0.927-0.514-3.13 1.345-6.266 2.68-9.398 4.021-0.162 0.070-0.326 0.143-0.477 0.232-0.481 0.293-0.729 0.704-0.727 1.282 0.007 4.724 0.005 9.446 0.003 14.172 0 0.473 0.175 0.861 0.538 1.166 0.106 0.088 0.215 0.173 0.331 0.246 0.641 0.414 1.356 0.622 2.104 0.734 0.234 0.034 0.47 0.058 0.708 0.085 0.213 0 0.425 0 0.639 0 0.045-0.008 0.091-0.018 0.136-0.022 0.506-0.044 0.997-0.154 1.463-0.355 2.76-1.181 5.522-2.364 8.283-3.545 0.396-0.169 0.791-0.334 1.184-0.507 0.206-0.091 0.329-0.226 0.327-0.483-0.007-4.932-0.005-9.868-0.005-14.803zM9.522 21.361c-0.311 0.133-0.652 0.213-1.042 0.249-0.022 0-0.073 0.008-0.124 0.015h-0.454l-0.139-0.016c-0.149-0.017-0.297-0.032-0.444-0.055-0.659-0.099-1.155-0.267-1.561-0.529-0.083-0.052-0.14-0.099-0.197-0.146-0.036-4.344-0.038-8.598-0.043-12.844 0.806 0.344 1.675 0.514 2.602 0.514l0.256-0.005c0.84-0.026 1.572-0.296 2.115-0.528 2.355-1.013 4.711-2.020 7.066-3.025l0.923-0.395c0 0-0.003 8.944 0.001 12.929l-8.96 3.836z"></path>
</svg>
