<!-- Generated by IcoMoon.io -->
<svg version="1.1" xmlns="http://www.w3.org/2000/svg" width="24" height="24" viewBox="0 0 24 24">
<title>box_treasure</title>
<path d="M16.124 1.688h-8.248c-3.791 0-6.876 3.083-6.876 6.874v12.375c0 0.76 0.616 1.375 1.375 1.375h19.25c0.759 0 1.375-0.615 1.375-1.375v-12.375c0-3.791-3.085-6.874-6.876-6.874zM7.876 3.062h8.247c3.039 0 5.501 2.461 5.501 5.5h-7.736c-0.042-0.125-0.078-0.248-0.14-0.373l-0.546-1.074c-0.232-0.458-0.7-0.747-1.213-0.752-0.004 0-0.008 0-0.013 0-0.507 0-0.975 0.279-1.214 0.729l-0.525 0.988c-0.084 0.16-0.143 0.321-0.192 0.482h-7.67c0-3.039 2.463-5.5 5.501-5.5zM12.525 9.824l-0.525 0.988-0.548-1.074c-0.181-0.359-0.19-0.656-0.001-1.012l0.526-0.988 0.546 1.074c0.182 0.362 0.191 0.657 0.002 1.012zM21.625 20.938h-19.25v-11h7.691c0.046 0.143 0.089 0.283 0.161 0.426l0.548 1.074c0.233 0.456 0.7 0.746 1.213 0.75 0.004 0 0.007 0 0.011 0 0.508 0 0.976-0.28 1.214-0.73l0.524-0.986c0.094-0.176 0.163-0.354 0.212-0.533h7.674v10.999z"></path>
</svg>
