<!-- Generated by IcoMoon.io -->
<svg version="1.1" xmlns="http://www.w3.org/2000/svg" width="24" height="24" viewBox="0 0 24 24">
<title>box_3d</title>
<path fill="#444" d="M21.585 4.996l-8.625-4.272c-0.604-0.299-1.317-0.299-1.919 0l-8.626 4.272c-0.733 0.361-1.196 1.103-1.196 1.916v10.165c-0.006 0.814 0.454 1.56 1.185 1.925l8.626 4.274c0.608 0.3 1.323 0.3 1.931 0l8.625-4.274c0.733-0.359 1.196-1.101 1.196-1.91v-10.179c0-0.814-0.463-1.555-1.196-1.916zM11.679 2.014c0.099-0.049 0.21-0.076 0.321-0.076 0.112 0 0.223 0.027 0.323 0.076l8.026 3.976-8.349 4.134-8.348-4.137 8.027-3.973zM3.041 17.714c-0.239-0.118-0.388-0.359-0.385-0.627v-9.988l8.625 4.274v10.423l-8.24-4.083zM20.953 17.711l-8.234 4.080v-10.418l8.625-4.274v9.992c0 0.264-0.15 0.502-0.391 0.62z"></path>
</svg>
