<!-- Generated by IcoMoon.io -->
<svg version="1.1" xmlns="http://www.w3.org/2000/svg" width="32" height="32" viewBox="0 0 32 32">
<path d="M28.833 6.833h-4.319l0.547-0.783c0.22-0.315 0.332-0.683 0.332-1.051 0-0.291-0.068-0.583-0.208-0.847-0.315-0.607-0.943-0.987-1.625-0.987h-3.667c-1.133 0.001-2.073 0.492-2.723 1.417l-0.837 1.197c-0.221 0.315-0.333 0.681-0.333 1.052v0c0-0.371-0.111-0.737-0.332-1.051l-0.837-1.197c-0.651-0.927-1.591-1.417-2.724-1.419h-3.667c-0.684 0-1.311 0.38-1.625 0.987-0.14 0.264-0.208 0.556-0.208 0.847 0 0.368 0.111 0.736 0.332 1.051l0.547 0.783h-4.319c-1.012 0-1.833 0.82-1.833 1.833v5.5c0 1.013 0.821 1.833 1.833 1.833h1.833v11.917c0 0.507 0.411 0.917 0.917 0.917h20.167c0.507 0 0.917-0.411 0.917-0.917v-11.917h1.833c1.011 0 1.832-0.82 1.832-1.833v-5.5c0-1.013-0.821-1.833-1.833-1.833zM12.107 5c0.537 0.001 0.913 0.196 1.221 0.636l0.837 1.197h-3.665c-0.537-0.001-0.915-0.195-1.224-0.636l-0.836-1.197h3.667zM15.084 27h-8.251v-11h8.251v11zM15.084 14.167h-9.341c-0.004 0-0.007-0.001-0.009-0.001s-0.005 0.001-0.009 0.001h-2.557v-5.5h11.917v5.5zM18.672 5.636c0.308-0.439 0.684-0.635 1.221-0.636h3.667l-0.836 1.197c-0.309 0.44-0.687 0.635-1.223 0.636h-3.667l0.837-1.197zM25.167 27h-8.249v-11h8.249v11zM28.833 14.167h-2.557c-0.004 0-0.007-0.001-0.009-0.001s-0.005 0.001-0.009 0.001h-9.34v-5.5h11.917v5.5z"></path>
</svg>
