<!-- Generated by IcoMoon.io -->
<svg version="1.1" xmlns="http://www.w3.org/2000/svg" width="24" height="24" viewBox="0 0 24 24">
<title>box_gift</title>
<path fill="#444" d="M21.5 5.214h-3.196l0.404-0.58c0.163-0.233 0.246-0.505 0.246-0.778 0-0.214-0.050-0.43-0.153-0.627-0.235-0.449-0.698-0.73-1.204-0.73h-2.714c-0.84 0.001-1.535 0.365-2.017 1.049l-0.62 0.888c-0.163 0.232-0.246 0.503-0.246 0.778v0c0-0.274-0.083-0.546-0.246-0.778l-0.62-0.888c-0.482-0.684-1.177-1.048-2.017-1.049h-2.714c-0.506 0-0.969 0.281-1.202 0.73-0.103 0.197-0.155 0.413-0.155 0.627 0 0.273 0.083 0.544 0.246 0.778l0.404 0.58h-3.196c-0.749 0-1.357 0.607-1.357 1.357v4.071c0 0.751 0.608 1.357 1.357 1.357h1.357v8.821c0 0.375 0.304 0.679 0.679 0.679h14.929c0.375 0 0.679-0.304 0.679-0.679v-8.821h1.357c0.749 0 1.357-0.607 1.357-1.357v-4.071c0-0.751-0.608-1.357-1.357-1.357zM9.117 3.857c0.398 0.001 0.676 0.145 0.904 0.471l0.622 0.886h-2.714c-0.398-0.001-0.677-0.144-0.905-0.471l-0.62-0.886h2.714zM11.321 20.143h-6.107v-8.143h6.107v8.143zM11.321 10.643h-6.915c-0.003 0-0.005-0.001-0.007-0.001s-0.004 0.001-0.007 0.001h-1.893v-4.071h8.821v4.071zM13.979 4.328c0.227-0.326 0.506-0.47 0.904-0.471h2.714l-0.619 0.886c-0.229 0.327-0.509 0.47-0.907 0.471h-2.714l0.622-0.886zM18.786 20.143h-6.107v-8.143h6.107v8.143zM21.5 10.643h-1.893c-0.003 0-0.004-0.001-0.007-0.001s-0.004 0.001-0.007 0.001h-6.915v-4.071h8.821v4.071z"></path>
</svg>
