<!-- Generated by IcoMoon.io -->
<svg version="1.1" xmlns="http://www.w3.org/2000/svg" width="24" height="24" viewBox="0 0 24 24">
<title>box_treasure</title>
<path fill="#444" d="M16.099 1.75h-8.197c-3.768 0-6.835 3.065-6.835 6.833v12.3c0 0.756 0.612 1.367 1.367 1.367h19.133c0.754 0 1.367-0.611 1.367-1.367v-12.3c0-3.768-3.067-6.833-6.835-6.833zM7.901 3.117h8.197c3.020 0 5.468 2.446 5.468 5.467h-7.689c-0.041-0.124-0.078-0.247-0.139-0.37l-0.543-1.069c-0.231-0.455-0.696-0.742-1.205-0.748-0.004 0-0.008 0-0.012 0-0.504 0-0.969 0.277-1.207 0.724l-0.523 0.983c-0.085 0.16-0.142 0.32-0.191 0.48h-7.623c0-3.020 2.448-5.467 5.468-5.467zM12.522 9.838l-0.522 0.983-0.544-1.069c-0.18-0.357-0.19-0.652-0.001-1.006l0.522-0.983 0.543 1.067c0.182 0.359 0.191 0.653 0.003 1.007zM21.567 20.883h-19.133v-10.933h7.645c0.045 0.142 0.089 0.282 0.16 0.424l0.544 1.067c0.231 0.454 0.696 0.742 1.205 0.746 0.004 0 0.007 0 0.011 0 0.506 0 0.969-0.279 1.207-0.726l0.521-0.981c0.096-0.175 0.164-0.353 0.213-0.53h7.627v10.933z"></path>
</svg>
