<!-- Generated by IcoMoon.io -->
<svg version="1.1" xmlns="http://www.w3.org/2000/svg" width="24" height="24" viewBox="0 0 24 24">
<title>box_paper</title>
<path fill="#444" d="M16.038 13.346h-6.544c-0.396 0-0.672-0.144-0.898-0.468l-0.635-0.876 6.565-0.001c0.394 0 0.672 0.143 0.898 0.468l0.614 0.878zM22.769 4.596v4.038c0 0.744-0.603 1.346-1.346 1.346h-1.346v10.096c0 0.372-0.302 0.673-0.673 0.673h-14.808c-0.372 0-0.673-0.302-0.673-0.673v-10.096h-1.346c-0.743 0-1.346-0.602-1.346-1.346v-4.038c0-0.744 0.603-1.346 1.346-1.346h18.846c0.743 0 1.346 0.602 1.346 1.346zM18.731 9.981h-13.462v9.423h13.462v-9.423zM21.423 4.596h-18.846v4.038h18.846v-4.038z"></path>
</svg>
