<!-- Generated by IcoMoon.io -->
<svg version="1.1" xmlns="http://www.w3.org/2000/svg" width="32" height="32" viewBox="0 0 32 32">
<path d="M30.416 11.932c-0.069-0.127-0.135-0.256-0.259-0.38l-2.977-2.907-0.008 0.007c-0.163-0.151-0.336-0.292-0.543-0.393l-9.533-4.721c-0.668-0.331-1.455-0.331-2.121 0l-9.535 4.721c-0.236 0.116-0.437 0.277-0.617 0.456h-0.003s-2.977 2.905-2.977 2.905c-0.124 0.123-0.189 0.253-0.259 0.38-0.135 0.244-0.213 0.5-0.204 0.797l0.049 0.46 0.096 0.453c0.083 0.285 0.237 0.504 0.441 0.695 0.105 0.099 0.208 0.201 0.364 0.281l1.788 0.86v6.065c-0.007 0.9 0.501 1.724 1.309 2.127l9.535 4.724c0.672 0.332 1.463 0.332 2.133 0l9.533-4.724c0.811-0.397 1.321-1.216 1.321-2.111v-6.183l1.719-0.827c0.156-0.079 0.259-0.183 0.364-0.281 0.204-0.191 0.357-0.409 0.441-0.695l0.096-0.453 0.049-0.46c0.009-0.297-0.069-0.553-0.204-0.797zM4.119 13.329l-0.753-0.377v-0.003s0-0.001 0-0.001l2.253-2.204 9.417 4.665-2.172 2.12h-0.355l-8.389-4.201zM15.069 26.536l-8.783-4.351c-0.253-0.127-0.413-0.383-0.411-0.667v-5.127l5.463 2.625c1.075 0.631 2.172 0.645 3.435-0.543l0.295-0.307v8.369zM7.381 9.357l7.655-3.791v4.811c0.655 0.62 1.309 0.62 1.964 0v-4.828l7.688 3.809-8.653 4.288-8.653-4.288zM26.191 21.523c0 0.281-0.159 0.535-0.416 0.66l-8.775 4.348v-8.357s0.224 0.233 0.224 0.233c1.263 1.189 2.36 1.175 3.435 0.543l5.532-2.659v5.232zM28.635 12.884l-9.144 4.579h-0.355l-2.103-2.052 9.417-4.665 2.183 2.136h-0.003s0.001 0.004 0.001 0.004z"></path>
</svg>
