<!-- Generated by IcoMoon.io -->
<svg version="1.1" xmlns="http://www.w3.org/2000/svg" width="32" height="32" viewBox="0 0 32 32">
<path d="M21.499 2.251h-10.997c-5.055 0-9.168 4.111-9.168 9.165v16.5c0 1.013 0.821 1.833 1.833 1.833h25.667c1.012 0 1.833-0.82 1.833-1.833v-16.5c0-5.055-4.113-9.165-9.168-9.165zM10.501 4.083h10.996c4.052 0 7.335 3.281 7.335 7.333h-10.315c-0.056-0.167-0.104-0.331-0.187-0.497l-0.728-1.432c-0.309-0.611-0.933-0.996-1.617-1.003-0.005 0-0.011 0-0.017 0-0.676 0-1.3 0.372-1.619 0.972l-0.7 1.317c-0.112 0.213-0.191 0.428-0.256 0.643h-10.227c0-4.052 3.284-7.333 7.335-7.333zM16.7 13.099l-0.7 1.317-0.731-1.432c-0.241-0.479-0.253-0.875-0.001-1.349l0.701-1.317 0.728 1.432c0.243 0.483 0.255 0.876 0.003 1.349zM28.833 27.917h-25.667v-14.667h10.255c0.061 0.191 0.119 0.377 0.215 0.568l0.731 1.432c0.311 0.608 0.933 0.995 1.617 1 0.005 0 0.009 0 0.015 0 0.677 0 1.301-0.373 1.619-0.973l0.699-1.315c0.125-0.235 0.217-0.472 0.283-0.711h10.232v14.665z"></path>
</svg>
