<!-- Generated by IcoMoon.io -->
<svg version="1.1" xmlns="http://www.w3.org/2000/svg" width="32" height="32" viewBox="0 0 32 32">
<path d="M21.5 17.833h-8.912c-0.539 0-0.915-0.196-1.223-0.639l-0.865-1.195h8.941c0.536 0 0.913 0.195 1.223 0.639l0.836 1.195zM30.667 5.917v5.5c0 1.013-0.821 1.833-1.833 1.833h-1.833v13.749c0 0.507-0.411 0.917-0.917 0.917h-20.165c-0.507 0-0.917-0.411-0.917-0.917v-13.749h-1.833c-1.012 0-1.833-0.821-1.833-1.835v-5.499c0-1.013 0.821-1.833 1.833-1.833h25.667c1.012-0.001 1.833 0.82 1.833 1.833zM25.167 13.251h-18.333v12.833h18.333v-12.833zM28.833 5.917h-25.667v5.5h25.667v-5.5z"></path>
</svg>
