<!-- Generated by IcoMoon.io -->
<svg version="1.1" xmlns="http://www.w3.org/2000/svg" width="32" height="32" viewBox="0 0 32 32">
<path d="M13.4 23.4c-0.4-0.2-0.8-0.2-1.2-0.2h-2.8v4h2.6c0.8 0 1.6-0.2 2-0.6s0.6-0.8 0.6-1.4c0-0.4 0-0.8-0.2-1-0.4-0.4-0.6-0.8-1-0.8z"></path>
<path d="M13 20.8c0.4-0.2 0.6-0.4 0.8-0.6s0.2-0.6 0.2-1c0-0.6-0.2-1-0.6-1.2-0.4-0.6-0.8-0.6-1.6-0.6h-2.4v3.6h2.4c0.4 0 0.8 0 1.2-0.2z"></path>
<path d="M8 0c-4.4 0-8 3.6-8 8v24h32v-32h-24zM17 27.4c-0.4 0.6-1 1-1.6 1.4-0.8 0.4-1.6 0.6-2.8 0.6h-6.2v-14.6h5.8c1 0 2 0.2 2.6 0.4s1.2 0.8 1.6 1.4 0.6 1.2 0.6 2c0 0.6-0.2 1-0.4 1.4s-0.6 0.8-1 1c-0.4 0.2-0.8 0.4-1.4 0.6v0.4c0.8 0 1.2 0 1.8 0.4 0.4 0.2 0.8 0.6 1.2 1.2s0.4 1.2 0.4 1.8c0 0.8-0.2 1.4-0.6 2zM27.8 29.4l-2.8-5.2h-2.4v5.2h-3v-14.6h5.6c1.2 0 2 0.2 2.8 0.6s1.4 1 1.8 1.6c0.4 0.8 0.6 1.6 0.6 2.6s-0.2 1.8-0.6 2.4c-0.4 0.6-1 1.2-1.8 1.6 0 0-0.2 0-0.2 0l3.2 5.6h-3.2z"></path>
<path d="M26.4 21.6c0.4-0.2 0.6-0.4 0.8-0.8s0.2-0.8 0.2-1.2c0-0.4 0-1-0.2-1.2-0.2-0.4-0.4-0.6-0.8-0.8s-0.8-0.2-1.6-0.2h-2.2v4.4h2.2c0.6 0 1.2 0 1.6-0.2z"></path>
</svg>
