<!-- Generated by IcoMoon.io -->
<svg version="1.1" xmlns="http://www.w3.org/2000/svg" width="24" height="24" viewBox="0 0 24 24">
<title>brief_case</title>
<path d="M20.801 6.5h-3.988v-1.278c0-1.594-1.29-2.847-2.875-2.847h-3.874c-1.586 0-2.875 1.253-2.875 2.847v1.278h-3.99c-1.215 0-2.199 0.967-2.199 2.163v10.804c0 1.191 0.984 2.158 2.199 2.158h17.602c1.215 0 2.199-0.967 2.199-2.158v-10.804c0-1.196-0.984-2.163-2.199-2.163zM8.562 5.222c0-0.835 0.673-1.472 1.5-1.472h3.874c0.827 0 1.5 0.637 1.5 1.472v1.278h-6.874v-1.278zM21.625 19.467c0 0.432-0.37 0.783-0.824 0.783h-17.602c-0.454 0-0.824-0.352-0.824-0.783v-10.804c0-0.435 0.37-0.788 0.824-0.788h17.602c0.454 0 0.824 0.354 0.824 0.788v10.804z"></path>
</svg>
