<!-- Generated by IcoMoon.io -->
<svg version="1.1" xmlns="http://www.w3.org/2000/svg" width="24" height="24" viewBox="0 0 24 24">
<title>brief_case</title>
<path fill="#444" d="M20.686 6.571h-3.936v-1.262c0-1.573-1.273-2.809-2.838-2.809h-3.824c-1.565 0-2.838 1.236-2.838 2.809v1.262h-3.936c-1.2 0-2.171 0.954-2.171 2.135v10.663c0 1.177 0.972 2.131 2.171 2.131h17.371c1.2 0 2.171-0.954 2.171-2.129v-10.664c0-1.181-0.972-2.135-2.171-2.135zM8.607 5.309c0-0.824 0.665-1.452 1.481-1.452h3.823c0.817 0 1.482 0.628 1.482 1.452v1.262h-6.786v-1.262zM21.5 19.371c0 0.425-0.365 0.772-0.814 0.772h-17.371c-0.449 0-0.814-0.347-0.814-0.772v-10.664c0-0.429 0.365-0.778 0.814-0.778h17.371c0.449 0 0.814 0.349 0.814 0.778v10.664z"></path>
</svg>
