<!-- Generated by IcoMoon.io -->
<svg version="1.1" xmlns="http://www.w3.org/2000/svg" width="32" height="32" viewBox="0 0 32 32">
<title>brief_case</title>
<path d="M27.735 8.667h-5.317v-1.704c0-2.125-1.72-3.796-3.833-3.796h-5.165c-2.115 0-3.833 1.671-3.833 3.796v1.704h-5.32c-1.62 0-2.932 1.289-2.932 2.884v14.405c0 1.588 1.312 2.877 2.932 2.877h23.469c1.62 0 2.932-1.289 2.932-2.877v-14.405c0-1.595-1.312-2.884-2.932-2.884zM11.416 6.963c0-1.113 0.897-1.963 2-1.963h5.165c1.103 0 2 0.849 2 1.963v1.704h-9.165v-1.704zM28.833 25.956c0 0.576-0.493 1.044-1.099 1.044h-23.469c-0.605 0-1.099-0.469-1.099-1.044v-14.405c0-0.58 0.493-1.051 1.099-1.051h23.469c0.605 0 1.099 0.472 1.099 1.051v14.405z"></path>
</svg>
