<!-- Generated by IcoMoon.io -->
<svg version="1.1" xmlns="http://www.w3.org/2000/svg" width="32" height="32" viewBox="0 0 32 32">
<title>bug</title>
<path d="M29.84 15.791l-3.991-0.032c-0.193-1.145-0.471-2.253-0.873-3.26l2.449-3.505c0.16-0.196 0.696-1.079 0.099-1.744-0.552-0.625-1.457 0.431-1.457 0.431l-1.989 3.003c-0.528-0.909-1.133-1.737-1.824-2.427-0.387-1.913-3.044-6.309-6.383-6.309-3.34 0-5.985 4.2-5.971 6.249 0.004 0.404-1.295 1.516-1.831 2.427l-1.58-2.903c0 0-0.677-1.045-1.359-0.523-0.677 0.533-0.259 1.479-0.1 1.665l2.147 3.575c-0.404 1.005-0.705 2.085-0.897 3.232l-4.091-0.004c-0.469 0-0.856 0.46-0.856 1.019 0 0.572 0.387 1.021 0.855 1.021l3.891 0.004c-0.007 0.229-0.031 0.453-0.031 0.683 0 1.917 0.329 3.729 0.901 5.361l-2.269 3.152c-0.161 0.195-0.361 0.896 0 1.316 0.452 0.521 1.356-0.263 1.356-0.263l1.733-2.295c2.569 3.337 4.639 4.391 8.003 4.391s5.617-0.464 8.609-4.329l1.991 2.293c0 0 0.905 0.785 1.359 0.263 0.453-0.524 0.032-1.483-0.129-1.672l-2.401-2.797c0.577-1.633 0.907-3.444 0.907-5.363 0-0.228 0.049-0.453 0.039-0.684l3.904-0.028c0.471 0 0.617-0.437 0.617-1.008 0-0.567-0.357-0.939-0.827-0.939zM24.273 18.449c0 1.648-0.269 3.248-0.803 4.753-0.112 0.316-0.408 1.229-0.541 1.4-2.535 3.276-4.128 3.619-7.159 3.619-2.521 0-4.144-0.549-6.551-3.676-0.133-0.173-0.432-1.084-0.543-1.4-0.529-1.512-0.799-3.112-0.799-4.755l0.031-0.633c0.008-0.324 0.12-1.457 0.176-1.785 0.168-1.005 0.436-1.965 0.792-2.853 0.117-0.295 0.609-1.293 0.771-1.569 0.159-0.267 0.528-0.683 0.824-1.016 0.709-0.8 1.269-1.432 1.263-2.353-0.005-0.583 0.605-2.044 1.719-3.167 0.457-0.461 1.38-1.235 2.417-1.235 2.084 0 4.295 3.395 4.585 4.84 0.072 0.353 0.245 0.677 0.5 0.932 0.547 0.547 1.063 1.236 1.535 2.052 0.163 0.28 0.665 1.284 0.783 1.577 0.324 0.805 0.581 1.776 0.767 2.883 0.060 0.355 0.26 1.485 0.273 1.789-0.028 0.276-0.040 0.436-0.040 0.597z"></path>
</svg>
