<!-- Generated by IcoMoon.io -->
<svg version="1.1" xmlns="http://www.w3.org/2000/svg" width="24" height="24" viewBox="0 0 24 24">
<title>bug</title>
<path fill="#444" d="M22.339 11.844l-2.982-0.025c-0.144-0.856-0.351-1.683-0.652-2.435l1.83-2.619c0.119-0.147 0.519-0.805 0.074-1.302-0.412-0.467-1.089 0.322-1.089 0.322l-1.486 2.243c-0.394-0.679-0.846-1.297-1.363-1.813-0.288-1.428-2.273-4.713-4.767-4.713-2.495 0-4.472 3.138-4.459 4.667 0.001 0.303-0.97 1.133-1.37 1.812l-1.181-2.168c0 0-0.507-0.781-1.015-0.389-0.507 0.397-0.194 1.104-0.075 1.244l1.604 2.669c-0.301 0.752-0.527 1.559-0.671 2.415l-3.055-0.003c-0.351 0-0.638 0.344-0.638 0.761 0 0.427 0.288 0.763 0.638 0.763l2.906 0.003c-0.004 0.171-0.023 0.338-0.023 0.509 0 1.433 0.247 2.786 0.674 4.006l-1.696 2.356c-0.121 0.144-0.27 0.668 0 0.983 0.338 0.389 1.013-0.197 1.013-0.197l1.294-1.713c1.92 2.493 3.465 3.28 5.978 3.28s4.196-0.346 6.431-3.234l1.487 1.713c0 0 0.677 0.586 1.015 0.197 0.34-0.392 0.025-1.109-0.096-1.249l-1.794-2.089c0.431-1.22 0.678-2.573 0.678-4.007 0-0.17 0.037-0.338 0.029-0.511l2.916-0.022c0.351 0 0.462-0.326 0.462-0.753 0-0.425-0.267-0.703-0.618-0.703zM18.181 13.83c0 1.231-0.201 2.426-0.6 3.551-0.084 0.237-0.304 0.919-0.404 1.046-1.894 2.447-3.083 2.704-5.348 2.704-1.883 0-3.095-0.411-4.893-2.746-0.1-0.13-0.323-0.811-0.405-1.046-0.394-1.13-0.596-2.326-0.596-3.553l0.023-0.472c0.007-0.242 0.090-1.089 0.131-1.334 0.126-0.752 0.325-1.468 0.592-2.132 0.088-0.219 0.455-0.966 0.575-1.171 0.118-0.2 0.393-0.511 0.615-0.759 0.53-0.599 0.948-1.070 0.942-1.757-0.003-0.436 0.452-1.528 1.285-2.368 0.341-0.344 1.031-0.922 1.806-0.922 1.557 0 3.208 2.536 3.425 3.616 0.053 0.263 0.184 0.505 0.374 0.697 0.408 0.408 0.794 0.923 1.146 1.533 0.122 0.208 0.497 0.959 0.585 1.178 0.241 0.601 0.434 1.327 0.572 2.153 0.045 0.264 0.194 1.111 0.204 1.337-0.021 0.205-0.030 0.326-0.030 0.446z"></path>
</svg>
