<!-- Generated by IcoMoon.io -->
<svg version="1.1" xmlns="http://www.w3.org/2000/svg" width="24" height="24" viewBox="0 0 24 24">
<title>bull</title>
<path d="M12.98 18.63v-1.21l0.92 0.64c0.33 0.23 0.46 0.5 0.46 0.9v1.21l-0.92-0.64c-0.33-0.23-0.45-0.5-0.46-0.9zM22.98 1.82c-0.060 0.21-1.51 5.14-4.15 7.39-0.7 0.6-1.48 1.080-2.33 1.49v11.66c0 0.33-0.26 0.59-0.59 0.59h-4.99c-0.26 0-0.48-0.16-0.56-0.41l-1.44-4.39-1.28 4.28c-0.080 0.26-0.31 0.42-0.57 0.42-0.060 0-0.11-0.010-0.17-0.020-0.31-0.090-0.49-0.42-0.4-0.74l1.76-5.88c0-0.010 0.010-0.010 0.010-0.020l-0.67-2.040c-0.1-0.31 0.070-0.65 0.38-0.75s0.64 0.070 0.75 0.38l2.63 7.98h3.97v-10.59c-1.9 0.66-4.2 0.97-7.16 0.97h-3.4c-1.41 0-3.77-0.53-3.77-2.5 0-0.63 0.23-1.18 0.66-1.61 1.020-1.010 2.86-1.020 3.090-1.020h3.4c9.93 0 13.72-5.63 13.76-5.69 0.16-0.25 0.48-0.34 0.74-0.22 0.27 0.14 0.41 0.44 0.33 0.72zM20.83 4.17c-2.17 1.79-6.18 4.030-12.68 4.030h-3.4c0 0 0 0 0 0-0.45 0.010-1.68 0.11-2.26 0.68-0.21 0.21-0.31 0.45-0.31 0.76 0 1.27 2.54 1.31 2.57 1.31h3.4c4.76 0 7.72-0.79 9.91-2.65 1.18-1 2.12-2.69 2.77-4.13z"></path>
</svg>
