<!-- Generated by IcoMoon.io -->
<svg version="1.1" xmlns="http://www.w3.org/2000/svg" width="24" height="24" viewBox="0 0 24 24">
<title>bull</title>
<path d="M10.267 17.832h-1.205l0.642 0.917c0.231 0.33 0.5 0.457 0.902 0.458h1.206l-0.642-0.916c-0.231-0.33-0.5-0.456-0.903-0.459z"></path>
<path d="M9.748 12.716c0.403-0.001 0.671-0.128 0.902-0.458l0.642-0.917h-3.294l0.642 0.917c0.231 0.33 0.5 0.457 0.902 0.458h0.206z"></path>
<path d="M12.84 18.291l-0.642 0.916h1.206c0.403-0.001 0.671-0.128 0.902-0.458l0.642-0.917h-1.206c-0.403 0.003-0.671 0.129-0.902 0.459z"></path>
<path d="M13.35 12.258c0.231 0.33 0.5 0.457 0.902 0.458h0.206c0.403-0.001 0.671-0.128 0.902-0.458l0.642-0.917h-3.294l0.642 0.917z"></path>
<path d="M22.159 1.885l-0.541-0.207h-1.63l-0.541 0.165c-0.507 0.154-0.834 0.507-0.834 0.898v3.962h-0.256v-0.293c0-0.399-0.327-0.76-0.834-0.917l-0.541-0.168h-3.608c-0.365 0-0.714 0.145-0.972 0.402l-0.402 0.403-0.402-0.403c-0.258-0.258-0.607-0.402-0.972-0.402h-3.608l-0.541 0.169c-0.507 0.157-0.834 0.518-0.834 0.916v0.293h-0.256v-3.962c0-0.391-0.327-0.744-0.834-0.898l-0.541-0.165h-1.63l-0.541 0.207c-0.507 0.193-0.834 0.636-0.834 1.126v6.693l0.168 0.541c0.157 0.507 0.518 0.834 0.917 0.834h3.551v0.575h-0.765c-0.55 0-1.047 0.327-1.264 0.834l-0.232 0.541h2.262v0.071c0 0.55 0.327 1.047 0.834 1.264l0.146 0.063v0.271h-0.001v5.075c0 0.214 0.045 0.413 0.135 0.597l0.48 1.119c0.216 0.507 0.714 0.834 1.264 0.834h6.997c0.55 0 1.047-0.327 1.264-0.834l0.48-1.119c0.090-0.184 0.135-0.384 0.135-0.597v-5.075h-0.001v-0.271l0.146-0.063c0.507-0.216 0.834-0.714 0.834-1.264v-0.071h2.262l-0.232-0.541c-0.216-0.507-0.714-0.834-1.264-0.834h-0.766v-0.575h3.551c0.399 0 0.76-0.327 0.917-0.834l0.168-0.541v-6.693c0-0.49-0.327-0.933-0.834-1.126zM21.618 3.553v6.151h-4.636v3.395l-0.146 0.063c-0.003 0.001-0.004 0.003-0.007 0.004v0c-0.502 0.218-0.827 0.712-0.827 1.259v4.217h0.001v0.521l-0.013 0.609v0.030l-0.491 1.146h-6.998l-0.491-1.147v-0.030l-0.013-0.609v-0.521h0.001v-4.217c0-0.547-0.325-1.041-0.827-1.259v0c-0.003-0.001-0.004-0.003-0.007-0.004l-0.146-0.063v-3.395h-4.636v-6.65h1.63v5.025h3.006v-1.378h3.608l1.374 1.375 1.374-1.375h3.608v1.378h3.006v-5.025h1.63v0.5z"></path>
</svg>
