<!-- Generated by IcoMoon.io -->
<svg version="1.1" xmlns="http://www.w3.org/2000/svg" width="32" height="32" viewBox="0 0 32 32">
<title>bus</title>
<path d="M23.395 22.723c-0.308 0.44-0.667 0.609-1.203 0.611h-1.608l0.856-1.221c0.308-0.44 0.667-0.608 1.203-0.612h1.608l-0.856 1.223zM7.749 21.5h1.608c0.536 0.004 0.895 0.172 1.203 0.612l0.856 1.221h-1.608c-0.536-0.001-0.895-0.171-1.203-0.611l-0.856-1.223zM29.749 15.741l-1.852-11c-0.129-0.903-0.903-1.575-1.815-1.575h-4.271l-0.308-0.44c-0.643-0.921-1.551-1.389-2.704-1.393h-5.605c-1.148 0.004-2.056 0.472-2.699 1.393l-0.308 0.44h-4.271c-0.912 0-1.685 0.672-1.815 1.575l-1.852 11v9.425c0 1.013 0.821 1.833 1.833 1.833v1.833c0 1.013 0.821 1.833 1.833 1.833h1.833c1.012 0 1.833-0.82 1.833-1.833v-1.833h12.833v1.833c0 1.013 0.821 1.833 1.833 1.833h1.833c1.012 0 1.833-0.82 1.833-1.833v-1.833c1.012 0 1.833-0.82 1.833-1.833v-9.425zM5.917 5h5.225l0.856-1.223c0.308-0.44 0.667-0.609 1.203-0.611h5.599c0.537 0.001 0.895 0.171 1.203 0.611l0.856 1.223h5.225l1.833 11h-23.835l1.835-11zM27.917 23.333v1.833h-1.833v3.667h-1.833v-3.667h-16.501v3.667h-1.832v-3.667h-1.835v-7.333h23.833v5.5z"></path>
</svg>
