<!-- Generated by IcoMoon.io -->
<svg version="1.1" xmlns="http://www.w3.org/2000/svg" width="24" height="24" viewBox="0 0 24 24">
<title>bus</title>
<path fill="#444" d="M17.545 17.042c-0.231 0.33-0.499 0.457-0.902 0.458h-1.206l0.642-0.916c0.231-0.33 0.499-0.457 0.902-0.459h1.206l-0.642 0.917zM5.813 16.125h1.206c0.403 0.003 0.671 0.129 0.902 0.459l0.642 0.916h-1.206c-0.403-0.001-0.671-0.128-0.902-0.458l-0.642-0.917zM22.313 11.805l-1.389-8.25c-0.098-0.677-0.677-1.18-1.361-1.18h-3.204l-0.231-0.33c-0.483-0.69-1.163-1.042-2.028-1.045h-4.203c-0.861 0.003-1.541 0.355-2.024 1.045l-0.231 0.33h-3.204c-0.685 0-1.264 0.503-1.361 1.18l-1.389 8.25v7.070c0 0.76 0.616 1.375 1.375 1.375v1.375c0 0.76 0.616 1.375 1.375 1.375h1.375c0.759 0 1.375-0.615 1.375-1.375v-1.375h9.625v1.375c0 0.76 0.616 1.375 1.375 1.375h1.375c0.759 0 1.375-0.615 1.375-1.375v-1.375c0.759 0 1.375-0.615 1.375-1.375v-7.070zM4.438 3.75h3.919l0.642-0.917c0.231-0.33 0.499-0.457 0.902-0.458h4.199c0.403 0.001 0.671 0.128 0.902 0.458l0.642 0.917h3.919l1.375 8.25h-17.875l1.375-8.25zM20.938 17.5v1.375h-1.375v2.75h-1.375v-2.75h-12.375v2.75h-1.375v-2.75h-1.375v-5.5h17.875v4.125z"></path>
</svg>
