<!-- Generated by IcoMoon.io -->
<svg version="1.1" xmlns="http://www.w3.org/2000/svg" width="24" height="24" viewBox="0 0 24 24">
<title>calculator</title>
<path fill="#444" d="M17.792 18.459l-3.012-4.3h1.165c0.42 0 0.688 0.153 0.93 0.499l1.787 2.553 1.789-2.553c0.242-0.344 0.51-0.499 0.93-0.499h1.165l-3.012 4.3 3.012 4.3h-1.167c-0.419-0.003-0.688-0.153-0.929-0.499l-1.789-2.553-1.787 2.553c-0.241 0.344-0.51 0.496-0.929 0.499h-1.167l3.012-4.3zM12.949 7.711l-0.669-0.955c-0.241-0.344-0.52-0.476-0.94-0.479h-3.423v-3.427c0-0.42-0.135-0.699-0.477-0.94l-0.956-0.669v5.037h-5.034l0.669 0.957c0.241 0.341 0.52 0.476 0.94 0.476h3.426v3.422c0.003 0.42 0.135 0.699 0.479 0.94l0.955 0.669v-5.031h5.031zM21.386 2.694c-0.42-0.003-0.688 0.151-0.932 0.496l-5.673 8.102h1.167c0.417 0 0.688-0.153 0.929-0.499l5.673-8.101-1.164 0.003zM12.28 18.221c-0.241-0.344-0.52-0.476-0.94-0.479h-9.89l0.669 0.957c0.241 0.341 0.52 0.476 0.94 0.476h9.89l-0.669-0.955z"></path>
</svg>
