<!-- Generated by IcoMoon.io -->
<svg version="1.1" xmlns="http://www.w3.org/2000/svg" width="32" height="32" viewBox="0 0 32 32">
<title>calculator</title>
<path d="M23.536 24.403l-3.916-5.591h1.517c0.547 0 0.895 0.197 1.209 0.643l2.325 3.325 2.331-3.325c0.315-0.445 0.663-0.643 1.209-0.643h1.517l-3.917 5.591 3.917 5.597h-1.519c-0.545-0.003-0.895-0.197-1.208-0.649l-2.331-3.32-2.325 3.32c-0.313 0.452-0.663 0.647-1.208 0.649h-1.519l3.916-5.597zM17.233 10.419l-0.868-1.245c-0.313-0.445-0.679-0.615-1.225-0.617h-4.455v-4.459c0-0.547-0.172-0.916-0.62-1.227l-1.244-0.871v6.556h-6.551l0.868 1.243c0.313 0.449 0.679 0.621 1.225 0.621h4.457v4.453c0.003 0.547 0.176 0.909 0.621 1.219l1.243 0.872v-6.545h6.548zM28.212 3.889c-0.547-0.003-0.895 0.195-1.211 0.648l-7.381 10.539h1.519c0.544 0 0.895-0.199 1.208-0.644l7.383-10.545-1.517 0.003zM16.365 24.095c-0.313-0.447-0.679-0.623-1.225-0.625h-12.869l0.868 1.249c0.313 0.443 0.679 0.615 1.225 0.615h12.869l-0.868-1.239z"></path>
</svg>
