<!-- Generated by IcoMoon.io -->
<svg version="1.1" xmlns="http://www.w3.org/2000/svg" width="24" height="24" viewBox="0 0 24 24">
<title>calendar</title>
<path fill="#444" d="M19.486 3.75h-1.298v-2.063c0-0.379-0.308-0.688-0.688-0.688s-0.688 0.308-0.688 0.688v2.063h-9.625v-2.063c0-0.379-0.308-0.688-0.688-0.688s-0.688 0.308-0.688 0.688v2.063h-1.298c-1.183 0-2.14 0.956-2.14 2.135v14.975c0 1.184 0.957 2.14 2.14 2.14h14.972c1.181 0 2.138-0.956 2.138-2.141v-14.974c0-1.18-0.957-2.135-2.14-2.135zM20.25 20.859c0 0.422-0.344 0.766-0.764 0.766h-14.971c-0.421 0-0.764-0.344-0.764-0.766v-10.234h16.5v10.234zM20.25 9.25h-16.5v-3.365c0-0.419 0.344-0.76 0.764-0.76h1.298v0.688c0 0.38 0.308 0.688 0.688 0.688s0.688-0.308 0.688-0.688v-0.688h9.625v0.688c0 0.38 0.308 0.688 0.688 0.688s0.688-0.308 0.688-0.688v-0.688h1.298c0.421 0 0.764 0.341 0.764 0.76v3.365z"></path>
</svg>
