<!-- Generated by IcoMoon.io -->
<svg version="1.1" xmlns="http://www.w3.org/2000/svg" width="32" height="32" viewBox="0 0 32 32">
<title>calendar_percent</title>
<path d="M25.981 5h-1.732v-2.749c0.001-0.509-0.411-0.917-0.916-0.917s-0.917 0.408-0.917 0.917v2.749h-12.832v-2.749c0-0.509-0.412-0.917-0.917-0.917s-0.917 0.408-0.917 0.917v2.749h-1.731c-1.576 0-2.852 1.271-2.852 2.844v19.967c0 1.585 1.276 2.856 2.852 2.856h19.964c1.576 0 2.852-1.271 2.852-2.857v-19.965c-0.001-1.573-1.277-2.844-2.853-2.844zM27 27.809c0 0.565-0.457 1.024-1.019 1.024h-19.963c-0.56 0-1.019-0.459-1.019-1.024v-13.643h22v13.643zM27 12.333h-22v-4.489c0-0.555 0.457-1.011 1.019-1.011h1.732v0.917c-0.001 0.508 0.411 0.916 0.916 0.916s0.917-0.408 0.917-0.917v-0.916h12.833v0.917c0 0.509 0.412 0.917 0.917 0.917s0.917-0.408 0.917-0.917v-0.917h1.732c0.56 0 1.019 0.456 1.019 1.011v4.489z"></path>
<path d="M19.675 23.28c-1.247 0-2.26 1.015-2.26 2.26s1.013 2.26 2.26 2.26 2.26-1.015 2.26-2.26-1.013-2.26-2.26-2.26zM19.675 26.092c-0.305 0-0.552-0.248-0.552-0.552s0.248-0.552 0.552-0.552 0.552 0.248 0.552 0.552-0.248 0.552-0.552 0.552zM20.704 18.043l-0.615 0.681-9.076 9.077-0.26-1.471c-0.079-0.443 0.041-0.769 0.292-1.089l0.616-0.681 9.075-9.077 0.259 1.471c0.080 0.443-0.040 0.769-0.291 1.089zM12.475 15.483c-1.247 0-2.26 1.015-2.26 2.26s1.013 2.26 2.26 2.26 2.26-1.015 2.26-2.26-1.012-2.26-2.26-2.26zM12.475 18.296c-0.305 0-0.552-0.248-0.552-0.552s0.248-0.552 0.552-0.552 0.552 0.248 0.552 0.552-0.247 0.552-0.552 0.552z"></path>
</svg>
