<!-- Generated by IcoMoon.io -->
<svg version="1.1" xmlns="http://www.w3.org/2000/svg" width="24" height="24" viewBox="0 0 24 24">
<title>callcenter</title>
<path fill="#444" d="M18.875 23l-0.023-0.017v0.017l-3.239-2.269c-0.329-0.232-0.477-0.488-0.477-0.892v-1.118l2.365 1.654v-0.657c0-1.785-1.254-3.257-2.887-3.535l-0.55-0.058h-2.75c-1.895 0-3.437 1.612-3.437 3.593v1.831c-0.025 0.348-0.157 0.612-0.457 0.822l-0.919 0.628v-3.282c0-2.739 2.159-4.968 4.813-4.968h2.75c2.654 0 4.813 2.229 4.813 4.968v3.282zM18.456 9.25l-0.914 0.645c-0.327 0.232-0.624 0.26-1.004 0.125l-0.265-0.094c-1.008 1.254-2.537 2.074-4.272 2.074-3.037 0-5.5-2.463-5.5-5.5 0-2.984 2.38-5.401 5.345-5.483l0.015-0.016v0.014c0.048 0 0.092-0.014 0.14-0.014 3.037 0 5.5 2.463 5.5 5.5 0 0.799-0.179 1.554-0.485 2.239l1.441 0.511zM11.858 2.39l-0.001 2.955c0.872 0.241 1.518 1.033 1.518 1.981 0 0.040-0.010 0.077-0.012 0.118l2.344 0.83c0.26-0.54 0.418-1.137 0.418-1.775 0-2.274-1.851-4.125-4.125-4.125-0.048 0-0.092 0.012-0.142 0.015zM10.625 7.326c0 0.38 0.308 0.688 0.688 0.688s0.688-0.308 0.688-0.688-0.308-0.688-0.688-0.688-0.688 0.307-0.688 0.688zM14.89 9.437l-2.057-0.729c-0.377 0.414-0.917 0.681-1.521 0.681-1.137 0-2.063-0.925-2.063-2.063 0-0.844 0.512-1.57 1.239-1.889l0.003-2.768c-1.528 0.604-2.617 2.089-2.617 3.831 0 2.274 1.851 4.125 4.125 4.125 1.126 0 2.146-0.455 2.89-1.188z"></path>
</svg>
