<!-- Generated by IcoMoon.io -->
<svg version="1.1" xmlns="http://www.w3.org/2000/svg" width="32" height="32" viewBox="0 0 32 32">
<path d="M24.917 30.667l-0.031-0.021v0.021l-4.32-3.027c-0.439-0.309-0.636-0.651-0.636-1.191v-1.492l3.153 2.208v-0.875c0-2.38-1.672-4.344-3.851-4.715l-0.733-0.077h-3.667c-2.528 0-4.584 2.148-4.584 4.792v2.441c-0.033 0.464-0.208 0.816-0.609 1.095l-1.224 0.84v-4.375c0-3.653 2.879-6.625 6.416-6.625h3.667c3.537 0 6.416 2.972 6.416 6.625v4.375zM24.359 12.333l-1.219 0.86c-0.439 0.309-0.833 0.348-1.34 0.167l-0.355-0.125c-1.344 1.673-3.383 2.765-5.696 2.765-4.049 0-7.333-3.284-7.333-7.333 0-3.977 3.175-7.2 7.127-7.312l0.021-0.021v0.019c0.064 0 0.123-0.019 0.187-0.019 4.049 0 7.333 3.284 7.333 7.333 0 1.065-0.239 2.072-0.647 2.984l1.921 0.683zM15.561 3.187l-0.003 3.941c1.163 0.32 2.024 1.376 2.024 2.64 0 0.053-0.012 0.103-0.016 0.157l3.127 1.108c0.347-0.72 0.556-1.517 0.556-2.367 0-3.032-2.468-5.5-5.5-5.5-0.064 0-0.123 0.016-0.188 0.020zM13.917 9.768c0 0.507 0.411 0.917 0.917 0.917s0.917-0.411 0.917-0.917c0-0.508-0.411-0.917-0.917-0.917s-0.917 0.409-0.917 0.917zM19.604 12.583l-2.743-0.972c-0.503 0.553-1.221 0.909-2.028 0.909-1.516 0-2.749-1.235-2.749-2.749 0-1.127 0.681-2.093 1.652-2.52l0.004-3.691c-2.039 0.804-3.489 2.785-3.489 5.107 0 3.032 2.468 5.5 5.5 5.5 1.5 0 2.86-0.607 3.853-1.584z"></path>
</svg>
