<!-- Generated by IcoMoon.io -->
<svg version="1.1" xmlns="http://www.w3.org/2000/svg" width="24" height="24" viewBox="0 0 24 24">
<title>car</title>
<path fill="#444" d="M21.227 10.023c-0.395-0.791-0.591-1.318-1.318-1.318h-0.009c0-0.265-0.071-0.53-0.228-0.755l-1.23-1.758c-0.676-0.965-1.594-1.437-2.809-1.441h-7.27c-1.211 0.004-2.129 0.475-2.806 1.442l-1.229 1.757c-0.157 0.225-0.228 0.49-0.228 0.755h-0.009c-0.728 0-0.923 0.395-1.318 1.318l-1.318 2.636v5.273c0 0.729 0.591 1.318 1.318 1.318h1.318c0.728 0 1.318-0.589 1.318-1.318v-1.318h13.182v1.318c0 0.729 0.591 1.318 1.318 1.318h1.318c0.728 0 1.318-0.589 1.318-1.318v-5.273l-1.318-2.636zM6.638 6.947c0.443-0.631 0.957-0.877 1.729-0.879h7.266c0.772 0.003 1.288 0.248 1.729 0.879l1.229 1.757h-13.182l1.229-1.757zM21.227 17.932h-1.318v-2.636h-15.818v2.636h-1.318v-5.273l1.318-2.636h15.818l1.318 2.636v5.273zM14.636 12h3.792c0.386 0.003 0.643 0.124 0.865 0.44l0.616 0.878h-3.792c-0.386-0.001-0.643-0.123-0.865-0.439l-0.616-0.879zM4.706 12.439c0.221-0.316 0.478-0.438 0.865-0.439h3.792l-0.616 0.878c-0.221 0.316-0.479 0.438-0.865 0.44h-3.792l0.616-0.879z"></path>
</svg>
