<!-- Generated by IcoMoon.io -->
<svg version="1.1" xmlns="http://www.w3.org/2000/svg" width="24" height="24" viewBox="0 0 24 24">
<title>cardio</title>
<path fill="#444" d="M22.857 12.657h-4.268l-2.896 8.384c-0.094 0.275-0.352 0.459-0.641 0.459s-0.547-0.183-0.642-0.457l-5.469-15.828-2.413 6.984c-0.095 0.275-0.353 0.459-0.642 0.459h-3.246c-0.376-0.011-0.65-0.151-0.871-0.466l-0.626-0.894h4.26l2.896-8.386c0.19-0.548 1.094-0.55 1.282-0.001l5.471 15.83 2.412-6.984c0.095-0.275 0.353-0.459 0.642-0.459h3.226c0.398 0 0.677 0.145 0.905 0.472 0 0 0.624 0.888 0.62 0.888z"></path>
</svg>
