<!-- Generated by IcoMoon.io -->
<svg version="1.1" xmlns="http://www.w3.org/2000/svg" width="32" height="32" viewBox="0 0 32 32">
<path d="M30.667 16.888h-5.767l-3.912 11.323c-0.128 0.372-0.475 0.623-0.864 0.623s-0.74-0.251-0.868-0.621l-7.391-21.379-3.256 9.432c-0.129 0.373-0.476 0.623-0.869 0.623h-4.385c-0.505-0.020-0.877-0.203-1.176-0.631l-0.845-1.205h5.756l3.911-11.332c0.256-0.735 1.476-0.736 1.733-0.001l7.389 21.388 3.256-9.44c0.128-0.372 0.479-0.615 0.869-0.615h4.357c0.539 0 0.915 0.197 1.221 0.636 0 0 0.844 1.2 0.84 1.2z"></path>
</svg>
