<!-- Generated by IcoMoon.io -->
<svg version="1.1" xmlns="http://www.w3.org/2000/svg" width="32" height="32" viewBox="0 0 32 32">
<path d="M7.749 19.667h-5.499c-0.505 0-0.917 0.408-0.917 0.917v9.167c0 0.508 0.412 0.916 0.917 0.916h5.5c0.504 0 0.916-0.408 0.916-0.917v-9.167c0-0.508-0.412-0.916-0.917-0.916zM6.833 28.833h-3.667v-7.333h3.667v7.333zM18.749 10.5h-5.499c-0.505 0-0.917 0.408-0.917 0.917v18.333c0 0.508 0.412 0.916 0.917 0.916h5.5c0.505 0 0.917-0.408 0.917-0.917v-18.333c-0.001-0.508-0.413-0.916-0.919-0.916zM17.833 28.833h-3.667v-16.5h3.667v16.5zM29.749 1.333h-5.5c-0.504 0-0.916 0.408-0.916 0.917v27.5c0 0.509 0.412 0.917 0.917 0.917h5.5c0.504-0.001 0.916-0.409 0.916-0.919v-27.499c0-0.509-0.412-0.917-0.917-0.917zM28.833 28.833h-3.667v-25.667h3.667v25.667z"></path>
</svg>
