<!-- Generated by IcoMoon.io -->
<svg version="1.1" xmlns="http://www.w3.org/2000/svg" width="24" height="24" viewBox="0 0 24 24">
<title>chart_bar</title>
<path d="M5.812 14.75h-4.124c-0.379 0-0.688 0.306-0.688 0.688v6.875c0 0.381 0.309 0.687 0.688 0.687h4.125c0.378 0 0.687-0.306 0.687-0.688v-6.875c0-0.381-0.309-0.687-0.688-0.687zM5.125 21.625h-2.75v-5.5h2.75v5.5zM14.062 7.875h-4.124c-0.379 0-0.688 0.306-0.688 0.688v13.75c0 0.381 0.309 0.687 0.688 0.687h4.125c0.379 0 0.688-0.306 0.688-0.688v-13.75c-0.001-0.381-0.31-0.687-0.689-0.687zM13.375 21.625h-2.75v-12.375h2.75v12.375zM22.312 1h-4.125c-0.378 0-0.687 0.306-0.687 0.688v20.625c0 0.382 0.309 0.688 0.688 0.688h4.125c0.378-0.001 0.687-0.307 0.687-0.689v-20.624c0-0.382-0.309-0.688-0.688-0.688zM21.625 21.625h-2.75v-19.25h2.75v19.25z"></path>
</svg>
