<!-- Generated by IcoMoon.io -->
<svg version="1.1" xmlns="http://www.w3.org/2000/svg" width="24" height="24" viewBox="0 0 24 24">
<title>chart_bar</title>
<path fill="#444" d="M5.813 14.75h-4.125c-0.379 0-0.688 0.308-0.688 0.688v6.875c0 0.38 0.308 0.688 0.688 0.688h4.125c0.38 0 0.688-0.308 0.688-0.688v-6.875c0-0.38-0.308-0.688-0.688-0.688zM5.125 21.625h-2.75v-5.5h2.75v5.5zM14.063 7.875h-4.125c-0.38 0-0.688 0.308-0.688 0.688v13.75c0 0.38 0.308 0.688 0.688 0.688h4.125c0.38 0 0.688-0.308 0.688-0.688v-13.75c0-0.38-0.308-0.688-0.688-0.688zM13.375 21.625h-2.75v-12.375h2.75v12.375zM22.313 1h-4.125c-0.38 0-0.688 0.308-0.688 0.688v20.625c0 0.38 0.308 0.688 0.688 0.688h4.125c0.38 0 0.688-0.308 0.688-0.688v-20.625c0-0.379-0.308-0.688-0.688-0.688zM21.625 21.625h-2.75v-19.25h2.75v19.25z"></path>
</svg>
