<!-- Generated by IcoMoon.io -->
<svg version="1.1" xmlns="http://www.w3.org/2000/svg" width="32" height="32" viewBox="0 0 32 32">
<title>chart_lines</title>
<path d="M27.213 11.269l3.453-9.936-1.413 0.337c-0.521 0.121-0.844 0.4-1.040 0.896l-2.471 7.224-1.763-1.775c-0.359-0.355-0.936-0.355-1.295 0l-4.939 4.943-6.699-5.029c-0.207-0.153-0.473-0.213-0.729-0.159l-7.685 1.555c-0.316 0.147-0.557 0.377-0.709 0.748l-0.591 1.343 8.943-1.772 7.009 5.259c0.361 0.267 0.875 0.233 1.195-0.085l4.853-4.857 1.752 1.752-2.479 7.265-6.36 3.276-6.863-8.659c-0.173-0.221-0.441-0.344-0.717-0.344-0.040 0-0.076 0.001-0.115 0.005-0.317 0.045-0.591 0.248-0.721 0.539 0 0-6.473 16.757-6.497 16.872h1.191c0.472-0.113 0.761-0.375 0.963-0.783l0.685-1.771 0.003-0.015 4.719-12.179 6.391 8.069c0.177 0.227 0.445 0.347 0.719 0.347 0.141 0 0.285-0.031 0.417-0.105l7.333-3.781c0.197-0.096 0.352-0.265 0.431-0.471l2.364-6.797 3.82 3.816 0.244-1.46c0.073-0.445-0.015-0.803-0.265-1.12l-3.133-3.148z"></path>
</svg>
