<!-- Generated by IcoMoon.io -->
<svg version="1.1" xmlns="http://www.w3.org/2000/svg" width="24" height="24" viewBox="0 0 24 24">
<title>chart_cashflow</title>
<path d="M11.312 5.125v6.188c0 0.382-0.309 0.688-0.688 0.688s-0.688-0.306-0.688-0.688c0-0.019 0.009-0.028 0.010-0.046l-0.010 0.002v-4.599c0.002-0.404 0.129-0.67 0.46-0.902l0.916-0.643zM21.397 5.768c-0.331 0.232-0.458 0.498-0.459 0.902v4.599l0.010-0.002c-0.001 0.018-0.010 0.027-0.010 0.046 0 0.382 0.309 0.688 0.688 0.688s0.688-0.306 0.688-0.688v-6.188l-0.917 0.643zM15.897 3.018c-0.331 0.232-0.458 0.498-0.46 0.902v7.349l0.010-0.002c-0.001 0.018-0.010 0.027-0.010 0.046 0 0.382 0.309 0.688 0.688 0.688s0.688-0.306 0.688-0.688v-8.938l-0.916 0.643zM7.647 8.518c-0.331 0.232-0.458 0.498-0.459 0.902v1.849l0.010-0.002c-0.001 0.018-0.010 0.027-0.010 0.046 0 0.381 0.308 0.687 0.687 0.687s0.688-0.306 0.688-0.688v-3.437l-0.916 0.643zM5.353 19.607c0.331-0.232 0.458-0.498 0.46-0.902v-5.974l-0.010 0.002c0.001-0.018 0.010-0.027 0.010-0.046-0.001-0.381-0.309-0.687-0.688-0.687s-0.688 0.306-0.688 0.688v7.562l0.916-0.643zM2.147 1.643c-0.331 0.232-0.458 0.498-0.46 0.902v8.724l0.010-0.002c-0.001 0.018-0.010 0.027-0.010 0.046 0.001 0.381 0.309 0.687 0.688 0.687s0.688-0.306 0.688-0.688v-10.312l-0.916 0.643zM19.103 15.482c0.331-0.232 0.458-0.498 0.46-0.902v-1.849l-0.010 0.002c0.001-0.018 0.010-0.027 0.010-0.046 0-0.382-0.309-0.688-0.688-0.688s-0.688 0.306-0.688 0.688v3.438l0.916-0.643zM13.603 22.357c0.331-0.232 0.458-0.498 0.46-0.902v-8.724l-0.010 0.002c0.001-0.018 0.010-0.027 0.010-0.046 0-0.382-0.309-0.688-0.688-0.688s-0.688 0.306-0.688 0.688v10.313l0.916-0.643z"></path>
</svg>
