<!-- Generated by IcoMoon.io -->
<svg version="1.1" xmlns="http://www.w3.org/2000/svg" width="24" height="24" viewBox="0 0 24 24">
<title>chart_line</title>
<path fill="#444" d="M21.941 1.252c-0.392 0.092-0.632 0.3-0.782 0.674l-4.202 12.309-4.77 2.46-5.148-6.497c-0.132-0.165-0.331-0.26-0.539-0.26-0.029 0-0.058 0.001-0.087 0.005-0.238 0.030-0.444 0.183-0.542 0.403 0 0-4.855 12.569-4.872 12.654h0.892c0.353-0.085 0.572-0.282 0.722-0.59l0.516-1.334 3.536-9.136 4.793 6.049c0.136 0.17 0.337 0.263 0.54 0.263 0.106 0 0.214-0.025 0.315-0.077l5.5-2.835c0.147-0.076 0.261-0.201 0.323-0.356l4.862-13.984-1.059 0.252z"></path>
</svg>
