<!-- Generated by IcoMoon.io -->
<svg version="1.1" xmlns="http://www.w3.org/2000/svg" width="24" height="24" viewBox="0 0 24 24">
<title>chart_pizza</title>
<path fill="#444" d="M21.611 6.569c-1.416-2.553-3.74-4.411-6.541-5.228-0.127-0.037-0.256-0.055-0.384-0.055-0.263 0-0.521 0.076-0.745 0.22-0.337 0.217-0.561 0.571-0.616 0.967l-0.265 1.895c-0.094 0.66 0.298 1.295 0.931 1.503 1.445 0.479 2.674 1.46 3.46 2.764 0.254 0.426 0.707 0.667 1.177 0.667 0.164 0 0.329-0.029 0.488-0.089l1.782-0.682c0.373-0.143 0.665-0.44 0.802-0.817 0.139-0.378 0.106-0.795-0.088-1.144zM18.628 7.922c-0.954-1.587-2.449-2.78-4.207-3.362l0.267-1.896c2.435 0.712 4.493 2.357 5.724 4.576l-1.783 0.682zM22.967 11.075c-0.032-0.399-0.234-0.764-0.556-1.002-0.239-0.175-0.525-0.268-0.815-0.268-0.102 0-0.202 0.011-0.304 0.033l-1.859 0.424c-0.648 0.146-1.099 0.737-1.070 1.404 0.125 2.929-1.731 5.562-4.517 6.407-0.605 0.184-1.225 0.278-1.847 0.278-0.173 0-0.348-0.008-0.52-0.022-0.685-0.058-1.352-0.226-1.984-0.498-0.175-0.077-0.36-0.113-0.543-0.113-0.451 0-0.888 0.221-1.148 0.619l-1.051 1.598c-0.22 0.334-0.283 0.748-0.176 1.133 0.109 0.385 0.377 0.705 0.738 0.875 1.199 0.568 2.468 0.91 3.777 1.019 0.304 0.026 0.608 0.040 0.91 0.040 1.077 0 2.148-0.16 3.186-0.477 4.91-1.493 8.181-6.308 7.777-11.448zM14.791 21.202c-1.167 0.356-2.373 0.487-3.585 0.384-1.143-0.095-2.263-0.4-3.304-0.891l1.051-1.598c0.766 0.331 1.583 0.536 2.412 0.606 0.972 0.081 1.942-0.025 2.882-0.311 3.421-1.039 5.64-4.306 5.49-7.788l1.859-0.422c0.349 4.452-2.439 8.694-6.805 10.020zM11.968 2.374c-0.001-0.4-0.176-0.777-0.478-1.039-0.252-0.217-0.569-0.334-0.896-0.334-0.067 0-0.133 0.005-0.199 0.015-0.533 0.077-1.061 0.197-1.574 0.352-5.807 1.764-9.103 7.945-7.347 13.778 0.436 1.449 1.152 2.771 2.131 3.928 0.259 0.305 0.635 0.483 1.033 0.487 0.004 0 0.011 0 0.015 0 0.393 0 0.769-0.168 1.028-0.463l1.265-1.431c0.441-0.5 0.462-1.247 0.050-1.772-0.494-0.626-0.859-1.328-1.089-2.091-1.018-3.381 0.89-6.96 4.253-7.982 0.227-0.069 0.458-0.127 0.694-0.17 0.652-0.122 1.122-0.696 1.121-1.361l-0.005-1.914zM9.76 4.499c-4.087 1.239-6.407 5.591-5.17 9.701 0.278 0.928 0.729 1.793 1.327 2.549l-1.265 1.431c-0.847-1.004-1.484-2.173-1.863-3.436-1.537-5.103 1.346-10.512 6.43-12.056 0.45-0.137 0.909-0.239 1.375-0.308l0.007 1.913c-0.286 0.055-0.566 0.122-0.84 0.206z"></path>
</svg>
