<!-- Generated by IcoMoon.io -->
<svg version="1.1" xmlns="http://www.w3.org/2000/svg" width="24" height="24" viewBox="0 0 24 24">
<title>chart_lines</title>
<path fill="#444" d="M20.41 8.451l2.591-7.451-1.059 0.252c-0.392 0.092-0.632 0.3-0.782 0.674l-1.851 5.419-1.323-1.331c-0.268-0.268-0.704-0.268-0.972 0l-3.703 3.704-5.023-3.767c-0.157-0.118-0.356-0.165-0.547-0.124l-5.765 1.169c-0.238 0.11-0.419 0.283-0.531 0.561l-0.444 1.007 6.709-1.328 5.254 3.941c0.272 0.202 0.656 0.176 0.898-0.065l3.64-3.638 1.316 1.316-1.859 5.446-4.77 2.46-5.148-6.497c-0.132-0.165-0.331-0.26-0.539-0.26-0.029 0-0.058 0.001-0.087 0.005-0.238 0.030-0.444 0.183-0.542 0.403 0 0-4.855 12.569-4.872 12.654h0.892c0.353-0.085 0.572-0.282 0.722-0.59l0.516-1.334 3.536-9.136 4.793 6.049c0.136 0.17 0.337 0.263 0.54 0.263 0.106 0 0.214-0.025 0.315-0.077l5.5-2.835c0.147-0.076 0.261-0.201 0.323-0.356l1.774-5.1 2.864 2.864 0.183-1.094c0.056-0.33-0.011-0.602-0.201-0.84l-2.348-2.362z"></path>
</svg>
