<!-- Generated by IcoMoon.io -->
<svg version="1.1" xmlns="http://www.w3.org/2000/svg" width="32" height="32" viewBox="0 0 32 32">
<title>chart_line</title>
<path d="M29.253 1.671c-0.521 0.121-0.844 0.4-1.040 0.896l-5.607 16.413-6.36 3.276-6.863-8.659c-0.173-0.224-0.441-0.347-0.717-0.347-0.040 0-0.076 0.001-0.115 0.005-0.317 0.045-0.591 0.248-0.721 0.539 0 0-6.473 16.757-6.497 16.872h1.191c0.472-0.113 0.761-0.375 0.963-0.783l0.685-1.771 0.003-0.015 4.719-12.179 6.391 8.069c0.177 0.227 0.445 0.347 0.719 0.347 0.141 0 0.285-0.031 0.417-0.105l7.333-3.781c0.197-0.096 0.352-0.265 0.431-0.471l6.483-18.645-1.413 0.337z"></path>
</svg>
