<!-- Generated by IcoMoon.io -->
<svg version="1.1" xmlns="http://www.w3.org/2000/svg" width="32" height="32" viewBox="0 0 32 32">
<title>chart_cashflow</title>
<path d="M15.083 6.833v8.251c0 0.509-0.412 0.917-0.917 0.917s-0.917-0.408-0.917-0.917c0-0.025 0.012-0.037 0.013-0.061l-0.013 0.003v-6.132c0.003-0.539 0.172-0.893 0.613-1.203l1.221-0.857zM28.529 7.691c-0.441 0.309-0.611 0.664-0.612 1.203v6.132l0.013-0.003c-0.001 0.024-0.013 0.036-0.013 0.061 0 0.509 0.412 0.917 0.917 0.917s0.917-0.408 0.917-0.917v-8.251l-1.223 0.857zM21.196 4.024c-0.441 0.309-0.611 0.664-0.613 1.203v9.799l0.013-0.003c-0.001 0.024-0.013 0.036-0.013 0.061 0 0.509 0.412 0.917 0.917 0.917s0.917-0.408 0.917-0.917v-11.917l-1.221 0.857zM10.196 11.357c-0.441 0.309-0.611 0.664-0.612 1.203v2.465l0.013-0.003c-0.001 0.024-0.013 0.036-0.013 0.061 0 0.508 0.411 0.916 0.916 0.916s0.917-0.408 0.917-0.917v-4.583l-1.221 0.857zM7.137 26.143c0.441-0.309 0.611-0.664 0.613-1.203v-7.965l-0.013 0.003c0.001-0.024 0.013-0.036 0.013-0.061-0.001-0.508-0.412-0.916-0.917-0.916s-0.917 0.408-0.917 0.917v10.083l1.221-0.857zM2.863 2.191c-0.441 0.309-0.611 0.664-0.613 1.203v11.632l0.013-0.003c-0.001 0.024-0.013 0.036-0.013 0.061 0.001 0.508 0.412 0.916 0.917 0.916s0.917-0.408 0.917-0.917v-13.749l-1.221 0.857zM25.471 20.643c0.441-0.309 0.611-0.664 0.613-1.203v-2.465l-0.013 0.003c0.001-0.024 0.013-0.036 0.013-0.061 0-0.509-0.412-0.917-0.917-0.917s-0.917 0.408-0.917 0.917v4.584l1.221-0.857zM18.137 29.809c0.441-0.309 0.611-0.664 0.613-1.203v-11.632l-0.013 0.003c0.001-0.024 0.013-0.036 0.013-0.061 0-0.509-0.412-0.917-0.917-0.917s-0.917 0.408-0.917 0.917v13.751l1.221-0.857z"></path>
</svg>
