<!-- Generated by IcoMoon.io -->
<svg version="1.1" xmlns="http://www.w3.org/2000/svg" width="24" height="24" viewBox="0 0 24 24">
<title>chart_cashflow</title>
<path fill="#444" d="M11.312 5.125v6.188c0 0.38-0.308 0.688-0.688 0.688s-0.688-0.308-0.688-0.688c0-0.018 0.008-0.030 0.010-0.047l-0.010 0.003v-4.599c0.003-0.403 0.129-0.671 0.459-0.902l0.916-0.642zM21.397 5.767c-0.33 0.231-0.457 0.499-0.459 0.902v4.599l0.010-0.003c-0.001 0.017-0.010 0.029-0.010 0.047 0 0.38 0.308 0.688 0.688 0.688s0.688-0.308 0.688-0.688v-6.188l-0.916 0.642zM15.897 3.017c-0.33 0.231-0.457 0.499-0.459 0.902v7.349l0.010-0.003c-0.001 0.017-0.010 0.029-0.010 0.047 0 0.38 0.308 0.688 0.688 0.688s0.688-0.308 0.688-0.688v-8.938l-0.916 0.642zM7.647 8.517c-0.33 0.231-0.457 0.499-0.459 0.902v1.849l0.010-0.003c-0.001 0.017-0.010 0.029-0.010 0.047 0 0.38 0.308 0.688 0.688 0.688s0.688-0.308 0.688-0.688v-3.437l-0.916 0.642zM5.353 19.608c0.33-0.231 0.457-0.499 0.459-0.902v-5.974l-0.010 0.003c0.001-0.017 0.010-0.029 0.010-0.047 0-0.38-0.308-0.688-0.688-0.688s-0.688 0.308-0.688 0.688v7.562l0.916-0.642zM2.147 1.642c-0.33 0.231-0.457 0.499-0.459 0.902v8.724l0.010-0.003c-0.001 0.017-0.010 0.029-0.010 0.047 0 0.38 0.308 0.688 0.688 0.688s0.688-0.308 0.688-0.688v-10.313l-0.916 0.642zM19.103 15.483c0.33-0.231 0.457-0.499 0.459-0.902v-1.849l-0.010 0.003c0.001-0.017 0.010-0.029 0.010-0.047 0-0.38-0.308-0.688-0.688-0.688s-0.688 0.308-0.688 0.688v3.437l0.916-0.642zM13.603 22.358c0.33-0.231 0.457-0.499 0.459-0.902v-8.724l-0.010 0.003c0.001-0.017 0.010-0.029 0.010-0.047 0-0.38-0.308-0.688-0.688-0.688s-0.688 0.308-0.688 0.688v10.313l0.916-0.642z"></path>
</svg>
