<!-- Generated by IcoMoon.io -->
<svg version="1.1" xmlns="http://www.w3.org/2000/svg" width="32" height="32" viewBox="0 0 32 32">
<path d="M28.816 8.756c-1.889-3.407-4.985-5.879-8.723-6.968-0.169-0.052-0.341-0.077-0.513-0.077-0.348 0-0.693 0.104-0.993 0.3-0.449 0.289-0.745 0.756-0.823 1.289l-0.352 2.525c-0.125 0.873 0.396 1.724 1.24 2.004 1.929 0.636 3.567 1.947 4.612 3.68 0.34 0.569 0.944 0.889 1.572 0.889 0.217 0 0.44-0.036 0.651-0.119l2.377-0.912c0.497-0.185 0.887-0.584 1.069-1.088 0.185-0.499 0.141-1.060-0.117-1.524zM24.837 10.561c-1.273-2.117-3.265-3.704-5.611-4.479l0.355-2.532c3.248 0.955 5.991 3.143 7.632 6.1l-2.376 0.911zM30.623 14.767c-0.043-0.535-0.313-1.023-0.741-1.34-0.317-0.232-0.7-0.355-1.088-0.355-0.133 0-0.271 0.011-0.404 0.040l-2.479 0.567c-0.861 0.196-1.464 0.98-1.428 1.869 0.168 3.911-2.307 7.416-6.020 8.549-0.805 0.241-1.635 0.371-2.463 0.371-0.231 0-0.463-0.016-0.692-0.028-0.915-0.080-1.804-0.305-2.647-0.671-0.232-0.097-0.481-0.148-0.725-0.148-0.599 0-1.181 0.293-1.529 0.827l-1.4 2.128c-0.295 0.449-0.38 0.999-0.237 1.513 0.144 0.515 0.505 0.941 0.985 1.168 1.6 0.753 3.292 1.211 5.037 1.356 0.404 0.032 0.808 0.053 1.211 0.053 1.439 0 2.864-0.211 4.251-0.635 6.547-1.995 10.907-8.413 10.369-15.265zM19.723 28.267c-1.557 0.477-3.165 0.651-4.78 0.513-1.521-0.124-3.016-0.528-4.404-1.185l1.397-2.136c1.024 0.447 2.112 0.715 3.217 0.815 1.295 0.101 2.589-0.039 3.841-0.417 4.56-1.383 7.52-5.739 7.32-10.38l2.477-0.565c0.469 5.933-3.251 11.593-9.069 13.356zM15.957 3.165c-0.001-0.536-0.233-1.035-0.639-1.383-0.335-0.296-0.76-0.449-1.195-0.449-0.088 0-0.176 0.005-0.268 0.023-0.708 0.099-1.412 0.261-2.097 0.467-7.743 2.351-12.136 10.593-9.796 18.367 0.581 1.936 1.536 3.695 2.84 5.24 0.344 0.405 0.847 0.647 1.38 0.652 0.005 0 0.015 0 0.020 0 0.527 0 1.023-0.225 1.372-0.621l1.687-1.904c0.589-0.673 0.617-1.663 0.065-2.367-0.659-0.833-1.147-1.772-1.451-2.787-1.359-4.513 1.185-9.281 5.671-10.645 0.303-0.089 0.609-0.169 0.924-0.228 0.871-0.157 1.499-0.924 1.497-1.812l-0.011-2.552zM13.012 6c-5.447 1.655-8.541 7.453-6.892 12.929 0.371 1.244 0.972 2.395 1.771 3.403l-1.688 1.912c-1.129-1.341-1.977-2.896-2.485-4.583-2.048-6.807 1.797-14.023 8.573-16.075 0.6-0.188 1.213-0.324 1.833-0.416l0.011 2.549c-0.383 0.079-0.756 0.168-1.123 0.28z"></path>
</svg>
