<!-- Generated by IcoMoon.io -->
<svg version="1.1" xmlns="http://www.w3.org/2000/svg" width="32" height="32" viewBox="0 0 32 32">
<title>checkbox_select</title>
<path d="M26.088 13.068c-0.508 0-0.917 0.412-0.917 0.919 0 0.049 0 11.172 0 11.172h-18.316v-18.317h18.317v2.169l-9.905 9.883-4.073-4.159c-0.361-0.328-0.747-0.461-1.245-0.372l-1.431 0.255c0.001 0.003 0.001 0.003 0.001 0.003l6.729 6.877 15.419-15.407-1.417-0.248c-0.528-0.096-0.935 0.031-1.312 0.412l-0.931 0.929v-0.343c0-1.013-0.823-1.831-1.833-1.831h-18.319c-1.012 0-1.832 0.817-1.832 1.831v18.317c0 1.013 0.82 1.831 1.832 1.831h18.317c1.011 0 1.833-0.817 1.833-1.831 0 0 0-11.109 0-11.172 0-0.508-0.412-0.919-0.917-0.919z"></path>
</svg>
