<!-- Generated by IcoMoon.io -->
<svg version="1.1" xmlns="http://www.w3.org/2000/svg" width="32" height="32" viewBox="0 0 32 32">
<path d="M25.157 5.011h-18.315c-1.012 0-1.832 0.819-1.832 1.832v18.315c0 1.013 0.82 1.832 1.832 1.832h18.315c1.012 0 1.832-0.819 1.832-1.832v-18.315c0-1.013-0.82-1.832-1.832-1.832zM25.157 25.157h-18.315v-18.315h18.315v18.315zM10.808 21.193c-0.005-0.039 0-9.451 0-9.451 0-0.516 0.417-0.932 0.933-0.932 0 0 9.412-0.005 9.452 0l-0.857 1.245c-0.261 0.375-0.584 0.571-0.995 0.62l-6.667 0.003v6.667c-0.051 0.409-0.248 0.732-0.623 0.995l-1.244 0.853z"></path>
</svg>
