<!-- Generated by IcoMoon.io -->
<svg version="1.1" xmlns="http://www.w3.org/2000/svg" width="24" height="24" viewBox="0 0 24 24">
<title>checkbox_invert</title>
<path fill="#444" d="M19.083 3.5h-14.167c-0.782 0-1.417 0.633-1.417 1.417v14.167c0 0.783 0.635 1.417 1.417 1.417h14.167c0.782 0 1.417-0.633 1.417-1.417v-14.167c0-0.783-0.635-1.417-1.417-1.417zM19.083 19.083h-14.167v-14.167h14.167v14.167zM14.833 7.75h-5.667c-0.782 0-1.417 0.633-1.417 1.417v5.667c0 0.783 0.635 1.417 1.417 1.417h5.667c0.782 0 1.417-0.633 1.417-1.417v-5.667c0-0.783-0.635-1.417-1.417-1.417zM14.833 14.833h-5.667v-5.667h5.667v5.667z"></path>
</svg>
