<!-- Generated by IcoMoon.io -->
<svg version="1.1" xmlns="http://www.w3.org/2000/svg" width="24" height="24" viewBox="0 0 24 24">
<title>checkbox_select</title>
<path d="M19.566 9.801c-0.381 0-0.688 0.309-0.688 0.689 0 0.037 0 8.379 0 8.379h-13.737v-13.738h13.738v1.627l-7.429 7.412-3.055-3.119c-0.271-0.246-0.56-0.346-0.934-0.279l-1.073 0.191c0.001 0.002 0.001 0.002 0.001 0.002l5.047 5.158 11.564-11.555-1.063-0.186c-0.396-0.072-0.701 0.023-0.984 0.309l-0.698 0.697v-0.257c0-0.76-0.617-1.373-1.375-1.373h-13.739c-0.759 0-1.374 0.613-1.374 1.373v13.738c0 0.76 0.615 1.373 1.374 1.373h13.738c0.758 0 1.375-0.613 1.375-1.373 0 0 0-8.332 0-8.379 0-0.381-0.309-0.689-0.688-0.689z"></path>
</svg>
