<!-- Generated by IcoMoon.io -->
<svg version="1.1" xmlns="http://www.w3.org/2000/svg" width="24" height="24" viewBox="0 0 24 24">
<title>checkbox_select</title>
<path fill="#444" d="M19.792 9.733c-0.391 0-0.708 0.317-0.708 0.708 0 0.040 0 8.642 0 8.642h-14.167v-14.167h14.167v1.679l-7.661 7.643-3.151-3.217c-0.279-0.255-0.577-0.354-0.962-0.285l-1.106 0.193c0 0.003 0.001 0.003 0.001 0.003l5.205 5.318 11.924-11.914-1.096-0.191c-0.409-0.075-0.721 0.026-1.016 0.319l-0.721 0.72v-0.266c0-0.783-0.635-1.417-1.417-1.417h-14.167c-0.782 0-1.417 0.633-1.417 1.417v14.167c0 0.783 0.635 1.417 1.417 1.417h14.167c0.782 0 1.417-0.633 1.417-1.417 0 0 0-8.591 0-8.642 0-0.391-0.317-0.708-0.708-0.708z"></path>
</svg>
