<!-- Generated by IcoMoon.io -->
<svg version="1.1" xmlns="http://www.w3.org/2000/svg" width="24" height="24" viewBox="0 0 24 24">
<title>checkbox_invert</title>
<path d="M18.868 3.758h-13.736c-0.759 0-1.374 0.614-1.374 1.374v13.736c0 0.76 0.615 1.374 1.374 1.374h13.736c0.759 0 1.374-0.614 1.374-1.374v-13.736c0-0.76-0.615-1.374-1.374-1.374zM18.868 18.868h-13.736v-13.736h13.736v13.736zM8.106 15.895c-0.004-0.029 0-7.088 0-7.088 0-0.387 0.313-0.699 0.7-0.699 0 0 7.059-0.004 7.089 0l-0.643 0.934c-0.196 0.281-0.438 0.428-0.746 0.465l-5 0.002v5c-0.038 0.307-0.186 0.549-0.467 0.746l-0.933 0.64z"></path>
</svg>
