<!-- Generated by IcoMoon.io -->
<svg version="1.1" xmlns="http://www.w3.org/2000/svg" width="24" height="24" viewBox="0 0 24 24">
<title>chip</title>
<path fill="#444" d="M21.625 14.876v-0.953c0-0.183-0.073-0.358-0.201-0.487s-0.304-0.201-0.487-0.201l-4.811 0.001v-2.475h4.811c0.183 0 0.358-0.073 0.487-0.201s0.201-0.305 0.201-0.487v-0.952c0.799-0.285 1.375-1.041 1.375-1.936 0-1.137-0.925-2.063-2.063-2.063s-2.063 0.925-2.063 2.063c0 0.895 0.576 1.651 1.375 1.936v0.264h-4.124v-1.513h-3.439v-2.876c0.799-0.285 1.375-1.041 1.375-1.936 0-1.137-0.925-2.063-2.063-2.063s-2.063 0.925-2.063 2.063c0 0.895 0.576 1.651 1.375 1.936v2.876h-1.375c-0.896 0-1.653 0.575-1.936 1.375h-4.252v-2.876c0.799-0.285 1.375-1.041 1.375-1.936 0-1.137-0.925-2.063-2.063-2.063s-2.063 0.925-2.063 2.063c0 0.895 0.576 1.651 1.375 1.936v3.564c0 0.38 0.308 0.688 0.688 0.688h4.813v2.75h-4.813c-0.38 0-0.688 0.308-0.688 0.688v3.564c-0.799 0.285-1.375 1.041-1.375 1.936 0 1.137 0.925 2.063 2.063 2.063s2.063-0.925 2.063-2.063c0-0.895-0.576-1.651-1.375-1.936v-2.876h4.125v1.376h3.437v2.875c-0.799 0.285-1.375 1.041-1.375 1.936 0 1.137 0.925 2.063 2.063 2.063s2.063-0.925 2.063-2.063c0-0.895-0.576-1.651-1.375-1.936v-2.875h1.376c0.946 0 1.737-0.643 1.979-1.514l4.207-0.001v0.264c-0.799 0.285-1.375 1.041-1.375 1.936 0 1.137 0.925 2.063 2.063 2.063s2.063-0.925 2.063-2.063c0-0.894-0.576-1.65-1.375-1.935zM20.938 6.5c0.38 0 0.688 0.308 0.688 0.688s-0.308 0.688-0.688 0.688-0.688-0.308-0.688-0.688 0.308-0.688 0.688-0.688zM12 2.375c0.38 0 0.688 0.308 0.688 0.688s-0.308 0.688-0.688 0.688-0.688-0.308-0.688-0.688 0.308-0.688 0.688-0.688zM3.062 5.125c-0.38 0-0.688-0.308-0.688-0.688s0.308-0.688 0.688-0.688 0.688 0.308 0.688 0.688-0.308 0.688-0.688 0.688zM3.062 20.25c-0.38 0-0.688-0.308-0.688-0.688s0.308-0.688 0.688-0.688 0.688 0.308 0.688 0.688-0.308 0.688-0.688 0.688zM12 21.625c-0.38 0-0.688-0.308-0.688-0.688s0.308-0.688 0.688-0.688 0.688 0.308 0.688 0.688-0.308 0.688-0.688 0.688zM14.751 14.063c0 0.38-0.308 0.689-0.688 0.689h-2.057c-0.003 0-0.004-0.001-0.007-0.001s-0.004 0.001-0.007 0.001h-2.743v-4.814c0-0.378 0.309-0.688 0.688-0.688h4.813v4.813zM20.938 17.5c-0.38 0-0.688-0.308-0.688-0.688s0.308-0.688 0.688-0.688 0.688 0.308 0.688 0.688-0.308 0.688-0.688 0.688z"></path>
</svg>
