<!-- Generated by IcoMoon.io -->
<svg version="1.1" xmlns="http://www.w3.org/2000/svg" width="32" height="32" viewBox="0 0 32 32">
<path d="M28.833 19.835v-1.269c0-0.244-0.096-0.475-0.268-0.647s-0.405-0.269-0.648-0.269l-6.415 0.003v-3.303h6.415c0.244 0 0.476-0.096 0.648-0.268s0.268-0.405 0.268-0.648v-1.267c1.064-0.381 1.833-1.389 1.833-2.583 0-1.517-1.233-2.749-2.749-2.749s-2.749 1.233-2.749 2.749c0 1.195 0.769 2.201 1.833 2.583v0.351h-5.499v-2.017h-4.585v-3.835c1.064-0.38 1.833-1.388 1.833-2.583-0.001-1.516-1.235-2.749-2.751-2.749s-2.749 1.233-2.749 2.749c0 1.195 0.769 2.201 1.833 2.583v3.835h-1.833c-1.196 0-2.204 0.765-2.583 1.833h-5.668v-3.835c1.064-0.38 1.833-1.388 1.833-2.583 0-1.517-1.233-2.749-2.749-2.749s-2.751 1.233-2.751 2.751c0 1.195 0.769 2.201 1.833 2.583v4.751c0 0.507 0.411 0.917 0.917 0.917h6.416v3.667h-6.417c-0.507 0-0.917 0.411-0.917 0.917v4.751c-1.063 0.379-1.832 1.387-1.832 2.58 0 1.517 1.233 2.749 2.749 2.749s2.749-1.233 2.749-2.749c0-1.195-0.769-2.201-1.833-2.583v-3.833h5.5v1.835h4.584v3.833c-1.064 0.38-1.833 1.388-1.833 2.583 0.001 1.516 1.235 2.749 2.751 2.749s2.749-1.233 2.749-2.749c0-1.195-0.769-2.201-1.833-2.583v-3.833h1.835c1.263 0 2.316-0.857 2.639-2.017l5.609-0.003v0.353c-1.064 0.38-1.833 1.388-1.833 2.583 0 1.517 1.233 2.749 2.749 2.749s2.752-1.233 2.752-2.751c0-1.193-0.769-2.201-1.833-2.581zM27.917 8.667c0.507 0 0.917 0.411 0.917 0.917s-0.411 0.917-0.917 0.917-0.917-0.412-0.917-0.917 0.411-0.917 0.917-0.917zM16 3.167c0.507 0 0.917 0.411 0.917 0.917s-0.411 0.916-0.917 0.916-0.917-0.411-0.917-0.917 0.411-0.916 0.917-0.916zM4.083 6.833c-0.507 0-0.917-0.411-0.917-0.917s0.412-0.916 0.917-0.916 0.917 0.411 0.917 0.917-0.411 0.916-0.917 0.916zM4.083 27c-0.507 0-0.917-0.411-0.917-0.917s0.411-0.917 0.917-0.917 0.917 0.411 0.917 0.917-0.411 0.917-0.917 0.917zM16 28.833c-0.507 0-0.917-0.411-0.917-0.917s0.411-0.916 0.917-0.916 0.917 0.411 0.917 0.917-0.411 0.916-0.917 0.916zM19.668 18.749c0 0.507-0.411 0.917-0.917 0.917h-2.743c-0.004 0-0.005-0.001-0.009-0.001s-0.005 0.001-0.009 0.001h-3.656v-6.416c0-0.505 0.412-0.917 0.917-0.917h6.417v6.416zM27.917 23.333c-0.507 0-0.917-0.411-0.917-0.917s0.411-0.917 0.917-0.917 0.917 0.411 0.917 0.917-0.412 0.917-0.917 0.917z"></path>
</svg>
