<!-- Generated by IcoMoon.io -->
<svg version="1.1" xmlns="http://www.w3.org/2000/svg" width="24" height="24" viewBox="0 0 24 24">
<title>clock_schedule</title>
<path fill="#444" d="M22.891 10.308c0 0.035-0.015 0.064-0.020 0.098-0.007 0.052-0.010 0.102-0.030 0.151-0.020 0.050-0.053 0.094-0.084 0.135-0.019 0.027-0.027 0.060-0.050 0.084-0.003 0.003-0.005 0.001-0.008 0.004-0.059 0.063-0.129 0.112-0.208 0.147-0.005 0-0.008 0.007-0.014 0.010-0.083 0.033-0.17 0.053-0.266 0.052 0 0-5.658 0.010-5.7 0l0.617-0.906c0.211-0.301 0.477-0.435 0.828-0.455h2.533l0.011-0.010-3.484-3.622c-0.909-0.909-2.009-1.605-3.201-2.024-4.425-1.562-9.298 0.766-10.861 5.191s0.764 9.299 5.191 10.864c4.010 1.415 8.373-0.37 10.325-4.007 0 0 0.174-0.358 0.251-0.537 0 0 0.253-0.255 0.64-0.353l1.022-0.257c-0.199 0.714-0.488 1.387-0.839 2.019-0.007 0.022-0.121 0.212-0.17 0.291-0.223 0.373-0.734 1.037-0.734 1.037-1.873 2.299-4.699 3.657-7.667 3.657-1.088 0-2.196-0.183-3.28-0.564-5.135-1.814-7.835-7.467-6.022-12.604 1.814-5.134 7.466-7.839 12.601-6.023 1.383 0.489 2.662 1.295 3.697 2.332l3.563 3.704v-2.625c0-0.399 0.147-0.68 0.474-0.907l0.889-0.602c0.010 0.048-0.001 5.72-0.001 5.72zM15.674 8.149c-0.394-0.069-0.692 0.025-0.975 0.306l-3.724 3.724-3.501-3.501-0.192 1.065c-0.071 0.394 0.025 0.693 0.305 0.975l2.344 2.343c0.548 0.452 1.313 0.331 1.583 0.267 0-0.001 0-0.001 0-0.001 0.001 0 0.003-0.001 0.005-0.003 0.146-0.041 0.286-0.108 0.425-0.225l4.796-4.761-1.067-0.191z"></path>
</svg>
