<!-- Generated by IcoMoon.io -->
<svg version="1.1" xmlns="http://www.w3.org/2000/svg" width="32" height="32" viewBox="0 0 32 32">
<title>clock</title>
<path d="M16 1.333c-8.087 0-14.667 6.58-14.667 14.667s6.58 14.667 14.667 14.667 14.667-6.58 14.667-14.667-6.58-14.667-14.667-14.667zM16 28.833c-7.088 0-12.833-5.748-12.833-12.833s5.745-12.833 12.833-12.833 12.833 5.748 12.833 12.833-5.745 12.833-12.833 12.833zM17.199 15.817c-0.233-0.083-0.409-0.207-0.528-0.375s-0.148-0.376-0.147-0.624v-8.195l-1.22 0.86c-0.44 0.309-0.608 0.671-0.607 1.208l-0.031 8.164 5.48 1.96c0.505 0.183 0.901 0.144 1.341-0.164l1.22-0.86-5.509-1.975z"></path>
</svg>
