<!-- Generated by IcoMoon.io -->
<svg version="1.1" xmlns="http://www.w3.org/2000/svg" width="24" height="24" viewBox="0 0 24 24">
<title>clock_timer</title>
<path fill="#444" d="M12.789 3.182l-1.477-0.008c-5.255 0.349-9.412 4.639-9.412 9.896 0 5.486 4.522 9.93 10.099 9.93 5.578 0 10.099-4.444 10.099-9.93 0-5.257-4.155-9.547-9.412-9.896l0.102 0.008zM15.897 2.375l-0.627-0.895c-0.232-0.334-0.514-0.48-0.919-0.48h-6.248l0.628 0.896c0.231 0.331 0.513 0.478 0.917 0.478h6.248zM12 21.625c-4.811 0-8.724-3.838-8.724-8.555s3.913-8.554 8.724-8.554 8.724 3.838 8.724 8.555-3.913 8.554-8.724 8.554zM17.819 8.956l-4.841 4.807c-0.14 0.118-0.28 0.186-0.429 0.226-0.003 0.003-0.004 0.003-0.004 0.003s0 0 0 0.003c-0.271 0.065-1.045 0.186-1.598-0.271l-0.313-0.312-2.053-2.054c-0.285-0.285-0.381-0.586-0.309-0.983l0.194-1.077 3.534 3.534 3.759-3.759c0.286-0.285 0.587-0.378 0.985-0.309l1.077 0.194z"></path>
</svg>
