<!-- Generated by IcoMoon.io -->
<svg version="1.1" xmlns="http://www.w3.org/2000/svg" width="32" height="32" viewBox="0 0 32 32">
<title>clock_timer</title>
<path d="M17.053 4.243l-1.969-0.011c-7.007 0.467-12.549 6.187-12.549 13.195 0 7.315 6.029 13.24 13.465 13.24 7.437 0 13.465-5.925 13.465-13.24 0-7.009-5.541-12.729-12.549-13.195l0.137 0.011zM21.195 3.167l-0.835-1.195c-0.309-0.444-0.687-0.639-1.225-0.639h-8.329l0.836 1.195c0.309 0.441 0.685 0.639 1.223 0.639h8.331zM16 28.833c-6.415 0-11.632-5.117-11.632-11.407s5.217-11.405 11.632-11.405 11.632 5.117 11.632 11.407-5.217 11.405-11.632 11.405zM17.157 17.293c-0.233-0.083-0.409-0.207-0.528-0.375s-0.148-0.376-0.147-0.624v-8.195l-1.221 0.86c-0.439 0.309-0.596 0.671-0.595 1.208v8.163l5.439 1.96c0.505 0.183 0.901 0.144 1.341-0.164l1.22-0.86-5.509-1.973z"></path>
</svg>
