<!-- Generated by IcoMoon.io -->
<svg version="1.1" xmlns="http://www.w3.org/2000/svg" width="24" height="24" viewBox="0 0 24 24">
<title>clock</title>
<path d="M12 1c-6.065 0-11 4.935-11 11s4.935 11 11 11 11-4.935 11-11-4.935-11-11-11zM12 21.625c-5.316 0-9.625-4.311-9.625-9.625s4.309-9.625 9.625-9.625 9.625 4.311 9.625 9.625-4.309 9.625-9.625 9.625zM12.899 11.863c-0.175-0.062-0.307-0.155-0.396-0.281s-0.111-0.282-0.11-0.468v-6.146l-0.915 0.645c-0.33 0.232-0.456 0.503-0.455 0.906l-0.023 6.123 4.11 1.47c0.379 0.137 0.676 0.108 1.006-0.123l0.915-0.645-4.132-1.481z"></path>
</svg>
