<!-- Generated by IcoMoon.io -->
<svg version="1.1" xmlns="http://www.w3.org/2000/svg" width="24" height="24" viewBox="0 0 24 24">
<title>clock_alarm</title>
<path d="M11.964 3.141c-5.595 0-10.131 4.444-10.131 9.93s4.536 9.929 10.131 9.929c5.596 0 10.131-4.444 10.131-9.93s-4.535-9.929-10.131-9.929zM11.964 21.625c-4.827 0-8.752-3.838-8.752-8.555s3.925-8.555 8.752-8.555c4.825 0 8.752 3.838 8.752 8.555s-3.926 8.555-8.752 8.555zM17.016 1.217l1.103-0.194c0.397-0.071 0.676 0.029 0.962 0.313l3.583 3.532c0.284 0.285 0.385 0.564 0.315 0.961l-0.194 1.103-5.769-5.715zM1.216 6.933l-0.194-1.103c-0.070-0.396 0.031-0.675 0.315-0.961l3.583-3.531c0.286-0.285 0.565-0.386 0.962-0.314l1.103 0.194-5.769 5.715zM12.868 12.97c-0.175-0.062-0.307-0.155-0.396-0.281s-0.111-0.282-0.11-0.468v-6.146l-0.916 0.645c-0.329 0.232-0.447 0.503-0.446 0.906v6.122l4.079 1.47c0.379 0.137 0.676 0.108 1.006-0.123l0.915-0.645-4.132-1.48z"></path>
</svg>
