<!-- Generated by IcoMoon.io -->
<svg version="1.1" xmlns="http://www.w3.org/2000/svg" width="24" height="24" viewBox="0 0 24 24">
<title>clock</title>
<path fill="#444" d="M12 1c-6.065 0-11 4.935-11 11s4.935 11 11 11 11-4.935 11-11-4.935-11-11-11zM12 21.625c-5.316 0-9.625-4.311-9.625-9.625s4.309-9.625 9.625-9.625 9.625 4.311 9.625 9.625-4.309 9.625-9.625 9.625zM17.856 7.574l-4.841 4.807c-0.14 0.118-0.28 0.186-0.429 0.226-0.003 0.003-0.004 0.003-0.005 0.003 0 0 0 0 0 0.003-0.271 0.065-1.044 0.186-1.598-0.271l-2.365-2.366c-0.285-0.285-0.381-0.584-0.309-0.983l0.194-1.077 3.534 3.534 3.759-3.759c0.286-0.285 0.587-0.378 0.985-0.309l1.077 0.194z"></path>
</svg>
