<!-- Generated by IcoMoon.io -->
<svg version="1.1" xmlns="http://www.w3.org/2000/svg" width="32" height="32" viewBox="0 0 32 32">
<title>clock_alarm</title>
<path d="M15.952 4.188c-7.46 0-13.508 5.925-13.508 13.24s6.048 13.239 13.508 13.239c7.461 0 13.508-5.925 13.508-13.24s-6.047-13.239-13.508-13.239zM15.952 28.833c-6.436 0-11.669-5.117-11.669-11.407s5.233-11.407 11.669-11.407c6.433 0 11.669 5.117 11.669 11.407s-5.235 11.407-11.669 11.407zM22.688 1.623l1.471-0.259c0.529-0.095 0.901 0.039 1.283 0.417l4.777 4.709c0.379 0.38 0.513 0.752 0.42 1.281l-0.259 1.471-7.692-7.62zM1.621 9.244l-0.259-1.471c-0.093-0.528 0.041-0.9 0.42-1.281l4.777-4.708c0.381-0.38 0.753-0.515 1.283-0.419l1.471 0.259-7.692 7.62zM17.157 17.293c-0.233-0.083-0.409-0.207-0.528-0.375s-0.148-0.376-0.147-0.624v-8.195l-1.221 0.86c-0.439 0.309-0.596 0.671-0.595 1.208v8.163l5.439 1.96c0.505 0.183 0.901 0.144 1.341-0.164l1.22-0.86-5.509-1.973z"></path>
</svg>
