<!-- Generated by IcoMoon.io -->
<svg version="1.1" xmlns="http://www.w3.org/2000/svg" width="32" height="32" viewBox="0 0 32 32">
<path d="M16.009 30.667c-8.092 0-14.676-6.58-14.676-14.667s6.584-14.667 14.676-14.667c4.079 0 7.869 1.641 10.672 4.624l0.735 0.779v-3.029c0.001-0.493 0.177-0.836 0.568-1.109l1.328-0.892v7.433c0 0.524-0.424 0.949-0.948 0.949h-7.421l0.928-1.327c0.275-0.392 0.617-0.567 1.115-0.569h3.017l-0.495-0.707c-2.429-2.707-5.891-4.257-9.497-4.257-7.047 0-12.78 5.729-12.78 12.772s5.733 12.772 12.78 12.772c6.173 0 11.457-4.411 12.563-10.485 0.121-0.341 0.38-0.635 0.796-0.86l1.297-0.699c-0.38 7.749-6.811 13.939-14.657 13.939zM17.199 15.817c-0.233-0.083-0.409-0.207-0.528-0.375s-0.148-0.376-0.147-0.624v-8.195l-1.22 0.86c-0.44 0.309-0.608 0.671-0.607 1.208l-0.031 8.164 5.48 1.96c0.505 0.183 0.901 0.144 1.341-0.164l1.22-0.86-5.509-1.975z"></path>
</svg>
