<!-- Generated by IcoMoon.io -->
<svg version="1.1" xmlns="http://www.w3.org/2000/svg" width="32" height="32" viewBox="0 0 32 32">
<title>cloud_rain</title>
<path d="M27.1 23.908c-0.288 0-0.572-0.136-0.751-0.388-0.292-0.415-0.192-0.987 0.223-1.279 2.407-1.693 2.987-5.032 1.295-7.443-0.997-1.419-2.627-2.268-4.36-2.268-0.001 0-0.003 0-0.004 0h-1.573c-0.419 0-0.784-0.283-0.888-0.689-0.603-2.359-2.087-4.337-4.179-5.575-2.083-1.233-4.524-1.581-6.872-0.976-4.851 1.245-7.783 6.216-6.537 11.073 0.353 1.388 1.043 2.692 1.995 3.769 0.336 0.379 0.299 0.96-0.081 1.295-0.377 0.337-0.959 0.297-1.293-0.081-1.143-1.296-1.972-2.863-2.395-4.529-1.497-5.836 2.027-11.805 7.855-13.303 2.82-0.724 5.753-0.308 8.261 1.176 2.307 1.364 3.999 3.479 4.82 6.007h0.885c0.001 0 0.004 0 0.004 0 2.331 0 4.521 1.139 5.861 3.049 2.272 3.235 1.492 7.72-1.739 9.996-0.161 0.112-0.345 0.165-0.527 0.165zM9.584 16v1.817c0 0.516 0.411 0.932 0.917 0.932s0.917-0.416 0.917-0.932v-3.651l-1.223 0.856c-0.371 0.257-0.564 0.575-0.612 0.977zM15.083 18.749v1.817c0 0.516 0.411 0.932 0.917 0.932s0.917-0.416 0.917-0.932v-3.651l-1.223 0.856c-0.368 0.257-0.561 0.576-0.612 0.977zM20.584 16.459v1.817c0 0.516 0.411 0.932 0.917 0.932s0.917-0.416 0.917-0.932v-3.651l-1.223 0.856c-0.369 0.257-0.563 0.575-0.612 0.977zM9.584 23.333v1.817c0 0.516 0.411 0.932 0.917 0.932s0.917-0.416 0.917-0.932v-3.651l-1.223 0.856c-0.371 0.257-0.564 0.575-0.612 0.977zM15.083 26.083v1.817c0 0.516 0.411 0.932 0.917 0.932s0.917-0.416 0.917-0.932v-3.651l-1.223 0.856c-0.368 0.257-0.561 0.576-0.612 0.977zM20.584 23.792v1.817c0 0.516 0.411 0.932 0.917 0.932s0.917-0.416 0.917-0.932v-3.651l-1.223 0.856c-0.369 0.257-0.563 0.575-0.612 0.977z"></path>
</svg>
