<!-- Generated by IcoMoon.io -->
<svg version="1.1" xmlns="http://www.w3.org/2000/svg" width="24" height="24" viewBox="0 0 24 24">
<title>cloud_rain</title>
<path fill="#444" d="M20.216 17.853c-0.213 0-0.423-0.1-0.556-0.288-0.216-0.307-0.143-0.73 0.164-0.946 1.781-1.254 2.211-3.725 0.958-5.51-0.738-1.050-1.945-1.679-3.227-1.679-0.001 0-0.001 0-0.003 0h-1.164c-0.311 0-0.581-0.209-0.657-0.51-0.446-1.745-1.546-3.21-3.093-4.126-1.543-0.912-3.349-1.17-5.087-0.723-3.59 0.923-5.76 4.602-4.838 8.199 0.262 1.027 0.772 1.992 1.477 2.79 0.248 0.281 0.221 0.71-0.060 0.958-0.28 0.25-0.71 0.22-0.958-0.060-0.847-0.959-1.46-2.12-1.774-3.354-1.106-4.321 1.501-8.739 5.815-9.849 2.089-0.536 4.259-0.228 6.115 0.871 1.707 1.010 2.96 2.575 3.568 4.446h0.654c0.001 0 0.003 0 0.003 0 1.725 0 3.347 0.843 4.339 2.257 1.681 2.395 1.105 5.715-1.287 7.399-0.118 0.084-0.254 0.124-0.389 0.124zM7.25 12v1.345c0 0.381 0.304 0.691 0.679 0.691s0.679-0.309 0.679-0.691v-2.702l-0.905 0.634c-0.273 0.19-0.415 0.425-0.452 0.723zM11.321 14.036v1.345c0 0.381 0.304 0.691 0.679 0.691s0.679-0.309 0.679-0.691v-2.702l-0.905 0.634c-0.273 0.19-0.415 0.425-0.452 0.723zM15.393 12v1.345c0 0.381 0.304 0.691 0.679 0.691s0.679-0.309 0.679-0.691v-2.702l-0.905 0.634c-0.273 0.19-0.415 0.425-0.452 0.723zM7.25 17.429v1.345c0 0.381 0.304 0.691 0.679 0.691s0.679-0.309 0.679-0.691v-2.702l-0.905 0.634c-0.273 0.19-0.415 0.425-0.452 0.723zM11.321 19.464v1.345c0 0.381 0.304 0.691 0.679 0.691s0.679-0.309 0.679-0.691v-2.702l-0.905 0.634c-0.273 0.19-0.415 0.425-0.452 0.723zM15.393 17.429v1.345c0 0.381 0.304 0.691 0.679 0.691s0.679-0.309 0.679-0.691v-2.702l-0.905 0.634c-0.273 0.19-0.415 0.425-0.452 0.723z"></path>
</svg>
