<!-- Generated by IcoMoon.io -->
<svg version="1.1" xmlns="http://www.w3.org/2000/svg" width="32" height="32" viewBox="0 0 32 32">
<title>cloud</title>
<path d="M29.372 15.58c-1.341-1.911-3.533-3.049-5.863-3.049h-0.891c-0.821-2.528-2.513-4.641-4.82-6.007-2.511-1.484-5.443-1.9-8.265-1.176-5.829 1.497-9.353 7.468-7.857 13.304 0.34 1.34 0.951 2.607 1.771 3.731 0 0-0.013 0.001-0.012 0.005 1.753 2.495 5.903 4.613 9.455 4.613h10.504c1.509 0 3.492-0.799 5.177-2.216 0.001-0.003-0.012-0.015-0.012-0.015 2.421-2.417 2.843-6.299 0.813-9.191zM12.897 25.167c-2.884 0.004-5.907-1.411-7.637-3.436-0.849-1.031-1.48-2.241-1.808-3.532-1.245-4.859 1.688-9.828 6.536-11.075 2.349-0.604 4.791-0.256 6.875 0.976 2.091 1.237 3.576 3.216 4.18 5.575 0.104 0.407 0.469 0.689 0.888 0.689h1.573c0.001 0 0.003 0 0.004 0 1.733 0 3.364 0.849 4.361 2.268 1.475 2.099 1.22 4.901-0.459 6.709-1.057 0.985-2.416 1.825-4.019 1.825h-10.495z"></path>
</svg>
