<!-- Generated by IcoMoon.io -->
<svg version="1.1" xmlns="http://www.w3.org/2000/svg" width="24" height="24" viewBox="0 0 24 24">
<title>cloud_rain</title>
<path d="M20.325 17.931c-0.216 0-0.429-0.102-0.563-0.291-0.219-0.311-0.144-0.74 0.167-0.959 1.805-1.27 2.24-3.774 0.971-5.582-0.748-1.064-1.97-1.701-3.27-1.701-0.001 0-0.002 0-0.003 0h-1.18c-0.314 0-0.588-0.212-0.666-0.517-0.452-1.769-1.565-3.253-3.134-4.181-1.562-0.925-3.393-1.186-5.154-0.732-3.638 0.934-5.837 4.662-4.903 8.305 0.265 1.041 0.782 2.019 1.496 2.827 0.252 0.284 0.224 0.72-0.061 0.971-0.283 0.253-0.719 0.223-0.97-0.061-0.857-0.972-1.479-2.147-1.796-3.397-1.123-4.377 1.52-8.854 5.891-9.977 2.115-0.543 4.315-0.231 6.196 0.882 1.73 1.023 2.999 2.609 3.615 4.505h0.664c0.001 0 0.003 0 0.003 0 1.748 0 3.391 0.854 4.396 2.287 1.704 2.426 1.119 5.79-1.304 7.497-0.121 0.084-0.259 0.124-0.395 0.124zM7.188 12v1.363c0 0.387 0.308 0.699 0.688 0.699s0.688-0.312 0.688-0.699v-2.738l-0.917 0.642c-0.278 0.193-0.423 0.431-0.459 0.733zM11.312 14.062v1.363c0 0.387 0.308 0.699 0.688 0.699s0.688-0.312 0.688-0.699v-2.738l-0.917 0.642c-0.276 0.193-0.421 0.432-0.459 0.733zM15.438 12.344v1.363c0 0.387 0.308 0.699 0.688 0.699s0.688-0.312 0.688-0.699v-2.738l-0.917 0.642c-0.277 0.193-0.422 0.431-0.459 0.733zM7.188 17.5v1.363c0 0.387 0.308 0.699 0.688 0.699s0.688-0.312 0.688-0.699v-2.738l-0.917 0.642c-0.278 0.193-0.423 0.431-0.459 0.733zM11.312 19.562v1.363c0 0.387 0.308 0.699 0.688 0.699s0.688-0.312 0.688-0.699v-2.738l-0.917 0.642c-0.276 0.193-0.421 0.432-0.459 0.733zM15.438 17.844v1.363c0 0.387 0.308 0.699 0.688 0.699s0.688-0.312 0.688-0.699v-2.738l-0.917 0.642c-0.277 0.193-0.422 0.431-0.459 0.733z"></path>
</svg>
