<!-- Generated by IcoMoon.io -->
<svg version="1.1" xmlns="http://www.w3.org/2000/svg" width="32" height="32" viewBox="0 0 32 32">
<title>cloud_off</title>
<path d="M29.127 27.069h0.052l-0.529-0.504-25.924-24.44-0.259 1.383c-0.077 0.421 0.041 0.732 0.293 1.029l0.617 0.647 2.439 2.299c-3.497 2.424-5.281 6.695-4.139 10.892 0.343 1.271 0.956 2.46 1.775 3.521 0 0-0.013 0.001-0.012 0.004 1.756 2.361 5.904 4.353 9.464 4.353h10.512c0.588 0 1.249-0.125 1.936-0.349l3.944 3.721 0.26-1.383c0.080-0.421-0.043-0.732-0.291-1.029l-0.139-0.144zM23.831 24.471c-0.141 0.011-0.271 0.056-0.415 0.056h-10.507c-2.887 0.003-5.913-1.335-7.64-3.241-0.853-0.973-1.484-2.117-1.813-3.339-0.976-3.589 0.643-7.207 3.717-9.181l16.657 15.705zM10.1 6.499c0-0.368 0.24-0.684 0.583-0.819l0.404-0.12c2.464-0.343 4.552 0.155 6.724 1.373 2.311 1.288 4.004 3.279 4.825 5.669h0.887c0 0 0.007 0 0.007 0 2.329 0 4.521 1.071 5.865 2.873 1.851 2.488 1.555 5.615-0.073 7.812l-0.205 0.168c-0.165 0.145-0.381 0.239-0.625 0.239-0.499 0-0.9-0.377-0.9-0.853 0-0.256 0.128-0.472 0.317-0.632 1.225-1.688 1.301-3.969-0.017-5.739-0.996-1.341-2.628-2.141-4.361-2.141-0.004 0-0.005 0-0.007 0h-1.575c-0.419 0-0.783-0.265-0.889-0.653-0.604-2.219-2.091-4.093-4.183-5.253-1.72-0.965-3.683-1.292-5.635-1.081-0.068 0.020-0.131 0.045-0.201 0.045-0.035 0-0.063-0.019-0.093-0.020-0.029 0.003-0.056 0.001-0.084 0.004l-0.029-0.028c-0.417-0.089-0.733-0.425-0.733-0.844z"></path>
</svg>
