<!-- Generated by IcoMoon.io -->
<svg version="1.1" xmlns="http://www.w3.org/2000/svg" width="24" height="24" viewBox="0 0 24 24">
<title>cloud</title>
<path fill="#444" d="M21.725 11.695c-0.976-1.389-2.569-2.217-4.264-2.217h-0.648c-0.597-1.839-1.828-3.376-3.505-4.368-1.827-1.080-3.959-1.381-6.011-0.856-4.24 1.089-6.803 5.431-5.715 9.676 0.248 0.973 0.692 1.896 1.288 2.712 0 0-0.009 0.001-0.008 0.004 1.275 1.815 4.292 3.355 6.876 3.355h7.639c1.099 0 2.54-0.581 3.765-1.612 0.001-0.001-0.008-0.011-0.008-0.011 1.76-1.757 2.067-4.579 0.591-6.683zM9.744 18.667c-2.097 0.003-4.296-1.027-5.555-2.499-0.617-0.749-1.076-1.631-1.315-2.569-0.905-3.533 1.228-7.148 4.753-8.055 1.708-0.439 3.484-0.187 5 0.711 1.521 0.9 2.601 2.339 3.040 4.053 0.076 0.296 0.341 0.501 0.645 0.501h1.144c0.001 0 0.001 0 0.003 0 1.26 0 2.447 0.617 3.172 1.649 1.072 1.527 0.888 3.564-0.333 4.879-0.768 0.719-1.756 1.329-2.921 1.329h-7.633z"></path>
</svg>
