<!-- Generated by IcoMoon.io -->
<svg version="1.1" xmlns="http://www.w3.org/2000/svg" width="24" height="24" viewBox="0 0 24 24">
<title>coins</title>
<path fill="#444" d="M14.265 14.791c0.157 0.358 0.238 0.797 0.241 1.323 0.007 1.018-0.366 1.789-1.117 2.317-0.403 0.282-0.905 0.485-1.489 0.619-0.264 0.337-0.576 0.507-1.023 0.514l-1.315 0.005 0.238-0.346c-0.788-0.014-1.455-0.077-1.928-0.215-0.551-0.155-0.928-0.278-1.127-0.359 0.296-0.862 1.11-1.339 2.008-1.183 0.535 0.096 0.847 0.1 1.391 0.096 0.807-0.005 1.409-0.117 1.794-0.329 0.388-0.216 0.58-0.557 0.576-1.022-0.003-0.48-0.198-0.862-0.58-1.141-0.382-0.278-1.013-0.594-1.891-0.942-0.426-0.166-0.833-0.334-1.224-0.511-0.389-0.173-0.726-0.378-1.012-0.616-0.283-0.239-0.51-0.528-0.682-0.862-0.173-0.341-0.261-0.756-0.265-1.251-0.007-0.975 0.349-1.753 1.064-2.327 0.457-0.37 1.030-0.608 1.699-0.742l0.033-0.048c0.275-0.4 0.612-0.576 1.096-0.583l1.315-0.007-0.373 0.54c0.034 0.005 0.069 0.003 0.103 0.007 0.309 0.029 0.602 0.073 0.869 0.121 0.269 0.048 0.509 0.098 0.711 0.154 0.208 0.054 0.364 0.103 0.481 0.143-0.329 0.862-1.101 1.338-2.021 1.233-0.37-0.045-0.58-0.051-0.954-0.050-0.55 0.004-1.035 0.121-1.447 0.344-0.408 0.223-0.611 0.565-0.608 1.031 0.003 0.238 0.050 0.451 0.144 0.635 0.094 0.184 0.235 0.348 0.425 0.495 0.195 0.146 0.433 0.285 0.715 0.407 0.285 0.124 0.624 0.259 1.022 0.396 0.523 0.198 0.991 0.388 1.401 0.572 0.413 0.19 0.76 0.411 1.055 0.661 0.292 0.253 0.517 0.56 0.674 0.919zM18.672 18.655c-1.708 2.597-4.638 4.32-7.981 4.345-5.314 0.036-9.654-4.245-9.691-9.558-0.023-3.381 1.704-6.364 4.33-8.099 1.709-2.596 4.638-4.319 7.979-4.344 5.314-0.036 9.654 4.245 9.691 9.558 0.023 3.381-1.704 6.361-4.329 8.097zM18.903 13.312c-0.032-4.539-3.759-8.203-8.308-8.172s-8.224 3.747-8.192 8.286c0.030 4.537 3.758 8.203 8.306 8.172s8.224-3.748 8.194-8.286zM20.25 13.308c0.005 0.771-0.089 1.518-0.257 2.239 1.048-1.39 1.671-3.116 1.658-4.984-0.032-4.539-3.759-8.203-8.308-8.172-1.793 0.012-3.446 0.605-4.795 1.588 0.648-0.143 1.32-0.223 2.010-0.228 5.314-0.036 9.654 4.245 9.691 9.558z"></path>
</svg>
