<!-- Generated by IcoMoon.io -->
<svg version="1.1" xmlns="http://www.w3.org/2000/svg" width="24" height="24" viewBox="0 0 24 24">
<title>coin</title>
<path fill="#444" d="M15.89 14.764c0 1.018-0.38 1.786-1.133 2.309-0.404 0.279-0.908 0.48-1.495 0.609-0.265 0.334-0.58 0.503-1.026 0.506l-1.315-0.003 0.241-0.345c-0.788-0.019-1.455-0.087-1.926-0.228-0.55-0.16-0.927-0.285-1.125-0.367 0.302-0.859 1.118-1.331 2.014-1.17 0.535 0.1 0.847 0.107 1.391 0.107 0.807 0 1.409-0.107 1.797-0.316 0.391-0.213 0.584-0.553 0.584-1.018 0-0.48-0.193-0.863-0.573-1.145-0.381-0.28-1.011-0.599-1.885-0.954-0.426-0.169-0.83-0.34-1.221-0.52-0.388-0.176-0.722-0.382-1.007-0.623-0.282-0.242-0.507-0.532-0.676-0.868-0.172-0.342-0.257-0.758-0.257-1.253 0-0.973 0.36-1.749 1.081-2.32 0.459-0.364 1.034-0.599 1.705-0.73l0.033-0.048c0.279-0.397 0.616-0.572 1.1-0.575l1.315 0.003-0.377 0.538c0.034 0.005 0.069 0.003 0.103 0.007 0.309 0.032 0.604 0.076 0.869 0.127 0.269 0.050 0.507 0.1 0.71 0.158 0.208 0.056 0.364 0.106 0.481 0.147-0.335 0.861-1.111 1.331-2.031 1.221-0.37-0.048-0.58-0.056-0.954-0.056-0.55 0-1.037 0.113-1.449 0.333-0.41 0.22-0.615 0.561-0.615 1.027 0 0.239 0.047 0.451 0.14 0.638 0.091 0.184 0.232 0.349 0.422 0.496 0.194 0.147 0.43 0.287 0.712 0.412 0.283 0.125 0.622 0.261 1.019 0.403 0.521 0.199 0.987 0.395 1.396 0.582 0.412 0.193 0.758 0.417 1.051 0.668 0.29 0.256 0.514 0.562 0.667 0.924 0.155 0.359 0.234 0.799 0.234 1.324zM12 1c-6.075 0-11 4.925-11 11s4.925 11 11 11 11-4.925 11-11-4.925-11-11-11zM12 21.625c-5.308 0-9.625-4.319-9.625-9.625s4.318-9.625 9.625-9.625 9.625 4.319 9.625 9.625-4.318 9.625-9.625 9.625z"></path>
</svg>
