<!-- Generated by IcoMoon.io -->
<svg version="1.1" xmlns="http://www.w3.org/2000/svg" width="32" height="32" viewBox="0 0 32 32">
<path d="M28.503 23.111h-1.576v-3.837l-1.233 0.864c-0.444 0.311-0.615 0.672-0.616 1.213v1.76h-3.472l0.864 1.232c0.311 0.444 0.672 0.615 1.215 0.617h1.395v3.707l1.232-0.864c0.444-0.311 0.615-0.672 0.617-1.215v-1.628h3.651l-0.864-1.233c-0.311-0.444-0.672-0.615-1.213-0.616z"></path>
<path d="M14.531 24.060c0.595-0.009 1.012-0.236 1.364-0.685 0.78-0.18 1.448-0.449 1.985-0.824 1-0.704 1.499-1.729 1.488-3.085-0.004-0.7-0.113-1.288-0.321-1.761h-0.001c-0.209-0.48-0.509-0.887-0.897-1.224-0.392-0.333-0.855-0.629-1.407-0.881-0.547-0.244-1.17-0.499-1.867-0.763-0.531-0.183-0.983-0.363-1.363-0.527-0.375-0.163-0.692-0.348-0.952-0.543-0.254-0.194-0.443-0.412-0.567-0.657-0.128-0.247-0.19-0.531-0.193-0.848-0.004-0.622 0.265-1.076 0.809-1.373 0.545-0.299 1.195-0.454 1.928-0.459 0.498-0.003 0.78 0.007 1.273 0.068 1.227 0.139 2.256-0.496 2.695-1.644-0.156-0.053-0.364-0.12-0.641-0.192-0.271-0.074-0.588-0.141-0.948-0.205-0.356-0.065-0.748-0.123-1.159-0.16-0.046-0.005-0.090-0.001-0.137-0.009l0.496-0.719-1.752 0.008c-0.645 0.009-1.094 0.244-1.461 0.776l-0.044 0.065c-0.892 0.178-1.656 0.497-2.265 0.989-0.953 0.763-1.428 1.802-1.42 3.099 0.004 0.66 0.121 1.212 0.353 1.667 0.23 0.445 0.534 0.829 0.911 1.148 0.381 0.317 0.829 0.589 1.348 0.821 0.522 0.236 1.064 0.458 1.633 0.681 1.17 0.461 2.012 0.883 2.521 1.252 0.511 0.373 0.771 0.882 0.775 1.521 0.004 0.617-0.252 1.072-0.768 1.361-0.514 0.282-1.317 0.429-2.393 0.437-0.727 0.005-1.143 0-1.856-0.128-1.197-0.208-2.281 0.427-2.676 1.576 0.266 0.107 0.767 0.268 1.503 0.476 0.631 0.186 1.519 0.268 2.571 0.287l-0.317 0.463 1.752-0.008z"></path>
<path d="M19.173 25.674c-0.133 0-0.259 0.030-0.373 0.080v-0.001c-1.411 0.668-2.989 1.055-4.653 1.055-6.048 0-10.953-4.905-10.953-10.953 0-6.049 4.905-10.953 10.953-10.953 6.025 0 10.913 4.868 10.95 10.887 0 0.001 0 0.001 0 0.002s0.001 0.002 0.001 0.003c0 0.009 0.001 0.018 0.001 0.027h0.004c0.017 0.499 0.422 0.901 0.925 0.901s0.908-0.402 0.925-0.901h0.006c0-0.008-0.001-0.016-0.001-0.024 0-0.002 0.001-0.004 0.001-0.006 0-0.004-0.002-0.007-0.002-0.011-0.042-7.042-5.76-12.738-12.81-12.738v-0.002c-7.076 0-12.813 5.736-12.813 12.815 0 7.076 5.737 12.812 12.813 12.812 1.933 0 3.759-0.439 5.4-1.208v-0.004c0.327-0.144 0.557-0.47 0.557-0.85 0-0.514-0.417-0.931-0.931-0.931z"></path>
</svg>
