<!-- Generated by IcoMoon.io -->
<svg version="1.1" xmlns="http://www.w3.org/2000/svg" width="32" height="32" viewBox="0 0 32 32">
<title>compare</title>
<path d="M12.812 3.217h-9.607c-1.011 0-1.833 0.82-1.833 1.833v22c0 1.013 0.823 1.833 1.833 1.833h9.607c1.011 0 1.833-0.82 1.833-1.833v-22c0-1.015-0.824-1.833-1.833-1.833zM12.812 27.051h-9.607v-22h9.607v22z"></path>
<path d="M6.516 12.599l1.508-1.507 1.508 1.507 1.296-1.296-1.508-1.508 1.508-1.507-1.296-1.297-1.508 1.508-1.508-1.508-1.296 1.297 1.508 1.507-1.508 1.508z"></path>
<path d="M28.741 3.116h-9.607c-1.011 0-1.833 0.82-1.833 1.833v22c0 1.013 0.823 1.833 1.833 1.833h9.607c1.011 0 1.833-0.82 1.833-1.833v-22c0-1.013-0.823-1.833-1.833-1.833zM28.741 26.949h-9.607v-22h9.607v22z"></path>
<path d="M21.856 11.203l1.296 1.296 4.312-4.312-1.296-1.296-3.008 3.008-1.419-1.42-1.297 1.297 1.42 1.419z"></path>
</svg>
