<!-- Generated by IcoMoon.io -->
<svg version="1.1" xmlns="http://www.w3.org/2000/svg" width="24" height="24" viewBox="0 0 24 24">
<title>compare</title>
<path d="M9.609 2.413h-7.205c-0.758 0-1.375 0.615-1.375 1.375v16.5c0 0.76 0.617 1.375 1.375 1.375h7.205c0.758 0 1.375-0.615 1.375-1.375v-16.5c0-0.761-0.618-1.375-1.375-1.375zM9.609 20.288h-7.205v-16.5h7.205v16.5z"></path>
<path d="M4.887 9.449l1.131-1.13 1.131 1.13 0.972-0.972-1.131-1.131 1.131-1.13-0.972-0.973-1.131 1.131-1.131-1.131-0.972 0.973 1.131 1.13-1.131 1.131z"></path>
<path d="M21.556 2.337h-7.205c-0.758 0-1.375 0.615-1.375 1.375v16.5c0 0.76 0.617 1.375 1.375 1.375h7.205c0.758 0 1.375-0.615 1.375-1.375v-16.5c0-0.76-0.617-1.375-1.375-1.375zM21.556 20.212h-7.205v-16.5h7.205v16.5z"></path>
<path d="M16.392 8.402l0.972 0.972 3.234-3.234-0.972-0.972-2.256 2.256-1.064-1.065-0.973 0.973 1.065 1.064z"></path>
</svg>
