<!-- Generated by IcoMoon.io -->
<svg version="1.1" xmlns="http://www.w3.org/2000/svg" width="32" height="32" viewBox="0 0 32 32">
<title>compass</title>
<path d="M16 1.333c-8.103 0-14.667 6.565-14.667 14.667s6.564 14.667 14.667 14.667 14.667-6.565 14.667-14.667-6.564-14.667-14.667-14.667zM16 28.833c-7.076 0-12.833-5.757-12.833-12.833s5.757-12.833 12.833-12.833 12.833 5.757 12.833 12.833-5.757 12.833-12.833 12.833zM16.545 15.261c0.405 0.305 0.492 0.877 0.195 1.283-0.305 0.407-0.879 0.492-1.284 0.195-0.405-0.305-0.492-0.877-0.191-1.283 0.3-0.405 0.873-0.491 1.28-0.195zM14.099 11.679c-1.827 1.292-2.681 2.9-2.681 5.069l0.001 7.909 6.488-4.337c1.831-1.303 2.679-2.913 2.677-5.071l0.001-7.905-6.487 4.335zM18.751 15.249c0.001 1.608-0.588 2.64-1.904 3.569l-3.595 2.405v-4.475c0-1.612 0.591-2.64 1.905-3.565l3.595-2.405-0.001 4.471z"></path>
</svg>
