<!-- Generated by IcoMoon.io -->
<svg version="1.1" xmlns="http://www.w3.org/2000/svg" width="24" height="24" viewBox="0 0 24 24">
<title>compass</title>
<path fill="#444" d="M12 1c-6.075 0-11 4.925-11 11s4.925 11 11 11 11-4.925 11-11-4.925-11-11-11zM12 21.625c-5.308 0-9.625-4.319-9.625-9.625s4.318-9.625 9.625-9.625 9.625 4.319 9.625 9.625-4.318 9.625-9.625 9.625zM12.408 11.449c0.307 0.227 0.37 0.655 0.144 0.96-0.226 0.307-0.656 0.37-0.961 0.144-0.305-0.227-0.37-0.655-0.143-0.96 0.224-0.307 0.655-0.37 0.96-0.144zM10.576 8.761c-1.372 0.969-2.012 2.177-2.012 3.8l0.001 5.932 4.866-3.256c1.372-0.972 2.009-2.182 2.008-3.803l0.001-5.929-4.865 3.256zM14.063 11.435c0.001 1.207-0.441 1.981-1.429 2.681l-2.695 1.804v-3.358c0-1.211 0.444-1.981 1.43-2.677l2.695-1.804-0.001 3.354z"></path>
</svg>
