<!-- Generated by IcoMoon.io -->
<svg version="1.1" xmlns="http://www.w3.org/2000/svg" width="24" height="24" viewBox="0 0 24 24">
<title>compasses</title>
<path d="M22.771 20.461l-3.711-5.166c0.211-0.062 0.396-0.168 0.548-0.385l0.642-0.916h-2.11l-3.823-5.408c0.27-0.426 0.433-0.926 0.433-1.467 0-1.297-0.854-2.381-2.062-2.668 0.016-0.084 0-2.969 0-2.969l-0.917 0.641c-0.331 0.23-0.457 0.5-0.458 0.902v1.441c-1.184 0.307-2.063 1.376-2.063 2.653 0 0.537 0.162 1.039 0.431 1.463l-3.824 5.412h-2.107l0.642 0.916c0.151 0.217 0.335 0.32 0.546 0.385l-3.709 5.166c-0.235 0.328-0.29 0.617-0.159 1l0.364 1.057 5.174-7.152 4.704 0.004v1.512l0.916-0.643c0.32-0.225 0.443-0.486 0.453-0.869l4.724-0.004 5.161 7.152 0.364-1.057c0.132-0.383 0.076-0.672-0.159-1zM12 5.744c0.759 0 1.375 0.615 1.375 1.375s-0.616 1.375-1.375 1.375-1.375-0.615-1.375-1.375 0.616-1.375 1.375-1.375zM12.688 13.994v-1.375l-0.917 0.641c-0.276 0.193-0.386 0.432-0.423 0.734l-3.81-0.002 3.159-4.467c0.39 0.211 0.829 0.344 1.303 0.344s0.914-0.133 1.303-0.344l3.16 4.469h-3.775z"></path>
</svg>
