<!-- Generated by IcoMoon.io -->
<svg version="1.1" xmlns="http://www.w3.org/2000/svg" width="24" height="24" viewBox="0 0 24 24">
<title>compact_list</title>
<path d="M9.625 1h-7.25c-0.761 0-1.375 0.618-1.375 1.375v2.25c0 0.758 0.614 1.375 1.375 1.375h7.25c0.76 0 1.375-0.617 1.375-1.375v-2.25c0-0.757-0.615-1.375-1.375-1.375zM9.625 4.625h-7.25v-2.25h7.25v2.25z"></path>
<path d="M9.625 9.479h-7.25c-0.761 0-1.375 0.617-1.375 1.375v2.25c0 0.758 0.615 1.375 1.375 1.375h7.25c0.76 0 1.375-0.617 1.375-1.375v-2.25c0-0.758-0.615-1.375-1.375-1.375zM9.625 13.104h-7.25v-2.25h7.25v2.25z"></path>
<path d="M9.625 17.958h-7.25c-0.761 0-1.375 0.617-1.375 1.375v2.25c0 0.758 0.615 1.375 1.375 1.375h7.25c0.76 0 1.375-0.617 1.375-1.375v-2.25c0-0.758-0.615-1.375-1.375-1.375zM9.625 21.583h-7.25v-2.25h7.25v2.25z"></path>
<path d="M21.624 0.979h-7.25c-0.76 0-1.375 0.617-1.375 1.375v2.25c0 0.758 0.615 1.375 1.375 1.375h7.25c0.76 0 1.375-0.617 1.375-1.375v-2.25c0-0.758-0.615-1.375-1.375-1.375zM21.624 4.604h-7.25v-2.25h7.25v2.25z"></path>
<path d="M21.624 9.458h-7.25c-0.76 0-1.375 0.617-1.375 1.375v2.25c0 0.758 0.615 1.375 1.375 1.375h7.25c0.76 0 1.375-0.617 1.375-1.375v-2.25c0-0.758-0.615-1.375-1.375-1.375zM21.624 13.083h-7.25v-2.25h7.25v2.25z"></path>
<path d="M21.624 17.937h-7.25c-0.76 0-1.375 0.617-1.375 1.375v2.25c0 0.758 0.615 1.375 1.375 1.375h7.25c0.76 0 1.375-0.617 1.375-1.375v-2.25c0-0.758-0.615-1.375-1.375-1.375zM21.624 21.562h-7.25v-2.25h7.25v2.25z"></path>
</svg>
