<!-- Generated by IcoMoon.io -->
<svg version="1.1" xmlns="http://www.w3.org/2000/svg" width="32" height="32" viewBox="0 0 32 32">
<path d="M12.833 1.333h-9.667c-1.015 0-1.833 0.824-1.833 1.833v3c0 1.011 0.819 1.833 1.833 1.833h9.667c1.013 0 1.833-0.823 1.833-1.833v-3c0-1.009-0.82-1.833-1.833-1.833zM12.833 6.167h-9.667v-3h9.667v3z"></path>
<path d="M12.833 12.639h-9.667c-1.015 0-1.833 0.823-1.833 1.833v3c0 1.011 0.82 1.833 1.833 1.833h9.667c1.013 0 1.833-0.823 1.833-1.833v-3c0-1.011-0.82-1.833-1.833-1.833zM12.833 17.472h-9.667v-3h9.667v3z"></path>
<path d="M12.833 23.944h-9.667c-1.015 0-1.833 0.823-1.833 1.833v3c0 1.011 0.82 1.833 1.833 1.833h9.667c1.013 0 1.833-0.823 1.833-1.833v-3c0-1.011-0.82-1.833-1.833-1.833zM12.833 28.777h-9.667v-3h9.667v3z"></path>
<path d="M28.832 1.305h-9.667c-1.013 0-1.833 0.823-1.833 1.833v3c0 1.011 0.82 1.833 1.833 1.833h9.667c1.013 0 1.833-0.823 1.833-1.833v-3c0-1.011-0.82-1.833-1.833-1.833zM28.832 6.139h-9.667v-3h9.667v3z"></path>
<path d="M28.832 12.611h-9.667c-1.013 0-1.833 0.823-1.833 1.833v3c0 1.011 0.82 1.833 1.833 1.833h9.667c1.013 0 1.833-0.823 1.833-1.833v-3c0-1.011-0.82-1.833-1.833-1.833zM28.832 17.444h-9.667v-3h9.667v3z"></path>
<path d="M28.832 23.916h-9.667c-1.013 0-1.833 0.823-1.833 1.833v3c0 1.011 0.82 1.833 1.833 1.833h9.667c1.013 0 1.833-0.823 1.833-1.833v-3c0-1.011-0.82-1.833-1.833-1.833zM28.832 28.749h-9.667v-3h9.667v3z"></path>
</svg>
