<!-- Generated by IcoMoon.io -->
<svg version="1.1" xmlns="http://www.w3.org/2000/svg" width="24" height="24" viewBox="0 0 24 24">
<title>compasses</title>
<path fill="#444" d="M22.727 20.906l-3.652-5.076h0.004l-0.048-0.068c0.211-0.063 0.394-0.168 0.545-0.383l0.639-0.913h-2.102l-3.807-5.385c0.27-0.423 0.431-0.923 0.431-1.461 0-1.29-0.85-2.369-2.054-2.656 0.016-0.084 0-2.956 0-2.956l-0.913 0.638c-0.329 0.23-0.455 0.497-0.456 0.898v1.435c-1.178 0.307-2.054 1.369-2.054 2.641 0 0.537 0.162 1.035 0.429 1.457l-3.807 5.389h-2.099l0.639 0.913c0.151 0.215 0.334 0.319 0.544 0.383l-0.048 0.068h0.019l-3.666 5.076c-0.234 0.326-0.289 0.615-0.157 0.995l0.361 1.053 5.153-7.124h2.652v0.004h2.033v1.506l0.912-0.639c0.319-0.223 0.441-0.485 0.45-0.867h0.948v-0.004h3.756l5.142 7.124 0.363-1.054c0.13-0.379 0.075-0.668-0.159-0.994zM12 6.249c0.756 0 1.369 0.612 1.369 1.369s-0.613 1.369-1.369 1.369-1.369-0.612-1.369-1.369 0.613-1.369 1.369-1.369zM12.685 14.465v-1.369l-0.913 0.639c-0.275 0.192-0.385 0.429-0.422 0.73l-3.793-0.001 3.145-4.449c0.389 0.211 0.826 0.342 1.298 0.342s0.911-0.131 1.298-0.342l3.147 4.45h-3.76z"></path>
</svg>
