<!-- Generated by IcoMoon.io -->
<svg version="1.1" xmlns="http://www.w3.org/2000/svg" width="24" height="24" viewBox="0 0 24 24">
<title>construction</title>
<path d="M21.616 14.715h-0.646c0-4.016-2.888-7.365-6.695-8.092v-0.148c0-0.759-0.614-1.374-1.374-1.374h-1.842c-0.76 0-1.374 0.615-1.374 1.374v0.148c-3.807 0.727-6.695 4.076-6.695 8.092h-0.606c-0.759 0-1.374 0.614-1.374 1.374v1.532c0 0.76 0.615 1.374 1.374 1.374h19.232c0.759 0 1.374-0.614 1.374-1.374v-1.532c0-0.76-0.615-1.374-1.374-1.374zM9.685 8.028v1.879c0.001 0.405 0.127 0.675 0.457 0.907l0.915 0.645v-1.725h0.002v-3.259h1.842v3.259h0.002v1.755l0.915-0.645c0.33-0.232 0.456-0.502 0.457-0.907v-1.909c3.047 0.702 5.321 3.426 5.321 6.687h-15.232c0-3.261 2.274-5.985 5.321-6.687zM21.616 17.621h-19.232v-1.532h19.232v1.532z"></path>
</svg>
