<!-- Generated by IcoMoon.io -->
<svg version="1.1" xmlns="http://www.w3.org/2000/svg" width="32" height="32" viewBox="0 0 32 32">
<path d="M28.821 19.62h-0.861c0-5.355-3.851-9.82-8.927-10.789v-0.197c0-1.012-0.819-1.832-1.832-1.832h-2.456c-1.013 0-1.832 0.82-1.832 1.832v0.197c-5.076 0.969-8.927 5.435-8.927 10.789h-0.808c-1.012 0-1.832 0.819-1.832 1.832v2.043c0 1.013 0.82 1.832 1.832 1.832h25.643c1.012 0 1.832-0.819 1.832-1.832v-2.043c0-1.013-0.82-1.832-1.832-1.832zM12.913 10.704v2.505c0.001 0.54 0.169 0.9 0.609 1.209l1.22 0.86v-2.3h0.003v-4.345h2.456v4.345h0.003v2.34l1.22-0.86c0.44-0.309 0.608-0.669 0.609-1.209v-2.545c4.063 0.936 7.095 4.568 7.095 8.916h-20.309c0-4.348 3.032-7.98 7.095-8.916zM28.821 23.495h-25.643v-2.043h25.643v2.043z"></path>
</svg>
