<!-- Generated by IcoMoon.io -->
<svg version="1.1" xmlns="http://www.w3.org/2000/svg" width="24" height="24" viewBox="0 0 24 24">
<title>control_panel</title>
<path fill="#444" d="M1.209 13.527c0-5.762 4.841-10.454 10.791-10.454s10.791 4.691 10.791 10.454c0 2.889-1.219 5.506-3.182 7.4l-0.271-1.036c-0.088-0.335-0.020-0.608 0.165-0.874 1.209-1.528 1.94-3.424 1.94-5.49 0-5.022-4.236-9.105-9.442-9.105s-9.442 4.083-9.442 9.105c0 2.071 0.735 3.97 1.948 5.499 0.173 0.26 0.237 0.529 0.15 0.855l-0.277 1.032c-1.956-1.892-3.17-4.504-3.17-7.387zM11.995 16.047c0.395 0 0.647-0.144 0.875-0.468l4.391-6.276h-1.097c-0.394 0-0.647 0.144-0.877 0.468l-4.391 6.276h1.098z"></path>
</svg>
