<!-- Generated by IcoMoon.io -->
<svg version="1.1" xmlns="http://www.w3.org/2000/svg" width="32" height="32" viewBox="0 0 32 32">
<title>control_panel</title>
<path d="M1.333 18.072c0-7.829 6.579-14.209 14.667-14.209s14.667 6.379 14.667 14.208c0 3.933-1.659 7.489-4.325 10.065l-0.369-1.416c-0.117-0.456-0.028-0.82 0.224-1.185 1.644-2.080 2.637-4.656 2.637-7.465 0-6.823-5.757-12.375-12.833-12.375s-12.833 5.552-12.833 12.375c0 2.82 1 5.401 2.648 7.475 0.233 0.36 0.321 0.717 0.203 1.165l-0.376 1.404c-2.659-2.572-4.308-6.123-4.308-10.041zM15.991 21.5c0.54 0 0.883-0.197 1.195-0.635l5.965-8.532h-1.491c-0.535 0-0.879 0.197-1.191 0.635l-5.971 8.532h1.492z"></path>
</svg>
