<!-- Generated by IcoMoon.io -->
<svg version="1.1" xmlns="http://www.w3.org/2000/svg" width="32" height="32" viewBox="0 0 32 32">
<path d="M27 5.917c-1.745 0-3.204 1.228-3.572 2.864h-14.761c-4.045 0-7.324 3.273-7.333 7.315v0.019c0 4.049 3.281 7.333 7.333 7.333h3.667c4.049 0 7.333-3.281 7.333-7.333v-5.5h3.832c0.449 1.519 1.84 2.636 3.501 2.636 2.023 0 3.667-1.645 3.667-3.667s-1.644-3.667-3.667-3.667zM17.833 16.115c0 3.032-2.468 5.5-5.5 5.5h-3.667c-3.032 0-5.5-2.468-5.5-5.5 0.007-3.037 2.473-5.5 5.5-5.5h9.167v5.5zM27 11.416c-1.012 0-1.833-0.82-1.833-1.833s0.821-1.833 1.833-1.833 1.833 0.82 1.833 1.833-0.821 1.833-1.833 1.833zM21.275 6.833h-8.941l0.856-1.221c0.308-0.44 0.667-0.608 1.203-0.612h8.941l-0.856 1.223c-0.308 0.44-0.667 0.609-1.203 0.611zM2.189 6.221l-0.856-1.221h8.941c0.536 0.001 0.895 0.171 1.203 0.611l0.856 1.223h-8.941c-0.536-0.004-0.895-0.172-1.203-0.612zM22.477 25.779l0.856 1.221h-19.941c-0.536-0.001-0.895-0.171-1.203-0.611l-0.856-1.223h19.941c0.536 0.004 0.895 0.172 1.203 0.612z"></path>
</svg>
