<!-- Generated by IcoMoon.io -->
<svg version="1.1" xmlns="http://www.w3.org/2000/svg" width="24" height="24" viewBox="0 0 24 24">
<title>copter</title>
<path fill="#444" d="M20 4.667c-1.269 0-2.331 0.893-2.597 2.083h-10.736c-2.943 0-5.327 2.38-5.333 5.32v0.013c0 2.945 2.387 5.333 5.333 5.333h2.667c2.945 0 5.333-2.387 5.333-5.333v-4h2.787c0.327 1.105 1.339 1.917 2.547 1.917 1.471 0 2.667-1.196 2.667-2.667s-1.196-2.667-2.667-2.667zM13.333 12.083c0 2.205-1.795 4-4 4h-2.667c-2.205 0-4-1.795-4-4 0.005-2.209 1.8-4 4-4h6.667v4zM20 8.667c-0.736 0-1.333-0.596-1.333-1.333s0.597-1.333 1.333-1.333 1.333 0.596 1.333 1.333-0.597 1.333-1.333 1.333zM15.836 5.333h-6.503l0.623-0.888c0.224-0.32 0.484-0.443 0.875-0.445h6.503l-0.623 0.889c-0.224 0.32-0.484 0.443-0.875 0.444zM1.956 4.888l-0.623-0.888h6.503c0.391 0.001 0.651 0.124 0.875 0.444l0.623 0.889h-6.503c-0.391-0.003-0.651-0.125-0.875-0.445zM16.711 19.112l0.623 0.888h-14.503c-0.391-0.001-0.651-0.124-0.875-0.444l-0.623-0.889h14.503c0.391 0.003 0.651 0.125 0.875 0.445z"></path>
</svg>
