<!-- Generated by IcoMoon.io -->
<svg version="1.1" xmlns="http://www.w3.org/2000/svg" width="24" height="24" viewBox="0 0 24 24">
<title>copter</title>
<path d="M20.25 4.438c-1.309 0-2.403 0.921-2.679 2.148h-11.071c-3.034 0-5.493 2.455-5.5 5.486v0.014c0 3.037 2.461 5.5 5.5 5.5h2.75c3.037 0 5.5-2.461 5.5-5.5v-4.125h2.874c0.337 1.139 1.38 1.977 2.626 1.977 1.517 0 2.75-1.234 2.75-2.75s-1.233-2.75-2.75-2.75zM13.375 12.086c0 2.274-1.851 4.125-4.125 4.125h-2.75c-2.274 0-4.125-1.851-4.125-4.125 0.005-2.278 1.855-4.125 4.125-4.125h6.875v4.125zM20.25 8.562c-0.759 0-1.375-0.615-1.375-1.375s0.616-1.375 1.375-1.375 1.375 0.615 1.375 1.375-0.616 1.375-1.375 1.375zM15.956 5.125h-6.706l0.642-0.916c0.231-0.33 0.5-0.456 0.902-0.459h6.706l-0.642 0.917c-0.231 0.33-0.5 0.457-0.902 0.458zM1.642 4.666l-0.642-0.916h6.706c0.402 0.001 0.671 0.128 0.902 0.458l0.642 0.917h-6.706c-0.402-0.003-0.671-0.129-0.902-0.459zM16.858 19.334l0.642 0.916h-14.956c-0.402-0.001-0.671-0.128-0.902-0.458l-0.642-0.917h14.956c0.402 0.003 0.671 0.129 0.902 0.459z"></path>
</svg>
