<!-- Generated by IcoMoon.io -->
<svg version="1.1" xmlns="http://www.w3.org/2000/svg" width="32" height="32" viewBox="0 0 32 32">
<title>creditcard</title>
<path d="M1.333 9.153v-1.060c0-1.448 1.196-2.636 2.668-2.636h23.997c1.472 0.001 2.668 1.188 2.668 2.636v1.060h-1.833v-1.060c0-0.435-0.383-0.803-0.835-0.803h-23.997c-0.452 0-0.835 0.367-0.835 0.803v1.060h-1.833zM28.833 12.792v11.115c0 0.435-0.383 0.803-0.835 0.803h-23.997c-0.452 0-0.835-0.367-0.835-0.803v-11.115h-1.833v11.115c0 1.448 1.196 2.636 2.668 2.636h23.997c1.472 0 2.668-1.188 2.668-2.636v-11.115h-1.833z"></path>
</svg>
