<!-- Generated by IcoMoon.io -->
<svg version="1.1" xmlns="http://www.w3.org/2000/svg" width="24" height="24" viewBox="0 0 24 24">
<title>creditcard</title>
<path fill="#444" d="M1.391 7.048v-0.767c0-1.049 0.865-1.907 1.929-1.907h17.358c1.065 0 1.929 0.858 1.929 1.907v0.767h-1.326v-0.767c0-0.314-0.276-0.581-0.603-0.581h-17.358c-0.328 0-0.603 0.265-0.603 0.581v0.767h-1.326zM21.283 9.679v8.039c0 0.314-0.276 0.581-0.603 0.581h-17.358c-0.328 0-0.603-0.265-0.603-0.581v-8.039h-1.326v8.039c0 1.048 0.865 1.907 1.929 1.907h17.358c1.065 0 1.929-0.858 1.929-1.907v-8.039h-1.326z"></path>
</svg>
