<!-- Generated by IcoMoon.io -->
<svg version="1.1" xmlns="http://www.w3.org/2000/svg" width="24" height="24" viewBox="0 0 24 24">
<title>currency_pound</title>
<path fill="#444" d="M10.203 13.913c0-0.322 0-0.589-0.022-0.859-0.015-0.191-0.176-0.338-0.368-0.338h-1.589v-1.467h1.203c0.103 0 0.202-0.043 0.272-0.118 0.069-0.078 0.104-0.18 0.095-0.282-0.028-0.327-0.028-0.659-0.026-1.042v-0.194c0-2.119 1.551-3.598 3.773-3.598 1.191 0 1.877 0.285 2.181 0.457l0.056 0.030-0.44 1.324-0.076-0.037c-0.164-0.081-0.775-0.346-1.792-0.346-1.383 0-2.243 0.832-2.243 2.17 0 0.591 0.012 0.938 0.071 1.324 0.028 0.18 0.183 0.315 0.366 0.315h0.335l0.733 0.036c0.322 0.038 0.575 0.155 0.781 0.451l0.685 0.979h-2.109c-0.102 0-0.199 0.043-0.268 0.118-0.071 0.071-0.107 0.17-0.1 0.274 0.028 0.434 0.022 0.806-0.085 1.522-0.069 0.47-0.252 0.913-0.545 1.313-0.082 0.113-0.095 0.26-0.032 0.384s0.191 0.203 0.33 0.203l2.395-0.005 0.483 0.025c0.322 0.038 0.575 0.155 0.781 0.451l0.671 0.958v0.028h-6.952v-1.423l0.135-0.129c1-0.964 1.301-1.255 1.301-2.52zM23 12c0 6.075-4.925 11-11 11s-11-4.925-11-11 4.925-11 11-11 11 4.925 11 11zM21.625 12c0-5.306-4.318-9.625-9.625-9.625s-9.625 4.319-9.625 9.625 4.318 9.625 9.625 9.625 9.625-4.319 9.625-9.625z"></path>
</svg>
