<!-- Generated by IcoMoon.io -->
<svg version="1.1" xmlns="http://www.w3.org/2000/svg" width="24" height="24" viewBox="0 0 24 24">
<title>currency_euro</title>
<path fill="#444" d="M12 1c-6.075 0-11 4.925-11 11s4.925 11 11 11 11-4.925 11-11-4.925-11-11-11zM12 21.625c-5.308 0-9.625-4.319-9.625-9.625s4.318-9.625 9.625-9.625 9.625 4.319 9.625 9.625-4.318 9.625-9.625 9.625zM6.010 12.524h0.293c0 0-0.082-0.347-0.082-0.524s0.023-0.352 0.048-0.521l-0.96-0.005 0.683-1.372h0.598c0.84-2.24 3.048-3.739 5.523-3.739 1.463 0 2.871 0.532 3.961 1.502l0.085 0.076-0.825 1.35-0.122-0.129c-0.784-0.817-1.942-1.302-3.099-1.302-1.62 0-3.105 0.873-3.847 2.243h6.143l-0.888 1.386h-5.698c-0.028 0.175-0.050 0.333-0.050 0.513 0 0.177 0.022 0.349 0.048 0.524h5.273l-0.781 1.305-4.018-0.003c0.742 1.372 2.197 2.315 3.817 2.315 1.229 0 2.376-0.51 3.226-1.434l0.239-0.263v2.009c-1.064 0.813-2.241 1.184-3.465 1.184-2.475 0-4.627-1.569-5.467-3.81h-1.375l0.738-1.303z"></path>
</svg>
