<!-- Generated by IcoMoon.io -->
<svg version="1.1" xmlns="http://www.w3.org/2000/svg" width="24" height="24" viewBox="0 0 24 24">
<title>currency_yen</title>
<path fill="#444" d="M12 1c-6.075 0-11 4.925-11 11s4.925 11 11 11 11-4.925 11-11-4.925-11-11-11zM12 21.625c-5.308 0-9.625-4.319-9.625-9.625s4.318-9.625 9.625-9.625 9.625 4.319 9.625 9.625-4.318 9.625-9.625 9.625zM11.212 17.805v-2.351c0-0.198-0.161-0.359-0.359-0.359h-2.508v-1.411h2.508c0.198 0 0.359-0.161 0.359-0.359v-0.342c0-0.198-0.161-0.359-0.359-0.359h-2.508v-1.414h1.387c0.135 0 0.257-0.076 0.318-0.195 0.062-0.118 0.051-0.263-0.028-0.373l-3.179-4.448h2.186l2.656 4.414c0.066 0.107 0.183 0.173 0.308 0.173 0.001 0 0.003 0 0.004 0 0.128-0.001 0.243-0.070 0.308-0.179 0.723-1.261 2.23-3.704 2.628-4.348l0.036-0.061h2.188l-3.18 4.45c-0.078 0.109-0.088 0.254-0.028 0.373 0.061 0.12 0.184 0.195 0.318 0.195h1.387v1.414h-2.508c-0.198 0-0.359 0.161-0.359 0.359v0.342c0 0.198 0.161 0.359 0.359 0.359h2.508v1.411h-2.508c-0.198 0-0.359 0.161-0.359 0.359v2.351h-1.576z"></path>
</svg>
