<!-- Generated by IcoMoon.io -->
<svg version="1.1" xmlns="http://www.w3.org/2000/svg" width="32" height="32" viewBox="0 0 32 32">
<title>currency_bitcoin</title>
<path d="M16 1.333c-8.101 0-14.667 6.568-14.667 14.667 0 8.1 6.565 14.667 14.667 14.667s14.667-6.567 14.667-14.667c0-8.099-6.565-14.667-14.667-14.667zM16 28.833c-7.077 0-12.833-5.757-12.833-12.833s5.756-12.833 12.833-12.833c7.077 0 12.833 5.757 12.833 12.833s-5.756 12.833-12.833 12.833z"></path>
<path d="M21.719 15.543c-0.228-0.1-0.468-0.173-0.724-0.267 0.055-0.043 0.081-0.071 0.115-0.088 1.684-0.893 1.641-3.269 0.791-4.367-0.656-0.848-1.595-1.167-2.591-1.368-0.383-0.077-0.772-0.121-1.167-0.183-0.001-0.975-0.003-1.927-0.004-2.896-0.609 0-1.189 0.001-1.787 0.001-0.001 0.965-0.004 1.891-0.005 2.832-0.481 0.007-0.931 0.013-1.393 0.019-0.001-0.96-0.001-1.899-0.003-2.853-0.607 0.001-1.188 0.003-1.787 0.004-0.003 0.989-0.005 1.944-0.008 2.917-0.616 0-1.195 0-1.773-0.001-0.584 0-1.169-0.001-1.797-0.001 0 0.648-0.001 1.268-0.001 1.899 0.491 0.007 0.968-0.001 1.443 0.025 0.529 0.029 0.869 0.393 0.869 0.879-0.004 2.564-0.007 5.129-0.008 7.693 0 0.515-0.231 0.752-0.743 0.753-0.393 0.001-0.787-0.001-1.207-0.003-0.119 0.709-0.236 1.407-0.357 2.133 0.623-0.001 1.213-0.005 1.804-0.004 0.588 0.001 1.177 0.009 1.772 0.015 0.001 0.999 0.001 1.963 0.003 2.945 0.611 0 1.188 0 1.787-0.001 0.001-0.976 0.003-1.94 0.004-2.912 0.477 0.005 0.927 0.009 1.396 0.015 0.001 0.973 0.001 1.924 0.003 2.899 0.611 0 1.193 0 1.788 0 0-0.503 0-0.985 0.001-1.467s0.003-0.964 0.004-1.449c0.579-0.072 1.135-0.125 1.685-0.215 0.911-0.147 1.776-0.428 2.487-1.047 0.867-0.755 1.132-1.767 1.181-2.865 0.065-1.479-0.519-2.489-1.777-3.043zM19.944 18.695c-0.044 0.688-0.5 1.232-1.221 1.484-1.193 0.417-2.428 0.391-3.664 0.363-0.017 0-0.035-0.011-0.069-0.023 0.001-1.284 0.001-2.555 0.003-3.855 1.335-0.012 2.664-0.131 3.921 0.419 0.717 0.313 1.075 0.904 1.031 1.612zM19.124 13.121c-0.007 0.647-0.391 1.157-1.064 1.417-0.989 0.381-2.021 0.329-3.068 0.317 0-1.18 0-2.341 0.001-3.52 1.068-0.013 2.12-0.103 3.123 0.312 0.676 0.279 1.016 0.784 1.008 1.473z"></path>
</svg>
