<!-- Generated by IcoMoon.io -->
<svg version="1.1" xmlns="http://www.w3.org/2000/svg" width="24" height="24" viewBox="0 0 24 24">
<title>currency_euro</title>
<path d="M12 1c-6.075 0-11 4.926-11 11s4.925 11 11 11 11-4.926 11-11-4.925-11-11-11zM12 21.625c-5.307 0-9.625-4.318-9.625-9.625s4.318-9.625 9.625-9.625 9.625 4.318 9.625 9.625-4.318 9.625-9.625 9.625zM6.011 12.523h0.293c0 0-0.083-0.346-0.083-0.523s0.024-0.352 0.048-0.521l-0.959-0.005 0.684-1.372h0.598c0.84-2.24 3.048-3.738 5.523-3.738 1.463 0 2.872 0.531 3.962 1.501l0.085 0.075-0.826 1.35-0.122-0.129c-0.784-0.816-1.941-1.302-3.1-1.302-1.62 0-3.104 0.872-3.847 2.242h6.144l-0.889 1.386h-5.697c-0.028 0.175-0.050 0.333-0.050 0.513 0 0.178 0.022 0.35 0.048 0.523h5.273l-0.781 1.306-4.018-0.003c0.743 1.372 2.197 2.314 3.817 2.314 1.229 0 2.376-0.51 3.226-1.434l0.239-0.264v2.010c-1.064 0.813-2.241 1.184-3.465 1.184-2.475 0-4.626-1.568-5.467-3.811h-1.375l0.739-1.302z"></path>
</svg>
