<!-- Generated by IcoMoon.io -->
<svg version="1.1" xmlns="http://www.w3.org/2000/svg" width="24" height="24" viewBox="0 0 24 24">
<title>currency_bitcoin</title>
<path d="M12 1c-6.076 0-11 4.926-11 11 0 6.075 4.924 11 11 11s11-4.925 11-11c0-6.074-4.924-11-11-11zM12 21.625c-5.308 0-9.625-4.318-9.625-9.625s4.317-9.625 9.625-9.625c5.308 0 9.625 4.318 9.625 9.625s-4.317 9.625-9.625 9.625z"></path>
<path d="M16.289 11.657c-0.171-0.075-0.351-0.13-0.543-0.2 0.041-0.032 0.061-0.053 0.086-0.066 1.263-0.67 1.231-2.452 0.593-3.275-0.492-0.636-1.196-0.875-1.943-1.026-0.287-0.058-0.579-0.091-0.875-0.137-0.001-0.731-0.002-1.445-0.003-2.172-0.457 0-0.892 0.001-1.34 0.001-0.001 0.724-0.003 1.418-0.004 2.124-0.361 0.005-0.698 0.010-1.045 0.014-0.001-0.72-0.001-1.424-0.002-2.14-0.455 0.001-0.891 0.002-1.34 0.003-0.002 0.742-0.004 1.458-0.006 2.188-0.462 0-0.896 0-1.33-0.001-0.438 0-0.877-0.001-1.348-0.001 0 0.486-0.001 0.951-0.001 1.424 0.368 0.005 0.726-0.001 1.082 0.019 0.397 0.022 0.652 0.295 0.652 0.659-0.003 1.923-0.005 3.847-0.006 5.77 0 0.386-0.173 0.564-0.557 0.565-0.295 0.001-0.59-0.001-0.905-0.002-0.089 0.532-0.177 1.055-0.268 1.6 0.467-0.001 0.91-0.004 1.353-0.003 0.441 0.001 0.883 0.007 1.329 0.011 0.001 0.749 0.001 1.472 0.002 2.209 0.458 0 0.891 0 1.34-0.001 0.001-0.732 0.002-1.455 0.003-2.184 0.358 0.004 0.695 0.007 1.047 0.011 0.001 0.73 0.001 1.443 0.002 2.174 0.458 0 0.895 0 1.341 0 0-0.377 0-0.739 0.001-1.1s0.002-0.723 0.003-1.087c0.434-0.054 0.851-0.094 1.264-0.161 0.683-0.11 1.332-0.321 1.865-0.785 0.65-0.566 0.849-1.325 0.886-2.149 0.049-1.109-0.389-1.867-1.333-2.282zM14.958 14.021c-0.033 0.516-0.375 0.924-0.916 1.113-0.895 0.313-1.821 0.293-2.748 0.272-0.013 0-0.026-0.008-0.052-0.017 0.001-0.963 0.001-1.916 0.002-2.891 1.001-0.009 1.998-0.098 2.941 0.314 0.538 0.235 0.806 0.678 0.773 1.209zM14.343 9.841c-0.005 0.485-0.293 0.868-0.798 1.063-0.742 0.286-1.516 0.247-2.301 0.238 0-0.885 0-1.756 0.001-2.64 0.801-0.010 1.59-0.077 2.342 0.234 0.507 0.209 0.762 0.588 0.756 1.105z"></path>
</svg>
