<!-- Generated by IcoMoon.io -->
<svg version="1.1" xmlns="http://www.w3.org/2000/svg" width="32" height="32" viewBox="0 0 32 32">
<title>currency_pound</title>
<path d="M13.604 18.549c0-0.429 0-0.784-0.029-1.145-0.021-0.253-0.235-0.451-0.492-0.451h-2.119v-1.956h1.604c0.139 0 0.269-0.057 0.363-0.157 0.092-0.104 0.139-0.24 0.128-0.376-0.036-0.436-0.036-0.877-0.035-1.389l0.001-0.257c0-2.824 2.068-4.799 5.029-4.799 1.588 0 2.503 0.38 2.908 0.609l0.073 0.039-0.587 1.765-0.101-0.051c-0.219-0.107-1.035-0.463-2.389-0.463-1.845 0-2.991 1.111-2.991 2.893 0 0.789 0.017 1.251 0.096 1.765 0.036 0.24 0.244 0.419 0.487 0.419h0.449l0.977 0.049c0.429 0.053 0.767 0.208 1.041 0.601l0.912 1.305h-2.812c-0.136 0-0.265 0.057-0.359 0.156-0.095 0.097-0.141 0.229-0.133 0.365 0.036 0.58 0.028 1.075-0.113 2.029-0.092 0.628-0.336 1.217-0.727 1.751-0.109 0.151-0.125 0.348-0.043 0.512 0.084 0.165 0.255 0.272 0.44 0.272l3.195-0.007 0.644 0.032c0.429 0.052 0.767 0.207 1.041 0.601l0.895 1.277v0.036h-9.268v-1.899l0.18-0.172c1.332-1.28 1.733-1.671 1.733-3.357zM30.667 16c0 8.1-6.565 14.667-14.667 14.667s-14.667-6.567-14.667-14.667c0-8.099 6.565-14.667 14.667-14.667s14.667 6.568 14.667 14.667zM28.833 16c0-7.076-5.756-12.833-12.833-12.833s-12.833 5.757-12.833 12.833 5.756 12.833 12.833 12.833 12.833-5.757 12.833-12.833z"></path>
</svg>
