<!-- Generated by IcoMoon.io -->
<svg version="1.1" xmlns="http://www.w3.org/2000/svg" width="24" height="24" viewBox="0 0 24 24">
<title>database</title>
<path d="M12 2.375c4.578 0 6.915 1.074 6.921 2.4 0 0.002 0 0.013 0 0.013-0.013 1.328-2.348 2.4-6.921 2.4-4.572 0-6.861-1.072-6.875-2.4 0 0 0-0.011 0-0.013 0.007-1.326 2.299-2.4 6.875-2.4zM12 1c-1.606 0-8.25 0.183-8.25 3.78 0 0.002 0.001 0.005 0.001 0.009v14.431c0 2.481 3.467 3.78 8.249 3.78s8.249-1.299 8.249-3.78v-14.431c0-0.004 0.001-0.007 0.001-0.009 0-3.597-6.644-3.78-8.25-3.78zM5.125 6.92c2.347 1.541 5.678 1.643 6.875 1.643s4.528-0.103 6.875-1.644v5.081c0 0.98-1.812 2.403-6.875 2.403s-6.875-1.423-6.875-2.403v-5.080zM12 21.625c-5.063 0-6.875-1.425-6.875-2.405v-5.208c1.765 1.164 3.622 1.766 6.875 1.766s5.11-0.603 6.875-1.767v5.208c0 0.981-1.812 2.406-6.875 2.406z"></path>
</svg>
