<!-- Generated by IcoMoon.io -->
<svg version="1.1" xmlns="http://www.w3.org/2000/svg" width="24" height="24" viewBox="0 0 24 24">
<title>database</title>
<path fill="#444" d="M12 2.375c4.577 0 6.915 1.074 6.922 2.401 0 0.001 0 0.012 0 0.012-0.014 1.328-2.348 2.401-6.922 2.401-4.572 0-6.861-1.072-6.875-2.401 0 0 0-0.011 0-0.012 0.007-1.327 2.299-2.401 6.875-2.401zM12 1c-1.606 0-8.25 0.183-8.25 3.78 0 0.003 0.001 0.005 0.001 0.010v14.431c0 2.482 3.466 3.78 8.249 3.78s8.249-1.298 8.249-3.78v-14.431c0-0.004 0.001-0.007 0.001-0.010 0-3.597-6.644-3.78-8.25-3.78zM5.125 6.921c2.348 1.54 5.679 1.643 6.875 1.643s4.528-0.103 6.875-1.643v5.079c0 0.98-1.812 2.404-6.875 2.404s-6.875-1.423-6.875-2.404v-5.079zM12 21.625c-5.063 0-6.875-1.424-6.875-2.405v-5.209c1.766 1.165 3.622 1.767 6.875 1.767s5.111-0.602 6.875-1.767v5.209c0 0.98-1.812 2.405-6.875 2.405z"></path>
</svg>
