<!-- Generated by IcoMoon.io -->
<svg version="1.1" xmlns="http://www.w3.org/2000/svg" width="32" height="32" viewBox="0 0 32 32">
<title>database</title>
<path d="M16 3.167c6.104 0 9.22 1.432 9.228 3.2 0 0.003 0 0.017 0 0.017-0.017 1.771-3.131 3.2-9.228 3.2-6.096 0-9.148-1.429-9.167-3.2 0 0 0-0.015 0-0.017 0.009-1.768 3.065-3.2 9.167-3.2zM16 1.333c-2.141 0-11 0.244-11 5.040 0 0.003 0.001 0.007 0.001 0.012v19.241c0 3.308 4.623 5.040 10.999 5.040s10.999-1.732 10.999-5.040v-19.241c0-0.005 0.001-0.009 0.001-0.012 0-4.796-8.859-5.040-11-5.040zM6.833 9.227c3.129 2.055 7.571 2.191 9.167 2.191s6.037-0.137 9.167-2.192v6.775c0 1.307-2.416 3.204-9.167 3.204s-9.167-1.897-9.167-3.204v-6.773zM16 28.833c-6.751 0-9.167-1.9-9.167-3.207v-6.944c2.353 1.552 4.829 2.355 9.167 2.355s6.813-0.804 9.167-2.356v6.944c0 1.308-2.416 3.208-9.167 3.208z"></path>
</svg>
