<!-- Generated by IcoMoon.io -->
<svg version="1.1" xmlns="http://www.w3.org/2000/svg" width="24" height="24" viewBox="0 0 24 24">
<title>delete</title>
<path fill="#444" d="M10.625 9.25v6.245c0 0.404-0.147 0.685-0.477 0.917l-0.898 0.626v-6.244c0-0.404 0.147-0.686 0.477-0.919l0.898-0.626zM13.852 9.876c-0.33 0.232-0.477 0.514-0.477 0.919v6.244l0.898-0.626c0.33-0.232 0.477-0.513 0.477-0.917v-6.245l-0.898 0.626zM21.625 5.125h-1.375l0.022 15.125c0 1.517-1.416 2.75-2.962 2.75h-10.578c-1.546 0-2.962-1.233-2.962-2.75l-0.021-15.125h-1.375l0.619-0.883c0.231-0.33 0.422-0.478 0.825-0.478l2.681-0.014c0.478-0.787 1.108-1.688 1.108-1.688 0.488-0.693 1.193-1.061 2.042-1.061h4.7c0.847 0 1.552 0.368 2.042 1.061 0 0 0.696 1.001 1.108 1.688h2.672c0.403 0 0.594 0.147 0.825 0.478l0.628 0.896zM8.106 3.75h7.788l-0.626-0.896c-0.232-0.331-0.514-0.478-0.919-0.478h-4.7c-0.404 0-0.686 0.147-0.917 0.478l-0.627 0.896zM18.875 5.125h-13.75l0.022 15.125c0 0.759 0.799 1.375 1.587 1.375h10.576c0.788 0 1.587-0.616 1.587-1.375l-0.022-15.125z"></path>
</svg>
