<!-- Generated by IcoMoon.io -->
<svg version="1.1" xmlns="http://www.w3.org/2000/svg" width="32" height="32" viewBox="0 0 32 32">
<title>delete</title>
<path d="M13.835 12v8.327c0 0.535-0.197 0.912-0.637 1.223l-1.197 0.835v-8.325c0-0.541 0.197-0.917 0.637-1.225l1.197-0.833zM18.801 12.833c-0.44 0.307-0.636 0.684-0.637 1.225v8.325l1.199-0.835c0.44-0.311 0.637-0.688 0.637-1.223v-8.327l-1.199 0.833zM28.833 6.667l-0.837-1.192c-0.307-0.443-0.564-0.64-1.101-0.64h-3.561c-0.551-0.915-1.477-2.088-1.477-2.088-0.652-0.927-1.592-1.413-2.721-1.413h-6.269c-1.129 0-2.069 0.487-2.721 1.413 0 0-0.839 1.037-1.477 2.088l-3.576 0.021c-0.537 0-0.793 0.197-1.1 0.636l-0.824 1.175h1.833l0.031 20.335c-0.001 2.017 1.885 3.665 3.947 3.665h14.103c2.060 0 3.949-1.648 3.949-3.665l-0.028-20.335h1.832zM11.641 3.801c0.311-0.437 0.685-0.636 1.224-0.636h6.269c0.539 0 0.913 0.197 1.224 0.636l0.833 1.033h-10.383l0.832-1.033zM23.080 28.835h-14.103c-1.051 0-2.116-0.824-2.116-1.833l-0.028-20.335h18.332l0.031 20.335c0 1.009-1.065 1.833-2.116 1.833z"></path>
</svg>
