<!-- Generated by IcoMoon.io -->
<svg version="1.1" xmlns="http://www.w3.org/2000/svg" width="24" height="24" viewBox="0 0 24 24">
<title>delta</title>
<path fill="#444" d="M22.616 18.344v0 0l-9.594-13.578c-0.068-0.093-0.143-0.147-0.22-0.207-0.145-0.111-0.304-0.19-0.498-0.216l-0.305-0.015-0.305 0.015c-0.176 0.024-0.325 0.089-0.46 0.182h0.001c-0.090 0.070-0.18 0.135-0.259 0.247l-9.592 13.573 0.618 0.884c0.223 0.318 0.482 0.441 0.871 0.443h18.252c0.389-0.003 0.648-0.125 0.871-0.443l0.621-0.884zM2.471 18.344c0.385-0.003 0.633-0.142 0.856-0.459l8.673-12.267 8.675 12.267c0.223 0.316 0.472 0.457 0.856 0.459h-19.060z"></path>
</svg>
