<!-- Generated by IcoMoon.io -->
<svg version="1.1" xmlns="http://www.w3.org/2000/svg" width="24" height="24" viewBox="0 0 24 24">
<title>derivatives</title>
<path d="M10.432 11.313c0-0.248-0.035-0.448-0.108-0.617-0.069-0.168-0.174-0.307-0.307-0.428-0.137-0.115-0.297-0.22-0.489-0.308-0.186-0.085-0.405-0.181-0.646-0.272-0.183-0.065-0.341-0.127-0.471-0.187-0.131-0.055-0.24-0.118-0.331-0.187-0.088-0.073-0.153-0.146-0.196-0.231-0.042-0.087-0.064-0.187-0.064-0.297 0-0.216 0.095-0.372 0.286-0.476 0.188-0.104 0.414-0.153 0.669-0.153 0.173 0 0.271 0.004 0.441 0.025 0.428 0.048 0.786-0.169 0.942-0.564-0.052-0.018-0.125-0.042-0.222-0.072-0.094-0.025-0.204-0.049-0.327-0.071-0.125-0.023-0.261-0.044-0.404-0.061-0.018-0.001-0.032 0-0.046-0.002l0.174-0.246h-0.61c-0.224 0-0.379 0.077-0.508 0.263l-0.018 0.023c-0.311 0.062-0.578 0.17-0.788 0.34-0.334 0.262-0.502 0.623-0.502 1.074 0 0.226 0.041 0.418 0.119 0.58 0.077 0.154 0.183 0.287 0.312 0.398 0.134 0.115 0.288 0.21 0.468 0.292 0.181 0.084 0.368 0.158 0.564 0.239 0.406 0.166 0.697 0.315 0.875 0.444 0.175 0.131 0.264 0.307 0.264 0.526 0 0.216-0.089 0.377-0.271 0.473-0.18 0.1-0.459 0.147-0.831 0.147-0.253 0-0.396-0.002-0.645-0.048-0.417-0.077-0.794 0.146-0.934 0.541 0.090 0.039 0.267 0.093 0.52 0.17 0.221 0.065 0.527 0.094 0.893 0.106l-0.111 0.157 0.61 0.001c0.206-0.001 0.353-0.075 0.475-0.235 0.064-0.013 0.119-0.036 0.179-0.054l1.009-1.012c0.017-0.087 0.029-0.178 0.029-0.278z"></path>
<path d="M21.764 2.992l-0.461 0.511-19.425 19.425-0.195-1.103c-0.059-0.332 0.031-0.577 0.219-0.817l0.462-0.511 19.424-19.425 0.195 1.103c0.058 0.332-0.032 0.577-0.219 0.817z"></path>
<path d="M21.496 5.053h-0.054l-1.375 1.375h1.429v13.75h-1.065c0.016 0.128-0.263-1.786-0.345-2.366 0.899-0.816 1.411-1.934 1.411-3.115 0-2.379-2.016-4.312-4.49-4.312-0.354 0-0.694 0.049-1.022 0.127l-3.376 3.376c-0.056 0.262-0.093 0.531-0.093 0.809 0 1.182 0.512 2.299 1.415 3.116-0.058 0.382-0.359 2.436-0.349 2.365h-7.265l-1.375 1.375h8.466c0 0.448 0.205 0.875 0.58 1.134 0.235 0.158 0.507 0.241 0.782 0.241 0.229 0 0.46-0.060 0.667-0.173l1.568-0.873 1.567 0.873c0.207 0.113 0.439 0.173 0.667 0.173 0.275 0 0.547-0.083 0.782-0.241 0.376-0.259 0.581-0.686 0.581-1.134h0.894c0.761 0 1.375-0.618 1.375-1.375v-13.75c0-0.758-0.614-1.375-1.375-1.375zM18.969 16.953c-0.232 0.177-0.341 0.471-0.29 0.752 0.027 0.189 0.376 2.565 0.561 3.848l-1.857-1.031c-0.118-0.064-0.248-0.101-0.377-0.101-0.13 0-0.26 0.036-0.378 0.101l-1.857 1.031c0.185-1.272 0.53-3.645 0.562-3.844 0.052-0.282-0.056-0.577-0.29-0.755-0.733-0.565-1.153-1.393-1.153-2.258 0-1.616 1.398-2.938 3.116-2.938s3.115 1.321 3.115 2.938c0 0.866-0.42 1.693-1.152 2.257z"></path>
<path d="M2.504 14.822h3.479l1.375-1.375h-4.854v-6.875h11.729l1.375-1.375h-13.104c-0.76 0-1.375 0.617-1.375 1.375v6.875c0 0.758 0.615 1.375 1.375 1.375z"></path>
<path d="M18.364 2.447h-13.11c-0.76 0-1.375 0.617-1.375 1.375h13.11l1.375-1.375z"></path>
</svg>
