<!-- Generated by IcoMoon.io -->
<svg version="1.1" xmlns="http://www.w3.org/2000/svg" width="32" height="32" viewBox="0 0 32 32">
<title>derivatives</title>
<path d="M13.909 15.084c0-0.331-0.047-0.597-0.144-0.823-0.092-0.224-0.232-0.409-0.409-0.571-0.183-0.153-0.396-0.293-0.652-0.411-0.248-0.113-0.54-0.241-0.861-0.363-0.244-0.087-0.455-0.169-0.628-0.249-0.175-0.073-0.32-0.157-0.441-0.249-0.117-0.097-0.204-0.195-0.261-0.308-0.056-0.116-0.085-0.249-0.085-0.396 0-0.288 0.127-0.496 0.381-0.635 0.251-0.139 0.552-0.204 0.892-0.204 0.231 0 0.361 0.005 0.588 0.033 0.571 0.064 1.048-0.225 1.256-0.752-0.069-0.024-0.167-0.056-0.296-0.096-0.125-0.033-0.272-0.065-0.436-0.095-0.167-0.031-0.348-0.059-0.539-0.081-0.024-0.001-0.043 0-0.061-0.003l0.232-0.328h-0.813c-0.299 0-0.505 0.103-0.677 0.351l-0.024 0.031c-0.415 0.083-0.771 0.227-1.051 0.453-0.445 0.349-0.669 0.831-0.669 1.432 0 0.301 0.055 0.557 0.159 0.773 0.103 0.205 0.244 0.383 0.416 0.531 0.179 0.153 0.384 0.28 0.624 0.389 0.241 0.112 0.491 0.211 0.752 0.319 0.541 0.221 0.929 0.42 1.167 0.592 0.233 0.175 0.352 0.409 0.352 0.701 0 0.288-0.119 0.503-0.361 0.631-0.24 0.133-0.612 0.196-1.108 0.196-0.337 0-0.528-0.003-0.86-0.064-0.556-0.103-1.059 0.195-1.245 0.721 0.12 0.052 0.356 0.124 0.693 0.227 0.295 0.087 0.703 0.125 1.191 0.141l-0.148 0.209 0.813 0.001c0.275-0.001 0.471-0.1 0.633-0.313 0.085-0.017 0.159-0.048 0.239-0.072l1.345-1.349c0.023-0.116 0.039-0.237 0.039-0.371z"></path>
<path d="M29.019 3.989l-0.615 0.681-25.9 25.9-0.26-1.471c-0.079-0.443 0.041-0.769 0.292-1.089l0.616-0.681 25.899-25.9 0.26 1.471c0.077 0.443-0.043 0.769-0.292 1.089z"></path>
<path d="M28.661 6.737h-0.072l-1.833 1.833h1.905v18.333h-1.42c0.021 0.171-0.351-2.381-0.46-3.155 1.199-1.088 1.881-2.579 1.881-4.153 0-3.172-2.688-5.749-5.987-5.749-0.472 0-0.925 0.065-1.363 0.169l-4.501 4.501c-0.075 0.349-0.124 0.708-0.124 1.079 0 1.576 0.683 3.065 1.887 4.155-0.077 0.509-0.479 3.248-0.465 3.153h-9.687l-1.833 1.833h11.288c0 0.597 0.273 1.167 0.773 1.512 0.313 0.211 0.676 0.321 1.043 0.321 0.305 0 0.613-0.080 0.889-0.231l2.091-1.164 2.089 1.164c0.276 0.151 0.585 0.231 0.889 0.231 0.367 0 0.729-0.111 1.043-0.321 0.501-0.345 0.775-0.915 0.775-1.512h1.192c1.015 0 1.833-0.824 1.833-1.833v-18.333c0-1.011-0.819-1.833-1.833-1.833zM25.292 22.604c-0.309 0.236-0.455 0.628-0.387 1.003 0.036 0.252 0.501 3.42 0.748 5.131l-2.476-1.375c-0.157-0.085-0.331-0.135-0.503-0.135-0.173 0-0.347 0.048-0.504 0.135l-2.476 1.375c0.247-1.696 0.707-4.86 0.749-5.125 0.069-0.376-0.075-0.769-0.387-1.007-0.977-0.753-1.537-1.857-1.537-3.011 0-2.155 1.864-3.917 4.155-3.917s4.153 1.761 4.153 3.917c0 1.155-0.56 2.257-1.536 3.009z"></path>
<path d="M3.339 19.763h4.639l1.833-1.833h-6.472v-9.167h15.639l1.833-1.833h-17.472c-1.013 0-1.833 0.823-1.833 1.833v9.167c0 1.011 0.82 1.833 1.833 1.833z"></path>
<path d="M24.485 3.263h-17.48c-1.013 0-1.833 0.823-1.833 1.833h17.48l1.833-1.833z"></path>
</svg>
