<!-- Generated by IcoMoon.io -->
<svg version="1.1" xmlns="http://www.w3.org/2000/svg" width="20" height="24" viewBox="0 0 20 24">
<title>dice</title>
<path d="M9.97 0.033l-8.555 5.986-0.152 0.152-1.208 0.849v9.927l9.916 7.031 9.959-7.042v-9.883zM9.502 2.101c0.125-0.108 0.289-0.173 0.468-0.173s0.343 0.066 0.469 0.174l-0.001-0.001 7.053 4.974-7.053 4.931c-0.127 0.102-0.29 0.164-0.468 0.164s-0.341-0.062-0.469-0.165l0.001 0.001-7.075-4.974zM1.415 16.25v-8.218l7.848 5.551v8.218zM10.678 21.801v-8.218l7.837-5.54v8.207z"></path>
<path d="M3.156 10.743c-0.588-0.272-1.088 0-1.088 0.577 0.065 0.699 0.486 1.286 1.077 1.584l0.011 0.005c0.599 0.272 1.088 0 1.088-0.577-0.063-0.699-0.484-1.288-1.077-1.584l-0.011-0.005z"></path>
<path d="M5.322 13.91c-0.599-0.272-1.088 0-1.088 0.577 0.060 0.7 0.483 1.289 1.077 1.584l0.011 0.005c0.599 0.272 1.088 0 1.088-0.577-0.060-0.7-0.483-1.289-1.077-1.584l-0.011-0.005z"></path>
<path d="M7.51 17.121c-0.588-0.272-1.088 0-1.088 0.577 0.065 0.699 0.486 1.286 1.077 1.584l0.011 0.005c0.599 0.272 1.088 0 1.088-0.577-0.063-0.699-0.484-1.288-1.077-1.584l-0.011-0.005z"></path>
<path d="M16.501 10.917c-0.604 0.296-1.026 0.882-1.088 1.571l-0.001 0.007c0 0.599 0.49 0.86 1.088 0.577 0.604-0.301 1.026-0.89 1.088-1.582l0.001-0.008c0-0.566-0.457-0.838-1.088-0.566z"></path>
<path d="M13.17 16.359c-0.607 0.293-1.031 0.88-1.088 1.571l-0 0.007c0 0.599 0.49 0.86 1.088 0.577 0.607-0.293 1.031-0.88 1.088-1.571l0-0.007c-0.011-0.577-0.49-0.86-1.088-0.577z"></path>
<path d="M11.429 6.563c0-0.588-0.664-1.088-1.491-1.088s-1.502 0.49-1.502 1.088 0.675 1.088 1.535 1.088 1.458-0.479 1.458-1.088z"></path>
</svg>
