<!-- Generated by IcoMoon.io -->
<svg version="1.1" xmlns="http://www.w3.org/2000/svg" width="32" height="32" viewBox="0 0 32 32">
<path d="M18.711 15.112c0 0.005 0 0.009 0 0.015-0.224 0.009-0.445 0.092-0.617 0.264-0.361 0.361-0.361 0.947 0 1.308 0.172 0.171 0.395 0.256 0.62 0.263 0 0.003 0 0.004 0 0.005 0.011 0 0.021 0 0.031 0.003 0.001 0 0.004 0 0.005 0 0.489 0.011 0.972 0.032 1.448 0.061l-3.189 3.188c-0.085-1.367-0.095-2.779-0.091-4.217 0.012-5.384 0.019-10.923-4.515-14.656l-0.28 1.448c-0.088 0.428-0.005 0.783 0.223 1.104 0.429 0.499 0.771 1.036 1.075 1.591l-7.941 7.941c-0.573-0.317-1.131-0.676-1.645-1.127-0.3-0.189-0.625-0.265-1.024-0.187l-1.473 0.289c3.516 4.295 8.643 4.539 13.731 4.543 0.004 5.089 0.249 10.212 4.544 13.729l0.288-1.472c0.077-0.401 0.001-0.727-0.188-1.027-0.459-0.523-0.82-1.087-1.141-1.672l7.932-7.931c0.564 0.307 1.108 0.655 1.615 1.091 0.32 0.229 0.675 0.312 1.104 0.225l1.448-0.283c-3.109-3.776-7.473-4.4-11.957-4.497zM14.205 7.319c0.221 0.676 0.404 1.368 0.525 2.093l-5.34 5.337c-0.723-0.121-1.413-0.307-2.087-0.528l6.901-6.903zM11.757 15.001l3.221-3.22c0.067 1.077 0.088 2.185 0.089 3.311-1.125 0-2.233-0.021-3.311-0.091zM17.783 24.68c-0.221-0.675-0.403-1.368-0.524-2.091l5.307-5.307c0.727 0.119 1.428 0.289 2.107 0.509l-6.889 6.888z"></path>
</svg>
