<!-- Generated by IcoMoon.io -->
<svg version="1.1" xmlns="http://www.w3.org/2000/svg" width="24" height="24" viewBox="0 0 24 24">
<title>dna</title>
<path fill="#444" d="M14.014 11.343c0 0.004 0 0.007 0 0.011-0.166 0.007-0.331 0.069-0.459 0.196-0.268 0.268-0.268 0.703 0 0.971 0.128 0.128 0.293 0.191 0.46 0.196 0 0.001 0 0.003 0 0.004 0.008 0 0.015 0 0.023 0.001 0.001 0 0.003 0 0.004 0 0.363 0.008 0.721 0.025 1.076 0.045l-2.367 2.367c-0.065-1.017-0.071-2.065-0.069-3.132 0.010-3.996 0.014-8.108-3.351-10.881l-0.21 1.074c-0.065 0.319-0.003 0.581 0.166 0.82 0.319 0.371 0.573 0.771 0.798 1.181l-5.896 5.895c-0.426-0.236-0.839-0.501-1.221-0.837-0.223-0.14-0.464-0.196-0.76-0.139l-1.094 0.216c2.61 3.187 6.416 3.37 10.194 3.373 0.003 3.778 0.185 7.582 3.373 10.192l0.214-1.092c0.058-0.298 0.001-0.54-0.139-0.762-0.341-0.387-0.609-0.808-0.848-1.241l5.888-5.888c0.419 0.228 0.823 0.486 1.199 0.811 0.238 0.17 0.501 0.232 0.82 0.168l1.076-0.21c-2.311-2.805-5.552-3.268-8.879-3.341zM10.669 5.56c0.164 0.501 0.301 1.015 0.39 1.552l-3.963 3.963c-0.537-0.089-1.050-0.228-1.55-0.393l5.123-5.123zM8.851 11.262l2.392-2.39c0.049 0.8 0.065 1.622 0.066 2.458-0.835 0-1.657-0.017-2.458-0.067zM13.324 18.446c-0.164-0.5-0.299-1.015-0.389-1.552l3.94-3.94c0.54 0.088 1.061 0.214 1.565 0.378l-5.116 5.115z"></path>
</svg>
