<!-- Generated by IcoMoon.io -->
<svg version="1.1" xmlns="http://www.w3.org/2000/svg" width="32" height="32" viewBox="0 0 32 32">
<path d="M30.443 17.212c-0.175-0.212-0.435-0.335-0.709-0.335l-12.829 0.001c-0.275 0-0.535 0.123-0.709 0.335-0.173 0.212-0.244 0.492-0.191 0.76l1.999 10.031c0.332 1.579 1.789 2.667 3.417 2.657l3.797-0.001c1.628 0.009 3.085-1.080 3.417-2.657l1.999-10.031c0.053-0.268-0.016-0.548-0.191-0.76zM26.839 27.635c-0.149 0.707-0.755 1.232-1.603 1.193l-3.835 0.001c-0.848 0.039-1.453-0.485-1.603-1.193l-1.779-8.924 10.597-0.001-1.779 8.924z"></path>
<path d="M8.937 1.287v20.149c0 0.58-0.279 0.608-0.72 0.939l-1.113 0.343v-19.216c0-0.577 0.195-0.983 0.639-1.316l1.195-0.899z"></path>
<path d="M14.155 28.83v1.833h-12.832v-1.833h12.832z"></path>
<path d="M3.157 30.66h-1.833v-7.259h1.833v7.259z"></path>
<path d="M12.323 21.020h-9.168c-1.012 0-1.832 0.819-1.832 1.832v1.833c0 1.013 0.82 1.832 1.832 1.832h9.168c1.012 0 1.832-0.819 1.832-1.832v-1.833c0-1.013-0.82-1.832-1.832-1.832zM12.323 24.685h-9.168v-1.833h9.168v1.833z"></path>
<path d="M14.155 30.66h-1.833v-6.892h1.833v6.892z"></path>
<path d="M10.489 30.661h-1.833v-5.1h1.833v5.1z"></path>
<path d="M6.823 30.661h-1.833v-5.1h1.833v5.1z"></path>
<path d="M26.359 15.125c0.024-0.147 0.045-0.295 0.045-0.448 0-1.517-1.233-2.749-2.749-2.749s-2.749 1.233-2.749 2.749c0 0.017 0.004 0.035 0.005 0.052-0.169-0.032-0.343-0.052-0.521-0.052-1.516 0-2.749 1.233-2.749 2.749 0 0.079 0.016 0.152 0.023 0.228l1.095 0.452c0.424-1.084 1.475-1.845 2.695-1.845 0.144 0 0.283 0.017 0.421 0.037-0.068-0.191-0.113-0.395-0.113-0.608 0-1.019 0.828-1.829 1.829-1.829 1.013 0 1.829 0.811 1.829 1.829 0 0.333-0.096 0.643-0.252 0.912 1.056 0.179 1.908 0.927 2.245 1.923l1.385-0.452c0.007-0.076 0.023-0.149 0.023-0.228-0.001-1.417-1.083-2.573-2.461-2.72z"></path>
<path d="M18.749 8.728c-1.516 0-2.749 1.233-2.749 2.751s1.233 2.749 2.749 2.749c1.516 0 2.749-1.233 2.749-2.749s-1.233-2.751-2.749-2.751zM18.749 12.395c-0.501 0-0.917-0.412-0.917-0.917 0-0.511 0.415-0.916 0.917-0.916 0.508 0 0.917 0.407 0.917 0.916 0 0.505-0.409 0.917-0.917 0.917z"></path>
<path d="M26.519 5.348c-1.516 0-2.749 1.233-2.749 2.749s1.233 2.749 2.749 2.749c1.516 0 2.749-1.233 2.749-2.749s-1.233-2.749-2.749-2.749zM26.519 9.015c-0.501 0-0.917-0.412-0.917-0.917 0-0.511 0.415-0.917 0.917-0.917 0.508 0 0.917 0.407 0.917 0.917 0 0.505-0.409 0.917-0.917 0.917z"></path>
<path d="M21.121 1.308c-1.516 0-2.749 1.233-2.749 2.749s1.233 2.749 2.749 2.749c1.516 0 2.749-1.233 2.749-2.749s-1.233-2.749-2.749-2.749zM21.121 4.975c-0.501 0-0.917-0.412-0.917-0.917 0-0.511 0.415-0.917 0.917-0.917 0.508 0 0.917 0.407 0.917 0.917-0.001 0.507-0.409 0.917-0.917 0.917z"></path>
<path d="M25.153 18.525v1.623h-3.668v-1.623h-1.832v1.623c0 1.013 0.82 1.832 1.832 1.832h3.668c1.012 0 1.832-0.819 1.832-1.832v-1.623h-1.832z"></path>
</svg>
