<!-- Generated by IcoMoon.io -->
<svg version="1.1" xmlns="http://www.w3.org/2000/svg" width="24" height="24" viewBox="0 0 24 24">
<title>domestic_service</title>
<path d="M22.832 12.909c-0.131-0.159-0.326-0.251-0.532-0.251l-9.622 0.001c-0.206 0-0.401 0.092-0.532 0.251-0.13 0.159-0.183 0.369-0.143 0.57l1.499 7.523c0.249 1.184 1.342 2 2.563 1.993l2.848-0.001c1.221 0.007 2.314-0.81 2.563-1.993l1.499-7.523c0.040-0.201-0.012-0.411-0.143-0.57zM20.129 20.726c-0.112 0.53-0.566 0.924-1.202 0.895l-2.876 0.001c-0.636 0.029-1.090-0.364-1.202-0.895l-1.334-6.693 7.948-0.001-1.334 6.693z"></path>
<path d="M6.703 0.965v15.112c0 0.435-0.209 0.456-0.54 0.704l-0.835 0.257v-14.412c0-0.433 0.146-0.737 0.479-0.987l0.896-0.674z"></path>
<path d="M10.617 21.622v1.375h-9.624v-1.375h9.624z"></path>
<path d="M2.368 22.995h-1.375v-5.444h1.375v5.444z"></path>
<path d="M9.242 15.765h-6.876c-0.759 0-1.374 0.614-1.374 1.374v1.375c0 0.76 0.615 1.374 1.374 1.374h6.876c0.759 0 1.374-0.614 1.374-1.374v-1.375c0-0.76-0.615-1.374-1.374-1.374zM9.242 18.514h-6.876v-1.375h6.876v1.375z"></path>
<path d="M10.616 22.995h-1.375v-5.169h1.375v5.169z"></path>
<path d="M7.867 22.995h-1.375v-3.825h1.375v3.825z"></path>
<path d="M5.117 22.995h-1.375v-3.825h1.375v3.825z"></path>
<path d="M19.769 11.344c0.018-0.11 0.034-0.221 0.034-0.336 0-1.138-0.925-2.062-2.062-2.062s-2.062 0.925-2.062 2.062c0 0.013 0.003 0.026 0.004 0.039-0.127-0.024-0.257-0.039-0.391-0.039-1.137 0-2.062 0.925-2.062 2.062 0 0.059 0.012 0.114 0.017 0.171l0.821 0.339c0.318-0.813 1.106-1.384 2.021-1.384 0.108 0 0.212 0.013 0.316 0.028-0.051-0.143-0.085-0.296-0.085-0.456 0-0.764 0.621-1.372 1.372-1.372 0.76 0 1.372 0.608 1.372 1.372 0 0.25-0.072 0.482-0.189 0.684 0.792 0.134 1.431 0.695 1.684 1.442l1.039-0.339c0.005-0.057 0.017-0.112 0.017-0.171-0.001-1.063-0.812-1.93-1.846-2.040z"></path>
<path d="M14.062 6.546c-1.137 0-2.062 0.925-2.062 2.063s0.925 2.062 2.062 2.062c1.137 0 2.062-0.925 2.062-2.062s-0.925-2.063-2.062-2.063zM14.062 9.296c-0.376 0-0.688-0.309-0.688-0.688 0-0.383 0.311-0.687 0.688-0.687 0.381 0 0.688 0.305 0.688 0.687 0 0.379-0.307 0.688-0.688 0.688z"></path>
<path d="M19.889 4.011c-1.137 0-2.062 0.925-2.062 2.062s0.925 2.062 2.062 2.062c1.137 0 2.062-0.925 2.062-2.062s-0.925-2.062-2.062-2.062zM19.889 6.761c-0.376 0-0.688-0.309-0.688-0.688 0-0.383 0.311-0.688 0.688-0.688 0.381 0 0.688 0.305 0.688 0.688 0 0.379-0.307 0.688-0.688 0.688z"></path>
<path d="M15.841 0.981c-1.137 0-2.062 0.925-2.062 2.062s0.925 2.062 2.062 2.062c1.137 0 2.062-0.925 2.062-2.062s-0.925-2.062-2.062-2.062zM15.841 3.731c-0.376 0-0.688-0.309-0.688-0.688 0-0.383 0.311-0.688 0.688-0.688 0.381 0 0.688 0.305 0.688 0.688-0.001 0.38-0.307 0.688-0.688 0.688z"></path>
<path d="M18.865 13.894v1.217h-2.751v-1.217h-1.374v1.217c0 0.76 0.615 1.374 1.374 1.374h2.751c0.759 0 1.374-0.614 1.374-1.374v-1.217h-1.374z"></path>
</svg>
