<!-- Generated by IcoMoon.io -->
<svg version="1.1" xmlns="http://www.w3.org/2000/svg" width="24" height="24" viewBox="0 0 24 24">
<title>double_check</title>
<path d="M19.058 7.006l-11.841 11.917c-0.128 0.129-0.302 0.202-0.483 0.202-0.164 0.048-0.36-0.074-0.489-0.207l-5.311-5.444c0 0-0.001-0.002-0.001-0.003l1.067-0.19c0.372-0.065 0.659 0.029 0.929 0.278l3.811 3.9 10.28-10.332c0.284-0.285 0.586-0.38 0.98-0.309l1.058 0.188z"></path>
<path d="M21.909 7.119c-0.395-0.071-0.696 0.023-0.981 0.309l-10.28 10.331-0.688-0.705-0.97 0.97 1.165 1.194c0.129 0.133 0.325 0.255 0.489 0.207 0.181 0 0.355-0.073 0.483-0.202l11.841-11.917-1.059-0.187z"></path>
</svg>
