<!-- Generated by IcoMoon.io -->
<svg version="1.1" xmlns="http://www.w3.org/2000/svg" width="32" height="32" viewBox="0 0 32 32">
<title>double_check</title>
<path d="M25.411 9.341l-15.788 15.889c-0.171 0.172-0.403 0.269-0.644 0.269-0.219 0.064-0.48-0.099-0.652-0.276l-7.081-7.259c0 0-0.001-0.003-0.001-0.004l1.423-0.253c0.496-0.087 0.879 0.039 1.239 0.371l5.081 5.2 13.707-13.776c0.379-0.38 0.781-0.507 1.307-0.412l1.411 0.251z"></path>
<path d="M29.212 9.492c-0.527-0.095-0.928 0.031-1.308 0.412l-13.707 13.775-0.917-0.94-1.293 1.293 1.553 1.592c0.172 0.177 0.433 0.34 0.652 0.276 0.241 0 0.473-0.097 0.644-0.269l15.788-15.889-1.412-0.249z"></path>
</svg>
