<!-- Generated by IcoMoon.io -->
<svg version="1.1" xmlns="http://www.w3.org/2000/svg" width="24" height="24" viewBox="0 0 24 24">
<title>download</title>
<path d="M20.325 17.931c-0.216 0-0.429-0.105-0.562-0.294-0.221-0.308-0.146-0.737 0.165-0.955 1.805-1.27 2.241-3.777 0.97-5.583-0.747-1.068-1.97-1.7-3.269-1.7-0.001 0-0.001 0-0.002 0h-1.18c-0.313 0-0.589-0.213-0.666-0.517-0.452-1.772-1.566-3.256-3.135-4.183-1.561-0.925-3.393-1.185-5.154-0.732-3.636 0.937-5.836 4.662-4.902 8.308 0.266 1.037 0.783 2.018 1.495 2.823 0.253 0.288 0.225 0.722-0.062 0.976-0.283 0.247-0.717 0.221-0.97-0.062-0.858-0.977-1.478-2.148-1.796-3.396-1.12-4.379 1.522-8.859 5.891-9.981 2.116-0.541 4.316-0.232 6.197 0.882 1.73 1.025 2.999 2.612 3.617 4.506h0.664c0.001 0 0.002 0 0.002 0 1.749 0 3.392 0.856 4.395 2.285 1.705 2.427 1.119 5.792-1.303 7.497-0.119 0.085-0.258 0.126-0.395 0.126zM16.556 16.125h-1.119c-0.404 0-0.573 0.078-0.807 0.405l-1.943 2.774v-5.242c0-0.382-0.309-0.688-0.688-0.688-0.378 0-0.688 0.306-0.688 0.688v5.243l-1.943-2.775c-0.234-0.327-0.405-0.405-0.806-0.405h-1.117l2.862 4.145h0.004l0.629 0.902c0.071 0.094 0.149 0.153 0.23 0.215 0.15 0.114 0.313 0.196 0.516 0.221l0.315 0.018 0.318-0.018c0.183-0.022 0.335-0.089 0.476-0.183l-0.001-0.001c0.091-0.076 0.186-0.142 0.269-0.255l3.493-5.044z"></path>
</svg>
