<!-- Generated by IcoMoon.io -->
<svg version="1.1" xmlns="http://www.w3.org/2000/svg" width="24" height="24" viewBox="0 0 24 24">
<title>download</title>
<path fill="#444" d="M20.216 17.853c-0.213 0-0.423-0.103-0.556-0.289-0.216-0.305-0.143-0.729 0.164-0.945 1.781-1.254 2.211-3.727 0.958-5.51-0.738-1.052-1.945-1.679-3.227-1.679-0.001 0-0.001 0-0.003 0h-1.164c-0.311 0-0.581-0.209-0.657-0.51-0.446-1.745-1.546-3.21-3.093-4.126-1.543-0.912-3.349-1.17-5.087-0.723-3.59 0.923-5.76 4.602-4.838 8.199 0.262 1.026 0.772 1.991 1.477 2.79 0.248 0.28 0.221 0.708-0.060 0.958-0.28 0.248-0.71 0.22-0.958-0.060-0.847-0.959-1.46-2.121-1.774-3.354-1.106-4.321 1.501-8.739 5.815-9.849 2.089-0.536 4.259-0.228 6.115 0.871 1.707 1.010 2.96 2.575 3.568 4.445h0.654c0.001 0 0.003 0 0.003 0 1.725 0 3.347 0.844 4.339 2.258 1.681 2.395 1.105 5.714-1.287 7.399-0.118 0.084-0.254 0.124-0.389 0.124zM16.498 16.071h-1.105c-0.398 0-0.567 0.075-0.797 0.399l-1.918 2.739v-5.173c0-0.375-0.304-0.679-0.679-0.679s-0.679 0.304-0.679 0.679v5.175l-1.919-2.741c-0.229-0.323-0.399-0.398-0.795-0.398h-1.103l2.828 4.090 0.623 0.89c0.069 0.095 0.147 0.152 0.225 0.212 0.148 0.115 0.311 0.195 0.509 0.22l0.312 0.016 0.312-0.016c0.181-0.023 0.332-0.088 0.471-0.185l-0.001-0.001c0.091-0.072 0.185-0.137 0.265-0.251l3.45-4.975z"></path>
</svg>
