<!-- Generated by IcoMoon.io -->
<svg version="1.1" xmlns="http://www.w3.org/2000/svg" width="32" height="32" viewBox="0 0 32 32">
<title>download</title>
<path d="M27.1 23.908c-0.288 0-0.572-0.14-0.749-0.392-0.295-0.411-0.195-0.983 0.22-1.273 2.407-1.693 2.988-5.036 1.293-7.444-0.996-1.424-2.627-2.267-4.359-2.267-0.001 0-0.001 0-0.003 0h-1.573c-0.417 0-0.785-0.284-0.888-0.689-0.603-2.363-2.088-4.341-4.18-5.577-2.081-1.233-4.524-1.58-6.872-0.976-4.848 1.249-7.781 6.216-6.536 11.077 0.355 1.383 1.044 2.691 1.993 3.764 0.337 0.384 0.3 0.963-0.083 1.301-0.377 0.329-0.956 0.295-1.293-0.083-1.144-1.303-1.971-2.864-2.395-4.528-1.493-5.839 2.029-11.812 7.855-13.308 2.821-0.721 5.755-0.309 8.263 1.176 2.307 1.367 3.999 3.483 4.823 6.008h0.885c0.001 0 0.003 0 0.003 0 2.332 0 4.523 1.141 5.86 3.047 2.273 3.236 1.492 7.723-1.737 9.996-0.159 0.113-0.344 0.168-0.527 0.168zM22.075 21.5h-1.492c-0.539 0-0.764 0.104-1.076 0.54l-2.591 3.699v-6.989c0-0.509-0.412-0.917-0.917-0.917-0.504 0-0.917 0.408-0.917 0.917v6.991l-2.591-3.7c-0.312-0.436-0.54-0.54-1.075-0.54h-1.489l3.816 5.527h0.005l0.839 1.203c0.095 0.125 0.199 0.204 0.307 0.287 0.2 0.152 0.417 0.261 0.688 0.295l0.42 0.024 0.424-0.024c0.244-0.029 0.447-0.119 0.635-0.244l-0.001-0.001c0.121-0.101 0.248-0.189 0.359-0.34l4.657-6.725z"></path>
</svg>
