<!-- Generated by IcoMoon.io -->
<svg version="1.1" xmlns="http://www.w3.org/2000/svg" width="24" height="24" viewBox="0 0 24 24">
<title>earth</title>
<path d="M12 1c-6.066 0-11 4.938-11 11.001s4.934 10.999 11 10.999 11-4.936 11-10.999-4.933-11.001-11-11.001zM21.591 11.306h-4.411c-0.196-3.166-1.309-6.187-3.212-8.701 4.146 0.86 7.311 4.383 7.623 8.701zM8.196 11.306c0.228-3.308 1.556-6.455 3.804-8.91 2.248 2.455 3.577 5.603 3.803 8.91h-7.607zM15.804 12.695c-0.227 3.308-1.555 6.455-3.803 8.909-2.249-2.454-3.577-5.602-3.804-8.909h7.607zM10.034 2.604c-1.894 2.5-3.005 5.511-3.211 8.702h-4.413c0.311-4.318 3.477-7.841 7.624-8.702zM2.41 12.695h4.41c0.197 3.167 1.31 6.188 3.213 8.7-4.146-0.86-7.312-4.382-7.623-8.7zM13.968 21.396c1.896-2.499 3.004-5.511 3.21-8.7h4.413c-0.312 4.317-3.476 7.839-7.623 8.7z"></path>
</svg>
