<!-- Generated by IcoMoon.io -->
<svg version="1.1" xmlns="http://www.w3.org/2000/svg" width="32" height="32" viewBox="0 0 32 32">
<title>earth</title>
<path d="M16 1.333c-8.088 0-14.667 6.584-14.667 14.668s6.579 14.665 14.667 14.665 14.667-6.581 14.667-14.665-6.577-14.668-14.667-14.668zM28.788 15.075h-5.881c-0.261-4.221-1.745-8.249-4.283-11.601 5.528 1.147 9.748 5.844 10.164 11.601zM10.928 15.075c0.304-4.411 2.075-8.607 5.072-11.88 2.997 3.273 4.769 7.471 5.071 11.88h-10.143zM21.072 16.927c-0.303 4.411-2.073 8.607-5.071 11.879-2.999-3.272-4.769-7.469-5.072-11.879h10.143zM13.379 3.472c-2.525 3.333-4.007 7.348-4.281 11.603h-5.884c0.415-5.757 4.636-10.455 10.165-11.603zM3.213 16.927h5.88c0.263 4.223 1.747 8.251 4.284 11.6-5.528-1.147-9.749-5.843-10.164-11.6zM18.624 28.528c2.528-3.332 4.005-7.348 4.28-11.6h5.884c-0.416 5.756-4.635 10.452-10.164 11.6z"></path>
</svg>
