<!-- Generated by IcoMoon.io -->
<svg version="1.1" xmlns="http://www.w3.org/2000/svg" width="24" height="24" viewBox="0 0 24 24">
<title>earth</title>
<path fill="#444" d="M12 1c-6.065 0-11 4.936-11 11.001s4.935 10.999 11 10.999 11-4.934 11-10.999-4.934-11.001-11-11.001zM21.591 11.303h-4.41c-0.198-3.161-1.309-6.186-3.212-8.701 4.146 0.861 7.31 4.385 7.622 8.701zM8.195 11.303c0.228-3.307 1.555-6.45 3.805-8.907 2.249 2.457 3.576 5.6 3.803 8.909h-7.608zM15.805 12.698c-0.227 3.307-1.554 6.45-3.803 8.907-2.249-2.456-3.576-5.599-3.805-8.907h7.608zM10.034 2.602c-1.895 2.501-3.004 5.515-3.211 8.701h-4.412c0.311-4.316 3.476-7.84 7.623-8.701zM2.411 12.698h4.408c0.199 3.163 1.31 6.188 3.213 8.7-4.146-0.861-7.311-4.384-7.622-8.7zM13.969 21.398c1.895-2.501 3.003-5.515 3.209-8.7h4.412c-0.312 4.316-3.475 7.839-7.622 8.7z"></path>
</svg>
