<!-- Generated by IcoMoon.io -->
<svg version="1.1" xmlns="http://www.w3.org/2000/svg" width="32" height="32" viewBox="0 0 32 32">
<title>edit</title>
<path d="M30.129 9.004l-7.132-7.133c-0.359-0.357-0.827-0.537-1.296-0.537-0.471 0-0.939 0.18-1.297 0.537l-16.975 16.979c-0.317 0.275-0.532 0.656-0.604 1.080l-1.465 8.591c-0.084 0.495 0.037 1.001 0.337 1.407l0.003 0.003c0.349 0.469 0.896 0.737 1.471 0.737 0.101 0 0.205-0.009 0.308-0.028l8.428-1.437c0.432-0.033 0.843-0.219 1.156-0.531l17.067-17.073c0.716-0.716 0.716-1.876 0-2.593zM11.765 27.373l-0.004-0.007-8.593 1.461 1.464-8.592 0.004 0.003 17.065-17.072 7.132 7.135-17.068 17.072z"></path>
</svg>
