<!-- Generated by IcoMoon.io -->
<svg version="1.1" xmlns="http://www.w3.org/2000/svg" width="24" height="24" viewBox="0 0 24 24">
<title>edit</title>
<path fill="#444" d="M22.604 6.753l-5.349-5.35c-0.269-0.268-0.62-0.403-0.972-0.403s-0.704 0.135-0.973 0.403l-12.731 12.734c-0.238 0.206-0.4 0.492-0.454 0.81l-1.099 6.445c-0.063 0.371 0.029 0.751 0.253 1.055l0.001 0.003c0.263 0.351 0.674 0.551 1.104 0.551 0.077 0 0.154-0.007 0.231-0.021l6.321-1.078c0.323-0.026 0.631-0.164 0.866-0.399l12.801-12.804c0.538-0.538 0.538-1.408 0-1.946zM8.831 20.53l-0.003-0.005-6.446 1.096 1.099-6.445 0.003 0.001 12.8-12.803 5.349 5.351-12.801 12.804z"></path>
</svg>
