<!-- Generated by IcoMoon.io -->
<svg version="1.1" xmlns="http://www.w3.org/2000/svg" width="24" height="24" viewBox="0 0 24 24">
<title>error</title>
<path fill="#444" d="M21.625 1h-19.25c-0.759 0-1.375 0.615-1.375 1.375v19.25c0 0.76 0.616 1.375 1.375 1.375h19.25c0.759 0 1.375-0.615 1.375-1.375v-19.25c0-0.76-0.616-1.375-1.375-1.375zM21.625 21.625h-19.25v-19.25h19.25v19.25zM20.187 19.201l-1.079 0.191c-0.396 0.070-0.7-0.026-0.985-0.311l-6.088-6.084-6.134 6.133c-0.285 0.285-0.589 0.38-0.985 0.311l-1.079-0.191 7.226-7.226-7.227-7.224 1.079-0.191c0.397-0.070 0.701 0.026 0.986 0.311l6.133 6.133 6.087-6.086c0.285-0.285 0.589-0.38 0.985-0.311l1.079 0.191-7.179 7.177 7.182 7.178z"></path>
</svg>
