<!-- Generated by IcoMoon.io -->
<svg version="1.1" xmlns="http://www.w3.org/2000/svg" width="32" height="32" viewBox="0 0 32 32">
<path d="M28.833 1.333h-25.667c-1.013 0-1.833 0.823-1.833 1.833v25.667c0 1.011 0.82 1.833 1.833 1.833h25.667c1.013 0 1.833-0.823 1.833-1.833v-25.667c0-1.011-0.82-1.833-1.833-1.833zM25.477 25.856c-0.528 0.091-0.937-0.032-1.315-0.411l-8.117-8.12-8.18 8.181c-0.377 0.377-0.785 0.509-1.315 0.411l-1.437-0.255 9.636-9.632-9.635-9.631 1.437-0.255c0.529-0.092 0.937 0.032 1.315 0.409l8.177 8.181 8.117-8.112c0.377-0.385 0.785-0.509 1.315-0.417l1.437 0.255-9.571 9.569 9.571 9.571-1.436 0.255z"></path>
</svg>
