<!-- Generated by IcoMoon.io -->
<svg version="1.1" xmlns="http://www.w3.org/2000/svg" width="32" height="32" viewBox="0 0 32 32">
<path d="M16 30.667c-5.315 0-10.228-2.908-12.825-7.585l-0.173-0.333c-1.003-1.916-1.563-3.94-1.668-6.028l1.299 0.7c0.416 0.223 0.673 0.516 0.812 0.919 0.331 1.848 1.1 3.617 2.268 5.199 2.409 3.276 6.255 5.232 10.288 5.232 3.609 0 7.073-1.551 9.504-4.257l0.636-0.705h-3.161c-0.496-0.003-0.84-0.177-1.115-0.569l-0.928-1.327h7.427c0.524 0 0.949 0.425 0.949 0.948v7.435l-1.335-0.897c-0.385-0.268-0.56-0.611-0.561-1.108v-3.025l-0.735 0.779c-2.807 2.983-6.6 4.625-10.681 4.625zM29.368 14.58c-0.416-0.223-0.673-0.516-0.812-0.919-0.331-1.848-1.1-3.617-2.268-5.199-2.409-3.277-6.255-5.233-10.288-5.233-3.609 0-7.073 1.551-9.504 4.257l-0.636 0.705h3.161c0.496 0.003 0.84 0.177 1.113 0.569l0.928 1.327h-7.427c-0.524 0-0.949-0.425-0.949-0.948v-7.435l1.335 0.897c0.385 0.268 0.56 0.611 0.561 1.108v3.025l0.737-0.779c2.805-2.981 6.599-4.624 10.68-4.624 5.315 0 10.228 2.908 12.825 7.585l0.173 0.333c1.004 1.916 1.564 3.939 1.668 6.027l-1.299-0.699z"></path>
<path d="M20.321 19.069c0 1.136-0.423 1.981-1.259 2.568-0.452 0.312-1.011 0.528-1.661 0.672-0.297 0.372-0.644 0.563-1.141 0.565l-1.46-0.001 0.269-0.388c-0.875-0.016-1.616-0.093-2.139-0.245-0.613-0.185-1.031-0.317-1.252-0.415 0.337-0.953 1.243-1.473 2.241-1.297 0.593 0.112 0.939 0.117 1.547 0.117 0.893 0 1.565-0.117 1.995-0.349 0.432-0.235 0.648-0.62 0.648-1.136 0-0.528-0.215-0.956-0.636-1.268-0.424-0.315-1.12-0.667-2.093-1.063-0.472-0.191-0.925-0.375-1.357-0.576-0.431-0.195-0.803-0.427-1.119-0.691-0.313-0.271-0.567-0.591-0.753-0.965-0.189-0.379-0.285-0.836-0.285-1.393 0-1.076 0.4-1.937 1.201-2.579 0.511-0.404 1.148-0.664 1.892-0.809l0.039-0.055c0.311-0.437 0.685-0.633 1.221-0.636l1.461 0.003-0.417 0.599c0.040 0.003 0.075 0.003 0.115 0.005 0.344 0.033 0.671 0.083 0.968 0.14 0.296 0.057 0.563 0.115 0.788 0.177 0.231 0.060 0.404 0.115 0.532 0.164-0.371 0.953-1.233 1.481-2.257 1.355-0.408-0.055-0.645-0.063-1.061-0.063-0.609 0-1.151 0.123-1.608 0.372-0.456 0.248-0.684 0.625-0.684 1.14 0 0.263 0.053 0.497 0.155 0.711 0.101 0.203 0.259 0.383 0.471 0.549 0.215 0.167 0.477 0.317 0.791 0.459 0.315 0.14 0.689 0.289 1.132 0.443 0.583 0.224 1.1 0.445 1.551 0.651 0.459 0.208 0.843 0.461 1.168 0.743 0.32 0.284 0.571 0.628 0.743 1.028s0.257 0.888 0.257 1.469z"></path>
</svg>
