<!-- Generated by IcoMoon.io -->
<svg version="1.1" xmlns="http://www.w3.org/2000/svg" width="24" height="24" viewBox="0 0 24 24">
<title>eye</title>
<path fill="#444" d="M22.586 11.414c-0.154-0.318-3.857-7.789-10.586-7.789s-10.432 7.472-10.586 7.789c-0.178 0.368-0.178 0.801 0 1.17 0.154 0.319 3.857 7.791 10.586 7.791s10.432-7.472 10.586-7.789c0.178-0.37 0.178-0.801 0-1.171zM12 19.035c-5.968 0-9.38-7.035-9.38-7.035s3.412-7.035 9.38-7.035 9.38 7.035 9.38 7.035-3.412 7.035-9.38 7.035zM12 7.98c-2.216 0-4.020 1.804-4.020 4.020s1.804 4.020 4.020 4.020 4.020-1.804 4.020-4.020-1.804-4.020-4.020-4.020zM12 14.68c-1.481 0-2.68-1.206-2.68-2.68s1.199-2.68 2.68-2.68c1.479 0 2.68 1.206 2.68 2.68s-1.201 2.68-2.68 2.68z"></path>
</svg>
