<!-- Generated by IcoMoon.io -->
<svg version="1.1" xmlns="http://www.w3.org/2000/svg" width="32" height="32" viewBox="0 0 32 32">
<title>eye</title>
<path d="M30.483 15.199c-0.211-0.433-5.275-10.657-14.483-10.657s-14.272 10.224-14.483 10.657c-0.245 0.508-0.245 1.093 0 1.601 0.211 0.435 5.275 10.659 14.483 10.659s14.272-10.224 14.483-10.657c0.245-0.508 0.245-1.095 0-1.603zM16 25.625c-8.165 0-12.833-9.625-12.833-9.625s4.668-9.625 12.833-9.625 12.833 9.625 12.833 9.625-4.668 9.625-12.833 9.625zM16 10.5c-3.033 0-5.5 2.467-5.5 5.5s2.467 5.5 5.5 5.5 5.5-2.467 5.5-5.5-2.467-5.5-5.5-5.5zM16 19.667c-2.024 0-3.667-1.653-3.667-3.667s1.643-3.667 3.667-3.667c2.024 0 3.667 1.653 3.667 3.667s-1.643 3.667-3.667 3.667z"></path>
</svg>
