<!-- Generated by IcoMoon.io -->
<svg version="1.1" xmlns="http://www.w3.org/2000/svg" width="24" height="24" viewBox="0 0 24 24">
<title>eye_off</title>
<path fill="#444" d="M21.924 21.002l-0.46-0.51-19.413-19.413-0.195 1.101c-0.059 0.331 0.030 0.577 0.218 0.818l0.462 0.51 2.666 2.666c-2.57 2.232-3.963 5.032-4.058 5.226-0.183 0.378-0.183 0.822 0 1.2 0.158 0.327 3.955 7.989 10.856 7.989 2.239 0 4.138-0.814 5.701-1.916l4.248 4.248 0.195-1.102c0.058-0.331-0.033-0.576-0.22-0.816zM9.636 10.609l3.754 3.754c-0.407 0.243-0.881 0.385-1.391 0.385-1.518 0-2.748-1.237-2.748-2.748 0-0.508 0.142-0.984 0.385-1.391zM12 19.214c-6.121 0-9.619-7.214-9.619-7.214s1.34-2.744 3.801-4.845l2.482 2.482c-0.48 0.672-0.786 1.476-0.786 2.364 0 2.273 1.85 4.123 4.123 4.123 0.888 0 1.692-0.306 2.364-0.786l2.353 2.353c-1.327 0.889-2.905 1.525-4.716 1.525zM22.856 11.399c-0.158-0.326-3.955-7.988-10.856-7.988-1.249 0-2.386 0.267-3.427 0.682-0.041 0.016-0.084 0.030-0.124 0.048-0.218 0.115-0.371 0.337-0.371 0.601 0 0.289 0.179 0.535 0.431 0.636 0.080 0.030 0.165 0.051 0.256 0.051 0.122 0 0.232-0.040 0.331-0.096 0.113-0.022 0.188-0.040 0.188-0.040 0.84-0.309 1.74-0.507 2.715-0.507 6.121 0 9.619 7.214 9.619 7.214s-0.8 1.631-2.285 3.341c0 0-0.421 0.546-0.033 0.977 0.519 0.579 1.010 0 1.010 0 1.6-1.819 2.472-3.566 2.546-3.717 0.181-0.379 0.181-0.822-0.001-1.201z"></path>
</svg>
