<!-- Generated by IcoMoon.io -->
<svg version="1.1" xmlns="http://www.w3.org/2000/svg" width="32" height="32" viewBox="0 0 32 32">
<title>eye_off</title>
<path d="M29.241 28.011l-0.615-0.681-25.901-25.9-0.259 1.471c-0.079 0.443 0.041 0.769 0.292 1.089l0.616 0.681 3.556 3.557c-3.429 2.975-5.288 6.712-5.415 6.972-0.245 0.505-0.245 1.096 0 1.601 0.212 0.435 5.276 10.657 14.484 10.657 2.987 0 5.52-1.084 7.608-2.555l5.667 5.667 0.26-1.471c0.076-0.443-0.044-0.769-0.293-1.089zM12.847 14.144l5.008 5.008c-0.541 0.327-1.175 0.515-1.855 0.515-2.027 0-3.667-1.651-3.667-3.667 0-0.679 0.188-1.312 0.513-1.856zM16 25.625c-8.165 0-12.833-9.625-12.833-9.625s1.787-3.661 5.071-6.465l3.311 3.309c-0.64 0.899-1.048 1.971-1.048 3.156 0 3.032 2.467 5.5 5.5 5.5 1.184 0 2.256-0.408 3.153-1.049l3.139 3.139c-1.771 1.187-3.875 2.036-6.292 2.036zM30.483 15.199c-0.211-0.435-5.275-10.657-14.483-10.657-1.667 0-3.183 0.356-4.572 0.909-0.055 0.021-0.112 0.041-0.165 0.065-0.291 0.153-0.495 0.449-0.495 0.8 0 0.384 0.239 0.712 0.576 0.848 0.105 0.041 0.22 0.069 0.341 0.069 0.164 0 0.309-0.055 0.443-0.129 0.151-0.028 0.252-0.055 0.252-0.055 1.119-0.412 2.32-0.675 3.621-0.675 8.165 0 12.833 9.625 12.833 9.625s-1.065 2.176-3.049 4.456c0 0-0.56 0.729-0.045 1.304 0.693 0.772 1.348 0 1.348 0 2.133-2.427 3.297-4.756 3.396-4.959 0.244-0.505 0.244-1.097-0.001-1.603z"></path>
</svg>
