<!-- Generated by IcoMoon.io -->
<svg version="1.1" xmlns="http://www.w3.org/2000/svg" width="24" height="24" viewBox="0 0 24 24">
<title>factory</title>
<path fill="#444" d="M2.375 23c-0.759 0-1.375-0.615-1.375-1.375v-11c0-0.459 0.23-0.888 0.612-1.144l4.125-2.75c0.231-0.153 0.496-0.231 0.763-0.231 0.223 0 0.446 0.054 0.649 0.162 0.447 0.239 0.726 0.705 0.726 1.213v0.182l1.987-1.325c0.231-0.153 0.496-0.231 0.763-0.231 0.223 0 0.445 0.054 0.649 0.162 0.447 0.239 0.726 0.705 0.726 1.213v0.181l1.987-1.325c0.231-0.153 0.496-0.231 0.763-0.231 0.223 0 0.446 0.054 0.649 0.162 0.447 0.239 0.726 0.705 0.726 1.213v1.375h1.375v-4.125c-0.434 0-0.844-0.205-1.103-0.554-0.259-0.348-0.34-0.799-0.215-1.216 0.326-1.086 1.226-2.355 2.692-2.355h2.75c0.759 0 1.375 0.615 1.375 1.375v19.25c0 0.76-0.616 1.375-1.375 1.375h-19.25zM21.625 3.75v-1.375c0 0-1.375 0-2.75 0-0.962 0-1.375 1.375-1.375 1.375h1.375v6.875h-4.125v-2.75l-4.125 2.75v-2.75l-4.125 2.75v-2.75l-4.125 2.75v11h19.25v-17.875z"></path>
</svg>
