<!-- Generated by IcoMoon.io -->
<svg version="1.1" xmlns="http://www.w3.org/2000/svg" width="33" height="24" viewBox="0 0 33 24">
<title>fidelity</title>
<path d="M28.656 1.497h-23.915c-1.468 0-2.657 1.19-2.657 2.657v0 15.731c0 1.468 1.19 2.657 2.657 2.657v0h23.915c1.468 0 2.657-1.19 2.657-2.657v0-15.758c-0.015-1.456-1.199-2.631-2.657-2.631-0 0-0 0-0 0v0zM29.48 19.885c-0.015 0.443-0.378 0.797-0.823 0.797-0 0-0 0-0 0h-23.915c-0 0-0 0-0 0-0.446 0-0.809-0.354-0.823-0.796l-0-0.001v-15.758c0.015-0.443 0.378-0.797 0.823-0.797 0 0 0 0 0 0h23.915c0 0 0 0 0 0 0.446 0 0.809 0.354 0.823 0.796l0 0.001z"></path>
<path d="M24.258 9.987c-0.107-0.35-0.402-0.61-0.765-0.664l-0.005-0.001-4.132-0.571-1.807-3.534c-0.162-0.31-0.482-0.518-0.85-0.518s-0.688 0.208-0.848 0.513l-0.003 0.005-1.807 3.534-4.132 0.598c-0.461 0.080-0.808 0.478-0.808 0.956 0 0.271 0.111 0.515 0.289 0.691l0 0 2.95 2.737-0.691 3.84c-0.009 0.049-0.014 0.105-0.014 0.162 0 0.313 0.151 0.591 0.383 0.766l0.002 0.002c0.143 0.093 0.319 0.148 0.507 0.148 0.018 0 0.036-0.001 0.054-0.002l-0.002 0c0.066 0.015 0.142 0.023 0.219 0.023s0.153-0.008 0.226-0.024l-0.007 0.001 3.68-1.913 3.68 1.913c0.128 0.064 0.278 0.102 0.437 0.106l0.001 0c0.21-0.001 0.404-0.071 0.561-0.188l-0.002 0.002c0.235-0.176 0.386-0.454 0.386-0.768 0-0.057-0.005-0.114-0.015-0.168l0.001 0.006-0.691-3.866 2.95-2.737c0.195-0.174 0.317-0.425 0.317-0.706 0-0.124-0.024-0.242-0.067-0.35l0.002 0.006zM18.944 13.030l0.545 3.043-2.79-1.408-2.857 1.408 0.545-3.043-2.312-2.139 3.189-0.452 1.435-2.764 1.435 2.764 3.189 0.452z"></path>
</svg>
