<!-- Generated by IcoMoon.io -->
<svg version="1.1" xmlns="http://www.w3.org/2000/svg" width="45" height="32" viewBox="0 0 45 32">
<title>fidelity</title>
<path d="M40.481 0h-36.433c-2.236 0-4.048 1.812-4.048 4.048v0 23.965c0 2.236 1.812 4.048 4.048 4.048v0h36.433c2.236 0 4.048-1.812 4.048-4.048v0-24.005c-0.023-2.218-1.826-4.008-4.048-4.008-0 0-0 0-0 0v0zM41.736 28.013c-0.022 0.675-0.575 1.214-1.254 1.214-0 0-0 0-0.001 0h-36.433c-0 0-0 0-0.001 0-0.679 0-1.232-0.539-1.254-1.212l-0-0.002v-24.005c0.022-0.675 0.575-1.214 1.254-1.214 0 0 0 0 0.001 0h36.433c0 0 0 0 0.001 0 0.679 0 1.232 0.539 1.254 1.212l0 0.002z"></path>
<path d="M33.781 12.934c-0.163-0.533-0.613-0.93-1.166-1.011l-0.008-0.001-6.295-0.87-2.753-5.384c-0.247-0.473-0.734-0.79-1.295-0.79s-1.048 0.317-1.292 0.782l-0.004 0.008-2.753 5.384-6.295 0.911c-0.703 0.122-1.23 0.728-1.23 1.457 0 0.412 0.169 0.785 0.441 1.053l0 0 4.493 4.17-1.053 5.849c-0.013 0.074-0.021 0.16-0.021 0.247 0 0.477 0.229 0.901 0.584 1.167l0.004 0.003c0.218 0.141 0.485 0.225 0.772 0.225 0.028 0 0.055-0.001 0.082-0.002l-0.004 0c0.1 0.022 0.216 0.035 0.334 0.035s0.234-0.013 0.345-0.037l-0.011 0.002 5.607-2.915 5.607 2.915c0.195 0.097 0.424 0.156 0.666 0.162l0.002 0c0.32-0.002 0.616-0.108 0.854-0.286l-0.004 0.003c0.358-0.269 0.588-0.692 0.588-1.17 0-0.087-0.008-0.173-0.022-0.256l0.001 0.009-1.052-5.89 4.493-4.169c0.297-0.264 0.483-0.648 0.483-1.075 0-0.189-0.036-0.369-0.102-0.534l0.003 0.010zM25.685 17.569l0.83 4.635-4.25-2.145-4.352 2.145 0.83-4.635-3.522-3.259 4.858-0.688 2.186-4.21 2.186 4.21 4.858 0.688z"></path>
</svg>
