<!-- Generated by IcoMoon.io -->
<svg version="1.1" xmlns="http://www.w3.org/2000/svg" width="24" height="24" viewBox="0 0 24 24">
<title>file_cabinet</title>
<path d="M19 1h-14c-0.76 0-1.375 0.617-1.375 1.125v19.25c0 1.008 0.615 1.625 1.375 1.625h14c0.76 0 1.375-0.617 1.375-1.625v-19.25c0-0.508-0.615-1.125-1.375-1.125zM19 21.625h-14v-11.25h14v11.25zM19 9h-14v-6.625h14v6.625zM8.562 5.125h5.33c0.404 0.002 0.673 0.129 0.902 0.457l0.644 0.918h-5.33c-0.405-0.001-0.673-0.128-0.903-0.456l-0.643-0.919zM8.562 12h5.33c0.404 0.002 0.673 0.129 0.902 0.457l0.643 0.918h-5.33c-0.404-0.001-0.673-0.128-0.902-0.456l-0.643-0.919z"></path>
</svg>
