<!-- Generated by IcoMoon.io -->
<svg version="1.1" xmlns="http://www.w3.org/2000/svg" width="24" height="24" viewBox="0 0 24 24">
<title>file_cabinet</title>
<path fill="#444" d="M18.875 1h-13.75c-0.759 0-1.375 0.615-1.375 1.375v19.25c0 0.76 0.616 1.375 1.375 1.375h13.75c0.759 0 1.375-0.615 1.375-1.375v-19.25c0-0.76-0.616-1.375-1.375-1.375zM18.875 21.625h-13.75v-11h13.75v11zM18.875 9.25h-13.75v-6.875h13.75v6.875zM8.563 5.125h5.331c0.403 0.003 0.671 0.129 0.902 0.459l0.642 0.916h-5.331c-0.403-0.001-0.671-0.128-0.902-0.458l-0.642-0.917zM8.563 12h5.331c0.403 0.003 0.671 0.129 0.902 0.459l0.642 0.916h-5.331c-0.403-0.001-0.671-0.128-0.902-0.458l-0.642-0.917z"></path>
</svg>
