<!-- Generated by IcoMoon.io -->
<svg version="1.1" xmlns="http://www.w3.org/2000/svg" width="24" height="24" viewBox="0 0 24 24">
<title>filter</title>
<path fill="#444" d="M22.754 3.339c-0.21-0.508-0.706-0.839-1.254-0.839h-19c-0.548 0-1.044 0.331-1.254 0.839-0.21 0.509-0.094 1.094 0.295 1.483l7.745 7.767v4.735c0 0.045 0.001 0.090 0.007 0.136 0.107 1.063 0.613 1.918 1.505 2.542l1.781 1.253c0.233 0.163 0.506 0.246 0.779 0.246 0.214 0 0.429-0.050 0.626-0.153 0.451-0.235 0.731-0.699 0.731-1.207v-7.551l7.745-7.767c0.388-0.389 0.505-0.974 0.295-1.483zM13.357 12.026v8.114l-1.781-1.251c-0.581-0.409-0.867-0.905-0.934-1.565v-5.298l-8.143-8.166h19l-8.143 8.166z"></path>
</svg>
