<!-- Generated by IcoMoon.io -->
<svg version="1.1" xmlns="http://www.w3.org/2000/svg" width="32" height="32" viewBox="0 0 32 32">
<path d="M27.999 7.341h-23.997c-1.472 0-2.668 1.188-2.668 2.636v12.047c0 1.448 1.196 2.636 2.668 2.636h23.997c1.472 0 2.668-1.188 2.668-2.636v-12.047c0-1.448-1.196-2.636-2.668-2.636zM28.833 11.037v10.985c0 0.435-0.383 0.803-0.835 0.803h-5.291v-1.84h-1.833v1.84h-16.873c-0.452 0-0.835-0.367-0.835-0.803v-12.045c0-0.435 0.383-0.803 0.835-0.803h16.911v1.855h1.833v-1.855h5.253c0.452 0 0.835 0.367 0.835 0.803v1.060z"></path>
<path d="M13.437 16.472c-0.267-0.227-0.587-0.435-0.964-0.611-0.369-0.173-0.797-0.352-1.273-0.533-0.368-0.123-0.677-0.253-0.933-0.367-0.257-0.115-0.473-0.245-0.652-0.375-0.175-0.137-0.303-0.284-0.388-0.457-0.083-0.175-0.128-0.364-0.128-0.583 0-0.427 0.189-0.733 0.561-0.939 0.377-0.205 0.824-0.3 1.328-0.3 0.343 0 0.537 0.007 0.872 0.047 0.841 0.103 1.549-0.328 1.856-1.117-0.105-0.036-0.249-0.080-0.436-0.136-0.183-0.048-0.405-0.093-0.648-0.147-0.245-0.043-0.515-0.080-0.795-0.113-0.033-0.001-0.065 0-0.095-0.004l0.344-0.496h-1.203c-0.44 0.001-0.755 0.165-1.008 0.528l-0.027 0.040c-0.613 0.117-1.141 0.332-1.56 0.673-0.657 0.516-0.989 1.231-0.989 2.113 0 0.459 0.083 0.833 0.235 1.148 0.156 0.303 0.361 0.575 0.621 0.795 0.257 0.219 0.564 0.407 0.92 0.572 0.357 0.156 0.725 0.321 1.117 0.472 0.797 0.325 1.373 0.616 1.72 0.873 0.348 0.255 0.524 0.608 0.524 1.047 0 0.427-0.177 0.743-0.531 0.932-0.356 0.188-0.908 0.291-1.643 0.291-0.5 0-0.785-0.005-1.275-0.103-0.82-0.147-1.567 0.287-1.843 1.075 0.18 0.073 0.524 0.185 1.028 0.332 0.433 0.132 1.043 0.196 1.763 0.209l-0.223 0.317 1.204 0.001c0.409-0.001 0.693-0.163 0.939-0.464 0.537-0.116 0.995-0.299 1.367-0.564 0.687-0.473 1.033-1.172 1.033-2.104 0-0.477-0.071-0.88-0.213-1.216-0.137-0.325-0.344-0.599-0.607-0.837z"></path>
<path d="M20.912 13.901h1.833v4.196h-1.833v-4.196z"></path>
</svg>
