<!-- Generated by IcoMoon.io -->
<svg version="1.1" xmlns="http://www.w3.org/2000/svg" width="32" height="32" viewBox="0 0 32 32">
<path d="M27.769 2.861c-0.244-0.12-0.511-0.177-0.777-0.177-0.424 0-0.851 0.143-1.189 0.408-0.011 0.005-1.145 0.863-4.304 0.863-1.723 0-3.239-0.579-4.844-1.191-1.76-0.671-3.753-1.431-6.152-1.431-4.624 0-6.448 1.513-6.767 1.815-0.364 0.348-0.569 0.828-0.569 1.328v26.185c0 0.003 0 0.004 0 0.004v-0.004l1.196-0.837c0.44-0.308 0.637-0.685 0.637-1.221v-6.472c0.387-0.163 1.224-0.651 1.661-0.8 0.945-0.32 1.319-0.607 3.841-0.619 1.723-0.003 3.24 0.577 4.845 1.192 1.759 0.668 3.752 1.424 6.149 1.424 4.624 0 6.448-1.511 6.767-1.815 0.363-0.345 0.569-0.827 0.569-1.327v-15.711c0-0.699-0.435-1.309-1.064-1.615zM27 20.188c0 0-1.377 1.311-5.503 1.311-4.12 0-6.875-2.595-10.995-2.619-3.697-0.017-5.503 1.307-5.503 1.307v-15.711c0 0 1.377-1.309 5.503-1.309 4.12 0 6.875 2.621 10.995 2.621 4.125 0 5.503-1.311 5.503-1.311v15.711z"></path>
</svg>
