<!-- Generated by IcoMoon.io -->
<svg version="1.1" xmlns="http://www.w3.org/2000/svg" width="24" height="24" viewBox="0 0 24 24">
<title>flag</title>
<path fill="#444" d="M20.826 2.145c-0.183-0.089-0.382-0.133-0.583-0.133-0.318 0-0.638 0.107-0.892 0.307-0.008 0.004-0.858 0.648-3.227 0.648-1.291 0-2.43-0.433-3.633-0.892-1.32-0.503-2.815-1.074-4.615-1.074-3.468 0-4.836 1.134-5.074 1.361-0.274 0.261-0.428 0.62-0.428 0.997v19.64c0 0 0 0.001 0 0.001v-0.003l0.896-0.628c0.331-0.231 0.478-0.513 0.478-0.916v-4.854c0.289-0.122 0.919-0.488 1.246-0.601 0.709-0.241 0.989-0.455 2.882-0.463 1.292-0.003 2.43 0.432 3.634 0.892 1.319 0.5 2.813 1.068 4.612 1.068 3.468 0 4.836-1.133 5.075-1.361 0.272-0.259 0.426-0.619 0.426-0.994v-11.782c0-0.525-0.326-0.983-0.799-1.213zM20.25 15.14c0 0-1.033 0.983-4.126 0.983-3.091 0-5.156-1.946-8.246-1.963-2.775-0.012-4.128 0.98-4.128 0.98v-11.782c0 0 1.033-0.983 4.126-0.983 3.091 0 5.156 1.966 8.246 1.966 3.095 0 4.128-0.983 4.128-0.983v11.782z"></path>
</svg>
