<!-- Generated by IcoMoon.io -->
<svg version="1.1" xmlns="http://www.w3.org/2000/svg" width="32" height="32" viewBox="0 0 32 32">
<path d="M8.667 5.187v1.467c0 0.103-0.083 0.185-0.184 0.185h-1.467c-0.101 0-0.184-0.083-0.184-0.185v-1.467c0-0.1 0.083-0.183 0.184-0.183h1.467c0.101 0 0.184 0.081 0.184 0.183zM8.483 8.671h-1.467c-0.101 0-0.184 0.081-0.184 0.183v1.467c0 0.103 0.083 0.183 0.184 0.183h1.467c0.101 0 0.184-0.080 0.184-0.183v-1.467c0-0.103-0.083-0.183-0.184-0.183zM8.483 12.335h-1.467c-0.101 0-0.184 0.083-0.184 0.185v1.467c0 0.1 0.083 0.183 0.184 0.183h1.467c0.101 0 0.184-0.083 0.184-0.183v-1.467c0-0.103-0.083-0.185-0.184-0.185zM8.483 16.001h-1.467c-0.101 0-0.184 0.083-0.184 0.184v1.468c0 0.1 0.083 0.183 0.184 0.183h1.467c0.101 0 0.184-0.083 0.184-0.183v-1.468c0-0.101-0.083-0.184-0.184-0.184zM12.149 6.837h-1.467c-0.101 0-0.184 0.083-0.184 0.183v1.467c0 0.103 0.083 0.185 0.184 0.185h1.467c0.101 0 0.184-0.083 0.184-0.185v-1.467c0-0.101-0.083-0.183-0.184-0.183zM12.149 10.501h-1.467c-0.101 0-0.184 0.083-0.184 0.185v1.467c0 0.1 0.083 0.183 0.184 0.183h1.467c0.101 0 0.184-0.083 0.184-0.183v-1.467c0-0.103-0.083-0.185-0.184-0.185zM12.149 14.168h-1.467c-0.101 0-0.184 0.083-0.184 0.185v1.467c0 0.1 0.083 0.183 0.184 0.183h1.467c0.101 0 0.184-0.083 0.184-0.183v-1.467c0-0.103-0.083-0.185-0.184-0.185zM28.833 4.476v15.711c0 0.5-0.205 0.981-0.569 1.327-0.319 0.305-2.143 1.815-6.767 1.815-2.397 0-4.391-0.756-6.149-1.424-1.607-0.615-3.123-1.195-4.845-1.192-2.524 0.012-2.896 0.299-3.841 0.619-0.436 0.148-1.275 0.637-1.661 0.8v6.472c0 0.536-0.196 0.913-0.637 1.221l-1.196 0.837v0.005c0 0 0-0.001 0-0.004v-26.187c0-0.5 0.205-0.98 0.569-1.328 0.319-0.301 2.143-1.815 6.767-1.815 2.399 0 4.392 0.76 6.151 1.431 1.605 0.612 3.121 1.191 4.844 1.191 3.159 0 4.293-0.859 4.304-0.863 0.339-0.264 0.765-0.408 1.189-0.408 0.268 0 0.535 0.057 0.777 0.177 0.631 0.305 1.065 0.916 1.065 1.615zM27 4.476c0 0-0.965 0.881-3.609 1.195v0.98c0 0.103-0.083 0.185-0.184 0.185h-1.467c-0.101 0-0.184-0.083-0.184-0.185v-0.864c-0.021 0-0.039 0.001-0.060 0.001-3.477 0-5.989-1.853-9.164-2.435v1.467c0 0.103-0.083 0.185-0.184 0.185h-1.467c-0.101 0-0.184-0.083-0.184-0.185v-1.467c0-0.092 0.073-0.163 0.163-0.173-0.056-0.003-0.105-0.013-0.16-0.013-4.125 0-5.503 1.309-5.503 1.309v15.711c0 0 1.804-1.324 5.5-1.307v-0.861c0-0.1 0.083-0.184 0.184-0.184h1.467c0.101 0 0.184 0.083 0.184 0.184v1.057c0.767 0.141 1.5 0.348 2.211 0.592h1.272c0.101 0 0.184 0.083 0.184 0.184v0.345c1.719 0.653 3.437 1.303 5.497 1.303 0.059 0 0.105-0.008 0.163-0.009-0.088-0.011-0.16-0.081-0.16-0.172v-1.467c0-0.1 0.083-0.184 0.184-0.184h1.467c0.101 0 0.184 0.083 0.184 0.184v1.467c0 0.028-0.019 0.052-0.031 0.077 2.715-0.305 3.697-1.207 3.697-1.207v-0.703c0 0.101-0.083 0.184-0.184 0.184h-1.467c-0.101 0-0.184-0.083-0.184-0.184v-1.467c0-0.1 0.083-0.184 0.184-0.184h1.467c0.101 0 0.184 0.083 0.184 0.184v-2.199c0 0.1-0.083 0.183-0.184 0.183h-1.467c-0.101 0-0.184-0.083-0.184-0.183v-1.467c0-0.101 0.083-0.185 0.184-0.185h1.467c0.101 0 0.184 0.083 0.184 0.185v-2.2c0 0.1-0.083 0.183-0.184 0.183h-1.467c-0.101 0-0.184-0.083-0.184-0.183v-1.467c0-0.101 0.083-0.185 0.184-0.185h1.467c0.101 0 0.184 0.083 0.184 0.185v-2.2c0 0.103-0.083 0.185-0.184 0.185h-1.467c-0.101 0-0.184-0.083-0.184-0.185v-1.467c0-0.1 0.083-0.183 0.184-0.183h1.467c0.101 0 0.184 0.083 0.184 0.183v-2.545zM15.816 5.004h-1.467c-0.101 0-0.184 0.083-0.184 0.183v1.467c0 0.103 0.083 0.185 0.184 0.185h1.467c0.101-0.001 0.184-0.084 0.184-0.187v-1.467c0-0.1-0.083-0.181-0.184-0.181zM15.816 8.671h-1.467c-0.101 0-0.184 0.081-0.184 0.183v1.467c0 0.103 0.083 0.183 0.184 0.183h1.467c0.101 0 0.184-0.080 0.184-0.183v-1.467c0-0.103-0.083-0.183-0.184-0.183zM15.816 12.335h-1.467c-0.101 0-0.184 0.083-0.184 0.185v1.467c0 0.1 0.083 0.183 0.184 0.183h1.467c0.101 0 0.184-0.083 0.184-0.183v-1.467c0-0.103-0.083-0.185-0.184-0.185zM15.816 16.001h-1.467c-0.101 0-0.184 0.083-0.184 0.184v1.468c0 0.1 0.083 0.183 0.184 0.183h1.467c0.101 0 0.184-0.083 0.184-0.183v-1.468c0-0.101-0.083-0.184-0.184-0.184zM19.483 6.837h-1.467c-0.101 0-0.184 0.083-0.184 0.183v1.467c0 0.103 0.083 0.185 0.184 0.185h1.467c0.101 0 0.184-0.083 0.184-0.185v-1.467c0-0.101-0.083-0.183-0.184-0.183zM19.483 10.501h-1.467c-0.101 0-0.184 0.083-0.184 0.185v1.467c0 0.1 0.083 0.183 0.184 0.183h1.467c0.101 0 0.184-0.083 0.184-0.183v-1.467c0-0.103-0.083-0.185-0.184-0.185zM19.483 14.168h-1.467c-0.101 0-0.184 0.083-0.184 0.185v1.467c0 0.1 0.083 0.183 0.184 0.183h1.467c0.101 0 0.184-0.083 0.184-0.183v-1.467c0-0.103-0.083-0.185-0.184-0.185zM19.483 17.835h-1.467c-0.101 0-0.184 0.083-0.184 0.184v1.467c0 0.101 0.083 0.184 0.184 0.184h1.467c0.101 0 0.184-0.083 0.184-0.184v-1.467c0-0.101-0.083-0.184-0.184-0.184zM23.149 8.671h-1.467c-0.101 0-0.184 0.081-0.184 0.183v1.467c0 0.103 0.083 0.183 0.184 0.183h1.467c0.101 0 0.184-0.080 0.184-0.183v-1.467c0-0.103-0.083-0.183-0.184-0.183zM23.149 12.335h-1.467c-0.101 0-0.184 0.083-0.184 0.185v1.467c0 0.1 0.083 0.183 0.184 0.183h1.467c0.101 0 0.184-0.083 0.184-0.183v-1.467c0-0.103-0.083-0.185-0.184-0.185zM23.149 16.001h-1.467c-0.101 0-0.184 0.083-0.184 0.184v1.468c0 0.1 0.083 0.183 0.184 0.183h1.467c0.101 0 0.184-0.083 0.184-0.183v-1.468c0-0.101-0.083-0.184-0.184-0.184z"></path>
</svg>
