<!-- Generated by IcoMoon.io -->
<svg version="1.1" xmlns="http://www.w3.org/2000/svg" width="24" height="24" viewBox="0 0 24 24">
<title>flag_finish</title>
<path fill="#444" d="M6.5 3.89v1.1c0 0.077-0.062 0.139-0.137 0.139h-1.1c-0.076-0.001-0.137-0.063-0.137-0.14v-1.1c0-0.076 0.062-0.137 0.137-0.137h1.1c0.076 0.001 0.137 0.063 0.137 0.139zM6.362 6.503h-1.1c-0.076 0-0.137 0.061-0.137 0.137v1.1c0 0.077 0.062 0.137 0.137 0.137h1.1c0.076 0 0.137-0.061 0.137-0.137v-1.1c0-0.077-0.062-0.137-0.137-0.137zM6.362 9.251h-1.1c-0.076 0-0.137 0.062-0.137 0.139v1.1c0 0.076 0.062 0.137 0.137 0.137h1.1c0.076 0 0.137-0.062 0.137-0.137v-1.1c0-0.077-0.062-0.139-0.137-0.139zM6.362 12.001h-1.1c-0.076 0-0.137 0.062-0.137 0.137v1.101c0 0.076 0.062 0.137 0.137 0.137h1.1c0.076 0 0.137-0.062 0.137-0.137v-1.101c0-0.076-0.062-0.137-0.137-0.137zM9.113 5.128h-1.1c-0.076 0-0.137 0.062-0.137 0.137v1.1c0 0.077 0.062 0.139 0.137 0.139h1.1c0.076 0 0.137-0.062 0.137-0.139v-1.1c0-0.076-0.062-0.137-0.137-0.137zM9.113 7.876h-1.1c-0.076 0-0.137 0.062-0.137 0.139v1.1c0 0.076 0.062 0.137 0.137 0.137h1.1c0.076 0 0.137-0.062 0.137-0.137v-1.1c0-0.077-0.062-0.139-0.137-0.139zM9.113 10.626h-1.1c-0.076 0-0.137 0.062-0.137 0.139v1.1c0 0.076 0.062 0.137 0.137 0.137h1.1c0.076 0 0.137-0.062 0.137-0.137v-1.1c0-0.077-0.062-0.139-0.137-0.139zM21.625 3.358v11.782c0 0.374-0.154 0.736-0.428 0.995-0.239 0.228-1.606 1.361-5.075 1.361-1.799 0-3.293-0.568-4.612-1.068-1.204-0.461-2.342-0.895-3.634-0.892-1.892 0.008-2.173 0.223-2.882 0.463-0.326 0.11-0.956 0.477-1.244 0.599v4.854c0 0.403-0.147 0.685-0.477 0.916l-0.898 0.628v0.003c0 0 0-0.001 0-0.003v-19.639c0-0.377 0.154-0.736 0.428-0.997 0.238-0.227 1.606-1.361 5.074-1.361 1.8 0 3.295 0.571 4.613 1.073 1.203 0.459 2.342 0.892 3.633 0.892 2.369 0 3.22-0.643 3.229-0.648 0.254-0.199 0.573-0.307 0.892-0.307 0.201 0 0.401 0.043 0.583 0.133 0.473 0.231 0.799 0.689 0.799 1.214zM20.25 3.358c0 0-0.723 0.66-2.707 0.895v0.736c0 0.077-0.062 0.139-0.137 0.139h-1.1c-0.076 0-0.137-0.062-0.137-0.139v-0.649c-0.016 0-0.029 0.001-0.045 0.001-2.607 0-4.492-1.39-6.872-1.826v1.1c0 0.077-0.062 0.139-0.137 0.139h-1.1c-0.076-0.001-0.137-0.063-0.137-0.14v-1.1c0-0.070 0.055-0.122 0.122-0.131-0.041 0-0.078-0.008-0.121-0.008-3.094 0-4.126 0.983-4.126 0.983v11.784c0 0 1.353-0.994 4.125-0.98v-0.648c0-0.076 0.062-0.137 0.137-0.137h1.1c0.076 0 0.137 0.062 0.137 0.137v0.793c0.575 0.106 1.125 0.26 1.658 0.444h0.954c0.076 0 0.137 0.062 0.137 0.137v0.259c1.29 0.49 2.578 0.976 4.124 0.976 0.044 0 0.078-0.005 0.121-0.007-0.066-0.008-0.12-0.061-0.12-0.129v-1.1c0-0.076 0.062-0.137 0.137-0.137h1.1c0.076 0 0.137 0.062 0.137 0.137v1.1c0 0.022-0.014 0.038-0.023 0.058 2.035-0.228 2.773-0.905 2.773-0.905v-0.528c0 0.077-0.062 0.139-0.137 0.139h-1.1c-0.076 0-0.137-0.062-0.137-0.139v-1.1c0-0.076 0.062-0.137 0.137-0.137h1.1c0.076 0 0.137 0.062 0.137 0.137v-1.649c0 0.076-0.062 0.137-0.137 0.137h-1.1c-0.076 0-0.137-0.062-0.137-0.137v-1.1c0-0.077 0.062-0.139 0.137-0.139h1.1c0.076 0 0.137 0.062 0.137 0.139v-1.65c0 0.076-0.062 0.137-0.137 0.137h-1.1c-0.076 0-0.137-0.062-0.137-0.137v-1.1c0-0.077 0.062-0.139 0.137-0.139h1.1c0.076 0 0.137 0.062 0.137 0.139v-1.65c0 0.077-0.062 0.139-0.137 0.139h-1.1c-0.076 0-0.137-0.062-0.137-0.139v-1.1c0-0.076 0.062-0.137 0.137-0.137h1.1c0.076 0 0.137 0.062 0.137 0.137v-1.906zM11.863 3.753h-1.1c-0.076 0-0.137 0.062-0.137 0.137v1.1c0 0.077 0.062 0.139 0.137 0.139h1.1c0.076 0 0.137-0.062 0.137-0.139v-1.1c0-0.076-0.062-0.137-0.137-0.137zM11.863 6.503h-1.1c-0.076 0-0.137 0.061-0.137 0.137v1.1c0 0.077 0.062 0.137 0.137 0.137h1.1c0.076 0 0.137-0.061 0.137-0.137v-1.1c0-0.077-0.062-0.137-0.137-0.137zM11.863 9.251h-1.1c-0.076 0-0.137 0.062-0.137 0.139v1.1c0 0.076 0.062 0.137 0.137 0.137h1.1c0.076 0 0.137-0.062 0.137-0.137v-1.1c0-0.077-0.062-0.139-0.137-0.139zM11.863 12.001h-1.1c-0.076 0-0.137 0.062-0.137 0.137v1.101c0 0.076 0.062 0.137 0.137 0.137h1.1c0.076 0 0.137-0.062 0.137-0.137v-1.101c0-0.076-0.062-0.137-0.137-0.137zM14.612 5.128h-1.1c-0.076 0-0.137 0.062-0.137 0.137v1.1c0 0.077 0.062 0.139 0.137 0.139h1.1c0.076 0 0.137-0.062 0.137-0.139v-1.1c0-0.076-0.062-0.137-0.137-0.137zM14.612 7.876h-1.1c-0.076 0-0.137 0.062-0.137 0.139v1.1c0 0.076 0.062 0.137 0.137 0.137h1.1c0.076 0 0.137-0.062 0.137-0.137v-1.1c0-0.077-0.062-0.139-0.137-0.139zM14.612 10.626h-1.1c-0.076 0-0.137 0.062-0.137 0.139v1.1c0 0.076 0.062 0.137 0.137 0.137h1.1c0.076 0 0.137-0.062 0.137-0.137v-1.1c0-0.077-0.062-0.139-0.137-0.139zM14.612 13.376h-1.1c-0.076 0-0.137 0.062-0.137 0.137v1.1c0 0.077 0.062 0.139 0.137 0.139h1.1c0.076 0 0.137-0.062 0.137-0.139v-1.1c0-0.076-0.062-0.137-0.137-0.137zM17.362 6.503h-1.1c-0.076 0-0.137 0.061-0.137 0.137v1.1c0 0.077 0.062 0.137 0.137 0.137h1.1c0.076 0 0.137-0.061 0.137-0.137v-1.1c0-0.077-0.062-0.137-0.137-0.137zM17.362 9.251h-1.1c-0.076 0-0.137 0.062-0.137 0.139v1.1c0 0.076 0.062 0.137 0.137 0.137h1.1c0.076 0 0.137-0.062 0.137-0.137v-1.1c0-0.077-0.062-0.139-0.137-0.139zM17.362 12.001h-1.1c-0.076 0-0.137 0.062-0.137 0.137v1.101c0 0.076 0.062 0.137 0.137 0.137h1.1c0.076 0 0.137-0.062 0.137-0.137v-1.101c0-0.076-0.062-0.137-0.137-0.137z"></path>
</svg>
