<!-- Generated by IcoMoon.io -->
<svg version="1.1" xmlns="http://www.w3.org/2000/svg" width="24" height="24" viewBox="0 0 24 24">
<title>folder</title>
<path fill="#444" d="M19.601 5.214h-7.813l-1.5-2.094c-0.25-0.387-0.679-0.62-1.14-0.62h-4.75c-1.796 0-3.256 1.489-3.256 3.317v12.366c0 1.829 1.46 3.317 3.256 3.317h15.201c1.797 0 3.257-1.487 3.257-3.316v-9.649c0-1.831-1.46-3.321-3.256-3.321zM21.5 18.184c0 1.082-0.85 1.958-1.899 1.958h-15.203c-1.049 0-1.899-0.877-1.899-1.958v-12.368c0-1.083 0.85-1.96 1.899-1.96h4.75l1.9 2.714h8.551c1.050 0 1.9 0.877 1.9 1.962v9.651z"></path>
</svg>
