<!-- Generated by IcoMoon.io -->
<svg version="1.1" xmlns="http://www.w3.org/2000/svg" width="24" height="24" viewBox="0 0 24 24">
<title>folder</title>
<path d="M19.701 5.125h-7.915l-1.519-2.121c-0.253-0.393-0.688-0.629-1.155-0.629h-4.813c-1.82 0-3.299 1.508-3.299 3.361v12.529c0 1.853 1.479 3.359 3.299 3.359h15.401c1.82 0 3.299-1.507 3.299-3.359v-9.777c0.001-1.853-1.478-3.363-3.298-3.363zM21.625 18.266c0 1.096-0.861 1.984-1.924 1.984h-15.402c-1.063 0-1.924-0.889-1.924-1.984v-12.53c0-1.098 0.861-1.986 1.924-1.986h4.812l1.925 2.75h8.664c1.063 0 1.924 0.889 1.924 1.988v9.778z"></path>
</svg>
