<!-- Generated by IcoMoon.io -->
<svg version="1.1" xmlns="http://www.w3.org/2000/svg" width="42" height="32" viewBox="0 0 42 32">
<title>foresight</title>
<path d="M23.91 16.941c-0.3-0.241-0.639-0.458-0.999-0.637l-0.033-0.015-1.376-0.579c-0.405-0.13-0.741-0.265-1.065-0.42l0.051 0.022c-0.27-0.112-0.502-0.246-0.715-0.404l0.009 0.006c-0.171-0.131-0.311-0.294-0.412-0.481l-0.004-0.008c-0.081-0.172-0.128-0.374-0.128-0.586 0-0.017 0-0.033 0.001-0.050l-0 0.002c-0-0.010-0-0.021-0-0.032 0-0.425 0.24-0.794 0.592-0.978l0.006-0.003c0.385-0.195 0.839-0.31 1.32-0.31 0.039 0 0.077 0.001 0.115 0.002l-0.006-0c0.141-0.009 0.305-0.014 0.471-0.014s0.33 0.005 0.493 0.015l-0.022-0.001c0.084 0.014 0.182 0.022 0.281 0.022 0.787 0 1.457-0.502 1.706-1.204l0.004-0.013-0.471-0.145-0.688-0.163-0.851-0.127h-0.109l0.362-0.525h-1.285c-0.009-0-0.020-0-0.032-0-0.441 0-0.829 0.229-1.051 0.575l-0.003 0.005c-0.646 0.106-1.217 0.368-1.69 0.748l0.007-0.006c-0.644 0.505-1.054 1.283-1.054 2.157 0 0.056 0.002 0.112 0.005 0.168l-0-0.008c-0.001 0.022-0.001 0.048-0.001 0.074 0 0.426 0.094 0.83 0.262 1.193l-0.007-0.018c0.179 0.33 0.402 0.612 0.667 0.848l0.003 0.003c0.289 0.232 0.616 0.438 0.966 0.603l0.030 0.013c0.38 0.163 0.778 0.344 1.213 0.507 0.696 0.282 1.291 0.598 1.849 0.966l-0.039-0.024c0.341 0.238 0.562 0.629 0.562 1.072 0 0.018-0 0.035-0.001 0.053l0-0.003c0.002 0.025 0.003 0.054 0.003 0.083 0 0.402-0.226 0.752-0.559 0.928l-0.006 0.003c-0.466 0.199-1.007 0.314-1.576 0.314-0.082 0-0.164-0.002-0.245-0.007l0.011 0.001c-0.070 0.003-0.152 0.005-0.234 0.005-0.404 0-0.799-0.041-1.179-0.12l0.038 0.006c-0.088-0.015-0.19-0.024-0.293-0.024-0.774 0-1.435 0.486-1.694 1.17l-0.004 0.012c0.199 0 0.561 0.199 1.122 0.362 0.506 0.139 1.087 0.218 1.687 0.218 0.043 0 0.087-0 0.13-0.001l-0.006 0-0.235 0.344h1.303c0.009 0 0.020 0 0.031 0 0.4 0 0.755-0.191 0.98-0.486l0.002-0.003c0.589-0.096 1.115-0.312 1.57-0.624l-0.013 0.009c0.683-0.469 1.126-1.246 1.126-2.126 0-0.048-0.001-0.096-0.004-0.143l0 0.007c0.001-0.035 0.002-0.076 0.002-0.117 0-0.445-0.080-0.871-0.227-1.265l0.008 0.025c-0.173-0.34-0.397-0.628-0.667-0.866l-0.003-0.003z"></path>
<path d="M38.588 23.873v-9.376c0-0.308 0-0.597 0-0.869-0.208-1.208-0.778-2.257-1.592-3.058l-0.001-0.001-10.317-10.281c-0.183-0.159-0.424-0.257-0.688-0.257s-0.505 0.097-0.689 0.258l0.001-0.001c-0.771 0.612-1.26 1.549-1.26 2.6 0 0.155 0.011 0.308 0.031 0.458l-0.002-0.017c0.090 0.569 0.301 1.077 0.605 1.514l-0.008-0.012c0.633 0.977 2.407 3.62 3.62 5.231 0.326 0.362 0.905 0.905 1.43 0.887h1.629c-0.049-0.145-0.11-0.271-0.185-0.387l0.004 0.007s-3.747-5.43-4.778-6.914c-0.006-0.033-0.010-0.070-0.010-0.109s0.004-0.076 0.011-0.112l-0.001 0.004s0-0.199 0.163-0.344l9.050 9.050c0.501 0.497 0.846 1.151 0.957 1.882l0.002 0.019c0.004 0.076 0.007 0.164 0.007 0.253s-0.002 0.178-0.007 0.266l0.001-0.012v10.1c0.030 0.256 0.157 0.479 0.342 0.632l0.002 0.001 1.973 1.629c0.27 0.261 0.638 0.422 1.044 0.422 0.171 0 0.335-0.028 0.487-0.081l-0.011 0.003c0.617-0.156 1.135-0.33 1.637-0.536l-0.080 0.029z"></path>
<path d="M31.584 24.905c-0.664-0.945-1.15-2.066-1.385-3.276l-0.009-0.054c-0.034-0.207-0.054-0.445-0.054-0.688s0.020-0.481 0.057-0.713l-0.003 0.025 0.995-5.050c0.1 0.118 0.18 0.256 0.233 0.407l0.003 0.009c0.21 0.687 0.405 1.543 0.545 2.416l0.016 0.118c0.145 0.941 0.235 2.516 0.271 2.86l1.285-1.014c0.375-0.273 0.616-0.71 0.616-1.203 0-0.010-0-0.019-0-0.029l0 0.001-0.145-0.905c-0.156-1.1-0.377-2.072-0.67-3.013l0.036 0.135c-0.395-1.23-1.529-2.105-2.867-2.105-0.268 0-0.527 0.035-0.774 0.101l0.021-0.005c-0.411 0.11-0.722 0.445-0.795 0.862l-0.001 0.007-0.851 6.154c-0.047 0.294-0.074 0.632-0.074 0.977s0.027 0.684 0.079 1.014l-0.005-0.037c0.301 1.65 0.935 3.114 1.833 4.377l-0.023-0.034 4.833 5.756s0 0 0 0l0.507-1.52c0.047-0.14 0.075-0.3 0.075-0.467 0-0.376-0.138-0.719-0.366-0.982l0.002 0.002z"></path>
<path d="M15.529 3.439c0.006 0.033 0.010 0.070 0.010 0.109s-0.004 0.076-0.011 0.112l0.001-0.004c-1.032 1.484-4.778 6.914-4.778 6.914-0.039 0.076-0.076 0.166-0.105 0.259l-0.003 0.012h1.629c0.525 0 1.104-0.525 1.43-0.887 1.14-1.665 2.914-4.253 3.62-5.231 0.257-0.398 0.442-0.868 0.522-1.373l0.003-0.021c0.022-0.142 0.034-0.306 0.034-0.473 0-1.053-0.492-1.992-1.258-2.598l-0.007-0.005c-0.183-0.159-0.424-0.257-0.688-0.257s-0.505 0.097-0.689 0.258l0.001-0.001-10.317 10.317c-0.801 0.806-1.359 1.855-1.552 3.026l-0.004 0.032c0 0.271 0 0.561 0 0.869v9.376l-3.348 2.805c0.421 0.177 0.94 0.35 1.473 0.488l0.084 0.018c0.146 0.052 0.315 0.082 0.491 0.082 0.399 0 0.761-0.155 1.030-0.409l-0.001 0.001 1.973-1.629c0.187-0.155 0.314-0.377 0.343-0.629l0-0.004v-10.118c-0.004-0.076-0.007-0.164-0.007-0.253s0.002-0.178 0.007-0.266l-0.001 0.012c0.144-0.761 0.526-1.415 1.065-1.898l0.003-0.003 9.050-9.050c0 0.308 0 0.308 0 0.416z"></path>
<path d="M12.995 13.774c-0.074-0.424-0.385-0.759-0.789-0.867l-0.008-0.002c-0.226-0.061-0.486-0.096-0.753-0.096-1.338 0-2.472 0.875-2.861 2.084l-0.006 0.021c-0.267 0.81-0.501 1.786-0.656 2.789l-0.014 0.107q0 0.434-0.109 0.923c-0 0.008-0 0.018-0 0.027 0 0.493 0.241 0.931 0.611 1.201l0.004 0.003 1.285 1.014c0-0.344 0.127-1.919 0.271-2.86 0.156-0.991 0.351-1.847 0.598-2.68l-0.037 0.146c0.055-0.16 0.135-0.299 0.237-0.418l-0.001 0.002 0.995 5.050c0.034 0.207 0.054 0.445 0.054 0.688s-0.020 0.481-0.057 0.713l0.003-0.025c-0.243 1.265-0.73 2.385-1.412 3.358l0.018-0.028-3.421 4.018c-0.226 0.262-0.364 0.605-0.364 0.981 0 0.167 0.027 0.328 0.078 0.478l-0.003-0.011 0.434 1.611s0 0 0 0l4.814-5.774c0.875-1.23 1.509-2.693 1.8-4.277l0.010-0.067c0.047-0.294 0.074-0.632 0.074-0.977s-0.027-0.684-0.079-1.014l0.005 0.037z"></path>
</svg>
