<!-- Generated by IcoMoon.io -->
<svg version="1.1" xmlns="http://www.w3.org/2000/svg" width="31" height="24" viewBox="0 0 31 24">
<title>foresight</title>
<path d="M17.932 12.706c-0.225-0.181-0.479-0.343-0.749-0.478l-0.024-0.011-1.032-0.434c-0.304-0.098-0.556-0.199-0.799-0.315l0.038 0.017c-0.202-0.084-0.376-0.184-0.536-0.303l0.006 0.005c-0.128-0.098-0.233-0.22-0.309-0.361l-0.003-0.006c-0.060-0.129-0.096-0.28-0.096-0.44 0-0.012 0-0.025 0.001-0.037l-0 0.002c-0-0.007-0-0.016-0-0.024 0-0.319 0.18-0.595 0.444-0.734l0.005-0.002c0.289-0.146 0.629-0.232 0.99-0.232 0.029 0 0.058 0.001 0.086 0.002l-0.004-0c0.105-0.006 0.229-0.010 0.353-0.010s0.247 0.004 0.37 0.011l-0.017-0.001c0.063 0.010 0.136 0.016 0.211 0.016 0.59 0 1.093-0.377 1.279-0.903l0.003-0.009-0.353-0.109-0.516-0.122-0.638-0.095h-0.081l0.271-0.394h-0.964c-0.007-0-0.015-0-0.024-0-0.331 0-0.622 0.172-0.789 0.431l-0.002 0.004c-0.484 0.079-0.913 0.276-1.268 0.561l0.005-0.004c-0.483 0.379-0.791 0.962-0.791 1.618 0 0.042 0.001 0.084 0.004 0.126l-0-0.006c-0 0.016-0.001 0.036-0.001 0.055 0 0.319 0.070 0.623 0.196 0.895l-0.005-0.013c0.134 0.248 0.302 0.459 0.5 0.636l0.002 0.002c0.217 0.174 0.462 0.328 0.724 0.452l0.022 0.009c0.285 0.122 0.584 0.258 0.909 0.38 0.522 0.212 0.968 0.448 1.387 0.724l-0.030-0.018c0.256 0.179 0.422 0.472 0.422 0.804 0 0.013-0 0.026-0.001 0.040l0-0.002c0.002 0.019 0.002 0.040 0.002 0.062 0 0.302-0.17 0.564-0.419 0.696l-0.004 0.002c-0.349 0.149-0.756 0.236-1.182 0.236-0.062 0-0.123-0.002-0.184-0.005l0.008 0c-0.052 0.002-0.114 0.004-0.175 0.004-0.303 0-0.599-0.031-0.885-0.090l0.028 0.005c-0.066-0.011-0.142-0.018-0.22-0.018-0.581 0-1.076 0.365-1.27 0.877l-0.003 0.009c0.149 0 0.421 0.149 0.842 0.271 0.38 0.104 0.815 0.164 1.265 0.164 0.032 0 0.065-0 0.097-0.001l-0.005 0-0.176 0.258h0.977c0.007 0 0.015 0 0.024 0 0.3 0 0.566-0.143 0.735-0.365l0.002-0.002c0.442-0.072 0.836-0.234 1.177-0.468l-0.010 0.006c0.513-0.352 0.844-0.934 0.844-1.594 0-0.036-0.001-0.072-0.003-0.107l0 0.005c0.001-0.026 0.001-0.057 0.001-0.088 0-0.334-0.060-0.654-0.17-0.949l0.006 0.019c-0.129-0.255-0.298-0.471-0.5-0.65l-0.002-0.002z"></path>
<path d="M28.941 17.905v-7.032c0-0.231 0-0.448 0-0.652-0.156-0.906-0.583-1.693-1.194-2.294l-0.001-0.001-7.738-7.71c-0.137-0.12-0.318-0.193-0.516-0.193s-0.378 0.073-0.517 0.193l0.001-0.001c-0.578 0.459-0.945 1.162-0.945 1.95 0 0.117 0.008 0.231 0.024 0.344l-0.001-0.013c0.067 0.427 0.225 0.808 0.454 1.136l-0.006-0.009c0.475 0.733 1.805 2.715 2.715 3.923 0.244 0.272 0.679 0.679 1.072 0.665h1.222c-0.037-0.109-0.083-0.203-0.139-0.29l0.003 0.005s-2.81-4.072-3.584-5.186c-0.005-0.024-0.007-0.053-0.007-0.081s0.003-0.057 0.008-0.084l-0 0.003s0-0.149 0.122-0.258l6.787 6.787c0.376 0.373 0.635 0.863 0.718 1.411l0.002 0.014c0.003 0.057 0.005 0.123 0.005 0.19s-0.002 0.133-0.005 0.199l0-0.009v7.575c0.022 0.192 0.117 0.359 0.257 0.474l0.001 0.001 1.48 1.222c0.202 0.196 0.478 0.316 0.783 0.316 0.128 0 0.251-0.021 0.366-0.061l-0.008 0.002c0.463-0.117 0.851-0.247 1.228-0.402l-0.060 0.022z"></path>
<path d="M23.688 18.679c-0.498-0.709-0.863-1.549-1.039-2.457l-0.007-0.041c-0.026-0.155-0.040-0.334-0.040-0.516s0.015-0.361 0.043-0.535l-0.003 0.019 0.747-3.787c0.075 0.088 0.135 0.192 0.174 0.306l0.002 0.007c0.157 0.516 0.304 1.157 0.409 1.812l0.012 0.088c0.109 0.706 0.176 1.887 0.204 2.145l0.964-0.76c0.281-0.205 0.462-0.533 0.462-0.903 0-0.007-0-0.014-0-0.022l0 0.001-0.109-0.679c-0.117-0.825-0.283-1.554-0.502-2.26l0.027 0.101c-0.296-0.923-1.146-1.579-2.15-1.579-0.201 0-0.395 0.026-0.581 0.076l0.016-0.004c-0.309 0.082-0.542 0.334-0.597 0.647l-0.001 0.005-0.638 4.615c-0.035 0.22-0.056 0.474-0.056 0.733s0.020 0.513 0.059 0.761l-0.004-0.027c0.226 1.238 0.701 2.336 1.374 3.283l-0.017-0.025 3.624 4.317s0 0 0 0l0.38-1.14c0.035-0.105 0.056-0.225 0.056-0.351 0-0.282-0.103-0.539-0.274-0.737l0.001 0.001z"></path>
<path d="M11.647 2.579c0.005 0.024 0.007 0.053 0.007 0.081s-0.003 0.057-0.008 0.084l0-0.003c-0.774 1.113-3.584 5.186-3.584 5.186-0.030 0.057-0.057 0.125-0.079 0.195l-0.002 0.009h1.222c0.394 0 0.828-0.394 1.072-0.665 0.855-1.249 2.186-3.19 2.715-3.923 0.193-0.299 0.332-0.651 0.392-1.030l0.002-0.015c0.016-0.107 0.025-0.23 0.025-0.355 0-0.79-0.369-1.494-0.943-1.949l-0.005-0.004c-0.137-0.12-0.318-0.193-0.516-0.193s-0.378 0.073-0.517 0.193l0.001-0.001-7.738 7.738c-0.601 0.604-1.019 1.391-1.164 2.27l-0.003 0.024c0 0.204 0 0.421 0 0.652v7.032l-2.511 2.104c0.316 0.133 0.705 0.263 1.105 0.366l0.063 0.014c0.11 0.039 0.236 0.062 0.368 0.062 0.299 0 0.571-0.117 0.773-0.307l-0.001 0.001 1.48-1.222c0.14-0.116 0.236-0.283 0.258-0.472l0-0.003v-7.588c-0.003-0.057-0.005-0.123-0.005-0.19s0.002-0.133 0.005-0.199l-0 0.009c0.108-0.571 0.394-1.061 0.799-1.423l0.002-0.002 6.787-6.787c0 0.231 0 0.231 0 0.312z"></path>
<path d="M9.747 10.33c-0.055-0.318-0.289-0.569-0.592-0.65l-0.006-0.001c-0.17-0.046-0.364-0.072-0.565-0.072-1.004 0-1.854 0.656-2.146 1.563l-0.004 0.016c-0.201 0.607-0.376 1.34-0.492 2.092l-0.010 0.080q0 0.326-0.081 0.692c-0 0.006-0 0.013-0 0.020 0 0.37 0.181 0.698 0.459 0.9l0.003 0.002 0.964 0.76c0-0.258 0.095-1.439 0.204-2.145 0.117-0.744 0.264-1.385 0.449-2.010l-0.028 0.109c0.041-0.12 0.101-0.224 0.178-0.314l-0.001 0.001 0.747 3.787c0.026 0.155 0.040 0.334 0.040 0.516s-0.015 0.361-0.043 0.535l0.003-0.019c-0.182 0.948-0.548 1.789-1.059 2.519l0.014-0.021-2.566 3.014c-0.17 0.196-0.273 0.454-0.273 0.735 0 0.125 0.020 0.246 0.058 0.358l-0.002-0.008 0.326 1.208s0 0 0 0l3.611-4.33c0.656-0.922 1.132-2.020 1.35-3.208l0.008-0.050c0.035-0.22 0.056-0.474 0.056-0.733s-0.020-0.513-0.059-0.76l0.004 0.027z"></path>
</svg>
