<!-- Generated by IcoMoon.io -->
<svg version="1.1" xmlns="http://www.w3.org/2000/svg" width="32" height="32" viewBox="0 0 32 32">
<path d="M16 1.333c-8.101 0-14.667 6.568-14.667 14.667 0 8.1 6.565 14.667 14.667 14.667s14.667-6.567 14.667-14.667c0-8.099-6.565-14.667-14.667-14.667zM16 28.833c-7.077 0-12.833-5.757-12.833-12.833s5.756-12.833 12.833-12.833 12.833 5.757 12.833 12.833-5.756 12.833-12.833 12.833z"></path>
<path d="M16 17.495h-5.561c-1.988 0-3.605 1.664-3.605 3.709v2.896l1.184-0.812c0.285-0.197 0.436-0.468 0.463-0.849v-1.235c0-1.139 0.879-2.064 1.957-2.064h5.563c1.080 0 1.957 0.925 1.957 2.064v1.172c0 0.389 0.156 0.688 0.475 0.911l1.172 0.823v-2.905c0.001-2.045-1.616-3.709-3.604-3.709z"></path>
<path d="M13.22 16.36c2.244 0 4.068-1.825 4.068-4.069 0-2.243-1.825-4.067-4.068-4.067-2.244 0-4.068 1.824-4.068 4.067-0.001 2.243 1.824 4.069 4.068 4.069zM13.22 9.869c1.335 0 2.421 1.085 2.421 2.42 0 1.336-1.087 2.423-2.421 2.423s-2.421-1.085-2.421-2.421c0-1.335 1.085-2.421 2.421-2.421z"></path>
<path d="M20.587 18.013c-0.309-0.172-0.527-0.288-0.717-0.324l-0.467-0.088 0.105 1.221c0.025 0.284 0.144 0.524 0.372 0.723 0.539 0.424 0.86 1.045 0.86 1.66l0.003 1.323c0.043 0.329 0.189 0.579 0.455 0.763l1.189 0.804v-2.889c0-1.388-0.656-2.551-1.8-3.192z"></path>
<path d="M17.211 10.249c0.771 0.493 1.212 1.239 1.212 2.041 0 0.863-0.457 1.639-1.277 2.113-0.209 0.176-0.331 0.392-0.371 0.657l-0.108 0.713-0.057 0.549 0.539-0.155 0.129-0.048c1.671-0.553 2.792-2.092 2.792-3.831 0-1.701-1.003-3.093-2.749-3.82l-0.132-0.055-0.553-0.204 0.141 1.28c0.033 0.309 0.172 0.557 0.435 0.757z"></path>
<path d="M23.367 18.015c-0.3-0.168-0.527-0.289-0.719-0.325l-0.467-0.088 0.105 1.221c0.025 0.285 0.145 0.525 0.372 0.723 0.539 0.425 0.861 1.045 0.861 1.66l0.003 1.321c0.041 0.329 0.188 0.58 0.455 0.764l1.191 0.804v-2.889c-0.001-1.388-0.657-2.551-1.801-3.191z"></path>
<path d="M19.989 10.249c0.771 0.493 1.212 1.239 1.212 2.041 0 0.863-0.457 1.639-1.279 2.113-0.209 0.177-0.331 0.392-0.371 0.657l-0.108 0.713-0.116 0.575 0.548-0.169 0.121-0.016 0.032-0.033 0.025-0.009c1.671-0.553 2.793-2.092 2.793-3.831 0-1.701-1.003-3.093-2.749-3.82l-0.132-0.055-0.553-0.205 0.141 1.28c0.035 0.311 0.173 0.559 0.435 0.759z"></path>
</svg>
