<!-- Generated by IcoMoon.io -->
<svg version="1.1" xmlns="http://www.w3.org/2000/svg" width="24" height="24" viewBox="0 0 24 24">
<title>fund</title>
<path d="M12 1c-6.076 0-11 4.926-11 11 0 6.075 4.924 11 11 11s11-4.925 11-11c0-6.074-4.924-11-11-11zM12 21.625c-5.308 0-9.625-4.318-9.625-9.625s4.317-9.625 9.625-9.625 9.625 4.318 9.625 9.625-4.317 9.625-9.625 9.625z"></path>
<path d="M12 13.121h-4.171c-1.491 0-2.704 1.248-2.704 2.782v2.172l0.888-0.609c0.214-0.148 0.327-0.351 0.347-0.637v-0.926c0-0.854 0.659-1.548 1.468-1.548h4.172c0.81 0 1.468 0.694 1.468 1.548v0.879c0 0.292 0.117 0.516 0.356 0.683l0.879 0.617v-2.179c0.001-1.534-1.212-2.782-2.703-2.782z"></path>
<path d="M9.915 12.27c1.683 0 3.051-1.369 3.051-3.052 0-1.682-1.369-3.050-3.051-3.050-1.683 0-3.051 1.368-3.051 3.050-0.001 1.682 1.368 3.052 3.051 3.052zM9.915 7.402c1.001 0 1.816 0.814 1.816 1.815 0 1.002-0.815 1.817-1.816 1.817s-1.816-0.814-1.816-1.816c0-1.001 0.814-1.816 1.816-1.816z"></path>
<path d="M15.44 13.51c-0.232-0.129-0.395-0.216-0.538-0.243l-0.35-0.066 0.079 0.916c0.019 0.213 0.108 0.393 0.279 0.542 0.404 0.318 0.645 0.784 0.645 1.245l0.002 0.992c0.032 0.247 0.142 0.434 0.341 0.572l0.892 0.603v-2.167c0-1.041-0.492-1.913-1.35-2.394z"></path>
<path d="M12.908 7.687c0.578 0.37 0.909 0.929 0.909 1.531 0 0.647-0.343 1.229-0.958 1.585-0.157 0.132-0.248 0.294-0.278 0.493l-0.081 0.535-0.043 0.412 0.404-0.116 0.097-0.036c1.253-0.415 2.094-1.569 2.094-2.873 0-1.276-0.752-2.32-2.062-2.865l-0.099-0.041-0.415-0.153 0.106 0.96c0.025 0.232 0.129 0.418 0.326 0.568z"></path>
<path d="M17.525 13.511c-0.225-0.126-0.395-0.217-0.539-0.244l-0.35-0.066 0.079 0.916c0.019 0.214 0.109 0.394 0.279 0.542 0.404 0.319 0.646 0.784 0.646 1.245l0.002 0.991c0.031 0.247 0.141 0.435 0.341 0.573l0.893 0.603v-2.167c-0.001-1.041-0.493-1.913-1.351-2.393z"></path>
<path d="M14.992 7.687c0.578 0.37 0.909 0.929 0.909 1.531 0 0.647-0.343 1.229-0.959 1.585-0.157 0.133-0.248 0.294-0.278 0.493l-0.081 0.535-0.087 0.431 0.411-0.127 0.091-0.012 0.024-0.025 0.019-0.007c1.253-0.415 2.095-1.569 2.095-2.873 0-1.276-0.752-2.32-2.062-2.865l-0.099-0.041-0.415-0.154 0.106 0.96c0.026 0.233 0.13 0.419 0.326 0.569z"></path>
</svg>
