<!-- Generated by IcoMoon.io -->
<svg version="1.1" xmlns="http://www.w3.org/2000/svg" width="24" height="24" viewBox="0 0 24 24">
<title>gas_pump</title>
<path d="M14.428 21.625h-9.594v-19.25h9.593v19.25zM22.651 14.997c0-2.753 0-3.348 0-5.189v-3.652l-3.9-3.752-0.194 1.103c-0.047 0.272 0.023 0.482 0.146 0.684l1.207 1.209 1.371 1.271v3.953c0 0 0.013 0.822 0 3.574-0.010 2.217-0.203 3.145-1.371 3.164-0.789 0.014-1.060-0.375-1.287-0.736-0.226-0.377-0.319-1.036-0.314-1.838-0.001-0.871 0.094-1.898 0.094-2.926 0.016-1.606-0.505-2.225-1.411-2.52-0.189-0.062-0.742-0.096-1.194-0.094v-6.908c0-0.56-0.813-1.34-1.37-1.34h-9.594c-0.685 0-1.37 0.652-1.37 1.34v19.285l-0.686 0.035c-0.301 0.037-0.538 0.147-0.73 0.423l-0.704 0.917h16.682l-0.64-0.917c-0.192-0.275-0.43-0.386-0.731-0.423l-0.171-0.035h-0.686v-11c0.411 0 0.746 0.002 0.969 0.094 0.343 0.141 0.394 0.357 0.402 1.281 0 0.966-0.094 1.984-0.095 2.926 0.004 0.862 0.113 1.94 0.536 2.59 0.438 0.672 1.342 1.122 2.3 1.084 0.934-0.038 2.741-0.381 2.741-3.603zM6.844 6.042c0.23 0.33 0.499 0.457 0.9 0.458h5.335l-0.64-0.916c-0.23-0.33-0.498-0.456-0.899-0.459h-5.335l0.639 0.917z"></path>
</svg>
