<!-- Generated by IcoMoon.io -->
<svg version="1.1" xmlns="http://www.w3.org/2000/svg" width="24" height="24" viewBox="0 0 24 24">
<title>gas_pump</title>
<path fill="#444" d="M14.428 21.625h-9.593v-19.25h9.593v19.25zM22.651 14.998c0-2.753 0-3.348 0-5.189v-3.652l-3.899-3.752-0.194 1.103c-0.048 0.272 0.023 0.483 0.146 0.683l1.206 1.21 1.371 1.272v3.953c0 0 0 0.822 0 3.575-0.003 1.145 0.084 2.353-0.184 2.665-0.209 0.245-0.898 0.498-1.187 0.498-0.789-0.018-1.060-0.374-1.287-0.736-0.227-0.377-0.319-1.037-0.315-1.838-0.001-0.872 0.094-1.899 0.094-2.926 0.016-1.606-0.551-2.109-1.411-2.519-0.271-0.135-0.954-0.026-1.192-0.094v-6.909c0-0.561-0.814-1.341-1.37-1.341h-9.593c-0.686 0-1.371 0.653-1.371 1.341v19.284l-0.686 0.034c-0.301 0.037-0.538 0.147-0.73 0.424l-0.704 0.917h16.681l-0.639-0.917c-0.193-0.275-0.429-0.385-0.731-0.424l-0.17-0.034h-0.686v-11c0.411 0 0.731-0.102 0.969 0.094 0.419 0.353 0.393 0.358 0.401 1.282 0 0.965-0.094 1.984-0.095 2.926 0.004 0.862 0.261 1.9 0.643 2.574 0.373 0.675 1.233 1.1 2.193 1.1 0.549 0 1.456-0.223 1.997-0.705 0.844-0.759 0.749-0.979 0.744-2.897zM6.844 6.042c0.231 0.33 0.499 0.457 0.901 0.458h5.335l-0.641-0.916c-0.23-0.33-0.498-0.457-0.899-0.459h-5.335l0.639 0.917z"></path>
</svg>
