<!-- Generated by IcoMoon.io -->
<svg version="1.1" xmlns="http://www.w3.org/2000/svg" width="32" height="32" viewBox="0 0 32 32">
<title>gas_pump</title>
<path d="M19.237 28.833h-12.792v-25.667h12.791v25.667zM30.201 19.996c0-3.671 0-4.464 0-6.919v-4.869l-5.2-5.003-0.259 1.471c-0.063 0.363 0.031 0.643 0.195 0.912l1.609 1.612 1.828 1.695v5.271c0 0 0.017 1.096 0 4.765-0.013 2.956-0.271 4.193-1.828 4.219-1.052 0.019-1.413-0.5-1.716-0.981-0.301-0.503-0.425-1.381-0.419-2.451-0.001-1.161 0.125-2.531 0.125-3.901 0.021-2.141-0.673-2.967-1.881-3.36-0.252-0.083-0.989-0.128-1.592-0.125v-9.211c0-0.747-1.084-1.787-1.827-1.787h-12.792c-0.913 0-1.827 0.869-1.827 1.787v25.713l-0.915 0.047c-0.401 0.049-0.717 0.196-0.973 0.564l-0.939 1.223h22.243l-0.853-1.223c-0.256-0.367-0.573-0.515-0.975-0.564l-0.228-0.047h-0.915v-14.667c0.548 0 0.995 0.003 1.292 0.125 0.457 0.188 0.525 0.476 0.536 1.708 0 1.288-0.125 2.645-0.127 3.901 0.005 1.149 0.151 2.587 0.715 3.453 0.584 0.896 1.789 1.496 3.067 1.445 1.245-0.051 3.655-0.508 3.655-4.804zM9.125 8.056c0.307 0.44 0.665 0.609 1.2 0.611h7.113l-0.853-1.221c-0.307-0.44-0.664-0.608-1.199-0.612h-7.113l0.852 1.223z"></path>
</svg>
