<!-- Generated by IcoMoon.io -->
<svg version="1.1" xmlns="http://www.w3.org/2000/svg" width="24" height="24" viewBox="0 0 24 24">
<title>gears</title>
<path fill="#444" d="M12 9.25c-1.521 0-2.75 1.231-2.75 2.75 0 1.521 1.229 2.75 2.75 2.75 1.519 0 2.75-1.229 2.75-2.75 0-1.519-1.232-2.75-2.75-2.75zM12 13.375c-0.759 0-1.375-0.616-1.375-1.375s0.616-1.375 1.375-1.375c0.759 0 1.375 0.616 1.375 1.375s-0.617 1.375-1.375 1.375zM22.563 4.523l-0.641-0.109c-0.066-0.217-0.154-0.43-0.264-0.632l0.377-0.531c0.15-0.209 0.125-0.492-0.056-0.674l-0.554-0.553c-0.099-0.1-0.231-0.154-0.373-0.154-0.109 0-0.215 0.032-0.304 0.095l-0.531 0.378c-0.209-0.11-0.426-0.201-0.653-0.268l-0.104-0.635c-0.040-0.256-0.257-0.44-0.514-0.44h-0.785c-0.257 0-0.474 0.184-0.517 0.437l-0.111 0.646c-0.217 0.069-0.429 0.157-0.63 0.268l-0.524-0.374c-0.089-0.063-0.195-0.096-0.304-0.096-0.142 0-0.274 0.055-0.373 0.153l-0.553 0.554c-0.182 0.181-0.206 0.465-0.056 0.675l0.381 0.536c-0.107 0.203-0.194 0.415-0.257 0.635l-0.635 0.106c-0.254 0.040-0.439 0.26-0.439 0.516v0.784c0 0.259 0.184 0.476 0.437 0.52l0.648 0.109c0.067 0.217 0.155 0.43 0.267 0.632l-0.373 0.523c-0.15 0.209-0.125 0.494 0.056 0.675l0.554 0.554c0.099 0.1 0.23 0.153 0.371 0.153 0.109 0 0.215-0.032 0.304-0.098l0.536-0.38c0.195 0.102 0.401 0.188 0.611 0.253l0.107 0.639c0.043 0.254 0.261 0.436 0.518 0.436h0.784c0.257 0 0.474-0.183 0.518-0.436l0.109-0.642c0.219-0.066 0.43-0.154 0.632-0.263l0.529 0.377c0.089 0.065 0.195 0.098 0.304 0.098 0.14 0 0.271-0.054 0.371-0.154l0.554-0.554c0.181-0.181 0.206-0.463 0.056-0.674l-0.377-0.531c0.109-0.203 0.195-0.414 0.261-0.634l0.641-0.106c0.253-0.044 0.437-0.263 0.437-0.518v-0.787c0-0.25-0.184-0.467-0.437-0.51zM18.571 7.893c-1.36 0-2.464-1.103-2.464-2.464s1.104-2.464 2.464-2.464 2.464 1.103 2.464 2.464-1.103 2.464-2.464 2.464zM23 11.116v1.853c0 0.637-0.457 1.178-1.086 1.287l-1.589 0.265c-0.166 0.544-0.381 1.066-0.652 1.572l0.938 1.319c0.373 0.524 0.312 1.225-0.14 1.679l-1.375 1.375c-0.249 0.249-0.575 0.382-0.924 0.382-0.269 0-0.532-0.084-0.755-0.242l-1.316-0.939c-0.502 0.271-1.028 0.49-1.572 0.653l-0.268 1.595c-0.107 0.63-0.648 1.085-1.287 1.085h-1.947c-0.639 0-1.18-0.455-1.288-1.085l-0.265-1.589c-0.521-0.158-1.034-0.368-1.519-0.623l-1.332 0.946c-0.224 0.16-0.485 0.243-0.755 0.243-0.349 0-0.675-0.136-0.923-0.382l-1.375-1.378c-0.452-0.451-0.513-1.155-0.14-1.679l0.928-1.297c-0.276-0.499-0.494-1.027-0.663-1.569l-1.607-0.275c-0.63-0.109-1.086-0.648-1.086-1.29v-1.947c0-0.639 0.457-1.178 1.090-1.279l1.576-0.265c0.158-0.545 0.373-1.071 0.638-1.576l-0.946-1.332c-0.373-0.523-0.312-1.228 0.139-1.679l1.375-1.376c0.247-0.246 0.573-0.381 0.924-0.381 0.269 0 0.531 0.084 0.755 0.243l1.301 0.928c0.499-0.276 1.026-0.495 1.566-0.663l0.276-1.609c0.106-0.63 0.646-1.088 1.286-1.088h1.948c0.3 0 0.569 0.111 0.788 0.286 0.25 0.103 0.426 0.348 0.426 0.635 0 0.38-0.308 0.688-0.688 0.688-0.217 0-0.576-0.235-0.576-0.235l-1.83-0.055-0.276 1.609c-0.088 0.51-0.454 0.927-0.947 1.081-0.467 0.146-0.907 0.331-1.306 0.553-0.209 0.115-0.439 0.172-0.667 0.172-0.28 0-0.561-0.085-0.799-0.256l-1.207-0.936-1.367 1.287 0.946 1.332c0.301 0.424 0.338 0.978 0.096 1.437-0.224 0.425-0.403 0.868-0.533 1.317-0.147 0.509-0.572 0.886-1.092 0.973l-1.521 0.188-0.056 1.88 1.607 0.275c0.509 0.087 0.925 0.451 1.081 0.945 0.149 0.477 0.335 0.919 0.554 1.313 0.257 0.465 0.224 1.035-0.085 1.466l-0.932 1.205 1.284 1.367 1.332-0.946c0.236-0.168 0.516-0.254 0.796-0.254 0.22 0 0.439 0.052 0.641 0.158 0.404 0.213 0.835 0.389 1.279 0.524 0.5 0.151 0.87 0.575 0.957 1.090l0.194 1.528h1.889l0.259-1.533c0.087-0.517 0.459-0.939 0.961-1.089 0.451-0.135 0.892-0.318 1.313-0.544 0.205-0.11 0.429-0.165 0.653-0.165 0.28 0 0.561 0.085 0.799 0.256l1.224 0.946 1.367-1.286-0.938-1.319c-0.302-0.425-0.338-0.985-0.092-1.445 0.227-0.424 0.406-0.857 0.549-1.324 0.153-0.499 0.573-0.869 1.089-0.954l1.526-0.198c0 0 0-1.579 0-1.657 0-0.38 0.308-0.688 0.688-0.688 0.311 0 0.562 0.209 0.648 0.491h0.040z"></path>
</svg>
