<!-- Generated by IcoMoon.io -->
<svg version="1.1" xmlns="http://www.w3.org/2000/svg" width="24" height="24" viewBox="0 0 24 24">
<title>gear</title>
<path fill="#444" d="M21.914 9.746l-1.594-0.271c-0.162-0.539-0.382-1.066-0.653-1.57l0.938-1.315c0.373-0.524 0.312-1.226-0.14-1.679l-1.375-1.375c-0.247-0.25-0.575-0.382-0.924-0.382-0.269 0-0.532 0.084-0.755 0.241l-1.319 0.939c-0.518-0.274-1.059-0.498-1.622-0.665l-0.264-1.577c-0.099-0.634-0.639-1.092-1.277-1.092h-1.948c-0.639 0-1.18 0.458-1.287 1.086l-0.275 1.609c-0.54 0.168-1.067 0.386-1.566 0.663l-1.301-0.927c-0.223-0.161-0.484-0.243-0.755-0.243-0.349 0-0.677 0.136-0.924 0.381l-1.375 1.376c-0.451 0.451-0.511 1.156-0.139 1.679l0.946 1.332c-0.265 0.505-0.48 1.031-0.638 1.576l-1.576 0.265c-0.634 0.1-1.090 0.639-1.090 1.279v1.947c0 0.642 0.457 1.18 1.086 1.288l1.607 0.275c0.169 0.542 0.386 1.068 0.663 1.569l-0.928 1.297c-0.373 0.524-0.312 1.228 0.14 1.679l1.375 1.378c0.247 0.247 0.573 0.382 0.923 0.382 0.269 0 0.532-0.084 0.755-0.243l1.332-0.946c0.485 0.256 0.998 0.465 1.519 0.623l0.265 1.589c0.109 0.631 0.649 1.086 1.288 1.086h1.947c0.639 0 1.18-0.455 1.288-1.085l0.268-1.595c0.543-0.162 1.068-0.381 1.572-0.653l1.316 0.939c0.223 0.158 0.485 0.242 0.755 0.242 0.349 0 0.675-0.135 0.924-0.382l1.375-1.375c0.451-0.454 0.511-1.155 0.14-1.679l-0.938-1.319c0.269-0.505 0.485-1.026 0.652-1.572l1.589-0.265c0.628-0.109 1.085-0.65 1.085-1.287v-1.95c0-0.623-0.457-1.166-1.086-1.273zM21.625 12.969l-1.528 0.197c-0.514 0.085-0.936 0.455-1.089 0.954-0.143 0.467-0.322 0.901-0.549 1.324-0.246 0.461-0.21 1.020 0.092 1.445l0.938 1.319-1.367 1.286-1.224-0.946c-0.238-0.169-0.517-0.256-0.799-0.256-0.224 0-0.448 0.055-0.653 0.165-0.421 0.227-0.861 0.411-1.313 0.544-0.502 0.15-0.874 0.572-0.961 1.089l-0.257 1.535h-1.889l-0.197-1.525c-0.085-0.516-0.457-0.939-0.957-1.090-0.443-0.135-0.873-0.311-1.279-0.524-0.201-0.106-0.421-0.158-0.641-0.158-0.28 0-0.558 0.085-0.796 0.254l-1.331 0.945-1.284-1.367 0.932-1.205c0.309-0.43 0.342-1.002 0.085-1.466-0.219-0.396-0.406-0.837-0.553-1.315-0.155-0.492-0.572-0.857-1.081-0.943l-1.607-0.275 0.056-1.881 1.521-0.188c0.52-0.088 0.945-0.465 1.092-0.973 0.131-0.45 0.309-0.892 0.533-1.319 0.242-0.459 0.205-1.013-0.096-1.437l-0.946-1.331 1.367-1.287 1.207 0.938c0.238 0.169 0.518 0.254 0.799 0.254 0.23 0 0.458-0.056 0.667-0.172 0.399-0.221 0.839-0.408 1.308-0.553 0.492-0.154 0.858-0.571 0.946-1.081l0.276-1.609 1.88 0.056 0.187 1.521c0.087 0.517 0.461 0.94 0.964 1.089 0.463 0.139 0.924 0.327 1.372 0.564 0.202 0.107 0.422 0.16 0.642 0.16 0.28 0 0.56-0.085 0.797-0.256l1.319-0.939 1.284 1.369-0.946 1.224c-0.304 0.426-0.34 0.987-0.092 1.448 0.23 0.426 0.412 0.87 0.547 1.317 0.151 0.499 0.572 0.87 1.086 0.957l1.594 0.271-0.058 1.87zM12 9.25c-1.521 0-2.75 1.231-2.75 2.75 0 1.521 1.229 2.75 2.75 2.75 1.519 0 2.75-1.229 2.75-2.75 0-1.519-1.232-2.75-2.75-2.75zM12 13.375c-0.759 0-1.375-0.616-1.375-1.375s0.616-1.375 1.375-1.375c0.759 0 1.375 0.616 1.375 1.375s-0.617 1.375-1.375 1.375z"></path>
</svg>
