<!-- Generated by IcoMoon.io -->
<svg version="1.1" xmlns="http://www.w3.org/2000/svg" width="32" height="32" viewBox="0 0 32 32">
<title>gears</title>
<path d="M16 12.333c-2.027 0-3.667 1.64-3.667 3.667 0 2.028 1.639 3.667 3.667 3.667 2.025 0 3.667-1.639 3.667-3.667 0-2.027-1.641-3.667-3.667-3.667zM16 17.833c-1.011 0-1.833-0.821-1.833-1.833s0.821-1.833 1.833-1.833 1.833 0.821 1.833 1.833-0.823 1.833-1.833 1.833zM30.084 6.029l-0.855-0.145c-0.088-0.291-0.205-0.575-0.352-0.843l0.503-0.708c0.2-0.279 0.167-0.656-0.075-0.899l-0.739-0.737c-0.133-0.135-0.308-0.205-0.496-0.205-0.145 0-0.285 0.043-0.405 0.127l-0.708 0.505c-0.279-0.147-0.568-0.268-0.871-0.359l-0.141-0.845c-0.053-0.341-0.343-0.587-0.685-0.587h-1.047c-0.343 0-0.632 0.245-0.689 0.584l-0.148 0.861c-0.291 0.091-0.573 0.208-0.84 0.359l-0.699-0.5c-0.12-0.084-0.26-0.129-0.404-0.129-0.188 0-0.364 0.073-0.497 0.204l-0.737 0.74c-0.241 0.241-0.275 0.619-0.075 0.9l0.507 0.715c-0.143 0.272-0.257 0.553-0.343 0.847l-0.845 0.141c-0.339 0.053-0.585 0.345-0.585 0.688v1.045c0 0.344 0.247 0.635 0.584 0.693l0.863 0.144c0.089 0.291 0.208 0.576 0.356 0.844l-0.499 0.696c-0.2 0.279-0.167 0.659 0.075 0.9l0.739 0.74c0.132 0.136 0.307 0.204 0.495 0.204 0.144 0 0.285-0.043 0.405-0.131l0.716-0.507c0.26 0.136 0.535 0.251 0.815 0.336l0.143 0.853c0.057 0.337 0.348 0.583 0.692 0.583h1.045c0.343 0 0.633-0.245 0.691-0.583l0.144-0.857c0.291-0.087 0.575-0.205 0.844-0.351l0.705 0.503c0.119 0.085 0.26 0.132 0.405 0.132 0.188 0 0.361-0.072 0.496-0.207l0.739-0.739c0.243-0.243 0.275-0.619 0.075-0.9l-0.501-0.707c0.145-0.272 0.26-0.551 0.349-0.845l0.855-0.14c0.335-0.060 0.58-0.349 0.58-0.692v-1.049c0-0.333-0.245-0.623-0.583-0.68zM24.761 10.524c-1.813 0-3.285-1.471-3.285-3.285 0-1.816 1.472-3.285 3.285-3.285s3.285 1.469 3.285 3.285c0.001 1.815-1.471 3.285-3.285 3.285zM30.667 14.821v2.472c0 0.848-0.609 1.572-1.448 1.715l-2.12 0.355c-0.223 0.727-0.508 1.421-0.868 2.095l1.249 1.757c0.496 0.699 0.416 1.633-0.187 2.239l-1.833 1.833c-0.332 0.331-0.767 0.511-1.232 0.511-0.36 0-0.709-0.111-1.005-0.323l-1.755-1.251c-0.669 0.361-1.371 0.653-2.095 0.871l-0.359 2.127c-0.143 0.839-0.864 1.445-1.716 1.445h-2.596c-0.852 0-1.573-0.607-1.717-1.447l-0.353-2.12c-0.695-0.211-1.38-0.491-2.027-0.831l-1.777 1.26c-0.299 0.213-0.647 0.324-1.007 0.324-0.465 0-0.9-0.181-1.229-0.511l-1.833-1.836c-0.604-0.601-0.684-1.539-0.188-2.239l1.239-1.729c-0.369-0.665-0.659-1.369-0.885-2.091l-2.143-0.367c-0.839-0.144-1.448-0.861-1.448-1.717v-2.596c0-0.852 0.609-1.572 1.453-1.704l2.103-0.355c0.211-0.728 0.496-1.428 0.851-2.103l-1.263-1.776c-0.497-0.695-0.416-1.636 0.187-2.237l1.833-1.836c0.329-0.327 0.765-0.507 1.231-0.507 0.36 0 0.708 0.111 1.005 0.324l1.735 1.237c0.665-0.368 1.368-0.66 2.087-0.884l0.368-2.145c0.145-0.839 0.864-1.449 1.716-1.449h2.597c0.4 0 0.759 0.148 1.051 0.381 0.333 0.139 0.569 0.464 0.569 0.847 0 0.507-0.411 0.917-0.917 0.917-0.289 0-0.769-0.312-0.769-0.312h-2.439l-0.368 2.072c-0.117 0.68-0.605 1.235-1.263 1.44-0.624 0.192-1.211 0.441-1.743 0.737-0.277 0.153-0.583 0.228-0.888 0.228-0.375 0-0.748-0.115-1.064-0.34l-1.612-1.249-1.821 1.715 1.263 1.776c0.401 0.564 0.449 1.304 0.128 1.916-0.3 0.567-0.539 1.159-0.713 1.759-0.195 0.676-0.761 1.18-1.456 1.299l-2.104 0.251v2.507l2.143 0.367c0.679 0.116 1.235 0.601 1.441 1.259 0.197 0.636 0.447 1.224 0.739 1.749 0.343 0.62 0.299 1.38-0.113 1.956l-1.244 1.605 1.712 1.823 1.777-1.26c0.316-0.224 0.688-0.339 1.060-0.339 0.293 0 0.585 0.071 0.855 0.211 0.541 0.285 1.115 0.52 1.705 0.7 0.667 0.201 1.161 0.765 1.276 1.453l0.263 2.033h2.52l0.344-2.044c0.116-0.691 0.612-1.251 1.281-1.452 0.601-0.18 1.191-0.424 1.751-0.728 0.273-0.145 0.572-0.22 0.871-0.22 0.375 0 0.748 0.115 1.064 0.34l1.632 1.26 1.821-1.712-1.249-1.759c-0.403-0.565-0.451-1.312-0.123-1.925 0.303-0.564 0.541-1.141 0.732-1.765 0.203-0.665 0.765-1.157 1.451-1.272l2.037-0.261c0 0 0-2.105 0-2.209 0-0.507 0.411-0.917 0.917-0.917 0.413 0 0.749 0.279 0.864 0.655h0.051z"></path>
</svg>
