<!-- Generated by IcoMoon.io -->
<svg version="1.1" xmlns="http://www.w3.org/2000/svg" width="32" height="32" viewBox="0 0 32 32">
<path d="M29.219 12.996l-2.125-0.361c-0.217-0.719-0.511-1.421-0.871-2.093l1.251-1.751c0.496-0.699 0.416-1.636-0.187-2.239l-1.833-1.835c-0.329-0.333-0.767-0.511-1.232-0.511-0.36 0-0.709 0.111-1.007 0.32l-1.757 1.251c-0.692-0.365-1.411-0.664-2.163-0.888l-0.355-2.101c-0.131-0.844-0.853-1.455-1.703-1.455h-2.597c-0.853 0-1.572 0.611-1.716 1.449l-0.368 2.143c-0.72 0.225-1.423 0.516-2.088 0.885l-1.733-1.236c-0.299-0.213-0.645-0.324-1.005-0.324-0.467 0-0.903 0.181-1.232 0.509l-1.833 1.833c-0.601 0.601-0.683 1.54-0.187 2.237l1.263 1.776c-0.355 0.675-0.64 1.375-0.851 2.103l-2.103 0.355c-0.844 0.132-1.453 0.853-1.453 1.704v2.596c0 0.856 0.609 1.575 1.448 1.717l2.143 0.365c0.225 0.723 0.516 1.425 0.885 2.091l-1.237 1.731c-0.497 0.697-0.416 1.636 0.187 2.237l1.833 1.837c0.329 0.329 0.764 0.511 1.229 0.511 0.36 0 0.709-0.112 1.007-0.324l1.777-1.26c0.647 0.34 1.331 0.62 2.027 0.831l0.353 2.12c0.143 0.84 0.864 1.447 1.716 1.447h2.596c0.852 0 1.573-0.607 1.717-1.447l0.359-2.127c0.723-0.217 1.425-0.509 2.095-0.871l1.755 1.252c0.297 0.209 0.645 0.321 1.005 0.321 0.465 0 0.9-0.179 1.232-0.511l1.833-1.833c0.601-0.605 0.683-1.539 0.187-2.239l-1.249-1.757c0.36-0.673 0.645-1.367 0.868-2.095l2.12-0.355c0.839-0.143 1.448-0.867 1.448-1.713v-2.6c0-0.832-0.609-1.555-1.448-1.697zM28.833 17.293l-2.037 0.261c-0.685 0.115-1.248 0.605-1.451 1.272-0.189 0.623-0.429 1.201-0.731 1.765-0.328 0.615-0.28 1.361 0.123 1.927l1.251 1.756-1.821 1.715-1.632-1.26c-0.317-0.227-0.691-0.341-1.065-0.341-0.299 0-0.597 0.073-0.871 0.221-0.56 0.303-1.148 0.547-1.749 0.725-0.668 0.2-1.165 0.764-1.281 1.453l-0.344 2.044h-2.52l-0.264-2.032c-0.115-0.688-0.609-1.251-1.276-1.453-0.591-0.18-1.164-0.415-1.704-0.7-0.268-0.141-0.561-0.211-0.855-0.211-0.373 0-0.745 0.115-1.060 0.339l-1.777 1.26-1.712-1.823 1.244-1.605c0.412-0.575 0.456-1.336 0.113-1.956-0.292-0.527-0.541-1.116-0.739-1.749-0.205-0.657-0.761-1.143-1.44-1.259l-2.068-0.367v-2.507l2.028-0.251c0.693-0.119 1.26-0.621 1.455-1.3 0.173-0.599 0.413-1.191 0.712-1.756 0.323-0.613 0.273-1.353-0.128-1.917l-1.261-1.776 1.823-1.715 1.611 1.249c0.317 0.227 0.691 0.341 1.064 0.341 0.305 0 0.611-0.076 0.889-0.229 0.531-0.296 1.116-0.545 1.743-0.737 0.657-0.207 1.145-0.761 1.263-1.441l0.368-2.071h2.505l0.251 2.028c0.115 0.689 0.613 1.253 1.284 1.452 0.617 0.184 1.233 0.436 1.829 0.751 0.269 0.143 0.563 0.213 0.857 0.213 0.375 0 0.747-0.115 1.064-0.34l1.757-1.251 1.712 1.825-1.26 1.632c-0.404 0.568-0.452 1.316-0.123 1.929 0.305 0.568 0.551 1.16 0.731 1.756 0.201 0.667 0.763 1.16 1.448 1.277l2.048 0.361v2.492zM15.999 12.333c-2.027 0-3.665 1.64-3.665 3.667 0 2.028 1.639 3.667 3.665 3.667s3.668-1.639 3.668-3.667c0-2.027-1.641-3.667-3.668-3.667zM15.999 17.833c-1.011 0-1.832-0.821-1.832-1.833s0.821-1.833 1.832-1.833c1.012 0 1.835 0.821 1.835 1.833s-0.823 1.833-1.835 1.833z"></path>
</svg>
