<!-- Generated by IcoMoon.io -->
<svg version="1.1" xmlns="http://www.w3.org/2000/svg" width="32" height="32" viewBox="0 0 32 32">
<title>glasses</title>
<path d="M24.251 10.5h-4.584c-1.012 0-1.833 0.82-1.833 1.833v0.143c-0.541-0.315-1.163-0.509-1.833-0.509s-1.292 0.195-1.833 0.511v-0.144c0-1.013-0.821-1.833-1.833-1.833h-4.584c-3.537 0-6.416 2.879-6.416 6.417v2.749c0 1.013 0.821 1.833 1.833 1.833h4.584c3.349 0 6.133-2.588 6.416-5.867v0c0-1.013 0.821-1.833 1.833-1.833s1.833 0.82 1.833 1.833v0c0.284 3.279 3.067 5.867 6.416 5.867h4.584c1.012 0 1.833-0.82 1.833-1.833v-2.749c0-3.539-2.879-6.417-6.416-6.417zM7.749 19.667h-4.583v-2.749c0-2.531 2.051-4.584 4.584-4.584h4.583v2.749c0 2.532-2.052 4.584-4.584 4.584zM28.833 19.667h-4.584c-2.531 0-4.584-2.052-4.584-4.584v-2.749h4.584c2.533 0 4.584 2.052 4.584 4.584v2.749z"></path>
</svg>
