<!-- Generated by IcoMoon.io -->
<svg version="1.1" xmlns="http://www.w3.org/2000/svg" width="24" height="24" viewBox="0 0 24 24">
<title>glasses</title>
<path fill="#444" d="M18 8h-3.333c-0.736 0-1.333 0.596-1.333 1.333v0.104c-0.393-0.229-0.845-0.371-1.333-0.371s-0.94 0.141-1.333 0.371v-0.104c0-0.737-0.597-1.333-1.333-1.333h-3.333c-2.573 0-4.667 2.093-4.667 4.667v2c0 0.737 0.597 1.333 1.333 1.333h3.333c2.436 0 4.46-1.883 4.667-4.267v0c0-0.737 0.597-1.333 1.333-1.333s1.333 0.596 1.333 1.333v0c0.207 2.384 2.231 4.267 4.667 4.267h3.333c0.736 0 1.333-0.596 1.333-1.333v-2c0-2.573-2.093-4.667-4.667-4.667zM6 14.667h-3.333v-2c0-1.841 1.491-3.333 3.333-3.333h3.333v2c0 1.841-1.492 3.333-3.333 3.333zM21.333 14.667h-3.333c-1.841 0-3.333-1.492-3.333-3.333v-2h3.333c1.843 0 3.333 1.492 3.333 3.333v2z"></path>
</svg>
