<!-- Generated by IcoMoon.io -->
<svg version="1.1" xmlns="http://www.w3.org/2000/svg" width="24" height="24" viewBox="0 0 24 24">
<title>glasses</title>
<path d="M18.188 7.875h-3.438c-0.759 0-1.375 0.615-1.375 1.375v0.107c-0.406-0.236-0.872-0.382-1.375-0.382s-0.969 0.146-1.375 0.383v-0.108c0-0.76-0.616-1.375-1.375-1.375h-3.438c-2.653 0-4.812 2.159-4.812 4.813v2.062c0 0.76 0.616 1.375 1.375 1.375h3.438c2.512 0 4.6-1.941 4.812-4.4v0c0-0.76 0.616-1.375 1.375-1.375s1.375 0.615 1.375 1.375v0c0.213 2.459 2.3 4.4 4.812 4.4h3.438c0.759 0 1.375-0.615 1.375-1.375v-2.062c0-2.654-2.159-4.813-4.812-4.813zM5.812 14.75h-3.437v-2.062c0-1.898 1.538-3.438 3.438-3.438h3.437v2.062c0 1.899-1.539 3.438-3.438 3.438zM21.625 14.75h-3.438c-1.898 0-3.438-1.539-3.438-3.438v-2.062h3.438c1.9 0 3.438 1.539 3.438 3.438v2.062z"></path>
</svg>
