<!-- Generated by IcoMoon.io -->
<svg version="1.1" xmlns="http://www.w3.org/2000/svg" width="32" height="32" viewBox="0 0 32 32">
<title>googleplus</title>
<path d="M17.968 14.001c0.073 0.425 0.135 0.856 0.135 1.417 0 4.888-3.275 8.359-8.212 8.359-4.732 0-8.557-3.825-8.557-8.556 0-4.729 3.825-8.553 8.556-8.553 2.308 0 4.241 0.843 5.731 2.239l-2.32 2.233c-0.637-0.613-1.748-1.317-3.411-1.317-2.921 0-5.305 2.416-5.305 5.399 0 2.987 2.384 5.401 5.305 5.401 3.384 0 4.656-2.431 4.852-3.688h-4.852v-2.933h8.079zM26.999 14.001v-3.667h-2.443v3.667h-3.667v2.443h3.667v3.667h2.443v-3.667h3.668v-2.443h-3.668z"></path>
</svg>
