<!-- Generated by IcoMoon.io -->
<svg version="1.1" xmlns="http://www.w3.org/2000/svg" width="24" height="24" viewBox="0 0 24 24">
<title>googleplus</title>
<path fill="#444" d="M13.495 11.072c0.057 0.323 0.103 0.65 0.103 1.077 0 3.713-2.489 6.35-6.24 6.35-3.595 0-6.5-2.905-6.5-6.499s2.905-6.499 6.5-6.499c1.755 0 3.222 0.639 4.354 1.701l-1.763 1.696c-0.483-0.465-1.329-1-2.591-1-2.22 0-4.031 1.836-4.031 4.102 0 2.269 1.811 4.102 4.029 4.102 2.571 0 3.538-1.847 3.685-2.802h-3.684v-2.229h6.137zM20.357 11.072v-2.786h-1.857v2.786h-2.786v1.855h2.786v2.786h1.857v-2.786h2.786v-1.855h-2.786z"></path>
</svg>
