<!-- Generated by IcoMoon.io -->
<svg version="1.1" xmlns="http://www.w3.org/2000/svg" width="24" height="24" viewBox="0 0 24 24">
<title>graduation_cap</title>
<path d="M22.982 9.158c-0.022-0.186-0.089-0.338-0.186-0.474h-0.001c-0.073-0.098-0.139-0.189-0.255-0.272l-10.495-7.412-10.592 7.479c-0.097 0.068-0.153 0.149-0.215 0.23-0.117 0.149-0.196 0.311-0.22 0.516l-0.018 0.319 0.018 0.31c0.022 0.186 0.089 0.338 0.186 0.476l0.001-0.001c0.073 0.089 0.139 0.188 0.255 0.271l2.291 1.616v4.6h0.057c0.060 0.253 0.176 0.464 0.42 0.638l7.772 5.546 4.125-2.874v1.33c0.001 0.403 0.128 0.669 0.459 0.901l0.916 0.643v-3.827l2.273-1.585c0.328-0.233 0.477-0.492 0.477-0.889v-4.55l2.297-1.616c0.097-0.074 0.153-0.149 0.215-0.23 0.117-0.149 0.196-0.316 0.221-0.516l0.017-0.316-0.018-0.313zM12.459 21.002c-0.154 0.107-0.307 0.157-0.459 0.157s-0.305-0.050-0.459-0.157l-6.416-4.578v-3.237l6.83 4.825 4.17-2.945v3.382l-3.666 2.553zM18.875 16.535l-1.375 0.959v-3.403l1.375-0.971v3.415zM17.027 12.75c-0.002-0.001-0.002-0.003-0.004-0.004l-5.023-3.49v1.118c0 0.404 0.148 0.662 0.475 0.895l3.357 2.326-3.875 2.741-9.621-6.801 9.708-6.859 9.621 6.796-4.638 3.278z"></path>
</svg>
