<!-- Generated by IcoMoon.io -->
<svg version="1.1" xmlns="http://www.w3.org/2000/svg" width="24" height="24" viewBox="0 0 24 24">
<title>graduation_cap</title>
<path fill="#444" d="M22.984 9.157c-0.023-0.183-0.089-0.335-0.187-0.474h-0.001c-0.073-0.094-0.139-0.188-0.254-0.269l-10.495-7.413-10.592 7.479c-0.096 0.070-0.154 0.15-0.215 0.228-0.117 0.15-0.198 0.315-0.223 0.516l-0.016 0.319 0.016 0.313c0.023 0.183 0.089 0.335 0.187 0.477l0.001-0.001c0.071 0.089 0.137 0.186 0.253 0.267l2.292 1.618v4.601h0.058c0.058 0.252 0.173 0.461 0.421 0.635l7.772 5.548 4.125-2.872v1.33c0.001 0.401 0.128 0.67 0.458 0.901l0.917 0.642v-3.828l2.272-1.583c0.331-0.232 0.479-0.492 0.479-0.892v-4.549l2.296-1.618c0.096-0.070 0.154-0.149 0.215-0.228 0.117-0.149 0.198-0.315 0.223-0.516l0.016-0.313-0.016-0.316zM12.458 21.002c-0.151 0.107-0.305 0.16-0.458 0.16s-0.307-0.052-0.458-0.16l-6.417-4.579v-3.235l6.83 4.822 4.17-2.945v3.385l-3.667 2.552zM18.875 16.536l-1.375 0.956v-3.399l1.375-0.972v3.415zM17.027 12.749c-0.003-0.001-0.003-0.004-0.005-0.005l-5.021-3.486v1.118c0 0.403 0.147 0.661 0.476 0.892l3.355 2.328-3.873 2.738-9.62-6.797 9.706-6.861 9.62 6.798-4.637 3.275z"></path>
</svg>
