<!-- Generated by IcoMoon.io -->
<svg version="1.1" xmlns="http://www.w3.org/2000/svg" width="32" height="32" viewBox="0 0 32 32">
<title>grid_list</title>
<path d="M12.811 17.333h-9.667c-1.013 0-1.833 0.823-1.833 1.833v9.667c0 1.011 0.82 1.833 1.833 1.833h9.667c1.013 0 1.833-0.823 1.833-1.833v-9.667c0-1.011-0.819-1.833-1.833-1.833zM12.811 28.833h-9.667v-9.667h9.667v9.667z"></path>
<path d="M28.833 17.333h-9.667c-1.015 0-1.833 0.823-1.833 1.833v9.667c0 1.011 0.819 1.833 1.833 1.833h9.667c1.013 0 1.833-0.823 1.833-1.833v-9.667c0-1.011-0.82-1.833-1.833-1.833zM28.833 28.833h-9.667v-9.667h9.667v9.667z"></path>
<path d="M12.879 1.625h-9.667c-1.013 0-1.833 0.823-1.833 1.833v9.667c0 1.011 0.82 1.833 1.833 1.833h9.667c1.013 0 1.833-0.823 1.833-1.833v-9.667c0-1.011-0.819-1.833-1.833-1.833zM12.879 13.125h-9.667v-9.667h9.667v9.667z"></path>
<path d="M28.9 1.625h-9.667c-1.013 0-1.833 0.823-1.833 1.833v9.667c0 1.011 0.82 1.833 1.833 1.833h9.667c1.013 0 1.833-0.823 1.833-1.833v-9.667c0-1.011-0.819-1.833-1.833-1.833zM28.9 13.125h-9.667v-9.667h9.667v9.667z"></path>
</svg>
