<!-- Generated by IcoMoon.io -->
<svg version="1.1" xmlns="http://www.w3.org/2000/svg" width="24" height="24" viewBox="0 0 24 24">
<title>grid_list</title>
<path d="M9.608 13h-7.25c-0.76 0-1.375 0.617-1.375 1.375v7.25c0 0.758 0.615 1.375 1.375 1.375h7.25c0.76 0 1.375-0.617 1.375-1.375v-7.25c0-0.758-0.614-1.375-1.375-1.375zM9.608 21.625h-7.25v-7.25h7.25v7.25z"></path>
<path d="M21.625 13h-7.25c-0.761 0-1.375 0.617-1.375 1.375v7.25c0 0.758 0.614 1.375 1.375 1.375h7.25c0.76 0 1.375-0.617 1.375-1.375v-7.25c0-0.758-0.615-1.375-1.375-1.375zM21.625 21.625h-7.25v-7.25h7.25v7.25z"></path>
<path d="M9.659 1.219h-7.25c-0.76 0-1.375 0.617-1.375 1.375v7.25c0 0.758 0.615 1.375 1.375 1.375h7.25c0.76 0 1.375-0.617 1.375-1.375v-7.25c0-0.758-0.614-1.375-1.375-1.375zM9.659 9.844h-7.25v-7.25h7.25v7.25z"></path>
<path d="M21.675 1.219h-7.25c-0.76 0-1.375 0.617-1.375 1.375v7.25c0 0.758 0.615 1.375 1.375 1.375h7.25c0.76 0 1.375-0.617 1.375-1.375v-7.25c0-0.758-0.614-1.375-1.375-1.375zM21.675 9.844h-7.25v-7.25h7.25v7.25z"></path>
</svg>
