<!-- Generated by IcoMoon.io -->
<svg version="1.1" xmlns="http://www.w3.org/2000/svg" width="24" height="24" viewBox="0 0 24 24">
<title>hammer</title>
<path fill="#444" d="M21.225 5.95l-1.122-0.788c-0.232-0.164-0.507-0.25-0.788-0.25-0.080 0-0.158 0.008-0.238 0.021-0.359 0.065-0.677 0.267-0.886 0.564l-0.014 0.021-6.154-4.271c-0.234-0.162-0.509-0.246-0.782-0.246-0.217 0-0.436 0.052-0.637 0.157-0.452 0.238-0.736 0.704-0.736 1.216l0.001 1.115c0 0.836 0.353 1.514 1.078 2.028l1.499 1.009c-1.084 1.546-4.477 6.399-10.009 14.319-0.293 0.421-0.327 0.965-0.091 1.419 0.235 0.452 0.704 0.737 1.214 0.737 0.001 0 1.117-0.001 1.117-0.001 0.837 0 1.514-0.353 2.014-1.057l9.115-13.040c-0.404 0.617-0.247 1.449 0.36 1.874l1.123 0.787c0.232 0.164 0.507 0.25 0.787 0.25 0.080 0 0.158-0.007 0.238-0.021 0.359-0.065 0.677-0.267 0.887-0.565l2.359-3.369c0.433-0.62 0.283-1.475-0.337-1.907zM18.119 10.408l-1.125-0.789 0.788-1.125-2.254-1.579-9.951 14.235c-0.232 0.326-0.49 0.473-0.892 0.473l-1.119 0.001c0 0 10.796-15.454 10.838-15.499l-2.662-1.797c-0.329-0.234-0.476-0.49-0.476-0.892l-0.001-1.119 7.296 5.064 0.8-1.141 1.125 0.789-2.366 3.378z"></path>
</svg>
