<!-- Generated by IcoMoon.io -->
<svg version="1.1" xmlns="http://www.w3.org/2000/svg" width="32" height="32" viewBox="0 0 32 32">
<title>hammer</title>
<path d="M28.3 7.932l-1.497-1.051c-0.309-0.219-0.677-0.333-1.052-0.333-0.105 0-0.211 0.012-0.316 0.028-0.479 0.085-0.903 0.357-1.18 0.752l-0.017 0.027-8.207-5.693c-0.312-0.217-0.677-0.328-1.043-0.328-0.289 0-0.581 0.071-0.848 0.209-0.604 0.317-0.981 0.937-0.981 1.62l0.001 1.485c0 1.116 0.471 2.019 1.437 2.704l1.999 1.347c-1.444 2.060-5.969 8.533-13.345 19.093-0.389 0.56-0.437 1.287-0.121 1.892 0.315 0.603 0.94 0.983 1.62 0.983 0.001 0 1.488 0 1.488 0 1.117 0 2.019-0.472 2.685-1.412l12.153-17.388c-0.539 0.824-0.329 1.932 0.48 2.5l1.499 1.049c0.309 0.219 0.677 0.333 1.049 0.333 0.105 0 0.211-0.009 0.316-0.028 0.479-0.085 0.903-0.357 1.181-0.753l3.145-4.492c0.579-0.827 0.38-1.967-0.447-2.544zM24.159 13.876l-1.5-1.052 1.052-1.501-3.004-2.104-13.269 18.983c-0.309 0.435-0.653 0.631-1.191 0.631l-1.492 0.001c0 0 14.395-20.605 14.451-20.667l-3.551-2.395c-0.439-0.312-0.633-0.653-0.633-1.192l-0.001-1.491 9.727 6.751 1.067-1.523 1.5 1.053-3.155 4.505z"></path>
</svg>
