<!-- Generated by IcoMoon.io -->
<svg version="1.1" xmlns="http://www.w3.org/2000/svg" width="24" height="24" viewBox="0 0 24 24">
<title>hand</title>
<path fill="#444" d="M12.391 12.253c-0.488 0.077-1.138 0.116-1.928 0.116-0.184 0-0.394-0.007-0.605-0.016-0.326-0.061-0.567-0.212-0.739-0.521l-0.525-0.94c0.233 0.015 1.258 0.107 1.879 0.107 0.701 0 1.273-0.035 1.7-0.103 0.127-0.022 0.225-0.055 0.299-0.11l-3.179-1.147c-0.268-0.084-0.565-0.126-0.886-0.126-1.13 0-2.186 0.513-2.302 0.571l-2.961 1.782c-0.325 0.177-0.628 0.198-0.974 0.041l-0.992-0.442c0 0-0.009-0.016 0.018-0.031l4.222-2.553c0.142-0.074 1.451-0.747 3-0.747 0.452 0 0.879 0.061 1.27 0.179l3.89 1.176c0.269 0.084 0.46 0.318 0.488 0.599 0.072 0.753-0.317 1.949-1.677 2.166zM22.735 8.521c-0.281-0.515-0.94-1.113-1.867-1.113-0.333 0-0.68 0.078-1.035 0.235-0.702 0.311-2.557 1.196-3.747 1.767-0.269 0.174-0.678 0.502-0.725 0.843l-0.149 1.048c0.062-0.012 0.124-0.015 0.188-0.046 0 0 3.9-1.872 4.989-2.354 0.047-0.022 0.097-0.041 0.156-0.041 0.065 0 0.13 0.026 0.203 0.143l-6.723 4.927c-0.376 0.277-0.848 0.43-1.33 0.43-0.114 0-0.227-0.008-0.34-0.026l-6.542-1.035c-0.162 0-0.321 0.055-0.448 0.156l-1.254 1.116c-0.302 0.261-0.417 0.556-0.376 0.955 0 0 0.127 1.098 0.165 1.066l2.159-1.872 6.082 0.974c0.188 0.028 0.379 0.043 0.568 0.043 0.762 0 1.522-0.248 2.137-0.697l7.702-5.64c0.272-0.207 0.352-0.579 0.185-0.881z"></path>
</svg>
