<!-- Generated by IcoMoon.io -->
<svg version="1.1" xmlns="http://www.w3.org/2000/svg" width="32" height="32" viewBox="0 0 32 32">
<title>headphones</title>
<path d="M16 1.333c-8.087 0-14.667 6.58-14.667 14.667v11.459c0 1.772 1.436 3.208 3.208 3.208h5.959v-9.625c0-1.772-1.436-3.208-3.208-3.208h-4.125v-1.833c0-7.076 5.757-12.833 12.833-12.833s12.833 5.757 12.833 12.833v1.833h-4.125c-1.772 0-3.208 1.436-3.208 3.208v9.625h5.959c1.772 0 3.208-1.436 3.208-3.208v-11.459c0-8.087-6.58-14.667-14.667-14.667zM7.292 19.667c0.759 0 1.375 0.617 1.375 1.375v7.792h-4.125c-0.759 0-1.375-0.617-1.375-1.375v-7.792h4.125zM28.833 27.459c0 0.757-0.616 1.375-1.375 1.375h-4.125v-7.792c0-0.757 0.616-1.375 1.375-1.375h4.125v7.792z"></path>
</svg>
