<!-- Generated by IcoMoon.io -->
<svg version="1.1" xmlns="http://www.w3.org/2000/svg" width="32" height="32" viewBox="0 0 32 32">
<path d="M28 5.459h-24c-1.469 0-2.667 1.184-2.667 2.636v15.812c0 1.452 1.197 2.636 2.667 2.636h24c1.469 0 2.667-1.184 2.667-2.636v-15.813c0-1.452-1.197-2.635-2.667-2.635zM28.833 23.907c0 0.433-0.384 0.803-0.833 0.803h-24c-0.449 0-0.833-0.368-0.833-0.803v-15.813c0-0.433 0.384-0.803 0.833-0.803h24c0.449 0 0.833 0.368 0.833 0.803v15.813zM17.833 21.5h7.107c0.539 0.003 0.897 0.172 1.203 0.609l0.857 1.224h-7.107c-0.539-0.001-0.897-0.171-1.203-0.608l-0.857-1.225zM17.833 12.792h7.107c0.539 0.003 0.897 0.172 1.203 0.609l0.857 1.224h-7.107c-0.539-0.001-0.897-0.171-1.203-0.608l-0.857-1.225zM17.833 9.125h7.107c0.539 0.003 0.897 0.172 1.203 0.609l0.857 1.224h-7.107c-0.539-0.001-0.897-0.171-1.203-0.608l-0.857-1.225zM15.211 12.024c0 0-0.001 0-0.001-0.001-1.099-1.104-2.884-1.105-3.987 0 0 0 0 0 0 0l-0.543 0.544-0.543-0.544c-1.101-1.104-2.887-1.104-3.987 0-1.1 1.105-1.1 2.895 0 4.001l4.529 4.543 4.531-4.543c1.101-1.107 1.101-2.896 0-4z"></path>
</svg>
