<!-- Generated by IcoMoon.io -->
<svg version="1.1" xmlns="http://www.w3.org/2000/svg" width="32" height="32" viewBox="0 0 32 32">
<title>heart</title>
<path d="M28.407 5.439c0 0-0.001-0.001-0.001-0.004-3.011-3.024-7.897-3.027-10.916 0-0.001 0-0.001 0-0.001 0l-1.489 1.492-1.487-1.492c-3.015-3.024-7.904-3.024-10.919 0-3.012 3.028-3.012 7.928 0 10.959l12.407 12.44 12.407-12.44c3.013-3.031 3.013-7.928 0-10.955zM27.107 15.093l-11.108 11.143-11.109-11.143c-2.293-2.303-2.293-6.059 0.003-8.368 1.109-1.112 2.588-1.727 4.161-1.727 1.572 0 3.049 0.615 4.16 1.728l1.485 1.496c0.344 0.344 0.812 0.537 1.3 0.537v0c0.487 0 0.952-0.189 1.3-0.535l1.488-1.499c1.112-1.113 2.592-1.728 4.161-1.728 1.545 0 3 0.595 4.103 1.672 0.020 0.023 0.040 0.045 0.063 0.065 2.291 2.301 2.289 6.055-0.007 8.357z"></path>
</svg>
