<!-- Generated by IcoMoon.io -->
<svg version="1.1" xmlns="http://www.w3.org/2000/svg" width="24" height="24" viewBox="0 0 24 24">
<title>heart</title>
<path fill="#444" d="M21.184 4.183c0 0-0.001-0.001-0.001-0.004-2.23-2.238-5.848-2.239-8.080 0-0.001 0-0.001 0-0.001 0l-1.102 1.107-1.101-1.107c-2.233-2.238-5.851-2.238-8.083 0-2.23 2.241-2.23 5.868 0 8.11l9.184 9.211 9.184-9.211c2.233-2.241 2.233-5.866 0.001-8.106zM20.222 11.331l-8.223 8.247-8.223-8.247c-1.698-1.707-1.698-4.487 0-6.194 0.824-0.825 1.918-1.28 3.081-1.28s2.257 0.455 3.081 1.28l1.099 1.105c0.255 0.255 0.6 0.4 0.961 0.4v0c0.361 0 0.707-0.143 0.961-0.399l1.105-1.106c0.822-0.825 1.918-1.28 3.081-1.28 1.143 0 2.219 0.438 3.036 1.238 0.015 0.016 0.030 0.031 0.046 0.047 1.696 1.705 1.695 4.481-0.004 6.189z"></path>
</svg>
