<!-- Generated by IcoMoon.io -->
<svg version="1.1" xmlns="http://www.w3.org/2000/svg" width="32" height="32" viewBox="0 0 32 32">
<title>hospital</title>
<path d="M24.251 1.333h-16.501c-1.013 0-1.833 0.823-1.833 1.833v25.667c0.001 1.011 0.82 1.833 1.833 1.833h5.459c1.013 0 1.875-0.823 1.875-1.833v-3.667h1.833v3.667c0 1.011 0.779 1.833 1.792 1.833h5.541c1.013 0 1.833-0.823 1.833-1.833v-25.667c0-1.011-0.819-1.833-1.832-1.833zM24.251 28.833h-5.5v-4.584c0-0.509-0.412-0.917-0.917-0.917h-3.667c-0.505 0-0.917 0.408-0.917 0.917v4.584h-5.5v-25.667h16.501v25.667zM22.416 8.667h-1.833v1.833h-1.833v-1.833h-1.833v-1.833h1.833v-1.833h1.833v1.833h1.833v1.833zM14.167 19.667l-0.847 1.225c-0.304 0.437-0.66 0.607-1.192 0.608h-2.544v-1.833h4.583zM14.167 16l-0.847 1.225c-0.304 0.437-0.66 0.607-1.192 0.608h-2.544v-1.833h4.583zM14.167 12.333l-0.847 1.225c-0.304 0.437-0.66 0.607-1.192 0.608h-2.544v-1.833h4.583zM14.167 8.667l-0.847 1.225c-0.304 0.437-0.66 0.607-1.192 0.608h-2.544v-1.833h4.583zM14.167 5l-0.847 1.225c-0.304 0.437-0.66 0.607-1.192 0.608h-2.544v-1.833h4.583zM22.416 19.667l-0.847 1.225c-0.304 0.437-0.66 0.607-1.192 0.608h-2.544v-1.833h4.583zM22.416 16l-0.847 1.225c-0.304 0.437-0.66 0.607-1.192 0.608h-2.544v-1.833h4.583zM22.416 12.333l-0.847 1.225c-0.304 0.437-0.66 0.607-1.192 0.608h-2.544v-1.833h4.583z"></path>
</svg>
