<!-- Generated by IcoMoon.io -->
<svg version="1.1" xmlns="http://www.w3.org/2000/svg" width="24" height="24" viewBox="0 0 24 24">
<title>hospital</title>
<path fill="#444" d="M18.188 1h-12.375c-0.759 0-1.375 0.615-1.375 1.375v19.25c0 0.76 0.616 1.375 1.375 1.375h4.095c0.759 0 1.405-0.615 1.405-1.375v-2.75h1.375v2.75c0 0.76 0.586 1.375 1.345 1.375h4.155c0.759 0 1.375-0.615 1.375-1.375v-19.25c0-0.76-0.616-1.375-1.375-1.375zM18.188 21.625h-4.125v-3.437c0-0.38-0.308-0.688-0.688-0.688h-2.75c-0.38 0-0.688 0.308-0.688 0.688v3.437h-4.125v-19.25h12.375v19.25zM14.063 6.5h-1.375v1.375h-1.375v-1.375h-1.375v-1.375h1.375v-1.375h1.375v1.375h1.375v1.375zM10.625 14.75l-0.635 0.917c-0.23 0.33-0.495 0.457-0.895 0.458h-1.907v-1.375h3.437zM10.625 12l-0.635 0.917c-0.23 0.33-0.496 0.457-0.895 0.458h-1.907v-1.375h3.437zM10.625 9.25l-0.635 0.917c-0.23 0.33-0.496 0.457-0.895 0.458h-1.907v-1.375h3.437zM16.813 14.75l-0.635 0.917c-0.23 0.33-0.495 0.457-0.895 0.458h-1.907v-1.375h3.437zM16.813 12l-0.635 0.917c-0.23 0.33-0.495 0.457-0.895 0.458h-1.907v-1.375h3.437zM16.813 9.25l-0.635 0.917c-0.23 0.33-0.495 0.457-0.895 0.458h-1.907v-1.375h3.437z"></path>
</svg>
