<!-- Generated by IcoMoon.io -->
<svg version="1.1" xmlns="http://www.w3.org/2000/svg" width="32" height="32" viewBox="0 0 32 32">
<title>hotel_gastro</title>
<path d="M22.703 12.055c0 0.555 0.449 1.004 1.004 1.004s1.004-0.449 1.004-1.004c0-0.555-0.449-1.004-1.004-1.004-0.553 0-1.004 0.449-1.004 1.004z"></path>
<path d="M19.637 6.516v0.009c-0.124-0.064-0.26-0.108-0.409-0.108-0.504 0-0.913 0.409-0.913 0.913 0 0.357 0.211 0.659 0.509 0.809v0.004c0.013 0.007 0.024 0.015 0.037 0.020 0.005 0.003 0.011 0.007 0.016 0.008 1.079 0.527 2.060 1.279 2.875 2.175l0.004-0.003c0.169 0.176 0.405 0.288 0.669 0.288 0.515 0 0.932-0.417 0.932-0.932 0-0.265-0.113-0.503-0.292-0.672-0.957-1.045-2.115-1.901-3.428-2.512z"></path>
<path d="M28.821 14.153h-0.861c0-5.355-3.851-9.82-8.927-10.789v-0.197c0-1.012-0.819-1.832-1.832-1.832h-2.456c-1.013 0-1.832 0.82-1.832 1.832v0.197c-2.044 0.391-3.88 1.357-5.355 2.711-0.207 0.168-0.347 0.413-0.347 0.699 0 0.505 0.409 0.913 0.913 0.913 0.255 0 0.484-0.105 0.649-0.272l0.009 0.009c1.147-1.053 2.556-1.827 4.128-2.188h6.12c4.063 0.936 7.095 4.568 7.095 8.916h-20.308c0-1.557 0.403-3.016 1.088-4.3l-0.016-0.005c0.051-0.115 0.081-0.239 0.081-0.372 0-0.507-0.411-0.917-0.917-0.917-0.399 0-0.729 0.257-0.856 0.613-0.768 1.497-1.213 3.185-1.213 4.981h-0.807c-1.012 0-1.832 0.819-1.832 1.832v1.375c0 1.013 0.82 1.832 1.832 1.832h3.24l-1.355 1.372c-0.445 0.455-1.045 0.759-1.688 0.863-0.068 0.011-0.136 0.011-0.204 0.017v-0.788l-1.217 0.852c-0.439 0.307-0.607 0.663-0.608 1.197v7.82l1.216-0.852c0.235-0.164 0.387-0.345 0.483-0.557l10.887-0.868c0.259-0.004 0.516-0.025 0.771-0.065 1.020-0.164 1.983-0.656 2.709-1.388l7.523-7.603h3.888c1.012 0 1.832-0.819 1.832-1.832v-1.375c-0.001-1.011-0.821-1.831-1.833-1.831zM17.487 3.265c-0.229 0.115-0.508 0.023-0.623-0.205-0.115-0.229-0.023-0.508 0.205-0.623 0.229-0.115 0.508-0.023 0.623 0.205 0.116 0.229 0.023 0.508-0.205 0.623zM16.076 25.477c-0.445 0.455-1.045 0.759-1.688 0.863-0.153 0.024-0.307 0.041-0.459 0.040l-10.757 0.877v-3.943c0.173-0.011 0.347-0.017 0.517-0.044 1.020-0.164 1.983-0.656 2.709-1.388l2.657-2.689h1.676l-1.709 2.204h0.009c-0.144 0.177-0.243 0.395-0.243 0.64 0 0.516 0.387 0.925 0.881 1v0.020l1.879 0.377c0.255 0.044 0.512 0.072 0.769 0.079 1.032 0.028 2.071-0.276 2.921-0.86l5.008-3.459h2.049l-6.221 6.283zM13.107 19.192h3.837l-2.773 1.916c-0.521 0.363-1.169 0.551-1.819 0.533-0.155-0.004-0.309-0.016-0.459-0.047l-0.56-0.117 1.773-2.285zM28.821 17.361h-25.643v-1.375h25.643v1.375z"></path>
</svg>
