<!-- Generated by IcoMoon.io -->
<svg version="1.1" xmlns="http://www.w3.org/2000/svg" width="24" height="24" viewBox="0 0 24 24">
<title>hotel_gastro</title>
<path d="M17.027 9.041c0 0.416 0.337 0.753 0.753 0.753s0.753-0.337 0.753-0.753c0-0.416-0.337-0.753-0.753-0.753s-0.753 0.337-0.753 0.753z"></path>
<path d="M14.728 4.887v0.007c-0.093-0.048-0.195-0.081-0.307-0.081-0.378 0-0.685 0.307-0.685 0.685 0 0.268 0.158 0.494 0.382 0.607v0.003c0.010 0.005 0.018 0.011 0.028 0.015 0.004 0.002 0.008 0.005 0.012 0.006 0.809 0.395 1.545 0.959 2.156 1.631l0.003-0.002c0.127 0.132 0.304 0.216 0.502 0.216 0.386 0 0.699-0.313 0.699-0.699 0-0.199-0.085-0.377-0.219-0.504-0.718-0.784-1.586-1.426-2.571-1.884z"></path>
<path d="M21.616 10.615h-0.646c0-4.016-2.888-7.365-6.695-8.092v-0.148c0-0.759-0.614-1.374-1.374-1.374h-1.842c-0.76 0-1.374 0.615-1.374 1.374v0.148c-1.533 0.293-2.91 1.018-4.016 2.033-0.155 0.126-0.26 0.31-0.26 0.524 0 0.379 0.307 0.685 0.685 0.685 0.191 0 0.363-0.079 0.487-0.204l0.007 0.007c0.86-0.79 1.917-1.37 3.096-1.641h4.59c3.047 0.702 5.321 3.426 5.321 6.687h-15.231c0-1.168 0.302-2.262 0.816-3.225l-0.012-0.004c0.038-0.086 0.061-0.179 0.061-0.279 0-0.38-0.308-0.688-0.688-0.688-0.299 0-0.547 0.193-0.642 0.46-0.576 1.123-0.91 2.389-0.91 3.736h-0.605c-0.759 0-1.374 0.614-1.374 1.374v1.031c0 0.76 0.615 1.374 1.374 1.374h2.43l-1.016 1.029c-0.334 0.341-0.784 0.569-1.266 0.647-0.051 0.008-0.102 0.008-0.153 0.013v-0.591l-0.913 0.639c-0.329 0.23-0.455 0.497-0.456 0.898v5.865l0.912-0.639c0.176-0.123 0.29-0.259 0.362-0.418l8.165-0.651c0.194-0.003 0.387-0.019 0.578-0.049 0.765-0.123 1.487-0.492 2.032-1.041l5.642-5.702h2.916c0.759 0 1.374-0.614 1.374-1.374v-1.031c-0.001-0.758-0.616-1.373-1.375-1.373zM13.115 2.449c-0.172 0.086-0.381 0.017-0.467-0.154-0.086-0.172-0.017-0.381 0.154-0.467 0.172-0.086 0.381-0.017 0.467 0.154 0.087 0.172 0.017 0.381-0.154 0.467zM12.057 19.108c-0.334 0.341-0.784 0.569-1.266 0.647-0.115 0.018-0.23 0.031-0.344 0.030l-8.068 0.658v-2.957c0.13-0.008 0.26-0.013 0.388-0.033 0.765-0.123 1.487-0.492 2.032-1.041l1.993-2.017h1.257l-1.282 1.653h0.007c-0.108 0.133-0.182 0.296-0.182 0.48 0 0.387 0.29 0.694 0.661 0.75v0.015l1.409 0.283c0.191 0.033 0.384 0.054 0.577 0.059 0.774 0.021 1.553-0.207 2.191-0.645l3.756-2.594h1.537l-4.666 4.712zM9.83 14.394h2.878l-2.080 1.437c-0.391 0.272-0.877 0.413-1.364 0.4-0.116-0.003-0.232-0.012-0.344-0.035l-0.42-0.088 1.33-1.714zM21.616 13.021h-19.232v-1.031h19.232v1.031z"></path>
</svg>
