<!-- Generated by IcoMoon.io -->
<svg version="1.1" xmlns="http://www.w3.org/2000/svg" width="32" height="32" viewBox="0 0 32 32">
<title>hourglass</title>
<path d="M14.575 16.605l-8.661 12.228h-0.661c-0.537 0.001-0.895 0.171-1.203 0.611l-0.855 1.223h25.639l-0.855-1.223c-0.307-0.44-0.665-0.609-1.203-0.611h-0.719l-8.66-12.228c-0.496-0.605-0.496-0.605 0.028-1.211l8.661-12.228h0.661c0.537-0.001 0.895-0.171 1.203-0.611l0.855-1.223h-25.639l0.855 1.223c0.307 0.44 0.665 0.609 1.203 0.611h0.719l8.66 12.228c0.283 0.605 0.283 0.605-0.028 1.211zM8.14 3.167h15.749l-7.876 11.049-7.873-11.049zM23.86 28.833h-15.749l7.876-11.049 7.873 11.049zM20.472 27h-8.973l1.375-1.833h6.227l1.372 1.833zM17.817 8.667h-3.663l-1.192-1.833h6.045l-1.191 1.833z"></path>
</svg>
