<!-- Generated by IcoMoon.io -->
<svg version="1.1" xmlns="http://www.w3.org/2000/svg" width="24" height="24" viewBox="0 0 24 24">
<title>hourglass</title>
<path fill="#444" d="M10.932 12.454l-6.496 9.171h-0.496c-0.403 0.001-0.671 0.128-0.902 0.458l-0.641 0.917h19.228l-0.641-0.917c-0.23-0.33-0.499-0.457-0.902-0.458h-0.539l-6.496-9.171c-0.371-0.454-0.371-0.454 0.021-0.908l6.496-9.171h0.496c0.403-0.001 0.671-0.128 0.902-0.458l0.641-0.917h-19.228l0.641 0.917c0.231 0.33 0.499 0.457 0.902 0.458h0.539l6.496 9.171c0.212 0.454 0.212 0.454-0.021 0.908zM6.105 2.375h11.811l-5.907 8.287-5.904-8.287zM17.895 21.625h-11.811l5.907-8.287 5.904 8.287zM15.354 20.25h-6.731l1.031-1.375h4.669l1.030 1.375zM13.363 6.5h-2.747l-0.894-1.375h4.533l-0.892 1.375z"></path>
</svg>
