<!-- Generated by IcoMoon.io -->
<svg version="1.1" xmlns="http://www.w3.org/2000/svg" width="89" height="24" viewBox="0 0 89 24">
<title>ifeed</title>
<path fill="#444" d="M9.226 1c-3.039 0-5.501 2.461-5.501 5.5v16.5h16.501c3.037 0 5.5-2.463 5.5-5.5v-16.5h-16.5zM23.663 17.5c0 1.899-1.539 3.437-3.437 3.437h-14.438v-14.437c0-1.899 1.537-3.437 3.437-3.437h14.438v14.438zM18.91 5.125c-0.993 0-1.686 0.36-2.255 1.173l-8.804 12.577h2.691c0.99 0 1.684-0.362 2.254-1.173l8.806-12.577h-2.691zM72.393 9.619c-0.828-0.971-2.020-1.455-3.574-1.455-0.665 0-1.319 0.127-1.955 0.377s-1.2 0.628-1.687 1.132c-0.491 0.503-0.881 1.137-1.178 1.899-0.296 0.764-0.443 1.654-0.443 2.676 0 0.873 0.113 1.676 0.344 2.409 0.228 0.733 0.583 1.367 1.056 1.899 0.473 0.535 1.077 0.953 1.81 1.254 0.733 0.307 1.6 0.457 2.607 0.457 0.803 0 1.518-0.073 2.146-0.223 0.628-0.147 1.071-0.287 1.321-0.419-0.268-0.876-1.068-1.386-1.972-1.257-0.494 0.067-0.776 0.078-1.273 0.078-1.288 0-2.233-0.312-2.839-0.932-0.606-0.626-0.956-1.534-1.045-2.732h7.908c0.014-0.121 0.022-0.249 0.022-0.389v-0.345c-0.001-1.981-0.418-3.458-1.247-4.427zM65.756 13.115c0.043-0.399 0.135-0.792 0.276-1.176 0.14-0.385 0.338-0.725 0.591-1.022 0.25-0.297 0.558-0.536 0.919-0.722 0.363-0.184 0.781-0.275 1.254-0.275 0.844 0 1.508 0.298 1.988 0.898 0.478 0.601 0.715 1.365 0.701 2.298h-5.73zM60.447 9.619c-0.828-0.971-2.020-1.455-3.574-1.455-0.665 0-1.319 0.127-1.955 0.377s-1.2 0.628-1.687 1.132c-0.491 0.503-0.881 1.137-1.178 1.899-0.296 0.764-0.443 1.654-0.443 2.676 0 0.873 0.113 1.676 0.344 2.409 0.228 0.733 0.583 1.367 1.056 1.899 0.473 0.535 1.077 0.953 1.81 1.254 0.733 0.307 1.601 0.457 2.607 0.457 0.803 0 1.518-0.073 2.146-0.223 0.628-0.147 1.071-0.287 1.321-0.419-0.268-0.876-1.068-1.386-1.972-1.257-0.494 0.067-0.776 0.078-1.273 0.078-1.288 0-2.233-0.312-2.839-0.932-0.606-0.626-0.956-1.534-1.045-2.732h7.908c0.014-0.121 0.022-0.249 0.022-0.389v-0.345c0-1.981-0.417-3.458-1.247-4.427zM53.81 13.115c0.043-0.399 0.135-0.792 0.276-1.176 0.14-0.385 0.338-0.725 0.591-1.022 0.25-0.297 0.558-0.536 0.919-0.722 0.363-0.184 0.781-0.275 1.254-0.275 0.844 0 1.508 0.298 1.988 0.898 0.478 0.601 0.715 1.365 0.701 2.298h-5.73zM39.457 10.553v9.471c1.137 0 2.063-0.924 2.063-2.063v-9.471c-1.14 0-2.063 0.924-2.063 2.063zM39.153 5.044c0 0.736 0.597 1.334 1.334 1.334 0.736 0 1.334-0.598 1.334-1.334 0-0.737-0.598-1.335-1.334-1.335-0.737 0-1.334 0.598-1.334 1.335zM85.274 4.945c-0.943 0-1.709 0.767-1.709 1.706v2.087c-0.173-0.081-0.37-0.166-0.591-0.253-0.554-0.212-1.209-0.322-1.943-0.322-0.82 0-1.556 0.15-2.189 0.443-0.644 0.296-1.192 0.71-1.633 1.235-0.436 0.518-0.774 1.147-1.001 1.866-0.223 0.704-0.334 1.797-0.334 2.637 0 0.899 0.135 1.721 0.4 2.435 0.272 0.73 0.657 1.358 1.143 1.866 0.488 0.513 1.085 0.91 1.768 1.181 0.677 0.268 1.436 0.406 2.254 0.406 0.954 0 1.761-0.065 2.401-0.194 0.626-0.124 1.15-0.26 1.559-0.4l0.259-0.088v-14.605h-0.382zM83.594 17.987c-0.050 0.011-0.1 0.022-0.153 0.032-0.355 0.070-0.98 0.153-2.002 0.153-0.556 0-1.059-0.085-1.492-0.26-0.407-0.161-0.756-0.392-1.037-0.688-0.294-0.307-0.529-0.696-0.704-1.162-0.179-0.481-0.269-1.060-0.269-1.716 0-0.634 0.081-1.517 0.238-2.014 0.144-0.462 0.351-0.85 0.612-1.16 0.248-0.296 0.544-0.521 0.916-0.69 0.368-0.17 0.813-0.256 1.328-0.256 0.472 0 0.888 0.065 1.206 0.186 0.166 0.065 0.32 0.135 0.458 0.197l0.899 0.419v6.96zM48.392 10.268h-2.64v-0.351c0-0.578 0.040-1.33 0.132-1.705 0.088-0.378 0.223-0.674 0.397-0.888 0.18-0.215 0.403-0.368 0.668-0.457 0.263-0.088 0.578-0.132 0.932-0.132h0.865c1.004 0 1.818-0.814 1.818-1.818h-2.863c-0.781 0-1.431 0.099-1.942 0.298-0.51 0.201-0.921 0.499-1.232 0.899-0.312 0.401-0.529 0.894-0.653 1.478-0.129 0.583-0.186 1.254-0.186 2.025v10.399c0.377 0 0.726-0.107 1.031-0.285 0.613-0.358 1.031-1.015 1.031-1.778v-5.958h4.37c0-0.957-0.774-1.73-1.73-1.73z"></path>
</svg>
