<!-- Generated by IcoMoon.io -->
<svg version="1.1" xmlns="http://www.w3.org/2000/svg" width="89" height="24" viewBox="0 0 89 24">
<title>ifeed</title>
<path d="M74.912 9.401c-0.903-1.059-2.204-1.587-3.9-1.587-0.726 0-1.439 0.138-2.133 0.411s-1.309 0.685-1.84 1.235c-0.535 0.549-0.962 1.24-1.285 2.072-0.323 0.834-0.483 1.804-0.483 2.919 0 0.953 0.123 1.828 0.375 2.627 0.249 0.799 0.636 1.491 1.152 2.072 0.516 0.584 1.174 1.040 1.974 1.368 0.8 0.334 1.746 0.498 2.844 0.498 0.876 0 1.656-0.080 2.341-0.243 0.685-0.16 1.168-0.314 1.441-0.457-0.292-0.956-1.165-1.512-2.151-1.371-0.538 0.073-0.846 0.085-1.389 0.085-1.407 0-2.438-0.34-3.099-1.017-0.662-0.682-1.043-1.672-1.14-2.979h8.628c0.015-0.132 0.024-0.271 0.024-0.424v-0.377c0-2.162-0.454-3.773-1.359-4.83zM67.669 13.215c0.046-0.435 0.147-0.864 0.302-1.282 0.153-0.42 0.369-0.791 0.645-1.115 0.273-0.324 0.609-0.585 1.002-0.787 0.396-0.201 0.852-0.3 1.368-0.3 0.923 0 1.647 0.325 2.171 0.979 0.522 0.656 0.78 1.49 0.765 2.506h-6.252zM61.88 9.401c-0.903-1.059-2.203-1.587-3.9-1.587-0.726 0-1.439 0.138-2.133 0.411s-1.309 0.685-1.84 1.235c-0.535 0.549-0.961 1.24-1.285 2.072-0.323 0.834-0.483 1.804-0.483 2.919 0 0.953 0.123 1.828 0.375 2.627 0.249 0.799 0.636 1.491 1.152 2.072 0.516 0.584 1.175 1.040 1.974 1.368 0.8 0.334 1.746 0.498 2.844 0.498 0.876 0 1.656-0.080 2.341-0.243 0.686-0.16 1.169-0.314 1.442-0.457-0.293-0.956-1.166-1.512-2.151-1.371-0.539 0.073-0.846 0.085-1.389 0.085-1.407 0-2.438-0.34-3.099-1.017-0.662-0.682-1.042-1.672-1.14-2.979h8.628c0.015-0.132 0.024-0.271 0.024-0.424v-0.377c0.002-2.162-0.453-3.773-1.359-4.83zM54.637 13.215c0.047-0.435 0.147-0.864 0.301-1.282 0.153-0.42 0.369-0.791 0.645-1.115 0.273-0.324 0.609-0.585 1.002-0.787 0.396-0.201 0.852-0.3 1.368-0.3 0.922 0 1.647 0.325 2.171 0.979 0.522 0.656 0.78 1.49 0.765 2.506h-6.252zM38.979 10.419v10.332c1.242 0 2.25-1.008 2.25-2.25v-10.332c-1.242 0-2.25 1.008-2.25 2.25zM38.648 4.41c0 0.803 0.651 1.454 1.456 1.454 0.803 0 1.454-0.651 1.454-1.454 0-0.806-0.651-1.457-1.454-1.457-0.805 0.001-1.456 0.651-1.456 1.457zM88.962 4.302c-1.029 0-1.863 0.837-1.863 1.862v2.277c-0.191-0.088-0.405-0.181-0.645-0.276-0.606-0.231-1.319-0.351-2.121-0.351-0.894 0-1.697 0.163-2.388 0.483-0.701 0.322-1.3 0.774-1.782 1.347-0.474 0.566-0.843 1.251-1.090 2.035-0.243 0.768-0.366 1.961-0.366 2.877 0 0.981 0.147 1.878 0.436 2.655 0.298 0.797 0.719 1.482 1.248 2.035 0.532 0.559 1.183 0.993 1.927 1.288 0.738 0.293 1.567 0.442 2.459 0.442 1.043 0 1.921-0.070 2.619-0.211 0.683-0.135 1.254-0.284 1.703-0.437l0.282-0.096v-15.931h-0.419zM87.131 18.528c-0.056 0.012-0.111 0.024-0.166 0.035-0.387 0.076-1.070 0.166-2.186 0.166-0.606 0-1.155-0.093-1.626-0.283-0.445-0.176-0.827-0.428-1.131-0.75-0.323-0.335-0.577-0.759-0.768-1.266-0.197-0.525-0.296-1.157-0.296-1.872 0-0.691 0.088-1.655 0.261-2.197 0.157-0.504 0.381-0.927 0.668-1.266 0.27-0.322 0.594-0.569 0.999-0.753 0.402-0.186 0.885-0.279 1.448-0.279 0.516 0 0.969 0.070 1.316 0.202 0.181 0.071 0.351 0.147 0.501 0.215l0.981 0.457v7.591zM48.726 10.108h-2.88v-0.384c0-0.63 0.043-1.45 0.144-1.86 0.096-0.413 0.243-0.735 0.434-0.969 0.197-0.234 0.439-0.402 0.729-0.498 0.286-0.096 0.63-0.144 1.017-0.144h0.944c1.095 0 1.983-0.888 1.983-1.983h-3.123c-0.852 0-1.562 0.108-2.118 0.325-0.556 0.219-1.005 0.545-1.344 0.981-0.34 0.439-0.578 0.975-0.712 1.614-0.141 0.636-0.203 1.368-0.203 2.21v11.346c0.412 0 0.794-0.117 1.125-0.31 0.67-0.39 1.125-1.107 1.125-1.94v-6.501h4.767c0-1.043-0.845-1.887-1.887-1.887zM6 0c-3.314 0-6 2.685-6 6v18h18c3.313 0 6-2.687 6-6v-18h-18zM9.894 18.221c-0.621 0.888-1.377 1.279-2.459 1.279h-2.935l9.606-13.722c0.621-0.885 1.377-1.278 2.458-1.278h2.936l-9.606 13.721z"></path>
</svg>
