<!-- Generated by IcoMoon.io -->
<svg version="1.1" xmlns="http://www.w3.org/2000/svg" width="119" height="32" viewBox="0 0 119 32">
<title>ifeed</title>
<path d="M99.882 12.534c-1.204-1.412-2.938-2.116-5.2-2.116-0.968 0-1.918 0.184-2.844 0.548s-1.746 0.914-2.454 1.646c-0.714 0.732-1.282 1.654-1.714 2.762-0.43 1.112-0.644 2.406-0.644 3.892 0 1.27 0.164 2.438 0.5 3.502 0.332 1.066 0.848 1.988 1.536 2.762 0.688 0.778 1.566 1.386 2.632 1.824 1.066 0.446 2.328 0.664 3.792 0.664 1.168 0 2.208-0.106 3.122-0.324 0.914-0.214 1.558-0.418 1.922-0.61-0.39-1.274-1.554-2.016-2.868-1.828-0.718 0.098-1.128 0.114-1.852 0.114-1.876 0-3.25-0.454-4.132-1.356-0.882-0.91-1.39-2.23-1.52-3.972h11.504c0.020-0.176 0.032-0.362 0.032-0.566v-0.502c0-2.882-0.606-5.030-1.812-6.44zM90.226 17.62c0.062-0.58 0.196-1.152 0.402-1.71 0.204-0.56 0.492-1.054 0.86-1.486 0.364-0.432 0.812-0.78 1.336-1.050 0.528-0.268 1.136-0.4 1.824-0.4 1.23 0 2.196 0.434 2.894 1.306 0.696 0.874 1.040 1.986 1.020 3.342h-8.336zM82.506 12.534c-1.204-1.412-2.938-2.116-5.2-2.116-0.968 0-1.918 0.184-2.844 0.548s-1.746 0.914-2.454 1.646c-0.714 0.732-1.282 1.654-1.714 2.762-0.43 1.112-0.644 2.406-0.644 3.892 0 1.27 0.164 2.438 0.5 3.502 0.332 1.066 0.848 1.988 1.536 2.762 0.688 0.778 1.566 1.386 2.632 1.824 1.066 0.446 2.328 0.664 3.792 0.664 1.168 0 2.208-0.106 3.122-0.324 0.914-0.214 1.558-0.418 1.922-0.61-0.39-1.274-1.554-2.016-2.868-1.828-0.718 0.098-1.128 0.114-1.852 0.114-1.876 0-3.25-0.454-4.132-1.356-0.882-0.91-1.39-2.23-1.52-3.972h11.504c0.020-0.176 0.032-0.362 0.032-0.566v-0.502c0.002-2.882-0.604-5.030-1.812-6.44zM72.85 17.62c0.062-0.58 0.196-1.152 0.402-1.71 0.204-0.56 0.492-1.054 0.86-1.486 0.364-0.432 0.812-0.78 1.336-1.050 0.528-0.268 1.136-0.4 1.824-0.4 1.23 0 2.196 0.434 2.894 1.306 0.696 0.874 1.040 1.986 1.020 3.342h-8.336zM51.972 13.892v13.776c1.656 0 3-1.344 3-3v-13.776c-1.656 0-3 1.344-3 3zM51.53 5.88c0 1.070 0.868 1.938 1.942 1.938 1.070 0 1.938-0.868 1.938-1.938 0-1.074-0.868-1.942-1.938-1.942-1.074 0.002-1.942 0.868-1.942 1.942zM118.616 5.736c-1.372 0-2.484 1.116-2.484 2.482v3.036c-0.254-0.118-0.54-0.242-0.86-0.368-0.808-0.308-1.758-0.468-2.828-0.468-1.192 0-2.262 0.218-3.184 0.644-0.934 0.43-1.734 1.032-2.376 1.796-0.632 0.754-1.124 1.668-1.454 2.714-0.324 1.024-0.488 2.614-0.488 3.836 0 1.308 0.196 2.504 0.582 3.54 0.398 1.062 0.958 1.976 1.664 2.714 0.71 0.746 1.578 1.324 2.57 1.718 0.984 0.39 2.090 0.59 3.278 0.59 1.39 0 2.562-0.094 3.492-0.282 0.91-0.18 1.672-0.378 2.27-0.582l0.376-0.128v-21.242h-0.558zM116.174 24.704c-0.074 0.016-0.148 0.032-0.222 0.046-0.516 0.102-1.426 0.222-2.914 0.222-0.808 0-1.54-0.124-2.168-0.378-0.594-0.234-1.102-0.57-1.508-1-0.43-0.446-0.77-1.012-1.024-1.688-0.262-0.7-0.394-1.542-0.394-2.496 0-0.922 0.118-2.206 0.348-2.93 0.21-0.672 0.508-1.236 0.89-1.688 0.36-0.43 0.792-0.758 1.332-1.004 0.536-0.248 1.18-0.372 1.93-0.372 0.688 0 1.292 0.094 1.754 0.27 0.242 0.094 0.468 0.196 0.668 0.286l1.308 0.61v10.122zM64.968 13.478h-3.84v-0.512c0-0.84 0.058-1.934 0.192-2.48 0.128-0.55 0.324-0.98 0.578-1.292 0.262-0.312 0.586-0.536 0.972-0.664 0.382-0.128 0.84-0.192 1.356-0.192h1.258c1.46 0 2.644-1.184 2.644-2.644h-4.164c-1.136 0-2.082 0.144-2.824 0.434-0.742 0.292-1.34 0.726-1.792 1.308-0.454 0.586-0.77 1.3-0.95 2.152-0.188 0.848-0.27 1.824-0.27 2.946v15.128c0.55 0 1.058-0.156 1.5-0.414 0.894-0.52 1.5-1.476 1.5-2.586v-8.668h6.356c0-1.39-1.126-2.516-2.516-2.516zM8 0c-4.418 0-8 3.58-8 8v24h24c4.418 0 8-3.582 8-8v-24h-24zM13.192 24.294c-0.828 1.184-1.836 1.706-3.278 1.706h-3.914l12.808-18.296c0.828-1.18 1.836-1.704 3.278-1.704h3.914l-12.808 18.294z"></path>
</svg>
