<!-- Generated by IcoMoon.io -->
<svg version="1.1" xmlns="http://www.w3.org/2000/svg" width="24" height="24" viewBox="0 0 24 24">
<title>in</title>
<path fill="#444" d="M23 7.875v11.687c0 1.896-1.543 3.437-3.437 3.437h-15.125c-1.895 0-3.437-1.541-3.437-3.437v-11.687c0-0.052 0.019-0.099 0.030-0.149l0.868 0.608c0.33 0.231 0.477 0.513 0.477 0.916v10.312c0 1.137 0.925 2.063 2.063 2.063h15.125c1.137 0 2.063-0.925 2.063-2.063v-10.312c0-0.403 0.147-0.685 0.477-0.916l0.868-0.608c0.011 0.050 0.030 0.096 0.030 0.149zM16.557 3.75h-1.119c-0.403 0-0.575 0.076-0.807 0.404l-1.943 2.775v-5.242c0-0.379-0.308-0.688-0.688-0.688s-0.688 0.308-0.688 0.688v5.243l-1.944-2.777c-0.232-0.327-0.404-0.403-0.806-0.403h-1.118l2.866 4.144 0.631 0.902c0.070 0.096 0.149 0.154 0.228 0.214 0.15 0.117 0.315 0.198 0.516 0.223l0.316 0.016 0.316-0.016c0.183-0.023 0.337-0.089 0.477-0.187h-0.001c0.092-0.073 0.187-0.139 0.268-0.254l3.495-5.042z"></path>
</svg>
