<!-- Generated by IcoMoon.io -->
<svg version="1.1" xmlns="http://www.w3.org/2000/svg" width="24" height="24" viewBox="0 0 24 24">
<title>information</title>
<path d="M12 22.656c6.066 0 11-4.776 11-10.656s-4.934-10.656-11-10.656-11 4.776-11 10.656 4.934 10.656 11 10.656zM12.688 16.598c0 0.791-0.615 1.426-1.375 1.426v-7.211c0-0.793 0.615-1.434 1.375-1.434v7.219zM12 5.977c0.57 0 1.031 0.459 1.031 1.031 0 0.566-0.461 1.031-1.031 1.031-0.569 0-1.031-0.465-1.031-1.031 0-0.572 0.462-1.031 1.031-1.031z"></path>
</svg>
