<!-- Generated by IcoMoon.io -->
<svg version="1.1" xmlns="http://www.w3.org/2000/svg" width="24" height="24" viewBox="0 0 24 24">
<title>information</title>
<path fill="#444" d="M12 1.375c-6.047 0-10.968 4.768-10.968 10.625s4.92 10.625 10.968 10.625 10.968-4.768 10.968-10.625-4.92-10.625-10.968-10.625zM12 21.254c-5.292 0-9.597-4.15-9.597-9.254s4.305-9.254 9.597-9.254 9.597 4.15 9.597 9.254-4.305 9.254-9.597 9.254zM12 18.009c-0.569 0-1.028-0.461-1.028-1.028s0.459-1.028 1.028-1.028c0.568 0 1.028 0.461 1.028 1.028s-0.461 1.028-1.028 1.028zM12.686 13.186c0 0.79-0.614 1.427-1.371 1.427v-7.198c0-0.787 0.614-1.424 1.371-1.424v7.195z"></path>
</svg>
