<!-- Generated by IcoMoon.io -->
<svg version="1.1" xmlns="http://www.w3.org/2000/svg" width="32" height="32" viewBox="0 0 32 32">
<title>information</title>
<path d="M16 30.208c8.088 0 14.667-6.368 14.667-14.208s-6.579-14.208-14.667-14.208-14.667 6.368-14.667 14.208 6.579 14.208 14.667 14.208zM16.917 22.131c0 1.055-0.82 1.901-1.833 1.901v-9.615c0-1.057 0.82-1.912 1.833-1.912v9.625zM16 7.969c0.76 0 1.375 0.612 1.375 1.375 0 0.755-0.615 1.375-1.375 1.375-0.759 0-1.375-0.62-1.375-1.375 0-0.763 0.616-1.375 1.375-1.375z"></path>
</svg>
