<!-- Generated by IcoMoon.io -->
<svg version="1.1" xmlns="http://www.w3.org/2000/svg" width="24" height="24" viewBox="0 0 24 24">
<title>instagram</title>
<path fill="#444" d="M12 2.983c2.938 0 3.285 0.010 4.445 0.063 2.981 0.135 4.374 1.552 4.51 4.51 0.052 1.159 0.063 1.508 0.063 4.444s-0.011 3.285-0.063 4.443c-0.137 2.956-1.525 4.375-4.51 4.51-1.16 0.054-1.507 0.063-4.445 0.063s-3.285-0.010-4.444-0.063c-2.988-0.136-4.374-1.556-4.509-4.51-0.055-1.158-0.066-1.504-0.066-4.443 0-2.937 0.011-3.285 0.065-4.444 0.136-2.956 1.525-4.375 4.509-4.509 1.16-0.055 1.507-0.065 4.445-0.065zM12 1c-2.988 0-3.361 0.011-4.535 0.067-3.996 0.18-6.215 2.398-6.398 6.397-0.054 1.174-0.067 1.548-0.067 4.536s0.014 3.362 0.066 4.536c0.184 3.996 2.399 6.216 6.398 6.397 1.176 0.056 1.548 0.067 4.536 0.067s3.362-0.011 4.536-0.067c3.99-0.18 6.216-2.398 6.397-6.397 0.055-1.174 0.067-1.548 0.067-4.536s-0.012-3.362-0.066-4.536c-0.179-3.989-2.399-6.215-6.397-6.397-1.176-0.056-1.55-0.067-4.538-0.067zM12 6.353c-3.12 0-5.648 2.527-5.648 5.647s2.529 5.648 5.648 5.648c3.12 0 5.648-2.529 5.648-5.648s-2.529-5.647-5.648-5.647zM12 15.666c-2.025 0-3.667-1.639-3.667-3.666 0-2.025 1.642-3.666 3.667-3.666s3.667 1.64 3.667 3.666c0 2.027-1.642 3.666-3.667 3.666zM17.873 4.809c-0.73 0-1.321 0.591-1.321 1.321 0 0.727 0.591 1.32 1.321 1.32 0.729 0 1.32-0.593 1.32-1.32-0.001-0.731-0.591-1.321-1.32-1.321z"></path>
</svg>
