<!-- Generated by IcoMoon.io -->
<svg version="1.1" xmlns="http://www.w3.org/2000/svg" width="32" height="32" viewBox="0 0 32 32">
<path d="M16 3.977c3.917 0 4.38 0.012 5.927 0.084 3.975 0.179 5.832 2.069 6.013 6.013 0.069 1.545 0.084 2.011 0.084 5.925s-0.015 4.38-0.084 5.924c-0.183 3.943-2.033 5.833-6.013 6.015-1.547 0.072-2.009 0.083-5.927 0.083s-4.38-0.012-5.925-0.083c-3.985-0.181-5.832-2.076-6.012-6.015-0.072-1.545-0.087-2.007-0.087-5.924 0-3.916 0.015-4.379 0.085-5.925 0.181-3.943 2.033-5.833 6.012-6.012 1.548-0.073 2.009-0.085 5.927-0.085zM16 1.333c-3.984 0-4.481 0.015-6.047 0.089-5.327 0.24-8.287 3.197-8.531 8.529-0.071 1.565-0.089 2.065-0.089 6.048s0.019 4.483 0.088 6.048c0.245 5.328 3.199 8.289 8.531 8.528 1.567 0.076 2.064 0.091 6.048 0.091s4.483-0.015 6.048-0.089c5.32-0.24 8.289-3.196 8.528-8.528 0.073-1.567 0.091-2.067 0.091-6.049s-0.017-4.483-0.088-6.048c-0.239-5.319-3.199-8.285-8.528-8.528-1.568-0.076-2.067-0.091-6.051-0.091zM16 8.471c-4.16 0-7.531 3.371-7.531 7.529s3.371 7.532 7.531 7.532c4.159 0 7.531-3.371 7.531-7.532 0-4.159-3.372-7.529-7.531-7.529zM16 20.888c-2.7 0-4.889-2.187-4.889-4.888 0-2.7 2.189-4.888 4.889-4.888s4.889 2.188 4.889 4.888c0 2.701-2.189 4.888-4.889 4.888zM23.829 6.412c-0.973 0-1.761 0.787-1.761 1.76 0 0.972 0.788 1.76 1.761 1.76 0.972 0 1.76-0.789 1.76-1.76 0-0.975-0.788-1.76-1.76-1.76z"></path>
</svg>
