<!-- Generated by IcoMoon.io -->
<svg version="1.1" xmlns="http://www.w3.org/2000/svg" width="156" height="24" viewBox="0 0 156 24">
<title>investira_h_biz</title>
<path d="M141.415 8.646h6.766c0.657 0 1.129 1.033 0.7 1.529-0.285 0.33-0.62 0.733-1.004 1.216-0.542 0.675-1.119 1.429-1.735 2.261-0.613 0.829-1.222 1.694-1.825 2.595-0.602 0.905-1.133 1.759-1.588 2.564h6.674c0 0.667-0.543 1.209-1.21 1.209h-6.183c-0.594 0-1.060-0.784-0.775-1.308v0.003c0.351-0.648 0.773-1.35 1.264-2.109 0.561-0.868 1.144-1.721 1.75-2.56 0.606-0.84 1.198-1.629 1.774-2.366 0.578-0.738 1.059-1.343 1.445-1.82h-4.841c-0.67-0.003-1.211-0.544-1.211-1.211zM137.903 4.194c-0.569 0-1.031 0.462-1.031 1.031s0.462 1.031 1.031 1.031c0.571 0 1.031-0.462 1.031-1.031s-0.461-1.031-1.031-1.031zM137.188 10.076v9.941c0.789 0 1.43-0.639 1.43-1.429v-9.943c-0.789 0-1.43 0.638-1.43 1.43zM134.286 11.968c0.227 0.725 0.341 1.521 0.341 2.386 0 0.924-0.136 1.753-0.407 2.487-0.272 0.733-0.653 1.356-1.144 1.869-0.491 0.514-1.078 0.905-1.76 1.178-0.682 0.269-1.441 0.406-2.277 0.406-1.011 0-1.848-0.065-2.508-0.199-0.659-0.132-1.202-0.271-1.628-0.418v-15.289c0-0.789 0.641-1.43 1.43-1.43v6.381c0.25-0.191 0.649-0.392 1.199-0.605 0.55-0.212 1.199-0.319 1.947-0.319 0.821 0 1.551 0.147 2.189 0.44 0.638 0.294 1.177 0.704 1.617 1.233 0.44 0.525 0.773 1.151 1.001 1.88zM131.988 17.797c0.748-0.799 1.121-1.947 1.121-3.443 0-0.63-0.066-1.228-0.198-1.793-0.133-0.564-0.345-1.057-0.638-1.474-0.294-0.419-0.679-0.751-1.155-1-0.477-0.252-1.067-0.375-1.771-0.375-0.338 0-0.66 0.034-0.968 0.099-0.309 0.066-0.595 0.15-0.858 0.253-0.264 0.103-0.495 0.212-0.693 0.33s-0.364 0.228-0.495 0.33v7.964c0.22 0.074 0.546 0.143 0.979 0.208 0.432 0.069 1.002 0.099 1.705 0.099 1.232 0.001 2.223-0.397 2.971-1.198zM12.025 1c-3.037 0-5.5 2.461-5.5 5.5v16.5h16.5c3.037 0 5.5-2.463 5.5-5.5v-16.5h-16.5zM15.594 17.702c-0.569 0.814-1.262 1.174-2.254 1.174h-2.691l8.806-12.578c0.571-0.813 1.264-1.173 2.254-1.173h2.691l-8.806 12.577zM67.967 8.487c-0.975 0-1.721 0.569-1.984 1.507-0.088 0.319-0.143 0.494-0.236 0.814-0.285 0.956-0.454 1.493-0.775 2.438-0.312 0.919-0.491 1.431-0.83 2.339-0.298 0.795-0.467 1.239-0.797 2.020-0.333-0.781-0.505-1.225-0.8-2.020-0.338-0.908-0.521-1.42-0.832-2.339-0.319-0.946-0.491-1.482-0.776-2.438-0.094-0.319-0.144-0.494-0.234-0.814-0.265-0.938-1.012-1.507-1.984-1.507h-0.631c0.659 2.465 1.099 3.835 2.031 6.212 0.825 2.1 1.302 3.274 2.251 5.324h1.952c0.946-2.049 1.429-3.224 2.251-5.324 0.932-2.377 1.369-3.747 2.028-6.212h-0.632zM49.337 8.428c-0.781 0.135-1.412 0.26-1.885 0.378v11.216h2.065v-9.752c0.076-0.014 0.197-0.034 0.366-0.065 0.172-0.029 0.366-0.056 0.577-0.078 0.215-0.025 0.443-0.043 0.679-0.056 0.236-0.016 0.465-0.022 0.688-0.022 0.547 0 1.006 0.070 1.378 0.209 0.368 0.143 0.665 0.368 0.888 0.677 0.22 0.312 0.378 0.719 0.479 1.222 0.094 0.505 0.143 1.112 0.143 1.82v6.043h2.068v-6.484c0-0.784-0.078-1.501-0.223-2.153-0.147-0.653-0.406-1.211-0.769-1.676-0.363-0.47-0.846-0.83-1.456-1.088-0.604-0.26-1.369-0.392-2.285-0.392-1.020-0.001-1.926 0.069-2.713 0.201zM107.194 8.459c-0.725 0.158-1.332 0.322-1.818 0.502v11.059h2.063v-9.705c0.118-0.029 0.368-0.085 0.744-0.166 0.378-0.081 0.763-0.124 1.15-0.124 0.18 0 0.279 0 0.459 0.008 1.018 0.043 1.826-0.507 2.156-1.471-0.088-0.029-0.226-0.065-0.411-0.102-0.183-0.034-0.386-0.073-0.609-0.11s-0.448-0.065-0.676-0.091c-0.231-0.019-0.434-0.032-0.612-0.032-0.903-0.003-1.719 0.076-2.445 0.231zM78.296 9.647c-0.83-0.969-2.023-1.453-3.575-1.453-0.665 0-1.319 0.127-1.955 0.375s-1.2 0.628-1.686 1.134c-0.491 0.502-0.881 1.136-1.178 1.899-0.296 0.763-0.443 1.654-0.443 2.674 0 0.873 0.113 1.676 0.344 2.41 0.228 0.734 0.583 1.365 1.056 1.9 0.473 0.532 1.077 0.95 1.81 1.254s1.6 0.454 2.607 0.454c0.803 0 1.515-0.073 2.144-0.22 0.628-0.15 1.071-0.29 1.321-0.422-0.265-0.876-1.066-1.386-1.972-1.257-0.491 0.070-0.775 0.078-1.27 0.078-1.29 0-2.234-0.312-2.841-0.932-0.606-0.623-0.956-1.534-1.045-2.732h7.906c0.014-0.121 0.022-0.247 0.022-0.389v-0.346c-0.001-1.981-0.415-3.458-1.244-4.427zM71.657 13.144c0.043-0.397 0.135-0.792 0.276-1.176 0.14-0.384 0.338-0.725 0.591-1.020 0.25-0.298 0.558-0.538 0.919-0.722 0.363-0.186 0.781-0.276 1.254-0.276 0.846 0 1.507 0.298 1.99 0.899 0.478 0.599 0.715 1.364 0.701 2.296h-5.731zM82.503 9.091c-0.755 0.599-1.133 1.412-1.133 2.434 0 0.518 0.088 0.953 0.268 1.31 0.177 0.355 0.414 0.659 0.71 0.91 0.298 0.253 0.648 0.47 1.056 0.656s0.832 0.366 1.279 0.543c0.919 0.371 1.576 0.704 1.975 1.002 0.4 0.296 0.602 0.694 0.602 1.199 0 0.488-0.203 0.843-0.612 1.066-0.406 0.22-1.037 0.333-1.882 0.333-0.572 0-0.896-0.008-1.459-0.113-0.938-0.169-1.794 0.325-2.111 1.225 0.206 0.085 0.602 0.217 1.178 0.386 0.575 0.169 1.378 0.256 2.398 0.256 1.466 0 2.592-0.271 3.387-0.822 0.789-0.544 1.187-1.353 1.187-2.42 0-0.549-0.081-1.011-0.245-1.389-0.161-0.378-0.395-0.698-0.698-0.964-0.307-0.268-0.668-0.502-1.101-0.701-0.428-0.199-0.916-0.403-1.463-0.612-0.417-0.147-0.771-0.29-1.066-0.422s-0.544-0.276-0.747-0.432c-0.199-0.155-0.346-0.327-0.443-0.521s-0.144-0.417-0.144-0.665c0-0.491 0.215-0.848 0.645-1.077 0.429-0.231 0.941-0.346 1.518-0.346 0.392 0 0.612 0.008 1 0.056 0.964 0.115 1.778-0.375 2.127-1.279-0.121-0.043-0.285-0.094-0.502-0.153-0.212-0.059-0.462-0.115-0.744-0.166-0.279-0.054-0.586-0.099-0.91-0.135-0.325-0.037-0.65-0.054-0.975-0.054-1.31-0.003-2.339 0.296-3.094 0.894zM91.455 6.98v8.338c0 0.771 0.059 1.441 0.186 2.025 0.124 0.586 0.341 1.077 0.656 1.477 0.309 0.4 0.719 0.701 1.231 0.899 0.513 0.201 1.16 0.301 1.944 0.301h2.86c0-1.004-0.814-1.818-1.818-1.818h-0.865c-0.355 0-0.668-0.043-0.932-0.135-0.265-0.085-0.488-0.239-0.668-0.457-0.175-0.212-0.309-0.51-0.397-0.888s-0.132-0.851-0.132-1.429v-5.075h2.64c0.958 0 1.73-0.773 1.73-1.732h-4.37v-3.569c-1.14 0-2.064 0.924-2.064 2.063zM42.249 10.549v9.472c1.137 0 2.064-0.924 2.064-2.063v-9.472c-1.14 0-2.064 0.924-2.064 2.063zM41.945 5.041c0 0.736 0.597 1.332 1.332 1.332 0.737 0 1.337-0.597 1.337-1.332 0-0.738-0.599-1.335-1.337-1.335-0.736 0-1.332 0.597-1.332 1.335zM100.169 10.549v9.472c1.141 0 2.063-0.924 2.063-2.063v-9.472c-1.138 0-2.063 0.924-2.063 2.063zM99.868 5.041c0 0.736 0.597 1.332 1.332 1.332 0.738 0 1.335-0.597 1.335-1.332 0-0.738-0.597-1.335-1.335-1.335-0.736 0-1.332 0.597-1.332 1.335zM120.952 19.974c0.316-0.051 0.566-0.091 0.744-0.121v-7.22c0-0.653-0.076-1.246-0.223-1.789-0.147-0.54-0.395-1.007-0.744-1.4-0.346-0.392-0.806-0.696-1.375-0.91-0.572-0.214-1.27-0.319-2.1-0.319-0.725 0-1.4 0.054-2.023 0.164-0.62 0.11-1.066 0.226-1.332 0.344 0.226 0.887 1.015 1.431 1.925 1.33 0.484-0.054 0.758-0.065 1.246-0.065 0.532 0 0.969 0.081 1.305 0.236 0.334 0.157 0.595 0.363 0.788 0.622 0.194 0.26 0.325 0.556 0.4 0.888s0.11 0.671 0.11 1.012v0.575c-0.059-0.014-0.161-0.034-0.312-0.067-0.147-0.028-0.322-0.062-0.521-0.096-0.201-0.040-0.411-0.067-0.631-0.091-0.223-0.022-0.44-0.032-0.645-0.032-0.653 0-1.276 0.067-1.866 0.199-0.594 0.135-1.112 0.341-1.558 0.623-0.443 0.282-0.795 0.65-1.051 1.11-0.263 0.459-0.389 1.006-0.389 1.643 0 0.67 0.11 1.239 0.33 1.712 0.223 0.476 0.535 0.857 0.935 1.144 0.4 0.29 0.873 0.499 1.42 0.634 0.547 0.132 1.147 0.199 1.8 0.199 0.459 0 0.921-0.019 1.386-0.056 0.467-0.034 0.902-0.076 1.302-0.121 0.399-0.045 0.759-0.094 1.078-0.147zM115.080 15.619c0.191-0.245 0.432-0.437 0.719-0.578 0.29-0.143 0.606-0.231 0.953-0.276 0.349-0.043 0.679-0.067 0.991-0.067 0.473 0 0.879 0.028 1.211 0.078 0.33 0.051 0.572 0.115 0.719 0.188v3.443c-0.253 0.059-0.566 0.102-0.943 0.124-0.378 0.022-0.811 0.032-1.299 0.032-0.817 0-1.459-0.143-1.93-0.432-0.479-0.287-0.712-0.803-0.712-1.546 0.001-0.4 0.098-0.722 0.292-0.967z"></path>
</svg>
