<!-- Generated by IcoMoon.io -->
<svg version="1.1" xmlns="http://www.w3.org/2000/svg" width="156" height="24" viewBox="0 0 156 24">
<title>investira_h_biz</title>
<path fill="#444" d="M8.56 6.5c0-1.899 1.536-3.437 3.437-3.437h14.438v14.438c0 1.899-1.539 3.437-3.437 3.437h-14.438v-14.438zM11.997 1c-3.039 0-5.501 2.461-5.501 5.5v16.5h16.501c3.037 0 5.5-2.461 5.5-5.5v-16.5h-16.5zM21.682 5.125c-0.994 0-1.687 0.36-2.256 1.173l-8.803 12.577h2.691c0.99 0 1.684-0.362 2.254-1.174l8.806-12.576h-2.691zM141.415 8.646h6.766c0.657 0 1.127 1.033 0.7 1.529-0.285 0.33-0.62 0.733-1.004 1.216-0.542 0.675-1.118 1.429-1.735 2.261-0.613 0.829-1.222 1.694-1.825 2.595-0.602 0.905-1.133 1.759-1.587 2.564h6.674c0 0.665-0.543 1.209-1.21 1.209h-6.183c-0.594 0-1.060-0.784-0.775-1.308v0.003c0.352-0.648 0.773-1.35 1.264-2.108 0.561-0.869 1.144-1.721 1.75-2.56 0.606-0.84 1.198-1.631 1.774-2.366 0.578-0.738 1.059-1.343 1.445-1.82h-4.841c-0.671-0.004-1.213-0.546-1.213-1.213zM137.903 4.194c-0.569 0-1.031 0.462-1.031 1.031s0.462 1.031 1.031 1.031c0.571 0 1.031-0.462 1.031-1.031s-0.461-1.031-1.031-1.031zM137.188 10.076v9.941c0.789 0 1.43-0.639 1.43-1.429v-9.943c-0.789 0-1.43 0.638-1.43 1.43zM134.286 11.968c0.227 0.725 0.341 1.521 0.341 2.386 0 0.924-0.136 1.753-0.407 2.489-0.272 0.731-0.653 1.354-1.144 1.867-0.491 0.514-1.078 0.905-1.76 1.178-0.682 0.269-1.441 0.406-2.276 0.406-1.011 0-1.849-0.066-2.508-0.201-0.659-0.132-1.202-0.271-1.629-0.418v-15.287c0-0.789 0.642-1.43 1.43-1.43v6.381c0.252-0.191 0.65-0.392 1.199-0.605 0.55-0.212 1.199-0.319 1.947-0.319 0.822 0 1.551 0.147 2.189 0.44 0.639 0.294 1.177 0.704 1.618 1.233 0.439 0.525 0.771 1.151 1 1.88zM131.988 17.797c0.748-0.799 1.121-1.947 1.121-3.443 0-0.63-0.067-1.229-0.199-1.793-0.133-0.564-0.345-1.057-0.638-1.474-0.294-0.419-0.679-0.751-1.155-1-0.477-0.252-1.067-0.375-1.771-0.375-0.338 0-0.66 0.034-0.968 0.099-0.309 0.066-0.595 0.15-0.858 0.253-0.264 0.103-0.495 0.212-0.693 0.33s-0.364 0.228-0.495 0.33v7.964c0.22 0.074 0.546 0.143 0.979 0.208 0.432 0.067 1.002 0.098 1.705 0.098 1.233 0.003 2.225-0.396 2.973-1.196zM67.967 8.484c-0.975 0-1.723 0.568-1.985 1.506-0.088 0.319-0.143 0.495-0.236 0.814-0.285 0.957-0.454 1.493-0.774 2.439-0.314 0.917-0.491 1.429-0.83 2.339-0.297 0.792-0.467 1.235-0.797 2.018-0.333-0.781-0.505-1.226-0.8-2.018-0.338-0.91-0.521-1.422-0.83-2.339-0.319-0.946-0.491-1.482-0.776-2.439-0.092-0.318-0.144-0.494-0.234-0.814-0.265-0.938-1.012-1.506-1.984-1.506h-0.632c0.659 2.465 1.1 3.833 2.032 6.211 0.825 2.101 1.302 3.274 2.251 5.323h1.952c0.946-2.049 1.429-3.222 2.251-5.323 0.932-2.377 1.369-3.745 2.031-6.211h-0.637zM49.336 8.424c-0.781 0.135-1.412 0.26-1.886 0.378v11.215h2.068v-9.749c0.074-0.015 0.195-0.036 0.364-0.066 0.172-0.029 0.366-0.056 0.578-0.078 0.215-0.025 0.443-0.041 0.679-0.056 0.236-0.016 0.465-0.022 0.688-0.022 0.547 0 1.005 0.070 1.378 0.21 0.37 0.142 0.667 0.367 0.888 0.676 0.219 0.312 0.377 0.718 0.479 1.222 0.094 0.503 0.143 1.111 0.143 1.819v6.043h2.067v-6.483c0-0.785-0.078-1.503-0.223-2.155-0.146-0.652-0.404-1.211-0.769-1.676-0.363-0.469-0.846-0.83-1.455-1.088-0.605-0.259-1.371-0.392-2.287-0.392-1.019 0-1.924 0.070-2.711 0.201zM107.194 8.457c-0.723 0.158-1.332 0.323-1.816 0.502v11.059h2.063v-9.706c0.118-0.029 0.368-0.085 0.744-0.166 0.377-0.081 0.763-0.124 1.15-0.124 0.18 0 0.278 0.001 0.459 0.010 1.016 0.041 1.825-0.509 2.155-1.473-0.087-0.029-0.226-0.063-0.411-0.102-0.183-0.034-0.386-0.073-0.609-0.11-0.221-0.036-0.447-0.065-0.675-0.089-0.231-0.021-0.434-0.033-0.612-0.033-0.905-0.001-1.72 0.078-2.446 0.232zM78.253 9.646c-0.83-0.971-2.021-1.455-3.576-1.455-0.665 0-1.319 0.127-1.952 0.377-0.638 0.25-1.2 0.628-1.69 1.132-0.488 0.503-0.881 1.137-1.174 1.899-0.297 0.764-0.445 1.654-0.445 2.676 0 0.873 0.115 1.676 0.346 2.41 0.228 0.731 0.58 1.365 1.053 1.899 0.477 0.533 1.077 0.952 1.81 1.254 0.733 0.305 1.603 0.455 2.607 0.455 0.802 0 1.517-0.073 2.145-0.221s1.070-0.289 1.321-0.421c-0.265-0.877-1.066-1.386-1.973-1.257-0.491 0.069-0.773 0.078-1.27 0.078-1.288 0-2.236-0.312-2.841-0.932-0.606-0.624-0.956-1.533-1.046-2.731h7.908c0.015-0.121 0.023-0.249 0.023-0.389v-0.345c-0.001-1.983-0.415-3.46-1.244-4.429zM71.613 13.143c0.041-0.399 0.137-0.792 0.275-1.176 0.143-0.385 0.338-0.725 0.591-1.022 0.252-0.297 0.558-0.536 0.92-0.722 0.366-0.184 0.781-0.275 1.254-0.275 0.846 0 1.51 0.298 1.987 0.898 0.481 0.601 0.716 1.365 0.701 2.298l-5.728-0.001zM82.461 9.091c-0.756 0.599-1.133 1.411-1.133 2.432 0 0.52 0.087 0.954 0.267 1.313 0.179 0.355 0.415 0.657 0.711 0.91 0.298 0.252 0.648 0.467 1.056 0.655s0.832 0.367 1.28 0.544c0.919 0.373 1.576 0.704 1.975 1.002 0.4 0.296 0.602 0.696 0.602 1.199 0 0.487-0.203 0.841-0.612 1.064-0.406 0.22-1.037 0.333-1.882 0.333-0.572 0-0.896-0.010-1.459-0.113-0.942-0.169-1.796 0.325-2.111 1.225 0.205 0.085 0.602 0.217 1.177 0.386s1.378 0.257 2.398 0.257c1.466 0 2.592-0.272 3.387-0.824 0.789-0.544 1.187-1.352 1.187-2.42 0-0.547-0.081-1.009-0.245-1.389-0.161-0.378-0.395-0.7-0.698-0.964-0.307-0.269-0.668-0.503-1.101-0.704-0.428-0.198-0.916-0.403-1.462-0.61-0.418-0.147-0.773-0.29-1.066-0.422s-0.544-0.276-0.747-0.432c-0.199-0.155-0.346-0.329-0.443-0.521-0.095-0.194-0.143-0.417-0.143-0.667 0-0.49 0.215-0.847 0.645-1.077 0.428-0.23 0.938-0.347 1.515-0.347 0.391 0 0.611 0.008 1 0.056 0.964 0.117 1.778-0.374 2.127-1.277-0.121-0.043-0.285-0.095-0.502-0.154-0.21-0.059-0.462-0.114-0.744-0.166-0.278-0.052-0.586-0.098-0.909-0.133-0.325-0.037-0.652-0.055-0.975-0.055-1.312-0.003-2.34 0.297-3.095 0.896zM121.431 10.844c-0.147-0.54-0.395-1.008-0.744-1.4-0.346-0.392-0.806-0.696-1.375-0.91-0.572-0.215-1.27-0.32-2.1-0.32-0.725 0-1.4 0.055-2.023 0.165-0.62 0.11-1.066 0.226-1.332 0.344 0.226 0.887 1.013 1.431 1.924 1.33 0.485-0.055 0.758-0.065 1.246-0.065 0.532 0 0.969 0.081 1.305 0.235 0.331 0.157 0.594 0.364 0.785 0.622 0.195 0.259 0.325 0.556 0.4 0.888 0.077 0.333 0.11 0.67 0.11 1.011v0.577c-0.059-0.014-0.16-0.033-0.312-0.067-0.147-0.029-0.322-0.062-0.521-0.098-0.201-0.037-0.411-0.067-0.631-0.088-0.223-0.023-0.44-0.033-0.645-0.033-0.655 0-1.277 0.067-1.866 0.201-0.594 0.136-1.112 0.341-1.558 0.623-0.443 0.28-0.795 0.652-1.052 1.111-0.261 0.459-0.388 1.005-0.388 1.642 0 0.667 0.11 1.236 0.329 1.711 0.223 0.476 0.536 0.855 0.936 1.144s0.873 0.499 1.419 0.632c0.547 0.133 1.147 0.201 1.801 0.201 0.459 0 0.921-0.021 1.386-0.056 0.467-0.036 0.902-0.077 1.302-0.121 0.397-0.044 0.758-0.092 1.077-0.144 0.315-0.051 0.565-0.089 0.744-0.122v-7.222c0.005-0.653-0.070-1.247-0.217-1.789zM119.631 18.406c-0.253 0.059-0.566 0.1-0.943 0.122-0.378 0.025-0.811 0.032-1.299 0.032-0.817 0-1.459-0.143-1.929-0.43-0.48-0.287-0.714-0.804-0.714-1.544 0-0.4 0.096-0.721 0.29-0.967 0.191-0.245 0.432-0.436 0.719-0.577 0.29-0.143 0.605-0.232 0.952-0.276 0.349-0.041 0.679-0.067 0.993-0.067 0.473 0 0.879 0.029 1.211 0.080 0.33 0.051 0.572 0.115 0.718 0.188l0.003 3.44zM91.455 6.977v8.338c0 0.773 0.059 1.442 0.186 2.025 0.124 0.587 0.341 1.077 0.656 1.478 0.311 0.4 0.719 0.7 1.232 0.899 0.513 0.201 1.16 0.3 1.944 0.3h2.86c0-1.002-0.815-1.818-1.818-1.818h-0.865c-0.355 0-0.668-0.041-0.934-0.133-0.264-0.085-0.487-0.241-0.667-0.457-0.175-0.213-0.311-0.51-0.397-0.888-0.088-0.377-0.132-0.851-0.132-1.429v-5.078h2.64c0.957 0 1.73-0.773 1.73-1.731h-4.37v-3.569c-1.141 0-2.065 0.924-2.065 2.063zM42.247 10.547v9.471c1.139 0 2.063-0.924 2.063-2.063v-9.471c-1.14 0-2.063 0.924-2.063 2.063zM41.944 5.038c0 0.736 0.598 1.334 1.335 1.334 0.736 0 1.335-0.598 1.335-1.334 0-0.737-0.599-1.335-1.335-1.335-0.738 0-1.335 0.597-1.335 1.335zM100.169 10.547v9.471c1.141 0 2.063-0.924 2.063-2.063v-9.471c-1.138 0-2.063 0.924-2.063 2.063zM99.867 5.038c0 0.736 0.598 1.334 1.334 1.334 0.738 0 1.335-0.598 1.335-1.334 0-0.737-0.597-1.335-1.335-1.335-0.736 0-1.334 0.597-1.334 1.335z"></path>
</svg>
