<!-- Generated by IcoMoon.io -->
<svg version="1.1" xmlns="http://www.w3.org/2000/svg" width="37" height="24" viewBox="0 0 37 24">
<title>investira_v</title>
<path fill="#444" d="M14.846 3.362c0-0.816 0.66-1.477 1.477-1.477h6.201v6.201c0 0.816-0.66 1.477-1.477 1.477h-6.201v-6.201zM16.322 1c-1.305 0-2.363 1.057-2.363 2.362v7.087h7.087c1.305 0 2.362-1.057 2.362-2.362v-7.087h-7.087zM20.481 2.772c-0.426 0-0.724 0.155-0.969 0.504l-3.781 5.402h1.156c0.425 0 0.723-0.155 0.968-0.503l3.782-5.403h-1.156zM12.734 17.928c-0.419 0-0.74 0.245-0.853 0.647-0.038 0.137-0.061 0.212-0.102 0.35-0.122 0.41-0.195 0.641-0.333 1.047-0.135 0.395-0.211 0.615-0.357 1.005-0.128 0.341-0.201 0.532-0.343 0.868-0.143-0.335-0.217-0.526-0.344-0.868-0.145-0.39-0.223-0.61-0.357-1.005-0.138-0.406-0.211-0.637-0.334-1.047-0.040-0.136-0.063-0.211-0.101-0.35-0.113-0.403-0.435-0.647-0.852-0.647h-0.27c0.283 1.059 0.472 1.647 0.872 2.668 0.354 0.902 0.56 1.406 0.967 2.286h0.838c0.406-0.88 0.614-1.384 0.967-2.286 0.4-1.021 0.588-1.609 0.872-2.668h-0.272zM4.732 17.903c-0.337 0.058-0.608 0.112-0.81 0.162v4.816h0.888v-4.189c0.031-0.006 0.083-0.014 0.157-0.028s0.157-0.024 0.248-0.034c0.092-0.011 0.19-0.018 0.292-0.024s0.2-0.009 0.295-0.009c0.236 0 0.432 0.030 0.592 0.090 0.158 0.061 0.286 0.158 0.382 0.291 0.094 0.134 0.162 0.308 0.204 0.525s0.062 0.478 0.062 0.782v2.596h0.888v-2.786c0-0.337-0.033-0.645-0.096-0.925-0.064-0.281-0.174-0.52-0.33-0.72-0.156-0.202-0.364-0.357-0.625-0.467-0.26-0.112-0.589-0.168-0.982-0.168-0.439 0.002-0.827 0.032-1.165 0.089zM29.584 17.917c-0.311 0.068-0.573 0.138-0.781 0.216v4.75h0.887v-4.169c0.051-0.012 0.158-0.037 0.32-0.071s0.328-0.053 0.493-0.053c0.078 0 0.12 0 0.197 0.004 0.438 0.018 0.784-0.218 0.927-0.632-0.038-0.012-0.097-0.028-0.177-0.044-0.079-0.014-0.167-0.031-0.261-0.047-0.096-0.015-0.193-0.028-0.291-0.038-0.099-0.009-0.186-0.013-0.262-0.013-0.389-0.002-0.739 0.031-1.050 0.099zM17.17 18.426c-0.356-0.416-0.868-0.624-1.536-0.624-0.286 0-0.566 0.054-0.839 0.161s-0.516 0.269-0.725 0.486c-0.21 0.216-0.379 0.488-0.506 0.816s-0.191 0.71-0.191 1.149c0 0.375 0.049 0.72 0.148 1.036 0.098 0.315 0.25 0.586 0.453 0.816s0.462 0.408 0.777 0.539c0.315 0.131 0.688 0.195 1.12 0.195 0.345 0 0.652-0.031 0.922-0.095s0.459-0.125 0.568-0.181c-0.115-0.377-0.458-0.596-0.848-0.54-0.211 0.030-0.333 0.034-0.546 0.034-0.553 0-0.96-0.134-1.22-0.4-0.26-0.268-0.41-0.659-0.449-1.173h3.397c0.006-0.052 0.010-0.106 0.010-0.167v-0.149c-0.001-0.851-0.179-1.485-0.535-1.902zM14.318 19.928c0.018-0.171 0.059-0.34 0.119-0.505s0.145-0.311 0.254-0.438c0.108-0.129 0.24-0.232 0.395-0.31 0.157-0.080 0.335-0.118 0.539-0.118 0.363 0 0.648 0.128 0.855 0.386 0.206 0.258 0.307 0.586 0.301 0.986l-2.462-0.001zM18.978 18.188c-0.325 0.258-0.487 0.607-0.487 1.046 0 0.223 0.037 0.409 0.114 0.563 0.076 0.152 0.178 0.283 0.306 0.391s0.278 0.202 0.454 0.282c0.175 0.080 0.357 0.158 0.549 0.234 0.395 0.159 0.677 0.302 0.849 0.431 0.172 0.127 0.258 0.299 0.258 0.514 0 0.21-0.086 0.362-0.262 0.458-0.175 0.095-0.445 0.143-0.809 0.143-0.246 0-0.385-0.004-0.627-0.048-0.403-0.073-0.771 0.139-0.905 0.526 0.087 0.037 0.258 0.093 0.505 0.166s0.592 0.11 1.031 0.11c0.629 0 1.113-0.116 1.455-0.353 0.339-0.234 0.51-0.581 0.51-1.039 0-0.235-0.035-0.433-0.106-0.597-0.069-0.163-0.169-0.3-0.3-0.413-0.132-0.115-0.287-0.216-0.473-0.302-0.184-0.086-0.393-0.173-0.628-0.262-0.179-0.063-0.331-0.125-0.457-0.182s-0.234-0.119-0.321-0.185c-0.086-0.067-0.149-0.141-0.19-0.224s-0.061-0.18-0.061-0.286c0-0.211 0.092-0.364 0.277-0.462 0.184-0.099 0.404-0.149 0.652-0.149 0.168 0 0.263 0.004 0.43 0.024 0.413 0.050 0.764-0.161 0.914-0.549-0.052-0.018-0.122-0.040-0.216-0.066-0.092-0.025-0.198-0.050-0.319-0.071-0.12-0.023-0.252-0.043-0.39-0.058s-0.28-0.023-0.419-0.023c-0.566-0.002-1.008 0.126-1.332 0.383zM22.823 17.281v3.581c0 0.332 0.025 0.62 0.080 0.871 0.053 0.252 0.146 0.462 0.281 0.634s0.309 0.302 0.529 0.386c0.22 0.086 0.498 0.129 0.835 0.129h1.229c0-0.431-0.35-0.78-0.781-0.78h-0.372c-0.152 0-0.287-0.018-0.401-0.058-0.113-0.037-0.209-0.103-0.286-0.196-0.075-0.090-0.133-0.219-0.171-0.382-0.038-0.162-0.057-0.365-0.057-0.613v-2.181h1.134c0.411 0 0.743-0.332 0.743-0.744h-1.877v-1.534c-0.49 0.002-0.886 0.399-0.886 0.888zM1.687 18.814v4.069c0.489 0 0.886-0.397 0.886-0.886v-4.069c-0.49 0-0.886 0.397-0.886 0.886zM1.556 16.448c0 0.316 0.256 0.572 0.573 0.572s0.573-0.256 0.573-0.572c0-0.317-0.256-0.573-0.573-0.573s-0.573 0.256-0.573 0.573zM26.566 18.814v4.069c0.49 0 0.886-0.397 0.886-0.886v-4.069c-0.489 0-0.886 0.397-0.886 0.886zM26.436 16.448c0 0.316 0.258 0.572 0.573 0.572 0.317 0 0.574-0.256 0.574-0.572 0-0.317-0.257-0.573-0.574-0.573-0.315 0.001-0.573 0.256-0.573 0.573zM35.492 22.862c0.136-0.022 0.243-0.038 0.32-0.052v-3.101c0-0.281-0.032-0.535-0.095-0.768-0.063-0.232-0.17-0.432-0.32-0.601s-0.347-0.299-0.591-0.391c-0.245-0.092-0.546-0.137-0.901-0.137-0.311 0-0.602 0.023-0.869 0.070-0.266 0.047-0.457 0.097-0.573 0.148 0.098 0.381 0.436 0.615 0.827 0.571 0.209-0.023 0.325-0.028 0.535-0.028 0.229 0 0.416 0.035 0.56 0.102 0.142 0.067 0.256 0.156 0.337 0.266 0.084 0.112 0.14 0.239 0.172 0.382 0.033 0.143 0.048 0.288 0.048 0.434v0.247c-0.025-0.006-0.069-0.014-0.134-0.029-0.063-0.012-0.138-0.027-0.224-0.041-0.086-0.017-0.177-0.030-0.272-0.039s-0.188-0.014-0.278-0.014c-0.28 0-0.547 0.029-0.8 0.086-0.255 0.058-0.478 0.146-0.669 0.267-0.19 0.121-0.341 0.28-0.452 0.477s-0.167 0.432-0.167 0.705c0 0.287 0.047 0.532 0.142 0.735 0.096 0.205 0.229 0.368 0.401 0.491 0.172 0.125 0.376 0.214 0.611 0.272s0.493 0.086 0.773 0.086c0.197 0 0.396-0.009 0.595-0.024 0.201-0.014 0.387-0.032 0.559-0.052 0.174-0.019 0.328-0.040 0.464-0.063zM32.97 20.992c0.082-0.105 0.185-0.187 0.308-0.248 0.125-0.061 0.26-0.099 0.409-0.119 0.15-0.018 0.292-0.029 0.426-0.029 0.203 0 0.378 0.012 0.52 0.034s0.246 0.050 0.309 0.081v1.479c-0.109 0.025-0.243 0.044-0.406 0.053s-0.347 0.013-0.557 0.013c-0.351 0-0.627-0.061-0.83-0.185-0.205-0.123-0.305-0.345-0.305-0.663 0.001-0.172 0.042-0.311 0.125-0.416z"></path>
</svg>
