<!-- Generated by IcoMoon.io -->
<svg version="1.1" xmlns="http://www.w3.org/2000/svg" width="208" height="32" viewBox="0 0 208 32">
<title>investira_h_biz</title>
<path d="M196.246 11.122h9.842c0.956 0 1.642 1.502 1.018 2.224-0.414 0.48-0.902 1.066-1.46 1.768-0.788 0.982-1.628 2.078-2.524 3.288-0.892 1.206-1.778 2.464-2.654 3.774-0.876 1.316-1.648 2.558-2.31 3.73h9.708c0 0.97-0.79 1.758-1.76 1.758h-8.994c-0.864 0-1.542-1.14-1.128-1.902v0.004c0.51-0.942 1.124-1.964 1.838-3.068 0.816-1.262 1.664-2.504 2.546-3.724 0.882-1.222 1.742-2.37 2.58-3.442 0.84-1.074 1.54-1.954 2.102-2.648h-7.042c-0.974-0.004-1.762-0.792-1.762-1.762zM191.138 4.646c-0.828 0-1.5 0.672-1.5 1.5s0.672 1.5 1.5 1.5c0.83 0 1.5-0.672 1.5-1.5s-0.67-1.5-1.5-1.5zM190.098 13.202v14.46c1.148 0 2.080-0.93 2.080-2.078v-14.462c-1.148 0-2.080 0.928-2.080 2.080zM185.876 15.954c0.33 1.054 0.496 2.212 0.496 3.47 0 1.344-0.198 2.55-0.592 3.618-0.396 1.066-0.95 1.972-1.664 2.718-0.714 0.748-1.568 1.316-2.56 1.714-0.992 0.392-2.096 0.59-3.312 0.59-1.47 0-2.688-0.094-3.648-0.29-0.958-0.192-1.748-0.394-2.368-0.608v-22.238c0-1.148 0.932-2.080 2.080-2.080v9.282c0.364-0.278 0.944-0.57 1.744-0.88 0.8-0.308 1.744-0.464 2.832-0.464 1.194 0 2.256 0.214 3.184 0.64 0.928 0.428 1.712 1.024 2.352 1.794 0.64 0.764 1.124 1.674 1.456 2.734zM182.534 24.432c1.088-1.162 1.63-2.832 1.63-5.008 0-0.916-0.096-1.786-0.288-2.608-0.194-0.82-0.502-1.538-0.928-2.144-0.428-0.61-0.988-1.092-1.68-1.454-0.694-0.366-1.552-0.546-2.576-0.546-0.492 0-0.96 0.050-1.408 0.144-0.45 0.096-0.866 0.218-1.248 0.368-0.384 0.15-0.72 0.308-1.008 0.48s-0.53 0.332-0.72 0.48v11.584c0.32 0.108 0.794 0.208 1.424 0.302 0.628 0.1 1.458 0.144 2.48 0.144 1.792 0.002 3.234-0.578 4.322-1.742zM8.042 0c-4.418 0-8 3.58-8 8v24h24c4.418 0 8-3.582 8-8v-24h-24zM13.234 24.294c-0.828 1.184-1.836 1.708-3.278 1.708h-3.914l12.808-18.296c0.83-1.182 1.838-1.706 3.278-1.706h3.914l-12.808 18.294zM89.412 10.89c-1.418 0-2.504 0.828-2.886 2.192-0.128 0.464-0.208 0.718-0.344 1.184-0.414 1.39-0.66 2.172-1.128 3.546-0.454 1.336-0.714 2.082-1.208 3.402-0.434 1.156-0.68 1.802-1.16 2.938-0.484-1.136-0.734-1.782-1.164-2.938-0.492-1.32-0.758-2.066-1.21-3.402-0.464-1.376-0.714-2.156-1.128-3.546-0.136-0.464-0.21-0.718-0.34-1.184-0.386-1.364-1.472-2.192-2.886-2.192h-0.918c0.958 3.586 1.598 5.578 2.954 9.036 1.2 3.054 1.894 4.762 3.274 7.744h2.84c1.376-2.98 2.078-4.69 3.274-7.744 1.356-3.458 1.992-5.45 2.95-9.036h-0.92zM62.314 10.804c-1.136 0.196-2.054 0.378-2.742 0.55v16.314h3.004v-14.184c0.11-0.020 0.286-0.050 0.532-0.094 0.25-0.042 0.532-0.082 0.84-0.114 0.312-0.036 0.644-0.062 0.988-0.082 0.344-0.024 0.676-0.032 1-0.032 0.796 0 1.464 0.102 2.004 0.304 0.536 0.208 0.968 0.536 1.292 0.984 0.32 0.454 0.55 1.046 0.696 1.778 0.136 0.734 0.208 1.618 0.208 2.648v8.79h3.008v-9.432c0-1.14-0.114-2.184-0.324-3.132-0.214-0.95-0.59-1.762-1.118-2.438-0.528-0.684-1.23-1.208-2.118-1.582-0.878-0.378-1.992-0.57-3.324-0.57-1.484-0.002-2.802 0.1-3.946 0.292zM146.47 10.85c-1.054 0.23-1.938 0.468-2.644 0.73v16.086h3v-14.116c0.172-0.042 0.536-0.124 1.082-0.242 0.55-0.118 1.11-0.18 1.672-0.18 0.262 0 0.406 0 0.668 0.012 1.48 0.062 2.656-0.738 3.136-2.14-0.128-0.042-0.328-0.094-0.598-0.148-0.266-0.050-0.562-0.106-0.886-0.16s-0.652-0.094-0.984-0.132c-0.336-0.028-0.632-0.046-0.89-0.046-1.314-0.004-2.5 0.11-3.556 0.336zM104.436 12.578c-1.208-1.41-2.942-2.114-5.2-2.114-0.968 0-1.918 0.184-2.844 0.546s-1.746 0.914-2.452 1.65c-0.714 0.73-1.282 1.652-1.714 2.762-0.43 1.11-0.644 2.406-0.644 3.89 0 1.27 0.164 2.438 0.5 3.506 0.332 1.068 0.848 1.986 1.536 2.764 0.688 0.774 1.566 1.382 2.632 1.824s2.328 0.66 3.792 0.66c1.168 0 2.204-0.106 3.118-0.32 0.914-0.218 1.558-0.422 1.922-0.614-0.386-1.274-1.55-2.016-2.868-1.828-0.714 0.102-1.128 0.114-1.848 0.114-1.876 0-3.25-0.454-4.132-1.356-0.882-0.906-1.39-2.232-1.52-3.974h11.5c0.020-0.176 0.032-0.36 0.032-0.566v-0.504c-0.002-2.882-0.604-5.030-1.81-6.44zM94.78 17.664c0.062-0.578 0.196-1.152 0.402-1.71 0.204-0.558 0.492-1.054 0.86-1.484 0.364-0.434 0.812-0.782 1.336-1.050 0.528-0.27 1.136-0.402 1.824-0.402 1.23 0 2.192 0.434 2.894 1.308 0.696 0.872 1.040 1.984 1.020 3.34h-8.336zM110.556 11.768c-1.098 0.872-1.648 2.054-1.648 3.54 0 0.754 0.128 1.386 0.39 1.906 0.258 0.516 0.602 0.958 1.032 1.324 0.434 0.368 0.942 0.684 1.536 0.954s1.21 0.532 1.86 0.79c1.336 0.54 2.292 1.024 2.872 1.458 0.582 0.43 0.876 1.010 0.876 1.744 0 0.71-0.296 1.226-0.89 1.55-0.59 0.32-1.508 0.484-2.738 0.484-0.832 0-1.304-0.012-2.122-0.164-1.364-0.246-2.61 0.472-3.070 1.782 0.3 0.124 0.876 0.316 1.714 0.562 0.836 0.246 2.004 0.372 3.488 0.372 2.132 0 3.77-0.394 4.926-1.196 1.148-0.792 1.726-1.968 1.726-3.52 0-0.798-0.118-1.47-0.356-2.020-0.234-0.55-0.574-1.016-1.016-1.402-0.446-0.39-0.972-0.73-1.602-1.020-0.622-0.29-1.332-0.586-2.128-0.89-0.606-0.214-1.122-0.422-1.55-0.614s-0.792-0.402-1.086-0.628c-0.29-0.226-0.504-0.476-0.644-0.758s-0.21-0.606-0.21-0.968c0-0.714 0.312-1.234 0.938-1.566 0.624-0.336 1.368-0.504 2.208-0.504 0.57 0 0.89 0.012 1.454 0.082 1.402 0.168 2.586-0.546 3.094-1.86-0.176-0.062-0.414-0.136-0.73-0.222-0.308-0.086-0.672-0.168-1.082-0.242-0.406-0.078-0.852-0.144-1.324-0.196-0.472-0.054-0.946-0.078-1.418-0.078-1.906-0.004-3.402 0.43-4.5 1.3zM123.576 8.698v12.128c0 1.122 0.086 2.096 0.27 2.946 0.18 0.852 0.496 1.566 0.954 2.148 0.45 0.582 1.046 1.020 1.79 1.308 0.746 0.292 1.688 0.438 2.828 0.438h4.16c0-1.46-1.184-2.644-2.644-2.644h-1.258c-0.516 0-0.972-0.062-1.356-0.196-0.386-0.124-0.71-0.348-0.972-0.664-0.254-0.308-0.45-0.742-0.578-1.292s-0.192-1.238-0.192-2.078v-7.382h3.84c1.394 0 2.516-1.124 2.516-2.52h-6.356v-5.192c-1.658 0-3.002 1.344-3.002 3zM52.004 13.89v13.778c1.654 0 3.002-1.344 3.002-3v-13.778c-1.658 0-3.002 1.344-3.002 3zM51.562 5.878c0 1.070 0.868 1.938 1.938 1.938 1.072 0 1.944-0.868 1.944-1.938 0-1.074-0.872-1.942-1.944-1.942-1.070 0-1.938 0.868-1.938 1.942zM136.252 13.89v13.778c1.66 0 3-1.344 3-3v-13.778c-1.656 0-3 1.344-3 3zM135.814 5.878c0 1.070 0.868 1.938 1.938 1.938 1.074 0 1.942-0.868 1.942-1.938 0-1.074-0.868-1.942-1.942-1.942-1.070 0-1.938 0.868-1.938 1.942zM166.482 27.598c0.46-0.074 0.824-0.132 1.082-0.176v-10.502c0-0.95-0.11-1.812-0.324-2.602-0.214-0.786-0.574-1.464-1.082-2.036-0.504-0.57-1.172-1.012-2-1.324-0.832-0.312-1.848-0.464-3.054-0.464-1.054 0-2.036 0.078-2.942 0.238-0.902 0.16-1.55 0.328-1.938 0.5 0.328 1.29 1.476 2.082 2.8 1.934 0.704-0.078 1.102-0.094 1.812-0.094 0.774 0 1.41 0.118 1.898 0.344 0.486 0.228 0.866 0.528 1.146 0.904 0.282 0.378 0.472 0.808 0.582 1.292s0.16 0.976 0.16 1.472v0.836c-0.086-0.020-0.234-0.050-0.454-0.098-0.214-0.040-0.468-0.090-0.758-0.14-0.292-0.058-0.598-0.098-0.918-0.132-0.324-0.032-0.64-0.046-0.938-0.046-0.95 0-1.856 0.098-2.714 0.29-0.864 0.196-1.618 0.496-2.266 0.906-0.644 0.41-1.156 0.946-1.528 1.614-0.382 0.668-0.566 1.464-0.566 2.39 0 0.974 0.16 1.802 0.48 2.49 0.324 0.692 0.778 1.246 1.36 1.664 0.582 0.422 1.27 0.726 2.066 0.922 0.796 0.192 1.668 0.29 2.618 0.29 0.668 0 1.34-0.028 2.016-0.082 0.68-0.050 1.312-0.11 1.894-0.176 0.58-0.066 1.104-0.136 1.568-0.214zM157.94 21.264c0.278-0.356 0.628-0.636 1.046-0.84 0.422-0.208 0.882-0.336 1.386-0.402 0.508-0.062 0.988-0.098 1.442-0.098 0.688 0 1.278 0.040 1.762 0.114 0.48 0.074 0.832 0.168 1.046 0.274v5.008c-0.368 0.086-0.824 0.148-1.372 0.18-0.55 0.032-1.18 0.046-1.89 0.046-1.188 0-2.122-0.208-2.808-0.628-0.696-0.418-1.036-1.168-1.036-2.248 0.002-0.582 0.142-1.050 0.424-1.406z"></path>
</svg>
