<!-- Generated by IcoMoon.io -->
<svg version="1.1" xmlns="http://www.w3.org/2000/svg" width="208" height="32" viewBox="0 0 208 32">
<title>investira_h_biz</title>
<path d="M165.957 12.723h6.613c0.642 0 1.103 1.009 0.684 1.494-0.278 0.322-0.606 0.716-0.981 1.188-0.529 0.66-1.094 1.396-1.696 2.209-0.599 0.81-1.195 1.655-1.783 2.536-0.589 0.884-1.107 1.719-1.552 2.506h6.523c0 0.652-0.531 1.181-1.183 1.181h-6.043c-0.581 0-1.036-0.766-0.758-1.278v0.003c0.343-0.633 0.755-1.32 1.235-2.061 0.548-0.848 1.118-1.682 1.711-2.502 0.593-0.821 1.17-1.592 1.733-2.313 0.564-0.722 1.035-1.313 1.412-1.779h-4.731c-0.654-0.003-1.184-0.532-1.184-1.184zM162.525 8.372c-0.556 0-1.008 0.451-1.008 1.008s0.452 1.008 1.008 1.008c0.558 0 1.008-0.451 1.008-1.008s-0.45-1.008-1.008-1.008zM161.827 14.12v9.715c0.771 0 1.398-0.625 1.398-1.396v-9.717c-0.771 0-1.398 0.623-1.398 1.398zM158.99 15.969c0.222 0.708 0.333 1.486 0.333 2.331 0 0.903-0.133 1.713-0.398 2.431-0.266 0.716-0.638 1.325-1.118 1.826-0.48 0.503-1.054 0.884-1.72 1.152-0.667 0.263-1.408 0.396-2.225 0.396-0.988 0-1.806-0.063-2.451-0.195-0.644-0.129-1.174-0.265-1.591-0.409v-14.941c0-0.771 0.626-1.397 1.398-1.397v6.236c0.245-0.187 0.634-0.383 1.172-0.591 0.537-0.207 1.172-0.312 1.903-0.312 0.802 0 1.516 0.144 2.139 0.43 0.624 0.288 1.15 0.688 1.58 1.205 0.43 0.513 0.755 1.125 0.978 1.837zM156.745 21.665c0.731-0.781 1.095-1.903 1.095-3.365 0-0.615-0.065-1.2-0.194-1.752-0.13-0.551-0.337-1.033-0.624-1.441-0.288-0.41-0.664-0.734-1.129-0.977-0.466-0.246-1.043-0.367-1.731-0.367-0.331 0-0.645 0.034-0.946 0.097-0.302 0.065-0.582 0.146-0.839 0.247-0.258 0.101-0.484 0.207-0.677 0.322s-0.356 0.223-0.484 0.322v7.783c0.215 0.073 0.533 0.14 0.957 0.203 0.422 0.067 0.98 0.097 1.666 0.097 1.204 0.001 2.173-0.388 2.904-1.17zM39.508 5.25c-2.968 0-5.375 2.405-5.375 5.375v16.125h16.125c2.968 0 5.375-2.407 5.375-5.375v-16.125h-16.125zM42.996 21.573c-0.556 0.796-1.234 1.148-2.202 1.148h-2.63l8.605-12.293c0.558-0.794 1.235-1.146 2.202-1.146h2.63l-8.605 12.291zM94.178 12.567c-0.953 0-1.682 0.556-1.939 1.473-0.086 0.312-0.14 0.482-0.231 0.796-0.278 0.934-0.443 1.459-0.758 2.382-0.305 0.898-0.48 1.399-0.812 2.286-0.292 0.777-0.457 1.211-0.779 1.974-0.325-0.763-0.493-1.197-0.782-1.974-0.331-0.887-0.509-1.388-0.813-2.286-0.312-0.924-0.48-1.449-0.758-2.382-0.091-0.312-0.141-0.482-0.228-0.796-0.259-0.916-0.989-1.473-1.939-1.473h-0.617c0.644 2.409 1.074 3.748 1.985 6.071 0.806 2.052 1.273 3.199 2.2 5.203h1.908c0.924-2.002 1.396-3.151 2.2-5.203 0.911-2.323 1.338-3.662 1.982-6.071h-0.618zM75.972 12.509c-0.763 0.132-1.38 0.254-1.842 0.37v10.961h2.018v-9.53c0.074-0.013 0.192-0.034 0.357-0.063 0.168-0.028 0.357-0.055 0.564-0.077 0.21-0.024 0.433-0.042 0.664-0.055 0.231-0.016 0.454-0.021 0.672-0.021 0.535 0 0.984 0.069 1.346 0.204 0.36 0.14 0.65 0.36 0.868 0.661 0.215 0.305 0.37 0.703 0.468 1.195 0.091 0.493 0.14 1.087 0.14 1.779v5.906h2.021v-6.337c0-0.766-0.077-1.467-0.218-2.104-0.144-0.638-0.396-1.184-0.751-1.638-0.355-0.46-0.826-0.812-1.423-1.063-0.59-0.254-1.338-0.383-2.233-0.383-0.997-0.001-1.883 0.067-2.651 0.196zM132.514 12.54c-0.708 0.155-1.302 0.314-1.776 0.49v10.808h2.016v-9.484c0.116-0.028 0.36-0.083 0.727-0.163 0.37-0.079 0.746-0.121 1.123-0.121 0.176 0 0.273 0 0.449 0.008 0.994 0.042 1.785-0.496 2.107-1.438-0.086-0.028-0.22-0.063-0.402-0.099-0.179-0.034-0.378-0.071-0.595-0.107s-0.438-0.063-0.661-0.089c-0.226-0.019-0.425-0.031-0.598-0.031-0.883-0.003-1.68 0.074-2.389 0.226zM104.273 13.701c-0.812-0.947-1.977-1.42-3.494-1.42-0.65 0-1.289 0.124-1.911 0.367s-1.173 0.614-1.647 1.109c-0.48 0.49-0.861 1.11-1.152 1.856-0.289 0.746-0.433 1.617-0.433 2.614 0 0.853 0.11 1.638 0.336 2.356 0.223 0.718 0.57 1.334 1.032 1.857 0.462 0.52 1.052 0.929 1.768 1.226s1.564 0.443 2.548 0.443c0.785 0 1.481-0.071 2.095-0.215 0.614-0.146 1.047-0.284 1.291-0.413-0.259-0.856-1.041-1.355-1.927-1.228-0.48 0.069-0.758 0.077-1.242 0.077-1.26 0-2.184-0.305-2.776-0.911-0.593-0.609-0.934-1.5-1.021-2.67h7.727c0.013-0.118 0.022-0.242 0.022-0.38v-0.339c-0.001-1.936-0.406-3.38-1.216-4.327zM97.785 17.118c0.042-0.388 0.132-0.774 0.27-1.149 0.137-0.375 0.331-0.708 0.578-0.997 0.245-0.292 0.546-0.525 0.898-0.705 0.355-0.181 0.763-0.27 1.225-0.27 0.826 0 1.473 0.292 1.944 0.879 0.468 0.586 0.699 1.333 0.685 2.244h-5.601zM108.384 13.157c-0.738 0.586-1.107 1.38-1.107 2.378 0 0.507 0.086 0.931 0.262 1.281 0.173 0.347 0.404 0.644 0.693 0.89 0.292 0.247 0.633 0.46 1.032 0.641s0.813 0.357 1.25 0.531c0.898 0.363 1.54 0.688 1.93 0.98 0.391 0.289 0.589 0.679 0.589 1.172 0 0.477-0.199 0.824-0.598 1.041-0.396 0.215-1.013 0.325-1.84 0.325-0.559 0-0.876-0.008-1.426-0.11-0.916-0.165-1.754 0.317-2.063 1.197 0.202 0.083 0.589 0.212 1.152 0.378 0.562 0.165 1.346 0.25 2.344 0.25 1.432 0 2.533-0.265 3.31-0.804 0.771-0.532 1.16-1.322 1.16-2.365 0-0.536-0.079-0.988-0.239-1.357-0.157-0.37-0.386-0.683-0.683-0.942-0.3-0.262-0.653-0.49-1.076-0.685-0.418-0.195-0.895-0.394-1.43-0.598-0.407-0.144-0.754-0.284-1.041-0.413s-0.532-0.27-0.73-0.422c-0.195-0.152-0.339-0.32-0.433-0.509s-0.141-0.407-0.141-0.65c0-0.48 0.21-0.829 0.63-1.052 0.419-0.226 0.919-0.339 1.484-0.339 0.383 0 0.598 0.008 0.977 0.055 0.942 0.113 1.737-0.367 2.079-1.25-0.118-0.042-0.278-0.091-0.49-0.149-0.207-0.058-0.451-0.113-0.727-0.163-0.273-0.052-0.572-0.097-0.89-0.132-0.317-0.036-0.636-0.052-0.953-0.052-1.281-0.003-2.286 0.289-3.023 0.873zM117.132 11.094v8.149c0 0.754 0.058 1.408 0.181 1.979 0.121 0.572 0.333 1.052 0.641 1.443 0.302 0.391 0.703 0.685 1.203 0.879 0.501 0.196 1.134 0.294 1.9 0.294h2.795c0-0.981-0.796-1.776-1.776-1.776h-0.845c-0.347 0-0.653-0.042-0.911-0.132-0.259-0.083-0.477-0.234-0.653-0.446-0.171-0.207-0.302-0.499-0.388-0.868s-0.129-0.832-0.129-1.396v-4.96h2.58c0.937 0 1.69-0.755 1.69-1.693h-4.27v-3.488c-1.114 0-2.017 0.903-2.017 2.016zM69.045 14.582v9.257c1.111 0 2.017-0.903 2.017-2.016v-9.257c-1.114 0-2.017 0.903-2.017 2.016zM68.748 9.199c0 0.719 0.583 1.302 1.302 1.302 0.72 0 1.306-0.583 1.306-1.302 0-0.722-0.586-1.305-1.306-1.305-0.719 0-1.302 0.583-1.302 1.305zM125.649 14.582v9.257c1.115 0 2.016-0.903 2.016-2.016v-9.257c-1.113 0-2.016 0.903-2.016 2.016zM125.355 9.199c0 0.719 0.583 1.302 1.302 1.302 0.722 0 1.305-0.583 1.305-1.302 0-0.722-0.583-1.305-1.305-1.305-0.719 0-1.302 0.583-1.302 1.305zM145.96 23.792c0.309-0.050 0.554-0.089 0.727-0.118v-7.056c0-0.638-0.074-1.217-0.218-1.748-0.144-0.528-0.386-0.984-0.727-1.368-0.339-0.383-0.787-0.68-1.344-0.89-0.559-0.21-1.242-0.312-2.052-0.312-0.708 0-1.368 0.052-1.977 0.16-0.606 0.107-1.041 0.22-1.302 0.336 0.22 0.867 0.992 1.399 1.881 1.299 0.473-0.052 0.74-0.063 1.217-0.063 0.52 0 0.947 0.079 1.275 0.231 0.327 0.153 0.582 0.355 0.77 0.607 0.189 0.254 0.317 0.543 0.391 0.868s0.107 0.656 0.107 0.989v0.562c-0.058-0.013-0.157-0.034-0.305-0.066-0.144-0.027-0.314-0.060-0.509-0.094-0.196-0.039-0.402-0.066-0.617-0.089-0.218-0.021-0.43-0.031-0.63-0.031-0.638 0-1.247 0.066-1.823 0.195-0.581 0.132-1.087 0.333-1.522 0.609-0.433 0.275-0.777 0.636-1.027 1.084-0.257 0.449-0.38 0.984-0.38 1.606 0 0.654 0.107 1.211 0.322 1.673 0.218 0.465 0.523 0.837 0.914 1.118 0.391 0.284 0.853 0.488 1.388 0.619 0.535 0.129 1.121 0.195 1.759 0.195 0.449 0 0.9-0.019 1.355-0.055 0.457-0.034 0.881-0.074 1.273-0.118 0.39-0.044 0.742-0.091 1.054-0.144zM140.221 19.537c0.187-0.239 0.422-0.427 0.703-0.564 0.284-0.14 0.593-0.226 0.931-0.27 0.341-0.042 0.664-0.066 0.969-0.066 0.462 0 0.859 0.027 1.184 0.077 0.322 0.050 0.559 0.113 0.703 0.184v3.365c-0.247 0.058-0.554 0.099-0.922 0.121-0.37 0.021-0.793 0.031-1.27 0.031-0.798 0-1.426-0.14-1.887-0.422-0.468-0.281-0.696-0.785-0.696-1.51 0.001-0.391 0.095-0.705 0.285-0.945z"></path>
</svg>
