<!-- Generated by IcoMoon.io -->
<svg version="1.1" xmlns="http://www.w3.org/2000/svg" width="32" height="32" viewBox="0 0 32 32">
<title>investiment</title>
<path d="M16.529 22.953c-0.661 0.099-1.543 0.153-2.611 0.153-0.252 0-0.536-0.005-0.823-0.024-0.439-0.076-0.767-0.289-1.003-0.7l-0.707-1.279c0.315 0.024 1.704 0.143 2.547 0.143 0.948 0 1.724-0.041 2.305-0.14 0.172-0.028 0.304-0.071 0.404-0.145l-4.309-1.552c-0.361-0.115-0.769-0.172-1.201-0.172-1.532 0-2.964 0.693-3.121 0.773l-4.012 2.415c-0.44 0.245-0.849 0.271-1.32 0.055l-1.344-0.601c0 0-0.013-0.016 0.025-0.039l5.72-3.461c0.195-0.096 1.971-1.008 4.067-1.008 0.613 0 1.192 0.083 1.721 0.237l5.276 1.596c0.363 0.115 0.621 0.432 0.661 0.809 0.093 1.023-0.431 2.64-2.276 2.94zM30.549 17.891c-0.384-0.695-1.275-1.511-2.531-1.511-0.449 0-0.921 0.107-1.403 0.317-0.949 0.424-3.464 1.623-5.076 2.396-0.367 0.235-0.917 0.683-0.984 1.143l-0.201 1.424c0.084-0.019 0.169-0.021 0.256-0.068 0 0 5.285-2.533 6.761-3.188 0.063-0.028 0.131-0.057 0.212-0.057 0.087 0 0.175 0.033 0.275 0.197l-9.111 6.675c-0.512 0.377-1.153 0.584-1.803 0.584-0.155 0-0.309-0.008-0.46-0.033l-8.867-1.404c-0.221 0-0.436 0.079-0.608 0.216l-1.697 1.508c-0.409 0.36-0.567 0.757-0.511 1.297 0 0 0.172 1.489 0.224 1.445l2.925-2.541 8.24 1.325c0.256 0.036 0.513 0.057 0.771 0.057 1.032 0 2.061-0.333 2.896-0.94l10.44-7.645c0.368-0.283 0.476-0.788 0.251-1.197zM20.323 13.112c0 1.136-0.423 1.981-1.259 2.568-0.452 0.312-1.011 0.528-1.661 0.672-0.297 0.372-0.644 0.563-1.141 0.565l-1.461-0.003 0.269-0.388c-0.875-0.016-1.616-0.093-2.139-0.245-0.613-0.185-1.031-0.317-1.252-0.415 0.337-0.953 1.243-1.473 2.241-1.297 0.593 0.112 0.939 0.117 1.547 0.117 0.893 0 1.565-0.117 1.995-0.349 0.432-0.235 0.648-0.62 0.648-1.136 0-0.528-0.215-0.956-0.636-1.268-0.424-0.315-1.12-0.667-2.093-1.063-0.472-0.191-0.925-0.375-1.357-0.576-0.431-0.195-0.803-0.427-1.119-0.691-0.313-0.271-0.567-0.591-0.753-0.965-0.189-0.379-0.285-0.836-0.285-1.393 0-1.076 0.4-1.937 1.201-2.579 0.511-0.404 1.148-0.664 1.892-0.809l0.039-0.055c0.311-0.437 0.685-0.633 1.221-0.636l1.461 0.003-0.417 0.599c0.040 0.003 0.075 0.003 0.115 0.005 0.344 0.033 0.671 0.083 0.968 0.14 0.296 0.057 0.563 0.115 0.788 0.177 0.231 0.060 0.404 0.115 0.532 0.164-0.371 0.953-1.233 1.481-2.257 1.355-0.408-0.055-0.645-0.063-1.061-0.063-0.609 0-1.151 0.123-1.608 0.372-0.456 0.248-0.684 0.625-0.684 1.14 0 0.263 0.053 0.497 0.155 0.711 0.101 0.203 0.259 0.383 0.471 0.549 0.215 0.167 0.477 0.317 0.791 0.459 0.315 0.14 0.689 0.289 1.132 0.443 0.583 0.224 1.1 0.445 1.551 0.651 0.459 0.208 0.843 0.461 1.168 0.743 0.32 0.284 0.571 0.628 0.743 1.028s0.259 0.889 0.259 1.471z"></path>
</svg>
