<!-- Generated by IcoMoon.io -->
<svg version="1.1" xmlns="http://www.w3.org/2000/svg" width="154" height="24" viewBox="0 0 154 24">
<title>investira_h_pro</title>
<path d="M153.334 11.368c-0.268-0.761-0.64-1.411-1.119-1.951-0.479-0.539-1.043-0.956-1.697-1.253s-1.375-0.445-2.166-0.445-1.514 0.148-2.168 0.445c-0.651 0.296-1.219 0.714-1.697 1.253-0.479 0.54-0.852 1.19-1.116 1.951-0.268 0.76-0.4 1.603-0.4 2.53s0.134 1.77 0.4 2.53c0.265 0.761 0.637 1.407 1.116 1.94 0.479 0.532 1.046 0.944 1.697 1.241 0.654 0.295 1.378 0.445 2.168 0.445s1.512-0.15 2.166-0.445c0.654-0.298 1.219-0.71 1.697-1.241 0.479-0.533 0.852-1.179 1.119-1.94 0.265-0.76 0.398-1.603 0.398-2.53s-0.134-1.77-0.398-2.53zM151.132 17.408c-0.684 0.867-1.612 1.3-2.781 1.3-1.172 0-2.102-0.433-2.784-1.3-0.684-0.865-1.025-2.035-1.025-3.51s0.339-2.648 1.025-3.525c0.683-0.874 1.612-1.311 2.784-1.311 1.169 0 2.097 0.438 2.781 1.311 0.684 0.875 1.028 2.050 1.028 3.525s-0.344 2.645-1.028 3.51zM132.394 11.344c-0.284-0.761-0.677-1.407-1.186-1.938-0.509-0.533-1.119-0.938-1.826-1.219s-1.492-0.423-2.36-0.423c-1.046 0-1.916 0.070-2.6 0.207-0.683 0.137-1.244 0.281-1.688 0.435v15.597c0.818 0 1.484-0.666 1.484-1.481v-3.421c0.259 0.198 0.674 0.406 1.241 0.626 0.57 0.219 1.244 0.331 2.018 0.331 0.852 0 1.609-0.15 2.269-0.456 0.663-0.304 1.221-0.727 1.676-1.267 0.456-0.54 0.801-1.186 1.039-1.937 0.237-0.753 0.353-1.578 0.353-2.474-0.001-0.961-0.141-1.819-0.422-2.578zM131.036 15.781c-0.137 0.584-0.356 1.095-0.66 1.526-0.306 0.433-0.704 0.775-1.197 1.026-0.496 0.251-1.107 0.379-1.837 0.379-0.351 0-0.684-0.036-1.002-0.105-0.324-0.067-0.619-0.153-0.891-0.262-0.272-0.104-0.512-0.218-0.718-0.341-0.207-0.121-0.376-0.235-0.512-0.342v-8.234c0.228-0.077 0.564-0.148 1.013-0.215 0.448-0.068 1.039-0.103 1.767-0.103 1.277 0 2.305 0.413 3.079 1.241 0.777 0.829 1.163 2.018 1.163 3.57 0.001 0.651-0.068 1.274-0.205 1.859zM142.023 8.090c-0.248 0.69-0.849 1.075-1.578 1.013-0.272-0.023-0.582-0.033-0.929-0.033-0.637 0-1.153 0.047-1.539 0.137-0.386 0.093-0.643 0.168-0.763 0.228v10.33h-1.484v-11.241c0.382-0.167 0.905-0.339 1.575-0.515 0.668-0.174 1.481-0.262 2.439-0.262 0.487 0 0.946 0.038 1.381 0.114 0.43 0.078 0.731 0.153 0.898 0.228zM5.738 0.040c-3.148 0-5.701 2.551-5.701 5.701v17.103h17.103c3.148 0 5.701-2.553 5.701-5.701v-17.103h-17.103zM9.438 17.353c-0.59 0.844-1.308 1.217-2.336 1.217h-2.789l9.127-13.038c0.59-0.842 1.308-1.216 2.336-1.216h2.789l-9.127 13.037zM63.723 7.758c-1.011 0-1.784 0.59-2.057 1.562-0.091 0.331-0.148 0.512-0.245 0.844-0.295 0.991-0.47 1.548-0.804 2.527-0.324 0.952-0.509 1.484-0.861 2.424-0.309 0.824-0.485 1.284-0.827 2.094-0.345-0.81-0.523-1.27-0.829-2.094-0.351-0.941-0.54-1.472-0.862-2.424-0.331-0.981-0.509-1.536-0.804-2.527-0.097-0.331-0.15-0.512-0.242-0.844-0.275-0.972-1.049-1.562-2.057-1.562h-0.654c0.68 2.555 1.137 3.975 2.104 6.439 0.855 2.176 1.35 3.394 2.333 5.519h2.024c0.981-2.124 1.481-3.342 2.333-5.519 0.966-2.464 1.42-3.884 2.102-6.439h-0.654zM44.414 7.696c-0.81 0.14-1.464 0.269-1.954 0.392v11.626h2.141v-10.108c0.078-0.014 0.204-0.036 0.379-0.067 0.178-0.030 0.379-0.058 0.599-0.081 0.222-0.026 0.459-0.044 0.704-0.058 0.245-0.017 0.482-0.023 0.713-0.023 0.567 0 1.043 0.073 1.428 0.217 0.381 0.15 0.688 0.383 0.921 0.704 0.228 0.324 0.392 0.745 0.496 1.267 0.097 0.523 0.148 1.153 0.148 1.887v6.264h2.144v-6.724c0-0.812-0.081-1.556-0.231-2.232-0.153-0.677-0.42-1.256-0.797-1.737-0.376-0.487-0.877-0.861-1.509-1.127-0.627-0.269-1.421-0.406-2.37-0.406-1.058 0-1.995 0.073-2.811 0.208zM104.386 7.731c-0.751 0.164-1.381 0.334-1.884 0.52v11.463h2.138v-10.061c0.123-0.030 0.382-0.088 0.771-0.172 0.392-0.084 0.791-0.128 1.192-0.128 0.187 0 0.289 0 0.476 0.009 1.055 0.044 1.893-0.526 2.235-1.525-0.091-0.030-0.234-0.067-0.426-0.105-0.19-0.036-0.4-0.076-0.631-0.114s-0.465-0.067-0.701-0.094c-0.239-0.020-0.45-0.033-0.634-0.033-0.936-0.001-1.783 0.080-2.534 0.241zM74.43 8.961c-0.861-1.005-2.097-1.506-3.706-1.506-0.69 0-1.367 0.131-2.027 0.389s-1.244 0.651-1.749 1.174c-0.509 0.52-0.914 1.177-1.221 1.968-0.306 0.791-0.459 1.715-0.459 2.772 0 0.905 0.117 1.737 0.356 2.498 0.237 0.761 0.604 1.415 1.095 1.97 0.49 0.552 1.116 0.985 1.876 1.3s1.659 0.47 2.702 0.47c0.832 0 1.571-0.076 2.222-0.228 0.651-0.155 1.11-0.301 1.37-0.438-0.275-0.908-1.105-1.437-2.044-1.303-0.509 0.073-0.804 0.081-1.317 0.081-1.337 0-2.316-0.324-2.945-0.966-0.629-0.646-0.991-1.591-1.083-2.832h8.195c0.014-0.125 0.023-0.257 0.023-0.403v-0.356c0-2.055-0.428-3.586-1.288-4.591zM67.549 12.585c0.044-0.412 0.14-0.821 0.286-1.219 0.145-0.398 0.351-0.751 0.613-1.058 0.259-0.309 0.579-0.557 0.952-0.748 0.376-0.192 0.81-0.286 1.3-0.286 0.877 0 1.562 0.309 2.062 0.932 0.496 0.621 0.741 1.414 0.727 2.38h-5.94zM78.793 8.385c-0.782 0.621-1.174 1.464-1.174 2.523 0 0.537 0.091 0.988 0.278 1.358 0.184 0.368 0.429 0.683 0.735 0.944 0.309 0.262 0.671 0.487 1.095 0.68s0.862 0.379 1.325 0.563c0.952 0.385 1.633 0.73 2.047 1.039 0.415 0.306 0.624 0.72 0.624 1.243 0 0.506-0.211 0.874-0.634 1.105-0.42 0.228-1.075 0.345-1.951 0.345-0.593 0-0.929-0.009-1.512-0.117-0.972-0.175-1.86 0.336-2.188 1.27 0.214 0.088 0.624 0.225 1.221 0.4 0.596 0.175 1.428 0.265 2.486 0.265 1.519 0 2.687-0.281 3.51-0.852 0.818-0.564 1.23-1.402 1.23-2.508 0-0.569-0.084-1.048-0.254-1.44-0.167-0.392-0.409-0.724-0.724-0.999-0.318-0.278-0.693-0.52-1.142-0.727-0.443-0.207-0.949-0.418-1.516-0.634-0.432-0.153-0.8-0.301-1.105-0.438s-0.567-0.289-0.777-0.45c-0.207-0.161-0.359-0.339-0.459-0.54s-0.151-0.432-0.151-0.691c0-0.509 0.222-0.879 0.668-1.116 0.445-0.239 0.975-0.359 1.573-0.359 0.406 0 0.634 0.009 1.036 0.058 0.999 0.12 1.843-0.389 2.205-1.325-0.125-0.044-0.295-0.097-0.52-0.158-0.219-0.061-0.479-0.12-0.771-0.172-0.289-0.056-0.607-0.103-0.944-0.14-0.336-0.038-0.674-0.056-1.011-0.056-1.354 0-2.42 0.309-3.203 0.931zM88.070 6.197v8.643c0 0.8 0.061 1.494 0.192 2.099 0.128 0.607 0.353 1.116 0.68 1.531 0.321 0.415 0.745 0.727 1.276 0.932 0.532 0.208 1.203 0.312 2.015 0.312h2.965c0-1.040-0.844-1.884-1.884-1.884h-0.896c-0.368 0-0.693-0.044-0.966-0.14-0.275-0.088-0.506-0.248-0.693-0.473-0.181-0.219-0.321-0.529-0.412-0.921s-0.137-0.882-0.137-1.481v-5.262h2.737c0.993 0 1.793-0.801 1.793-1.796h-4.529v-3.699c-1.182 0-2.139 0.958-2.139 2.138zM37.065 9.896v9.819c1.179 0 2.139-0.958 2.139-2.138v-9.819c-1.182 0-2.139 0.958-2.139 2.138zM36.752 4.187c0 0.763 0.619 1.381 1.381 1.381 0.764 0 1.385-0.619 1.385-1.381 0-0.765-0.621-1.384-1.385-1.384s-1.381 0.617-1.381 1.384zM97.103 9.896v9.819c1.183 0 2.138-0.958 2.138-2.138v-9.819c-1.18 0-2.138 0.958-2.138 2.138zM96.792 4.187c0 0.763 0.619 1.381 1.381 1.381 0.765 0 1.384-0.619 1.384-1.381 0-0.765-0.619-1.384-1.384-1.384-0.764 0-1.381 0.617-1.381 1.384zM118.647 19.664c0.328-0.053 0.587-0.094 0.771-0.125v-7.483c0-0.677-0.078-1.291-0.231-1.854-0.153-0.56-0.409-1.043-0.771-1.451-0.359-0.406-0.835-0.721-1.425-0.944-0.593-0.222-1.317-0.331-2.176-0.331-0.751 0-1.451 0.056-2.097 0.17-0.643 0.114-1.105 0.234-1.381 0.356 0.234 0.919 1.052 1.484 1.995 1.378 0.502-0.056 0.785-0.067 1.291-0.067 0.552 0 1.005 0.084 1.353 0.245 0.345 0.161 0.616 0.376 0.815 0.643 0.201 0.269 0.336 0.576 0.415 0.921s0.114 0.696 0.114 1.049v0.596c-0.061-0.014-0.167-0.036-0.324-0.070-0.153-0.028-0.334-0.064-0.54-0.1-0.208-0.041-0.426-0.070-0.654-0.094-0.231-0.023-0.456-0.033-0.668-0.033-0.677 0-1.323 0.070-1.934 0.207-0.616 0.14-1.153 0.353-1.615 0.646-0.459 0.292-0.824 0.674-1.089 1.15-0.272 0.476-0.403 1.043-0.403 1.703 0 0.694 0.114 1.284 0.342 1.774 0.231 0.493 0.554 0.888 0.969 1.186 0.415 0.301 0.905 0.517 1.472 0.657 0.567 0.137 1.189 0.207 1.866 0.207 0.476 0 0.955-0.020 1.437-0.058 0.485-0.036 0.935-0.078 1.35-0.125 0.413-0.046 0.787-0.097 1.119-0.153zM112.559 15.152c0.198-0.254 0.448-0.453 0.745-0.599 0.301-0.148 0.629-0.239 0.988-0.286 0.362-0.044 0.704-0.070 1.028-0.070 0.49 0 0.911 0.028 1.256 0.081 0.342 0.053 0.593 0.12 0.745 0.195v3.569c-0.262 0.061-0.587 0.105-0.978 0.128-0.392 0.023-0.841 0.033-1.347 0.033-0.847 0-1.512-0.148-2.001-0.448-0.496-0.298-0.738-0.832-0.738-1.602 0.001-0.415 0.101-0.748 0.302-1.002z"></path>
</svg>
