<!-- Generated by IcoMoon.io -->
<svg version="1.1" xmlns="http://www.w3.org/2000/svg" width="152" height="24" viewBox="0 0 152 24">
<title>Investira_h_vc</title>
<path d="M6-0.048c-3.314 0-6 2.685-6 6v18h18c3.313 0 6-2.686 6-6v-18h-18zM9.894 18.172c-0.621 0.888-1.377 1.281-2.459 1.281h-2.935l9.608-13.723c0.621-0.886 1.377-1.279 2.459-1.279h2.934l-9.606 13.722zM148.398 21.045c-1.093 0-2.044-0.163-2.833-0.489-0.774-0.321-1.421-0.771-1.928-1.337-0.504-0.567-0.882-1.251-1.125-2.031-0.249-0.798-0.378-1.686-0.378-2.637 0-0.172 0.006-0.343 0.018-0.511l0.003-0.082h-0.021c0.038-0.771 0.158-1.484 0.357-2.118 0.243-0.779 0.624-1.463 1.125-2.031 0.507-0.567 1.155-1.015 1.931-1.337 0.781-0.325 1.734-0.489 2.831-0.489 0.888 0 1.678 0.082 2.358 0.245 0.48 0.111 0.861 0.219 1.134 0.322-0.286 0.566-0.846 0.915-1.479 0.915-0.086 0-0.173-0.008-0.264-0.021-0.563-0.078-0.903-0.091-1.494-0.091-1.556 0-2.724 0.393-3.48 1.164-0.707 0.725-1.131 1.767-1.263 3.099l-0.027 1.268 0.021 0.297c0.108 1.44 0.542 2.558 1.286 3.324 0.756 0.773 1.927 1.162 3.483 1.162 0.594 0 0.931-0.012 1.494-0.091 0.092-0.012 0.179-0.016 0.264-0.016 0.633 0 1.192 0.348 1.479 0.913-0.279 0.102-0.659 0.212-1.134 0.323-0.678 0.168-1.471 0.25-2.356 0.25zM134.101 20.753c-1.014-2.205-1.558-3.533-2.464-5.841-0.99-2.538-1.485-4.035-2.183-6.61h0.279c0.953 0 1.679 0.549 1.934 1.468 0.077 0.264 0.129 0.443 0.194 0.655l0.068 0.234 0.009 0.038c0.334 1.122 0.525 1.719 0.891 2.791 0.348 1.032 0.554 1.606 0.947 2.671 0.357 0.956 0.55 1.448 0.919 2.309l0.306 0.732 0.31-0.731c0.384-0.912 0.581-1.427 0.911-2.307 0.396-1.067 0.603-1.662 0.946-2.673 0.354-1.041 0.544-1.639 0.888-2.787l0.049-0.168c0.079-0.269 0.138-0.459 0.219-0.765 0.261-0.918 0.981-1.467 1.936-1.467h0.279c-0.703 2.601-1.199 4.098-2.183 6.611-0.876 2.234-1.439 3.612-2.465 5.841h-1.791zM67.059 8.12c-1.064 0-1.878 0.621-2.164 1.644-0.097 0.348-0.156 0.538-0.26 0.886-0.311 1.043-0.495 1.629-0.846 2.66-0.34 1.002-0.535 1.562-0.906 2.552-0.326 0.867-0.51 1.35-0.87 2.204-0.363-0.852-0.55-1.337-0.873-2.204-0.369-0.99-0.568-1.55-0.907-2.552-0.349-1.030-0.537-1.617-0.847-2.659-0.102-0.348-0.157-0.538-0.255-0.888-0.289-1.023-1.104-1.644-2.164-1.644h-0.689c0.718 2.69 1.198 4.184 2.215 6.777 0.9 2.29 1.421 3.572 2.456 5.806h2.13c1.032-2.235 1.559-3.516 2.455-5.806 1.017-2.594 1.494-4.088 2.213-6.777h-0.687zM46.736 8.055c-0.852 0.147-1.541 0.284-2.056 0.413v12.234h2.253v-10.638c0.082-0.015 0.215-0.037 0.399-0.070 0.188-0.031 0.399-0.062 0.63-0.086 0.234-0.027 0.483-0.046 0.741-0.061 0.258-0.018 0.507-0.024 0.75-0.024 0.597 0 1.098 0.076 1.503 0.228 0.402 0.156 0.726 0.402 0.969 0.738 0.24 0.34 0.413 0.784 0.522 1.333 0.102 0.55 0.156 1.213 0.156 1.986v6.593h2.256v-7.074c0-0.855-0.086-1.638-0.243-2.349-0.16-0.712-0.443-1.322-0.838-1.829-0.396-0.513-0.923-0.906-1.588-1.187-0.659-0.284-1.494-0.428-2.493-0.428-1.114 0-2.102 0.077-2.959 0.221zM109.852 8.089c-0.79 0.173-1.453 0.351-1.983 0.548v12.064h2.25v-10.587c0.129-0.031 0.402-0.093 0.811-0.182 0.413-0.088 0.833-0.135 1.254-0.135 0.197 0 0.305 0 0.501 0.009 1.11 0.046 1.992-0.553 2.352-1.605-0.096-0.032-0.246-0.071-0.448-0.111-0.2-0.038-0.422-0.079-0.665-0.12s-0.489-0.071-0.738-0.099c-0.252-0.021-0.474-0.034-0.667-0.034-0.986-0.003-1.877 0.082-2.667 0.252zM78.326 9.384c-0.906-1.058-2.207-1.586-3.9-1.586-0.726 0-1.439 0.138-2.133 0.409s-1.309 0.686-1.841 1.236c-0.535 0.547-0.961 1.239-1.285 2.072-0.323 0.832-0.483 1.804-0.483 2.918 0 0.953 0.123 1.828 0.375 2.631 0.249 0.799 0.636 1.488 1.152 2.072 0.516 0.581 1.175 1.037 1.974 1.368s1.747 0.496 2.845 0.496c0.876 0 1.653-0.080 2.338-0.24 0.686-0.163 1.169-0.316 1.442-0.46-0.29-0.956-1.162-1.512-2.151-1.371-0.535 0.076-0.846 0.085-1.386 0.085-1.407 0-2.438-0.34-3.099-1.017-0.662-0.68-1.043-1.672-1.14-2.979h8.625c0.015-0.132 0.024-0.27 0.024-0.424v-0.378c0-2.162-0.451-3.774-1.357-4.832zM71.084 13.198c0.046-0.433 0.147-0.864 0.302-1.283 0.153-0.418 0.369-0.79 0.645-1.113 0.273-0.325 0.609-0.587 1.002-0.788 0.396-0.202 0.852-0.301 1.368-0.301 0.922 0 1.644 0.325 2.171 0.981 0.522 0.654 0.78 1.488 0.765 2.505h-6.252zM82.917 8.778c-0.823 0.654-1.236 1.54-1.236 2.655 0 0.566 0.096 1.040 0.293 1.429 0.194 0.387 0.452 0.718 0.774 0.993 0.325 0.276 0.706 0.513 1.152 0.716s0.907 0.399 1.395 0.592c1.002 0.405 1.719 0.768 2.154 1.093 0.436 0.323 0.657 0.759 0.657 1.306 0 0.533-0.222 0.919-0.668 1.163-0.443 0.24-1.131 0.363-2.053 0.363-0.624 0-0.978-0.009-1.591-0.123-1.023-0.184-1.958 0.354-2.302 1.337 0.225 0.093 0.657 0.237 1.285 0.421 0.624 0.183 1.5 0.276 2.613 0.276 1.599 0 2.827-0.295 3.694-0.897 0.861-0.594 1.294-1.476 1.294-2.64 0-0.597-0.088-1.101-0.267-1.515-0.175-0.413-0.43-0.762-0.762-1.052-0.335-0.293-0.729-0.547-1.201-0.765-0.467-0.217-0.999-0.439-1.596-0.668-0.454-0.16-0.841-0.316-1.162-0.46s-0.594-0.302-0.815-0.471c-0.218-0.169-0.378-0.357-0.483-0.569s-0.157-0.454-0.157-0.726c0-0.536 0.234-0.925 0.704-1.175 0.468-0.252 1.026-0.378 1.656-0.378 0.427 0 0.668 0.009 1.090 0.062 1.052 0.126 1.939-0.409 2.32-1.395-0.132-0.046-0.311-0.102-0.547-0.166-0.231-0.065-0.504-0.126-0.811-0.181-0.305-0.058-0.639-0.108-0.993-0.147-0.357-0.040-0.712-0.057-1.066-0.057-1.423 0-2.546 0.325-3.369 0.978zM92.682 6.476v9.096c0 0.841 0.065 1.573 0.203 2.21 0.135 0.639 0.372 1.174 0.716 1.611 0.337 0.436 0.784 0.765 1.343 0.981 0.559 0.219 1.266 0.328 2.121 0.328h3.12c0-1.095-0.888-1.983-1.983-1.983h-0.944c-0.387 0-0.729-0.047-1.017-0.147-0.29-0.093-0.532-0.261-0.729-0.498-0.191-0.231-0.338-0.556-0.434-0.967-0.096-0.413-0.144-0.928-0.144-1.559v-5.539h2.88c1.046 0 1.887-0.843 1.887-1.89h-4.767v-3.893c-1.245 0-2.251 1.008-2.251 2.25zM39.002 10.37v10.333c1.242 0 2.252-1.008 2.252-2.25v-10.334c-1.243 0-2.252 1.007-2.252 2.25zM38.67 4.361c0 0.803 0.651 1.454 1.455 1.454s1.456-0.651 1.456-1.454c0-0.805-0.654-1.457-1.456-1.457-0.804 0-1.455 0.651-1.455 1.457zM102.188 10.37v10.333c1.245 0 2.25-1.008 2.25-2.25v-10.334c-1.242 0-2.25 1.007-2.25 2.25zM101.861 4.361c0 0.803 0.651 1.454 1.453 1.454 0.805 0 1.457-0.651 1.457-1.454 0-0.805-0.651-1.457-1.457-1.457-0.804 0-1.453 0.651-1.453 1.457zM124.862 20.649c0.345-0.056 0.618-0.099 0.811-0.132v-7.875c0-0.713-0.083-1.359-0.243-1.952-0.16-0.589-0.43-1.098-0.811-1.527-0.378-0.428-0.879-0.759-1.5-0.993-0.624-0.234-1.386-0.348-2.29-0.348-0.79 0-1.527 0.058-2.207 0.178-0.676 0.12-1.163 0.246-1.453 0.375 0.246 0.968 1.107 1.561 2.1 1.45 0.528-0.058 0.827-0.070 1.359-0.070 0.581 0 1.058 0.088 1.423 0.258 0.364 0.171 0.648 0.396 0.859 0.677 0.212 0.284 0.354 0.606 0.436 0.969s0.12 0.732 0.12 1.104v0.627c-0.065-0.015-0.176-0.038-0.341-0.073-0.16-0.030-0.351-0.067-0.569-0.105-0.219-0.043-0.449-0.073-0.689-0.099-0.243-0.024-0.48-0.035-0.703-0.035-0.712 0-1.392 0.073-2.035 0.218-0.648 0.147-1.213 0.372-1.699 0.679-0.483 0.308-0.867 0.71-1.146 1.211-0.287 0.501-0.425 1.098-0.425 1.792 0 0.729 0.12 1.35 0.36 1.866 0.243 0.519 0.584 0.934 1.020 1.248 0.436 0.316 0.953 0.544 1.55 0.691 0.599 0.144 1.252 0.216 1.963 0.216 0.501 0 1.005-0.021 1.512-0.062 0.51-0.037 0.984-0.082 1.421-0.132 0.435-0.047 0.827-0.099 1.176-0.157zM118.453 15.9c0.208-0.267 0.471-0.477 0.784-0.63 0.317-0.156 0.662-0.252 1.039-0.302 0.382-0.047 0.743-0.073 1.083-0.073 0.516 0 0.958 0.030 1.322 0.085 0.36 0.056 0.624 0.126 0.784 0.206v3.756c-0.276 0.064-0.618 0.111-1.029 0.135-0.413 0.024-0.885 0.035-1.417 0.035-0.891 0-1.592-0.156-2.106-0.471-0.522-0.314-0.777-0.876-0.777-1.684 0-0.438 0.106-0.789 0.316-1.056z"></path>
</svg>
