<!-- Generated by IcoMoon.io -->
<svg version="1.1" xmlns="http://www.w3.org/2000/svg" width="126" height="24" viewBox="0 0 126 24">
<title>investira_h</title>
<path d="M67.014 8.165c-1.064 0-1.878 0.621-2.163 1.644-0.096 0.348-0.156 0.539-0.258 0.888-0.311 1.043-0.495 1.629-0.846 2.66-0.34 1.002-0.534 1.562-0.906 2.552-0.327 0.867-0.51 1.348-0.87 2.202-0.363-0.852-0.55-1.335-0.873-2.202-0.369-0.99-0.569-1.55-0.907-2.552-0.347-1.032-0.534-1.617-0.845-2.659-0.099-0.348-0.157-0.538-0.255-0.888-0.289-1.023-1.104-1.644-2.164-1.644h-0.691c0.72 2.69 1.202 4.184 2.215 6.777 0.901 2.29 1.421 3.57 2.457 5.806h2.13c1.032-2.235 1.558-3.516 2.456-5.806 1.017-2.594 1.494-4.088 2.214-6.777h-0.693zM46.694 8.1c-0.853 0.147-1.542 0.284-2.059 0.412v12.234h2.256v-10.636c0.081-0.015 0.213-0.037 0.398-0.070 0.188-0.031 0.399-0.062 0.63-0.086 0.234-0.027 0.483-0.046 0.741-0.061 0.258-0.018 0.507-0.024 0.75-0.024 0.599 0 1.096 0.076 1.503 0.228 0.405 0.156 0.727 0.402 0.97 0.738 0.237 0.34 0.41 0.784 0.521 1.333 0.103 0.55 0.156 1.213 0.156 1.986v6.592h2.253v-7.074c0-0.855-0.086-1.638-0.243-2.349-0.159-0.712-0.439-1.322-0.838-1.829-0.396-0.513-0.922-0.906-1.585-1.187-0.662-0.284-1.497-0.428-2.496-0.428-1.113-0.002-2.1 0.075-2.955 0.219zM109.808 8.134c-0.789 0.173-1.453 0.351-1.983 0.548v12.063h2.25v-10.586c0.13-0.031 0.404-0.093 0.811-0.182 0.412-0.088 0.834-0.135 1.255-0.135 0.197 0 0.303 0 0.501 0.009 1.109 0.046 1.99-0.553 2.35-1.605-0.095-0.032-0.246-0.071-0.449-0.111-0.199-0.038-0.422-0.079-0.664-0.12s-0.487-0.070-0.736-0.099c-0.252-0.021-0.474-0.034-0.667-0.034-0.987-0.003-1.878 0.082-2.668 0.252zM78.282 9.431c-0.906-1.058-2.208-1.585-3.901-1.585-0.725 0-1.439 0.138-2.133 0.409s-1.309 0.685-1.84 1.236c-0.535 0.547-0.963 1.239-1.285 2.072s-0.481 1.804-0.481 2.916c0 0.954 0.122 1.83 0.375 2.631 0.248 0.799 0.636 1.488 1.152 2.072 0.516 0.581 1.175 1.037 1.974 1.368 0.798 0.331 1.745 0.495 2.844 0.495 0.876 0 1.653-0.079 2.338-0.24 0.685-0.164 1.168-0.317 1.443-0.46-0.289-0.957-1.162-1.512-2.153-1.371-0.534 0.077-0.844 0.086-1.386 0.086-1.407 0-2.438-0.341-3.099-1.017-0.66-0.679-1.041-1.672-1.14-2.979h8.625c0.015-0.132 0.024-0.27 0.024-0.425v-0.376c0-2.162-0.451-3.773-1.356-4.83zM71.038 13.245c0.047-0.434 0.147-0.864 0.302-1.283 0.153-0.418 0.369-0.79 0.645-1.113 0.273-0.325 0.609-0.586 1.002-0.787 0.396-0.203 0.852-0.301 1.368-0.301 0.922 0 1.644 0.325 2.171 0.981 0.522 0.654 0.78 1.488 0.765 2.505l-6.252-0.001zM82.872 8.823c-0.824 0.654-1.236 1.54-1.236 2.655 0 0.566 0.096 1.040 0.293 1.431 0.194 0.387 0.451 0.718 0.774 0.993 0.327 0.276 0.708 0.513 1.153 0.716s0.906 0.399 1.395 0.592c1.002 0.407 1.719 0.768 2.156 1.093 0.436 0.322 0.657 0.758 0.657 1.306 0 0.531-0.221 0.918-0.666 1.161-0.444 0.24-1.133 0.363-2.053 0.363-0.624 0-0.978-0.009-1.593-0.123-1.023-0.184-1.957 0.354-2.302 1.337 0.225 0.093 0.657 0.237 1.285 0.421 0.627 0.184 1.503 0.28 2.616 0.28 1.597 0 2.828-0.295 3.695-0.898 0.861-0.594 1.294-1.475 1.294-2.64 0-0.597-0.090-1.101-0.269-1.514-0.174-0.411-0.43-0.762-0.762-1.052-0.335-0.291-0.728-0.546-1.202-0.765-0.468-0.219-0.999-0.439-1.596-0.668-0.454-0.159-0.842-0.316-1.161-0.46-0.324-0.145-0.6-0.303-0.819-0.474-0.219-0.169-0.378-0.357-0.483-0.569s-0.156-0.454-0.156-0.726c0-0.536 0.233-0.926 0.704-1.175 0.468-0.252 1.026-0.378 1.656-0.378 0.427 0 0.667 0.009 1.092 0.062 1.051 0.126 1.939-0.41 2.32-1.395-0.132-0.046-0.311-0.102-0.548-0.167-0.231-0.065-0.504-0.126-0.811-0.181-0.304-0.059-0.639-0.108-0.993-0.147-0.361-0.041-0.717-0.059-1.071-0.059-1.423 0-2.546 0.325-3.369 0.978zM92.637 6.521v9.096c0 0.843 0.065 1.572 0.204 2.208 0.135 0.639 0.372 1.175 0.715 1.611 0.339 0.436 0.785 0.765 1.344 0.981 0.559 0.219 1.266 0.329 2.121 0.329h3.118c0-1.095-0.888-1.983-1.981-1.983h-0.944c-0.388 0-0.729-0.047-1.018-0.147-0.288-0.093-0.531-0.261-0.728-0.498-0.191-0.231-0.339-0.556-0.433-0.968-0.096-0.413-0.146-0.928-0.146-1.558v-5.537h2.882c1.044 0 1.887-0.843 1.887-1.89h-4.769v-3.894c-1.245 0-2.253 1.008-2.253 2.25zM38.958 10.415v10.332c1.24 0 2.25-1.008 2.25-2.25v-10.332c-1.243 0-2.25 1.008-2.25 2.25zM38.627 4.405c0 0.803 0.652 1.454 1.456 1.454s1.457-0.651 1.457-1.454c0-0.806-0.653-1.457-1.457-1.457s-1.456 0.651-1.456 1.457zM102.144 10.415v10.332c1.243 0 2.25-1.008 2.25-2.25v-10.332c-1.242 0-2.25 1.008-2.25 2.25zM101.815 4.405c0 0.803 0.653 1.454 1.455 1.454 0.804 0 1.457-0.651 1.457-1.454 0-0.806-0.653-1.457-1.457-1.457s-1.455 0.651-1.455 1.457zM124.816 20.694c0.345-0.056 0.618-0.098 0.811-0.132v-7.875c0-0.713-0.083-1.359-0.243-1.952-0.159-0.589-0.429-1.098-0.811-1.527-0.378-0.428-0.879-0.759-1.5-0.993-0.624-0.234-1.386-0.348-2.289-0.348-0.79 0-1.529 0.059-2.208 0.178-0.675 0.12-1.161 0.246-1.453 0.375 0.246 0.968 1.107 1.561 2.1 1.45 0.528-0.059 0.827-0.070 1.359-0.070 0.581 0 1.056 0.088 1.422 0.258 0.366 0.171 0.651 0.396 0.861 0.678 0.212 0.284 0.354 0.606 0.436 0.969s0.12 0.732 0.12 1.104v0.627c-0.065-0.015-0.175-0.036-0.341-0.073-0.16-0.032-0.351-0.067-0.57-0.105-0.219-0.042-0.449-0.073-0.689-0.098-0.242-0.025-0.479-0.034-0.703-0.034-0.712 0-1.392 0.073-2.034 0.217-0.65 0.149-1.215 0.372-1.701 0.68-0.481 0.307-0.865 0.71-1.146 1.21-0.285 0.503-0.424 1.098-0.424 1.793 0 0.729 0.12 1.35 0.36 1.866 0.243 0.519 0.583 0.934 1.020 1.248 0.436 0.317 0.954 0.544 1.549 0.692 0.597 0.144 1.251 0.219 1.965 0.219 0.501 0 1.005-0.023 1.512-0.062 0.51-0.038 0.984-0.084 1.421-0.133 0.435-0.051 0.828-0.104 1.176-0.162zM118.408 15.945c0.209-0.267 0.469-0.476 0.783-0.63 0.317-0.156 0.662-0.252 1.040-0.302 0.382-0.045 0.743-0.073 1.083-0.073 0.517 0 0.96 0.032 1.321 0.087 0.36 0.056 0.624 0.126 0.785 0.206v3.755c-0.276 0.064-0.618 0.11-1.029 0.135-0.412 0.026-0.886 0.033-1.417 0.033-0.891 0-1.593-0.156-2.106-0.47-0.522-0.314-0.777-0.876-0.777-1.684 0.003-0.438 0.108-0.787 0.318-1.056zM6-0.002c-3.314 0-6 2.685-6 6v18h18c3.313 0 6-2.686 6-6v-18h-18zM9.894 18.219c-0.621 0.888-1.376 1.281-2.459 1.281h-2.935l9.608-13.722c0.621-0.886 1.375-1.279 2.457-1.279h2.936l-9.606 13.721z"></path>
</svg>
