<!-- Generated by IcoMoon.io -->
<svg version="1.1" xmlns="http://www.w3.org/2000/svg" width="203" height="32" viewBox="0 0 203 32">
<title>Investira_h_vc</title>
<path d="M8-0.064c-4.418 0-8 3.58-8 8v24h24c4.418 0 8-3.582 8-8v-24h-24zM13.192 24.23c-0.828 1.184-1.836 1.708-3.278 1.708h-3.914l12.81-18.298c0.828-1.182 1.836-1.706 3.278-1.706h3.912l-12.808 18.296zM197.864 28.060c-1.458 0-2.726-0.218-3.778-0.652-1.032-0.428-1.894-1.028-2.57-1.782-0.672-0.756-1.176-1.668-1.5-2.708-0.332-1.064-0.504-2.248-0.504-3.516 0-0.23 0.008-0.458 0.024-0.682l0.004-0.11h-0.028c0.050-1.028 0.21-1.978 0.476-2.824 0.324-1.038 0.832-1.95 1.5-2.708 0.676-0.756 1.54-1.354 2.574-1.782 1.042-0.434 2.312-0.652 3.774-0.652 1.184 0 2.238 0.11 3.144 0.326 0.64 0.148 1.148 0.292 1.512 0.43-0.382 0.754-1.128 1.22-1.972 1.22-0.114 0-0.23-0.010-0.352-0.028-0.75-0.104-1.204-0.122-1.992-0.122-2.074 0-3.632 0.524-4.64 1.552-0.942 0.966-1.508 2.356-1.684 4.132l-0.036 1.69 0.028 0.396c0.144 1.92 0.722 3.41 1.714 4.432 1.008 1.030 2.57 1.55 4.644 1.55 0.792 0 1.242-0.016 1.992-0.122 0.122-0.016 0.238-0.022 0.352-0.022 0.844 0 1.59 0.464 1.972 1.218-0.372 0.136-0.878 0.282-1.512 0.43-0.904 0.224-1.962 0.334-3.142 0.334zM178.802 27.67c-1.352-2.94-2.078-4.71-3.286-7.788-1.32-3.384-1.98-5.38-2.91-8.814h0.372c1.27 0 2.238 0.732 2.578 1.958 0.102 0.352 0.172 0.59 0.258 0.874l0.090 0.312 0.012 0.050c0.446 1.496 0.7 2.292 1.188 3.722 0.464 1.376 0.738 2.142 1.262 3.562 0.476 1.274 0.734 1.93 1.226 3.078l0.408 0.976 0.414-0.974c0.512-1.216 0.774-1.902 1.214-3.076 0.528-1.422 0.804-2.216 1.262-3.564 0.472-1.388 0.726-2.186 1.184-3.716l0.066-0.224c0.106-0.358 0.184-0.612 0.292-1.020 0.348-1.224 1.308-1.956 2.582-1.956h0.372c-0.938 3.468-1.598 5.464-2.91 8.814-1.168 2.978-1.918 4.816-3.286 7.788h-2.388zM89.412 10.826c-1.418 0-2.504 0.828-2.886 2.192-0.13 0.464-0.208 0.718-0.346 1.182-0.414 1.39-0.66 2.172-1.128 3.546-0.454 1.336-0.714 2.082-1.208 3.402-0.434 1.156-0.68 1.8-1.16 2.938-0.484-1.136-0.734-1.782-1.164-2.938-0.492-1.32-0.758-2.066-1.21-3.402-0.466-1.374-0.716-2.156-1.13-3.546-0.136-0.464-0.21-0.718-0.34-1.184-0.386-1.364-1.472-2.192-2.886-2.192h-0.918c0.958 3.586 1.598 5.578 2.954 9.036 1.2 3.054 1.894 4.762 3.274 7.742h2.84c1.376-2.98 2.078-4.688 3.274-7.742 1.356-3.458 1.992-5.45 2.95-9.036h-0.916zM62.314 10.74c-1.136 0.196-2.054 0.378-2.742 0.55v16.312h3.004v-14.184c0.11-0.020 0.286-0.050 0.532-0.094 0.25-0.042 0.532-0.082 0.84-0.114 0.312-0.036 0.644-0.062 0.988-0.082 0.344-0.024 0.676-0.032 1-0.032 0.796 0 1.464 0.102 2.004 0.304 0.536 0.208 0.968 0.536 1.292 0.984 0.32 0.454 0.55 1.046 0.696 1.778 0.136 0.734 0.208 1.618 0.208 2.648v8.79h3.008v-9.432c0-1.14-0.114-2.184-0.324-3.132-0.214-0.95-0.59-1.762-1.118-2.438-0.528-0.684-1.23-1.208-2.118-1.582-0.878-0.378-1.992-0.57-3.324-0.57-1.486 0-2.802 0.102-3.946 0.294zM146.47 10.786c-1.054 0.23-1.938 0.468-2.644 0.73v16.086h3v-14.116c0.172-0.042 0.536-0.124 1.082-0.242 0.55-0.118 1.11-0.18 1.672-0.18 0.262 0 0.406 0 0.668 0.012 1.48 0.062 2.656-0.738 3.136-2.14-0.128-0.042-0.328-0.094-0.598-0.148-0.266-0.050-0.562-0.106-0.886-0.16s-0.652-0.094-0.984-0.132c-0.336-0.028-0.632-0.046-0.89-0.046-1.314-0.004-2.502 0.11-3.556 0.336zM104.434 12.512c-1.208-1.41-2.942-2.114-5.2-2.114-0.968 0-1.918 0.184-2.844 0.546s-1.746 0.914-2.454 1.648c-0.714 0.73-1.282 1.652-1.714 2.762-0.43 1.11-0.644 2.406-0.644 3.89 0 1.27 0.164 2.438 0.5 3.508 0.332 1.066 0.848 1.984 1.536 2.762 0.688 0.774 1.566 1.382 2.632 1.824s2.33 0.662 3.794 0.662c1.168 0 2.204-0.106 3.118-0.32 0.914-0.218 1.558-0.422 1.922-0.614-0.386-1.274-1.55-2.016-2.868-1.828-0.714 0.102-1.128 0.114-1.848 0.114-1.876 0-3.25-0.454-4.132-1.356-0.882-0.906-1.39-2.23-1.52-3.972h11.5c0.020-0.176 0.032-0.36 0.032-0.566v-0.504c0-2.882-0.602-5.032-1.81-6.442zM94.778 17.598c0.062-0.578 0.196-1.152 0.402-1.71 0.204-0.558 0.492-1.054 0.86-1.484 0.364-0.434 0.812-0.782 1.336-1.050 0.528-0.27 1.136-0.402 1.824-0.402 1.23 0 2.192 0.434 2.894 1.308 0.696 0.872 1.040 1.984 1.020 3.34h-8.336zM110.556 11.704c-1.098 0.872-1.648 2.054-1.648 3.54 0 0.754 0.128 1.386 0.39 1.906 0.258 0.516 0.602 0.958 1.032 1.324 0.434 0.368 0.942 0.684 1.536 0.954s1.21 0.532 1.86 0.79c1.336 0.54 2.292 1.024 2.872 1.458 0.582 0.43 0.876 1.012 0.876 1.742 0 0.71-0.296 1.226-0.89 1.55-0.59 0.32-1.508 0.484-2.738 0.484-0.832 0-1.304-0.012-2.122-0.164-1.364-0.246-2.61 0.472-3.070 1.782 0.3 0.124 0.876 0.316 1.714 0.562 0.832 0.244 2 0.368 3.484 0.368 2.132 0 3.77-0.394 4.926-1.196 1.148-0.792 1.726-1.968 1.726-3.52 0-0.796-0.118-1.468-0.356-2.020-0.234-0.55-0.574-1.016-1.016-1.402-0.446-0.39-0.972-0.73-1.602-1.020-0.622-0.29-1.332-0.586-2.128-0.89-0.606-0.214-1.122-0.422-1.55-0.614s-0.792-0.402-1.086-0.628c-0.29-0.226-0.504-0.476-0.644-0.758s-0.21-0.606-0.21-0.968c0-0.714 0.312-1.234 0.938-1.566 0.624-0.336 1.368-0.504 2.208-0.504 0.57 0 0.89 0.012 1.454 0.082 1.402 0.168 2.586-0.546 3.094-1.86-0.176-0.062-0.414-0.136-0.73-0.222-0.308-0.086-0.672-0.168-1.082-0.242-0.406-0.078-0.852-0.144-1.324-0.196-0.476-0.054-0.95-0.076-1.422-0.076-1.898 0-3.394 0.434-4.492 1.304zM123.576 8.634v12.128c0 1.122 0.086 2.098 0.27 2.946 0.18 0.852 0.496 1.566 0.954 2.148 0.45 0.582 1.046 1.020 1.79 1.308 0.746 0.292 1.688 0.438 2.828 0.438h4.16c0-1.46-1.184-2.644-2.644-2.644h-1.258c-0.516 0-0.972-0.062-1.356-0.196-0.386-0.124-0.71-0.348-0.972-0.664-0.254-0.308-0.45-0.742-0.578-1.29-0.128-0.55-0.192-1.238-0.192-2.078v-7.386h3.84c1.394 0 2.516-1.124 2.516-2.52h-6.356v-5.19c-1.66 0-3.002 1.344-3.002 3zM52.002 13.826v13.778c1.656 0 3.002-1.344 3.002-3v-13.778c-1.658 0-3.002 1.342-3.002 3zM51.56 5.814c0 1.070 0.868 1.938 1.94 1.938s1.942-0.868 1.942-1.938c0-1.074-0.872-1.942-1.942-1.942-1.072 0-1.94 0.868-1.94 1.942zM136.25 13.826v13.778c1.66 0 3-1.344 3-3v-13.778c-1.656 0-3 1.342-3 3zM135.814 5.814c0 1.070 0.868 1.938 1.938 1.938 1.074 0 1.942-0.868 1.942-1.938 0-1.074-0.868-1.942-1.942-1.942-1.072 0-1.938 0.868-1.938 1.942zM166.482 27.532c0.46-0.074 0.824-0.132 1.082-0.176v-10.5c0-0.95-0.11-1.812-0.324-2.602-0.214-0.786-0.574-1.464-1.082-2.036-0.504-0.57-1.172-1.012-2-1.324-0.832-0.312-1.848-0.464-3.054-0.464-1.054 0-2.036 0.078-2.942 0.238-0.902 0.16-1.55 0.328-1.938 0.5 0.328 1.29 1.476 2.082 2.8 1.934 0.704-0.078 1.102-0.094 1.812-0.094 0.774 0 1.41 0.118 1.898 0.344 0.486 0.228 0.864 0.528 1.146 0.902 0.282 0.378 0.472 0.808 0.582 1.292s0.16 0.976 0.16 1.472v0.836c-0.086-0.020-0.234-0.050-0.454-0.098-0.214-0.040-0.468-0.090-0.758-0.14-0.292-0.058-0.598-0.098-0.918-0.132-0.324-0.032-0.64-0.046-0.938-0.046-0.95 0-1.856 0.098-2.714 0.29-0.864 0.196-1.618 0.496-2.266 0.906-0.644 0.41-1.156 0.946-1.528 1.614-0.382 0.668-0.566 1.464-0.566 2.39 0 0.972 0.16 1.8 0.48 2.488 0.324 0.692 0.778 1.246 1.36 1.664 0.582 0.422 1.27 0.726 2.066 0.922 0.798 0.192 1.67 0.288 2.618 0.288 0.668 0 1.34-0.028 2.016-0.082 0.68-0.050 1.312-0.11 1.894-0.176 0.58-0.062 1.102-0.132 1.568-0.21zM157.938 21.2c0.278-0.356 0.628-0.636 1.046-0.84 0.422-0.208 0.882-0.336 1.386-0.402 0.51-0.062 0.99-0.098 1.444-0.098 0.688 0 1.278 0.040 1.762 0.114 0.48 0.074 0.832 0.168 1.046 0.274v5.008c-0.368 0.086-0.824 0.148-1.372 0.18-0.55 0.032-1.18 0.046-1.89 0.046-1.188 0-2.122-0.208-2.808-0.628-0.696-0.418-1.036-1.168-1.036-2.246 0-0.584 0.142-1.052 0.422-1.408z"></path>
</svg>
