<!-- Generated by IcoMoon.io -->
<svg version="1.1" xmlns="http://www.w3.org/2000/svg" width="24" height="24" viewBox="0 0 24 24">
<title>investiment</title>
<path fill="#444" d="M12.392 17.143c-0.49 0.079-1.141 0.118-1.934 0.118-0.185 0-0.395-0.007-0.607-0.016-0.327-0.062-0.569-0.214-0.742-0.524l-0.527-0.943c0.233 0.016 1.262 0.107 1.885 0.107 0.703 0 1.277-0.035 1.706-0.103 0.128-0.022 0.225-0.056 0.3-0.11l-3.188-1.151c-0.269-0.083-0.567-0.125-0.889-0.125-1.133 0-2.193 0.514-2.31 0.573l-2.971 1.787c-0.326 0.178-0.63 0.198-0.977 0.041l-0.993-0.445c0 0-0.010-0.016 0.018-0.031l4.236-2.561c0.141-0.075 1.455-0.749 3.009-0.749 0.453 0 0.882 0.061 1.274 0.179l3.903 1.179c0.27 0.084 0.461 0.319 0.49 0.601 0.072 0.756-0.318 1.957-1.683 2.173zM22.77 13.399c-0.282-0.517-0.943-1.117-1.873-1.117-0.334 0-0.683 0.079-1.038 0.236-0.704 0.312-2.565 1.2-3.759 1.772-0.27 0.175-0.68 0.503-0.727 0.845l-0.149 1.052c0.062-0.012 0.125-0.015 0.189-0.046 0 0 3.913-1.878 5.005-2.361 0.047-0.022 0.098-0.041 0.156-0.041 0.065 0 0.13 0.026 0.204 0.144l-6.745 4.943c-0.377 0.28-0.851 0.433-1.334 0.433-0.114 0-0.228-0.008-0.341-0.026l-6.563-1.040c-0.163 0-0.322 0.056-0.449 0.156l-1.258 1.12c-0.303 0.262-0.418 0.558-0.377 0.958 0 0 0.128 1.102 0.166 1.069l2.166-1.878 6.102 0.977c0.189 0.028 0.38 0.043 0.57 0.043 0.764 0 1.527-0.248 2.144-0.699l7.727-5.658c0.273-0.208 0.353-0.58 0.186-0.884zM15.199 9.863c0 0.837-0.311 1.47-0.931 1.897-0.334 0.231-0.746 0.395-1.23 0.502-0.218 0.275-0.476 0.414-0.844 0.417l-1.082-0.003 0.198-0.284c-0.647-0.016-1.196-0.072-1.584-0.187-0.453-0.132-0.763-0.233-0.926-0.301 0.248-0.707 0.919-1.095 1.657-0.962 0.44 0.081 0.696 0.088 1.144 0.088 0.664 0 1.159-0.088 1.478-0.261 0.32-0.175 0.48-0.455 0.48-0.837 0-0.394-0.159-0.708-0.472-0.941-0.312-0.232-0.829-0.494-1.55-0.786-0.35-0.14-0.683-0.28-1.004-0.426-0.319-0.144-0.594-0.315-0.828-0.513-0.231-0.198-0.418-0.437-0.556-0.714-0.14-0.284-0.209-0.624-0.209-1.031 0-0.801 0.296-1.44 0.889-1.907 0.377-0.301 0.85-0.493 1.402-0.601l0.027-0.039c0.228-0.328 0.506-0.471 0.904-0.474l1.082 0.003-0.311 0.441c0.028 0.004 0.057 0.003 0.086 0.005 0.255 0.027 0.497 0.062 0.715 0.104 0.221 0.041 0.418 0.084 0.584 0.132 0.171 0.045 0.3 0.086 0.395 0.121-0.274 0.707-0.913 1.094-1.669 1.003-0.305-0.038-0.478-0.046-0.786-0.046-0.452 0-0.852 0.092-1.192 0.274-0.337 0.181-0.505 0.461-0.505 0.844 0 0.197 0.038 0.37 0.114 0.525 0.076 0.151 0.191 0.286 0.347 0.409 0.159 0.122 0.354 0.236 0.586 0.339s0.51 0.214 0.837 0.331c0.429 0.164 0.813 0.324 1.149 0.479 0.339 0.157 0.623 0.342 0.863 0.55 0.239 0.209 0.422 0.463 0.548 0.76 0.128 0.295 0.191 0.655 0.191 1.088z"></path>
</svg>
