<!-- Generated by IcoMoon.io -->
<svg version="1.1" xmlns="http://www.w3.org/2000/svg" width="154" height="24" viewBox="0 0 154 24">
<title>investira_h_pro</title>
<path fill="#444" d="M8.366 6.226c0-1.804 1.459-3.266 3.266-3.266h13.718v13.718c0 1.804-1.462 3.266-3.266 3.266h-13.718v-13.718zM11.633 1c-2.887 0-5.227 2.339-5.227 5.226v15.678h15.679c2.886 0 5.226-2.337 5.226-5.226v-15.678h-15.678zM20.834 4.919c-0.945 0-1.603 0.342-2.144 1.114l-8.364 11.95h2.557c0.941 0 1.6-0.342 2.141-1.113l8.367-11.952h-2.557zM64.798 8.114c-0.926 0-1.636 0.54-1.884 1.431-0.084 0.303-0.136 0.47-0.225 0.773-0.27 0.909-0.431 1.419-0.737 2.318-0.297 0.871-0.466 1.36-0.789 2.222-0.282 0.754-0.443 1.173-0.756 1.919-0.316-0.742-0.478-1.165-0.76-1.919-0.32-0.862-0.494-1.35-0.789-2.222-0.303-0.899-0.465-1.408-0.736-2.318-0.097-0.303-0.145-0.47-0.231-0.773-0.25-0.891-0.96-1.431-1.884-1.431h-0.598c0.626 2.343 1.044 3.643 1.93 5.903 0.784 1.995 1.237 3.111 2.14 5.057h1.855c0.899-1.947 1.357-3.062 2.139-5.057 0.886-2.259 1.301-3.559 1.927-5.903h-0.601zM47.096 8.056c-0.743 0.128-1.343 0.247-1.791 0.359v10.656h1.962v-9.263c0.072-0.014 0.187-0.034 0.349-0.063s0.348-0.054 0.549-0.074c0.203-0.024 0.419-0.039 0.645-0.054 0.223-0.016 0.442-0.021 0.653-0.021 0.519 0 0.955 0.067 1.309 0.2 0.348 0.135 0.631 0.349 0.843 0.644 0.209 0.297 0.359 0.682 0.453 1.161 0.090 0.478 0.136 1.056 0.136 1.73v5.742h1.965v-6.163c0-0.746-0.074-1.428-0.212-2.047-0.14-0.619-0.385-1.151-0.73-1.593-0.345-0.446-0.804-0.789-1.382-1.033-0.574-0.246-1.301-0.372-2.171-0.372-0.971-0.001-1.83 0.065-2.578 0.191zM102.070 8.086c-0.689 0.152-1.266 0.308-1.727 0.478v10.508h1.96v-9.224c0.112-0.027 0.351-0.081 0.707-0.158 0.359-0.077 0.726-0.118 1.092-0.118 0.171 0 0.265 0.001 0.436 0.009 0.967 0.039 1.735-0.483 2.049-1.399-0.084-0.027-0.214-0.060-0.391-0.097-0.174-0.031-0.367-0.068-0.579-0.103-0.212-0.034-0.426-0.061-0.643-0.084-0.219-0.022-0.414-0.035-0.583-0.035-0.857 0-1.633 0.076-2.322 0.222zM74.612 9.21c-0.789-0.922-1.923-1.382-3.398-1.382-0.631 0-1.253 0.12-1.858 0.358s-1.141 0.597-1.603 1.075c-0.465 0.479-0.835 1.082-1.118 1.806-0.281 0.726-0.421 1.572-0.421 2.542 0 0.831 0.107 1.594 0.327 2.29 0.217 0.696 0.554 1.297 1.005 1.804 0.449 0.508 1.023 0.904 1.718 1.192 0.696 0.291 1.521 0.432 2.477 0.432 0.763 0 1.44-0.069 2.037-0.21 0.597-0.14 1.018-0.273 1.256-0.4-0.251-0.834-1.011-1.318-1.874-1.194-0.466 0.065-0.737 0.076-1.207 0.076-1.225 0-2.123-0.298-2.699-0.887-0.575-0.593-0.908-1.455-0.993-2.593h7.512c0.013-0.115 0.021-0.238 0.021-0.37v-0.333c0-1.881-0.393-3.285-1.181-4.206zM68.303 12.532c0.039-0.379 0.128-0.753 0.261-1.117 0.135-0.366 0.321-0.689 0.563-0.971 0.238-0.282 0.53-0.51 0.873-0.686 0.345-0.175 0.741-0.261 1.192-0.261 0.802 0 1.432 0.284 1.889 0.853 0.456 0.571 0.681 1.297 0.668 2.183l-5.445-0.001zM78.61 8.681c-0.717 0.57-1.077 1.34-1.077 2.311 0 0.494 0.084 0.907 0.255 1.246 0.169 0.337 0.393 0.625 0.674 0.865 0.285 0.239 0.617 0.446 1.005 0.622 0.388 0.179 0.789 0.35 1.215 0.517 0.873 0.353 1.497 0.669 1.877 0.952 0.379 0.281 0.572 0.661 0.572 1.138 0 0.464-0.193 0.801-0.581 1.013-0.385 0.209-0.985 0.316-1.789 0.316-0.542 0-0.851-0.010-1.386-0.107-0.891-0.161-1.705 0.308-2.005 1.164 0.196 0.081 0.572 0.206 1.12 0.367 0.546 0.161 1.309 0.243 2.279 0.243 1.391 0 2.463-0.257 3.218-0.781 0.749-0.517 1.126-1.286 1.126-2.299 0-0.52-0.077-0.96-0.233-1.32-0.153-0.359-0.375-0.666-0.664-0.916-0.291-0.255-0.635-0.477-1.046-0.669-0.408-0.188-0.87-0.383-1.39-0.579-0.396-0.14-0.733-0.276-1.011-0.401-0.281-0.125-0.517-0.263-0.709-0.41-0.191-0.148-0.329-0.312-0.421-0.495-0.091-0.184-0.137-0.396-0.137-0.634 0-0.465 0.204-0.805 0.614-1.023 0.408-0.218 0.894-0.329 1.442-0.329 0.372 0 0.581 0.008 0.951 0.054 0.915 0.111 1.689-0.355 2.021-1.214-0.115-0.040-0.27-0.090-0.477-0.146-0.201-0.056-0.439-0.108-0.707-0.158-0.265-0.050-0.557-0.093-0.865-0.127-0.308-0.035-0.618-0.052-0.926-0.052-1.25-0.001-2.228 0.284-2.945 0.852zM115.638 10.348c-0.138-0.515-0.375-0.958-0.707-1.331-0.329-0.372-0.766-0.661-1.306-0.865-0.543-0.204-1.207-0.304-1.994-0.304-0.689 0-1.331 0.052-1.923 0.157-0.589 0.105-1.011 0.214-1.266 0.327 0.214 0.843 0.964 1.36 1.829 1.263 0.46-0.052 0.72-0.061 1.182-0.061 0.507 0 0.921 0.077 1.24 0.223 0.316 0.149 0.566 0.346 0.747 0.591 0.184 0.246 0.308 0.528 0.38 0.844s0.105 0.636 0.105 0.96v0.546c-0.056-0.013-0.153-0.031-0.298-0.063-0.138-0.027-0.304-0.059-0.495-0.093-0.191-0.037-0.391-0.064-0.6-0.085-0.212-0.021-0.417-0.031-0.613-0.031-0.621 0-1.212 0.064-1.773 0.191-0.564 0.128-1.057 0.324-1.48 0.592-0.421 0.265-0.755 0.618-0.998 1.054-0.25 0.436-0.37 0.956-0.37 1.559 0 0.635 0.105 1.176 0.314 1.628 0.212 0.452 0.508 0.811 0.888 1.087 0.38 0.273 0.83 0.474 1.35 0.6 0.519 0.128 1.090 0.191 1.71 0.191 0.436 0 0.875-0.018 1.318-0.054 0.444-0.033 0.856-0.072 1.236-0.115 0.378-0.040 0.721-0.086 1.023-0.137 0.3-0.048 0.538-0.085 0.707-0.115v-6.859c0.005-0.619-0.067-1.185-0.206-1.698zM113.928 17.535c-0.242 0.056-0.538 0.095-0.898 0.115-0.358 0.024-0.771 0.031-1.233 0.031-0.777 0-1.387-0.136-1.834-0.409-0.455-0.273-0.677-0.766-0.677-1.467 0-0.38 0.090-0.686 0.276-0.918 0.182-0.233 0.409-0.415 0.682-0.549 0.276-0.136 0.576-0.222 0.905-0.263 0.332-0.040 0.645-0.064 0.942-0.064 0.449 0 0.835 0.026 1.151 0.074 0.314 0.048 0.543 0.11 0.683 0.179l0.003 3.27zM87.115 6.681v7.921c0 0.734 0.056 1.371 0.176 1.924 0.119 0.558 0.324 1.023 0.625 1.406 0.294 0.38 0.682 0.664 1.169 0.854 0.487 0.189 1.104 0.284 1.847 0.284h2.718c0-0.952-0.773-1.727-1.726-1.727h-0.823c-0.337 0-0.634-0.039-0.886-0.125-0.251-0.082-0.462-0.23-0.634-0.434-0.167-0.204-0.295-0.485-0.378-0.844-0.084-0.359-0.127-0.809-0.127-1.357v-4.824h2.508c0.911 0 1.645-0.734 1.645-1.645h-4.153v-3.393c-1.084 0-1.962 0.878-1.962 1.96zM40.361 10.074v9c1.080 0 1.96-0.878 1.96-1.96v-9c-1.084 0-1.96 0.878-1.96 1.96zM40.072 4.838c0 0.699 0.567 1.267 1.267 1.267s1.269-0.568 1.269-1.267c0-0.7-0.57-1.269-1.269-1.269s-1.267 0.568-1.267 1.269zM95.396 10.074v9c1.084 0 1.96-0.878 1.96-1.96v-9c-1.083 0-1.96 0.878-1.96 1.96zM95.109 4.838c0 0.699 0.568 1.267 1.266 1.267 0.702 0 1.27-0.568 1.27-1.267 0-0.7-0.568-1.269-1.27-1.269-0.699 0-1.266 0.568-1.266 1.269zM146.961 11.421c-0.246-0.698-0.587-1.293-1.026-1.789-0.439-0.494-0.956-0.877-1.556-1.148s-1.261-0.408-1.986-0.408c-0.726 0-1.387 0.136-1.987 0.408-0.597 0.272-1.116 0.655-1.555 1.148-0.439 0.495-0.783 1.091-1.023 1.789-0.246 0.696-0.367 1.47-0.367 2.319 0 0.848 0.123 1.623 0.367 2.318 0.243 0.698 0.584 1.29 1.023 1.777s0.958 0.865 1.555 1.138c0.6 0.27 1.263 0.408 1.987 0.408s1.386-0.137 1.986-0.408c0.6-0.273 1.117-0.651 1.556-1.138s0.781-1.079 1.026-1.777c0.243-0.695 0.363-1.47 0.363-2.318 0.001-0.849-0.121-1.623-0.363-2.319zM144.943 16.957c-0.627 0.793-1.479 1.192-2.549 1.192-1.074 0-1.928-0.398-2.552-1.192-0.627-0.793-0.939-1.866-0.939-3.218 0-1.354 0.31-2.427 0.939-3.232 0.626-0.801 1.478-1.202 2.552-1.202 1.070 0 1.922 0.401 2.549 1.202 0.626 0.802 0.942 1.879 0.942 3.232s-0.315 2.425-0.942 3.218zM127.767 11.398c-0.26-0.698-0.621-1.29-1.087-1.777-0.466-0.489-1.026-0.86-1.674-1.117s-1.368-0.388-2.162-0.388c-0.959 0-1.757 0.064-2.383 0.189s-1.141 0.257-1.548 0.398v14.296c0.75 0 1.36-0.61 1.36-1.357v-3.134c0.239 0.183 0.619 0.372 1.138 0.572 0.523 0.201 1.141 0.303 1.85 0.303 0.783 0 1.475-0.137 2.080-0.418 0.609-0.278 1.12-0.666 1.538-1.161s0.734-1.087 0.952-1.776c0.217-0.689 0.324-1.445 0.324-2.267-0.003-0.882-0.131-1.667-0.388-2.363zM126.521 15.465c-0.125 0.536-0.327 1.003-0.605 1.399-0.281 0.397-0.645 0.711-1.097 0.941-0.455 0.23-1.015 0.348-1.684 0.348-0.321 0-0.627-0.031-0.918-0.095-0.297-0.063-0.567-0.138-0.817-0.242-0.25-0.094-0.469-0.199-0.658-0.311-0.191-0.112-0.345-0.217-0.469-0.314v-7.549c0.209-0.071 0.517-0.136 0.929-0.197 0.41-0.063 0.952-0.094 1.62-0.094 1.171 0 2.113 0.379 2.822 1.138 0.712 0.76 1.066 1.85 1.066 3.273 0.001 0.597-0.064 1.168-0.188 1.704zM136.593 8.416c-0.227 0.632-0.779 0.985-1.446 0.929-0.25-0.021-0.533-0.029-0.852-0.029-0.584 0-1.057 0.043-1.411 0.125-0.354 0.085-0.589 0.154-0.699 0.209v9.471h-1.36v-10.307c0.351-0.153 0.83-0.311 1.444-0.472 0.613-0.159 1.357-0.24 2.235-0.24 0.447 0 0.868 0.035 1.266 0.105 0.395 0.072 0.67 0.14 0.823 0.209z"></path>
</svg>
