<!-- Generated by IcoMoon.io -->
<svg version="1.1" xmlns="http://www.w3.org/2000/svg" width="205" height="32" viewBox="0 0 205 32">
<title>investira_h_pro</title>
<path d="M204.445 15.157c-0.357-1.015-0.853-1.881-1.492-2.602-0.639-0.718-1.391-1.275-2.263-1.67s-1.834-0.593-2.889-0.593-2.018 0.198-2.89 0.593c-0.868 0.395-1.625 0.952-2.263 1.67-0.639 0.72-1.136 1.587-1.488 2.602-0.357 1.013-0.534 2.138-0.534 3.373s0.179 2.36 0.534 3.373c0.353 1.015 0.849 1.876 1.488 2.586 0.639 0.709 1.395 1.258 2.263 1.655 0.872 0.393 1.838 0.593 2.89 0.593s2.016-0.2 2.889-0.593c0.872-0.397 1.625-0.946 2.263-1.655 0.639-0.711 1.136-1.572 1.492-2.586 0.353-1.013 0.53-2.138 0.53-3.373s-0.179-2.36-0.53-3.373zM201.509 23.211c-0.912 1.155-2.149 1.733-3.708 1.733-1.562 0-2.803-0.578-3.711-1.733-0.912-1.154-1.366-2.714-1.366-4.681s0.452-3.531 1.366-4.7c0.91-1.165 2.149-1.748 3.711-1.748 1.558 0 2.795 0.583 3.708 1.748 0.912 1.167 1.37 2.733 1.37 4.7s-0.458 3.527-1.37 4.681zM176.525 15.125c-0.378-1.015-0.903-1.876-1.581-2.584-0.678-0.711-1.492-1.25-2.434-1.625s-1.99-0.564-3.147-0.564c-1.395 0-2.554 0.093-3.466 0.276-0.91 0.182-1.659 0.374-2.25 0.58v20.796c1.091 0 1.978-0.887 1.978-1.974v-4.561c0.346 0.264 0.899 0.542 1.655 0.834 0.76 0.293 1.659 0.441 2.691 0.441 1.136 0 2.145-0.2 3.025-0.608 0.884-0.405 1.629-0.969 2.235-1.689 0.608-0.72 1.068-1.581 1.385-2.583 0.315-1.003 0.471-2.104 0.471-3.299-0.002-1.281-0.188-2.425-0.563-3.438zM174.714 21.041c-0.182 0.779-0.475 1.459-0.88 2.035-0.409 0.578-0.939 1.034-1.596 1.368-0.661 0.334-1.477 0.506-2.45 0.506-0.468 0-0.912-0.047-1.336-0.141-0.431-0.089-0.825-0.203-1.188-0.35-0.363-0.139-0.682-0.291-0.958-0.454-0.276-0.162-0.502-0.314-0.682-0.456v-10.978c0.304-0.103 0.753-0.198 1.351-0.287 0.597-0.091 1.385-0.137 2.356-0.137 1.703 0 3.073 0.551 4.105 1.655 1.036 1.106 1.551 2.691 1.551 4.76 0.002 0.868-0.091 1.699-0.274 2.478zM189.364 10.786c-0.331 0.92-1.133 1.433-2.104 1.351-0.363-0.030-0.775-0.044-1.239-0.044-0.849 0-1.537 0.063-2.052 0.182-0.515 0.124-0.857 0.224-1.017 0.304v13.774h-1.978v-14.988c0.509-0.222 1.207-0.452 2.1-0.686 0.891-0.232 1.974-0.35 3.251-0.35 0.65 0 1.262 0.051 1.841 0.152 0.574 0.105 0.975 0.203 1.197 0.304zM7.651 0.053c-4.198 0-7.601 3.402-7.601 7.601v22.804h22.804c4.198 0 7.601-3.404 7.601-7.601v-22.804h-22.804zM12.584 23.137c-0.787 1.125-1.745 1.623-3.115 1.623h-3.719l12.17-17.384c0.787-1.123 1.745-1.621 3.115-1.621h3.719l-12.17 17.383zM84.965 10.344c-1.347 0-2.379 0.787-2.742 2.083-0.122 0.441-0.198 0.682-0.327 1.125-0.393 1.321-0.627 2.064-1.072 3.369-0.431 1.269-0.678 1.978-1.148 3.233-0.412 1.098-0.646 1.712-1.102 2.792-0.46-1.079-0.697-1.693-1.106-2.792-0.468-1.254-0.72-1.963-1.15-3.233-0.441-1.307-0.678-2.049-1.072-3.369-0.129-0.441-0.2-0.682-0.323-1.125-0.367-1.296-1.399-2.083-2.742-2.083h-0.872c0.906 3.407 1.516 5.3 2.805 8.586 1.14 2.902 1.8 4.525 3.111 7.358h2.698c1.307-2.832 1.974-4.456 3.111-7.358 1.288-3.286 1.893-5.178 2.803-8.586h-0.872zM59.219 10.262c-1.079 0.186-1.952 0.359-2.605 0.523v15.501h2.854v-13.477c0.105-0.019 0.272-0.047 0.505-0.089 0.238-0.040 0.505-0.078 0.798-0.108 0.296-0.034 0.612-0.059 0.939-0.078 0.327-0.023 0.642-0.030 0.95-0.030 0.756 0 1.391 0.097 1.904 0.289 0.507 0.2 0.918 0.511 1.228 0.939 0.304 0.431 0.523 0.994 0.661 1.689 0.129 0.697 0.198 1.537 0.198 2.516v8.352h2.858v-8.966c0-1.083-0.108-2.075-0.308-2.976-0.203-0.903-0.561-1.674-1.062-2.317-0.502-0.65-1.169-1.148-2.012-1.503-0.836-0.359-1.895-0.542-3.16-0.542-1.41 0-2.66 0.097-3.748 0.277zM139.182 10.307c-1.001 0.219-1.841 0.445-2.512 0.694v15.285h2.851v-13.415c0.163-0.040 0.509-0.118 1.028-0.23 0.523-0.112 1.055-0.171 1.589-0.171 0.249 0 0.386 0 0.635 0.011 1.406 0.059 2.524-0.701 2.98-2.033-0.122-0.040-0.312-0.089-0.568-0.141-0.253-0.047-0.534-0.101-0.842-0.152s-0.619-0.089-0.935-0.125c-0.319-0.027-0.601-0.044-0.846-0.044-1.249-0.002-2.377 0.106-3.379 0.321zM99.24 11.947c-1.148-1.34-2.795-2.009-4.941-2.009-0.92 0-1.822 0.175-2.702 0.519s-1.659 0.868-2.332 1.566c-0.678 0.694-1.218 1.57-1.629 2.624-0.409 1.055-0.612 2.286-0.612 3.696 0 1.207 0.156 2.317 0.475 3.331 0.315 1.015 0.806 1.887 1.459 2.626 0.654 0.735 1.488 1.313 2.501 1.733s2.212 0.627 3.603 0.627c1.11 0 2.094-0.101 2.963-0.304 0.868-0.207 1.48-0.401 1.826-0.583-0.367-1.211-1.473-1.916-2.725-1.737-0.678 0.097-1.072 0.108-1.756 0.108-1.783 0-3.088-0.431-3.926-1.288-0.838-0.861-1.321-2.121-1.444-3.776h10.927c0.019-0.167 0.030-0.342 0.030-0.538v-0.475c0-2.74-0.57-4.781-1.718-6.121zM90.065 16.78c0.059-0.549 0.186-1.095 0.382-1.625 0.194-0.53 0.468-1.002 0.817-1.41 0.346-0.412 0.772-0.743 1.269-0.998 0.502-0.257 1.079-0.382 1.733-0.382 1.169 0 2.083 0.412 2.75 1.243 0.661 0.829 0.988 1.885 0.969 3.174h-7.921zM105.057 11.18c-1.043 0.829-1.566 1.952-1.566 3.364 0 0.716 0.122 1.317 0.371 1.811 0.245 0.49 0.572 0.91 0.981 1.258 0.412 0.35 0.895 0.65 1.459 0.906s1.15 0.506 1.767 0.751c1.269 0.513 2.178 0.973 2.729 1.385 0.553 0.409 0.832 0.96 0.832 1.657 0 0.675-0.281 1.165-0.846 1.473-0.561 0.304-1.433 0.46-2.602 0.46-0.791 0-1.239-0.011-2.016-0.156-1.296-0.234-2.48 0.448-2.917 1.693 0.285 0.118 0.832 0.3 1.629 0.534 0.794 0.234 1.904 0.353 3.314 0.353 2.026 0 3.582-0.374 4.681-1.136 1.091-0.753 1.64-1.87 1.64-3.345 0-0.758-0.112-1.397-0.338-1.919-0.222-0.523-0.545-0.965-0.965-1.332-0.424-0.371-0.924-0.694-1.522-0.969-0.591-0.276-1.266-0.557-2.022-0.846-0.576-0.203-1.066-0.401-1.473-0.583s-0.756-0.386-1.036-0.601c-0.276-0.215-0.479-0.452-0.612-0.72s-0.201-0.576-0.201-0.922c0-0.678 0.296-1.173 0.891-1.488 0.593-0.319 1.3-0.479 2.098-0.479 0.542 0 0.846 0.011 1.382 0.078 1.332 0.16 2.457-0.519 2.94-1.767-0.167-0.059-0.393-0.129-0.694-0.211-0.293-0.082-0.639-0.16-1.028-0.23-0.386-0.074-0.81-0.137-1.258-0.186-0.448-0.051-0.899-0.074-1.347-0.074-1.805 0-3.227 0.412-4.27 1.241zM117.426 8.263v11.524c0 1.066 0.082 1.992 0.257 2.799 0.171 0.81 0.471 1.488 0.906 2.041 0.428 0.553 0.994 0.969 1.701 1.243 0.709 0.277 1.604 0.416 2.687 0.416h3.953c0-1.387-1.125-2.512-2.512-2.512h-1.195c-0.49 0-0.924-0.059-1.288-0.186-0.367-0.118-0.675-0.331-0.924-0.631-0.241-0.293-0.428-0.705-0.549-1.228s-0.182-1.176-0.182-1.974v-7.016h3.649c1.325 0 2.391-1.068 2.391-2.394h-6.039v-4.931c-1.575 0-2.852 1.277-2.852 2.851zM49.42 13.194v13.091c1.572 0 2.852-1.277 2.852-2.851v-13.091c-1.575 0-2.852 1.277-2.852 2.851zM49.002 5.583c0 1.017 0.825 1.841 1.841 1.841 1.019 0 1.847-0.825 1.847-1.841 0-1.021-0.829-1.845-1.847-1.845s-1.841 0.823-1.841 1.845zM129.471 13.194v13.091c1.577 0 2.851-1.277 2.851-2.851v-13.091c-1.573 0-2.851 1.277-2.851 2.851zM129.057 5.583c0 1.017 0.825 1.841 1.841 1.841 1.020 0 1.845-0.825 1.845-1.841 0-1.021-0.825-1.845-1.845-1.845-1.019 0-1.841 0.823-1.841 1.845zM158.197 26.219c0.437-0.070 0.783-0.125 1.028-0.167v-9.977c0-0.903-0.105-1.722-0.308-2.472-0.203-0.747-0.545-1.391-1.028-1.935-0.479-0.542-1.114-0.962-1.9-1.258-0.791-0.296-1.756-0.441-2.902-0.441-1.001 0-1.935 0.074-2.795 0.226-0.857 0.152-1.473 0.312-1.841 0.475 0.312 1.226 1.402 1.978 2.661 1.838 0.669-0.074 1.047-0.089 1.722-0.089 0.735 0 1.34 0.112 1.803 0.327 0.46 0.215 0.821 0.502 1.087 0.857 0.268 0.359 0.448 0.768 0.553 1.228s0.152 0.927 0.152 1.399v0.794c-0.082-0.019-0.222-0.047-0.431-0.093-0.203-0.038-0.445-0.086-0.72-0.133-0.277-0.055-0.568-0.093-0.872-0.125-0.308-0.030-0.608-0.044-0.891-0.044-0.903 0-1.764 0.093-2.579 0.276-0.821 0.186-1.537 0.471-2.153 0.861-0.612 0.39-1.098 0.899-1.452 1.534-0.363 0.635-0.538 1.391-0.538 2.271 0 0.925 0.152 1.712 0.456 2.366 0.308 0.658 0.739 1.184 1.292 1.581 0.553 0.401 1.207 0.69 1.963 0.876 0.756 0.182 1.585 0.276 2.488 0.276 0.635 0 1.273-0.027 1.916-0.078 0.646-0.047 1.247-0.105 1.8-0.167 0.551-0.061 1.049-0.129 1.492-0.203zM150.078 20.203c0.264-0.338 0.597-0.604 0.994-0.798 0.401-0.198 0.838-0.319 1.317-0.382 0.483-0.059 0.939-0.093 1.37-0.093 0.654 0 1.214 0.038 1.674 0.108 0.456 0.070 0.791 0.16 0.994 0.26v4.758c-0.35 0.082-0.783 0.141-1.304 0.171-0.523 0.030-1.121 0.044-1.796 0.044-1.129 0-2.016-0.198-2.668-0.597-0.661-0.397-0.984-1.11-0.984-2.136 0.002-0.553 0.135-0.998 0.403-1.336z"></path>
</svg>
