<!-- Generated by IcoMoon.io -->
<svg version="1.1" xmlns="http://www.w3.org/2000/svg" width="50" height="32" viewBox="0 0 50 32">
<title>investira_v</title>
<path d="M21.477 0c-1.899 0-3.436 1.538-3.436 3.436v10.309h10.309c1.898 0 3.436-1.538 3.436-3.436v-10.309h-10.309zM23.707 10.435c-0.356 0.508-0.788 0.733-1.408 0.733h-1.68l5.501-7.858c0.356-0.509 0.787-0.733 1.407-0.733h1.681l-5.501 7.858zM16.259 24.622c-0.609 0-1.076 0.356-1.24 0.942-0.055 0.199-0.088 0.308-0.148 0.509-0.178 0.597-0.284 0.933-0.484 1.523-0.196 0.574-0.308 0.894-0.519 1.461-0.186 0.497-0.292 0.773-0.498 1.262-0.208-0.488-0.315-0.765-0.501-1.262-0.21-0.567-0.325-0.887-0.519-1.461-0.201-0.591-0.308-0.926-0.485-1.523-0.058-0.198-0.091-0.308-0.147-0.509-0.165-0.586-0.632-0.942-1.24-0.942h-0.393c0.412 1.54 0.686 2.396 1.268 3.881 0.515 1.312 0.814 2.045 1.406 3.325h1.219c0.591-1.28 0.893-2.014 1.406-3.325 0.582-1.485 0.856-2.341 1.268-3.881h-0.393zM4.619 24.585c-0.49 0.084-0.884 0.162-1.179 0.236v7.006h1.291v-6.092c0.046-0.009 0.121-0.021 0.228-0.040s0.228-0.035 0.361-0.050c0.134-0.015 0.277-0.026 0.424-0.035s0.29-0.014 0.43-0.014c0.343 0 0.629 0.044 0.861 0.131 0.23 0.089 0.417 0.23 0.556 0.423 0.137 0.195 0.236 0.448 0.297 0.764s0.090 0.695 0.090 1.137v3.776h1.291v-4.052c0-0.49-0.048-0.938-0.139-1.345-0.093-0.408-0.253-0.757-0.479-1.047-0.227-0.294-0.529-0.519-0.909-0.68-0.379-0.162-0.856-0.245-1.429-0.245-0.638 0.003-1.203 0.046-1.694 0.129zM40.768 24.606c-0.453 0.099-0.833 0.201-1.137 0.314v6.909h1.29v-6.064c0.074-0.018 0.23-0.053 0.465-0.104 0.236-0.051 0.477-0.077 0.716-0.077 0.114 0 0.176 0 0.287 0.005 0.637 0.027 1.141-0.317 1.349-0.919-0.055-0.018-0.141-0.040-0.258-0.064-0.114-0.021-0.242-0.046-0.38-0.069-0.139-0.022-0.282-0.040-0.424-0.056-0.143-0.013-0.271-0.019-0.381-0.019-0.566-0.003-1.076 0.046-1.527 0.143zM22.711 25.347c-0.518-0.606-1.263-0.908-2.234-0.908-0.416 0-0.824 0.079-1.221 0.235s-0.75 0.393-1.055 0.707c-0.306 0.314-0.551 0.71-0.735 1.186s-0.277 1.033-0.277 1.671c0 0.546 0.071 1.047 0.216 1.507 0.143 0.458 0.363 0.852 0.659 1.186s0.673 0.594 1.131 0.783c0.458 0.191 1.001 0.284 1.629 0.284 0.502 0 0.948-0.046 1.34-0.137 0.393-0.093 0.669-0.181 0.826-0.264-0.167-0.548-0.667-0.867-1.232-0.785-0.308 0.044-0.485 0.049-0.795 0.049-0.805 0-1.396-0.195-1.775-0.582-0.379-0.389-0.597-0.958-0.653-1.706h4.94c0.009-0.076 0.014-0.155 0.014-0.242v-0.216c0-1.238-0.259-2.161-0.777-2.766zM18.563 27.532c0.027-0.248 0.085-0.495 0.173-0.735s0.211-0.452 0.369-0.637c0.156-0.187 0.349-0.337 0.574-0.451 0.228-0.116 0.488-0.172 0.783-0.172 0.528 0 0.942 0.186 1.243 0.561 0.299 0.375 0.447 0.852 0.438 1.435l-3.581-0.002zM25.341 25c-0.472 0.375-0.708 0.882-0.708 1.521 0 0.324 0.054 0.594 0.167 0.819 0.111 0.222 0.259 0.412 0.444 0.568 0.186 0.159 0.405 0.295 0.66 0.411s0.52 0.229 0.799 0.34c0.574 0.232 0.984 0.44 1.234 0.626 0.25 0.185 0.375 0.435 0.375 0.748 0 0.305-0.125 0.527-0.381 0.666-0.255 0.137-0.648 0.208-1.176 0.208-0.357 0-0.56-0.005-0.912-0.070-0.586-0.106-1.121 0.202-1.318 0.765 0.128 0.053 0.375 0.136 0.735 0.241s0.862 0.16 1.499 0.16c0.915 0 1.62-0.169 2.116-0.514 0.493-0.34 0.741-0.845 0.741-1.512 0-0.342-0.052-0.631-0.154-0.869-0.101-0.237-0.247-0.436-0.436-0.601-0.192-0.168-0.418-0.314-0.688-0.439-0.268-0.125-0.572-0.252-0.914-0.381-0.26-0.092-0.482-0.181-0.665-0.265s-0.34-0.172-0.466-0.269c-0.125-0.097-0.216-0.204-0.276-0.326s-0.090-0.261-0.090-0.416c0-0.307 0.134-0.53 0.403-0.673 0.268-0.144 0.588-0.216 0.948-0.216 0.245 0 0.382 0.005 0.625 0.035 0.601 0.072 1.111-0.235 1.329-0.799-0.076-0.027-0.178-0.058-0.313-0.095s-0.289-0.072-0.465-0.104c-0.176-0.034-0.367-0.062-0.569-0.084s-0.407-0.034-0.609-0.034c-0.823-0.003-1.466 0.183-1.937 0.558zM30.933 23.681v5.208c0 0.483 0.035 0.902 0.116 1.266 0.077 0.366 0.213 0.672 0.41 0.922 0.194 0.25 0.449 0.439 0.77 0.562 0.32 0.125 0.725 0.188 1.214 0.188h1.787c0-0.626-0.509-1.135-1.135-1.135h-0.54c-0.222 0-0.417-0.027-0.583-0.085-0.165-0.053-0.304-0.149-0.417-0.285-0.109-0.131-0.194-0.319-0.248-0.555-0.056-0.235-0.083-0.531-0.083-0.892v-3.172h1.65c0.598 0 1.081-0.483 1.081-1.082h-2.731v-2.231c-0.712 0.003-1.289 0.58-1.289 1.291zM0.19 25.911v5.918c0.711 0 1.289-0.577 1.289-1.289v-5.918c-0.712 0-1.289 0.577-1.289 1.289zM0 22.47c0 0.46 0.373 0.832 0.833 0.832s0.833-0.373 0.833-0.832c0-0.461-0.373-0.834-0.833-0.834s-0.833 0.373-0.833 0.834zM36.378 25.911v5.918c0.711 0 1.289-0.577 1.289-1.289v-5.918c-0.711 0-1.289 0.577-1.289 1.289zM36.188 22.47c0 0.46 0.375 0.832 0.833 0.832 0.46 0 0.835-0.373 0.835-0.832 0-0.461-0.375-0.834-0.835-0.834-0.459 0.001-0.833 0.373-0.833 0.834zM49.361 31.799c0.198-0.032 0.354-0.056 0.465-0.076v-4.51c0-0.408-0.046-0.778-0.137-1.118-0.092-0.338-0.247-0.629-0.466-0.875-0.216-0.245-0.503-0.435-0.859-0.569s-0.794-0.199-1.31-0.199c-0.453 0-0.876 0.034-1.265 0.102-0.386 0.069-0.664 0.141-0.832 0.215 0.143 0.554 0.635 0.894 1.204 0.831 0.303-0.034 0.474-0.040 0.778-0.040 0.332 0 0.605 0.051 0.814 0.148 0.208 0.097 0.372 0.227 0.491 0.387 0.121 0.162 0.203 0.347 0.25 0.555s0.069 0.418 0.069 0.631v0.359c-0.037-0.009-0.1-0.021-0.195-0.042-0.092-0.018-0.201-0.039-0.326-0.059-0.125-0.025-0.257-0.043-0.396-0.057s-0.273-0.020-0.403-0.020c-0.407 0-0.796 0.042-1.164 0.125-0.371 0.085-0.695 0.213-0.973 0.389-0.277 0.176-0.497 0.407-0.658 0.694s-0.243 0.628-0.243 1.026c0 0.418 0.069 0.773 0.208 1.069 0.138 0.298 0.332 0.535 0.582 0.715 0.25 0.181 0.547 0.312 0.889 0.396s0.716 0.125 1.124 0.125c0.287 0 0.576-0.013 0.866-0.035 0.292-0.021 0.564-0.048 0.812-0.076 0.253-0.028 0.478-0.058 0.676-0.092zM45.693 29.079c0.119-0.153 0.269-0.272 0.448-0.361 0.181-0.089 0.379-0.144 0.595-0.173 0.218-0.026 0.424-0.042 0.619-0.042 0.296 0 0.55 0.018 0.757 0.049s0.357 0.072 0.449 0.119v2.151c-0.158 0.037-0.354 0.064-0.591 0.077-0.235 0.015-0.503 0.019-0.809 0.019-0.51 0-0.912-0.089-1.207-0.27-0.298-0.18-0.444-0.502-0.444-0.965 0.002-0.251 0.060-0.453 0.182-0.605z"></path>
</svg>
