<!-- Generated by IcoMoon.io -->
<svg version="1.1" xmlns="http://www.w3.org/2000/svg" width="32" height="32" viewBox="0 0 32 32">
<path d="M8.277 24.4v1.493c0 0.537-0.197 0.881-0.636 1.189l-2.517 1.765c-0.443 0.307-0.831 0.372-1.336 0.191l-1.404-0.513 5.893-4.125zM27.151 17.865c-3.461 2.423-8.128 1.779-10.869-1.307l-14.948 10.467v-1.493c0-0.536 0.195-0.88 0.636-1.189l13.257-9.281c-2-3.639-1.017-8.275 2.46-10.709 3.728-2.609 8.883-1.7 11.491 2.024 2.609 3.727 1.7 8.879-2.027 11.489zM27.675 7.427c-2.028-2.896-6.037-3.605-8.936-1.576-2.9 2.031-3.604 6.037-1.576 8.937 2.028 2.897 6.037 3.607 8.936 1.576 2.901-2.029 3.607-6.040 1.576-8.937z"></path>
</svg>
