<!-- Generated by IcoMoon.io -->
<svg version="1.1" xmlns="http://www.w3.org/2000/svg" width="24" height="24" viewBox="0 0 24 24">
<title>key</title>
<path fill="#444" d="M6.268 18.234v1.107c0 0.399-0.146 0.653-0.472 0.882l-1.868 1.31c-0.328 0.229-0.616 0.276-0.992 0.141l-1.042-0.38 4.374-3.061zM20.274 13.385c-2.569 1.799-6.032 1.321-8.066-0.97l-11.092 7.767v-1.107c0-0.399 0.144-0.653 0.472-0.882l9.837-6.887c-1.484-2.702-0.755-6.142 1.826-7.951 2.766-1.937 6.591-1.262 8.527 1.502 1.936 2.766 1.261 6.59-1.505 8.527zM20.663 5.638c-1.505-2.15-4.48-2.676-6.631-1.169-2.152 1.506-2.675 4.48-1.169 6.632 1.505 2.15 4.48 2.676 6.631 1.169 2.152-1.506 2.676-4.483 1.169-6.632z"></path>
</svg>
