<!-- Generated by IcoMoon.io -->
<svg version="1.1" xmlns="http://www.w3.org/2000/svg" width="24" height="24" viewBox="0 0 24 24">
<title>keyboard</title>
<path fill="#444" d="M7.188 14.109h9.562v1.375h-9.562v-1.375z"></path>
<path fill="#444" d="M4.438 14.109h1.375v1.375h-1.375v-1.375z"></path>
<path fill="#444" d="M8.562 11.312h1.375v1.375h-1.375v-1.375z"></path>
<path fill="#444" d="M7.188 8.609h1.375v1.375h-1.375v-1.375z"></path>
<path fill="#444" d="M4.438 8.609h1.375v1.375h-1.375v-1.375z"></path>
<path fill="#444" d="M4.438 11.359h2.562v1.375h-2.562v-1.375z"></path>
<path fill="#444" d="M12.688 8.609h1.375v1.375h-1.375v-1.375z"></path>
<path fill="#444" d="M9.938 8.609h1.375v1.375h-1.375v-1.375z"></path>
<path fill="#444" d="M18.188 11.359h-1.188v1.375h2.562v-4.125h-1.374z"></path>
<path fill="#444" d="M20.999 5.609h-17.998c-1.104 0-2.001 0.891-2.001 1.977v8.828c0 1.086 0.897 1.977 2.001 1.977h17.998c1.104 0 2.001-0.891 2.001-1.977v-8.828c0-1.086-0.897-1.977-2.001-1.977zM21.625 8.078v8.336c0 0.326-0.287 0.602-0.626 0.602h-17.998c-0.339 0-0.626-0.275-0.626-0.602v-8.828c0-0.326 0.287-0.602 0.626-0.602h17.998c0.339 0 0.626 0.275 0.626 0.602v0.492z"></path>
<path fill="#444" d="M18.188 14.109h1.375v1.375h-1.375v-1.375z"></path>
<path fill="#444" d="M11.312 11.312h1.375v1.375h-1.375v-1.375z"></path>
<path fill="#444" d="M15.438 8.609h1.375v1.375h-1.375v-1.375z"></path>
<path fill="#444" d="M14.062 11.312h1.375v1.375h-1.375v-1.375z"></path>
</svg>
