<!-- Generated by IcoMoon.io -->
<svg version="1.1" xmlns="http://www.w3.org/2000/svg" width="32" height="32" viewBox="0 0 32 32">
<path d="M16 6.833c-3.287 0-5.96 2.673-5.96 5.96 0 1.765 0.857 3.441 2.293 4.584v5.956c0 1.013 0.821 1.833 1.833 1.833h3.667c1.012 0 1.833-0.82 1.833-1.833v-5.957c1.437-1.141 2.293-2.817 2.293-4.584 0-3.285-2.673-5.959-5.96-5.959zM17.833 16.4v6.933h-3.667v-6.933c-1.281-0.696-2.293-2.043-2.293-3.607 0-2.279 1.849-4.127 4.127-4.127s4.127 1.848 4.127 4.127c0 1.564-1.012 2.909-2.293 3.607zM16 1.333c-8.1 0-14.667 6.568-14.667 14.667s6.567 14.667 14.667 14.667 14.667-6.568 14.667-14.667-6.567-14.667-14.667-14.667zM16 28.833c-7.088 0-12.833-5.745-12.833-12.833s5.745-12.833 12.833-12.833 12.833 5.745 12.833 12.833-5.745 12.833-12.833 12.833z"></path>
</svg>
