<!-- Generated by IcoMoon.io -->
<svg version="1.1" xmlns="http://www.w3.org/2000/svg" width="24" height="24" viewBox="0 0 24 24">
<title>lamp</title>
<path fill="#444" d="M12.082 1c-0.004 0-0.162 0-0.166 0-3.865 0.040-7.008 3.216-7.008 7.079 0 1.841 0.707 3.585 2.021 4.953 0.373 0.506 1.665 3.262 1.777 4.583 0.055 0.659-0.089 1.155 0.551 1.232-0.001 0.010-0.007 0.018-0.007 0.029v2.75c0 0.76 0.616 1.375 1.375 1.375h2.768c0.759 0 1.375-0.615 1.375-1.375v-2.75h0.026c0.715 0 0.58-0.547 0.639-1.261 0.115-1.389 1.312-4.136 1.668-4.621 1.284-1.327 1.991-3.072 1.991-4.913 0-3.868-3.145-7.044-7.010-7.080zM13.393 21.625h-2.768v-2.75h2.768v2.75zM16.113 12.036c-0.054 0.058-0.104 0.115-0.149 0.179-0.473 0.645-1.764 3.635-1.902 5.285h-3.988c-0.137-1.65-1.566-4.643-2.039-5.285-0.047-0.063-0.095-0.121-0.149-0.177-1.034-1.070-1.605-2.476-1.605-3.959 0-3.125 2.527-5.672 5.647-5.704 0.023 0.001 0.115 0.001 0.14 0 3.12 0.029 5.647 2.578 5.647 5.704 0 1.484-0.571 2.889-1.605 3.957z"></path>
</svg>
