<!-- Generated by IcoMoon.io -->
<svg version="1.1" xmlns="http://www.w3.org/2000/svg" width="32" height="32" viewBox="0 0 32 32">
<title>lamp</title>
<path d="M16.111 1.333c-0.005 0-0.216 0-0.223 0-5.152 0.053-9.344 4.288-9.344 9.439 0 2.455 0.943 4.78 2.695 6.603 0.497 0.675 2.221 4.349 2.368 6.111 0.073 0.877-0.119 1.539 0.735 1.641 0 0.015-0.008 0.025-0.008 0.039v3.667c0 1.013 0.821 1.833 1.833 1.833h3.691c1.012 0 1.833-0.82 1.833-1.833v-3.667h0.033c0.953 0 0.773-0.731 0.853-1.681 0.155-1.852 1.749-5.515 2.224-6.163 1.712-1.768 2.655-4.096 2.655-6.551 0-5.155-4.192-9.389-9.345-9.437zM17.857 28.833h-3.691v-3.667h3.691v3.667zM21.484 16.048c-0.072 0.077-0.139 0.153-0.199 0.239-0.631 0.86-2.352 4.847-2.535 7.047h-5.316c-0.184-2.2-2.088-6.192-2.72-7.047-0.061-0.084-0.127-0.161-0.197-0.237-1.379-1.425-2.139-3.303-2.139-5.277 0-4.168 3.371-7.563 7.529-7.605 0.031 0.001 0.155 0.001 0.187 0 4.159 0.039 7.529 3.437 7.529 7.605-0.001 1.977-0.761 3.852-2.14 5.276z"></path>
</svg>
