<!-- Generated by IcoMoon.io -->
<svg version="1.1" xmlns="http://www.w3.org/2000/svg" width="34" height="32" viewBox="0 0 34 32">
<path d="M13.653 21.86c0.042-0.44 0.341-0.801 0.744-0.934l0.008-0.002 6.136-1.841c0.592-0.173 1.273-0.273 1.977-0.276h0.002c1.713 0.046 3.316 0.471 4.742 1.195l-0.063-0.029 6.55 3.989s0 0 0 0l-1.534 0.706c-0.22 0.129-0.485 0.206-0.767 0.206s-0.547-0.076-0.774-0.209l0.007 0.004-4.602-2.792c-1.048-0.521-2.276-0.844-3.575-0.889l-0.015-0c-0.492 0.001-0.967 0.073-1.416 0.208l0.035-0.009-4.955 1.795c0.131 0.087 0.287 0.147 0.455 0.168l0.005 0.001c0.705 0.099 1.52 0.156 2.348 0.156 0.107 0 0.215-0.001 0.322-0.003l-0.016 0c0.966 0 2.562-0.138 2.93-0.169l-0.813 1.534c-0.229 0.434-0.647 0.741-1.142 0.812l-0.008 0.001h-0.951c-0.104 0.002-0.226 0.003-0.349 0.003-0.959 0-1.902-0.068-2.825-0.2l0.106 0.012c-1.476-0.24-2.589-1.505-2.589-3.030 0-0.143 0.010-0.284 0.029-0.422l-0.002 0.016zM0.43 20.786l12.011 8.805c0.938 0.672 2.108 1.074 3.372 1.074 0.299 0 0.592-0.022 0.879-0.066l-0.032 0.004 9.48-1.534 3.36 3.007c0.108-0.46 0.2-1.025 0.256-1.6l0.005-0.057c0.020-0.092 0.031-0.198 0.031-0.307 0-0.5-0.239-0.945-0.61-1.225l-0.004-0.003-1.964-1.749c-0.188-0.149-0.428-0.241-0.689-0.245h-0.001l-10.201 1.534c-0.080 0.007-0.174 0.011-0.268 0.011s-0.188-0.004-0.28-0.012l0.012 0.001c-0.009 0-0.020 0-0.031 0-0.769 0-1.478-0.253-2.049-0.681l0.009 0.006-10.477-7.67c0.107-0.199 0.215-0.23 0.307-0.23 0.037-0.008 0.079-0.012 0.123-0.012s0.086 0.004 0.127 0.012l-0.004-0.001c1.703 0.752 7.778 3.666 7.778 3.666 0.085 0.043 0.184 0.071 0.289 0.077l0.002 0-0.23-1.488c-0.077-0.522-0.706-1.043-1.135-1.304-1.841-0.89-4.74-2.27-5.829-2.761-0.449-0.213-0.973-0.347-1.527-0.368l-0.007-0c-1.247 0.016-2.33 0.704-2.906 1.717l-0.009 0.017c-0.101 0.161-0.161 0.356-0.161 0.565 0 0.326 0.145 0.618 0.374 0.814l0.001 0.001z"></path>
<path d="M17.043 13.929c0.002 0.042 0.004 0.091 0.004 0.141 0 0.865-0.429 1.63-1.085 2.094l-0.008 0.005c-0.438 0.289-0.954 0.498-1.51 0.595l-0.024 0.003c-0.22 0.299-0.571 0.491-0.967 0.491-0.011 0-0.021-0-0.032-0l0.002 0h-1.151l0.23-0.337c-0.052 0.001-0.113 0.002-0.174 0.002-0.618 0-1.22-0.068-1.799-0.196l0.055 0.010c-0.444-0.123-0.806-0.249-1.158-0.393l0.069 0.025c0.223-0.699 0.866-1.197 1.626-1.197 0.114 0 0.225 0.011 0.333 0.033l-0.011-0.002c0.339 0.071 0.728 0.112 1.127 0.112 0.079 0 0.157-0.002 0.234-0.005l-0.011 0c0.069 0.004 0.149 0.007 0.23 0.007 0.549 0 1.071-0.115 1.544-0.323l-0.025 0.010c0.341-0.176 0.57-0.526 0.57-0.93 0-0.024-0.001-0.047-0.002-0.071l0 0.003c0-0.009 0-0.020 0-0.031 0-0.441-0.216-0.831-0.549-1.071l-0.004-0.003c-0.525-0.353-1.127-0.668-1.763-0.914l-0.063-0.021q-0.629-0.23-1.197-0.506c-0.375-0.168-0.698-0.368-0.99-0.605l0.008 0.006c-0.556-0.486-0.906-1.197-0.906-1.99 0-0.023 0-0.046 0.001-0.069l-0 0.003c-0.001-0.024-0.001-0.052-0.001-0.080 0-0.887 0.425-1.675 1.083-2.17l0.007-0.005c0.465-0.352 1.024-0.606 1.633-0.717l0.024-0.004c0.219-0.335 0.593-0.554 1.018-0.554 0.020 0 0.040 0 0.059 0.001l-0.003-0h1.273l-0.368 0.522h0.107c0.319 0.027 0.608 0.070 0.889 0.131l-0.046-0.008c0.272 0.044 0.505 0.097 0.732 0.164l-0.042-0.010 0.46 0.138c-0.252 0.707-0.915 1.204-1.695 1.204-0.1 0-0.199-0.008-0.295-0.024l0.010 0.001c-0.138-0.011-0.298-0.017-0.46-0.017s-0.322 0.006-0.481 0.019l0.021-0.001c-0.021-0.001-0.046-0.001-0.070-0.001-0.49 0-0.951 0.119-1.357 0.331l0.016-0.008c-0.357 0.171-0.6 0.529-0.6 0.944 0 0.019 0.001 0.037 0.001 0.056l-0-0.003c-0 0.007-0 0.014-0 0.022 0 0.215 0.051 0.419 0.142 0.599l-0.004-0.008c0.105 0.195 0.244 0.358 0.411 0.488l0.003 0.003c0.2 0.149 0.427 0.282 0.668 0.39l0.023 0.009c0.262 0.123 0.592 0.253 0.93 0.365l0.067 0.019c0.506 0.199 0.966 0.383 1.365 0.568 0.388 0.18 0.721 0.401 1.017 0.663l-0.004-0.004c0.282 0.238 0.506 0.536 0.654 0.874l0.006 0.015c0.127 0.333 0.201 0.719 0.201 1.122 0 0.032-0 0.063-0.001 0.095l0-0.005zM13.269 0c-6.197 0.017-11.214 5.045-11.214 11.244 0 6.21 5.034 11.244 11.245 11.244s11.244-5.034 11.245-11.244v0c0 0 0-0 0-0 0-6.21-5.034-11.245-11.245-11.245-0.011 0-0.022 0-0.032 0h0.002zM13.269 20.525c-0.023 0-0.050 0-0.077 0-5.126 0-9.281-4.155-9.281-9.281s4.155-9.281 9.281-9.281c5.126 0 9.281 4.155 9.281 9.281v0c-0.008 5.095-4.115 9.229-9.199 9.281l-0.005 0z"></path>
</svg>
