<!-- Generated by IcoMoon.io -->
<svg version="1.1" xmlns="http://www.w3.org/2000/svg" width="25" height="24" viewBox="0 0 25 24">
<title>lending</title>
<path d="M10.24 16.395c0.032-0.33 0.256-0.601 0.558-0.7l0.006-0.002 4.602-1.381c0.444-0.13 0.955-0.205 1.483-0.207h0.001c1.285 0.034 2.487 0.354 3.557 0.896l-0.048-0.022 4.913 2.991s0 0 0 0l-1.151 0.529c-0.165 0.097-0.363 0.154-0.575 0.154s-0.41-0.057-0.581-0.157l0.005 0.003-3.452-2.094c-0.786-0.391-1.707-0.633-2.681-0.667l-0.011-0c-0.369 0.001-0.726 0.055-1.062 0.156l0.026-0.007-3.716 1.346c0.098 0.065 0.215 0.11 0.341 0.126l0.004 0c0.529 0.074 1.14 0.117 1.761 0.117 0.081 0 0.161-0.001 0.241-0.002l-0.012 0c0.725 0 1.921-0.104 2.197-0.127l-0.61 1.151c-0.171 0.325-0.485 0.556-0.857 0.609l-0.006 0.001h-0.713c-0.078 0.001-0.17 0.002-0.262 0.002-0.719 0-1.427-0.051-2.119-0.15l0.079 0.009c-1.107-0.18-1.942-1.129-1.942-2.273 0-0.107 0.007-0.213 0.022-0.316l-0.001 0.012zM0.322 15.59l9.009 6.604c0.703 0.504 1.581 0.806 2.529 0.806 0.224 0 0.444-0.017 0.659-0.049l-0.024 0.003 7.11-1.151 2.52 2.255c0.081-0.345 0.15-0.768 0.192-1.2l0.003-0.043c0.015-0.069 0.023-0.149 0.023-0.23 0-0.375-0.18-0.708-0.458-0.918l-0.003-0.002-1.473-1.312c-0.141-0.112-0.321-0.181-0.517-0.184h-0.001l-7.651 1.151c-0.060 0.005-0.13 0.009-0.201 0.009s-0.141-0.003-0.21-0.009l0.009 0.001c-0.007 0-0.015 0-0.023 0-0.576 0-1.109-0.19-1.537-0.511l0.007 0.005-7.858-5.753c0.081-0.15 0.161-0.173 0.23-0.173 0.028-0.006 0.059-0.009 0.092-0.009s0.064 0.003 0.095 0.009l-0.003-0.001c1.277 0.564 5.833 2.75 5.833 2.75 0.064 0.032 0.138 0.053 0.217 0.057l0.002 0-0.173-1.116c-0.058-0.391-0.529-0.782-0.851-0.978-1.381-0.667-3.555-1.703-4.372-2.071-0.337-0.16-0.73-0.26-1.145-0.276l-0.006-0c-0.935 0.012-1.747 0.528-2.179 1.288l-0.007 0.013c-0.076 0.12-0.12 0.267-0.12 0.424 0 0.244 0.109 0.463 0.281 0.611l0.001 0.001z"></path>
<path d="M12.782 10.447c0.002 0.032 0.003 0.068 0.003 0.106 0 0.649-0.321 1.222-0.814 1.57l-0.006 0.004c-0.328 0.217-0.716 0.374-1.132 0.446l-0.018 0.003c-0.165 0.224-0.428 0.368-0.725 0.368-0.008 0-0.016-0-0.024-0l0.001 0h-0.863l0.173-0.253c-0.039 0.001-0.085 0.001-0.13 0.001-0.463 0-0.915-0.051-1.349-0.147l0.041 0.008c-0.333-0.092-0.604-0.187-0.869-0.295l0.052 0.019c0.167-0.524 0.65-0.897 1.219-0.897 0.086 0 0.169 0.008 0.25 0.024l-0.008-0.001c0.254 0.053 0.546 0.084 0.845 0.084 0.059 0 0.117-0.001 0.176-0.004l-0.008 0c0.051 0.003 0.112 0.005 0.172 0.005 0.412 0 0.804-0.087 1.158-0.243l-0.018 0.007c0.256-0.132 0.427-0.395 0.427-0.697 0-0.018-0.001-0.036-0.002-0.053l0 0.002c0-0.007 0-0.015 0-0.023 0-0.331-0.162-0.624-0.412-0.803l-0.003-0.002c-0.394-0.265-0.845-0.501-1.322-0.686l-0.047-0.016q-0.472-0.173-0.897-0.38c-0.281-0.126-0.523-0.276-0.743-0.454l0.006 0.005c-0.417-0.365-0.679-0.898-0.679-1.492 0-0.017 0-0.035 0.001-0.052l-0 0.003c-0.001-0.018-0.001-0.039-0.001-0.060 0-0.665 0.319-1.256 0.813-1.628l0.005-0.004c0.349-0.264 0.768-0.454 1.225-0.538l0.018-0.003c0.164-0.251 0.445-0.415 0.763-0.415 0.015 0 0.030 0 0.044 0.001l-0.002-0h0.955l-0.276 0.391h0.081c0.24 0.020 0.456 0.053 0.667 0.098l-0.034-0.006c0.204 0.033 0.379 0.073 0.549 0.123l-0.031-0.008 0.345 0.104c-0.189 0.53-0.686 0.903-1.271 0.903-0.075 0-0.149-0.006-0.221-0.018l0.008 0.001c-0.103-0.008-0.224-0.013-0.345-0.013s-0.242 0.005-0.361 0.014l0.016-0.001c-0.016-0-0.034-0.001-0.053-0.001-0.367 0-0.713 0.090-1.018 0.248l0.012-0.006c-0.268 0.128-0.45 0.397-0.45 0.708 0 0.014 0 0.028 0.001 0.042l-0-0.002c-0 0.005-0 0.011-0 0.017 0 0.162 0.038 0.314 0.106 0.449l-0.003-0.006c0.079 0.146 0.183 0.269 0.308 0.366l0.003 0.002c0.15 0.112 0.32 0.212 0.501 0.292l0.017 0.007c0.196 0.092 0.444 0.19 0.698 0.273l0.050 0.014c0.38 0.15 0.725 0.288 1.024 0.426 0.291 0.135 0.541 0.301 0.763 0.498l-0.003-0.003c0.212 0.178 0.38 0.402 0.49 0.656l0.004 0.012c0.095 0.25 0.151 0.539 0.151 0.841 0 0.024-0 0.047-0.001 0.071l0-0.003zM9.952 0c-4.648 0.013-8.41 3.784-8.41 8.433 0 4.658 3.776 8.433 8.433 8.433s8.433-3.776 8.433-8.433v0c0 0 0-0 0-0 0-4.658-3.776-8.433-8.433-8.433-0.008 0-0.016 0-0.024 0h0.001zM9.952 15.394c-0.017 0-0.037 0-0.058 0-3.844 0-6.961-3.116-6.961-6.961s3.116-6.961 6.961-6.961c3.844 0 6.961 3.116 6.961 6.96v0c-0.006 3.822-3.086 6.922-6.899 6.961l-0.004 0z"></path>
</svg>
