<!-- Generated by IcoMoon.io -->
<svg version="1.1" xmlns="http://www.w3.org/2000/svg" width="24" height="24" viewBox="0 0 24 24">
<title>lifebelt</title>
<path fill="#444" d="M12 1c-6.065 0-11 4.935-11 11s4.935 11 11 11 11-4.935 11-11-4.935-11-11-11zM12 2.375c2.41 0 4.608 0.892 6.296 2.357l-2.456 2.456c-1.059-0.847-2.381-1.375-3.84-1.375s-2.782 0.528-3.84 1.375l-2.456-2.456c1.688-1.466 3.886-2.357 6.296-2.357zM12 16.813c-2.654 0-4.813-2.157-4.813-4.813s2.159-4.813 4.813-4.813 4.813 2.157 4.813 4.813-2.159 4.813-4.813 4.813zM2.375 12c0-2.41 0.892-4.609 2.357-6.296l2.456 2.456c-0.847 1.059-1.375 2.381-1.375 3.84s0.528 2.782 1.375 3.84l-2.456 2.456c-1.464-1.687-2.357-3.886-2.357-6.296zM12 21.625c-2.41 0-4.608-0.891-6.296-2.357l2.456-2.456c1.059 0.847 2.381 1.375 3.84 1.375s2.782-0.528 3.84-1.375l2.456 2.456c-1.688 1.464-3.886 2.357-6.296 2.357zM19.268 18.296l-2.456-2.456c0.847-1.059 1.375-2.381 1.375-3.84s-0.528-2.782-1.375-3.84l2.456-2.456c1.464 1.688 2.357 3.886 2.357 6.296s-0.892 4.608-2.357 6.296z"></path>
</svg>
