<!-- Generated by IcoMoon.io -->
<svg version="1.1" xmlns="http://www.w3.org/2000/svg" width="24" height="24" viewBox="0 0 24 24">
<title>lifebelt</title>
<path d="M12 1c-6.065 0-11 4.935-11 11s4.935 11 11 11 11-4.935 11-11-4.935-11-11-11zM12 2.375c2.41 0 4.608 0.893 6.296 2.356l-2.456 2.457c-1.058-0.848-2.382-1.376-3.84-1.376s-2.782 0.528-3.84 1.376l-2.456-2.457c1.688-1.464 3.886-2.356 6.296-2.356zM12 16.812c-2.653 0-4.812-2.158-4.812-4.812s2.159-4.812 4.812-4.812 4.812 2.158 4.812 4.812-2.159 4.812-4.812 4.812zM2.375 12c0-2.41 0.892-4.608 2.356-6.296l2.457 2.456c-0.848 1.058-1.376 2.382-1.376 3.84s0.528 2.782 1.375 3.84l-2.456 2.456c-1.464-1.688-2.356-3.886-2.356-6.296zM12 21.625c-2.41 0-4.608-0.892-6.296-2.356l2.456-2.456c1.058 0.848 2.382 1.375 3.84 1.375s2.782-0.527 3.84-1.375l2.456 2.456c-1.688 1.463-3.886 2.356-6.296 2.356zM19.269 18.296l-2.456-2.456c0.847-1.058 1.375-2.382 1.375-3.84s-0.528-2.782-1.375-3.84l2.456-2.456c1.464 1.689 2.356 3.886 2.356 6.296s-0.892 4.607-2.356 6.296z"></path>
</svg>
