<!-- Generated by IcoMoon.io -->
<svg version="1.1" xmlns="http://www.w3.org/2000/svg" width="32" height="32" viewBox="0 0 32 32">
<path d="M9.508 17.245l-4.685-0.007c-0.499-0.025-0.864-0.212-1.159-0.633l-0.839-1.211c0 0 0.001-0.027 0.045-0.027l6.685-0.001z"></path>
<path d="M10.711 14.579c0.016-0.217 0.135-2.211 1.203-4.015 0.313-0.528 0.679-0.983 1.089-1.355l4.055-3.731c0.281-0.255 0.687-0.316 1.040-0.152 0.923 0.436 2.053 1.715 1.363 3.449-0.243 0.624-0.645 1.412-1.189 2.331-0.128 0.217-0.287 0.453-0.439 0.696-0.297 0.333-0.639 0.512-1.123 0.5l-1.455-0.037c0.173-0.263 0.993-1.392 1.423-2.117 0.483-0.816 0.833-1.511 1.053-2.056 0.063-0.163 0.088-0.301 0.079-0.424l-3.537 2.913c-0.281 0.255-0.537 0.576-0.757 0.948-0.78 1.319-0.907 2.907-0.924 3.080z"></path>
<path d="M7.031 17.245l3.953-0.007c0.221-0.036 0.425-0.14 0.575-0.305l0.195-0.239c0.353-0.417 0.756-1.241 0.837-2.084 0 0-1.268-0.057-1.879-0.031-0.103 0.489-0.223 0.78-0.368 0.788l-3.137 0.001z"></path>
<path d="M27.659 11.952l-1.897 0.003-0.679-0.003-4.352 0.003c-0.556-0.001-0.928 0.173-1.247 0.625l-0.888 1.259 7.819-0.004-2.603 8.721c-0.219 0.599-0.477 1.315-1.031 1.659-0.364 0.227-1.077 0.565-1.553 0.569l-6.991 0.011c-0.632-0.053-1.256-0.313-1.747-0.739-0.117-0.101-0.224-0.215-0.327-0.325l-1.156-1.308c-0.167-0.145-0.375-0.233-0.596-0.241l-5.608 0.009c-0.54-0.004-0.921 0.196-1.235 0.641 0 0-0.845 1.235-0.776 1.233l7.203 0.028 0.74 0.832c0.169 0.196 0.348 0.383 0.543 0.551 0.779 0.677 1.777 1.097 2.805 1.188l7.444-0.095c0.277-0.005 1.341-0.205 2.255-0.804 0.867-0.568 1.44-1.595 1.797-2.565l3.124-10.107c0.152-0.445-0.1-1.141-1.045-1.141z"></path>
</svg>
