<!-- Generated by IcoMoon.io -->
<svg version="1.1" xmlns="http://www.w3.org/2000/svg" width="32" height="32" viewBox="0 0 32 32">
<title>link</title>
<path d="M7.697 30.667c-1.703 0-3.303-0.661-4.501-1.863-1.201-1.2-1.863-2.799-1.863-4.503 0-1.703 0.661-3.303 1.863-4.504l2.883-2.883c1.201-1.201 2.8-1.861 4.503-1.861 1.252 0 2.464 0.361 3.501 1.044l0.288 0.192 1.917-1.916-0.191-0.291c-1.655-2.511-1.311-5.877 0.817-8.004l2.881-2.883c1.203-1.203 2.801-1.863 4.505-1.863 1.703 0 3.303 0.66 4.503 1.861 2.484 2.483 2.484 6.525 0 9.007l-2.883 2.883c-1.2 1.201-2.8 1.861-4.503 1.861v0c-1.252 0-2.464-0.361-3.501-1.041l-0.288-0.193-1.916 1.917 0.189 0.289c1.653 2.513 1.309 5.879-0.817 8.003l-2.881 2.883c-1.203 1.203-2.801 1.864-4.507 1.864zM10.557 16.928c-1.195 0-2.316 0.465-3.16 1.308l-2.88 2.881c-0.851 0.849-1.319 1.979-1.319 3.181s0.469 2.333 1.319 3.184c0.851 0.849 1.981 1.317 3.181 1.317 1.201 0 2.332-0.468 3.181-1.316l2.883-2.883c1.333-1.331 1.685-3.377 0.875-5.093l-0.257-0.548-3.047 3.045c-0.179 0.18-0.417 0.277-0.671 0.277-0.252 0-0.491-0.097-0.668-0.277-0.371-0.369-0.371-0.971 0-1.34l3.045-3.045-0.545-0.256c-0.601-0.284-1.272-0.436-1.937-0.436zM21.336 9.716c0.252 0 0.491 0.1 0.669 0.279 0.18 0.179 0.277 0.417 0.277 0.671 0 0.252-0.099 0.489-0.277 0.668l-3.047 3.048 0.545 0.255c0.601 0.284 1.271 0.435 1.935 0.435 1.195 0 2.317-0.467 3.16-1.309l2.884-2.881c0.849-0.849 1.317-1.977 1.317-3.181 0-1.2-0.468-2.332-1.317-3.184-0.851-0.849-1.98-1.316-3.183-1.316-1.201 0-2.332 0.468-3.183 1.316l-2.88 2.883c-1.333 1.332-1.685 3.379-0.875 5.093l0.257 0.545 3.047-3.041c0.179-0.179 0.416-0.279 0.669-0.279z"></path>
</svg>
