<!-- Generated by IcoMoon.io -->
<svg version="1.1" xmlns="http://www.w3.org/2000/svg" width="24" height="24" viewBox="0 0 24 24">
<title>link</title>
<path fill="#444" d="M21.159 2.847c-2.413-2.413-6.284-2.468-8.629-0.122l-2.188 2.188c-1.034 1.035-1.573 2.371-1.676 3.745-1.378 0.102-2.718 0.641-3.758 1.68l-2.188 2.188c-2.34 2.34-2.287 6.211 0.121 8.628 2.413 2.413 6.284 2.468 8.63 0.122l2.188-2.188c1.034-1.035 1.573-2.372 1.676-3.747 1.378-0.1 2.72-0.641 3.758-1.68l2.188-2.188c2.34-2.339 2.287-6.208-0.121-8.627zM12.686 18.116l-2.188 2.188c-1.81 1.81-4.808 1.754-6.684-0.122-1.876-1.884-1.926-4.878-0.121-6.684l2.188-2.188c0.784-0.782 1.792-1.196 2.833-1.284 0.191 1.279 0.76 2.519 1.75 3.514 0.99 0.991 2.229 1.562 3.503 1.753-0.091 1.038-0.502 2.043-1.282 2.823zM10.096 10.090c0.901 0.188 1.763 0.637 2.47 1.342 0.707 0.71 1.152 1.576 1.339 2.478-0.901-0.188-1.763-0.637-2.47-1.342-0.705-0.709-1.152-1.576-1.339-2.478zM20.308 10.503l-2.188 2.188c-0.784 0.782-1.792 1.196-2.833 1.284-0.191-1.279-0.76-2.519-1.75-3.514-0.99-0.991-2.229-1.562-3.503-1.753 0.089-1.038 0.5-2.043 1.28-2.823l2.188-2.188c1.81-1.81 4.808-1.754 6.684 0.122 1.876 1.884 1.926 4.878 0.122 6.684z"></path>
</svg>
