<!-- Generated by IcoMoon.io -->
<svg version="1.1" xmlns="http://www.w3.org/2000/svg" width="24" height="24" viewBox="0 0 24 24">
<title>lion</title>
<path fill="#444" d="M22.828 10.79l-3.417-8.2c-0.212-0.508-0.709-0.841-1.261-0.841h-4.783c-0.362 0-0.711 0.143-0.966 0.4l-0.4 0.4-0.4-0.4c-0.256-0.257-0.604-0.4-0.966-0.4h-4.783c-0.552 0-1.050 0.332-1.261 0.841l-3.417 8.2c-0.142 0.342-0.141 0.724 0.005 1.063l4.1 9.567c0.215 0.504 0.709 0.83 1.256 0.83h10.933c0.547 0 1.041-0.325 1.256-0.828l4.1-9.567c0.145-0.339 0.148-0.723 0.005-1.065zM17.467 20.883h-10.933l-4.1-9.567 3.417-8.2h4.783l1.367 1.367 1.367-1.367h4.783l3.417 8.2-4.1 9.567zM6.533 7.9h1.199c0.4 0.003 0.667 0.128 0.897 0.456l0.638 0.91h-1.199c-0.4-0.001-0.667-0.127-0.897-0.455l-0.638-0.912zM16.828 8.812c-0.23 0.328-0.496 0.454-0.897 0.455h-1.199l0.638-0.91c0.23-0.328 0.496-0.454 0.897-0.456h1.199l-0.638 0.912zM14.135 12l-0.638 0.912c-0.23 0.328-0.497 0.454-0.898 0.455h-1.197c-0.4-0.001-0.668-0.127-0.898-0.455l-0.638-0.912h4.269zM9.13 16.1l0.638-0.912c0.23-0.328 0.496-0.454 0.897-0.455h2.67c0.4 0.001 0.667 0.127 0.897 0.455l0.638 0.912h-5.74z"></path>
</svg>
