<!-- Generated by IcoMoon.io -->
<svg version="1.1" xmlns="http://www.w3.org/2000/svg" width="24" height="24" viewBox="0 0 24 24">
<title>lion</title>
<path d="M22.894 10.783l-3.438-8.25c-0.213-0.512-0.713-0.846-1.269-0.846h-4.812c-0.365 0-0.714 0.145-0.972 0.402l-0.403 0.404-0.403-0.403c-0.258-0.258-0.607-0.402-0.972-0.402h-4.813c-0.556 0-1.056 0.334-1.269 0.846l-3.438 8.25c-0.143 0.344-0.141 0.729 0.005 1.070l4.125 9.625c0.216 0.507 0.714 0.834 1.264 0.834h11c0.55 0 1.047-0.327 1.264-0.834l4.125-9.625c0.147-0.341 0.149-0.727 0.006-1.071zM17.5 20.938h-11l-4.125-9.625 3.438-8.25h4.812l1.375 1.375 1.375-1.375h4.812l3.438 8.25-4.125 9.625zM6.5 7.875h1.206c0.403 0.003 0.671 0.129 0.902 0.459l0.642 0.916h-1.206c-0.403-0.001-0.671-0.128-0.902-0.458l-0.642-0.917zM16.858 8.792c-0.231 0.33-0.5 0.457-0.902 0.458h-1.206l0.642-0.916c0.231-0.33 0.5-0.456 0.902-0.459h1.206l-0.642 0.917zM14.147 12l-0.642 0.917c-0.231 0.33-0.5 0.457-0.902 0.458h-1.206c-0.403-0.001-0.671-0.128-0.902-0.458l-0.642-0.917h4.294zM9.112 16.125l0.642-0.917c0.231-0.33 0.5-0.457 0.903-0.458h2.687c0.403 0.001 0.671 0.128 0.903 0.458l0.642 0.917h-5.777z"></path>
</svg>
