<!-- Generated by IcoMoon.io -->
<svg version="1.1" xmlns="http://www.w3.org/2000/svg" width="24" height="24" viewBox="0 0 24 24">
<title>list</title>
<path d="M6.010 2.629h15.446c0.404 0.001 0.672 0.129 0.902 0.457l0.642 0.918h-15.445c-0.404 0-0.673-0.127-0.902-0.459l-0.643-0.916zM1 2.629h1.441c0.404 0.001 0.673 0.129 0.903 0.457l0.641 0.918h-1.44c-0.404 0-0.673-0.127-0.902-0.459l-0.643-0.916z"></path>
<path d="M6.010 11.378h15.446c0.404 0.001 0.672 0.129 0.902 0.457l0.642 0.918h-15.445c-0.404 0-0.673-0.127-0.902-0.459l-0.643-0.916z"></path>
<path d="M1 11.378h1.441c0.404 0.001 0.672 0.129 0.902 0.457l0.641 0.918h-1.44c-0.404 0-0.673-0.127-0.902-0.459l-0.642-0.916z"></path>
<path d="M6.010 20.127h15.446c0.404 0.001 0.672 0.129 0.902 0.457l0.642 0.918h-15.445c-0.404 0-0.673-0.127-0.902-0.459l-0.643-0.916z"></path>
<path d="M1 20.127h1.441c0.404 0.001 0.672 0.129 0.902 0.457l0.641 0.918h-1.44c-0.404 0-0.673-0.127-0.902-0.459l-0.642-0.916z"></path>
</svg>
