<!-- Generated by IcoMoon.io -->
<svg version="1.1" xmlns="http://www.w3.org/2000/svg" width="32" height="32" viewBox="0 0 32 32">
<path d="M16 1.333c-6.801 0-12.333 5.531-12.333 12.328 0 9.044 10.855 16.385 11.316 16.695 0.307 0.205 0.661 0.311 1.017 0.311s0.711-0.105 1.017-0.309c0.461-0.309 11.316-7.651 11.316-16.695 0-6.799-5.532-12.329-12.333-12.329zM16 28.833c0 0-10.5-7-10.5-15.172 0-5.796 4.701-10.495 10.5-10.495 5.8 0 10.5 4.699 10.5 10.495 0 8.172-10.5 15.172-10.5 15.172zM16 8.667c-2.021 0-3.667 1.64-3.667 3.665 0 2.027 1.645 3.668 3.667 3.668s3.667-1.641 3.667-3.668c0-2.025-1.645-3.665-3.667-3.665zM16 14.167c-1.013 0-1.833-0.823-1.833-1.835 0-1.011 0.819-1.832 1.833-1.832s1.833 0.821 1.833 1.832c0 1.012-0.82 1.835-1.833 1.835z"></path>
</svg>
