<!-- Generated by IcoMoon.io -->
<svg version="1.1" xmlns="http://www.w3.org/2000/svg" width="24" height="24" viewBox="0 0 24 24">
<title>location</title>
<path fill="#444" d="M12 1c-5.1 0-9.25 4.15-9.25 9.25 0 6.782 8.14 12.29 8.486 12.519 0.231 0.154 0.498 0.231 0.763 0.231s0.532-0.077 0.763-0.231c0.346-0.231 8.486-5.739 8.486-12.519 0-5.1-4.15-9.25-9.25-9.25zM12 21.625c0 0-7.875-5.252-7.875-11.375 0-4.351 3.527-7.875 7.875-7.875 4.351 0 7.875 3.524 7.875 7.875 0 6.123-7.875 11.375-7.875 11.375zM12 6.5c-1.517 0-2.75 1.232-2.75 2.749 0 1.518 1.233 2.751 2.75 2.751s2.75-1.233 2.75-2.751c0-1.517-1.233-2.749-2.75-2.749zM12 10.625c-0.76 0-1.375-0.615-1.375-1.376 0-0.76 0.615-1.374 1.375-1.374s1.375 0.613 1.375 1.374c0 0.762-0.616 1.376-1.375 1.376z"></path>
</svg>
