<!-- Generated by IcoMoon.io -->
<svg version="1.1" xmlns="http://www.w3.org/2000/svg" width="24" height="24" viewBox="0 0 24 24">
<title>location</title>
<path d="M12 1c-5.101 0-9.25 4.148-9.25 9.246 0 6.783 8.141 12.289 8.487 12.521 0.23 0.154 0.496 0.233 0.763 0.233s0.533-0.079 0.763-0.232c0.346-0.232 8.487-5.738 8.487-12.521 0-5.099-4.149-9.247-9.25-9.247zM12 21.625c0 0-7.875-5.25-7.875-11.379 0-4.347 3.526-7.871 7.875-7.871 4.35 0 7.875 3.524 7.875 7.871 0 6.129-7.875 11.379-7.875 11.379zM12 6.5c-1.516 0-2.75 1.23-2.75 2.749s1.234 2.751 2.75 2.751 2.75-1.231 2.75-2.751c0-1.519-1.234-2.749-2.75-2.749zM12 10.625c-0.76 0-1.375-0.617-1.375-1.376 0-0.758 0.614-1.374 1.375-1.374s1.375 0.616 1.375 1.374c0 0.759-0.615 1.376-1.375 1.376z"></path>
</svg>
