<!-- Generated by IcoMoon.io -->
<svg version="1.1" xmlns="http://www.w3.org/2000/svg" width="24" height="24" viewBox="0 0 24 24">
<title>lock</title>
<path fill="#444" d="M18.188 12v-4.962c0-3.329-2.776-6.038-6.188-6.038s-6.188 2.709-6.188 6.038v4.962c-1.519 0-2.75 1.231-2.75 2.75v8.25h15.125c1.518 0 2.75-1.231 2.75-2.75v-8.25h-2.75zM7.187 7.038c0-2.571 2.159-4.663 4.813-4.663s4.813 2.091 4.813 4.663v4.962h-9.625v-4.962zM19.562 20.25c0 0.759-0.617 1.375-1.375 1.375h-13.75v-6.875c0-0.759 0.617-1.375 1.375-1.375h13.75v6.875z"></path>
</svg>
