<!-- Generated by IcoMoon.io -->
<svg version="1.1" xmlns="http://www.w3.org/2000/svg" width="32" height="32" viewBox="0 0 32 32">
<title>lodge</title>
<path d="M15.969 1.625c-4.343 0-7.863 3.52-7.863 7.863h-0.004l0.004 2.88v16.492c0 1.011 0.82 1.833 1.833 1.833h12.057c1.013 0 1.833-0.823 1.833-1.833v-13.595c0-1.013-0.823-1.833-1.833-1.833l-8.235-0.001-0.004-3.941h0.007c0-0.007-0.001-0.012-0.001-0.017 0-1.236 1.001-2.237 2.237-2.237 0.64 0 1.217 0.269 1.625 0.7 0.057 0.060 0.12 0.121 0.18 0.181 0.639 0.74 1.356 1.195 2.275 1.364l0.012 0.009c0-0.003 0-0.005 0.001-0.008 0.295 0.053 0.599 0.096 0.94 0.096l2.797 0.004-0.009-0.021h0.008c0-4.619-3.52-7.935-7.861-7.935zM20.576 7.827c-0.557 0-0.889-0.233-1.211-0.689l-0.171-0.199c-0.749-0.945-1.895-1.563-3.195-1.563-2.261 0-4.095 1.833-4.095 4.095 0 0.007 0.001 0.012 0.001 0.017h0.017l0.004 2.687v1.255c0.033 1.061 0.839 1.861 1.833 1.833l8.235 0.001v13.595h-12.057l-0.003-19.371c0-3.332 2.701-6.033 6.033-6.033 2.752 0 5.048 1.855 5.773 4.373l-1.167-0.001z"></path>
<path d="M11.341 21.447l3.244 3.34c0.172 0.177 0.433 0.34 0.652 0.276 0.241 0 0.473-0.097 0.644-0.269l4.881-4.987-1.412-0.248c-0.527-0.095-0.928 0.031-1.308 0.412l-2.8 2.873-1.243-1.281c-0.359-0.332-0.743-0.459-1.239-0.371l-1.423 0.252c0.003 0 0.003 0.003 0.003 0.003z"></path>
</svg>
