<!-- Generated by IcoMoon.io -->
<svg version="1.1" xmlns="http://www.w3.org/2000/svg" width="32" height="32" viewBox="0 0 32 32">
<title>magnet</title>
<path d="M27 1.333h-3.667c-1.012 0-1.833 0.82-1.833 1.833v10.941c0 7.392-1.952 9.225-5.5 9.225-3.625 0-5.443-1.776-5.5-9.224v-10.943c0-1.013-0.82-1.833-1.833-1.833h-3.667c-1.012 0-1.833 0.82-1.833 1.833v12.833c0 12.833 8.073 14.667 12.833 14.667 4.763 0 12.833-1.891 12.833-14.667v-12.833c0-1.013-0.82-1.833-1.833-1.833zM8.667 3.167v3.667h-3.667v-3.667h3.667zM27 16c0 11.057-6.197 12.833-11 12.833-4.8 0-11-1.833-11-12.833v-7.333h3.667v5.443c0 9.281 3.763 11.057 7.333 11.057 3.572 0 7.333-1.719 7.333-11.059v-5.443l3.667 0.001v7.333zM27 6.833l-3.667-0.001v-3.665h3.667v3.667z"></path>
</svg>
