<!-- Generated by IcoMoon.io -->
<svg version="1.1" xmlns="http://www.w3.org/2000/svg" width="24" height="24" viewBox="0 0 24 24">
<title>magnet</title>
<path d="M20.25 1h-2.75c-0.759 0-1.375 0.615-1.375 1.375v8.206c0 5.544-1.464 6.919-4.125 6.919-2.719 0-4.082-1.332-4.125-6.918v-8.207c0-0.76-0.615-1.375-1.375-1.375h-2.75c-0.759 0-1.375 0.615-1.375 1.375v9.625c0 9.625 6.055 11 9.625 11 3.572 0 9.625-1.418 9.625-11v-9.625c0-0.76-0.615-1.375-1.375-1.375zM6.5 2.375v2.75h-2.75v-2.75h2.75zM20.25 12c0 8.293-4.648 9.625-8.25 9.625-3.6 0-8.25-1.375-8.25-9.625v-5.5h2.75v4.082c0 6.961 2.822 8.293 5.5 8.293s5.5-1.289 5.5-8.294v-4.082l2.75 0.001v5.5zM20.25 5.125l-2.75-0.001v-2.749h2.75v2.75z"></path>
</svg>
