<!-- Generated by IcoMoon.io -->
<svg version="1.1" xmlns="http://www.w3.org/2000/svg" width="24" height="24" viewBox="0 0 24 24">
<title>magnet</title>
<path fill="#444" d="M21.625 1.001h-2.75c-0.759 0-1.375 0.615-1.375 1.375v8.206c0 6.384-2.838 6.918-5.5 6.918-2.72 0-5.5-0.822-5.5-6.918v-8.207c0-0.76-0.615-1.375-1.375-1.375h-2.75c-0.759 0-1.375 0.615-1.375 1.375v9.625c0 11 7.429 11 11 11 3.572 0 11 0.001 11-10.999v-9.625c0-0.76-0.615-1.375-1.375-1.375zM5.125 2.375v2.75h-2.75v-2.75h2.75zM21.625 12.001c0 9.625-6.024 9.624-9.625 9.624-3.6 0-9.625 0-9.625-9.625v-5.5h2.75v4.082c0 7.605 4.198 8.293 6.875 8.293 2.678 0 6.875-0.523 6.875-8.293v-4.082l2.75 0.001v5.5zM21.625 5.126l-2.75-0.001v-2.749h2.75v2.75z"></path>
</svg>
