<!-- Generated by IcoMoon.io -->
<svg version="1.1" xmlns="http://www.w3.org/2000/svg" width="32" height="32" viewBox="0 0 32 32">
<title>mail</title>
<path d="M30.667 8.061c-0.325-1.228-1.571-2.144-2.932-2.144h-23.468c-1.363 0-2.608 0.917-2.933 2.144v15.192c0 1.559 1.317 2.831 2.932 2.831h23.468c1.612 0 2.933-1.272 2.933-2.831v-15.192zM3.167 8.761v-0.005c0-0.544 0.503-1.007 1.1-1.007h23.468c0.596 0 1.099 0.463 1.099 1.007v0.524l-12.223 8.639c-0.201 0.143-0.408 0.219-0.611 0.219s-0.409-0.076-0.611-0.219l-12.223-8.639v-0.519zM28.833 23.252c0 0.541-0.504 0.997-1.1 0.997h-23.468c-0.597 0-1.099-0.456-1.099-0.997v-11.739l12.833 9.071 12.833-9.071v11.739z"></path>
</svg>
