<!-- Generated by IcoMoon.io -->
<svg version="1.1" xmlns="http://www.w3.org/2000/svg" width="24" height="24" viewBox="0 0 24 24">
<title>mail</title>
<path fill="#444" d="M22.545 5.632c-0.233-0.882-1.128-1.541-2.108-1.541h-16.874c-0.981 0-1.876 0.659-2.109 1.541v10.925c0 1.118 0.948 2.034 2.108 2.034h16.874c1.159 0 2.109-0.916 2.109-2.034v-10.925zM2.773 6.138v-0.004c0-0.393 0.362-0.725 0.791-0.725h16.874c0.428 0 0.79 0.332 0.79 0.725v0.377l-8.788 6.209c-0.145 0.103-0.293 0.156-0.439 0.156s-0.294-0.053-0.439-0.156l-8.788-6.209v-0.373zM21.227 16.557c0 0.388-0.362 0.716-0.791 0.716h-16.874c-0.428 0-0.79-0.328-0.79-0.716v-8.44l9.227 6.52 9.227-6.52v8.44z"></path>
</svg>
