<!-- Generated by IcoMoon.io -->
<svg version="1.1" xmlns="http://www.w3.org/2000/svg" width="24" height="24" viewBox="0 0 24 24">
<title>map</title>
<path fill="#444" d="M22.234 2.138c-0.211-0.121-0.449-0.183-0.685-0.183-0.233 0-0.468 0.060-0.678 0.18l-5.44 3.112-6.294-3.149c-0.192-0.095-0.402-0.143-0.61-0.143-0.233 0-0.468 0.060-0.678 0.18l-6.076 3.473c-0.424 0.243-0.686 0.696-0.686 1.185v13.888c0 0.486 0.259 0.937 0.679 1.18 0.211 0.123 0.449 0.184 0.685 0.184 0.233 0 0.468-0.060 0.678-0.18l5.442-3.112 6.293 3.149c0.192 0.095 0.401 0.143 0.61 0.143 0.233 0 0.468-0.060 0.678-0.18l6.076-3.475c0.424-0.243 0.686-0.696 0.686-1.185v-13.886c0-0.487-0.259-0.937-0.679-1.181zM9.272 3.661l5.457 2.793v13.888l-5.457-2.793v-13.888zM2.451 20.68v-13.886l5.457-3.084v13.888l-5.457 3.083zM21.549 17.206l-5.457 3.084v-13.888l5.457-3.084v13.888z"></path>
</svg>
