<!-- Generated by IcoMoon.io -->
<svg version="1.1" xmlns="http://www.w3.org/2000/svg" width="32" height="32" viewBox="0 0 32 32">
<title>map</title>
<path d="M29.752 2.745c-0.285-0.159-0.603-0.243-0.919-0.243-0.315 0-0.629 0.083-0.912 0.239l-7.311 4.183-8.46-4.227c-0.259-0.133-0.537-0.195-0.819-0.195-0.315 0-0.629 0.083-0.912 0.239l-8.165 4.669c-0.567 0.331-0.921 0.937-0.921 1.595v18.659c0 0.655 0.347 1.259 0.915 1.591 0.285 0.159 0.603 0.243 0.919 0.243 0.315 0 0.629-0.083 0.912-0.239l7.311-4.183 8.46 4.225c0.259 0.133 0.537 0.195 0.819 0.195 0.315 0 0.629-0.083 0.912-0.239l8.165-4.669c0.567-0.329 0.921-0.936 0.921-1.593v-18.659c0-0.655-0.347-1.259-0.915-1.591zM12.333 4.795l7.333 3.752v18.659l-7.333-3.752v-18.659zM3.167 27.664v-18.659l7.333-4.147v18.667l-7.333 4.139zM28.833 22.995l-7.333 4.147v-18.667l7.333-4.139v18.659z"></path>
</svg>
