<!-- Generated by IcoMoon.io -->
<svg version="1.1" xmlns="http://www.w3.org/2000/svg" width="24" height="24" viewBox="0 0 24 24">
<title>medal</title>
<path fill="#444" d="M12.688 11.312v6.244c-0.003 0.403-0.129 0.671-0.459 0.902l-0.916 0.642v-6.244c0.001-0.403 0.128-0.671 0.458-0.902l0.917-0.642zM20.25 1h-16.5c-0.759 0-1.375 0.615-1.375 1.375v1.768c0 0.613 0.407 1.154 0.997 1.323l5.624 1.606c-3.069 1.203-5.246 4.184-5.246 7.678 0 4.554 3.692 8.25 8.25 8.25s8.25-3.696 8.25-8.25c0-3.494-2.177-6.475-5.246-7.678l5.624-1.606c0.59-0.169 0.997-0.709 0.997-1.323v-1.768c0-0.76-0.616-1.375-1.375-1.375zM18.875 14.75c0 3.792-3.084 6.875-6.875 6.875s-6.875-3.083-6.875-6.875 3.084-6.875 6.875-6.875 6.875 3.083 6.875 6.875zM20.25 4.143l-8.25 2.357-8.25-2.357v-1.768h16.5v1.768z"></path>
</svg>
