<!-- Generated by IcoMoon.io -->
<svg version="1.1" xmlns="http://www.w3.org/2000/svg" width="32" height="32" viewBox="0 0 32 32">
<title>medal</title>
<path d="M16.917 15.083v8.325c-0.004 0.536-0.172 0.895-0.612 1.203l-1.221 0.856v-8.325c0.001-0.536 0.169-0.895 0.611-1.203l1.223-0.856zM27 1.333h-22c-1.012 0-1.833 0.82-1.833 1.833v2.359c0 0.817 0.543 1.537 1.329 1.763l7.499 2.141c-4.093 1.604-6.995 5.579-6.995 10.237 0 6.073 4.923 11 11 11s11-4.927 11-11c0-4.659-2.901-8.633-6.995-10.237l7.499-2.141c0.787-0.225 1.329-0.945 1.329-1.763v-2.359c0-1.013-0.821-1.833-1.833-1.833zM25.167 19.667c0 5.056-4.111 9.167-9.167 9.167s-9.167-4.111-9.167-9.167 4.111-9.167 9.167-9.167 9.167 4.111 9.167 9.167zM27 5.525l-11 3.141-11-3.141v-2.359h22v2.359z"></path>
</svg>
