<!-- Generated by IcoMoon.io -->
<svg version="1.1" xmlns="http://www.w3.org/2000/svg" width="24" height="24" viewBox="0 0 24 24">
<title>media_pause</title>
<path fill="#444" d="M21.625 1h-5.5c-0.759 0-1.375 0.615-1.375 1.375v19.25c0 0.76 0.616 1.375 1.375 1.375h5.5c0.759 0 1.375-0.615 1.375-1.375v-19.25c0-0.76-0.616-1.375-1.375-1.375zM21.625 21.625h-5.5v-19.25h5.5v19.25zM7.875 1h-5.5c-0.759 0-1.375 0.615-1.375 1.375v19.25c0 0.76 0.616 1.375 1.375 1.375h5.5c0.759 0 1.375-0.615 1.375-1.375v-19.25c0-0.76-0.616-1.375-1.375-1.375zM7.875 21.625h-5.5v-19.25h5.5v19.25z"></path>
</svg>
