<!-- Generated by IcoMoon.io -->
<svg version="1.1" xmlns="http://www.w3.org/2000/svg" width="24" height="24" viewBox="0 0 24 24">
<title>menu_dots</title>
<path d="M3.063 9.938c-1.138 0-2.063 0.924-2.063 2.062s0.925 2.062 2.062 2.062c1.137 0 2.062-0.925 2.062-2.062s-0.924-2.062-2.061-2.062z"></path>
<path d="M3.063 1c-1.138 0-2.063 0.925-2.063 2.062s0.925 2.062 2.062 2.062c1.137 0 2.062-0.925 2.062-2.062s-0.924-2.062-2.061-2.062z"></path>
<path d="M3.063 18.875c-1.138 0-2.063 0.925-2.063 2.063s0.925 2.062 2.063 2.062c1.137 0 2.062-0.925 2.062-2.062s-0.925-2.063-2.062-2.063z"></path>
<path d="M22.999 11.75c0 1.139-0.923 2.062-2.062 2.062s-2.062-0.923-2.062-2.062c0-1.139 0.923-2.062 2.062-2.062s2.062 0.923 2.062 2.062z"></path>
<path d="M22.999 2.812c0 1.139-0.923 2.062-2.062 2.062s-2.062-0.923-2.062-2.062c0-1.139 0.923-2.062 2.062-2.062s2.062 0.923 2.062 2.062z"></path>
<path d="M20.937 18.625c-1.137 0-2.062 0.925-2.062 2.062 0 1.138 0.925 2.062 2.062 2.062s2.063-0.924 2.063-2.062c0-1.137-0.925-2.062-2.063-2.062z"></path>
<path d="M14.062 11.75c0 1.139-0.923 2.062-2.062 2.062s-2.062-0.923-2.062-2.062c0-1.139 0.923-2.062 2.062-2.062s2.062 0.923 2.062 2.062z"></path>
<path d="M14.062 2.812c0 1.139-0.923 2.062-2.062 2.062s-2.062-0.923-2.062-2.062c0-1.139 0.923-2.062 2.062-2.062s2.062 0.923 2.062 2.062z"></path>
<path d="M12 18.625c-1.137 0-2.062 0.925-2.062 2.062 0 1.138 0.925 2.062 2.062 2.062s2.062-0.925 2.062-2.062c0-1.137-0.925-2.062-2.062-2.062z"></path>
</svg>
