<!-- Generated by IcoMoon.io -->
<svg version="1.1" xmlns="http://www.w3.org/2000/svg" width="24" height="24" viewBox="0 0 24 24">
<title>menu</title>
<path fill="#444" d="M1.231 19.404h20.027c0.394 0.003 0.657 0.127 0.883 0.45l0.629 0.897h-20.027c-0.394-0.001-0.657-0.125-0.883-0.448l-0.629-0.898zM1.859 12.225c0.226 0.323 0.489 0.447 0.883 0.448h20.027l-0.629-0.897c-0.226-0.323-0.489-0.447-0.883-0.45h-20.027l0.629 0.898zM1.859 4.148c0.226 0.323 0.489 0.447 0.883 0.448h20.027l-0.629-0.897c-0.226-0.323-0.489-0.447-0.883-0.45h-20.027l0.629 0.898z"></path>
</svg>
