<!-- Generated by IcoMoon.io -->
<svg version="1.1" xmlns="http://www.w3.org/2000/svg" width="32" height="32" viewBox="0 0 32 32">
<title>menu_dots</title>
<path d="M4.084 13.251c-1.517 0-2.751 1.232-2.751 2.749s1.233 2.749 2.749 2.749c1.516 0 2.749-1.233 2.749-2.749s-1.232-2.749-2.748-2.749z"></path>
<path d="M4.084 1.333c-1.517 0-2.751 1.233-2.751 2.749s1.233 2.749 2.749 2.749c1.516 0 2.749-1.233 2.749-2.749s-1.232-2.749-2.748-2.749z"></path>
<path d="M4.084 25.167c-1.517 0-2.751 1.233-2.751 2.751s1.233 2.749 2.751 2.749c1.516 0 2.749-1.233 2.749-2.749s-1.233-2.751-2.749-2.751z"></path>
<path d="M30.665 15.667c0 1.518-1.231 2.749-2.749 2.749s-2.749-1.231-2.749-2.749c0-1.518 1.231-2.749 2.749-2.749s2.749 1.231 2.749 2.749z"></path>
<path d="M30.665 3.749c0 1.518-1.231 2.749-2.749 2.749s-2.749-1.231-2.749-2.749c0-1.518 1.231-2.749 2.749-2.749s2.749 1.231 2.749 2.749z"></path>
<path d="M27.916 24.833c-1.516 0-2.749 1.233-2.749 2.749 0 1.517 1.233 2.749 2.749 2.749s2.751-1.232 2.751-2.749c0-1.516-1.233-2.749-2.751-2.749z"></path>
<path d="M18.749 15.667c0 1.518-1.231 2.749-2.749 2.749s-2.749-1.231-2.749-2.749c0-1.518 1.231-2.749 2.749-2.749s2.749 1.231 2.749 2.749z"></path>
<path d="M18.749 3.749c0 1.518-1.231 2.749-2.749 2.749s-2.749-1.231-2.749-2.749c0-1.518 1.231-2.749 2.749-2.749s2.749 1.231 2.749 2.749z"></path>
<path d="M16 24.833c-1.516 0-2.749 1.233-2.749 2.749 0 1.517 1.233 2.749 2.749 2.749s2.749-1.233 2.749-2.749c0-1.516-1.233-2.749-2.749-2.749z"></path>
</svg>
