<!-- Generated by IcoMoon.io -->
<svg version="1.1" xmlns="http://www.w3.org/2000/svg" width="24" height="24" viewBox="0 0 24 24">
<title>menu</title>
<path d="M1 19.562h20.456c0.402 0.003 0.671 0.129 0.902 0.459l0.642 0.917h-20.456c-0.402-0.001-0.671-0.128-0.902-0.458l-0.642-0.918zM1.642 12.229c0.231 0.33 0.5 0.457 0.902 0.458h20.456l-0.642-0.916c-0.231-0.33-0.5-0.456-0.902-0.459h-20.456l0.642 0.917zM1.642 3.979c0.231 0.33 0.5 0.457 0.902 0.458h20.456l-0.642-0.916c-0.231-0.33-0.5-0.456-0.902-0.459h-20.456l0.642 0.917z"></path>
</svg>
