<!-- Generated by IcoMoon.io -->
<svg version="1.1" xmlns="http://www.w3.org/2000/svg" width="24" height="24" viewBox="0 0 24 24">
<title>message</title>
<path fill="#444" d="M19.487 1h-14.974c-1.937 0-3.513 1.576-3.513 3.513v17.112c0 0.556 0.335 1.059 0.848 1.271 0.17 0.071 0.349 0.104 0.527 0.104 0.358 0 0.709-0.14 0.972-0.403l3.875-3.873h12.264c1.937 0 3.513-1.577 3.513-3.517v-10.693c0.001-1.937-1.574-3.513-3.512-3.513zM21.625 15.206c0 1.183-0.957 2.142-2.138 2.142h-12.834l-4.278 4.276v-17.112c0-1.181 0.957-2.138 2.138-2.138h14.974c1.181 0 2.138 0.957 2.138 2.138v10.693z"></path>
</svg>
