<!-- Generated by IcoMoon.io -->
<svg version="1.1" xmlns="http://www.w3.org/2000/svg" width="24" height="24" viewBox="0 0 24 24">
<title>messages</title>
<path fill="#444" d="M16.694 1h-12.181c-1.937 0-3.513 1.576-3.513 3.513v14.362c0 0.556 0.335 1.059 0.848 1.27 0.17 0.071 0.349 0.104 0.527 0.104 0.358 0 0.709-0.14 0.972-0.403l3.875-3.873h9.471c1.937 0 3.557-1.484 3.557-3.424v-7.943c0-1.936-1.62-3.607-3.556-3.607zM18.875 12.55c0 1.183-1.001 2.047-2.181 2.047h-10.042l-4.278 4.278v-14.362c0-1.181 0.957-2.138 2.138-2.138h12.18c1.181 0 2.182 1.052 2.182 2.232v7.943zM23 7.263v14.362c0 0.556-0.335 1.059-0.848 1.27-0.17 0.071-0.349 0.104-0.527 0.104-0.358 0-0.709-0.14-0.972-0.403l-3.875-3.873h-9.472c-0.8 0-1.537-0.263-2.137-0.697l0.986-0.986c0.337 0.194 0.731 0.308 1.151 0.308h10.040l4.279 4.276v-14.362c0-0.91-0.572-1.683-1.375-1.991v-0.665c0-0.269-0.038-0.533-0.098-0.789 1.618 0.312 2.848 1.737 2.848 3.446z"></path>
</svg>
