<!-- Generated by IcoMoon.io -->
<svg version="1.1" xmlns="http://www.w3.org/2000/svg" width="32" height="32" viewBox="0 0 32 32">
<title>message</title>
<path d="M25.983 1.333h-19.965c-2.583 0-4.684 2.101-4.684 4.684v22.816c0 0.741 0.447 1.412 1.132 1.695 0.227 0.095 0.465 0.139 0.701 0.139 0.476 0 0.945-0.187 1.296-0.536l5.167-5.165h16.352c2.583 0 4.684-2.104 4.684-4.689v-14.259c0.001-2.583-2.1-4.684-4.683-4.684zM28.833 20.276c0 1.577-1.277 2.856-2.851 2.856h-17.112l-5.704 5.701v-22.816c0-1.575 1.277-2.851 2.851-2.851h19.965c1.575 0 2.851 1.276 2.851 2.851v14.259z"></path>
</svg>
