<!-- Generated by IcoMoon.io -->
<svg version="1.1" xmlns="http://www.w3.org/2000/svg" width="32" height="32" viewBox="0 0 32 32">
<path d="M22.259 1.333h-16.241c-2.581 0-4.684 2.099-4.684 4.688v19.145c0 0.743 0.445 1.409 1.132 1.693 0.228 0.092 0.468 0.14 0.701 0.14 0.475 0 0.945-0.183 1.295-0.539l5.168-5.163h12.629c2.581 0 4.741-1.977 4.741-4.561v-10.595c0-2.58-2.16-4.809-4.741-4.809zM25.167 16.737c0 1.577-1.333 2.728-2.908 2.728h-13.389l-5.703 5.701v-19.145c0-1.575 1.276-2.855 2.851-2.855h16.241c1.575 0 2.908 1.403 2.908 2.976v10.595zM30.667 9.688v19.145c0 0.743-0.445 1.409-1.132 1.693-0.228 0.092-0.467 0.14-0.701 0.14-0.475 0-0.945-0.183-1.295-0.539l-5.168-5.163h-12.629c-1.065 0-2.049-0.349-2.849-0.933l1.315-1.307c0.448 0.257 0.975 0.408 1.535 0.408h13.389l5.703 5.701v-19.147c0-1.219-0.761-2.249-1.833-2.657v-0.888c0-0.363-0.053-0.712-0.131-1.055 2.16 0.421 3.797 2.319 3.797 4.6z"></path>
</svg>
