<!-- Generated by IcoMoon.io -->
<svg version="1.1" xmlns="http://www.w3.org/2000/svg" width="15" height="24" viewBox="0 0 15 24">
<title>metal</title>
<path d="M14.539 7.823l-7.139-7.389c-0.233-0.258-0.57-0.42-0.944-0.42-0.050 0-0.099 0.003-0.147 0.008l0.006-0.001c-0.157 0.027-0.296 0.088-0.415 0.175l0.003-0.002-5.848 4.34 2.756 8.083-2.159 7.074 6.011 4.134c0.128 0.108 0.294 0.174 0.476 0.174 0.11 0 0.215-0.024 0.309-0.068l-0.005 0.002 0.358-0.13 0.347-0.065c0.287-0.031 0.525-0.212 0.638-0.462l0.002-0.005 5.62-9.656c0.051-0.091 0.082-0.199 0.087-0.313l0-0.001c0.002-0.013 0.004-0.028 0.004-0.043s-0.001-0.030-0.004-0.045l0 0.002v-5.382zM13.107 8.040c0.005 0.028 0.007 0.060 0.007 0.093 0 0.105-0.027 0.204-0.074 0.29l0.002-0.003-5.772 14.072-3.418-9.841 3.255-10.926 5.816 5.935c0.101 0.098 0.168 0.23 0.184 0.377l0 0.003zM1.389 5.414c-0.026-0.062-0.041-0.134-0.041-0.209 0-0.201 0.107-0.376 0.266-0.473l0.002-0.001 4.568-3.45s0 0 0 0l-2.908 9.635zM2.007 19.183c-0.021-0.057-0.033-0.122-0.033-0.19s0.012-0.133 0.034-0.194l-0.001 0.004 1.335-4.438 2.615 7.671-3.7-2.561c-0.113-0.067-0.2-0.168-0.248-0.289l-0.001-0.004zM13.454 13.085l-4.177 7.41 4.177-10.090z"></path>
</svg>
