<!-- Generated by IcoMoon.io -->
<svg version="1.1" xmlns="http://www.w3.org/2000/svg" width="19" height="32" viewBox="0 0 19 32">
<path d="M19.385 10.43l-9.519-9.852c-0.311-0.345-0.759-0.56-1.258-0.56-0.066 0-0.132 0.004-0.196 0.011l0.008-0.001c-0.209 0.036-0.395 0.117-0.553 0.234l0.003-0.002-7.797 5.787 3.675 10.778-2.879 9.432 8.014 5.512c0.17 0.145 0.392 0.233 0.635 0.233 0.147 0 0.287-0.032 0.412-0.090l-0.006 0.003 0.477-0.174 0.463-0.087c0.383-0.042 0.7-0.283 0.851-0.615l0.003-0.007 7.494-12.875c0.067-0.121 0.109-0.265 0.116-0.418l0-0.002c0.003-0.017 0.005-0.037 0.005-0.058s-0.002-0.040-0.005-0.060l0 0.002v-7.175zM17.476 10.72c0.006 0.037 0.009 0.080 0.009 0.123 0 0.14-0.036 0.272-0.098 0.387l0.002-0.004-7.696 18.763-4.557-13.121 4.34-14.568 7.754 7.913c0.134 0.131 0.225 0.306 0.246 0.503l0 0.004zM1.852 7.219c-0.035-0.082-0.055-0.178-0.055-0.279 0-0.267 0.142-0.502 0.355-0.631l0.003-0.002 6.090-4.6s0 0 0 0l-3.877 12.846zM2.676 25.577c-0.028-0.075-0.044-0.162-0.044-0.253s0.016-0.178 0.046-0.258l-0.002 0.005 1.779-5.917 3.486 10.228-4.933-3.414c-0.151-0.090-0.267-0.224-0.331-0.385l-0.002-0.005zM17.939 17.447l-5.57 9.881 5.57-13.454z"></path>
</svg>
