<!-- Generated by IcoMoon.io -->
<svg version="1.1" xmlns="http://www.w3.org/2000/svg" width="24" height="24" viewBox="0 0 24 24">
<title>microphone</title>
<path fill="#444" d="M12 1c-2.222 0-4.125 1.793-4.125 3.997v7.003c0 2.206 1.903 4.125 4.125 4.125s4.125-1.919 4.125-4.125v-7.003c0-2.204-1.903-3.997-4.125-3.997zM14.75 12c0 1.451-1.286 2.75-2.75 2.75-1.466 0-2.75-1.299-2.75-2.75v-7.003c0-1.448 1.284-2.622 2.75-2.622 1.464 0 2.75 1.174 2.75 2.622v7.003zM17.977 10.703c-0.33 0.231-0.477 0.513-0.477 0.916v0.381c0 2.998-2.467 5.5-5.5 5.5s-5.5-2.503-5.5-5.5v-0.381c0-0.403-0.147-0.685-0.477-0.916l-0.866-0.606c-0.012 0.050-0.032 0.098-0.032 0.153v1.75c0 3.527 2.731 6.467 6.201 6.808-0.003 0.023-0.014 0.043-0.014 0.067v2.75h-1.206c-0.403 0-0.685 0.147-0.916 0.479l-0.628 0.896h6.832l-0.628-0.896c-0.231-0.331-0.513-0.479-0.916-0.479h-1.163v-2.75c0-0.025-0.011-0.044-0.014-0.067 3.47-0.341 6.201-3.281 6.201-6.808v-1.75c0-0.055-0.019-0.102-0.030-0.153l-0.868 0.606z"></path>
</svg>
