<!-- Generated by IcoMoon.io -->
<svg version="1.1" xmlns="http://www.w3.org/2000/svg" width="24" height="24" viewBox="0 0 24 24">
<title>microphone_off</title>
<path fill="#444" d="M17.543 14.256c-0.444-0.439-0.23-0.945-0.23-0.945 0.137-0.479 0.187-0.795 0.187-1.312v-0.381c0-0.403 0.147-0.685 0.477-0.916l0.866-0.606c0.012 0.050 0.032 0.098 0.032 0.153v1.75c0 0.91-0.089 1.528-0.419 2.325 0 0-0.392 0.447-0.913-0.069zM8.585 5.491c0.688-0.022 0.665-0.494 0.665-0.494 0-1.448 1.284-2.622 2.75-2.622 1.464 0 2.75 1.174 2.75 2.622v5.973c0 0-0.065 1.030 0.688 1.030 0.602 0 0.688-0.452 0.688-0.558v-6.445c0-2.204-1.903-3.997-4.125-3.997-1.942 0-3.638 1.368-4.037 3.183 0 0-0.313 1.337 0.622 1.308zM22.15 21.826l-0.195 1.103-5.643-5.643c-1.015 0.83-2.263 1.387-3.638 1.522 0.003 0.023 0.014 0.043 0.014 0.067v2.75h1.163c0.403 0 0.685 0.147 0.916 0.479l0.628 0.896h-6.832l0.628-0.896c0.231-0.331 0.513-0.479 0.916-0.479h1.206v-2.75c0-0.025 0.011-0.044 0.014-0.067-3.47-0.341-6.201-3.281-6.201-6.808v-1.75c0-0.055 0.019-0.102 0.030-0.153l0.866 0.606c0.331 0.231 0.478 0.513 0.478 0.916v0.381c0 2.998 2.467 5.5 5.5 5.5 1.266 0 2.421-0.448 3.348-1.18l-1.002-1.002c-0.677 0.491-1.478 0.807-2.346 0.807-2.222 0-4.125-1.919-4.125-4.125v-3.153l-5.345-5.345-0.462-0.51c-0.187-0.241-0.278-0.485-0.219-0.818l0.195-1.101 19.425 19.425 0.462 0.511c0.186 0.239 0.278 0.484 0.219 0.817zM13.372 14.344l-4.122-4.122v1.778c0 1.451 1.284 2.75 2.75 2.75 0.495 0 0.964-0.151 1.372-0.406z"></path>
</svg>
