<!-- Generated by IcoMoon.io -->
<svg version="1.1" xmlns="http://www.w3.org/2000/svg" width="24" height="24" viewBox="0 0 24 24">
<title>mining</title>
<path d="M17.748 9.019h-0.502c-0.413-0.686-1.108-1.566-1.108-1.566-0.489-0.694-1.194-1.060-2.042-1.060-0.641 0-1.988 0-2.628 0l-0.634-0.905c-0.23-0.329-0.497-0.454-0.898-0.456h-1.827c-0.401 0.001-0.668 0.127-0.898 0.455l-0.634 0.906c-0.411 0.003 0.164 0.007-0.196 0-0.215-0.005-0.664 0.015-1.153 0.268-0.344 0.178-0.644 0.443-0.889 0.791 0 0-0.629 0.778-1.108 1.566l-0.766 0.016c-0.403 0-0.595 0.148-0.825 0.477l-0.619 0.882 1.397 6.233c0.3 1.539 1.415 2.749 2.961 2.749h9.506c1.545 0 2.619-1.21 2.962-2.749l1.354-6.233-0.628-0.894c-0.229-0.332-0.422-0.48-0.825-0.48zM5.463 8.243c0.233-0.328 0.514-0.477 0.918-0.477 0.003 0 0.379 0 1.003 0l0.634-0.906c0.23-0.329 0.497-0.454 0.898-0.456h0.178c0.401 0.002 0.668 0.127 0.898 0.456l0.634 0.906c0.323 0 0.571 0 0.572 0s0.984 0 0.984 0c0.001 0 1.913 0 1.914 0 0.093-0.004 0.296-0.001 0.517 0.112 0.153 0.078 0.283 0.198 0.401 0.365l0.625 0.775h-10.801l0.625-0.775zM16.474 16.626c-0.251 0.71-0.799 1.375-1.588 1.375h-9.506c-0.788 0-1.356-0.697-1.587-1.375l-1.396-6.233h15.428l-1.351 6.233z"></path>
<path d="M6.019 18.001c-1.327 0-2.406 1.080-2.406 2.406s1.080 2.406 2.406 2.406 2.406-1.080 2.406-2.406c0-1.326-1.080-2.406-2.406-2.406zM6.019 21.438c-0.57 0-1.031-0.462-1.031-1.031s0.461-1.031 1.031-1.031c0.57 0 1.031 0.462 1.031 1.031 0 0.57-0.462 1.031-1.031 1.031z"></path>
<path d="M14.030 18.001c-1.327 0-2.406 1.080-2.406 2.406s1.080 2.406 2.406 2.406 2.406-1.080 2.406-2.406c0.001-1.326-1.079-2.406-2.406-2.406zM14.030 21.438c-0.57 0-1.031-0.462-1.031-1.031s0.461-1.031 1.031-1.031 1.031 0.462 1.031 1.031c0.001 0.57-0.461 1.031-1.031 1.031z"></path>
<path d="M22.342 20.558v-3.003h0.634v-1.37h-0.634v-7.594h0.634v-1.371h-0.634v-2.591h0.634v-1.37h-2.002v-0.938c0-0.559-0.813-1.34-1.37-1.34h-2.594c-0.686 0-1.371 0.652-1.371 1.34v0.938h-6.327v1.371h0.696v2.198h1.371v-2.194h9.593v2.586h-5.582v1.371h5.582v7.593h-3.995v1.37h3.996v2.999h-5.667v1.375h7.703v-1.37h-0.667zM19.603 3.259h-2.593v-0.903h2.593v0.903z"></path>
<path d="M12.609 20.553h-1.231v-1.851h-1.37v1.856h-0.665v1.37h3.266z"></path>
</svg>
