<!-- Generated by IcoMoon.io -->
<svg version="1.1" xmlns="http://www.w3.org/2000/svg" width="32" height="32" viewBox="0 0 32 32">
<title>mining</title>
<path d="M23.664 12.025h-0.669c-0.551-0.915-1.477-2.088-1.477-2.088-0.652-0.925-1.592-1.413-2.723-1.413-0.855 0-2.651 0-3.504 0l-0.845-1.207c-0.307-0.439-0.663-0.605-1.197-0.608h-2.436c-0.535 0.001-0.891 0.169-1.197 0.607l-0.845 1.208c-0.548 0.004 0.219 0.009-0.261 0-0.287-0.007-0.885 0.020-1.537 0.357-0.459 0.237-0.859 0.591-1.185 1.055 0 0-0.839 1.037-1.477 2.088l-1.021 0.021c-0.537 0-0.793 0.197-1.1 0.636l-0.825 1.176 1.863 8.311c0.4 2.052 1.887 3.665 3.948 3.665h12.675c2.060 0 3.492-1.613 3.949-3.665l1.805-8.311-0.837-1.192c-0.305-0.443-0.563-0.64-1.1-0.64zM7.284 10.991c0.311-0.437 0.685-0.636 1.224-0.636 0.004 0 0.505 0 1.337 0l0.845-1.208c0.307-0.439 0.663-0.605 1.197-0.608h0.237c0.535 0.003 0.891 0.169 1.197 0.608l0.845 1.208c0.431 0 0.761 0 0.763 0s1.312 0 1.312 0c0.001 0 2.551 0 2.552 0 0.124-0.005 0.395-0.001 0.689 0.149 0.204 0.104 0.377 0.264 0.535 0.487l0.833 1.033h-14.401l0.833-1.033zM21.965 22.168c-0.335 0.947-1.065 1.833-2.117 1.833h-12.675c-1.051 0-1.808-0.929-2.116-1.833l-1.861-8.311h20.571l-1.801 8.311z"></path>
<path d="M8.025 24.001c-1.769 0-3.208 1.44-3.208 3.208s1.44 3.208 3.208 3.208 3.208-1.44 3.208-3.208c0-1.768-1.44-3.208-3.208-3.208zM8.025 28.584c-0.76 0-1.375-0.616-1.375-1.375s0.615-1.375 1.375-1.375c0.76 0 1.375 0.616 1.375 1.375 0 0.76-0.616 1.375-1.375 1.375z"></path>
<path d="M18.707 24.001c-1.769 0-3.208 1.44-3.208 3.208s1.44 3.208 3.208 3.208 3.208-1.44 3.208-3.208c0.001-1.768-1.439-3.208-3.208-3.208zM18.707 28.584c-0.76 0-1.375-0.616-1.375-1.375s0.615-1.375 1.375-1.375 1.375 0.616 1.375 1.375c0.001 0.76-0.615 1.375-1.375 1.375z"></path>
<path d="M29.789 27.411v-4.004h0.845v-1.827h-0.845v-10.125h0.845v-1.828h-0.845v-3.455h0.845v-1.827h-2.669v-1.251c0-0.745-1.084-1.787-1.827-1.787h-3.459c-0.915 0-1.828 0.869-1.828 1.787v1.251h-8.436v1.828h0.928v2.931h1.828v-2.925h12.791v3.448h-7.443v1.828h7.443v10.124h-5.327v1.827h5.328v3.999h-7.556v1.833h10.271v-1.827h-0.889zM26.137 4.345h-3.457v-1.204h3.457v1.204z"></path>
<path d="M16.812 27.404h-1.641v-2.468h-1.827v2.475h-0.887v1.827h4.355z"></path>
</svg>
