<!-- Generated by IcoMoon.io -->
<svg version="1.1" xmlns="http://www.w3.org/2000/svg" width="24" height="24" viewBox="0 0 24 24">
<title>mining</title>
<path d="M21.524 6.994h-0.502c-0.413-0.686-1.108-1.566-1.108-1.566-0.489-0.694-1.194-1.060-2.042-1.060-0.641 0-3.988 0-4.628 0l-0.634-0.905c-0.23-0.329-0.497-0.454-0.898-0.456h-2.827c-0.401 0.002-0.668 0.127-0.898 0.456l-0.634 0.906c-0.411 0.003-0.612 0.007-0.972 0-0.215-0.005-0.664 0.015-1.153 0.267-0.344 0.178-0.644 0.444-0.889 0.792 0 0-0.629 0.778-1.108 1.566l-0.766 0.016c-0.403 0-0.595 0.148-0.825 0.477l-0.618 0.881 1.397 7.233c0 1.513 1.415 2.749 2.961 2.749h13.282c1.545 0 2.962-1.236 2.962-2.749l1.354-7.233-0.628-0.893c-0.23-0.332-0.423-0.481-0.826-0.481zM5.463 6.219c0.233-0.328 0.514-0.477 0.918-0.477 0.003 0 1.155 0 1.779 0l0.634-0.906c0.23-0.329 0.497-0.454 0.898-0.456h1.178c0.401 0.001 0.668 0.127 0.898 0.456l0.634 0.906c0.323 0 0.571 0 0.572 0s0.984 0 0.984 0c0.001 0 3.913 0 3.914 0 0.093-0.004 0.296-0.001 0.517 0.112 0.153 0.078 0.283 0.198 0.401 0.365l0.625 0.775h-14.577l0.625-0.775zM20.25 15.602c0 0.757-0.799 1.375-1.588 1.375h-13.282c-0.788 0-1.587-0.618-1.587-1.375l-1.395-7.234h19.204l-1.352 7.234z"></path>
<path d="M7.469 17.141c-1.327 0-2.406 1.080-2.406 2.406s1.080 2.406 2.406 2.406 2.406-1.080 2.406-2.406c0-1.326-1.079-2.406-2.406-2.406zM7.469 20.578c-0.57 0-1.031-0.462-1.031-1.031s0.461-1.031 1.031-1.031c0.57 0 1.031 0.462 1.031 1.031s-0.461 1.031-1.031 1.031z"></path>
<path d="M16.436 17.141c-1.327 0-2.406 1.080-2.406 2.406s1.080 2.406 2.406 2.406 2.406-1.080 2.406-2.406c0.001-1.326-1.079-2.406-2.406-2.406zM16.436 20.578c-0.57 0-1.031-0.462-1.031-1.031s0.461-1.031 1.031-1.031c0.57 0 1.031 0.462 1.031 1.031 0.001 0.569-0.461 1.031-1.031 1.031z"></path>
</svg>
