<!-- Generated by IcoMoon.io -->
<svg version="1.1" xmlns="http://www.w3.org/2000/svg" width="24" height="24" viewBox="0 0 24 24">
<title>mobile</title>
<path fill="#444" d="M16.781 1h-9.562c-1.155 0-2.094 0.985-2.094 2.204v17.593c0 1.218 0.939 2.203 2.094 2.203h9.56c1.156 0 2.096-0.985 2.096-2.204v-17.592c0-1.22-0.939-2.204-2.094-2.204zM17.5 20.796c0 0.457-0.323 0.829-0.719 0.829h-9.562c-0.396 0-0.719-0.373-0.719-0.829v-17.592c0-0.457 0.323-0.829 0.719-0.829h2.031v0.582c0 0.059 0.128 0.106 0.285 0.106h4.932c0.155 0 0.283-0.047 0.283-0.106v-0.582h2.031c0.396 0 0.719 0.373 0.719 0.829v17.592z"></path>
</svg>
