<!-- Generated by IcoMoon.io -->
<svg version="1.1" xmlns="http://www.w3.org/2000/svg" width="32" height="32" viewBox="0 0 32 32">
<title>mobile</title>
<path d="M22.084 1.333h-12.168c-1.472 0-2.667 1.252-2.667 2.804v23.727c0 1.551 1.195 2.804 2.667 2.804h12.168c1.472 0 2.667-1.252 2.667-2.804v-23.727c-0.001-1.552-1.195-2.804-2.667-2.804zM23 27.863c0 0.58-0.411 1.053-0.916 1.053h-12.168c-0.505 0-0.916-0.473-0.916-1.053v-23.725c0-0.58 0.411-1.053 0.916-1.053h2.584v0.74c0 0.076 0.163 0.136 0.361 0.136h6.276c0.2 0 0.361-0.060 0.361-0.136v-0.741h2.584c0.505 0 0.916 0.473 0.916 1.053v23.727z"></path>
</svg>
