<!-- Generated by IcoMoon.io -->
<svg version="1.1" xmlns="http://www.w3.org/2000/svg" width="24" height="24" viewBox="0 0 24 24">
<title>money_saving</title>
<path d="M14.131 1.688c-2.085 0-3.781 1.696-3.781 3.781 0 2.086 1.696 3.781 3.781 3.781s3.781-1.695 3.781-3.781c0-2.085-1.696-3.781-3.781-3.781zM14.131 7.875c-1.327 0-2.406-1.080-2.406-2.406 0-1.327 1.080-2.406 2.406-2.406s2.406 1.079 2.406 2.406c0 1.326-1.079 2.406-2.406 2.406zM22.991 11.605c0.038 0.125-0.046 0.369-0.223 0.647-0.278 0.442-0.695 0.843-0.912 0.875-0.196 0.073-0.345 0.073-0.488 0.073-0.197 0-0.396-0.035-0.606-0.104-0.202 2.112-1.204 3.975-2.933 5.322l0.467 2.503c0.045 0.419-0.050 0.769-0.284 1.031-0.236 0.264-0.545 0.359-0.737 0.359h-2.508c-0.605 0-1.142-0.442-1.221-1.006l-0.154-0.814c-0.056-0.002-0.113-0.003-0.169-0.003-0.529 0-1.073 0.043-1.495 0.043-0.436 0-0.958-0.038-1.596-0.112l-0.359 0.916c-0.156 0.548-0.689 0.977-1.214 0.977h-2.507c-0.296 0-0.603-0.139-0.843-0.379-0.236-0.236-0.324-0.561-0.243-0.889l0.42-2.1c-0.936-0.503-1.675-1.251-2.126-2.2l-0.84-0.046c-0.942 0-1.42-0.391-1.42-1.16v-2.858c0-0.863 0.584-1.467 1.42-1.467h0.414c0.364-0.916 0.753-1.606 1.306-2.239-0.055-0.678-0.307-1.091-0.628-1.613l-0.112-0.182c-0.056-0.116-0.114-0.212-0.175-0.317-0.104-0.175-0.214-0.357-0.298-0.57-0.085-0.171-0.082-0.424 0.005-0.595 0.114-0.223 0.317-0.357 0.545-0.357 0.389-0.044 0.77-0.067 1.124-0.067 1.767 0 2.873 0.516 3.489 0.948 0.439-0.129 0.852-0.221 1.264-0.315l-0.222 0.959c-0.043 0.189-0.13 0.327-0.24 0.442-0.231 0.062-0.46 0.124-0.67 0.202-0.055 0.027-0.146 0.053-0.246 0.053-0.152 0-0.29-0.057-0.39-0.16-0.691-0.572-1.694-0.874-2.905-0.881v0c-0.031 0-0.059 0.016-0.074 0.045-0.015 0.025-0.014 0.059 0.003 0.084 0.387 0.591 0.753 1.285 0.814 2.347 0 0.146 0 0.374-0.222 0.483-0.622 0.703-1.051 1.549-1.234 2.397-0.084 0.26-0.326 0.531-0.623 0.531l-1.053 0.223 0.030 2.586 1.351 0.089c0.245 0 0.513 0.158 0.612 0.359 0.456 1.039 1.213 1.778 2.077 2.030 0.164 0.037 0.309 0.148 0.392 0.298 0.077 0.137 0.095 0.301 0.049 0.438l-0.523 2.451h2.062l0.518-1.485c0.086-0.338 0.419-0.521 0.689-0.521 0.581 0.124 1.357 0.196 2.114 0.196 0.758 0 1.534-0.072 2.077-0.192 0.449 0.002 0.729 0.226 0.729 0.556l0.375 1.471 2.099-0.023-0.427-2.667c-0.086-0.258 0.080-0.535 0.288-0.642 1.64-1.14 2.615-2.86 2.615-4.609 0-0.948-0.296-1.853-0.8-2.681l0.073 0.084-0.109-0.138c-0.135-0.217-0.257-0.438-0.424-0.642-0.072-0.18-0.111-0.365-0.055-0.591l0.249-1.007c1.083 1.007 1.831 2.21 2.142 3.522 0.397 0.277 0.672 0.383 0.902 0.383 0.521-0.11 0.751-0.422 0.849-0.557 0.166-0.238 0.384-0.371 0.616-0.376l0.129 0.642z"></path>
</svg>
