<!-- Generated by IcoMoon.io -->
<svg version="1.1" xmlns="http://www.w3.org/2000/svg" width="32" height="32" viewBox="0 0 32 32">
<path d="M27.431 16.412c-0.745-1.821-1.761-3.567-3.020-5.168-0.948-1.225-1.904-2.199-2.677-2.911l2.32-4.3c0.309-0.561 0.295-1.249-0.036-1.808-0.329-0.551-0.929-0.892-1.573-0.892h-12.731c-0.633 0-1.223 0.333-1.56 0.867-0.333 0.54-0.363 1.219-0.079 1.789l2.18 4.361c-0.769 0.708-1.719 1.672-2.665 2.891-1.269 1.628-2.285 3.363-3.021 5.181-0.931 2.295-1.401 4.687-1.401 7.117 0 3.928 3.048 7.127 6.791 7.127h12.085c3.743 0 6.791-3.199 6.791-7.128 0-2.432-0.472-4.823-1.403-7.127zM22.043 28.833h-12.085c-2.732 0-4.957-2.376-4.957-5.295 0-2.188 0.427-4.357 1.265-6.429 0.672-1.652 1.604-3.251 2.771-4.744 1.391-1.781 2.772-2.983 3.497-3.557l-2.82-5.641h12.729l-3.024 5.605c0.717 0.559 2.127 1.777 3.543 3.593 1.172 1.492 2.1 3.091 2.772 4.744 0.839 2.073 1.265 4.243 1.265 6.429 0.001 2.919-2.228 5.295-4.956 5.295zM20.399 22.277c0 1.136-0.419 1.983-1.259 2.568-0.448 0.312-1.007 0.528-1.661 0.673-0.293 0.371-0.644 0.563-1.139 0.565l-1.461-0.003 0.265-0.388c-0.875-0.016-1.612-0.093-2.139-0.247-0.613-0.185-1.031-0.316-1.249-0.415 0.333-0.952 1.239-1.473 2.237-1.297 0.597 0.112 0.943 0.119 1.547 0.119 0.897 0 1.565-0.119 1.995-0.351 0.436-0.235 0.652-0.619 0.652-1.136 0-0.528-0.215-0.955-0.639-1.268-0.42-0.313-1.12-0.665-2.093-1.061-0.472-0.192-0.921-0.376-1.357-0.576-0.431-0.196-0.803-0.427-1.119-0.692-0.313-0.273-0.563-0.593-0.749-0.968-0.189-0.377-0.285-0.837-0.285-1.395 0-1.076 0.4-1.937 1.201-2.577 0.507-0.405 1.148-0.664 1.892-0.809l0.039-0.055c0.307-0.437 0.681-0.633 1.221-0.636l1.461 0.003-0.416 0.601c0.036 0.004 0.075 0.003 0.115 0.005 0.344 0.033 0.667 0.084 0.964 0.141 0.3 0.056 0.563 0.113 0.788 0.176 0.231 0.060 0.404 0.116 0.532 0.165-0.371 0.953-1.233 1.48-2.253 1.353-0.412-0.045-0.644-0.061-1.060-0.061-0.612 0-1.155 0.131-1.612 0.371-0.452 0.248-0.68 0.625-0.68 1.141 0 0.263 0.049 0.497 0.155 0.711 0.101 0.203 0.259 0.383 0.467 0.549 0.215 0.167 0.481 0.317 0.795 0.459 0.311 0.14 0.689 0.289 1.132 0.451 0.579 0.216 1.096 0.436 1.551 0.641 0.459 0.217 0.843 0.461 1.165 0.744 0.324 0.284 0.571 0.627 0.743 1.028 0.171 0.4 0.256 0.888 0.256 1.469z"></path>
</svg>
