<!-- Generated by IcoMoon.io -->
<svg version="1.1" xmlns="http://www.w3.org/2000/svg" width="32" height="32" viewBox="0 0 32 32">
<title>money_saving</title>
<path d="M18.841 2.251c-2.78 0-5.041 2.261-5.041 5.041 0 2.781 2.261 5.041 5.041 5.041s5.041-2.26 5.041-5.041c0-2.78-2.261-5.041-5.041-5.041zM18.841 10.5c-1.769 0-3.208-1.44-3.208-3.208 0-1.769 1.44-3.208 3.208-3.208s3.208 1.439 3.208 3.208c0 1.768-1.439 3.208-3.208 3.208zM30.655 15.473c0.051 0.167-0.061 0.492-0.297 0.863-0.371 0.589-0.927 1.124-1.216 1.167-0.261 0.097-0.46 0.097-0.651 0.097-0.263 0-0.528-0.047-0.808-0.139-0.269 2.816-1.605 5.3-3.911 7.096l0.623 3.337c0.060 0.559-0.067 1.025-0.379 1.375-0.315 0.352-0.727 0.479-0.983 0.479h-3.344c-0.807 0-1.523-0.589-1.628-1.341l-0.205-1.085c-0.075-0.003-0.151-0.004-0.225-0.004-0.705 0-1.431 0.057-1.993 0.057-0.581 0-1.277-0.051-2.128-0.149l-0.479 1.221c-0.208 0.731-0.919 1.303-1.619 1.303h-3.343c-0.395 0-0.804-0.185-1.124-0.505-0.315-0.315-0.432-0.748-0.324-1.185l0.56-2.8c-1.248-0.671-2.233-1.668-2.835-2.933l-1.12-0.061c-1.256 0-1.893-0.521-1.893-1.547v-3.811c0-1.151 0.779-1.956 1.893-1.956h0.552c0.485-1.221 1.004-2.141 1.741-2.985-0.073-0.904-0.409-1.455-0.837-2.151l-0.149-0.243c-0.075-0.155-0.152-0.283-0.233-0.423-0.139-0.233-0.285-0.476-0.397-0.76-0.113-0.228-0.109-0.565 0.007-0.793 0.152-0.297 0.423-0.476 0.727-0.476 0.519-0.059 1.027-0.089 1.499-0.089 2.356 0 3.831 0.688 4.652 1.264 0.585-0.172 1.136-0.295 1.685-0.42l-0.296 1.279c-0.057 0.252-0.173 0.436-0.32 0.589-0.308 0.083-0.613 0.165-0.893 0.269-0.073 0.036-0.195 0.071-0.328 0.071-0.203 0-0.387-0.076-0.52-0.213-0.921-0.763-2.259-1.165-3.873-1.175v0c-0.041 0-0.079 0.021-0.099 0.060-0.020 0.033-0.019 0.079 0.004 0.112 0.516 0.788 1.004 1.713 1.085 3.129 0 0.195 0 0.499-0.296 0.644-0.829 0.937-1.401 2.065-1.645 3.196-0.112 0.347-0.435 0.708-0.831 0.708l-1.404 0.297 0.040 3.448 1.801 0.119c0.327 0 0.684 0.211 0.816 0.479 0.608 1.385 1.617 2.371 2.769 2.707 0.219 0.049 0.412 0.197 0.523 0.397 0.103 0.183 0.127 0.401 0.065 0.584l-0.697 3.268h2.749l0.691-1.98c0.115-0.451 0.559-0.695 0.919-0.695 0.775 0.165 1.809 0.261 2.819 0.261 1.011 0 2.045-0.096 2.769-0.256 0.599 0.003 0.972 0.301 0.972 0.741l0.5 1.961 2.799-0.031-0.569-3.556c-0.115-0.344 0.107-0.713 0.384-0.856 2.187-1.52 3.487-3.813 3.487-6.145 0-1.264-0.395-2.471-1.067-3.575l0.097 0.112-0.145-0.184c-0.18-0.289-0.343-0.584-0.565-0.856-0.096-0.24-0.148-0.487-0.073-0.788l0.332-1.343c1.444 1.343 2.441 2.947 2.856 4.696 0.529 0.369 0.896 0.511 1.203 0.511 0.695-0.147 1.001-0.563 1.132-0.743 0.221-0.317 0.512-0.495 0.821-0.501l0.172 0.856z"></path>
</svg>
