<!-- Generated by IcoMoon.io -->
<svg version="1.1" xmlns="http://www.w3.org/2000/svg" width="24" height="24" viewBox="0 0 24 24">
<title>money_bag</title>
<path d="M20.573 12.309c-0.559-1.366-1.321-2.675-2.265-3.876-0.711-0.919-1.428-1.649-2.008-2.183l1.74-3.225c0.232-0.421 0.221-0.937-0.027-1.356-0.247-0.413-0.697-0.669-1.18-0.669h-9.548c-0.475 0-0.917 0.25-1.17 0.65-0.25 0.405-0.272 0.914-0.059 1.342l1.635 3.271c-0.577 0.531-1.289 1.254-1.999 2.168-0.952 1.221-1.714 2.522-2.266 3.886-0.698 1.721-1.051 3.515-1.051 5.338 0 2.946 2.286 5.345 5.093 5.345h9.064c2.807 0 5.093-2.399 5.093-5.346 0-1.824-0.354-3.617-1.052-5.345zM16.532 21.625h-9.064c-2.049 0-3.718-1.782-3.718-3.971 0-1.641 0.32-3.268 0.949-4.822 0.504-1.239 1.203-2.438 2.078-3.558 1.043-1.336 2.079-2.237 2.623-2.668l-2.115-4.231h9.547l-2.268 4.204c0.538 0.419 1.595 1.333 2.657 2.695 0.879 1.119 1.575 2.318 2.079 3.558 0.629 1.555 0.949 3.182 0.949 4.822 0.001 2.189-1.671 3.971-3.717 3.971zM15.299 16.708c0 0.852-0.314 1.487-0.944 1.926-0.336 0.234-0.755 0.396-1.246 0.505-0.22 0.278-0.483 0.422-0.854 0.424l-1.096-0.002 0.199-0.291c-0.656-0.012-1.209-0.070-1.604-0.185-0.46-0.139-0.773-0.237-0.937-0.311 0.25-0.714 0.929-1.105 1.678-0.973 0.448 0.084 0.707 0.089 1.16 0.089 0.673 0 1.174-0.089 1.496-0.263 0.327-0.176 0.489-0.464 0.489-0.852 0-0.396-0.161-0.716-0.479-0.951-0.315-0.235-0.84-0.499-1.57-0.796-0.354-0.144-0.691-0.282-1.018-0.432-0.323-0.147-0.602-0.32-0.839-0.519-0.235-0.205-0.422-0.445-0.562-0.726-0.142-0.283-0.214-0.628-0.214-1.046 0-0.807 0.3-1.453 0.901-1.933 0.38-0.304 0.861-0.498 1.419-0.607l0.029-0.041c0.23-0.328 0.511-0.475 0.916-0.477l1.096 0.002-0.312 0.451c0.027 0.003 0.056 0.002 0.086 0.004 0.258 0.025 0.5 0.063 0.723 0.106 0.225 0.042 0.422 0.085 0.591 0.132 0.173 0.045 0.303 0.087 0.399 0.124-0.278 0.715-0.925 1.11-1.69 1.015-0.309-0.034-0.483-0.046-0.795-0.046-0.459 0-0.866 0.098-1.209 0.278-0.339 0.186-0.51 0.469-0.51 0.856 0 0.197 0.037 0.373 0.116 0.533 0.076 0.152 0.194 0.287 0.35 0.412 0.161 0.125 0.361 0.238 0.596 0.344 0.233 0.105 0.517 0.217 0.849 0.338 0.434 0.162 0.822 0.327 1.163 0.481 0.344 0.163 0.632 0.346 0.874 0.558 0.243 0.213 0.428 0.47 0.557 0.771 0.128 0.3 0.192 0.666 0.192 1.102z"></path>
</svg>
