<!-- Generated by IcoMoon.io -->
<svg version="1.1" xmlns="http://www.w3.org/2000/svg" width="24" height="24" viewBox="0 0 24 24">
<title>money_bag</title>
<path fill="#444" d="M20.573 12.312c-0.558-1.371-1.321-2.678-2.265-3.879-0.712-0.919-1.427-1.647-2.008-2.181l1.741-3.226c0.23-0.426 0.219-0.942-0.029-1.357-0.249-0.414-0.697-0.67-1.181-0.67h-9.547c-0.476 0-0.919 0.248-1.169 0.653-0.25 0.404-0.274 0.91-0.061 1.337l1.635 3.272c-0.576 0.529-1.288 1.257-1.999 2.167-0.95 1.22-1.712 2.526-2.266 3.886-0.697 1.72-1.051 3.519-1.051 5.341 0 2.948 2.285 5.345 5.093 5.345h9.064c2.808 0 5.093-2.397 5.093-5.345 0-1.823-0.353-3.62-1.052-5.343zM16.532 21.625h-9.064c-2.049 0-3.718-1.782-3.718-3.97 0-1.643 0.319-3.268 0.95-4.826 0.503-1.236 1.203-2.435 2.076-3.554 1.044-1.338 2.082-2.239 2.625-2.669l-2.116-4.231h9.547l-2.267 4.202c0.539 0.424 1.598 1.334 2.659 2.699 0.879 1.119 1.573 2.318 2.076 3.554 0.631 1.556 0.95 3.182 0.95 4.825 0 2.188-1.671 3.97-3.718 3.97zM15.3 16.709c0 0.848-0.315 1.489-0.943 1.922-0.338 0.234-0.756 0.4-1.246 0.509-0.221 0.278-0.484 0.419-0.855 0.422l-1.096-0.003 0.201-0.287c-0.657-0.016-1.211-0.073-1.605-0.19-0.459-0.135-0.773-0.238-0.938-0.307 0.252-0.716 0.931-1.11 1.679-0.975 0.447 0.084 0.705 0.089 1.159 0.089 0.672 0 1.174-0.089 1.497-0.264 0.325-0.177 0.487-0.461 0.487-0.848 0-0.399-0.161-0.718-0.479-0.953-0.316-0.235-0.84-0.5-1.57-0.796-0.353-0.14-0.692-0.283-1.016-0.432-0.323-0.146-0.602-0.319-0.839-0.52-0.234-0.201-0.424-0.443-0.564-0.723-0.143-0.286-0.213-0.631-0.213-1.044 0-0.811 0.3-1.459 0.901-1.932 0.381-0.305 0.861-0.5 1.419-0.611l0.028-0.040c0.232-0.331 0.514-0.476 0.917-0.478l1.096 0.003-0.315 0.447c0.029 0.004 0.058 0.003 0.087 0.005 0.259 0.028 0.503 0.063 0.725 0.106 0.224 0.041 0.424 0.085 0.591 0.133 0.173 0.045 0.304 0.087 0.4 0.122-0.278 0.716-0.925 1.108-1.691 1.016-0.309-0.038-0.485-0.047-0.796-0.047-0.458 0-0.863 0.094-1.207 0.278-0.341 0.183-0.511 0.467-0.511 0.855 0 0.199 0.038 0.375 0.116 0.532 0.077 0.153 0.194 0.29 0.352 0.414 0.161 0.122 0.359 0.238 0.593 0.344 0.235 0.104 0.517 0.217 0.848 0.335 0.434 0.166 0.824 0.329 1.165 0.485 0.344 0.16 0.631 0.346 0.875 0.557 0.242 0.212 0.428 0.469 0.556 0.77 0.131 0.298 0.195 0.664 0.195 1.103z"></path>
</svg>
