<!-- Generated by IcoMoon.io -->
<svg version="1.1" xmlns="http://www.w3.org/2000/svg" width="24" height="24" viewBox="0 0 24 24">
<title>money_saving</title>
<path fill="#444" d="M14.118 1.75c-2.073 0-3.758 1.685-3.758 3.758s1.685 3.758 3.758 3.758 3.758-1.685 3.758-3.758-1.686-3.758-3.758-3.758zM14.118 7.9c-1.319 0-2.392-1.073-2.392-2.392s1.073-2.392 2.392-2.392 2.392 1.073 2.392 2.392-1.073 2.392-2.392 2.392zM22.925 11.608c0.037 0.124-0.045 0.368-0.221 0.645-0.276 0.439-0.692 0.836-0.906 0.869-0.195 0.074-0.343 0.074-0.485 0.074-0.197 0-0.394-0.034-0.603-0.104-0.2 2.099-1.196 3.951-2.915 5.289l0.465 2.487c0.045 0.417-0.049 0.765-0.283 1.026s-0.541 0.357-0.733 0.357h-2.493c-0.601 0-1.134-0.439-1.214-0.999l-0.153-0.81c-0.056-0.001-0.112-0.003-0.168-0.003-0.526 0-1.066 0.042-1.486 0.042-0.433 0-0.953-0.037-1.587-0.111l-0.357 0.909c-0.154 0.544-0.685 0.97-1.207 0.97h-2.493c-0.294 0-0.599-0.138-0.838-0.376-0.235-0.235-0.323-0.558-0.241-0.883l0.418-2.087c-0.931-0.499-1.665-1.242-2.113-2.187l-0.835-0.046c-0.939-0.001-1.413-0.389-1.413-1.155v-2.841c0-0.858 0.581-1.457 1.412-1.457h0.411c0.362-0.91 0.749-1.598 1.297-2.226-0.053-0.674-0.305-1.084-0.623-1.603l-0.111-0.182c-0.056-0.113-0.113-0.21-0.175-0.313-0.104-0.174-0.213-0.355-0.297-0.567-0.085-0.169-0.081-0.422 0.005-0.592 0.113-0.221 0.314-0.355 0.541-0.355 0.387-0.044 0.765-0.067 1.118-0.067 1.756 0 2.855 0.512 3.467 0.942 0.436-0.128 0.847-0.219 1.257-0.313l-0.22 0.955c-0.044 0.187-0.13 0.324-0.239 0.439-0.23 0.062-0.456 0.124-0.667 0.201-0.055 0.026-0.145 0.052-0.245 0.052-0.15 0-0.288-0.056-0.388-0.159-0.686-0.569-1.682-0.868-2.886-0.875v0c-0.030 0-0.057 0.016-0.072 0.044-0.015 0.026-0.014 0.059 0.003 0.085 0.384 0.588 0.749 1.278 0.809 2.333 0 0.143 0 0.37-0.22 0.481-0.619 0.697-1.046 1.537-1.227 2.381-0.083 0.26-0.324 0.529-0.619 0.529l-1.047 0.221 0.030 2.571 1.342 0.087c0.243 0 0.51 0.157 0.608 0.357 0.454 1.033 1.205 1.768 2.064 2.019 0.164 0.037 0.308 0.148 0.389 0.297 0.077 0.137 0.094 0.299 0.049 0.436l-0.519 2.434h2.050l0.515-1.477c0.085-0.335 0.415-0.518 0.685-0.518 0.577 0.124 1.349 0.195 2.102 0.195s1.525-0.071 2.064-0.191c0.446 0.001 0.726 0.224 0.726 0.552l0.373 1.461 2.087-0.023-0.425-2.651c-0.085-0.257 0.079-0.532 0.286-0.637 1.63-1.133 2.598-2.844 2.598-4.582 0-0.942-0.294-1.842-0.795-2.665l0.072 0.085-0.109-0.138c-0.134-0.215-0.256-0.435-0.422-0.637-0.072-0.179-0.111-0.365-0.055-0.589l0.247-0.999c1.077 1 1.82 2.195 2.129 3.501 0.395 0.276 0.668 0.38 0.897 0.38 0.518-0.109 0.746-0.42 0.845-0.552 0.165-0.238 0.381-0.37 0.612-0.373l0.13 0.638z"></path>
</svg>
