<!-- Generated by IcoMoon.io -->
<svg version="1.1" xmlns="http://www.w3.org/2000/svg" width="32" height="32" viewBox="0 0 32 32">
<title>moon</title>
<path d="M16.043 30.667c-0.453 0-0.909-0.021-1.368-0.063-8.068-0.747-14.024-7.917-13.279-15.984 0.649-7.045 6.235-12.632 13.279-13.28 0.057-0.005 0.113-0.007 0.169-0.007 0.657 0 1.269 0.353 1.596 0.932 0.355 0.631 0.307 1.409-0.123 1.989-2.676 3.624-1.908 8.749 1.713 11.428 1.416 1.045 3.096 1.599 4.856 1.599 1.761 0 3.441-0.553 4.857-1.599 0.321-0.239 0.704-0.361 1.089-0.361 0.309 0 0.62 0.080 0.9 0.237 0.631 0.355 0.993 1.045 0.925 1.765-0.703 7.607-6.987 13.343-14.616 13.343zM16.941 17.156c-4.441-3.284-5.381-9.544-2.099-13.989-6.167 0.568-11.052 5.456-11.621 11.621-0.653 7.075 4.549 13.337 11.621 13.991 7.075 0.652 13.336-4.548 13.991-11.623-3.533 2.612-8.359 2.612-11.892 0z"></path>
</svg>
