<!-- Generated by IcoMoon.io -->
<svg version="1.1" xmlns="http://www.w3.org/2000/svg" width="24" height="24" viewBox="0 0 24 24">
<title>moon</title>
<path fill="#444" d="M12.032 23c-0.34 0-0.682-0.017-1.026-0.047-6.050-0.56-10.517-5.937-9.959-11.989 0.487-5.284 4.676-9.474 9.959-9.959 0.043-0.004 0.085-0.005 0.128-0.005 0.492 0 0.952 0.264 1.196 0.7 0.265 0.473 0.23 1.057-0.092 1.492-2.008 2.717-1.43 6.562 1.286 8.57 1.061 0.784 2.321 1.199 3.642 1.199s2.579-0.415 3.642-1.199c0.241-0.179 0.528-0.269 0.817-0.269 0.232 0 0.465 0.059 0.675 0.177 0.473 0.265 0.745 0.784 0.694 1.324-0.528 5.704-5.24 10.006-10.963 10.006zM12.707 12.868c-3.332-2.463-4.037-7.158-1.574-10.493-4.624 0.426-8.288 4.092-8.716 8.716-0.49 5.305 3.411 10.002 8.716 10.493 5.306 0.49 10.002-3.41 10.493-8.716-2.65 1.959-6.269 1.959-8.918 0z"></path>
</svg>
