<!-- Generated by IcoMoon.io -->
<svg version="1.1" xmlns="http://www.w3.org/2000/svg" width="24" height="24" viewBox="0 0 24 24">
<title>moon</title>
<path d="M12.032 23c-0.34 0-0.682-0.016-1.026-0.047-6.051-0.56-10.518-5.938-9.959-11.988 0.487-5.284 4.676-9.474 9.959-9.96 0.043-0.004 0.085-0.005 0.127-0.005 0.493 0 0.952 0.265 1.197 0.699 0.266 0.473 0.23 1.057-0.092 1.492-2.007 2.718-1.431 6.562 1.285 8.571 1.062 0.784 2.322 1.199 3.642 1.199 1.321 0 2.581-0.415 3.643-1.199 0.241-0.179 0.528-0.271 0.817-0.271 0.232 0 0.465 0.060 0.675 0.178 0.473 0.266 0.745 0.784 0.694 1.324-0.527 5.705-5.24 10.007-10.962 10.007zM12.706 12.867c-3.331-2.463-4.036-7.158-1.574-10.492-4.625 0.426-8.289 4.092-8.716 8.716-0.49 5.306 3.412 10.003 8.716 10.493 5.306 0.489 10.002-3.411 10.493-8.717-2.65 1.959-6.269 1.959-8.919 0z"></path>
</svg>
