<!-- Generated by IcoMoon.io -->
<svg version="1.1" xmlns="http://www.w3.org/2000/svg" width="32" height="32" viewBox="0 0 32 32">
<title>more</title>
<path d="M16 13.251c-1.516 0-2.749 1.233-2.749 2.749s1.233 2.749 2.749 2.749 2.749-1.233 2.749-2.749-1.233-2.749-2.749-2.749zM16 16.917c-0.505 0-0.917-0.409-0.917-0.917s0.412-0.917 0.917-0.917 0.917 0.409 0.917 0.917-0.412 0.917-0.917 0.917zM16 1.333c-1.516 0-2.749 1.233-2.749 2.749s1.233 2.751 2.749 2.751 2.749-1.233 2.749-2.749-1.233-2.751-2.749-2.751zM16 5c-0.505 0-0.917-0.409-0.917-0.917s0.412-0.916 0.917-0.916 0.917 0.409 0.917 0.917-0.412 0.916-0.917 0.916zM16 25.167c-1.516 0-2.749 1.233-2.749 2.749s1.233 2.751 2.749 2.751 2.749-1.233 2.749-2.749-1.233-2.751-2.749-2.751zM16 28.833c-0.505 0-0.917-0.409-0.917-0.917s0.412-0.916 0.917-0.916 0.917 0.409 0.917 0.917-0.412 0.916-0.917 0.916z"></path>
</svg>
