<!-- Generated by IcoMoon.io -->
<svg version="1.1" xmlns="http://www.w3.org/2000/svg" width="24" height="24" viewBox="0 0 24 24">
<title>more</title>
<path d="M12 9.938c-1.137 0-2.062 0.925-2.062 2.062s0.925 2.062 2.062 2.062 2.062-0.925 2.062-2.062-0.925-2.062-2.062-2.062zM12 12.688c-0.379 0-0.688-0.307-0.688-0.688s0.309-0.688 0.688-0.688 0.688 0.307 0.688 0.688-0.309 0.688-0.688 0.688zM12 1c-1.137 0-2.062 0.925-2.062 2.062s0.925 2.063 2.062 2.063 2.062-0.925 2.062-2.062-0.925-2.063-2.062-2.063zM12 3.75c-0.379 0-0.688-0.307-0.688-0.688s0.309-0.687 0.688-0.687 0.688 0.307 0.688 0.688-0.309 0.687-0.688 0.687zM12 18.875c-1.137 0-2.062 0.925-2.062 2.062s0.925 2.063 2.062 2.063 2.062-0.925 2.062-2.062-0.925-2.063-2.062-2.063zM12 21.625c-0.379 0-0.688-0.307-0.688-0.688s0.309-0.687 0.688-0.687 0.688 0.307 0.688 0.688-0.309 0.687-0.688 0.687z"></path>
</svg>
