<!-- Generated by IcoMoon.io -->
<svg version="1.1" xmlns="http://www.w3.org/2000/svg" width="24" height="24" viewBox="0 0 24 24">
<title>mouse</title>
<path fill="#444" d="M11.312 4.906h1.375v5h-1.375v-5z"></path>
<path fill="#444" d="M12.023 23.021c-3.985 0-7.227-2.993-7.227-6.674v-8.694c0-3.681 3.242-6.674 7.227-6.674s7.227 2.993 7.227 6.674v8.693c0 3.681-3.242 6.675-7.227 6.675zM12.023 2.276c-3.27 0-5.93 2.412-5.93 5.377v8.693c0 2.965 2.66 5.377 5.93 5.377s5.93-2.412 5.93-5.377v-8.693c0-2.965-2.66-5.377-5.93-5.377z"></path>
</svg>
