<!-- Generated by IcoMoon.io -->
<svg version="1.1" xmlns="http://www.w3.org/2000/svg" width="24" height="24" viewBox="0 0 24 24">
<title>multiplataform</title>
<path fill="#444" d="M23 5.125v12.869c0 0.455-0.355 0.881-0.813 0.881h-7.437v1.363h3.074c0.29 0.043 0.521 0.183 0.709 0.45l0.635 0.907h-5.067c-0.014 0.001-0.026 0.008-0.040 0.008-0.38 0-0.688-0.308-0.688-0.688v-2.685h0.008c-0.001-0.014-0.008-0.028-0.008-0.043 0-0.38 0.308-0.688 0.688-0.688 0.001 0 0.003 0.001 0.005 0.001 0.001 0 0.001-0.001 0.001-0.001h7.351c0.11-0.032 0.191-0.113 0.205-0.23v-11.962c-0.022-0.088-0.077-0.149-0.16-0.183h-4.439c-0.005 0-1.558-0.003-1.563-0.005-0.008 0-1.391 0.005-1.401 0.005-0.38 0-0.688-0.308-0.688-0.688s0.308-0.688 0.688-0.688h7.562c0.967 0 1.375 0.516 1.375 1.375zM9.906 1h-6.812c-1.155 0-2.094 0.985-2.094 2.204v17.593c0 1.218 0.939 2.203 2.094 2.203h6.81c1.156 0 2.096-0.985 2.096-2.204v-17.592c0-1.22-0.939-2.204-2.094-2.204zM10.625 20.796c0 0.457-0.323 0.829-0.719 0.829h-6.812c-0.396 0-0.719-0.373-0.719-0.829v-17.592c0-0.457 0.323-0.829 0.719-0.829h2.031v0.582c0 0.059 0.128 0.106 0.285 0.106h2.182c0.155 0 0.283-0.047 0.283-0.106v-0.582h2.031c0.396 0 0.719 0.373 0.719 0.829v17.592z"></path>
</svg>
