<!-- Generated by IcoMoon.io -->
<svg version="1.1" xmlns="http://www.w3.org/2000/svg" width="32" height="32" viewBox="0 0 32 32">
<title>multiplataform</title>
<path d="M30.667 6.833v17.159c0 0.607-0.473 1.175-1.084 1.175h-9.916v1.817h4.099c0.387 0.057 0.695 0.244 0.947 0.599l0.847 1.211h-6.755c-0.019 0.001-0.035 0.011-0.053 0.011-0.507 0-0.917-0.411-0.917-0.917v-3.58h0.012c-0.001-0.020-0.012-0.037-0.012-0.057 0-0.507 0.411-0.917 0.917-0.917 0.003 0 0.004 0.001 0.007 0.001 0.001 0 0.001-0.001 0.001-0.001h9.801c0.145-0.043 0.255-0.151 0.273-0.305v-15.949c-0.028-0.116-0.103-0.196-0.212-0.244h-5.917c-0.008 0-2.077-0.004-2.084-0.008-0.012 0-1.857 0.008-1.869 0.008-0.507 0-0.917-0.411-0.917-0.917s0.411-0.917 0.917-0.917h10.083c1.289 0.001 1.833 0.689 1.833 1.835zM13.207 1.333h-9.080c-1.543 0-2.793 1.312-2.793 2.937v23.459c0 1.625 1.251 2.937 2.793 2.937h9.081c1.541 0 2.792-1.312 2.792-2.937v-23.459c0-1.625-1.251-2.937-2.793-2.937zM14.167 27.729c0 0.608-0.431 1.104-0.96 1.104h-9.080c-0.529 0-0.96-0.496-0.96-1.104v-23.459c0-0.608 0.431-1.104 0.96-1.104h2.707v0.775c0 0.080 0.169 0.141 0.379 0.141h2.909c0.209 0 0.379-0.063 0.379-0.141v-0.775h2.707c0.529 0 0.96 0.496 0.96 1.104v23.459z"></path>
</svg>
