<!-- Generated by IcoMoon.io -->
<svg version="1.1" xmlns="http://www.w3.org/2000/svg" width="32" height="32" viewBox="0 0 32 32">
<path d="M30.667 2.299c0-0.275-0.123-0.533-0.335-0.709-0.212-0.173-0.489-0.249-0.76-0.191l-17.417 3.445c-0.428 0.083-0.739 0.461-0.739 0.899v19.277l-1.719-0.992c-1.415-0.817-2.848-0.873-4.392-0.167l-2.915 1.36c-0.617 0.288-1.025 0.897-1.056 1.581-0.031 0.683 0.323 1.327 0.915 1.667l2.587 1.496c1.421 0.819 2.856 0.872 4.387 0.161l2.915-1.359c0.559-0.26 0.929-0.787 1.021-1.387 0.056-0.117 0.091-0.245 0.091-0.384v-13.168l15.584-3.083v8.797l-1.667-0.96c-1.415-0.819-2.849-0.876-4.389-0.169l-2.915 1.36c-0.62 0.288-1.028 0.897-1.056 1.581-0.029 0.683 0.323 1.327 0.915 1.669l2.587 1.496c1.421 0.816 2.856 0.869 4.385 0.159l2.915-1.359c0.619-0.289 1.028-0.899 1.057-1.581 0.003-0.061-0.013-0.119-0.017-0.18 0.004-0.032 0.019-0.059 0.019-0.092v-19.169zM8.448 28.464c-0.972 0.453-1.768 0.448-2.695-0.087l-2.587-1.495 2.915-1.36c0.976-0.448 1.767-0.445 2.697 0.093l2.584 1.489-2.915 1.359zM13.251 11.96v-5.464l15.583-3.083v5.467l-15.583 3.080zM25.919 23.017c-0.973 0.453-1.767 0.448-2.696-0.087l-2.585-1.495 2.915-1.36c0.976-0.447 1.768-0.444 2.696 0.093l2.585 1.489-2.915 1.359z"></path>
</svg>
