<!-- Generated by IcoMoon.io -->
<svg version="1.1" xmlns="http://www.w3.org/2000/svg" width="24" height="24" viewBox="0 0 24 24">
<title>music_note</title>
<path fill="#444" d="M22.997 1.726c0-0.205-0.092-0.4-0.252-0.532-0.159-0.131-0.367-0.187-0.57-0.143l-13.059 2.583c-0.32 0.065-0.553 0.348-0.553 0.675v14.454l-1.289-0.744c-1.060-0.613-2.136-0.656-3.294-0.125l-2.186 1.019c-0.463 0.216-0.77 0.672-0.792 1.185-0.023 0.511 0.242 0.995 0.686 1.25l1.94 1.122c1.065 0.613 2.142 0.654 3.289 0.121l2.186-1.019c0.419-0.195 0.697-0.59 0.766-1.039 0.041-0.088 0.069-0.184 0.069-0.289v-9.872l11.684-2.309v6.595l-1.25-0.719c-1.060-0.613-2.136-0.657-3.292-0.126l-2.186 1.019c-0.465 0.216-0.771 0.672-0.792 1.185-0.023 0.511 0.242 0.995 0.686 1.251l1.94 1.122c1.065 0.612 2.142 0.653 3.288 0.12l2.186-1.019c0.465-0.216 0.771-0.674 0.793-1.185 0.001-0.045-0.010-0.088-0.012-0.135 0.003-0.025 0.014-0.044 0.014-0.070v-14.373zM6.338 21.346c-0.729 0.34-1.325 0.335-2.021-0.066l-1.94-1.12 2.186-1.019c0.731-0.335 1.325-0.334 2.023 0.070l1.937 1.116-2.186 1.019zM9.938 8.972v-4.096l11.684-2.312v4.098l-11.684 2.311zM19.437 17.262c-0.73 0.34-1.325 0.335-2.022-0.066l-1.938-1.12 2.186-1.019c0.731-0.335 1.325-0.333 2.022 0.070l1.938 1.116-2.186 1.019z"></path>
</svg>
