<!-- Generated by IcoMoon.io -->
<svg version="1.1" xmlns="http://www.w3.org/2000/svg" width="24" height="24" viewBox="0 0 24 24">
<title>newspaper</title>
<path fill="#444" d="M10.625 6.5h-5.5c-0.759 0-1.375 0.615-1.375 1.375v6.875c0 0.76 0.616 1.375 1.375 1.375h5.5c0.759 0 1.375-0.615 1.375-1.375v-6.875c0-0.76-0.616-1.375-1.375-1.375zM10.625 14.75h-5.5v-6.875h5.5v6.875zM23 3.728v14.201c0 2.636-2.222 5.071-4.855 5.071h-12.365c-2.636 0-4.78-2.307-4.78-4.942v-16.387c0-0.367 0.319-0.671 0.688-0.671h17.188c0.371 0 0.688 0.319 0.688 0.688v14.3l-0.917-0.642c-0.276-0.194-0.386-0.43-0.424-0.733l-0.034-0.688v-11.55h-15.812v15.689c0 1.886 1.508 3.561 3.404 3.561h12.368c1.891 0 3.477-1.799 3.477-3.689v-12.158l0.034-0.688c0.037-0.302 0.147-0.54 0.424-0.733l0.916-0.641c0 0.004 0.001 0.007 0.001 0.011zM16.95 5.125h-11.656c-0.403-0.003-0.671-0.129-0.902-0.459l-0.642-0.916h11.656c0.403 0.001 0.671 0.128 0.902 0.458l0.642 0.917zM17.5 18.875h-12.206c-0.403-0.003-0.671-0.129-0.902-0.459l-0.642-0.916h12.206c0.403 0.001 0.671 0.128 0.902 0.458l0.642 0.917zM17.5 7.875h-3.268c-0.403-0.003-0.671-0.129-0.902-0.459l-0.642-0.916h3.268c0.403 0.001 0.671 0.128 0.902 0.458l0.642 0.917zM17.5 10.625h-3.268c-0.403-0.003-0.671-0.129-0.902-0.459l-0.642-0.916h3.268c0.403 0.001 0.671 0.128 0.902 0.458l0.642 0.917zM17.5 13.375h-3.268c-0.403-0.003-0.671-0.129-0.902-0.459l-0.642-0.916h3.268c0.403 0.001 0.671 0.128 0.902 0.458l0.642 0.917zM17.5 16.125h-3.268c-0.403-0.003-0.671-0.129-0.902-0.459l-0.642-0.916h3.268c0.403 0.001 0.671 0.128 0.902 0.458l0.642 0.917z"></path>
</svg>
