<!-- Generated by IcoMoon.io -->
<svg version="1.1" xmlns="http://www.w3.org/2000/svg" width="24" height="24" viewBox="0 0 24 24">
<title>newspaper</title>
<path d="M10.625 6.5h-5.5c-0.76 0-1.375 0.617-1.375 1.375v6.875c0 0.758 0.615 1.375 1.375 1.375h5.5c0.76 0 1.375-0.617 1.375-1.375v-6.875c0-0.758-0.615-1.375-1.375-1.375zM10.625 14.75h-5.5v-6.875h5.5v6.875zM23 3.729v14.201c0 2.637-2.222 5.070-4.855 5.070h-12.366c-2.634 0-4.779-2.305-4.779-4.941v-16.389c0-0.367 0.32-0.67 0.688-0.67h17.188c0.373 0 0.688 0.32 0.688 0.688v14.302l-0.916-0.643c-0.277-0.193-0.386-0.431-0.425-0.732l-0.034-0.688v-11.552h-15.814v15.688c0 1.888 1.507 3.562 3.404 3.562h12.367c1.891 0 3.479-1.8 3.479-3.69v-12.16l0.034-0.688c0.039-0.302 0.148-0.539 0.425-0.732l0.915-0.642c0 0.010 0.001 0.013 0.001 0.016zM16.951 5.125h-11.656c-0.404-0.002-0.673-0.129-0.902-0.457l-0.643-0.918h11.656c0.404 0.001 0.673 0.128 0.902 0.456l0.643 0.919zM17.5 18.875h-12.205c-0.404-0.002-0.673-0.129-0.902-0.457l-0.643-0.918h12.205c0.404 0.001 0.673 0.128 0.902 0.456l0.643 0.919zM17.5 7.875h-3.268c-0.404-0.002-0.673-0.129-0.902-0.457l-0.642-0.918h3.268c0.404 0.001 0.673 0.128 0.902 0.456l0.642 0.919zM17.5 10.625h-3.268c-0.404-0.002-0.673-0.129-0.902-0.457l-0.642-0.918h3.268c0.404 0.001 0.673 0.128 0.902 0.456l0.642 0.919zM17.5 13.375h-3.268c-0.404-0.002-0.673-0.129-0.902-0.457l-0.642-0.918h3.268c0.404 0.001 0.673 0.128 0.902 0.456l0.642 0.919zM17.5 16.125h-3.268c-0.404-0.002-0.673-0.129-0.902-0.457l-0.643-0.918h3.268c0.404 0.001 0.673 0.128 0.902 0.456l0.643 0.919z"></path>
</svg>
