<!-- Generated by IcoMoon.io -->
<svg version="1.1" xmlns="http://www.w3.org/2000/svg" width="32" height="32" viewBox="0 0 32 32">
<path d="M14.167 19.667l-0.847 1.225c-0.304 0.437-0.66 0.607-1.192 0.608h-2.544v-1.833h4.583zM14.167 16l-0.847 1.225c-0.304 0.437-0.66 0.607-1.192 0.608h-2.544v-1.833h4.583zM14.167 12.333l-0.847 1.225c-0.304 0.437-0.66 0.607-1.192 0.608h-2.544v-1.833h4.583zM22.416 19.667l-0.847 1.225c-0.304 0.437-0.66 0.607-1.192 0.608h-2.544v-1.833h4.583zM22.416 16l-0.847 1.225c-0.304 0.437-0.66 0.607-1.192 0.608h-2.544v-1.833h4.583zM22.416 12.333l-0.847 1.225c-0.304 0.437-0.66 0.607-1.192 0.608h-2.544v-1.833h4.583zM14.167 8.667l-0.847 1.225c-0.304 0.437-0.66 0.607-1.192 0.608h-2.544v-1.833h4.583zM22.416 8.667l-0.847 1.225c-0.304 0.437-0.66 0.607-1.192 0.608h-2.544v-1.833h4.583zM24.933 4.769l-8.251-3.303c-0.221-0.087-0.452-0.133-0.683-0.133s-0.461 0.047-0.684 0.135l-8.249 3.301c-0.693 0.281-1.149 0.951-1.149 1.7v22.364c0 1.011 0.819 1.833 1.832 1.833h5.5c1.013 0 1.833-0.823 1.833-1.833v-1.833h1.833v1.833c0 1.011 0.82 1.833 1.833 1.833h5.5c1.013 0 1.833-0.823 1.833-1.833v-22.364c0-0.749-0.456-1.419-1.149-1.7zM24.251 28.833h-5.5v-2.749c0-0.509-0.412-0.917-0.917-0.917h-3.667c-0.505 0-0.917 0.408-0.917 0.917v2.749h-5.5v-22.364l8.251-3.303 8.251 3.303v22.364z"></path>
</svg>
