<!-- Generated by IcoMoon.io -->
<svg version="1.1" xmlns="http://www.w3.org/2000/svg" width="24" height="24" viewBox="0 0 24 24">
<title>office_building</title>
<path fill="#444" d="M10.625 14.75l-0.635 0.917c-0.23 0.33-0.495 0.457-0.895 0.458h-1.907v-1.375h3.437zM10.625 12l-0.635 0.917c-0.23 0.33-0.496 0.457-0.895 0.458h-1.907v-1.375h3.437zM10.625 9.25l-0.635 0.917c-0.23 0.33-0.496 0.457-0.895 0.458h-1.907v-1.375h3.437zM16.813 14.75l-0.635 0.917c-0.23 0.33-0.495 0.457-0.895 0.458h-1.907v-1.375h3.437zM16.813 12l-0.635 0.917c-0.23 0.33-0.495 0.457-0.895 0.458h-1.907v-1.375h3.437zM16.813 9.25l-0.635 0.917c-0.23 0.33-0.495 0.457-0.895 0.458h-1.907v-1.375h3.437zM10.625 6.5l-0.635 0.917c-0.23 0.33-0.496 0.457-0.895 0.458h-1.907v-1.375h3.437zM16.813 6.5l-0.635 0.917c-0.23 0.33-0.495 0.457-0.895 0.458h-1.907v-1.375h3.437zM18.699 3.577l-6.188-2.479c-0.165-0.066-0.338-0.098-0.511-0.098s-0.346 0.032-0.511 0.098l-6.188 2.479c-0.521 0.209-0.863 0.715-0.863 1.277v16.771c0 0.76 0.616 1.375 1.375 1.375h4.125c0.759 0 1.375-0.615 1.375-1.375v-1.375h1.375v1.375c0 0.76 0.616 1.375 1.375 1.375h4.125c0.759 0 1.375-0.615 1.375-1.375v-16.771c0-0.562-0.342-1.068-0.863-1.277zM18.188 21.625h-4.125v-2.063c0-0.38-0.308-0.688-0.688-0.688h-2.75c-0.38 0-0.688 0.308-0.688 0.688v2.063h-4.125v-16.771l6.188-2.479 6.188 2.479v16.771z"></path>
</svg>
