<!-- Generated by IcoMoon.io -->
<svg version="1.1" xmlns="http://www.w3.org/2000/svg" width="24" height="24" viewBox="0 0 24 24">
<title>on_off</title>
<path d="M12 22.854c-6.065 0-11-4.936-11-11.001 0-3.973 2.112-7.583 5.548-9.545v1.083c0 0.328-0.085 0.585-0.268 0.809-2.394 1.75-3.859 4.632-3.859 7.654 0 5.282 4.297 9.579 9.579 9.579s9.579-4.297 9.579-9.579c0-3.030-1.401-5.819-3.844-7.654-0.164-0.192-0.261-0.462-0.261-0.809v-1.071c3.422 1.963 5.526 5.57 5.526 9.534 0 6.065-4.935 11-11 11zM11.29 2.678c0-0.373 0.132-0.63 0.425-0.836l0.995-0.696v9.33c-0.002 0.373-0.134 0.632-0.427 0.836l-0.993 0.696v-9.33z"></path>
</svg>
