<!-- Generated by IcoMoon.io -->
<svg version="1.1" xmlns="http://www.w3.org/2000/svg" width="32" height="32" viewBox="0 0 32 32">
<title>on_off</title>
<path d="M16 30.472c-8.087 0-14.667-6.581-14.667-14.668 0-5.297 2.816-10.111 7.397-12.727v1.444c0 0.437-0.113 0.78-0.357 1.079-3.192 2.333-5.145 6.176-5.145 10.205 0 7.043 5.729 12.772 12.772 12.772s12.772-5.729 12.772-12.772c0-4.040-1.868-7.759-5.125-10.205-0.219-0.256-0.348-0.616-0.348-1.079v-1.428c4.563 2.617 7.368 7.427 7.368 12.712 0 8.087-6.58 14.667-14.667 14.667zM15.053 3.571c0-0.497 0.176-0.84 0.567-1.115l1.327-0.928v12.44c-0.003 0.497-0.179 0.843-0.569 1.115l-1.324 0.928v-12.44z"></path>
</svg>
