<!-- Generated by IcoMoon.io -->
<svg version="1.1" xmlns="http://www.w3.org/2000/svg" width="24" height="24" viewBox="0 0 24 24">
<title>on_off</title>
<path fill="#444" d="M11.771 1.829c-0.33 0.231-0.456 0.498-0.457 0.901v14.934l0.914-0.641c0.33-0.231 0.456-0.498 0.459-0.901v-14.934l-0.916 0.641zM22.984 12.172c0 5.866-4.928 10.641-10.984 10.641s-10.984-4.775-10.984-10.641c0-3.865 2.038-7.037 5.142-8.973v0 1.116c0 0.298-0.102 0.524-0.277 0.715-2.131 1.701-3.492 4.27-3.492 7.141 0 5.112 4.311 9.268 9.611 9.268s9.611-4.156 9.611-9.268c0-3.157-1.781-5.664-3.129-6.832l-0.225-0.228c-0.225-0.203-0.336-0.459-0.336-0.796v-1.093c3.040 1.895 5.064 5.195 5.064 8.949z"></path>
</svg>
