<!-- Generated by IcoMoon.io -->
<svg version="1.1" xmlns="http://www.w3.org/2000/svg" width="32" height="32" viewBox="0 0 32 32">
<path d="M27.348 5.407l-0.355-1.923c-0.26-1.417-1.649-2.375-3.097-2.104l-16.873 3.428h-0.939c-1.469 0-2.667 1.185-2.667 2.633v10.825c0 1.452 1.197 2.633 2.667 2.633l3.015 0.028 0.003 6.072h-0.353c-0.38-1.064-1.388-1.833-2.583-1.833-1.517 0-2.749 1.233-2.749 2.749 0 1.517 1.233 2.751 2.749 2.751 1.195 0 2.201-0.769 2.583-1.833h1.269c0.244 0 0.475-0.096 0.647-0.268s0.269-0.405 0.269-0.648l-0.003-6.972 4.203 0.039v4.351c-1.064 0.38-1.833 1.388-1.833 2.581 0 1.517 1.233 2.749 2.749 2.749s2.749-1.233 2.749-2.749c0-1.195-0.769-2.201-1.833-2.581v-4.335l4.101 0.039v6.879c0 0.244 0.096 0.476 0.268 0.648s0.405 0.268 0.648 0.268h1.267c0.383 1.064 1.391 1.833 2.585 1.833 1.517 0 2.749-1.233 2.749-2.749s-1.233-2.749-2.749-2.749c-1.195 0-2.201 0.769-2.583 1.833h-0.351v-5.944l3.016 0.028c1.469 0 2.667-1.181 2.667-2.633v-10.827c0-0.931-0.497-1.745-1.236-2.219zM6.165 28.833c-0.507 0-0.917-0.411-0.917-0.917s0.411-0.917 0.917-0.917 0.917 0.411 0.917 0.917c0 0.507-0.411 0.917-0.917 0.917zM16.051 28.833c-0.507 0-0.917-0.411-0.917-0.917s0.411-0.917 0.917-0.917 0.917 0.411 0.917 0.917-0.411 0.917-0.917 0.917zM25.835 27c0.507 0 0.917 0.411 0.917 0.917s-0.411 0.917-0.917 0.917c-0.507 0-0.917-0.411-0.917-0.917s0.411-0.917 0.917-0.917zM24.225 3.172c0.445-0.073 0.888 0.215 0.964 0.644l0.191 1.176-8.969-0.133 7.815-1.687zM26.751 11.853v6.599c0 0.433-0.384 0.803-0.833 0.803l-19.833-0.185c-0.449 0-0.833-0.368-0.833-0.803v-7.169c0-0.432 0.384-0.793 0.833-0.793l19.833 0.184c0.449 0 0.833 0.361 0.833 0.793v0.572zM26.751 8.803c-0.263-0.084-0.541-0.145-0.833-0.145l-19.833-0.184c-0.292 0-0.571 0.061-0.833 0.145v-1.177c0-0.44 0.384-0.801 0.833-0.801l19.833 0.184c0.449 0 0.833 0.361 0.833 0.801v1.177z"></path>
</svg>
