<!-- Generated by IcoMoon.io -->
<svg version="1.1" xmlns="http://www.w3.org/2000/svg" width="24" height="24" viewBox="0 0 24 24">
<title>opensource</title>
<path fill="#444" d="M22.769 10.821c-0.728-4.227-3.903-7.67-8.036-8.725-6.056-1.548-12.158 2.25-13.438 8.368-0.092 0.436-0.127 0.884-0.19 1.327-0.010 0.068-0.025 0.138-0.038 0.208 0 0.44 0 0.883 0 1.324 0.030 0.258 0.055 0.519 0.094 0.778 0.536 3.495 2.307 6.169 5.329 8.010 0.384 0.234 0.6 0.174 0.82-0.215 0.694-1.225 1.387-2.449 2.079-3.674 0.388-0.687 0.775-1.375 1.163-2.062 0.2-0.354 0.149-0.552-0.191-0.765-0.036-0.022-0.072-0.044-0.107-0.068-1.317-0.868-1.805-2.537-1.156-3.965 0.644-1.423 2.239-2.187 3.743-1.751 1.296 0.374 2.076 1.261 2.307 2.586 0.219 1.257-0.389 2.509-1.492 3.188-0.339 0.208-0.414 0.414-0.241 0.719 1.104 1.957 2.209 3.911 3.317 5.866 0.167 0.294 0.411 0.359 0.702 0.184 2.901-1.73 4.682-4.252 5.326-7.567 0.079-0.403 0.116-0.815 0.174-1.222 0-0.456 0-0.912 0-1.367-0.055-0.392-0.097-0.787-0.164-1.178zM21.567 13.278l-0.041 0.318c-0.030 0.243-0.060 0.487-0.107 0.728-0.515 2.649-1.809 4.677-3.948 6.179-0.83-1.466-1.659-2.933-2.489-4.402 1.199-1.035 1.781-2.588 1.512-4.14-0.323-1.845-1.484-3.146-3.273-3.664-0.403-0.116-0.82-0.175-1.238-0.175-1.774 0-3.395 1.051-4.13 2.676-0.843 1.856-0.347 3.996 1.164 5.303l-2.487 4.401c-2.267-1.602-3.582-3.769-4.017-6.608-0.026-0.164-0.042-0.328-0.060-0.491l-0.019-0.159v-1.112c0.011-0.060 0.020-0.109 0.027-0.159l0.057-0.456c0.031-0.258 0.060-0.517 0.113-0.771 0.925-4.423 4.865-7.63 9.369-7.63 0.802 0 1.609 0.101 2.396 0.303 3.63 0.928 6.388 3.922 7.027 7.633 0.041 0.239 0.071 0.484 0.103 0.726l0.041 0.309v1.19z"></path>
</svg>
