<!-- Generated by IcoMoon.io -->
<svg version="1.1" xmlns="http://www.w3.org/2000/svg" width="24" height="24" viewBox="0 0 24 24">
<title>option_select</title>
<path d="M20.252 12c0 4.545-3.697 8.242-8.242 8.242-4.544 0-8.242-3.697-8.242-8.242s3.697-8.242 8.242-8.242c2.688 0 5.064 1.304 6.568 3.302l2.374-2.368c0.285-0.284 0.588-0.381 0.985-0.308l1.063 0.184-11.563 11.553-5.046-5.157c0 0-0.001 0-0.001-0.002l1.073-0.188c0.374-0.067 0.662 0.029 0.933 0.275l3.054 3.121 6.145-6.131c-1.243-1.752-3.271-2.908-5.584-2.908-3.794 0-6.868 3.074-6.868 6.868s3.074 6.868 6.868 6.868c3.794 0 6.869-3.074 6.869-6.868 0-0.424-0.11-1.237-0.11-1.237 0-0.38 0.307-0.686 0.687-0.686s0.687 0.306 0.687 0.686c-0.001 0.001 0.108 0.816 0.108 1.238z"></path>
</svg>
