<!-- Generated by IcoMoon.io -->
<svg version="1.1" xmlns="http://www.w3.org/2000/svg" width="32" height="32" viewBox="0 0 32 32">
<path d="M27.003 16c0 6.060-4.929 10.989-10.989 10.989-6.059 0-10.989-4.929-10.989-10.989s4.929-10.989 10.989-10.989c3.584 0 6.752 1.739 8.757 4.403l3.165-3.157c0.38-0.379 0.784-0.508 1.313-0.411l1.417 0.245-15.417 15.404-6.728-6.876c0 0-0.001 0-0.001-0.003l1.431-0.251c0.499-0.089 0.883 0.039 1.244 0.367l4.072 4.161 8.193-8.175c-1.657-2.336-4.361-3.877-7.445-3.877-5.059 0-9.157 4.099-9.157 9.157s4.099 9.157 9.157 9.157c5.059 0 9.159-4.099 9.159-9.157 0-0.565-0.147-1.649-0.147-1.649 0-0.507 0.409-0.915 0.916-0.915s0.916 0.408 0.916 0.915c-0.001 0.001 0.144 1.088 0.144 1.651z"></path>
</svg>
