<!-- Generated by IcoMoon.io -->
<svg version="1.1" xmlns="http://www.w3.org/2000/svg" width="32" height="32" viewBox="0 0 32 32">
<path d="M16 30.208c8.088 0 14.667-6.379 14.667-14.208s-6.579-14.208-14.667-14.208c-8.088 0-14.667 6.379-14.667 14.208s6.579 14.208 14.667 14.208zM16 3.625c7.076 0 12.833 5.552 12.833 12.375s-5.757 12.375-12.833 12.375c-7.077 0-12.833-5.552-12.833-12.375s5.757-12.375 12.833-12.375zM21.323 14.792l-0.855-0.145c-0.088-0.291-0.205-0.575-0.352-0.843l0.503-0.708c0.2-0.279 0.167-0.656-0.075-0.899l-0.739-0.737c-0.133-0.135-0.308-0.205-0.496-0.205-0.145 0-0.285 0.043-0.405 0.127l-0.708 0.505c-0.279-0.147-0.568-0.268-0.871-0.359l-0.143-0.845c-0.053-0.343-0.343-0.587-0.685-0.587h-1.047c-0.343 0-0.632 0.245-0.689 0.583l-0.148 0.861c-0.291 0.091-0.573 0.208-0.84 0.359l-0.699-0.5c-0.12-0.084-0.26-0.129-0.404-0.129-0.188 0-0.364 0.073-0.497 0.204l-0.737 0.74c-0.241 0.241-0.275 0.619-0.075 0.9l0.508 0.715c-0.143 0.272-0.257 0.553-0.343 0.847l-0.847 0.141c-0.339 0.053-0.585 0.345-0.585 0.688v1.045c0 0.344 0.245 0.635 0.583 0.693l0.863 0.144c0.089 0.291 0.208 0.576 0.356 0.844l-0.497 0.696c-0.2 0.279-0.167 0.659 0.075 0.9l0.739 0.74c0.132 0.136 0.307 0.204 0.495 0.204 0.144 0 0.285-0.043 0.405-0.131l0.716-0.507c0.26 0.136 0.535 0.251 0.815 0.336l0.143 0.853c0.057 0.337 0.348 0.581 0.692 0.581h1.045c0.343 0 0.633-0.245 0.691-0.581l0.144-0.857c0.291-0.087 0.575-0.205 0.844-0.351l0.705 0.503c0.119 0.085 0.26 0.132 0.405 0.132 0.188 0 0.361-0.072 0.495-0.207l0.739-0.739c0.243-0.243 0.275-0.619 0.075-0.9l-0.503-0.707c0.145-0.272 0.26-0.551 0.349-0.845l0.855-0.141c0.337-0.060 0.583-0.349 0.583-0.692v-1.049c0.001-0.331-0.244-0.62-0.581-0.677zM16 19.285c-1.813 0-3.285-1.471-3.285-3.285 0-1.816 1.472-3.285 3.285-3.285s3.285 1.469 3.285 3.285c0 1.815-1.472 3.285-3.285 3.285z"></path>
</svg>
