<!-- Generated by IcoMoon.io -->
<svg version="1.1" xmlns="http://www.w3.org/2000/svg" width="24" height="24" viewBox="0 0 24 24">
<title>others_activities</title>
<path d="M12 22.656c6.066 0 11-4.784 11-10.656s-4.934-10.656-11-10.656c-6.066 0-11 4.784-11 10.656s4.934 10.656 11 10.656zM12 2.719c5.307 0 9.625 4.164 9.625 9.281s-4.318 9.281-9.625 9.281c-5.308 0-9.625-4.164-9.625-9.281s4.318-9.281 9.625-9.281zM15.913 11.041l-0.641-0.109c-0.066-0.218-0.154-0.431-0.264-0.632l0.377-0.531c0.15-0.209 0.125-0.492-0.056-0.674l-0.554-0.553c-0.1-0.101-0.231-0.154-0.372-0.154-0.109 0-0.214 0.032-0.304 0.095l-0.531 0.379c-0.209-0.11-0.426-0.201-0.653-0.269l-0.107-0.634c-0.040-0.257-0.257-0.44-0.514-0.44h-0.784c-0.257 0-0.474 0.184-0.517 0.438l-0.111 0.647c-0.218 0.068-0.43 0.156-0.63 0.268l-0.525-0.376c-0.090-0.063-0.195-0.096-0.303-0.096-0.141 0-0.273 0.055-0.373 0.153l-0.553 0.555c-0.181 0.18-0.206 0.463-0.056 0.674l0.381 0.536c-0.107 0.204-0.193 0.415-0.257 0.635l-0.635 0.107c-0.254 0.040-0.439 0.259-0.439 0.516v0.784c0 0.258 0.185 0.476 0.438 0.52l0.647 0.108c0.067 0.218 0.156 0.432 0.267 0.633l-0.374 0.522c-0.15 0.209-0.125 0.494 0.056 0.675l0.554 0.555c0.099 0.102 0.23 0.153 0.371 0.153 0.108 0 0.214-0.032 0.304-0.098l0.537-0.38c0.195 0.102 0.401 0.188 0.611 0.252l0.107 0.64c0.043 0.253 0.261 0.436 0.519 0.436h0.784c0.257 0 0.475-0.184 0.518-0.436l0.108-0.643c0.218-0.065 0.431-0.154 0.633-0.263l0.529 0.377c0.089 0.064 0.195 0.099 0.304 0.099 0.141 0 0.271-0.054 0.372-0.155l0.554-0.554c0.182-0.182 0.206-0.464 0.056-0.675l-0.377-0.53c0.109-0.204 0.195-0.413 0.262-0.634l0.641-0.106c0.253-0.045 0.437-0.262 0.437-0.519v-0.787c0-0.249-0.184-0.466-0.437-0.509zM11.921 14.411c-1.36 0-2.464-1.103-2.464-2.464s1.104-2.464 2.464-2.464 2.464 1.102 2.464 2.464c0 1.362-1.104 2.464-2.464 2.464z"></path>
</svg>
