<!-- Generated by IcoMoon.io -->
<svg version="1.1" xmlns="http://www.w3.org/2000/svg" width="24" height="24" viewBox="0 0 24 24">
<title>out</title>
<path fill="#444" d="M23 7.875v11.687c0 1.896-1.543 3.437-3.437 3.437h-15.125c-1.895 0-3.437-1.541-3.437-3.437v-11.687c0-0.052 0.019-0.099 0.030-0.149l0.868 0.608c0.33 0.231 0.477 0.513 0.477 0.916v10.312c0 1.137 0.925 2.063 2.063 2.063h15.125c1.137 0 2.063-0.925 2.063-2.063v-10.312c0-0.403 0.147-0.685 0.477-0.916l0.868-0.608c0.011 0.050 0.030 0.096 0.030 0.149zM7.445 6.5h1.119c0.403 0 0.575-0.076 0.807-0.404l1.943-2.776v5.243c0 0.38 0.308 0.688 0.688 0.688s0.688-0.308 0.688-0.688v-5.243l1.944 2.777c0.232 0.327 0.403 0.403 0.806 0.403h1.118l-2.866-4.144-0.631-0.902c-0.070-0.096-0.15-0.154-0.228-0.214-0.15-0.117-0.315-0.198-0.516-0.223l-0.316-0.016-0.316 0.016c-0.183 0.022-0.337 0.089-0.477 0.186l0.001 0.001c-0.092 0.073-0.186 0.139-0.268 0.254l-3.495 5.042z"></path>
</svg>
