<!-- Generated by IcoMoon.io -->
<svg version="1.1" xmlns="http://www.w3.org/2000/svg" width="32" height="32" viewBox="0 0 32 32">
<title>out</title>
<path d="M29.689 25.777c0 2.696-2.193 4.889-4.889 4.889h-17.6c-2.695 0-4.889-2.193-4.889-4.889 0 0-0.017-14.807 0-14.877l1.277 0.864c0.468 0.328 0.679 0.729 0.679 1.303v12.711c0 1.619 1.316 2.933 2.933 2.933h17.6c1.617 0 2.933-1.315 2.933-2.933v-12.711c0-0.573 0.211-0.973 0.679-1.303l1.277-0.864c0.016 0.071 0 14.877 0 14.877zM9.52 9.155h1.592c0.575 0 0.817-0.107 1.148-0.575l2.764-3.948v7.456c0 0.541 0.436 0.979 0.976 0.979s0.977-0.437 0.977-0.977v-7.457l2.765 3.949c0.332 0.468 0.573 0.575 1.145 0.575h1.589l-4.076-5.893-0.899-1.283c-0.1-0.139-0.212-0.22-0.324-0.305-0.213-0.167-0.447-0.281-0.733-0.316l-0.445-0.025-0.449 0.024c-0.261 0.032-0.479 0.128-0.679 0.264l0.001 0.003c-0.132 0.103-0.265 0.196-0.381 0.361l-4.972 7.169z"></path>
</svg>
