<!-- Generated by IcoMoon.io -->
<svg version="1.1" xmlns="http://www.w3.org/2000/svg" width="24" height="24" viewBox="0 0 24 24">
<title>paper_printer</title>
<path fill="#444" d="M15.722 12.049c0-0.018 0.010-0.032 0.010-0.050v-1.933c0-0.76-0.616-1.375-1.375-1.375h-4.714c-0.759 0-1.375 0.615-1.375 1.375v1.933c0 0.018 0.010 0.032 0.010 0.050-0.994 0.095-1.778 0.925-1.778 1.944v2.357c0 1.084 0.881 1.966 1.963 1.966h0.59c0.070 0 0.129-0.029 0.197-0.038v0.597c0 0.76 0.616 1.375 1.375 1.375h2.75c0.759 0 1.375-0.615 1.375-1.375v-0.598c0.067 0.010 0.127 0.038 0.197 0.038h0.59c1.084 0 1.963-0.883 1.963-1.966v-2.355c0-1.019-0.784-1.849-1.778-1.944zM9.643 10.067h4.715v1.933h-4.715v-1.933zM13.375 18.875h-2.75v-2.321h2.75v2.321zM16.125 16.351c0 0.326-0.264 0.591-0.589 0.591h-0.59v-1.18c0-0.325-0.264-0.589-0.589-0.589h-4.715c-0.325 0-0.589 0.263-0.589 0.589v1.18h-0.591c-0.325 0-0.589-0.265-0.589-0.591v-2.357c0-0.325 0.264-0.589 0.589-0.589h7.073c0.325 0 0.589 0.264 0.589 0.589v2.357zM20.247 6.5l-5.499-5.5h-9.624c-0.759 0-1.375 0.615-1.375 1.375v19.25c0 0.76 0.616 1.375 1.375 1.375h13.75c0.759 0 1.375-0.615 1.375-1.375v-15.125h-0.003zM14.75 2.947l3.553 3.553h-3.553v-3.553zM18.875 21.625h-13.75v-19.25h8.25v4.125c0 0.76 0.616 1.375 1.375 1.375h4.125v13.75z"></path>
</svg>
