<!-- Generated by IcoMoon.io -->
<svg version="1.1" xmlns="http://www.w3.org/2000/svg" width="24" height="24" viewBox="0 0 24 24">
<title>papers</title>
<path fill="#444" d="M22.31 6.5l-5.499-5.5h-13.749c-0.759 0-1.375 0.615-1.375 1.375v19.25c0 0.76 0.616 1.375 1.375 1.375h17.875c0.759 0 1.375-0.615 1.375-1.375v-15.125h-0.003zM16.813 2.947l3.553 3.553h-2.181l-1.372-1.372v-2.181zM15.437 2.375v1.378l-1.378-1.378h1.378zM12.688 2.947l3.553 3.553h-3.553v-3.553zM3.062 21.625v-19.25h8.25v4.125c0 0.76 0.616 1.375 1.375 1.375h4.125v13.75h-13.75zM20.938 21.625h-2.75v-13.75h2.75v13.75z"></path>
</svg>
