<!-- Generated by IcoMoon.io -->
<svg version="1.1" xmlns="http://www.w3.org/2000/svg" width="24" height="24" viewBox="0 0 24 24">
<title>paper_organizer</title>
<path fill="#444" d="M5.125 1h-2.75c-0.759 0-1.375 0.615-1.375 1.375v19.25c0 0.76 0.616 1.375 1.375 1.375h2.75c0.759 0 1.375-0.615 1.375-1.375v-19.25c0-0.76-0.616-1.375-1.375-1.375zM5.125 21.625h-2.75v-19.25h2.75v19.25zM4.437 4.025c0 0.38-0.308 0.688-0.688 0.688s-0.688-0.307-0.688-0.688 0.308-0.688 0.688-0.688 0.688 0.308 0.688 0.688zM12 1h-2.75c-0.759 0-1.375 0.615-1.375 1.375v19.25c0 0.76 0.616 1.375 1.375 1.375h2.75c0.759 0 1.375-0.615 1.375-1.375v-19.25c0-0.76-0.616-1.375-1.375-1.375zM12 21.625h-2.75v-19.25h2.75v19.25zM11.312 4.025c0 0.38-0.308 0.688-0.688 0.688s-0.688-0.307-0.688-0.688 0.308-0.688 0.688-0.688 0.688 0.308 0.688 0.688zM17.413 1.029l-2.673 0.564c-0.737 0.154-1.21 0.88-1.055 1.618l3.941 18.706c0.155 0.738 0.879 1.211 1.617 1.056l2.673-0.562c0.737-0.154 1.21-0.88 1.055-1.618l-3.941-18.707c-0.155-0.738-0.879-1.211-1.617-1.056zM21.635 21.072l-2.673 0.562-3.941-18.707 2.673-0.562 3.941 18.707zM17.364 4.11c0.078 0.37-0.158 0.73-0.527 0.81-0.37 0.078-0.732-0.158-0.808-0.528s0.157-0.732 0.527-0.81 0.73 0.158 0.808 0.528z"></path>
</svg>
