<!-- Generated by IcoMoon.io -->
<svg version="1.1" xmlns="http://www.w3.org/2000/svg" width="24" height="24" viewBox="0 0 24 24">
<title>paper_printer</title>
<path d="M15.721 12.048c0.003-0.013 0.010-0.029 0.010-0.048v-1.934c0-0.758-0.615-1.375-1.375-1.375h-4.712c-0.76 0-1.375 0.617-1.375 1.375v1.934c0 0.019 0.007 0.035 0.010 0.048-0.995 0.098-1.779 0.925-1.779 1.947v2.353c0 1.087 0.881 1.969 1.964 1.969h0.59c0.068 0 0.129-0.027 0.195-0.040v0.599c0 0.758 0.615 1.375 1.375 1.375h2.75c0.76 0 1.375-0.617 1.375-1.375v-0.599c0.066 0.013 0.127 0.040 0.195 0.040h0.59c1.083 0 1.964-0.882 1.964-1.969v-2.353c0.002-1.022-0.782-1.849-1.777-1.947zM9.644 10.066h4.712v1.934h-4.712v-1.934zM13.375 18.875h-2.75v-2.32h2.75v2.32zM16.125 16.348c0 0.331-0.265 0.594-0.589 0.594h-0.59v-1.181c0-0.324-0.262-0.586-0.589-0.586h-4.713c-0.327 0-0.589 0.262-0.589 0.586v1.181h-0.59c-0.324 0-0.589-0.263-0.589-0.594v-2.353c0-0.324 0.265-0.592 0.589-0.592h7.071c0.324 0 0.589 0.268 0.589 0.592v2.353zM20.248 6.5l-5.499-5.5h-9.624c-0.76 0-1.375 0.617-1.375 1.375v19.25c0 0.758 0.615 1.375 1.375 1.375h13.75c0.76 0 1.375-0.617 1.375-1.375v-15.125h-0.002zM14.75 2.949l3.554 3.551h-3.554v-3.551zM18.875 21.625h-13.75v-19.25h8.25v4.125c0 0.758 0.615 1.375 1.375 1.375h4.125v13.75z"></path>
</svg>
