<!-- Generated by IcoMoon.io -->
<svg version="1.1" xmlns="http://www.w3.org/2000/svg" width="24" height="24" viewBox="0 0 24 24">
<title>papers</title>
<path d="M22.998 6.5l-5.499-5.5h-9.624c-0.76 0-1.375 0.617-1.375 1.375v19.25c0 0.758 0.615 1.375 1.375 1.375h13.75c0.76 0 1.375-0.617 1.375-1.375v-15.125h-0.002zM17.5 2.949l3.554 3.551h-3.554v-3.551zM21.625 21.625h-13.75v-19.25h8.25v4.125c0 0.758 0.615 1.375 1.375 1.375h4.125v13.75z"></path>
<path d="M5 21.625h-2.625v-19.25h2.625c0.38 0 0.688-0.308 0.688-0.688s-0.308-0.687-0.688-0.687h-2.625c-0.76 0-1.375 0.617-1.375 1.375v19.25c0 0.758 0.615 1.375 1.375 1.375h2.625c0.38 0 0.688-0.308 0.688-0.688s-0.308-0.687-0.688-0.687z"></path>
</svg>
