<!-- Generated by IcoMoon.io -->
<svg version="1.1" xmlns="http://www.w3.org/2000/svg" width="32" height="32" viewBox="0 0 32 32">
<title>papers</title>
<path d="M30.664 8.667l-7.332-7.333h-12.832c-1.013 0-1.833 0.823-1.833 1.833v25.667c0 1.011 0.82 1.833 1.833 1.833h18.333c1.013 0 1.833-0.823 1.833-1.833v-20.167h-0.003zM23.333 3.932l4.739 4.735h-4.739v-4.735zM28.833 28.833h-18.333v-25.667h11v5.5c0 1.011 0.82 1.833 1.833 1.833h5.5v18.333z"></path>
<path d="M6.667 28.833h-3.5v-25.667h3.5c0.507 0 0.917-0.411 0.917-0.917s-0.411-0.916-0.917-0.916h-3.5c-1.013 0-1.833 0.823-1.833 1.833v25.667c0 1.011 0.82 1.833 1.833 1.833h3.5c0.507 0 0.917-0.411 0.917-0.917s-0.411-0.916-0.917-0.916z"></path>
</svg>
