<!-- Generated by IcoMoon.io -->
<svg version="1.1" xmlns="http://www.w3.org/2000/svg" width="24" height="24" viewBox="0 0 24 24">
<title>paper_plane</title>
<path fill="#444" d="M22.597 1.403c-0.263-0.261-0.613-0.403-0.972-0.403-0.153 0-0.307 0.026-0.455 0.078l-19.25 6.739c-0.531 0.186-0.895 0.678-0.919 1.24-0.023 0.564 0.3 1.084 0.815 1.313l8.179 3.635 3.637 8.177c0.221 0.499 0.715 0.817 1.257 0.817 0.018 0 0.037 0 0.056-0.001 0.564-0.023 1.056-0.386 1.242-0.92l6.736-19.25c0.175-0.498 0.048-1.053-0.326-1.426zM2.375 9.114l17.754-6.216-9.578 9.581c-0.062 0.062-0.106 0.132-0.139 0.208l-8.037-3.572zM14.889 21.625l-3.575-8.037c0.076-0.033 0.147-0.076 0.209-0.137l9.578-9.58-6.212 17.754z"></path>
</svg>
