<!-- Generated by IcoMoon.io -->
<svg version="1.1" xmlns="http://www.w3.org/2000/svg" width="32" height="32" viewBox="0 0 32 32">
<path d="M30.129 1.869c-0.351-0.348-0.819-0.536-1.296-0.536-0.203 0-0.408 0.033-0.607 0.104l-25.667 8.985c-0.709 0.248-1.195 0.904-1.225 1.653-0.031 0.752 0.4 1.445 1.087 1.751l10.905 4.847 4.849 10.904c0.295 0.665 0.953 1.089 1.675 1.089 0.024 0 0.051 0 0.076-0.001 0.751-0.031 1.407-0.516 1.655-1.227l8.983-25.667c0.232-0.664 0.063-1.404-0.435-1.903zM3.167 12.152l23.672-8.288-12.772 12.773c-0.083 0.083-0.14 0.177-0.184 0.277l-10.716-4.763zM19.851 28.833l-4.765-10.715c0.1-0.045 0.195-0.103 0.277-0.185l12.772-12.772-8.284 23.672z"></path>
</svg>
