<!-- Generated by IcoMoon.io -->
<svg version="1.1" xmlns="http://www.w3.org/2000/svg" width="24" height="24" viewBox="0 0 24 24">
<title>paper_text</title>
<path fill="#444" d="M15.212 11.5c-0.111-0.406-0.297-0.758-0.558-1.052-0.26-0.296-0.605-0.523-1.033-0.685-0.432-0.161-0.956-0.239-1.58-0.239-0.544 0-1.052 0.038-1.519 0.122s-0.802 0.17-1.001 0.259c0.169 0.667 0.763 1.077 1.447 0.998 0.363-0.038 0.569-0.048 0.936-0.048 0.4 0 0.729 0.061 0.98 0.179 0.25 0.117 0.446 0.272 0.591 0.466 0.147 0.195 0.245 0.417 0.301 0.668 0.056 0.25 0.082 0.503 0.082 0.762v0.43c-0.044-0.010-0.121-0.028-0.234-0.051-0.11-0.019-0.242-0.045-0.391-0.073-0.153-0.029-0.309-0.050-0.474-0.067-0.168-0.015-0.331-0.025-0.485-0.025-0.49 0-0.958 0.051-1.402 0.15-0.447 0.1-0.835 0.257-1.17 0.467-0.334 0.213-0.598 0.49-0.789 0.835-0.198 0.345-0.293 0.756-0.293 1.233 0 0.503 0.082 0.932 0.249 1.287 0.168 0.358 0.401 0.645 0.703 0.861 0.301 0.217 0.656 0.374 1.067 0.476 0.413 0.099 0.862 0.149 1.353 0.149 0.345 0 0.692-0.014 1.041-0.041 0.351-0.028 0.678-0.056 0.979-0.089 0.298-0.033 0.569-0.070 0.808-0.11 0.238-0.037 0.426-0.069 0.56-0.089v-5.428c0-0.49-0.056-0.935-0.168-1.343zM13.86 17.184c-0.19 0.044-0.426 0.077-0.708 0.092-0.285 0.016-0.609 0.025-0.976 0.025-0.613 0-1.096-0.107-1.451-0.325-0.359-0.216-0.535-0.604-0.535-1.16 0-0.302 0.073-0.544 0.219-0.726 0.143-0.184 0.325-0.329 0.54-0.433 0.219-0.107 0.457-0.175 0.716-0.209 0.263-0.032 0.511-0.049 0.745-0.049 0.356 0 0.66 0.021 0.91 0.059 0.246 0.034 0.428 0.084 0.539 0.139v2.588zM20.247 6.5l-5.499-5.5h-9.624c-0.759 0-1.375 0.615-1.375 1.375v19.25c0 0.76 0.616 1.375 1.375 1.375h13.75c0.759 0 1.375-0.615 1.375-1.375v-15.125h-0.003zM14.75 2.947l3.553 3.553h-3.553v-3.553zM18.875 21.625h-13.75v-19.25h8.25v4.125c0 0.76 0.616 1.375 1.375 1.375h4.125v13.75z"></path>
</svg>
