<!-- Generated by IcoMoon.io -->
<svg version="1.1" xmlns="http://www.w3.org/2000/svg" width="24" height="24" viewBox="0 0 24 24">
<title>paper_ribbon</title>
<path fill="#444" d="M21.423 3.923l-14.808 0.003-5.385 5.385v9.42c0 0.744 0.602 1.346 1.346 1.346h10.929c0 0.437 0.201 0.855 0.568 1.108 0.229 0.158 0.497 0.238 0.765 0.238 0.225 0 0.45-0.057 0.653-0.17l1.535-0.852 1.533 0.852c0.205 0.113 0.429 0.17 0.654 0.17 0.268 0 0.534-0.081 0.765-0.238 0.367-0.253 0.569-0.67 0.569-1.108h0.875c0.744 0 1.346-0.603 1.346-1.346v-13.462c0-0.744-0.602-1.346-1.346-1.346zM6.615 5.829v3.478h-3.478l3.478-3.478zM18.949 15.573c-0.226 0.175-0.332 0.46-0.284 0.736 0.028 0.184 0.367 2.515 0.551 3.768l-1.817-1.010c-0.114-0.063-0.242-0.096-0.37-0.096s-0.254 0.032-0.37 0.096l-1.819 1.010c0.182-1.248 0.52-3.565 0.551-3.763 0.051-0.277-0.057-0.564-0.283-0.74-0.719-0.556-1.129-1.362-1.129-2.212 0-1.584 1.369-2.874 3.050-2.874 1.68 0.001 3.049 1.291 3.049 2.875 0 0.849-0.412 1.654-1.128 2.209zM21.423 13.364v5.367h-1.043c0.017 0.125 0.035 0.242 0.053 0.362-0.14-0.962-0.308-2.111-0.392-2.679 0.883-0.8 1.382-1.894 1.382-3.050 0-2.327-1.972-4.22-4.397-4.22s-4.397 1.893-4.397 4.22c0 1.156 0.501 2.251 1.384 3.052-0.055 0.372-0.238 1.623-0.367 2.516 0.009-0.067 0.019-0.129 0.028-0.199h-11.098v-8.078h4.038c0.744 0 1.346-0.602 1.346-1.346v-4.038h13.462v8.094z"></path>
</svg>
