<!-- Generated by IcoMoon.io -->
<svg version="1.1" xmlns="http://www.w3.org/2000/svg" width="24" height="24" viewBox="0 0 24 24">
<title>paper_clip</title>
<path fill="#444" d="M12.030 20.911c-1.42 1.988-4.257 2.548-5.69 1.716-1.783-1.034-2.925-2.414-2.628-4.52 0.103-0.738 0.961-2.27 1.389-2.878 8.874-12.682 0 0 8.874-12.682 1.178-1.684 3.219-2.003 4.841-0.919 1.567 1.048 2.016 3.114 0.888 4.725-6.908 9.873-4.624 6.654-6.908 9.873-0.727 1.027-2.063 1.073-3.152 0.304-0.965-0.682-1.523-2.020-0.843-2.992 1.096-1.565 2.791-3.928 2.791-3.928 0.203-0.226 0.43-0.358 0.767-0.358h1.027l0.062 0.045c0 0-3.077 4.381-3.259 4.657-0.351 0.532-0.34 1.088 0.227 1.474 0.571 0.392 1.114 0.199 1.478-0.315 0.863-1.214 5.192-7.41 6.502-9.291 0.785-1.125 0.627-2.379-0.349-3.098-1.041-0.763-2.168-0.488-2.988 0.672-2.962 4.191-6.038 8.663-8.829 12.613-1.724 2.439-1.451 4.034 0.059 5.064 1.508 1.031 3.484 0.693 4.619-0.906 1.745-2.457 5.49-7.821 7.018-10.010 0.202-0.226 0.429-0.355 0.763-0.355h1.119l0.032-0.048c-0.089 0.175-5.44 7.832-7.813 11.155z"></path>
</svg>
