<!-- Generated by IcoMoon.io -->
<svg version="1.1" xmlns="http://www.w3.org/2000/svg" width="32" height="32" viewBox="0 0 32 32">
<path d="M28.833 4.083l-20.167 0.003-7.333 7.333v12.831c0 1.011 0.819 1.833 1.833 1.833h14.884c0 0.597 0.273 1.167 0.773 1.512 0.313 0.211 0.676 0.321 1.043 0.321 0.305 0 0.613-0.080 0.889-0.231l2.091-1.164 2.089 1.164c0.277 0.151 0.585 0.231 0.889 0.231 0.367 0 0.729-0.111 1.043-0.321 0.5-0.345 0.775-0.915 0.775-1.512h1.192c1.015 0 1.833-0.824 1.833-1.833v-18.332c-0.001-1.011-0.82-1.835-1.835-1.835zM8.667 6.683v4.735h-4.739l4.739-4.735zM25.464 19.951c-0.309 0.236-0.455 0.628-0.387 1.003 0.036 0.252 0.501 3.42 0.748 5.131l-2.476-1.375c-0.157-0.085-0.331-0.135-0.503-0.135s-0.347 0.048-0.503 0.135l-2.477 1.373c0.247-1.696 0.707-4.86 0.749-5.125 0.069-0.376-0.075-0.769-0.387-1.007-0.977-0.753-1.537-1.857-1.537-3.011 0-2.155 1.863-3.917 4.155-3.917 2.291 0 4.153 1.761 4.153 3.917 0 1.155-0.56 2.257-1.536 3.011zM28.833 16.941v7.308h-1.42c0.021 0.171-0.351-2.381-0.46-3.155 1.197-1.088 1.88-2.577 1.88-4.153 0-3.172-2.688-5.749-5.987-5.749s-5.988 2.579-5.988 5.749c0 1.576 0.683 3.065 1.887 4.155-0.077 0.509-0.479 3.248-0.465 3.153h-15.113v-11h5.5c1.015 0 1.833-0.823 1.833-1.833v-5.499h18.333v11.024z"></path>
</svg>
