<!-- Generated by IcoMoon.io -->
<svg version="1.1" xmlns="http://www.w3.org/2000/svg" width="32" height="32" viewBox="0 0 32 32">
<title>paper_printer</title>
<path d="M20.961 16.064c0.004-0.017 0.013-0.039 0.013-0.064v-2.579c0-1.011-0.82-1.833-1.833-1.833h-6.283c-1.013 0-1.833 0.823-1.833 1.833v2.579c0 0.025 0.009 0.047 0.013 0.064-1.327 0.131-2.372 1.233-2.372 2.596v3.137c0 1.449 1.175 2.625 2.619 2.625h0.787c0.091 0 0.172-0.036 0.26-0.053v0.799c0 1.011 0.82 1.833 1.833 1.833h3.667c1.013 0 1.833-0.823 1.833-1.833v-0.799c0.088 0.017 0.169 0.053 0.26 0.053h0.787c1.444 0 2.619-1.176 2.619-2.625v-3.137c0.003-1.363-1.043-2.465-2.369-2.596zM12.859 13.421h6.283v2.579h-6.283v-2.579zM17.833 25.167h-3.667v-3.093h3.667v3.093zM21.5 21.797c0 0.441-0.353 0.792-0.785 0.792h-0.787v-1.575c0-0.432-0.349-0.781-0.785-0.781h-6.284c-0.436 0-0.785 0.349-0.785 0.781v1.575h-0.787c-0.432 0-0.785-0.351-0.785-0.792v-3.137c0-0.432 0.353-0.789 0.785-0.789h9.428c0.432 0 0.785 0.357 0.785 0.789v3.137zM26.997 8.667l-7.332-7.333h-12.832c-1.013 0-1.833 0.823-1.833 1.833v25.667c0 1.011 0.82 1.833 1.833 1.833h18.333c1.013 0 1.833-0.823 1.833-1.833v-20.167h-0.003zM19.667 3.932l4.739 4.735h-4.739v-4.735zM25.167 28.833h-18.333v-25.667h11v5.5c0 1.011 0.82 1.833 1.833 1.833h5.5v18.333z"></path>
</svg>
