<!-- Generated by IcoMoon.io -->
<svg version="1.1" xmlns="http://www.w3.org/2000/svg" width="24" height="24" viewBox="0 0 24 24">
<title>paper_clip</title>
<path d="M11.929 20.872c-1.959 2.685-4.705 2.47-6.297 1.317-2.122-1.531-3.125-3.353-0.617-6.988 1.48-2.15 0 0 8.856-12.655 1.175-1.68 3.212-1.999 4.829-0.917 1.565 1.046 2.012 3.108 0.888 4.716-6.895 9.85-4.616 6.64-6.895 9.85-0.725 1.026-2.057 1.071-3.144 0.303-0.964-0.678-1.522-2.012-0.843-2.986 1.094-1.558 2.788-3.918 2.788-3.918 0.201-0.229 0.43-0.359 0.765-0.359h1.024l0.062 0.051c0 0-3.072 4.368-3.253 4.646-0.348 0.527-0.337 1.083 0.227 1.469 0.569 0.391 1.112 0.197 1.477-0.311 0.861-1.215 5.181-7.394 6.485-9.274 0.784-1.121 0.627-2.372-0.347-3.092-1.039-0.759-2.163-0.484-2.98 0.674-2.957 4.178-6.024 8.642-8.811 12.581-1.721 2.438-1.334 3.879 0.059 5.053 1.408 1.194 3.478 0.694 4.609-0.904 1.741-2.451 5.479-7.804 7.003-9.99 0.202-0.223 0.428-0.352 0.761-0.352h1.117l0.032-0.047c-0.090 0.174-5.391 7.842-7.795 11.133z"></path>
</svg>
