<!-- Generated by IcoMoon.io -->
<svg version="1.1" xmlns="http://www.w3.org/2000/svg" width="24" height="24" viewBox="0 0 24 24">
<title>parthenon</title>
<path fill="#444" d="M1 23l0.642-0.917c0.231-0.33 0.499-0.457 0.902-0.458h18.912c0.403 0.001 0.671 0.128 0.902 0.458l0.642 0.917h-22zM2.375 20.25l0.642-0.917c0.231-0.33 0.499-0.457 0.902-0.458h16.162c0.403 0.001 0.671 0.128 0.902 0.458l0.642 0.917h-19.25zM5.125 11.312v5.607c-0.001 0.403-0.129 0.671-0.458 0.902l-0.917 0.641v-5.606c0.001-0.403 0.128-0.671 0.458-0.902l0.917-0.642zM9.25 11.312v5.607c-0.001 0.403-0.129 0.671-0.458 0.902l-0.917 0.641v-5.606c0.001-0.403 0.128-0.671 0.458-0.902l0.917-0.642zM15.667 11.955c0.33 0.231 0.457 0.499 0.458 0.902v5.606l-0.917-0.641c-0.33-0.231-0.458-0.499-0.458-0.902v-5.607l0.917 0.642zM19.792 11.955c0.33 0.231 0.457 0.499 0.458 0.902v5.606l-0.917-0.641c-0.33-0.231-0.458-0.499-0.458-0.902v-5.607l0.917 0.642zM22.981 9.25c-0.023-0.348-0.157-0.595-0.459-0.809l-10.522-7.441-10.522 7.399c-0.318 0.223-0.458 0.477-0.469 0.851h-0.010v1.375h22v-1.375h-0.019zM2.65 9.25l8.892-6.251c0.151-0.107 0.305-0.162 0.458-0.162s0.307 0.055 0.458 0.162l8.841 6.251h-18.649zM10.625 6.5c0 0.76 0.615 1.375 1.375 1.375s1.375-0.615 1.375-1.375-0.615-1.375-1.375-1.375-1.375 0.615-1.375 1.375z"></path>
</svg>
