<!-- Generated by IcoMoon.io -->
<svg version="1.1" xmlns="http://www.w3.org/2000/svg" width="32" height="32" viewBox="0 0 32 32">
<title>parthenon</title>
<path d="M1.723 29.932l0.813-1.159c0.373-0.535 0.769-0.735 1.456-0.735h24.015c0.688 0 1.083 0.199 1.456 0.735l0.815 1.159h-28.555zM26.629 24.527c-0.387-0.272-0.561-0.613-0.563-1.097v-5.985l1.331 0.915c0.389 0.272 0.563 0.612 0.564 1.091v5.984l-1.332-0.907zM19.735 24.527c-0.387-0.272-0.564-0.613-0.565-1.097v-5.985l1.329 0.915c0.389 0.272 0.564 0.612 0.569 1.091v5.984l-1.333-0.907zM10.973 19.448c0.001-0.479 0.176-0.82 0.568-1.092l1.327-0.913v5.987c-0.001 0.481-0.176 0.82-0.567 1.097l-1.328 0.905v-5.984zM4.080 19.448c0.001-0.479 0.176-0.82 0.564-1.092l1.331-0.913v5.987c-0.001 0.475-0.184 0.825-0.572 1.097l-1.323 0.905v-5.984zM1.333 14.845v-1.775l0.012-0.195c0.013-0.379 0.135-0.605 0.46-0.825l14.195-9.983 14.192 10.036c0.305 0.22 0.429 0.433 0.451 0.785l0.024 0.344v1.612h-29.333zM3.821 12.947h24.28l-12.105-8.567-12.175 8.567zM16 9.359c-0.525 0-0.947-0.429-0.947-0.955 0-0.52 0.423-0.944 0.947-0.944s0.947 0.424 0.947 0.944c0 0.524-0.421 0.955-0.947 0.955z"></path>
</svg>
