<!-- Generated by IcoMoon.io -->
<svg version="1.1" xmlns="http://www.w3.org/2000/svg" width="24" height="24" viewBox="0 0 24 24">
<title>percent</title>
<path d="M5.383 1c-2.417 0-4.383 1.966-4.383 4.383s1.966 4.383 4.383 4.383 4.383-1.966 4.383-4.383-1.966-4.383-4.383-4.383zM5.383 8.391c-1.66 0-3.008-1.346-3.008-3.008s1.348-3.008 3.008-3.008 3.008 1.346 3.008 3.008-1.348 3.008-3.008 3.008zM18.617 14.234c-2.417 0-4.383 1.966-4.383 4.383s1.966 4.383 4.383 4.383 4.383-1.966 4.383-4.383-1.966-4.383-4.383-4.383zM18.617 21.625c-1.661 0-3.008-1.346-3.008-3.008s1.347-3.008 3.008-3.008 3.008 1.346 3.008 3.008-1.347 3.008-3.008 3.008zM21.888 2.949l-0.462 0.511-19.424 19.425-0.195-1.103c-0.059-0.332 0.031-0.577 0.219-0.817l0.462-0.511 19.424-19.425 0.195 1.103c0.059 0.332-0.032 0.577-0.219 0.817z"></path>
</svg>
