<!-- Generated by IcoMoon.io -->
<svg version="1.1" xmlns="http://www.w3.org/2000/svg" width="32" height="32" viewBox="0 0 32 32">
<path d="M7.177 1.333c-3.223 0-5.844 2.621-5.844 5.844s2.621 5.844 5.844 5.844 5.844-2.621 5.844-5.844-2.621-5.844-5.844-5.844zM7.177 11.188c-2.213 0-4.011-1.795-4.011-4.011s1.797-4.011 4.011-4.011 4.011 1.795 4.011 4.011-1.797 4.011-4.011 4.011zM24.823 18.979c-3.223 0-5.844 2.621-5.844 5.844s2.621 5.844 5.844 5.844 5.844-2.621 5.844-5.844-2.621-5.844-5.844-5.844zM24.823 28.833c-2.215 0-4.011-1.795-4.011-4.011s1.796-4.011 4.011-4.011 4.011 1.795 4.011 4.011-1.796 4.011-4.011 4.011zM29.184 3.932l-0.616 0.681-25.899 25.9-0.26-1.471c-0.079-0.443 0.041-0.769 0.292-1.089l0.616-0.681 25.899-25.9 0.26 1.471c0.079 0.443-0.043 0.769-0.292 1.089z"></path>
</svg>
