<!-- Generated by IcoMoon.io -->
<svg version="1.1" xmlns="http://www.w3.org/2000/svg" width="24" height="24" viewBox="0 0 24 24">
<title>percent</title>
<path fill="#444" d="M5.383 1c-2.417 0-4.384 1.966-4.384 4.384s1.966 4.384 4.384 4.384 4.384-1.966 4.384-4.384-1.968-4.384-4.384-4.384zM5.383 8.391c-1.661 0-3.008-1.346-3.008-3.007s1.348-3.008 3.008-3.008 3.008 1.346 3.008 3.008-1.349 3.007-3.008 3.007zM18.616 14.234c-2.417 0-4.384 1.966-4.384 4.384s1.968 4.382 4.384 4.382 4.384-1.966 4.384-4.384-1.966-4.382-4.384-4.382zM18.616 21.625c-1.661 0-3.008-1.346-3.008-3.008s1.346-3.008 3.008-3.008 3.008 1.348 3.008 3.008-1.346 3.008-3.008 3.008zM21.888 2.95l-0.461 0.51-19.425 19.425-0.195-1.103c-0.059-0.331 0.030-0.578 0.219-0.818l0.462-0.51 19.425-19.425 0.195 1.103c0.058 0.331-0.033 0.578-0.22 0.818z"></path>
</svg>
