<!-- Generated by IcoMoon.io -->
<svg version="1.1" xmlns="http://www.w3.org/2000/svg" width="32" height="32" viewBox="0 0 32 32">
<title>pet</title>
<path d="M20.927 16.904c-1.253-1.977-3.388-3.183-5.711-3.223s-4.457 1.089-5.711 3.024l-3.020 4.66c-0.501 0.773-0.732 1.672-0.669 2.6 0.064 0.928 0.416 1.797 1.020 2.513s1.401 1.213 2.307 1.436c0.905 0.223 1.835 0.151 2.684-0.208l0.056-0.024c2.14-0.885 4.587-0.835 6.723 0.143 0.551 0.252 1.135 0.384 1.723 0.395 0.32 0.005 0.643-0.025 0.961-0.092 0.905-0.191 1.704-0.66 2.308-1.355 0.604-0.696 0.956-1.552 1.020-2.479 0.064-0.925-0.168-1.833-0.669-2.624l-3.021-4.767zM22.355 25.688c-0.768 0.885-2.011 1.147-3.093 0.652-1.285-0.588-2.667-0.895-4.047-0.919s-2.76 0.235-4.044 0.777l-0.036 0.015c-1.073 0.435-2.299 0.127-3.059-0.775-0.768-0.912-0.855-2.185-0.217-3.169l3.021-4.66c0.952-1.468 2.572-2.327 4.336-2.296s3.384 0.945 4.336 2.447l3.020 4.764c0.639 1.008 0.551 2.279-0.217 3.164z"></path>
<path d="M8.637 15.267c0.307-0.875 0.283-1.861-0.071-2.78-0.353-0.917-0.997-1.667-1.811-2.109-0.856-0.465-1.796-0.541-2.645-0.213-1.712 0.657-2.496 2.771-1.751 4.712 0.596 1.545 1.985 2.52 3.389 2.52 0.359 0 0.719-0.064 1.065-0.197 0.852-0.327 1.5-1.013 1.823-1.932zM6.26 15.755v0c-0.913 0.352-2.015-0.291-2.456-1.435-0.44-1.144-0.053-2.361 0.861-2.712 0.165-0.064 0.34-0.095 0.517-0.095 0.275 0 0.559 0.075 0.833 0.224 0.492 0.267 0.885 0.731 1.107 1.307s0.241 1.183 0.056 1.711c-0.172 0.483-0.497 0.839-0.919 1z"></path>
<path d="M12.779 13.107c2.256 0 4.092-2.092 4.092-4.663s-1.836-4.663-4.092-4.663c-2.256 0-4.092 2.092-4.092 4.663s1.836 4.663 4.092 4.663zM12.779 5.415c1.356 0 2.459 1.36 2.459 3.031s-1.103 3.029-2.459 3.029-2.459-1.36-2.459-3.031c0-1.671 1.103-3.029 2.459-3.029z"></path>
<path d="M20.444 14.187v0c0.357 0.119 0.721 0.175 1.084 0.175 1.693 0 3.343-1.232 3.972-3.125 0.363-1.091 0.339-2.243-0.067-3.245-0.424-1.049-1.212-1.811-2.216-2.145-1.004-0.333-2.092-0.195-3.060 0.392-0.925 0.56-1.635 1.469-1.996 2.559-0.764 2.3 0.26 4.717 2.283 5.391zM19.756 9.327c0.236-0.712 0.688-1.299 1.272-1.652 0.54-0.327 1.129-0.411 1.66-0.235 0.529 0.176 0.952 0.596 1.188 1.181 0.256 0.633 0.267 1.373 0.031 2.085-0.472 1.42-1.788 2.267-2.932 1.887-1.144-0.381-1.691-1.847-1.219-3.267z"></path>
<path d="M28.687 13.765v0c-1.464-1.083-3.655-0.613-4.881 1.045s-1.035 3.889 0.427 4.972c0.533 0.395 1.163 0.584 1.808 0.584 1.124 0 2.292-0.573 3.073-1.628 1.227-1.66 1.036-3.891-0.427-4.973zM27.879 17.823c-0.725 0.979-1.951 1.303-2.732 0.724s-0.829-1.845-0.107-2.823c0.48-0.649 1.183-1.011 1.829-1.011 0.327 0 0.64 0.092 0.904 0.287 0.781 0.58 0.828 1.847 0.105 2.823z"></path>
</svg>
