<!-- Generated by IcoMoon.io -->
<svg version="1.1" xmlns="http://www.w3.org/2000/svg" width="32" height="32" viewBox="0 0 32 32">
<title>philanthropy</title>
<path d="M28.985 21.803l0.023-6.915c-0.003-0.215-0.017-0.428-0.049-0.639-0.132-0.845-0.541-1.645-1.145-2.249l-7.596-7.567c-0.28-0.268-0.703-0.292-1.013-0.055-0.52 0.403-1.069 1.236-0.908 2.265 0.057 0.368 0.201 0.741 0.44 1.108 0.468 0.723 1.768 2.629 2.608 3.849 0.245 0.269 0.676 0.664 1.063 0.66l1.192-0.017c-0.028-0.067-0.041-0.136-0.084-0.201 0 0-2.756-4.001-3.483-5.125-0.032-0.048-0.061-0.1-0.072-0.167-0.011-0.072 0.009-0.148 0.125-0.249l6.635 6.604c0.372 0.371 0.629 0.868 0.713 1.4 0.020 0.127 0.027 0.256 0.033 0.38l-0.012 7.44c0.028 0.181 0.113 0.348 0.248 0.471l1.456 1.196c0.34 0.291 0.689 0.367 1.125 0.252 0 0 1.195-0.332 1.151-0.368l-2.449-2.073z"></path>
<path d="M23.828 22.559c-0.080-0.12-0.837-1.201-1.033-2.456-0.056-0.355-0.061-0.695-0.016-1.005l0.724-3.728c0.071 0.073 0.128 0.175 0.173 0.312 0.147 0.464 0.289 1.093 0.411 1.869 0.108 0.689 0.18 1.844 0.207 2.104l0.949-0.743c0.315-0.248 0.44-0.541 0.453-0.912-0.031-0.235-0.053-0.469-0.087-0.676-0.137-0.875-0.295-1.589-0.469-2.116-0.473-1.473-1.871-1.693-2.691-1.487-0.312 0.083-0.54 0.335-0.585 0.645l-0.624 4.523c-0.067 0.455-0.060 0.937 0.019 1.44 0.269 1.716 1.245 3.052 1.349 3.2l3.567 4.239c0.024 0.028 0.041 0.015 0.041 0.015l0.32-1.177c0.111-0.412 0.035-0.744-0.216-1.073l-2.492-2.973z"></path>
<path d="M12.041 6.747c-0.011 0.067-0.040 0.119-0.072 0.167-0.727 1.124-3.483 5.125-3.483 5.125-0.043 0.065-0.056 0.135-0.084 0.201l1.192 0.017c0.385 0.005 0.817-0.389 1.063-0.66 0.84-1.22 2.14-3.125 2.608-3.849 0.239-0.367 0.383-0.74 0.44-1.108 0.161-1.029-0.388-1.863-0.908-2.265-0.311-0.237-0.733-0.213-1.013 0.055l-7.596 7.569c-0.604 0.605-1.013 1.404-1.145 2.249-0.033 0.211-0.047 0.424-0.049 0.639l0.023 6.915-2.448 2.071c-0.045 0.036 1.151 0.368 1.151 0.368 0.436 0.115 0.785 0.037 1.125-0.252l1.456-1.196c0.135-0.123 0.22-0.289 0.248-0.471l-0.012-7.44c0.007-0.124 0.013-0.253 0.033-0.38 0.083-0.532 0.34-1.029 0.713-1.4l6.635-6.604c0.115 0.101 0.135 0.177 0.124 0.249z"></path>
<path d="M10.132 14.365c-0.045-0.311-0.272-0.564-0.585-0.645-0.82-0.208-2.217 0.012-2.691 1.487-0.175 0.527-0.332 1.243-0.469 2.116-0.032 0.207-0.056 0.441-0.087 0.676 0.015 0.371 0.139 0.664 0.453 0.912l0.949 0.743c0.028-0.26 0.099-1.415 0.207-2.104 0.121-0.776 0.264-1.405 0.411-1.869 0.045-0.137 0.103-0.239 0.173-0.312l0.724 3.728c0.045 0.311 0.040 0.651-0.016 1.005-0.196 1.255-0.953 2.336-1.033 2.456l-2.492 2.976c-0.251 0.329-0.327 0.661-0.216 1.073l0.32 1.177c0 0 0.017 0.013 0.041-0.015l3.567-4.239c0.104-0.148 1.080-1.484 1.349-3.2 0.079-0.503 0.084-0.987 0.019-1.44l-0.624-4.525z"></path>
<path d="M19.341 13.672c0 0-0.001 0 0 0-0.803-0.807-2.104-0.807-2.908-0.001 0 0 0 0 0 0l-0.397 0.397-0.396-0.397c-0.803-0.805-2.105-0.805-2.908 0-0.803 0.807-0.803 2.112 0 2.919l3.304 3.313 3.305-3.313c0.803-0.807 0.803-2.111 0-2.917z"></path>
</svg>
