<!-- Generated by IcoMoon.io -->
<svg version="1.1" xmlns="http://www.w3.org/2000/svg" width="24" height="24" viewBox="0 0 24 24">
<title>phone</title>
<path fill="#444" d="M21.096 15.231c-1.061-0.142-2.105-0.4-3.109-0.773-0.807-0.305-1.719-0.109-2.333 0.495l-1.404 1.404c-2.769-1.574-5.061-3.861-6.637-6.625l1.405-1.402c0.606-0.613 0.802-1.521 0.498-2.328-0.374-1.005-0.634-2.045-0.774-3.103-0.155-1.096-1.101-1.91-2.212-1.899h-3.318c-0.066 0-0.132 0.004-0.197 0.011-1.218 0.107-2.115 1.18-2.005 2.395 0.363 3.414 1.526 6.692 3.396 9.569 1.698 2.67 3.964 4.929 6.637 6.625 2.874 1.862 6.141 3.020 9.545 3.388 0.067 0.010 0.137 0.012 0.208 0.012 1.222-0.005 2.207-1.002 2.204-2.219v-3.31c0.026-1.122-0.793-2.086-1.904-2.24zM21.625 20.781c0.001 0.463-0.371 0.839-0.83 0.844l-0.032-0.001c-3.202-0.346-6.296-1.444-8.973-3.178-2.498-1.587-4.648-3.732-6.223-6.211-1.752-2.692-2.852-5.793-3.19-8.973-0.018-0.201 0.050-0.415 0.193-0.586s0.344-0.275 0.566-0.296l3.394-0.005c0.437 0 0.793 0.309 0.853 0.718 0.151 1.145 0.437 2.291 0.847 3.389 0.114 0.307 0.041 0.65-0.187 0.881l-1.4 1.396c-0.439 0.437-0.531 1.115-0.224 1.654 1.694 2.975 4.168 5.445 7.151 7.139 0.213 0.121 0.447 0.18 0.679 0.18 0.356 0 0.708-0.139 0.974-0.403l1.404-1.404c0.151-0.147 0.362-0.235 0.584-0.235 0.1 0 0.198 0.019 0.292 0.054 1.101 0.41 2.248 0.696 3.413 0.85 0.411 0.058 0.721 0.421 0.711 0.844v3.343z"></path>
</svg>
