<!-- Generated by IcoMoon.io -->
<svg version="1.1" xmlns="http://www.w3.org/2000/svg" width="32" height="32" viewBox="0 0 32 32">
<title>photo_camera</title>
<path d="M26.499 7.667h-3.684l-1.788-2.851c-0.339-0.511-0.912-0.816-1.525-0.816h-7.003c-0.613 0-1.187 0.305-1.527 0.816l-1.787 2.851h-3.684c-2.299 0-4.168 1.871-4.168 4.169v11.996c0 2.299 1.869 4.168 4.168 4.168h20.997c2.299 0 4.168-1.869 4.168-4.168v-11.996c0-2.299-1.869-4.169-4.168-4.169zM28.833 23.832c0 1.295-1.047 2.335-2.335 2.335h-20.997c-1.288 0-2.335-1.040-2.335-2.335v-11.996c0-1.285 1.047-2.336 2.335-2.336h4.665l2.332-3.667h7.004l2.332 3.667h4.665c1.288 0 2.335 1.051 2.335 2.336v11.996zM16 11.343c-3.585 0-6.501 2.744-6.501 6.324 0 3.584 2.917 6.499 6.501 6.499s6.501-2.916 6.501-6.499c0-3.581-2.916-6.324-6.501-6.324zM16 22.332c-2.576 0-4.668-2.084-4.668-4.665s2.092-4.663 4.668-4.663 4.668 2.083 4.668 4.663-2.092 4.665-4.668 4.665z"></path>
</svg>
