<!-- Generated by IcoMoon.io -->
<svg version="1.1" xmlns="http://www.w3.org/2000/svg" width="24" height="24" viewBox="0 0 24 24">
<title>photo_camera</title>
<path fill="#444" d="M19.709 5.942h-2.704l-1.313-2.093c-0.25-0.374-0.672-0.599-1.121-0.599h-5.142c-0.45 0-0.87 0.225-1.12 0.599l-1.313 2.093h-2.706c-1.687 0-3.060 1.374-3.060 3.061v8.685c0 1.688 1.373 3.061 3.060 3.061h15.418c1.688 0 3.061-1.373 3.061-3.060v-8.687c0-1.687-1.373-3.061-3.060-3.061zM21.423 17.69c0 0.95-0.769 1.714-1.714 1.714h-15.419c-0.945 0-1.714-0.763-1.714-1.714v-8.687c0-0.944 0.769-1.715 1.714-1.715h3.425l1.712-2.692h5.142l1.712 2.692h3.425c0.948 0 1.716 0.771 1.716 1.715v8.687zM12 8.519c-2.633 0-4.773 2.014-4.773 4.643 0 2.632 2.142 4.772 4.773 4.772s4.773-2.14 4.773-4.772c0-2.629-2.14-4.643-4.773-4.643zM12 16.588c-1.891 0-3.427-1.531-3.427-3.426 0-1.894 1.536-3.423 3.427-3.423s3.427 1.529 3.427 3.423c0 1.895-1.536 3.426-3.427 3.426z"></path>
</svg>
