<!-- Generated by IcoMoon.io -->
<svg version="1.1" xmlns="http://www.w3.org/2000/svg" width="24" height="24" viewBox="0 0 24 24">
<title>photo_camera</title>
<path d="M19.874 5.75h-2.763l-1.341-2.138c-0.254-0.383-0.684-0.612-1.144-0.612h-5.252c-0.46 0-0.89 0.229-1.145 0.612l-1.34 2.138h-2.763c-1.724 0-3.126 1.403-3.126 3.127v8.997c0 1.724 1.402 3.126 3.126 3.126h15.748c1.724 0 3.126-1.402 3.126-3.126v-8.997c0-1.724-1.402-3.127-3.126-3.127zM21.625 17.874c0 0.971-0.785 1.751-1.751 1.751h-15.748c-0.966 0-1.751-0.78-1.751-1.751v-8.997c0-0.964 0.785-1.752 1.751-1.752h3.499l1.749-2.75h5.253l1.749 2.75h3.499c0.966 0 1.751 0.788 1.751 1.752v8.997zM12 8.507c-2.689 0-4.876 2.058-4.876 4.743 0 2.688 2.188 4.874 4.876 4.874s4.876-2.187 4.876-4.874c0-2.686-2.187-4.743-4.876-4.743zM12 16.749c-1.932 0-3.501-1.563-3.501-3.499s1.569-3.497 3.501-3.497 3.501 1.562 3.501 3.497-1.569 3.499-3.501 3.499z"></path>
</svg>
