<!-- Generated by IcoMoon.io -->
<svg version="1.1" xmlns="http://www.w3.org/2000/svg" width="24" height="24" viewBox="0 0 24 24">
<title>picture</title>
<path fill="#444" d="M7.875 5.813c-1.137 0-2.063 0.924-2.063 2.063s0.925 2.063 2.063 2.063c1.137 0 2.063-0.924 2.063-2.063s-0.925-2.063-2.063-2.063zM7.875 8.563c-0.38 0-0.688-0.307-0.688-0.688 0-0.378 0.308-0.688 0.688-0.688 0.381 0 0.688 0.309 0.688 0.688 0 0.381-0.308 0.688-0.688 0.688zM6.501 1c-3.037 0-5.501 2.461-5.501 5.5v16.5h16.5c3.014 0 5.456-2.427 5.493-5.433l0.007 0.005v-16.573h-16.499zM2.375 14.243l4.058 2.841-3.58 2.53c-0.329 0.232-0.477 0.492-0.477 0.894v-6.265zM21.625 17.5c0 2.274-1.851 4.125-4.125 4.125h-15.125l12.723-8.988c0.151-0.107 0.304-0.162 0.458-0.162 0.153 0 0.305 0.055 0.458 0.162l5.611 3.964v0.899zM21.625 14.926l-6.069-4.289-7.931 5.603-5.25-3.677v-6.064c0-2.274 1.851-4.125 4.126-4.125h15.124v12.551z"></path>
</svg>
