<!-- Generated by IcoMoon.io -->
<svg version="1.1" xmlns="http://www.w3.org/2000/svg" width="24" height="24" viewBox="0 0 24 24">
<title>place123</title>
<path fill="#444" d="M21.625 12h-4.812v-4.125c0-0.76-0.616-1.375-1.375-1.375h-6.875c-0.759 0-1.375 0.615-1.375 1.375v1.375h-4.812c-0.759 0-1.375 0.615-1.375 1.375v5.5c0 0.76 0.616 1.375 1.375 1.375h19.25c0.759 0 1.375-0.615 1.375-1.375v-2.75c0-0.76-0.616-1.375-1.375-1.375zM21.625 16.125h-19.25v-5.5h6.188v-2.75h6.875v5.5h6.187v2.75zM12.687 8.562v5.331c-0.003 0.403-0.129 0.671-0.459 0.902l-0.916 0.642v-5.331c0.001-0.403 0.128-0.671 0.458-0.902l0.917-0.642z"></path>
</svg>
