<!-- Generated by IcoMoon.io -->
<svg version="1.1" xmlns="http://www.w3.org/2000/svg" width="32" height="32" viewBox="0 0 32 32">
<title>policeman</title>
<path d="M26.611 5.515l-1.148-0.957c-0.411-0.344-0.8-0.409-1.32-0.273l-0.825 0.224v-1.341c0-0.579-0.272-1.121-0.733-1.469-0.323-0.239-0.709-0.364-1.1-0.364-0.172 0-0.347 0.025-0.516 0.073l-13.857 3.916c-0.563 0.165-1.38 0.591-1.577 1.144s0.147 1.307 0.479 1.789l1.127 1.317c0.412 0.56 0.917 0.799 1.512 0.799 0.083 0 0.167-0.021 0.248-0.033 0.76 3.236 3.624 5.661 7.085 5.661 4.044 0 7.333-3.291 7.333-7.335 0-0.757-0.137-1.477-0.36-2.16l3.653-0.991zM15.984 14.167c-2.613 0-4.791-1.825-5.351-4.272l10.575-2.913c0.173 0.529 0.275 1.093 0.275 1.684 0.001 3.039-2.463 5.501-5.499 5.501zM21.484 5l-12.833 3.539-1.1-1.523 13.933-3.849v1.833zM25.151 26.292v4.375l-1.196-0.839c-0.44-0.307-0.636-0.684-0.636-1.22l-0.001-2.316c0-2.38-1.672-4.344-3.851-4.715l-0.733-0.077h-3.667c-2.527 0-4.584 2.148-4.584 4.792v2.441c-0.033 0.464-0.208 0.816-0.609 1.095l-1.223 0.839v-4.375c0-3.653 2.879-6.625 6.416-6.625h3.667c3.539 0 6.417 2.972 6.417 6.625zM21.484 25.167h-1.608c-0.537-0.004-0.895-0.172-1.203-0.612l-0.856-1.221h1.608c0.537 0.001 0.895 0.171 1.203 0.611l0.856 1.223z"></path>
</svg>
