<!-- Generated by IcoMoon.io -->
<svg version="1.1" xmlns="http://www.w3.org/2000/svg" width="24" height="24" viewBox="0 0 24 24">
<title>policeman</title>
<path fill="#444" d="M19.97 4.135l-0.861-0.716c-0.308-0.259-0.601-0.308-0.99-0.205l-0.619 0.166v-1.005c0-0.433-0.203-0.84-0.55-1.101-0.242-0.18-0.532-0.274-0.825-0.274-0.129 0-0.26 0.019-0.388 0.055l-10.392 2.937c-0.422 0.125-1.035 0.443-1.183 0.858s0.11 0.98 0.359 1.343l0.844 0.989c0.309 0.418 0.689 0.598 1.134 0.598 0.062 0 0.124-0.016 0.186-0.026 0.571 2.427 2.718 4.246 5.314 4.246 3.033 0 5.5-2.468 5.5-5.501 0-0.568-0.103-1.108-0.269-1.62l2.739-0.744zM12 10.625c-1.961 0-3.593-1.37-4.012-3.204l7.931-2.185c0.131 0.397 0.206 0.821 0.206 1.262 0 2.28-1.848 4.126-4.125 4.126zM16.125 3.75l-9.625 2.655-0.825-1.143 10.45-2.888v1.375zM18.875 19.718v3.282l-0.896-0.628c-0.33-0.231-0.479-0.513-0.479-0.916v-1.738c0-1.785-1.254-3.257-2.888-3.535l-0.55-0.058h-2.75c-1.895 0-3.437 1.612-3.437 3.593v1.831c-0.025 0.348-0.157 0.612-0.457 0.822l-0.919 0.628v-3.282c0-2.739 2.159-4.968 4.813-4.968h2.75c2.654 0 4.813 2.229 4.813 4.968zM16.125 18.875h-1.206c-0.403-0.003-0.671-0.129-0.902-0.459l-0.642-0.916h1.206c0.403 0.001 0.671 0.128 0.902 0.458l0.642 0.917z"></path>
</svg>
