<!-- Generated by IcoMoon.io -->
<svg version="1.1" xmlns="http://www.w3.org/2000/svg" width="24" height="24" viewBox="0 0 24 24">
<title>portofolio</title>
<path d="M18.875 1h-13.75c-0.76 0-1.375 0.617-1.375 1.375v19.25c0 0.758 0.615 1.375 1.375 1.375h13.75c0.76 0 1.375-0.617 1.375-1.375v-19.25c0-0.758-0.615-1.375-1.375-1.375zM18.875 21.625h-13.75v-19.25h13.75v19.25zM6.5 3.75h9.455c0.404 0.002 0.673 0.129 0.902 0.457l0.643 0.918h-9.455c-0.404-0.001-0.673-0.128-0.902-0.456l-0.643-0.919zM7.875 6.5v5.33c-0.002 0.404-0.129 0.67-0.46 0.902l-0.915 0.643v-5.33c0.001-0.404 0.128-0.67 0.459-0.902l0.916-0.643zM9.182 6.5h6.773c0.404 0.002 0.673 0.129 0.902 0.457l0.643 0.918h-6.776c-0.401-0.001-0.67-0.128-0.902-0.456l-0.64-0.919zM9.25 12h6.776c0.401 0.002 0.67 0.129 0.902 0.457l0.64 0.918h-6.773c-0.404-0.001-0.673-0.128-0.902-0.456l-0.643-0.919zM9.25 9.25h6.776c0.401 0.002 0.67 0.129 0.902 0.457l0.64 0.918h-6.773c-0.404-0.001-0.673-0.128-0.902-0.456l-0.643-0.919zM13.834 19.607c-0.331-0.232-0.458-0.498-0.459-0.902v-1.205l0.915 0.643c0.331 0.232 0.458 0.498 0.46 0.902v1.205l-0.916-0.643zM16.584 19.607c-0.331-0.232-0.458-0.498-0.459-0.902v-1.205l0.915 0.643c0.331 0.232 0.458 0.498 0.46 0.902v1.205l-0.916-0.643zM6.959 19.607c-0.331-0.232-0.458-0.498-0.459-0.902v-1.205l0.915 0.643c0.331 0.232 0.458 0.498 0.46 0.902v1.205l-0.916-0.643zM9.709 19.607c-0.331-0.232-0.458-0.498-0.459-0.902v-1.205l0.915 0.643c0.331 0.232 0.458 0.498 0.46 0.902v1.205l-0.916-0.643zM6.5 14.75h9.455c0.404 0.002 0.673 0.129 0.902 0.457l0.643 0.918h-9.455c-0.404-0.001-0.673-0.128-0.902-0.456l-0.643-0.919z"></path>
</svg>
