<!-- Generated by IcoMoon.io -->
<svg version="1.1" xmlns="http://www.w3.org/2000/svg" width="32" height="32" viewBox="0 0 32 32">
<path d="M25.167 1.333h-18.333c-1.013 0-1.833 0.823-1.833 1.833v25.667c0 1.011 0.82 1.833 1.833 1.833h18.333c1.013 0 1.833-0.823 1.833-1.833v-25.667c0-1.011-0.82-1.833-1.833-1.833zM25.167 28.833h-18.333v-25.667h18.333v25.667zM8.667 5h12.607c0.539 0.003 0.897 0.172 1.203 0.609l0.857 1.224h-12.607c-0.539-0.001-0.897-0.171-1.203-0.608l-0.857-1.225zM10.5 8.667v7.107c-0.003 0.539-0.172 0.893-0.613 1.203l-1.22 0.857v-7.107c0.001-0.539 0.171-0.893 0.612-1.203l1.221-0.857zM12.243 8.667h9.031c0.539 0.003 0.897 0.172 1.203 0.609l0.857 1.224h-9.035c-0.535-0.001-0.893-0.171-1.203-0.608l-0.853-1.225zM12.333 16h9.035c0.535 0.003 0.893 0.172 1.203 0.609l0.853 1.224h-9.031c-0.539-0.001-0.897-0.171-1.203-0.608l-0.857-1.225zM12.333 12.333h9.035c0.535 0.003 0.893 0.172 1.203 0.609l0.853 1.224h-9.031c-0.539-0.001-0.897-0.171-1.203-0.608l-0.857-1.225zM18.445 26.143c-0.441-0.309-0.611-0.664-0.612-1.203v-1.607l1.22 0.857c0.441 0.309 0.611 0.664 0.613 1.203v1.607l-1.221-0.857zM22.112 26.143c-0.441-0.309-0.611-0.664-0.612-1.203v-1.607l1.22 0.857c0.441 0.309 0.611 0.664 0.613 1.203v1.607l-1.221-0.857zM9.279 26.143c-0.441-0.309-0.611-0.664-0.612-1.203v-1.607l1.22 0.857c0.441 0.309 0.611 0.664 0.613 1.203v1.607l-1.221-0.857zM12.945 26.143c-0.441-0.309-0.611-0.664-0.612-1.203v-1.607l1.22 0.857c0.441 0.309 0.611 0.664 0.613 1.203v1.607l-1.221-0.857zM8.667 19.667h12.607c0.539 0.003 0.897 0.172 1.203 0.609l0.857 1.224h-12.607c-0.539-0.001-0.897-0.171-1.203-0.608l-0.857-1.225z"></path>
</svg>
