<!-- Generated by IcoMoon.io -->
<svg version="1.1" xmlns="http://www.w3.org/2000/svg" width="24" height="24" viewBox="0 0 24 24">
<title>portofolio</title>
<path fill="#444" d="M18.875 1h-13.75c-0.759 0-1.375 0.615-1.375 1.375v19.25c0 0.76 0.616 1.375 1.375 1.375h13.75c0.759 0 1.375-0.615 1.375-1.375v-19.25c0-0.76-0.616-1.375-1.375-1.375zM18.875 21.625h-13.75v-19.25h13.75v19.25zM6.5 3.75h9.456c0.403 0.003 0.671 0.129 0.902 0.459l0.642 0.916h-9.456c-0.403-0.001-0.671-0.128-0.902-0.458l-0.642-0.917zM7.875 6.5v5.331c-0.003 0.403-0.129 0.671-0.459 0.902l-0.916 0.642v-5.331c0.001-0.403 0.128-0.671 0.458-0.902l0.917-0.642zM9.18 6.5h6.776c0.403 0.003 0.671 0.129 0.902 0.459l0.642 0.916h-6.776c-0.403-0.001-0.671-0.128-0.902-0.458l-0.642-0.917zM9.25 12h6.776c0.403 0.003 0.671 0.129 0.902 0.459l0.642 0.916h-6.776c-0.403-0.001-0.671-0.128-0.902-0.458l-0.642-0.917zM9.25 9.25h6.776c0.403 0.003 0.671 0.129 0.902 0.459l0.642 0.916h-6.776c-0.403-0.001-0.671-0.128-0.902-0.458l-0.642-0.917zM13.833 19.608c-0.33-0.231-0.457-0.499-0.458-0.902v-1.206l0.916 0.642c0.33 0.231 0.457 0.499 0.459 0.902v1.206l-0.917-0.642zM16.583 19.608c-0.33-0.231-0.457-0.499-0.458-0.902v-1.206l0.916 0.642c0.33 0.231 0.457 0.499 0.459 0.902v1.206l-0.917-0.642zM6.958 19.608c-0.33-0.231-0.457-0.499-0.458-0.902v-1.206l0.916 0.642c0.33 0.231 0.457 0.499 0.459 0.902v1.206l-0.917-0.642zM9.708 19.608c-0.33-0.231-0.457-0.499-0.458-0.902v-1.206l0.916 0.642c0.33 0.231 0.457 0.499 0.459 0.902v1.206l-0.917-0.642zM6.5 14.75h9.456c0.403 0.003 0.671 0.129 0.902 0.459l0.642 0.916h-9.456c-0.403-0.001-0.671-0.128-0.902-0.458l-0.642-0.917z"></path>
</svg>
