<!-- Generated by IcoMoon.io -->
<svg version="1.1" xmlns="http://www.w3.org/2000/svg" width="27" height="24" viewBox="0 0 27 24">
<title>precious_stone</title>
<path d="M23.279 1.386v0l-0.152-0.236-0.333-0.513h-0.083l-0.069-0.111c-0.183-0.278-0.494-0.459-0.848-0.459-0.024 0-0.047 0.001-0.070 0.002l0.003-0h-16.282c-0.022-0.002-0.048-0.003-0.074-0.003-0.351 0-0.66 0.182-0.838 0.456l-0.002 0.004v0.125s0 0-0.097 0.097l-4.434 6.61 12.194 16.185c0.18 0.278 0.489 0.46 0.84 0.46 0.026 0 0.052-0.001 0.078-0.003l-0.003 0h0.859c0.018 0.001 0.039 0.002 0.060 0.002 0.355 0 0.668-0.181 0.852-0.455l0.002-0.004 12.277-16.212zM21.617 1.386l3.533 5.404h-6.222c0.012-0.069 0.019-0.148 0.019-0.229s-0.007-0.16-0.020-0.237l0.001 0.008-1.649-4.947zM9.589 8.176h7.995l-4.005 12.471zM9.589 6.79l1.732-5.404h4.531l1.732 5.404zM5.57 1.386h4.268l-1.594 4.947c-0.016 0.069-0.025 0.148-0.025 0.229s0.009 0.16 0.026 0.236l-0.001-0.007h-6.222zM2.328 8.176h5.889c-0.012 0.067-0.019 0.143-0.019 0.222s0.007 0.155 0.020 0.23l-0.001-0.008 4.157 12.942zM14.799 21.409l4.157-12.79c0.016-0.067 0.025-0.143 0.025-0.222s-0.009-0.155-0.026-0.229l0.001 0.007h5.848z"></path>
</svg>
