<!-- Generated by IcoMoon.io -->
<svg version="1.1" xmlns="http://www.w3.org/2000/svg" width="24" height="24" viewBox="0 0 24 24">
<title>printer</title>
<path fill="#444" d="M20.25 7.875h-1.375v-6.188c0-0.379-0.308-0.688-0.688-0.688h-12.375c-0.38 0-0.688 0.308-0.688 0.688v6.188h-1.375c-1.517 0-2.75 1.233-2.75 2.75v5.5c0 1.517 1.233 2.75 2.75 2.75h1.375v2.75c0 0.76 0.616 1.375 1.375 1.375h11c0.759 0 1.375-0.615 1.375-1.375v-2.75h1.375c1.517 0 2.75-1.233 2.75-2.75v-5.5c0-1.517-1.233-2.75-2.75-2.75zM6.5 2.375h11v5.5h-11v-5.5zM17.5 21.625h-11v-6.875h11v6.875zM21.625 16.125c0 0.759-0.617 1.375-1.375 1.375h-1.375v-2.75c0-0.76-0.616-1.375-1.375-1.375h-11c-0.759 0-1.375 0.615-1.375 1.375v2.75h-1.375c-0.758 0-1.375-0.616-1.375-1.375v-5.5c0-0.759 0.617-1.375 1.375-1.375h16.5c0.758 0 1.375 0.616 1.375 1.375v5.5z"></path>
</svg>
