<!-- Generated by IcoMoon.io -->
<svg version="1.1" xmlns="http://www.w3.org/2000/svg" width="32" height="32" viewBox="0 0 32 32">
<title>printer</title>
<path d="M27 10.5h-1.833v-8.249c0-0.507-0.411-0.917-0.917-0.917h-16.5c-0.507 0-0.917 0.411-0.917 0.917v8.251h-1.832c-2.023-0.001-3.667 1.644-3.667 3.665v7.333c0 2.021 1.644 3.667 3.667 3.667h1.833v3.667c0 1.013 0.821 1.833 1.833 1.833h14.667c1.012 0 1.833-0.82 1.833-1.833v-3.667h1.833c2.023 0 3.667-1.645 3.667-3.667v-7.333c0-2.021-1.644-3.667-3.667-3.667zM8.667 3.167h14.667v7.333h-14.667v-7.333zM23.333 28.833h-14.667v-9.167h14.667v9.167zM28.833 21.5c0 1.012-0.823 1.833-1.833 1.833h-1.833v-3.667c0-1.013-0.821-1.833-1.833-1.833h-14.667c-1.012 0-1.833 0.82-1.833 1.833v3.667h-1.833c-1.011 0-1.833-0.821-1.833-1.833v-7.333c0-1.012 0.823-1.833 1.833-1.833h22c1.011 0 1.833 0.821 1.833 1.833v7.333z"></path>
</svg>
