<!-- Generated by IcoMoon.io -->
<svg version="1.1" xmlns="http://www.w3.org/2000/svg" width="24" height="24" viewBox="0 0 24 24">
<title>prize_ribbon</title>
<path fill="#444" d="M19.167 8.086c0-3.774-3.209-6.836-7.167-6.836s-7.167 3.062-7.167 6.836c0 2.144 1.058 4.035 2.68 5.289-0.013 0.036-1.257 8.6-1.257 8.6-0.037 0.259 0.085 0.513 0.312 0.659 0.118 0.077 0.257 0.116 0.396 0.116 0.125 0 0.249-0.032 0.36-0.093l4.676-2.596 4.674 2.596c0.235 0.133 0.532 0.125 0.758-0.023 0.228-0.146 0.35-0.4 0.312-0.659 0 0-1.244-8.568-1.254-8.601 1.62-1.254 2.676-3.145 2.676-5.288zM12.695 18.808c-0.216-0.12-0.456-0.181-0.695-0.181s-0.479 0.060-0.695 0.181l-3.417 1.896c0.341-2.345 0.976-6.702 1.035-7.074 0.095-0.52-0.105-1.059-0.533-1.39-1.349-1.045-2.123-2.559-2.123-4.155 0-2.98 2.571-5.402 5.733-5.402s5.733 2.422 5.733 5.402c0 1.597-0.774 3.112-2.121 4.154-0.424 0.328-0.626 0.864-0.535 1.383 0.054 0.347 0.691 4.727 1.033 7.082l-3.416-1.896z"></path>
</svg>
