<!-- Generated by IcoMoon.io -->
<svg version="1.1" xmlns="http://www.w3.org/2000/svg" width="32" height="32" viewBox="0 0 32 32">
<title>pub_bond</title>
<path d="M5.973 23.221v-5.987l-1.329 0.912c-0.388 0.272-0.563 0.613-0.564 1.092v5.984l1.323-0.905c0.387-0.271 0.569-0.621 0.571-1.096z"></path>
<path d="M12.868 23.221v-5.987l-1.325 0.912c-0.392 0.272-0.567 0.613-0.568 1.092v5.984l1.328-0.905c0.389-0.276 0.564-0.615 0.565-1.096z"></path>
<path d="M15.053 8.195c0 0.525 0.423 0.955 0.947 0.955s0.947-0.429 0.947-0.955c0-0.52-0.423-0.944-0.947-0.944s-0.947 0.425-0.947 0.944z"></path>
<path d="M30.667 13.025l-0.025-0.344c-0.021-0.352-0.145-0.565-0.451-0.785l-14.191-10.036-14.195 9.983c-0.325 0.22-0.447 0.447-0.46 0.825l-0.012 0.193v1.775h20.643c-1.099 0.683-1.912 1.724-2.301 2.947l-0.507-0.348v5.985c0.001 0.484 0.179 0.825 0.565 1.097l1.332 0.907v-2.323c0.143 0.135 0.291 0.264 0.447 0.384-0.005 0.017-0.38 2.581-0.665 4.544h-16.853c-0.688 0-1.083 0.199-1.456 0.735l-0.813 1.159h18.849c-0.029 0.199-0.047 0.316-0.047 0.316-0.029 0.204 0.067 0.404 0.245 0.517 0.093 0.061 0.203 0.092 0.312 0.092 0.097 0 0.196-0.025 0.283-0.073l1.535-0.852h4.272l1.535 0.852c0.185 0.104 0.419 0.097 0.596-0.017 0.179-0.113 0.275-0.315 0.245-0.517 0 0-0.017-0.119-0.045-0.316h0.773l-0.815-1.159c-0.049-0.072-0.103-0.123-0.155-0.183-0.289-1.995-0.739-5.080-0.744-5.097 1.272-0.985 2.103-2.471 2.103-4.153 0-1.885-1.024-3.537-2.567-4.496h2.567v-1.611zM29.333 19.132c0 1.191-0.577 2.32-1.584 3.099-0.393 0.305-0.581 0.8-0.499 1.281 0.040 0.257 0.475 3.244 0.751 5.147l-2.316-1.287c-0.201-0.112-0.424-0.168-0.648-0.168-0.223 0-0.445 0.056-0.648 0.168l-2.316 1.287c0.275-1.892 0.707-4.852 0.752-5.137 0.088-0.483-0.1-0.983-0.496-1.291-1.009-0.781-1.588-1.911-1.588-3.1 0-2.224 1.927-4.033 4.296-4.033s4.296 1.811 4.296 4.035zM3.821 12.739l12.175-8.567 12.105 8.567h-24.28z"></path>
</svg>
