<!-- Generated by IcoMoon.io -->
<svg version="1.1" xmlns="http://www.w3.org/2000/svg" width="24" height="24" viewBox="0 0 24 24">
<title>pub_bond</title>
<path d="M4.48 17.416v-4.49l-0.997 0.684c-0.291 0.204-0.422 0.46-0.423 0.819v4.488l0.992-0.679c0.29-0.203 0.427-0.466 0.428-0.822z"></path>
<path d="M9.651 17.416v-4.49l-0.994 0.684c-0.294 0.204-0.425 0.46-0.426 0.819v4.488l0.996-0.679c0.292-0.207 0.423-0.461 0.424-0.822z"></path>
<path d="M11.29 6.146c0 0.394 0.317 0.716 0.71 0.716s0.71-0.322 0.71-0.716c0-0.39-0.317-0.708-0.71-0.708s-0.71 0.319-0.71 0.708z"></path>
<path d="M23 9.769l-0.019-0.258c-0.016-0.264-0.109-0.424-0.338-0.589l-10.643-7.527-10.646 7.487c-0.244 0.165-0.335 0.335-0.345 0.619l-0.009 0.145v1.331h15.482c-0.824 0.512-1.434 1.293-1.726 2.21l-0.38-0.261v4.489c0.001 0.363 0.134 0.619 0.424 0.823l0.999 0.68v-1.742c0.107 0.101 0.218 0.198 0.335 0.288-0.004 0.013-0.285 1.936-0.499 3.408h-12.64c-0.516 0-0.812 0.149-1.092 0.551l-0.61 0.869h14.137c-0.022 0.149-0.035 0.237-0.035 0.237-0.022 0.153 0.050 0.303 0.184 0.388 0.070 0.046 0.152 0.069 0.234 0.069 0.073 0 0.147-0.019 0.212-0.055l1.151-0.639h3.204l1.151 0.639c0.139 0.078 0.314 0.073 0.447-0.013 0.134-0.085 0.206-0.236 0.184-0.388 0 0-0.013-0.089-0.034-0.237h0.58l-0.611-0.869c-0.037-0.054-0.077-0.092-0.116-0.137-0.217-1.496-0.554-3.81-0.558-3.823 0.954-0.739 1.577-1.853 1.577-3.115 0-1.414-0.768-2.653-1.925-3.372h1.925v-1.208zM22 14.349c0 0.893-0.433 1.74-1.188 2.324-0.295 0.229-0.436 0.6-0.374 0.961 0.030 0.193 0.356 2.433 0.563 3.86l-1.737-0.965c-0.151-0.084-0.318-0.126-0.486-0.126-0.167 0-0.334 0.042-0.486 0.126l-1.737 0.965c0.206-1.419 0.53-3.639 0.564-3.853 0.066-0.362-0.075-0.737-0.372-0.968-0.757-0.586-1.191-1.433-1.191-2.325 0-1.668 1.445-3.025 3.222-3.025s3.222 1.358 3.222 3.026zM2.866 9.554l9.131-6.425 9.079 6.425h-18.21z"></path>
</svg>
