<!-- Generated by IcoMoon.io -->
<svg version="1.1" xmlns="http://www.w3.org/2000/svg" width="32" height="32" viewBox="0 0 32 32">
<title>public_service</title>
<path d="M3.979 24.392l4.012-2.419c0.157-0.073 1.589-0.773 3.121-0.773 0.433 0 0.84 0.057 1.201 0.169l4.309 1.56c-0.101 0.071-0.232 0.12-0.404 0.148-0.581 0.088-1.357 0.14-2.305 0.14-0.843 0-2.232-0.131-2.547-0.145l0.708 1.271c0.236 0.421 0.564 0.625 1.003 0.711 0.285 0.008 0.571 0.024 0.823 0.024 1.068 0 1.949-0.055 2.611-0.164 1.845-0.289 2.368-1.915 2.275-2.929-0.040-0.388-0.299-0.705-0.661-0.817l-5.276-1.588c-0.005-0.001-0.011-0.003-0.016-0.004 0.033-0.123 0.056-0.252 0.056-0.399v-2.593l-1.325 0.911c-0.392 0.272-0.567 0.613-0.568 1.092v0.749c-2.036 0.039-3.743 0.909-3.933 1.004l-1.067 0.645v-4.404l-1.331 0.913c-0.389 0.272-0.563 0.613-0.564 1.092v3.545l-2.759 1.669c-0.039 0.024-0.025 0.047-0.025 0.047l1.344 0.601c0.469 0.209 0.88 0.181 1.319-0.056z"></path>
<path d="M30.531 19.853c-0.384-0.695-1.275-1.505-2.531-1.505-0.013 0-0.029 0.004-0.043 0.005-0.052-0.357-0.22-0.632-0.54-0.857l-1.331-0.915 0.14 1.875c0 0.129 0.016 0.248 0.041 0.359-1.111 0.507-3.291 1.543-4.745 2.241-0.367 0.243-0.917 0.683-0.984 1.143l-0.201 1.424c0.084-0.021 0.171-0.024 0.256-0.063 0 0 5.285-2.539 6.761-3.195 0.063-0.028 0.131-0.055 0.212-0.055 0.087 0 0.175 0.039 0.275 0.195l-9.111 6.677c-0.512 0.375-1.153 0.588-1.803 0.588-0.155 0-0.309-0.016-0.46-0.031l-8.867-1.404c-0.221 0-0.436 0.071-0.608 0.208l-0.713 0.633h-2.268c-0.688 0-1.083 0.199-1.456 0.735l-0.813 1.159h3.037c-0.004 0.091-0.009 0.181 0.001 0.283 0 0 0.172 1.487 0.224 1.44l1.991-1.723h5.995l3.18 0.508c0.256 0.036 0.513 0.060 0.771 0.060 0.792 0 1.58-0.203 2.28-0.568h11.169l-0.815-1.159c-0.372-0.535-0.768-0.735-1.456-0.735h-6.213l8.368-6.127c0.373-0.284 0.48-0.784 0.256-1.197z"></path>
<path d="M15.072 7.541c0 0.525 0.423 0.955 0.947 0.955 0.525 0 0.947-0.429 0.947-0.955 0-0.52-0.423-0.944-0.947-0.944s-0.947 0.425-0.947 0.944z"></path>
<path d="M30.661 12.028c-0.021-0.352-0.145-0.565-0.451-0.785l-14.192-10.036-14.193 9.983c-0.325 0.22-0.447 0.447-0.46 0.825l-0.012 0.193v1.775h29.333v-1.611l-0.025-0.344zM3.84 12.085l12.175-8.567 12.105 8.567h-24.28z"></path>
<path d="M21.087 20.672v-2.085c-0.005-0.479-0.18-0.819-0.569-1.091l-1.329-0.915v2.088c0.001 0.484 0.179 0.825 0.565 1.097l1.333 0.905z"></path>
</svg>
