<!-- Generated by IcoMoon.io -->
<svg version="1.1" xmlns="http://www.w3.org/2000/svg" width="24" height="24" viewBox="0 0 24 24">
<title>public_service</title>
<path d="M2.984 18.294l3.009-1.814c0.118-0.055 1.192-0.58 2.341-0.58 0.325 0 0.63 0.043 0.901 0.127l3.232 1.17c-0.076 0.053-0.174 0.090-0.303 0.111-0.436 0.066-1.018 0.105-1.729 0.105-0.632 0-1.674-0.098-1.91-0.109l0.531 0.953c0.177 0.316 0.423 0.469 0.752 0.533 0.214 0.006 0.428 0.018 0.617 0.018 0.801 0 1.462-0.041 1.958-0.123 1.384-0.217 1.776-1.436 1.706-2.197-0.030-0.291-0.224-0.529-0.496-0.613l-3.957-1.191c-0.004-0.001-0.008-0.002-0.012-0.003 0.025-0.092 0.042-0.189 0.042-0.299v-1.945l-0.994 0.683c-0.294 0.204-0.425 0.46-0.426 0.819v0.562c-1.527 0.029-2.807 0.682-2.95 0.753l-0.8 0.484v-3.303l-0.998 0.685c-0.292 0.204-0.422 0.46-0.423 0.819v2.659l-2.069 1.252c-0.029 0.018-0.019 0.035-0.019 0.035l1.008 0.451c0.352 0.157 0.66 0.136 0.989-0.042z"></path>
<path d="M22.898 14.89c-0.288-0.521-0.956-1.129-1.898-1.129-0.010 0-0.022 0.003-0.032 0.004-0.039-0.268-0.165-0.474-0.405-0.643l-0.998-0.686 0.105 1.406c0 0.097 0.012 0.186 0.031 0.269-0.833 0.38-2.468 1.157-3.559 1.681-0.275 0.182-0.688 0.512-0.738 0.857l-0.151 1.068c0.063-0.016 0.128-0.018 0.192-0.047 0 0 3.964-1.904 5.071-2.396 0.047-0.021 0.098-0.041 0.159-0.041 0.065 0 0.131 0.029 0.206 0.146l-6.833 5.008c-0.384 0.281-0.865 0.441-1.352 0.441-0.116 0-0.232-0.012-0.345-0.023l-6.65-1.053c-0.166 0-0.327 0.053-0.456 0.156l-0.535 0.475h-1.701c-0.516 0-0.812 0.149-1.092 0.551l-0.61 0.869h2.278c-0.003 0.068-0.007 0.136 0.001 0.212 0 0 0.129 1.115 0.168 1.080l1.493-1.292h4.496l2.385 0.381c0.192 0.027 0.385 0.045 0.578 0.045 0.594 0 1.185-0.152 1.71-0.426h8.377l-0.611-0.869c-0.279-0.401-0.576-0.551-1.092-0.551h-4.66l6.276-4.595c0.28-0.213 0.36-0.588 0.192-0.898z"></path>
<path d="M11.304 5.656c0 0.394 0.317 0.716 0.71 0.716 0.394 0 0.71-0.322 0.71-0.716 0-0.39-0.317-0.708-0.71-0.708s-0.71 0.319-0.71 0.708z"></path>
<path d="M22.996 9.021c-0.016-0.264-0.109-0.424-0.338-0.589l-10.644-7.527-10.645 7.487c-0.244 0.165-0.335 0.335-0.345 0.619l-0.009 0.145v1.331h22v-1.208l-0.019-0.258zM2.88 9.064l9.131-6.425 9.079 6.425h-18.21z"></path>
<path d="M15.815 15.504v-1.564c-0.004-0.359-0.135-0.614-0.427-0.818l-0.997-0.686v1.566c0.001 0.363 0.134 0.619 0.424 0.823l1 0.679z"></path>
</svg>
