<!-- Generated by IcoMoon.io -->
<svg version="1.1" xmlns="http://www.w3.org/2000/svg" width="24" height="24" viewBox="0 0 24 24">
<title>qr</title>
<path d="M9.661 12.021c-0.227 0-0.411-0.187-0.411-0.411v-1.97c0-0.224 0.185-0.411 0.411-0.411h0.553c0.227 0 0.411 0.188 0.411 0.411v1.971c0 0.225-0.185 0.411-0.411 0.411h-0.553zM17.5 9.661c0-0.224-0.184-0.411-0.411-0.411h-3.303c-0.227 0-0.411 0.188-0.411 0.411v0.553c0 0.224 0.184 0.411 0.411 0.411h3.303c0.227 0 0.411-0.188 0.411-0.411v-0.553zM14.75 6.911c0-0.224-0.184-0.411-0.411-0.411h-4.678c-0.227 0-0.411 0.188-0.411 0.411v0.553c0 0.224 0.184 0.411 0.411 0.411h4.678c0.227 0 0.411-0.188 0.411-0.411v-0.553zM3.75 11.036c0-0.224-0.184-0.411-0.411-0.411h-0.553c-0.227 0-0.411 0.188-0.411 0.411v3.303c0 0.224 0.184 0.411 0.411 0.411h0.553c0.227 0 0.411-0.188 0.411-0.411v-3.303zM13.375 15.161c0-0.224-0.184-0.411-0.411-0.411h-3.303c-0.227 0-0.411 0.188-0.411 0.411v0.553c0 0.224 0.184 0.411 0.411 0.411h3.303c0.227 0 0.411-0.188 0.411-0.411v-0.553zM14.753 1.411c0-0.223-0.184-0.411-0.411-0.411h-0.55c-0.227 0-0.414 0.188-0.414 0.411l-0.003 1.928c0 0.224 0.184 0.411 0.411 0.411h0.553c0.227 0 0.411-0.188 0.411-0.411l0.003-1.928zM17.911 17.5c-0.227 0-0.411 0.188-0.411 0.411v4.678c0 0.224 0.185 0.411 0.411 0.411h0.553c0.227 0 0.411-0.188 0.411-0.411v-4.678c0-0.224-0.185-0.411-0.411-0.411h-0.553zM22.578 16.125c0.227 0 0.411-0.188 0.411-0.411v-0.553c0-0.224-0.185-0.411-0.411-0.411h-3.281c-0.227 0-0.411 0.188-0.411 0.411v0.553c0 0.224 0.185 0.411 0.411 0.411h3.281zM15.987 17.911c0-0.224-0.184-0.411-0.411-0.411h-1.79c-0.227 0-0.411 0.188-0.411 0.411v0.553c0 0.224 0.184 0.411 0.411 0.411h1.79c0.227 0 0.411-0.188 0.411-0.411v-0.553zM21.625 9.661c0-0.224-0.184-0.411-0.411-0.411h-0.553c-0.227 0-0.411 0.188-0.411 0.411v3.303c0 0.224 0.184 0.411 0.411 0.411h0.553c0.227 0 0.411-0.188 0.411-0.411v-3.303zM12 19.286c0-0.224-0.184-0.411-0.411-0.411h-0.553c-0.227 0-0.411 0.188-0.411 0.411v1.928c0 0.224 0.184 0.411 0.411 0.411h0.553c0.227 0 0.411-0.188 0.411-0.411v-1.928zM7.875 17.5v4.125c0 0.758-0.614 1.375-1.375 1.375h-4.125c-0.761 0-1.375-0.617-1.375-1.375v-4.125c0-0.758 0.614-1.375 1.375-1.375h4.125c0.761 0 1.375 0.617 1.375 1.375zM7.016 16.984h-5.157v5.156h5.156v-5.156zM6.156 17.844h-3.437v3.438h3.438v-3.438zM7.875 2.375v4.125c0 0.758-0.614 1.375-1.375 1.375h-4.125c-0.761 0-1.375-0.617-1.375-1.375v-4.125c0-0.758 0.614-1.375 1.375-1.375h4.125c0.761 0 1.375 0.617 1.375 1.375zM7.016 1.859h-5.157v5.156h5.156v-5.156zM6.156 2.719h-3.437v3.438h3.438v-3.438zM23 2.375v4.125c0 0.758-0.614 1.375-1.375 1.375h-4.125c-0.761 0-1.375-0.617-1.375-1.375v-4.125c0-0.758 0.614-1.375 1.375-1.375h4.124c0.762 0 1.376 0.617 1.376 1.375zM22.141 1.859h-5.156v5.156h5.156v-5.156zM21.281 2.719h-3.438v3.438h3.438v-3.438z"></path>
</svg>
