<!-- Generated by IcoMoon.io -->
<svg version="1.1" xmlns="http://www.w3.org/2000/svg" width="32" height="32" viewBox="0 0 32 32">
<title>qr</title>
<path d="M12.881 16.028c-0.303 0-0.548-0.249-0.548-0.548v-2.627c0-0.299 0.247-0.548 0.548-0.548h0.737c0.303 0 0.548 0.251 0.548 0.548v2.628c0 0.3-0.247 0.548-0.548 0.548h-0.737zM23.333 12.881c0-0.299-0.245-0.548-0.548-0.548h-4.404c-0.303 0-0.548 0.251-0.548 0.548v0.737c0 0.299 0.245 0.548 0.548 0.548h4.404c0.303 0 0.548-0.251 0.548-0.548v-0.737zM19.667 9.215c0-0.299-0.245-0.548-0.548-0.548h-6.237c-0.303 0-0.548 0.251-0.548 0.548v0.737c0 0.299 0.245 0.548 0.548 0.548h6.237c0.303 0 0.548-0.251 0.548-0.548v-0.737zM5 14.715c0-0.299-0.245-0.548-0.548-0.548h-0.737c-0.303 0-0.548 0.251-0.548 0.548v4.404c0 0.299 0.245 0.548 0.548 0.548h0.737c0.303 0 0.548-0.251 0.548-0.548v-4.404zM17.833 20.215c0-0.299-0.245-0.548-0.548-0.548h-4.404c-0.303 0-0.548 0.251-0.548 0.548v0.737c0 0.299 0.245 0.548 0.548 0.548h4.404c0.303 0 0.548-0.251 0.548-0.548v-0.737zM19.671 1.881c0-0.297-0.245-0.548-0.548-0.548h-0.733c-0.303 0-0.552 0.251-0.552 0.548l-0.004 2.571c0 0.299 0.245 0.548 0.548 0.548h0.737c0.303 0 0.548-0.251 0.548-0.548l0.004-2.571zM23.881 23.333c-0.303 0-0.548 0.251-0.548 0.548v6.237c0 0.299 0.247 0.548 0.548 0.548h0.737c0.303 0 0.548-0.251 0.548-0.548v-6.237c0-0.299-0.247-0.548-0.548-0.548h-0.737zM30.104 21.5c0.303 0 0.548-0.251 0.548-0.548v-0.737c0-0.299-0.247-0.548-0.548-0.548h-4.375c-0.303 0-0.548 0.251-0.548 0.548v0.737c0 0.299 0.247 0.548 0.548 0.548h4.375zM21.316 23.881c0-0.299-0.245-0.548-0.548-0.548h-2.387c-0.303 0-0.548 0.251-0.548 0.548v0.737c0 0.299 0.245 0.548 0.548 0.548h2.387c0.303 0 0.548-0.251 0.548-0.548v-0.737zM28.833 12.881c0-0.299-0.245-0.548-0.548-0.548h-0.737c-0.303 0-0.548 0.251-0.548 0.548v4.404c0 0.299 0.245 0.548 0.548 0.548h0.737c0.303 0 0.548-0.251 0.548-0.548v-4.404zM16 25.715c0-0.299-0.245-0.548-0.548-0.548h-0.737c-0.303 0-0.548 0.251-0.548 0.548v2.571c0 0.299 0.245 0.548 0.548 0.548h0.737c0.303 0 0.548-0.251 0.548-0.548v-2.571zM10.5 23.333v5.5c0 1.011-0.819 1.833-1.833 1.833h-5.5c-1.015 0-1.833-0.823-1.833-1.833v-5.5c0-1.011 0.819-1.833 1.833-1.833h5.5c1.015 0 1.833 0.823 1.833 1.833zM9.355 22.645h-6.876v6.875h6.875v-6.875zM8.208 23.792h-4.583v4.584h4.584v-4.584zM10.5 3.167v5.5c0 1.011-0.819 1.833-1.833 1.833h-5.5c-1.015 0-1.833-0.823-1.833-1.833v-5.5c0-1.011 0.819-1.833 1.833-1.833h5.5c1.015 0 1.833 0.823 1.833 1.833zM9.355 2.479h-6.876v6.875h6.875v-6.875zM8.208 3.625h-4.583v4.584h4.584v-4.584zM30.667 3.167v5.5c0 1.011-0.819 1.833-1.833 1.833h-5.5c-1.015 0-1.833-0.823-1.833-1.833v-5.5c0-1.011 0.819-1.833 1.833-1.833h5.499c1.016 0 1.835 0.823 1.835 1.833zM29.521 2.479h-6.875v6.875h6.875v-6.875zM28.375 3.625h-4.584v4.584h4.584v-4.584z"></path>
</svg>
