<!-- Generated by IcoMoon.io -->
<svg version="1.1" xmlns="http://www.w3.org/2000/svg" width="24" height="24" viewBox="0 0 24 24">
<title>qr</title>
<path fill="#444" d="M9.662 12.022c-0.227 0-0.412-0.184-0.412-0.412v-1.969c0-0.227 0.186-0.413 0.412-0.413h0.55c0.227 0 0.412 0.186 0.412 0.413v1.969c0 0.228-0.186 0.412-0.412 0.412h-0.55zM17.5 9.662c0-0.227-0.184-0.412-0.412-0.412h-3.3c-0.228 0-0.413 0.186-0.413 0.412v0.55c0 0.227 0.184 0.412 0.413 0.412h3.3c0.228 0 0.412-0.186 0.412-0.412v-0.55zM14.75 6.913c0-0.227-0.184-0.413-0.413-0.413h-4.675c-0.228 0-0.412 0.186-0.412 0.413v0.55c0 0.227 0.184 0.413 0.412 0.413h4.675c0.228 0 0.413-0.186 0.413-0.413v-0.55zM3.75 11.038c0-0.227-0.184-0.413-0.412-0.413h-0.55c-0.228 0-0.413 0.186-0.413 0.413v3.3c0 0.227 0.184 0.412 0.413 0.412h0.55c0.228 0 0.412-0.186 0.412-0.412v-3.3zM13.375 15.163c0-0.227-0.184-0.412-0.412-0.412h-3.3c-0.228 0-0.412 0.186-0.412 0.412v0.55c0 0.227 0.184 0.413 0.412 0.413h3.3c0.228 0 0.412-0.186 0.412-0.413v-0.55zM14.754 1.412c0-0.227-0.184-0.413-0.412-0.413h-0.55c-0.228 0-0.413 0.186-0.413 0.413l-0.004 1.925c0 0.227 0.184 0.412 0.412 0.412h0.55c0.228 0 0.413-0.186 0.413-0.412l0.004-1.925zM17.912 17.5c-0.227 0-0.413 0.186-0.413 0.413v4.675c0 0.227 0.186 0.412 0.413 0.412h0.55c0.227 0 0.413-0.186 0.413-0.412v-4.675c0-0.227-0.186-0.413-0.413-0.413h-0.55zM22.576 16.125c0.227 0 0.413-0.186 0.413-0.413v-0.55c0-0.227-0.186-0.412-0.413-0.412h-3.279c-0.227 0-0.413 0.186-0.413 0.412v0.55c0 0.227 0.186 0.413 0.413 0.413h3.279zM15.988 17.912c0-0.227-0.184-0.413-0.413-0.413h-1.787c-0.228 0-0.413 0.186-0.413 0.413v0.55c0 0.227 0.184 0.413 0.413 0.413h1.787c0.228 0 0.413-0.186 0.413-0.413v-0.55zM21.625 9.662c0-0.227-0.184-0.412-0.412-0.412h-0.55c-0.228 0-0.413 0.186-0.413 0.412v3.3c0 0.227 0.184 0.412 0.413 0.412h0.55c0.228 0 0.412-0.186 0.412-0.412v-3.3zM12 19.288c0-0.227-0.184-0.412-0.413-0.412h-0.55c-0.228 0-0.412 0.186-0.412 0.412v1.925c0 0.227 0.184 0.413 0.412 0.413h0.55c0.228 0 0.413-0.186 0.413-0.413v-1.925zM7.875 17.5v4.125c0 0.76-0.615 1.375-1.375 1.375h-4.125c-0.76 0-1.375-0.615-1.375-1.375v-4.125c0-0.76 0.615-1.375 1.375-1.375h4.125c0.76 0 1.375 0.615 1.375 1.375zM7.016 16.984h-5.156v5.156h5.156v-5.156zM6.156 17.844h-3.437v3.437h3.437v-3.437zM7.875 2.375v4.125c0 0.76-0.615 1.375-1.375 1.375h-4.125c-0.76 0-1.375-0.615-1.375-1.375v-4.125c0-0.76 0.615-1.375 1.375-1.375h4.125c0.76 0 1.375 0.615 1.375 1.375zM7.016 1.859h-5.156v5.156h5.156v-5.156zM6.156 2.719h-3.437v3.437h3.437v-3.437zM23 2.375v4.125c0 0.76-0.615 1.375-1.375 1.375h-4.125c-0.76 0-1.375-0.615-1.375-1.375v-4.125c0-0.76 0.615-1.375 1.375-1.375h4.125c0.76 0 1.375 0.615 1.375 1.375zM22.141 1.859h-5.156v5.156h5.156v-5.156zM21.281 2.719h-3.437v3.437h3.437v-3.437z"></path>
</svg>
