<!-- Generated by IcoMoon.io -->
<svg version="1.1" xmlns="http://www.w3.org/2000/svg" width="24" height="24" viewBox="0 0 24 24">
<title>question</title>
<path fill="#444" d="M12 0.375c-6.616 0-12 5.217-12 11.625s5.383 11.625 12 11.625 12-5.217 12-11.625-5.384-11.625-12-11.625zM12 22.125c-5.79 0-10.5-4.541-10.5-10.125s4.71-10.125 10.5-10.125 10.5 4.54 10.5 10.125-4.71 10.125-10.5 10.125zM12 18.575c-0.623 0-1.125-0.504-1.125-1.125s0.502-1.125 1.125-1.125c0.621 0 1.125 0.504 1.125 1.125s-0.504 1.125-1.125 1.125zM15.75 9.195c0.020 0.855-0.308 1.617-0.944 2.202-0.177 0.161-0.668 0.447-1.461 0.85-0.342 0.284-0.549 0.519-0.6 0.832 0.002 0.063 0.005 0.67 0.009 1.181 0.002 0.421 0.002 0.783 0 0.822 0 0.008-0.005 0.014-0.006 0.021l-0.999-0.699c-0.3-0.211-0.457-0.47-0.5-0.798-0.002-0.665 0.002-0.705 0.017-0.782 0.156-0.948 0.845-1.565 1.328-1.88 0.29-0.189 1.089-0.573 1.213-0.669 0.306-0.28 0.451-0.62 0.442-1.047-0.033-1.337-0.852-2.105-2.25-2.105-0.351 0-1.015 0.046-1.527 0.365-0.486 0.301-0.723 0.795-0.722 1.51l-0.002 1.455c0 0.015-0.008 0.027-0.008 0.039l-0.993-0.694c-0.3-0.21-0.457-0.468-0.498-0.795v-0.005c0-1.568 0.777-2.379 1.431-2.784 0.786-0.489 1.693-0.591 2.317-0.591 2.19 0 3.697 1.434 3.75 3.57z"></path>
</svg>
