<!-- Generated by IcoMoon.io -->
<svg version="1.1" xmlns="http://www.w3.org/2000/svg" width="32" height="32" viewBox="0 0 32 32">
<title>question</title>
<path d="M16 1.792c-8.087 0-14.667 6.372-14.667 14.208s6.58 14.208 14.667 14.208 14.667-6.372 14.667-14.208-6.58-14.208-14.667-14.208zM16 24.035c-0.761 0-1.375-0.616-1.375-1.375s0.613-1.375 1.375-1.375c0.759 0 1.375 0.616 1.375 1.375s-0.616 1.375-1.375 1.375zM19.429 15.263c-0.215 0.196-0.816 0.547-1.785 1.039-0.417 0.348-0.671 0.635-0.735 1.017 0.001 0.077 0.007 0.82 0.012 1.444 0.003 0.516 0.003 0.957 0 1.004 0 0.009-0.007 0.016-0.007 0.025l-1.22-0.855c-0.367-0.257-0.56-0.573-0.611-0.973-0.003-0.812 0.003-0.861 0.020-0.953 0.192-1.159 1.032-1.913 1.621-2.299 0.355-0.231 1.331-0.699 1.484-0.817 0.373-0.344 0.552-0.757 0.54-1.28-0.040-1.636-1.041-2.573-2.749-2.573-0.429 0-1.241 0.057-1.867 0.445-0.593 0.371-0.883 0.973-0.881 1.847l-0.001 1.777c0 0.019-0.009 0.032-0.009 0.048l-1.213-0.848c-0.367-0.256-0.559-0.573-0.609-0.972v-0.005c-0.001-1.916 0.949-2.908 1.748-3.404 0.961-0.596 2.072-0.721 2.833-0.721 2.677 0 4.519 1.752 4.583 4.363 0.023 1.047-0.376 1.977-1.153 2.692z"></path>
</svg>
