<!-- Generated by IcoMoon.io -->
<svg version="1.1" xmlns="http://www.w3.org/2000/svg" width="24" height="24" viewBox="0 0 24 24">
<title>receipt</title>
<path fill="#444" d="M21.625 1h-19.25c-0.759 0-1.375 0.615-1.375 1.375v17.875c0 0.366 0.144 0.715 0.403 0.972l1.375 1.375c0.268 0.268 0.62 0.403 0.972 0.403s0.704-0.135 0.972-0.403l1.778-1.778 1.778 1.778c0.268 0.268 0.62 0.403 0.972 0.403s0.704-0.135 0.972-0.403l1.778-1.778 1.778 1.778c0.268 0.268 0.62 0.403 0.972 0.403s0.704-0.135 0.972-0.403l1.778-1.778 1.778 1.778c0.268 0.268 0.62 0.403 0.972 0.403s0.704-0.135 0.972-0.403l1.375-1.375c0.259-0.257 0.403-0.606 0.403-0.972v-17.875c0-0.76-0.616-1.375-1.375-1.375zM21.625 20.25l-1.375 1.375-2.75-2.75-2.75 2.75-2.75-2.75-2.75 2.75-2.75-2.75-2.75 2.75-1.375-1.375v-17.875h19.25v17.875zM10.294 12.030c-0.128-0.3-0.315-0.557-0.557-0.769-0.242-0.21-0.531-0.397-0.875-0.557-0.341-0.155-0.729-0.318-1.165-0.485-0.33-0.118-0.612-0.231-0.848-0.335-0.234-0.104-0.432-0.22-0.594-0.344-0.158-0.124-0.275-0.26-0.352-0.414-0.076-0.155-0.114-0.333-0.114-0.532 0-0.388 0.17-0.672 0.511-0.855 0.344-0.184 0.748-0.278 1.207-0.278 0.312 0 0.487 0.008 0.795 0.047 0.767 0.092 1.414-0.298 1.693-1.016-0.098-0.034-0.228-0.077-0.401-0.122-0.168-0.048-0.366-0.091-0.59-0.132-0.221-0.044-0.466-0.080-0.725-0.107-0.029-0.003-0.058-0.001-0.087-0.004l0.313-0.447-1.094-0.004c-0.403 0.003-0.685 0.149-0.917 0.479l-0.028 0.040c-0.558 0.11-1.038 0.305-1.42 0.611-0.599 0.473-0.899 1.121-0.899 1.932 0 0.414 0.070 0.759 0.213 1.044 0.14 0.28 0.329 0.523 0.564 0.723 0.236 0.201 0.516 0.373 0.839 0.52 0.325 0.149 0.663 0.292 1.018 0.433 0.73 0.296 1.254 0.561 1.57 0.796 0.318 0.235 0.479 0.554 0.479 0.953 0 0.388-0.162 0.671-0.487 0.848-0.325 0.175-0.826 0.265-1.499 0.265-0.454 0-0.714-0.007-1.159-0.089-0.747-0.135-1.427 0.259-1.679 0.975 0.165 0.069 0.479 0.172 0.938 0.307 0.393 0.117 0.949 0.173 1.605 0.19l-0.201 0.287h1.096c0.373-0.003 0.634-0.143 0.855-0.422 0.488-0.109 0.908-0.275 1.246-0.509 0.627-0.433 0.943-1.074 0.943-1.922 0-0.437-0.065-0.804-0.194-1.104zM12.642 6.042c0.231 0.33 0.499 0.457 0.902 0.458h6.706l-0.642-0.916c-0.231-0.33-0.499-0.457-0.902-0.459h-6.706l0.642 0.917zM12.642 8.792c0.231 0.33 0.499 0.457 0.902 0.458h6.706l-0.642-0.916c-0.231-0.33-0.499-0.457-0.902-0.459h-6.706l0.642 0.917zM12.642 11.542c0.231 0.33 0.499 0.457 0.902 0.458h6.706l-0.642-0.916c-0.231-0.33-0.499-0.457-0.902-0.459h-6.706l0.642 0.917zM12.642 15.667c0.231 0.33 0.499 0.457 0.902 0.458h6.706l-0.642-0.916c-0.231-0.33-0.499-0.457-0.902-0.459h-6.706l0.642 0.917z"></path>
</svg>
