<!-- Generated by IcoMoon.io -->
<svg version="1.1" xmlns="http://www.w3.org/2000/svg" width="24" height="24" viewBox="0 0 24 24">
<title>receipt</title>
<path d="M21.625 1h-19.25c-0.759 0-1.375 0.615-1.375 1.375v17.875c0 0.365 0.145 0.715 0.403 0.973l1.375 1.375c0.268 0.267 0.62 0.402 0.972 0.402s0.704-0.135 0.972-0.402l1.778-1.779 1.778 1.778c0.268 0.268 0.62 0.403 0.972 0.403s0.704-0.135 0.972-0.402l1.778-1.779 1.778 1.778c0.268 0.268 0.62 0.403 0.972 0.403s0.704-0.135 0.972-0.402l1.778-1.778 1.778 1.778c0.268 0.267 0.62 0.402 0.972 0.402s0.704-0.135 0.972-0.402l1.375-1.375c0.258-0.258 0.403-0.608 0.403-0.973v-17.875c0-0.76-0.616-1.375-1.375-1.375zM21.625 20.25l-1.375 1.375-2.75-2.75-2.75 2.75-2.75-2.75-2.75 2.75-2.75-2.75-2.75 2.75-1.375-1.375v-17.875h19.25v17.875zM10.293 12.031c-0.128-0.301-0.314-0.558-0.556-0.77s-0.531-0.397-0.875-0.558c-0.34-0.155-0.729-0.318-1.165-0.484-0.33-0.117-0.612-0.231-0.847-0.335-0.235-0.105-0.433-0.22-0.594-0.344-0.157-0.124-0.275-0.261-0.352-0.413-0.077-0.156-0.115-0.334-0.115-0.532 0-0.388 0.17-0.673 0.512-0.855 0.343-0.184 0.749-0.278 1.207-0.278 0.312 0 0.487 0.009 0.795 0.048 0.767 0.091 1.414-0.3 1.692-1.017-0.097-0.035-0.227-0.077-0.4-0.122-0.168-0.050-0.367-0.093-0.592-0.135-0.221-0.043-0.465-0.079-0.724-0.105-0.029-0.003-0.057-0.002-0.086-0.006l0.313-0.447-1.095-0.002c-0.403 0.002-0.684 0.147-0.916 0.477l-0.027 0.040c-0.559 0.11-1.038 0.306-1.42 0.61-0.6 0.474-0.9 1.121-0.9 1.932 0 0.414 0.070 0.759 0.213 1.044 0.14 0.28 0.329 0.522 0.563 0.724 0.237 0.2 0.516 0.373 0.839 0.52 0.325 0.149 0.663 0.291 1.017 0.433 0.73 0.295 1.254 0.561 1.571 0.796s0.478 0.555 0.478 0.953c0 0.389-0.162 0.672-0.487 0.849-0.322 0.175-0.825 0.265-1.497 0.265-0.454 0-0.713-0.007-1.16-0.090-0.747-0.134-1.426 0.259-1.678 0.975 0.165 0.069 0.478 0.172 0.937 0.307 0.394 0.116 0.949 0.173 1.605 0.189l-0.201 0.287 1.096 0.003c0.372-0.003 0.634-0.144 0.855-0.422 0.489-0.108 0.908-0.275 1.245-0.509 0.628-0.434 0.943-1.074 0.943-1.923 0-0.439-0.064-0.806-0.194-1.105zM12.642 6.042c0.231 0.33 0.5 0.457 0.902 0.458h6.706l-0.642-0.916c-0.231-0.33-0.5-0.456-0.902-0.459h-6.706l0.642 0.917zM12.642 8.792c0.231 0.33 0.5 0.457 0.902 0.458h6.706l-0.642-0.916c-0.231-0.33-0.5-0.456-0.902-0.459h-6.706l0.642 0.917zM12.642 11.542c0.231 0.33 0.5 0.457 0.902 0.458h6.706l-0.642-0.916c-0.231-0.33-0.5-0.456-0.902-0.459h-6.706l0.642 0.917zM12.642 15.667c0.231 0.33 0.5 0.457 0.902 0.458h6.706l-0.642-0.916c-0.231-0.33-0.5-0.456-0.902-0.459h-6.706l0.642 0.917z"></path>
</svg>
