<!-- Generated by IcoMoon.io -->
<svg version="1.1" xmlns="http://www.w3.org/2000/svg" width="32" height="32" viewBox="0 0 32 32">
<title>receipt</title>
<path d="M28.833 1.333h-25.667c-1.012 0-1.833 0.82-1.833 1.833v23.833c0 0.487 0.193 0.953 0.537 1.297l1.833 1.833c0.357 0.356 0.827 0.536 1.296 0.536s0.939-0.18 1.296-0.536l2.371-2.372 2.371 2.371c0.357 0.357 0.827 0.537 1.296 0.537s0.939-0.18 1.296-0.536l2.371-2.372 2.371 2.371c0.357 0.357 0.827 0.537 1.296 0.537s0.939-0.18 1.296-0.536l2.371-2.371 2.371 2.371c0.357 0.356 0.827 0.536 1.296 0.536s0.939-0.18 1.296-0.536l1.833-1.833c0.344-0.344 0.537-0.811 0.537-1.297v-23.833c0-1.013-0.821-1.833-1.833-1.833zM28.833 27l-1.833 1.833-3.667-3.667-3.667 3.667-3.667-3.667-3.667 3.667-3.667-3.667-3.667 3.667-1.833-1.833v-23.833h25.667v23.833zM13.724 16.041c-0.171-0.401-0.419-0.744-0.741-1.027-0.324-0.281-0.708-0.529-1.167-0.744-0.453-0.207-0.972-0.424-1.553-0.645-0.44-0.156-0.816-0.308-1.129-0.447-0.313-0.14-0.577-0.293-0.792-0.459-0.209-0.165-0.367-0.348-0.469-0.551-0.103-0.208-0.153-0.445-0.153-0.709 0-0.517 0.227-0.897 0.683-1.14 0.457-0.245 0.999-0.371 1.609-0.371 0.416 0 0.649 0.012 1.060 0.064 1.023 0.121 1.885-0.4 2.256-1.356-0.129-0.047-0.303-0.103-0.533-0.163-0.224-0.067-0.489-0.124-0.789-0.18-0.295-0.057-0.62-0.105-0.965-0.14-0.039-0.004-0.076-0.003-0.115-0.008l0.417-0.596-1.46-0.003c-0.537 0.003-0.912 0.196-1.221 0.636l-0.036 0.053c-0.745 0.147-1.384 0.408-1.893 0.813-0.8 0.632-1.2 1.495-1.2 2.576 0 0.552 0.093 1.012 0.284 1.392 0.187 0.373 0.439 0.696 0.751 0.965 0.316 0.267 0.688 0.497 1.119 0.693 0.433 0.199 0.884 0.388 1.356 0.577 0.973 0.393 1.672 0.748 2.095 1.061s0.637 0.74 0.637 1.271c0 0.519-0.216 0.896-0.649 1.132-0.429 0.233-1.1 0.353-1.996 0.353-0.605 0-0.951-0.009-1.547-0.12-0.996-0.179-1.901 0.345-2.237 1.3 0.22 0.092 0.637 0.229 1.249 0.409 0.525 0.155 1.265 0.231 2.14 0.252l-0.268 0.383 1.461 0.004c0.496-0.004 0.845-0.192 1.14-0.563 0.652-0.144 1.211-0.367 1.66-0.679 0.837-0.579 1.257-1.432 1.257-2.564 0-0.585-0.085-1.075-0.259-1.473zM16.856 8.056c0.308 0.44 0.667 0.609 1.203 0.611h8.941l-0.856-1.221c-0.308-0.44-0.667-0.608-1.203-0.612h-8.941l0.856 1.223zM16.856 11.723c0.308 0.44 0.667 0.609 1.203 0.611h8.941l-0.856-1.221c-0.308-0.44-0.667-0.608-1.203-0.612h-8.941l0.856 1.223zM16.856 15.389c0.308 0.44 0.667 0.609 1.203 0.611h8.941l-0.856-1.221c-0.308-0.44-0.667-0.608-1.203-0.612h-8.941l0.856 1.223zM16.856 20.889c0.308 0.44 0.667 0.609 1.203 0.611h8.941l-0.856-1.221c-0.308-0.44-0.667-0.608-1.203-0.612h-8.941l0.856 1.223z"></path>
</svg>
