<!-- Generated by IcoMoon.io -->
<svg version="1.1" xmlns="http://www.w3.org/2000/svg" width="32" height="32" viewBox="0 0 32 32">
<path d="M30.549 17.504c-0.384-0.695-1.275-1.505-2.531-1.505-0.449 0-0.921 0.101-1.403 0.317-0.949 0.423-3.464 1.617-5.076 2.391-0.367 0.243-0.917 0.683-0.984 1.143l-0.201 1.424c0.084-0.021 0.169-0.024 0.256-0.063 0 0 5.285-2.539 6.761-3.195 0.063-0.028 0.131-0.055 0.212-0.055 0.087 0 0.175 0.039 0.275 0.195l-9.111 6.677c-0.512 0.375-1.153 0.588-1.803 0.588-0.155 0-0.309-0.016-0.46-0.031l-8.867-1.404c-0.221 0-0.436 0.071-0.608 0.208l-1.697 1.513c-0.412 0.353-0.569 0.755-0.513 1.296 0 0 0.172 1.487 0.224 1.44l2.925-2.531 8.24 1.317c0.256 0.036 0.513 0.060 0.771 0.060 1.032 0 2.061-0.339 2.896-0.945l10.44-7.643c0.371-0.285 0.479-0.785 0.253-1.199z"></path>
<path d="M11.132 18.851c0.432 0 0.84 0.057 1.201 0.169l4.309 1.56c-0.1 0.069-0.232 0.12-0.404 0.148-0.581 0.088-1.357 0.14-2.305 0.14-0.843 0-2.232-0.129-2.547-0.145l0.707 1.271c0.236 0.421 0.564 0.625 1.003 0.711 0.287 0.008 0.571 0.024 0.823 0.024 1.068 0 1.949-0.055 2.611-0.164 1.845-0.289 2.369-1.915 2.276-2.931-0.040-0.388-0.299-0.705-0.661-0.817l-5.276-1.588c-0.529-0.165-1.108-0.248-1.721-0.248-2.096 0-3.872 0.915-4.067 1.011l-5.72 3.461c-0.039 0.023-0.025 0.047-0.025 0.047l1.344 0.601c0.471 0.208 0.88 0.18 1.32-0.057l4.012-2.419c0.157-0.073 1.589-0.773 3.121-0.773z"></path>
<path d="M23.925 13.347h3.208c0.561-0.001 0.935-0.177 1.256-0.637l0.893-1.277h-7.508l0.893 1.277c0.323 0.459 0.697 0.635 1.257 0.637z"></path>
<path d="M8.031 14.78c2.715 0 4.935-2.025 5.289-4.643h15.964l-0.893-1.277c-0.323-0.46-0.696-0.636-1.257-0.637h-13.885c-0.545-2.384-2.669-4.167-5.217-4.167-2.961 0-5.361 2.4-5.361 5.361s2.4 5.363 5.361 5.363zM8.031 5.971c1.904 0 3.447 1.544 3.447 3.447 0 1.904-1.544 3.447-3.447 3.447s-3.448-1.541-3.448-3.445c0-1.904 1.544-3.448 3.448-3.448z"></path>
</svg>
