<!-- Generated by IcoMoon.io -->
<svg version="1.1" xmlns="http://www.w3.org/2000/svg" width="24" height="24" viewBox="0 0 24 24">
<title>runnig_timer</title>
<path fill="#444" d="M15.323 1l-0.642 0.916c-0.231 0.331-0.499 0.458-0.902 0.459h-3.701c-0.403-0.001-0.671-0.128-0.902-0.459l-0.642-0.916h6.79zM18.199 2.097l-0.194 1.101c-0.071 0.399 0.029 0.678 0.313 0.962l2.618 2.618c0.286 0.283 0.565 0.384 0.962 0.313l1.101-0.194-4.802-4.801zM1 6.899l1.1 0.194c0.399 0.071 0.677-0.029 0.962-0.313l2.618-2.618c0.285-0.285 0.384-0.564 0.313-0.962l-0.194-1.101-4.8 4.801zM11.312 8.076v6.244l0.916-0.642c0.33-0.23 0.457-0.499 0.459-0.902v-6.244l-0.917 0.642c-0.33 0.231-0.457 0.5-0.458 0.902zM22.099 13.070c0 5.486-4.521 9.93-10.099 9.93-5.577 0-10.099-4.444-10.099-9.93 0-2.45 0.912-4.685 2.409-6.414l0.962-0.982c1.628-1.427 3.726-2.347 6.040-2.5h1.375c2.314 0.153 4.412 1.072 6.040 2.5l0.962 0.982c1.497 1.73 2.409 3.964 2.409 6.414zM20.724 13.070c0-4.718-3.913-8.555-8.724-8.555s-8.724 3.839-8.724 8.555 3.913 8.555 8.724 8.555 8.724-3.838 8.724-8.555z"></path>
</svg>
