<!-- Generated by IcoMoon.io -->
<svg version="1.1" xmlns="http://www.w3.org/2000/svg" width="32" height="32" viewBox="0 0 32 32">
<title>safe</title>
<path d="M27 10.808v8.323c0 0.539-0.197 0.915-0.635 1.224l-1.199 0.836v-8.323c0-0.539 0.197-0.915 0.636-1.225l1.197-0.835zM8.668 1.333c-4.052 0-7.335 3.285-7.335 7.333v22h22c4.051 0 7.333-3.285 7.333-7.333v-22h-21.999zM28.833 23.333c0 3.033-2.467 5.5-5.5 5.5h-20.167v-20.167c0-3.033 2.467-5.5 5.501-5.5h20.165v20.167zM21.323 14.793l-0.856-0.144c-0.088-0.289-0.204-0.575-0.353-0.848l0.503-0.701c0.2-0.281 0.168-0.657-0.073-0.904l-0.737-0.732c-0.135-0.137-0.309-0.212-0.497-0.212-0.144 0-0.285 0.047-0.404 0.132l-0.711 0.5c-0.277-0.145-0.565-0.265-0.867-0.355l-0.141-0.849c-0.055-0.343-0.343-0.584-0.685-0.584h-1.047c-0.343 0-0.632 0.241-0.689 0.581l-0.151 0.861c-0.289 0.097-0.573 0.215-0.841 0.361l-0.696-0.504c-0.123-0.085-0.26-0.125-0.404-0.125-0.191 0-0.367 0.069-0.499 0.203l-0.739 0.741c-0.241 0.239-0.275 0.615-0.075 0.897l0.511 0.715c-0.143 0.276-0.257 0.559-0.343 0.851l-0.845 0.141c-0.34 0.055-0.585 0.345-0.585 0.688v1.041c0 0.344 0.245 0.633 0.581 0.692l0.865 0.144c0.089 0.297 0.205 0.575 0.356 0.848l-0.5 0.693c-0.2 0.281-0.168 0.659 0.075 0.905l0.74 0.733c0.132 0.137 0.305 0.211 0.493 0.211 0.144 0 0.285-0.047 0.405-0.135l0.716-0.509c0.259 0.139 0.537 0.252 0.815 0.339l0.143 0.855c0.057 0.34 0.351 0.58 0.695 0.58h1.041c0.343 0 0.636-0.24 0.695-0.58l0.144-0.857c0.289-0.087 0.573-0.204 0.844-0.349l0.704 0.499c0.117 0.085 0.259 0.135 0.404 0.135 0.187 0 0.36-0.076 0.497-0.204l0.736-0.741c0.243-0.247 0.277-0.621 0.077-0.904l-0.504-0.701c0.144-0.276 0.26-0.549 0.348-0.849l0.855-0.141c0.336-0.059 0.581-0.348 0.581-0.691v-1.044c0-0.336-0.245-0.624-0.581-0.681zM16 19.288c-1.815 0-3.284-1.475-3.284-3.288s1.469-3.288 3.284-3.288 3.284 1.475 3.284 3.288-1.469 3.288-3.284 3.288z"></path>
</svg>
