<!-- Generated by IcoMoon.io -->
<svg version="1.1" xmlns="http://www.w3.org/2000/svg" width="24" height="24" viewBox="0 0 24 24">
<title>safe</title>
<path fill="#444" d="M20.249 8.105v6.247c0 0.403-0.147 0.685-0.477 0.916l-0.898 0.628v-6.247c0-0.403 0.147-0.685 0.479-0.917l0.896-0.627zM6.5 1c-3.037 0-5.5 2.461-5.5 5.5v16.5h16.5c3.036 0 5.5-2.461 5.5-5.5v-16.5h-16.5zM21.625 17.5c0 2.274-1.851 4.125-4.125 4.125h-15.125v-15.125c0-2.274 1.851-4.125 4.125-4.125h15.125v15.125zM15.99 11.094l-0.641-0.109c-0.066-0.217-0.154-0.43-0.264-0.632l0.377-0.531c0.15-0.209 0.125-0.492-0.056-0.674l-0.554-0.553c-0.099-0.1-0.23-0.154-0.371-0.154-0.109 0-0.215 0.032-0.304 0.095l-0.529 0.378c-0.209-0.11-0.426-0.201-0.653-0.268l-0.107-0.634c-0.040-0.257-0.257-0.44-0.514-0.44h-0.785c-0.257 0-0.474 0.184-0.517 0.437l-0.111 0.646c-0.217 0.069-0.429 0.157-0.63 0.268l-0.524-0.375c-0.089-0.063-0.195-0.096-0.304-0.096-0.14 0-0.274 0.055-0.373 0.153l-0.553 0.556c-0.181 0.18-0.206 0.463-0.056 0.675l0.381 0.536c-0.107 0.203-0.194 0.414-0.257 0.634l-0.634 0.106c-0.254 0.041-0.44 0.26-0.44 0.516v0.785c0 0.259 0.184 0.476 0.439 0.52l0.646 0.109c0.067 0.217 0.155 0.43 0.267 0.632l-0.373 0.523c-0.151 0.209-0.127 0.494 0.056 0.675l0.554 0.554c0.099 0.1 0.23 0.153 0.371 0.153 0.109 0 0.214-0.032 0.305-0.098l0.536-0.38c0.194 0.102 0.401 0.188 0.611 0.253l0.107 0.639c0.043 0.254 0.261 0.436 0.518 0.436h0.784c0.257 0 0.474-0.183 0.518-0.436l0.109-0.642c0.219-0.066 0.43-0.154 0.632-0.263l0.529 0.377c0.089 0.065 0.195 0.098 0.304 0.098 0.14 0 0.271-0.054 0.371-0.154l0.554-0.554c0.182-0.181 0.205-0.463 0.055-0.674l-0.377-0.531c0.109-0.203 0.195-0.414 0.263-0.634l0.639-0.106c0.254-0.044 0.437-0.261 0.437-0.518v-0.788c0-0.25-0.184-0.467-0.437-0.51zM12 14.464c-1.36 0-2.464-1.103-2.464-2.464s1.104-2.464 2.464-2.464 2.464 1.103 2.464 2.464-1.105 2.464-2.464 2.464z"></path>
</svg>
