<!-- Generated by IcoMoon.io -->
<svg version="1.1" xmlns="http://www.w3.org/2000/svg" width="24" height="24" viewBox="0 0 24 24">
<title>safe</title>
<path d="M20.25 8.106v6.242c0 0.404-0.148 0.686-0.476 0.918l-0.899 0.627v-6.242c0-0.404 0.148-0.686 0.477-0.919l0.898-0.626zM6.501 1c-3.039 0-5.501 2.464-5.501 5.5v16.5h16.5c3.038 0 5.5-2.464 5.5-5.5v-16.5h-16.499zM21.625 17.5c0 2.275-1.85 4.125-4.125 4.125h-15.125v-15.125c0-2.275 1.85-4.125 4.126-4.125h15.124v15.125zM15.992 11.095l-0.642-0.108c-0.066-0.217-0.153-0.431-0.265-0.636l0.377-0.526c0.15-0.211 0.126-0.493-0.055-0.678l-0.553-0.549c-0.101-0.103-0.232-0.159-0.373-0.159-0.108 0-0.214 0.035-0.303 0.099l-0.533 0.375c-0.208-0.109-0.424-0.199-0.65-0.266l-0.106-0.637c-0.041-0.257-0.257-0.438-0.514-0.438h-0.785c-0.257 0-0.474 0.181-0.517 0.436l-0.113 0.646c-0.217 0.073-0.43 0.161-0.631 0.271l-0.522-0.378c-0.092-0.064-0.195-0.094-0.303-0.094-0.143 0-0.275 0.052-0.374 0.152l-0.554 0.556c-0.181 0.179-0.206 0.461-0.056 0.673l0.383 0.536c-0.107 0.207-0.193 0.419-0.257 0.638l-0.634 0.106c-0.255 0.041-0.439 0.259-0.439 0.516v0.781c0 0.258 0.184 0.475 0.436 0.519l0.649 0.108c0.067 0.223 0.154 0.431 0.267 0.636l-0.375 0.52c-0.15 0.211-0.126 0.494 0.056 0.679l0.555 0.55c0.099 0.103 0.229 0.158 0.37 0.158 0.108 0 0.214-0.035 0.304-0.101l0.537-0.382c0.194 0.104 0.403 0.189 0.611 0.254l0.107 0.641c0.043 0.255 0.263 0.435 0.521 0.435h0.781c0.257 0 0.477-0.18 0.521-0.435l0.108-0.643c0.217-0.065 0.43-0.153 0.633-0.262l0.528 0.374c0.088 0.064 0.194 0.101 0.303 0.101 0.14 0 0.27-0.057 0.373-0.153l0.552-0.556c0.182-0.185 0.208-0.466 0.058-0.678l-0.378-0.526c0.108-0.207 0.195-0.412 0.261-0.637l0.641-0.106c0.252-0.044 0.436-0.261 0.436-0.518v-0.783c0-0.252-0.184-0.468-0.436-0.511zM12 14.466c-1.361 0-2.463-1.106-2.463-2.466s1.102-2.466 2.463-2.466 2.463 1.106 2.463 2.466-1.102 2.466-2.463 2.466z"></path>
</svg>
