<!-- Generated by IcoMoon.io -->
<svg version="1.1" xmlns="http://www.w3.org/2000/svg" width="24" height="24" viewBox="0 0 24 24">
<title>save</title>
<path fill="#444" d="M22.597 6.752l-5.347-5.349c-0.257-0.259-0.608-0.403-0.972-0.403h-11.764c-1.937 0-3.513 1.576-3.513 3.513v14.975c0 1.936 1.576 3.512 3.513 3.512h14.974c1.937 0 3.513-1.576 3.513-3.513v-11.763c0-0.366-0.144-0.715-0.403-0.972zM17.5 21.625h-11v-6.875h11v6.875zM21.625 19.487c0 1.181-0.957 2.138-2.138 2.138h-0.612v-7.562c0-0.38-0.308-0.688-0.688-0.688h-12.375c-0.38 0-0.688 0.308-0.688 0.688v7.562h-0.612c-1.181 0-2.138-0.957-2.138-2.138v-14.974c0-1.181 0.957-2.138 2.138-2.138h0.612v6.188c0 0.38 0.308 0.688 0.688 0.688h7.7l-0.642-0.917c-0.193-0.275-0.43-0.385-0.733-0.424l-0.688-0.034h-4.95v-5.5h9.778l5.347 5.349v11.763z"></path>
</svg>
