<!-- Generated by IcoMoon.io -->
<svg version="1.1" xmlns="http://www.w3.org/2000/svg" width="32" height="32" viewBox="0 0 32 32">
<title>scissors</title>
<path d="M27.368 28.281l-8.807-8.849c-0.357-0.361-0.356-0.941 0.003-1.303 0.359-0.353 0.936-0.355 1.299 0.011l10.2 10.245c0.007 0.016 0.013 0.025 0.020 0.040l-1.432 0.245c-0.517 0.097-0.911-0.032-1.283-0.389zM30.061 2.316c-0.001-0.001-0.001-0.003-0.007-0.004-0.001-0.001-0.003-0.001-0.004-0.003l0.011 0.007zM10.844 22.967c-0.024 0.025-0.053 0.029-0.075 0.052 0.532 0.783 0.848 1.739 0.848 2.755 0 2.707-2.173 4.893-4.853 4.893s-4.855-2.187-4.855-4.893c0-2.696 2.173-4.883 4.855-4.883 1.016 0 1.957 0.316 2.735 0.848 0.016-0.016 0.025-0.041 0.043-0.064l5.637-5.675-5.637-5.675c-0.017-0.023-0.027-0.048-0.043-0.064-0.777 0.531-1.72 0.848-2.735 0.848-2.68 0-4.855-2.187-4.855-4.885 0-2.704 2.173-4.891 4.855-4.891 2.679 0 4.853 2.187 4.853 4.891 0 1.019-0.315 1.973-0.848 2.756 0.021 0.024 0.051 0.028 0.075 0.053l5.627 5.668 10.887-10.968c0.363-0.34 0.755-0.463 1.256-0.375l1.437 0.247 0.040-0.035c-0.012 0.009-0.015 0.028-0.028 0.045l-19.219 19.351zM9.783 6.224c0-1.687-1.356-3.057-3.020-3.057s-3.021 1.371-3.021 3.057c0 1.688 1.357 3.052 3.021 3.052s3.020-1.364 3.020-3.052zM9.783 25.773c0-1.687-1.356-3.049-3.020-3.049s-3.021 1.363-3.021 3.049c0 1.688 1.357 3.060 3.021 3.060s3.020-1.372 3.020-3.060z"></path>
</svg>
