<!-- Generated by IcoMoon.io -->
<svg version="1.1" xmlns="http://www.w3.org/2000/svg" width="24" height="24" viewBox="0 0 24 24">
<title>scissors</title>
<path fill="#444" d="M20.913 21.627l-6.906-6.937c-0.279-0.28-0.277-0.737 0.003-1.016s0.736-0.28 1.016 0.003l7.998 8.038c0.007 0.009 0.010 0.019 0.017 0.027l-1.123 0.195c-0.404 0.072-0.716-0.026-1.006-0.311zM23.024 1.273c-0.001-0.001-0.001-0.003-0.003-0.004s-0.003-0.001-0.004-0.003l0.007 0.007zM7.958 17.464c-0.017 0.019-0.040 0.024-0.060 0.039 0.418 0.617 0.666 1.36 0.666 2.162 0 2.119-1.703 3.835-3.805 3.835s-3.805-1.716-3.805-3.835c0-2.116 1.703-3.832 3.805-3.832 0.796 0 1.534 0.249 2.145 0.67 0.013-0.017 0.019-0.036 0.033-0.052l4.419-4.45-4.417-4.451c-0.016-0.014-0.022-0.034-0.034-0.052-0.611 0.421-1.348 0.67-2.145 0.67-2.102 0-3.805-1.716-3.805-3.835 0-2.116 1.703-3.832 3.805-3.832 2.1 0 3.804 1.716 3.804 3.832 0 0.804-0.247 1.547-0.666 2.163 0.019 0.017 0.042 0.023 0.060 0.040l4.412 4.443 8.536-8.599c0.286-0.266 0.591-0.364 0.985-0.295l1.128 0.198 0.030-0.030c-0.009 0.010-0.012 0.023-0.022 0.032l-15.068 15.179zM7.125 4.332c0-1.321-1.062-2.395-2.368-2.395s-2.368 1.074-2.368 2.395c0 1.323 1.062 2.398 2.368 2.398s2.368-1.075 2.368-2.398zM7.125 19.665c0-1.321-1.062-2.395-2.366-2.395-1.305 0-2.368 1.074-2.368 2.395 0 1.323 1.062 2.398 2.368 2.398 1.304 0 2.366-1.075 2.366-2.398z"></path>
</svg>
