<!-- Generated by IcoMoon.io -->
<svg version="1.1" xmlns="http://www.w3.org/2000/svg" width="32" height="32" viewBox="0 0 32 32">
<title>servers</title>
<path d="M7.749 9.584c-0.476 0-0.953-0.201-1.301-0.533-0.331-0.355-0.531-0.832-0.531-1.311 0-0.481 0.201-0.96 0.532-1.311 0.696-0.683 1.924-0.683 2.603 0 0.331 0.352 0.532 0.829 0.532 1.311 0 0.479-0.201 0.957-0.532 1.309-0.349 0.332-0.825 0.535-1.303 0.535zM30.667 1.333v7.333c0 3.032-2.468 5.5-5.5 5.5h-23.833v-7.333c0-3.032 2.468-5.5 5.501-5.5h23.832zM28.833 3.167h-21.999c-2.024 0-3.668 1.645-3.668 3.667v5.5h22c2.023 0 3.667-1.645 3.667-3.667v-5.5zM9.052 25.549c0.331-0.353 0.532-0.831 0.532-1.309 0-0.481-0.201-0.96-0.532-1.311-0.679-0.683-1.907-0.683-2.603 0-0.331 0.352-0.532 0.829-0.532 1.311 0 0.479 0.201 0.957 0.532 1.309 0.348 0.332 0.825 0.533 1.301 0.533s0.952-0.201 1.301-0.533zM30.667 17.833v7.333c0 3.032-2.468 5.5-5.5 5.5h-23.833v-7.333c0-3.032 2.468-5.5 5.501-5.5h23.832zM28.833 19.667h-21.999c-2.024 0-3.668 1.645-3.668 3.667v5.5h22c2.023 0 3.667-1.645 3.667-3.667v-5.5z"></path>
</svg>
