<!-- Generated by IcoMoon.io -->
<svg version="1.1" xmlns="http://www.w3.org/2000/svg" width="24" height="24" viewBox="0 0 24 24">
<title>servers</title>
<path fill="#444" d="M5.813 7.187c-0.358 0-0.715-0.151-0.976-0.4-0.248-0.264-0.399-0.623-0.399-0.983 0-0.362 0.151-0.719 0.399-0.983 0.523-0.511 1.444-0.511 1.952 0 0.248 0.264 0.399 0.622 0.399 0.983 0 0.36-0.151 0.718-0.399 0.983-0.261 0.249-0.619 0.4-0.976 0.4zM23 1v5.5c0 2.274-1.851 4.125-4.125 4.125h-17.875v-5.5c0-2.274 1.851-4.125 4.126-4.125h17.874zM21.625 2.375h-16.499c-1.518 0-2.751 1.233-2.751 2.75v4.125h16.5c1.517 0 2.75-1.233 2.75-2.75v-4.125zM6.789 19.162c0.248-0.264 0.399-0.623 0.399-0.983 0-0.362-0.151-0.719-0.399-0.983-0.509-0.511-1.43-0.511-1.952 0-0.248 0.263-0.399 0.622-0.399 0.983 0 0.36 0.151 0.718 0.399 0.983 0.261 0.249 0.619 0.4 0.976 0.4s0.715-0.151 0.976-0.4zM23 13.375v5.5c0 2.274-1.851 4.125-4.125 4.125h-17.875v-5.5c0-2.274 1.851-4.125 4.126-4.125h17.874zM21.625 14.75h-16.499c-1.518 0-2.751 1.233-2.751 2.75v4.125h16.5c1.517 0 2.75-1.233 2.75-2.75v-4.125z"></path>
</svg>
