<!-- Generated by IcoMoon.io -->
<svg version="1.1" xmlns="http://www.w3.org/2000/svg" width="24" height="24" viewBox="0 0 24 24">
<title>share_left-right</title>
<path fill="#444" d="M18.833 13.495c-2.029 0-3.706 1.501-4.032 3.456h-11.429l2.761-1.932c0.325-0.231 0.473-0.488 0.473-0.887v-1.112l-5.088 3.564c-0.096 0.070-0.153 0.148-0.213 0.227-0.116 0.148-0.197 0.313-0.221 0.512l-0.016 0.313 0.016 0.314c0.023 0.182 0.089 0.333 0.186 0.474v-0.001c0.072 0.092 0.138 0.186 0.253 0.266l5.084 3.559v-1.112c0-0.4-0.146-0.656-0.474-0.887l-2.759-1.931h11.429c0.325 1.957 2.002 3.456 4.032 3.456 2.26 0 4.1-1.857 4.1-4.14s-1.84-4.14-4.1-4.14zM18.833 20.408c-1.51 0-2.733-1.241-2.733-2.773s1.223-2.773 2.733-2.773 2.733 1.241 2.733 2.773-1.223 2.773-2.733 2.773zM22.917 6.050c-0.023-0.182-0.089-0.333-0.186-0.474v0.001c-0.072-0.092-0.138-0.186-0.253-0.266l-5.084-3.56v1.112c0 0.4 0.146 0.656 0.474 0.887l2.759 1.931h-11.429c-0.325-1.956-2.002-3.455-4.032-3.455-2.26 0-4.1 1.857-4.1 4.14s1.84 4.14 4.1 4.14c2.029 0 3.706-1.501 4.032-3.456h11.429l-2.761 1.932c-0.327 0.231-0.474 0.488-0.474 0.887v1.111l5.087-3.563c0.096-0.070 0.153-0.148 0.213-0.227 0.116-0.148 0.197-0.313 0.221-0.512l0.019-0.313-0.016-0.314zM5.167 9.138c-1.51 0-2.733-1.241-2.733-2.773s1.223-2.773 2.733-2.773 2.733 1.241 2.733 2.773-1.223 2.773-2.733 2.773z"></path>
</svg>
