<!-- Generated by IcoMoon.io -->
<svg version="1.1" xmlns="http://www.w3.org/2000/svg" width="32" height="32" viewBox="0 0 32 32">
<path d="M25.167 10.445c-2.723 0-4.972 2.011-5.411 4.639h-15.331l3.7-2.588c0.44-0.311 0.639-0.656 0.639-1.195v-1.492l-6.827 4.781c-0.129 0.091-0.204 0.199-0.287 0.3-0.156 0.199-0.261 0.421-0.295 0.688l-0.023 0.423 0.024 0.424c0.029 0.24 0.119 0.443 0.248 0.635l0.001-0.001c0.097 0.121 0.185 0.251 0.34 0.355l6.819 4.777v-1.492c0-0.539-0.197-0.883-0.639-1.195l-3.7-2.587h15.331c0.439 2.628 2.688 4.639 5.411 4.639 3.032-0.001 5.499-2.493 5.499-5.556s-2.467-5.555-5.5-5.555zM25.167 19.721c-2.024 0-3.667-1.664-3.667-3.721s1.643-3.721 3.667-3.721 3.667 1.664 3.667 3.721-1.643 3.721-3.667 3.721z"></path>
</svg>
