<!-- Generated by IcoMoon.io -->
<svg version="1.1" xmlns="http://www.w3.org/2000/svg" width="24" height="24" viewBox="0 0 24 24">
<title>share_right</title>
<path fill="#444" d="M4.5 16.544c2.228 0 4.068-1.647 4.425-3.794h12.544l-3.030 2.121c-0.359 0.254-0.52 0.535-0.52 0.973v1.22l5.586-3.909c0.105-0.077 0.168-0.162 0.234-0.249 0.128-0.162 0.216-0.343 0.243-0.563l0.018-0.345-0.018-0.345c-0.026-0.2-0.098-0.366-0.204-0.52l-0.001 0.002c-0.080-0.101-0.152-0.204-0.277-0.293l-5.58-3.906v1.221c0 0.44 0.16 0.72 0.52 0.973l3.030 2.12h-12.544c-0.357-2.148-2.197-3.793-4.425-3.793-2.481 0-4.5 2.039-4.5 4.543s2.019 4.544 4.5 4.544zM4.5 8.957c1.658 0 3 1.362 3 3.043s-1.342 3.043-3 3.043-3-1.362-3-3.043 1.343-3.043 3-3.043z"></path>
</svg>
