<!-- Generated by IcoMoon.io -->
<svg version="1.1" xmlns="http://www.w3.org/2000/svg" width="32" height="32" viewBox="0 0 32 32">
<path d="M6.833 21.553c2.723 0 4.972-2.012 5.409-4.637h15.333l-3.703 2.592c-0.439 0.309-0.636 0.655-0.636 1.191v1.492l6.824-4.78c0.129-0.093 0.207-0.199 0.287-0.305 0.156-0.199 0.264-0.419 0.297-0.688l0.021-0.419-0.021-0.423c-0.031-0.244-0.12-0.448-0.249-0.636l-0.001 0.001c-0.096-0.124-0.184-0.249-0.339-0.359l-6.819-4.775v1.493c0 0.536 0.196 0.88 0.636 1.191l3.701 2.591h-15.332c-0.437-2.624-2.687-4.636-5.409-4.636-3.032 0-5.5 2.492-5.5 5.553s2.468 5.553 5.5 5.553zM6.833 12.28c2.027 0 3.667 1.665 3.667 3.72s-1.64 3.72-3.667 3.72-3.667-1.665-3.667-3.72 1.64-3.72 3.667-3.72z"></path>
</svg>
