<!-- Generated by IcoMoon.io -->
<svg version="1.1" xmlns="http://www.w3.org/2000/svg" width="32" height="32" viewBox="0 0 32 32">
<title>share_left-right</title>
<path d="M25.167 18.005c-2.723 0-4.972 2.013-5.409 4.637h-15.333l3.703-2.592c0.439-0.309 0.636-0.655 0.636-1.191v-1.492l-6.824 4.781c-0.129 0.092-0.207 0.197-0.287 0.305-0.156 0.197-0.264 0.417-0.297 0.688l-0.021 0.419 0.021 0.421c0.031 0.244 0.12 0.448 0.249 0.636l0.001-0.001c0.096 0.124 0.184 0.249 0.339 0.359l6.819 4.775v-1.493c0-0.536-0.196-0.88-0.636-1.191l-3.7-2.592h15.332c0.437 2.625 2.687 4.637 5.409 4.637 3.032 0 5.5-2.492 5.5-5.553s-2.469-5.553-5.501-5.553zM25.167 27.279c-2.027 0-3.667-1.664-3.667-3.72 0-2.055 1.64-3.72 3.667-3.72s3.667 1.665 3.667 3.72c0 2.056-1.64 3.72-3.667 3.72zM30.645 8.017c-0.031-0.244-0.12-0.448-0.249-0.636l-0.001 0.001c-0.096-0.124-0.184-0.249-0.339-0.359l-6.819-4.775v1.493c0 0.536 0.196 0.88 0.636 1.191l3.701 2.591h-15.332c-0.437-2.624-2.687-4.636-5.409-4.636-3.032 0-5.5 2.492-5.5 5.553s2.468 5.553 5.5 5.553c2.723 0 4.972-2.013 5.409-4.637h15.333l-3.703 2.592c-0.439 0.309-0.636 0.655-0.636 1.191v1.492l6.824-4.78c0.129-0.092 0.207-0.197 0.287-0.305 0.156-0.197 0.264-0.417 0.297-0.688l0.021-0.42-0.021-0.421zM6.833 12.161c-2.027 0-3.667-1.665-3.667-3.72 0-2.056 1.64-3.72 3.667-3.72s3.667 1.664 3.667 3.72c0 2.055-1.64 3.72-3.667 3.72z"></path>
</svg>
