<!-- Generated by IcoMoon.io -->
<svg version="1.1" xmlns="http://www.w3.org/2000/svg" width="24" height="24" viewBox="0 0 24 24">
<title>share</title>
<path fill="#444" d="M17.5 14.668c-1.236 0-2.335 0.564-3.091 1.437l-4.092-2.541c0.195-0.484 0.308-1.012 0.308-1.565 0-0.556-0.113-1.086-0.311-1.573l4.080-2.549c0.758 0.884 1.862 1.456 3.106 1.456 2.274 0 4.125-1.869 4.125-4.166s-1.851-4.166-4.125-4.166-4.125 1.869-4.125 4.165c0 0.544 0.111 1.061 0.3 1.54l-4.091 2.558c-0.756-0.869-1.852-1.429-3.084-1.429-2.274 0-4.125 1.869-4.125 4.165 0 2.298 1.851 4.166 4.125 4.166 1.236 0 2.333-0.562 3.091-1.436l4.092 2.542c-0.195 0.484-0.308 1.008-0.308 1.562 0 2.298 1.851 4.166 4.125 4.166s4.125-1.869 4.125-4.166c0-2.296-1.851-4.166-4.125-4.166zM17.5 2.375c1.519 0 2.75 1.249 2.75 2.79s-1.231 2.791-2.75 2.791c-0.756 0-1.44-0.311-1.936-0.811-0.157-0.157-0.29-0.337-0.403-0.529-0.010-0.018-0.018-0.036-0.029-0.052-0.106-0.191-0.194-0.392-0.257-0.606-0.073-0.252-0.125-0.516-0.125-0.792 0-1.541 1.231-2.79 2.75-2.79zM9.115 12.818c-0.067 0.226-0.161 0.437-0.278 0.634-0.001 0.003-0.001 0.005-0.003 0.007-0.118 0.197-0.259 0.378-0.421 0.539v0c-0.495 0.49-1.169 0.792-1.914 0.792-1.519 0-2.75-1.25-2.75-2.791s1.231-2.79 2.75-2.79c0.744 0 1.415 0.302 1.91 0.788v0c0.327 0.32 0.565 0.725 0.704 1.178 0.080 0.263 0.136 0.535 0.136 0.824 0 0.287-0.055 0.558-0.135 0.82zM17.5 21.625c-1.519 0-2.75-1.25-2.75-2.791 0-0.286 0.055-0.556 0.133-0.817 0.067-0.224 0.161-0.436 0.276-0.632 0.001-0.004 0.003-0.007 0.004-0.010 0.117-0.198 0.257-0.378 0.419-0.539 0.495-0.49 1.17-0.793 1.917-0.793 1.519 0 2.75 1.249 2.75 2.79s-1.231 2.793-2.75 2.793z"></path>
</svg>
