<!-- Generated by IcoMoon.io -->
<svg version="1.1" xmlns="http://www.w3.org/2000/svg" width="24" height="24" viewBox="0 0 24 24">
<title>share_left</title>
<path fill="#444" d="M18.76 7.905c-2.008 0-3.666 1.484-3.988 3.419h-11.306l2.731-1.912c0.323-0.228 0.469-0.483 0.469-0.877v-1.1l-5.035 3.524c-0.095 0.069-0.151 0.147-0.211 0.224-0.115 0.147-0.195 0.31-0.219 0.507l-0.016 0.311 0.016 0.311c0.023 0.18 0.088 0.33 0.184 0.469l0.001-0.001c0.072 0.091 0.137 0.184 0.25 0.264l5.029 3.52v-1.1c0-0.396-0.145-0.649-0.469-0.877l-2.731-1.91h11.306c0.322 1.936 1.981 3.419 3.988 3.419 2.236 0 4.056-1.837 4.056-4.095s-1.82-4.095-4.056-4.095zM18.76 14.743c-1.494 0-2.704-1.228-2.704-2.743s1.21-2.743 2.704-2.743 2.704 1.228 2.704 2.743-1.21 2.743-2.704 2.743z"></path>
</svg>
