<!-- Generated by IcoMoon.io -->
<svg version="1.1" xmlns="http://www.w3.org/2000/svg" width="32" height="32" viewBox="0 0 32 32">
<title>shield</title>
<path d="M23.669 24.807c0.268-0.264 0.52-0.539 0.755-0.831 0.073-0.092 0.144-0.184 0.213-0.279 0.273-0.365 0.519-0.741 0.735-1.132 0.012-0.023 0.027-0.044 0.039-0.067 0.637-1.177 1.015-2.439 1.015-3.627 0-0.051-0.011-0.099-0.012-0.149l0.012-0.008v-11.999c0-0.749-0.472-1.417-1.189-1.699l-8.531-3.301c-0.229-0.087-0.468-0.135-0.707-0.135s-0.477 0.047-0.707 0.135l-0.728 0.281v-0.008l-7.8 3.027c-0.716 0.281-1.188 0.951-1.188 1.7l-0.001 12.156c0 0 0 0 0 0s0 0 0 0v0.307l0.019 0.013c0.132 2.493 1.783 5.253 4.189 6.812v0.005l6.241 4.409 6.151-4.345v-0.031c0.041-0.027 0.075-0.063 0.116-0.091 0.38-0.251 0.736-0.535 1.075-0.84 0.107-0.096 0.201-0.203 0.304-0.305zM16.023 27.949c-0.205 0-0.412-0.075-0.616-0.219l-0.743-0.524c0.011-0.001 0.021-0.001 0.031-0.001l-3.924-2.752c-1.748-1.131-3.012-3.068-3.295-4.821h-0.005v-0.028c0-0.004 0-0.008-0.001-0.012v-1.295c0-0.003 0-0.007 0.001-0.009v-4.609c0 0 0 0 0 0.001v-6.963l4.468-1.731c0 0 0 0 0.001 0l0.091-0.035 0.209-0.083 3.76-1.456 4.061 1.572c0 0 0 0 0.001 0l4.468 1.729v12.909c-0.284 1.771-1.563 3.748-3.34 4.876v0.015l-4.552 3.216c-0.204 0.144-0.409 0.219-0.616 0.219z"></path>
<path d="M9.272 7.939h1.535v2.020h-1.535v-2.020z"></path>
<path d="M16 26.263v-1.84l-2.521-1.767c-1.415-0.916-2.439-2.484-2.668-3.904h-0.003v-0.023c0-0.003 0-0.007-0.001-0.009v-1.048c0-0.003 0-0.005 0.001-0.008v-3.732c0 0 0 0 0 0v-1.552h-1.535v5.757c0 0 0 0 0 0s0 0 0 0v0.249l0.016 0.011c0.107 2.019 1.443 4.253 3.392 5.515v0.004l3.319 2.347z"></path>
</svg>
