<!-- Generated by IcoMoon.io -->
<svg version="1.1" xmlns="http://www.w3.org/2000/svg" width="24" height="24" viewBox="0 0 24 24">
<title>shield</title>
<path d="M17.752 18.605c0.201-0.198 0.39-0.404 0.566-0.623 0.055-0.069 0.108-0.138 0.16-0.209 0.205-0.274 0.389-0.556 0.551-0.849 0.009-0.017 0.020-0.033 0.029-0.050 0.478-0.883 0.761-1.829 0.761-2.72 0-0.038-0.008-0.074-0.009-0.112l0.009-0.006v-8.999c0-0.562-0.354-1.063-0.892-1.274l-6.398-2.476c-0.172-0.065-0.351-0.101-0.53-0.101s-0.358 0.035-0.53 0.101l-0.546 0.211v-0.006l-5.85 2.27c-0.537 0.211-0.891 0.713-0.891 1.275l-0.001 9.117c0 0 0 0 0 0s0 0 0 0v0.23l0.014 0.010c0.099 1.87 1.337 3.94 3.142 5.109v0.004l4.681 3.307 4.613-3.259v-0.023c0.031-0.020 0.056-0.047 0.087-0.068 0.285-0.188 0.552-0.401 0.806-0.63 0.080-0.072 0.151-0.152 0.228-0.229zM12.017 20.962c-0.154 0-0.309-0.056-0.462-0.164l-0.557-0.393c0.008-0.001 0.016-0.001 0.023-0.001l-2.943-2.064c-1.311-0.848-2.259-2.301-2.471-3.616h-0.004v-0.021c0-0.003 0-0.006-0.001-0.009v-0.971c0-0.002 0-0.005 0.001-0.007v-3.457c0 0 0 0 0 0.001v-5.222l3.351-1.298c0 0 0 0 0.001 0l0.068-0.026 0.157-0.062 2.82-1.092 3.046 1.179c0 0 0 0 0.001 0l3.351 1.297v9.682c-0.213 1.328-1.172 2.811-2.505 3.657v0.011l-3.414 2.412c-0.153 0.108-0.307 0.164-0.462 0.164z"></path>
<path d="M6.954 5.954h1.151v1.515h-1.151v-1.515z"></path>
<path d="M12 19.697v-1.38l-1.891-1.325c-1.061-0.687-1.829-1.863-2.001-2.928h-0.002v-0.017c0-0.002 0-0.005-0.001-0.007v-0.786c0-0.002 0-0.004 0.001-0.006v-2.799c0 0 0 0 0 0v-1.164h-1.151v4.318c0 0 0 0 0 0s0 0 0 0v0.187l0.012 0.008c0.080 1.514 1.082 3.19 2.544 4.136v0.003l2.489 1.76z"></path>
</svg>
