<!-- Generated by IcoMoon.io -->
<svg version="1.1" xmlns="http://www.w3.org/2000/svg" width="32" height="32" viewBox="0 0 32 32">
<title>ship</title>
<path d="M22.784 12.332h-13.568l0.856-1.224c0.308-0.437 0.667-0.608 1.203-0.612h9.449c0.537 0.005 0.895 0.176 1.203 0.615l0.857 1.221zM30.561 13.956c-0.7 1.976-3.087 9.749-3.628 11.703-0.147 0.528-0.521 0.961-1.023 1.185-0.237 0.105-0.492 0.157-0.745 0.157-0.281 0-0.563-0.064-0.82-0.193-0.892-0.447-1.368-0.54-1.612-0.54-0.251 0-0.445 0.112-1.088 0.559-0.597 0.413-1.343 0.931-2.433 1.34-1.24 0.468-2.165 0.667-3.095 0.667-0.923 0-1.859-0.196-3.127-0.659-0.959-0.348-1.681-0.829-2.263-1.213-0.727-0.485-1.039-0.668-1.441-0.668-0.401 0-0.951 0.169-1.635 0.516-0.257 0.129-0.539 0.193-0.82 0.193-0.267 0-0.533-0.057-0.781-0.175-0.508-0.239-0.88-0.699-1.005-1.247-0.504-2.192-2.763-9.156-3.615-11.643-0.177-0.521-0.112-1.093 0.176-1.561 0.291-0.467 0.775-0.777 1.319-0.853 0.617-0.079 1-0.137 1.317-0.184 0.441-0.067 0.765-0.117 1.365-0.18 0.812-1.576 2.608-4.328 5.259-4.328h1.265c-0.087-0.615-0.165-1.24-0.165-1.832 0-1.013 0.821-1.833 1.833-1.833h4.401c1.012 0 1.833 0.82 1.833 1.833 0 0.559-0.083 1.203-0.169 1.837l1.249-0.005c2.476 0 4.392 2.479 5.319 4.34l0.255 0.027c0.943 0.089 1.361 0.133 2.484 0.344 0.527 0.099 0.984 0.423 1.251 0.884 0.267 0.467 0.317 1.025 0.139 1.529zM28.833 13.343c-1.467-0.275-1.649-0.24-3.667-0.46-0.437-1.391-2.2-4.239-4.033-4.216-1.011 0.009-0.733 0-3.3 0 0-1.061 0.367-2.669 0.367-3.667-1.841 0-2.508 0-4.401 0 0 1.088 0.367 2.569 0.367 3.667-1.816 0-1.649 0-3.3 0-1.833 0-3.484 2.783-4.033 4.216-2.017 0.185-1.833 0.22-3.667 0.46 0.733 2.141 3.117 9.441 3.667 11.825 3.667-1.835 4.255 0.365 6.784 1.284 2.016 0.733 3.016 0.727 4.949 0 2.821-1.067 2.933-3.119 6.6-1.284 0.551-1.983 2.936-9.755 3.668-11.825z"></path>
</svg>
