<!-- Generated by IcoMoon.io -->
<svg version="1.1" xmlns="http://www.w3.org/2000/svg" width="24" height="24" viewBox="0 0 24 24">
<title>ship</title>
<path fill="#444" d="M17.021 9.284h-10.043l0.634-0.905c0.228-0.324 0.493-0.451 0.89-0.453h6.995c0.398 0.004 0.662 0.13 0.89 0.455l0.634 0.904zM22.778 10.487c-0.518 1.463-2.285 7.217-2.686 8.664-0.109 0.391-0.387 0.711-0.757 0.877-0.175 0.079-0.364 0.117-0.551 0.117-0.208 0-0.417-0.047-0.607-0.143-0.661-0.33-1.014-0.4-1.193-0.4-0.186 0-0.33 0.084-0.806 0.414-0.442 0.307-0.993 0.689-1.801 0.992-0.917 0.346-1.603 0.493-2.291 0.493-0.683 0-1.376-0.145-2.315-0.487-0.71-0.256-1.244-0.613-1.675-0.898-0.537-0.36-0.77-0.494-1.067-0.494s-0.704 0.126-1.211 0.381c-0.189 0.095-0.398 0.143-0.605 0.143-0.198 0-0.395-0.042-0.578-0.13-0.376-0.176-0.65-0.517-0.744-0.923-0.375-1.622-2.045-6.778-2.676-8.618-0.132-0.385-0.084-0.81 0.13-1.156 0.214-0.343 0.573-0.574 0.976-0.63 0.456-0.058 0.74-0.102 0.976-0.137 0.327-0.049 0.566-0.086 1.011-0.133 0.6-1.166 1.928-3.204 3.891-3.204h0.936c-0.064-0.455-0.122-0.917-0.122-1.356 0-0.751 0.608-1.357 1.357-1.357h3.257c0.749 0 1.357 0.607 1.357 1.357 0 0.414-0.061 0.89-0.125 1.36l0.924-0.004c1.834 0 3.252 1.836 3.937 3.212l0.189 0.020c0.698 0.067 1.007 0.098 1.839 0.255 0.389 0.073 0.729 0.312 0.926 0.654 0.198 0.346 0.236 0.759 0.103 1.132zM21.5 10.034c-1.086-0.205-1.221-0.178-2.714-0.341-0.324-1.030-1.629-3.138-2.986-3.121-0.748 0.007-0.543 0-2.443 0 0-0.786 0.271-1.976 0.271-2.714-1.363 0-1.857 0-3.257 0 0 0.806 0.271 1.901 0.271 2.714-1.344 0-1.221 0-2.443 0-1.357 0-2.579 2.060-2.986 3.121-1.493 0.136-1.357 0.163-2.714 0.341 0.543 1.585 2.307 6.988 2.714 8.754 2.714-1.358 3.15 0.27 5.021 0.95 1.493 0.541 2.233 0.537 3.664 0 2.089-0.79 2.171-2.308 4.886-0.95 0.407-1.468 2.173-7.221 2.714-8.754z"></path>
</svg>
