<!-- Generated by IcoMoon.io -->
<svg version="1.1" xmlns="http://www.w3.org/2000/svg" width="24" height="24" viewBox="0 0 24 24">
<title>shopping_cart</title>
<path fill="#444" d="M10.636 18.15c-1.13 0-2.050 0.92-2.050 2.050s0.92 2.050 2.050 2.050c1.13 0 2.050-0.92 2.050-2.050s-0.918-2.050-2.050-2.050zM10.636 20.883c-0.374 0-0.683-0.308-0.683-0.683 0-0.38 0.309-0.683 0.683-0.683 0.379 0 0.683 0.303 0.683 0.683 0 0.376-0.305 0.683-0.683 0.683zM18.835 18.15c-1.13 0-2.050 0.92-2.050 2.050s0.92 2.050 2.050 2.050 2.050-0.92 2.050-2.050-0.92-2.050-2.050-2.050zM18.835 20.883c-0.376 0-0.683-0.308-0.683-0.683 0-0.38 0.308-0.683 0.683-0.683 0.379 0 0.683 0.303 0.683 0.683 0 0.376-0.305 0.683-0.683 0.683zM22.779 6.45c-0.13-0.157-0.324-0.249-0.529-0.249h-15.281l-0.817-3.909c-0.066-0.316-0.344-0.543-0.668-0.543h-2.877c-0.4 0-0.681 0.146-0.91 0.474l-0.625 0.891h-0.005c0.001 0 0.003 0.001 0.005 0.001h3.857l0.809 3.874c0.005 0.023 0.010 0.045 0.016 0.067l1.557 7.446c0.242 1.151 1.286 1.972 2.482 1.972 0.016 0 0.033 0 0.051 0h9.040c1.214 0.007 2.3-0.805 2.547-1.98l1.49-7.478c0.040-0.2-0.014-0.407-0.142-0.567zM20.092 14.221c-0.112 0.528-0.563 0.918-1.196 0.888h-9.066c-0.556 0.001-1.071-0.362-1.182-0.887l-1.393-6.654h14.163l-1.326 6.653z"></path>
</svg>
