<!-- Generated by IcoMoon.io -->
<svg version="1.1" xmlns="http://www.w3.org/2000/svg" width="32" height="32" viewBox="0 0 32 32">
<title>shopping_cart</title>
<path d="M14.171 24.251c-1.516 0-2.749 1.233-2.749 2.749s1.233 2.749 2.749 2.749c1.516 0 2.749-1.233 2.749-2.749s-1.232-2.749-2.749-2.749zM14.171 27.917c-0.501 0-0.917-0.412-0.917-0.917 0-0.511 0.415-0.917 0.917-0.917 0.508 0 0.917 0.407 0.917 0.917 0 0.505-0.409 0.917-0.917 0.917zM25.168 24.251c-1.516 0-2.749 1.233-2.749 2.749s1.233 2.749 2.749 2.749 2.749-1.233 2.749-2.749-1.233-2.749-2.749-2.749zM25.168 27.917c-0.504 0-0.917-0.412-0.917-0.917 0-0.511 0.413-0.917 0.917-0.917 0.507 0 0.917 0.407 0.917 0.917 0 0.505-0.409 0.917-0.917 0.917zM30.459 8.556c-0.175-0.212-0.435-0.335-0.709-0.335h-20.497l-1.096-5.243c-0.088-0.424-0.463-0.728-0.897-0.728h-3.859c-0.537 0-0.913 0.196-1.22 0.636l-0.839 1.196h-0.008c0.003 0 0.004 0.001 0.008 0.001h5.173l1.085 5.197c0.007 0.029 0.012 0.060 0.021 0.088l2.087 9.989c0.324 1.543 1.725 2.645 3.331 2.645 0.023 0 0.044 0 0.067 0h12.128c1.628 0.009 3.085-1.080 3.417-2.657l1.999-10.031c0.053-0.268-0.016-0.548-0.191-0.76zM26.855 18.979c-0.149 0.707-0.755 1.232-1.603 1.193h-12.164c-0.745 0.001-1.437-0.485-1.585-1.192l-1.867-8.925h18.999l-1.78 8.924z"></path>
</svg>
