<!-- Generated by IcoMoon.io -->
<svg version="1.1" xmlns="http://www.w3.org/2000/svg" width="24" height="24" viewBox="0 0 24 24">
<title>shopping_cart</title>
<path d="M10.628 18.188c-1.137 0-2.062 0.925-2.062 2.062s0.925 2.062 2.062 2.062c1.137 0 2.062-0.925 2.062-2.062s-0.924-2.062-2.062-2.062zM10.628 20.938c-0.376 0-0.688-0.309-0.688-0.688 0-0.383 0.311-0.688 0.688-0.688 0.381 0 0.688 0.305 0.688 0.688 0 0.379-0.307 0.688-0.688 0.688zM18.876 18.188c-1.137 0-2.062 0.925-2.062 2.062s0.925 2.062 2.062 2.062 2.062-0.925 2.062-2.062-0.925-2.062-2.062-2.062zM18.876 20.938c-0.378 0-0.688-0.309-0.688-0.688 0-0.383 0.31-0.688 0.688-0.688 0.38 0 0.688 0.305 0.688 0.688 0 0.379-0.307 0.688-0.688 0.688zM22.844 6.417c-0.131-0.159-0.326-0.251-0.532-0.251h-15.373l-0.822-3.932c-0.066-0.318-0.347-0.546-0.673-0.546h-2.894c-0.403 0-0.685 0.147-0.915 0.477l-0.629 0.897h-0.006c0.002 0 0.003 0.001 0.006 0.001h3.88l0.814 3.898c0.005 0.022 0.009 0.045 0.016 0.066l1.565 7.492c0.243 1.157 1.294 1.984 2.498 1.984 0.017 0 0.033 0 0.050 0h9.096c1.221 0.007 2.314-0.81 2.563-1.993l1.499-7.523c0.040-0.201-0.012-0.411-0.143-0.57zM20.141 14.234c-0.112 0.53-0.566 0.924-1.202 0.895h-9.123c-0.559 0.001-1.078-0.364-1.189-0.894l-1.4-6.694h14.249l-1.335 6.693z"></path>
</svg>
