<!-- Generated by IcoMoon.io -->
<svg version="1.1" xmlns="http://www.w3.org/2000/svg" width="24" height="24" viewBox="0 0 24 24">
<title>shovel</title>
<path fill="#444" d="M21.439 11.934c-0.226-0.351-0.597-0.582-1.012-0.627-0.049-0.007-0.099-0.008-0.148-0.008-0.363 0-0.714 0.143-0.972 0.403l-3.311 3.311-6.815-6.801c0.007-0.025 0.021-0.041 0.026-0.065 0.377-1.513 0.205-3.061-0.514-4.604-0.417-0.895-0.956-1.614-1.334-2.058-0.25-0.294-0.609-0.47-0.993-0.485-0.019 0-0.038 0-0.056 0-0.364 0-0.714 0.143-0.972 0.401l-3.937 3.934c-0.269 0.271-0.417 0.645-0.4 1.027 0.016 0.385 0.193 0.745 0.487 0.995 0.447 0.375 1.169 0.916 2.063 1.335 1.008 0.467 2.028 0.705 3.031 0.705 0.525 0 1.053-0.065 1.57-0.194 0.018-0.004 0.036-0.019 0.054-0.025l6.817 6.808-3.312 3.314c-0.294 0.296-0.44 0.71-0.395 1.123 0.047 0.415 0.278 0.787 0.631 1.009 1.126 0.715 2.962 1.566 5.301 1.566 1.367 0 2.764-0.289 4.15-0.862 0.34-0.142 0.608-0.41 0.748-0.751 1.814-4.417 0.337-7.818-0.705-9.453zM4.13 7.446c-0.752-0.352-1.36-0.804-1.754-1.139l3.935-3.932c0.334 0.392 0.788 1.001 1.137 1.748 0.386 0.832 0.635 1.815 0.54 2.899-0.023 0.259-0.048 0.52-0.116 0.793l-0.054 0.055c-0.278 0.070-0.545 0.095-0.811 0.118-1.078 0.088-2.054-0.158-2.878-0.542zM20.873 20.866c-1.217 0.5-2.437 0.758-3.626 0.758v0c-2.001 0-3.582-0.729-4.564-1.352l7.595-7.597c0.982 1.537 2.141 4.425 0.594 8.191z"></path>
</svg>
