<!-- Generated by IcoMoon.io -->
<svg version="1.1" xmlns="http://www.w3.org/2000/svg" width="32" height="32" viewBox="0 0 32 32">
<path d="M28.585 15.913c-0.3-0.468-0.796-0.776-1.349-0.837-0.065-0.008-0.132-0.011-0.199-0.011-0.483 0-0.951 0.192-1.296 0.537l-4.415 4.416-9.084-9.069c0.008-0.032 0.027-0.056 0.033-0.087 0.503-2.017 0.275-4.083-0.685-6.139-0.555-1.193-1.275-2.151-1.779-2.745-0.333-0.392-0.812-0.625-1.324-0.645-0.024 0-0.049 0-0.075 0-0.485 0-0.951 0.191-1.296 0.535l-5.248 5.247c-0.361 0.359-0.556 0.859-0.535 1.369 0.021 0.513 0.256 0.993 0.648 1.327 0.596 0.501 1.557 1.22 2.749 1.779 1.345 0.624 2.704 0.94 4.041 0.94 0.7 0 1.404-0.085 2.092-0.257 0.024-0.005 0.049-0.024 0.072-0.032l9.091 9.079-4.415 4.416c-0.393 0.393-0.587 0.945-0.527 1.499 0.061 0.553 0.371 1.048 0.841 1.347 1.503 0.951 3.949 2.087 7.068 2.087 1.823 0 3.684-0.385 5.532-1.149 0.453-0.188 0.811-0.545 0.997-1 2.419-5.889 0.449-10.427-0.94-12.604zM5.505 9.927c-1.003-0.469-1.813-1.073-2.339-1.517l5.247-5.243c0.445 0.524 1.051 1.333 1.516 2.331 0.516 1.108 0.847 2.419 0.72 3.864-0.031 0.345-0.063 0.693-0.153 1.057l-0.072 0.073c-0.371 0.093-0.727 0.128-1.081 0.159-1.436 0.117-2.737-0.212-3.837-0.724zM27.831 27.821c-1.623 0.668-3.251 1.011-4.833 1.011v0c-2.668 0-4.776-0.972-6.085-1.804l10.128-10.129c1.308 2.052 2.853 5.901 0.791 10.923z"></path>
</svg>
