<!-- Generated by IcoMoon.io -->
<svg version="1.1" xmlns="http://www.w3.org/2000/svg" width="32" height="32" viewBox="0 0 32 32">
<path d="M30.407 9.695l-0.659-0.661 0.004-0.004-0.893-0.893c-0.053-0.053-0.107-0.091-0.16-0.133 0.001-0.001 0.003-0.004 0.003-0.005l-0.004 0.004c-0.331-0.268-0.671-0.367-1.128-0.287l-1.476 0.261c-0.581 0.185-1.24 0.067-1.703-0.392l0.003-0.003c-0.005-0.005-0.013-0.007-0.019-0.012-0.464-0.464-0.583-1.125-0.397-1.711v0l0.261-1.477c0.081-0.457-0.019-0.797-0.287-1.127l0.004-0.004c-0.001 0.001-0.004 0.003-0.005 0.003-0.044-0.053-0.080-0.107-0.133-0.16l-0.893-0.893-0.004 0.004-0.661-0.659c-0.717-0.717-1.879-0.715-2.592 0l-18.148 18.144c-0.715 0.715-0.717 1.876 0 2.592l0.659 0.661-0.004 0.005 0.893 0.893c0.053 0.053 0.107 0.091 0.16 0.133-0.001 0.001-0.003 0.004-0.003 0.005l0.004-0.004c0.329 0.268 0.669 0.367 1.127 0.287l1.477-0.261c0.581-0.185 1.24-0.067 1.703 0.392l-0.001 0.003c0.005 0.005 0.013 0.007 0.019 0.012 0.464 0.464 0.583 1.125 0.397 1.711v0l-0.261 1.477c-0.081 0.457 0.019 0.797 0.287 1.127l-0.004 0.004c0.001-0.001 0.004-0.003 0.005-0.003 0.044 0.053 0.080 0.107 0.133 0.16l0.893 0.893 0.004-0.004 0.661 0.659c0.717 0.717 1.879 0.715 2.593 0l18.141-18.141c0.719-0.717 0.721-1.879 0.004-2.596zM21.721 18.38l-10.756 10.756-0.661-0.659 0.003-0.003-0.743-0.741 0.261-1.477c0.009-0.052 0.005-0.097 0.011-0.147 0.152-1.063-0.168-2.181-0.985-3-0.005-0.005-0.012-0.009-0.017-0.015v0c-0.817-0.813-1.932-1.132-2.992-0.98-0.049 0.005-0.095 0.001-0.147 0.011l-1.477 0.261-0.741-0.741-0.003 0.003-0.659-0.661 18.144-18.144 0.661 0.659-0.003 0.003 0.741 0.741-0.259 1.475c-0.009 0.052-0.005 0.097-0.011 0.147-0.152 1.063 0.168 2.181 0.985 3 0.005 0.005 0.012 0.009 0.017 0.015v0c0.817 0.813 1.932 1.132 2.992 0.98 0.049-0.005 0.095-0.001 0.147-0.011l1.477-0.261 0.741 0.741 0.003-0.003 0.659 0.661-7.389 7.391z"></path>
<path d="M14.66 10.636l1.296-1.296 1.296 1.296-1.296 1.296-1.296-1.296z"></path>
<path d="M17.365 13.342l1.296-1.296 1.296 1.296-1.296 1.296-1.296-1.296z"></path>
<path d="M20.070 16.048l1.296-1.296 1.296 1.296-1.296 1.296-1.296-1.296z"></path>
<path d="M15.296 19.947l-0.844-1.117 0.408-1.283c0.036-0.115 0.005-0.239-0.079-0.324-0.085-0.085-0.209-0.115-0.324-0.079l-1.283 0.408-1.117-0.844c-0.099-0.075-0.232-0.085-0.341-0.028s-0.177 0.172-0.172 0.296l0.049 1.357-1.087 0.756c-0.1 0.069-0.152 0.189-0.135 0.309 0.011 0.069 0.043 0.133 0.091 0.181 0.035 0.035 0.077 0.061 0.125 0.077l1.321 0.439 0.437 1.321c0.016 0.048 0.043 0.091 0.077 0.125 0.048 0.048 0.111 0.080 0.181 0.091 0.12 0.017 0.24-0.035 0.309-0.135l0.756-1.087 1.357 0.049c0.124 0.004 0.239-0.063 0.296-0.172 0.057-0.111 0.047-0.244-0.028-0.343z"></path>
</svg>
