<!-- Generated by IcoMoon.io -->
<svg version="1.1" xmlns="http://www.w3.org/2000/svg" width="32" height="32" viewBox="0 0 32 32">
<title>sign_radioactive</title>
<path d="M30.292 24.128l-11.889-18.987c-0.804-1.265-2.532-1.68-3.86-0.909-0.381 0.224-0.709 0.536-0.94 0.909l-11.893 18.987c-0.776 1.279-0.315 2.927 1.027 3.669 0.417 0.229 0.889 0.352 1.373 0.357h23.781c1.548-0.013 2.792-1.232 2.776-2.708-0.003-0.471-0.132-0.919-0.375-1.319zM28.601 26.024c-0.185 0.185-0.441 0.292-0.723 0.297h-23.768c-0.157-0.003-0.333-0.044-0.491-0.131-0.213-0.125-0.368-0.307-0.427-0.531-0.039-0.14-0.055-0.352 0.087-0.584l11.875-18.961c0.072-0.115 0.183-0.221 0.305-0.289 0.167-0.101 0.352-0.145 0.539-0.145 0.356 0 0.684 0.172 0.857 0.44l11.881 18.981c0.056 0.091 0.096 0.219 0.097 0.355 0.001 0.265-0.127 0.456-0.233 0.568zM17.776 19.84h4.351l-0.401-2.171c-0.12-0.632-0.349-1.24-0.679-1.811-0.336-0.592-0.775-1.111-1.293-1.541l-1.676-1.388-2.091 3.637-2.107-3.656-1.676 1.424c-0.485 0.409-0.9 0.9-1.233 1.471-0.344 0.589-0.581 1.223-0.697 1.884l-0.377 2.151h4.227l-2.195 3.717 2.123 0.723c0.604 0.205 1.251 0.312 1.924 0.312 0.667 0 1.309-0.107 1.907-0.312l2.089-0.716-2.195-3.724zM15.28 18.072c0.203-0.188 0.439-0.291 0.707-0.291 0.284 0 0.517 0.103 0.713 0.291 0.191 0.196 0.288 0.44 0.288 0.716 0 0.277-0.1 0.512-0.299 0.712-0.2 0.199-0.432 0.303-0.703 0.303-0.292 0-0.535-0.1-0.729-0.287-0.191-0.195-0.287-0.443-0.287-0.728 0.001-0.276 0.103-0.52 0.309-0.716zM13.707 18.007h-1.628c0.081-0.453 0.237-0.868 0.472-1.269 0.231-0.393 0.511-0.728 0.841-1.003l0.815 1.409c-0.237 0.24-0.401 0.537-0.5 0.863zM15.975 22.759c-0.472 0-0.911-0.075-1.333-0.217l0.832-1.416c0.152 0.031 0.307 0.051 0.465 0.051 0.191 0 0.373-0.021 0.539-0.053l0.811 1.428c-0.412 0.135-0.845 0.208-1.313 0.208zM18.58 15.724c0.356 0.301 0.645 0.645 0.877 1.049 0.229 0.397 0.384 0.804 0.465 1.233h-1.673c-0.097-0.316-0.259-0.603-0.487-0.856l0.817-1.427z"></path>
</svg>
