<!-- Generated by IcoMoon.io -->
<svg version="1.1" xmlns="http://www.w3.org/2000/svg" width="24" height="24" viewBox="0 0 24 24">
<title>sign_accessibility</title>
<path fill="#444" d="M10.496 6.5c1.517 0 2.75-1.233 2.75-2.75s-1.233-2.75-2.75-2.75-2.75 1.233-2.75 2.75 1.233 2.75 2.75 2.75zM10.496 2.375c0.759 0 1.375 0.615 1.375 1.375s-0.616 1.375-1.375 1.375-1.375-0.615-1.375-1.375 0.616-1.375 1.375-1.375zM16.821 15.090c-0.124-0.21-0.349-0.34-0.593-0.34h-5.068v-2.75h4.125l-0.642-0.917c-0.194-0.275-0.43-0.385-0.733-0.424l-0.688-0.034h-2.063v-1.375c-0.037-0.302-0.227-0.54-0.505-0.733l-0.89-0.642v2.784c-3.255 0.182-5.844 2.853-5.844 6.153 0 3.417 2.771 6.188 6.188 6.188 3.394 0 6.142-2.734 6.181-6.119l1.995 3.317c0.195 0.208 0.413 0.335 0.734 0.337l1.060 0.004-3.259-5.449zM10.109 21.625c-2.654 0-4.813-2.159-4.813-4.813 0-2.536 1.977-4.598 4.469-4.778v3.403c0 0.38 0.326 0.688 0.707 0.688h4.381c0.032 0.227 0.069 0.452 0.069 0.688 0 2.654-2.159 4.813-4.813 4.813z"></path>
</svg>
