<!-- Generated by IcoMoon.io -->
<svg version="1.1" xmlns="http://www.w3.org/2000/svg" width="24" height="24" viewBox="0 0 24 24">
<title>sign_prohibid_inverted</title>
<path d="M12.029 0.029c-6.627 0-12 5.373-12 12v0c0 6.627 5.373 12 12 12v0c6.627 0 12-5.373 12-12v0c0-6.627-5.373-12-12-12v0zM12.029 3.514c4.689 0 8.486 3.798 8.486 8.486 0 2.332-0.939 4.44-2.461 5.971l-0.797 0.707c-1.442 1.13-3.254 1.809-5.229 1.809-4.689 0-8.488-3.798-8.488-8.486 0-1.974 0.68-3.785 1.811-5.227l0.703-0.801c1.533-1.517 3.645-2.459 5.975-2.459zM12.029 4.574c-2.033 0-3.878 0.824-5.221 2.152l10.492 10.496c1.331-1.343 2.154-3.187 2.154-5.223 0-4.095-3.331-7.426-7.426-7.426zM6.111 7.529c-0.944 1.249-1.508 2.793-1.508 4.471 0 4.095 3.331 7.426 7.426 7.426 1.68 0 3.222-0.566 4.467-1.51l-10.385-10.387z"></path>
</svg>
