<!-- Generated by IcoMoon.io -->
<svg version="1.1" xmlns="http://www.w3.org/2000/svg" width="24" height="24" viewBox="0 0 24 24">
<title>sign_radioactive</title>
<path d="M22.719 18.096l-8.917-14.24c-0.603-0.949-1.899-1.26-2.895-0.682-0.286 0.168-0.532 0.402-0.705 0.682l-8.92 14.24c-0.582 0.959-0.236 2.195 0.77 2.752 0.313 0.172 0.667 0.264 1.030 0.268h17.836c1.161-0.010 2.094-0.924 2.082-2.031-0.002-0.353-0.099-0.689-0.281-0.989zM21.451 19.518c-0.139 0.139-0.331 0.219-0.542 0.223h-17.826c-0.118-0.002-0.25-0.033-0.368-0.098-0.16-0.094-0.276-0.23-0.32-0.398-0.029-0.105-0.041-0.264 0.065-0.438l8.906-14.221c0.054-0.086 0.137-0.166 0.229-0.217 0.125-0.076 0.264-0.109 0.404-0.109 0.267 0 0.513 0.129 0.643 0.33l8.911 14.236c0.042 0.068 0.072 0.164 0.073 0.266 0.001 0.199-0.095 0.342-0.175 0.426zM13.332 14.88h3.263l-0.301-1.628c-0.090-0.474-0.262-0.93-0.509-1.358-0.252-0.444-0.581-0.833-0.97-1.156l-1.257-1.041-1.568 2.728-1.58-2.742-1.257 1.068c-0.364 0.307-0.675 0.675-0.925 1.103-0.258 0.442-0.436 0.917-0.523 1.413l-0.283 1.613h3.17l-1.646 2.788 1.592 0.542c0.453 0.154 0.938 0.234 1.443 0.234 0.5 0 0.982-0.080 1.43-0.234l1.567-0.537-1.646-2.793zM11.46 13.554c0.152-0.141 0.329-0.218 0.53-0.218 0.213 0 0.388 0.077 0.535 0.218 0.143 0.147 0.216 0.33 0.216 0.537 0 0.208-0.075 0.384-0.224 0.534-0.15 0.149-0.324 0.227-0.527 0.227-0.219 0-0.401-0.075-0.547-0.215-0.143-0.146-0.215-0.332-0.215-0.546 0.001-0.207 0.077-0.39 0.232-0.537zM10.28 13.505h-1.221c0.061-0.34 0.178-0.651 0.354-0.952 0.173-0.295 0.383-0.546 0.631-0.752l0.611 1.057c-0.178 0.18-0.301 0.403-0.375 0.647zM11.981 17.069c-0.354 0-0.683-0.056-1-0.163l0.624-1.062c0.114 0.023 0.23 0.038 0.349 0.038 0.143 0 0.28-0.016 0.404-0.040l0.608 1.071c-0.309 0.101-0.634 0.156-0.985 0.156zM13.935 11.793c0.267 0.226 0.484 0.484 0.658 0.787 0.172 0.298 0.288 0.603 0.349 0.925h-1.255c-0.073-0.237-0.194-0.452-0.365-0.642l0.613-1.070z"></path>
</svg>
