<!-- Generated by IcoMoon.io -->
<svg version="1.1" xmlns="http://www.w3.org/2000/svg" width="24" height="24" viewBox="0 0 24 24">
<title>sign_radioactive</title>
<path fill="#444" d="M22.517 17.98l-8.749-13.972c-0.591-0.932-1.863-1.233-2.837-0.667-0.283 0.163-0.524 0.393-0.695 0.667l-8.751 13.972c-0.571 0.946-0.232 2.156 0.756 2.701 0.308 0.169 0.656 0.26 1.011 0.266h17.503c1.14-0.014 2.055-0.907 2.041-1.997-0.004-0.341-0.098-0.676-0.278-0.97zM21.273 19.376c-0.136 0.14-0.324 0.216-0.53 0.221h-17.492c-0.116-0.003-0.247-0.036-0.362-0.1-0.157-0.086-0.27-0.224-0.313-0.387-0.028-0.103-0.039-0.26 0.065-0.432l8.739-13.955c0.053-0.084 0.132-0.161 0.225-0.213 0.121-0.072 0.256-0.108 0.394-0.108 0.26 0 0.503 0.127 0.63 0.326l8.745 13.967c0.042 0.069 0.070 0.166 0.070 0.263 0.003 0.198-0.092 0.335-0.171 0.417zM15.714 11.896c-0.25-0.433-0.571-0.815-0.954-1.133-0.244-0.204-0.549-0.312-0.862-0.312-0.080 0-0.159 0.007-0.239 0.022-0.391 0.070-0.731 0.31-0.931 0.656l-0.603 1.048c-0.066 0.115-0.108 0.239-0.138 0.363-0.030-0.128-0.072-0.255-0.14-0.374l-0.599-1.039c-0.2-0.345-0.544-0.586-0.938-0.654-0.077-0.014-0.154-0.020-0.231-0.020-0.317 0-0.627 0.112-0.873 0.32-0.356 0.304-0.661 0.665-0.908 1.085-0.255 0.432-0.426 0.899-0.513 1.386-0.069 0.393 0.039 0.796 0.295 1.101s0.635 0.482 1.033 0.482h1.197c0.159 0 0.316-0.038 0.464-0.098-0.125 0.101-0.241 0.217-0.326 0.363l-0.613 1.046c-0.205 0.349-0.241 0.772-0.101 1.152 0.142 0.379 0.447 0.676 0.83 0.807 0.445 0.152 0.923 0.229 1.417 0.229 0.49 0 0.962-0.077 1.403-0.229 0.379-0.13 0.681-0.422 0.823-0.797s0.111-0.795-0.088-1.144l-0.595-1.050c-0.101-0.178-0.269-0.317-0.459-0.428 0.181 0.088 0.375 0.151 0.587 0.151h1.232c0.401 0 0.781-0.178 1.038-0.486s0.363-0.715 0.289-1.109c-0.086-0.467-0.255-0.916-0.498-1.336zM10.312 13.477h-1.197c0.058-0.332 0.173-0.642 0.347-0.938 0.17-0.287 0.374-0.532 0.618-0.738l0.599 1.039c-0.173 0.181-0.295 0.394-0.367 0.637zM11.47 13.527c0.15-0.142 0.325-0.215 0.522-0.215 0.209 0 0.382 0.073 0.524 0.215 0.142 0.143 0.212 0.318 0.212 0.528 0 0.201-0.074 0.375-0.219 0.524-0.147 0.146-0.318 0.219-0.517 0.219-0.216 0-0.395-0.070-0.536-0.21-0.142-0.143-0.213-0.322-0.213-0.533 0-0.208 0.076-0.383 0.227-0.526zM11.982 16.974c-0.348 0-0.673-0.051-0.982-0.157l0.613-1.046c0.111 0.024 0.224 0.035 0.34 0.035 0.14 0 0.275-0.014 0.398-0.038l0.595 1.050c-0.301 0.103-0.621 0.155-0.963 0.155zM13.654 13.477c-0.072-0.233-0.192-0.444-0.359-0.629l0.603-1.048c0.262 0.217 0.475 0.472 0.646 0.769 0.169 0.291 0.281 0.591 0.34 0.908h-1.23z"></path>
</svg>
