<!-- Generated by IcoMoon.io -->
<svg version="1.1" xmlns="http://www.w3.org/2000/svg" width="24" height="24" viewBox="0 0 24 24">
<title>sign_recycle</title>
<path fill="#444" d="M8.806 18.077l-0.439-0.178c-1.994-1.208-3.348-3.365-3.348-5.864 0-0.057 0.011-0.113 0.012-0.171l-1.926 2.755c-0.229 0.323-0.483 0.469-0.88 0.469h-1.103l3.53-5.042c0.081-0.114 0.174-0.18 0.264-0.252h-0.003c0.14-0.095 0.29-0.161 0.47-0.186l0.312-0.016 0.31 0.016c0.198 0.027 0.362 0.106 0.508 0.22 0.080 0.061 0.157 0.117 0.226 0.213l0.622 0.889h0.003l2.909 4.156h-1.102c-0.396 0-0.651-0.145-0.88-0.469l-1.907-2.725c-0.003 0.049-0.011 0.094-0.011 0.142 0 2.593 1.792 4.76 4.198 5.371l-0.935 0.599c-0.287 0.165-0.546 0.165-0.831 0.072zM18.297 11.067l-0.987-0.51c0.675 2.389-0.305 5.024-2.551 6.321-0.042 0.024-0.085 0.038-0.129 0.061l1.406-3.015c0.165-0.361 0.164-0.653-0.034-0.996l-0.55-0.956-2.145 4.6v0.003l-0.458 0.984c-0.049 0.107-0.058 0.202-0.072 0.3-0.027 0.186-0.014 0.366 0.064 0.549l0.142 0.278 0.169 0.262c0.108 0.145 0.243 0.243 0.394 0.315v-0.001c0.108 0.043 0.209 0.091 0.35 0.104l6.132 0.537-0.552-0.956c-0.198-0.344-0.451-0.491-0.847-0.529l-3.347-0.291c0.050-0.028 0.103-0.046 0.153-0.076 2.165-1.25 3.355-3.5 3.404-5.832l-0.065-0.47c-0.061-0.29-0.191-0.512-0.477-0.681zM7.959 7.038l0.053 1.108c1.73-1.779 4.503-2.248 6.75-0.95 0.042 0.024 0.077 0.054 0.118 0.081l-3.315 0.289c-0.394 0.037-0.649 0.184-0.846 0.529l-0.553 0.953 6.138-0.537c0.118-0.012 0.205-0.052 0.297-0.088 0.174-0.070 0.323-0.171 0.445-0.329l0.168-0.262 0.141-0.278c0.073-0.167 0.089-0.331 0.077-0.5l-0.001 0.001c-0.018-0.115-0.026-0.226-0.084-0.357l-2.603-5.577-0.55 0.954c-0.199 0.344-0.201 0.636-0.034 0.996l1.421 3.045c-0.049-0.028-0.091-0.066-0.141-0.095-2.166-1.25-4.711-1.155-6.754-0.033l-0.374 0.291c-0.224 0.201-0.351 0.426-0.352 0.758z"></path>
</svg>
