<!-- Generated by IcoMoon.io -->
<svg version="1.1" xmlns="http://www.w3.org/2000/svg" width="24" height="24" viewBox="0 0 24 24">
<title>sign_prohibid</title>
<path d="M19.81 19.74c1.973-1.984 3.19-4.718 3.19-7.74 0-6.076-4.923-11-11-11-3.020 0-5.756 1.221-7.743 3.187l-0.911 1.039c-1.465 1.869-2.346 4.215-2.346 6.774 0 6.076 4.923 11 11 11 2.559 0 4.908-0.881 6.777-2.346zM12 2.375c5.307 0 9.625 4.318 9.625 9.625 0 2.638-1.066 5.027-2.791 6.768l-13.601-13.602c1.74-1.722 4.132-2.791 6.767-2.791zM12 21.625c-5.307 0-9.625-4.318-9.625-9.625 0-2.174 0.733-4.176 1.956-5.795l13.46 13.464c-1.613 1.223-3.614 1.956-5.791 1.956z"></path>
</svg>
