<!-- Generated by IcoMoon.io -->
<svg version="1.1" xmlns="http://www.w3.org/2000/svg" width="24" height="24" viewBox="0 0 24 24">
<title>sign_prohibid</title>
<path fill="#444" d="M19.81 19.743c1.972-1.987 3.19-4.723 3.19-7.743 0-6.075-4.925-11-11-11-3.021 0-5.756 1.22-7.743 3.189l-0.91 1.034c-1.466 1.87-2.347 4.219-2.347 6.777 0 6.075 4.925 11 11 11 2.559 0 4.907-0.881 6.776-2.347l1.034-0.91zM12 2.375c5.308 0 9.625 4.319 9.625 9.625 0 2.636-1.067 5.027-2.79 6.768l-13.601-13.603c1.739-1.723 4.13-2.79 6.766-2.79zM12 21.625c-5.308 0-9.625-4.319-9.625-9.625 0-2.175 0.734-4.179 1.957-5.793l13.461 13.461c-1.614 1.222-3.616 1.957-5.793 1.957z"></path>
</svg>
