<!-- Generated by IcoMoon.io -->
<svg version="1.1" xmlns="http://www.w3.org/2000/svg" width="24" height="24" viewBox="0 0 24 24">
<title>sign_accessibility</title>
<path d="M10.496 6.5c1.517 0 2.75-1.234 2.75-2.75s-1.233-2.75-2.75-2.75-2.75 1.234-2.75 2.75 1.233 2.75 2.75 2.75zM10.496 2.375c0.759 0 1.375 0.615 1.375 1.375s-0.616 1.375-1.375 1.375-1.375-0.615-1.375-1.375 0.616-1.375 1.375-1.375zM16.82 15.090c-0.123-0.211-0.349-0.34-0.592-0.34h-5.069v-2.75h4.125l-0.642-0.917c-0.193-0.275-0.431-0.386-0.733-0.423l-0.688-0.035h-2.062v-1.375c-0.036-0.302-0.227-0.54-0.503-0.733l-0.89-0.642v2.785c-3.254 0.181-5.844 2.854-5.844 6.152 0 3.417 2.77 6.188 6.188 6.188 3.393 0 6.143-2.734 6.18-6.119l1.995 3.316c0.195 0.209 0.412 0.336 0.734 0.338l1.060 0.004-3.259-5.449zM10.109 21.625c-2.653 0-4.812-2.159-4.812-4.812 0-2.535 1.978-4.598 4.469-4.777v3.402c0 0.38 0.326 0.688 0.706 0.688h4.38c0.032 0.227 0.069 0.452 0.069 0.688 0 2.652-2.158 4.811-4.812 4.811z"></path>
</svg>
