<!-- Generated by IcoMoon.io -->
<svg version="1.1" xmlns="http://www.w3.org/2000/svg" width="24" height="24" viewBox="0 0 24 24">
<title>slider</title>
<path fill="#444" d="M22.147 5.065l0.615 0.878h-6.729c-0.372 0-0.673-0.302-0.673-0.673s0.302-0.673 0.673-0.673l5.216 0.001c0.397 0 0.673 0.144 0.898 0.467zM22.763 12.672l-0.615-0.878c-0.225-0.323-0.501-0.467-0.897-0.467h-7.909c-0.372 0-0.673 0.302-0.673 0.673s0.302 0.673 0.673 0.673l9.42-0.001c0.003 0.001 0.004 0 0.007 0h-0.007zM21.251 18.059l-2.525-0.001c-0.372 0-0.673 0.302-0.673 0.673s0.302 0.673 0.673 0.673h4.037l-0.615-0.878c-0.225-0.323-0.501-0.467-0.897-0.467zM11.324 7.288c-0.876 0-1.617-0.563-1.895-1.346h-6.686c-0.393 0-0.67-0.145-0.897-0.468l-0.615-0.878h8.198c0.279-0.783 1.018-1.346 1.895-1.346 1.115 0 2.019 0.903 2.019 2.019s-0.906 2.019-2.019 2.019zM11.324 4.596c-0.37 0-0.673 0.303-0.673 0.673s0.303 0.673 0.673 0.673c0.372 0 0.673-0.303 0.673-0.673s-0.303-0.673-0.673-0.673zM8.632 14.019c-0.876 0-1.617-0.563-1.895-1.346h-3.994c-0.393 0-0.67-0.145-0.897-0.468l-0.615-0.878h5.506c0.279-0.783 1.018-1.346 1.895-1.346 1.115 0 2.019 0.903 2.019 2.019s-0.905 2.019-2.019 2.019zM8.632 11.327c-0.37 0-0.673 0.303-0.673 0.673s0.302 0.673 0.673 0.673c0.372 0 0.673-0.303 0.673-0.673s-0.302-0.673-0.673-0.673zM14.015 20.75c-0.876 0-1.617-0.563-1.895-1.346h-9.377c-0.393 0-0.67-0.145-0.897-0.468l-0.615-0.878h10.889c0.279-0.783 1.018-1.346 1.895-1.346 1.115 0 2.019 0.903 2.019 2.019s-0.905 2.019-2.019 2.019zM14.015 18.058c-0.37 0-0.673 0.303-0.673 0.673s0.303 0.673 0.673 0.673c0.372 0 0.673-0.303 0.673-0.673s-0.302-0.673-0.673-0.673z"></path>
</svg>
