<!-- Generated by IcoMoon.io -->
<svg version="1.1" xmlns="http://www.w3.org/2000/svg" width="24" height="24" viewBox="0 0 24 24">
<title>sort</title>
<path fill="#444" d="M20.51 12l-7.451-10.546c-0.070-0.096-0.149-0.154-0.228-0.215-0.149-0.117-0.315-0.198-0.516-0.223l-0.315-0.017-0.316 0.017c-0.184 0.022-0.337 0.089-0.479 0.186l0.001 0.001c-0.092 0.073-0.186 0.139-0.268 0.254l-7.448 10.542 7.451 10.546c0.070 0.096 0.149 0.154 0.228 0.215 0.149 0.117 0.315 0.198 0.516 0.223l0.315 0.017 0.316-0.017c0.183-0.023 0.335-0.089 0.477-0.187l-0.001-0.001c0.092-0.073 0.187-0.139 0.268-0.254l7.45-10.541zM12 21.662l-6.498-9.185c-0.232-0.33-0.491-0.477-0.892-0.477h0.001c0.403 0 0.66-0.147 0.892-0.477l6.497-9.185 6.498 9.186c0.232 0.329 0.491 0.476 0.892 0.476h-0.001c-0.403 0-0.66 0.147-0.892 0.477l-6.497 9.185z"></path>
</svg>
