<!-- Generated by IcoMoon.io -->
<svg version="1.1" xmlns="http://www.w3.org/2000/svg" width="32" height="32" viewBox="0 0 32 32">
<path d="M12.372 7.54c0-0.273 0.16-0.572 0.307-0.688 6.028-4.847 6.397-5.119 6.397-5.119 0.332-0.264 0.737-0.4 1.145-0.4 0.271 0 0.541 0.059 0.795 0.181 0.636 0.305 1.039 0.947 1.039 1.652v11.917c0 0.507-0.409 0.917-0.917 0.917-0.507 0-0.917-0.411-0.917-0.917s0-0.688 0-0.688v-11.229l-6.253 4.976c-0.168 0.189-0.405 0.313-0.679 0.313-0.505 0.001-0.916-0.409-0.916-0.916zM29.796 28.011l-0.616-0.681-25.899-25.9-0.26 1.471c-0.079 0.443 0.041 0.769 0.292 1.089l4.612 4.677h-4.204c-1.012 0-1.833 0.82-1.833 1.833v11c0 1.013 0.821 1.833 1.833 1.833h6.691l8.665 6.932c0.331 0.265 0.736 0.401 1.144 0.401 0.271 0 0.541-0.059 0.795-0.181 0.636-0.305 1.039-0.947 1.039-1.652v-6.036l7.775 7.773 0.26-1.471c0.077-0.443-0.044-0.769-0.293-1.089zM20.221 28.833l-9.167-7.333h-7.333v-11h6.037l10.463 10.464v7.869z"></path>
</svg>
