<!-- Generated by IcoMoon.io -->
<svg version="1.1" xmlns="http://www.w3.org/2000/svg" width="32" height="32" viewBox="0 0 32 32">
<title>speaker</title>
<path d="M21.015 1.515c-0.252-0.123-0.523-0.181-0.793-0.181-0.408 0-0.815 0.136-1.145 0.401l-8.664 6.932h-6.691c-1.013 0-1.833 0.82-1.833 1.833v11c0 1.013 0.82 1.833 1.833 1.833h6.691l8.664 6.932c0.331 0.265 0.737 0.401 1.145 0.401 0.271 0 0.541-0.059 0.793-0.181 0.636-0.305 1.040-0.947 1.040-1.652v-25.667c0-0.705-0.404-1.347-1.040-1.652zM20.221 28.833l-9.167-7.333h-7.333v-11h7.333l9.167-7.333v25.667zM25.195 9.139c0.439 2.383 0.653 4.628 0.653 6.861s-0.215 4.477-0.653 6.861c-0.019 0.099-0.057 0.187-0.103 0.271l0.012-0.077-1.065-1.047c-0.323-0.312-0.416-0.649-0.397-1.056 0 0 0.372-3.089 0.372-4.952s-0.372-4.952-0.372-4.952c-0.019-0.407 0.075-0.744 0.397-1.056l1.065-1.047-0.011-0.077c0.045 0.085 0.084 0.172 0.101 0.271zM30.112 16c0 3.789-0.552 7.581-1.628 11.276l-1.009-1.071c-0.288-0.305-0.365-0.625-0.349-0.996 0.751-3.036 1.153-6.125 1.153-9.209s-0.403-6.173-1.153-9.209c-0.016-0.371 0.061-0.692 0.349-0.996l1.009-1.071c1.076 3.695 1.628 7.487 1.628 11.276z"></path>
</svg>
