<!-- Generated by IcoMoon.io -->
<svg version="1.1" xmlns="http://www.w3.org/2000/svg" width="24" height="24" viewBox="0 0 24 24">
<title>speaker_off</title>
<path fill="#444" d="M9.155 5.367c0-0.214 0.125-0.449 0.24-0.539 4.728-3.801 5.017-4.014 5.017-4.014 0.26-0.208 0.578-0.315 0.898-0.315 0.211 0 0.424 0.046 0.622 0.142 0.499 0.24 0.815 0.742 0.815 1.295v9.344c0 0.397-0.322 0.719-0.719 0.719s-0.719-0.322-0.719-0.719 0-0.539 0-0.539v-8.805l-4.903 3.903c-0.132 0.147-0.319 0.246-0.533 0.246-0.397 0-0.719-0.322-0.719-0.719zM22.817 21.417l-0.483-0.533-20.308-20.308-0.203 1.151c-0.062 0.348 0.032 0.604 0.229 0.855l3.617 3.667h-3.296c-0.793 0-1.437 0.643-1.437 1.437v8.625c0 0.795 0.644 1.437 1.437 1.437h5.245l6.794 5.435c0.26 0.208 0.578 0.315 0.898 0.315 0.211 0 0.424-0.046 0.622-0.142 0.499-0.24 0.815-0.743 0.815-1.295v-4.734l6.095 6.095 0.204-1.153c0.062-0.346-0.035-0.602-0.23-0.854zM15.311 22.062l-7.188-5.75h-5.75v-8.625h4.734l8.204 8.204v6.171z"></path>
</svg>
