<!-- Generated by IcoMoon.io -->
<svg version="1.1" xmlns="http://www.w3.org/2000/svg" width="24" height="24" viewBox="0 0 24 24">
<title>speaker</title>
<path fill="#444" d="M15.932 0.642c-0.197-0.096-0.41-0.142-0.621-0.142-0.321 0-0.64 0.106-0.898 0.315l-6.794 5.435h-5.245c-0.795 0-1.437 0.643-1.437 1.437v8.625c0 0.795 0.643 1.437 1.437 1.437h5.245l6.794 5.435c0.259 0.208 0.578 0.315 0.898 0.315 0.211 0 0.424-0.046 0.622-0.142 0.499-0.24 0.815-0.743 0.815-1.295v-20.125c0-0.553-0.318-1.055-0.816-1.295zM15.311 22.062l-7.188-5.75h-5.75v-8.625h5.75l7.188-5.75v20.125zM19.21 6.621c0.344 1.869 0.512 3.628 0.512 5.379s-0.168 3.51-0.512 5.379c-0.014 0.078-0.045 0.147-0.081 0.211l0.010-0.060-0.835-0.819c-0.253-0.246-0.326-0.509-0.312-0.828 0 0 0.292-2.424 0.292-3.883s-0.292-3.883-0.292-3.883c-0.014-0.319 0.059-0.582 0.312-0.828l0.835-0.819-0.010-0.062c0.035 0.066 0.066 0.135 0.081 0.213zM23.064 12c0 2.97-0.433 5.944-1.276 8.841l-0.792-0.84c-0.226-0.239-0.286-0.49-0.273-0.781 0.588-2.38 0.904-4.803 0.904-7.221s-0.316-4.84-0.904-7.221c-0.013-0.29 0.047-0.542 0.273-0.781l0.794-0.84c0.842 2.897 1.275 5.871 1.275 8.841z"></path>
</svg>
