<!-- Generated by IcoMoon.io -->
<svg version="1.1" xmlns="http://www.w3.org/2000/svg" width="24" height="24" viewBox="0 0 24 24">
<title>sport</title>
<path d="M12 1c-6.065 0-11 4.935-11 11s4.935 11 11 11 11-4.935 11-11-4.935-11-11-11zM20.572 16.361c-0.008-0.001-0.016-0.002-0.024-0.002l-4.021 0.026c-0.085 0.001-0.163 0.009-0.234 0.024l-0.839-1.128 0.994-4.012 1.827-0.638c0.042 0.040 0.084 0.079 0.137 0.116l3.165 2.201c-0.119 1.22-0.472 2.369-1.005 3.413zM19.058 9.716l1.122-2.771c0.825 1.332 1.331 2.877 1.419 4.537l-2.541-1.766zM19.34 5.782l-1.386 3.425c-0.039 0.096-0.059 0.185-0.069 0.273l-1.764 0.616c-0.023-0.022-0.041-0.044-0.068-0.065l-3.142-2.509c-0.054-0.043-0.107-0.074-0.16-0.104l-0.001-1.92c0.024-0.017 0.048-0.028 0.072-0.047l2.91-2.324c1.405 0.591 2.636 1.509 3.608 2.655zM15.272 10.961l-0.941 3.798h-4.463l-0.938-3.786 3.051-2.437 0.6 0.275 2.691 2.15zM14.349 2.676l-2.33 1.861-2.339-1.868c0.745-0.185 1.519-0.294 2.32-0.294 0.812 0 1.596 0.112 2.349 0.301zM8.294 3.117l2.922 2.334c0.107 0.085 0.212 0.137 0.319 0.171l0.002 1.758c-0.077 0.035-0.154 0.079-0.232 0.141l-3.142 2.509c-0.015 0.012-0.025 0.026-0.039 0.038l-0.093 0.074-1.986-0.694c-0.013-0.060-0.029-0.119-0.054-0.183l-1.385-3.423c0.985-1.182 2.247-2.123 3.688-2.725zM3.402 16.303h-0.003c-0.513-1.023-0.857-2.146-0.976-3.337l3.109-2.161c0.080-0.056 0.144-0.116 0.199-0.179l2.037 0.711 0.945 3.818-0.972 1.307c-0.081-0.023-0.168-0.039-0.267-0.043l-4.019-0.12c-0.018 0-0.034 0.004-0.053 0.004zM3.773 7.023l1.113 2.751-2.486 1.729c0.084-1.635 0.573-3.16 1.373-4.48zM4.134 17.535l3.362 0.1 0.619 3.167c-1.606-0.711-2.98-1.847-3.981-3.267zM9.445 21.271l-0.745-3.812c-0.013-0.066-0.033-0.122-0.053-0.178l1.011-1.36c0.101 0.032 0.21 0.053 0.338 0.054h4.216c0.083 0 0.158-0.008 0.229-0.021l0.909 1.223c-0.029 0.066-0.053 0.138-0.071 0.219l-0.86 3.911c-0.774 0.201-1.581 0.319-2.418 0.319-0.887-0.001-1.741-0.131-2.556-0.355zM15.76 20.862l0.717-3.262 3.356-0.021c-1.025 1.436-2.428 2.584-4.073 3.283z"></path>
</svg>
