<!-- Generated by IcoMoon.io -->
<svg version="1.1" xmlns="http://www.w3.org/2000/svg" width="32" height="32" viewBox="0 0 32 32">
<title>sport</title>
<path d="M16 1.333c-8.087 0-14.667 6.58-14.667 14.667s6.58 14.667 14.667 14.667 14.667-6.58 14.667-14.667-6.58-14.667-14.667-14.667zM27.429 21.815c-0.011-0.001-0.021-0.003-0.032-0.003l-5.361 0.035c-0.113 0.001-0.217 0.012-0.312 0.032l-1.119-1.504 1.325-5.349 2.436-0.851c0.056 0.053 0.112 0.105 0.183 0.155l4.22 2.935c-0.159 1.627-0.629 3.159-1.34 4.551zM25.411 12.955l1.496-3.695c1.1 1.776 1.775 3.836 1.892 6.049l-3.388-2.355zM25.787 7.709l-1.848 4.567c-0.052 0.128-0.079 0.247-0.092 0.364l-2.352 0.821c-0.031-0.029-0.055-0.059-0.091-0.087l-4.189-3.345c-0.072-0.057-0.143-0.099-0.213-0.139l-0.001-2.56c0.032-0.023 0.064-0.037 0.096-0.063l3.88-3.099c1.873 0.788 3.515 2.012 4.811 3.54zM20.363 14.615l-1.255 5.064h-5.951l-1.251-5.048 4.068-3.249 0.8 0.367 3.588 2.867zM19.132 3.568l-3.107 2.481-3.119-2.491c0.993-0.247 2.025-0.392 3.093-0.392 1.083 0 2.128 0.149 3.132 0.401zM11.059 4.156l3.896 3.112c0.143 0.113 0.283 0.183 0.425 0.228l0.003 2.344c-0.103 0.047-0.205 0.105-0.309 0.188l-4.189 3.345c-0.020 0.016-0.033 0.035-0.052 0.051l-0.124 0.099-2.648-0.925c-0.017-0.080-0.039-0.159-0.072-0.244l-1.847-4.564c1.313-1.576 2.996-2.831 4.917-3.633zM4.536 21.737h-0.004c-0.684-1.364-1.143-2.861-1.301-4.449l4.145-2.881c0.107-0.075 0.192-0.155 0.265-0.239l2.716 0.948 1.26 5.091-1.296 1.743c-0.108-0.031-0.224-0.052-0.356-0.057l-5.359-0.16c-0.024 0-0.045 0.005-0.071 0.005zM5.031 9.364l1.484 3.668-3.315 2.305c0.112-2.18 0.764-4.213 1.831-5.973zM5.512 23.38l4.483 0.133 0.825 4.223c-2.141-0.948-3.973-2.463-5.308-4.356zM12.593 28.361l-0.993-5.083c-0.017-0.088-0.044-0.163-0.071-0.237l1.348-1.813c0.135 0.043 0.28 0.071 0.451 0.072h5.621c0.111 0 0.211-0.011 0.305-0.028l1.212 1.631c-0.039 0.088-0.071 0.184-0.095 0.292l-1.147 5.215c-1.032 0.268-2.108 0.425-3.224 0.425-1.183-0.001-2.321-0.175-3.408-0.473zM21.013 27.816l0.956-4.349 4.475-0.028c-1.367 1.915-3.237 3.445-5.431 4.377z"></path>
</svg>
