<!-- Generated by IcoMoon.io -->
<svg version="1.1" xmlns="http://www.w3.org/2000/svg" width="24" height="24" viewBox="0 0 24 24">
<title>stamp</title>
<path fill="#444" d="M22.856 18.26l-1.375-2.75c-0.231-0.461-0.7-0.755-1.216-0.76h-2.765c-0.374 0-1.569-0.005-2.496-1.87-0.092-0.187-0.142-0.384-0.151-0.602 0.089-0.127 0.312-0.366 0.511-0.579 0.236-0.256 0.518-0.557 0.843-0.936 0.49-0.575 1.089-1.372 1.361-2.447 0.557-2.193 0.015-4.169-1.569-5.714-1.057-1.033-2.465-1.601-4.009-1.601-0.055 0-0.11 0.004-0.162 0.011-1.449 0.033-2.804 0.598-3.827 1.598-1.585 1.546-2.127 3.521-1.57 5.714 0.274 1.075 0.872 1.873 1.363 2.449 0.323 0.377 0.604 0.679 0.842 0.935 0.199 0.213 0.422 0.452 0.511 0.579-0.010 0.219-0.059 0.417-0.151 0.602-0.921 1.855-2.093 1.862-2.496 1.862-0.003 0-2.765 0.010-2.765 0.010-0.516 0.005-0.983 0.298-1.214 0.759l-1.375 2.74c-0.213 0.426-0.191 0.934 0.059 1.339s0.693 0.652 1.17 0.652h19.25c0.477 0 0.919-0.247 1.17-0.653s0.272-0.912 0.061-1.337zM2.375 18.875l1.375-2.74c0 0 1.499-0.017 2.772-0.005 1.749 0.015 2.948-1.103 3.706-2.63 0.201-0.407 0.297-0.846 0.296-1.303-0.003-0.671-0.595-1.044-1.684-2.317-0.481-0.564-0.89-1.167-1.075-1.893-0.429-1.687-0.051-3.175 1.198-4.392 0.859-0.84 1.954-1.217 3.039-1.209v-0.010c1.085-0.008 2.179 0.37 3.039 1.209 1.249 1.218 1.627 2.705 1.198 4.392-0.184 0.726-0.594 1.33-1.075 1.893-1.089 1.273-1.682 1.646-1.684 2.317-0.001 0.458 0.095 0.896 0.296 1.303 0.759 1.528 1.957 2.651 3.706 2.636 1.273-0.011 2.772 0 2.772 0l1.375 2.75h-19.25zM1 23l0.642-0.917c0.231-0.33 0.499-0.457 0.902-0.458h18.912c0.403 0.001 0.671 0.128 0.902 0.458l0.642 0.917h-22z"></path>
</svg>
