<!-- Generated by IcoMoon.io -->
<svg version="1.1" xmlns="http://www.w3.org/2000/svg" width="32" height="32" viewBox="0 0 32 32">
<title>stamp</title>
<path d="M30.475 24.344l-1.833-3.667c-0.309-0.611-0.936-1.005-1.624-1.011h-3.684c-0.5 0-2.092-0.005-3.327-2.493-0.124-0.251-0.188-0.513-0.201-0.804 0.117-0.169 0.416-0.487 0.679-0.772 0.316-0.341 0.691-0.744 1.125-1.251 0.651-0.76 1.449-1.831 1.812-3.264 0.744-2.923 0.023-5.559-2.092-7.62-1.405-1.376-3.283-2.129-5.343-2.129-0.073 0-0.145 0.004-0.216 0.011-1.932 0.048-3.737 0.8-5.101 2.136-2.115 2.060-2.836 4.696-2.092 7.619 0.363 1.433 1.161 2.496 1.817 3.265 0.431 0.499 0.805 0.901 1.12 1.243 0.264 0.285 0.561 0.603 0.679 0.772-0.009 0.299-0.077 0.56-0.2 0.803-1.225 2.479-2.787 2.485-3.327 2.485-0.003 0-3.685 0.009-3.685 0.009-0.687 0.013-1.313 0.399-1.619 1.017l-1.833 3.649c-0.285 0.569-0.256 1.249 0.077 1.791 0.333 0.533 0.927 0.867 1.56 0.867h25.667c0.635 0 1.227-0.333 1.56-0.867 0.332-0.543 0.363-1.22 0.081-1.789zM3.167 25.167l1.833-3.657c0 0 2-0.016 3.695-0.005 2.333 0.023 3.928-1.468 4.941-3.504 0.269-0.543 0.397-1.133 0.396-1.741-0.007-0.892-0.796-1.395-2.247-3.089-0.641-0.751-1.187-1.553-1.432-2.524-0.572-2.245-0.069-4.233 1.595-5.852 1.145-1.119 2.607-1.625 4.052-1.617v-0.009c1.445-0.008 2.907 0.491 4.052 1.609 1.664 1.627 2.167 3.607 1.595 5.861-0.245 0.963-0.791 1.773-1.433 2.524-1.451 1.695-2.24 2.191-2.247 3.089-0.001 0.608 0.127 1.191 0.396 1.733 1.013 2.036 2.609 3.539 4.941 3.517 1.699-0.011 3.695 0 3.695 0l1.833 3.667h-25.665zM1.333 30.667l0.857-1.225c0.305-0.437 0.664-0.607 1.203-0.608h25.213c0.539 0.001 0.897 0.171 1.203 0.608l0.857 1.225h-29.333z"></path>
</svg>
