<!-- Generated by IcoMoon.io -->
<svg version="1.1" xmlns="http://www.w3.org/2000/svg" width="24" height="24" viewBox="0 0 24 24">
<title>stapler</title>
<path fill="#444" d="M0.851 18.553l0.651-0.93c0.234-0.334 0.506-0.463 0.914-0.464h19.168c0.408 0.001 0.68 0.13 0.914 0.464l0.651 0.93h-22.298zM23.137 13.331c0.068 0.514-0.155 1.026-0.581 1.325l-0.93 0.648c-0.698 0.491-1.469 0.591-2.291 0.297l-14.759-5.373c0.008 0.064 0 1.357 0 1.357l-0.891-0.652c-0.334-0.234-0.463-0.506-0.465-0.914v-0.432c-0.413-0.319-0.707-0.744-0.854-1.292l-0.291-1.094c-0.135-0.503 0.021-1.037 0.404-1.388s0.93-0.459 1.419-0.282l18.335 6.673c0.489 0.176 0.836 0.612 0.904 1.126zM21.756 13.514l-18.335-6.673 0.293 1.097c0.105 0.394 0.318 0.608 0.701 0.747l15.393 5.602c0.383 0.141 0.684 0.114 1.017-0.121l0.931-0.652z"></path>
</svg>
