<!-- Generated by IcoMoon.io -->
<svg version="1.1" xmlns="http://www.w3.org/2000/svg" width="24" height="24" viewBox="0 0 24 24">
<title>stapler</title>
<path d="M1 18.466l0.643-0.918c0.229-0.328 0.498-0.455 0.902-0.457h18.91c0.404 0.002 0.673 0.129 0.902 0.457l0.643 0.918h-22zM22.988 13.313c0.066 0.51-0.152 1.012-0.575 1.309l-0.916 0.641c-0.688 0.48-1.449 0.582-2.259 0.289l-14.563-5.297c0.009 0.062 0 1.336 0 1.336l-0.879-0.643c-0.328-0.232-0.455-0.498-0.457-0.902v-0.428c-0.408-0.31-0.698-0.732-0.844-1.271l-0.288-1.078c-0.132-0.497 0.020-1.026 0.401-1.372 0.378-0.346 0.916-0.453 1.398-0.279l18.090 6.582c0.483 0.18 0.825 0.61 0.892 1.113zM21.625 13.497l-18.089-6.588 0.289 1.080c0.104 0.395 0.312 0.6 0.69 0.742l15.188 5.525c0.378 0.135 0.676 0.111 1.006-0.123l0.916-0.636z"></path>
</svg>
