<!-- Generated by IcoMoon.io -->
<svg version="1.1" xmlns="http://www.w3.org/2000/svg" width="32" height="32" viewBox="0 0 32 32">
<title>star5</title>
<path d="M30.583 12.705c-0.212-0.673-0.795-1.165-1.496-1.264l-7.927-1.108-3.532-6.831c-0.313-0.608-0.943-0.991-1.628-0.991s-1.315 0.383-1.628 0.991l-3.532 6.831-7.927 1.108c-0.701 0.099-1.283 0.591-1.496 1.264-0.213 0.675-0.017 1.413 0.5 1.895l5.684 5.283-1.337 7.448c-0.123 0.685 0.151 1.377 0.707 1.793 0.323 0.241 0.709 0.364 1.097 0.364 0.281 0 0.561-0.064 0.823-0.195l7.109-3.568 7.107 3.568c0.26 0.132 0.541 0.195 0.823 0.195 0.389 0 0.775-0.124 1.096-0.364 0.557-0.416 0.831-1.108 0.708-1.793l-1.336-7.448 5.684-5.283c0.519-0.481 0.713-1.22 0.501-1.895zM22.416 19.223l1.513 8.432-7.929-3.981-7.931 3.981 1.513-8.432-6.416-5.967 8.867-1.239 3.967-7.672 3.967 7.673 8.867 1.239-6.417 5.965z"></path>
</svg>
