<!-- Generated by IcoMoon.io -->
<svg version="1.1" xmlns="http://www.w3.org/2000/svg" width="24" height="24" viewBox="0 0 24 24">
<title>star5</title>
<path fill="#444" d="M22.85 9.549c-0.158-0.501-0.591-0.868-1.112-0.94l-5.898-0.824-2.629-5.083c-0.233-0.453-0.701-0.738-1.211-0.738s-0.978 0.285-1.211 0.738l-2.627 5.081-5.898 0.825c-0.521 0.074-0.955 0.439-1.112 0.94-0.158 0.502-0.014 1.052 0.372 1.409l4.229 3.931-0.996 5.542c-0.091 0.509 0.113 1.024 0.527 1.334 0.24 0.18 0.528 0.271 0.817 0.271 0.209 0 0.419-0.048 0.612-0.145l5.287-2.656 5.287 2.655c0.194 0.097 0.402 0.145 0.612 0.145 0.289 0 0.576-0.091 0.816-0.271 0.415-0.31 0.618-0.824 0.527-1.334l-0.994-5.541 4.229-3.931c0.386-0.357 0.532-0.907 0.374-1.409zM16.774 14.398l1.125 6.275-5.9-2.963-5.901 2.963 1.127-6.275-4.774-4.439 6.597-0.922 2.952-5.709 2.952 5.71 6.597 0.921-4.774 4.439z"></path>
</svg>
