<!-- Generated by IcoMoon.io -->
<svg version="1.1" xmlns="http://www.w3.org/2000/svg" width="24" height="24" viewBox="0 0 24 24">
<title>steering_wheel</title>
<path fill="#444" d="M12 1c-6.075 0-11 4.925-11 11 0 1.547 0.322 3.017 0.899 4.353 0.183 0.426 0.4 0.832 0.634 1.229 1.914 3.238 5.431 5.417 9.467 5.417 4.025 0 7.534-2.167 9.452-5.393 0.234-0.393 0.451-0.8 0.635-1.224 0.584-1.343 0.913-2.824 0.913-4.384 0-6.075-4.925-11-11-11zM12 21.625c-3.561 0-6.665-1.94-8.328-4.815l7.87-5.56c0.151-0.107 0.305-0.162 0.458-0.162s0.307 0.055 0.458 0.162l7.853 5.587c-1.669 2.863-4.76 4.789-8.311 4.789zM20.938 15.559l-8.938-6.308-8.948 6.277c-0.432-1.093-0.677-2.281-0.677-3.527 0-5.316 4.309-9.625 9.625-9.625s9.625 4.309 9.625 9.625c0 1.258-0.249 2.457-0.688 3.559z"></path>
</svg>
