<!-- Generated by IcoMoon.io -->
<svg version="1.1" xmlns="http://www.w3.org/2000/svg" width="32" height="32" viewBox="0 0 32 32">
<title>steering_wheel</title>
<path d="M16 1.333c-8.103 0-14.667 6.565-14.667 14.667 0 2.063 0.429 4.020 1.2 5.807 0.244 0.561 0.532 1.104 0.845 1.637 2.552 4.32 7.24 7.223 12.621 7.223 5.367 0 10.043-2.891 12.603-7.191 0.313-0.523 0.601-1.065 0.847-1.632 0.777-1.787 1.217-3.761 1.217-5.844 0-8.101-6.564-14.667-14.667-14.667zM16 28.833c-4.751 0-8.884-2.584-11.103-6.419l10.491-7.416c0.205-0.143 0.409-0.212 0.612-0.212s0.407 0.069 0.612 0.212l10.471 7.449c-2.228 3.813-6.352 6.385-11.083 6.385zM27.917 20.748l-11.917-8.415-11.931 8.368c-0.575-1.459-0.903-3.040-0.903-4.701 0-7.084 5.745-12.833 12.833-12.833s12.833 5.749 12.833 12.833c0 1.681-0.331 3.273-0.916 4.748z"></path>
</svg>
