<!-- Generated by IcoMoon.io -->
<svg version="1.1" xmlns="http://www.w3.org/2000/svg" width="24" height="24" viewBox="0 0 24 24">
<title>steering_wheel</title>
<path d="M12 1c-6.077 0-11 4.924-11 11 0 1.547 0.322 3.015 0.9 4.355 0.183 0.421 0.399 0.828 0.634 1.228 1.914 3.24 5.43 5.417 9.466 5.417 4.025 0 7.532-2.168 9.452-5.393 0.235-0.392 0.451-0.799 0.635-1.224 0.583-1.34 0.913-2.821 0.913-4.383 0-6.076-4.923-11-11-11zM12 21.625c-3.563 0-6.663-1.938-8.327-4.814l7.868-5.562c0.154-0.107 0.307-0.159 0.459-0.159s0.305 0.052 0.459 0.159l7.853 5.587c-1.671 2.86-4.764 4.789-8.312 4.789zM20.938 15.561l-8.938-6.311-8.948 6.276c-0.431-1.094-0.677-2.28-0.677-3.526 0-5.313 4.309-9.625 9.625-9.625s9.625 4.312 9.625 9.625c0 1.261-0.248 2.455-0.687 3.561z"></path>
</svg>
