<!-- Generated by IcoMoon.io -->
<svg version="1.1" xmlns="http://www.w3.org/2000/svg" width="24" height="24" viewBox="0 0 24 24">
<title>stethoscope</title>
<path fill="#444" d="M20.25 9.737c-1.517 0-2.75 1.236-2.75 2.758 0 1.28 0.877 2.346 2.057 2.658-0.032 4.438-2.256 6.468-4.33 6.468-1.313 0-2.559-0.754-3.512-2.122-0.804-1.158-1.76-3.312-1.775-6.977l7.432-10.432c0.15-0.209 0.17-0.487 0.052-0.716-0.118-0.231-0.353-0.374-0.612-0.374h-1.376l-0.688 0.034c-0.302 0.034-0.54 0.144-0.733 0.424l-0.642 0.921h2.102l-6.226 8.74-6.226-8.74h2.101c0.017 0 0.029-0.008 0.045-0.011l-0.635-0.91c-0.194-0.274-0.432-0.385-0.733-0.424l-0.688-0.034h-1.427c-0.259 0-0.494 0.143-0.611 0.374-0.118 0.228-0.099 0.507 0.051 0.716l7.44 10.443c0.014 3.185 0.708 5.869 2.018 7.754 1.199 1.724 2.89 2.713 4.639 2.713 2.734 0 5.669-2.459 5.705-7.844 1.187-0.304 2.069-1.378 2.069-2.661 0-1.521-1.233-2.758-2.75-2.758zM20.25 13.874c-0.759 0-1.375-0.616-1.375-1.379s0.616-1.379 1.375-1.379 1.375 0.616 1.375 1.379-0.616 1.379-1.375 1.379z"></path>
</svg>
