<!-- Generated by IcoMoon.io -->
<svg version="1.1" xmlns="http://www.w3.org/2000/svg" width="32" height="32" viewBox="0 0 32 32">
<path d="M27 12.983c-2.023 0-3.667 1.649-3.667 3.677 0 1.707 1.169 3.129 2.743 3.543-0.043 5.917-3.009 8.625-5.775 8.625-1.749 0-3.413-1.005-4.681-2.829-1.073-1.543-2.348-4.416-2.367-9.303l9.909-13.909c0.2-0.279 0.227-0.649 0.069-0.953-0.157-0.309-0.472-0.5-0.816-0.5h-1.836l-0.917 0.047c-0.403 0.047-0.72 0.193-0.977 0.564l-0.856 1.228h2.805l-8.303 11.653-8.303-11.653h2.803c0.021 0 0.039-0.011 0.060-0.015l-0.848-1.213c-0.256-0.365-0.572-0.515-0.975-0.564l-0.917-0.047h-1.901c-0.344 0-0.659 0.191-0.815 0.5-0.159 0.304-0.131 0.675 0.068 0.953l9.919 13.924c0.017 4.247 0.944 7.824 2.692 10.337 1.599 2.301 3.855 3.619 6.187 3.619 3.645 0 7.557-3.279 7.607-10.46 1.581-0.404 2.759-1.837 2.759-3.547 0-2.027-1.644-3.677-3.667-3.677zM27 18.5c-1.012 0-1.833-0.823-1.833-1.84s0.821-1.839 1.833-1.839 1.833 0.821 1.833 1.839-0.821 1.84-1.833 1.84z"></path>
</svg>
