<!-- Generated by IcoMoon.io -->
<svg version="1.1" xmlns="http://www.w3.org/2000/svg" width="24" height="24" viewBox="0 0 24 24">
<title>stock</title>
<path d="M9.748 12.716c0.403-0.001 0.671-0.128 0.902-0.458l0.642-0.917h-3.294l0.642 0.917c0.231 0.33 0.5 0.457 0.902 0.458h0.206z"></path>
<path d="M16.221 10.704h-0.206c-0.403 0.001-0.671 0.128-0.902 0.458l-0.642 0.917h3.294l-0.642-0.917c-0.23-0.33-0.499-0.457-0.902-0.458z"></path>
<path d="M23.030 8.407v-4.812c0-0.556-0.334-1.056-0.846-1.269l-2.916-1.25c-0.344-0.143-0.729-0.141-1.070 0.005l-2.667 1.125c-0.507 0.216-0.834 0.714-0.834 1.264v1.37h-2.005v-3.906l-0.884 0.619c-0.318 0.223-0.44 0.481-0.441 0.87v3.15c-0.222-0.146-0.47-0.247-0.74-0.247h-3.609l-0.541 0.168c-0.507 0.157-0.834 0.518-0.834 0.916v0.293h-0.256v-3.962c0-0.391-0.327-0.744-0.834-0.898l-0.541-0.164h-1.63l-0.541 0.206c-0.507 0.193-0.834 0.636-0.834 1.126v6.693l0.168 0.541c0.157 0.507 0.518 0.834 0.917 0.834h3.551v0.575h-0.765c-0.55 0-1.047 0.327-1.264 0.834l-0.232 0.541h2.262v0.071c0 0.55 0.327 1.047 0.834 1.264l0.146 0.063v0.271h-0.001v5.075c0 0.214 0.045 0.413 0.135 0.597l0.48 1.119c0.216 0.507 0.714 0.834 1.264 0.834h2.865v0.673l0.883-0.619c0.025-0.017 0.041-0.036 0.063-0.054h1.82l-0.001-0.006h5.352c0.552 0 1.048-0.331 1.264-0.837v0 0c0.001-0.003 0.004-0.005 0.005-0.008l2.196-5.271h-0.019c0.114-0.325 0.116-0.678-0.020-0.995l-1.305-3.044-0.526-1.232 1.548-1.548c0.258-0.261 0.403-0.61 0.403-0.975zM8.501 20.947l-0.491-1.146v-0.030l-0.013-0.609v-0.521h0.001v-4.217c0-0.547-0.325-1.041-0.827-1.259v0c-0.003-0.001-0.004-0.003-0.007-0.004l-0.146-0.063v-3.395h-4.636v-6.65h1.63v5.025h3.006v-1.378h3.608l0.74 0.74v11.13l-0.196-0.28c-0.231-0.33-0.499-0.456-0.902-0.459h-1.206l0.642 0.917c0.231 0.33 0.499 0.457 0.902 0.458h0.76v1.74h-2.865zM21.655 8.407l-1.157 1.157-1.233-2.89c-0.159-0.37-0.381-0.567-0.775-0.65l-1.095-0.23 1.099 2.575h-0.008l1.897 4.426c0.001 0.002 0.001 0.002 0.002 0.003l1.263 2.946-2.166 5.196-6.791 0.006v-1.327h2.299l-0.636-0.908c-0.229-0.327-0.495-0.452-0.894-0.454h-0.767v-1.545c0.354-0.019 0.604-0.145 0.818-0.45l0.642-0.917v-1.375h-1.461v-7.768h1.847c0.399-0.001 0.665-0.126 0.894-0.454l0.633-0.904 0.007-0.005v-1.369l2.667-1.125 2.916 1.25v4.812z"></path>
</svg>
