<!-- Generated by IcoMoon.io -->
<svg version="1.1" xmlns="http://www.w3.org/2000/svg" width="24" height="24" viewBox="0 0 24 24">
<title>stock</title>
<path d="M23 14.349c0-2.223-1.89-4.026-4.222-4.026s-4.222 1.803-4.222 4.026c0 1.263 0.623 2.377 1.578 3.116-0.007 0.021-0.741 5.066-0.741 5.066-0.022 0.153 0.049 0.303 0.184 0.388 0.070 0.046 0.152 0.069 0.234 0.069 0.073 0 0.147-0.019 0.212-0.055l2.753-1.529 2.753 1.529c0.139 0.078 0.314 0.073 0.447-0.013 0.134-0.085 0.206-0.236 0.184-0.388 0 0-0.733-5.047-0.739-5.066 0.956-0.741 1.579-1.855 1.579-3.117z"></path>
<path d="M19.264 20.529c-0.151-0.084-0.318-0.126-0.486-0.126-0.167 0-0.334 0.042-0.486 0.126l-1.737 0.965c0.206-1.419 0.53-3.639 0.564-3.853 0.066-0.362-0.075-0.737-0.372-0.968-0.757-0.586-1.191-1.433-1.191-2.325 0-1.668 1.445-3.025 3.222-3.025 1.776 0 3.222 1.357 3.222 3.025 0 0.893-0.433 1.74-1.188 2.324-0.295 0.229-0.436 0.6-0.374 0.961 0.030 0.193 0.356 2.433 0.563 3.86l-1.737-0.964z"></path>
<path d="M15.833 19.52h-13.571l0.002-9.843 3.318-3.317v2.748l2.75-2.748v2.748l2.752-2.748v3.148h4.934v-4.696l-1.195-1.707h4.758l-1.161 1.662-0.001 5.591c0.121-0.010 0.237-0.035 0.36-0.035 0.309 0 0.608 0.036 0.899 0.096l0.001-5.253 0.935-1.336c0.269-0.386 0.303-0.892 0.085-1.31-0.218-0.413-0.649-0.676-1.118-0.676h-4.758c-0.473 0-0.904 0.262-1.119 0.676-0.217 0.418-0.186 0.925 0.085 1.31l0.968 1.382v3.042h-2.412v-1.893c0-0.512-0.31-0.972-0.779-1.165-0.156-0.069-0.319-0.097-0.482-0.097-0.327 0-0.65 0.124-0.891 0.368l-0.629 0.628c-0.086-0.4-0.363-0.742-0.749-0.899-0.158-0.069-0.321-0.097-0.484-0.097-0.328 0-0.65 0.124-0.891 0.368l-0.625 0.628c-0.086-0.399-0.362-0.742-0.752-0.9-0.156-0.068-0.318-0.096-0.481-0.096-0.33 0-0.65 0.124-0.891 0.368l-3.319 3.322c-0.237 0.235-0.37 0.556-0.37 0.888l-0.002 9.843c0 0.694 0.565 1.261 1.262 1.261h13.387c0.059-0.407 0.123-0.842 0.184-1.261z"></path>
</svg>
