<!-- Generated by IcoMoon.io -->
<svg version="1.1" xmlns="http://www.w3.org/2000/svg" width="24" height="24" viewBox="0 0 24 24">
<title>stock</title>
<path d="M12 18.94l0.51 0.4c0.18 0.14 0.35 0.17 0.58 0.1l0.67-0.21-0.51-0.4c-0.18-0.14-0.35-0.17-0.58-0.1l-0.67 0.21z"></path>
<path d="M6.88 17.65v-1.21c0-0.4-0.13-0.67-0.46-0.9l-0.92-0.64v1.2c0 0.4 0.13 0.67 0.46 0.9l0.92 0.65z"></path>
<path d="M14.030 18.36l0.67-0.21-0.51-0.4c-0.18-0.14-0.35-0.17-0.58-0.1l-0.67 0.21 0.51 0.4c0.19 0.15 0.36 0.17 0.58 0.1z"></path>
<path d="M15.27 17.16l-0.67 0.21 0.51 0.4c0.18 0.14 0.35 0.17 0.58 0.1l0.67-0.21-0.51-0.39c-0.19-0.15-0.36-0.18-0.58-0.11z"></path>
<path d="M15.39 8.4c-0.27 0.3-0.35 0.59-0.26 0.98l0.26 1.090 0.8-0.9c0.27-0.3 0.35-0.59 0.26-0.98l-0.26-1.090-0.8 0.9z"></path>
<path d="M13.82 20.86l-0.67 0.21 0.51 0.4c0.18 0.14 0.35 0.17 0.58 0.1l0.67-0.21-0.51-0.4c-0.18-0.14-0.35-0.17-0.58-0.1z"></path>
<path d="M13.3 19.98c-0.19-0.14-0.36-0.17-0.58-0.1l-0.67 0.21 0.51 0.4c0.18 0.14 0.35 0.17 0.58 0.1l0.67-0.21-0.51-0.4z"></path>
<path d="M17.92 14.27c-0.17-0.16-0.4-0.21-0.62-0.13l-3.28 1.19-1.53-1.24 1.93-3.31c0.090-0.15 0.1-0.32 0.050-0.48l-0.53-1.65 5.040-6.030h4.020l-0.57-0.81c-0.16-0.22-0.36-0.34-0.59-0.39h-3.14c-0.18 0-0.35 0.080-0.46 0.22l-5.43 6.49c-0.13 0.16-0.17 0.37-0.11 0.57l0.55 1.71-2.060 3.53c-0.15 0.26-0.090 0.58 0.14 0.77l2.19 1.78c0.16 0.13 0.38 0.17 0.58 0.1l3.25-1.17 5.45 5.21 0.17-0.95c0.050-0.27-0.010-0.48-0.14-0.68l-4.91-4.73z"></path>
<path d="M14.25 1.46c-0.27-0.13-0.59-0.030-0.75 0.22-0.030 0.050-3.31 4.91-11.9 4.91-0.33-0.010-0.6 0.26-0.6 0.59s0.27 0.6 0.6 0.6c5.4 0 8.84-1.77 10.8-3.3-0.55 1.16-1.31 2.45-2.24 3.24-1.89 1.6-4.45 2.29-8.56 2.29-0.33 0-0.6 0.27-0.6 0.6s0.27 0.6 0.6 0.6c2.52 0 4.5-0.26 6.14-0.81v9.010h-3.3l-1.95-5.94c-0.12-0.16-0.27-0.29-0.5-0.36l-0.96-0.28c0.010 0.020 0 0.050 0.010 0.070l2.4 7.29c0.070 0.24 0.3 0.41 0.56 0.41h4.34c0.33 0 0.6-0.27 0.6-0.6v-10.090c0.73-0.35 1.4-0.77 2-1.28 2.31-1.97 3.59-6.28 3.64-6.47 0.080-0.28-0.060-0.58-0.33-0.7z"></path>
</svg>
