<!-- Generated by IcoMoon.io -->
<svg version="1.1" xmlns="http://www.w3.org/2000/svg" width="32" height="32" viewBox="0 0 32 32">
<title>stock</title>
<path d="M16 25.253l0.68 0.533c0.24 0.187 0.467 0.227 0.773 0.133l0.893-0.28-0.68-0.533c-0.24-0.187-0.467-0.227-0.773-0.133l-0.893 0.28z"></path>
<path d="M9.173 23.533v-1.613c0-0.533-0.173-0.893-0.613-1.2l-1.227-0.853v1.6c0 0.533 0.173 0.893 0.613 1.2l1.227 0.867z"></path>
<path d="M18.707 24.48l0.893-0.28-0.68-0.533c-0.24-0.187-0.467-0.227-0.773-0.133l-0.893 0.28 0.68 0.533c0.253 0.2 0.48 0.227 0.773 0.133z"></path>
<path d="M20.36 22.88l-0.893 0.28 0.68 0.533c0.24 0.187 0.467 0.227 0.773 0.133l0.893-0.28-0.68-0.52c-0.253-0.2-0.48-0.24-0.773-0.147z"></path>
<path d="M20.52 11.2c-0.36 0.4-0.467 0.787-0.347 1.307l0.347 1.453 1.067-1.2c0.36-0.4 0.467-0.787 0.347-1.307l-0.347-1.453-1.067 1.2z"></path>
<path d="M18.427 27.813l-0.893 0.28 0.68 0.533c0.24 0.187 0.467 0.227 0.773 0.133l0.893-0.28-0.68-0.533c-0.24-0.187-0.467-0.227-0.773-0.133z"></path>
<path d="M17.733 26.64c-0.253-0.187-0.48-0.227-0.773-0.133l-0.893 0.28 0.68 0.533c0.24 0.187 0.467 0.227 0.773 0.133l0.893-0.28-0.68-0.533z"></path>
<path d="M23.893 19.027c-0.227-0.213-0.533-0.28-0.827-0.173l-4.373 1.587-2.040-1.653 2.573-4.413c0.12-0.2 0.133-0.427 0.067-0.64l-0.707-2.2 6.72-8.040h5.36l-0.76-1.080c-0.213-0.293-0.48-0.453-0.787-0.52h-4.187c-0.24 0-0.467 0.107-0.613 0.293l-7.24 8.653c-0.173 0.213-0.227 0.493-0.147 0.76l0.733 2.28-2.747 4.707c-0.2 0.347-0.12 0.773 0.187 1.027l2.92 2.373c0.213 0.173 0.507 0.227 0.773 0.133l4.333-1.56 7.267 6.947 0.227-1.267c0.067-0.36-0.013-0.64-0.187-0.907l-6.547-6.307z"></path>
<path d="M19 1.947c-0.36-0.173-0.787-0.040-1 0.293-0.040 0.067-4.413 6.547-15.867 6.547-0.44-0.013-0.8 0.347-0.8 0.787s0.36 0.8 0.8 0.8c7.2 0 11.787-2.36 14.4-4.4-0.733 1.547-1.747 3.267-2.987 4.32-2.52 2.133-5.933 3.053-11.413 3.053-0.44 0-0.8 0.36-0.8 0.8s0.36 0.8 0.8 0.8c3.36 0 6-0.347 8.187-1.080v12.013h-4.4l-2.6-7.92c-0.16-0.213-0.36-0.387-0.667-0.48l-1.28-0.373c0.013 0.027 0 0.067 0.013 0.093l3.2 9.72c0.093 0.32 0.4 0.547 0.747 0.547h5.787c0.44 0 0.8-0.36 0.8-0.8v-13.453c0.973-0.467 1.867-1.027 2.667-1.707 3.080-2.627 4.787-8.373 4.853-8.627 0.107-0.373-0.080-0.773-0.44-0.933z"></path>
</svg>
