<!-- Generated by IcoMoon.io -->
<svg version="1.1" xmlns="http://www.w3.org/2000/svg" width="24" height="24" viewBox="0 0 24 24">
<title>store</title>
<path fill="#444" d="M21.625 10.857c1.214-0.991 1.669-3.391 1.163-4.994l-1.226-3.901c-0.18-0.573-0.711-0.962-1.312-0.962h-16.5c-0.601 0-1.132 0.389-1.312 0.962l-1.226 3.901c-0.505 1.603-0.051 4.003 1.163 4.994 0.004 0.003 0 10.768 0 10.768 0 0.367 0.146 0.716 0.404 0.975 0.259 0.257 0.608 0.4 0.971 0.4 0 0 3.257 0 6.875 0h2.75c3.618 0 6.875 0 6.875 0 0.364 0 0.712-0.143 0.971-0.4 0.259-0.259 0.404-0.609 0.404-0.975 0 0-0.003-10.765 0-10.768zM13.375 21.625c-0.917 0-1.825 0-2.75 0 0-2.284 0-4.568 0-6.875 0.905 0 1.819 0 2.75 0 0 2.299 0 4.577 0 6.875zM20.25 21.625h-5.5v-6.875c0-0.76-0.616-1.375-1.375-1.375h-2.75c-0.759 0-1.375 0.615-1.375 1.375v6.875h-5.5c0 0-0.003-7.366 0-10.523 0.568 0.091 1.521 0.071 2.023-0.004 0.549-0.087 1.040-0.351 1.493-0.69 0.538 0.388 1.123 0.638 1.774 0.723 0.993 0.132 1.921-0.050 2.762-0.605 0.122-0.084 0.201-0.106 0.338-0.012 1.295 0.883 3.066 0.883 4.375 0.005 0.125-0.085 0.202-0.094 0.338-0.004 0.81 0.551 1.704 0.777 2.68 0.653 0.063-0.008 0.543-0.059 0.716-0.091v10.548zM20.009 9.724c-0.121 0.022-0.411 0.052-0.653 0.080-0.116 0.015-0.23 0.023-0.342 0.023-0.492 0-0.947-0.146-1.401-0.455-0.293-0.197-0.605-0.294-0.929-0.294-0.326 0-0.642 0.1-0.936 0.3-0.414 0.276-0.906 0.422-1.423 0.422s-1.005-0.146-1.407-0.419c-0.293-0.201-0.608-0.302-0.938-0.302-0.492 0-0.836 0.232-0.938 0.301-0.426 0.282-0.883 0.418-1.398 0.418-0.14 0-0.282-0.010-0.425-0.029-0.403-0.054-0.78-0.209-1.148-0.476-0.241-0.173-0.523-0.26-0.804-0.26-0.29 0-0.58 0.091-0.825 0.275-0.334 0.25-0.622 0.391-0.872 0.429-0.217 0.034-0.54 0.051-0.863 0.051-0.267 0-0.535-0.011-0.738-0.043-0.071-0.012-0.144-0.018-0.217-0.018-0.179 0-0.461 0.067-0.461 0.067-0.001 0-0.005-0.003-0.007-0.003-0.638-0.52-1.151-2.273-0.759-3.514 0.302-0.958 1.226-3.902 1.226-3.902h16.5c0 0 0.924 2.944 1.228 3.902 0.391 1.239-0.12 2.987-0.755 3.51-0.151-0.055-0.311-0.085-0.473-0.085-0.081 0-0.161 0.007-0.241 0.022z"></path>
</svg>
