<!-- Generated by IcoMoon.io -->
<svg version="1.1" xmlns="http://www.w3.org/2000/svg" width="32" height="32" viewBox="0 0 32 32">
<path d="M28.833 14.477c1.619-1.32 2.224-4.523 1.549-6.663l-1.635-5.196c-0.24-0.767-0.947-1.285-1.748-1.285h-22c-0.801 0-1.508 0.519-1.749 1.285l-1.633 5.196c-0.675 2.141-0.071 5.343 1.549 6.663 0.004 0.003 0 14.356 0 14.356 0 0.488 0.195 0.953 0.54 1.297 0.344 0.341 0.808 0.536 1.293 0.536 0 0 4.341 0 9.167 0h3.667c4.824 0 9.165 0 9.165 0 0.487 0 0.949-0.195 1.293-0.536 0.345-0.345 0.541-0.809 0.541-1.297 0 0-0.003-14.353 0-14.356zM17.833 28.833c-1.221 0-2.433 0-3.667 0 0-3.043 0-6.093 0-9.167 1.205 0 2.423 0 3.667 0 0 3.065 0 6.103 0 9.167zM27 28.833h-7.333v-9.167c0-1.011-0.82-1.833-1.833-1.833h-3.667c-1.015 0-1.833 0.823-1.833 1.833v9.167h-7.333c0 0-0.004-9.823 0-14.032 0.757 0.12 2.029 0.1 2.695-0.004 0.731-0.115 1.387-0.465 1.991-0.919 0.716 0.517 1.5 0.853 2.363 0.968 1.327 0.175 2.563-0.072 3.683-0.813 0.167-0.104 0.269-0.141 0.453-0.012 1.724 1.176 4.087 1.176 5.832 0.005 0.168-0.113 0.271-0.123 0.452-0.004 1.079 0.739 2.269 1.035 3.572 0.867 0.087-0.008 0.729-0.081 0.96-0.119v14.063zM26.68 12.965c-0.164 0.028-0.551 0.067-0.871 0.108-0.155 0.015-0.308 0.029-0.457 0.029-0.657 0-1.261-0.196-1.865-0.605-0.393-0.268-0.809-0.395-1.241-0.395s-0.857 0.137-1.248 0.4c-0.555 0.371-1.207 0.568-1.9 0.568-0.689 0-1.339-0.196-1.877-0.564-0.389-0.265-0.807-0.403-1.249-0.403-0.657 0-1.116 0.311-1.249 0.401-0.568 0.375-1.175 0.553-1.861 0.553-0.187 0-0.373-0.009-0.568-0.035-0.537-0.068-1.039-0.281-1.533-0.633-0.319-0.231-0.693-0.347-1.072-0.347-0.387 0-0.775 0.12-1.096 0.368-0.449 0.328-0.829 0.52-1.167 0.573-0.288 0.041-0.72 0.064-1.149 0.064-0.357 0-0.713-0.019-0.985-0.057-0.095-0.020-0.192-0.024-0.289-0.024-0.24 0-0.615 0.088-0.615 0.088-0.001 0-0.007-0.003-0.012-0.003-0.847-0.692-1.532-3.031-1.009-4.681 0.404-1.281 1.636-5.205 1.636-5.205h22c0 0 1.232 3.924 1.636 5.205 0.524 1.647-0.159 3.981-1.005 4.677-0.201-0.077-0.416-0.113-0.631-0.113-0.105 0-0.215 0.007-0.32 0.029z"></path>
</svg>
