<!-- Generated by IcoMoon.io -->
<svg version="1.1" xmlns="http://www.w3.org/2000/svg" width="24" height="24" viewBox="0 0 24 24">
<title>success</title>
<path fill="#444" d="M21.625 1h-19.25c-0.759 0-1.375 0.615-1.375 1.375v19.25c0 0.76 0.616 1.375 1.375 1.375h19.25c0.759 0 1.375-0.615 1.375-1.375v-19.25c0-0.76-0.616-1.375-1.375-1.375zM21.625 21.625h-19.25v-19.25h19.25v19.25zM8.738 17.886l-5.050-5.162c0 0 0 0-0.001-0.003l1.074-0.188c0.374-0.066 0.663 0.030 0.934 0.278l3.058 3.123 9.511-9.487c0.286-0.285 0.589-0.381 0.986-0.309l1.064 0.186-11.575 11.564z"></path>
</svg>
