<!-- Generated by IcoMoon.io -->
<svg version="1.1" xmlns="http://www.w3.org/2000/svg" width="32" height="32" viewBox="0 0 32 32">
<title>success</title>
<path d="M28.833 1.333h-25.667c-1.013 0-1.833 0.823-1.833 1.833v25.667c0 1.011 0.82 1.833 1.833 1.833h25.667c1.013 0 1.833-0.823 1.833-1.833v-25.667c0-1.011-0.82-1.833-1.833-1.833zM11.651 23.849l-6.733-6.88c0 0 0 0-0.001-0.003l1.432-0.252c0.5-0.088 0.885 0.036 1.245 0.369l4.079 4.161 12.68-12.645c0.383-0.385 0.785-0.511 1.315-0.416l1.419 0.251-15.435 15.415z"></path>
</svg>
