<!-- Generated by IcoMoon.io -->
<svg version="1.1" xmlns="http://www.w3.org/2000/svg" width="24" height="24" viewBox="0 0 24 24">
<title>sun</title>
<path fill="#444" d="M12 7.63c-2.415 0-4.373 1.953-4.373 4.372s1.958 4.373 4.373 4.373c2.416 0 4.374-1.954 4.374-4.373s-1.958-4.372-4.374-4.372zM12 15c-1.653 0-2.999-1.345-2.999-2.999 0-1.652 1.345-2.997 2.999-2.997s3 1.345 3 2.997c0 1.653-1.347 2.999-3 2.999zM12.687 1.006v4.449c0 0.403-0.147 0.684-0.477 0.915l-0.897 0.628v-4.449c0.001-0.403 0.147-0.684 0.478-0.915l0.896-0.628zM20.166 4.807l-3.146 3.146c-0.286 0.284-0.59 0.379-0.985 0.311l-1.077-0.191 3.146-3.146c0.284-0.284 0.588-0.379 0.984-0.311l1.079 0.191zM22.865 12.69h-4.449c-0.403 0-0.684-0.146-0.915-0.477l-0.627-0.896h4.449c0.403 0 0.683 0.146 0.915 0.477l0.627 0.896zM19.078 20.294l-3.146-3.146c-0.284-0.284-0.379-0.588-0.311-0.984l0.191-1.079 3.146 3.146c0.284 0.286 0.379 0.588 0.311 0.985l-0.191 1.077zM12.687 16.877v4.449c0 0.403-0.147 0.684-0.477 0.915l-0.897 0.628v-4.449c0.001-0.403 0.147-0.684 0.478-0.915l0.896-0.628zM8.834 16.057l-3.146 3.146c-0.284 0.284-0.588 0.379-0.984 0.311l-1.079-0.191 3.146-3.146c0.286-0.284 0.588-0.379 0.985-0.311l1.077 0.191zM7.125 12.691h-4.449c-0.403-0.001-0.684-0.147-0.915-0.478l-0.627-0.896h4.449c0.403 0 0.683 0.146 0.915 0.477l0.627 0.897zM4.597 3.622l3.146 3.146c0.284 0.284 0.381 0.588 0.311 0.984l-0.191 1.079-3.146-3.146c-0.284-0.286-0.379-0.587-0.309-0.985l0.19-1.077z"></path>
</svg>
