<!-- Generated by IcoMoon.io -->
<svg version="1.1" xmlns="http://www.w3.org/2000/svg" width="24" height="24" viewBox="0 0 24 24">
<title>sun</title>
<path d="M12 7.664c-2.429 0-4.401 1.969-4.401 4.4s1.972 4.402 4.401 4.402c2.43 0 4.402-1.97 4.402-4.401s-1.972-4.401-4.402-4.401zM12 15.079c-1.664 0-3.017-1.354-3.017-3.015s1.353-3.013 3.017-3.013 3.018 1.353 3.018 3.014-1.354 3.014-3.018 3.014zM12.69 1v4.476c0 0.405-0.146 0.688-0.478 0.922l-0.902 0.634v-4.481c0.001-0.405 0.146-0.688 0.479-0.921l0.901-0.63zM20.217 4.824l-3.167 3.163c-0.285 0.29-0.592 0.385-0.99 0.316l-1.084-0.192 3.166-3.164c0.285-0.29 0.591-0.384 0.99-0.315l1.085 0.192zM22.933 12.755h-4.477c-0.406 0-0.688-0.146-0.922-0.477l-0.628-0.902h4.474c0.406 0 0.688 0.147 0.922 0.477l0.631 0.902zM19.122 20.405l-3.167-3.163c-0.284-0.284-0.38-0.595-0.312-0.988l0.192-1.089 3.167 3.169c0.284 0.285 0.38 0.589 0.312 0.991l-0.192 1.080zM12.69 16.968v4.481c0 0.405-0.146 0.688-0.478 0.921l-0.902 0.63v-4.476c0.001-0.405 0.146-0.688 0.479-0.922l0.901-0.634zM8.813 16.146l-3.163 3.164c-0.288 0.29-0.591 0.382-0.989 0.313l-1.085-0.192 3.163-3.169c0.288-0.284 0.591-0.377 0.99-0.308l1.084 0.192zM7.094 12.757h-4.474c-0.406-0.002-0.688-0.148-0.922-0.479l-0.631-0.902h4.477c0.406 0 0.688 0.147 0.922 0.477l0.628 0.904zM4.553 3.636l3.163 3.163c0.288 0.284 0.383 0.589 0.312 0.99l-0.193 1.089-3.163-3.169c-0.287-0.287-0.383-0.589-0.312-0.99l0.193-1.083z"></path>
</svg>
