<!-- Generated by IcoMoon.io -->
<svg version="1.1" xmlns="http://www.w3.org/2000/svg" width="24" height="24" viewBox="0 0 24 24">
<title>synchronize</title>
<path fill="#444" d="M1.147 14.040c0-0.034 0.015-0.064 0.020-0.096 0.007-0.052 0.011-0.103 0.030-0.152s0.053-0.092 0.084-0.134c0.018-0.027 0.027-0.058 0.050-0.083 0.003-0.003 0.005-0.003 0.008-0.005 0.058-0.061 0.129-0.11 0.208-0.145 0.005-0.001 0.008-0.007 0.014-0.010 0.081-0.034 0.17-0.053 0.265-0.053 0 0 5.637-0.008 5.68 0l-0.616 0.904c-0.21 0.3-0.474 0.432-0.825 0.453h-2.524l2.998 3.223c0.816 0.817 1.804 1.441 2.875 1.82 3.629 1.288 7.632-0.713 9.367-4.028 0 0 0.271-0.233 0.662-0.301l1.034-0.179c-1.683 4.64-6.858 7.436-11.515 5.789-1.261-0.447-2.425-1.182-3.366-2.127l-3.089-3.308v2.629c0 0.398-0.145 0.676-0.471 0.904l-0.886 0.6c-0.012-0.049-0.001-5.701-0.001-5.701zM22.853 4.279l-0.886 0.6c-0.326 0.227-0.472 0.506-0.472 0.904v2.629l-3.088-3.308c-0.941-0.946-2.105-1.682-3.366-2.127-4.657-1.649-9.833 1.147-11.516 5.787l1.034-0.179c0.392-0.068 0.662-0.301 0.662-0.301 1.735-3.314 5.737-5.316 9.367-4.028 1.071 0.379 2.059 1.003 2.873 1.821l2.998 3.223h-2.524c-0.35 0.020-0.615 0.153-0.825 0.453l-0.614 0.903c0.042 0.010 5.68 0 5.68 0 0.094 0.001 0.182-0.019 0.265-0.052 0.004-0.003 0.008-0.010 0.014-0.010 0.079-0.035 0.149-0.084 0.208-0.147 0.003-0.003 0.005-0.001 0.008-0.004 0.023-0.024 0.031-0.057 0.050-0.084 0.031-0.041 0.064-0.084 0.084-0.134 0.020-0.049 0.024-0.099 0.030-0.151 0.005-0.034 0.020-0.062 0.020-0.098-0.001 0 0.010-5.652-0.001-5.699z"></path>
</svg>
