<!-- Generated by IcoMoon.io -->
<svg version="1.1" xmlns="http://www.w3.org/2000/svg" width="32" height="32" viewBox="0 0 32 32">
<path d="M16 30.667c-5.315 0-10.228-2.908-12.825-7.585l-0.173-0.333c-1.003-1.916-1.563-3.94-1.668-6.028l1.299 0.7c0.416 0.223 0.673 0.516 0.812 0.919 0.331 1.848 1.1 3.617 2.268 5.199 2.409 3.276 6.255 5.232 10.288 5.232 3.609 0 7.073-1.551 9.504-4.257l0.636-0.705h-3.161c-0.496-0.003-0.84-0.177-1.113-0.569l-0.928-1.327h7.427c0.524 0 0.949 0.425 0.949 0.948v7.435l-1.335-0.897c-0.385-0.268-0.56-0.611-0.561-1.108v-3.025l-0.735 0.779c-2.808 2.983-6.601 4.625-10.683 4.625zM29.368 14.58c-0.416-0.223-0.673-0.516-0.812-0.919-0.331-1.848-1.1-3.617-2.268-5.199-2.409-3.277-6.255-5.233-10.288-5.233-3.609 0-7.073 1.551-9.504 4.257l-0.636 0.707h3.161c0.496 0.003 0.84 0.177 1.113 0.569l0.928 1.327h-7.427c-0.524 0-0.949-0.425-0.949-0.948v-7.436l1.335 0.897c0.385 0.268 0.56 0.611 0.561 1.108v3.025l0.737-0.779c2.805-2.981 6.599-4.624 10.68-4.624 5.315 0 10.228 2.908 12.825 7.585l0.173 0.333c1.003 1.916 1.563 3.94 1.668 6.028l-1.299-0.7z"></path>
</svg>
