<!-- Generated by IcoMoon.io -->
<svg version="1.1" xmlns="http://www.w3.org/2000/svg" width="24" height="24" viewBox="0 0 24 24">
<title>tag</title>
<path fill="#444" d="M13.85 22.439c-0.537 0.537-1.406 0.537-1.943 0l-10.498-10.498c-0.319-0.319-0.46-0.776-0.378-1.223l1.257-6.755c0.051-0.306 0.165-0.731 0.554-1.121 0.317-0.317 0.757-0.543 1.204-0.618l6.682-1.194c0.441-0.080 0.895 0.063 1.213 0.381l10.497 10.498c0.537 0.537 0.537 1.406 0 1.943l-8.588 8.588zM10.969 2.381l-6.696 1.197c-0.18 0.032-0.355 0.129-0.46 0.235s-0.144 0.22-0.175 0.401l-1.257 6.755 10.497 10.498 8.588-8.588-10.497-10.498zM4.784 4.784c-0.268 0.268-0.268 0.704 0 0.972s0.704 0.268 0.972 0 0.268-0.704 0-0.972-0.704-0.268-0.972 0z"></path>
</svg>
