<!-- Generated by IcoMoon.io -->
<svg version="1.1" xmlns="http://www.w3.org/2000/svg" width="24" height="24" viewBox="0 0 24 24">
<title>tag_price</title>
<path d="M18.974 5.372l-5.679-3.957c-0.373-0.264-0.844-0.415-1.295-0.415-0.552 0-0.937 0.222-1.193 0.404l-5.773 3.963c-0.373 0.256-0.596 0.681-0.596 1.133v15.125c0 0.76 0.616 1.375 1.375 1.375h12.375c0.759 0 1.375-0.615 1.375-1.375v-15.125c-0.001-0.45-0.221-0.871-0.589-1.128zM18.188 21.625h-12.376v-15.125l5.772-3.963c0.153-0.107 0.263-0.162 0.416-0.162s0.349 0.055 0.501 0.162l5.687 3.963v15.125zM12.688 4.438c0 0.38-0.308 0.688-0.688 0.688s-0.688-0.308-0.688-0.688 0.308-0.688 0.688-0.688 0.688 0.308 0.688 0.688zM15.64 15.473c0.156 0.357 0.238 0.797 0.241 1.322 0.007 1.018-0.366 1.789-1.116 2.316-0.403 0.282-0.904 0.484-1.49 0.619-0.264 0.337-0.577 0.508-1.022 0.514l-1.314 0.006 0.238-0.347c-0.789-0.013-1.455-0.076-1.929-0.215-0.552-0.155-0.928-0.277-1.128-0.358 0.296-0.862 1.11-1.339 2.008-1.183 0.535 0.097 0.847 0.101 1.392 0.097 0.807-0.006 1.409-0.117 1.795-0.329 0.388-0.216 0.58-0.558 0.577-1.022-0.003-0.479-0.198-0.861-0.581-1.141-0.382-0.278-1.013-0.594-1.891-0.941-0.427-0.167-0.833-0.334-1.225-0.512-0.389-0.173-0.725-0.377-1.011-0.616-0.285-0.24-0.512-0.529-0.684-0.863-0.174-0.341-0.262-0.756-0.265-1.251-0.007-0.973 0.349-1.753 1.065-2.326 0.457-0.369 1.030-0.608 1.699-0.742l0.033-0.049c0.275-0.399 0.612-0.576 1.096-0.583l1.315-0.006-0.373 0.539c0.035 0.006 0.068 0.003 0.104 0.007 0.309 0.030 0.603 0.073 0.869 0.121 0.27 0.048 0.508 0.098 0.71 0.154 0.208 0.054 0.365 0.104 0.481 0.144-0.329 0.862-1.101 1.338-2.021 1.234-0.37-0.046-0.581-0.053-0.956-0.051-0.551 0.004-1.036 0.12-1.446 0.344-0.408 0.223-0.61 0.564-0.607 1.031 0.002 0.238 0.049 0.451 0.145 0.636 0.093 0.185 0.235 0.349 0.425 0.494 0.195 0.146 0.433 0.285 0.714 0.407 0.285 0.123 0.624 0.258 1.022 0.396 0.522 0.197 0.991 0.388 1.4 0.571 0.414 0.189 0.761 0.411 1.055 0.662 0.293 0.255 0.517 0.56 0.675 0.921z"></path>
</svg>
