<!-- Generated by IcoMoon.io -->
<svg version="1.1" xmlns="http://www.w3.org/2000/svg" width="24" height="24" viewBox="0 0 24 24">
<title>tag_price</title>
<path fill="#444" d="M18.974 5.372l-5.679-3.957c-0.373-0.264-0.844-0.415-1.295-0.415-0.551 0-0.936 0.221-1.193 0.404l-5.772 3.963c-0.373 0.256-0.597 0.681-0.597 1.133v15.125c0 0.76 0.616 1.375 1.375 1.375h12.375c0.759 0 1.375-0.615 1.375-1.375v-15.125c0-0.45-0.22-0.872-0.589-1.127zM18.188 21.625h-12.375v-15.125l5.772-3.963c0.153-0.107 0.263-0.162 0.415-0.162s0.349 0.055 0.5 0.162l5.687 3.963v15.125zM12.688 4.438c0 0.38-0.308 0.688-0.688 0.688s-0.688-0.308-0.688-0.688 0.308-0.688 0.688-0.688 0.688 0.308 0.688 0.688zM15.64 15.472c0.157 0.358 0.238 0.797 0.241 1.323 0.007 1.018-0.366 1.789-1.117 2.317-0.403 0.282-0.905 0.485-1.489 0.619-0.264 0.337-0.576 0.507-1.023 0.514l-1.313 0.005 0.236-0.346c-0.788-0.014-1.455-0.077-1.928-0.215-0.551-0.155-0.928-0.278-1.127-0.359 0.296-0.862 1.11-1.339 2.008-1.183 0.535 0.096 0.847 0.1 1.391 0.096 0.807-0.005 1.409-0.117 1.794-0.329 0.388-0.216 0.58-0.557 0.576-1.022-0.003-0.48-0.198-0.862-0.58-1.141-0.382-0.278-1.013-0.594-1.891-0.942-0.426-0.166-0.833-0.334-1.224-0.511-0.389-0.173-0.726-0.378-1.012-0.616-0.283-0.239-0.51-0.528-0.682-0.862-0.173-0.341-0.261-0.756-0.265-1.251-0.007-0.973 0.349-1.753 1.064-2.327 0.457-0.37 1.030-0.608 1.699-0.742l0.033-0.048c0.275-0.4 0.612-0.576 1.096-0.583l1.315-0.007-0.373 0.54c0.034 0.005 0.069 0.003 0.103 0.007 0.309 0.029 0.604 0.071 0.87 0.121 0.269 0.048 0.509 0.098 0.711 0.154 0.208 0.054 0.364 0.103 0.481 0.143-0.329 0.862-1.101 1.338-2.021 1.233-0.371-0.044-0.582-0.051-0.956-0.050-0.55 0.004-1.035 0.121-1.447 0.344-0.408 0.223-0.611 0.565-0.606 1.031 0.001 0.239 0.048 0.451 0.143 0.637 0.094 0.183 0.235 0.348 0.425 0.494 0.195 0.146 0.433 0.285 0.715 0.407 0.285 0.124 0.624 0.259 1.022 0.396 0.523 0.198 0.991 0.388 1.401 0.572 0.414 0.19 0.76 0.411 1.055 0.661 0.292 0.253 0.517 0.56 0.674 0.919z"></path>
</svg>
