<!-- Generated by IcoMoon.io -->
<svg version="1.1" xmlns="http://www.w3.org/2000/svg" width="32" height="32" viewBox="0 0 32 32">
<title>tag_price</title>
<path d="M25.299 7.163l-7.572-5.276c-0.497-0.352-1.125-0.553-1.727-0.553-0.736 0-1.249 0.296-1.591 0.539l-7.697 5.284c-0.497 0.341-0.795 0.908-0.795 1.511v20.167c0 1.013 0.821 1.833 1.833 1.833h16.5c1.012 0 1.833-0.82 1.833-1.833v-20.167c-0.001-0.6-0.295-1.161-0.785-1.504zM24.251 28.833h-16.501v-20.167l7.696-5.284c0.204-0.143 0.351-0.216 0.555-0.216s0.465 0.073 0.668 0.216l7.583 5.284v20.167zM16.917 5.917c0 0.507-0.411 0.917-0.917 0.917s-0.917-0.411-0.917-0.917 0.411-0.917 0.917-0.917 0.917 0.411 0.917 0.917zM20.853 20.631c0.208 0.476 0.317 1.063 0.321 1.763 0.009 1.357-0.488 2.385-1.488 3.088-0.537 0.376-1.205 0.645-1.987 0.825-0.352 0.449-0.769 0.677-1.363 0.685l-1.752 0.008 0.317-0.463c-1.052-0.017-1.94-0.101-2.572-0.287-0.736-0.207-1.237-0.369-1.504-0.477 0.395-1.149 1.48-1.785 2.677-1.577 0.713 0.129 1.129 0.135 1.856 0.129 1.076-0.008 1.879-0.156 2.393-0.439 0.517-0.288 0.773-0.744 0.769-1.363-0.004-0.639-0.264-1.148-0.775-1.521-0.509-0.371-1.351-0.792-2.521-1.255-0.569-0.223-1.111-0.445-1.633-0.683-0.519-0.231-0.967-0.503-1.348-0.821-0.38-0.32-0.683-0.705-0.912-1.151-0.232-0.455-0.349-1.008-0.353-1.668-0.009-1.297 0.465-2.337 1.42-3.101 0.609-0.492 1.373-0.811 2.265-0.989l0.044-0.065c0.367-0.532 0.816-0.768 1.461-0.777l1.753-0.008-0.497 0.719c0.047 0.008 0.091 0.004 0.139 0.009 0.412 0.040 0.804 0.097 1.159 0.161 0.36 0.064 0.677 0.131 0.947 0.205 0.277 0.072 0.487 0.139 0.641 0.192-0.439 1.149-1.468 1.784-2.695 1.645-0.493-0.061-0.775-0.071-1.275-0.068-0.735 0.005-1.381 0.16-1.928 0.459-0.544 0.297-0.813 0.752-0.809 1.375 0.003 0.317 0.065 0.601 0.193 0.848 0.124 0.247 0.313 0.465 0.567 0.659 0.26 0.195 0.577 0.38 0.952 0.543 0.38 0.164 0.832 0.344 1.363 0.528 0.696 0.263 1.321 0.517 1.867 0.761 0.552 0.252 1.015 0.548 1.407 0.883 0.391 0.34 0.689 0.747 0.9 1.228z"></path>
</svg>
