<!-- Generated by IcoMoon.io -->
<svg version="1.1" xmlns="http://www.w3.org/2000/svg" width="24" height="24" viewBox="0 0 24 24">
<title>target</title>
<path fill="#444" d="M20.723 5.319l-0.010 0.008c-0.124-0.183-0.322-0.309-0.558-0.309-0.38 0-0.688 0.308-0.688 0.688 0 0.155 0.061 0.292 0.147 0.406l-0.005 0.004 0.282 0.391c1.090 1.561 1.734 3.453 1.734 5.495 0 5.306-4.318 9.625-9.625 9.625s-9.625-4.319-9.625-9.625 4.318-9.625 9.625-9.625c1.563 0 3.035 0.381 4.34 1.046l-1.885 2.695c-0.215 0.3-0.246 0.593-0.151 0.928-0.701-0.335-1.473-0.545-2.303-0.545-3.037 0-5.5 2.463-5.5 5.5s2.463 5.5 5.5 5.5 5.5-2.463 5.5-5.5c0-0.814-0.199-1.573-0.517-2.265-0.011-0.030-0.023-0.058-0.038-0.087-0.014-0.029-0.023-0.058-0.037-0.085l-0.017 0.007c-0.124-0.175-0.319-0.297-0.55-0.297-0.38 0-0.688 0.308-0.688 0.688 0 0.048 0.018 0.089 0.028 0.135l-0.010 0.001 0.019 0.055c0.011 0.037 0.022 0.076 0.040 0.11l0.227 0.639c0.099 0.352 0.168 0.716 0.168 1.099 0 2.274-1.851 4.125-4.125 4.125s-4.125-1.851-4.125-4.125 1.851-4.125 4.125-4.125c0.631 0 1.222 0.155 1.757 0.413l-2.338 3.305c-0.219 0.312-0.143 0.738 0.168 0.957 0.312 0.22 0.74 0.143 0.958-0.169l2.977-4.21 0.263 0.001c0.403-0.001 0.685-0.148 0.917-0.48l3.581-5.116h-1.092c-0.404 0.001-0.688 0.146-0.919 0.478v-0.001c0.012-0.019 0.028-0.061 0.028-0.061s0 0-0.001-0.001c0.195-0.308 0.241-0.606 0.111-0.962l-0.377-1.028-0.905 1.292c-1.533-0.814-3.271-1.292-5.129-1.292-6.075 0-11 4.925-11 11s4.925 11 11 11 11-4.925 11-11c0-2.516-0.855-4.829-2.277-6.681z"></path>
</svg>
