<!-- Generated by IcoMoon.io -->
<svg version="1.1" xmlns="http://www.w3.org/2000/svg" width="32" height="32" viewBox="0 0 32 32">
<path d="M27.631 7.091l-0.013 0.011c-0.167-0.244-0.429-0.412-0.745-0.412-0.507 0-0.917 0.411-0.917 0.917 0 0.208 0.080 0.388 0.196 0.54l-0.007 0.005 0.376 0.523c1.452 2.080 2.311 4.603 2.311 7.325 0 7.076-5.757 12.833-12.833 12.833s-12.831-5.757-12.831-12.833 5.757-12.833 12.833-12.833c2.084 0 4.047 0.508 5.785 1.395l-2.513 3.593c-0.285 0.401-0.328 0.791-0.2 1.239-0.936-0.448-1.964-0.727-3.072-0.727-4.049 0-7.333 3.284-7.333 7.333s3.284 7.333 7.333 7.333 7.333-3.284 7.333-7.333c0-1.084-0.265-2.096-0.691-3.021-0.015-0.040-0.031-0.077-0.051-0.116-0.019-0.037-0.032-0.077-0.051-0.115l-0.021 0.009c-0.167-0.233-0.425-0.396-0.735-0.396-0.507 0-0.917 0.411-0.917 0.917 0 0.065 0.024 0.12 0.036 0.18l-0.009 0.005 0.027 0.073c0.015 0.049 0.028 0.1 0.053 0.147l0.303 0.852c0.131 0.471 0.223 0.955 0.223 1.465 0 3.032-2.468 5.5-5.5 5.5s-5.5-2.469-5.5-5.501 2.468-5.5 5.5-5.5c0.843 0 1.629 0.208 2.343 0.549l-3.116 4.408c-0.291 0.416-0.191 0.985 0.224 1.277 0.416 0.292 0.987 0.191 1.277-0.227l3.969-5.615 0.349 0.003c0.539-0.003 0.912-0.199 1.223-0.639l4.776-6.821-1.456-0.001c-0.539 0.001-0.916 0.195-1.224 0.637v-0.001c0.016-0.027 0.035-0.083 0.035-0.083s0 0-0.001-0.001c0.26-0.411 0.32-0.809 0.148-1.284l-0.503-1.369-1.205 1.724c-2.045-1.085-4.361-1.724-6.839-1.724-8.1 0-14.667 6.568-14.667 14.667s6.567 14.667 14.667 14.667 14.667-6.568 14.667-14.667c0-3.356-1.139-6.437-3.036-8.909z"></path>
</svg>
