<!-- Generated by IcoMoon.io -->
<svg version="1.1" xmlns="http://www.w3.org/2000/svg" width="32" height="32" viewBox="0 0 32 32">
<path d="M26.997 8.667l-7.332-7.333h-12.832c-1.013 0-1.833 0.823-1.833 1.833v25.667c0 1.011 0.82 1.833 1.833 1.833h18.333c1.013 0 1.833-0.823 1.833-1.833v-20.167h-0.003zM19.667 3.932l4.739 4.735h-4.739v-4.735zM25.167 28.833h-18.333v-25.667h11v5.5c0 1.011 0.82 1.833 1.833 1.833h5.5v18.333z"></path>
<path d="M12.4 17.617c1.247 0 2.26-1.015 2.26-2.26s-1.013-2.261-2.26-2.261-2.26 1.015-2.26 2.26 1.013 2.261 2.26 2.261zM12.4 14.804c0.305 0 0.552 0.248 0.552 0.552 0 0.305-0.247 0.552-0.552 0.552s-0.552-0.248-0.552-0.552c0-0.305 0.248-0.552 0.552-0.552z"></path>
<path d="M10.972 22.855c-0.251 0.32-0.371 0.647-0.292 1.089l0.259 1.471 9.076-9.077 0.615-0.681c0.251-0.32 0.371-0.647 0.292-1.089l-0.259-1.471-9.076 9.077-0.615 0.681z"></path>
<path d="M17.34 23.153c0 1.245 1.013 2.26 2.26 2.26s2.26-1.015 2.26-2.26c0-1.245-1.013-2.26-2.26-2.26s-2.26 1.015-2.26 2.26zM20.152 23.153c0 0.304-0.248 0.552-0.552 0.552-0.305 0-0.552-0.248-0.552-0.552 0-0.305 0.248-0.552 0.552-0.552 0.305 0 0.552 0.248 0.552 0.552z"></path>
</svg>
