<!-- Generated by IcoMoon.io -->
<svg version="1.1" xmlns="http://www.w3.org/2000/svg" width="24" height="24" viewBox="0 0 24 24">
<title>taxi</title>
<path fill="#444" d="M21.423 8.635h-0.009c0-0.271-0.073-0.541-0.233-0.771l-1.256-1.796c-0.691-0.985-1.627-1.467-2.869-1.471h-1.663l-0.225-0.322c-0.474-0.677-1.14-1.022-1.987-1.024h-2.368c-0.843 0.003-1.509 0.347-1.983 1.024l-0.225 0.322h-1.667c-1.237 0.004-2.174 0.485-2.866 1.473l-1.255 1.794c-0.16 0.23-0.233 0.501-0.233 0.771h-0.009c-0.743 0-1.346 0.602-1.346 1.346v6.731c0 0.744 0.603 1.346 1.346 1.346v1.346c0 0.744 0.603 1.346 1.346 1.346h1.346c0.743 0 1.346-0.602 1.346-1.346v-1.346h10.769v1.346c0 0.744 0.603 1.346 1.346 1.346h1.346c0.743 0 1.346-0.602 1.346-1.346v-1.346c0.743 0 1.346-0.602 1.346-1.346v-6.731c0-0.744-0.603-1.346-1.346-1.346zM5.178 6.84c0.452-0.645 0.977-0.895 1.766-0.898h2.364l0.627-0.897c0.226-0.323 0.489-0.448 0.883-0.45h2.364c0.394 0.001 0.657 0.127 0.883 0.45l0.627 0.897h2.364c0.789 0.003 1.315 0.253 1.766 0.898l1.255 1.794h-16.154l1.255-1.794zM21.423 16.712h-1.346v2.692h-1.346v-2.692h-13.462v2.692h-1.346v-2.692h-1.346v-6.731h18.846v6.731zM19.448 14.244c-0.226 0.323-0.489 0.447-0.883 0.448h-3.873l0.629-0.897c0.226-0.323 0.489-0.447 0.883-0.45h3.873l-0.629 0.898zM3.923 13.346h3.873c0.394 0.003 0.657 0.127 0.883 0.45l0.629 0.897h-3.873c-0.394-0.001-0.657-0.125-0.883-0.448l-0.629-0.898z"></path>
</svg>
