<!-- Generated by IcoMoon.io -->
<svg version="1.1" xmlns="http://www.w3.org/2000/svg" width="32" height="32" viewBox="0 0 32 32">
<path d="M28.833 12.149h-0.013c0-0.060 0.017-1.593 0.013-1.653-0.028-0.3-0.127-0.604-0.311-0.864l-1.709-2.443c-0.943-1.344-2.217-2-3.908-2.005h-2.264l-0.305-0.435c-0.644-0.929-1.555-1.396-2.705-1.399h-3.224c-1.147 0.003-2.056 0.469-2.701 1.399l-0.305 0.435h-2.272c-1.683 0.005-2.959 0.661-3.901 2.005l-1.711 2.443c-0.18 0.26-0.279 0.565-0.307 0.864-0.009 0.060-0.029 1.593-0.029 1.653h-0.013c-1.013 0-1.833 0.823-1.833 1.833v9.167c0 1.011 0.82 1.833 1.833 1.833v1.833c0 1.011 0.82 1.833 1.833 1.833h1.833c1.013 0 1.833-0.823 1.833-1.833v-1.833h14.667v1.833c0 1.011 0.82 1.833 1.833 1.833h1.833c1.013 0 1.833-0.823 1.833-1.833v-1.833c1.013 0 1.833-0.823 1.833-1.833v-9.167c0-1.011-0.82-1.833-1.833-1.833zM6.729 8.244c0.616-0.883 1.332-1.224 2.407-1.227h3.216l0.856-1.224c0.309-0.437 0.668-0.607 1.203-0.609h3.22c0.535 0.003 0.893 0.172 1.203 0.609l0.852 1.224h3.22c1.075 0.003 1.791 0.344 2.407 1.227l1.707 2.44-0.019 1.467h-22l0.019-1.467 1.711-2.44zM28.833 23.149h-1.833v3.667h-1.833v-3.667h-18.333v3.667h-1.833v-3.667h-1.833v-9.167h25.667v9.167zM26.143 19.791c-0.305 0.437-0.664 0.607-1.203 0.609h-5.273l0.857-1.224c0.305-0.437 0.664-0.607 1.203-0.609h5.273l-0.857 1.224zM5 18.567h5.273c0.539 0.003 0.897 0.172 1.203 0.609l0.857 1.224h-5.273c-0.539-0.003-0.897-0.172-1.203-0.609l-0.857-1.224z"></path>
</svg>
