<!-- Generated by IcoMoon.io -->
<svg version="1.1" xmlns="http://www.w3.org/2000/svg" width="24" height="24" viewBox="0 0 24 24">
<title>thermometer</title>
<path fill="#444" d="M14.063 3.75h3.956c0.403 0.001 0.685 0.147 0.916 0.477l0.628 0.898h-3.956c-0.403-0.001-0.685-0.146-0.916-0.477l-0.628-0.898zM14.691 8.773c0.231 0.331 0.513 0.476 0.916 0.477h3.956l-0.628-0.898c-0.231-0.33-0.513-0.476-0.916-0.477h-3.956l0.628 0.898zM14.691 12.898c0.231 0.331 0.513 0.476 0.916 0.477h3.956l-0.628-0.898c-0.231-0.33-0.513-0.476-0.916-0.477h-3.956l0.628 0.898zM14.063 18.188c0 2.657-2.155 4.813-4.813 4.813s-4.813-2.156-4.813-4.813c0-1.342 0.551-2.552 1.438-3.425v-10.187c0-1.965 1.605-3.575 3.382-3.575s3.366 1.61 3.366 3.575v10.187c0.887 0.873 1.438 2.083 1.438 3.425zM12.688 18.188c0-0.924-0.366-1.793-1.028-2.445-0.263-0.259-0.41-0.612-0.41-0.98v-10.187c0-1.173-0.931-2.2-1.991-2.2-1.051 0-2.008 1.049-2.008 2.2v10.187c0 0.368-0.147 0.721-0.41 0.98-0.663 0.652-1.028 1.521-1.028 2.445 0 1.896 1.543 3.437 3.437 3.437s3.437-1.541 3.437-3.437z"></path>
</svg>
