<!-- Generated by IcoMoon.io -->
<svg version="1.1" xmlns="http://www.w3.org/2000/svg" width="32" height="32" viewBox="0 0 32 32">
<path d="M18.749 5h5.275c0.536 0.001 0.913 0.196 1.221 0.636l0.837 1.197h-5.275c-0.536-0.001-0.913-0.195-1.221-0.636l-0.837-1.197zM19.588 11.697c0.308 0.44 0.684 0.635 1.221 0.636h5.275l-0.837-1.197c-0.308-0.439-0.684-0.635-1.221-0.636h-5.275l0.837 1.197zM19.588 17.197c0.308 0.44 0.684 0.635 1.221 0.636h5.275l-0.837-1.197c-0.308-0.439-0.684-0.635-1.221-0.636h-5.275l0.837 1.197zM18.749 24.251c0 3.541-2.872 6.416-6.416 6.416s-6.416-2.875-6.416-6.416c0-1.789 0.736-3.404 1.917-4.568v-13.584c-0.001-2.619 2.137-4.765 4.509-4.765s4.489 2.147 4.489 4.765v13.584c1.181 1.164 1.916 2.779 1.916 4.568zM16.917 24.251c0-1.232-0.487-2.391-1.371-3.26-0.351-0.345-0.547-0.816-0.547-1.307v-13.585c0-1.563-1.241-2.932-2.656-2.932-1.4 0-2.676 1.399-2.676 2.932v13.584c0 0.491-0.196 0.963-0.547 1.307-0.884 0.869-1.371 2.028-1.371 3.26 0 2.528 2.056 4.584 4.584 4.584s4.583-2.055 4.583-4.583z"></path>
</svg>
