<!-- Generated by IcoMoon.io -->
<svg version="1.1" xmlns="http://www.w3.org/2000/svg" width="24" height="24" viewBox="0 0 24 24">
<title>thermometer</title>
<path d="M14.062 3.75h3.956c0.402 0.001 0.685 0.147 0.916 0.477l0.628 0.898h-3.956c-0.402-0.001-0.685-0.146-0.916-0.477l-0.628-0.898zM14.691 8.773c0.231 0.33 0.513 0.476 0.916 0.477h3.956l-0.628-0.898c-0.231-0.329-0.513-0.476-0.916-0.477h-3.956l0.628 0.898zM14.691 12.898c0.231 0.33 0.513 0.476 0.916 0.477h3.956l-0.628-0.898c-0.231-0.329-0.513-0.476-0.916-0.477h-3.956l0.628 0.898zM14.062 18.188c0 2.656-2.154 4.812-4.812 4.812s-4.812-2.156-4.812-4.812c0-1.342 0.552-2.553 1.438-3.426v-10.188c-0.001-1.964 1.603-3.574 3.382-3.574s3.367 1.61 3.367 3.574v10.188c0.886 0.873 1.437 2.084 1.437 3.426zM12.688 18.188c0-0.924-0.365-1.793-1.028-2.445-0.263-0.259-0.41-0.612-0.41-0.98v-10.189c0-1.172-0.931-2.199-1.992-2.199-1.050 0-2.007 1.049-2.007 2.199v10.188c0 0.368-0.147 0.722-0.41 0.98-0.663 0.652-1.028 1.521-1.028 2.445 0 1.896 1.542 3.438 3.438 3.438s3.437-1.541 3.437-3.437z"></path>
</svg>
