<!-- Generated by IcoMoon.io -->
<svg version="1.1" xmlns="http://www.w3.org/2000/svg" width="24" height="24" viewBox="0 0 24 24">
<title>todo</title>
<path fill="#444" d="M10.507 2.628h10.95c0.403 0.001 0.671 0.129 0.902 0.459l0.641 0.916h-10.949c-0.403 0-0.671-0.127-0.902-0.457l-0.642-0.919zM7.563 1.023c-0.396-0.071-0.7 0.023-0.985 0.308l-2.479 2.491-1.092-1.184c-0.271-0.248-0.56-0.344-0.934-0.278l-1.074 0.19c0 0.001 0.001 0.003 0.001 0.003l2.601 2.727c0.129 0.133 0.326 0.256 0.491 0.208 0.183 0 0.358-0.073 0.487-0.201l4.048-4.077-1.066-0.187zM11.149 12.297c0.231 0.33 0.499 0.457 0.902 0.457h10.949l-0.641-0.916c-0.231-0.33-0.499-0.458-0.902-0.459h-10.95l0.642 0.919zM7.563 9.774c-0.396-0.071-0.7 0.023-0.985 0.308l-2.479 2.492-1.092-1.182c-0.271-0.249-0.56-0.344-0.934-0.278l-1.074 0.188c0 0.001 0.001 0.003 0.001 0.003l2.601 2.727c0.129 0.133 0.326 0.256 0.491 0.208 0.183 0 0.358-0.073 0.487-0.201l4.048-4.077-1.066-0.187zM11.149 21.047c0.231 0.33 0.499 0.457 0.902 0.457h10.949l-0.641-0.916c-0.231-0.33-0.499-0.458-0.902-0.459h-10.95l0.642 0.919zM7.563 18.524c-0.397-0.071-0.7 0.025-0.986 0.309l-2.479 2.491-1.092-1.182c-0.271-0.249-0.56-0.344-0.934-0.278l-1.073 0.187c0 0.001 0.001 0.003 0.001 0.003l2.601 2.727c0.129 0.133 0.327 0.256 0.491 0.206 0.183 0 0.358-0.073 0.487-0.201l4.048-4.077-1.066-0.186z"></path>
</svg>
