<!-- Generated by IcoMoon.io -->
<svg version="1.1" xmlns="http://www.w3.org/2000/svg" width="32" height="32" viewBox="0 0 32 32">
<path d="M14.009 3.505h14.6c0.539 0.001 0.896 0.172 1.203 0.609l0.855 1.224h-14.597c-0.539 0-0.897-0.169-1.203-0.612l-0.857-1.221zM10.084 1.363c-0.529-0.092-0.933 0.031-1.315 0.409l-3.304 3.321-1.455-1.576c-0.361-0.327-0.747-0.459-1.245-0.371l-1.432 0.253c0 0.001 0.001 0.003 0.001 0.003l3.468 3.637c0.172 0.175 0.437 0.34 0.656 0.277 0.244 0 0.475-0.099 0.647-0.271l5.399-5.432-1.42-0.252zM14.865 16.397c0.305 0.437 0.664 0.607 1.203 0.607h14.599l-0.855-1.224c-0.307-0.437-0.665-0.608-1.203-0.609h-14.6l0.856 1.227zM10.084 13.028c-0.529-0.092-0.933 0.031-1.315 0.416l-3.304 3.321-1.455-1.577c-0.361-0.335-0.747-0.459-1.245-0.371l-1.432 0.248c0 0.009 0.001 0.011 0.001 0.011l3.468 3.637c0.172 0.176 0.439 0.333 0.656 0.271 0.244 0 0.475-0.093 0.647-0.265l5.399-5.439-1.42-0.252zM14.865 28.063c0.305 0.441 0.664 0.607 1.203 0.607h14.599l-0.855-1.216c-0.307-0.445-0.665-0.616-1.203-0.617h-14.6l0.856 1.227zM10.084 24.701c-0.529-0.1-0.933 0.031-1.315 0.409l-3.304 3.321-1.455-1.577c-0.361-0.335-0.747-0.459-1.245-0.371l-1.432 0.255c0 0.001 0.001 0.003 0.001 0.003l3.468 3.637c0.172 0.176 0.439 0.341 0.656 0.275 0.244 0 0.475-0.097 0.647-0.269l5.399-5.437-1.42-0.245z"></path>
</svg>
