<!-- Generated by IcoMoon.io -->
<svg version="1.1" xmlns="http://www.w3.org/2000/svg" width="24" height="24" viewBox="0 0 24 24">
<title>todo</title>
<path d="M10.507 2.629h10.95c0.404 0.001 0.672 0.129 0.902 0.457l0.641 0.918h-10.948c-0.404 0-0.673-0.127-0.902-0.459l-0.643-0.916zM7.563 1.022c-0.397-0.069-0.7 0.023-0.986 0.307l-2.478 2.491-1.091-1.182c-0.271-0.245-0.56-0.344-0.934-0.278l-1.074 0.19c0 0.001 0.001 0.002 0.001 0.002l2.601 2.728c0.129 0.131 0.328 0.255 0.492 0.208 0.183 0 0.356-0.074 0.485-0.203l4.049-4.074-1.065-0.189zM11.149 12.298c0.229 0.328 0.498 0.455 0.902 0.455h10.949l-0.641-0.918c-0.23-0.328-0.499-0.456-0.902-0.457h-10.95l0.642 0.92zM7.563 9.771c-0.397-0.069-0.7 0.023-0.986 0.312l-2.478 2.491-1.091-1.183c-0.271-0.251-0.56-0.344-0.934-0.278l-1.074 0.186c0 0.007 0.001 0.008 0.001 0.008l2.601 2.728c0.129 0.132 0.329 0.25 0.492 0.203 0.183 0 0.356-0.070 0.485-0.199l4.049-4.079-1.065-0.189zM11.149 21.047c0.229 0.331 0.498 0.455 0.902 0.455h10.949l-0.641-0.912c-0.23-0.334-0.499-0.462-0.902-0.463h-10.95l0.642 0.92zM7.563 18.526c-0.397-0.075-0.7 0.023-0.986 0.307l-2.478 2.491-1.091-1.183c-0.271-0.251-0.56-0.344-0.934-0.278l-1.074 0.191c0 0.001 0.001 0.002 0.001 0.002l2.601 2.728c0.129 0.132 0.329 0.256 0.492 0.206 0.183 0 0.356-0.073 0.485-0.202l4.049-4.078-1.065-0.184z"></path>
</svg>
