<!-- Generated by IcoMoon.io -->
<svg version="1.1" xmlns="http://www.w3.org/2000/svg" width="32" height="32" viewBox="0 0 32 32">
<title>toll</title>
<path d="M28.311 27.345v0h-3.339l0.893 1.277c0.321 0.459 0.693 0.635 1.252 0.637v0h3.339l-0.893-1.277c-0.32-0.459-0.693-0.635-1.252-0.637z"></path>
<path d="M6.009 16.412c-0.544 0-0.984 0.44-0.984 0.984v6.979c0 0.544 0.44 0.984 0.984 0.984s0.984-0.44 0.984-0.984v-6.979c0-0.544-0.441-0.984-0.984-0.984z"></path>
<path d="M30.073 7.336l-1.328-0.929h-17.424v-1.676l-0.929-1.328c-0.335-0.479-0.723-0.661-1.307-0.663h-5.528c-0.584 0.003-0.972 0.185-1.307 0.663l-0.929 1.328v24.529h18.007l-0.893-1.277c-0.321-0.46-0.696-0.636-1.256-0.637h-5.857v-13.605h17.424l1.328-0.929c0.479-0.335 0.661-0.723 0.663-1.307v-2.863c-0.001-0.583-0.184-0.971-0.663-1.305zM9.331 27.345h-6.019v-22.615h6.019v1.676h-1.769l-1.328 0.929c-0.477 0.335-0.66 0.723-0.663 1.305v2.863c0.001 0.583 0.184 0.972 0.663 1.307l1.328 0.929h1.769v13.605zM9.479 8.397l-1.917 1.916v-1.916h1.917zM10.192 11.749h-1.251l3.352-3.352h3.283l-3.352 3.352h-2.032zM15.040 11.749l3.352-3.352h3.223l-3.352 3.352h-3.223zM24.361 11.749h-3.284l3.352-3.352h3.284l-3.352 3.352zM28.745 11.749h-1.569l1.569-1.569v1.569z"></path>
</svg>
