<!-- Generated by IcoMoon.io -->
<svg version="1.1" xmlns="http://www.w3.org/2000/svg" width="32" height="32" viewBox="0 0 32 32">
<path d="M21.569 16.309l0.847-1.225h-4.583v1.833h2.544c0.532-0.001 0.889-0.171 1.192-0.608z"></path>
<path d="M21.569 20.892l0.847-1.225h-4.583v1.833h2.544c0.532-0.001 0.889-0.171 1.192-0.608z"></path>
<path d="M21.569 11.725l0.847-1.225h-4.583v1.833h2.544c0.532-0.001 0.889-0.171 1.192-0.608z"></path>
<path d="M9.584 21.5h2.544c0.532-0.001 0.888-0.171 1.192-0.608l0.847-1.225h-4.583v1.833z"></path>
<path d="M9.584 12.333h2.544c0.532-0.001 0.889-0.171 1.192-0.608l0.847-1.225h-4.583v1.833z"></path>
<path d="M9.584 16.917h2.544c0.532-0.001 0.888-0.171 1.192-0.608l0.847-1.225h-4.583v1.833z"></path>
<path d="M28.017 10.624c0-0.539-0.199-0.887-0.641-1.197l-11.376-8.075-11.381 8.073c-0.443 0.312-0.64 0.66-0.64 1.199v1.5l1.939-1.375v18.084c0 1.011 0.819 1.833 1.832 1.833h5.459c1.013 0 1.875-0.823 1.875-1.833v-1.719h1.833v1.719c0 1.011 0.779 1.833 1.792 1.833h5.541c1.013 0 1.833-0.823 1.833-1.833v-18.081l1.933 1.372v-1.5zM24.251 28.833h-5.5v-2.636c0-0.509-0.412-0.917-0.917-0.917h-3.667c-0.505 0-0.917 0.408-0.917 0.917v2.636h-5.5v-19.385l7.636-5.416c0.205-0.143 0.409-0.217 0.615-0.217s0.411 0.073 0.615 0.217l7.636 5.419v19.383z"></path>
</svg>
