<!-- Generated by IcoMoon.io -->
<svg version="1.1" xmlns="http://www.w3.org/2000/svg" width="32" height="32" viewBox="0 0 32 32">
<title>traffic_light</title>
<path d="M16 4.541c-1.769 0-3.208 1.44-3.208 3.208s1.439 3.209 3.208 3.209 3.208-1.44 3.208-3.208-1.439-3.209-3.208-3.209zM16 9.125c-0.76 0-1.375-0.616-1.375-1.375s0.615-1.376 1.375-1.376 1.375 0.616 1.375 1.375-0.615 1.376-1.375 1.376zM16.091 21.133c-1.769 0-3.208 1.44-3.208 3.208 0 1.769 1.44 3.208 3.208 3.208s3.208-1.439 3.208-3.208c0.001-1.768-1.439-3.208-3.208-3.208zM16.091 25.716c-0.76 0-1.375-0.616-1.375-1.375s0.615-1.375 1.375-1.375c0.76 0 1.375 0.616 1.375 1.375s-0.613 1.375-1.375 1.375zM16.091 12.839c-1.769 0-3.208 1.439-3.208 3.208 0 1.768 1.44 3.208 3.208 3.208s3.208-1.44 3.208-3.208c0.001-1.769-1.439-3.208-3.208-3.208zM16.091 17.421c-0.76 0-1.375-0.616-1.375-1.375s0.615-1.375 1.375-1.375c0.76 0 1.375 0.616 1.375 1.375s-0.613 1.375-1.375 1.375zM11.416 30.667c-1.012 0-1.833-0.82-1.833-1.833v-5.676c-0.636-0.212-1.164-0.623-1.58-1.227l-0.845-1.223c-0.388-0.56-0.432-1.289-0.115-1.893s0.943-0.981 1.624-0.981h0.917v-2.925c-0.636-0.212-1.164-0.623-1.58-1.227l-0.845-1.223c-0.388-0.56-0.432-1.289-0.115-1.893s0.941-0.981 1.623-0.981h0.917v-2.927c-0.636-0.212-1.164-0.623-1.58-1.227l-0.845-1.223c-0.388-0.56-0.432-1.289-0.115-1.893s0.941-0.981 1.623-0.981h14.667c0.681 0 1.307 0.377 1.624 0.981s0.272 1.333-0.115 1.893l-0.845 1.223c-0.416 0.604-0.945 1.015-1.58 1.227v2.925h0.916c0.681 0 1.307 0.377 1.624 0.981s0.272 1.333-0.115 1.893l-0.845 1.223c-0.416 0.604-0.945 1.015-1.58 1.227v2.925h0.916c0.681 0 1.307 0.377 1.624 0.981s0.272 1.333-0.115 1.893l-0.845 1.223c-0.416 0.604-0.945 1.015-1.58 1.227v5.676c0 1.013-0.821 1.833-1.833 1.833h-9.168zM21.3 13.251c0.531-0.001 0.884-0.171 1.189-0.611l0.844-1.224h-2.749v-6.416h0.716c0.531-0.001 0.884-0.171 1.189-0.611l0.844-1.223h-14.667l0.845 1.223c0.305 0.44 0.659 0.609 1.189 0.611h0.716v6.416h-2.751l0.845 1.223c0.305 0.44 0.659 0.609 1.189 0.611h0.716v6.416h-2.751l0.845 1.223c0.305 0.44 0.659 0.609 1.189 0.611h0.716v7.333h9.167v-7.333h0.716c0.531-0.001 0.884-0.171 1.189-0.611l0.844-1.221h-2.749v-6.416h0.716z"></path>
</svg>
