<!-- Generated by IcoMoon.io -->
<svg version="1.1" xmlns="http://www.w3.org/2000/svg" width="24" height="24" viewBox="0 0 24 24">
<title>traffic_cone</title>
<path fill="#444" d="M19.608 22.083c-0.193-0.275-0.43-0.385-0.731-0.424-0.025-0.094-0.044-0.175-0.078-0.294l-4.813-19.25c-0.124-0.648-0.69-1.115-1.35-1.115h-1.375c-0.659 0-1.225 0.467-1.35 1.117l-4.683 19.25c-0.036 0.117-0.055 0.197-0.081 0.29-0.314 0.032-0.556 0.143-0.754 0.428l-0.642 0.916h16.5l-0.642-0.917zM15.729 14.75h-7.48l1.339-5.5h4.766l1.375 5.5zM11.26 2.375h1.375l1.375 5.5h-4.088l1.338-5.5zM6.577 21.625l1.338-5.5h8.158l1.375 5.5h-10.871z"></path>
</svg>
