<!-- Generated by IcoMoon.io -->
<svg version="1.1" xmlns="http://www.w3.org/2000/svg" width="32" height="32" viewBox="0 0 32 32">
<title>traffic_cone</title>
<path d="M26.144 29.444c-0.257-0.367-0.575-0.515-0.975-0.564-0.033-0.125-0.057-0.233-0.105-0.392l-6.416-25.667c-0.165-0.865-0.921-1.488-1.8-1.488h-1.833c-0.879 0-1.635 0.623-1.8 1.488l-6.245 25.667c-0.048 0.155-0.073 0.26-0.108 0.387-0.419 0.043-0.741 0.192-1.005 0.569l-0.856 1.223h22l-0.856-1.223zM20.972 19.667h-9.972l1.785-7.333h6.355l1.832 7.333zM15.015 3.167h1.833l1.833 7.333h-5.451l1.784-7.333zM8.769 28.833l1.784-7.333h10.877l1.833 7.333h-14.495z"></path>
</svg>
