<!-- Generated by IcoMoon.io -->
<svg version="1.1" xmlns="http://www.w3.org/2000/svg" width="24" height="24" viewBox="0 0 24 24">
<title>traffic_light</title>
<path fill="#444" d="M12 3.406c-1.327 0-2.406 1.079-2.406 2.406s1.079 2.406 2.406 2.406 2.406-1.079 2.406-2.406-1.079-2.406-2.406-2.406zM12 6.844c-0.571 0-1.031-0.462-1.031-1.031s0.461-1.031 1.031-1.031 1.031 0.462 1.031 1.031-0.461 1.031-1.031 1.031zM12.069 15.85c-1.327 0-2.406 1.079-2.406 2.406s1.079 2.406 2.406 2.406 2.406-1.079 2.406-2.406-1.079-2.406-2.406-2.406zM12.069 19.288c-0.571 0-1.031-0.462-1.031-1.031s0.461-1.031 1.031-1.031 1.031 0.462 1.031 1.031-0.462 1.031-1.031 1.031zM12.069 9.628c-1.327 0-2.406 1.079-2.406 2.406s1.079 2.406 2.406 2.406 2.406-1.079 2.406-2.406-1.079-2.406-2.406-2.406zM12.069 13.066c-0.571 0-1.031-0.462-1.031-1.031s0.461-1.031 1.031-1.031 1.031 0.462 1.031 1.031-0.462 1.031-1.031 1.031zM8.563 23c-0.759 0-1.375-0.615-1.375-1.375v-4.257c-0.477-0.16-0.873-0.467-1.185-0.92l-0.634-0.917c-0.29-0.421-0.323-0.967-0.087-1.42 0.238-0.452 0.707-0.736 1.218-0.736h0.688v-2.194c-0.477-0.16-0.873-0.467-1.185-0.92l-0.634-0.917c-0.29-0.419-0.323-0.967-0.087-1.42 0.238-0.452 0.707-0.736 1.218-0.736h0.688v-2.195c-0.477-0.16-0.873-0.467-1.185-0.92l-0.634-0.917c-0.29-0.419-0.323-0.967-0.087-1.42 0.238-0.452 0.707-0.736 1.218-0.736h11c0.511 0 0.98 0.283 1.218 0.736 0.236 0.454 0.203 1.001-0.087 1.42l-0.634 0.917c-0.312 0.452-0.709 0.76-1.185 0.92v2.195h0.688c0.511 0 0.98 0.283 1.218 0.736 0.236 0.454 0.203 1.001-0.087 1.42l-0.634 0.917c-0.312 0.452-0.71 0.76-1.185 0.92v2.194h0.688c0.512 0 0.98 0.283 1.218 0.736 0.236 0.454 0.203 1.001-0.087 1.42l-0.634 0.917c-0.312 0.452-0.71 0.76-1.185 0.92v4.257c0 0.76-0.616 1.375-1.375 1.375h-6.875zM15.975 9.938c0.399-0.001 0.663-0.128 0.891-0.458l0.634-0.917h-2.063v-4.813h0.538c0.399-0.001 0.663-0.128 0.891-0.458l0.634-0.917h-11l0.634 0.917c0.228 0.33 0.494 0.457 0.891 0.458h0.538v4.813h-2.063l0.634 0.917c0.228 0.33 0.494 0.457 0.891 0.458h0.538v4.813h-2.063l0.634 0.917c0.228 0.33 0.494 0.457 0.891 0.458h0.538v5.5h6.875v-5.5h0.538c0.399-0.001 0.663-0.128 0.891-0.458l0.634-0.917h-2.063v-4.813h0.538z"></path>
</svg>
