<!-- Generated by IcoMoon.io -->
<svg version="1.1" xmlns="http://www.w3.org/2000/svg" width="24" height="24" viewBox="0 0 24 24">
<title>traffic_light</title>
<path d="M12 3.406c-1.327 0-2.406 1.080-2.406 2.406s1.079 2.407 2.406 2.407 2.406-1.080 2.406-2.406-1.079-2.407-2.406-2.407zM12 6.844c-0.57 0-1.031-0.462-1.031-1.031s0.461-1.032 1.031-1.032 1.031 0.462 1.031 1.031-0.461 1.032-1.031 1.032zM12.068 15.85c-1.327 0-2.406 1.080-2.406 2.406 0 1.327 1.080 2.406 2.406 2.406s2.406-1.079 2.406-2.406c0.001-1.326-1.079-2.406-2.406-2.406zM12.068 19.287c-0.57 0-1.031-0.462-1.031-1.031s0.461-1.031 1.031-1.031c0.57 0 1.031 0.462 1.031 1.031s-0.46 1.031-1.031 1.031zM12.068 9.629c-1.327 0-2.406 1.079-2.406 2.406 0 1.326 1.080 2.406 2.406 2.406s2.406-1.080 2.406-2.406c0.001-1.327-1.079-2.406-2.406-2.406zM12.068 13.066c-0.57 0-1.031-0.462-1.031-1.031s0.461-1.031 1.031-1.031c0.57 0 1.031 0.462 1.031 1.031s-0.46 1.031-1.031 1.031zM8.562 23c-0.759 0-1.375-0.615-1.375-1.375v-4.257c-0.477-0.159-0.873-0.467-1.185-0.92l-0.634-0.917c-0.291-0.42-0.324-0.967-0.086-1.42s0.707-0.736 1.218-0.736h0.688v-2.194c-0.477-0.159-0.873-0.467-1.185-0.92l-0.634-0.917c-0.291-0.42-0.324-0.967-0.086-1.42s0.706-0.736 1.217-0.736h0.688v-2.195c-0.477-0.159-0.873-0.467-1.185-0.92l-0.634-0.917c-0.291-0.42-0.324-0.967-0.086-1.42s0.706-0.736 1.217-0.736h11c0.511 0 0.98 0.283 1.218 0.736s0.204 1-0.086 1.42l-0.634 0.917c-0.312 0.453-0.709 0.761-1.185 0.92v2.194h0.687c0.511 0 0.98 0.283 1.218 0.736s0.204 1-0.086 1.42l-0.634 0.917c-0.312 0.453-0.709 0.761-1.185 0.92v2.194h0.687c0.511 0 0.98 0.283 1.218 0.736s0.204 1-0.086 1.42l-0.634 0.917c-0.312 0.453-0.709 0.761-1.185 0.92v4.257c0 0.76-0.616 1.375-1.375 1.375h-6.876zM15.975 9.938c0.398-0.001 0.663-0.128 0.892-0.458l0.633-0.918h-2.062v-4.812h0.537c0.398-0.001 0.663-0.128 0.892-0.458l0.633-0.917h-11l0.634 0.917c0.229 0.33 0.494 0.457 0.892 0.458h0.537v4.812h-2.063l0.634 0.917c0.229 0.33 0.494 0.457 0.892 0.458h0.537v4.812h-2.063l0.634 0.917c0.229 0.33 0.494 0.457 0.892 0.458h0.537v5.5h6.875v-5.5h0.537c0.398-0.001 0.663-0.128 0.892-0.458l0.633-0.916h-2.062v-4.812h0.537z"></path>
</svg>
