<!-- Generated by IcoMoon.io -->
<svg version="1.1" xmlns="http://www.w3.org/2000/svg" width="24" height="24" viewBox="0 0 24 24">
<title>train</title>
<path fill="#444" d="M12 11.312c-1.137 0-2.063 0.925-2.063 2.062s0.925 2.063 2.063 2.063 2.063-0.925 2.063-2.063-0.925-2.063-2.063-2.063zM12 14.063c-0.38 0-0.688-0.308-0.688-0.688s0.308-0.688 0.688-0.688 0.688 0.308 0.688 0.688-0.308 0.688-0.688 0.688zM17.5 2.375h-2.034l-0.231-0.33c-0.484-0.69-1.165-1.042-2.030-1.045h-2.416c-0.861 0.003-1.541 0.355-2.025 1.045l-0.231 0.33h-2.034c-0.759 0-1.375 0.615-1.375 1.375v12.375c0 0.366 0.144 0.715 0.403 0.972l1.375 1.375c0.257 0.259 0.608 0.403 0.972 0.403h2.408l-2.926 4.125h1.119c0.404 0 0.66-0.146 0.891-0.47l2.595-3.655h0.078l2.593 3.655c0.231 0.325 0.49 0.47 0.891 0.47h1.118l-2.926-4.125h2.409c0.364 0 0.715-0.144 0.972-0.403l1.375-1.375c0.259-0.257 0.403-0.606 0.403-0.972v-12.375c0-0.76-0.616-1.375-1.375-1.375zM17.5 16.125l-1.375 1.375h-8.25l-1.375-1.375v-6.875h11v6.875zM17.5 7.875h-11v-4.125h2.75l0.642-0.917c0.231-0.33 0.499-0.457 0.902-0.458h2.412c0.403 0.001 0.671 0.128 0.902 0.458l0.642 0.917h2.75v4.125z"></path>
</svg>
