<!-- Generated by IcoMoon.io -->
<svg version="1.1" xmlns="http://www.w3.org/2000/svg" width="32" height="32" viewBox="0 0 32 32">
<title>train</title>
<path d="M16 15.083c-1.516 0-2.749 1.233-2.749 2.749s1.233 2.749 2.749 2.749 2.749-1.233 2.749-2.749-1.233-2.749-2.749-2.749zM16 18.749c-0.507 0-0.917-0.411-0.917-0.917s0.411-0.915 0.917-0.915 0.917 0.411 0.917 0.917-0.411 0.915-0.917 0.915zM23.333 3.167h-2.712l-0.308-0.44c-0.644-0.921-1.552-1.389-2.705-1.393h-3.221c-1.148 0.004-2.056 0.472-2.7 1.393l-0.308 0.44h-2.712c-1.012 0-1.833 0.82-1.833 1.833v16.5c0 0.487 0.193 0.953 0.537 1.297l1.833 1.833c0.344 0.344 0.809 0.536 1.296 0.536h3.211l-3.903 5.5h1.493c0.539 0 0.881-0.195 1.189-0.627l3.457-4.873h0.104l3.457 4.873c0.309 0.431 0.655 0.627 1.191 0.627h1.492l-3.901-5.5h3.211c0.487 0 0.952-0.193 1.296-0.536l1.833-1.833c0.344-0.344 0.537-0.809 0.537-1.297v-16.5c-0.001-1.013-0.823-1.833-1.835-1.833zM23.333 21.5l-1.833 1.833h-11l-1.833-1.833v-9.167h14.667v9.167zM23.333 10.5h-14.667v-5.5h3.667l0.856-1.223c0.308-0.44 0.667-0.609 1.203-0.611h3.216c0.536 0.001 0.895 0.171 1.203 0.611l0.856 1.223h3.667v5.5z"></path>
</svg>
