<!-- Generated by IcoMoon.io -->
<svg version="1.1" xmlns="http://www.w3.org/2000/svg" width="32" height="32" viewBox="0 0 32 32">
<path d="M5.917 22.416c-1.516 0-2.749 1.233-2.749 2.749s1.233 2.749 2.749 2.749 2.749-1.231 2.749-2.748-1.233-2.751-2.749-2.751zM5.917 26.083c-0.507 0-0.917-0.411-0.917-0.917s0.411-0.917 0.917-0.917 0.917 0.411 0.917 0.917-0.412 0.917-0.917 0.917zM26.083 22.416c-1.516 0-2.749 1.233-2.749 2.749s1.233 2.749 2.749 2.749 2.749-1.233 2.749-2.749-1.232-2.749-2.749-2.749zM26.083 26.083c-0.507 0-0.917-0.411-0.917-0.917s0.411-0.917 0.917-0.917 0.917 0.411 0.917 0.917-0.411 0.917-0.917 0.917zM18.749 22.416c-1.516 0-2.749 1.233-2.749 2.749s1.233 2.749 2.749 2.749 2.749-1.233 2.749-2.749-1.232-2.749-2.749-2.749zM18.749 26.083c-0.507 0-0.917-0.411-0.917-0.917s0.411-0.917 0.917-0.917 0.917 0.411 0.917 0.917-0.411 0.917-0.917 0.917zM14.625 4.083c-2.277 0-4.125 1.847-4.125 4.125v1.375h-7.333c-1.012 0.001-1.833 0.821-1.833 1.833v7.333c0 1.013 0.821 1.833 1.833 1.833h23.284c2.276 0 4.216-1.847 4.216-4.125v-12.375h-16.041zM10.5 18.749h-7.333v-7.333h7.333v7.333zM28.833 16.459c0 1.243-1.091 2.292-2.383 2.292h-14.117v-10.543c0-1.264 1.028-2.292 2.292-2.292h14.208v10.543z"></path>
</svg>
