<!-- Generated by IcoMoon.io -->
<svg version="1.1" xmlns="http://www.w3.org/2000/svg" width="24" height="24" viewBox="0 0 24 24">
<title>truck</title>
<path d="M4.438 16.812c-1.137 0-2.062 0.925-2.062 2.062s0.925 2.062 2.062 2.062 2.062-0.923 2.062-2.061-0.925-2.063-2.062-2.063zM4.438 19.562c-0.38 0-0.688-0.308-0.688-0.688s0.308-0.688 0.688-0.688 0.688 0.308 0.688 0.688-0.309 0.688-0.688 0.688zM19.562 16.812c-1.137 0-2.062 0.925-2.062 2.062s0.925 2.062 2.062 2.062 2.062-0.925 2.062-2.062-0.924-2.062-2.062-2.062zM19.562 19.562c-0.38 0-0.688-0.308-0.688-0.688s0.308-0.688 0.688-0.688 0.688 0.308 0.688 0.688-0.308 0.688-0.688 0.688zM14.062 16.812c-1.137 0-2.062 0.925-2.062 2.062s0.925 2.062 2.062 2.062 2.062-0.925 2.062-2.062-0.924-2.062-2.062-2.062zM14.062 19.562c-0.38 0-0.688-0.308-0.688-0.688s0.308-0.688 0.688-0.688 0.688 0.308 0.688 0.688-0.308 0.688-0.688 0.688zM10.969 3.062c-1.708 0-3.094 1.385-3.094 3.094v1.031h-5.5c-0.759 0.001-1.375 0.616-1.375 1.375v5.5c0 0.76 0.616 1.375 1.375 1.375h17.463c1.707 0 3.162-1.385 3.162-3.094v-9.281h-12.031zM7.875 14.062h-5.5v-5.5h5.5v5.5zM21.625 12.344c0 0.932-0.818 1.719-1.787 1.719h-10.588v-7.907c0-0.948 0.771-1.719 1.719-1.719h10.656v7.907z"></path>
</svg>
