<!-- Generated by IcoMoon.io -->
<svg version="1.1" xmlns="http://www.w3.org/2000/svg" width="24" height="24" viewBox="0 0 24 24">
<title>truck</title>
<path fill="#444" d="M4.596 16.038c-1.113 0-2.019 0.906-2.019 2.019s0.906 2.019 2.019 2.019 2.019-0.906 2.019-2.019-0.906-2.019-2.019-2.019zM4.596 18.731c-0.372 0-0.673-0.302-0.673-0.673s0.302-0.673 0.673-0.673 0.673 0.302 0.673 0.673-0.302 0.673-0.673 0.673zM19.404 16.038c-1.113 0-2.019 0.906-2.019 2.019s0.906 2.019 2.019 2.019 2.019-0.906 2.019-2.019-0.906-2.019-2.019-2.019zM19.404 18.731c-0.372 0-0.673-0.302-0.673-0.673s0.302-0.673 0.673-0.673 0.673 0.302 0.673 0.673-0.302 0.673-0.673 0.673zM14.019 16.038c-1.113 0-2.019 0.906-2.019 2.019s0.906 2.019 2.019 2.019 2.019-0.906 2.019-2.019-0.906-2.019-2.019-2.019zM14.019 18.731c-0.372 0-0.673-0.302-0.673-0.673s0.302-0.673 0.673-0.673 0.673 0.302 0.673 0.673-0.302 0.673-0.673 0.673zM10.99 2.577c-1.672 0-3.029 1.356-3.029 3.029v1.010h-5.385c-0.743 0-1.346 0.602-1.346 1.346v5.385c0 0.744 0.603 1.346 1.346 1.346h17.096c1.672 0 3.096-1.356 3.096-3.029v-9.087h-11.779zM7.962 13.346h-5.385v-5.385h5.385v5.385zM21.423 11.663c0 0.913-0.801 1.683-1.75 1.683h-10.365v-7.74c0-0.928 0.755-1.683 1.683-1.683h10.433v7.74z"></path>
</svg>
