<!-- Generated by IcoMoon.io -->
<svg version="1.1" xmlns="http://www.w3.org/2000/svg" width="32" height="32" viewBox="0 0 32 32">
<title>twitter</title>
<path d="M27.661 10.013c0.385 8.472-5.929 17.905-17.104 17.905-3.397 0-6.56-1-9.224-2.699 3.193 0.373 6.376-0.513 8.909-2.492-2.635-0.052-4.856-1.797-5.617-4.18 0.937 0.176 1.867 0.12 2.712-0.109-2.895-0.576-4.888-3.184-4.827-5.968 0.813 0.44 1.744 0.719 2.723 0.749-2.679-1.799-3.439-5.329-1.864-8.044 2.973 3.64 7.404 6.040 12.404 6.296-0.876-3.772 1.985-7.389 5.868-7.389 1.731 0 3.295 0.724 4.395 1.897 1.365-0.264 2.655-0.772 3.824-1.46-0.455 1.404-1.412 2.595-2.648 3.339 1.217-0.159 2.377-0.477 3.453-0.961-0.803 1.203-1.821 2.263-3.004 3.116z"></path>
</svg>
