<!-- Generated by IcoMoon.io -->
<svg version="1.1" xmlns="http://www.w3.org/2000/svg" width="24" height="24" viewBox="0 0 24 24">
<title>twitter</title>
<path fill="#444" d="M20.563 7.603c0.281 6.219-4.354 13.148-12.56 13.148-2.496 0-4.817-0.734-6.773-1.984 2.345 0.275 4.683-0.376 6.541-1.829-1.934-0.036-3.566-1.318-4.126-3.068 0.691 0.131 1.373 0.089 1.992-0.079-2.124-0.423-3.589-2.338-3.543-4.384 0.596 0.326 1.279 0.529 1.999 0.551-1.965-1.317-2.524-3.912-1.368-5.903 2.182 2.674 5.437 4.434 9.108 4.62-0.645-2.768 1.457-5.425 4.308-5.425 1.269 0 2.419 0.533 3.225 1.395 1.004-0.197 1.951-0.567 2.808-1.072-0.332 1.031-1.035 1.902-1.944 2.447 0.895-0.112 1.747-0.347 2.538-0.701-0.591 0.883-1.339 1.663-2.206 2.286z"></path>
</svg>
