<!-- Generated by IcoMoon.io -->
<svg version="1.1" xmlns="http://www.w3.org/2000/svg" width="24" height="24" viewBox="0 0 24 24">
<title>umbrella</title>
<path fill="#444" d="M12.014 1c-0.349 0-0.701 0.015-1.056 0.047-5.261 0.48-9.446 4.45-9.951 9.439-0.038 0.386 0.087 0.773 0.348 1.060 0.261 0.289 0.631 0.454 1.020 0.454h8.938v7.421c0 1.973 1.541 3.579 3.437 3.579 1.807 0 3.275-1.464 3.41-3.31l-1.020 0.307c-0.256 0.078-0.422 0.226-0.556 0.41-0.34 0.719-1.031 1.218-1.834 1.218-1.137 0-2.063-0.989-2.063-2.204v-7.421h8.938c0.389 0 0.759-0.165 1.020-0.452 0.261-0.289 0.388-0.674 0.348-1.060-0.547-5.409-5.266-9.487-10.979-9.487zM2.375 10.625c0.44-4.349 4.093-7.788 8.708-8.209 5.314-0.478 10.035 3.196 10.542 8.209h-19.25z"></path>
</svg>
