<!-- Generated by IcoMoon.io -->
<svg version="1.1" xmlns="http://www.w3.org/2000/svg" width="32" height="32" viewBox="0 0 32 32">
<title>umbrella</title>
<path d="M16.019 1.333c-0.465 0-0.935 0.020-1.409 0.063-7.015 0.639-12.595 5.933-13.268 12.585-0.052 0.516 0.116 1.029 0.465 1.416 0.348 0.383 0.841 0.603 1.36 0.603h11.917v9.895c0 2.631 2.056 4.772 4.584 4.772 2.409 0 4.367-1.953 4.548-4.415l-1.361 0.409c-0.34 0.104-0.563 0.301-0.741 0.545-0.452 0.96-1.373 1.627-2.445 1.627-1.516 0-2.751-1.317-2.751-2.939v-9.895h11.917c0.519 0 1.012-0.22 1.36-0.603 0.348-0.385 0.517-0.9 0.465-1.416-0.732-7.211-7.025-12.648-14.641-12.648zM3.167 14.167c0.587-5.8 5.457-10.384 11.609-10.944 7.087-0.639 13.381 4.259 14.057 10.944h-25.667z"></path>
</svg>
