<!-- Generated by IcoMoon.io -->
<svg version="1.1" xmlns="http://www.w3.org/2000/svg" width="24" height="24" viewBox="0 0 24 24">
<title>undo</title>
<path fill="#444" d="M1.106 4.624l0.891 0.599c0.324 0.223 0.474 0.507 0.474 0.907l0.007 2.622 3.55-3.712c1.035-1.037 2.309-1.846 3.69-2.339 5.128-1.827 10.781 0.865 12.607 5.992 1.824 5.131-0.864 10.79-5.989 12.616-1.083 0.381-2.187 0.569-3.276 0.571-2.967 0.005-5.793-1.346-7.67-3.641 0 0-0.512-0.658-0.736-1.031-0.049-0.079-0.165-0.271-0.17-0.293-0.353-0.632-0.643-1.303-0.842-2.016l1.020 0.255c0.385 0.098 0.64 0.351 0.64 0.351 0.078 0.18 0.253 0.537 0.253 0.537 1.959 3.631 6.321 5.409 10.324 3.985 4.42-1.573 6.734-6.453 5.161-10.872-1.572-4.423-6.444-6.738-10.867-5.166-1.189 0.422-2.29 1.12-3.194 2.029l-3.473 3.63 0.011 0.010 2.532-0.004c0.351 0.014 0.617 0.15 0.828 0.448l0.62 0.904c-0.042 0.010-5.696 0.012-5.696 0.012-0.095 0.001-0.184-0.016-0.267-0.049-0.004-0.003-0.008-0.011-0.014-0.011-0.078-0.035-0.148-0.084-0.207-0.144-0.004-0.003-0.007-0.001-0.010-0.005-0.022-0.026-0.031-0.057-0.050-0.084-0.031-0.041-0.065-0.086-0.084-0.136-0.020-0.046-0.023-0.097-0.030-0.15-0.005-0.034-0.020-0.061-0.022-0.099 0 0-0.025-5.67-0.012-5.715z"></path>
</svg>
