<!-- Generated by IcoMoon.io -->
<svg version="1.1" xmlns="http://www.w3.org/2000/svg" width="32" height="32" viewBox="0 0 32 32">
<path d="M15.991 30.667c8.092 0 14.676-6.58 14.676-14.667s-6.584-14.667-14.676-14.667c-4.077 0-7.869 1.641-10.672 4.624l-0.735 0.779v-3.029c-0.001-0.493-0.177-0.836-0.568-1.109l-1.328-0.892v7.433c0 0.524 0.424 0.949 0.948 0.949h7.421l-0.927-1.327c-0.275-0.392-0.619-0.567-1.115-0.568h-3.017l0.495-0.707c2.429-2.707 5.891-4.257 9.497-4.257 7.047 0 12.78 5.729 12.78 12.772s-5.733 12.772-12.78 12.772c-6.173 0-11.457-4.411-12.563-10.485-0.121-0.341-0.38-0.635-0.796-0.86l-1.299-0.7c0.38 7.749 6.811 13.939 14.657 13.939z"></path>
</svg>
