<!-- Generated by IcoMoon.io -->
<svg version="1.1" xmlns="http://www.w3.org/2000/svg" width="24" height="24" viewBox="0 0 24 24">
<title>unlink</title>
<path fill="#444" d="M15.304 15.362c-0.026 0.331-0.080 0.66-0.157 0.983-0.007 0.030-0.197 0.67-0.315 0.947-0.050 0.114-0.37 0.733-0.495 0.921-0.206 0.308-0.437 0.602-0.708 0.873l-2.188 2.188c-1.173 1.173-2.727 1.746-4.29 1.724-1.562-0.023-3.134-0.639-4.339-1.847-1.354-1.36-1.936-3.178-1.793-4.925 0.111-1.36 0.649-2.678 1.672-3.703l2.189-2.188c0.216-0.217 0.45-0.399 0.686-0.573 0.23-0.161 0.719-0.424 0.719-0.424 0.036-0.021 0.104-0.062 0.214-0.059 0 0.203 0 1.112 0 1.112-0.010 0.286-0.169 0.484-0.345 0.66-0.102 0.085-0.206 0.16-0.302 0.257l-2.188 2.186c-0.451 0.451-0.787 0.978-1.005 1.541-0.659 1.691-0.279 3.73 1.126 5.143 0.939 0.939 2.157 1.422 3.367 1.444 1.211 0.023 2.413-0.417 3.318-1.321l2.188-2.188c0.208-0.206 0.385-0.432 0.54-0.667 0.094-0.139 0.338-0.609 0.378-0.704 0.089-0.203 0.234-0.689 0.241-0.719 0.061-0.242 0.1-0.485 0.121-0.733 0-0.001 0-0.003 0-0.004 0.038-0.459 0.030-0.923-0.063-1.379-0.004-0.025-0.014-0.048-0.019-0.073-0.055-0.246-0.132-0.487-0.226-0.723-0.032-0.080-0.29-0.608-0.401-0.788-0.044-0.071-0.48-0.681-0.692-0.894-0.076-0.077-0.16-0.139-0.239-0.205-0.18-0.179-0.287-0.378-0.298-0.668v-1.086c0.029-0.004 0.169 0.008 0.231 0.029 0.091 0.052 0.182 0.103 0.269 0.161 0.017 0.016 0.312 0.221 0.439 0.315 0.194 0.151 0.391 0.302 0.569 0.483 0.008 0.010 0.015 0.019 0.025 0.029 0.26 0.265 0.487 0.55 0.692 0.846 0.106 0.154 0.193 0.316 0.282 0.479 0.081 0.143 0.162 0.285 0.231 0.433 0.104 0.227 0.194 0.457 0.269 0.692 0.023 0.071 0.213 0.778 0.254 1.064v0c0.066 0.454 0.078 0.907 0.043 1.361zM8.737 9.997v0c0.041 0.286 0.231 0.994 0.256 1.064 0.076 0.235 0.165 0.465 0.269 0.692 0.069 0.147 0.15 0.29 0.231 0.433 0.089 0.161 0.177 0.323 0.282 0.479 0.205 0.296 0.43 0.58 0.692 0.846 0.010 0.010 0.017 0.019 0.025 0.029 0.18 0.18 0.375 0.33 0.569 0.483 0.127 0.094 0.424 0.3 0.439 0.315 0.088 0.058 0.179 0.109 0.268 0.16 0.063 0.022 0.203 0.034 0.232 0.030v-1.086c-0.011-0.29-0.117-0.49-0.298-0.667-0.080-0.067-0.162-0.129-0.238-0.206-0.213-0.213-0.649-0.824-0.693-0.894-0.111-0.18-0.37-0.708-0.401-0.788-0.092-0.236-0.17-0.477-0.226-0.723-0.005-0.023-0.015-0.048-0.021-0.073-0.094-0.457-0.102-0.92-0.063-1.379 0-0.001 0-0.003 0-0.004 0.022-0.249 0.062-0.491 0.122-0.733 0.007-0.030 0.15-0.516 0.241-0.719 0.040-0.095 0.285-0.565 0.378-0.704 0.155-0.234 0.333-0.459 0.54-0.665l2.188-2.188c0.905-0.905 2.107-1.345 3.318-1.321 1.21 0.022 2.43 0.505 3.367 1.444 1.405 1.412 1.786 3.45 1.126 5.141-0.219 0.564-0.554 1.090-1.005 1.541l-2.188 2.188c-0.096 0.096-0.201 0.172-0.302 0.257-0.176 0.175-0.334 0.373-0.345 0.659v1.112c0 0 0.151-0.026 0.215-0.059 0 0 0.49-0.261 0.719-0.424 0.236-0.175 0.47-0.356 0.686-0.573l2.188-2.188c1.023-1.024 1.562-2.343 1.672-3.703 0.143-1.748-0.439-3.564-1.793-4.924-1.207-1.207-2.777-1.823-4.34-1.847-1.563-0.022-3.117 0.551-4.29 1.724l-2.188 2.188c-0.269 0.269-0.5 0.565-0.708 0.872-0.125 0.188-0.444 0.806-0.494 0.92-0.12 0.279-0.308 0.917-0.316 0.949-0.076 0.322-0.129 0.652-0.155 0.983-0.036 0.454-0.023 0.907 0.041 1.361z"></path>
</svg>
