<!-- Generated by IcoMoon.io -->
<svg version="1.1" xmlns="http://www.w3.org/2000/svg" width="24" height="24" viewBox="0 0 24 24">
<title>unlock</title>
<path fill="#444" d="M7.187 12v-4.962c0-2.571 2.159-4.663 4.813-4.663s4.813 2.091 4.813 4.663c0 0 0.147 0.285 0.477 0.516l0.892 0.624c0-0.010 0.005-0.018 0.005-0.028v-1.114c0-3.328-2.776-6.036-6.188-6.036s-6.188 2.709-6.188 6.038v4.962c-1.519 0-2.75 1.231-2.75 2.75v8.25h15.125c1.518 0 2.75-1.231 2.75-2.75v-8.25h-13.75zM19.562 20.25c0 0.759-0.617 1.375-1.375 1.375h-13.75v-6.875c0-0.759 0.617-1.375 1.375-1.375h13.75v6.875z"></path>
</svg>
