<!-- Generated by IcoMoon.io -->
<svg version="1.1" xmlns="http://www.w3.org/2000/svg" width="32" height="32" viewBox="0 0 32 32">
<title>user_hat</title>
<path d="M8.667 8.665c0 4.044 3.289 7.335 7.333 7.335s7.333-3.291 7.333-7.335c0-0.637-0.093-1.249-0.252-1.832h2.513l-0.856-1.221c-0.308-0.44-0.667-0.608-1.203-0.612h-1.119v-1.833c0-1.013-0.821-1.833-1.833-1.833h-9.168c-1.012 0-1.832 0.82-1.832 1.833v1.833h-1.12c-0.537 0.004-0.895 0.172-1.203 0.612l-0.856 1.221h2.513c-0.159 0.583-0.252 1.195-0.252 1.832zM11.416 3.167h9.167v1.833h-9.167v-1.833zM10.836 6.833h10.328c0.209 0.573 0.336 1.185 0.336 1.832 0 3.039-2.464 5.501-5.5 5.501-3.037 0-5.5-2.463-5.5-5.501 0-0.647 0.127-1.259 0.336-1.832zM27.917 26.292v4.375l-1.196-0.839c-0.44-0.307-0.637-0.684-0.637-1.22v-2.316c0-2.643-2.056-4.792-4.584-4.792h-3.667v7.108c-0.004 0.536-0.172 0.895-0.612 1.203l-1.221 0.856-1.221-0.856c-0.44-0.308-0.608-0.667-0.612-1.203v-7.108h-3.667c-2.528 0-4.584 2.148-4.584 4.792v2.441c-0.033 0.464-0.208 0.816-0.609 1.095l-1.224 0.839v-4.375c0-3.653 2.879-6.625 6.416-6.625h11c3.539 0 6.419 2.972 6.419 6.625z"></path>
</svg>
