<!-- Generated by IcoMoon.io -->
<svg version="1.1" xmlns="http://www.w3.org/2000/svg" width="24" height="24" viewBox="0 0 24 24">
<title>user_hat</title>
<path fill="#444" d="M6.5 6.499c0 3.033 2.467 5.501 5.5 5.501s5.5-2.468 5.5-5.501c0-0.477-0.070-0.936-0.19-1.374h1.885l-0.642-0.916c-0.23-0.33-0.499-0.457-0.902-0.459h-0.839v-1.375c0-0.76-0.616-1.375-1.375-1.375h-6.875c-0.759 0-1.375 0.615-1.375 1.375v1.375h-0.839c-0.403 0.003-0.672 0.129-0.903 0.459l-0.641 0.916h1.885c-0.12 0.437-0.19 0.896-0.19 1.374zM8.563 2.375h6.875v1.375h-6.875v-1.375zM8.127 5.125h7.747c0.157 0.429 0.252 0.888 0.252 1.374 0 2.28-1.848 4.126-4.125 4.126-2.278 0-4.125-1.847-4.125-4.126 0-0.485 0.095-0.945 0.252-1.374zM20.938 19.718v3.282l-0.896-0.628c-0.33-0.231-0.477-0.513-0.477-0.916v-1.738c-0.001-1.981-1.544-3.593-3.439-3.593h-2.75v5.331c-0.003 0.403-0.129 0.671-0.459 0.902l-0.916 0.642-0.916-0.642c-0.33-0.231-0.457-0.499-0.459-0.902v-5.331h-2.75c-1.895 0-3.437 1.612-3.437 3.593v1.832c-0.025 0.348-0.157 0.612-0.457 0.822l-0.919 0.628v-3.282c0-2.739 2.159-4.968 4.813-4.968h8.25c2.654 0 4.813 2.229 4.813 4.968z"></path>
</svg>
