<!-- Generated by IcoMoon.io -->
<svg version="1.1" xmlns="http://www.w3.org/2000/svg" width="24" height="24" viewBox="0 0 24 24">
<title>user</title>
<path fill="#444" d="M12 1c-3.033 0-5.5 2.467-5.5 5.499 0 3.033 2.467 5.501 5.5 5.501s5.5-2.468 5.5-5.501c0-3.032-2.467-5.499-5.5-5.499zM12 10.625c-2.278 0-4.125-1.847-4.125-4.126 0-2.277 1.847-4.124 4.125-4.124 2.277 0 4.125 1.847 4.125 4.124 0 2.28-1.848 4.126-4.125 4.126zM19.562 21.456v-1.738c0-1.981-1.543-3.593-3.437-3.593h-8.25c-1.895 0-3.437 1.612-3.437 3.593v1.832c-0.025 0.348-0.157 0.612-0.457 0.822l-0.919 0.628v-3.282c0-2.739 2.159-4.968 4.813-4.968h8.25c2.654 0 4.813 2.229 4.813 4.968v3.282l-0.896-0.628c-0.33-0.231-0.479-0.513-0.479-0.916z"></path>
</svg>
