<!-- Generated by IcoMoon.io -->
<svg version="1.1" xmlns="http://www.w3.org/2000/svg" width="32" height="32" viewBox="0 0 32 32">
<path d="M27.917 26.289v4.377l-1.197-0.836c-0.437-0.309-0.635-0.685-0.635-1.224v-2.317c0-2.64-2.057-4.789-4.584-4.789h-3.667v7.107c-0.003 0.539-0.172 0.893-0.613 1.203l-1.221 0.857-1.22-0.857c-0.441-0.309-0.611-0.664-0.613-1.203v-7.107h-3.667c-2.525 0-4.584 2.148-4.584 4.789v2.44c-0.032 0.471-0.211 0.82-0.607 1.101l-1.227 0.836v-4.377c0-3.648 2.879-6.623 6.416-6.623h11c3.539 0 6.419 2.973 6.419 6.623zM8.667 8.665c0-4.041 3.291-7.332 7.333-7.332s7.333 3.291 7.333 7.332c0 4.043-3.291 7.335-7.333 7.335s-7.333-3.292-7.333-7.335zM10.5 8.665c0 3.039 2.463 5.501 5.5 5.501 3.036 0 5.5-2.463 5.5-5.501 0-3.036-2.464-5.499-5.5-5.499-3.037 0-5.5 2.463-5.5 5.499z"></path>
</svg>
