<!-- Generated by IcoMoon.io -->
<svg version="1.1" xmlns="http://www.w3.org/2000/svg" width="32" height="32" viewBox="0 0 32 32">
<title>user_id</title>
<path d="M28 5.459h-24c-1.469 0-2.667 1.184-2.667 2.636v15.812c0 1.452 1.197 2.636 2.667 2.636h24c1.469 0 2.667-1.184 2.667-2.636v-15.813c0-1.452-1.197-2.635-2.667-2.635zM28.833 23.907c0 0.433-0.384 0.803-0.833 0.803h-24c-0.449 0-0.833-0.368-0.833-0.803v-15.813c0-0.433 0.384-0.803 0.833-0.803h24c0.449 0 0.833 0.368 0.833 0.803v15.813zM10.589 9.125c-1.767 0-3.208 1.437-3.208 3.208s1.441 3.208 3.208 3.208c1.771 0 3.208-1.437 3.208-3.208s-1.436-3.208-3.208-3.208zM10.589 13.708c-0.759 0-1.375-0.62-1.375-1.375s0.616-1.375 1.375-1.375 1.376 0.62 1.376 1.375-0.616 1.375-1.376 1.375zM16 20.861v2.013l-1.197-0.836c-0.365-0.257-0.532-0.591-0.584-0.997h-0.052c0-1.011-0.82-1.833-1.833-1.833h-3.667c-1.013 0-1.833 0.823-1.833 1.833h-0.028c-0.055 0.408-0.215 0.741-0.58 0.997l-1.227 0.836 0.017-2.013c0.099-1.939 1.689-3.487 3.649-3.487h3.667c1.96 0 3.551 1.548 3.649 3.487h0.019zM17.833 21.5h7.107c0.539 0.003 0.897 0.172 1.203 0.609l0.857 1.224h-7.107c-0.539-0.001-0.897-0.171-1.203-0.608l-0.857-1.225zM17.833 12.792h7.107c0.539 0.003 0.897 0.172 1.203 0.609l0.857 1.224h-7.107c-0.539-0.001-0.897-0.171-1.203-0.608l-0.857-1.225zM17.833 9.125h7.107c0.539 0.003 0.897 0.172 1.203 0.609l0.857 1.224h-7.107c-0.539-0.001-0.897-0.171-1.203-0.608l-0.857-1.225z"></path>
</svg>
