<!-- Generated by IcoMoon.io -->
<svg version="1.1" xmlns="http://www.w3.org/2000/svg" width="24" height="24" viewBox="0 0 24 24">
<title>users</title>
<path d="M18.875 19.719v3.281l-0.897-0.629c-0.33-0.23-0.478-0.513-0.478-0.915v-1.737c0-1.982-1.542-3.594-3.438-3.594h-8.25c-1.896 0-3.438 1.611-3.438 3.594v1.831c-0.025 0.348-0.156 0.612-0.457 0.821l-0.917 0.629v-3.281c0-2.74 2.159-4.969 4.812-4.969h8.25c2.654 0 4.813 2.229 4.813 4.969zM4.438 6.499c0-3.032 2.467-5.499 5.5-5.499s5.5 2.467 5.5 5.499c0 3.033-2.467 5.501-5.5 5.501s-5.5-2.468-5.5-5.501zM5.812 6.499c0 2.279 1.847 4.126 4.125 4.126 2.277 0 4.125-1.847 4.125-4.126 0-2.277-1.848-4.124-4.125-4.124s-4.125 1.847-4.125 4.124zM20.604 15.453c-0.398-0.223-0.701-0.384-0.905-0.424l0.096 1.109c0.026 0.303 0.15 0.523 0.351 0.699 0.832 0.656 1.479 1.689 1.479 2.881v1.896c0.039 0.312 0.163 0.562 0.442 0.757l0.933 0.629v-3.281c0-2.032-0.994-3.48-2.396-4.266zM15.813 1.325c-0.062-0.025-0.123-0.055-0.186-0.078l0.115 1.041c0.036 0.323 0.172 0.557 0.403 0.731 1.176 0.756 2.042 1.977 2.042 3.479 0 1.529-0.846 2.837-2.084 3.54-0.191 0.162-0.323 0.361-0.367 0.647l-0.16 1.059c0.013-0.004 0.027-0.006 0.041-0.009l0.001 0.002c0.002-0.002 0.005-0.003 0.007-0.003 0.058-0.015 0.111-0.033 0.161-0.062 2.184-0.724 3.776-2.749 3.776-5.175 0-2.414-1.482-4.229-3.749-5.172z"></path>
</svg>
