<!-- Generated by IcoMoon.io -->
<svg version="1.1" xmlns="http://www.w3.org/2000/svg" width="24" height="24" viewBox="0 0 24 24">
<title>user_id</title>
<path d="M21 4.094h-18c-1.102 0-2 0.888-2 1.977v11.859c0 1.089 0.898 1.977 2 1.977h18c1.102 0 2-0.888 2-1.977v-11.86c0-1.089-0.898-1.976-2-1.976zM21.625 17.93c0 0.325-0.288 0.602-0.625 0.602h-18c-0.337 0-0.625-0.276-0.625-0.602v-11.86c0-0.325 0.288-0.602 0.625-0.602h18c0.337 0 0.625 0.276 0.625 0.602v11.86zM7.942 6.844c-1.325 0-2.406 1.078-2.406 2.406s1.081 2.406 2.406 2.406c1.328 0 2.406-1.078 2.406-2.406s-1.077-2.406-2.406-2.406zM7.942 10.281c-0.569 0-1.031-0.465-1.031-1.031s0.462-1.031 1.031-1.031 1.032 0.465 1.032 1.031-0.462 1.031-1.032 1.031zM12 15.646v1.51l-0.898-0.627c-0.274-0.193-0.399-0.443-0.438-0.748h-0.039c0-0.758-0.615-1.375-1.375-1.375h-2.75c-0.76 0-1.375 0.617-1.375 1.375h-0.021c-0.041 0.306-0.161 0.556-0.435 0.748l-0.92 0.627 0.013-1.51c0.074-1.454 1.267-2.615 2.737-2.615h2.75c1.47 0 2.663 1.161 2.737 2.615h0.014zM13.375 16.125h5.33c0.404 0.002 0.673 0.129 0.902 0.457l0.643 0.918h-5.33c-0.404-0.001-0.673-0.128-0.902-0.456l-0.643-0.919zM13.375 9.594h5.33c0.404 0.002 0.673 0.129 0.902 0.457l0.643 0.918h-5.33c-0.404-0.001-0.673-0.128-0.902-0.456l-0.643-0.919zM13.375 6.844h5.33c0.404 0.002 0.673 0.129 0.902 0.457l0.643 0.918h-5.33c-0.404-0.001-0.673-0.128-0.902-0.456l-0.643-0.919z"></path>
</svg>
