<!-- Generated by IcoMoon.io -->
<svg version="1.1" xmlns="http://www.w3.org/2000/svg" width="24" height="24" viewBox="0 0 24 24">
<title>user_id</title>
<path fill="#444" d="M20.679 4.375h-17.359c-1.065 0-1.929 0.858-1.929 1.907v11.438c0 1.048 0.865 1.907 1.929 1.907h17.359c1.065 0 1.929-0.858 1.929-1.907v-11.438c0-1.049-0.865-1.907-1.929-1.907zM21.283 17.718c0 0.314-0.276 0.581-0.603 0.581h-17.359c-0.328 0-0.603-0.265-0.603-0.581v-11.436c0-0.316 0.276-0.581 0.603-0.581h17.359c0.328 0 0.603 0.265 0.603 0.581v11.436zM8.088 7.027c-1.28 0-2.321 1.041-2.321 2.321s1.041 2.321 2.321 2.321 2.321-1.041 2.321-2.321-1.041-2.321-2.321-2.321zM8.088 10.342c-0.549 0-0.995-0.446-0.995-0.995s0.446-0.995 0.995-0.995 0.995 0.446 0.995 0.995-0.446 0.995-0.995 0.995zM12 15.514v1.459l-0.865-0.606c-0.267-0.187-0.386-0.424-0.424-0.72h-0.037c0-0.733-0.594-1.326-1.326-1.326h-2.652c-0.732 0-1.326 0.593-1.326 1.326h-0.020c-0.038 0.297-0.155 0.534-0.42 0.72l-0.886 0.606 0.013-1.459c0.070-1.399 1.221-2.52 2.639-2.52h2.652c1.418 0 2.569 1.121 2.639 2.52h0.013zM13.326 15.978h5.141c0.389 0.003 0.647 0.125 0.87 0.443l0.619 0.883h-5.141c-0.389-0.001-0.647-0.123-0.87-0.442l-0.619-0.885zM13.326 9.679h5.141c0.389 0.003 0.647 0.125 0.87 0.443l0.619 0.883h-5.141c-0.389-0.001-0.647-0.123-0.87-0.442l-0.619-0.885zM13.326 7.027h5.141c0.389 0.003 0.647 0.125 0.87 0.443l0.619 0.883h-5.141c-0.389-0.001-0.647-0.123-0.87-0.442l-0.619-0.885z"></path>
</svg>
