<!-- Generated by IcoMoon.io -->
<svg version="1.1" xmlns="http://www.w3.org/2000/svg" width="32" height="32" viewBox="0 0 32 32">
<path d="M25.167 26.292v4.375l-1.196-0.839c-0.44-0.307-0.637-0.684-0.637-1.22v-2.316c0-2.643-2.056-4.792-4.584-4.792h-11c-2.528 0-4.584 2.148-4.584 4.792v2.441c-0.033 0.464-0.208 0.816-0.609 1.095l-1.223 0.839v-4.375c0-3.653 2.879-6.625 6.416-6.625h11c3.539 0 6.417 2.972 6.417 6.625zM5.917 8.665c0-4.043 3.289-7.332 7.333-7.332s7.333 3.289 7.333 7.332c0 4.044-3.289 7.335-7.333 7.335s-7.333-3.291-7.333-7.335zM7.749 8.665c0 3.039 2.463 5.501 5.5 5.501 3.036 0 5.5-2.463 5.5-5.501 0-3.036-2.464-5.499-5.5-5.499s-5.5 2.463-5.5 5.499zM27.472 20.604c-0.531-0.297-0.935-0.512-1.207-0.565l0.128 1.479c0.035 0.404 0.2 0.697 0.468 0.932 1.109 0.875 1.972 2.252 1.972 3.841v2.528c0.052 0.416 0.217 0.749 0.589 1.009l1.244 0.839v-4.375c0-2.709-1.325-4.64-3.195-5.688zM21.084 1.767c-0.083-0.033-0.164-0.073-0.248-0.104l0.153 1.388c0.048 0.431 0.229 0.743 0.537 0.975 1.568 1.008 2.723 2.636 2.723 4.639 0 2.039-1.128 3.783-2.779 4.72-0.255 0.216-0.431 0.481-0.489 0.863l-0.213 1.412c0.017-0.005 0.036-0.008 0.055-0.012l0.001 0.003c0.003-0.003 0.007-0.004 0.009-0.004 0.077-0.020 0.148-0.044 0.215-0.083 2.912-0.965 5.035-3.665 5.035-6.9 0-3.219-1.976-5.639-4.999-6.896z"></path>
</svg>
