<!-- Generated by IcoMoon.io -->
<svg version="1.1" xmlns="http://www.w3.org/2000/svg" width="32" height="32" viewBox="0 0 32 32">
<path d="M29.535 6.972c-0.228-0.095-0.467-0.139-0.703-0.139-0.477 0-0.945 0.187-1.297 0.536l-1.299 1.297h-6.552v-1.833h-13.763c-2.531 0-4.588 2.053-4.588 4.583v13.749h13.764c2.529 0 4.588-2.053 4.588-4.584v-2.728c0.304-0.001 6.553-0.019 6.553-0.019l1.296 1.296c0.351 0.351 0.819 0.536 1.297 0.536 0.236 0 0.475-0.044 0.703-0.139 0.687-0.283 1.132-0.953 1.132-1.695v-9.167c0-0.741-0.445-1.412-1.132-1.695zM15.097 23.333h-11.929v-11.917c0-1.517 1.235-2.749 2.753-2.749h11.928v1.692c-0.004 0.048-0.004 5.756 0 5.805v4.42c0 1.516-1.235 2.749-2.752 2.749zM28.845 17.833l-1.849-1.833-7.311 0.020v-5.52h7.311l1.849-1.833v9.167z"></path>
</svg>
