<!-- Generated by IcoMoon.io -->
<svg version="1.1" xmlns="http://www.w3.org/2000/svg" width="24" height="24" viewBox="0 0 24 24">
<title>video_camera</title>
<path fill="#444" d="M22.335 5.106c-0.174-0.073-0.356-0.106-0.536-0.106-0.365 0-0.722 0.143-0.991 0.41l-0.991 0.99h-5.002v-1.4h-10.51c-1.932 0-3.504 1.568-3.504 3.5v10.5h10.51c1.932 0 3.503-1.568 3.503-3.5v-2.085c0.232-0.001 5.005-0.014 5.005-0.014l0.99 0.988c0.269 0.267 0.626 0.41 0.991 0.41 0.181 0 0.363-0.034 0.536-0.106 0.525-0.216 0.865-0.728 0.865-1.294v-7c0-0.566-0.34-1.078-0.865-1.294zM11.31 17.6h-9.108v-9.1c0-1.158 0.944-2.1 2.103-2.1h9.108v1.292c-0.003 0.036-0.003 4.396 0 4.432v3.375c0 1.158-0.944 2.1-2.103 2.1zM21.81 13.4l-1.413-1.4-5.583 0.015v-4.215h5.583l1.413-1.4v7z"></path>
</svg>
