<!-- Generated by IcoMoon.io -->
<svg version="1.1" xmlns="http://www.w3.org/2000/svg" width="32" height="32" viewBox="0 0 32 32">
<path d="M29.431 7.241l-0.355-1.923c-0.26-1.416-1.649-2.375-3.097-2.104l-19.807 3.612h-2.172c-1.469 0-2.667 1.185-2.667 2.633v16.741c0 1.452 1.197 2.633 2.667 2.633h24c1.469 0 2.667-1.181 2.667-2.633v-16.741c0-0.932-0.497-1.745-1.236-2.219zM26.308 5.007c0.445-0.073 0.888 0.215 0.964 0.644l0.191 1.176h-11.103l9.948-1.82zM4 8.659h24c0.449 0 0.833 0.361 0.833 0.801v1.177c-0.263-0.085-0.541-0.147-0.833-0.147h-24c-0.292 0-0.571 0.061-0.833 0.145v-1.176c0-0.44 0.384-0.801 0.833-0.801zM28.833 15.103v11.097c0 0.433-0.384 0.803-0.833 0.803h-24c-0.449 0-0.833-0.368-0.833-0.803v-13.084c0-0.432 0.384-0.793 0.833-0.793h24c0.449 0 0.833 0.361 0.833 0.793v1.987z"></path>
</svg>
