<!-- Generated by IcoMoon.io -->
<svg version="1.1" xmlns="http://www.w3.org/2000/svg" width="24" height="24" viewBox="0 0 24 24">
<title>wallet</title>
<path fill="#444" d="M21.941 5.52l-0.261-1.425c-0.194-1.052-1.221-1.757-2.294-1.561l-14.663 2.675h-1.607c-1.090 0-1.975 0.881-1.975 1.949v12.393c0 1.072 0.885 1.949 1.975 1.949h17.765c1.090 0 1.975-0.877 1.975-1.949v-12.393c0-0.685-0.368-1.292-0.916-1.638zM19.63 3.865c0.33-0.058 0.657 0.155 0.714 0.474l0.143 0.871h-8.219l7.362-1.345zM3.118 6.565h17.765c0.335 0 0.617 0.271 0.617 0.593v0.873c-0.195-0.062-0.4-0.109-0.617-0.109h-17.765c-0.217 0-0.422 0.046-0.617 0.109v-0.873c0-0.322 0.282-0.593 0.617-0.593zM21.5 11.335v8.216c0 0.322-0.282 0.594-0.617 0.594h-17.765c-0.335 0-0.617-0.271-0.617-0.594v-9.682c0-0.32 0.282-0.593 0.617-0.593h17.765c0.335 0 0.617 0.271 0.617 0.593v1.466z"></path>
</svg>
