<!-- Generated by IcoMoon.io -->
<svg version="1.1" xmlns="http://www.w3.org/2000/svg" width="32" height="32" viewBox="0 0 32 32">
<title>warning</title>
<path d="M30.292 24.125l-11.891-18.987c-0.804-1.267-2.531-1.676-3.856-0.907-0.385 0.223-0.712 0.533-0.944 0.907l-11.891 18.987c-0.776 1.285-0.315 2.928 1.027 3.669 0.417 0.229 0.891 0.356 1.372 0.361h23.783c1.549-0.019 2.792-1.232 2.775-2.713-0.004-0.463-0.133-0.916-0.375-1.317zM15.084 10.74c0-1.052 0.821-1.905 1.833-1.905v9.621c0 1.057-0.821 1.909-1.833 1.909v-9.625zM16 24.905c-0.76 0-1.375-0.616-1.375-1.375s0.615-1.376 1.375-1.376c0.759 0 1.375 0.616 1.375 1.375s-0.615 1.376-1.375 1.376z"></path>
</svg>
