<!-- Generated by IcoMoon.io -->
<svg version="1.1" xmlns="http://www.w3.org/2000/svg" width="24" height="24" viewBox="0 0 24 24">
<title>warning</title>
<path fill="#444" d="M12 19.285c-0.623 0-1.125-0.504-1.125-1.125s0.502-1.125 1.125-1.125c0.621 0 1.125 0.504 1.125 1.125s-0.503 1.125-1.125 1.125zM12.75 14.010c0 0.864-0.672 1.562-1.5 1.562v-7.875c0-0.861 0.672-1.558 1.5-1.558v7.872zM23.692 18.648l-9.728-15.534c-0.657-1.036-2.072-1.371-3.155-0.741-0.315 0.182-0.582 0.437-0.772 0.741l-9.729 15.534c-0.634 1.052-0.258 2.397 0.84 3.003 0.342 0.188 0.729 0.289 1.124 0.295h19.459c1.268-0.015 2.285-1.008 2.269-2.22-0.005-0.38-0.11-0.752-0.309-1.079zM22.309 20.201c-0.152 0.156-0.36 0.24-0.59 0.246h-19.448c-0.129-0.003-0.275-0.040-0.402-0.111-0.174-0.096-0.3-0.249-0.348-0.43-0.032-0.114-0.044-0.29 0.072-0.48l9.716-15.514c0.058-0.093 0.147-0.178 0.25-0.237 0.135-0.079 0.285-0.12 0.438-0.12 0.289 0 0.559 0.141 0.7 0.363l9.723 15.528c0.047 0.077 0.078 0.184 0.078 0.293 0.003 0.221-0.102 0.372-0.191 0.463z"></path>
</svg>
