<!-- Generated by IcoMoon.io -->
<svg version="1.1" xmlns="http://www.w3.org/2000/svg" width="24" height="24" viewBox="0 0 24 24">
<title>warning</title>
<path d="M22.719 18.094l-8.918-14.24c-0.603-0.95-1.898-1.257-2.892-0.68-0.289 0.167-0.534 0.4-0.708 0.68l-8.918 14.24c-0.582 0.964-0.236 2.196 0.77 2.752 0.313 0.172 0.668 0.267 1.029 0.271h17.837c1.162-0.014 2.094-0.924 2.081-2.035-0.003-0.347-0.1-0.687-0.281-0.988zM11.313 8.055c0-0.789 0.616-1.429 1.375-1.429v7.216c0 0.793-0.616 1.432-1.375 1.432v-7.219zM12 18.679c-0.57 0-1.031-0.462-1.031-1.031s0.461-1.032 1.031-1.032c0.569 0 1.031 0.462 1.031 1.031s-0.461 1.032-1.031 1.032z"></path>
</svg>
