<!-- Generated by IcoMoon.io -->
<svg version="1.1" xmlns="http://www.w3.org/2000/svg" width="24" height="24" viewBox="0 0 24 24">
<title>water</title>
<path d="M12 22.35c4.8 0 8.703-4.023 8.703-8.967 0-6.578-7.66-11.918-7.986-12.143-0.215-0.149-0.466-0.225-0.717-0.225s-0.502 0.077-0.718 0.225c-0.326 0.225-7.986 5.565-7.986 12.143 0.001 4.944 3.904 8.967 8.704 8.967zM12 2.348c0 0 7.41 5.091 7.41 11.035 0 4.215-3.318 7.633-7.41 7.633-4.093 0-7.41-3.418-7.41-7.633 0-5.943 7.41-11.035 7.41-11.035zM13.772 18.354c-0.090-0.357 0.119-0.721 0.466-0.813 1.044-0.279 1.806-1.288 1.855-1.557 0.007-0.317 0.124-0.663 0.468-0.755 0.348-0.093 0.706 0.179 0.796 0.536 0.251 0.996-1.264 2.658-2.794 3.067-0.348 0.093-0.701-0.121-0.791-0.478zM18.092 13.395c0 0.403-0.317 0.73-0.709 0.73s-0.709-0.327-0.709-0.73c0-0.403 0.317-0.73 0.709-0.73s0.709 0.327 0.709 0.73z"></path>
</svg>
