<!-- Generated by IcoMoon.io -->
<svg version="1.1" xmlns="http://www.w3.org/2000/svg" width="32" height="32" viewBox="0 0 32 32">
<title>water</title>
<path d="M16 29.8c6.4 0 11.604-5.364 11.604-11.956 0-8.771-10.213-15.891-10.648-16.191-0.287-0.199-0.621-0.3-0.956-0.3s-0.669 0.103-0.957 0.3c-0.435 0.3-10.648 7.42-10.648 16.191 0.001 6.592 5.205 11.956 11.605 11.956zM16 3.131c0 0 9.88 6.788 9.88 14.713 0 5.62-4.424 10.177-9.88 10.177-5.457 0-9.88-4.557-9.88-10.177 0-7.924 9.88-14.713 9.88-14.713zM18.363 24.472c-0.12-0.476 0.159-0.961 0.621-1.084 1.392-0.372 2.408-1.717 2.473-2.076 0.009-0.423 0.165-0.884 0.624-1.007 0.464-0.124 0.941 0.239 1.061 0.715 0.335 1.328-1.685 3.544-3.725 4.089-0.464 0.124-0.935-0.161-1.055-0.637zM24.123 17.86c0 0.537-0.423 0.973-0.945 0.973s-0.945-0.436-0.945-0.973c0-0.537 0.423-0.973 0.945-0.973s0.945 0.436 0.945 0.973z"></path>
</svg>
