<!-- Generated by IcoMoon.io -->
<svg version="1.1" xmlns="http://www.w3.org/2000/svg" width="24" height="24" viewBox="0 0 24 24">
<title>wifi</title>
<path d="M12.695 19.549c0 0.383-0.316 0.688-0.695 0.7v0.004c-0.379-0.007-0.695-0.318-0.695-0.695 0-0.387 0.308-0.703 0.695-0.703v-0.003c0.387 0 0.695 0.31 0.695 0.697zM12 13.893c-1.344 0.001-2.687 0.408-3.835 1.22l0.934 0.594c0.227 0.128 0.438 0.139 0.653 0.099 0.711-0.338 1.477-0.512 2.248-0.513v-0.003c0.771 0.001 1.537 0.175 2.248 0.513 0.215 0.040 0.426 0.029 0.653-0.099l0.934-0.6c-1.148-0.806-2.491-1.213-3.835-1.214v0.003zM12 8.927v0.003c-2.629 0.007-5.254 0.905-7.4 2.691-0.013 0.015-0.021 0.032-0.033 0.042l1.048 0.45c0.306 0.109 0.56 0.065 0.819-0.065 1.69-1.115 3.62-1.706 5.565-1.718v-0.003c1.945 0.006 3.875 0.603 5.565 1.718 0.259 0.131 0.514 0.175 0.819 0.065l1.048-0.45c-0.012-0.016-0.020-0.027-0.033-0.042-2.144-1.787-4.769-2.684-7.398-2.691zM22.969 8.1c-3.127-2.755-7.048-4.132-10.969-4.132v0.003c-3.921 0-7.842 1.377-10.969 4.138-0.012 0.008-0.019 0.025-0.031 0.035l0.003-0.003 1.096 0.427c0.229 0.077 0.422 0.047 0.608-0.010 2.729-2.117 6.007-3.189 9.293-3.189v-0.003c3.286 0 6.564 1.072 9.292 3.183 0.186 0.062 0.379 0.087 0.608 0.016l1.096-0.427 0.004 0.003c-0.012-0.010-0.019-0.027-0.031-0.041z"></path>
</svg>
