<!-- Generated by IcoMoon.io -->
<svg version="1.1" xmlns="http://www.w3.org/2000/svg" width="24" height="24" viewBox="0 0 24 24">
<title>wifi_off</title>
<path fill="#444" d="M12.693 19.587c0 0.381-0.313 0.688-0.693 0.697v0.005c-0.379-0.010-0.693-0.316-0.693-0.698 0-0.386 0.306-0.701 0.693-0.701v-0.004c0.388 0.001 0.693 0.315 0.693 0.701zM2.051 1.007l-0.195 1.102c-0.059 0.331 0.030 0.577 0.218 0.818l0.462 0.51 2.239 2.239c-1.326 0.638-2.586 1.461-3.738 2.475-0.012 0.012-0.018 0.027-0.030 0.041l0.004-0.004 1.095 0.425c0.227 0.074 0.419 0.048 0.606-0.014 0.977-0.757 2.028-1.376 3.122-1.863l2.762 2.762c-1.425 0.441-2.784 1.161-3.991 2.168-0.014 0.012-0.021 0.029-0.033 0.041l1.046 0.449c0.308 0.11 0.561 0.066 0.82-0.066 1.039-0.684 2.171-1.145 3.339-1.414l3.36 3.36c-0.378-0.065-0.757-0.107-1.138-0.107v0.004c-1.344 0.001-2.686 0.408-3.833 1.218l0.933 0.599c0.228 0.128 0.437 0.135 0.653 0.095 0.71-0.335 1.477-0.51 2.247-0.511v-0.004c0.77 0.001 1.536 0.176 2.248 0.511 0.201 0.036 0.4 0.025 0.61-0.082l7.091 7.091 0.195-1.102c0.059-0.331-0.032-0.577-0.218-0.818l-19.875-19.921zM22.993 8.187l-0.004-0.004-1.095 0.425c-0.227 0.074-0.419 0.048-0.606-0.014-2.728-2.111-6.004-3.181-9.288-3.181v0.004c-0.808 0-1.612 0.093-2.41 0.228-0.041 0.008-0.080 0.026-0.122 0.027v0.005c-0.381-0.010-0.694-0.317-0.694-0.698 0-0.386 0.306-0.701 0.693-0.701v-0.036c0.841-0.132 1.685-0.225 2.534-0.225v-0.004c3.919 0 7.838 1.377 10.963 4.132 0.012 0.012 0.018 0.027 0.030 0.041zM19.427 11.702l-1.044 0.449c-0.308 0.11-0.561 0.066-0.82-0.066-0.951-0.627-2.009-1.142-3.071-1.426v0c-0.379-0.010-0.693-0.316-0.693-0.698 0-0.386 0.306-0.701 0.693-0.701v-0.003c0.121 0 0.228 0.038 0.326 0.092 1.638 0.412 3.207 1.169 4.579 2.311 0.014 0.012 0.019 0.027 0.032 0.041z"></path>
</svg>
