<!-- Generated by IcoMoon.io -->
<svg version="1.1" xmlns="http://www.w3.org/2000/svg" width="32" height="32" viewBox="0 0 32 32">
<path d="M16.927 26.151c0 0.503-0.421 0.917-0.927 0.925v0.005c-0.505-0.009-0.927-0.416-0.927-0.927 0-0.516 0.411-0.937 0.927-0.937v-0.004c0.516 0 0.927 0.423 0.927 0.937zM2.725 1.357l-0.259 1.475c-0.077 0.439 0.041 0.771 0.293 1.089l0.612 0.675 2.989 2.992c-1.772 0.847-3.452 1.949-4.987 3.301-0.016 0.020-0.025 0.033-0.041 0.055l0.004-0.004 1.461 0.569c0.305 0.095 0.563 0.063 0.811-0.021 1.305-1.008 2.707-1.835 4.168-2.488l3.684 3.688c-1.903 0.584-3.715 1.549-5.327 2.893-0.017 0.012-0.028 0.035-0.044 0.056l1.397 0.6c0.408 0.145 0.747 0.087 1.092-0.087 1.388-0.915 2.896-1.532 4.455-1.888l4.483 4.479c-0.501-0.087-1.007-0.143-1.517-0.143v0.004c-1.792 0.001-3.583 0.544-5.113 1.627l1.245 0.8c0.303 0.171 0.584 0.177 0.871 0.124 0.948-0.443 1.969-0.675 2.997-0.676v-0.012c1.028 0.001 2.049 0.241 2.997 0.684 0.269 0.051 0.536 0.031 0.815-0.111l9.463 9.467 0.259-1.475c0.077-0.439-0.043-0.771-0.295-1.089l-26.513-26.584zM30.667 10.94l-0.004-0.004-1.461 0.561c-0.305 0.103-0.563 0.071-0.811-0.013-3.639-2.821-8.009-4.243-12.391-4.243v0.004c-1.077 0-2.151 0.123-3.219 0.3-0.051 0.015-0.104 0.039-0.161 0.040v0.005c-0.505-0.016-0.923-0.424-0.923-0.935 0-0.516 0.407-0.929 0.921-0.929v-0.049c1.12-0.176 2.248-0.297 3.38-0.297v-0.012c5.228 0 10.456 1.844 14.625 5.517 0.017 0.012 0.027 0.033 0.043 0.055zM25.911 15.633l-1.397 0.592c-0.408 0.153-0.747 0.095-1.092-0.087-1.267-0.835-2.68-1.523-4.097-1.9v0c-0.505-0.017-0.927-0.424-0.927-0.935 0-0.516 0.411-0.929 0.927-0.929v-0.005c0.16 0 0.304 0.045 0.433 0.121 2.187 0.548 4.28 1.556 6.111 3.085 0.016 0.012 0.025 0.036 0.043 0.057z"></path>
</svg>
