<!-- Generated by IcoMoon.io -->
<svg version="1.1" xmlns="http://www.w3.org/2000/svg" width="24" height="24" viewBox="0 0 24 24">
<title>wind</title>
<path fill="#444" d="M9.095 5.090c-0.261-0.262-0.259-0.688 0.003-0.95 0.523-0.52 1.214-0.781 1.902-0.781 0.687 0 1.373 0.257 1.897 0.773 0.508 0.499 0.792 1.167 0.795 1.88 0.003 0.715-0.276 1.387-0.784 1.894-0.51 0.505-1.187 0.782-1.908 0.782-0.003 0-0.004 0-0.007 0l-9.748 0.012 0.628-0.898c0.188-0.269 0.421-0.376 0.717-0.413 0 0 8.408 0 8.408 0 0.366 0 0.707-0.186 0.963-0.438 0.251-0.249 0.389-0.581 0.387-0.933-0.001-0.351-0.141-0.679-0.393-0.926-0.263-0.261-0.609-0.391-0.955-0.391s-0.691 0.132-0.953 0.393c-0.132 0.13-0.304 0.196-0.475 0.196-0.173 0-0.346-0.066-0.477-0.199zM21.82 7.27c-0.622-0.614-1.44-0.922-2.257-0.922-0.815 0-1.631 0.307-2.253 0.918-0.265 0.261-0.268 0.687-0.007 0.95 0.132 0.134 0.305 0.2 0.479 0.2 0.171 0 0.34-0.065 0.472-0.194 0.362-0.356 0.836-0.534 1.309-0.534 0.475 0 0.949 0.179 1.311 0.534 0.347 0.346 0.538 0.803 0.536 1.288 0 0.483-0.192 0.937-0.539 1.279-0.35 0.346-0.812 0.534-1.305 0.535l-16.304 0.022-0.672 0.034c-0.296 0.035-0.528 0.144-0.717 0.413l-0.628 0.898 18.323-0.019c0.848-0.001 1.647-0.329 2.247-0.922 0.605-0.596 0.94-1.389 0.941-2.234 0.001-0.847-0.331-1.643-0.936-2.245zM15.932 16.095c-0.5-0.497-1.195-0.764-1.906-0.764-0.001 0-11.441 0-11.441 0-0.293 0.035-0.524 0.143-0.713 0.411l-0.628 0.897c0 0 12.779 0 12.78 0 0.36 0 0.71 0.16 0.959 0.409 0.253 0.251 0.391 0.585 0.389 0.936-0.001 0.35-0.141 0.678-0.395 0.926-0.263 0.258-0.608 0.389-0.952 0.389-0.346 0-0.691-0.132-0.953-0.393-0.132-0.13-0.304-0.196-0.475-0.196-0.172 0-0.346 0.066-0.476 0.198-0.262 0.262-0.261 0.688 0.001 0.95 0.524 0.522 1.214 0.782 1.904 0.782 0.686 0 1.371-0.258 1.893-0.773 0.511-0.499 0.795-1.167 0.797-1.878 0.004-0.714-0.274-1.386-0.784-1.894z"></path>
</svg>
