<!-- Generated by IcoMoon.io -->
<svg version="1.1" xmlns="http://www.w3.org/2000/svg" width="24" height="24" viewBox="0 0 24 24">
<title>wind</title>
<path d="M9.029 4.933c-0.268-0.269-0.266-0.705 0.003-0.972 0.535-0.533 1.241-0.799 1.946-0.799 0.702 0 1.404 0.263 1.939 0.79 0.521 0.511 0.81 1.194 0.813 1.923 0.003 0.73-0.282 1.418-0.801 1.937-0.522 0.518-1.214 0.801-1.952 0.801-0.002 0-0.004 0-0.006 0l-9.971 0.011 0.642-0.918c0.193-0.275 0.431-0.386 0.733-0.422 0 0 8.599 0 8.6 0 0.375 0 0.723-0.189 0.984-0.448 0.256-0.256 0.397-0.596 0.396-0.955-0.001-0.358-0.144-0.694-0.402-0.946-0.27-0.268-0.623-0.4-0.977-0.4s-0.707 0.134-0.975 0.401c-0.134 0.133-0.31 0.2-0.485 0.2-0.176 0-0.352-0.068-0.487-0.203zM22.043 7.163c-0.637-0.628-1.473-0.942-2.309-0.942-0.833 0-1.668 0.312-2.304 0.938-0.271 0.268-0.273 0.702-0.006 0.972 0.134 0.138 0.312 0.206 0.489 0.206 0.174 0 0.349-0.066 0.483-0.197 0.369-0.364 0.854-0.547 1.339-0.547s0.971 0.183 1.34 0.547c0.355 0.353 0.551 0.82 0.549 1.317 0 0.494-0.197 0.958-0.552 1.308-0.357 0.353-0.832 0.546-1.335 0.548l-16.675 0.018-0.688 0.035c-0.302 0.036-0.54 0.146-0.733 0.422l-0.641 0.918 18.74-0.019c0.867-0.002 1.684-0.337 2.298-0.942 0.619-0.61 0.96-1.421 0.962-2.286s-0.338-1.681-0.957-2.296zM16.021 16.188c-0.512-0.509-1.223-0.781-1.95-0.781-0.002 0-11.702 0-11.702 0-0.299 0.036-0.536 0.146-0.728 0.421l-0.641 0.917c0 0 13.069 0 13.070 0 0.368 0 0.726 0.164 0.981 0.418 0.259 0.256 0.399 0.598 0.397 0.957-0.001 0.357-0.144 0.693-0.404 0.948-0.27 0.265-0.621 0.397-0.973 0.397-0.354 0-0.707-0.135-0.975-0.401-0.134-0.133-0.311-0.2-0.485-0.2-0.177 0-0.354 0.067-0.488 0.202-0.268 0.269-0.267 0.704 0.002 0.973 0.536 0.533 1.242 0.8 1.947 0.8 0.701 0 1.402-0.264 1.936-0.79 0.522-0.511 0.812-1.194 0.815-1.922 0.005-0.731-0.281-1.419-0.802-1.939z"></path>
</svg>
