<!-- Generated by IcoMoon.io -->
<svg version="1.1" xmlns="http://www.w3.org/2000/svg" width="32" height="32" viewBox="0 0 32 32">
<title>wind</title>
<path d="M12.039 6.577c-0.357-0.359-0.355-0.94 0.004-1.296 0.713-0.711 1.655-1.065 2.595-1.065 0.936 0 1.872 0.351 2.585 1.053 0.695 0.681 1.080 1.592 1.084 2.564 0.004 0.973-0.376 1.891-1.068 2.583-0.696 0.691-1.619 1.068-2.603 1.068-0.003 0-0.005 0-0.008 0l-13.295 0.015 0.856-1.224c0.257-0.367 0.575-0.515 0.977-0.563 0 0 11.465 0 11.467 0 0.5 0 0.964-0.252 1.312-0.597 0.341-0.341 0.529-0.795 0.528-1.273-0.001-0.477-0.192-0.925-0.536-1.261-0.36-0.357-0.831-0.533-1.303-0.533s-0.943 0.179-1.3 0.535c-0.179 0.177-0.413 0.267-0.647 0.267-0.235 0-0.469-0.091-0.649-0.271zM29.391 9.551c-0.849-0.837-1.964-1.256-3.079-1.256-1.111 0-2.224 0.416-3.072 1.251-0.361 0.357-0.364 0.936-0.008 1.296 0.179 0.184 0.416 0.275 0.652 0.275 0.232 0 0.465-0.088 0.644-0.263 0.492-0.485 1.139-0.729 1.785-0.729s1.295 0.244 1.787 0.729c0.473 0.471 0.735 1.093 0.732 1.756 0 0.659-0.263 1.277-0.736 1.744-0.476 0.471-1.109 0.728-1.78 0.731l-22.233 0.024-0.917 0.047c-0.403 0.048-0.72 0.195-0.977 0.563l-0.855 1.224 24.987-0.025c1.156-0.003 2.245-0.449 3.064-1.256 0.825-0.813 1.28-1.895 1.283-3.048 0.003-1.155-0.451-2.241-1.276-3.061zM21.361 21.584c-0.683-0.679-1.631-1.041-2.6-1.041-0.003 0-15.603 0-15.603 0-0.399 0.048-0.715 0.195-0.971 0.561l-0.855 1.223c0 0 17.425 0 17.427 0 0.491 0 0.968 0.219 1.308 0.557 0.345 0.341 0.532 0.797 0.529 1.276-0.001 0.476-0.192 0.924-0.539 1.264-0.36 0.353-0.828 0.529-1.297 0.529-0.472 0-0.943-0.18-1.3-0.535-0.179-0.177-0.415-0.267-0.647-0.267-0.236 0-0.472 0.089-0.651 0.269-0.357 0.359-0.356 0.939 0.003 1.297 0.715 0.711 1.656 1.067 2.596 1.067 0.935 0 1.869-0.352 2.581-1.053 0.696-0.681 1.083-1.592 1.087-2.563 0.007-0.975-0.375-1.892-1.069-2.585z"></path>
</svg>
