<!-- Generated by IcoMoon.io -->
<svg version="1.1" xmlns="http://www.w3.org/2000/svg" width="32" height="32" viewBox="0 0 32 32">
<title>workstation</title>
<path d="M2.977 1.333c-0.907 0-1.644 0.737-1.644 1.643v27.691h11.093c0.908 0 1.74-0.735 1.74-1.643v-27.691h-11.189zM12.333 28.099c0 0.647-0.091 0.735-0.733 0.735h-8.433v-24.932c0-0.643 0.091-0.735 0.733-0.735h8.433v24.932zM11.508 6.805l-0.856 1.223c-0.308 0.44-0.667 0.609-1.203 0.611h-3.399c-0.537-0.001-0.895-0.171-1.203-0.611l-0.856-1.223h7.516zM11.508 10.472l-0.856 1.223c-0.308 0.44-0.667 0.609-1.203 0.611h-3.399c-0.537-0.001-0.895-0.171-1.203-0.611l-0.856-1.223h7.516zM11.508 14.139l-0.856 1.223c-0.308 0.44-0.667 0.609-1.203 0.611h-3.399c-0.537-0.001-0.895-0.171-1.203-0.611l-0.856-1.223h7.516zM30.667 8.667v15.325c0 0.607-0.473 1.175-1.084 1.175h-11.749v1.817h4.099c0.387 0.057 0.695 0.244 0.947 0.599l0.847 1.211h-6.755c-0.019 0.001-0.035 0.011-0.053 0.011-0.507 0-0.917-0.411-0.917-0.917v-3.58h0.012c-0.003-0.019-0.012-0.037-0.012-0.056 0-0.507 0.411-0.917 0.917-0.917 0.003 0 0.004 0.001 0.007 0.001 0.001 0 0.001-0.001 0.001-0.001h11.635c0.145-0.043 0.255-0.151 0.273-0.305v-14.117c-0.028-0.116-0.103-0.196-0.212-0.244h-11.648c-0.008 0-0.015-0.004-0.021-0.008-0.012 0-0.024 0.008-0.036 0.008-0.505 0-0.916-0.411-0.916-0.917s0.411-0.917 0.917-0.917h11.917c1.288 0.001 1.832 0.689 1.832 1.835z"></path>
</svg>
