<!-- Generated by IcoMoon.io -->
<svg version="1.1" xmlns="http://www.w3.org/2000/svg" width="25" height="24" viewBox="0 0 25 24">
<title>work_art</title>
<path d="M15.609 3.448l-1.655-2.299-0.529-0.759c-0.057-0.070-0.121-0.131-0.192-0.182l-0.003-0.002c-0.117-0.1-0.261-0.173-0.419-0.206l-0.006-0.001h-0.529c-0.153 0.021-0.289 0.079-0.405 0.163l0.003-0.002c-0.085 0.058-0.157 0.126-0.217 0.205l-0.002 0.002-2.184 3.080h-9.437v20.552h25.287v-20.552zM11.92 1.954c0.137 0.2 0.363 0.331 0.62 0.333h0c0.256-0.009 0.48-0.137 0.619-0.331l0.002-0.002 1.046 1.494h-3.333zM1.724 22.46h-0.207c0.003-0.031 0.004-0.067 0.004-0.103s-0.002-0.072-0.005-0.108l0 0.005v-17.034c0.003-0.031 0.004-0.067 0.004-0.103s-0.002-0.072-0.005-0.108l0 0.005h22.253c-0.003 0.031-0.004 0.067-0.004 0.103s0.002 0.072 0.005 0.108l-0-0.005v17.057c-0.003 0.031-0.004 0.067-0.004 0.103s0.002 0.072 0.005 0.108l-0-0.005h-0.207z"></path>
<path d="M2.954 6.897v13.793h19.379v-13.793zM20.609 8.391h0.207c-0.002 0.028-0.004 0.060-0.004 0.092s0.001 0.064 0.004 0.096l-0-0.004v2.437l-1.943-1.391-9.115 6.471-5.276-3.713v-3.805c0-0.069 0-0.138 0-0.207l0.149 0.023zM4.517 19.149c0-0.057 0-0.115 0-0.184v-4.655l3.897 2.724-3 2.092h-0.782zM8.184 19.149l10.207-7.207c0.142-0.114 0.324-0.183 0.523-0.183s0.381 0.069 0.525 0.184l-0.002-0.001 1.402 1v6.023c-0.003 0.031-0.004 0.067-0.004 0.103s0.002 0.072 0.005 0.108l-0-0.005h-0.207z"></path>
<path d="M9.23 13.793c0.020 0.001 0.044 0.001 0.069 0.001 1.308 0 2.368-1.060 2.368-2.368s-1.060-2.368-2.368-2.368c-1.291 0-2.341 1.034-2.367 2.318l-0 0.002c-0 0.014-0 0.030-0 0.047 0 1.284 1.021 2.329 2.296 2.367l0.004 0zM9.23 10.632c0.438 0 0.793 0.355 0.793 0.793s-0.355 0.793-0.793 0.793c-0.438 0-0.793-0.355-0.793-0.793v0c-0.001-0.014-0.001-0.030-0.001-0.046 0-0.438 0.355-0.793 0.793-0.793 0 0 0.001 0 0.001 0h-0z"></path>
</svg>
