<!-- Generated by IcoMoon.io -->
<svg version="1.1" xmlns="http://www.w3.org/2000/svg" width="32" height="32" viewBox="0 0 32 32">
<title>workman</title>
<path d="M25.036 7.656l-1.011-1.096c-0.365-0.395-0.744-0.513-1.275-0.441l-0.207 0.028c-1.032-2.8-3.704-4.813-6.859-4.813-3.869 0-7.015 3.021-7.281 6.821-0.32 0.116-0.577 0.293-0.759 0.645l-0.681 1.327 1.515-0.208c0.599 3.445 3.592 6.081 7.207 6.081 4.043 0 7.333-3.291 7.333-7.335 0-0.248-0.051-0.481-0.073-0.723l2.091-0.287zM15.685 3.167c2.227 0 4.136 1.331 5 3.236l-10.416 1.423c0.408-2.635 2.665-4.659 5.416-4.659zM15.685 14.167c-2.693 0-4.925-1.937-5.4-4.493l10.852-1.483c0.015 0.157 0.048 0.312 0.048 0.475 0 3.039-2.464 5.501-5.5 5.501zM17.833 19.667h-3.667c-3.537 0-6.416 2.972-6.416 6.625v4.375l1.224-0.839c0.4-0.279 0.576-0.632 0.609-1.095v-2.441c0-2.643 2.056-4.792 4.584-4.792h3.667l0.733 0.077c1.821 0.309 3.273 1.741 3.707 3.589h-2.381c-0.536 0.001-0.895 0.171-1.203 0.611l-0.856 1.223h4.584v1.608c0 0.536 0.197 0.913 0.637 1.22l1.195 0.839v-4.375c0-3.653-2.88-6.625-6.417-6.625z"></path>
</svg>
