<!-- Generated by IcoMoon.io -->
<svg version="1.1" xmlns="http://www.w3.org/2000/svg" width="24" height="24" viewBox="0 0 24 24">
<title>workman</title>
<path fill="#444" d="M18.777 5.742l-0.759-0.824c-0.274-0.296-0.557-0.384-0.956-0.33l-0.154 0.022c-0.774-2.101-2.779-3.611-5.145-3.611-2.901 0-5.261 2.265-5.462 5.116-0.239 0.087-0.432 0.22-0.568 0.484l-0.512 0.994 1.136-0.155c0.45 2.584 2.694 4.561 5.405 4.561 3.032 0 5.5-2.468 5.5-5.501 0-0.186-0.037-0.362-0.055-0.542l1.569-0.214zM11.764 2.375c1.671 0 3.102 0.998 3.751 2.427l-7.813 1.067c0.307-1.976 1.999-3.494 4.062-3.494zM11.764 10.625c-2.020 0-3.693-1.453-4.049-3.37l8.139-1.112c0.011 0.118 0.036 0.234 0.036 0.356 0 2.28-1.848 4.126-4.125 4.126zM13.375 14.75h-2.75c-2.654 0-4.813 2.229-4.813 4.968v3.282l0.919-0.628c0.3-0.209 0.432-0.474 0.457-0.822v-1.831c0-1.981 1.543-3.593 3.437-3.593h2.75l0.55 0.058c1.367 0.232 2.456 1.305 2.779 2.692h-1.785c-0.403 0.001-0.671 0.128-0.902 0.458l-0.642 0.917h3.437v1.206c0 0.403 0.147 0.685 0.477 0.916l0.898 0.628v-3.282c0-2.739-2.159-4.968-4.813-4.968z"></path>
</svg>
