<!-- Generated by IcoMoon.io -->
<svg version="1.1" xmlns="http://www.w3.org/2000/svg" width="24" height="24" viewBox="0 0 24 24">
<title>workstation</title>
<path fill="#444" d="M2.233 1c-0.681 0-1.233 0.553-1.233 1.232v20.768h8.32c0.681 0 1.305-0.55 1.305-1.232v-20.768h-8.392zM9.25 21.075c0 0.484-0.067 0.55-0.55 0.55h-6.325v-18.7c0-0.481 0.069-0.55 0.55-0.55h6.325v18.7zM8.631 5.103l-0.642 0.917c-0.231 0.331-0.499 0.457-0.902 0.458h-2.549c-0.403-0.001-0.671-0.127-0.902-0.458l-0.642-0.917h5.638zM8.631 7.853l-0.642 0.917c-0.231 0.331-0.499 0.457-0.902 0.458h-2.549c-0.403-0.001-0.671-0.127-0.902-0.458l-0.642-0.917h5.638zM8.631 10.603l-0.642 0.917c-0.231 0.331-0.499 0.457-0.902 0.458h-2.549c-0.403-0.001-0.671-0.127-0.902-0.458l-0.642-0.917h5.638zM23 6.5v11.494c0 0.455-0.355 0.881-0.813 0.881h-8.812v1.363h3.074c0.29 0.043 0.521 0.183 0.71 0.45l0.635 0.907h-5.067c-0.014 0.001-0.026 0.008-0.040 0.008-0.38 0-0.688-0.308-0.688-0.688v-2.685h0.008c-0.001-0.014-0.008-0.028-0.008-0.043 0-0.38 0.308-0.688 0.688-0.688 0.001 0 0.003 0.001 0.005 0.001 0.001 0 0.001-0.001 0.001-0.001h8.726c0.11-0.032 0.191-0.113 0.205-0.23v-10.588c-0.022-0.088-0.077-0.149-0.16-0.183h-8.735c-0.005 0-0.011-0.003-0.015-0.005-0.010 0-0.018 0.005-0.028 0.005-0.38 0-0.688-0.308-0.688-0.688s0.308-0.688 0.688-0.688h8.938c0.967 0 1.375 0.516 1.375 1.375z"></path>
</svg>
