<!-- Generated by IcoMoon.io -->
<svg version="1.1" xmlns="http://www.w3.org/2000/svg" width="24" height="24" viewBox="0 0 24 24">
<title>wrench</title>
<path fill="#444" d="M19.639 5.065c-0.202-0.451-0.632-0.759-1.125-0.804-0.044-0.005-0.087-0.007-0.129-0.007-0.446 0-0.868 0.216-1.126 0.587l-1.804 2.663c-0.245 0.342-0.36 0.371-0.667 0.371h-1.275l-0.437-1.203c-0.103-0.279-0.117-0.4 0.12-0.741l1.84-2.714c0.28-0.4 0.261-0.927 0.056-1.371-0.203-0.444-0.694-0.755-1.181-0.802-0.176-0.023-0.353-0.044-0.536-0.044-3.791 0-6.875 3.084-6.875 6.875 0 1.364 0.407 2.683 1.163 3.809l-6.414 9.152c-0.294 0.421-0.33 0.969-0.094 1.424 0.236 0.454 0.707 0.74 1.22 0.74h2.749c1.424 0 2.479-0.558 3.322-1.757l4.558-6.502c0.125 0.005 0.249 0.010 0.371 0.010 3.791 0 6.875-3.084 6.875-6.875 0-0.962-0.205-1.909-0.611-2.81zM13.375 13.375c-0.351 0-0.69-0.040-1.023-0.103l-5.034 7.182c-0.568 0.81-1.204 1.171-2.194 1.171h-2.749l7.003-9.992c-0.925-0.983-1.503-2.299-1.503-3.758 0-3.039 2.463-5.5 5.5-5.5 0.183 0 0.356 0.036 0.535 0.054l-1.841 2.714c-0.458 0.663-0.562 1.246-0.283 2.005l0.764 2.102h2.239c0.808 0.003 1.321-0.294 1.787-0.95l1.81-2.67c0.309 0.686 0.49 1.442 0.49 2.245 0 3.039-2.464 5.5-5.5 5.5z"></path>
</svg>
