<!-- Generated by IcoMoon.io -->
<svg version="1.1" xmlns="http://www.w3.org/2000/svg" width="32" height="32" viewBox="0 0 32 32">
<title>wrench</title>
<path d="M26.687 6.752c-0.271-0.601-0.843-1.012-1.5-1.073-0.057-0.007-0.115-0.008-0.172-0.008-0.595 0-1.157 0.288-1.503 0.781l-2.407 3.551c-0.324 0.459-0.479 0.496-0.888 0.496h-1.7l-0.583-1.604c-0.139-0.372-0.155-0.533 0.16-0.988l2.453-3.619c0.373-0.533 0.348-1.236 0.075-1.828-0.272-0.592-0.925-1.005-1.575-1.069-0.235-0.029-0.471-0.057-0.715-0.057-5.055 0-9.167 4.112-9.167 9.167 0 1.819 0.544 3.577 1.552 5.079l-8.553 12.203c-0.392 0.56-0.44 1.292-0.125 1.899 0.316 0.605 0.943 0.987 1.627 0.987h3.665c1.899 0 3.305-0.745 4.428-2.344l6.077-8.671c0.167 0.009 0.332 0.015 0.496 0.015 5.055 0 9.167-4.112 9.167-9.167 0-1.284-0.275-2.544-0.813-3.748zM18.333 17.833c-0.468 0-0.92-0.053-1.363-0.139l-6.711 9.576c-0.759 1.081-1.608 1.563-2.928 1.563h-3.665l9.336-13.321c-1.232-1.313-2.003-3.068-2.003-5.012 0-4.052 3.283-7.333 7.333-7.333 0.244 0 0.475 0.048 0.713 0.072l-2.453 3.619c-0.611 0.884-0.751 1.661-0.379 2.673l1.019 2.804h2.984c1.079 0.004 1.761-0.392 2.384-1.268l2.413-3.56c0.412 0.917 0.652 1.924 0.652 2.995 0 4.051-3.284 7.332-7.333 7.332z"></path>
</svg>
