<!-- Generated by IcoMoon.io -->
<svg version="1.1" xmlns="http://www.w3.org/2000/svg" width="32" height="32" viewBox="0 0 32 32">
<title>zap</title>
<path d="M26.3 5.7c-2.7-2.7-6.4-4.2-10.2-4.2-8 0-14.4 6.5-14.5 14.5 0 2.5 0.7 5 1.9 7.2l-2.1 7.5 7.7-2c2.1 1.2 4.5 1.8 6.9 1.8v0c8 0 14.4-6.5 14.5-14.5 0-4-1.5-7.6-4.2-10.3zM16.1 27.9v0c-2.2 0-4.3-0.6-6.1-1.7l-0.5-0.2-4.5 1.1 1.2-4.4-0.3-0.5c-1.2-1.9-1.9-4.1-1.9-6.3 0-6.6 5.4-12 12-12 3.2 0 6.2 1.3 8.5 3.5s3.5 5.3 3.5 8.5c0.1 6.6-5.3 12-11.9 12zM22.6 18.9c-0.4-0.2-2.1-1.1-2.5-1.2-0.3-0.1-0.6-0.2-0.8 0.2s-0.9 1.2-1.1 1.4c-0.2 0.2-0.4 0.3-0.8 0.1s-1.5-0.6-2.9-1.8c-1.1-1-1.8-2.1-2-2.5s0-0.5 0.2-0.7c0.4-0.5 0.8-1 0.9-1.2s0.1-0.5 0-0.6c-0.1-0.2-0.8-2-1.1-2.7s-0.6-0.6-0.8-0.6c-0.2 0-0.5 0-0.7 0s-0.6 0.1-1 0.5c-0.3 0.4-1.3 1.2-1.3 3s1.3 3.5 1.5 3.7c0.2 0.2 2.5 3.9 6.2 5.5 0.9 0.4 1.5 0.6 2.1 0.8 0.9 0.3 1.7 0.2 2.3 0.1 0.7-0.1 2.1-0.9 2.4-1.7s0.3-1.6 0.2-1.7c-0.1-0.3-0.4-0.4-0.8-0.6z"></path>
</svg>
