<!-- Generated by IcoMoon.io -->
<svg version="1.1" xmlns="http://www.w3.org/2000/svg" width="24" height="24" viewBox="0 0 24 24">
<title>zoom_money</title>
<path d="M18.267 17.591c1.828-1.758 2.971-4.22 2.971-6.948 0-5.318-4.325-9.643-9.642-9.643-5.316 0-9.643 4.325-9.643 9.643s4.326 9.643 9.643 9.643c2.093 0 4.024-0.675 5.606-1.811l2.852 4.070c0.227 0.315 0.504 0.455 0.895 0.455h1.098l-3.78-5.409zM11.596 18.908c-4.564 0-8.265-3.7-8.265-8.266s3.701-8.265 8.265-8.265c4.563 0 8.265 3.699 8.265 8.265s-3.702 8.266-8.265 8.266zM15.532 13.271c0 1.022-0.379 1.789-1.133 2.315-0.407 0.279-0.911 0.479-1.5 0.609-0.264 0.336-0.581 0.501-1.026 0.509l-1.319-0.008 0.243-0.345c-0.789-0.014-1.456-0.087-1.929-0.226-0.554-0.163-0.931-0.291-1.128-0.367 0.302-0.861 1.12-1.334 2.017-1.174 0.536 0.103 0.848 0.107 1.395 0.107 0.808 0 1.412-0.107 1.799-0.321 0.39-0.207 0.587-0.549 0.587-1.016 0-0.479-0.193-0.864-0.577-1.146-0.379-0.28-1.010-0.602-1.886-0.958-0.428-0.165-0.834-0.337-1.224-0.52-0.388-0.177-0.723-0.385-1.009-0.624-0.281-0.24-0.507-0.525-0.677-0.866-0.173-0.344-0.258-0.757-0.258-1.252 0-0.98 0.363-1.757 1.084-2.325 0.461-0.365 1.035-0.602 1.708-0.731l0.033-0.052c0.279-0.396 0.617-0.57 1.101-0.572l1.319 0.002-0.376 0.538c0.034 0.004 0.067 0.002 0.102 0.005 0.31 0.036 0.604 0.079 0.871 0.128 0.27 0.048 0.508 0.103 0.71 0.158 0.208 0.058 0.365 0.105 0.482 0.147-0.335 0.86-1.114 1.332-2.034 1.223-0.372-0.046-0.581-0.058-0.957-0.058-0.551 0-1.037 0.116-1.452 0.336-0.41 0.219-0.615 0.562-0.615 1.029 0 0.239 0.045 0.452 0.14 0.637 0.093 0.186 0.234 0.353 0.421 0.495 0.194 0.15 0.432 0.292 0.712 0.418 0.286 0.128 0.623 0.262 1.021 0.4 0.523 0.203 0.99 0.398 1.399 0.589 0.415 0.186 0.76 0.413 1.053 0.667 0.291 0.251 0.514 0.562 0.668 0.926 0.158 0.357 0.235 0.799 0.235 1.323z"></path>
</svg>
