<!-- Generated by IcoMoon.io -->
<svg version="1.1" xmlns="http://www.w3.org/2000/svg" width="24" height="24" viewBox="0 0 24 24">
<title>zoom_money</title>
<path fill="#444" d="M22.029 22.971l-3.788-5.411c1.825-1.752 2.966-4.213 2.966-6.935 0-5.308-4.318-9.625-9.625-9.625-5.306 0-9.625 4.318-9.625 9.625 0 5.309 4.319 9.626 9.625 9.626 2.089 0 4.018-0.677 5.596-1.808l2.846 4.064c0.227 0.312 0.502 0.455 0.894 0.455h1.096l0.029 0.037c-0.007-0.010-0.007-0.021-0.014-0.029zM11.582 18.876c-4.555 0-8.25-3.693-8.25-8.251 0-4.557 3.695-8.25 8.25-8.25s8.25 3.693 8.25 8.25c0 4.558-3.693 8.251-8.25 8.251zM15.512 13.251c0 1.016-0.378 1.786-1.132 2.307-0.406 0.279-0.908 0.481-1.495 0.61-0.265 0.333-0.58 0.502-1.026 0.505l-1.315-0.003 0.241-0.344c-0.788-0.019-1.455-0.087-1.926-0.23-0.55-0.158-0.927-0.286-1.125-0.367 0.302-0.859 1.118-1.331 2.016-1.169 0.535 0.1 0.846 0.107 1.391 0.107 0.807 0 1.409-0.107 1.797-0.319 0.389-0.212 0.584-0.551 0.584-1.015 0-0.481-0.193-0.865-0.573-1.147-0.38-0.28-1.008-0.601-1.884-0.953-0.426-0.169-0.83-0.341-1.221-0.52-0.392-0.176-0.726-0.382-1.011-0.623-0.282-0.242-0.507-0.529-0.676-0.869-0.172-0.342-0.256-0.756-0.256-1.251 0-0.975 0.362-1.75 1.081-2.321 0.459-0.364 1.034-0.599 1.704-0.729l0.033-0.047c0.278-0.399 0.616-0.573 1.1-0.576l1.315 0.003-0.375 0.536c0.034 0.005 0.069 0.003 0.103 0.007 0.309 0.033 0.602 0.077 0.869 0.128 0.269 0.049 0.507 0.1 0.71 0.16 0.208 0.055 0.364 0.104 0.481 0.146-0.335 0.859-1.112 1.33-2.032 1.22-0.37-0.047-0.58-0.055-0.954-0.055-0.55 0-1.037 0.111-1.449 0.331-0.408 0.22-0.613 0.561-0.613 1.027 0 0.239 0.045 0.451 0.14 0.639 0.091 0.183 0.232 0.348 0.422 0.495 0.194 0.149 0.43 0.287 0.712 0.413 0.283 0.128 0.622 0.261 1.019 0.404 0.52 0.199 0.987 0.393 1.396 0.583 0.412 0.191 0.758 0.414 1.051 0.665 0.29 0.256 0.513 0.562 0.667 0.924 0.154 0.36 0.232 0.799 0.232 1.325z"></path>
</svg>
