<!-- Generated by IcoMoon.io -->
<svg version="1.1" xmlns="http://www.w3.org/2000/svg" width="24" height="24" viewBox="0 0 24 24">
<title>zoom_in</title>
<path fill="#444" d="M22.029 22.971l-3.788-5.411c1.825-1.752 2.966-4.213 2.966-6.935 0-5.308-4.318-9.625-9.625-9.625-5.306 0-9.625 4.318-9.625 9.625 0 5.309 4.319 9.626 9.625 9.626 2.089 0 4.018-0.677 5.596-1.808l2.846 4.064c0.227 0.312 0.502 0.455 0.894 0.455h1.096l0.029 0.037c-0.007-0.010-0.007-0.021-0.014-0.029zM3.332 10.625c0-4.557 3.695-8.25 8.25-8.25s8.25 3.693 8.25 8.25c0 4.558-3.695 8.251-8.25 8.251s-8.25-3.693-8.25-8.251zM12.269 11.311v1.895c0 0.401-0.147 0.685-0.477 0.914l-0.898 0.63v-3.439h-1.893c-0.403-0.001-0.685-0.146-0.916-0.477l-0.628-0.898h3.437v-1.893c0.001-0.403 0.147-0.685 0.478-0.916l0.896-0.628v3.437h1.893c0.403 0.001 0.685 0.147 0.916 0.48l0.628 0.895h-3.437z"></path>
</svg>
