<!-- Generated by IcoMoon.io -->
<svg version="1.1" xmlns="http://www.w3.org/2000/svg" width="32" height="32" viewBox="0 0 32 32">
<title>zoom_money</title>
<path d="M24.356 23.455c2.437-2.344 3.961-5.627 3.961-9.264 0-7.091-5.767-12.857-12.856-12.857-7.088 0-12.857 5.767-12.857 12.857s5.768 12.857 12.857 12.857c2.791 0 5.365-0.9 7.475-2.415l3.803 5.427c0.303 0.42 0.672 0.607 1.193 0.607h1.464l-5.040-7.212zM15.461 25.211c-6.085 0-11.020-4.933-11.020-11.021s4.935-11.020 11.020-11.020c6.084 0 11.020 4.932 11.020 11.020s-4.936 11.021-11.020 11.021zM20.709 17.695c0 1.363-0.505 2.385-1.511 3.087-0.543 0.372-1.215 0.639-2 0.812-0.352 0.448-0.775 0.668-1.368 0.679l-1.759-0.011 0.324-0.46c-1.052-0.019-1.941-0.116-2.572-0.301-0.739-0.217-1.241-0.388-1.504-0.489 0.403-1.148 1.493-1.779 2.689-1.565 0.715 0.137 1.131 0.143 1.86 0.143 1.077 0 1.883-0.143 2.399-0.428 0.52-0.276 0.783-0.732 0.783-1.355 0-0.639-0.257-1.152-0.769-1.528-0.505-0.373-1.347-0.803-2.515-1.277-0.571-0.22-1.112-0.449-1.632-0.693-0.517-0.236-0.964-0.513-1.345-0.832-0.375-0.32-0.676-0.7-0.903-1.155-0.231-0.459-0.344-1.009-0.344-1.669 0-1.307 0.484-2.343 1.445-3.1 0.615-0.487 1.38-0.803 2.277-0.975l0.044-0.069c0.372-0.528 0.823-0.76 1.468-0.763l1.759 0.003-0.501 0.717c0.045 0.005 0.089 0.003 0.136 0.007 0.413 0.048 0.805 0.105 1.161 0.171 0.36 0.064 0.677 0.137 0.947 0.211 0.277 0.077 0.487 0.14 0.643 0.196-0.447 1.147-1.485 1.776-2.712 1.631-0.496-0.061-0.775-0.077-1.276-0.077-0.735 0-1.383 0.155-1.936 0.448-0.547 0.292-0.82 0.749-0.82 1.372 0 0.319 0.060 0.603 0.187 0.849 0.124 0.248 0.312 0.471 0.561 0.66 0.259 0.2 0.576 0.389 0.949 0.557 0.381 0.171 0.831 0.349 1.361 0.533 0.697 0.271 1.32 0.531 1.865 0.785 0.553 0.248 1.013 0.551 1.404 0.889 0.388 0.335 0.685 0.749 0.891 1.235 0.211 0.476 0.313 1.065 0.313 1.764z"></path>
</svg>
