<!-- Generated by IcoMoon.io -->
<svg version="1.1" xmlns="http://www.w3.org/2000/svg" width="32" height="32" viewBox="0 0 32 32">
<path d="M24.353 23.451c2.437-2.343 3.964-5.623 3.964-9.26-0.001-7.093-5.768-12.857-12.859-12.857-7.088 0-12.853 5.764-12.853 12.857 0 7.087 5.765 12.86 12.853 12.86 2.789 0 5.367-0.908 7.475-2.421l3.804 5.432c0.304 0.411 0.669 0.605 1.195 0.605h1.463l-5.041-7.216zM4.441 14.191c0-6.091 4.932-11.021 11.017-11.021s11.021 4.929 11.021 11.021c0 6.084-4.936 11.024-11.021 11.024s-11.017-4.94-11.017-11.024zM16.377 15.107v2.528c0 0.537-0.195 0.915-0.635 1.224l-1.201 0.839v-4.591h-2.527c-0.54-0.001-0.915-0.196-1.225-0.635l-0.837-1.201h4.589v-2.533c0.001-0.532 0.199-0.916 0.64-1.217l1.196-0.845v4.596h2.531c0.54 0.001 0.915 0.199 1.221 0.639l0.84 1.197h-4.592z"></path>
</svg>
